<svg xmlns="http://www.w3.org/2000/svg" viewBox="0 0 888 283">
  <path fill="#262DFF" d="M493.771 174.072c-.664 0-1.211-.545-1.211-1.211v-2.432c0-.666.547-1.211 1.211-1.211h2.469c.664 0 1.211.545 1.211 1.211v2.432c0 .666-.547 1.211-1.211 1.211h-2.469zm2.468-29.076c.664 0 1.211-.545 1.211-1.213v-2.395c0-.666-.547-1.211-1.211-1.211h-2.469c-.664 0-1.211.545-1.211 1.211v2.395c0 .668.547 1.213 1.211 1.213h2.469zm0 7.242c.664 0 1.211-.545 1.211-1.211v-2.396c0-.666-.547-1.211-1.211-1.211h-2.469c-.664 0-1.211.545-1.211 1.211v2.396c0 .666.547 1.211 1.211 1.211h2.469zm7.313 0c.666 0 1.211-.545 1.211-1.211v-2.396c0-.666-.545-1.211-1.211-1.211h-2.467c-.666 0-1.213.545-1.213 1.211v2.396c0 .666.547 1.211 1.213 1.211h2.467zm14.627-21.728c.666 0 1.213-.545 1.213-1.211v-2.395c0-.668-.547-1.213-1.213-1.213h-2.467c-.666 0-1.211.545-1.211 1.213v2.395c0 .666.545 1.211 1.211 1.211h2.467zm21.799-14.555c.666 0 1.211-.547 1.211-1.213v-2.395c0-.666-.545-1.213-1.211-1.213h-2.467c-.666 0-1.213.547-1.213 1.213v2.395c0 .666.547 1.213 1.213 1.213h2.467zm38.679 0c.668 0 1.213-.547 1.213-1.213v-2.395c0-.666-.545-1.213-1.213-1.213h-2.465c-.668 0-1.211.547-1.211 1.213v2.395c0 .666.543 1.213 1.211 1.213h2.465zm-2.504-29.096c.668 0 1.213-.545 1.213-1.211v-2.396c0-.666-.545-1.211-1.213-1.211h-2.465c-.666 0-1.211.545-1.211 1.211v2.396c0 .666.545 1.211 1.211 1.211h2.465zm3.659 7.262c.666 0 1.213-.547 1.213-1.213v-2.395c0-.666-.547-1.213-1.213-1.213h-2.467c-.666 0-1.211.547-1.211 1.213v2.395c0 .666.545 1.213 1.211 1.213h2.467zM292.595 35.932c.664 0 1.211-.547 1.211-1.213v-2.43c0-.666-.547-1.213-1.211-1.213h-2.467c-.666 0-1.213.547-1.213 1.213v2.43c0 .666.547 1.213 1.213 1.213h2.467zm7.312 0c.666 0 1.211-.547 1.211-1.213v-2.43c0-.666-.545-1.213-1.211-1.213h-2.465c-.668 0-1.213.547-1.213 1.213v2.43c0 .666.545 1.213 1.213 1.213h2.465zm7.313 0c.668 0 1.213-.547 1.213-1.213v-2.43c0-.666-.545-1.213-1.213-1.213h-2.465c-.666 0-1.211.547-1.211 1.213v2.43c0 .666.545 1.213 1.211 1.213h2.465zm7.314 0c.666 0 1.213-.547 1.213-1.213v-2.43c0-.666-.547-1.213-1.213-1.213h-2.467c-.664 0-1.211.547-1.211 1.213v2.43c0 .666.547 1.213 1.211 1.213h2.467zm58.225-14.557c.668 0 1.211-.545 1.211-1.211v-2.432c0-.666-.543-1.211-1.211-1.211h-2.465c-.668 0-1.213.545-1.213 1.211v2.432c0 .666.545 1.211 1.213 1.211h2.465zm-14.592 7.277c.666 0 1.213-.545 1.213-1.211V25.01c0-.666-.547-1.211-1.213-1.211H355.7c-.664 0-1.211.545-1.211 1.211v2.432c0 .666.547 1.211 1.211 1.211h2.467zm-14.592-7.277c.668 0 1.213-.545 1.213-1.211v-2.432c0-.666-.545-1.211-1.213-1.211h-2.465c-.668 0-1.213.545-1.213 1.211v2.432c0 .666.545 1.211 1.213 1.211h2.465zM285.28 35.932c.666 0 1.213-.547 1.213-1.213v-2.43c0-.666-.547-1.213-1.213-1.213h-2.396c-.664 0-1.211.547-1.211 1.213v2.43c0 .666.547 1.213 1.211 1.213h2.396zm-7.242 0c.666 0 1.211-.547 1.211-1.213v-2.43c0-.666-.545-1.213-1.211-1.213h-2.396c-.666 0-1.211.547-1.211 1.213v2.43c0 .666.545 1.213 1.211 1.213h2.396zm-58.012 0c.666 0 1.213-.547 1.213-1.213v-2.43c0-.666-.547-1.213-1.213-1.213h-2.467c-.666 0-1.211.547-1.211 1.213v2.43c0 .666.545 1.213 1.211 1.213h2.467zm7.315 0c.664 0 1.211-.547 1.211-1.213v-2.43c0-.666-.547-1.213-1.211-1.213h-2.469c-.664 0-1.211.547-1.211 1.213v2.43c0 .666.547 1.213 1.211 1.213h2.469zm7.312 0c.666 0 1.211-.547 1.211-1.213v-2.43c0-.666-.545-1.213-1.211-1.213h-2.467c-.666 0-1.213.547-1.213 1.213v2.43c0 .666.547 1.213 1.213 1.213h2.467zm319.739 65.502c.666 0 1.211-.545 1.211-1.211v-2.432c0-.666-.545-1.211-1.211-1.211h-2.395c-.668 0-1.213.545-1.213 1.211v2.432c0 .666.545 1.211 1.213 1.211h2.395zm14.484-14.557c.668 0 1.213-.545 1.213-1.211v-2.432c0-.666-.545-1.211-1.213-1.211h-2.395c-.666 0-1.211.545-1.211 1.211v2.432c0 .666.545 1.211 1.211 1.211h2.395zm-290.838 87.195c.666 0 1.211-.545 1.211-1.211v-2.432c0-.666-.545-1.211-1.211-1.211h-2.396c-.666 0-1.211.545-1.211 1.211v2.432c0 .666.545 1.211 1.211 1.211h2.396zm14.522 0c.664 0 1.211-.545 1.211-1.211v-2.432c0-.666-.547-1.211-1.211-1.211h-2.396c-.666 0-1.213.545-1.213 1.211v2.432c0 .666.547 1.211 1.213 1.211h2.396zm14.625 0c.668 0 1.213-.545 1.213-1.211v-2.432c0-.666-.545-1.211-1.213-1.211h-2.395c-.666 0-1.211.545-1.211 1.211v2.432c0 .666.545 1.211 1.211 1.211h2.395zm7.314 0c.666 0 1.213-.545 1.213-1.211v-2.432c0-.666-.547-1.211-1.213-1.211h-2.396c-.664 0-1.211.545-1.211 1.211v2.432c0 .666.547 1.211 1.211 1.211h2.396zm-29.219-14.556c.666 0 1.213-.545 1.213-1.211v-2.432c0-.666-.547-1.211-1.213-1.211h-2.396c-.664 0-1.211.545-1.211 1.211v2.432c0 .666.547 1.211 1.211 1.211h2.396zm-7.242 0c.666 0 1.211-.545 1.211-1.211v-2.432c0-.666-.545-1.211-1.211-1.211h-2.396c-.666 0-1.211.545-1.211 1.211v2.432c0 .666.545 1.211 1.211 1.211h2.396zm-36.213 0c.666 0 1.211-.545 1.211-1.211v-2.432c0-.666-.545-1.211-1.211-1.211h-2.395c-.668 0-1.213.545-1.213 1.211v2.432c0 .666.545 1.211 1.213 1.211h2.395zm0 7.279c.666 0 1.211-.545 1.211-1.213v-2.43c0-.668-.545-1.213-1.211-1.213h-2.395c-.668 0-1.213.545-1.213 1.213v2.43c0 .668.545 1.213 1.213 1.213h2.395zm0 7.277c.666 0 1.211-.545 1.211-1.211v-2.432c0-.666-.545-1.211-1.211-1.211h-2.395c-.668 0-1.213.545-1.213 1.211v2.432c0 .666.545 1.211 1.213 1.211h2.395zm-7.242-7.277c.664 0 1.211-.545 1.211-1.213v-2.43c0-.668-.547-1.213-1.211-1.213h-2.396c-.666 0-1.213.545-1.213 1.213v2.43c0 .668.547 1.213 1.213 1.213h2.396zm0-7.279c.664 0 1.211-.545 1.211-1.211v-2.432c0-.666-.547-1.211-1.211-1.211h-2.396c-.666 0-1.213.545-1.213 1.211v2.432c0 .666.547 1.211 1.213 1.211h2.396zm-14.557-58.082c.666 0 1.213-.545 1.213-1.211v-2.432c0-.666-.547-1.211-1.213-1.211h-2.467c-.666 0-1.211.545-1.211 1.211v2.432c0 .666.545 1.211 1.211 1.211h2.467zm7.315 0c.664 0 1.211-.545 1.211-1.211v-2.432c0-.666-.547-1.211-1.211-1.211h-2.469c-.664 0-1.211.545-1.211 1.211v2.432c0 .666.547 1.211 1.211 1.211h2.469zm14.484 21.834c.666 0 1.211-.545 1.211-1.211v-2.432c0-.666-.545-1.211-1.211-1.211h-2.395c-.668 0-1.213.545-1.213 1.211v2.432c0 .666.545 1.211 1.213 1.211h2.395zm-7.207 0c.666 0 1.211-.545 1.211-1.211v-2.432c0-.666-.545-1.211-1.211-1.211h-2.395c-.668 0-1.213.545-1.213 1.211v2.432c0 .666.545 1.211 1.213 1.211h2.395zm-7.207 0c.666 0 1.211-.545 1.211-1.211v-2.432c0-.666-.545-1.211-1.211-1.211h-2.395c-.668 0-1.213.545-1.213 1.211v2.432c0 .666.545 1.211 1.213 1.211h2.395zm-7.207 0c.666 0 1.211-.545 1.211-1.211v-2.432c0-.666-.545-1.211-1.211-1.211h-2.395c-.668 0-1.213.545-1.213 1.211v2.432c0 .666.545 1.211 1.213 1.211h2.395zm-7.207 0c.666 0 1.211-.545 1.211-1.211v-2.432c0-.666-.545-1.211-1.211-1.211h-2.395c-.668 0-1.213.545-1.213 1.211v2.432c0 .666.545 1.211 1.213 1.211h2.395zm14.344 28.97c.664 0 1.211-.545 1.211-1.211v-2.396c0-.666-.547-1.211-1.211-1.211h-2.469c-.664 0-1.211.545-1.211 1.211v2.396c0 .666.547 1.211 1.211 1.211h2.469zm-14.629-21.728c.668 0 1.211-.545 1.211-1.211v-2.395c0-.668-.543-1.213-1.211-1.213h-2.465c-.668 0-1.213.545-1.213 1.213v2.395c0 .666.545 1.211 1.213 1.211h2.465zm0 7.244c.668 0 1.211-.545 1.211-1.213v-2.395c0-.668-.543-1.213-1.211-1.213h-2.465c-.668 0-1.213.545-1.213 1.213v2.395c0 .668.545 1.213 1.213 1.213h2.465zm-7.313-7.244c.666 0 1.211-.545 1.211-1.211v-2.395c0-.668-.545-1.213-1.211-1.213h-2.467c-.666 0-1.213.545-1.213 1.213v2.395c0 .666.547 1.211 1.213 1.211h2.467zm480.069-94.578c.666 0 1.213-.547 1.213-1.213v-2.43c0-.666-.547-1.213-1.213-1.213h-2.396c-.664 0-1.211.547-1.211 1.213v2.43c0 .666.547 1.213 1.211 1.213h2.396zm0 7.277c.666 0 1.213-.545 1.213-1.211v-2.432c0-.666-.547-1.211-1.213-1.211h-2.396c-.664 0-1.211.545-1.211 1.211v2.432c0 .666.547 1.211 1.211 1.211h2.396zm-43.74 29.113c.668 0 1.213-.547 1.213-1.213v-2.43c0-.666-.545-1.213-1.213-1.213h-2.395c-.666 0-1.211.547-1.211 1.213v2.43c0 .666.545 1.213 1.211 1.213h2.395zm43.74-21.836c.666 0 1.213-.545 1.213-1.211v-2.43c0-.668-.547-1.213-1.213-1.213h-2.396c-.664 0-1.211.545-1.211 1.213v2.43c0 .666.547 1.211 1.211 1.211h2.396zm-101.752 7.28c.668 0 1.213-.545 1.213-1.213v-2.43c0-.666-.545-1.213-1.213-1.213h-2.465c-.668 0-1.211.547-1.211 1.213v2.43c0 .668.543 1.213 1.211 1.213h2.465zm7.314 0c.666 0 1.213-.545 1.213-1.213v-2.43c0-.666-.547-1.213-1.213-1.213h-2.467c-.666 0-1.211.547-1.211 1.213v2.43c0 .668.545 1.213 1.211 1.213h2.467zm7.315 0c.664 0 1.211-.545 1.211-1.213v-2.43c0-.666-.547-1.213-1.211-1.213h-2.467c-.666 0-1.213.547-1.213 1.213v2.43c0 .668.547 1.213 1.213 1.213h2.467zm7.312 0c.666 0 1.211-.545 1.211-1.213v-2.43c0-.666-.545-1.213-1.211-1.213h-2.465c-.668 0-1.213.547-1.213 1.213v2.43c0 .668.545 1.213 1.213 1.213h2.465zm7.031 0c.664 0 1.211-.545 1.211-1.213v-2.43c0-.666-.547-1.213-1.211-1.213h-2.469c-.664 0-1.211.547-1.211 1.213v2.43c0 .668.547 1.213 1.211 1.213h2.469zm-7.316 7.277c.668 0 1.213-.545 1.213-1.211V61.4c0-.666-.545-1.211-1.213-1.211h-2.465c-.666 0-1.211.545-1.211 1.211v2.432c0 .666.545 1.211 1.211 1.211h2.465zm29.256 0c.666 0 1.213-.545 1.213-1.211V61.4c0-.666-.547-1.211-1.213-1.211h-2.467c-.666 0-1.211.545-1.211 1.211v2.432c0 .666.545 1.211 1.211 1.211h2.467zm-14.627-7.277c.666 0 1.211-.545 1.211-1.213v-2.43c0-.666-.545-1.213-1.211-1.213h-2.467c-.666 0-1.213.547-1.213 1.213v2.43c0 .668.547 1.213 1.213 1.213h2.467zM459.954 6.818c.666 0 1.211-.545 1.211-1.211V3.211c0-.666-.545-1.211-1.211-1.211h-2.467c-.666 0-1.211.545-1.211 1.211v2.396c0 .666.545 1.211 1.211 1.211h2.467zm-7.312 0c.664 0 1.211-.545 1.211-1.211V3.211c0-.666-.547-1.211-1.211-1.211h-2.469c-.664 0-1.211.545-1.211 1.211v2.396c0 .666.547 1.211 1.211 1.211h2.469zm-7.315 0c.666 0 1.213-.545 1.213-1.211V3.211c0-.666-.547-1.211-1.213-1.211h-2.467c-.666 0-1.211.545-1.211 1.211v2.396c0 .666.545 1.211 1.211 1.211h2.467zm29.254 0c.666 0 1.213-.545 1.213-1.211V3.211c0-.666-.547-1.211-1.213-1.211h-2.467c-.666 0-1.211.545-1.211 1.211v2.396c0 .666.545 1.211 1.211 1.211h2.467zm-7.314 0c.668 0 1.213-.545 1.213-1.211V3.211c0-.666-.545-1.211-1.213-1.211h-2.465c-.668 0-1.211.545-1.211 1.211v2.396c0 .666.543 1.211 1.211 1.211h2.465zm21.871 14.539c.666 0 1.211-.545 1.211-1.211V17.75c0-.666-.545-1.211-1.211-1.211h-2.467c-.666 0-1.213.545-1.213 1.211v2.396c0 .666.547 1.211 1.213 1.211h2.467zm-7.315 0c.666 0 1.213-.545 1.213-1.211V17.75c0-.666-.547-1.211-1.213-1.211h-2.467c-.664 0-1.211.545-1.211 1.211v2.396c0 .666.547 1.211 1.211 1.211h2.467zm21.729 0c.666 0 1.211-.545 1.211-1.211V17.75c0-.666-.545-1.211-1.211-1.211h-2.467c-.666 0-1.213.545-1.213 1.211v2.396c0 .666.547 1.211 1.213 1.211h2.467zm-7.313 0c.664 0 1.211-.545 1.211-1.211V17.75c0-.666-.547-1.211-1.211-1.211h-2.469c-.664 0-1.211.545-1.211 1.211v2.396c0 .666.547 1.211 1.211 1.211h2.469zm21.727 0c.666 0 1.211-.545 1.211-1.211V17.75c0-.666-.545-1.211-1.211-1.211h-2.467c-.666 0-1.213.545-1.213 1.211v2.396c0 .666.547 1.211 1.213 1.211h2.467zm-7.313 0c.664 0 1.211-.545 1.211-1.211V17.75c0-.666-.547-1.211-1.211-1.211h-2.469c-.664 0-1.211.545-1.211 1.211v2.396c0 .666.547 1.211 1.211 1.211h2.469zm21.727 0c.666 0 1.211-.545 1.211-1.211V17.75c0-.666-.545-1.211-1.211-1.211h-2.467c-.666 0-1.213.545-1.213 1.211v2.396c0 .666.547 1.211 1.213 1.211h2.467zm-7.313 0c.664 0 1.211-.545 1.211-1.211V17.75c0-.666-.547-1.211-1.211-1.211h-2.469c-.664 0-1.211.545-1.211 1.211v2.396c0 .666.547 1.211 1.211 1.211h2.469zm44.024 0c.664 0 1.211-.545 1.211-1.211V17.75c0-.666-.547-1.211-1.211-1.211h-2.469c-.664 0-1.211.545-1.211 1.211v2.396c0 .666.547 1.211 1.211 1.211h2.469zm21.939 0c.666 0 1.213-.545 1.213-1.211V17.75c0-.666-.547-1.211-1.213-1.211h-2.467c-.666 0-1.211.545-1.211 1.211v2.396c0 .666.545 1.211 1.211 1.211h2.467zm-7.314 0c.668 0 1.213-.545 1.213-1.211V17.75c0-.666-.545-1.211-1.213-1.211h-2.465c-.668 0-1.211.545-1.211 1.211v2.396c0 .666.543 1.211 1.211 1.211h2.465zm14.629 0c.664 0 1.211-.545 1.211-1.211V17.75c0-.666-.547-1.211-1.211-1.211h-2.467c-.666 0-1.213.545-1.213 1.211v2.396c0 .666.547 1.211 1.213 1.211h2.467zM571.036 8.33c.664 0 1.211-.545 1.211-1.211V4.723c0-.666-.547-1.211-1.211-1.211h-2.467c-.666 0-1.213.545-1.213 1.211v2.396c0 .666.547 1.211 1.213 1.211h2.467zm-7.314 0c.666 0 1.213-.545 1.213-1.211V4.723c0-.666-.547-1.211-1.213-1.211h-2.467c-.666 0-1.211.545-1.211 1.211v2.396c0 .666.545 1.211 1.211 1.211h2.467zm-260.159 5.731c.668 0 1.213-.545 1.213-1.211v-2.395c0-.668-.545-1.213-1.213-1.213h-2.465c-.668 0-1.213.545-1.213 1.213v2.395c0 .666.545 1.211 1.213 1.211h2.465zm-7.312 0c.666 0 1.211-.545 1.211-1.211v-2.395c0-.668-.545-1.213-1.211-1.213h-2.467c-.666 0-1.213.545-1.213 1.213v2.395c0 .666.547 1.211 1.213 1.211h2.467zm-8.785 9.089c.664 0 1.211-.545 1.211-1.213v-2.395c0-.666-.547-1.211-1.211-1.211h-2.469c-.664 0-1.211.545-1.211 1.211v2.395c0 .668.547 1.213 1.211 1.213h2.469zm23.412-12.711c.666 0 1.213-.545 1.213-1.211V6.834c0-.668-.547-1.213-1.213-1.213h-2.467c-.666 0-1.211.545-1.211 1.213v2.395c0 .666.545 1.211 1.211 1.211h2.467zM530.239 107.5c1.334 0 2.426-1.09 2.426-2.424v-4.861c0-1.334-1.092-2.424-2.426-2.424h-4.789c-1.334 0-2.424 1.09-2.424 2.424v4.861c0 1.334 1.09 2.424 2.424 2.424h4.789zm0 14.557c1.334 0 2.426-1.09 2.426-2.424v-4.861c0-1.334-1.092-2.424-2.426-2.424h-4.789c-1.334 0-2.424 1.09-2.424 2.424v4.861c0 1.334 1.09 2.424 2.424 2.424h4.789zm14.487-14.557c1.334 0 2.424-1.09 2.424-2.424v-4.861c0-1.334-1.09-2.424-2.424-2.424h-4.791c-1.332 0-2.424 1.09-2.424 2.424v4.861c0 1.334 1.092 2.424 2.424 2.424h4.791zm-14.487 29.041c1.334 0 2.426-1.09 2.426-2.424v-4.789c0-1.334-1.092-2.424-2.426-2.424h-4.789c-1.334 0-2.424 1.09-2.424 2.424v4.789c0 1.334 1.09 2.424 2.424 2.424h4.789zm-29.111 29.041c1.334 0 2.424-1.09 2.424-2.424v-4.861c0-1.332-1.09-2.424-2.424-2.424h-4.932c-1.334 0-2.426 1.092-2.426 2.424v4.861c0 1.334 1.092 2.424 2.426 2.424h4.932zm54.461-25.348c1.334 0 2.424-1.092 2.424-2.424v-4.861c0-1.334-1.09-2.424-2.424-2.424h-4.791c-1.332 0-2.422 1.09-2.422 2.424v4.861c0 1.332 1.09 2.424 2.422 2.424h4.791zm14.486-8.058c1.332 0 2.422-1.092 2.422-2.424v-4.861c0-1.334-1.09-2.424-2.422-2.424h-4.791c-1.334 0-2.424 1.09-2.424 2.424v4.861c0 1.332 1.09 2.424 2.424 2.424h4.791zm-68.947 4.365c1.334 0 2.424-1.09 2.424-2.424v-4.789c0-1.334-1.09-2.424-2.424-2.424h-4.932c-1.334 0-2.426 1.09-2.426 2.424v4.789c0 1.334 1.092 2.424 2.426 2.424h4.932zM370.335 34.719c1.334 0 2.424-1.09 2.424-2.424v-4.861c0-1.332-1.09-2.424-2.424-2.424h-4.932c-1.334 0-2.424 1.092-2.424 2.424v4.861c0 1.334 1.09 2.424 2.424 2.424h4.932zm101.682 0c1.332 0 2.422-1.09 2.422-2.424v-4.861c0-1.332-1.09-2.424-2.422-2.424h-4.793c-1.332 0-2.422 1.092-2.422 2.424v4.861c0 1.334 1.09 2.424 2.422 2.424h4.793zm14.625 0c1.334 0 2.426-1.09 2.426-2.424v-4.861c0-1.332-1.092-2.424-2.426-2.424h-4.789c-1.334 0-2.424 1.092-2.424 2.424v4.861c0 1.334 1.09 2.424 2.424 2.424h4.789zm-14.625-14.555c1.332 0 2.422-1.092 2.422-2.424v-4.861c0-1.334-1.09-2.424-2.422-2.424h-4.793c-1.332 0-2.422 1.09-2.422 2.424v4.861c0 1.332 1.09 2.424 2.422 2.424h4.793zM326.595 34.719c1.334 0 2.426-1.09 2.426-2.424v-4.861c0-1.332-1.092-2.424-2.426-2.424h-4.789c-1.332 0-2.424 1.092-2.424 2.424v4.861c0 1.334 1.092 2.424 2.424 2.424h4.789zm14.486 0c1.334 0 2.424-1.09 2.424-2.424v-4.861c0-1.332-1.09-2.424-2.424-2.424h-4.791c-1.332 0-2.422 1.092-2.422 2.424v4.861c0 1.334 1.09 2.424 2.422 2.424h4.791zm218.129 43.67c1.334 0 2.424-1.092 2.424-2.424v-4.861c0-1.334-1.09-2.424-2.424-2.424h-4.791c-1.332 0-2.422 1.09-2.422 2.424v4.861c0 1.332 1.09 2.424 2.422 2.424h4.791zm0 14.554c1.334 0 2.424-1.09 2.424-2.424v-4.861c0-1.332-1.09-2.424-2.424-2.424h-4.791c-1.332 0-2.422 1.092-2.422 2.424v4.861c0 1.334 1.09 2.424 2.422 2.424h4.791zm-58.082-58.224c1.334 0 2.424-1.09 2.424-2.424v-4.861c0-1.332-1.09-2.424-2.424-2.424h-4.932c-1.334 0-2.426 1.092-2.426 2.424v4.861c0 1.334 1.092 2.424 2.426 2.424h4.932zm14.627 0c1.332 0 2.424-1.09 2.424-2.424v-4.861c0-1.332-1.092-2.424-2.424-2.424h-4.934c-1.332 0-2.422 1.092-2.422 2.424v4.861c0 1.334 1.09 2.424 2.422 2.424h4.934zm14.484 0c1.334 0 2.426-1.09 2.426-2.424v-4.861c0-1.332-1.092-2.424-2.426-2.424h-4.932c-1.334 0-2.424 1.092-2.424 2.424v4.861c0 1.334 1.09 2.424 2.424 2.424h4.932zm14.629 0c1.332 0 2.422-1.09 2.422-2.424v-4.861c0-1.332-1.09-2.424-2.422-2.424h-4.934c-1.332 0-2.424 1.092-2.424 2.424v4.861c0 1.334 1.092 2.424 2.424 2.424h4.934zm14.485 0c1.332 0 2.424-1.09 2.424-2.424v-4.861c0-1.332-1.092-2.424-2.424-2.424h-4.934c-1.332 0-2.422 1.092-2.422 2.424v4.861c0 1.334 1.09 2.424 2.422 2.424h4.934zm14.626 0c1.334 0 2.424-1.09 2.424-2.424v-4.861c0-1.332-1.09-2.424-2.424-2.424h-4.932c-1.334 0-2.426 1.092-2.426 2.424v4.861c0 1.334 1.092 2.424 2.426 2.424h4.932zm14.487 0c1.332 0 2.422-1.09 2.422-2.424v-4.861c0-1.332-1.09-2.424-2.422-2.424h-4.934c-1.332 0-2.424 1.092-2.424 2.424v4.861c0 1.334 1.092 2.424 2.424 2.424h4.934zm14.625 0c1.334 0 2.426-1.09 2.426-2.424v-4.861c0-1.332-1.092-2.424-2.426-2.424h-4.932c-1.334 0-2.424 1.092-2.424 2.424v4.861c0 1.334 1.09 2.424 2.424 2.424h4.932zm14.486 0c1.334 0 2.424-1.09 2.424-2.424v-4.861c0-1.332-1.09-2.424-2.424-2.424h-4.932c-1.334 0-2.426 1.092-2.426 2.424v4.861c0 1.334 1.092 2.424 2.426 2.424h4.932zm14.627 0c1.332 0 2.424-1.09 2.424-2.424v-4.861c0-1.332-1.092-2.424-2.424-2.424h-4.934c-1.332 0-2.422 1.092-2.422 2.424v4.861c0 1.334 1.09 2.424 2.422 2.424h4.934zm14.484 0c1.334 0 2.426-1.09 2.426-2.424v-4.861c0-1.332-1.092-2.424-2.426-2.424h-4.932c-1.334 0-2.424 1.092-2.424 2.424v4.861c0 1.334 1.09 2.424 2.424 2.424h4.932zm14.629 0c1.332 0 2.422-1.09 2.422-2.424v-4.861c0-1.332-1.09-2.424-2.422-2.424h-4.934c-1.332 0-2.424 1.092-2.424 2.424v4.861c0 1.334 1.092 2.424 2.424 2.424h4.934zm14.485 0c1.332 0 2.424-1.09 2.424-2.424v-4.861c0-1.332-1.092-2.424-2.424-2.424h-4.934c-1.332 0-2.422 1.092-2.422 2.424v4.861c0 1.334 1.09 2.424 2.422 2.424h4.934zm-407.43 130.863c1.332 0 2.422-1.09 2.422-2.424v-4.861c0-1.332-1.09-2.424-2.422-2.424h-4.791c-1.334 0-2.424 1.092-2.424 2.424v4.861c0 1.334 1.09 2.424 2.424 2.424h4.791zm-14.486 0c1.334 0 2.424-1.09 2.424-2.424v-4.861c0-1.332-1.09-2.424-2.424-2.424h-4.791c-1.332 0-2.422 1.092-2.422 2.424v4.861c0 1.334 1.09 2.424 2.422 2.424h4.791zm87.195 0c1.334 0 2.424-1.09 2.424-2.424v-4.861c0-1.332-1.09-2.424-2.424-2.424h-4.791c-1.332 0-2.422 1.092-2.422 2.424v4.861c0 1.334 1.09 2.424 2.422 2.424h4.791zm-14.486 0c1.334 0 2.426-1.09 2.426-2.424v-4.861c0-1.332-1.092-2.424-2.426-2.424h-4.789c-1.332 0-2.424 1.092-2.424 2.424v4.861c0 1.334 1.092 2.424 2.424 2.424h4.789zm-14.485 0c1.334 0 2.424-1.09 2.424-2.424v-4.861c0-1.332-1.09-2.424-2.424-2.424h-4.932c-1.334 0-2.424 1.092-2.424 2.424v4.861c0 1.334 1.09 2.424 2.424 2.424h4.932zm-14.627 0c1.334 0 2.424-1.09 2.424-2.424v-4.861c0-1.332-1.09-2.424-2.424-2.424h-4.932c-1.334 0-2.424 1.092-2.424 2.424v4.861c0 1.334 1.09 2.424 2.424 2.424h4.932zM239.401 107.5c1.334 0 2.424-1.09 2.424-2.424v-4.861c0-1.334-1.09-2.424-2.424-2.424h-4.791c-1.332 0-2.424 1.09-2.424 2.424v4.861c0 1.334 1.092 2.424 2.424 2.424h4.791zm14.485 0c1.334 0 2.424-1.09 2.424-2.424v-4.861c0-1.334-1.09-2.424-2.424-2.424h-4.791c-1.332 0-2.422 1.09-2.422 2.424v4.861c0 1.334 1.09 2.424 2.422 2.424h4.791zm0 14.557c1.334 0 2.424-1.09 2.424-2.424v-4.861c0-1.334-1.09-2.424-2.424-2.424h-4.791c-1.332 0-2.422 1.09-2.422 2.424v4.861c0 1.334 1.09 2.424 2.422 2.424h4.791zm421.773-72.782c1.334 0 2.424-1.09 2.424-2.424V41.99c0-1.332-1.09-2.424-2.424-2.424h-4.791c-1.332 0-2.422 1.092-2.422 2.424v4.861c0 1.334 1.09 2.424 2.422 2.424h4.791zm-87.338 0c1.334 0 2.426-1.09 2.426-2.424V41.99c0-1.332-1.092-2.424-2.426-2.424h-4.932c-1.334 0-2.424 1.092-2.424 2.424v4.861c0 1.334 1.09 2.424 2.424 2.424h4.932zm14.77 0c1.334 0 2.426-1.09 2.426-2.424V41.99c0-1.332-1.092-2.424-2.426-2.424h-4.932c-1.334 0-2.424 1.092-2.424 2.424v4.861c0 1.334 1.09 2.424 2.424 2.424h4.932zm14.486 0c1.334 0 2.424-1.09 2.424-2.424V41.99c0-1.332-1.09-2.424-2.424-2.424h-4.932c-1.334 0-2.426 1.092-2.426 2.424v4.861c0 1.334 1.092 2.424 2.426 2.424h4.932zm14.486 0c1.332 0 2.422-1.09 2.422-2.424V41.99c0-1.332-1.09-2.424-2.422-2.424h-4.934c-1.332 0-2.424 1.092-2.424 2.424v4.861c0 1.334 1.092 2.424 2.424 2.424h4.934zm-.144 29.114c1.334 0 2.426-1.092 2.426-2.424v-4.861c0-1.334-1.092-2.424-2.426-2.424h-4.789c-1.332 0-2.424 1.09-2.424 2.424v4.861c0 1.332 1.092 2.424 2.424 2.424h4.789zm-407.004 58.152c1.334 0 2.426-1.09 2.426-2.424v-4.789c0-1.334-1.092-2.424-2.426-2.424h-4.932c-1.334 0-2.424 1.09-2.424 2.424v4.789c0 1.334 1.09 2.424 2.424 2.424h4.932zm276.559-28.73c1.332 0 2.424-1.09 2.424-2.424v-4.861c0-1.334-1.092-2.424-2.424-2.424h-4.934c-1.332 0-2.422 1.09-2.422 2.424v4.861c0 1.334 1.09 2.424 2.422 2.424h4.934zm14.238-.303c1.334 0 2.424-1.092 2.424-2.424v-4.861c0-1.334-1.09-2.424-2.424-2.424h-4.932c-1.334 0-2.424 1.09-2.424 2.424v4.861c0 1.332 1.09 2.424 2.424 2.424h4.932zm-14.541 14.541c1.334 0 2.424-1.09 2.424-2.424v-4.861c0-1.332-1.09-2.424-2.424-2.424h-4.932c-1.336 0-2.426 1.092-2.426 2.424v4.861c0 1.334 1.09 2.424 2.426 2.424h4.932zm14.541 0c1.334 0 2.424-1.09 2.424-2.424v-4.861c0-1.332-1.09-2.424-2.424-2.424h-4.932c-1.334 0-2.424 1.092-2.424 2.424v4.861c0 1.334 1.09 2.424 2.424 2.424h4.932zm14.803-43.352c1.334 0 2.424-1.09 2.424-2.424v-4.861c0-1.332-1.09-2.424-2.424-2.424h-4.791c-1.332 0-2.422 1.092-2.422 2.424v4.861c0 1.334 1.09 2.424 2.422 2.424h4.791zm14.24-.302c1.332 0 2.422-1.09 2.422-2.424V71.11c0-1.332-1.09-2.424-2.422-2.424h-4.793c-1.332 0-2.422 1.092-2.422 2.424v4.861c0 1.334 1.09 2.424 2.422 2.424h4.793zm-14.543 14.543c1.332 0 2.424-1.092 2.424-2.424v-4.861c0-1.334-1.092-2.424-2.424-2.424h-4.791c-1.334 0-2.424 1.09-2.424 2.424v4.861c0 1.332 1.09 2.424 2.424 2.424h4.791zm14.543 0c1.332 0 2.422-1.092 2.422-2.424v-4.861c0-1.334-1.09-2.424-2.422-2.424h-4.793c-1.332 0-2.422 1.09-2.422 2.424v4.861c0 1.332 1.09 2.424 2.422 2.424h4.793zm-43.281-14.241c1.332 0 2.424-1.09 2.424-2.424v-4.861c0-1.332-1.092-2.424-2.424-2.424h-4.934c-1.332 0-2.422 1.092-2.422 2.424v4.861c0 1.334 1.09 2.424 2.422 2.424h4.934zm14.238-.302c1.334 0 2.424-1.09 2.424-2.424V71.11c0-1.332-1.09-2.424-2.424-2.424h-4.932c-1.334 0-2.424 1.092-2.424 2.424v4.861c0 1.334 1.09 2.424 2.424 2.424h4.932zm-14.541 14.543c1.334 0 2.424-1.092 2.424-2.424v-4.861c0-1.334-1.09-2.424-2.424-2.424h-4.932c-1.336 0-2.426 1.09-2.426 2.424v4.861c0 1.332 1.09 2.424 2.426 2.424h4.932zm14.541 0c1.334 0 2.424-1.092 2.424-2.424v-4.861c0-1.334-1.09-2.424-2.424-2.424h-4.932c-1.334 0-2.424 1.09-2.424 2.424v4.861c0 1.332 1.09 2.424 2.424 2.424h4.932zM297.829 78.697c1.332 0 2.424-1.09 2.424-2.424v-4.861c0-1.332-1.092-2.424-2.424-2.424h-4.934c-1.332 0-2.422 1.092-2.422 2.424v4.861c0 1.334 1.09 2.424 2.422 2.424h4.934zm14.238-.302c1.334 0 2.426-1.09 2.426-2.424V71.11c0-1.332-1.092-2.424-2.426-2.424h-4.932c-1.334 0-2.424 1.092-2.424 2.424v4.861c0 1.334 1.09 2.424 2.424 2.424h4.932zm-14.541 14.543c1.334 0 2.424-1.092 2.424-2.424v-4.861c0-1.334-1.09-2.424-2.424-2.424h-4.932c-1.334 0-2.426 1.09-2.426 2.424v4.861c0 1.332 1.092 2.424 2.426 2.424h4.932zm14.541 0c1.334 0 2.426-1.092 2.426-2.424v-4.861c0-1.334-1.092-2.424-2.426-2.424h-4.932c-1.334 0-2.424 1.09-2.424 2.424v4.861c0 1.332 1.09 2.424 2.424 2.424h4.932zm14.803-14.241c1.334 0 2.424-1.09 2.424-2.424v-4.861c0-1.332-1.09-2.424-2.424-2.424h-4.791c-1.332 0-2.422 1.092-2.422 2.424v4.861c0 1.334 1.09 2.424 2.422 2.424h4.791zm14.24-.302c1.332 0 2.422-1.09 2.422-2.424V71.11c0-1.332-1.09-2.424-2.422-2.424h-4.791c-1.334 0-2.424 1.092-2.424 2.424v4.861c0 1.334 1.09 2.424 2.424 2.424h4.791zm-14.543 14.543c1.332 0 2.424-1.092 2.424-2.424v-4.861c0-1.334-1.092-2.424-2.424-2.424h-4.789c-1.334 0-2.426 1.09-2.426 2.424v4.861c0 1.332 1.092 2.424 2.426 2.424h4.789zm14.543 0c1.332 0 2.422-1.092 2.422-2.424v-4.861c0-1.334-1.09-2.424-2.422-2.424h-4.791c-1.334 0-2.424 1.09-2.424 2.424v4.861c0 1.332 1.09 2.424 2.424 2.424h4.791zm14.944-14.241c1.334 0 2.424-1.09 2.424-2.424v-4.861c0-1.332-1.09-2.424-2.424-2.424h-4.932c-1.334 0-2.426 1.092-2.426 2.424v4.861c0 1.334 1.092 2.424 2.426 2.424h4.932zm14.24-.302c1.332 0 2.422-1.09 2.422-2.424V71.11c0-1.332-1.09-2.424-2.422-2.424h-4.934c-1.332 0-2.424 1.092-2.424 2.424v4.861c0 1.334 1.092 2.424 2.424 2.424h4.934zm-14.543 14.543c1.332 0 2.424-1.092 2.424-2.424v-4.861c0-1.334-1.092-2.424-2.424-2.424h-4.934c-1.332 0-2.422 1.09-2.422 2.424v4.861c0 1.332 1.09 2.424 2.422 2.424h4.934zm14.543 0c1.332 0 2.422-1.092 2.422-2.424v-4.861c0-1.334-1.09-2.424-2.422-2.424h-4.934c-1.332 0-2.424 1.09-2.424 2.424v4.861c0 1.332 1.092 2.424 2.424 2.424h4.934zm14.801-14.241c1.334 0 2.424-1.09 2.424-2.424v-4.861c0-1.332-1.09-2.424-2.424-2.424h-4.789c-1.334 0-2.426 1.092-2.426 2.424v4.861c0 1.334 1.092 2.424 2.426 2.424h4.789zm14.238-.302c1.334 0 2.426-1.09 2.426-2.424V71.11c0-1.332-1.092-2.424-2.426-2.424h-4.789c-1.332 0-2.424 1.092-2.424 2.424v4.861c0 1.334 1.092 2.424 2.424 2.424h4.789zm-14.541 14.543c1.334 0 2.424-1.092 2.424-2.424v-4.861c0-1.334-1.09-2.424-2.424-2.424h-4.791c-1.332 0-2.422 1.09-2.422 2.424v4.861c0 1.332 1.09 2.424 2.422 2.424h4.791zm14.541 0c1.334 0 2.426-1.092 2.426-2.424v-4.861c0-1.334-1.092-2.424-2.426-2.424h-4.789c-1.332 0-2.424 1.09-2.424 2.424v4.861c0 1.332 1.092 2.424 2.424 2.424h4.789zm14.732-14.241c1.334 0 2.424-1.09 2.424-2.424v-4.861c0-1.332-1.09-2.424-2.424-2.424h-4.791c-1.332 0-2.422 1.092-2.422 2.424v4.861c0 1.334 1.09 2.424 2.422 2.424h4.791zm14.241-.302c1.332 0 2.422-1.09 2.422-2.424V71.11c0-1.332-1.09-2.424-2.422-2.424h-4.793c-1.332 0-2.422 1.092-2.422 2.424v4.861c0 1.334 1.09 2.424 2.422 2.424h4.793zm-14.543 14.543c1.332 0 2.424-1.092 2.424-2.424v-4.861c0-1.334-1.092-2.424-2.424-2.424h-4.791c-1.334 0-2.424 1.09-2.424 2.424v4.861c0 1.332 1.09 2.424 2.424 2.424h4.791zm14.543 0c1.332 0 2.422-1.092 2.422-2.424v-4.861c0-1.334-1.09-2.424-2.422-2.424h-4.793c-1.332 0-2.422 1.09-2.422 2.424v4.861c0 1.332 1.09 2.424 2.422 2.424h4.793zm14.943-14.241c1.334 0 2.424-1.09 2.424-2.424v-4.861c0-1.332-1.09-2.424-2.424-2.424h-4.932c-1.334 0-2.426 1.092-2.426 2.424v4.861c0 1.334 1.092 2.424 2.426 2.424h4.932zm14.238-.302c1.334 0 2.424-1.09 2.424-2.424V71.11c0-1.332-1.09-2.424-2.424-2.424h-4.932c-1.334 0-2.424 1.092-2.424 2.424v4.861c0 1.334 1.09 2.424 2.424 2.424h4.932zm-14.541 14.543c1.332 0 2.422-1.092 2.422-2.424v-4.861c0-1.334-1.09-2.424-2.422-2.424h-4.934c-1.332 0-2.422 1.09-2.422 2.424v4.861c0 1.332 1.09 2.424 2.422 2.424h4.934zm14.541 0c1.334 0 2.424-1.092 2.424-2.424v-4.861c0-1.334-1.09-2.424-2.424-2.424h-4.932c-1.334 0-2.424 1.09-2.424 2.424v4.861c0 1.332 1.09 2.424 2.424 2.424h4.932zM268.646 78.697c1.334 0 2.424-1.09 2.424-2.424v-4.861c0-1.332-1.09-2.424-2.424-2.424h-4.789c-1.334 0-2.426 1.092-2.426 2.424v4.861c0 1.334 1.092 2.424 2.426 2.424h4.789zm14.238-.302c1.334 0 2.426-1.09 2.426-2.424V71.11c0-1.332-1.092-2.424-2.426-2.424h-4.789c-1.332 0-2.424 1.092-2.424 2.424v4.861c0 1.334 1.092 2.424 2.424 2.424h4.789zm-14.541 14.543c1.334 0 2.424-1.092 2.424-2.424v-4.861c0-1.334-1.09-2.424-2.424-2.424h-4.791c-1.332 0-2.422 1.09-2.422 2.424v4.861c0 1.332 1.09 2.424 2.422 2.424h4.791zm14.541 0c1.334 0 2.426-1.092 2.426-2.424v-4.861c0-1.334-1.092-2.424-2.426-2.424h-4.789c-1.332 0-2.424 1.09-2.424 2.424v4.861c0 1.332 1.092 2.424 2.424 2.424h4.789zM472.29 78.697c1.332 0 2.424-1.09 2.424-2.424v-4.861c0-1.332-1.092-2.424-2.424-2.424h-4.791c-1.334 0-2.424 1.092-2.424 2.424v4.861c0 1.334 1.09 2.424 2.424 2.424h4.791zm14.238-.302c1.334 0 2.426-1.09 2.426-2.424V71.11c0-1.332-1.092-2.424-2.426-2.424h-4.789c-1.334 0-2.426 1.092-2.426 2.424v4.861c0 1.334 1.092 2.424 2.426 2.424h4.789zm-14.541 14.543c1.334 0 2.424-1.092 2.424-2.424v-4.861c0-1.334-1.09-2.424-2.424-2.424h-4.791c-1.332 0-2.424 1.09-2.424 2.424v4.861c0 1.332 1.092 2.424 2.424 2.424h4.791zm14.541 0c1.334 0 2.426-1.092 2.426-2.424v-4.861c0-1.334-1.092-2.424-2.426-2.424h-4.789c-1.334 0-2.426 1.09-2.426 2.424v4.861c0 1.332 1.092 2.424 2.426 2.424h4.789zM385.095 20.473c1.334 0 2.424-1.09 2.424-2.424v-4.861c0-1.332-1.09-2.424-2.424-2.424h-4.789c-1.334 0-2.426 1.092-2.426 2.424v4.861c0 1.334 1.092 2.424 2.426 2.424h4.789zm14.238-.303c1.334 0 2.426-1.09 2.426-2.424v-4.861c0-1.332-1.092-2.424-2.426-2.424h-4.789c-1.332 0-2.424 1.092-2.424 2.424v4.861c0 1.334 1.092 2.424 2.424 2.424h4.789zm-14.541 14.543c1.334 0 2.424-1.092 2.424-2.424v-4.861c0-1.334-1.09-2.424-2.424-2.424h-4.791c-1.332 0-2.422 1.09-2.422 2.424v4.861c0 1.332 1.09 2.424 2.422 2.424h4.791zm14.541 0c1.334 0 2.426-1.092 2.426-2.424v-4.861c0-1.334-1.092-2.424-2.426-2.424h-4.789c-1.332 0-2.424 1.09-2.424 2.424v4.861c0 1.332 1.092 2.424 2.424 2.424h4.789zm43.916-14.24c1.334 0 2.424-1.09 2.424-2.424v-4.861c0-1.332-1.09-2.424-2.424-2.424h-4.932c-1.334 0-2.426 1.092-2.426 2.424v4.861c0 1.334 1.092 2.424 2.426 2.424h4.932zm14.238-.303c1.334 0 2.424-1.09 2.424-2.424v-4.861c0-1.332-1.09-2.424-2.424-2.424h-4.932c-1.334 0-2.424 1.092-2.424 2.424v4.861c0 1.334 1.09 2.424 2.424 2.424h4.932zm-14.541 14.543c1.332 0 2.422-1.092 2.422-2.424v-4.861c0-1.334-1.09-2.424-2.422-2.424h-4.934c-1.332 0-2.422 1.09-2.422 2.424v4.861c0 1.332 1.09 2.424 2.422 2.424h4.934zm14.541 0c1.334 0 2.424-1.092 2.424-2.424v-4.861c0-1.334-1.09-2.424-2.424-2.424h-4.932c-1.334 0-2.424 1.09-2.424 2.424v4.861c0 1.332 1.09 2.424 2.424 2.424h4.932zm-43.422-14.24c1.334 0 2.424-1.09 2.424-2.424v-4.861c0-1.332-1.09-2.424-2.424-2.424h-4.791c-1.332 0-2.422 1.092-2.422 2.424v4.861c0 1.334 1.09 2.424 2.422 2.424h4.791zm14.241-.303c1.332 0 2.422-1.09 2.422-2.424v-4.861c0-1.332-1.09-2.424-2.422-2.424h-4.793c-1.332 0-2.422 1.092-2.422 2.424v4.861c0 1.334 1.09 2.424 2.422 2.424h4.793zm-14.543 14.543c1.332 0 2.424-1.092 2.424-2.424v-4.861c0-1.334-1.092-2.424-2.424-2.424h-4.791c-1.334 0-2.424 1.09-2.424 2.424v4.861c0 1.332 1.09 2.424 2.424 2.424h4.791zm14.543 0c1.332 0 2.422-1.092 2.422-2.424v-4.861c0-1.334-1.09-2.424-2.422-2.424h-4.793c-1.332 0-2.422 1.09-2.422 2.424v4.861c0 1.332 1.09 2.424 2.422 2.424h4.793zm102.209 14.873c1.334 0 2.424-1.092 2.424-2.424v-4.861c0-1.334-1.09-2.424-2.424-2.424h-4.791c-1.332 0-2.422 1.09-2.422 2.424v4.861c0 1.332 1.09 2.424 2.422 2.424h4.791zm14.24-.303c1.332 0 2.422-1.092 2.422-2.424v-4.861c0-1.334-1.09-2.424-2.422-2.424h-4.793c-1.332 0-2.422 1.09-2.422 2.424v4.861c0 1.332 1.09 2.424 2.422 2.424h4.793zm-14.543 14.541c1.332 0 2.424-1.09 2.424-2.424v-4.861c0-1.332-1.092-2.424-2.424-2.424h-4.791c-1.334 0-2.424 1.092-2.424 2.424V61.4c0 1.334 1.09 2.424 2.424 2.424h4.791zm14.543 0c1.332 0 2.422-1.09 2.422-2.424v-4.861c0-1.332-1.09-2.424-2.422-2.424h-4.793c-1.332 0-2.422 1.092-2.422 2.424V61.4c0 1.334 1.09 2.424 2.422 2.424h4.793zm14.73-14.238c1.332 0 2.422-1.092 2.422-2.424v-4.861c0-1.334-1.09-2.424-2.422-2.424h-4.791c-1.334 0-2.424 1.09-2.424 2.424v4.861c0 1.332 1.09 2.424 2.424 2.424h4.791zm14.239-.303c1.332 0 2.424-1.092 2.424-2.424v-4.861c0-1.334-1.092-2.424-2.424-2.424h-4.789c-1.334 0-2.426 1.09-2.426 2.424v4.861c0 1.332 1.092 2.424 2.426 2.424h4.789zm-14.543 14.541c1.334 0 2.426-1.09 2.426-2.424v-4.861c0-1.332-1.092-2.424-2.426-2.424h-4.789c-1.332 0-2.424 1.092-2.424 2.424V61.4c0 1.334 1.092 2.424 2.424 2.424h4.789zm14.543 0c1.332 0 2.424-1.09 2.424-2.424v-4.861c0-1.332-1.092-2.424-2.424-2.424h-4.789c-1.334 0-2.426 1.092-2.426 2.424V61.4c0 1.334 1.092 2.424 2.426 2.424h4.789zM385.095 49.586c1.334 0 2.424-1.092 2.424-2.424v-4.861c0-1.334-1.09-2.424-2.424-2.424h-4.789c-1.334 0-2.426 1.09-2.426 2.424v4.861c0 1.332 1.092 2.424 2.426 2.424h4.789zm14.238-.303c1.334 0 2.426-1.092 2.426-2.424v-4.861c0-1.334-1.092-2.424-2.426-2.424h-4.789c-1.332 0-2.424 1.09-2.424 2.424v4.861c0 1.332 1.092 2.424 2.424 2.424h4.789zm-14.541 14.541c1.334 0 2.424-1.09 2.424-2.424v-4.861c0-1.332-1.09-2.424-2.424-2.424h-4.791c-1.332 0-2.422 1.092-2.422 2.424V61.4c0 1.334 1.09 2.424 2.422 2.424h4.791zm14.541 0c1.334 0 2.426-1.09 2.426-2.424v-4.861c0-1.332-1.092-2.424-2.426-2.424h-4.789c-1.332 0-2.424 1.092-2.424 2.424V61.4c0 1.334 1.092 2.424 2.424 2.424h4.789zm43.916-14.238c1.334 0 2.424-1.092 2.424-2.424v-4.861c0-1.334-1.09-2.424-2.424-2.424h-4.932c-1.334 0-2.426 1.09-2.426 2.424v4.861c0 1.332 1.092 2.424 2.426 2.424h4.932zm14.238-.303c1.334 0 2.424-1.092 2.424-2.424v-4.861c0-1.334-1.09-2.424-2.424-2.424h-4.932c-1.334 0-2.424 1.09-2.424 2.424v4.861c0 1.332 1.09 2.424 2.424 2.424h4.932zm-14.541 14.541c1.332 0 2.422-1.09 2.422-2.424v-4.861c0-1.332-1.09-2.424-2.422-2.424h-4.934c-1.332 0-2.422 1.092-2.422 2.424V61.4c0 1.334 1.09 2.424 2.422 2.424h4.934zm14.541 0c1.334 0 2.424-1.09 2.424-2.424v-4.861c0-1.332-1.09-2.424-2.424-2.424h-4.932c-1.334 0-2.424 1.092-2.424 2.424V61.4c0 1.334 1.09 2.424 2.424 2.424h4.932zm-43.422-14.238c1.334 0 2.424-1.092 2.424-2.424v-4.861c0-1.334-1.09-2.424-2.424-2.424h-4.791c-1.332 0-2.422 1.09-2.422 2.424v4.861c0 1.332 1.09 2.424 2.422 2.424h4.791zm14.241-.303c1.332 0 2.422-1.092 2.422-2.424v-4.861c0-1.334-1.09-2.424-2.422-2.424h-4.793c-1.332 0-2.422 1.09-2.422 2.424v4.861c0 1.332 1.09 2.424 2.422 2.424h4.793zm-14.543 14.541c1.332 0 2.424-1.09 2.424-2.424v-4.861c0-1.332-1.092-2.424-2.424-2.424h-4.791c-1.334 0-2.424 1.092-2.424 2.424V61.4c0 1.334 1.09 2.424 2.424 2.424h4.791zm14.543 0c1.332 0 2.422-1.09 2.422-2.424v-4.861c0-1.332-1.09-2.424-2.422-2.424h-4.793c-1.332 0-2.422 1.092-2.422 2.424V61.4c0 1.334 1.09 2.424 2.422 2.424h4.793zm73.168-14.238c1.332 0 2.424-1.092 2.424-2.424v-4.861c0-1.334-1.092-2.424-2.424-2.424h-4.934c-1.332 0-2.422 1.09-2.422 2.424v4.861c0 1.332 1.09 2.424 2.422 2.424h4.934zm14.238-.303c1.334 0 2.424-1.092 2.424-2.424v-4.861c0-1.334-1.09-2.424-2.424-2.424h-4.932c-1.334 0-2.424 1.09-2.424 2.424v4.861c0 1.332 1.09 2.424 2.424 2.424h4.932zm-14.541 14.541c1.334 0 2.424-1.09 2.424-2.424v-4.861c0-1.332-1.09-2.424-2.424-2.424h-4.932c-1.336 0-2.426 1.092-2.426 2.424V61.4c0 1.334 1.09 2.424 2.426 2.424h4.932zm14.541 0c1.334 0 2.424-1.09 2.424-2.424v-4.861c0-1.332-1.09-2.424-2.424-2.424h-4.932c-1.334 0-2.424 1.092-2.424 2.424V61.4c0 1.334 1.09 2.424 2.424 2.424h4.932zM472.29 49.586c1.332 0 2.424-1.092 2.424-2.424v-4.861c0-1.334-1.092-2.424-2.424-2.424h-4.791c-1.334 0-2.424 1.09-2.424 2.424v4.861c0 1.332 1.09 2.424 2.424 2.424h4.791zm14.238-.303c1.334 0 2.426-1.092 2.426-2.424v-4.861c0-1.334-1.092-2.424-2.426-2.424h-4.789c-1.334 0-2.426 1.09-2.426 2.424v4.861c0 1.332 1.092 2.424 2.426 2.424h4.789zm-14.541 14.541c1.334 0 2.424-1.09 2.424-2.424v-4.861c0-1.332-1.09-2.424-2.424-2.424h-4.791c-1.332 0-2.424 1.092-2.424 2.424V61.4c0 1.334 1.092 2.424 2.424 2.424h4.791zm14.541 0c1.334 0 2.426-1.09 2.426-2.424v-4.861c0-1.332-1.092-2.424-2.426-2.424h-4.789c-1.334 0-2.426 1.092-2.426 2.424V61.4c0 1.334 1.092 2.424 2.426 2.424h4.789zM326.87 49.586c1.334 0 2.424-1.092 2.424-2.424v-4.861c0-1.334-1.09-2.424-2.424-2.424h-4.791c-1.332 0-2.422 1.09-2.422 2.424v4.861c0 1.332 1.09 2.424 2.422 2.424h4.791zm14.24-.303c1.332 0 2.422-1.092 2.422-2.424v-4.861c0-1.334-1.09-2.424-2.422-2.424h-4.791c-1.334 0-2.424 1.09-2.424 2.424v4.861c0 1.332 1.09 2.424 2.424 2.424h4.791zm-14.543 14.541c1.332 0 2.424-1.09 2.424-2.424v-4.861c0-1.332-1.092-2.424-2.424-2.424h-4.789c-1.334 0-2.426 1.092-2.426 2.424V61.4c0 1.334 1.092 2.424 2.426 2.424h4.789zm14.543 0c1.332 0 2.422-1.09 2.422-2.424v-4.861c0-1.332-1.09-2.424-2.422-2.424h-4.791c-1.334 0-2.424 1.092-2.424 2.424V61.4c0 1.334 1.09 2.424 2.424 2.424h4.791zm-43.281-14.238c1.332 0 2.424-1.092 2.424-2.424v-4.861c0-1.334-1.092-2.424-2.424-2.424h-4.934c-1.332 0-2.422 1.09-2.422 2.424v4.861c0 1.332 1.09 2.424 2.422 2.424h4.934zm14.238-.303c1.334 0 2.426-1.092 2.426-2.424v-4.861c0-1.334-1.092-2.424-2.426-2.424h-4.932c-1.334 0-2.424 1.09-2.424 2.424v4.861c0 1.332 1.09 2.424 2.424 2.424h4.932zm-14.541 14.541c1.334 0 2.424-1.09 2.424-2.424v-4.861c0-1.332-1.09-2.424-2.424-2.424h-4.932c-1.334 0-2.426 1.092-2.426 2.424V61.4c0 1.334 1.092 2.424 2.426 2.424h4.932zm14.541 0c1.334 0 2.426-1.09 2.426-2.424v-4.861c0-1.332-1.092-2.424-2.426-2.424h-4.932c-1.334 0-2.424 1.092-2.424 2.424V61.4c0 1.334 1.09 2.424 2.424 2.424h4.932zm43.987-14.238c1.334 0 2.424-1.092 2.424-2.424v-4.861c0-1.334-1.09-2.424-2.424-2.424h-4.932c-1.334 0-2.426 1.09-2.426 2.424v4.861c0 1.332 1.092 2.424 2.426 2.424h4.932zm14.24-.303c1.332 0 2.422-1.092 2.422-2.424v-4.861c0-1.334-1.09-2.424-2.422-2.424h-4.934c-1.332 0-2.424 1.09-2.424 2.424v4.861c0 1.332 1.092 2.424 2.424 2.424h4.934zm-14.543 14.541c1.332 0 2.424-1.09 2.424-2.424v-4.861c0-1.332-1.092-2.424-2.424-2.424h-4.934c-1.332 0-2.422 1.092-2.422 2.424V61.4c0 1.334 1.09 2.424 2.422 2.424h4.934zm14.543 0c1.332 0 2.422-1.09 2.422-2.424v-4.861c0-1.332-1.09-2.424-2.422-2.424h-4.934c-1.332 0-2.424 1.092-2.424 2.424V61.4c0 1.334 1.092 2.424 2.424 2.424h4.934zM268.646 49.586c1.334 0 2.424-1.092 2.424-2.424v-4.861c0-1.334-1.09-2.424-2.424-2.424h-4.789c-1.334 0-2.426 1.09-2.426 2.424v4.861c0 1.332 1.092 2.424 2.426 2.424h4.789zm14.238-.303c1.334 0 2.426-1.092 2.426-2.424v-4.861c0-1.334-1.092-2.424-2.426-2.424h-4.789c-1.332 0-2.424 1.09-2.424 2.424v4.861c0 1.332 1.092 2.424 2.424 2.424h4.789zm-14.541 14.541c1.334 0 2.424-1.09 2.424-2.424v-4.861c0-1.332-1.09-2.424-2.424-2.424h-4.791c-1.332 0-2.422 1.092-2.422 2.424V61.4c0 1.334 1.09 2.424 2.422 2.424h4.791zm14.541 0c1.334 0 2.426-1.09 2.426-2.424v-4.861c0-1.332-1.092-2.424-2.426-2.424h-4.789c-1.332 0-2.424 1.092-2.424 2.424V61.4c0 1.334 1.092 2.424 2.424 2.424h4.789zm102.211 72.992c1.334 0 2.424-1.092 2.424-2.424v-4.791c0-1.332-1.09-2.424-2.424-2.424h-4.789c-1.334 0-2.426 1.092-2.426 2.424v4.791c0 1.332 1.092 2.424 2.426 2.424h4.789zm14.238-.302c1.334 0 2.426-1.092 2.426-2.424v-4.791c0-1.334-1.092-2.424-2.426-2.424h-4.789c-1.332 0-2.424 1.09-2.424 2.424v4.791c0 1.332 1.092 2.424 2.424 2.424h4.789zm-14.541 14.541c1.334 0 2.424-1.09 2.424-2.424v-4.789c0-1.334-1.09-2.424-2.424-2.424h-4.791c-1.332 0-2.422 1.09-2.422 2.424v4.789c0 1.334 1.09 2.424 2.422 2.424h4.791zm14.541 0c1.334 0 2.426-1.09 2.426-2.424v-4.789c0-1.334-1.092-2.424-2.426-2.424h-4.789c-1.332 0-2.424 1.09-2.424 2.424v4.789c0 1.334 1.092 2.424 2.424 2.424h4.789zm14.732-14.239c1.334 0 2.424-1.092 2.424-2.424v-4.791c0-1.332-1.09-2.424-2.424-2.424h-4.791c-1.332 0-2.422 1.092-2.422 2.424v4.791c0 1.332 1.09 2.424 2.422 2.424h4.791zm14.241-.302c1.332 0 2.422-1.092 2.422-2.424v-4.791c0-1.334-1.09-2.424-2.422-2.424h-4.793c-1.332 0-2.422 1.09-2.422 2.424v4.791c0 1.332 1.09 2.424 2.422 2.424h4.793zm-14.543 14.541c1.332 0 2.424-1.09 2.424-2.424v-4.789c0-1.334-1.092-2.424-2.424-2.424h-4.791c-1.334 0-2.424 1.09-2.424 2.424v4.789c0 1.334 1.09 2.424 2.424 2.424h4.791zm14.543 0c1.332 0 2.422-1.09 2.422-2.424v-4.789c0-1.334-1.09-2.424-2.422-2.424h-4.793c-1.332 0-2.422 1.09-2.422 2.424v4.789c0 1.334 1.09 2.424 2.422 2.424h4.793zm14.943 14.838c1.334 0 2.424-1.09 2.424-2.424v-4.861c0-1.332-1.09-2.424-2.424-2.424h-4.932c-1.334 0-2.426 1.092-2.426 2.424v4.861c0 1.334 1.092 2.424 2.426 2.424h4.932zm14.238-.303c1.334 0 2.424-1.09 2.424-2.424v-4.861c0-1.334-1.09-2.424-2.424-2.424h-4.932c-1.334 0-2.424 1.09-2.424 2.424v4.861c0 1.334 1.09 2.424 2.424 2.424h4.932zm-14.238-28.774c1.334 0 2.424-1.092 2.424-2.424v-4.791c0-1.332-1.09-2.424-2.424-2.424h-4.932c-1.334 0-2.426 1.092-2.426 2.424v4.791c0 1.332 1.092 2.424 2.426 2.424h4.932zm14.238-.302c1.334 0 2.424-1.092 2.424-2.424v-4.791c0-1.334-1.09-2.424-2.424-2.424h-4.932c-1.334 0-2.424 1.09-2.424 2.424v4.791c0 1.332 1.09 2.424 2.424 2.424h4.932zm-14.541 14.541c1.332 0 2.422-1.09 2.422-2.424v-4.789c0-1.334-1.09-2.424-2.422-2.424h-4.934c-1.332 0-2.422 1.09-2.422 2.424v4.789c0 1.334 1.09 2.424 2.422 2.424h4.934zm14.541 0c1.334 0 2.424-1.09 2.424-2.424v-4.789c0-1.334-1.09-2.424-2.424-2.424h-4.932c-1.334 0-2.424 1.09-2.424 2.424v4.789c0 1.334 1.09 2.424 2.424 2.424h4.932zm-101.433 14.838c1.334 0 2.424-1.09 2.424-2.424v-4.861c0-1.332-1.09-2.424-2.424-2.424h-4.932c-1.334 0-2.426 1.092-2.426 2.424v4.861c0 1.334 1.092 2.424 2.426 2.424h4.932zm14.24-.303c1.332 0 2.422-1.09 2.422-2.424v-4.861c0-1.334-1.09-2.424-2.422-2.424h-4.934c-1.332 0-2.424 1.09-2.424 2.424v4.861c0 1.334 1.092 2.424 2.424 2.424h4.934zm14.801.303c1.334 0 2.424-1.09 2.424-2.424v-4.861c0-1.332-1.09-2.424-2.424-2.424h-4.789c-1.334 0-2.426 1.092-2.426 2.424v4.861c0 1.334 1.092 2.424 2.426 2.424h4.789zm14.238-.303c1.334 0 2.426-1.09 2.426-2.424v-4.861c0-1.334-1.092-2.424-2.426-2.424h-4.789c-1.332 0-2.424 1.09-2.424 2.424v4.861c0 1.334 1.092 2.424 2.424 2.424h4.789zm14.732.303c1.334 0 2.424-1.09 2.424-2.424v-4.861c0-1.332-1.09-2.424-2.424-2.424h-4.791c-1.332 0-2.422 1.092-2.422 2.424v4.861c0 1.334 1.09 2.424 2.422 2.424h4.791zm14.241-.303c1.332 0 2.422-1.09 2.422-2.424v-4.861c0-1.334-1.09-2.424-2.422-2.424h-4.793c-1.332 0-2.422 1.09-2.422 2.424v4.861c0 1.334 1.09 2.424 2.422 2.424h4.793zm-130.477-57.779c1.332 0 2.424-1.09 2.424-2.424v-4.861c0-1.334-1.092-2.424-2.424-2.424h-4.934c-1.332 0-2.422 1.09-2.422 2.424v4.861c0 1.334 1.09 2.424 2.422 2.424h4.934zm14.238-.303c1.334 0 2.426-1.092 2.426-2.424v-4.861c0-1.334-1.092-2.424-2.426-2.424h-4.932c-1.334 0-2.424 1.09-2.424 2.424v4.861c0 1.332 1.09 2.424 2.424 2.424h4.932zm-14.541 14.541c1.334 0 2.424-1.09 2.424-2.424v-4.861c0-1.332-1.09-2.424-2.424-2.424h-4.932c-1.334 0-2.426 1.092-2.426 2.424v4.861c0 1.334 1.092 2.424 2.426 2.424h4.932zm14.541 0c1.334 0 2.426-1.09 2.426-2.424v-4.861c0-1.332-1.092-2.424-2.426-2.424h-4.932c-1.334 0-2.424 1.092-2.424 2.424v4.861c0 1.334 1.09 2.424 2.424 2.424h4.932zm-43.421-14.238c1.334 0 2.424-1.09 2.424-2.424v-4.861c0-1.334-1.09-2.424-2.424-2.424h-4.789c-1.334 0-2.426 1.09-2.426 2.424v4.861c0 1.334 1.092 2.424 2.426 2.424h4.789zm14.238-.303c1.334 0 2.426-1.092 2.426-2.424v-4.861c0-1.334-1.092-2.424-2.426-2.424h-4.789c-1.332 0-2.424 1.09-2.424 2.424v4.861c0 1.332 1.092 2.424 2.424 2.424h4.789zm-14.541 14.541c1.334 0 2.424-1.09 2.424-2.424v-4.861c0-1.332-1.09-2.424-2.424-2.424h-4.791c-1.332 0-2.422 1.092-2.422 2.424v4.861c0 1.334 1.09 2.424 2.422 2.424h4.791zm14.541 0c1.334 0 2.426-1.09 2.426-2.424v-4.861c0-1.332-1.092-2.424-2.426-2.424h-4.789c-1.332 0-2.424 1.092-2.424 2.424v4.861c0 1.334 1.092 2.424 2.424 2.424h4.789zm43.986-14.238c1.334 0 2.424-1.09 2.424-2.424v-4.861c0-1.334-1.09-2.424-2.424-2.424h-4.791c-1.332 0-2.422 1.09-2.422 2.424v4.861c0 1.334 1.09 2.424 2.422 2.424h4.791zm14.24-.303c1.332 0 2.422-1.092 2.422-2.424v-4.861c0-1.334-1.09-2.424-2.422-2.424h-4.791c-1.334 0-2.424 1.09-2.424 2.424v4.861c0 1.332 1.09 2.424 2.424 2.424h4.791zm-14.543 14.541c1.332 0 2.424-1.09 2.424-2.424v-4.861c0-1.332-1.092-2.424-2.424-2.424h-4.789c-1.334 0-2.426 1.092-2.426 2.424v4.861c0 1.334 1.092 2.424 2.426 2.424h4.789zm14.543 0c1.332 0 2.422-1.09 2.422-2.424v-4.861c0-1.332-1.09-2.424-2.422-2.424h-4.791c-1.334 0-2.424 1.092-2.424 2.424v4.861c0 1.334 1.09 2.424 2.424 2.424h4.791zm131.18 43.844c1.332 0 2.424-1.09 2.424-2.424v-4.861c0-1.332-1.092-2.424-2.424-2.424h-4.791c-1.334 0-2.424 1.092-2.424 2.424v4.861c0 1.334 1.09 2.424 2.424 2.424h4.791zm14.238-.303c1.334 0 2.426-1.09 2.426-2.424v-4.861c0-1.334-1.092-2.424-2.426-2.424h-4.789c-1.334 0-2.426 1.09-2.426 2.424v4.861c0 1.334 1.092 2.424 2.426 2.424h4.789zm-72.463-57.779c1.334 0 2.424-1.09 2.424-2.424v-4.861c0-1.334-1.09-2.424-2.424-2.424h-4.791c-1.332 0-2.422 1.09-2.422 2.424v4.861c0 1.334 1.09 2.424 2.422 2.424h4.791zm14.241-.303c1.332 0 2.422-1.092 2.422-2.424v-4.861c0-1.334-1.09-2.424-2.422-2.424h-4.793c-1.332 0-2.422 1.09-2.422 2.424v4.861c0 1.332 1.09 2.424 2.422 2.424h4.793zm-14.543 14.541c1.332 0 2.424-1.09 2.424-2.424v-4.861c0-1.332-1.092-2.424-2.424-2.424h-4.791c-1.334 0-2.424 1.092-2.424 2.424v4.861c0 1.334 1.09 2.424 2.424 2.424h4.791zm14.543 0c1.332 0 2.422-1.09 2.422-2.424v-4.861c0-1.332-1.09-2.424-2.422-2.424h-4.793c-1.332 0-2.422 1.092-2.422 2.424v4.861c0 1.334 1.09 2.424 2.422 2.424h4.793zm-43.211-14.238c1.334 0 2.424-1.09 2.424-2.424v-4.861c0-1.334-1.09-2.424-2.424-2.424h-4.789c-1.334 0-2.426 1.09-2.426 2.424v4.861c0 1.334 1.092 2.424 2.426 2.424h4.789zm14.238-.303c1.334 0 2.426-1.092 2.426-2.424v-4.861c0-1.334-1.092-2.424-2.426-2.424h-4.789c-1.332 0-2.424 1.09-2.424 2.424v4.861c0 1.332 1.092 2.424 2.424 2.424h4.789zm-14.541 14.541c1.334 0 2.424-1.09 2.424-2.424v-4.861c0-1.332-1.09-2.424-2.424-2.424h-4.791c-1.332 0-2.422 1.092-2.422 2.424v4.861c0 1.334 1.09 2.424 2.422 2.424h4.791zm14.541 0c1.334 0 2.426-1.09 2.426-2.424v-4.861c0-1.332-1.092-2.424-2.426-2.424h-4.789c-1.332 0-2.424 1.092-2.424 2.424v4.861c0 1.334 1.092 2.424 2.424 2.424h4.789zm72.957 14.767c1.332 0 2.424-1.092 2.424-2.424v-4.791c0-1.332-1.092-2.424-2.424-2.424h-4.791c-1.334 0-2.424 1.092-2.424 2.424v4.791c0 1.332 1.09 2.424 2.424 2.424h4.791zm14.238-.302c1.334 0 2.426-1.092 2.426-2.424v-4.791c0-1.334-1.092-2.424-2.426-2.424h-4.789c-1.334 0-2.426 1.09-2.426 2.424v4.791c0 1.332 1.092 2.424 2.426 2.424h4.789zm-14.541 14.541c1.334 0 2.424-1.09 2.424-2.424v-4.789c0-1.334-1.09-2.424-2.424-2.424h-4.791c-1.332 0-2.424 1.09-2.424 2.424v4.789c0 1.334 1.092 2.424 2.424 2.424h4.791zm14.541 0c1.334 0 2.426-1.09 2.426-2.424v-4.789c0-1.334-1.092-2.424-2.426-2.424h-4.789c-1.334 0-2.426 1.09-2.426 2.424v4.789c0 1.334 1.092 2.424 2.426 2.424h4.789zm-43.279-43.244c1.334 0 2.424-1.09 2.424-2.424v-4.861c0-1.334-1.09-2.424-2.424-2.424h-4.932c-1.334 0-2.426 1.09-2.426 2.424v4.861c0 1.334 1.092 2.424 2.426 2.424h4.932zm14.238-.303c1.334 0 2.424-1.092 2.424-2.424v-4.861c0-1.334-1.09-2.424-2.424-2.424h-4.932c-1.334 0-2.424 1.09-2.424 2.424v4.861c0 1.332 1.09 2.424 2.424 2.424h4.932zm-14.541 14.541c1.332 0 2.422-1.09 2.422-2.424v-4.861c0-1.332-1.09-2.424-2.422-2.424h-4.934c-1.332 0-2.422 1.092-2.422 2.424v4.861c0 1.334 1.09 2.424 2.422 2.424h4.934zm14.541 0c1.334 0 2.424-1.09 2.424-2.424v-4.861c0-1.332-1.09-2.424-2.424-2.424h-4.932c-1.334 0-2.424 1.092-2.424 2.424v4.861c0 1.334 1.09 2.424 2.424 2.424h4.932zm14.803-14.238c1.332 0 2.424-1.09 2.424-2.424v-4.861c0-1.334-1.092-2.424-2.424-2.424h-4.791c-1.334 0-2.424 1.09-2.424 2.424v4.861c0 1.334 1.09 2.424 2.424 2.424h4.791zm14.238-.303c1.334 0 2.426-1.092 2.426-2.424v-4.861c0-1.334-1.092-2.424-2.426-2.424h-4.789c-1.334 0-2.426 1.09-2.426 2.424v4.861c0 1.332 1.092 2.424 2.426 2.424h4.789zm-14.541 14.541c1.334 0 2.424-1.09 2.424-2.424v-4.861c0-1.332-1.09-2.424-2.424-2.424h-4.791c-1.332 0-2.424 1.092-2.424 2.424v4.861c0 1.334 1.092 2.424 2.424 2.424h4.791zm14.541 0c1.334 0 2.426-1.09 2.426-2.424v-4.861c0-1.332-1.092-2.424-2.426-2.424h-4.789c-1.334 0-2.426 1.092-2.426 2.424v4.861c0 1.334 1.092 2.424 2.426 2.424h4.789zm-217.882 14.767c1.334 0 2.424-1.092 2.424-2.424v-4.791c0-1.332-1.09-2.424-2.424-2.424h-4.789c-1.334 0-2.426 1.092-2.426 2.424v4.791c0 1.332 1.092 2.424 2.426 2.424h4.789zm14.238-.302c1.334 0 2.426-1.092 2.426-2.424v-4.791c0-1.334-1.092-2.424-2.426-2.424h-4.789c-1.332 0-2.424 1.09-2.424 2.424v4.791c0 1.332 1.092 2.424 2.424 2.424h4.789zm-14.541 14.541c1.334 0 2.424-1.09 2.424-2.424v-4.789c0-1.334-1.09-2.424-2.424-2.424h-4.791c-1.332 0-2.422 1.09-2.422 2.424v4.789c0 1.334 1.09 2.424 2.422 2.424h4.791zm14.541 0c1.334 0 2.426-1.09 2.426-2.424v-4.789c0-1.334-1.092-2.424-2.426-2.424h-4.789c-1.332 0-2.424 1.09-2.424 2.424v4.789c0 1.334 1.092 2.424 2.424 2.424h4.789zm43.986-14.239c1.334 0 2.424-1.092 2.424-2.424v-4.791c0-1.332-1.09-2.424-2.424-2.424h-4.791c-1.332 0-2.422 1.092-2.422 2.424v4.791c0 1.332 1.09 2.424 2.422 2.424h4.791zm14.24-.302c1.332 0 2.422-1.092 2.422-2.424v-4.791c0-1.334-1.09-2.424-2.422-2.424h-4.791c-1.334 0-2.424 1.09-2.424 2.424v4.791c0 1.332 1.09 2.424 2.424 2.424h4.791zm-14.543 14.541c1.332 0 2.424-1.09 2.424-2.424v-4.789c0-1.334-1.092-2.424-2.424-2.424h-4.789c-1.334 0-2.426 1.09-2.426 2.424v4.789c0 1.334 1.092 2.424 2.426 2.424h4.789zm14.543 0c1.332 0 2.422-1.09 2.422-2.424v-4.789c0-1.334-1.09-2.424-2.422-2.424h-4.791c-1.334 0-2.424 1.09-2.424 2.424v4.789c0 1.334 1.09 2.424 2.424 2.424h4.791zm-43.281-14.239c1.332 0 2.424-1.092 2.424-2.424v-4.791c0-1.332-1.092-2.424-2.424-2.424h-4.934c-1.332 0-2.422 1.092-2.422 2.424v4.791c0 1.332 1.09 2.424 2.422 2.424h4.934zm14.238-.302c1.334 0 2.426-1.092 2.426-2.424v-4.791c0-1.334-1.092-2.424-2.426-2.424h-4.932c-1.334 0-2.424 1.09-2.424 2.424v4.791c0 1.332 1.09 2.424 2.424 2.424h4.932zm-14.541 14.541c1.334 0 2.424-1.09 2.424-2.424v-4.789c0-1.334-1.09-2.424-2.424-2.424h-4.932c-1.334 0-2.426 1.09-2.426 2.424v4.789c0 1.334 1.092 2.424 2.426 2.424h4.932zm14.541 0c1.334 0 2.426-1.09 2.426-2.424v-4.789c0-1.334-1.092-2.424-2.426-2.424h-4.932c-1.334 0-2.424 1.09-2.424 2.424v4.789c0 1.334 1.09 2.424 2.424 2.424h4.932zm43.987-14.239c1.334 0 2.424-1.092 2.424-2.424v-4.791c0-1.332-1.09-2.424-2.424-2.424h-4.932c-1.334 0-2.426 1.092-2.426 2.424v4.791c0 1.332 1.092 2.424 2.426 2.424h4.932zm14.24-.302c1.332 0 2.422-1.092 2.422-2.424v-4.791c0-1.334-1.09-2.424-2.422-2.424h-4.934c-1.332 0-2.424 1.09-2.424 2.424v4.791c0 1.332 1.092 2.424 2.424 2.424h4.934zm-14.543 14.541c1.332 0 2.424-1.09 2.424-2.424v-4.789c0-1.334-1.092-2.424-2.424-2.424h-4.934c-1.332 0-2.422 1.09-2.422 2.424v4.789c0 1.334 1.09 2.424 2.422 2.424h4.934zm14.543 0c1.332 0 2.422-1.09 2.422-2.424v-4.789c0-1.334-1.09-2.424-2.422-2.424h-4.934c-1.332 0-2.424 1.09-2.424 2.424v4.789c0 1.334 1.092 2.424 2.424 2.424h4.934zm-14.24-43.244c1.334 0 2.424-1.09 2.424-2.424v-4.861c0-1.334-1.09-2.424-2.424-2.424h-4.932c-1.334 0-2.426 1.09-2.426 2.424v4.861c0 1.334 1.092 2.424 2.426 2.424h4.932zm14.24-.303c1.332 0 2.422-1.092 2.422-2.424v-4.861c0-1.334-1.09-2.424-2.422-2.424h-4.934c-1.332 0-2.424 1.09-2.424 2.424v4.861c0 1.332 1.092 2.424 2.424 2.424h4.934zm-14.543 14.541c1.332 0 2.424-1.09 2.424-2.424v-4.861c0-1.332-1.092-2.424-2.424-2.424h-4.934c-1.332 0-2.422 1.092-2.422 2.424v4.861c0 1.334 1.09 2.424 2.422 2.424h4.934zm14.543 0c1.332 0 2.422-1.09 2.422-2.424v-4.861c0-1.332-1.09-2.424-2.422-2.424h-4.934c-1.332 0-2.424 1.092-2.424 2.424v4.861c0 1.334 1.092 2.424 2.424 2.424h4.934zm276.598-72.463c1.334 0 2.426-1.092 2.426-2.424v-4.861c0-1.334-1.092-2.424-2.426-2.424h-4.932c-1.334 0-2.424 1.09-2.424 2.424v4.861c0 1.332 1.09 2.424 2.424 2.424h4.932zm14.24-.303c1.334 0 2.424-1.092 2.424-2.424v-4.861c0-1.334-1.09-2.424-2.424-2.424H656.2c-1.334 0-2.426 1.09-2.426 2.424v4.861c0 1.332 1.092 2.424 2.426 2.424h4.932zm-14.541 14.541c1.332 0 2.422-1.09 2.422-2.424v-4.861c0-1.332-1.09-2.424-2.422-2.424h-4.934c-1.332 0-2.424 1.092-2.424 2.424V61.4c0 1.334 1.092 2.424 2.424 2.424h4.934zm14.541 0c1.334 0 2.424-1.09 2.424-2.424v-4.861c0-1.332-1.09-2.424-2.424-2.424H656.2c-1.334 0-2.426 1.092-2.426 2.424V61.4c0 1.334 1.092 2.424 2.426 2.424h4.932zM239.677 78.697c1.332 0 2.422-1.09 2.422-2.424v-4.861c0-1.332-1.09-2.424-2.422-2.424h-4.793c-1.332 0-2.422 1.092-2.422 2.424v4.861c0 1.334 1.09 2.424 2.422 2.424h4.793zm14.238-.302c1.332 0 2.422-1.09 2.422-2.424V71.11c0-1.332-1.09-2.424-2.422-2.424h-4.791c-1.334 0-2.424 1.092-2.424 2.424v4.861c0 1.334 1.09 2.424 2.424 2.424h4.791zm-14.543 14.543c1.334 0 2.424-1.092 2.424-2.424v-4.861c0-1.334-1.09-2.424-2.424-2.424h-4.789c-1.334 0-2.426 1.09-2.426 2.424v4.861c0 1.332 1.092 2.424 2.426 2.424h4.789zm14.543 0c1.332 0 2.422-1.092 2.422-2.424v-4.861c0-1.334-1.09-2.424-2.422-2.424h-4.791c-1.334 0-2.424 1.09-2.424 2.424v4.861c0 1.332 1.09 2.424 2.424 2.424h4.791zm-29.043-14.543c1.334 0 2.426-1.09 2.426-2.424V71.11c0-1.332-1.092-2.424-2.426-2.424h-4.932c-1.334 0-2.424 1.092-2.424 2.424v4.861c0 1.334 1.09 2.424 2.424 2.424h4.932zm0 14.543c1.334 0 2.426-1.092 2.426-2.424v-4.861c0-1.334-1.092-2.424-2.426-2.424h-4.932c-1.334 0-2.424 1.09-2.424 2.424v4.861c0 1.332 1.09 2.424 2.424 2.424h4.932zm14.805-43.352c1.332 0 2.422-1.092 2.422-2.424v-4.861c0-1.334-1.09-2.424-2.422-2.424h-4.793c-1.332 0-2.422 1.09-2.422 2.424v4.861c0 1.332 1.09 2.424 2.422 2.424h4.793zm14.238-.303c1.332 0 2.422-1.092 2.422-2.424v-4.861c0-1.334-1.09-2.424-2.422-2.424h-4.791c-1.334 0-2.424 1.09-2.424 2.424v4.861c0 1.332 1.09 2.424 2.424 2.424h4.791zm-14.543 14.541c1.334 0 2.424-1.09 2.424-2.424v-4.861c0-1.332-1.09-2.424-2.424-2.424h-4.789c-1.334 0-2.426 1.092-2.426 2.424V61.4c0 1.334 1.092 2.424 2.426 2.424h4.789zm14.543 0c1.332 0 2.422-1.09 2.422-2.424v-4.861c0-1.332-1.09-2.424-2.422-2.424h-4.791c-1.334 0-2.424 1.092-2.424 2.424V61.4c0 1.334 1.09 2.424 2.424 2.424h4.791zm-29.043-14.541c1.334 0 2.426-1.092 2.426-2.424v-4.861c0-1.334-1.092-2.424-2.426-2.424h-4.932c-1.334 0-2.424 1.09-2.424 2.424v4.861c0 1.332 1.09 2.424 2.424 2.424h4.932zm0 14.541c1.334 0 2.426-1.09 2.426-2.424v-4.861c0-1.332-1.092-2.424-2.426-2.424h-4.932c-1.334 0-2.424 1.092-2.424 2.424V61.4c0 1.334 1.09 2.424 2.424 2.424h4.932zm14.805 72.992c1.332 0 2.422-1.092 2.422-2.424v-4.791c0-1.332-1.09-2.424-2.422-2.424h-4.793c-1.332 0-2.422 1.092-2.422 2.424v4.791c0 1.332 1.09 2.424 2.422 2.424h4.793zm14.238-.302c1.332 0 2.422-1.092 2.422-2.424v-4.791c0-1.334-1.09-2.424-2.422-2.424h-4.791c-1.334 0-2.424 1.09-2.424 2.424v4.791c0 1.332 1.09 2.424 2.424 2.424h4.791zm-14.543 14.541c1.334 0 2.424-1.09 2.424-2.424v-4.789c0-1.334-1.09-2.424-2.424-2.424h-4.789c-1.334 0-2.426 1.09-2.426 2.424v4.789c0 1.334 1.092 2.424 2.426 2.424h4.789zm14.543 0c1.332 0 2.422-1.09 2.422-2.424v-4.789c0-1.334-1.09-2.424-2.422-2.424h-4.791c-1.334 0-2.424 1.09-2.424 2.424v4.789c0 1.334 1.09 2.424 2.424 2.424h4.791zm231.387 112.718c.668 0 1.213-.545 1.213-1.213v-2.43c0-.668-.545-1.213-1.213-1.213h-2.395c-.666 0-1.211.545-1.211 1.213v2.43c0 .668.545 1.213 1.211 1.213h2.395zm-7.242 0c.668 0 1.213-.545 1.213-1.213v-2.43c0-.668-.545-1.213-1.213-1.213h-2.395c-.666 0-1.211.545-1.211 1.213v2.43c0 .668.545 1.213 1.211 1.213h2.395zm-43.668-16.919c.668 0 1.211-.545 1.211-1.211v-2.432c0-.666-.543-1.213-1.211-1.213h-2.395c-.668 0-1.211.547-1.211 1.213v2.432c0 .666.543 1.211 1.211 1.211h2.395zm7.242 7.277c.668 0 1.213-.545 1.213-1.211v-2.432c0-.666-.545-1.211-1.213-1.211h-2.395c-.666 0-1.211.545-1.211 1.211v2.432c0 .666.545 1.211 1.211 1.211h2.395zm3.693 7.279c.666 0 1.213-.545 1.213-1.213v-2.43c0-.668-.547-1.213-1.213-1.213h-2.396c-.664 0-1.211.545-1.211 1.213v2.43c0 .668.547 1.213 1.211 1.213h2.396zm60.99-7.9c.666 0 1.211-.545 1.211-1.213v-2.43c0-.666-.545-1.213-1.211-1.213h-2.395c-.668 0-1.213.547-1.213 1.213v2.43c0 .668.545 1.213 1.213 1.213h2.395zm0 7.277c.666 0 1.211-.545 1.211-1.211v-2.432c0-.666-.545-1.211-1.211-1.211h-2.395c-.668 0-1.213.545-1.213 1.211v2.432c0 .666.545 1.211 1.213 1.211h2.395zm-.07-59.057c.664 0 1.211-.545 1.211-1.211v-2.432c0-.666-.547-1.211-1.211-1.211h-2.396c-.666 0-1.213.545-1.213 1.211v2.432c0 .666.547 1.211 1.213 1.211h2.396zm3.621 7.278c.664 0 1.211-.545 1.211-1.211v-2.432c0-.666-.547-1.211-1.211-1.211h-2.396c-.666 0-1.211.545-1.211 1.211v2.432c0 .666.545 1.211 1.211 1.211h2.396zm-7.242 59.058c.664 0 1.211-.547 1.211-1.213v-2.43c0-.668-.547-1.213-1.211-1.213h-2.396c-.666 0-1.213.545-1.213 1.213v2.43c0 .666.547 1.213 1.213 1.213h2.396zm64.477 4.26c.664 0 1.211-.545 1.211-1.211v-2.432c0-.666-.547-1.211-1.211-1.211h-2.396c-.666 0-1.213.545-1.213 1.211v2.432c0 .666.547 1.211 1.213 1.211h2.396zm0 7.279c.664 0 1.211-.547 1.211-1.213v-2.43c0-.668-.547-1.213-1.211-1.213h-2.396c-.666 0-1.213.545-1.213 1.213v2.43c0 .666.547 1.213 1.213 1.213h2.396zm-7.315-10.917c.666 0 1.213-.545 1.213-1.211v-2.432c0-.666-.547-1.211-1.213-1.211h-2.396c-.664 0-1.211.545-1.211 1.211v2.432c0 .666.547 1.211 1.211 1.211h2.396zm-7.244-3.639c.668 0 1.213-.545 1.213-1.213v-2.43c0-.668-.545-1.213-1.213-1.213h-2.395c-.666 0-1.211.545-1.211 1.213v2.43c0 .668.545 1.213 1.211 1.213h2.395zm-99.94 3.639c.666 0 1.213-.545 1.213-1.211v-2.432c0-.666-.547-1.211-1.213-1.211h-2.395c-.666 0-1.213.545-1.213 1.211v2.432c0 .666.547 1.211 1.213 1.211h2.395zM478.06 282c.668 0 1.213-.545 1.213-1.213v-2.43c0-.666-.545-1.211-1.213-1.211h-2.395c-.666 0-1.211.545-1.211 1.211v2.43c0 .668.545 1.213 1.211 1.213h2.395zm-7.207 0c.668 0 1.213-.545 1.213-1.213v-2.43c0-.666-.545-1.211-1.213-1.211h-2.395c-.666 0-1.211.545-1.211 1.211v2.43c0 .668.545 1.213 1.211 1.213h2.395zm-7.278-3.639c.666 0 1.211-.547 1.211-1.213v-2.43c0-.668-.545-1.213-1.211-1.213h-2.395c-.668 0-1.213.545-1.213 1.213v2.43c0 .666.545 1.213 1.213 1.213h2.395zm28.971-36.422c.666 0 1.213-.547 1.213-1.213v-2.43c0-.668-.547-1.213-1.213-1.213h-2.396c-.664 0-1.211.545-1.211 1.213v2.43c0 .666.547 1.213 1.211 1.213h2.396zm-7.244 0c.668 0 1.213-.547 1.213-1.213v-2.43c0-.668-.545-1.213-1.213-1.213h-2.395c-.666 0-1.211.545-1.211 1.213v2.43c0 .666.545 1.213 1.211 1.213h2.395zm-207.264-60.587c.666 0 1.211-.545 1.211-1.213v-2.43c0-.668-.545-1.213-1.211-1.213h-2.396c-.666 0-1.211.545-1.211 1.213v2.43c0 .668.545 1.213 1.211 1.213h2.396zm7.242 0c.666 0 1.213-.545 1.213-1.213v-2.43c0-.668-.547-1.213-1.213-1.213h-2.396c-.664 0-1.211.545-1.211 1.213v2.43c0 .668.547 1.213 1.211 1.213h2.396zm7.28 0c.664 0 1.211-.545 1.211-1.213v-2.43c0-.668-.547-1.213-1.211-1.213h-2.396c-.666 0-1.213.545-1.213 1.213v2.43c0 .668.547 1.213 1.213 1.213h2.396zm145.453 36.388c.668 0 1.211-.545 1.211-1.211v-2.432c0-.666-.543-1.211-1.211-1.211h-2.465c-.668 0-1.213.545-1.213 1.211v2.432c0 .666.545 1.211 1.213 1.211h2.465zm0 7.28c.668 0 1.211-.545 1.211-1.213v-2.43c0-.668-.543-1.213-1.211-1.213h-2.465c-.668 0-1.213.545-1.213 1.213v2.43c0 .668.545 1.213 1.213 1.213h2.465zm14.629-7.28c.664 0 1.211-.545 1.211-1.211v-2.432c0-.666-.547-1.211-1.211-1.211h-2.469c-.664 0-1.211.545-1.211 1.211v2.432c0 .666.547 1.211 1.211 1.211h2.469zm7.312 0c.666 0 1.211-.545 1.211-1.211v-2.432c0-.666-.545-1.211-1.211-1.211h-2.467c-.666 0-1.211.545-1.211 1.211v2.432c0 .666.545 1.211 1.211 1.211h2.467zm7.313-7.277c.668 0 1.213-.545 1.213-1.211v-2.432c0-.666-.545-1.211-1.213-1.211h-2.465c-.668 0-1.211.545-1.211 1.211v2.432c0 .666.543 1.211 1.211 1.211h2.465zm-14.625-21.834c.664 0 1.211-.545 1.211-1.213v-2.43c0-.668-.547-1.211-1.211-1.211h-2.469c-.664 0-1.211.543-1.211 1.211v2.43c0 .668.547 1.213 1.211 1.213h2.469zm0 7.277c.664 0 1.211-.545 1.211-1.211v-2.432c0-.666-.547-1.211-1.211-1.211h-2.469c-.664 0-1.211.545-1.211 1.211v2.432c0 .666.547 1.211 1.211 1.211h2.469zm7.312-7.277c.666 0 1.211-.545 1.211-1.213v-2.43c0-.668-.545-1.211-1.211-1.211h-2.467c-.666 0-1.211.543-1.211 1.211v2.43c0 .668.545 1.213 1.211 1.213h2.467zm-167.359 0c.664 0 1.211-.545 1.211-1.213v-2.43c0-.668-.547-1.211-1.211-1.211h-2.467c-.666 0-1.213.543-1.213 1.211v2.43c0 .668.547 1.213 1.213 1.213h2.467zm0 7.277c.664 0 1.211-.545 1.211-1.211v-2.432c0-.666-.547-1.211-1.211-1.211h-2.467c-.666 0-1.213.545-1.213 1.211v2.432c0 .666.547 1.211 1.213 1.211h2.467zm87.406-7.277c.668 0 1.213-.545 1.213-1.213v-2.43c0-.668-.545-1.211-1.213-1.211h-2.395c-.666 0-1.211.543-1.211 1.211v2.43c0 .668.545 1.213 1.211 1.213h2.395zm0 7.277c.668 0 1.213-.545 1.213-1.211v-2.432c0-.666-.545-1.211-1.213-1.211h-2.395c-.666 0-1.211.545-1.211 1.211v2.432c0 .666.545 1.211 1.211 1.211h2.395zm7.242-7.277c.668 0 1.213-.545 1.213-1.213v-2.43c0-.668-.545-1.211-1.213-1.211h-2.395c-.666 0-1.211.543-1.211 1.211v2.43c0 .668.545 1.213 1.211 1.213h2.395zm-29.111 21.834c.666 0 1.213-.545 1.213-1.211v-2.432c0-.666-.547-1.211-1.213-1.211h-2.467c-.666 0-1.211.545-1.211 1.211v2.432c0 .666.545 1.211 1.211 1.211h2.467zm0-7.277c.666 0 1.213-.545 1.213-1.213v-2.43c0-.668-.547-1.213-1.213-1.213h-2.467c-.666 0-1.211.545-1.211 1.213v2.43c0 .668.545 1.213 1.211 1.213h2.467zM256.31 188.629c.668 0 1.211-.545 1.211-1.213v-2.43c0-.668-.543-1.211-1.211-1.211h-2.395c-.668 0-1.211.543-1.211 1.211v2.43c0 .668.543 1.213 1.211 1.213h2.395zm0 7.277c.668 0 1.211-.545 1.211-1.211v-2.432c0-.666-.543-1.211-1.211-1.211h-2.395c-.668 0-1.211.545-1.211 1.211v2.432c0 .666.543 1.211 1.211 1.211h2.395zm0 7.28c.668 0 1.211-.545 1.211-1.213v-2.43c0-.668-.543-1.213-1.211-1.213h-2.395c-.668 0-1.211.545-1.211 1.213v2.43c0 .668.543 1.213 1.211 1.213h2.395zm7.242 0c.668 0 1.213-.545 1.213-1.213v-2.43c0-.668-.545-1.213-1.213-1.213h-2.395c-.666 0-1.211.545-1.211 1.213v2.43c0 .668.545 1.213 1.211 1.213h2.395zm0 7.277c.668 0 1.213-.545 1.213-1.211v-2.432c0-.666-.545-1.211-1.213-1.211h-2.395c-.666 0-1.211.545-1.211 1.211v2.432c0 .666.545 1.211 1.211 1.211h2.395zm7.242-7.277c.668 0 1.213-.545 1.213-1.213v-2.43c0-.668-.545-1.213-1.213-1.213h-2.395c-.666 0-1.211.545-1.211 1.213v2.43c0 .668.545 1.213 1.211 1.213h2.395zm7.244 0c.666 0 1.211-.545 1.211-1.213v-2.43c0-.668-.545-1.213-1.211-1.213h-2.396c-.666 0-1.211.545-1.211 1.213v2.43c0 .668.545 1.213 1.211 1.213h2.396zm14.522 0c.664 0 1.211-.545 1.211-1.213v-2.43c0-.668-.547-1.213-1.211-1.213h-2.396c-.666 0-1.213.545-1.213 1.213v2.43c0 .668.547 1.213 1.213 1.213h2.396zm-43.493-14.557c.666 0 1.211-.545 1.211-1.213v-2.43c0-.668-.545-1.211-1.211-1.211h-2.395c-.668 0-1.213.543-1.213 1.211v2.43c0 .668.545 1.213 1.213 1.213h2.395zm116.379 29.111c.664 0 1.211-.545 1.211-1.211v-2.432c0-.666-.547-1.211-1.211-1.211h-2.467c-.666 0-1.213.545-1.213 1.211v2.432c0 .666.547 1.211 1.213 1.211h2.467zm0 7.28c.664 0 1.211-.545 1.211-1.213v-2.43c0-.668-.547-1.213-1.211-1.213h-2.467c-.666 0-1.213.545-1.213 1.213v2.43c0 .668.547 1.213 1.213 1.213h2.467zm10.969 3.638c.668 0 1.213-.545 1.213-1.211v-2.432c0-.666-.545-1.213-1.213-1.213h-2.465c-.668 0-1.213.547-1.213 1.213v2.432c0 .666.545 1.211 1.213 1.211h2.465zm39.801-40.029c.664 0 1.211-.545 1.211-1.213v-2.43c0-.668-.547-1.211-1.211-1.211h-2.469c-.664 0-1.211.543-1.211 1.211v2.43c0 .668.547 1.213 1.211 1.213h2.469zm7.312 14.557c.666 0 1.211-.545 1.211-1.213v-2.43c0-.668-.545-1.213-1.211-1.213h-2.467c-.666 0-1.213.545-1.213 1.213v2.43c0 .668.547 1.213 1.213 1.213h2.467zm7.243 0c.666 0 1.211-.545 1.211-1.213v-2.43c0-.668-.545-1.213-1.211-1.213h-2.465c-.668 0-1.213.545-1.213 1.213v2.43c0 .668.545 1.213 1.213 1.213h2.465zm-58.012 14.554c.668 0 1.211-.545 1.211-1.211v-2.432c0-.666-.543-1.211-1.211-1.211h-2.465c-.668 0-1.213.545-1.213 1.211v2.432c0 .666.545 1.211 1.213 1.211h2.465zm102.914 37.543c1.332 0 2.422-1.09 2.422-2.424v-4.861c0-1.334-1.09-2.424-2.422-2.424h-4.791c-1.334 0-2.424 1.09-2.424 2.424v4.861c0 1.334 1.09 2.424 2.424 2.424h4.791zm14.449 0c1.332 0 2.424-1.09 2.424-2.424v-4.861c0-1.334-1.092-2.424-2.424-2.424h-4.791c-1.334 0-2.424 1.09-2.424 2.424v4.861c0 1.334 1.09 2.424 2.424 2.424h4.791zm-221.75-75.144c1.332 0 2.422-1.09 2.422-2.424v-4.861c0-1.332-1.09-2.424-2.422-2.424h-4.791c-1.334 0-2.424 1.092-2.424 2.424v4.861c0 1.334 1.09 2.424 2.424 2.424h4.791zm-14.486 0c1.334 0 2.424-1.09 2.424-2.424v-4.861c0-1.332-1.09-2.424-2.424-2.424h-4.791c-1.332 0-2.422 1.092-2.422 2.424v4.861c0 1.334 1.09 2.424 2.422 2.424h4.791zm189.017 29.113c1.332 0 2.424-1.092 2.424-2.424v-4.861c0-1.334-1.092-2.424-2.424-2.424h-4.934c-1.332 0-2.422 1.09-2.422 2.424v4.861c0 1.332 1.09 2.424 2.422 2.424h4.934zm0-14.557c1.332 0 2.424-1.092 2.424-2.424v-4.861c0-1.334-1.092-2.424-2.424-2.424h-4.934c-1.332 0-2.422 1.09-2.422 2.424v4.861c0 1.332 1.09 2.424 2.422 2.424h4.934zm14.627 14.557c1.334 0 2.424-1.092 2.424-2.424v-4.861c0-1.334-1.09-2.424-2.424-2.424h-4.932c-1.334 0-2.426 1.09-2.426 2.424v4.861c0 1.332 1.092 2.424 2.426 2.424h4.932zm-174.674-14.557c1.332 0 2.424-1.092 2.424-2.424v-4.861c0-1.334-1.092-2.424-2.424-2.424h-4.789c-1.336 0-2.426 1.09-2.426 2.424v4.861c0 1.332 1.09 2.424 2.426 2.424h4.789zm-14.484 0c1.332 0 2.422-1.092 2.422-2.424v-4.861c0-1.334-1.09-2.424-2.422-2.424h-4.791c-1.334 0-2.424 1.09-2.424 2.424v4.861c0 1.332 1.09 2.424 2.424 2.424h4.791zm101.963 0c1.334 0 2.424-1.092 2.424-2.424v-4.861c0-1.334-1.09-2.424-2.424-2.424h-4.932c-1.334 0-2.424 1.09-2.424 2.424v4.861c0 1.332 1.09 2.424 2.424 2.424h4.932zm0 14.557c1.334 0 2.424-1.092 2.424-2.424v-4.861c0-1.334-1.09-2.424-2.424-2.424h-4.932c-1.334 0-2.424 1.09-2.424 2.424v4.861c0 1.332 1.09 2.424 2.424 2.424h4.932zm-14.627-14.557c1.332 0 2.424-1.092 2.424-2.424v-4.861c0-1.334-1.092-2.424-2.424-2.424h-4.934c-1.332 0-2.422 1.09-2.422 2.424v4.861c0 1.332 1.09 2.424 2.422 2.424h4.934zm-14.627-14.556c1.334 0 2.424-1.09 2.424-2.424v-4.861c0-1.332-1.09-2.424-2.424-2.424h-4.791c-1.332 0-2.422 1.092-2.422 2.424v4.861c0 1.334 1.09 2.424 2.422 2.424h4.791zm87.195 14.556c1.334 0 2.424-1.092 2.424-2.424v-4.861c0-1.334-1.09-2.424-2.424-2.424h-4.791c-1.332 0-2.424 1.09-2.424 2.424v4.861c0 1.332 1.092 2.424 2.424 2.424h4.791zm14.67-14.564c1.332 0 2.422-1.09 2.422-2.422v-4.863c0-1.332-1.09-2.422-2.422-2.422h-4.934c-1.332 0-2.422 1.09-2.422 2.422v4.863c0 1.332 1.09 2.422 2.422 2.422h4.934zm14.541 0c1.334 0 2.424-1.09 2.424-2.422v-4.863c0-1.332-1.09-2.422-2.424-2.422h-4.932c-1.334 0-2.424 1.09-2.424 2.422v4.863c0 1.332 1.09 2.422 2.424 2.422h4.932zm-101.736 0c1.332 0 2.424-1.09 2.424-2.422v-4.863c0-1.332-1.092-2.422-2.424-2.422h-4.934c-1.332 0-2.422 1.09-2.422 2.422v4.863c0 1.332 1.09 2.422 2.422 2.422h4.934zm14.543 0c1.332 0 2.422-1.09 2.422-2.422v-4.863c0-1.332-1.09-2.422-2.422-2.422h-4.934c-1.332 0-2.424 1.09-2.424 2.422v4.863c0 1.332 1.092 2.422 2.424 2.422h4.934zm14.498 0c1.334 0 2.424-1.09 2.424-2.422v-4.863c0-1.332-1.09-2.422-2.424-2.422h-4.791c-1.332 0-2.422 1.09-2.422 2.422v4.863c0 1.332 1.09 2.422 2.422 2.422h4.791zm14.541 0c1.334 0 2.426-1.09 2.426-2.422v-4.863c0-1.332-1.092-2.422-2.426-2.422h-4.789c-1.332 0-2.424 1.09-2.424 2.422v4.863c0 1.332 1.092 2.422 2.424 2.422h4.789zm14.43 0c1.332 0 2.424-1.09 2.424-2.422v-4.863c0-1.332-1.092-2.422-2.424-2.422h-4.791c-1.334 0-2.424 1.09-2.424 2.422v4.863c0 1.332 1.09 2.422 2.424 2.422h4.791zm14.543 0c1.332 0 2.422-1.09 2.422-2.422v-4.863c0-1.332-1.09-2.422-2.422-2.422h-4.793c-1.332 0-2.422 1.09-2.422 2.422v4.863c0 1.332 1.09 2.422 2.422 2.422h4.793zm43.681 0c1.334 0 2.424-1.09 2.424-2.422v-4.863c0-1.332-1.09-2.422-2.424-2.422h-4.791c-1.332 0-2.424 1.09-2.424 2.422v4.863c0 1.332 1.092 2.422 2.424 2.422h4.791zm14.541 0c1.334 0 2.426-1.09 2.426-2.422v-4.863c0-1.332-1.092-2.422-2.426-2.422h-4.789c-1.334 0-2.426 1.09-2.426 2.422v4.863c0 1.332 1.092 2.422 2.426 2.422h4.789z"/>
</svg>
