<svg xmlns="http://www.w3.org/2000/svg" viewBox="0 0 888 283">
  <path fill="#262DFF" d="M386.25 282c-.789 0-1.436-.646-1.436-1.436v-2.881c0-.789.646-1.438 1.436-1.438h2.923c.79 0 1.437.648 1.437 1.438v2.881c0 .789-.646 1.436-1.437 1.436h-2.923zm20.258-17.25c.79 0 1.437-.646 1.437-1.438v-2.881c0-.789-.646-1.436-1.437-1.436h-2.923c-.789 0-1.436.646-1.436 1.436v2.881c0 .791.646 1.438 1.436 1.438h2.923zm17.251-34.502c.79 0 1.437-.646 1.437-1.436v-2.881c0-.791-.646-1.438-1.437-1.438h-2.839c-.789 0-1.436.646-1.436 1.438v2.881c0 .789.646 1.436 1.436 1.436h2.839zm51.5-146.463c.789 0 1.436-.646 1.436-1.436v-2.881c0-.791-.646-1.438-1.436-1.438h-2.838c-.791 0-1.438.646-1.438 1.438v2.881c0 .789.646 1.436 1.438 1.436h2.838zm0-8.625c.789 0 1.436-.646 1.436-1.438v-2.879c0-.791-.646-1.438-1.436-1.438h-2.838c-.791 0-1.438.646-1.438 1.438v2.879c0 .791.646 1.438 1.438 1.438h2.838zm8.584 8.625c.789 0 1.436-.646 1.436-1.436v-2.881c0-.791-.646-1.438-1.436-1.438h-2.84c-.789 0-1.436.646-1.436 1.438v2.881c0 .789.646 1.436 1.436 1.436h2.84zm8.625 0c.789 0 1.436-.646 1.436-1.436v-2.881c0-.791-.646-1.438-1.436-1.438h-2.84c-.789 0-1.436.646-1.436 1.438v2.881c0 .789.646 1.436 1.436 1.436h2.84zm0-8.625c.789 0 1.436-.646 1.436-1.438v-2.879c0-.791-.646-1.438-1.436-1.438h-2.84c-.789 0-1.436.646-1.436 1.438v2.879c0 .791.646 1.438 1.436 1.438h2.84zm-8.625-17.252c.789 0 1.436-.645 1.436-1.436v-2.881c0-.789-.646-1.436-1.436-1.436h-2.84c-.789 0-1.436.646-1.436 1.436v2.881c0 .791.646 1.436 1.436 1.436h2.84zm-8.584 0c.789 0 1.436-.645 1.436-1.436v-2.881c0-.789-.646-1.436-1.436-1.436h-2.838c-.791 0-1.438.646-1.438 1.436v2.881c0 .791.646 1.436 1.438 1.436h2.838zm-68.751 8.627c.79 0 1.437-.646 1.437-1.438v-2.881c0-.789-.646-1.436-1.437-1.436h-2.923c-.789 0-1.436.646-1.436 1.436v2.881c0 .791.646 1.438 1.436 1.438h2.923zm0-8.627c.79 0 1.437-.645 1.437-1.436v-2.881c0-.789-.646-1.436-1.437-1.436h-2.923c-.789 0-1.436.646-1.436 1.436v2.881c0 .791.646 1.436 1.436 1.436h2.923zm25.834 0c.79 0 1.437-.645 1.437-1.436v-2.881c0-.789-.646-1.436-1.437-1.436h-2.839c-.789 0-1.436.646-1.436 1.436v2.881c0 .791.646 1.436 1.436 1.436h2.839zm0 8.627c.79 0 1.437-.646 1.437-1.438v-2.881c0-.789-.646-1.436-1.437-1.436h-2.839c-.789 0-1.436.646-1.436 1.436v2.881c0 .791.646 1.438 1.436 1.438h2.839zm0 8.625c.79 0 1.437-.646 1.437-1.438v-2.879c0-.791-.646-1.438-1.437-1.438h-2.839c-.789 0-1.436.646-1.436 1.438v2.879c0 .791.646 1.438 1.436 1.438h2.839zm-8.583-8.625c.79 0 1.437-.646 1.437-1.438v-2.881c0-.789-.646-1.436-1.437-1.436h-2.839c-.789 0-1.436.646-1.436 1.436v2.881c0 .791.646 1.438 1.436 1.438h2.839zm0-8.627c.79 0 1.437-.645 1.437-1.436v-2.881c0-.789-.646-1.436-1.437-1.436h-2.839c-.789 0-1.436.646-1.436 1.436v2.881c0 .791.646 1.436 1.436 1.436h2.839zm0 43.127c.79 0 1.437-.645 1.437-1.436v-2.881c0-.789-.646-1.436-1.437-1.436h-2.839c-.789 0-1.436.646-1.436 1.436V99.6c0 .791.646 1.436 1.436 1.436h2.839zm0-8.625c.79 0 1.437-.645 1.437-1.436v-2.881c0-.791-.646-1.436-1.437-1.436h-2.839c-.789 0-1.436.645-1.436 1.436v2.881c0 .791.646 1.436 1.436 1.436h2.839zm17.167 69.004c.789 0 1.436-.646 1.436-1.438v-2.881c0-.789-.646-1.436-1.436-1.436h-2.839c-.79 0-1.437.646-1.437 1.436v2.881c0 .791.646 1.438 1.437 1.438h2.839zm0 8.625c.789 0 1.436-.646 1.436-1.438v-2.879c0-.791-.646-1.438-1.436-1.438h-2.839c-.79 0-1.437.646-1.437 1.438v2.879c0 .791.646 1.438 1.437 1.438h2.839zm8.583-8.625c.789 0 1.436-.646 1.436-1.438v-2.881c0-.789-.646-1.436-1.436-1.436h-2.839c-.79 0-1.437.646-1.437 1.436v2.881c0 .791.646 1.438 1.437 1.438h2.839zm43-69.004c.791 0 1.436-.645 1.436-1.436v-2.881c0-.791-.645-1.436-1.436-1.436h-2.924c-.789 0-1.434.645-1.434 1.436v2.881c0 .791.645 1.436 1.434 1.436h2.924zm0 8.625c.791 0 1.436-.645 1.436-1.436v-2.881c0-.789-.645-1.436-1.436-1.436h-2.924c-.789 0-1.434.646-1.434 1.436V99.6c0 .791.645 1.436 1.434 1.436h2.924zm-43-8.625c.789 0 1.436-.645 1.436-1.436v-2.881c0-.791-.646-1.436-1.436-1.436h-2.839c-.79 0-1.437.645-1.437 1.436v2.881c0 .791.646 1.436 1.437 1.436h2.839zm0 8.625c.789 0 1.436-.645 1.436-1.436v-2.881c0-.789-.646-1.436-1.436-1.436h-2.839c-.79 0-1.437.646-1.437 1.436V99.6c0 .791.646 1.436 1.437 1.436h2.839zm0 8.625c.789 0 1.436-.645 1.436-1.436v-2.881c0-.789-.646-1.436-1.436-1.436h-2.839c-.79 0-1.437.646-1.437 1.436v2.881c0 .791.646 1.436 1.437 1.436h2.839zm8.584 0c.789 0 1.436-.645 1.436-1.436v-2.881c0-.789-.646-1.436-1.436-1.436h-2.84c-.789 0-1.436.646-1.436 1.436v2.881c0 .791.646 1.436 1.436 1.436h2.84zm0 8.627c.789 0 1.436-.646 1.436-1.438v-2.881c0-.789-.646-1.436-1.436-1.436h-2.84c-.789 0-1.436.646-1.436 1.436v2.881c0 .791.646 1.438 1.436 1.438h2.84zm-17.167 0c.789 0 1.436-.646 1.436-1.438v-2.881c0-.789-.646-1.436-1.436-1.436h-2.839c-.79 0-1.437.646-1.437 1.436v2.881c0 .791.646 1.438 1.437 1.438h2.839zm25.749-8.627c.789 0 1.438-.645 1.438-1.436v-2.881c0-.789-.648-1.436-1.438-1.436h-2.838c-.791 0-1.436.646-1.436 1.436v2.881c0 .791.645 1.436 1.436 1.436h2.838zm8.584 0c.789 0 1.436-.645 1.436-1.436v-2.881c0-.789-.646-1.436-1.436-1.436h-2.838c-.791 0-1.438.646-1.438 1.436v2.881c0 .791.646 1.436 1.438 1.436h2.838zm17.209 0c.789 0 1.436-.645 1.436-1.436v-2.881c0-.789-.646-1.436-1.436-1.436h-2.84c-.789 0-1.436.646-1.436 1.436v2.881c0 .791.646 1.436 1.436 1.436h2.84zm-51.542-17.25c.789 0 1.436-.645 1.436-1.436v-2.881c0-.791-.646-1.436-1.436-1.436h-2.839c-.79 0-1.437.645-1.437 1.436v2.881c0 .791.646 1.436 1.437 1.436h2.839zm17.167 51.752c.789 0 1.436-.645 1.436-1.436v-2.881c0-.791-.646-1.436-1.436-1.436h-2.84c-.789 0-1.436.645-1.436 1.436v2.881c0 .791.646 1.436 1.436 1.436h2.84zm0 8.625c.789 0 1.436-.645 1.436-1.436v-2.881c0-.789-.646-1.436-1.436-1.436h-2.84c-.789 0-1.436.646-1.436 1.436v2.881c0 .791.646 1.436 1.436 1.436h2.84zm8.582-8.625c.789 0 1.438-.645 1.438-1.436v-2.881c0-.791-.648-1.436-1.438-1.436h-2.838c-.791 0-1.436.645-1.436 1.436v2.881c0 .791.645 1.436 1.436 1.436h2.838zm-8.582-8.625c.789 0 1.436-.646 1.436-1.436v-2.881c0-.791-.646-1.436-1.436-1.436h-2.84c-.789 0-1.436.645-1.436 1.436v2.881c0 .789.646 1.436 1.436 1.436h2.84zm8.582 0c.789 0 1.438-.646 1.438-1.436v-2.881c0-.791-.648-1.436-1.438-1.436h-2.838c-.791 0-1.436.645-1.436 1.436v2.881c0 .789.645 1.436 1.436 1.436h2.838zm8.584 0c.789 0 1.436-.646 1.436-1.436v-2.881c0-.791-.646-1.436-1.436-1.436h-2.838c-.791 0-1.438.645-1.438 1.436v2.881c0 .789.646 1.436 1.438 1.436h2.838zM432.342 14.951c.79 0 1.437-.646 1.437-1.438v-2.881c0-.789-.646-1.436-1.437-1.436h-2.839c-.789 0-1.436.646-1.436 1.436v2.881c0 .791.646 1.438 1.436 1.438h2.839zm-8.541 0c.79 0 1.437-.646 1.437-1.438v-2.881c0-.789-.646-1.436-1.437-1.436h-2.839c-.789 0-1.436.646-1.436 1.436v2.881c0 .791.646 1.438 1.436 1.438h2.839zm-8.541 0c.789 0 1.437-.646 1.437-1.438v-2.881c0-.789-.647-1.436-1.437-1.436h-2.839c-.789 0-1.437.646-1.437 1.436v2.881c0 .791.647 1.438 1.437 1.438h2.839zm-8.541 0c.789 0 1.436-.646 1.436-1.438v-2.881c0-.789-.646-1.436-1.436-1.436h-2.839c-.79 0-1.437.646-1.437 1.436v2.881c0 .791.646 1.438 1.437 1.438h2.839zm-8.542 0c.79 0 1.437-.646 1.437-1.438v-2.881c0-.789-.646-1.436-1.437-1.436h-2.838c-.79 0-1.437.646-1.437 1.436v2.881c0 .791.646 1.438 1.437 1.438h2.838zm16.999 34.332c.789 0 1.436-.645 1.436-1.436V45.01c0-.791-.646-1.438-1.436-1.438h-2.923c-.79 0-1.437.646-1.437 1.438v2.838c0 .791.646 1.436 1.437 1.436h2.923zm-17.335-25.75c.789 0 1.436-.645 1.436-1.436V19.26c0-.791-.646-1.438-1.436-1.438h-2.923c-.79 0-1.437.646-1.437 1.438v2.838c0 .791.646 1.436 1.437 1.436h2.923zm0 8.584c.789 0 1.436-.646 1.436-1.436v-2.84c0-.789-.646-1.436-1.436-1.436h-2.923c-.79 0-1.437.646-1.437 1.436v2.84c0 .789.646 1.436 1.437 1.436h2.923zm-8.668-8.584c.79 0 1.437-.645 1.437-1.436V19.26c0-.791-.646-1.438-1.437-1.438h-2.923c-.789 0-1.436.646-1.436 1.438v2.838c0 .791.646 1.436 1.436 1.436h2.923zm5.796 248.405c1.579 0 2.872-1.291 2.872-2.871v-5.762c0-1.58-1.293-2.873-2.872-2.873h-5.846c-1.58 0-2.873 1.293-2.873 2.873v5.762c0 1.58 1.293 2.871 2.873 2.871h5.846zm75.262-39.528c1.58 0 2.873-1.293 2.873-2.871v-5.762c0-1.58-1.293-2.873-2.873-2.873h-5.678c-1.578 0-2.871 1.293-2.871 2.873v5.762c0 1.578 1.293 2.871 2.871 2.871h5.678zm-8.584 17.25c1.582 0 2.873-1.291 2.873-2.871v-5.762c0-1.58-1.291-2.873-2.873-2.873h-5.676c-1.58 0-2.873 1.293-2.873 2.873v5.762c0 1.58 1.293 2.871 2.873 2.871h5.676zm2.157-184.562c1.578 0 2.871-1.291 2.871-2.871v-5.762c0-1.58-1.293-2.873-2.871-2.873h-5.678c-1.58 0-2.873 1.293-2.873 2.873v5.762c0 1.58 1.293 2.871 2.873 2.871h5.678zm0 17.252c1.578 0 2.871-1.293 2.871-2.873v-5.762c0-1.58-1.293-2.871-2.871-2.871h-5.678c-1.58 0-2.873 1.291-2.873 2.871v5.762c0 1.58 1.293 2.873 2.873 2.873h5.678zm-68.835 0c1.579 0 2.872-1.293 2.872-2.873v-5.762c0-1.58-1.293-2.871-2.872-2.871h-5.846c-1.58 0-2.873 1.291-2.873 2.871v5.762c0 1.58 1.293 2.873 2.873 2.873h5.846zm0-17.252c1.579 0 2.872-1.291 2.872-2.871v-5.762c0-1.58-1.293-2.873-2.872-2.873h-5.846c-1.58 0-2.873 1.293-2.873 2.873v5.762c0 1.58 1.293 2.871 2.873 2.871h5.846zm51.668 0c1.579 0 2.872-1.291 2.872-2.871v-5.762c0-1.58-1.293-2.873-2.872-2.873h-5.678c-1.58 0-2.872 1.293-2.872 2.873v5.762c0 1.58 1.292 2.871 2.872 2.871h5.678zm0 17.252c1.579 0 2.872-1.293 2.872-2.873v-5.762c0-1.58-1.293-2.871-2.872-2.871h-5.678c-1.58 0-2.872 1.291-2.872 2.871v5.762c0 1.58 1.292 2.873 2.872 2.873h5.678zm-17.167 86.252c1.58 0 2.872-1.291 2.872-2.871v-5.762c0-1.58-1.292-2.873-2.872-2.873h-5.678c-1.579 0-2.872 1.293-2.872 2.873v5.762c0 1.58 1.293 2.871 2.872 2.871h5.678zm0 17.252c1.58 0 2.872-1.293 2.872-2.873v-5.762c0-1.58-1.292-2.871-2.872-2.871h-5.678c-1.579 0-2.872 1.291-2.872 2.871v5.762c0 1.58 1.293 2.873 2.872 2.873h5.678zm51.5-86.254c1.58 0 2.873-1.293 2.873-2.873v-5.76c0-1.58-1.293-2.873-2.873-2.873h-5.678c-1.58 0-2.871 1.293-2.871 2.873v5.76c0 1.58 1.291 2.873 2.871 2.873h5.678zm-17.166 0c1.578 0 2.871-1.293 2.871-2.873v-5.76c0-1.58-1.293-2.873-2.871-2.873h-5.678c-1.58 0-2.873 1.293-2.873 2.873v5.76c0 1.58 1.293 2.873 2.873 2.873h5.678zm34.5-34.502c1.58 0 2.873-1.291 2.873-2.871v-5.762c0-1.58-1.293-2.873-2.873-2.873h-5.844c-1.582 0-2.875 1.293-2.875 2.873v5.762c0 1.58 1.293 2.871 2.875 2.871h5.844zm-51.667-51.584c1.579 0 2.872-1.291 2.872-2.871V4.881c0-1.58-1.293-2.873-2.872-2.873h-5.678c-1.58 0-2.872 1.293-2.872 2.873v5.762c0 1.58 1.292 2.871 2.872 2.871h5.678zM429.47 220.186c1.58 0 2.872-1.291 2.872-2.871v-5.678c0-1.58-1.292-2.873-2.872-2.873h-5.678c-1.579 0-2.872 1.293-2.872 2.873v5.678c0 1.58 1.293 2.871 2.872 2.871h5.678zm0-17.166c1.58 0 2.872-1.293 2.872-2.871v-5.678c0-1.58-1.292-2.873-2.872-2.873h-5.678c-1.579 0-2.872 1.293-2.872 2.873v5.678c0 1.578 1.293 2.871 2.872 2.871h5.678zM412.303 82.35c1.58 0 2.873-1.293 2.873-2.873v-5.762c0-1.58-1.293-2.871-2.873-2.871h-5.845c-1.58 0-2.873 1.291-2.873 2.871v5.762c0 1.58 1.293 2.873 2.873 2.873h5.845zm17.167 34.5c1.58 0 2.872-1.291 2.872-2.871v-5.762c0-1.58-1.292-2.873-2.872-2.873h-5.678c-1.579 0-2.872 1.293-2.872 2.873v5.762c0 1.58 1.293 2.871 2.872 2.871h5.678zm-17.167-86.168c1.58 0 2.873-1.293 2.873-2.873v-5.678c0-1.58-1.293-2.871-2.873-2.871h-5.845c-1.58 0-2.873 1.291-2.873 2.871v5.678c0 1.58 1.293 2.873 2.873 2.873h5.845zm-16.925 207.123c1.58 0 2.872-1.293 2.872-2.873v-5.762c0-1.58-1.292-2.871-2.872-2.871h-5.846c-1.58 0-2.872 1.291-2.872 2.871v5.762c0 1.58 1.292 2.873 2.872 2.873h5.846zm16.875-.36c1.58 0 2.872-1.293 2.872-2.871v-5.762c0-1.58-1.292-2.873-2.872-2.873h-5.846c-1.58 0-2.872 1.293-2.872 2.873v5.762c0 1.578 1.292 2.871 2.872 2.871h5.846zm-17.234 17.235c1.58 0 2.873-1.293 2.873-2.873v-5.762c0-1.58-1.293-2.871-2.873-2.871h-5.846c-1.579 0-2.872 1.291-2.872 2.871v5.762c0 1.58 1.293 2.873 2.872 2.873h5.846zm17.234 0c1.58 0 2.872-1.293 2.872-2.873v-5.762c0-1.58-1.292-2.871-2.872-2.871h-5.846c-1.58 0-2.872 1.291-2.872 2.871v5.762c0 1.58 1.292 2.873 2.872 2.873h5.846zm0-86.069c1.58 0 2.872-1.293 2.872-2.873v-5.762c0-1.58-1.292-2.871-2.872-2.871h-5.846c-1.58 0-2.872 1.291-2.872 2.871v5.762c0 1.58 1.292 2.873 2.872 2.873h5.846zm0 17.233c1.58 0 2.872-1.291 2.872-2.871v-5.762c0-1.58-1.292-2.873-2.872-2.873h-5.846c-1.58 0-2.872 1.293-2.872 2.873v5.762c0 1.58 1.292 2.871 2.872 2.871h5.846zm-16.875-85.877c1.58 0 2.872-1.291 2.872-2.871v-5.762c0-1.58-1.292-2.873-2.872-2.873h-5.846c-1.58 0-2.872 1.293-2.872 2.873v5.762c0 1.58 1.292 2.871 2.872 2.871h5.846zm16.875-.36c1.58 0 2.872-1.291 2.872-2.871v-5.762c0-1.58-1.292-2.873-2.872-2.873h-5.846c-1.58 0-2.872 1.293-2.872 2.873v5.762c0 1.58 1.292 2.871 2.872 2.871h5.846zm-17.234 17.235c1.58 0 2.873-1.293 2.873-2.873v-5.76c0-1.58-1.293-2.873-2.873-2.873h-5.846c-1.579 0-2.872 1.293-2.872 2.873v5.76c0 1.58 1.293 2.873 2.872 2.873h5.846zm17.234 0c1.58 0 2.872-1.293 2.872-2.873v-5.76c0-1.58-1.292-2.873-2.872-2.873h-5.846c-1.58 0-2.872 1.293-2.872 2.873v5.76c0 1.58 1.292 2.873 2.872 2.873h5.846zm17.542 17.627c1.58 0 2.872-1.293 2.872-2.873v-5.762c0-1.58-1.292-2.871-2.872-2.871h-5.677c-1.58 0-2.873 1.291-2.873 2.871v5.762c0 1.58 1.293 2.873 2.873 2.873h5.677zm16.875-.36c1.579 0 2.872-1.293 2.872-2.873v-5.76c0-1.58-1.293-2.873-2.872-2.873h-5.678c-1.579 0-2.872 1.293-2.872 2.873v5.76c0 1.58 1.293 2.873 2.872 2.873h5.678zm-17.233 17.235c1.579 0 2.872-1.293 2.872-2.873v-5.762c0-1.58-1.293-2.871-2.872-2.871h-5.678c-1.58 0-2.872 1.291-2.872 2.871v5.762c0 1.58 1.292 2.873 2.872 2.873h5.678zm17.233 0c1.579 0 2.872-1.293 2.872-2.873v-5.762c0-1.58-1.293-2.871-2.872-2.871h-5.678c-1.579 0-2.872 1.291-2.872 2.871v5.762c0 1.58 1.293 2.873 2.872 2.873h5.678zm-51.292-16.875c1.58 0 2.872-1.293 2.872-2.873v-5.762c0-1.58-1.292-2.871-2.872-2.871h-5.846c-1.58 0-2.872 1.291-2.872 2.871v5.762c0 1.58 1.292 2.873 2.872 2.873h5.846zm16.875-.36c1.58 0 2.872-1.293 2.872-2.873v-5.76c0-1.58-1.292-2.873-2.872-2.873h-5.846c-1.58 0-2.872 1.293-2.872 2.873v5.76c0 1.58 1.292 2.873 2.872 2.873h5.846zm-17.234 17.235c1.58 0 2.873-1.293 2.873-2.873v-5.762c0-1.58-1.293-2.871-2.873-2.871h-5.846c-1.579 0-2.872 1.291-2.872 2.871v5.762c0 1.58 1.293 2.873 2.872 2.873h5.846zm17.234 0c1.58 0 2.872-1.293 2.872-2.873v-5.762c0-1.58-1.292-2.871-2.872-2.871h-5.846c-1.58 0-2.872 1.291-2.872 2.871v5.762c0 1.58 1.292 2.873 2.872 2.873h5.846zm86.101-137.838c1.58 0 2.873-1.293 2.873-2.873v-5.76c0-1.58-1.293-2.873-2.873-2.873h-5.846c-1.58 0-2.873 1.293-2.873 2.873v5.76c0 1.58 1.293 2.873 2.873 2.873h5.846zm-34.585 0c1.58 0 2.873-1.293 2.873-2.873v-5.76c0-1.58-1.293-2.873-2.873-2.873h-5.676c-1.582 0-2.873 1.293-2.873 2.873v5.76c0 1.58 1.291 2.873 2.873 2.873h5.676zm17.234 0c1.58 0 2.871-1.293 2.871-2.873v-5.76c0-1.58-1.291-2.873-2.871-2.873h-5.676c-1.582 0-2.875 1.293-2.875 2.873v5.76c0 1.58 1.293 2.873 2.875 2.873h5.676zm-16.875 17.5c1.58 0 2.873-1.291 2.873-2.871v-5.678c0-1.58-1.293-2.873-2.873-2.873h-5.676c-1.582 0-2.873 1.293-2.873 2.873v5.678c0 1.58 1.291 2.871 2.873 2.871h5.676zm16.875-.36c1.58 0 2.871-1.291 2.871-2.871v-5.678c0-1.58-1.291-2.873-2.871-2.873h-5.676c-1.582 0-2.875 1.293-2.875 2.873v5.678c0 1.58 1.293 2.871 2.875 2.871h5.676zm-17.234 17.235c1.58 0 2.873-1.291 2.873-2.871v-5.678c0-1.58-1.293-2.873-2.873-2.873h-5.676c-1.582 0-2.873 1.293-2.873 2.873v5.678c0 1.58 1.291 2.871 2.873 2.871h5.676zm17.234 0c1.58 0 2.871-1.291 2.871-2.871v-5.678c0-1.58-1.291-2.873-2.871-2.873h-5.676c-1.582 0-2.875 1.293-2.875 2.873v5.678c0 1.58 1.293 2.871 2.875 2.871h5.676zm17.711-16.875c1.58 0 2.871-1.291 2.871-2.871v-5.678c0-1.58-1.291-2.873-2.871-2.873h-5.846c-1.58 0-2.873 1.293-2.873 2.873v5.678c0 1.58 1.293 2.871 2.873 2.871h5.846zm-.36 16.875c1.58 0 2.873-1.291 2.873-2.871v-5.678c0-1.58-1.293-2.873-2.873-2.873h-5.846c-1.58 0-2.873 1.293-2.873 2.873v5.678c0 1.58 1.293 2.871 2.873 2.871h5.846zm-86.101 155.105c1.58 0 2.872-1.293 2.872-2.873v-5.676c0-1.58-1.292-2.873-2.872-2.873h-5.846c-1.58 0-2.872 1.293-2.872 2.873v5.676c0 1.58 1.292 2.873 2.872 2.873h5.846zm0 17.235c1.58 0 2.872-1.293 2.872-2.873v-5.678c0-1.58-1.292-2.871-2.872-2.871h-5.846c-1.58 0-2.872 1.291-2.872 2.871v5.678c0 1.58 1.292 2.873 2.872 2.873h5.846zm17.542-189.215c1.58 0 2.872-1.291 2.872-2.871v-5.678c0-1.58-1.292-2.873-2.872-2.873h-5.677c-1.58 0-2.873 1.293-2.873 2.873v5.678c0 1.58 1.293 2.871 2.873 2.871h5.677zm16.875-.36c1.579 0 2.872-1.291 2.872-2.871v-5.678c0-1.58-1.293-2.873-2.872-2.873h-5.678c-1.579 0-2.872 1.293-2.872 2.873v5.678c0 1.58 1.293 2.871 2.872 2.871h5.678zm-17.233 17.235c1.579 0 2.872-1.291 2.872-2.871v-5.678c0-1.58-1.293-2.873-2.872-2.873h-5.678c-1.58 0-2.872 1.293-2.872 2.873v5.678c0 1.58 1.292 2.871 2.872 2.871h5.678zm17.233 0c1.579 0 2.872-1.291 2.872-2.871v-5.678c0-1.58-1.293-2.873-2.872-2.873h-5.678c-1.579 0-2.872 1.293-2.872 2.873v5.678c0 1.58 1.293 2.871 2.872 2.871h5.678z"/>
</svg>
