<svg xmlns="http://www.w3.org/2000/svg" viewBox="0 0 888 283">
  <path fill="#262DFF" d="M405.146 194.342c-1.34 0-2.436-1.096-2.436-2.434v-4.883c0-1.34 1.096-2.436 2.436-2.436h4.811c1.338 0 2.436 1.096 2.436 2.436v4.883c0 1.338-1.098 2.434-2.436 2.434h-4.811zm4.81-14.621c1.338 0 2.436-1.096 2.436-2.434v-4.885c0-1.338-1.098-2.434-2.436-2.434h-4.811c-1.34 0-2.436 1.096-2.436 2.434v4.885c0 1.338 1.096 2.434 2.436 2.434h4.811zm-14.346 14.621c1.338 0 2.434-1.096 2.434-2.434v-4.883c0-1.34-1.096-2.436-2.434-2.436h-4.813c-1.34 0-2.434 1.096-2.434 2.436v4.883c0 1.338 1.094 2.434 2.434 2.434h4.813zm43.649 14.623c1.34 0 2.436-1.098 2.436-2.436v-4.883c0-1.338-1.096-2.436-2.436-2.436h-4.811c-1.338 0-2.436 1.098-2.436 2.436v4.883c0 1.338 1.098 2.436 2.436 2.436h4.811zm-14.549 0c1.338 0 2.436-1.098 2.436-2.436v-4.883c0-1.338-1.098-2.436-2.436-2.436h-4.813c-1.338 0-2.436 1.098-2.436 2.436v4.883c0 1.338 1.098 2.436 2.436 2.436h4.813zm0-14.623c1.338 0 2.436-1.096 2.436-2.434v-4.883c0-1.34-1.098-2.436-2.436-2.436h-4.813c-1.338 0-2.436 1.096-2.436 2.436v4.883c0 1.338 1.098 2.434 2.436 2.434h4.813zm131.521-14.621c1.34 0 2.434-1.096 2.434-2.434v-4.885c0-1.338-1.094-2.434-2.434-2.434h-4.813c-1.338 0-2.434 1.096-2.434 2.434v4.885c0 1.338 1.096 2.434 2.434 2.434h4.813zm0-14.621c1.34 0 2.434-1.096 2.434-2.436v-4.883c0-1.338-1.094-2.434-2.434-2.434h-4.813c-1.338 0-2.434 1.096-2.434 2.434v4.883c0 1.34 1.096 2.436 2.434 2.436h4.813zm-14.835 14.621c1.34 0 2.436-1.096 2.436-2.434v-4.885c0-1.338-1.096-2.434-2.436-2.434h-4.813c-1.338 0-2.434 1.096-2.434 2.434v4.885c0 1.338 1.096 2.434 2.434 2.434h4.813zm-58.344 0c1.34 0 2.436-1.096 2.436-2.434v-4.885c0-1.338-1.096-2.434-2.436-2.434h-4.953c-1.34 0-2.434 1.096-2.434 2.434v4.885c0 1.338 1.094 2.434 2.434 2.434h4.953zm0-14.621c1.34 0 2.436-1.096 2.436-2.436v-4.883c0-1.338-1.096-2.434-2.436-2.434h-4.953c-1.34 0-2.434 1.096-2.434 2.434v4.883c0 1.34 1.094 2.436 2.434 2.436h4.953zm29.172 0c1.34 0 2.436-1.096 2.436-2.436v-4.883c0-1.338-1.096-2.434-2.436-2.434h-4.953c-1.34 0-2.436 1.096-2.436 2.434v4.883c0 1.34 1.096 2.436 2.436 2.436h4.953zm14.906-73.108c1.34 0 2.436-1.096 2.436-2.434v-4.885c0-1.338-1.096-2.434-2.436-2.434h-4.953c-1.34 0-2.434 1.096-2.434 2.434v4.885c0 1.338 1.094 2.434 2.434 2.434h4.953zm29.101 0c1.34 0 2.434-1.096 2.434-2.434v-4.885c0-1.338-1.094-2.434-2.434-2.434h-4.813c-1.338 0-2.434 1.096-2.434 2.434v4.885c0 1.338 1.096 2.434 2.434 2.434h4.813zm-14.835 0c1.34 0 2.436-1.096 2.436-2.434v-4.885c0-1.338-1.096-2.434-2.436-2.434h-4.813c-1.338 0-2.434 1.096-2.434 2.434v4.885c0 1.338 1.096 2.434 2.434 2.434h4.813zm0 14.621c1.34 0 2.436-1.096 2.436-2.434v-4.885c0-1.338-1.096-2.434-2.436-2.434h-4.813c-1.338 0-2.434 1.096-2.434 2.434v4.885c0 1.338 1.096 2.434 2.434 2.434h4.813zm14.835 0c1.34 0 2.434-1.096 2.434-2.434v-4.885c0-1.338-1.094-2.434-2.434-2.434h-4.813c-1.338 0-2.434 1.096-2.434 2.434v4.885c0 1.338 1.096 2.434 2.434 2.434h4.813zm29.102 29.244c1.338 0 2.434-1.098 2.434-2.436v-4.883c0-1.34-1.096-2.436-2.434-2.436h-4.813c-1.34 0-2.436 1.096-2.436 2.436v4.883c0 1.338 1.096 2.436 2.436 2.436h4.813zm-14.551 0c1.338 0 2.434-1.098 2.434-2.436v-4.883c0-1.34-1.096-2.436-2.434-2.436h-4.813c-1.34 0-2.434 1.096-2.434 2.436v4.883c0 1.338 1.094 2.436 2.434 2.436h4.813zm14.551 14.622c1.338 0 2.434-1.096 2.434-2.436v-4.883c0-1.338-1.096-2.434-2.434-2.434h-4.813c-1.34 0-2.436 1.096-2.436 2.434v4.883c0 1.34 1.096 2.436 2.436 2.436h4.813zM307.88 106.613c1.34 0 2.436-1.096 2.436-2.434v-4.885c0-1.338-1.096-2.434-2.436-2.434h-4.953c-1.34 0-2.436 1.096-2.436 2.434v4.885c0 1.338 1.096 2.434 2.436 2.434h4.953zm14.693 0c1.338 0 2.436-1.096 2.436-2.434v-4.885c0-1.338-1.098-2.434-2.436-2.434h-4.955c-1.34 0-2.434 1.096-2.434 2.434v4.885c0 1.338 1.094 2.434 2.434 2.434h4.955zm-43.935 0c1.34 0 2.434-1.096 2.434-2.434v-4.885c0-1.338-1.094-2.434-2.434-2.434h-4.955c-1.338 0-2.436 1.096-2.436 2.434v4.885c0 1.338 1.098 2.434 2.436 2.434h4.955zm14.691 7.311c1.34 0 2.436-1.096 2.436-2.434v-4.885c0-1.338-1.096-2.434-2.436-2.434h-4.953c-1.34 0-2.434 1.096-2.434 2.434v4.885c0 1.338 1.094 2.434 2.434 2.434h4.953zm292.145 138.904c1.34 0 2.436-1.096 2.436-2.434v-4.885c0-1.338-1.096-2.434-2.436-2.434h-4.813c-1.336 0-2.434 1.096-2.434 2.434v4.885c0 1.338 1.098 2.434 2.434 2.434h4.813zm-14.692 0c1.338 0 2.434-1.096 2.434-2.434v-4.885c0-1.338-1.096-2.434-2.434-2.434h-4.813c-1.34 0-2.434 1.096-2.434 2.434v4.885c0 1.338 1.094 2.434 2.434 2.434h4.813zm-14.693 0c1.338 0 2.436-1.096 2.436-2.434v-4.885c0-1.338-1.098-2.434-2.436-2.434h-4.811c-1.34 0-2.436 1.096-2.436 2.434v4.885c0 1.338 1.096 2.434 2.436 2.434h4.811zm-7.418 14.621c1.338 0 2.436-1.096 2.436-2.434v-4.883c0-1.34-1.098-2.436-2.436-2.436h-4.811c-1.34 0-2.436 1.096-2.436 2.436v4.883c0 1.338 1.096 2.434 2.436 2.434h4.811zm-6.99-14.621c1.34 0 2.436-1.096 2.436-2.434v-4.885c0-1.338-1.096-2.434-2.436-2.434h-4.813c-1.336 0-2.434 1.096-2.434 2.434v4.885c0 1.338 1.098 2.434 2.434 2.434h4.813zm58.343-29.242c1.34 0 2.434-1.096 2.434-2.436v-4.883c0-1.338-1.094-2.436-2.434-2.436h-4.953c-1.34 0-2.436 1.098-2.436 2.436v4.883c0 1.34 1.096 2.436 2.436 2.436h4.953zm0 14.621c1.34 0 2.434-1.096 2.434-2.436v-4.883c0-1.338-1.094-2.434-2.434-2.434h-4.953c-1.34 0-2.436 1.096-2.436 2.434v4.883c0 1.34 1.096 2.436 2.436 2.436h4.953zm14.694-14.621c1.338 0 2.436-1.096 2.436-2.436v-4.883c0-1.338-1.098-2.436-2.436-2.436h-4.955c-1.338 0-2.434 1.098-2.434 2.436v4.883c0 1.34 1.096 2.436 2.434 2.436h4.955zm-131.666 29.242c1.34 0 2.436-1.096 2.436-2.434v-4.885c0-1.338-1.096-2.434-2.436-2.434h-4.953c-1.34 0-2.434 1.096-2.434 2.434v4.885c0 1.338 1.094 2.434 2.434 2.434h4.953zm14.623 0c1.338 0 2.434-1.096 2.434-2.434v-4.885c0-1.338-1.096-2.434-2.434-2.434h-4.955c-1.34 0-2.434 1.096-2.434 2.434v4.885c0 1.338 1.094 2.434 2.434 2.434h4.955zm14.621 0c1.338 0 2.436-1.096 2.436-2.434v-4.885c0-1.338-1.098-2.434-2.436-2.434h-4.955c-1.338 0-2.434 1.096-2.434 2.434v4.885c0 1.338 1.096 2.434 2.434 2.434h4.955zm7.49 14.621c1.336 0 2.434-1.096 2.434-2.434v-4.883c0-1.34-1.098-2.436-2.434-2.436h-4.957c-1.338 0-2.434 1.096-2.434 2.436v4.883c0 1.338 1.096 2.434 2.434 2.434h4.957zm-109.627-29.242c1.34 0 2.436-1.096 2.436-2.436v-4.883c0-1.338-1.096-2.434-2.436-2.434h-4.811c-1.34 0-2.436 1.096-2.436 2.434v4.883c0 1.34 1.096 2.436 2.436 2.436h4.811zm0-14.621c1.34 0 2.436-1.096 2.436-2.436v-4.883c0-1.338-1.096-2.436-2.436-2.436h-4.811c-1.34 0-2.436 1.098-2.436 2.436v4.883c0 1.34 1.096 2.436 2.436 2.436h4.811zm-14.549 0c1.338 0 2.434-1.096 2.434-2.436v-4.883c0-1.338-1.096-2.436-2.434-2.436h-4.813c-1.34 0-2.434 1.098-2.434 2.436v4.883c0 1.34 1.094 2.436 2.434 2.436h4.813zm0-58.486c1.338 0 2.434-1.096 2.434-2.436v-4.883c0-1.338-1.096-2.434-2.434-2.434h-4.813c-1.34 0-2.434 1.096-2.434 2.434v4.883c0 1.34 1.094 2.436 2.434 2.436h4.813zm-23.336 16.451c1.34 0 2.434-1.096 2.434-2.436v-4.883c0-1.34-1.094-2.434-2.434-2.434h-4.813c-1.34 0-2.434 1.094-2.434 2.434v4.883c0 1.34 1.094 2.436 2.434 2.436h4.813zm-14.55 7.31c1.34 0 2.436-1.096 2.436-2.436v-4.883c0-1.34-1.096-2.434-2.436-2.434h-4.813c-1.338 0-2.434 1.094-2.434 2.434v4.883c0 1.34 1.096 2.436 2.434 2.436h4.813zm66.986 63.967c1.338 0 2.436-1.096 2.436-2.434v-4.885c0-1.338-1.098-2.434-2.436-2.434h-4.813c-1.338 0-2.436 1.096-2.436 2.434v4.885c0 1.338 1.098 2.434 2.436 2.434h4.813zm14.549 0c1.34 0 2.436-1.096 2.436-2.434v-4.885c0-1.338-1.096-2.434-2.436-2.434h-4.811c-1.338 0-2.436 1.096-2.436 2.434v4.885c0 1.338 1.098 2.434 2.436 2.434h4.811zm14.551 0c1.34 0 2.434-1.096 2.434-2.434v-4.885c0-1.338-1.094-2.434-2.434-2.434h-4.813c-1.338 0-2.434 1.096-2.434 2.434v4.885c0 1.338 1.096 2.434 2.434 2.434h4.813zm14.55 0c1.338 0 2.434-1.096 2.434-2.434v-4.885c0-1.338-1.096-2.434-2.434-2.434h-4.813c-1.338 0-2.434 1.096-2.434 2.434v4.885c0 1.338 1.096 2.434 2.434 2.434h4.813zM381.06 282c1.34 0 2.434-1.096 2.434-2.434v-4.813c0-1.34-1.094-2.436-2.434-2.436h-4.813c-1.34 0-2.434 1.096-2.434 2.436v4.813c0 1.338 1.094 2.434 2.434 2.434h4.813zm-14.551 0c1.34 0 2.434-1.096 2.434-2.434v-4.813c0-1.34-1.094-2.436-2.434-2.436h-4.813c-1.338 0-2.434 1.096-2.434 2.436v4.813c0 1.338 1.096 2.434 2.434 2.434h4.813zM541.468 26.23c1.338 0 2.436-1.096 2.436-2.434v-4.813c0-1.338-1.098-2.434-2.436-2.434h-4.955c-1.338 0-2.434 1.096-2.434 2.434v4.813c0 1.338 1.096 2.434 2.434 2.434h4.955zm-14.694 7.276c1.34 0 2.434-1.096 2.434-2.434V26.26c0-1.338-1.094-2.436-2.434-2.436h-4.953c-1.34 0-2.436 1.098-2.436 2.436v4.813c0 1.338 1.096 2.434 2.436 2.434h4.953zm0-14.549c1.34 0 2.434-1.098 2.434-2.436v-4.813c0-1.338-1.094-2.434-2.434-2.434h-4.953c-1.34 0-2.436 1.096-2.436 2.434v4.813c0 1.338 1.096 2.436 2.436 2.436h4.953zm-14.55 7.273c1.34 0 2.436-1.096 2.436-2.434v-4.813c0-1.338-1.096-2.434-2.436-2.434h-4.953c-1.34 0-2.436 1.096-2.436 2.434v4.813c0 1.338 1.096 2.434 2.436 2.434h4.953zm-14.477-14.548c1.336 0 2.434-1.096 2.434-2.436V4.434c0-1.338-1.098-2.434-2.434-2.434h-4.957c-1.338 0-2.434 1.096-2.434 2.434v4.813c0 1.34 1.096 2.436 2.434 2.436h4.957zm58.414 7.275c1.338 0 2.434-1.098 2.434-2.436v-4.813c0-1.338-1.096-2.434-2.434-2.434h-4.955c-1.338 0-2.436 1.096-2.436 2.434v4.813c0 1.338 1.098 2.436 2.436 2.436h4.955zm-92.67 187.572c2.678 0 4.869-2.191 4.869-4.869v-9.766c0-2.68-2.191-4.869-4.869-4.869h-9.623c-2.68 0-4.871 2.189-4.871 4.869v9.766c0 2.678 2.191 4.869 4.871 4.869h9.623zm87.871 0c2.678 0 4.869-2.191 4.869-4.869v-9.766c0-2.68-2.191-4.869-4.869-4.869h-9.623c-2.68 0-4.871 2.189-4.871 4.869v9.766c0 2.678 2.191 4.869 4.871 4.869h9.623zm29.244 0c2.678 0 4.867-2.191 4.867-4.869v-9.766c0-2.68-2.189-4.869-4.867-4.869h-9.625c-2.678 0-4.869 2.189-4.869 4.869v9.766c0 2.678 2.191 4.869 4.869 4.869h9.625zm0-29.242c2.678 0 4.867-2.191 4.867-4.869v-9.768c0-2.678-2.189-4.869-4.867-4.869h-9.625c-2.678 0-4.869 2.191-4.869 4.869v9.768c0 2.678 2.191 4.869 4.869 4.869h9.625zm-87.73 29.242c2.68 0 4.871-2.191 4.871-4.869v-9.766c0-2.68-2.191-4.869-4.871-4.869h-9.908c-2.678 0-4.869 2.189-4.869 4.869v9.766c0 2.678 2.191 4.869 4.869 4.869h9.908zm29.387 0c2.678 0 4.867-2.191 4.867-4.869v-9.766c0-2.68-2.189-4.869-4.867-4.869h-9.91c-2.678 0-4.869 2.189-4.869 4.869v9.766c0 2.678 2.191 4.869 4.869 4.869h9.91zm58.199-116.97c2.68 0 4.871-2.191 4.871-4.871v-9.766c0-2.678-2.191-4.869-4.871-4.869h-9.623c-2.678 0-4.869 2.191-4.869 4.869v9.766c0 2.68 2.191 4.871 4.869 4.871h9.623zm29.387 0c2.678 0 4.869-2.191 4.869-4.871v-9.766c0-2.678-2.191-4.869-4.869-4.869h-9.91c-2.678 0-4.867 2.191-4.867 4.869v9.766c0 2.68 2.189 4.871 4.867 4.871h9.91zm-146.358 58.484c2.678 0 4.869-2.189 4.869-4.869v-9.766c0-2.678-2.191-4.869-4.869-4.869h-9.623c-2.68 0-4.871 2.191-4.871 4.869v9.766c0 2.68 2.191 4.869 4.871 4.869h9.623zm87.871 87.728c2.678 0 4.869-2.189 4.869-4.869v-9.766c0-2.678-2.191-4.869-4.869-4.869h-9.623c-2.68 0-4.871 2.191-4.871 4.869v9.766c0 2.68 2.191 4.869 4.871 4.869h9.623zm29.244 0c2.678 0 4.867-2.189 4.867-4.869v-9.766c0-2.678-2.189-4.869-4.867-4.869h-9.625c-2.678 0-4.869 2.191-4.869 4.869v9.766c0 2.68 2.191 4.869 4.869 4.869h9.625zm-87.73 0c2.68 0 4.871-2.189 4.871-4.869v-9.766c0-2.678-2.191-4.869-4.871-4.869h-9.908c-2.678 0-4.869 2.191-4.869 4.869v9.766c0 2.68 2.191 4.869 4.869 4.869h9.908zm29.387 0c2.678 0 4.867-2.189 4.867-4.869v-9.766c0-2.678-2.189-4.869-4.867-4.869h-9.91c-2.678 0-4.869 2.191-4.869 4.869v9.766c0 2.68 2.191 4.869 4.869 4.869h9.91zM376.19 265.016c2.678 0 4.869-2.191 4.869-4.869v-9.768c0-2.678-2.191-4.869-4.869-4.869h-9.623c-2.68 0-4.871 2.191-4.871 4.869v9.768c0 2.678 2.191 4.869 4.871 4.869h9.623zm29.1 0c2.68 0 4.869-2.191 4.869-4.869v-9.768c0-2.678-2.189-4.869-4.869-4.869h-9.625c-2.676 0-4.867 2.191-4.867 4.869v9.768c0 2.678 2.191 4.869 4.867 4.869h9.625zm29.102-29.245c2.678 0 4.867-2.189 4.867-4.869v-9.766c0-2.678-2.189-4.869-4.867-4.869h-9.625c-2.678 0-4.869 2.191-4.869 4.869v9.766c0 2.68 2.191 4.869 4.869 4.869h9.625zm29.099 0c2.678 0 4.869-2.189 4.869-4.869v-9.766c0-2.678-2.191-4.869-4.869-4.869h-9.623c-2.68 0-4.871 2.191-4.871 4.869v9.766c0 2.68 2.191 4.869 4.871 4.869h9.623zm116.971-116.97c2.68 0 4.871-2.191 4.871-4.869v-9.768c0-2.678-2.191-4.869-4.871-4.869h-9.623c-2.678 0-4.869 2.191-4.869 4.869v9.768c0 2.678 2.191 4.869 4.869 4.869h9.623zm30.082 59.109c2.676 0 4.867-2.191 4.867-4.869v-9.768c0-2.678-2.191-4.869-4.867-4.869h-9.91c-2.68 0-4.869 2.191-4.869 4.869v9.768c0 2.678 2.189 4.869 4.869 4.869h9.91zm-.609 28.606c2.678 0 4.867-2.191 4.867-4.869v-9.768c0-2.678-2.189-4.869-4.867-4.869h-9.91c-2.678 0-4.869 2.191-4.869 4.869v9.768c0 2.678 2.191 4.869 4.869 4.869h9.91zm-116.364-87.092c2.678 0 4.869-2.191 4.869-4.869v-9.768c0-2.678-2.191-4.869-4.869-4.869h-9.91c-2.678 0-4.869 2.191-4.869 4.869v9.768c0 2.678 2.191 4.869 4.869 4.869h9.91zm28.606-.61c2.678 0 4.869-2.189 4.869-4.869v-9.766c0-2.68-2.191-4.869-4.869-4.869h-9.91c-2.678 0-4.867 2.189-4.867 4.869v9.766c0 2.68 2.189 4.869 4.867 4.869h9.91zm-29.215 29.215c2.68 0 4.869-2.191 4.869-4.869v-9.766c0-2.68-2.189-4.871-4.869-4.871h-9.91c-2.676 0-4.867 2.191-4.867 4.871v9.766c0 2.678 2.191 4.869 4.867 4.869h9.91zm29.215 0c2.678 0 4.869-2.191 4.869-4.869v-9.766c0-2.68-2.191-4.871-4.869-4.871h-9.91c-2.678 0-4.867 2.191-4.867 4.871v9.766c0 2.678 2.189 4.869 4.867 4.869h9.91zm88.367-28.605c2.676 0 4.867-2.191 4.867-4.869v-9.768c0-2.678-2.191-4.869-4.867-4.869h-9.91c-2.68 0-4.869 2.191-4.869 4.869v9.768c0 2.678 2.189 4.869 4.869 4.869h9.91zm-.609 28.605c2.678 0 4.867-2.191 4.867-4.869v-9.766c0-2.68-2.189-4.871-4.867-4.871h-9.91c-2.678 0-4.869 2.191-4.869 4.871v9.766c0 2.678 2.191 4.869 4.869 4.869h9.91z"/>
</svg>
