<svg xmlns="http://www.w3.org/2000/svg" viewBox="0 0 888 283">
  <path fill="#262DFF" d="M325.005 124.025c-.764 0-1.387-.623-1.387-1.385v-2.781c0-.762.623-1.385 1.387-1.385h2.738c.764 0 1.387.623 1.387 1.385v2.781c0 .762-.623 1.385-1.387 1.385h-2.738zm243.982 0c.764 0 1.387-.623 1.387-1.385v-2.781c0-.762-.623-1.385-1.387-1.385h-2.82c-.762 0-1.385.623-1.385 1.385v2.781c0 .762.623 1.385 1.385 1.385h2.82zm16.729-8.322c.762 0 1.385-.623 1.385-1.387v-2.779c0-.762-.623-1.385-1.385-1.385h-2.82c-.764 0-1.387.623-1.387 1.385v2.779c0 .764.623 1.387 1.387 1.387h2.82zm0 17.553c.762 0 1.385-.623 1.385-1.385v-2.781c0-.762-.623-1.385-1.385-1.385h-2.82c-.764 0-1.387.623-1.387 1.385v2.781c0 .762.623 1.385 1.387 1.385h2.82zm8.363 0c.762 0 1.385-.623 1.385-1.385v-2.781c0-.762-.623-1.385-1.385-1.385h-2.82c-.764 0-1.387.623-1.387 1.385v2.781c0 .762.623 1.385 1.387 1.385h2.82zm0 8.322c.762 0 1.385-.623 1.385-1.385v-2.779c0-.762-.623-1.387-1.385-1.387h-2.82c-.764 0-1.387.625-1.387 1.387v2.779c0 .762.623 1.385 1.387 1.385h2.82zm8.363 0c.764 0 1.385-.623 1.385-1.385v-2.779c0-.762-.621-1.387-1.385-1.387h-2.82c-.764 0-1.385.625-1.385 1.387v2.779c0 .762.621 1.385 1.385 1.385h2.82zm-133.248-67.49c.762 0 1.385-.623 1.385-1.385v-2.781c0-.762-.623-1.385-1.385-1.385h-2.74c-.762 0-1.385.623-1.385 1.385v2.781c0 .762.623 1.385 1.385 1.385h2.74zm166.297 16.646c.762 0 1.385-.623 1.385-1.387v-2.779c0-.764-.623-1.387-1.385-1.387h-2.74c-.762 0-1.385.623-1.385 1.387v2.779c0 .764.623 1.387 1.385 1.387h2.74zm16.606-16.605c.762 0 1.385-.623 1.385-1.387v-2.779c0-.762-.623-1.385-1.385-1.385h-2.74c-.762 0-1.385.623-1.385 1.385v2.779c0 .764.623 1.387 1.385 1.387h2.74zm-58.059-33.332c.762 0 1.387-.625 1.387-1.387v-2.779c0-.764-.625-1.387-1.387-1.387H591.3c-.764 0-1.387.623-1.387 1.387v2.779c0 .762.623 1.387 1.387 1.387h2.738zm33.17 49.937c.764 0 1.387-.623 1.387-1.387v-2.779c0-.764-.623-1.387-1.387-1.387h-2.738c-.764 0-1.387.623-1.387 1.387v2.779c0 .764.623 1.387 1.387 1.387h2.738zm-99.795-16.646c.764 0 1.387-.623 1.387-1.385v-2.781c0-.762-.623-1.385-1.387-1.385h-2.738c-.764 0-1.387.623-1.387 1.385v2.781c0 .762.623 1.385 1.387 1.385h2.738zm0-8.322c.764 0 1.387-.623 1.387-1.387V61.6c0-.764-.623-1.387-1.387-1.387h-2.738c-.764 0-1.387.623-1.387 1.387v2.779c0 .764.623 1.387 1.387 1.387h2.738zm0-8.325c.764 0 1.387-.623 1.387-1.385v-2.779c0-.764-.623-1.387-1.387-1.387h-2.738c-.764 0-1.387.623-1.387 1.387v2.779c0 .762.623 1.385 1.387 1.385h2.738zm-8.363 0c.764 0 1.387-.623 1.387-1.385v-2.779c0-.764-.623-1.387-1.387-1.387h-2.738c-.764 0-1.387.623-1.387 1.387v2.779c0 .762.623 1.385 1.387 1.385h2.738zm-8.363 0c.762 0 1.387-.623 1.387-1.385v-2.779c0-.764-.625-1.387-1.387-1.387h-2.738c-.764 0-1.387.623-1.387 1.387v2.779c0 .762.623 1.385 1.387 1.385h2.738zm-8.364-8.322c.762 0 1.385-.623 1.385-1.387v-2.779c0-.762-.623-1.385-1.385-1.385h-2.74c-.762 0-1.385.623-1.385 1.385v2.779c0 .764.623 1.387 1.385 1.387h2.74zm0 8.322c.762 0 1.385-.623 1.385-1.385v-2.779c0-.764-.623-1.387-1.385-1.387h-2.74c-.762 0-1.385.623-1.385 1.387v2.779c0 .762.623 1.385 1.385 1.385h2.74zm-8.363-8.322c.762 0 1.385-.623 1.385-1.387v-2.779c0-.762-.623-1.385-1.385-1.385h-2.74c-.762 0-1.385.623-1.385 1.385v2.779c0 .764.623 1.387 1.385 1.387h2.74zm-8.363 0c.762 0 1.385-.623 1.385-1.387v-2.779c0-.762-.623-1.385-1.385-1.385h-2.74c-.762 0-1.385.623-1.385 1.385v2.779c0 .764.623 1.387 1.385 1.387h2.74zm-8.121 0c.762 0 1.387-.623 1.387-1.387v-2.779c0-.762-.625-1.385-1.387-1.385h-2.738c-.764 0-1.387.623-1.387 1.385v2.779c0 .764.623 1.387 1.387 1.387h2.738zm-8.12 0c.762 0 1.385-.623 1.385-1.387v-2.779c0-.762-.623-1.385-1.385-1.385h-2.74c-.762 0-1.385.623-1.385 1.385v2.779c0 .764.623 1.387 1.385 1.387h2.74zm49.694 24.969c.764 0 1.387-.623 1.387-1.385v-2.781c0-.762-.623-1.385-1.387-1.385h-2.738c-.764 0-1.387.623-1.387 1.385v2.781c0 .762.623 1.385 1.387 1.385h2.738zm33.293 0c.762 0 1.385-.623 1.385-1.385v-2.781c0-.762-.623-1.385-1.385-1.385h-2.74c-.762 0-1.385.623-1.385 1.385v2.781c0 .762.623 1.385 1.385 1.385h2.74zm0-8.322c.762 0 1.385-.623 1.385-1.387V61.6c0-.764-.623-1.387-1.385-1.387h-2.74c-.762 0-1.385.623-1.385 1.387v2.779c0 .764.623 1.387 1.385 1.387h2.74zm8.281 0c.764 0 1.387-.623 1.387-1.387V61.6c0-.764-.623-1.387-1.387-1.387h-2.738c-.764 0-1.387.623-1.387 1.387v2.779c0 .764.623 1.387 1.387 1.387h2.738zm-24.848 33.291c.764 0 1.387-.623 1.387-1.385v-2.781c0-.762-.623-1.385-1.387-1.385h-2.738c-.762 0-1.387.623-1.387 1.385v2.781c0 .762.625 1.385 1.387 1.385h2.738zm24.848 0c.764 0 1.387-.623 1.387-1.385v-2.781c0-.762-.623-1.385-1.387-1.385h-2.738c-.764 0-1.387.623-1.387 1.385v2.781c0 .762.623 1.385 1.387 1.385h2.738zM435.983 232.063c.762 0 1.385-.623 1.385-1.387v-2.779c0-.762-.623-1.385-1.385-1.385h-2.82c-.764 0-1.387.623-1.387 1.385v2.779c0 .764.623 1.387 1.387 1.387h2.82zm0-8.325c.762 0 1.385-.623 1.385-1.385v-2.779c0-.764-.623-1.387-1.385-1.387h-2.82c-.764 0-1.387.623-1.387 1.387v2.779c0 .762.623 1.385 1.387 1.385h2.82zm0-8.322c.762 0 1.385-.623 1.385-1.385v-2.781c0-.762-.623-1.385-1.385-1.385h-2.82c-.764 0-1.387.623-1.387 1.385v2.781c0 .762.623 1.385 1.387 1.385h2.82zm0-8.322c.762 0 1.385-.623 1.385-1.387v-2.779c0-.764-.623-1.387-1.385-1.387h-2.82c-.764 0-1.387.623-1.387 1.387v2.779c0 .764.623 1.387 1.387 1.387h2.82zm8.403 0c.764 0 1.387-.623 1.387-1.387v-2.779c0-.764-.623-1.387-1.387-1.387h-2.82c-.762 0-1.385.623-1.385 1.387v2.779c0 .764.623 1.387 1.385 1.387h2.82zm8.406 0c.762 0 1.385-.623 1.385-1.387v-2.779c0-.764-.623-1.387-1.385-1.387h-2.82c-.764 0-1.387.623-1.387 1.387v2.779c0 .764.623 1.387 1.387 1.387h2.82zm8.402 0c.764 0 1.387-.623 1.387-1.387v-2.779c0-.764-.623-1.387-1.387-1.387h-2.82c-.762 0-1.385.623-1.385 1.387v2.779c0 .764.623 1.387 1.385 1.387h2.82zM502.403 282c.764 0 1.387-.623 1.387-1.387v-2.779c0-.762-.623-1.385-1.387-1.385h-2.82c-.762 0-1.385.623-1.385 1.385v2.779c0 .764.623 1.387 1.385 1.387h2.82zm-33.209-33.291c.762 0 1.385-.623 1.385-1.387v-2.779c0-.764-.623-1.387-1.385-1.387h-2.74c-.762 0-1.385.623-1.385 1.387v2.779c0 .764.623 1.387 1.385 1.387h2.74zm28.989-16.646c.762 0 1.385-.623 1.385-1.387v-2.779c0-.762-.623-1.385-1.385-1.385h-2.74c-.762 0-1.385.623-1.385 1.385v2.779c0 .764.623 1.387 1.385 1.387h2.74zm8.363 4.16c.762 0 1.385-.623 1.385-1.385v-2.779c0-.764-.623-1.387-1.385-1.387h-2.74c-.762 0-1.385.623-1.385 1.387v2.779c0 .762.623 1.385 1.385 1.385h2.74zm8.363 4.162c.762 0 1.385-.623 1.385-1.385v-2.781c0-.762-.623-1.385-1.385-1.385h-2.738c-.764 0-1.387.623-1.387 1.385V239c0 .762.623 1.385 1.387 1.385h2.738zm19.434 6.244c.762 0 1.387-.623 1.387-1.385v-2.779c0-.764-.625-1.387-1.387-1.387h-2.738c-.764 0-1.387.623-1.387 1.387v2.779c0 .762.623 1.385 1.387 1.385h2.738zm-81.715 2.08c.764 0 1.387-.623 1.387-1.387v-2.779c0-.764-.623-1.387-1.387-1.387h-2.738c-.762 0-1.387.623-1.387 1.387v2.779c0 .764.625 1.387 1.387 1.387h2.738zm8.283 8.322c.762 0 1.385-.623 1.385-1.387v-2.779c0-.762-.623-1.385-1.385-1.385h-2.74c-.762 0-1.385.623-1.385 1.385v2.779c0 .764.623 1.387 1.385 1.387h2.74zm-16.564 0c.762 0 1.385-.623 1.385-1.387v-2.779c0-.762-.623-1.385-1.385-1.385h-2.74c-.762 0-1.385.623-1.385 1.385v2.779c0 .764.623 1.387 1.385 1.387h2.74zm41.412 16.647c.762 0 1.385-.623 1.385-1.387v-2.779c0-.764-.623-1.387-1.385-1.387h-2.74c-.762 0-1.385.623-1.385 1.387v2.779c0 .764.623 1.387 1.385 1.387h2.74zm0 8.322c.762 0 1.385-.623 1.385-1.387v-2.779c0-.762-.623-1.385-1.385-1.385h-2.74c-.762 0-1.385.623-1.385 1.385v2.779c0 .764.623 1.387 1.385 1.387h2.74zm8.281 0c.764 0 1.387-.623 1.387-1.387v-2.779c0-.762-.623-1.385-1.387-1.385h-2.738c-.764 0-1.387.623-1.387 1.385v2.779c0 .764.623 1.387 1.387 1.387h2.738zm41.736-124.682c.764 0 1.387-.623 1.387-1.387v-2.779c0-.764-.623-1.387-1.387-1.387h-2.738c-.762 0-1.387.623-1.387 1.387v2.779c0 .764.625 1.387 1.387 1.387h2.738zM344.47 173.924c.764 0 1.387-.623 1.387-1.387v-2.738c0-.764-.623-1.387-1.387-1.387h-2.82c-.762 0-1.385.623-1.385 1.387v2.738c0 .764.623 1.387 1.385 1.387h2.82zm-149.569-83.19c.762 0 1.385-.623 1.385-1.387v-2.779c0-.764-.623-1.387-1.385-1.387h-2.82c-.764 0-1.387.623-1.387 1.387v2.779c0 .764.623 1.387 1.387 1.387h2.82zm0-24.968c.762 0 1.385-.623 1.385-1.387V61.6c0-.764-.623-1.387-1.385-1.387h-2.82c-.764 0-1.387.623-1.387 1.387v2.779c0 .764.623 1.387 1.387 1.387h2.82zm-38.966 9.125c.764 0 1.387-.623 1.387-1.387v-2.779c0-.762-.623-1.385-1.387-1.385h-2.738c-.762 0-1.387.623-1.387 1.385v2.779c0 .764.625 1.387 1.387 1.387h2.738zm8.283-4.162c.762 0 1.387-.623 1.387-1.385v-2.781c0-.762-.625-1.385-1.387-1.385h-2.738c-.764 0-1.387.623-1.387 1.385v2.781c0 .762.623 1.385 1.387 1.385h2.738zm-16.565 0c.762 0 1.385-.623 1.385-1.385v-2.781c0-.762-.623-1.385-1.385-1.385h-2.74c-.762 0-1.385.623-1.385 1.385v2.781c0 .762.623 1.385 1.385 1.385h2.74zm463.153-54.936c.764 0 1.387-.623 1.387-1.385v-2.74c0-.762-.623-1.385-1.387-1.385h-2.82c-.762 0-1.385.623-1.385 1.385v2.74c0 .762.623 1.385 1.385 1.385h2.82zm107.834 16.68c.762 0 1.385-.623 1.385-1.385v-2.74c0-.762-.623-1.385-1.385-1.385h-2.74c-.762 0-1.385.623-1.385 1.385v2.74c0 .762.623 1.385 1.385 1.385h2.74zm0-8.176c.762 0 1.385-.623 1.385-1.387v-2.738c0-.762-.623-1.387-1.385-1.387h-2.74c-.762 0-1.385.625-1.385 1.387v2.738c0 .764.623 1.387 1.385 1.387h2.74zm8.281-8.338c.764 0 1.387-.625 1.387-1.387v-2.738c0-.764-.623-1.387-1.387-1.387h-2.738c-.762 0-1.387.623-1.387 1.387v2.738c0 .762.625 1.387 1.387 1.387h2.738zm-24.846.055c.762 0 1.385-.623 1.385-1.385v-2.74c0-.762-.623-1.385-1.385-1.385h-2.74c-.762 0-1.385.623-1.385 1.385v2.74c0 .762.623 1.385 1.385 1.385h2.74zm8.281 0c.764 0 1.387-.623 1.387-1.385v-2.74c0-.762-.623-1.385-1.387-1.385h-2.738c-.764 0-1.387.623-1.387 1.385v2.74c0 .762.623 1.385 1.387 1.385h2.738zm8.284 0c.762 0 1.385-.623 1.385-1.385v-2.74c0-.762-.623-1.385-1.385-1.385h-2.74c-.762 0-1.385.623-1.385 1.385v2.74c0 .762.623 1.385 1.385 1.385h2.74zm24.847-.055c.762 0 1.385-.625 1.385-1.387v-2.738c0-.764-.623-1.387-1.385-1.387h-2.74c-.762 0-1.385.623-1.385 1.387v2.738c0 .762.623 1.387 1.385 1.387h2.74zm-8.283.055c.764 0 1.385-.623 1.385-1.385v-2.74c0-.762-.621-1.385-1.385-1.385h-2.74c-.762 0-1.385.623-1.385 1.385v2.74c0 .762.623 1.385 1.385 1.385h2.74zM286.331 65.766c.764 0 1.387-.623 1.387-1.387V61.6c0-.764-.623-1.387-1.387-1.387h-2.738c-.762 0-1.387.623-1.387 1.387v2.779c0 .764.625 1.387 1.387 1.387h2.738zm33.162 0c.764 0 1.387-.623 1.387-1.387V61.6c0-.764-.623-1.387-1.387-1.387h-2.738c-.764 0-1.387.623-1.387 1.387v2.779c0 .764.623 1.387 1.387 1.387h2.738zm-24.879 0c.762 0 1.385-.623 1.385-1.387V61.6c0-.764-.623-1.387-1.385-1.387h-2.74c-.762 0-1.385.623-1.385 1.387v2.779c0 .764.623 1.387 1.385 1.387h2.74zm8.282 0c.764 0 1.387-.623 1.387-1.387V61.6c0-.764-.623-1.387-1.387-1.387h-2.738c-.764 0-1.387.623-1.387 1.387v2.779c0 .764.623 1.387 1.387 1.387h2.738zm8.283 0c.762 0 1.387-.623 1.387-1.387V61.6c0-.764-.625-1.387-1.387-1.387h-2.738c-.764 0-1.387.623-1.387 1.387v2.779c0 .764.623 1.387 1.387 1.387h2.738zm50.019 0c.762 0 1.385-.623 1.385-1.387V61.6c0-.764-.623-1.387-1.385-1.387h-2.82c-.764 0-1.387.623-1.387 1.387v2.779c0 .764.623 1.387 1.387 1.387h2.82zM236.401 90.734c.762 0 1.387-.623 1.387-1.387v-2.779c0-.764-.625-1.387-1.387-1.387h-2.82c-.762 0-1.385.623-1.385 1.387v2.779c0 .764.623 1.387 1.385 1.387h2.82zm8.356 0c.762 0 1.387-.623 1.387-1.387v-2.779c0-.764-.625-1.387-1.387-1.387h-2.82c-.762 0-1.385.623-1.385 1.387v2.779c0 .764.623 1.387 1.385 1.387h2.82zm8.355 0c.762 0 1.387-.623 1.387-1.387v-2.779c0-.764-.625-1.387-1.387-1.387h-2.82c-.762 0-1.385.623-1.385 1.387v2.779c0 .764.623 1.387 1.385 1.387h2.82zm8.371 0c.764 0 1.387-.623 1.387-1.387v-2.779c0-.764-.623-1.387-1.387-1.387h-2.82c-.762 0-1.385.623-1.385 1.387v2.779c0 .764.623 1.387 1.385 1.387h2.82zm132.844-24.968c.762 0 1.387-.623 1.387-1.387V61.6c0-.764-.625-1.387-1.387-1.387h-2.82c-.762 0-1.387.623-1.387 1.387v2.779c0 .764.625 1.387 1.387 1.387h2.82zm8.363-8.325c.764 0 1.387-.623 1.387-1.385v-2.779c0-.764-.623-1.387-1.387-1.387h-2.82c-.762 0-1.385.623-1.385 1.387v2.779c0 .762.623 1.385 1.385 1.385h2.82zm8.364 0c.764 0 1.387-.623 1.387-1.385v-2.779c0-.764-.623-1.387-1.387-1.387h-2.82c-.762 0-1.385.623-1.385 1.387v2.779c0 .762.623 1.385 1.385 1.385h2.82zm-16.727 0c.762 0 1.387-.623 1.387-1.385v-2.779c0-.764-.625-1.387-1.387-1.387h-2.82c-.762 0-1.387.623-1.387 1.387v2.779c0 .762.625 1.385 1.387 1.385h2.82zm-8.363 0c.762 0 1.385-.623 1.385-1.385v-2.779c0-.764-.623-1.387-1.385-1.387h-2.82c-.764 0-1.387.623-1.387 1.387v2.779c0 .762.623 1.385 1.387 1.385h2.82zm0-8.322c.762 0 1.385-.623 1.385-1.387v-2.779c0-.762-.623-1.385-1.385-1.385h-2.82c-.764 0-1.387.623-1.387 1.385v2.779c0 .764.623 1.387 1.387 1.387h2.82zm-8.363 0c.762 0 1.385-.623 1.385-1.387v-2.779c0-.762-.623-1.385-1.385-1.385h-2.82c-.764 0-1.387.623-1.387 1.385v2.779c0 .764.623 1.387 1.387 1.387h2.82zm-8.364 0c.762 0 1.385-.623 1.385-1.387v-2.779c0-.762-.623-1.385-1.385-1.385h-2.82c-.764 0-1.387.623-1.387 1.385v2.779c0 .764.623 1.387 1.387 1.387h2.82zm-8.365 0c.764 0 1.387-.623 1.387-1.387v-2.779c0-.762-.623-1.385-1.387-1.385h-2.82c-.762 0-1.385.623-1.385 1.385v2.779c0 .764.623 1.387 1.385 1.387h2.82zm16.729 8.322c.762 0 1.385-.623 1.385-1.385v-2.779c0-.764-.623-1.387-1.385-1.387h-2.82c-.764 0-1.387.623-1.387 1.387v2.779c0 .762.623 1.385 1.387 1.385h2.82zm-178.559 58.262c.762 0 1.385-.623 1.385-1.387v-2.779c0-.762-.623-1.385-1.385-1.385h-2.74c-.762 0-1.385.623-1.385 1.385v2.779c0 .764.623 1.387 1.385 1.387h2.74zm8.281-8.324c.764 0 1.387-.623 1.387-1.385v-2.779c0-.764-.623-1.387-1.387-1.387h-2.738c-.762 0-1.387.623-1.387 1.387v2.779c0 .762.625 1.385 1.387 1.385h2.738zm345.02-91.586c.762 0 1.385-.623 1.385-1.385v-2.74c0-.762-.623-1.385-1.385-1.385h-2.82c-.764 0-1.387.623-1.387 1.385v2.74c0 .762.623 1.385 1.387 1.385h2.82zm-74.826 0c.762 0 1.385-.623 1.385-1.385v-2.74c0-.762-.623-1.385-1.385-1.385h-2.82c-.764 0-1.387.623-1.387 1.385v2.74c0 .762.623 1.385 1.387 1.385h2.82zm-8.12 0c.762 0 1.385-.623 1.385-1.385v-2.74c0-.762-.623-1.385-1.385-1.385h-2.82c-.764 0-1.387.623-1.387 1.385v2.74c0 .762.623 1.385 1.387 1.385h2.82zm-8.324-8.281c.762 0 1.387-.625 1.387-1.387V3.387c0-.764-.625-1.387-1.387-1.387h-2.82c-.762 0-1.387.623-1.387 1.387v2.738c0 .762.625 1.387 1.387 1.387h2.82zM324.972 114.316c1.523 0 2.771-1.246 2.771-2.771v-5.559c0-1.525-1.248-2.771-2.771-2.771h-5.479c-1.525 0-2.771 1.246-2.771 2.771v5.559c0 1.525 1.246 2.771 2.771 2.771h5.479zm149.732 16.647c1.525 0 2.771-1.248 2.771-2.771v-5.559c0-1.525-1.246-2.773-2.771-2.773h-5.479c-1.523 0-2.771 1.248-2.771 2.773v5.559c0 1.523 1.248 2.771 2.771 2.771h5.479zm0-16.647c1.525 0 2.771-1.246 2.771-2.771v-5.559c0-1.525-1.246-2.771-2.771-2.771h-5.479c-1.523 0-2.771 1.246-2.771 2.771v5.559c0 1.525 1.248 2.771 2.771 2.771h5.479zm16.565 16.647c1.525 0 2.771-1.248 2.771-2.771v-5.559c0-1.525-1.246-2.773-2.771-2.773h-5.479c-1.523 0-2.771 1.248-2.771 2.773v5.559c0 1.523 1.248 2.771 2.771 2.771h5.479zm83.312-16.647c1.523 0 2.77-1.246 2.77-2.771v-5.559c0-1.525-1.246-2.771-2.77-2.771h-5.643c-1.523 0-2.771 1.246-2.771 2.771v5.559c0 1.525 1.248 2.771 2.771 2.771h5.643zm66.42-33.291c1.525 0 2.771-1.248 2.771-2.771v-5.561c0-1.523-1.246-2.771-2.771-2.771h-5.479c-1.523 0-2.771 1.248-2.771 2.771v5.561c0 1.523 1.248 2.771 2.771 2.771h5.479zM524.724 97.672c1.523 0 2.771-1.248 2.771-2.773V89.34c0-1.523-1.248-2.771-2.771-2.771h-5.641c-1.525 0-2.771 1.248-2.771 2.771v5.559c0 1.525 1.246 2.773 2.771 2.773h5.641zm99.713-16.647c1.525 0 2.771-1.248 2.771-2.771v-5.561c0-1.523-1.246-2.771-2.771-2.771h-5.479c-1.523 0-2.771 1.248-2.771 2.771v5.561c0 1.523 1.248 2.771 2.771 2.771h5.479zm-182.862 0c1.523 0 2.771-1.248 2.771-2.771v-5.561c0-1.523-1.248-2.771-2.771-2.771h-5.479c-1.525 0-2.771 1.248-2.771 2.771v5.561c0 1.523 1.246 2.771 2.771 2.771h5.479zm16.565 0c1.523 0 2.771-1.248 2.771-2.771v-5.561c0-1.523-1.248-2.771-2.771-2.771h-5.479c-1.525 0-2.771 1.248-2.771 2.771v5.561c0 1.523 1.246 2.771 2.771 2.771h5.479zm-16.565 16.647c1.523 0 2.771-1.248 2.771-2.773V89.34c0-1.523-1.248-2.771-2.771-2.771h-5.479c-1.525 0-2.771 1.248-2.771 2.771v5.559c0 1.525 1.246 2.773 2.771 2.773h5.479zm49.694 116.359c1.525 0 2.771-1.248 2.771-2.773v-5.559c0-1.523-1.246-2.771-2.771-2.771h-5.479c-1.523 0-2.771 1.248-2.771 2.771v5.559c0 1.525 1.248 2.773 2.771 2.773h5.479zm-16.565 49.938c1.525 0 2.771-1.248 2.771-2.771v-5.561c0-1.523-1.246-2.771-2.771-2.771h-5.479c-1.523 0-2.771 1.248-2.771 2.771v5.561c0 1.523 1.248 2.771 2.771 2.771h5.479zm-33.129-16.647c1.523 0 2.771-1.248 2.771-2.771v-5.559c0-1.525-1.248-2.773-2.771-2.773h-5.479c-1.525 0-2.771 1.248-2.771 2.773v5.559c0 1.523 1.246 2.771 2.771 2.771h5.479zm-16.728 0c1.525 0 2.773-1.248 2.773-2.771v-5.559c0-1.525-1.248-2.773-2.773-2.773h-5.477c-1.525 0-2.773 1.248-2.773 2.773v5.559c0 1.523 1.248 2.771 2.773 2.771h5.477zm116.441-99.713c1.523 0 2.771-1.248 2.771-2.771v-5.561c0-1.523-1.248-2.771-2.771-2.771h-5.479c-1.525 0-2.771 1.248-2.771 2.771v5.561c0 1.523 1.246 2.771 2.771 2.771h5.479zm16.565 0c1.525 0 2.771-1.248 2.771-2.771v-5.561c0-1.523-1.246-2.771-2.771-2.771h-5.479c-1.523 0-2.771 1.248-2.771 2.771v5.561c0 1.523 1.248 2.771 2.771 2.771h5.479zM358.427 180.82c1.523 0 2.771-1.248 2.771-2.771v-5.479c0-1.525-1.248-2.771-2.771-2.771h-5.641c-1.525 0-2.771 1.246-2.771 2.771v5.479c0 1.523 1.246 2.771 2.771 2.771h5.641zm149.568 0c1.525 0 2.773-1.248 2.773-2.771v-5.479c0-1.525-1.248-2.771-2.773-2.771h-5.641c-1.523 0-2.771 1.246-2.771 2.771v5.479c0 1.523 1.248 2.771 2.771 2.771h5.641zm-116.439 33.211c1.525 0 2.771-1.248 2.771-2.773v-5.559c0-1.523-1.246-2.771-2.771-2.771h-5.479c-1.523 0-2.771 1.248-2.771 2.771v5.559c0 1.525 1.248 2.773 2.771 2.773h5.479zM192.128 81.025c1.525 0 2.773-1.248 2.773-2.771v-5.561c0-1.523-1.248-2.771-2.773-2.771h-5.641c-1.523 0-2.771 1.248-2.771 2.771v5.561c0 1.523 1.248 2.771 2.771 2.771h5.641zm382.453-49.937c1.523 0 2.77-1.248 2.77-2.771v-5.479c0-1.525-1.246-2.771-2.77-2.771h-5.643c-1.523 0-2.771 1.246-2.771 2.771v5.479c0 1.523 1.248 2.771 2.771 2.771h5.643zm16.766 0c1.525 0 2.773-1.248 2.773-2.771v-5.479c0-1.525-1.248-2.771-2.773-2.771h-5.641c-1.523 0-2.77 1.246-2.77 2.771v5.479c0 1.523 1.246 2.771 2.77 2.771h5.641zm16.687 0c1.525 0 2.771-1.248 2.771-2.771v-5.479c0-1.525-1.246-2.771-2.771-2.771h-5.641c-1.523 0-2.771 1.246-2.771 2.771v5.479c0 1.523 1.248 2.771 2.771 2.771h5.641zm16.688 0c1.523 0 2.771-1.248 2.771-2.771v-5.479c0-1.525-1.248-2.771-2.771-2.771h-5.641c-1.525 0-2.773 1.246-2.773 2.771v5.479c0 1.523 1.248 2.771 2.773 2.771h5.641zm0-16.68c1.523 0 2.771-1.248 2.771-2.771V6.158c0-1.525-1.248-2.771-2.771-2.771h-5.641c-1.525 0-2.773 1.246-2.773 2.771v5.479c0 1.523 1.248 2.771 2.773 2.771h5.641zm82.863 16.68c1.525 0 2.771-1.248 2.771-2.771v-5.479c0-1.525-1.246-2.771-2.771-2.771h-5.479c-1.523 0-2.771 1.246-2.771 2.771v5.479c0 1.523 1.248 2.771 2.771 2.771h5.479zm-465.6 33.291c1.525 0 2.771-1.246 2.771-2.771v-5.559c0-1.525-1.246-2.771-2.771-2.771h-5.641c-1.525 0-2.771 1.246-2.771 2.771v5.559c0 1.525 1.246 2.771 2.771 2.771h5.641zm16.727 0c1.525 0 2.771-1.246 2.771-2.771v-5.559c0-1.525-1.246-2.771-2.771-2.771h-5.641c-1.523 0-2.771 1.246-2.771 2.771v5.559c0 1.525 1.248 2.771 2.771 2.771h5.641zm16.564 0c1.525 0 2.773-1.246 2.773-2.771v-5.559c0-1.525-1.248-2.771-2.773-2.771H269.8c-1.525 0-2.771 1.246-2.771 2.771v5.559c0 1.525 1.246 2.771 2.771 2.771h5.476zm74.455 0c1.525 0 2.771-1.246 2.771-2.771v-5.559c0-1.525-1.246-2.771-2.771-2.771h-5.641c-1.523 0-2.771 1.246-2.771 2.771v5.559c0 1.525 1.248 2.771 2.771 2.771h5.641zm-16.396 0c1.525 0 2.771-1.246 2.771-2.771v-5.559c0-1.525-1.246-2.771-2.771-2.771h-5.641c-1.523 0-2.771 1.246-2.771 2.771v5.559c0 1.525 1.248 2.771 2.771 2.771h5.641zm-91.35 16.646c1.525 0 2.771-1.248 2.771-2.771v-5.561c0-1.523-1.246-2.771-2.771-2.771h-5.641c-1.525 0-2.771 1.248-2.771 2.771v5.561c0 1.523 1.246 2.771 2.771 2.771h5.641zm16.727 0c1.525 0 2.771-1.248 2.771-2.771v-5.561c0-1.523-1.246-2.771-2.771-2.771h-5.641c-1.523 0-2.771 1.248-2.771 2.771v5.561c0 1.523 1.248 2.771 2.771 2.771h5.641zm166.299-16.646c1.523 0 2.771-1.246 2.771-2.771v-5.559c0-1.525-1.248-2.771-2.771-2.771h-5.641c-1.525 0-2.773 1.246-2.773 2.771v5.559c0 1.525 1.248 2.771 2.773 2.771h5.641zm282.574-16.647c1.525 0 2.771-1.246 2.771-2.771v-5.559c0-1.525-1.246-2.771-2.771-2.771h-5.479c-1.523 0-2.771 1.246-2.771 2.771v5.559c0 1.525 1.248 2.771 2.771 2.771h5.479zM474.704 64.379c1.525 0 2.771-1.246 2.771-2.771v-5.559c0-1.525-1.246-2.771-2.771-2.771h-5.479c-1.523 0-2.771 1.246-2.771 2.771v5.559c0 1.525 1.248 2.771 2.771 2.771h5.479zm-16.564 0c1.523 0 2.771-1.246 2.771-2.771v-5.559c0-1.525-1.248-2.771-2.771-2.771h-5.479c-1.525 0-2.771 1.246-2.771 2.771v5.559c0 1.525 1.246 2.771 2.771 2.771h5.479zm49.922-41.69c1.523 0 2.771-1.246 2.771-2.771v-5.479c0-1.523-1.248-2.771-2.771-2.771h-5.641c-1.525 0-2.771 1.248-2.771 2.771v5.479c0 1.525 1.246 2.771 2.771 2.771h5.641zm16.662 0c1.523 0 2.771-1.246 2.771-2.771v-5.479c0-1.523-1.248-2.771-2.771-2.771h-5.641c-1.525 0-2.771 1.248-2.771 2.771v5.479c0 1.525 1.246 2.771 2.771 2.771h5.641zm16.646-8.281c1.523 0 2.771-1.248 2.771-2.771V6.158c0-1.525-1.248-2.771-2.771-2.771h-5.641c-1.525 0-2.773 1.246-2.773 2.771v5.479c0 1.523 1.248 2.771 2.773 2.771h5.641zM208.694 64.379c1.523 0 2.771-1.246 2.771-2.771v-5.559c0-1.525-1.248-2.771-2.771-2.771h-5.479c-1.525 0-2.771 1.246-2.771 2.771v5.559c0 1.525 1.246 2.771 2.771 2.771h5.479zm16.565 0c1.523 0 2.771-1.246 2.771-2.771v-5.559c0-1.525-1.248-2.771-2.771-2.771h-5.479c-1.525 0-2.771 1.246-2.771 2.771v5.559c0 1.525 1.246 2.771 2.771 2.771h5.479zm266.01-41.274c1.525 0 2.771-1.246 2.771-2.771v-5.479c0-1.523-1.246-2.771-2.771-2.771h-5.479c-1.523 0-2.771 1.248-2.771 2.771v5.479c0 1.525 1.248 2.771 2.771 2.771h5.479zm66.584 7.983c1.525 0 2.771-1.248 2.771-2.771v-5.479c0-1.525-1.246-2.771-2.771-2.771h-5.479c-1.523 0-2.771 1.246-2.771 2.771v5.479c0 1.523 1.248 2.771 2.771 2.771h5.479zm-16.565 49.937c1.523 0 2.771-1.248 2.771-2.771v-5.561c0-1.523-1.248-2.771-2.771-2.771h-5.479c-1.525 0-2.771 1.248-2.771 2.771v5.561c0 1.523 1.246 2.771 2.771 2.771h5.479zm0-16.646c1.523 0 2.771-1.246 2.771-2.771v-5.559c0-1.525-1.248-2.771-2.771-2.771h-5.479c-1.525 0-2.771 1.246-2.771 2.771v5.559c0 1.525 1.246 2.771 2.771 2.771h5.479zm-199.193 50.293c1.523 0 2.771-1.248 2.771-2.771v-5.561c0-1.523-1.248-2.771-2.771-2.771h-5.641c-1.525 0-2.771 1.248-2.771 2.771v5.561c0 1.523 1.246 2.771 2.771 2.771h5.641zm16.283-.348c1.523 0 2.771-1.246 2.771-2.771v-5.559c0-1.525-1.248-2.771-2.771-2.771h-5.641c-1.525 0-2.771 1.246-2.771 2.771v5.559c0 1.525 1.246 2.771 2.771 2.771h5.641zm-16.631 16.631c1.525 0 2.771-1.248 2.771-2.771v-5.561c0-1.523-1.246-2.771-2.771-2.771h-5.641c-1.523 0-2.771 1.248-2.771 2.771v5.561c0 1.523 1.248 2.771 2.771 2.771h5.641zm16.631 0c1.523 0 2.771-1.248 2.771-2.771v-5.561c0-1.523-1.248-2.771-2.771-2.771h-5.641c-1.525 0-2.771 1.248-2.771 2.771v5.561c0 1.523 1.246 2.771 2.771 2.771h5.641zm16.926-16.283c1.525 0 2.773-1.248 2.773-2.771v-5.561c0-1.523-1.248-2.771-2.773-2.771h-5.477c-1.525 0-2.771 1.248-2.771 2.771v5.561c0 1.523 1.246 2.771 2.771 2.771h5.477zm16.285-.348c1.523 0 2.771-1.246 2.771-2.771v-5.559c0-1.525-1.248-2.771-2.771-2.771h-5.479c-1.525 0-2.771 1.246-2.771 2.771v5.559c0 1.525 1.246 2.771 2.771 2.771h5.479zm-16.631 16.631c1.525 0 2.771-1.248 2.771-2.771v-5.561c0-1.523-1.246-2.771-2.771-2.771h-5.479c-1.523 0-2.771 1.248-2.771 2.771v5.561c0 1.523 1.248 2.771 2.771 2.771h5.479zm16.631 0c1.523 0 2.771-1.248 2.771-2.771v-5.561c0-1.523-1.248-2.771-2.771-2.771h-5.479c-1.525 0-2.771 1.248-2.771 2.771v5.561c0 1.523 1.246 2.771 2.771 2.771h5.479zm17.09-16.283c1.523 0 2.771-1.248 2.771-2.771v-5.561c0-1.523-1.248-2.771-2.771-2.771h-5.641c-1.525 0-2.773 1.248-2.773 2.771v5.561c0 1.523 1.248 2.771 2.773 2.771h5.641zm16.283-.348c1.523 0 2.771-1.246 2.771-2.771v-5.559c0-1.525-1.248-2.771-2.771-2.771h-5.641c-1.525 0-2.771 1.246-2.771 2.771v5.559c0 1.525 1.246 2.771 2.771 2.771h5.641zm-16.631 16.631c1.525 0 2.771-1.248 2.771-2.771v-5.561c0-1.523-1.246-2.771-2.771-2.771h-5.641c-1.523 0-2.771 1.248-2.771 2.771v5.561c0 1.523 1.248 2.771 2.771 2.771h5.641zm16.631 0c1.523 0 2.771-1.248 2.771-2.771v-5.561c0-1.523-1.248-2.771-2.771-2.771h-5.641c-1.525 0-2.771 1.248-2.771 2.771v5.561c0 1.523 1.246 2.771 2.771 2.771h5.641zm83.43-16.283c1.523 0 2.771-1.248 2.771-2.771v-5.561c0-1.523-1.248-2.771-2.771-2.771h-5.641c-1.525 0-2.771 1.248-2.771 2.771v5.561c0 1.523 1.246 2.771 2.771 2.771h5.641zm16.283-.348c1.523 0 2.771-1.246 2.771-2.771v-5.559c0-1.525-1.248-2.771-2.771-2.771h-5.641c-1.525 0-2.771 1.246-2.771 2.771v5.559c0 1.525 1.246 2.771 2.771 2.771h5.641zm-16.629 16.631c1.523 0 2.77-1.248 2.77-2.771v-5.561c0-1.523-1.246-2.771-2.77-2.771h-5.643c-1.523 0-2.771 1.248-2.771 2.771v5.561c0 1.523 1.248 2.771 2.771 2.771h5.643zm16.629 0c1.523 0 2.771-1.248 2.771-2.771v-5.561c0-1.523-1.248-2.771-2.771-2.771h-5.641c-1.525 0-2.771 1.248-2.771 2.771v5.561c0 1.523 1.246 2.771 2.771 2.771h5.641zm16.928-16.283c1.523 0 2.771-1.248 2.771-2.771v-5.561c0-1.523-1.248-2.771-2.771-2.771h-5.479c-1.525 0-2.771 1.248-2.771 2.771v5.561c0 1.523 1.246 2.771 2.771 2.771h5.479zm16.283-.348c1.523 0 2.771-1.246 2.771-2.771v-5.559c0-1.525-1.248-2.771-2.771-2.771h-5.479c-1.525 0-2.771 1.246-2.771 2.771v5.559c0 1.525 1.246 2.771 2.771 2.771h5.479zm-16.631 16.631c1.525 0 2.771-1.248 2.771-2.771v-5.561c0-1.523-1.246-2.771-2.771-2.771h-5.479c-1.523 0-2.771 1.248-2.771 2.771v5.561c0 1.523 1.248 2.771 2.771 2.771h5.479zm16.631 0c1.523 0 2.771-1.248 2.771-2.771v-5.561c0-1.523-1.248-2.771-2.771-2.771h-5.479c-1.525 0-2.771 1.248-2.771 2.771v5.561c0 1.523 1.246 2.771 2.771 2.771h5.479zM308.722 81.379c1.523 0 2.771-1.246 2.771-2.771v-5.559c0-1.525-1.248-2.771-2.771-2.771h-5.479c-1.525 0-2.771 1.246-2.771 2.771v5.559c0 1.525 1.246 2.771 2.771 2.771h5.479zm16.283-.346c1.523 0 2.771-1.248 2.771-2.771v-5.559c0-1.525-1.248-2.773-2.771-2.773h-5.479c-1.525 0-2.771 1.248-2.771 2.773v5.559c0 1.523 1.246 2.771 2.771 2.771h5.479zm-16.631 16.629c1.525 0 2.771-1.246 2.771-2.771v-5.559c0-1.525-1.246-2.771-2.771-2.771h-5.479c-1.523 0-2.771 1.246-2.771 2.771v5.559c0 1.525 1.248 2.771 2.771 2.771h5.479zm16.631 0c1.523 0 2.771-1.246 2.771-2.771v-5.559c0-1.525-1.248-2.771-2.771-2.771h-5.479c-1.525 0-2.771 1.246-2.771 2.771v5.559c0 1.525 1.246 2.771 2.771 2.771h5.479zm17.09-16.283c1.523 0 2.771-1.246 2.771-2.771v-5.559c0-1.525-1.248-2.771-2.771-2.771h-5.641c-1.525 0-2.771 1.246-2.771 2.771v5.559c0 1.525 1.246 2.771 2.771 2.771h5.641zm16.283-.346c1.523 0 2.771-1.248 2.771-2.771v-5.559c0-1.525-1.248-2.773-2.771-2.773h-5.641c-1.525 0-2.771 1.248-2.771 2.773v5.559c0 1.523 1.246 2.771 2.771 2.771h5.641zm-16.631 16.629c1.525 0 2.771-1.246 2.771-2.771v-5.559c0-1.525-1.246-2.771-2.771-2.771h-5.641c-1.523 0-2.771 1.246-2.771 2.771v5.559c0 1.525 1.248 2.771 2.771 2.771h5.641zm16.631 0c1.523 0 2.771-1.246 2.771-2.771v-5.559c0-1.525-1.248-2.771-2.771-2.771h-5.641c-1.525 0-2.771 1.246-2.771 2.771v5.559c0 1.525 1.246 2.771 2.771 2.771h5.641zm16.926-16.283c1.525 0 2.773-1.246 2.773-2.771v-5.559c0-1.525-1.248-2.771-2.773-2.771h-5.477c-1.525 0-2.771 1.246-2.771 2.771v5.559c0 1.525 1.246 2.771 2.771 2.771h5.477zm16.285-.346c1.523 0 2.771-1.248 2.771-2.771v-5.559c0-1.525-1.248-2.773-2.771-2.773h-5.479c-1.525 0-2.771 1.248-2.771 2.773v5.559c0 1.523 1.246 2.771 2.771 2.771h5.479zm-16.631 16.629c1.525 0 2.771-1.246 2.771-2.771v-5.559c0-1.525-1.246-2.771-2.771-2.771h-5.479c-1.523 0-2.771 1.246-2.771 2.771v5.559c0 1.525 1.248 2.771 2.771 2.771h5.479zm16.631 0c1.523 0 2.771-1.246 2.771-2.771v-5.559c0-1.525-1.248-2.771-2.771-2.771h-5.479c-1.525 0-2.771 1.246-2.771 2.771v5.559c0 1.525 1.246 2.771 2.771 2.771h5.479zM275.591 81.379c1.525 0 2.771-1.246 2.771-2.771v-5.559c0-1.525-1.246-2.771-2.771-2.771h-5.479c-1.523 0-2.771 1.246-2.771 2.771v5.559c0 1.525 1.248 2.771 2.771 2.771h5.479zm16.283-.346c1.525 0 2.771-1.248 2.771-2.771v-5.559c0-1.525-1.246-2.773-2.771-2.773h-5.477c-1.525 0-2.773 1.248-2.773 2.773v5.559c0 1.523 1.248 2.771 2.773 2.771h5.477zm-16.629 16.629c1.523 0 2.771-1.246 2.771-2.771v-5.559c0-1.525-1.248-2.771-2.771-2.771h-5.479c-1.525 0-2.771 1.246-2.771 2.771v5.559c0 1.525 1.246 2.771 2.771 2.771h5.479zm16.629 0c1.525 0 2.771-1.246 2.771-2.771v-5.559c0-1.525-1.246-2.771-2.771-2.771h-5.477c-1.525 0-2.773 1.246-2.773 2.771v5.559c0 1.525 1.248 2.771 2.773 2.771h5.477zm116.805-16.283c1.523 0 2.771-1.246 2.771-2.771v-5.559c0-1.525-1.248-2.771-2.771-2.771h-5.641c-1.525 0-2.773 1.246-2.773 2.771v5.559c0 1.525 1.248 2.771 2.773 2.771h5.641zm16.283-.346c1.523 0 2.771-1.248 2.771-2.771v-5.559c0-1.525-1.248-2.773-2.771-2.773h-5.641c-1.525 0-2.771 1.248-2.771 2.773v5.559c0 1.523 1.246 2.771 2.771 2.771h5.641zm-16.631 16.629c1.525 0 2.771-1.246 2.771-2.771v-5.559c0-1.525-1.246-2.771-2.771-2.771h-5.641c-1.523 0-2.771 1.246-2.771 2.771v5.559c0 1.525 1.248 2.771 2.771 2.771h5.641zm16.631 0c1.523 0 2.771-1.246 2.771-2.771v-5.559c0-1.525-1.248-2.771-2.771-2.771h-5.641c-1.525 0-2.771 1.246-2.771 2.771v5.559c0 1.525 1.246 2.771 2.771 2.771h5.641zm-16.283 116.723c1.523 0 2.771-1.246 2.771-2.771v-5.559c0-1.525-1.248-2.773-2.771-2.773h-5.641c-1.525 0-2.773 1.248-2.773 2.773v5.559c0 1.525 1.248 2.771 2.773 2.771h5.641zm16.283-.346c1.523 0 2.771-1.248 2.771-2.771v-5.561c0-1.523-1.248-2.771-2.771-2.771h-5.641c-1.525 0-2.771 1.248-2.771 2.771v5.561c0 1.523 1.246 2.771 2.771 2.771h5.641zm-16.631 16.629c1.525 0 2.771-1.246 2.771-2.771v-5.559c0-1.525-1.246-2.771-2.771-2.771h-5.641c-1.523 0-2.771 1.246-2.771 2.771v5.559c0 1.525 1.248 2.771 2.771 2.771h5.641zm16.631 0c1.523 0 2.771-1.246 2.771-2.771v-5.559c0-1.525-1.248-2.771-2.771-2.771h-5.641c-1.525 0-2.771 1.246-2.771 2.771v5.559c0 1.525 1.246 2.771 2.771 2.771h5.641zm50.057-82.705c1.523 0 2.771-1.246 2.771-2.771v-5.559c0-1.525-1.248-2.771-2.771-2.771h-5.479c-1.525 0-2.771 1.246-2.771 2.771v5.559c0 1.525 1.246 2.771 2.771 2.771h5.479zm16.283-.346c1.523 0 2.771-1.248 2.771-2.771v-5.561c0-1.523-1.248-2.771-2.771-2.771h-5.479c-1.525 0-2.771 1.248-2.771 2.771v5.561c0 1.523 1.246 2.771 2.771 2.771h5.479zm-16.631 16.629c1.525 0 2.773-1.246 2.773-2.771v-5.559c0-1.525-1.248-2.771-2.773-2.771h-5.477c-1.525 0-2.773 1.246-2.773 2.771v5.559c0 1.525 1.248 2.771 2.773 2.771h5.477zm16.631 0c1.523 0 2.771-1.246 2.771-2.771v-5.559c0-1.525-1.248-2.771-2.771-2.771h-5.479c-1.525 0-2.771 1.246-2.771 2.771v5.559c0 1.525 1.246 2.771 2.771 2.771h5.479zm-115.998-16.283c1.525 0 2.773-1.246 2.773-2.771v-5.559c0-1.525-1.248-2.771-2.773-2.771h-5.477c-1.525 0-2.771 1.246-2.771 2.771v5.559c0 1.525 1.246 2.771 2.771 2.771h5.477zm16.285-.346c1.523 0 2.771-1.248 2.771-2.771v-5.561c0-1.523-1.248-2.771-2.771-2.771h-5.479c-1.525 0-2.771 1.248-2.771 2.771v5.561c0 1.523 1.246 2.771 2.771 2.771h5.479zm-16.631 16.629c1.525 0 2.771-1.246 2.771-2.771v-5.559c0-1.525-1.246-2.771-2.771-2.771h-5.479c-1.523 0-2.771 1.246-2.771 2.771v5.559c0 1.525 1.248 2.771 2.771 2.771h5.479zm16.631 0c1.523 0 2.771-1.246 2.771-2.771v-5.559c0-1.525-1.248-2.771-2.771-2.771h-5.479c-1.525 0-2.771 1.246-2.771 2.771v5.559c0 1.525 1.246 2.771 2.771 2.771h5.479zm50.301-16.283c1.523 0 2.77-1.246 2.77-2.771v-5.559c0-1.525-1.246-2.771-2.77-2.771h-5.479c-1.525 0-2.771 1.246-2.771 2.771v5.559c0 1.525 1.246 2.771 2.771 2.771h5.479zm16.281-.346c1.525 0 2.773-1.248 2.773-2.771v-5.561c0-1.523-1.248-2.771-2.773-2.771h-5.477c-1.525 0-2.773 1.248-2.773 2.771v5.561c0 1.523 1.248 2.771 2.773 2.771h5.477zm-16.629 16.629c1.525 0 2.771-1.246 2.771-2.771v-5.559c0-1.525-1.246-2.771-2.771-2.771h-5.479c-1.523 0-2.771 1.246-2.771 2.771v5.559c0 1.525 1.248 2.771 2.771 2.771h5.479zm16.629 0c1.525 0 2.773-1.246 2.773-2.771v-5.559c0-1.525-1.248-2.771-2.773-2.771h-5.477c-1.525 0-2.773 1.246-2.773 2.771v5.559c0 1.525 1.248 2.771 2.773 2.771h5.477zm-49.492-16.283c1.523 0 2.771-1.246 2.771-2.771v-5.559c0-1.525-1.248-2.771-2.771-2.771h-5.641c-1.525 0-2.773 1.246-2.773 2.771v5.559c0 1.525 1.248 2.771 2.773 2.771h5.641zm16.283-.346c1.523 0 2.771-1.248 2.771-2.771v-5.561c0-1.523-1.248-2.771-2.771-2.771h-5.641c-1.525 0-2.771 1.248-2.771 2.771v5.561c0 1.523 1.246 2.771 2.771 2.771h5.641zm-16.631 16.629c1.525 0 2.771-1.246 2.771-2.771v-5.559c0-1.525-1.246-2.771-2.771-2.771h-5.641c-1.523 0-2.771 1.246-2.771 2.771v5.559c0 1.525 1.248 2.771 2.771 2.771h5.641zm16.631 0c1.523 0 2.771-1.246 2.771-2.771v-5.559c0-1.525-1.248-2.771-2.771-2.771h-5.641c-1.525 0-2.771 1.246-2.771 2.771v5.559c0 1.525 1.246 2.771 2.771 2.771h5.641zm83.43-16.283c1.523 0 2.771-1.246 2.771-2.771v-5.559c0-1.525-1.248-2.771-2.771-2.771h-5.641c-1.525 0-2.771 1.246-2.771 2.771v5.559c0 1.525 1.246 2.771 2.771 2.771h5.641zm16.283-.346c1.523 0 2.771-1.248 2.771-2.771v-5.561c0-1.523-1.248-2.771-2.771-2.771h-5.641c-1.525 0-2.771 1.248-2.771 2.771v5.561c0 1.523 1.246 2.771 2.771 2.771h5.641zm-16.629 16.629c1.523 0 2.77-1.246 2.77-2.771v-5.559c0-1.525-1.246-2.771-2.77-2.771h-5.643c-1.523 0-2.771 1.246-2.771 2.771v5.559c0 1.525 1.248 2.771 2.771 2.771h5.643zm16.629 0c1.523 0 2.771-1.246 2.771-2.771v-5.559c0-1.525-1.248-2.771-2.771-2.771h-5.641c-1.525 0-2.771 1.246-2.771 2.771v5.559c0 1.525 1.246 2.771 2.771 2.771h5.641zm-182.58-16.283c1.523 0 2.771-1.246 2.771-2.771v-5.559c0-1.525-1.248-2.771-2.771-2.771h-5.641c-1.525 0-2.771 1.246-2.771 2.771v5.559c0 1.525 1.246 2.771 2.771 2.771h5.641zm16.283-.346c1.523 0 2.771-1.248 2.771-2.771v-5.561c0-1.523-1.248-2.771-2.771-2.771h-5.641c-1.525 0-2.771 1.248-2.771 2.771v5.561c0 1.523 1.246 2.771 2.771 2.771h5.641zm-16.631 16.629c1.525 0 2.771-1.246 2.771-2.771v-5.559c0-1.525-1.246-2.771-2.771-2.771h-5.641c-1.523 0-2.771 1.246-2.771 2.771v5.559c0 1.525 1.248 2.771 2.771 2.771h5.641zm16.631 0c1.523 0 2.771-1.246 2.771-2.771v-5.559c0-1.525-1.248-2.771-2.771-2.771h-5.641c-1.525 0-2.771 1.246-2.771 2.771v5.559c0 1.525 1.246 2.771 2.771 2.771h5.641zm116.641 16.887c1.523 0 2.771-1.246 2.771-2.771v-5.479c0-1.523-1.248-2.771-2.771-2.771h-5.479c-1.525 0-2.771 1.248-2.771 2.771v5.479c0 1.525 1.246 2.771 2.771 2.771h5.479zm16.283-.346c1.523 0 2.771-1.248 2.771-2.771v-5.479c0-1.525-1.248-2.771-2.771-2.771h-5.479c-1.525 0-2.771 1.246-2.771 2.771v5.479c0 1.523 1.246 2.771 2.771 2.771h5.479zm-16.631 16.629c1.525 0 2.773-1.246 2.773-2.771v-5.477c0-1.525-1.248-2.773-2.773-2.773h-5.477c-1.525 0-2.773 1.248-2.773 2.773v5.477c0 1.525 1.248 2.771 2.773 2.771h5.477zm16.631 0c1.523 0 2.771-1.246 2.771-2.771v-5.477c0-1.525-1.248-2.773-2.771-2.773h-5.479c-1.525 0-2.771 1.248-2.771 2.773v5.477c0 1.525 1.246 2.771 2.771 2.771h5.479zm-49.412-16.283c1.523 0 2.77-1.246 2.77-2.771v-5.479c0-1.523-1.246-2.771-2.77-2.771h-5.479c-1.525 0-2.771 1.248-2.771 2.771v5.479c0 1.525 1.246 2.771 2.771 2.771h5.479zm16.281-.346c1.525 0 2.773-1.248 2.773-2.771v-5.479c0-1.525-1.248-2.771-2.773-2.771h-5.477c-1.525 0-2.773 1.246-2.773 2.771v5.479c0 1.523 1.248 2.771 2.773 2.771h5.477zm-16.629 16.629c1.525 0 2.771-1.246 2.771-2.771v-5.477c0-1.525-1.246-2.773-2.771-2.773h-5.479c-1.523 0-2.771 1.248-2.771 2.773v5.477c0 1.525 1.248 2.771 2.771 2.771h5.479zm16.629 0c1.525 0 2.773-1.246 2.773-2.771v-5.477c0-1.525-1.248-2.773-2.773-2.773h-5.477c-1.525 0-2.773 1.248-2.773 2.773v5.477c0 1.525 1.248 2.771 2.773 2.771h5.477zm183.144-182.58c1.523 0 2.771-1.246 2.771-2.771V6.586c0-1.523-1.248-2.771-2.771-2.771h-5.479c-1.525 0-2.771 1.248-2.771 2.771v5.479c0 1.525 1.246 2.771 2.771 2.771h5.479zm16.284-.346c1.525 0 2.771-1.248 2.771-2.771V6.24c0-1.525-1.246-2.771-2.771-2.771h-5.479c-1.523 0-2.771 1.246-2.771 2.771v5.479c0 1.523 1.248 2.771 2.771 2.771h5.479zM640.97 31.119c1.523 0 2.771-1.246 2.771-2.771v-5.479c0-1.523-1.248-2.771-2.771-2.771h-5.479c-1.525 0-2.771 1.248-2.771 2.771v5.479c0 1.525 1.246 2.771 2.771 2.771h5.479zm16.629 0c1.525 0 2.771-1.246 2.771-2.771v-5.479c0-1.523-1.246-2.771-2.771-2.771h-5.479c-1.523 0-2.771 1.248-2.771 2.771v5.479c0 1.525 1.248 2.771 2.771 2.771h5.479zm17.089-16.283c1.525 0 2.771-1.246 2.771-2.771V6.586c0-1.523-1.246-2.771-2.771-2.771h-5.641c-1.525 0-2.771 1.248-2.771 2.771v5.479c0 1.525 1.246 2.771 2.771 2.771h5.641zm16.284-.346c1.525 0 2.771-1.248 2.771-2.771V6.24c0-1.525-1.246-2.771-2.771-2.771h-5.641c-1.523 0-2.771 1.246-2.771 2.771v5.479c0 1.523 1.248 2.771 2.771 2.771h5.641zm-16.629 16.629c1.523 0 2.771-1.246 2.771-2.771v-5.479c0-1.523-1.248-2.771-2.771-2.771h-5.641c-1.525 0-2.773 1.248-2.773 2.771v5.479c0 1.525 1.248 2.771 2.773 2.771h5.641zm16.629 0c1.525 0 2.771-1.246 2.771-2.771v-5.479c0-1.523-1.246-2.771-2.771-2.771h-5.641c-1.523 0-2.771 1.248-2.771 2.771v5.479c0 1.525 1.248 2.771 2.771 2.771h5.641zm-82.785 16.969c1.523 0 2.771-1.248 2.771-2.771v-5.561c0-1.523-1.248-2.771-2.771-2.771h-5.479c-1.525 0-2.771 1.248-2.771 2.771v5.561c0 1.523 1.246 2.771 2.771 2.771h5.479zm16.283-.346c1.523 0 2.771-1.248 2.771-2.773V39.41c0-1.525-1.248-2.771-2.771-2.771h-5.479c-1.525 0-2.771 1.246-2.771 2.771v5.559c0 1.525 1.246 2.773 2.771 2.773h5.479zm-16.631 16.629c1.525 0 2.771-1.248 2.771-2.771v-5.561c0-1.523-1.246-2.771-2.771-2.771h-5.479c-1.523 0-2.771 1.248-2.771 2.771V61.6c0 1.523 1.248 2.771 2.771 2.771h5.479zm16.631 0c1.523 0 2.771-1.248 2.771-2.771v-5.561c0-1.523-1.248-2.771-2.771-2.771h-5.479c-1.525 0-2.771 1.248-2.771 2.771V61.6c0 1.523 1.246 2.771 2.771 2.771h5.479zm16.845-16.283c1.523 0 2.771-1.248 2.771-2.771v-5.561c0-1.523-1.248-2.771-2.771-2.771h-5.479c-1.525 0-2.771 1.248-2.771 2.771v5.561c0 1.523 1.246 2.771 2.771 2.771h5.479zm16.284-.346c1.525 0 2.771-1.248 2.771-2.773V39.41c0-1.525-1.246-2.771-2.771-2.771h-5.479c-1.523 0-2.771 1.246-2.771 2.771v5.559c0 1.525 1.248 2.773 2.771 2.773h5.479zM640.97 64.371c1.523 0 2.771-1.248 2.771-2.771v-5.561c0-1.523-1.248-2.771-2.771-2.771h-5.479c-1.525 0-2.771 1.248-2.771 2.771V61.6c0 1.523 1.246 2.771 2.771 2.771h5.479zm16.629 0c1.525 0 2.771-1.248 2.771-2.771v-5.561c0-1.523-1.246-2.771-2.771-2.771h-5.479c-1.523 0-2.771 1.248-2.771 2.771V61.6c0 1.523 1.248 2.771 2.771 2.771h5.479zm17.089-16.283c1.525 0 2.771-1.248 2.771-2.771v-5.561c0-1.523-1.246-2.771-2.771-2.771h-5.641c-1.525 0-2.771 1.248-2.771 2.771v5.561c0 1.523 1.246 2.771 2.771 2.771h5.641zm16.284-.346c1.525 0 2.771-1.248 2.771-2.773V39.41c0-1.525-1.246-2.771-2.771-2.771h-5.641c-1.523 0-2.771 1.246-2.771 2.771v5.559c0 1.525 1.248 2.773 2.771 2.773h5.641zm-16.629 16.629c1.523 0 2.771-1.248 2.771-2.771v-5.561c0-1.523-1.248-2.771-2.771-2.771h-5.641c-1.525 0-2.773 1.248-2.773 2.771V61.6c0 1.523 1.248 2.771 2.773 2.771h5.641zm16.629 0c1.525 0 2.771-1.248 2.771-2.771v-5.561c0-1.523-1.246-2.771-2.771-2.771h-5.641c-1.523 0-2.771 1.248-2.771 2.771V61.6c0 1.523 1.248 2.771 2.771 2.771h5.641zM209.007 81.379c1.525 0 2.771-1.246 2.771-2.771v-5.559c0-1.525-1.246-2.771-2.771-2.771h-5.477c-1.525 0-2.773 1.246-2.773 2.771v5.559c0 1.525 1.248 2.771 2.773 2.771h5.477zm16.283-.346c1.525 0 2.771-1.248 2.771-2.771v-5.559c0-1.525-1.246-2.773-2.771-2.773h-5.479c-1.523 0-2.77 1.248-2.77 2.773v5.559c0 1.523 1.246 2.771 2.77 2.771h5.479zm-16.629 16.629c1.525 0 2.771-1.246 2.771-2.771v-5.559c0-1.525-1.246-2.771-2.771-2.771h-5.479c-1.523 0-2.771 1.246-2.771 2.771v5.559c0 1.525 1.248 2.771 2.771 2.771h5.479zm16.629 0c1.525 0 2.771-1.246 2.771-2.771v-5.559c0-1.525-1.246-2.771-2.771-2.771h-5.479c-1.523 0-2.77 1.246-2.77 2.771v5.559c0 1.525 1.246 2.771 2.77 2.771h5.479zm216.6 17.01c1.523 0 2.77-1.248 2.77-2.771v-5.561c0-1.523-1.246-2.771-2.77-2.771h-5.479c-1.525 0-2.771 1.248-2.771 2.771v5.561c0 1.523 1.246 2.771 2.771 2.771h5.479zm16.281-.348c1.525 0 2.773-1.246 2.773-2.771v-5.559c0-1.525-1.248-2.771-2.773-2.771h-5.477c-1.525 0-2.773 1.246-2.773 2.771v5.559c0 1.525 1.248 2.771 2.773 2.771h5.477zm-16.629 16.631c1.525 0 2.771-1.248 2.771-2.771v-5.561c0-1.523-1.246-2.771-2.771-2.771h-5.479c-1.523 0-2.771 1.248-2.771 2.771v5.561c0 1.523 1.248 2.771 2.771 2.771h5.479zm16.629 0c1.525 0 2.773-1.248 2.773-2.771v-5.561c0-1.523-1.248-2.771-2.773-2.771h-5.477c-1.525 0-2.773 1.248-2.773 2.771v5.561c0 1.523 1.248 2.771 2.773 2.771h5.477zm-49.492 50.178c1.523 0 2.771-1.246 2.771-2.771v-5.479c0-1.523-1.248-2.771-2.771-2.771h-5.641c-1.525 0-2.773 1.248-2.773 2.771v5.479c0 1.525 1.248 2.771 2.773 2.771h5.641zm16.283-.346c1.523 0 2.771-1.248 2.771-2.771v-5.479c0-1.525-1.248-2.771-2.771-2.771h-5.641c-1.525 0-2.771 1.246-2.771 2.771v5.479c0 1.523 1.246 2.771 2.771 2.771h5.641zm-16.631 16.629c1.525 0 2.771-1.246 2.771-2.771v-5.477c0-1.525-1.246-2.773-2.771-2.773h-5.641c-1.523 0-2.771 1.248-2.771 2.773v5.477c0 1.525 1.248 2.771 2.771 2.771h5.641zm16.631 0c1.523 0 2.771-1.246 2.771-2.771v-5.477c0-1.525-1.248-2.773-2.771-2.773h-5.641c-1.525 0-2.771 1.248-2.771 2.773v5.477c0 1.525 1.246 2.771 2.771 2.771h5.641zm-49.658-16.283c1.525 0 2.773-1.246 2.773-2.771v-5.479c0-1.523-1.248-2.771-2.773-2.771h-5.477c-1.525 0-2.771 1.248-2.771 2.771v5.479c0 1.525 1.246 2.771 2.771 2.771h5.477zm16.285-.346c1.523 0 2.771-1.248 2.771-2.771v-5.479c0-1.525-1.248-2.771-2.771-2.771h-5.479c-1.525 0-2.771 1.246-2.771 2.771v5.479c0 1.523 1.246 2.771 2.771 2.771h5.479zm-16.631 16.629c1.525 0 2.771-1.246 2.771-2.771v-5.477c0-1.525-1.246-2.773-2.771-2.773h-5.479c-1.523 0-2.771 1.248-2.771 2.773v5.477c0 1.525 1.248 2.771 2.771 2.771h5.479zm16.631 0c1.523 0 2.771-1.246 2.771-2.771v-5.477c0-1.525-1.248-2.773-2.771-2.773h-5.479c-1.525 0-2.771 1.248-2.771 2.773v5.477c0 1.525 1.246 2.771 2.771 2.771h5.479z"/>
</svg>
