<svg xmlns="http://www.w3.org/2000/svg" viewBox="0 0 888 283">
  <path fill="#262DFF" d="M244.077 189.424c-1.412 0-2.57-1.156-2.57-2.566v-5.154c0-1.412 1.158-2.568 2.57-2.568h5.078c1.412 0 2.568 1.156 2.568 2.568v5.154c0 1.41-1.156 2.566-2.568 2.566h-5.078zm5.078 15.43c1.412 0 2.568-1.156 2.568-2.568v-5.154c0-1.41-1.156-2.566-2.568-2.566h-5.078c-1.412 0-2.57 1.156-2.57 2.566v5.154c0 1.412 1.158 2.568 2.57 2.568h5.078zm15.354 0c1.412 0 2.568-1.156 2.568-2.568v-5.154c0-1.41-1.156-2.566-2.568-2.566h-5.078c-1.412 0-2.568 1.156-2.568 2.566v5.154c0 1.412 1.156 2.568 2.568 2.568h5.078zm15.353 0c1.412 0 2.568-1.156 2.568-2.568v-5.154c0-1.41-1.156-2.566-2.568-2.566h-5.078c-1.412 0-2.568 1.156-2.568 2.566v5.154c0 1.412 1.156 2.568 2.568 2.568h5.078zm15.354 0c1.412 0 2.568-1.156 2.568-2.568v-5.154c0-1.41-1.156-2.566-2.568-2.566h-5.078c-1.412 0-2.568 1.156-2.568 2.566v5.154c0 1.412 1.156 2.568 2.568 2.568h5.078zm-46.061-30.858c1.412 0 2.568-1.156 2.568-2.568v-5.154c0-1.412-1.156-2.568-2.568-2.568h-5.078c-1.412 0-2.57 1.156-2.57 2.568v5.154c0 1.412 1.158 2.568 2.57 2.568h5.078zm0-15.43c1.412 0 2.568-1.156 2.568-2.568v-5.152c0-1.414-1.156-2.57-2.568-2.57h-5.078c-1.412 0-2.57 1.156-2.57 2.57v5.152c0 1.412 1.158 2.568 2.57 2.568h5.078zm-15.355 0c1.414 0 2.57-1.156 2.57-2.568v-5.152c0-1.414-1.156-2.57-2.57-2.57h-5.076c-1.412 0-2.57 1.156-2.57 2.57v5.152c0 1.412 1.158 2.568 2.57 2.568h5.076zm15.355-15.427c1.412 0 2.568-1.156 2.568-2.57v-5.152c0-1.414-1.156-2.57-2.568-2.57h-5.078c-1.412 0-2.57 1.156-2.57 2.57v5.152c0 1.414 1.158 2.57 2.57 2.57h5.078zM430.239 12.291c1.412 0 2.57-1.156 2.57-2.57V4.568c0-1.414-1.158-2.568-2.57-2.568h-5.076c-1.414 0-2.57 1.154-2.57 2.568V9.72c0 1.414 1.156 2.57 2.57 2.57h5.076zm0 15.43c1.412 0 2.57-1.156 2.57-2.57v-5.152c0-1.412-1.158-2.57-2.57-2.57h-5.076c-1.414 0-2.57 1.158-2.57 2.57v5.152c0 1.414 1.156 2.57 2.57 2.57h5.076zm15.354-15.43c1.414 0 2.57-1.156 2.57-2.57V4.568c0-1.414-1.156-2.568-2.57-2.568h-5.076c-1.412 0-2.57 1.154-2.57 2.568V9.72c0 1.414 1.158 2.57 2.57 2.57h5.076zm0 15.43c1.414 0 2.57-1.156 2.57-2.57v-5.152c0-1.412-1.156-2.57-2.57-2.57h-5.076c-1.412 0-2.57 1.158-2.57 2.57v5.152c0 1.414 1.158 2.57 2.57 2.57h5.076zm16.135 0c1.412 0 2.568-1.156 2.568-2.57v-5.152c0-1.412-1.156-2.57-2.568-2.57h-5.078c-1.412 0-2.568 1.158-2.568 2.57v5.152c0 1.414 1.156 2.57 2.568 2.57h5.078zm15.392 15.39c1.412 0 2.568-1.156 2.568-2.568v-5.154c0-1.41-1.156-2.568-2.568-2.568h-5.078c-1.412 0-2.57 1.158-2.57 2.568v5.154c0 1.412 1.158 2.568 2.57 2.568h5.078zm149.164 231.174c1.412 0 2.568-1.156 2.568-2.568v-5.152c0-1.414-1.156-2.57-2.568-2.57h-5.078c-1.412 0-2.568 1.156-2.568 2.57v5.152c0 1.412 1.156 2.568 2.568 2.568h5.078zM610.149 282c1.412 0 2.57-1.156 2.57-2.568v-5.152c0-1.414-1.158-2.57-2.57-2.57h-5.076c-1.414 0-2.57 1.156-2.57 2.57v5.152c0 1.412 1.156 2.568 2.57 2.568h5.076zm41.852-30.857c1.412 0 2.568-1.156 2.568-2.57v-5.152c0-1.414-1.156-2.57-2.568-2.57h-5.078c-1.412 0-2.568 1.156-2.568 2.57v5.152c0 1.414 1.156 2.57 2.568 2.57h5.078zm-18.041 7.714c1.414 0 2.57-1.156 2.57-2.57v-5.152c0-1.414-1.156-2.57-2.57-2.57h-5.076c-1.412 0-2.568 1.156-2.568 2.57v5.152c0 1.414 1.156 2.57 2.568 2.57h5.076zm25.719-23.144c1.412 0 2.568-1.156 2.568-2.57v-5.152c0-1.412-1.156-2.568-2.568-2.568h-5.078c-1.414 0-2.57 1.156-2.57 2.568v5.152c0 1.414 1.156 2.57 2.57 2.57h5.078zM311.173 96.85c1.412 0 2.568-1.156 2.568-2.568v-5.154c0-1.41-1.156-2.566-2.568-2.566h-5.229c-1.414 0-2.57 1.156-2.57 2.566v5.154c0 1.412 1.156 2.568 2.57 2.568h5.229zm122.83-30.858c1.412 0 2.57-1.156 2.57-2.568V58.27c0-1.412-1.158-2.568-2.57-2.568h-5.229c-1.412 0-2.568 1.156-2.568 2.568v5.154c0 1.412 1.156 2.568 2.568 2.568h5.229zm-153.84 61.717c1.412 0 2.57-1.156 2.57-2.57v-5.152c0-1.412-1.158-2.568-2.57-2.568h-5.229c-1.412 0-2.568 1.156-2.568 2.568v5.152c0 1.414 1.156 2.57 2.568 2.57h5.229zM387.942 96.85c1.412 0 2.568-1.156 2.568-2.568v-5.154c0-1.41-1.156-2.566-2.568-2.566h-5.078c-1.412 0-2.568 1.156-2.568 2.566v5.154c0 1.412 1.156 2.568 2.568 2.568h5.078zm15.354 0c1.412 0 2.568-1.156 2.568-2.568v-5.154c0-1.41-1.156-2.566-2.568-2.566h-5.078c-1.412 0-2.568 1.156-2.568 2.566v5.154c0 1.412 1.156 2.568 2.568 2.568h5.078zm-46.063-30.858c1.412 0 2.57-1.156 2.57-2.568V58.27c0-1.412-1.158-2.568-2.57-2.568h-5.078c-1.412 0-2.568 1.156-2.568 2.568v5.154c0 1.412 1.156 2.568 2.568 2.568h5.078zm15.356 0c1.41 0 2.568-1.156 2.568-2.568V58.27c0-1.412-1.158-2.568-2.568-2.568h-5.078c-1.414 0-2.57 1.156-2.57 2.568v5.154c0 1.412 1.156 2.568 2.57 2.568h5.078zm15.353 15.428c1.412 0 2.568-1.156 2.568-2.566V73.7c0-1.412-1.156-2.568-2.568-2.568h-5.078c-1.412 0-2.568 1.156-2.568 2.568v5.154c0 1.41 1.156 2.566 2.568 2.566h5.078zm92.575 123.434c1.412 0 2.568-1.156 2.568-2.568v-5.154c0-1.41-1.156-2.566-2.568-2.566h-5.229c-1.412 0-2.568 1.156-2.568 2.566v5.154c0 1.412 1.156 2.568 2.568 2.568h5.229zm-77.147 0c1.414 0 2.57-1.156 2.57-2.568v-5.154c0-1.41-1.156-2.566-2.57-2.566h-5.229c-1.412 0-2.568 1.156-2.568 2.566v5.154c0 1.412 1.156 2.568 2.568 2.568h5.229zm-15.353 0c1.412 0 2.568-1.156 2.568-2.568v-5.154c0-1.41-1.156-2.566-2.568-2.566h-5.229c-1.412 0-2.568 1.156-2.568 2.566v5.154c0 1.412 1.156 2.568 2.568 2.568h5.229zm45.986 30.859c1.412 0 2.57-1.156 2.57-2.57v-5.152c0-1.412-1.158-2.568-2.57-2.568h-5.229c-1.412 0-2.568 1.156-2.568 2.568v5.152c0 1.414 1.156 2.57 2.568 2.57h5.229zm46.514-108.004c1.412 0 2.568-1.156 2.568-2.57v-5.152c0-1.412-1.156-2.568-2.568-2.568h-5.229c-1.412 0-2.568 1.156-2.568 2.568v5.152c0 1.414 1.156 2.57 2.568 2.57h5.229zm0 15.43c1.412 0 2.568-1.156 2.568-2.57v-5.152c0-1.414-1.156-2.57-2.568-2.57h-5.229c-1.412 0-2.568 1.156-2.568 2.57v5.152c0 1.414 1.156 2.57 2.568 2.57h5.229zm0 15.427c1.412 0 2.568-1.156 2.568-2.568v-5.152c0-1.414-1.156-2.57-2.568-2.57h-5.229c-1.412 0-2.568 1.156-2.568 2.57v5.152c0 1.412 1.156 2.568 2.568 2.568h5.229zm-31.01 77.147c1.414 0 2.57-1.156 2.57-2.57v-5.152c0-1.412-1.156-2.568-2.57-2.568h-5.227c-1.414 0-2.57 1.156-2.57 2.568v5.152c0 1.414 1.156 2.57 2.57 2.57h5.227zm0 23.144c1.414 0 2.57-1.156 2.57-2.57v-5.152c0-1.414-1.156-2.57-2.57-2.57h-5.227c-1.414 0-2.57 1.156-2.57 2.57v5.152c0 1.414 1.156 2.57 2.57 2.57h5.227zm15.506 7.715c1.412 0 2.568-1.158 2.568-2.57v-5.152c0-1.414-1.156-2.57-2.568-2.57h-5.229c-1.414 0-2.57 1.156-2.57 2.57v5.152c0 1.412 1.156 2.57 2.57 2.57h5.229zM449.507 96.85c1.414 0 2.57-1.156 2.57-2.568v-5.154c0-1.41-1.156-2.566-2.57-2.566h-5.227c-1.414 0-2.57 1.156-2.57 2.566v5.154c0 1.412 1.156 2.568 2.57 2.568h5.227zm-143.473 28.289c2.826 0 5.139-2.311 5.139-5.137v-10.307c0-2.826-2.313-5.139-5.139-5.139h-10.457c-2.826 0-5.137 2.313-5.137 5.139v10.307c0 2.826 2.311 5.137 5.137 5.137h10.457zm122.832 92.576c2.824 0 5.137-2.313 5.137-5.139v-10.305c0-2.828-2.313-5.141-5.137-5.141H418.71c-2.826 0-5.139 2.313-5.139 5.141v10.305c0 2.826 2.313 5.139 5.139 5.139h10.156zm-30.709-92.576c2.826 0 5.139-2.311 5.139-5.137v-10.307c0-2.826-2.313-5.139-5.139-5.139h-10.154c-2.828 0-5.139 2.313-5.139 5.139v10.307c0 2.826 2.311 5.137 5.139 5.137h10.154zm30.557 0c2.826 0 5.139-2.311 5.139-5.137v-10.307c0-2.826-2.313-5.139-5.139-5.139H418.56c-2.826 0-5.139 2.313-5.139 5.139v10.307c0 2.826 2.313 5.137 5.139 5.137h10.154zm31.16 30.859c2.826 0 5.139-2.313 5.139-5.139v-10.307c0-2.824-2.313-5.137-5.139-5.137h-10.457c-2.826 0-5.137 2.313-5.137 5.137v10.307c0 2.826 2.311 5.139 5.137 5.139h10.457zm0 30.859c2.826 0 5.139-2.313 5.139-5.141v-10.305c0-2.826-2.313-5.139-5.139-5.139h-10.457c-2.826 0-5.137 2.313-5.137 5.139v10.305c0 2.828 2.311 5.141 5.137 5.141h10.457zm31.008 0c2.828 0 5.139-2.313 5.139-5.141v-10.305c0-2.826-2.311-5.139-5.139-5.139h-10.455c-2.826 0-5.139 2.313-5.139 5.139v10.305c0 2.828 2.313 5.141 5.139 5.141h10.455zm-31.008-61.718c2.826 0 5.139-2.311 5.139-5.137v-10.307c0-2.826-2.313-5.139-5.139-5.139h-10.457c-2.826 0-5.137 2.313-5.137 5.139v10.307c0 2.826 2.311 5.137 5.137 5.137h10.457zm0 92.576c2.826 0 5.139-2.313 5.139-5.139v-10.305c0-2.828-2.313-5.141-5.139-5.141h-10.457c-2.826 0-5.137 2.313-5.137 5.141v10.305c0 2.826 2.311 5.139 5.137 5.139h10.457zm-31.16-123.434c2.826 0 5.139-2.311 5.139-5.139V78.838c0-2.828-2.313-5.139-5.139-5.139H418.56c-2.826 0-5.139 2.311-5.139 5.139v10.305c0 2.828 2.313 5.139 5.139 5.139h10.154zm-91.391 62.373c2.826 0 5.139-2.311 5.139-5.137V141.21c0-2.826-2.313-5.139-5.139-5.139h-10.154c-2.826 0-5.139 2.313-5.139 5.139v10.307c0 2.826 2.313 5.137 5.139 5.137h10.154zm30.188-.64c2.824 0 5.137-2.313 5.137-5.139v-10.307c0-2.826-2.313-5.137-5.137-5.137h-10.156c-2.826 0-5.139 2.311-5.139 5.137v10.307c0 2.826 2.313 5.139 5.139 5.139h10.156zm-30.828 30.828c2.824 0 5.137-2.313 5.137-5.139v-10.307c0-2.826-2.313-5.137-5.137-5.137h-10.156c-2.826 0-5.139 2.311-5.139 5.137v10.307c0 2.826 2.313 5.139 5.139 5.139h10.156zm30.828 0c2.824 0 5.137-2.313 5.137-5.139v-10.307c0-2.826-2.313-5.137-5.137-5.137h-10.156c-2.826 0-5.139 2.311-5.139 5.137v10.307c0 2.826 2.313 5.139 5.139 5.139h10.156zm-91.754-30.188c2.828 0 5.139-2.311 5.139-5.137V141.21c0-2.826-2.311-5.139-5.139-5.139h-10.455c-2.826 0-5.139 2.313-5.139 5.139v10.307c0 2.826 2.313 5.137 5.139 5.137h10.455zm30.187-.64c2.826 0 5.137-2.313 5.137-5.139v-10.307c0-2.826-2.311-5.137-5.137-5.137h-10.457c-2.826 0-5.139 2.311-5.139 5.137v10.307c0 2.826 2.313 5.139 5.139 5.139h10.457zm-30.828 30.828c2.826 0 5.137-2.313 5.137-5.139v-10.307c0-2.826-2.311-5.137-5.137-5.137h-10.457c-2.826 0-5.139 2.311-5.139 5.137v10.307c0 2.826 2.313 5.139 5.139 5.139h10.457zm30.828 0c2.826 0 5.137-2.313 5.137-5.139v-10.307c0-2.826-2.311-5.137-5.137-5.137h-10.457c-2.826 0-5.139 2.311-5.139 5.137v10.307c0 2.826 2.313 5.139 5.139 5.139h10.457zm31.379-91.903c2.826 0 5.139-2.313 5.139-5.139V79.494c0-2.826-2.313-5.137-5.139-5.137h-10.154c-2.826 0-5.139 2.311-5.139 5.137v10.307c0 2.826 2.313 5.139 5.139 5.139h10.154zm30.188-.642c2.824 0 5.137-2.313 5.137-5.139V78.854c0-2.828-2.313-5.141-5.137-5.141h-10.156c-2.826 0-5.139 2.313-5.139 5.141v10.305c0 2.826 2.313 5.139 5.139 5.139h10.156zm-30.828 30.828c2.824 0 5.137-2.313 5.137-5.139v-10.305c0-2.828-2.313-5.141-5.137-5.141h-10.156c-2.826 0-5.139 2.313-5.139 5.141v10.305c0 2.826 2.313 5.139 5.139 5.139h10.156zm30.828 0c2.824 0 5.137-2.313 5.137-5.139v-10.305c0-2.828-2.313-5.141-5.137-5.141h-10.156c-2.826 0-5.139 2.313-5.139 5.141v10.305c0 2.826 2.313 5.139 5.139 5.139h10.156zm31.228 31.529c2.826 0 5.139-2.311 5.139-5.137V141.21c0-2.826-2.313-5.139-5.139-5.139h-10.154c-2.828 0-5.139 2.313-5.139 5.139v10.307c0 2.826 2.311 5.137 5.139 5.137h10.154zm30.186-.64c2.826 0 5.139-2.313 5.139-5.139v-10.307c0-2.826-2.313-5.137-5.139-5.137h-10.154c-2.826 0-5.139 2.311-5.139 5.137v10.307c0 2.826 2.313 5.139 5.139 5.139h10.154zm-30.828 30.828c2.826 0 5.139-2.313 5.139-5.139v-10.307c0-2.826-2.313-5.137-5.139-5.137h-10.154c-2.826 0-5.139 2.311-5.139 5.137v10.307c0 2.826 2.313 5.139 5.139 5.139h10.154zm30.828 0c2.826 0 5.139-2.313 5.139-5.139v-10.307c0-2.826-2.313-5.137-5.139-5.137h-10.154c-2.826 0-5.139 2.311-5.139 5.137v10.307c0 2.826 2.313 5.139 5.139 5.139h10.154z"/>
</svg>
