<svg xmlns="http://www.w3.org/2000/svg" viewBox="0 0 888 283">
  <path fill="#262DFF" d="M481.837 164.74c-.896 0-1.627-.732-1.627-1.629v-3.264c0-.895.73-1.627 1.627-1.627h3.217c.896 0 1.629.732 1.629 1.627v3.264c0 .896-.732 1.629-1.629 1.629h-3.217zm-16.238 19.551c.896 0 1.627-.732 1.627-1.627v-3.266c0-.895-.73-1.627-1.627-1.627h-3.217c-.896 0-1.629.732-1.629 1.627v3.266c0 .895.732 1.627 1.629 1.627h3.217zm0 9.775c.896 0 1.627-.732 1.627-1.627v-3.266c0-.895-.73-1.627-1.627-1.627h-3.217c-.896 0-1.629.732-1.629 1.627v3.266c0 .895.732 1.627 1.629 1.627h3.217zm9.728-9.775c.895 0 1.627-.732 1.627-1.627v-3.266c0-.895-.732-1.627-1.627-1.627h-3.219c-.895 0-1.627.732-1.627 1.627v3.266c0 .895.732 1.627 1.627 1.627h3.219zm-78.205-19.551c.895 0 1.627-.732 1.627-1.629v-3.264c0-.895-.732-1.627-1.627-1.627h-3.219c-.895 0-1.627.732-1.627 1.627v3.264c0 .896.732 1.629 1.627 1.629h3.219zm0 9.776c.895 0 1.627-.732 1.627-1.627v-3.266c0-.895-.732-1.627-1.627-1.627h-3.219c-.895 0-1.627.732-1.627 1.627v3.266c0 .895.732 1.627 1.627 1.627h3.219zm0 9.775c.895 0 1.627-.732 1.627-1.627v-3.266c0-.895-.732-1.627-1.627-1.627h-3.219c-.895 0-1.627.732-1.627 1.627v3.266c0 .895.732 1.627 1.627 1.627h3.219zm0 9.775c.895 0 1.627-.732 1.627-1.627v-3.266c0-.895-.732-1.627-1.627-1.627h-3.219c-.895 0-1.627.732-1.627 1.627v3.266c0 .895.732 1.627 1.627 1.627h3.219zm48.926 9.776c.895 0 1.627-.732 1.627-1.627v-3.266c0-.895-.732-1.627-1.627-1.627h-3.313c-.896 0-1.629.732-1.629 1.627v3.266c0 .895.732 1.627 1.629 1.627h3.313zm-68.383 29.328c.896 0 1.627-.732 1.627-1.629v-3.264c0-.895-.73-1.629-1.627-1.629h-3.313c-.896 0-1.627.734-1.627 1.629v3.264c0 .896.73 1.629 1.627 1.629h3.313zm0-9.775c.896 0 1.627-.732 1.627-1.629v-3.264c0-.895-.73-1.629-1.627-1.629h-3.313c-.896 0-1.627.734-1.627 1.629v3.264c0 .896.73 1.629 1.627 1.629h3.313zm0 29.326c.896 0 1.627-.732 1.627-1.627v-3.266c0-.895-.73-1.627-1.627-1.627h-3.313c-.896 0-1.627.732-1.627 1.627v3.266c0 .895.73 1.627 1.627 1.627h3.313zm0-9.776c.896 0 1.627-.732 1.627-1.627v-3.266c0-.895-.73-1.629-1.627-1.629h-3.313c-.896 0-1.627.734-1.627 1.629v3.266c0 .895.73 1.627 1.627 1.627h3.313zM358.019 57.398c.896 0 1.629-.732 1.629-1.627v-3.266c0-.895-.732-1.627-1.629-1.627h-3.313c-.895 0-1.627.732-1.627 1.627v3.266c0 .895.732 1.627 1.627 1.627h3.313zm0-9.775c.896 0 1.629-.732 1.629-1.627V42.73c0-.896-.732-1.627-1.629-1.627h-3.313c-.895 0-1.627.73-1.627 1.627v3.266c0 .895.732 1.627 1.627 1.627h3.313zm107.58 9.775c.896 0 1.627-.732 1.627-1.627v-3.266c0-.895-.73-1.627-1.627-1.627h-3.217c-.896 0-1.629.732-1.629 1.627v3.266c0 .895.732 1.627 1.629 1.627h3.217zm0-9.775c.896 0 1.627-.732 1.627-1.627V42.73c0-.896-.73-1.627-1.627-1.627h-3.217c-.896 0-1.629.73-1.629 1.627v3.266c0 .895.732 1.627 1.629 1.627h3.217zm38.912 29.326c.895 0 1.627-.73 1.627-1.627v-3.266c0-.895-.732-1.627-1.627-1.627h-3.217c-.896 0-1.629.732-1.629 1.627v3.266c0 .896.732 1.627 1.629 1.627h3.217zm9.726 0c.896 0 1.629-.73 1.629-1.627v-3.266c0-.895-.732-1.627-1.629-1.627h-3.217c-.895 0-1.627.732-1.627 1.627v3.266c0 .896.732 1.627 1.627 1.627h3.217zm9.729 0c.896 0 1.629-.73 1.629-1.627v-3.266c0-.895-.732-1.627-1.629-1.627h-3.217c-.895 0-1.627.732-1.627 1.627v3.266c0 .896.732 1.627 1.627 1.627h3.217zM377.665 18.295c.896 0 1.627-.73 1.627-1.627v-3.264c0-.896-.73-1.629-1.627-1.629h-3.313c-.896 0-1.627.732-1.627 1.629v3.264c0 .896.73 1.627 1.627 1.627h3.313zm0-9.775c.896 0 1.627-.73 1.627-1.627V3.627c0-.895-.73-1.627-1.627-1.627h-3.313c-.896 0-1.627.732-1.627 1.627v3.266c0 .896.73 1.627 1.627 1.627h3.313zm-9.871 9.775c.896 0 1.629-.73 1.629-1.627v-3.264c0-.896-.732-1.629-1.629-1.629h-3.313c-.896 0-1.627.732-1.627 1.629v3.264c0 .896.73 1.627 1.627 1.627h3.313zm-9.775 9.777c.896 0 1.629-.732 1.629-1.629V23.18c0-.896-.732-1.629-1.629-1.629h-3.313c-.895 0-1.627.732-1.627 1.629v3.264c0 .896.732 1.629 1.627 1.629h3.313zm107.675 9.776c.895 0 1.627-.732 1.627-1.629v-3.264c0-.896-.732-1.629-1.627-1.629h-3.313c-.896 0-1.629.732-1.629 1.629v3.264c0 .896.732 1.629 1.629 1.629h3.313zm-58.845-19.553c.896 0 1.629-.73 1.629-1.627v-3.264c0-.896-.732-1.629-1.629-1.629h-3.217c-.895 0-1.627.732-1.627 1.629v3.264c0 .896.732 1.627 1.627 1.627h3.217zm9.728 0c.896 0 1.627-.73 1.627-1.627v-3.264c0-.896-.73-1.629-1.627-1.629h-3.217c-.896 0-1.627.732-1.627 1.629v3.264c0 .896.73 1.627 1.627 1.627h3.217zm9.729 0c.895 0 1.627-.73 1.627-1.627v-3.264c0-.896-.732-1.629-1.627-1.629h-3.217c-.896 0-1.629.732-1.629 1.629v3.264c0 .896.732 1.627 1.629 1.627h3.217zm-38.912 0c.895 0 1.627-.73 1.627-1.627v-3.264c0-.896-.732-1.629-1.627-1.629h-3.217c-.896 0-1.629.732-1.629 1.629v3.264c0 .896.732 1.627 1.629 1.627h3.217zm9.728 0c.895 0 1.627-.73 1.627-1.627v-3.264c0-.896-.732-1.629-1.627-1.629h-3.219c-.895 0-1.627.732-1.627 1.629v3.264c0 .896.732 1.627 1.627 1.627h3.219zm-19.457 107.342c.896 0 1.627-.732 1.627-1.627v-3.266c0-.895-.73-1.627-1.627-1.627h-3.313c-.896 0-1.627.732-1.627 1.627v3.266c0 .895.73 1.627 1.627 1.627h3.313zm126.846 19.552c.895 0 1.627-.734 1.627-1.629v-3.264c0-.896-.732-1.629-1.627-1.629h-3.217c-.896 0-1.629.732-1.629 1.629v3.264c0 .895.732 1.629 1.629 1.629h3.217zm9.726 0c.896 0 1.629-.734 1.629-1.629v-3.264c0-.896-.732-1.629-1.629-1.629h-3.217c-.895 0-1.627.732-1.627 1.629v3.264c0 .895.732 1.629 1.627 1.629h3.217zm9.729-19.552c.896 0 1.629-.732 1.629-1.627v-3.266c0-.895-.732-1.627-1.629-1.627h-3.217c-.895 0-1.627.732-1.627 1.627v3.266c0 .895.732 1.627 1.627 1.627h3.217zm-19.455 29.328c.895 0 1.627-.732 1.627-1.629v-3.264c0-.895-.732-1.629-1.627-1.629h-3.217c-.896 0-1.629.734-1.629 1.629v3.264c0 .896.732 1.629 1.629 1.629h3.217zm-107.389-9.776c.895 0 1.627-.734 1.627-1.629v-3.264c0-.896-.732-1.629-1.627-1.629h-3.219c-.895 0-1.627.732-1.627 1.629v3.264c0 .895.732 1.629 1.627 1.629h3.219zm0 9.776c.895 0 1.627-.732 1.627-1.629v-3.264c0-.895-.732-1.629-1.627-1.629h-3.219c-.895 0-1.627.734-1.627 1.629v3.264c0 .896.732 1.629 1.627 1.629h3.219zm-39.103-68.287c.896 0 1.629-.732 1.629-1.627v-3.217c0-.896-.732-1.629-1.629-1.629h-3.313c-.895 0-1.627.732-1.627 1.629v3.217c0 .895.732 1.627 1.627 1.627h3.313zm-9.825 0c.896 0 1.629-.732 1.629-1.627v-3.217c0-.896-.732-1.629-1.629-1.629h-3.313c-.895 0-1.627.732-1.627 1.629v3.217c0 .895.732 1.627 1.627 1.627h3.313zm9.825 9.728c.896 0 1.629-.732 1.629-1.629V91.56c0-.895-.732-1.627-1.629-1.627h-3.313c-.895 0-1.627.732-1.627 1.627v3.217c0 .896.732 1.629 1.627 1.629h3.313zm165.947 9.729c.896 0 1.629-.734 1.629-1.629v-3.217c0-.895-.732-1.627-1.629-1.627h-3.217c-.895 0-1.627.732-1.627 1.627v3.217c0 .895.732 1.629 1.627 1.629h3.217zm9.728 0c.895 0 1.627-.734 1.627-1.629v-3.217c0-.895-.732-1.627-1.627-1.627h-3.217c-.896 0-1.629.732-1.629 1.627v3.217c0 .895.732 1.629 1.629 1.629h3.217zm-9.728 9.726c.896 0 1.629-.732 1.629-1.629v-3.215c0-.896-.732-1.629-1.629-1.629h-3.217c-.895 0-1.627.732-1.627 1.629v3.215c0 .896.732 1.629 1.627 1.629h3.217zm19.553-29.183c.895 0 1.627-.732 1.627-1.627v-3.217c0-.896-.732-1.629-1.627-1.629h-3.313c-.896 0-1.629.732-1.629 1.629v3.217c0 .895.732 1.627 1.629 1.627h3.313zm0 9.728c.895 0 1.627-.732 1.627-1.629V91.56c0-.895-.732-1.627-1.627-1.627h-3.313c-.896 0-1.629.732-1.629 1.627v3.217c0 .896.732 1.629 1.629 1.629h3.313zm-136.67 146.539c.896 0 1.629-.732 1.629-1.627v-3.266c0-.895-.732-1.629-1.629-1.629h-3.217c-.895 0-1.627.734-1.627 1.629v3.266c0 .895.732 1.627 1.627 1.627h3.217zm9.728 0c.896 0 1.627-.732 1.627-1.627v-3.266c0-.895-.73-1.629-1.627-1.629h-3.217c-.896 0-1.627.734-1.627 1.629v3.266c0 .895.73 1.627 1.627 1.627h3.217zm-9.728 9.776c.896 0 1.629-.732 1.629-1.627v-3.266c0-.895-.732-1.627-1.629-1.627h-3.217c-.895 0-1.627.732-1.627 1.627v3.266c0 .895.732 1.627 1.627 1.627h3.217zm0 9.775c.896 0 1.629-.732 1.629-1.627v-3.266c0-.895-.732-1.627-1.629-1.627h-3.217c-.895 0-1.627.732-1.627 1.627v3.266c0 .895.732 1.627 1.627 1.627h3.217zM377.665 282c.896 0 1.627-.732 1.627-1.627v-3.219c0-.895-.73-1.627-1.627-1.627h-3.313c-.896 0-1.627.732-1.627 1.627v3.219c0 .895.73 1.627 1.627 1.627h3.313zm9.729 0c.895 0 1.627-.732 1.627-1.627v-3.219c0-.895-.732-1.627-1.627-1.627h-3.217c-.896 0-1.629.732-1.629 1.627v3.219c0 .895.732 1.627 1.629 1.627h3.217zm25.927-89.561c1.791 0 3.256-1.465 3.256-3.256v-6.529c0-1.791-1.465-3.256-3.256-3.256h-6.434c-1.791 0-3.256 1.465-3.256 3.256v6.529c0 1.791 1.465 3.256 3.256 3.256h6.434zm0-19.55c1.791 0 3.256-1.465 3.256-3.256v-6.529c0-1.791-1.465-3.256-3.256-3.256h-6.434c-1.791 0-3.256 1.465-3.256 3.256v6.529c0 1.791 1.465 3.256 3.256 3.256h6.434zm19.647 39.101c1.791 0 3.256-1.465 3.256-3.256v-6.529c0-1.791-1.465-3.256-3.256-3.256h-6.625c-1.789 0-3.254 1.465-3.254 3.256v6.529c0 1.791 1.465 3.256 3.254 3.256h6.625zm0 19.551c1.791 0 3.256-1.465 3.256-3.254v-6.531c0-1.789-1.465-3.254-3.256-3.254h-6.625c-1.789 0-3.254 1.465-3.254 3.254v6.531c0 1.789 1.465 3.254 3.254 3.254h6.625zM374.409 75.322c1.791 0 3.256-1.465 3.256-3.256v-6.529c0-1.791-1.465-3.256-3.256-3.256h-6.625c-1.789 0-3.254 1.465-3.254 3.256v6.529c0 1.791 1.465 3.256 3.254 3.256h6.625zm-19.646 0c1.791 0 3.256-1.465 3.256-3.256v-6.529c0-1.791-1.465-3.256-3.256-3.256h-6.625c-1.791 0-3.256 1.465-3.256 3.256v6.529c0 1.791 1.465 3.256 3.256 3.256h6.625zm19.646-19.551c1.791 0 3.256-1.465 3.256-3.256v-6.529c0-1.791-1.465-3.256-3.256-3.256h-6.625c-1.789 0-3.254 1.465-3.254 3.256v6.529c0 1.791 1.465 3.256 3.254 3.256h6.625zm97.662 19.551c1.791 0 3.256-1.465 3.256-3.256v-6.529c0-1.791-1.465-3.256-3.256-3.256h-6.436c-1.789 0-3.254 1.465-3.254 3.256v6.529c0 1.791 1.465 3.256 3.254 3.256h6.436zm19.455 0c1.791 0 3.256-1.465 3.256-3.256v-6.529c0-1.791-1.465-3.256-3.256-3.256h-6.434c-1.791 0-3.256 1.465-3.256 3.256v6.529c0 1.791 1.465 3.256 3.256 3.256h6.434zM374.409 36.219c1.791 0 3.256-1.463 3.256-3.254v-6.531c0-1.789-1.465-3.254-3.256-3.254h-6.625c-1.789 0-3.254 1.465-3.254 3.254v6.531c0 1.791 1.465 3.254 3.254 3.254h6.625zm58.559 0c1.791 0 3.256-1.463 3.256-3.254v-6.531c0-1.789-1.465-3.254-3.256-3.254h-6.625c-1.789 0-3.254 1.465-3.254 3.254v6.531c0 1.791 1.465 3.254 3.254 3.254h6.625zm13.08-1.631c0-.898-.746-1.633-1.656-1.633-.912 0-1.656.734-1.656 1.633 0 .896.744 1.631 1.656 1.631.91 0 1.656-.735 1.656-1.631zm9.822 0c0-.898-.746-1.633-1.656-1.633s-1.656.734-1.656 1.633c0 .896.746 1.631 1.656 1.631s1.656-.735 1.656-1.631zm-62.004 1.631c1.791 0 3.256-1.463 3.256-3.254v-6.531c0-1.789-1.465-3.254-3.256-3.254h-6.434c-1.791 0-3.256 1.465-3.256 3.254v6.531c0 1.791 1.465 3.254 3.256 3.254h6.434zm19.455 0c1.791 0 3.256-1.463 3.256-3.254v-6.531c0-1.789-1.465-3.254-3.256-3.254h-6.434c-1.791 0-3.256 1.465-3.256 3.254v6.531c0 1.791 1.465 3.254 3.256 3.254h6.434zm0 97.566c1.791 0 3.256-1.465 3.256-3.256V124c0-1.791-1.465-3.256-3.256-3.256h-6.434c-1.791 0-3.256 1.465-3.256 3.256v6.529c0 1.791 1.465 3.256 3.256 3.256h6.434zm-19.455 0c1.791 0 3.256-1.465 3.256-3.256V124c0-1.791-1.465-3.256-3.256-3.256h-6.434c-1.791 0-3.256 1.465-3.256 3.256v6.529c0 1.791 1.465 3.256 3.256 3.256h6.434zm19.455 19.551c1.791 0 3.256-1.465 3.256-3.254v-6.531c0-1.789-1.465-3.254-3.256-3.254h-6.434c-1.791 0-3.256 1.465-3.256 3.254v6.531c0 1.789 1.465 3.254 3.256 3.254h6.434zm-38.912-58.559c1.791 0 3.256-1.465 3.256-3.254v-6.436c0-1.791-1.465-3.254-3.256-3.254h-6.625c-1.789 0-3.254 1.463-3.254 3.254v6.436c0 1.789 1.465 3.254 3.254 3.254h6.625zm0 19.457c1.791 0 3.256-1.465 3.256-3.256v-6.434c0-1.791-1.465-3.256-3.256-3.256h-6.625c-1.789 0-3.254 1.465-3.254 3.256v6.434c0 1.791 1.465 3.256 3.254 3.256h6.625zm136.574-19.457c1.789 0 3.254-1.465 3.254-3.254v-6.436c0-1.791-1.465-3.254-3.254-3.254h-6.436c-1.791 0-3.254 1.463-3.254 3.254v6.436c0 1.789 1.463 3.254 3.254 3.254h6.436zm0 19.457c1.789 0 3.254-1.465 3.254-3.256v-6.434c0-1.791-1.465-3.256-3.254-3.256h-6.436c-1.791 0-3.254 1.465-3.254 3.256v6.434c0 1.791 1.463 3.256 3.254 3.256h6.436zm19.455-19.457c1.791 0 3.256-1.465 3.256-3.254V85.09c0-1.791-1.465-3.256-3.256-3.256h-6.434c-1.791 0-3.256 1.465-3.256 3.256v6.434c0 1.789 1.465 3.254 3.256 3.254h6.434zM374.409 270.645c1.791 0 3.256-1.465 3.256-3.256v-6.529c0-1.791-1.465-3.256-3.256-3.256h-6.625c-1.789 0-3.254 1.465-3.254 3.256v6.529c0 1.791 1.465 3.256 3.254 3.256h6.625zm19.457-19.551c1.791 0 3.256-1.465 3.256-3.256v-6.529c0-1.791-1.465-3.256-3.256-3.256h-6.434c-1.791 0-3.256 1.465-3.256 3.256v6.529c0 1.791 1.465 3.256 3.256 3.256h6.434zm0 19.551c1.791 0 3.256-1.465 3.256-3.256v-6.529c0-1.791-1.465-3.256-3.256-3.256h-6.434c-1.791 0-3.256 1.465-3.256 3.256v6.529c0 1.791 1.465 3.256 3.256 3.256h6.434zm78.205-97.756c1.791 0 3.256-1.465 3.256-3.256v-6.529c0-1.791-1.465-3.256-3.256-3.256h-6.436c-1.789 0-3.254 1.465-3.254 3.256v6.529c0 1.791 1.465 3.256 3.254 3.256h6.436zm38.912-39.104c1.789 0 3.254-1.465 3.254-3.256V124c0-1.791-1.465-3.256-3.254-3.256h-6.436c-1.791 0-3.254 1.465-3.254 3.256v6.529c0 1.791 1.463 3.256 3.254 3.256h6.436zm-116.748 78.621c1.791 0 3.254-1.465 3.254-3.254v-6.531c0-1.789-1.463-3.254-3.254-3.254H387.8c-1.789 0-3.254 1.465-3.254 3.254v6.531c0 1.789 1.465 3.254 3.254 3.254h6.435zM413.36 212c1.791 0 3.256-1.465 3.256-3.256v-6.529c0-1.791-1.465-3.256-3.256-3.256h-6.436c-1.789 0-3.254 1.465-3.254 3.256v6.529c0 1.791 1.465 3.256 3.254 3.256h6.436zm-19.533 19.533c1.791 0 3.256-1.465 3.256-3.256v-6.529c0-1.791-1.465-3.256-3.256-3.256h-6.434c-1.791 0-3.256 1.465-3.256 3.256v6.529c0 1.791 1.465 3.256 3.256 3.256h6.434zm19.533 0c1.791 0 3.256-1.465 3.256-3.256v-6.529c0-1.791-1.465-3.256-3.256-3.256h-6.436c-1.789 0-3.254 1.465-3.254 3.256v6.529c0 1.791 1.465 3.256 3.254 3.256h6.436zm59.08-97.332c1.789 0 3.254-1.465 3.254-3.254v-6.531c0-1.789-1.465-3.254-3.254-3.254h-6.436c-1.791 0-3.256 1.465-3.256 3.254v6.531c0 1.789 1.465 3.254 3.256 3.254h6.436zm19.125-.406c1.791 0 3.256-1.465 3.256-3.256v-6.529c0-1.791-1.465-3.256-3.256-3.256h-6.434c-1.791 0-3.256 1.465-3.256 3.256v6.529c0 1.791 1.465 3.256 3.256 3.256h6.434zm-19.533 19.531c1.791 0 3.256-1.465 3.256-3.254v-6.531c0-1.789-1.465-3.254-3.256-3.254h-6.434c-1.791 0-3.256 1.465-3.256 3.254v6.531c0 1.789 1.465 3.254 3.256 3.254h6.434zm19.533 0c1.791 0 3.256-1.465 3.256-3.254v-6.531c0-1.789-1.465-3.254-3.256-3.254h-6.434c-1.791 0-3.256 1.465-3.256 3.254v6.531c0 1.789 1.465 3.254 3.256 3.254h6.434zm-58.132-19.125c1.791 0 3.256-1.465 3.256-3.254v-6.531c0-1.789-1.465-3.254-3.256-3.254h-6.625c-1.791 0-3.256 1.465-3.256 3.254v6.531c0 1.789 1.465 3.254 3.256 3.254h6.625zm19.125-.406c1.791 0 3.256-1.465 3.256-3.256v-6.529c0-1.791-1.465-3.256-3.256-3.256h-6.625c-1.791 0-3.256 1.465-3.256 3.256v6.529c0 1.791 1.465 3.256 3.256 3.256h6.625zm-19.532 19.531c1.789 0 3.254-1.465 3.254-3.254v-6.531c0-1.789-1.465-3.254-3.254-3.254h-6.625c-1.791 0-3.256 1.465-3.256 3.254v6.531c0 1.789 1.465 3.254 3.256 3.254h6.625zm19.532 0c1.791 0 3.256-1.465 3.256-3.254v-6.531c0-1.789-1.465-3.254-3.256-3.254h-6.625c-1.791 0-3.256 1.465-3.256 3.254v6.531c0 1.789 1.465 3.254 3.256 3.254h6.625zm-58.323-58.18c1.791 0 3.254-1.465 3.254-3.254v-6.436c0-1.791-1.463-3.256-3.254-3.256H387.8c-1.789 0-3.254 1.465-3.254 3.256v6.436c0 1.789 1.465 3.254 3.254 3.254h6.435zm19.125-.406c1.791 0 3.256-1.465 3.256-3.256V85.05c0-1.791-1.465-3.256-3.256-3.256h-6.436c-1.789 0-3.254 1.465-3.254 3.256v6.434c0 1.791 1.465 3.256 3.254 3.256h6.436zm-19.533 19.531c1.791 0 3.256-1.465 3.256-3.254v-6.436c0-1.791-1.465-3.256-3.256-3.256h-6.434c-1.791 0-3.256 1.465-3.256 3.256v6.436c0 1.789 1.465 3.254 3.256 3.254h6.434zm19.533 0c1.791 0 3.256-1.465 3.256-3.254v-6.436c0-1.791-1.465-3.256-3.256-3.256h-6.436c-1.789 0-3.254 1.465-3.254 3.256v6.436c0 1.789 1.465 3.254 3.254 3.254h6.436zm20.073-19.125c1.791 0 3.256-1.465 3.256-3.254v-6.436c0-1.791-1.465-3.256-3.256-3.256h-6.625c-1.791 0-3.256 1.465-3.256 3.256v6.436c0 1.789 1.465 3.254 3.256 3.254h6.625zm19.125-.406c1.791 0 3.256-1.465 3.256-3.256V85.05c0-1.791-1.465-3.256-3.256-3.256h-6.625c-1.791 0-3.256 1.465-3.256 3.256v6.434c0 1.791 1.465 3.256 3.256 3.256h6.625zm-19.532 19.531c1.789 0 3.254-1.465 3.254-3.254v-6.436c0-1.791-1.465-3.256-3.254-3.256h-6.625c-1.791 0-3.256 1.465-3.256 3.256v6.436c0 1.789 1.465 3.254 3.256 3.254h6.625zm19.532 0c1.791 0 3.256-1.465 3.256-3.254v-6.436c0-1.791-1.465-3.256-3.256-3.256h-6.625c-1.791 0-3.256 1.465-3.256 3.256v6.436c0 1.789 1.465 3.254 3.256 3.254h6.625zm19.882-19.125c1.789 0 3.254-1.465 3.254-3.254v-6.436c0-1.791-1.465-3.256-3.254-3.256h-6.436c-1.791 0-3.256 1.465-3.256 3.256v6.436c0 1.789 1.465 3.254 3.256 3.254h6.436zm19.125-.406c1.791 0 3.256-1.465 3.256-3.256V85.05c0-1.791-1.465-3.256-3.256-3.256h-6.434c-1.791 0-3.256 1.465-3.256 3.256v6.434c0 1.791 1.465 3.256 3.256 3.256h6.434zm-19.533 19.531c1.791 0 3.256-1.465 3.256-3.254v-6.436c0-1.791-1.465-3.256-3.256-3.256h-6.434c-1.791 0-3.256 1.465-3.256 3.256v6.436c0 1.789 1.465 3.254 3.256 3.254h6.434zm19.533 0c1.791 0 3.256-1.465 3.256-3.254v-6.436c0-1.791-1.465-3.256-3.256-3.256h-6.434c-1.791 0-3.256 1.465-3.256 3.256v6.436c0 1.789 1.465 3.254 3.256 3.254h6.434zm-58.132 59.034c1.791 0 3.256-1.465 3.256-3.256v-6.529c0-1.791-1.465-3.256-3.256-3.256h-6.625c-1.791 0-3.256 1.465-3.256 3.256v6.529c0 1.791 1.465 3.256 3.256 3.256h6.625zm19.125-.409c1.791 0 3.256-1.463 3.256-3.254v-6.531c0-1.789-1.465-3.254-3.256-3.254h-6.625c-1.791 0-3.256 1.465-3.256 3.254v6.531c0 1.791 1.465 3.254 3.256 3.254h6.625zm-19.532 19.534c1.789 0 3.254-1.465 3.254-3.256v-6.529c0-1.791-1.465-3.256-3.254-3.256h-6.625c-1.791 0-3.256 1.465-3.256 3.256v6.529c0 1.791 1.465 3.256 3.256 3.256h6.625zm19.532 0c1.791 0 3.256-1.465 3.256-3.256v-6.529c0-1.791-1.465-3.256-3.256-3.256h-6.625c-1.791 0-3.256 1.465-3.256 3.256v6.529c0 1.791 1.465 3.256 3.256 3.256h6.625zM394.235 56.188c1.791 0 3.254-1.465 3.254-3.256v-6.529c0-1.791-1.463-3.256-3.254-3.256H387.8c-1.789 0-3.254 1.465-3.254 3.256v6.529c0 1.791 1.465 3.256 3.254 3.256h6.435zm19.125-.407c1.791 0 3.256-1.465 3.256-3.256v-6.529c0-1.791-1.465-3.256-3.256-3.256h-6.436c-1.789 0-3.254 1.465-3.254 3.256v6.529c0 1.791 1.465 3.256 3.254 3.256h6.436zm-19.533 19.532c1.791 0 3.256-1.465 3.256-3.256v-6.529c0-1.791-1.465-3.256-3.256-3.256h-6.434c-1.791 0-3.256 1.465-3.256 3.256v6.529c0 1.791 1.465 3.256 3.256 3.256h6.434zm19.533 0c1.791 0 3.256-1.465 3.256-3.256v-6.529c0-1.791-1.465-3.256-3.256-3.256h-6.436c-1.789 0-3.254 1.465-3.254 3.256v6.529c0 1.791 1.465 3.256 3.254 3.256h6.436zm20.073-19.125c1.791 0 3.256-1.465 3.256-3.256v-6.529c0-1.791-1.465-3.256-3.256-3.256h-6.625c-1.791 0-3.256 1.465-3.256 3.256v6.529c0 1.791 1.465 3.256 3.256 3.256h6.625zm19.125-.407c1.791 0 3.256-1.465 3.256-3.256v-6.529c0-1.791-1.465-3.256-3.256-3.256h-6.625c-1.791 0-3.256 1.465-3.256 3.256v6.529c0 1.791 1.465 3.256 3.256 3.256h6.625zm-19.532 19.532c1.789 0 3.254-1.465 3.254-3.256v-6.529c0-1.791-1.465-3.256-3.254-3.256h-6.625c-1.791 0-3.256 1.465-3.256 3.256v6.529c0 1.791 1.465 3.256 3.256 3.256h6.625zm19.532 0c1.791 0 3.256-1.465 3.256-3.256v-6.529c0-1.791-1.465-3.256-3.256-3.256h-6.625c-1.791 0-3.256 1.465-3.256 3.256v6.529c0 1.791 1.465 3.256 3.256 3.256h6.625z"/>
</svg>
