<svg xmlns="http://www.w3.org/2000/svg" viewBox="0 0 888 283">
  <path fill="#262DFF" d="M375.821 231.82c-.766 0-1.393-.627-1.393-1.391v-2.795c0-.766.627-1.393 1.393-1.393h2.752c.766 0 1.393.627 1.393 1.393v2.795c0 .764-.627 1.391-1.393 1.391h-2.752zm2.752 8.364c.766 0 1.393-.627 1.393-1.393v-2.793c0-.766-.627-1.393-1.393-1.393h-2.752c-.766 0-1.393.627-1.393 1.393v2.793c0 .766.627 1.393 1.393 1.393h2.752zm8.323 0c.766 0 1.393-.627 1.393-1.393v-2.793c0-.766-.627-1.393-1.393-1.393h-2.752c-.766 0-1.393.627-1.393 1.393v2.793c0 .766.627 1.393 1.393 1.393h2.752zm8.322 0c.766 0 1.393-.627 1.393-1.393v-2.793c0-.766-.627-1.393-1.393-1.393h-2.752c-.766 0-1.393.627-1.393 1.393v2.793c0 .766.627 1.393 1.393 1.393h2.752zm8.322 0c.766 0 1.393-.627 1.393-1.393v-2.793c0-.766-.627-1.393-1.393-1.393h-2.752c-.766 0-1.393.627-1.393 1.393v2.793c0 .766.627 1.393 1.393 1.393h2.752zm-24.967-16.727c.766 0 1.393-.625 1.393-1.391v-2.795c0-.766-.627-1.393-1.393-1.393h-2.752c-.766 0-1.393.627-1.393 1.393v2.795c0 .766.627 1.391 1.393 1.391h2.752zm0-8.363c.766 0 1.393-.625 1.393-1.391v-2.795c0-.766-.627-1.393-1.393-1.393h-2.752c-.766 0-1.393.627-1.393 1.393v2.795c0 .766.627 1.391 1.393 1.391h2.752zm-8.322 0c.766 0 1.393-.625 1.393-1.391v-2.795c0-.766-.627-1.393-1.393-1.393h-2.752c-.766 0-1.393.627-1.393 1.393v2.795c0 .766.627 1.391 1.393 1.391h2.752zm8.322-8.364c.766 0 1.393-.625 1.393-1.391v-2.793c0-.766-.627-1.395-1.393-1.395h-2.752c-.766 0-1.393.629-1.393 1.395v2.793c0 .766.627 1.391 1.393 1.391h2.752zm-4.162-80.751c.766 0 1.393-.627 1.393-1.393v-2.793c0-.766-.627-1.395-1.393-1.395h-2.752c-.766 0-1.393.629-1.393 1.395v2.793c0 .766.627 1.393 1.393 1.393h2.752zm-8.322 0c.766 0 1.393-.627 1.393-1.393v-2.793c0-.766-.627-1.395-1.393-1.395h-2.752c-.766 0-1.393.629-1.393 1.395v2.793c0 .766.627 1.393 1.393 1.393h2.752zm-50.18-19.444c.766 0 1.395-.625 1.395-1.391v-2.793c0-.768-.629-1.395-1.395-1.395h-2.752c-.766 0-1.393.627-1.393 1.395v2.793c0 .766.627 1.391 1.393 1.391h2.752zm8.324 8.363c.766 0 1.393-.625 1.393-1.391v-2.793c0-.768-.627-1.395-1.393-1.395h-2.754c-.766 0-1.391.627-1.391 1.395v2.793c0 .766.625 1.391 1.391 1.391h2.754zm4.243 8.364c.766 0 1.393-.625 1.393-1.391v-2.795c0-.766-.627-1.393-1.393-1.393h-2.752c-.766 0-1.393.627-1.393 1.393v2.795c0 .766.627 1.391 1.393 1.391h2.752zm70.084-9.078c.766 0 1.393-.625 1.393-1.391V110c0-.766-.627-1.395-1.393-1.395h-2.752c-.766 0-1.393.629-1.393 1.395v2.793c0 .766.627 1.391 1.393 1.391h2.752zm0 8.363c.766 0 1.393-.625 1.393-1.391v-2.793c0-.766-.627-1.395-1.393-1.395h-2.752c-.766 0-1.393.629-1.393 1.395v2.793c0 .766.627 1.391 1.393 1.391h2.752zm-.082-67.861c.766 0 1.393-.627 1.393-1.393V50.5c0-.766-.627-1.393-1.393-1.393h-2.752c-.766 0-1.393.627-1.393 1.393v2.793c0 .766.627 1.393 1.393 1.393h2.752zm4.162 8.363c.766 0 1.391-.627 1.391-1.393v-2.793c0-.766-.625-1.393-1.391-1.393h-2.754c-.766 0-1.393.627-1.393 1.393v2.793c0 .766.627 1.393 1.393 1.393h2.754zm-8.325 67.861c.766 0 1.393-.625 1.393-1.391v-2.793c0-.766-.627-1.395-1.393-1.395h-2.752c-.766 0-1.393.629-1.393 1.395v2.793c0 .766.627 1.391 1.393 1.391h2.752zm74.09 4.897c.766 0 1.393-.627 1.393-1.393v-2.793c0-.766-.627-1.393-1.393-1.393h-2.752c-.766 0-1.393.627-1.393 1.393v2.793c0 .766.627 1.393 1.393 1.393h2.752zm8.324 0c.766 0 1.391-.627 1.391-1.393v-2.793c0-.766-.625-1.393-1.391-1.393h-2.754c-.766 0-1.393.627-1.393 1.393v2.793c0 .766.627 1.393 1.393 1.393h2.754zm0 8.363c.766 0 1.391-.627 1.391-1.393v-2.793c0-.766-.625-1.393-1.391-1.393h-2.754c-.766 0-1.393.627-1.393 1.393v2.793c0 .766.627 1.393 1.393 1.393h2.754zm8.321-8.363c.766 0 1.395-.627 1.395-1.393v-2.793c0-.766-.629-1.393-1.395-1.393h-2.752c-.766 0-1.393.627-1.393 1.393v2.793c0 .766.627 1.393 1.393 1.393h2.752zm0 8.363c.766 0 1.395-.627 1.395-1.393v-2.793c0-.766-.629-1.393-1.395-1.393h-2.752c-.766 0-1.393.627-1.393 1.393v2.793c0 .766.627 1.393 1.393 1.393h2.752zm8.746 0c.766 0 1.393-.627 1.393-1.393v-2.793c0-.766-.627-1.393-1.393-1.393h-2.752c-.766 0-1.393.627-1.393 1.393v2.793c0 .766.627 1.393 1.393 1.393h2.752zm8.344 8.344c.766 0 1.393-.627 1.393-1.393v-2.793c0-.766-.627-1.395-1.393-1.395h-2.754c-.766 0-1.391.629-1.391 1.395v2.793c0 .766.625 1.393 1.391 1.393h2.754zm-33.735-8.344c.766 0 1.393-.627 1.393-1.393v-2.793c0-.766-.627-1.393-1.393-1.393h-2.752c-.766 0-1.393.627-1.393 1.393v2.793c0 .766.627 1.393 1.393 1.393h2.752zm-8.402-12.545c.766 0 1.391-.625 1.391-1.391v-2.795c0-.766-.625-1.393-1.391-1.393h-2.754c-.766 0-1.393.627-1.393 1.393v2.795c0 .766.627 1.391 1.393 1.391h2.754zm-8.324-4.18c.766 0 1.395-.629 1.395-1.395v-2.793c0-.766-.629-1.393-1.395-1.393h-2.752c-.766 0-1.393.627-1.393 1.393v2.793c0 .766.627 1.395 1.393 1.395h2.752zm131.312 150.373c.766 0 1.395-.627 1.395-1.393v-2.793c0-.766-.629-1.393-1.395-1.393h-2.752c-.766 0-1.393.627-1.393 1.393v2.793c0 .766.627 1.393 1.393 1.393h2.752zM574.247 282c.766 0 1.393-.627 1.393-1.393v-2.793c0-.766-.627-1.393-1.393-1.393h-2.752c-.766 0-1.393.627-1.393 1.393v2.793c0 .766.627 1.393 1.393 1.393h2.752zm22.686-16.727c.766 0 1.391-.627 1.391-1.393v-2.793c0-.766-.625-1.393-1.391-1.393h-2.754c-.766 0-1.393.627-1.393 1.393v2.793c0 .766.627 1.393 1.393 1.393h2.754zm-9.78 4.182c.766 0 1.393-.627 1.393-1.393v-2.793c0-.766-.627-1.393-1.393-1.393h-2.752c-.766 0-1.393.627-1.393 1.393v2.793c0 .766.627 1.393 1.393 1.393h2.752zm13.94-12.545c.766 0 1.393-.627 1.393-1.393v-2.793c0-.766-.627-1.393-1.393-1.393h-2.752c-.766 0-1.393.627-1.393 1.393v2.793c0 .766.627 1.393 1.393 1.393h2.752zM336.839 131.625c.766 0 1.393-.625 1.393-1.391v-2.795c0-.766-.627-1.393-1.393-1.393h-2.752c-.766 0-1.393.627-1.393 1.393v2.795c0 .766.627 1.391 1.393 1.391h2.752zm29.25 15.297c.766 0 1.393-.625 1.393-1.391v-2.793c0-.766-.627-1.395-1.393-1.395h-2.752c-.766 0-1.393.629-1.393 1.395v2.793c0 .766.627 1.391 1.393 1.391h2.752zm-8.281 0c.766 0 1.393-.625 1.393-1.391v-2.793c0-.766-.627-1.395-1.393-1.395h-2.752c-.766 0-1.393.629-1.393 1.395v2.793c0 .766.627 1.391 1.393 1.391h2.752zm-8.364-4.18c.766 0 1.393-.629 1.393-1.395v-2.793c0-.766-.627-1.391-1.393-1.391h-2.752c-.766 0-1.393.625-1.393 1.391v2.793c0 .766.627 1.395 1.393 1.395h2.752zm33.289-41.853c.766 0 1.395-.627 1.395-1.393v-2.793c0-.766-.629-1.393-1.395-1.393h-2.752c-.766 0-1.393.627-1.393 1.393v2.793c0 .766.627 1.393 1.393 1.393h2.752zm-8.322 0c.766 0 1.393-.627 1.393-1.393v-2.793c0-.766-.627-1.393-1.393-1.393h-2.752c-.766 0-1.393.627-1.393 1.393v2.793c0 .766.627 1.393 1.393 1.393h2.752zm37.777 80.752c.766 0 1.393-.625 1.393-1.391v-2.793c0-.766-.627-1.395-1.393-1.395h-2.834c-.766 0-1.393.629-1.393 1.395v2.793c0 .766.627 1.391 1.393 1.391h2.834zm66.581-16.727c.766 0 1.393-.625 1.393-1.391v-2.793c0-.766-.627-1.395-1.393-1.395h-2.834c-.766 0-1.393.629-1.393 1.395v2.793c0 .766.627 1.391 1.393 1.391h2.834zm-83.387 33.453c.766 0 1.393-.625 1.393-1.391v-2.793c0-.766-.627-1.395-1.393-1.395h-2.834c-.766 0-1.393.629-1.393 1.395v2.793c0 .766.627 1.391 1.393 1.391h2.834zm58.42-16.726c.766 0 1.393-.625 1.393-1.391v-2.793c0-.766-.627-1.395-1.393-1.395h-2.752c-.766 0-1.395.629-1.395 1.395v2.793c0 .766.629 1.391 1.395 1.391h2.752zm8.322 0c.766 0 1.393-.625 1.393-1.391v-2.793c0-.766-.627-1.395-1.393-1.395h-2.754c-.766 0-1.391.629-1.391 1.395v2.793c0 .766.625 1.391 1.391 1.391h2.754zm-24.969-16.727c.766 0 1.395-.625 1.395-1.391v-2.793c0-.766-.629-1.395-1.395-1.395h-2.752c-.766 0-1.393.629-1.393 1.395v2.793c0 .766.627 1.391 1.393 1.391h2.752zm8.324 0c.766 0 1.391-.625 1.391-1.391v-2.793c0-.766-.625-1.395-1.391-1.395h-2.754c-.766 0-1.393.629-1.393 1.395v2.793c0 .766.627 1.391 1.393 1.391h2.754zm8.323 8.363c.766 0 1.393-.625 1.393-1.391v-2.793c0-.766-.627-1.395-1.393-1.395h-2.752c-.766 0-1.395.629-1.395 1.395v2.793c0 .766.629 1.391 1.395 1.391h2.752zM320.071 73.082c.766 0 1.393-.625 1.393-1.391v-2.793c0-.768-.627-1.395-1.393-1.395h-2.834c-.766 0-1.393.627-1.393 1.395v2.793c0 .766.627 1.391 1.393 1.391h2.834zm0 8.363c.766 0 1.393-.625 1.393-1.391v-2.793c0-.768-.627-1.395-1.393-1.395h-2.834c-.766 0-1.393.627-1.393 1.395v2.793c0 .766.627 1.391 1.393 1.391h2.834zm16.809-8.363c.766 0 1.393-.625 1.393-1.391v-2.793c0-.768-.627-1.395-1.393-1.395h-2.834c-.766 0-1.393.627-1.393 1.395v2.793c0 .766.627 1.391 1.393 1.391h2.834zm8.404 0c.766 0 1.393-.625 1.393-1.391v-2.793c0-.768-.627-1.395-1.393-1.395h-2.834c-.766 0-1.393.627-1.393 1.395v2.793c0 .766.627 1.391 1.393 1.391h2.834zm8.403-8.363c.766 0 1.395-.625 1.395-1.391v-2.793c0-.768-.629-1.395-1.395-1.395h-2.832c-.766 0-1.395.627-1.395 1.395v2.793c0 .766.629 1.391 1.395 1.391h2.832zm-16.807-25.09c.766 0 1.393-.625 1.393-1.391v-2.793c0-.766-.627-1.395-1.393-1.395h-2.834c-.766 0-1.393.629-1.393 1.395v2.793c0 .766.627 1.391 1.393 1.391h2.834zm0 8.363c.766 0 1.393-.625 1.393-1.391v-2.793c0-.766-.627-1.395-1.393-1.395h-2.834c-.766 0-1.393.629-1.393 1.395v2.793c0 .766.627 1.391 1.393 1.391h2.834zm8.404-8.363c.766 0 1.393-.625 1.393-1.391v-2.793c0-.766-.627-1.395-1.393-1.395h-2.834c-.766 0-1.393.629-1.393 1.395v2.793c0 .766.627 1.391 1.393 1.391h2.834zm-50.262 0c.766 0 1.393-.625 1.393-1.391v-2.793c0-.766-.627-1.395-1.393-1.395h-2.834c-.766 0-1.393.629-1.393 1.395v2.793c0 .766.627 1.391 1.393 1.391h2.834zm8.405 16.726c.766 0 1.393-.625 1.393-1.391v-2.793c0-.768-.627-1.395-1.393-1.395h-2.834c-.766 0-1.393.627-1.393 1.395v2.793c0 .766.627 1.391 1.393 1.391h2.834zm8.322 0c.766 0 1.393-.625 1.393-1.391v-2.793c0-.768-.627-1.395-1.393-1.395h-2.834c-.766 0-1.393.627-1.393 1.395v2.793c0 .766.627 1.391 1.393 1.391h2.834zm192.23 183.829c.766 0 1.393-.627 1.393-1.393v-2.793c0-.766-.627-1.393-1.393-1.393h-2.832c-.766 0-1.395.627-1.395 1.393v2.793c0 .766.629 1.393 1.395 1.393h2.832zm-41.814 0c.766 0 1.393-.627 1.393-1.393v-2.793c0-.766-.627-1.393-1.393-1.393h-2.834c-.766 0-1.393.627-1.393 1.393v2.793c0 .766.627 1.393 1.393 1.393h2.834zm-8.322 0c.766 0 1.391-.627 1.391-1.393v-2.793c0-.766-.625-1.393-1.391-1.393h-2.836c-.766 0-1.391.627-1.391 1.393v2.793c0 .766.625 1.393 1.391 1.393h2.836zm24.926 16.726c.766 0 1.393-.627 1.393-1.393v-2.793c0-.766-.627-1.393-1.393-1.393h-2.834c-.766 0-1.393.627-1.393 1.393v2.793c0 .766.627 1.393 1.393 1.393h2.834zm25.21-58.543c.766 0 1.393-.625 1.393-1.391v-2.793c0-.766-.627-1.395-1.393-1.395h-2.832c-.766 0-1.395.629-1.395 1.395v2.793c0 .766.629 1.391 1.395 1.391h2.832zm0 8.363c.766 0 1.393-.625 1.393-1.391v-2.793c0-.766-.627-1.395-1.393-1.395h-2.832c-.766 0-1.395.629-1.395 1.395v2.793c0 .766.629 1.391 1.395 1.391h2.832zm0 8.364c.766 0 1.393-.625 1.393-1.391v-2.795c0-.766-.627-1.393-1.393-1.393h-2.832c-.766 0-1.395.627-1.395 1.393v2.795c0 .766.629 1.391 1.395 1.391h2.832zm-16.806 41.816c.766 0 1.393-.627 1.393-1.393v-2.793c0-.766-.627-1.393-1.393-1.393h-2.834c-.766 0-1.393.627-1.393 1.393v2.793c0 .766.627 1.393 1.393 1.393h2.834zm0 12.545c.766 0 1.393-.627 1.393-1.393v-2.793c0-.766-.627-1.393-1.393-1.393h-2.834c-.766 0-1.393.627-1.393 1.393v2.793c0 .766.627 1.393 1.393 1.393h2.834zm8.404 4.182c.766 0 1.391-.627 1.391-1.393v-2.793c0-.766-.625-1.393-1.391-1.393h-2.834c-.766 0-1.393.627-1.393 1.393v2.793c0 .766.627 1.393 1.393 1.393h2.834zm-8.404-91.996c.766 0 1.393-.625 1.393-1.391v-2.793c0-.766-.627-1.395-1.393-1.395h-2.834c-.766 0-1.393.629-1.393 1.395v2.793c0 .766.627 1.391 1.393 1.391h2.834zm-123.828-65.418c1.533 0 2.785-1.254 2.785-2.785v-5.586c0-1.531-1.252-2.785-2.785-2.785h-5.504c-1.533 0-2.785 1.254-2.785 2.785v5.586c0 1.531 1.252 2.785 2.785 2.785h5.504zm16.603 0c1.533 0 2.785-1.254 2.785-2.785v-5.586c0-1.531-1.252-2.785-2.785-2.785h-5.504c-1.531 0-2.785 1.254-2.785 2.785v5.586c0 1.531 1.254 2.785 2.785 2.785h5.504zm29.455 80.754c1.533 0 2.785-1.254 2.785-2.785v-5.586c0-1.533-1.252-2.785-2.785-2.785h-5.668c-1.531 0-2.783 1.252-2.783 2.785v5.586c0 1.531 1.252 2.785 2.783 2.785h5.668zm66.58 50.177c1.531 0 2.785-1.252 2.785-2.785v-5.586c0-1.531-1.254-2.785-2.785-2.785h-5.504c-1.533 0-2.785 1.254-2.785 2.785v5.586c0 1.533 1.252 2.785 2.785 2.785h5.504zm-16.644-50.177c1.531 0 2.785-1.254 2.785-2.785v-5.586c0-1.533-1.254-2.785-2.785-2.785h-5.506c-1.531 0-2.783 1.252-2.783 2.785v5.586c0 1.531 1.252 2.785 2.783 2.785h5.506zm16.562 0c1.531 0 2.785-1.254 2.785-2.785v-5.586c0-1.533-1.254-2.785-2.785-2.785h-5.504c-1.533 0-2.785 1.252-2.785 2.785v5.586c0 1.531 1.252 2.785 2.785 2.785h5.504zM325.69 63.328c1.531 0 2.785-1.254 2.785-2.785v-5.586c0-1.533-1.254-2.785-2.785-2.785h-5.668c-1.531 0-2.785 1.252-2.785 2.785v5.586c0 1.531 1.254 2.785 2.785 2.785h5.668zm0-16.726c1.531 0 2.785-1.254 2.785-2.785V38.23c0-1.533-1.254-2.785-2.785-2.785h-5.668c-1.531 0-2.785 1.252-2.785 2.785v5.586c0 1.531 1.254 2.785 2.785 2.785h5.668zm16.809 16.726c1.531 0 2.785-1.254 2.785-2.785v-5.586c0-1.533-1.254-2.785-2.785-2.785h-5.668c-1.533 0-2.785 1.252-2.785 2.785v5.586c0 1.531 1.252 2.785 2.785 2.785h5.668zm-33.617-16.726c1.533 0 2.785-1.254 2.785-2.785V38.23c0-1.533-1.252-2.785-2.785-2.785h-5.504c-1.531 0-2.785 1.252-2.785 2.785v5.586c0 1.531 1.254 2.785 2.785 2.785h5.504zm183.91 167.101c1.531 0 2.785-1.254 2.785-2.785v-5.588c0-1.531-1.254-2.783-2.785-2.783h-5.668c-1.533 0-2.785 1.252-2.785 2.783v5.588c0 1.531 1.252 2.785 2.785 2.785h5.668zm0 16.727c1.531 0 2.785-1.254 2.785-2.785v-5.588c0-1.531-1.254-2.785-2.785-2.785h-5.668c-1.533 0-2.785 1.254-2.785 2.785v5.588c0 1.531 1.252 2.785 2.785 2.785h5.668zm16.807 0c1.533 0 2.785-1.254 2.785-2.785v-5.588c0-1.531-1.252-2.785-2.785-2.785h-5.668c-1.531 0-2.783 1.254-2.783 2.785v5.588c0 1.531 1.252 2.785 2.783 2.785h5.668zm-16.807-33.453c1.531 0 2.785-1.254 2.785-2.785v-5.586c0-1.533-1.254-2.785-2.785-2.785h-5.668c-1.533 0-2.785 1.252-2.785 2.785v5.586c0 1.531 1.252 2.785 2.785 2.785h5.668zm0 50.177c1.531 0 2.785-1.252 2.785-2.785v-5.586c0-1.531-1.254-2.785-2.785-2.785h-5.668c-1.533 0-2.785 1.254-2.785 2.785v5.586c0 1.533 1.252 2.785 2.785 2.785h5.668zm-16.891-66.904c1.531 0 2.785-1.254 2.785-2.785v-5.586c0-1.533-1.254-2.785-2.785-2.785h-5.504c-1.533 0-2.785 1.252-2.785 2.785v5.586c0 1.531 1.252 2.785 2.785 2.785h5.504zm-49.537 33.809c1.531 0 2.785-1.254 2.785-2.785v-5.586c0-1.531-1.254-2.785-2.785-2.785h-5.504c-1.533 0-2.785 1.254-2.785 2.785v5.586c0 1.531 1.252 2.785 2.785 2.785h5.504zm16.362-.348c1.533 0 2.785-1.254 2.785-2.785v-5.586c0-1.533-1.252-2.785-2.785-2.785h-5.504c-1.531 0-2.785 1.252-2.785 2.785v5.586c0 1.531 1.254 2.785 2.785 2.785h5.504zm-16.709 16.709c1.531 0 2.785-1.252 2.785-2.785v-5.586c0-1.533-1.254-2.785-2.785-2.785h-5.506c-1.531 0-2.785 1.252-2.785 2.785v5.586c0 1.533 1.254 2.785 2.785 2.785h5.506zm16.709 0c1.533 0 2.785-1.252 2.785-2.785v-5.586c0-1.533-1.252-2.785-2.785-2.785h-5.504c-1.531 0-2.785 1.252-2.785 2.785v5.586c0 1.533 1.254 2.785 2.785 2.785h5.504zm-49.733-16.361c1.531 0 2.785-1.254 2.785-2.785v-5.586c0-1.531-1.254-2.785-2.785-2.785h-5.668c-1.531 0-2.785 1.254-2.785 2.785v5.586c0 1.531 1.254 2.785 2.785 2.785h5.668zm16.361-.348c1.533 0 2.785-1.254 2.785-2.785v-5.586c0-1.533-1.252-2.785-2.785-2.785h-5.668c-1.531 0-2.785 1.252-2.785 2.785v5.586c0 1.531 1.254 2.785 2.785 2.785h5.668zm-16.708 16.709c1.531 0 2.785-1.252 2.785-2.785v-5.586c0-1.533-1.254-2.785-2.785-2.785h-5.668c-1.533 0-2.785 1.252-2.785 2.785v5.586c0 1.533 1.252 2.785 2.785 2.785h5.668zm16.708 0c1.533 0 2.785-1.252 2.785-2.785v-5.586c0-1.533-1.252-2.785-2.785-2.785h-5.668c-1.531 0-2.785 1.252-2.785 2.785v5.586c0 1.533 1.254 2.785 2.785 2.785h5.668zm17.01-49.815c1.531 0 2.785-1.254 2.785-2.785v-5.586c0-1.531-1.254-2.785-2.785-2.785h-5.504c-1.533 0-2.785 1.254-2.785 2.785v5.586c0 1.531 1.252 2.785 2.785 2.785h5.504zm16.362-.347c1.533 0 2.785-1.254 2.785-2.785v-5.586c0-1.533-1.252-2.785-2.785-2.785h-5.504c-1.531 0-2.785 1.252-2.785 2.785v5.586c0 1.531 1.254 2.785 2.785 2.785h5.504zm-16.709 16.709c1.531 0 2.785-1.252 2.785-2.783v-5.588c0-1.531-1.254-2.785-2.785-2.785h-5.506c-1.531 0-2.785 1.254-2.785 2.785v5.588c0 1.531 1.254 2.783 2.785 2.783h5.506zm16.709 0c1.533 0 2.785-1.252 2.785-2.783v-5.588c0-1.531-1.252-2.785-2.785-2.785h-5.504c-1.531 0-2.785 1.254-2.785 2.785v5.588c0 1.531 1.254 2.783 2.785 2.783h5.504zm16.927 17.092c1.533 0 2.785-1.254 2.785-2.785v-5.586c0-1.531-1.252-2.785-2.785-2.785h-5.504c-1.531 0-2.785 1.254-2.785 2.785v5.586c0 1.531 1.254 2.785 2.785 2.785h5.504zm16.364-.348c1.531 0 2.785-1.254 2.785-2.785v-5.586c0-1.533-1.254-2.785-2.785-2.785h-5.506c-1.531 0-2.785 1.252-2.785 2.785v5.586c0 1.531 1.254 2.785 2.785 2.785h5.506zm-16.711 16.709c1.533 0 2.785-1.252 2.785-2.785v-5.586c0-1.533-1.252-2.785-2.785-2.785h-5.504c-1.533 0-2.785 1.252-2.785 2.785v5.586c0 1.533 1.252 2.785 2.785 2.785h5.504zm16.711 0c1.531 0 2.785-1.252 2.785-2.785v-5.586c0-1.533-1.254-2.785-2.785-2.785h-5.506c-1.531 0-2.785 1.252-2.785 2.785v5.586c0 1.533 1.254 2.785 2.785 2.785h5.506zM325.739 29.867c1.531 0 2.785-1.254 2.785-2.785v-5.586c0-1.533-1.254-2.785-2.785-2.785h-5.668c-1.531 0-2.785 1.252-2.785 2.785v5.586c0 1.531 1.254 2.785 2.785 2.785h5.668zm-16.824-16.711c1.531 0 2.785-1.254 2.785-2.785V4.785c0-1.531-1.254-2.785-2.785-2.785h-5.504c-1.533 0-2.785 1.254-2.785 2.785v5.586c0 1.531 1.252 2.785 2.785 2.785h5.504zm-16.709 16.711c1.531 0 2.783-1.254 2.783-2.785v-5.586c0-1.533-1.252-2.785-2.783-2.785H286.7c-1.531 0-2.785 1.252-2.785 2.785v5.586c0 1.531 1.254 2.785 2.785 2.785h5.506zm16.709 0c1.531 0 2.785-1.254 2.785-2.785v-5.586c0-1.533-1.254-2.785-2.785-2.785h-5.504c-1.533 0-2.785 1.252-2.785 2.785v5.586c0 1.531 1.252 2.785 2.785 2.785h5.504z"/>
</svg>
