<svg xmlns="http://www.w3.org/2000/svg" viewBox="0 0 888 283">
  <path fill="#262DFF" d="M430.013 254.656c-1.252 0-2.277-1.025-2.277-2.277v-4.564c0-1.252 1.025-2.277 2.277-2.277h4.633c1.252 0 2.275 1.025 2.275 2.277v4.564c0 1.252-1.023 2.277-2.275 2.277h-4.633zm32.109-27.343c1.252 0 2.277-1.025 2.277-2.277v-4.564c0-1.252-1.025-2.277-2.277-2.277h-4.633c-1.252 0-2.275 1.025-2.275 2.277v4.564c0 1.252 1.023 2.277 2.275 2.277h4.633zm-123.113-54.688c1.252 0 2.277-1.025 2.277-2.277v-4.564c0-1.252-1.025-2.277-2.277-2.277h-4.633c-1.252 0-2.275 1.025-2.275 2.277v4.564c0 1.252 1.023 2.277 2.275 2.277h4.633zm0 13.672c1.252 0 2.277-1.025 2.277-2.277v-4.564c0-1.252-1.025-2.277-2.277-2.277h-4.633c-1.252 0-2.275 1.025-2.275 2.277v4.564c0 1.252 1.023 2.277 2.275 2.277h4.633zm0-40.949c1.252 0 2.277-1.025 2.277-2.275v-4.566c0-1.252-1.025-2.277-2.277-2.277h-4.633c-1.252 0-2.275 1.025-2.275 2.277v4.566c0 1.25 1.023 2.275 2.275 2.275h4.633zm0 13.672c1.252 0 2.277-1.025 2.277-2.275v-4.566c0-1.252-1.025-2.277-2.277-2.277h-4.633c-1.252 0-2.275 1.025-2.275 2.277v4.566c0 1.25 1.023 2.275 2.275 2.275h4.633zm27.476 95.636c1.252 0 2.277-1.025 2.277-2.277v-4.564c0-1.252-1.025-2.277-2.277-2.277h-4.633c-1.252 0-2.275 1.025-2.275 2.277v4.564c0 1.252 1.023 2.277 2.275 2.277h4.633zm122.981-82.031c1.252 0 2.277-1.025 2.277-2.277v-4.564c0-1.252-1.025-2.277-2.277-2.277h-4.498c-1.252 0-2.277 1.025-2.277 2.277v4.564c0 1.252 1.025 2.277 2.277 2.277h4.498zM380.091 282c1.252 0 2.277-1.025 2.277-2.277v-4.564c0-1.252-1.025-2.277-2.277-2.277h-4.498c-1.252 0-2.277 1.025-2.277 2.277v4.564c0 1.252 1.025 2.277 2.277 2.277h4.498zm13.605 0c1.252 0 2.277-1.025 2.277-2.277v-4.564c0-1.252-1.025-2.277-2.277-2.277h-4.5c-1.252 0-2.275 1.025-2.275 2.277v4.564c0 1.252 1.023 2.277 2.275 2.277h4.5zm13.606 0c1.252 0 2.275-1.025 2.275-2.277v-4.564c0-1.252-1.023-2.277-2.275-2.277h-4.5c-1.252 0-2.275 1.025-2.275 2.277v4.564c0 1.252 1.023 2.277 2.275 2.277h4.5zm36.529-43.293c2.504 0 4.553-2.047 4.553-4.553v-9.131c0-2.504-2.049-4.553-4.553-4.553h-9.266c-2.504 0-4.553 2.049-4.553 4.553v9.131c0 2.506 2.049 4.553 4.553 4.553h9.266zm-81.898 0c2.504 0 4.553-2.047 4.553-4.553v-9.131c0-2.504-2.049-4.553-4.553-4.553h-9.266c-2.504 0-4.553 2.049-4.553 4.553v9.131c0 2.506 2.049 4.553 4.553 4.553h9.266zm0-54.687c2.504 0 4.553-2.047 4.553-4.553v-9.131c0-2.504-2.049-4.553-4.553-4.553h-9.266c-2.504 0-4.553 2.049-4.553 4.553v9.131c0 2.506 2.049 4.553 4.553 4.553h9.266zm0 27.343c2.504 0 4.553-2.047 4.553-4.553v-9.131c0-2.504-2.049-4.553-4.553-4.553h-9.266c-2.504 0-4.553 2.049-4.553 4.553v9.131c0 2.506 2.049 4.553 4.553 4.553h9.266zm201.197-35.31c2.504 0 4.553-2.049 4.553-4.553v-9.133c0-2.504-2.049-4.553-4.553-4.553h-8.998c-2.506 0-4.555 2.049-4.555 4.553v9.133c0 2.504 2.049 4.553 4.555 4.553h8.998zm-13.606 27.343c2.504 0 4.553-2.049 4.553-4.553v-9.133c0-2.504-2.049-4.553-4.553-4.553h-8.998c-2.504 0-4.553 2.049-4.553 4.553v9.133c0 2.504 2.049 4.553 4.553 4.553h8.998zm-51.005-46.72c2.504 0 4.553-2.047 4.553-4.553v-8.998c0-2.504-2.049-4.553-4.553-4.553h-9c-2.504 0-4.551 2.049-4.551 4.553v8.998c0 2.506 2.047 4.553 4.551 4.553h9zm0-27.209c2.504 0 4.553-2.049 4.553-4.553v-9c0-2.504-2.049-4.553-4.553-4.553h-9c-2.504 0-4.551 2.049-4.551 4.553v9c0 2.504 2.047 4.553 4.551 4.553h9zm-136.586 27.209c2.504 0 4.553-2.047 4.553-4.553v-8.998c0-2.504-2.049-4.553-4.553-4.553h-9.266c-2.504 0-4.553 2.049-4.553 4.553v8.998c0 2.506 2.049 4.553 4.553 4.553h9.266zm0-27.209c2.504 0 4.553-2.049 4.553-4.553v-9c0-2.504-2.049-4.553-4.553-4.553h-9.266c-2.504 0-4.553 2.049-4.553 4.553v9c0 2.504 2.049 4.553 4.553 4.553h9.266zm27.726 109.824c2.504 0 4.553-2.049 4.553-4.553v-9.133c0-2.504-2.049-4.553-4.553-4.553h-8.998c-2.506 0-4.553 2.049-4.553 4.553v9.133c0 2.504 2.047 4.553 4.553 4.553h8.998zm26.748-.57c2.504 0 4.553-2.049 4.553-4.553v-9.133c0-2.504-2.049-4.553-4.553-4.553h-8.998c-2.506 0-4.555 2.049-4.555 4.553v9.133c0 2.504 2.049 4.553 4.555 4.553h8.998zm-27.316 27.318c2.504 0 4.553-2.049 4.553-4.553v-9.133c0-2.504-2.049-4.553-4.553-4.553h-9c-2.504 0-4.553 2.049-4.553 4.553v9.133c0 2.504 2.049 4.553 4.553 4.553h9zm27.316 0c2.504 0 4.553-2.049 4.553-4.553v-9.133c0-2.504-2.049-4.553-4.553-4.553h-8.998c-2.506 0-4.555 2.049-4.555 4.553v9.133c0 2.504 2.049 4.553 4.555 4.553h8.998zm-26.748-81.435c2.504 0 4.553-2.049 4.553-4.553v-9.133c0-2.504-2.049-4.553-4.553-4.553h-8.998c-2.506 0-4.553 2.049-4.553 4.553v9.133c0 2.504 2.047 4.553 4.553 4.553h8.998zm26.748-.571c2.504 0 4.553-2.049 4.553-4.553v-9.133c0-2.504-2.049-4.553-4.553-4.553h-8.998c-2.506 0-4.555 2.049-4.555 4.553v9.133c0 2.504 2.049 4.553 4.555 4.553h8.998zm-27.316 27.319c2.504 0 4.553-2.049 4.553-4.553v-9.133c0-2.504-2.049-4.553-4.553-4.553h-9c-2.504 0-4.553 2.049-4.553 4.553v9.133c0 2.504 2.049 4.553 4.553 4.553h9zm27.316 0c2.504 0 4.553-2.049 4.553-4.553v-9.133c0-2.504-2.049-4.553-4.553-4.553h-8.998c-2.506 0-4.555 2.049-4.555 4.553v9.133c0 2.504 2.049 4.553 4.555 4.553h8.998zm28.072-26.748c2.506 0 4.555-2.049 4.555-4.553v-9.133c0-2.504-2.049-4.553-4.555-4.553h-9.266c-2.504 0-4.553 2.049-4.553 4.553v9.133c0 2.504 2.049 4.553 4.553 4.553h9.266zm26.749-.571c2.506 0 4.553-2.049 4.553-4.553v-9.133c0-2.504-2.047-4.553-4.553-4.553h-9.266c-2.504 0-4.553 2.049-4.553 4.553v9.133c0 2.504 2.049 4.553 4.553 4.553h9.266zm-27.317 27.319c2.504 0 4.553-2.049 4.553-4.553v-9.133c0-2.504-2.049-4.553-4.553-4.553h-9.266c-2.504 0-4.553 2.049-4.553 4.553v9.133c0 2.504 2.049 4.553 4.553 4.553h9.266zm27.317 0c2.506 0 4.553-2.049 4.553-4.553v-9.133c0-2.504-2.047-4.553-4.553-4.553h-9.266c-2.504 0-4.553 2.049-4.553 4.553v9.133c0 2.504 2.049 4.553 4.553 4.553h9.266zM389.659 75.494c2.504 0 4.553-2.049 4.553-4.553v-9.133c0-2.504-2.049-4.553-4.553-4.553h-8.998c-2.506 0-4.553 2.049-4.553 4.553v9.133c0 2.504 2.047 4.553 4.553 4.553h8.998zm26.748-.568c2.504 0 4.553-2.049 4.553-4.553V61.24c0-2.504-2.049-4.553-4.553-4.553h-8.998c-2.506 0-4.555 2.049-4.555 4.553v9.133c0 2.504 2.049 4.553 4.555 4.553h8.998zm-27.316 27.316c2.504 0 4.553-2.049 4.553-4.553v-9.133c0-2.504-2.049-4.553-4.553-4.553h-9c-2.504 0-4.553 2.049-4.553 4.553v9.133c0 2.504 2.049 4.553 4.553 4.553h9zm27.316 0c2.504 0 4.553-2.049 4.553-4.553v-9.133c0-2.504-2.049-4.553-4.553-4.553h-8.998c-2.506 0-4.555 2.049-4.555 4.553v9.133c0 2.504 2.049 4.553 4.555 4.553h8.998zm28.072-26.748c2.506 0 4.555-2.049 4.555-4.553v-9.133c0-2.504-2.049-4.553-4.555-4.553h-9.266c-2.504 0-4.553 2.049-4.553 4.553v9.133c0 2.504 2.049 4.553 4.553 4.553h9.266zm-.568 26.748c2.504 0 4.553-2.049 4.553-4.553v-9.133c0-2.504-2.049-4.553-4.553-4.553h-9.266c-2.504 0-4.553 2.049-4.553 4.553v9.133c0 2.504 2.049 4.553 4.553 4.553h9.266zm27.317 0c2.506 0 4.553-2.049 4.553-4.553v-9.133c0-2.504-2.047-4.553-4.553-4.553h-9.266c-2.504 0-4.553 2.049-4.553 4.553v9.133c0 2.504 2.049 4.553 4.553 4.553h9.266zM361.853 74.926c2.506 0 4.553-2.049 4.553-4.553V61.24c0-2.504-2.047-4.553-4.553-4.553h-9.266c-2.504 0-4.553 2.049-4.553 4.553v9.133c0 2.504 2.049 4.553 4.553 4.553h9.266zm-27.317 27.316c2.504 0 4.553-2.049 4.553-4.553v-9.133c0-2.504-2.049-4.553-4.553-4.553h-9.266c-2.504 0-4.553 2.049-4.553 4.553v9.133c0 2.504 2.049 4.553 4.553 4.553h9.266zm27.317 0c2.506 0 4.553-2.049 4.553-4.553v-9.133c0-2.504-2.047-4.553-4.553-4.553h-9.266c-2.504 0-4.553 2.049-4.553 4.553v9.133c0 2.504 2.049 4.553 4.553 4.553h9.266zm82.058-54.687c2.504 0 4.553-2.049 4.553-4.553v-9.133c0-2.504-2.049-4.553-4.553-4.553h-9.266c-2.504 0-4.553 2.049-4.553 4.553v9.133c0 2.504 2.049 4.553 4.553 4.553h9.266zm-82.058 0c2.506 0 4.553-2.049 4.553-4.553v-9.133c0-2.504-2.047-4.553-4.553-4.553h-9.266c-2.504 0-4.553 2.049-4.553 4.553v9.133c0 2.504 2.049 4.553 4.553 4.553h9.266zm82.626 82.427c2.506 0 4.555-2.049 4.555-4.553v-9c0-2.504-2.049-4.553-4.555-4.553h-9.266c-2.504 0-4.553 2.049-4.553 4.553v9c0 2.504 2.049 4.553 4.553 4.553h9.266zm26.749-.568c2.506 0 4.553-2.049 4.553-4.555v-8.998c0-2.504-2.047-4.553-4.553-4.553h-9.266c-2.504 0-4.553 2.049-4.553 4.553v8.998c0 2.506 2.049 4.555 4.553 4.555h9.266zm-27.317 27.316c2.504 0 4.553-2.049 4.553-4.553v-9c0-2.504-2.049-4.553-4.553-4.553h-9.266c-2.504 0-4.553 2.049-4.553 4.553v9c0 2.504 2.049 4.553 4.553 4.553h9.266zm27.317 0c2.506 0 4.553-2.049 4.553-4.553v-9c0-2.504-2.047-4.553-4.553-4.553h-9.266c-2.504 0-4.553 2.049-4.553 4.553v9c0 2.504 2.049 4.553 4.553 4.553h9.266zm-81.569-26.748c2.504 0 4.553-2.049 4.553-4.553v-9c0-2.504-2.049-4.553-4.553-4.553h-8.998c-2.506 0-4.553 2.049-4.553 4.553v9c0 2.504 2.047 4.553 4.553 4.553h8.998zm26.748-.568c2.504 0 4.553-2.049 4.553-4.555v-8.998c0-2.504-2.049-4.553-4.553-4.553h-8.998c-2.506 0-4.555 2.049-4.555 4.553v8.998c0 2.506 2.049 4.555 4.555 4.555h8.998zm-27.316 27.316c2.504 0 4.553-2.049 4.553-4.553v-9c0-2.504-2.049-4.553-4.553-4.553h-9c-2.504 0-4.553 2.049-4.553 4.553v9c0 2.504 2.049 4.553 4.553 4.553h9zm27.316 0c2.504 0 4.553-2.049 4.553-4.553v-9c0-2.504-2.049-4.553-4.553-4.553h-8.998c-2.506 0-4.555 2.049-4.555 4.553v9c0 2.504 2.049 4.553 4.555 4.553h8.998zM389.659 20.807c2.504 0 4.553-2.049 4.553-4.553V7.121c0-2.504-2.049-4.553-4.553-4.553h-8.998c-2.506 0-4.553 2.049-4.553 4.553v9.133c0 2.504 2.047 4.553 4.553 4.553h8.998zm26.748-.569c2.504 0 4.553-2.049 4.553-4.553V6.553c0-2.504-2.049-4.553-4.553-4.553h-8.998c-2.506 0-4.555 2.049-4.555 4.553v9.133c0 2.504 2.049 4.553 4.555 4.553h8.998zm-27.316 27.317c2.504 0 4.553-2.049 4.553-4.553v-9.133c0-2.504-2.049-4.553-4.553-4.553h-9c-2.504 0-4.553 2.049-4.553 4.553v9.133c0 2.504 2.049 4.553 4.553 4.553h9zm27.316 0c2.504 0 4.553-2.049 4.553-4.553v-9.133c0-2.504-2.049-4.553-4.553-4.553h-8.998c-2.506 0-4.555 2.049-4.555 4.553v9.133c0 2.504 2.049 4.553 4.555 4.553h8.998z"/>
</svg>
