<svg xmlns="http://www.w3.org/2000/svg" viewBox="0 0 888 283">
  <path fill="#262DFF" d="M401.36 194.436c-1.068 0-1.945-.875-1.945-1.945v-3.898c0-1.07.877-1.945 1.945-1.945h3.842c1.068 0 1.943.875 1.943 1.945v3.898c0 1.07-.875 1.945-1.943 1.945h-3.842zm108.92 23.349c1.07 0 1.945-.873 1.945-1.943v-3.9c0-1.068-.875-1.943-1.945-1.943h-3.842c-1.068 0-1.943.875-1.943 1.943v3.9c0 1.07.875 1.943 1.943 1.943h3.842zm0 11.676c1.07 0 1.945-.875 1.945-1.943v-3.9c0-1.07-.875-1.943-1.945-1.943h-3.842c-1.068 0-1.943.873-1.943 1.943v3.9c0 1.068.875 1.943 1.943 1.943h3.842zm11.619-11.676c1.068 0 1.943-.873 1.943-1.943v-3.9c0-1.068-.875-1.943-1.943-1.943h-3.842c-1.068 0-1.945.875-1.945 1.943v3.9c0 1.07.877 1.943 1.945 1.943h3.842zm-46.701 35.026c1.068 0 1.943-.873 1.943-1.943v-3.9c0-1.068-.875-1.943-1.943-1.943h-3.957c-1.068 0-1.943.875-1.943 1.943v3.9c0 1.07.875 1.943 1.943 1.943h3.957zm0-11.676c1.068 0 1.943-.873 1.943-1.943v-3.898c0-1.07-.875-1.943-1.943-1.943h-3.957c-1.068 0-1.943.873-1.943 1.943v3.898c0 1.07.875 1.943 1.943 1.943h3.957zm11.733 23.351c1.068 0 1.943-.875 1.943-1.943v-3.9c0-1.07-.875-1.943-1.943-1.943h-3.957c-1.068 0-1.943.873-1.943 1.943v3.9c0 1.068.875 1.943 1.943 1.943h3.957zm0 11.676c1.068 0 1.943-.875 1.943-1.943v-3.9c0-1.07-.875-1.943-1.943-1.943h-3.957c-1.068 0-1.943.873-1.943 1.943v3.9c0 1.068.875 1.943 1.943 1.943h3.957zM504.528 282c1.07 0 1.945-.873 1.945-1.943v-3.9c0-1.068-.875-1.943-1.945-1.943h-3.955c-1.07 0-1.945.875-1.945 1.943v3.9c0 1.07.875 1.943 1.945 1.943h3.955zm-5.865-17.514c1.068 0 1.943-.875 1.943-1.943v-3.9c0-1.07-.875-1.943-1.943-1.943h-3.957c-1.068 0-1.943.873-1.943 1.943v3.9c0 1.068.875 1.943 1.943 1.943h3.957zm-3.889-36.968c2.139 0 3.889-1.75 3.889-3.889v-7.799c0-2.139-1.75-3.889-3.889-3.889h-7.912c-2.139 0-3.889 1.75-3.889 3.889v7.799c0 2.139 1.75 3.889 3.889 3.889h7.912zm0 23.349c2.139 0 3.889-1.748 3.889-3.889v-7.797c0-2.141-1.75-3.889-3.889-3.889h-7.912c-2.139 0-3.889 1.748-3.889 3.889v7.797c0 2.141 1.75 3.889 3.889 3.889h7.912zm-23.464-23.349c2.139 0 3.889-1.75 3.889-3.889v-7.799c0-2.139-1.75-3.889-3.889-3.889h-7.912c-2.139 0-3.889 1.75-3.889 3.889v7.799c0 2.139 1.75 3.889 3.889 3.889h7.912zm-23.465-46.704c2.139 0 3.889-1.75 3.889-3.887v-7.801c0-2.137-1.75-3.887-3.889-3.887h-7.686c-2.137 0-3.887 1.75-3.887 3.887v7.801c0 2.137 1.75 3.887 3.887 3.887h7.686zm0 23.352c2.139 0 3.889-1.75 3.889-3.889v-7.799c0-2.139-1.75-3.887-3.889-3.887h-7.686c-2.137 0-3.887 1.748-3.887 3.887v7.799c0 2.139 1.75 3.889 3.887 3.889h7.686zm-23.237-23.352c2.139 0 3.887-1.75 3.887-3.887v-7.801c0-2.137-1.748-3.887-3.887-3.887h-7.686c-2.139 0-3.889 1.75-3.889 3.887v7.801c0 2.137 1.75 3.887 3.889 3.887h7.686zm-23.238 0c2.141 0 3.889-1.75 3.889-3.887v-7.801c0-2.137-1.748-3.887-3.889-3.887h-7.912c-2.139 0-3.889 1.75-3.889 3.887v7.801c0 2.137 1.75 3.887 3.889 3.887h7.912zm-.066-139.867c2.137 0 3.887-1.748 3.887-3.887v-7.799c0-2.139-1.75-3.889-3.887-3.889h-7.914c-2.139 0-3.887 1.75-3.887 3.889v7.799c0 2.139 1.748 3.887 3.887 3.887h7.914zm-23.328 23.328c2.137 0 3.887-1.748 3.887-3.887V52.59c0-2.139-1.75-3.889-3.887-3.889h-7.914c-2.139 0-3.887 1.75-3.887 3.889v7.799c0 2.139 1.748 3.887 3.887 3.887h7.914zm23.328 0c2.137 0 3.887-1.748 3.887-3.887V52.59c0-2.139-1.75-3.889-3.887-3.889h-7.914c-2.139 0-3.887 1.75-3.887 3.889v7.799c0 2.139 1.748 3.887 3.887 3.887h7.914zm23.746-22.839c2.137 0 3.887-1.75 3.887-3.889v-7.799c0-2.139-1.75-3.889-3.887-3.889h-7.686c-2.139 0-3.889 1.75-3.889 3.889v7.799c0 2.139 1.75 3.889 3.889 3.889h7.686zm22.84-.489c2.141 0 3.889-1.748 3.889-3.887v-7.799c0-2.139-1.748-3.889-3.889-3.889h-7.684c-2.139 0-3.889 1.75-3.889 3.889v7.799c0 2.139 1.75 3.887 3.889 3.887h7.684zm-23.328 23.328c2.141 0 3.889-1.748 3.889-3.887V52.59c0-2.139-1.748-3.889-3.889-3.889h-7.684c-2.139 0-3.889 1.75-3.889 3.889v7.799c0 2.139 1.75 3.887 3.889 3.887h7.684zm23.328 0c2.141 0 3.889-1.748 3.889-3.887V52.59c0-2.139-1.748-3.889-3.889-3.889h-7.684c-2.139 0-3.889 1.75-3.889 3.889v7.799c0 2.139 1.75 3.887 3.889 3.887h7.684zm23.974-22.839c2.139 0 3.889-1.75 3.889-3.889v-7.799c0-2.139-1.75-3.889-3.889-3.889h-7.912c-2.139 0-3.889 1.75-3.889 3.889v7.799c0 2.139 1.75 3.889 3.889 3.889h7.912zm22.842-.489c2.139 0 3.889-1.748 3.889-3.887v-7.799c0-2.139-1.75-3.889-3.889-3.889h-7.912c-2.139 0-3.889 1.75-3.889 3.889v7.799c0 2.139 1.75 3.887 3.889 3.887h7.912zm-23.328 23.328c2.139 0 3.889-1.748 3.889-3.887V52.59c0-2.139-1.75-3.889-3.889-3.889h-7.912c-2.139 0-3.889 1.75-3.889 3.889v7.799c0 2.139 1.75 3.887 3.889 3.887h7.912zm23.328 0c2.139 0 3.889-1.748 3.889-3.887V52.59c0-2.139-1.75-3.889-3.889-3.889h-7.912c-2.139 0-3.889 1.75-3.889 3.889v7.799c0 2.139 1.75 3.887 3.889 3.887h7.912zm23.746-22.839c2.139 0 3.889-1.75 3.889-3.889v-7.799c0-2.139-1.75-3.889-3.889-3.889h-7.686c-2.139 0-3.887 1.75-3.887 3.889v7.799c0 2.139 1.748 3.889 3.887 3.889h7.686zm22.842-.489c2.139 0 3.889-1.748 3.889-3.887v-7.799c0-2.139-1.75-3.889-3.889-3.889h-7.686c-2.137 0-3.887 1.75-3.887 3.889v7.799c0 2.139 1.75 3.887 3.887 3.887h7.686zm-23.328 23.328c2.139 0 3.889-1.748 3.889-3.887V52.59c0-2.139-1.75-3.889-3.889-3.889h-7.686c-2.137 0-3.887 1.75-3.887 3.889v7.799c0 2.139 1.75 3.887 3.887 3.887h7.686zm-186.807 0c2.139 0 3.889-1.748 3.889-3.887V52.59c0-2.139-1.75-3.889-3.889-3.889h-7.686c-2.139 0-3.887 1.75-3.887 3.889v7.799c0 2.139 1.748 3.887 3.887 3.887h7.686zm23.328 0c2.139 0 3.889-1.748 3.889-3.887V52.59c0-2.139-1.75-3.889-3.889-3.889h-7.686c-2.139 0-3.887 1.75-3.887 3.889v7.799c0 2.139 1.748 3.887 3.887 3.887h7.686zm70.075-46.699c2.141 0 3.889-1.75 3.889-3.891V5.889c0-2.141-1.748-3.889-3.889-3.889h-7.684c-2.139 0-3.889 1.748-3.889 3.889v7.797c0 2.141 1.75 3.891 3.889 3.891h7.684zm23.328 0c2.141 0 3.889-1.75 3.889-3.891V5.889c0-2.141-1.748-3.889-3.889-3.889h-7.684c-2.139 0-3.889 1.748-3.889 3.889v7.797c0 2.141 1.75 3.891 3.889 3.891h7.684zm23.974 163.737c2.139 0 3.889-1.75 3.889-3.889v-7.799c0-2.139-1.75-3.889-3.889-3.889h-7.912c-2.139 0-3.889 1.75-3.889 3.889v7.799c0 2.139 1.75 3.889 3.889 3.889h7.912zm22.842-.487c2.139 0 3.889-1.75 3.889-3.887v-7.801c0-2.137-1.75-3.887-3.889-3.887h-7.912c-2.139 0-3.889 1.75-3.889 3.887v7.801c0 2.137 1.75 3.887 3.889 3.887h7.912zm-23.328 23.328c2.139 0 3.889-1.75 3.889-3.887v-7.801c0-2.137-1.75-3.887-3.889-3.887h-7.912c-2.139 0-3.889 1.75-3.889 3.887v7.801c0 2.137 1.75 3.887 3.889 3.887h7.912zm23.328 0c2.139 0 3.889-1.75 3.889-3.887v-7.801c0-2.137-1.75-3.887-3.889-3.887h-7.912c-2.139 0-3.889 1.75-3.889 3.887v7.801c0 2.137 1.75 3.887 3.889 3.887h7.912zm23.746-22.841c2.139 0 3.889-1.75 3.889-3.889v-7.799c0-2.139-1.75-3.889-3.889-3.889h-7.686c-2.139 0-3.887 1.75-3.887 3.889v7.799c0 2.139 1.748 3.889 3.887 3.889h7.686zm22.842-.487c2.139 0 3.889-1.75 3.889-3.887v-7.801c0-2.137-1.75-3.887-3.889-3.887h-7.686c-2.137 0-3.887 1.75-3.887 3.887v7.801c0 2.137 1.75 3.887 3.887 3.887h7.686zm-23.328 23.328c2.139 0 3.889-1.75 3.889-3.887v-7.801c0-2.137-1.75-3.887-3.889-3.887h-7.686c-2.137 0-3.887 1.75-3.887 3.887v7.801c0 2.137 1.75 3.887 3.887 3.887h7.686zm23.328 0c2.139 0 3.889-1.75 3.889-3.887v-7.801c0-2.137-1.75-3.887-3.889-3.887h-7.686c-2.137 0-3.887 1.75-3.887 3.887v7.801c0 2.137 1.75 3.887 3.887 3.887h7.686zm23.633-22.841c2.139 0 3.887-1.75 3.887-3.889v-7.799c0-2.139-1.748-3.889-3.887-3.889h-7.686c-2.139 0-3.889 1.75-3.889 3.889v7.799c0 2.139 1.75 3.889 3.889 3.889h7.686zM378.46 88.137c2.139 0 3.889-1.75 3.889-3.889v-7.799c0-2.139-1.75-3.889-3.889-3.889h-7.912c-2.139 0-3.889 1.75-3.889 3.889v7.799c0 2.139 1.75 3.889 3.889 3.889h7.912zm22.844-.487c2.137 0 3.887-1.75 3.887-3.887v-7.801c0-2.137-1.75-3.887-3.887-3.887h-7.914c-2.139 0-3.887 1.75-3.887 3.887v7.801c0 2.137 1.748 3.887 3.887 3.887h7.914zm-23.328 23.329c2.137 0 3.887-1.75 3.887-3.887v-7.801c0-2.137-1.75-3.887-3.887-3.887h-7.914c-2.139 0-3.887 1.75-3.887 3.887v7.801c0 2.137 1.748 3.887 3.887 3.887h7.914zm23.328 0c2.137 0 3.887-1.75 3.887-3.887v-7.801c0-2.137-1.75-3.887-3.887-3.887h-7.914c-2.139 0-3.887 1.75-3.887 3.887v7.801c0 2.137 1.748 3.887 3.887 3.887h7.914zM354.487 87.65c2.139 0 3.889-1.75 3.889-3.887v-7.801c0-2.137-1.75-3.887-3.889-3.887h-7.686c-2.139 0-3.887 1.75-3.887 3.887v7.801c0 2.137 1.748 3.887 3.887 3.887h7.686zm0 23.329c2.139 0 3.889-1.75 3.889-3.887v-7.801c0-2.137-1.75-3.887-3.889-3.887h-7.686c-2.139 0-3.887 1.75-3.887 3.887v7.801c0 2.137 1.748 3.887 3.887 3.887h7.686zm70.563-22.842c2.137 0 3.887-1.75 3.887-3.889v-7.799c0-2.139-1.75-3.889-3.887-3.889h-7.686c-2.139 0-3.889 1.75-3.889 3.889v7.799c0 2.139 1.75 3.889 3.889 3.889h7.686zm22.84-.487c2.141 0 3.889-1.75 3.889-3.887v-7.801c0-2.137-1.748-3.887-3.889-3.887h-7.684c-2.139 0-3.889 1.75-3.889 3.887v7.801c0 2.137 1.75 3.887 3.889 3.887h7.684zm-23.328 23.329c2.141 0 3.889-1.75 3.889-3.887v-7.801c0-2.137-1.748-3.887-3.889-3.887h-7.684c-2.139 0-3.889 1.75-3.889 3.887v7.801c0 2.137 1.75 3.887 3.889 3.887h7.684zm23.328 0c2.141 0 3.889-1.75 3.889-3.887v-7.801c0-2.137-1.748-3.887-3.889-3.887h-7.684c-2.139 0-3.889 1.75-3.889 3.887v7.801c0 2.137 1.75 3.887 3.889 3.887h7.684zm-22.84 23.687c2.137 0 3.887-1.748 3.887-3.887v-7.684c0-2.141-1.75-3.891-3.887-3.891h-7.686c-2.139 0-3.889 1.75-3.889 3.891v7.684c0 2.139 1.75 3.887 3.889 3.887h7.686zm22.84-.484c2.141 0 3.889-1.75 3.889-3.889v-7.686c0-2.137-1.748-3.887-3.889-3.887h-7.684c-2.139 0-3.889 1.75-3.889 3.887v7.686c0 2.139 1.75 3.889 3.889 3.889h7.684zm-23.328 23.328c2.141 0 3.889-1.75 3.889-3.889v-7.686c0-2.137-1.748-3.887-3.889-3.887h-7.684c-2.139 0-3.889 1.75-3.889 3.887v7.686c0 2.139 1.75 3.889 3.889 3.889h7.684zm23.328 0c2.141 0 3.889-1.75 3.889-3.889v-7.686c0-2.137-1.748-3.887-3.889-3.887h-7.684c-2.139 0-3.889 1.75-3.889 3.887v7.686c0 2.139 1.75 3.889 3.889 3.889h7.684zm-69.43-22.844c2.139 0 3.889-1.748 3.889-3.887v-7.684c0-2.141-1.75-3.891-3.889-3.891h-7.912c-2.139 0-3.889 1.75-3.889 3.891v7.684c0 2.139 1.75 3.887 3.889 3.887h7.912zm22.844-.484c2.137 0 3.887-1.75 3.887-3.889v-7.686c0-2.137-1.75-3.887-3.887-3.887h-7.914c-2.139 0-3.887 1.75-3.887 3.887v7.686c0 2.139 1.748 3.889 3.887 3.889h7.914zm0 23.328c2.137 0 3.887-1.75 3.887-3.889v-7.686c0-2.137-1.75-3.887-3.887-3.887h-7.914c-2.139 0-3.887 1.75-3.887 3.887v7.686c0 2.139 1.748 3.889 3.887 3.889h7.914zm70.074 0c2.139 0 3.889-1.75 3.889-3.889v-7.686c0-2.137-1.75-3.887-3.889-3.887h-7.912c-2.139 0-3.889 1.75-3.889 3.887v7.686c0 2.139 1.75 3.889 3.889 3.889h7.912zm.486-69.373c2.139 0 3.889-1.75 3.889-3.889v-7.799c0-2.139-1.75-3.889-3.889-3.889h-7.912c-2.139 0-3.889 1.75-3.889 3.889v7.799c0 2.139 1.75 3.889 3.889 3.889h7.912zm-.486 22.842c2.139 0 3.889-1.75 3.889-3.887v-7.801c0-2.137-1.75-3.887-3.889-3.887h-7.912c-2.139 0-3.889 1.75-3.889 3.887v7.801c0 2.137 1.75 3.887 3.889 3.887h7.912z"/>
</svg>
