<svg xmlns="http://www.w3.org/2000/svg" viewBox="0 0 888 283">
  <path fill="#262DFF" d="M160.157 32.589c-3.107 0-5.636-2.528-5.636-5.634V7.633c0-3.104 2.528-5.633 5.636-5.633h19.037c3.107 0 5.636 2.528 5.636 5.633v19.322c0 3.105-2.528 5.634-5.636 5.634h-19.037zm65.976 46.938c3.107 0 5.636-2.528 5.636-5.634V54.571c0-3.104-2.528-5.633-5.636-5.633h-19.037c-3.107 0-5.636 2.528-5.636 5.633v19.322c0 3.105 2.528 5.634 5.636 5.634h19.037zm69.307 10.904c3.109 0 5.637-2.527 5.637-5.637V65.476c0-3.105-2.527-5.634-5.637-5.634h-19.035c-3.107 0-5.638 2.528-5.638 5.634v19.318c0 3.109 2.53 5.637 5.638 5.637h19.035zm46.939-.998c3.109 0 5.638-2.528 5.638-5.638V64.477c0-3.105-2.528-5.633-5.638-5.633h-19.035c-3.107 0-5.638 2.527-5.638 5.633v19.318c0 3.109 2.53 5.638 5.638 5.638h19.035zm-47.938 47.936c3.109 0 5.638-2.527 5.638-5.637v-19.318c0-3.105-2.528-5.634-5.638-5.634h-19.035c-3.107 0-5.637 2.528-5.637 5.634v19.318c0 3.109 2.529 5.637 5.637 5.637h19.035zm117.249 10.904c3.107 0 5.635-2.528 5.635-5.638v-19.318c0-3.105-2.527-5.633-5.635-5.633h-19.037c-3.107 0-5.636 2.527-5.636 5.633v19.318c0 3.109 2.528 5.638 5.636 5.638h19.037zm-.999 46.939c3.107 0 5.636-2.528 5.636-5.638v-19.318c0-3.105-2.528-5.633-5.636-5.633h-19.037c-3.107 0-5.636 2.527-5.636 5.633v19.318c0 3.109 2.528 5.638 5.636 5.638h19.037zm47.938 0c3.107 0 5.635-2.528 5.635-5.638v-19.318c0-3.105-2.527-5.633-5.635-5.633h-19.038c-3.106 0-5.635 2.527-5.635 5.633v19.318c0 3.109 2.528 5.638 5.635 5.638h19.038zM680.807 282c3.106 0 5.635-2.528 5.635-5.633v-19.319c0-3.108-2.528-5.637-5.635-5.637h-19.038c-3.107 0-5.635 2.528-5.635 5.637v19.319c0 3.104 2.527 5.633 5.635 5.633h19.038zm47.936 0c3.107 0 5.636-2.528 5.636-5.633v-19.319c0-3.108-2.528-5.637-5.636-5.637h-19.037c-3.107 0-5.636 2.528-5.636 5.637v19.319c0 3.104 2.528 5.633 5.636 5.633h19.037z"/>
</svg>
