<svg xmlns="http://www.w3.org/2000/svg" viewBox="0 0 888 283">
  <path fill="#262DFF" d="M194.762 101.171c-1.197 0-2.174-.979-2.174-2.174v-4.36c0-1.198.977-2.176 2.174-2.176h4.424c1.195 0 2.174.978 2.174 2.176v4.36c0 1.195-.979 2.174-2.174 2.174h-4.424zm4.424-13.059c1.195 0 2.174-.979 2.174-2.174v-4.361c0-1.199-.979-2.175-2.174-2.175h-4.424c-1.197 0-2.174.976-2.174 2.175v4.361c0 1.195.977 2.174 2.174 2.174h4.424zm0-13.058c1.195 0 2.174-.979 2.174-2.174v-4.361c0-1.199-.979-2.176-2.174-2.176h-4.424c-1.197 0-2.174.977-2.174 2.176v4.361c0 1.195.977 2.174 2.174 2.174h4.424zm0-13.06c1.195 0 2.174-.978 2.174-2.175v-4.361c0-1.197-.979-2.176-2.174-2.176h-4.424c-1.197 0-2.174.979-2.174 2.176v4.361c0 1.197.977 2.175 2.174 2.175h4.424zm117.341 169.77c1.195 0 2.174-.979 2.174-2.176v-4.361c0-1.197-.979-2.176-2.174-2.176H312.1c-1.196 0-2.175.979-2.175 2.176v4.361c0 1.197.979 2.176 2.175 2.176h4.427zm0-13.059c1.195 0 2.174-.98 2.174-2.176v-4.363c0-1.195-.979-2.174-2.174-2.174H312.1c-1.196 0-2.175.979-2.175 2.174v4.363c0 1.195.979 2.176 2.175 2.176h4.427zm143.712 13.059c1.196 0 2.176-.979 2.176-2.176v-4.361c0-1.197-.979-2.176-2.176-2.176h-4.298c-1.195 0-2.173.979-2.173 2.176v4.361c0 1.197.978 2.176 2.173 2.176h4.298zm0-13.059c1.196 0 2.176-.98 2.176-2.176v-4.363c0-1.195-.979-2.174-2.176-2.174h-4.298c-1.195 0-2.173.979-2.173 2.174v4.363c0 1.195.978 2.176 2.173 2.176h4.298zm-117.467-39.18c1.195 0 2.175-.977 2.175-2.176v-4.361c0-1.195-.979-2.174-2.175-2.174h-4.426c-1.196 0-2.175.979-2.175 2.174v4.361c0 1.199.979 2.176 2.175 2.176h4.426zm0-13.058c1.195 0 2.175-.979 2.175-2.174v-4.363c0-1.195-.979-2.172-2.175-2.172h-4.426c-1.196 0-2.175.977-2.175 2.172v4.363c0 1.195.979 2.174 2.175 2.174h4.426zm-13.187 13.058c1.196 0 2.175-.977 2.175-2.176v-4.361c0-1.195-.979-2.174-2.175-2.174h-4.424c-1.196 0-2.175.979-2.175 2.174v4.361c0 1.199.979 2.176 2.175 2.176h4.424zm-26.181 0c1.195 0 2.174-.977 2.174-2.176v-4.361c0-1.195-.979-2.174-2.174-2.174h-4.426c-1.196 0-2.175.979-2.175 2.174v4.361c0 1.199.979 2.176 2.175 2.176h4.426zm13.123 13.059c1.195 0 2.174-.977 2.174-2.172v-4.363c0-1.195-.979-2.176-2.174-2.176H312.1c-1.196 0-2.175.98-2.175 2.176v4.363c0 1.195.979 2.172 2.175 2.172h4.427zm-65.233-65.296c1.196 0 2.175-.976 2.175-2.173v-4.36c0-1.198-.979-2.174-2.175-2.174h-4.298c-1.195 0-2.174.976-2.174 2.174v4.36c0 1.197.979 2.173 2.174 2.173h4.298zm45.483-26.117c1.197 0 2.176-.979 2.176-2.174v-4.36c0-1.198-.979-2.176-2.176-2.176h-4.296c-1.196 0-2.175.978-2.175 2.176v4.36c0 1.195.979 2.174 2.175 2.174h4.296zm13.125 6.529c1.195 0 2.174-.979 2.174-2.174v-4.361c0-1.197-.979-2.175-2.174-2.175h-4.299c-1.196 0-2.174.978-2.174 2.175v4.361c0 1.195.978 2.174 2.174 2.174h4.299zm13.121 6.529c1.196 0 2.175-.979 2.175-2.174v-4.36c0-1.198-.979-2.175-2.175-2.175h-4.297c-1.196 0-2.175.977-2.175 2.175v4.36c0 1.194.979 2.174 2.175 2.174h4.297zm30.493 9.799c1.196 0 2.176-.979 2.176-2.173v-4.364c0-1.196-.979-2.176-2.176-2.176h-4.297c-1.195 0-2.174.979-2.174 2.176v4.364c0 1.194.979 2.173 2.174 2.173h4.297zm-128.211 3.26c1.195 0 2.174-.976 2.174-2.173v-4.36c0-1.198-.979-2.174-2.174-2.174h-4.299c-1.197 0-2.175.976-2.175 2.174v4.36c0 1.197.978 2.173 2.175 2.173h4.299zm12.994 13.059c1.197 0 2.175-.977 2.175-2.173v-4.36c0-1.197-.978-2.174-2.175-2.174h-4.298c-1.196 0-2.173.977-2.173 2.174v4.36c0 1.196.977 2.173 2.173 2.173h4.298zm-25.99 0c1.197 0 2.175-.977 2.175-2.173v-4.36c0-1.197-.978-2.174-2.175-2.174h-4.299c-1.195 0-2.174.977-2.174 2.174v4.36c0 1.196.979 2.173 2.174 2.173h4.299zm64.976 26.12c1.195 0 2.175-.979 2.175-2.174v-4.363c0-1.195-.979-2.172-2.175-2.172h-4.297c-1.196 0-2.176.977-2.176 2.172v4.363c0 1.195.979 2.174 2.176 2.174h4.297zm0 13.058c1.195 0 2.175-.977 2.175-2.176v-4.361c0-1.195-.979-2.174-2.175-2.174h-4.297c-1.196 0-2.176.979-2.176 2.174v4.361c0 1.199.979 2.176 2.176 2.176h4.297zm12.995 0c1.196 0 2.175-.977 2.175-2.176v-4.361c0-1.195-.979-2.174-2.175-2.174h-4.297c-1.196 0-2.174.979-2.174 2.174v4.361c0 1.199.978 2.176 2.174 2.176h4.297zm170.087 26.121c1.194 0 2.175-.98 2.175-2.176v-4.363c0-1.195-.98-2.174-2.175-2.174h-4.426c-1.195 0-2.173.979-2.173 2.174v4.363c0 1.195.978 2.176 2.173 2.176h4.426zm-78.609-26.121c1.196 0 2.174-.977 2.174-2.176v-4.361c0-1.195-.978-2.174-2.174-2.174h-4.297c-1.197 0-2.175.979-2.175 2.174v4.361c0 1.199.978 2.176 2.175 2.176h4.297zm12.994 0c1.197 0 2.176-.977 2.176-2.176v-4.361c0-1.195-.979-2.174-2.176-2.174h-4.296c-1.196 0-2.175.979-2.175 2.174v4.361c0 1.199.979 2.176 2.175 2.176h4.296zm12.997 0c1.195 0 2.175-.977 2.175-2.176v-4.361c0-1.195-.979-2.174-2.175-2.174h-4.298c-1.195 0-2.175.979-2.175 2.174v4.361c0 1.199.979 2.176 2.175 2.176h4.298zm-51.981 0c1.196 0 2.174-.977 2.174-2.176v-4.361c0-1.195-.978-2.174-2.174-2.174h-4.299c-1.195 0-2.173.979-2.173 2.174v4.361c0 1.199.978 2.176 2.173 2.176h4.299zm12.994 0c1.197 0 2.176-.977 2.176-2.176v-4.361c0-1.195-.979-2.174-2.176-2.174h-4.297c-1.195 0-2.174.979-2.174 2.174v4.361c0 1.199.979 2.176 2.174 2.176h4.297zm404.387 13.059c1.194 0 2.173-.977 2.173-2.172v-4.363c0-1.195-.979-2.176-2.173-2.176h-4.3c-1.195 0-2.174.98-2.174 2.176v4.363c0 1.195.979 2.172 2.174 2.172h4.3zm12.995 0c1.196 0 2.176-.977 2.176-2.172v-4.363c0-1.195-.979-2.176-2.176-2.176h-4.296c-1.196 0-2.177.98-2.177 2.176v4.363c0 1.195.98 2.172 2.177 2.172h4.296zm-104.219-26.117c1.195 0 2.175-.979 2.175-2.174v-4.363c0-1.195-.979-2.172-2.175-2.172h-4.423c-1.198 0-2.177.977-2.177 2.172v4.363c0 1.195.979 2.174 2.177 2.174h4.423zm26.245 26.117c1.196 0 2.176-.977 2.176-2.172v-4.363c0-1.195-.979-2.176-2.176-2.176h-4.424c-1.194 0-2.174.98-2.174 2.176v4.363c0 1.195.979 2.172 2.174 2.172h4.424zM55.601 9.946c1.195 0 2.174-.976 2.174-2.172V3.477c0-1.198-.979-2.175-2.174-2.175h-4.426c-1.197 0-2.175.976-2.175 2.175v4.298c0 1.196.978 2.172 2.175 2.172h4.426zm282.822 245.763c2.392 0 4.35-1.959 4.35-4.354v-8.721c0-2.393-1.958-4.35-4.35-4.35h-8.85c-2.392 0-4.349 1.957-4.349 4.35v8.721c0 2.395 1.957 4.354 4.349 4.354h8.85zm-26.245 0c2.391 0 4.35-1.959 4.35-4.354v-8.721c0-2.393-1.959-4.35-4.35-4.35h-8.85c-2.393 0-4.35 1.957-4.35 4.35v8.721c0 2.395 1.957 4.354 4.35 4.354h8.85zm26.245-26.121c2.392 0 4.35-1.957 4.35-4.35v-8.721c0-2.395-1.958-4.352-4.35-4.352h-8.85c-2.392 0-4.349 1.957-4.349 4.352v8.721c0 2.393 1.957 4.35 4.349 4.35h8.85zm0-26.117c2.392 0 4.35-1.959 4.35-4.35V190.4c0-2.396-1.958-4.352-4.35-4.352h-8.85c-2.392 0-4.349 1.955-4.349 4.352v8.721c0 2.391 1.957 4.35 4.349 4.35h8.85zm-78.482-52.24c2.393 0 4.349-1.957 4.349-4.348v-8.722c0-2.393-1.956-4.349-4.349-4.349h-8.596c-2.393 0-4.35 1.956-4.35 4.349v8.722c0 2.391 1.957 4.348 4.35 4.348h8.596zm-51.982-26.116c2.393 0 4.35-1.958 4.35-4.349v-8.725c0-2.39-1.957-4.347-4.35-4.347h-8.596c-2.392 0-4.348 1.957-4.348 4.347v8.725c0 2.391 1.956 4.349 4.348 4.349h8.596zm-26.245 0c2.393 0 4.35-1.958 4.35-4.349v-8.725c0-2.39-1.957-4.347-4.35-4.347h-8.596c-2.392 0-4.349 1.957-4.349 4.347v8.725c0 2.391 1.957 4.349 4.349 4.349h8.596zm234.936 78.356c2.391 0 4.349-1.959 4.349-4.35V190.4c0-2.396-1.958-4.352-4.349-4.352h-8.85c-2.393 0-4.35 1.955-4.35 4.352v8.721c0 2.391 1.957 4.35 4.35 4.35h8.85zm17.471-2.182c0-1.199-.995-2.182-2.211-2.182-1.219 0-2.213.982-2.213 2.182 0 1.201.994 2.182 2.213 2.182 1.216 0 2.211-.981 2.211-2.182zm13.125 0c0-1.199-.998-2.182-2.214-2.182-1.217 0-2.214.982-2.214 2.182 0 1.201.997 2.182 2.214 2.182 1.216 0 2.214-.981 2.214-2.182zm-82.832 2.182c2.391 0 4.348-1.959 4.348-4.35V190.4c0-2.396-1.957-4.352-4.348-4.352h-8.596c-2.393 0-4.35 1.955-4.35 4.352v8.721c0 2.391 1.957 4.35 4.35 4.35h8.596zm25.99 0c2.392 0 4.348-1.959 4.348-4.35V190.4c0-2.396-1.956-4.352-4.348-4.352h-8.596c-2.392 0-4.348 1.955-4.348 4.352v8.721c0 2.391 1.956 4.35 4.348 4.35h8.596zm391.391-26.121c2.392 0 4.349-1.957 4.349-4.346v-8.725c0-2.393-1.957-4.35-4.349-4.35H773.2c-2.395 0-4.351 1.957-4.351 4.35v8.725c0 2.389 1.956 4.346 4.351 4.346h8.595zm25.991 0c2.392 0 4.35-1.957 4.35-4.346v-8.725c0-2.393-1.958-4.35-4.35-4.35h-8.595c-2.395 0-4.352 1.957-4.352 4.35v8.725c0 2.389 1.957 4.346 4.352 4.346h8.595zm0 26.121c2.392 0 4.35-1.959 4.35-4.35V190.4c0-2.396-1.958-4.352-4.35-4.352h-8.595c-2.395 0-4.352 1.955-4.352 4.352v8.721c0 2.391 1.957 4.35 4.352 4.35h8.595zM703.822 177.35c2.391 0 4.348-1.957 4.348-4.346v-8.725c0-2.393-1.957-4.35-4.348-4.35h-8.851c-2.391 0-4.348 1.957-4.348 4.35v8.725c0 2.389 1.957 4.346 4.348 4.346h8.851zM77.496 20.771c2.394 0 4.35-1.958 4.35-4.351V7.825c0-2.393-1.956-4.349-4.35-4.349h-8.851c-2.392 0-4.35 1.956-4.35 4.349v8.596c0 2.393 1.958 4.351 4.35 4.351h8.851zm51.982 52.109c2.393 0 4.35-1.957 4.35-4.352v-8.721c0-2.393-1.957-4.35-4.35-4.35h-8.596c-2.392 0-4.349 1.957-4.349 4.35v8.721c0 2.395 1.957 4.352 4.349 4.352h8.596zm208.945 208.819c2.392 0 4.35-1.957 4.35-4.352v-8.596c0-2.393-1.958-4.35-4.35-4.35h-8.85c-2.392 0-4.349 1.957-4.349 4.35v8.596c0 2.395 1.957 4.352 4.349 4.352h8.85zM156.343 73.435c2.393 0 4.35-1.957 4.35-4.35v-8.723c0-2.39-1.957-4.347-4.35-4.347h-8.85c-2.392 0-4.349 1.957-4.349 4.347v8.723c0 2.393 1.957 4.35 4.349 4.35h8.85zm25.551-.543c2.393 0 4.348-1.957 4.348-4.35v-8.723c0-2.393-1.955-4.35-4.348-4.35h-8.852c-2.392 0-4.35 1.957-4.35 4.35v8.723c0 2.393 1.958 4.35 4.35 4.35h8.852zM155.8 98.983c2.393 0 4.349-1.957 4.349-4.347v-8.725c0-2.392-1.956-4.349-4.349-4.349h-8.852c-2.391 0-4.347 1.957-4.347 4.349v8.725c0 2.39 1.956 4.347 4.347 4.347h8.852zm26.094 0c2.393 0 4.348-1.957 4.348-4.347v-8.725c0-2.392-1.955-4.349-4.348-4.349h-8.852c-2.392 0-4.35 1.957-4.35 4.349v8.725c0 2.39 1.958 4.347 4.35 4.347h8.852zm521.852 26.146c2.391 0 4.349-1.956 4.349-4.352v-8.722c0-2.392-1.958-4.349-4.349-4.349h-8.851c-2.391 0-4.347 1.957-4.347 4.349v8.722c0 2.396 1.956 4.352 4.347 4.352h8.851zm-26.092 26.091c2.392 0 4.346-1.957 4.346-4.35v-8.721c0-2.394-1.954-4.351-4.346-4.351h-8.851c-2.394 0-4.349 1.957-4.349 4.351v8.721c0 2.393 1.955 4.35 4.349 4.35h8.851zm26.092 0c2.391 0 4.349-1.957 4.349-4.35v-8.721c0-2.394-1.958-4.351-4.349-4.351h-8.851c-2.391 0-4.347 1.957-4.347 4.351v8.721c0 2.393 1.956 4.35 4.347 4.35h8.851zm26.56-25.551c2.393 0 4.349-1.956 4.349-4.346V112.6c0-2.393-1.956-4.35-4.349-4.35h-8.596c-2.391 0-4.348 1.957-4.348 4.35v8.724c0 2.39 1.957 4.346 4.348 4.346h8.596zm-.544 25.551c2.393 0 4.35-1.957 4.35-4.35v-8.721c0-2.394-1.957-4.351-4.35-4.351h-8.594c-2.395 0-4.35 1.957-4.35 4.351v8.721c0 2.393 1.955 4.35 4.35 4.35h8.594zm26.094 0c2.389 0 4.347-1.957 4.347-4.35v-8.721c0-2.394-1.958-4.351-4.347-4.351h-8.597c-2.393 0-4.35 1.957-4.35 4.351v8.721c0 2.393 1.957 4.35 4.35 4.35h8.597zm78.794-25.551c2.393 0 4.35-1.956 4.35-4.346V112.6c0-2.393-1.957-4.35-4.35-4.35h-8.848c-2.396 0-4.352 1.957-4.352 4.35v8.724c0 2.39 1.956 4.346 4.352 4.346h8.848zm-.542 25.551c2.392 0 4.348-1.957 4.348-4.35v-8.721c0-2.394-1.956-4.351-4.348-4.351h-8.852c-2.392 0-4.346 1.957-4.346 4.351v8.721c0 2.393 1.954 4.35 4.346 4.35h8.852zm-26.271 0c2.391 0 4.349-1.957 4.349-4.35v-8.721c0-2.394-1.958-4.351-4.349-4.351h-8.597c-2.392 0-4.35 1.957-4.35 4.351v8.721c0 2.393 1.958 4.35 4.35 4.35h8.597zm26.813 26.688c2.393 0 4.35-1.957 4.35-4.35v-8.723c0-2.393-1.957-4.35-4.35-4.35h-8.848c-2.396 0-4.352 1.957-4.352 4.35v8.723c0 2.393 1.956 4.35 4.352 4.35h8.848zm-104.344 0c2.393 0 4.349-1.957 4.349-4.35v-8.723c0-2.393-1.956-4.35-4.349-4.35h-8.596c-2.391 0-4.348 1.957-4.348 4.35v8.723c0 2.393 1.957 4.35 4.348 4.35h8.596zm25.55-.545c2.389 0 4.347-1.957 4.347-4.348v-8.723c0-2.393-1.958-4.348-4.347-4.348h-8.597c-2.393 0-4.35 1.955-4.35 4.348v8.723c0 2.391 1.957 4.348 4.35 4.348h8.597zm-26.094 26.094c2.393 0 4.35-1.957 4.35-4.35v-8.723c0-2.393-1.957-4.348-4.35-4.348h-8.594c-2.395 0-4.35 1.955-4.35 4.348v8.723c0 2.393 1.955 4.35 4.35 4.35h8.594zm26.094 0c2.389 0 4.347-1.957 4.347-4.35v-8.723c0-2.393-1.958-4.348-4.347-4.348h-8.597c-2.393 0-4.35 1.955-4.35 4.348v8.723c0 2.393 1.957 4.35 4.35 4.35h8.597zm-390.95 26.688c2.393 0 4.35-1.957 4.35-4.35v-8.723c0-2.393-1.957-4.35-4.35-4.35h-8.596c-2.393 0-4.35 1.957-4.35 4.35v8.723c0 2.393 1.957 4.35 4.35 4.35h8.596zm52.365 0c2.391 0 4.348-1.957 4.348-4.35v-8.723c0-2.393-1.957-4.35-4.348-4.35h-8.852c-2.393 0-4.349 1.957-4.349 4.35v8.723c0 2.393 1.956 4.35 4.349 4.35h8.852zm25.547-.545c2.395 0 4.35-1.957 4.35-4.346v-8.725c0-2.393-1.955-4.35-4.35-4.35h-8.85c-2.393 0-4.348 1.957-4.348 4.35v8.725c0 2.389 1.955 4.346 4.348 4.346h8.85zM155.8 46.812c2.393 0 4.349-1.957 4.349-4.35v-8.594c0-2.395-1.956-4.35-4.349-4.35h-8.852c-2.391 0-4.347 1.955-4.347 4.35v8.594c0 2.393 1.956 4.35 4.347 4.35h8.852zm-51.821-25.551c2.394 0 4.349-1.954 4.349-4.347V8.319c0-2.394-1.955-4.352-4.349-4.352h-8.596c-2.391 0-4.35 1.958-4.35 4.352v8.595c0 2.393 1.959 4.347 4.35 4.347h8.596zm25.549-.541c2.392 0 4.35-1.957 4.35-4.352V7.774c0-2.393-1.958-4.348-4.35-4.348h-8.596c-2.391 0-4.348 1.955-4.348 4.348v8.594c0 2.395 1.957 4.352 4.348 4.352h8.596zm-26.091 26.092c2.393 0 4.348-1.957 4.348-4.35v-8.594c0-2.395-1.955-4.35-4.348-4.35h-8.596c-2.393 0-4.35 1.955-4.35 4.35v8.594c0 2.393 1.957 4.35 4.35 4.35h8.596zm26.091 0c2.392 0 4.35-1.957 4.35-4.35v-8.594c0-2.395-1.958-4.35-4.35-4.35h-8.596c-2.391 0-4.348 1.955-4.348 4.35v8.594c0 2.393 1.957 4.35 4.348 4.35h8.596z"/>
</svg>
