<svg xmlns="http://www.w3.org/2000/svg" viewBox="0 0 888 283">
  <path fill="#262DFF" d="M429.724 138.594c-1.922 0-3.498-1.574-3.498-3.5v-7.02c0-1.926 1.576-3.498 3.498-3.498h6.918c1.924 0 3.5 1.572 3.5 3.498v7.02c0 1.926-1.576 3.5-3.5 3.5h-6.918zm27.832 0c1.922 0 3.498-1.574 3.498-3.5v-7.02c0-1.926-1.576-3.498-3.498-3.498h-6.918c-1.924 0-3.5 1.572-3.5 3.498v7.02c0 1.926 1.576 3.5 3.5 3.5h6.918zM289.837 96.561c1.926 0 3.5-1.572 3.5-3.498v-7.02c0-1.926-1.574-3.5-3.5-3.5h-7.121c-1.926 0-3.5 1.574-3.5 3.5v7.02c0 1.926 1.574 3.498 3.5 3.498h7.121zm42.238 42.033c1.924 0 3.498-1.574 3.498-3.5v-7.02c0-1.926-1.574-3.498-3.498-3.498h-7.121c-1.926 0-3.5 1.572-3.5 3.498v7.02c0 1.926 1.574 3.5 3.5 3.5h7.121zm118.481-24.516c3.85 0 7-3.148 7-6.998V93.041c0-3.85-3.15-6.998-7-6.998h-13.832c-3.85 0-7 3.148-7 6.998v14.039c0 3.85 3.15 6.998 7 6.998h13.832zm41.828 0c3.848 0 6.998-3.148 6.998-6.998V93.041c0-3.85-3.15-6.998-6.998-6.998H478.55c-3.85 0-6.998 3.148-6.998 6.998v14.039c0 3.85 3.148 6.998 6.998 6.998h13.834zm0 42.031c3.848 0 6.998-3.148 6.998-6.998v-14.037c0-3.85-3.15-7-6.998-7H478.55c-3.85 0-6.998 3.15-6.998 7v14.037c0 3.85 3.148 6.998 6.998 6.998h13.834zm-167.309-42.031c3.852 0 7-3.148 7-6.998V93.041c0-3.85-3.148-6.998-7-6.998h-14.242c-3.85 0-6.998 3.148-6.998 6.998v14.039c0 3.85 3.148 6.998 6.998 6.998h14.242zM576.856 282c3.85 0 7-3.148 7-6.998v-13.834c0-3.85-3.15-6.998-7-6.998h-14.242c-3.85 0-7 3.148-7 6.998v13.834c0 3.85 3.15 6.998 7 6.998h14.242zm42.62-82.963c3.85 0 6.998-3.148 6.998-6.998V178c0-3.85-3.148-6.998-6.998-6.998h-13.832c-3.85 0-6.998 3.148-6.998 6.998v14.039c0 3.85 3.148 6.998 6.998 6.998h13.832zm-83.858 0c3.848 0 6.998-3.148 6.998-6.998V178c0-3.85-3.15-6.998-6.998-6.998h-14.242c-3.852 0-7 3.148-7 6.998v14.039c0 3.85 3.148 6.998 7 6.998h14.242zm41.115-.875c3.85 0 6.998-3.148 6.998-6.998v-14.039c0-3.85-3.148-6.998-6.998-6.998h-14.244c-3.848 0-6.996 3.148-6.996 6.998v14.039c0 3.85 3.148 6.998 6.996 6.998h14.244zm-41.99 41.99c3.85 0 6.998-3.148 6.998-6.998v-14.037c0-3.85-3.148-7-6.998-7h-14.242c-3.852 0-7 3.15-7 7v14.037c0 3.85 3.148 6.998 7 6.998h14.242zm41.99 0c3.85 0 6.998-3.148 6.998-6.998v-14.037c0-3.85-3.148-7-6.998-7h-14.244c-3.848 0-6.996 3.15-6.996 7v14.037c0 3.85 3.148 6.998 6.996 6.998h14.244zm42.948 0c3.85 0 7-3.148 7-6.998v-14.037c0-3.85-3.15-7-7-7h-14.242c-3.85 0-7 3.15-7 7v14.037c0 3.85 3.15 6.998 7 6.998h14.242zM324.954 30.035c3.848 0 6.996-3.148 6.996-6.998V8.998c0-3.85-3.148-6.998-6.996-6.998H310.71c-3.85 0-6.998 3.148-6.998 6.998v14.039c0 3.85 3.148 6.998 6.998 6.998h14.244zm-41.992 41.99c3.85 0 7-3.148 7-6.998V50.988c0-3.848-3.15-6.998-7-6.998H268.72c-3.85 0-7 3.15-7 6.998v14.039c0 3.85 3.15 6.998 7 6.998h14.242zm41.992 0c3.848 0 6.996-3.148 6.996-6.998V50.988c0-3.848-3.148-6.998-6.996-6.998H310.71c-3.85 0-6.998 3.15-6.998 6.998v14.039c0 3.85 3.148 6.998 6.998 6.998h14.244zm41.867 0c3.848 0 6.998-3.148 6.998-6.998V50.988c0-3.848-3.15-6.998-6.998-6.998h-13.832c-3.852 0-7 3.15-7 6.998v14.039c0 3.85 3.148 6.998 7 6.998h13.832zm125.766 0c3.852 0 7-3.148 7-6.998V50.988c0-3.848-3.148-6.998-7-6.998h-14.242c-3.85 0-6.998 3.15-6.998 6.998v14.039c0 3.85 3.148 6.998 6.998 6.998h14.242zm42.156 0c3.85 0 6.998-3.148 6.998-6.998V50.988c0-3.848-3.148-6.998-6.998-6.998h-14.242c-3.852 0-7 3.15-7 6.998v14.039c0 3.85 3.148 6.998 7 6.998h14.242zm41.99 0c3.85 0 6.998-3.148 6.998-6.998V50.988c0-3.848-3.148-6.998-6.998-6.998h-14.244c-3.848 0-6.996 3.15-6.996 6.998v14.039c0 3.85 3.148 6.998 6.996 6.998h14.244zm0 42.948c3.85 0 6.998-3.148 6.998-6.998V93.938c0-3.85-3.148-7-6.998-7h-14.244c-3.848 0-6.996 3.15-6.996 7v14.037c0 3.85 3.148 6.998 6.996 6.998h14.244zm-41.115 0c3.848 0 6.998-3.148 6.998-6.998V93.938c0-3.85-3.15-7-6.998-7h-14.242c-3.852 0-7 3.15-7 7v14.037c0 3.85 3.148 6.998 7 6.998h14.242zm-.875 41.117c3.85 0 6.998-3.15 6.998-7v-14.037c0-3.85-3.148-6.998-6.998-6.998h-14.242c-3.852 0-7 3.148-7 6.998v14.037c0 3.85 3.148 7 7 7h14.242zm41.99 0c3.85 0 6.998-3.15 6.998-7v-14.037c0-3.85-3.148-6.998-6.998-6.998h-14.244c-3.848 0-6.996 3.148-6.996 6.998v14.037c0 3.85 3.148 7 6.996 7h14.244zm-209.037-41.117c3.848 0 6.998-3.148 6.998-6.998V93.938c0-3.85-3.15-7-6.998-7h-13.834c-3.85 0-6.998 3.15-6.998 7v14.037c0 3.85 3.148 6.998 6.998 6.998h13.834zm41.116-.875c3.85 0 6.998-3.148 6.998-6.998V93.063c0-3.85-3.148-6.998-6.998-6.998h-13.834c-3.848 0-6.996 3.148-6.996 6.998V107.1c0 3.85 3.148 6.998 6.996 6.998h13.834zm-41.991 41.992c3.848 0 6.998-3.15 6.998-7v-14.037c0-3.85-3.15-6.998-6.998-6.998h-13.832c-3.852 0-7 3.148-7 6.998v14.037c0 3.85 3.148 7 7 7h13.832zm41.991 0c3.85 0 6.998-3.15 6.998-7v-14.037c0-3.85-3.148-6.998-6.998-6.998h-13.834c-3.848 0-6.996 3.148-6.996 6.998v14.037c0 3.85 3.148 7 6.996 7h13.834z"/>
</svg>
