<svg version="1.1" id="Layer_1" xmlns="http://www.w3.org/2000/svg" x="0" y="0" viewBox="6 4 560 604" xml:space="preserve">
  <path fill="none" stroke="#231F20" stroke-width="1.8422" stroke-linecap="round" stroke-miterlimit="3.8637" d="M319.2 81.7c-1.3-.7-2.5-1.4-3.7-2.1-3.1-1.7-6.4-1.3-8 .6-1.8 2.2-2.4 5.9.1 8.2"/>
  <path fill="none" stroke="#C7B37F" stroke-width="1.8422" stroke-linecap="round" stroke-miterlimit="3.8637" d="M97.6 362c-.7 1.7-1.1 2.2-1.9 3.6-.8 1.5-1.2 2.3-2.1 3.8-.8 1.4-1.3 2.2-2.2 3.6-1.2 1.8-2 2.8-3.3 4.6"/>
  <path fill="#C7B37F" d="M228.8 4.5c22.5 0 31.7 19.3 54.2 19.3 13.9 0 22-4.5 34.1-11.4 8.4-4.8 13.8-7.3 23.5-7.3 9.9 0 16 3 21.1 11.5 2.9 4.8 5.3 14.2 4 19.6-2.4 10.3-3.9 14.7-8 24.2-1.9 4.6-3.8 7.3-3.8 12.3 0 11.9 16.2 16 27.3 16.2 2.4 0 22.7.4 35.1-12.2-6.8-.3-14.3-5.5-14.3-12.3 0-7.7 5.4-12.8 12.7-15 1.4-.4 3.7.8 5 .2 1.8-.9.9-2.9 2.5-4.2 3.6-2.9 6-4.7 10.6-4.7 3 0 4.8.4 7.3 2.2 1.3.9 1.8 2.1 3.3 2.1 3.3 0 5-2.1 8.3-2.1 2.7 0 4.4.4 6.7 1.6 2 1 1.9 4.4 4.2 4.4 1.1 0 7.1-2.4 10.2-2.4 6.4 0 9.9 2.3 14 7.2 1.1 1.3 1.8 4 3 4 2.3 0 7.6 1.5 10.9 4.8 1.4 1.4 2 2.1 3.1 3.8.8 1.2 1.9 4.2 3.3 4.7 1.6.6 2.9.5 5 1.8 4.7 3 8.3 8.7 8.2 14.2-.1 1.8-.9 4.4-1.4 6.2-5.5 19.2-18.6 25.3-31.7 41.8-5.6 7-10 12.6-10 21.6 0 2.2 2.7 6.2 3.9 8-.7-4.2 1.2-9.4 5.7-9.7 6.1-.3 10.9 4.3 11.7 10.4.2 1.4-.4 3.9-1 5.3 3.3-2.2 7.6-3.6 11.6-4.1 2.1-.2 3.4-.3 5.6-.2 9.8.2 20.6 5.8 27.2 11.3 20.1 17 22.5 42 21.4 48.9-2.4 15.4-.9 43.2-40.2 54.4 7.3 3.1 12.2 8.5 12.2 15.3 0 7.3-5.6 13.6-12.9 13.6-4.2 0-7.1-1-10-4-8.2 8.2-9.8 16.5-9.8 28.1 0 6.9 1.3 11 4.2 17.3 3.1 6.6 5.3 10.5 10.8 15.3 2.9-4.4 6-7.7 11.3-7.7 5.1 0 9.5 1.6 11.6 6.3.6 1.4.1 2.6.8 4 .9 1.8 2.5 2.2 3.4 4 1.5 2.7 0 5.1 1.3 7.9.8 1.8 2.6 2.1 3.4 4 1.3 2.8 1.6 4.8 1.6 7.9 0 8.8-8 15-16.8 15-2.6 0-4.1-1.1-6.7-.8 5 5 8.8 7.2 12.7 13.2 5.5 8.7 6.9 14.8 8.2 25.1.2 1.9.3 3.1.3 5 0 13.1-2 21-7.9 32.7-5.6 11.2-10.4 17.5-20.6 24.8-15.9 11.4-27.5 14.7-46.7 18.5-12.3 2.4-19.4 3.4-31.9 4.2-16 1-25.2 1.1-41.2 2.1-21 1.4-35.5 4.4-50.4 19.3 7 5.1 11.9 10.2 11.9 18.9 0 8.9-5.5 15.3-14 18.1-2 .7-3.4.1-5.3 1.1-2.2 1.2-2.1 3.7-4.2 5-3.7 2.4-6.6 2.9-11.1 2.9-7.9 0-13.2-1.8-18.7-7.4-6.4 5.3-8.6 10.2-15.8 14.3-2.4 1.3-3.6 3.2-6.3 3.2-4.3 0-6.3-2.7-9.8-5.3-5.5-4-8.4-6.7-12.9-11.9-6.6 3.9-10.6 7.1-18.2 7.1-4.7 0-7.7-.7-11.6-3.2-2.1-1.3-2.4-3.2-4.5-4.5-2.2-1.4-4-.9-6.3-1.8-8.8-3.8-14.5-10.3-14.5-19.9 0-8.4 5.3-13.8 12.9-17.3-14.6-14.6-29-17.1-49.6-18.5-15.9-1-25-1.1-40.9-2.1-12.6-.9-19.7-2.1-32.2-4.2-9.5-1.6-15.1-2-23.7-6.1C45 506.1 26 487 22.1 454.4c-.3-2.8-.3-4.4-.3-7.3 0-17 6.7-27.4 18.7-39.4-3.1-.7-5.2.3-8.2-.8-7.5-2.7-12.9-7.9-12.9-16 0-3 .1-4.9 1.6-7.5 1-1.8 3-2.2 3.4-4.2.6-2.7-.2-4.6 1.1-7.1.8-1.7 2.4-2 3.2-3.7 2.6-5.4 5.9-9.8 11.9-9.8 5.1 0 8.4 2.7 11.1 7.1 5-2.3 6.4-6.1 9.2-10.8 4.7-7.9 6.9-13.4 6.9-22.6 0-6.4-.6-10.2-2.6-16.2-1.4-4.4-2-7.3-5.3-10.6-2.9 2.9-5.8 4-10 4-8.4 0-14.8-7.2-14.8-15.6 0-6.2 3.1-10.9 8.7-13.5-4.5-3.9-8.4-4.2-13.5-7.4-7.6-4.8-10.3-9.9-15.3-17.4-3.3-4.9-4.1-8.3-5.8-14-2-6.8-3.2-10.9-3.2-17.9 0-1.8 0-2.9.3-4.8 1.9-14.3 4.5-23.3 13.5-34.6 5.3-6.7 9-10.8 16.9-14.3 6.7-2.9 10.8-5 18.1-5 2.2 0 3.5 0 5.7.3 3.4.4 5.5.7 8.4 2.4 1.1.6 3.2 2.5 3.2 1.2 0-1.5-.8-2.3-.8-3.8 0-6.1 4.4-11.6 10.4-11.6 4.4 0 6.2 3.9 8.3 7.7 1.4-2.3 2.1-3.9 2.1-6.6 0-10-5.4-15.1-11.6-23-13.6-17-30.6-24.9-30.6-46.7 0-6.5 3.1-10.9 8.7-14.3 1.6-1 3.8 0 5.4-1 1.4-.9 1.2-2.6 2.1-4 1.4-2.1 2.5-3.1 4.4-4.7 3.1-2.7 5.8-1.9 9.3-4.3 1.7-1.2 2.1-2.7 3.4-4.3 3.8-4.6 7.3-6.8 13.3-6.8 3 0 4.7 0 7.5 1.1 1 .4 2.7 1.8 3 1.5.6-.7 2.2-2.5 4.2-3.4 2.5-1.2 3.6-1.7 6.4-1.7 3.2 0 5.4 1.8 8.6 1.8 1.2 0 1.5-1.2 2.4-1.8 2.9-1.9 4.5-3 8-3 3.4 0 5.2 1.1 8.1 2.9 2.7 1.7 3.1 3.9 5.8 5.5 1.5.9 2.8.5 4.5 1.1 7.5 2.5 13.2 7.5 13.2 15.4 0 4.3-1 7.4-4.2 10.2-2.5 2.2-4.9 1.8-8.2 2.9 10.5 8.4 19.6 10.5 33 10.5 12.3 0 27.3-5 27.3-17.3 0-5.7-3.2-8.8-5.4-14-4-9.3-6.2-14.8-6.2-25 0-8 .9-12.9 5.6-19.5 4.6-6.6 10.5-8.2 18.7-8.2z"/>
  <path fill="none" stroke="#231F20" stroke-width="1.8422" stroke-linecap="round" stroke-miterlimit="3.8637" d="M63.8 196.2c4.5 2.3 9-1.1 8.1-6.9-.4-2.7-3.4-6.2-7.3-6.4"/>
  <path fill="none" stroke="#C7B37F" stroke-width="1.8422" stroke-linecap="round" stroke-miterlimit="3.8637" d="M480.9 443c-.8-.8-1.5-1.9-1.9-3.6-.9-3.2-.1-6.6 2.8-9.8 2.9-3.2 11-6.2 17.5-2.6 2.2 1.2 5.2 2.8 7.6 6.1.9 1.2 2.3 3.2 3.1 4.6 2 3.4 2.8 6.1 3.2 7.3 7.2 20.4-4.5 42.1-19.1 51.4-12.8 8.1-25.8 10.4-41.9 11.9-7.5.7-11.7.8-19.2 1.2-6 .3-11.2.2-16.1.1-4 0-7.9 0-11.8-.1-6.4-.1-13-.3-21 .3-8.5.6-14.9.8-22.1 2-4.7.8-10.2 1.5-15.9 2.8-1.7.4-3.5.7-5.2 1.2-1.2.4-2.4.7-3.5 1.1-10.4 3.2-20.5 7-28.5 12.2-2.5 1.6-5.2 3.2-7.2 5.1-1.2 1.2-2.7 2.3-4 3.5-5.6 5.5-11.3 11.4-12.6 19.5-.2 1.5-.2 3-.2 4.7 0 5.2 4.3 12.3 15.7 14.7"/>
  <path fill="none" stroke="#703D29" stroke-width="1.8422" stroke-miterlimit="3.8637" d="M345.3 562.5c1.3.9 2.2 2.8 2.2 2.8.4.9.8 1.7 1 2.5.8 4.4-2.2 7.2-5.8 7.6-4.9.6-8.7-2.4-10.2-5.9"/>
  <path fill="none" stroke="#703D29" stroke-width="1.8422" stroke-miterlimit="3.8637" d="M82.3 442c1 .9 1.2 2.1 2.5 2.3 2 .4 3.5 1.1 5.4-1.5 2.4-3.2 1.1-8.2-1.4-11.4-2.7-3.4-10.5-6.4-17-2.7-2.2 1.2-4.9 2.8-7.4 6.1-.9 1.2-2.5 3.2-3.3 4.6-2 3.4-2.8 6.1-3.2 7.3-6 17 1.1 34.8 12.1 45.7"/>
  <path fill="none" stroke="#703D29" stroke-width="1.8422" stroke-linecap="round" stroke-miterlimit="3.8637" d="M345 562.2c1.2 1.2 1.9 2.3 1.9 2.3.4.9.7 1.7.8 2.5.8 4.4-2.2 7.2-5.8 7.6-4.9.6-8.3-2.3-9.8-5.9"/>
  <path fill="none" stroke="#703D29" stroke-width="1.8422" stroke-linecap="round" stroke-miterlimit="3.8637" d="M247.1 83.4c2.4-1.3 4.7-2.6 6.8-3.8 3.1-1.7 6.8-1.3 8.4.6 1.8 2.2 2.1 5.9-.4 8.2"/>
  <path fill="#231F20" d="M147.1 69.8c.8 3 3.3 5.9 7.1 7.1 2.3.7 7.7.4 11.2-4.1 2.8-3.6 2.6-8.2 1.6-11.8-.7-2.3-2.6-4.6-5-6.5l-14.8 15-.1.3z"/>
  <path fill="none" stroke="#703D29" stroke-width="1.9435" stroke-linejoin="round" stroke-miterlimit="3.8636" d="M147.1 69.8c.8 3 3.3 5.9 7.1 7.1 2.3.7 7.7.4 11.2-4.1 2.8-3.6 2.6-8.2 1.6-11.8-.7-2.3-2.6-4.6-5-6.5l-14.8 15-.1.3z"/>
  <path fill="#C7B37F" d="M159.8 53.1l2.1 1.4 2.1 2.3 1.5 2.9.7 2.5.2 3.2-.2 2.2-.7 2.4-1.5 1.8-1.7 1.9-2.5 1.3-3.2.7-2.7.4-2.9-1.3-2.6-1.9-1.6-2.3-1.2-2.9v-1.1z"/>
  <path fill="none" stroke="#703D29" stroke-width="1.8422" stroke-miterlimit="3.8637" d="M212.2 99.7c16-3.3 29.1-10.5 39-16"/>
  <path fill="none" stroke="#703D29" stroke-width="1.8422" stroke-miterlimit="3.8637" d="M211.4 98.9c16-3.3 29.1-10.5 39-16"/>
  <path fill="none" stroke="#703D29" stroke-width="1.8422" stroke-miterlimit="3.8637" d="M306.9 587.4c-3.8 5.8-12.8 14.5-22.2 18-9.4-3.5-18.4-12.2-22.2-18"/>
  <path fill="none" stroke="#703D29" stroke-width="1.8422" stroke-linecap="round" stroke-miterlimit="3.8637" d="M443.5 45.9c7.9-4.3 13.9-3.5 18.4 2.7 4.9 6.8 5.6 15.8 4.5 21.1-1.6 7.8-3.9 11.1-10.1 16.8"/>
  <path fill="none" stroke="#703D29" stroke-width="1.8422" stroke-linecap="round" stroke-miterlimit="3.8637" d="M462.6 49.4c9-5.9 18.7-3.4 24.1 4.5 3.9 5.8 4.9 10.7 4.6 17.8-.5 12.3-8.2 22.1-16.7 26.9"/>
  <path fill="none" stroke="#703D29" stroke-width="1.8422" stroke-miterlimit="3.8637" d="M488.5 57.4c9.8 1.2 18.3 10.5 18.3 20.5 0 12.9-4.4 17.7-11.2 27-7.3 9.9-31.1 28-31.1 48.6 0 12.5 3.5 20.5 12.5 24.5 5.8 2.6 12.6-.2 15.7-3 7.5-6.8 4.5-18.8-3.3-20.2-9.6-1.7-11.4 13.3-2 12.3"/>
  <path fill="none" stroke="#703D29" stroke-width="1.8422" stroke-miterlimit="3.8637" d="M504.9 70.2c7.4.6 13.4 7.3 13.4 15.1 0 11.2-3.1 16-12 27.1-7.7 9.6-30.8 26.4-30.2 42.5.2 6.1 5.4 11.8 9.8 12.1"/>
  <path fill="none" stroke="#703D29" stroke-width="1.8422" stroke-linecap="round" stroke-miterlimit="3.8637" d="M505.8 196.1c-4.2 3-9.6-1.9-7.3-7.1 1.6-3.6 6.4-8.1 13.6-3.2 8 5.4 5.8 22.6-9.6 22.9-13.7.3-23-19.2-9.9-33.8 12-13.3 34.2-10.7 48.1.4 5.9 4.7 17.9 17.7 20.4 34.7 3.1 20.6 2.7 45.9-18.6 61.5-8.5 6.3-20.4 9.1-30.8 8.7-13.6-.6-21.5-10.2-20-21.5 1.4-11 12-15.6 19.7-11.3 8.1 4.5 6.7 15.8-2 16.8-5.1.6-9.3-4.8-5.8-8.4"/>
  <path fill="none" stroke="#703D29" stroke-width="1.8422" stroke-miterlimit="3.8637" d="M498.5 189c2.3-10.2 11-11.1 18-11 19.2.3 32.5 23.1 32.7 45.1.3 27.9-11.8 44.3-32.2 45.1-5.3.2-14.3-2.3-14.5-8.7"/>
  <path fill="none" stroke="#703D29" stroke-width="1.8422" stroke-linecap="square" stroke-miterlimit="3.8636" d="M510.4 184.5c20.3 4.5 27.4 22.8 27.4 40.2 0 14.2-1.4 33.6-29.1 40.5"/>
  <path fill="none" stroke="#703D29" stroke-width="1.9351" stroke-linecap="round" stroke-miterlimit="3.8636" d="M522.3 294.7c-3.5-8.4-12.5-4.6-13 0-1.3 10.7 8.1 13.9 14.8 12.2 3.3-.9 5.7-2.9 7.3-5.7 1.7-3.1 2.3-7.1 1.1-10.9-.5-1.7-1.2-3.2-2.5-4.8-1.2-1.6-2.5-2.8-3.7-3.5-2.6-1.6-5.4-1.8-9.8-1.8-16.3 0-30.5 19.2-35.3 39.2-1.6 6.6-3.7 21.2-.7 35.1 3.2 14.8 9.6 25.1 17.1 32.8 4.1 4.2 9.6 8 16.8 12 2.2 1.3 8.1 3.8 12.1 5 4.2 1.2 8 1 11.5.3 9.6-2.1 14.1-11 9.3-20.2-4-7.5-15.7-11.6-21.2-2-.5.8-1.2 2.6-1.2 4.5 0 2.6 1.1 5.6 2.9 6.8 4.2 2.7 10.9 1.9 10.6-5.5"/>
  <path fill="none" stroke="#703D29" stroke-width="1.8422" stroke-miterlimit="3.8637" d="M535 394.7c-3 1.2-4.7 1-8.5-.7-1.6-.7-3.3-1.8-5.4-2.9-7.4-4.2-16.3-10.9-24.5-26.4-2.4-4.6-4-8.9-5-13.1-.8-3.2-1.3-6.4-1.5-9.7-.2-5.6.4-11.4 1.8-18.1 2.3-11.1 5.1-17.1 11.9-26.4 3.4-4.6 6.2-7.4 12.5-7.5"/>
  <path fill="none" stroke="#703D29" stroke-width="1.8422" stroke-miterlimit="3.8637" d="M543.8 379.9c.1-.7.2-1.4.2-2.1 0-6.3-5.1-11.4-11.4-11.4s-11.4 5.1-11.4 11.4c0 3.6 1.7 6.8 4.3 8.9"/>
  <path fill="none" stroke="#703D29" stroke-width="1.8422" stroke-miterlimit="3.8637" d="M539.4 368.6c-.9-5.2-5.3-9.1-10.5-9.1-5.9 0-10.7 4.9-10.7 11 0 3 1.1 5.7 3 7.6"/>
  <path fill="none" stroke="#703D29" stroke-width="1.8422" stroke-miterlimit="3.8637" d="M518.6 368c-9.7-7-18.1-20.3-18.1-36-.1-12.1 4.8-24.4 10.4-29.2"/>
  <path fill="none" stroke="#703D29" stroke-width="1.8422" stroke-linecap="round" stroke-miterlimit="3.8637" d="M503.1 362.6c3.8 5.7 8.4 12 18.2 17.2"/>
  <path fill="none" stroke="#703D29" stroke-width="2.3821" stroke-miterlimit="3.8636" d="M472.1 405.1c3.3-3.8 10.7-9.6 19.3-10.6 8.7-1.1 16.2 1.5 23.9 5.6 15 8.1 23.4 16.8 29 32.9 1.4 4.1 2.6 10.3 2.4 16.8-.3 10.5-2.9 21.9-5.8 27.4-2.5 4.8-9 26.1-44.7 40.8-20.8 8.6-52.8 10.6-74.9 11.4-30.3 1.2-58.3 2.3-74.6 22.4"/>
  <path fill="none" stroke="#703D29" stroke-width="1.8422" stroke-linecap="round" stroke-miterlimit="3.8637" d="M517.7 410.6c-9.6-6.3-27.7-14.5-44.1-6.4-6.1 3-10.2 6.7-12.5 12.8-4.1 10.9.5 22.9 5.2 27.9 2.5 2.6 7.8 7.6 14.5 7.7 11 .1 13.7-7.6 13.9-9.3 1.3-8-3.3-11.2-5.8-12-1.9-.7-8.1-.5-9.4 3.9-.4 1.5-.5 4 .6 5.9"/>
  <path fill="none" stroke="#703D29" stroke-width="2.0932" stroke-miterlimit="3.8636" d="M479.7 439.4c-.9-3.2-.1-6.3 2.5-9.7 3.4-4.6 10.6-6.2 17.1-2.6 2.2 1.2 4.9 2.8 7.4 6.1.9 1.2 2.5 3.2 3.3 4.6 2 3.4 2.8 6.1 3.2 7.3 7.2 20.4-4.2 42.5-19.1 51.4-11.6 6.9-25.4 10-41.9 11.9-7.4.9-11.7.8-19.2 1.2-6 .3-11.2.2-16.1.1-4 0-7.9 0-11.8-.1-6.4-.1-13-.3-21 .3-8.5.6-14.9.8-22.1 2-4.7.8-10.2 1.5-15.9 2.8-1.7.4-3.5.7-5.2 1.2-1.2.4-2.4.7-3.5 1.1-10.4 3.2-20.5 7-28.5 12.2-2.5 1.6-5.2 3.2-7.2 5.1-1.2 1.2-2.7 2.3-4 3.5-5.6 5.5-11.3 11.4-12.6 19.5-.2 1.5-.2 3-.2 4.7 0 5.2 4.3 12.3 15.7 14.7"/>
  <path fill="none" stroke="#703D29" stroke-width="1.8422" stroke-linecap="round" stroke-miterlimit="3.8637" d="M345.7 563.9c3 6.2-.4 9.4-4.6 9.9-6.2.7-9.6-4.2-10-8.7-.7-7.3 5.4-13.9 12.8-13.8 6.6.1 12 4.4 14.5 10.2.9 2.1 1.3 4.5 1.5 6.9.2 4.6-1.4 8.8-4.2 12.1-3.7 4.3-9.5 7-15.7 7.2-12.3.5-21.9-11-21.9-22.8 0-22.5 33.4-34.8 46.6-37.9 16.3-3.9 26.1-5.3 52.2-6.8 10.4-.6 18.1-.3 29.6-1.5 10.3-1.1 15.7-1.6 26.3-4 13.2-3.1 25.5-8.6 36.6-18.6 8.5-7.7 13.4-13.2 17.3-23.8 3.4-9.1 5-27.2-3.6-40.6-7.6-11.8-18.1-18-30.2-19.7-10.9-1.6-20.4 3.1-26.1 13.9-2.8 5.2-1.9 14 .3 18 1.9 3.5 7.3 8.6 13.9 8.7 11 .1 13.7-7.6 13.9-9.3 1.3-8-3.3-11.2-5.8-12-1.9-.7-8.1-.5-9.4 3.9-.4 1.5-.5 4 .6 5.9"/>
  <path fill="none" stroke="#703D29" stroke-width="1.8422" stroke-linecap="round" stroke-miterlimit="3.8637" d="M336.2 528.2c-14.1 6.3-24.5 11-33.3 24.8-2.8 4.4-3.5 10.6-3.5 14.2 0 7.8 3.2 16.7 9.7 22.2 6.1 5.1 12 6.7 19.4 5.9 5.6-.6 10.9-4.6 11.8-7.5"/>
  <path fill="none" stroke="#703D29" stroke-width="1.8422" stroke-miterlimit="3.8637" d="M472.3 175.1c-5.2 4.4-7.7 9.9-7.7 16.7 0 9 7.6 23.8 26.1 29 7.1 2 13.9 1.8 18.2-.8"/>
  <path fill="none" stroke="#703D29" stroke-width="1.8422" stroke-miterlimit="3.8637" d="M475.9 259.7c-6.6 2.2-11.3 12.3-11.3 21.9 0 11 5.4 17.9 11.6 21.8"/>
  <path fill="none" stroke="#703D29" stroke-width="1.8422" stroke-linecap="round" stroke-miterlimit="3.8637" d="M483.2 295.6c-11.9 14.8-18.2 23.6-18.6 41.2-.3 16.5 4.9 27.9 14.8 39.8"/>
  <path fill="none" stroke="#703D29" stroke-width="1.8422" stroke-miterlimit="3.8637" d="M419.7 49.5c.3-.5.6-1 1-1.5 4.9-7.3 13.6-9.2 20-4.4 7.7 5.8 9.6 15.7 7.5 26.1-1.3 6.5-5.7 12-11.8 15.9"/>
  <path fill="none" stroke="#703D29" stroke-width="1.9435" stroke-linecap="round" stroke-miterlimit="3.8636" d="M155.4 64.4c-.9-4.8-6.5-5.8-8.7-3-3.4 4.4-.9 11.7 5.9 13.8 2.3.7 7.7.4 11.2-4.1 2.8-3.6 2.6-8.2 1.6-11.8-.7-2.3-2.5-4.3-5-6.2-7.9-6-20.8-4.6-25 5.5-5.4 13.1 6.4 22.9 17.3 30.3 13.7 9.3 29.3 11 41.1 10.9 26.7-.3 47-13.1 60.2-20.3 3.1-1.7 6.2-1.3 7.8.6 1.8 2.2 1.8 5.7-.7 8"/>
  <path fill="none" stroke="#703D29" stroke-width="1.8422" stroke-linecap="round" stroke-miterlimit="3.8637" d="M125.9 45.9c-7.5-3.5-13.8-2.8-18.4 2.7-5.4 6.4-5.6 15.8-4.5 21.1 1.6 7.8 3.9 11.1 10.1 16.8"/>
  <path fill="none" stroke="#703D29" stroke-width="1.8422" stroke-miterlimit="3.8637" d="M106.9 49.4c-9-5.9-18.7-3.4-24.1 4.5-3.9 5.8-4.9 10.7-4.6 17.8.5 12.3 8.2 22.1 16.7 26.9"/>
  <path fill="none" stroke="#703D29" stroke-width="1.8422" stroke-miterlimit="3.8637" d="M80.9 57.4c-9.8 1.2-17.5 9.5-17.5 19.5 0 12.9 3.2 18.1 10.4 28 7.3 9.9 31.1 28 31.1 48.6 0 12.5-3.5 20.5-12.5 24.5-5.8 2.6-12.6-.2-15.7-3-7.6-6.8-4.5-18.8 3.3-20.2 9.6-1.7 11.4 13.3 2 12.3"/>
  <path fill="none" stroke="#703D29" stroke-width="1.8422" stroke-miterlimit="3.8637" d="M64.5 70.2c-7.4.6-14.7 6.9-14.7 14.8 0 11.2 4.5 16.4 13.4 27.5 7.7 9.6 29.4 26.1 28.8 42.2-.2 6.1-4.3 13.5-8.4 12.7"/>
  <path fill="none" stroke="#703D29" stroke-width="1.8422" stroke-linecap="round" stroke-miterlimit="3.8637" d="M63.6 196.1c4.2 3 9.6-2.1 7.5-7.6-1.4-3.7-6.6-7.7-13.9-2.7-8 5.4-5.8 22.6 9.6 22.9 13.7.3 22.1-19.7 9.9-33.7-11.7-13.5-33.1-10.3-47 .7-5.9 4.7-17.1 17.1-20.6 33.9-1.1 5.2-1.8 9.5-1.7 14.8.1 3.5.4 7.3 1.4 12.2 2.1 9.8 5.5 16.9 9 21.9 1.3 1.9 2.5 3.5 3.8 4.8 2.4 2.4 3.1 3.7 5.5 5.7 7.9 6.6 18 11.7 30.5 11.2 13.6-.6 21.5-10.2 20-21.5-1.4-11-12.5-16.4-19.7-11.3-4.9 3.5-6.7 14.3 2 16.8 4.9 1.4 9.3-4.8 5.8-8.4"/>
  <path fill="none" stroke="#703D29" stroke-width="1.8422" stroke-linecap="round" stroke-miterlimit="3.8637" d="M47.1 294.7c3.5-8.4 12.5-4.6 13 0 1.3 10.7-8.1 13.9-14.8 12.2-3.3-.9-5.7-2.9-7.3-5.7-1.7-3.1-2.3-7.1-1.1-10.9.5-1.7 1.2-3.2 2.5-4.8 1.2-1.6 2.5-2.8 3.7-3.5 2.6-1.6 5.4-1.8 9.8-1.8 16.3 0 30.5 19.2 35.3 39.2 1.6 6.6 3.7 21.2.7 35.1-3.2 14.8-9.6 25.1-17.1 32.8-4.1 4.2-9.6 8-16.8 12-2.2 1.3-8.1 3.8-12.1 5-4.2 1.2-8.1 1.3-11.5.3-8.3-2.5-13.6-10.2-9.3-20.2 3.3-7.8 15.7-11.6 21.2-2 .5.8 1.2 2.6 1.2 4.5 0 2.6-1.1 5.6-2.9 6.8-4.2 2.7-10.9 1.9-10.6-5.5"/>
  <path fill="none" stroke="#703D29" stroke-width="1.8422" stroke-miterlimit="3.8637" d="M34.4 394.7c3 1.2 4.7 1 8.5-.7 1.6-.7 3.3-1.8 5.4-2.9 7.4-4.2 16.3-10.9 24.5-26.4 2.4-4.6 4-8.9 5-13.1.8-3.2 1.3-6.4 1.5-9.7.2-5.6-.4-11.4-1.8-18.1-2.3-11.1-5.1-17.1-11.9-26.4-3.4-4.6-6.2-7.4-12.5-7.5"/>
  <path fill="none" stroke="#703D29" stroke-width="1.8422" stroke-miterlimit="3.8637" d="M25.6 379.9c-.1-.7-.2-1.4-.2-2.1 0-6.3 5.1-11.4 11.4-11.4 6.3 0 11.4 5.1 11.4 11.4 0 3.6-1.7 6.8-4.3 8.9"/>
  <path fill="none" stroke="#703D29" stroke-width="1.8422" stroke-miterlimit="3.8637" d="M30 368.6c.9-5.2 5.3-9.1 10.5-9.1 5.9 0 10.7 4.9 10.7 11 0 3-1.1 5.7-3 7.6"/>
  <path fill="none" stroke="#703D29" stroke-width="1.8422" stroke-miterlimit="3.8637" d="M50.8 368c9.7-7 18.1-20.3 18.1-36 .1-12.1-4.8-24.4-10.4-29.2"/>
  <path fill="none" stroke="#703D29" stroke-width="1.8422" stroke-linecap="round" stroke-miterlimit="3.8637" d="M66.3 362.6c-3.8 5.7-8.4 12-18.2 17.2"/>
  <path fill="none" stroke="#703D29" stroke-width="1.8422" stroke-miterlimit="3.8637" d="M95.3 404.3c-2.7-6.4-8.1-9.3-16.8-10.2-8.7-.9-16.2 1.5-23.9 5.6-15 8.1-23.4 16.8-29 32.9-1.4 4.1-2.6 10.3-2.4 16.8.3 10.5 2.9 21.9 5.8 27.4 2.5 4.8 9 26.1 44.7 40.8 20.8 8.6 52.8 10.6 74.9 11.4 30.3 1.2 58.3 2.3 74.6 22.3"/>
  <path fill="none" stroke="#703D29" stroke-width="1.8422" stroke-linecap="round" stroke-miterlimit="3.8637" d="M51.7 410.6c9.6-6.3 27.7-14.5 44.1-6.4 6.1 3 10.2 6.7 12.5 12.8 4.1 10.9-.5 22.9-5.2 27.9-2.5 2.6-7.8 7.6-14.5 7.7-11 .1-13.7-7.6-13.9-9.3-1.3-8 3.3-11.2 5.8-12 1.9-.7 8.1-.5 9.4 3.9.4 1.5.5 4-.6 5.9"/>
  <path fill="none" stroke="#703D29" stroke-width="1.8422" stroke-miterlimit="3.8637" d="M89.7 439.4c.9-3.2.4-6.5-2.5-9.7-2.9-3.2-10.6-6.2-17.1-2.6-2.2 1.2-4.9 2.8-7.4 6.1-.9 1.2-2.5 3.2-3.3 4.6-2 3.4-2.8 6.1-3.2 7.3-7.2 20.4 4.5 42.1 19.1 51.4 12.8 8.1 25.8 10.4 41.9 11.9 7.5.7 11.7.8 19.2 1.2 6 .3 11.2.2 16.1.1 4 0 7.8 0 11.8-.1 6.4-.1 13-.3 21 .3 8.5.6 14.9.8 22.1 2 4.7.8 10.2 1.5 15.9 2.8 1.7.4 3.5.7 5.2 1.2 1.2.4 2.4.7 3.5 1.1 10.4 3.2 20.5 7 28.5 12.2 2.5 1.6 5.3 3.1 7.2 5.1 1.5 1.5 2.8 2.3 4 3.5 5.6 5.5 11.3 11.4 12.6 19.5.2 1.5.2 3 .2 4.7 0 5.2-4.3 12.3-15.7 14.7"/>
  <path fill="none" stroke="#703D29" stroke-width="1.8422" stroke-miterlimit="3.8637" d="M223.7 563.9c-3.1 6.2.4 9.4 4.6 9.9 6.2.7 9.6-4.2 10-8.7.7-7.3-5.4-13.9-12.8-13.8-6.6.1-12 4.4-14.5 10.2-.9 2.1-1.3 4.5-1.5 6.9-.3 4.6 1.4 8.8 4.1 12.1 3.7 4.3 9.5 7 15.7 7.2 12.3.5 21.9-11 21.9-22.8 0-22.5-33.4-34.8-46.6-37.9-16.3-3.9-26.1-5.3-52.2-6.8-10.5-.6-18.1-.3-29.6-1.5-10.3-1.1-15.7-1.6-26.3-4-13.2-3.1-25.5-8.6-36.6-18.6-8.5-7.7-13.4-13.2-17.3-23.8-3.4-9.1-5-27.2 3.6-40.6 7.6-11.8 18.1-18 30.2-19.7 10.9-1.6 20.4 3.1 26.1 13.9 2.8 5.2 1.9 14-.3 18-1.9 3.5-7.3 8.6-13.9 8.7-11 .1-13.7-7.6-13.9-9.3-1.3-8 3.3-11.2 5.8-12 1.9-.7 8.1-.5 9.4 3.9.4 1.5.5 4-.6 5.9"/>
  <path fill="none" stroke="#703D29" stroke-width="1.8422" stroke-miterlimit="3.8637" d="M233.2 528.2c14.1 6.3 24.5 11 33.3 24.8 2.8 4.4 3.5 10.6 3.5 14.2 0 7.8-3.2 16.7-9.7 22.2-6.1 5.1-12 6.7-19.4 5.9-5.6-.6-10.9-4.6-11.8-7.5"/>
  <path fill="none" stroke="#703D29" stroke-width="1.8422" stroke-miterlimit="3.8637" d="M97.1 175.1c5.2 4.4 7.7 9.9 7.7 16.7 0 9-7.6 23.8-26.1 29-7.1 2-14.2.4-18.4-2.2"/>
  <path fill="none" stroke="#703D29" stroke-width="1.8422" stroke-miterlimit="3.8637" d="M100.2 205.7c3.3 2.3 4.6 4.9 4.6 9.5 0 3.1-2 7.1-5.4 10.9-5.6 6.2-15.1 11.6-25.6 11.7-5.7.1-11.6-1.1-17.6-5.1-6.4-4.3-9.7-10-11.2-15.7"/>
  <path fill="none" stroke="#703D29" stroke-width="1.8422" stroke-miterlimit="3.8637" d="M99.9 225.2c3.8 3.5 4.9 7.8 4.9 13.3 0 8-3.3 14.2-10.7 20.7-1.7 1.5-3.6 2.8-5.7 4.1"/>
  <path fill="none" stroke="#703D29" stroke-width="1.8422" stroke-miterlimit="3.8637" d="M93.5 259.7c8 6.2 11.3 12.3 11.3 21.9 0 11-5.4 17.9-11.6 21.8"/>
  <path fill="none" stroke="#703D29" stroke-width="1.8422" stroke-linecap="round" stroke-miterlimit="3.8637" d="M86.3 295.6c11.9 14.8 18.2 23.6 18.6 41.2.3 16.5-4.9 27.9-14.8 39.8"/>
  <path fill="none" stroke="#703D29" stroke-width="1.8422" stroke-linecap="round" stroke-miterlimit="3.8637" d="M149.7 49.5c-.3-.5-.6-1-1-1.5-4.9-7.3-13.6-9.2-20-4.4-7.7 5.8-9.6 15.7-7.5 26.1 1.3 6.5 5.7 12 11.8 15.9"/>
  <path fill="none" stroke="#703D29" stroke-width="1.8422" stroke-miterlimit="3.8637" d="M422.3 71.5c-11.8 12.8-23.5 16.8-41.1 17.4-5.5.2-16-1.7-22.1-6.1-3.9-2.8-8.3-7.6-5.5-15.8 1.8-5.5 10.7-21 11.2-31.8.7-16.4-5.6-25.4-15.5-28.9-18.2-6.4-37.8 11.6-49.6 15.5-6.2 2.1-9.3 2.3-14.9 2.3s-8.9-.3-15.1-2.3c-11.8-3.9-31.4-22-49.6-15.5-9.9 3.5-16.2 12.5-15.5 28.9.4 10.7 9.3 26.3 11.2 31.8 2.8 8.3-1.6 13-5.5 15.8-6.1 4.3-16.6 6.3-22.1 6.1-17.6-.6-29.3-4.6-41.1-17.4"/>
  <path fill="none" stroke="#703D29" stroke-width="2.0932" stroke-miterlimit="3.8636" d="M316.6 80.3c2.4 4.3 3.7 7 2.3 11.5-1.6 5.1-5.2 8.1-10.3 8.1-11.6 0-18.4-13.7-13.2-22.5 9.3-15.5 27.1-6.8 43.7.9-.8-4-2.2-5.3-2-10.2.4-12.3 9.4-17.8 13.1-29.1 2.2-6.7 3-12.6-1.9-17.4-4.3-4.2-9.3-4.1-14.9-1.9-11.2 4.4-24.7 17.1-48.5 17.4-23.8-.4-37.4-13-48.6-17.4-5.6-2.2-10.6-2.3-14.9 1.9-4.9 4.8-4.1 10.6-1.9 17.4 3.6 11.3 12.7 16.9 13.1 29.1.1 4.9-1.2 6.2-2 10.2 16.5-7.7 35.1-17.2 43.7-.9 4.8 9.1-1.6 22.5-13.2 22.5-5.1 0-8.7-3.3-10.3-8.1-1.4-4.3 0-8.1 2.3-11.5"/>
  <path fill="none" stroke="#C7B37F" stroke-width="1.8422" stroke-miterlimit="3.8636" d="M329.6 50.2c.2-5.4-4-7.7-6.2-7.7-6.3 0-8 3.9-15.8 8.1-9.8 5.3-14.1 6.4-22.8 6.5-8.7-.1-13.1-1.3-22.9-6.5-7.8-4.2-9.5-8.1-15.8-8.1-2.2 0-6.4 2.6-6.2 8"/>
  <path fill="none" stroke="#703D29" stroke-width="1.8422" stroke-miterlimit="3.8637" d="M232.7 77.2c.7-2.2 1.4-3.9 1.3-7.5-.4-12.3-9.4-17.8-13.1-29.1-2.2-6.7-3-12.6 1.9-17.4 4.3-4.2 9.3-4.1 14.9-1.9 11.2 4.4 24.8 17.1 48.6 17.4-23.8-.4-37.4-13-48.6-17.4-5.6-2.2-11.1-2.8-15.4 1.3-4.9 4.8-3.6 11.2-1.4 18 3.6 11.3 12.3 16.9 12.6 29.1.1 3.6-.8 5.3-1.6 7.5"/>
  <path fill="none" stroke="#703D29" stroke-width="1.8422" stroke-miterlimit="3.8637" d="M286.3 37.9c23.4-1.2 43.4-16.9 49.9-18.2 5.8-1.1 9-.6 13.2 3.2-4.2-3.8-9-3.7-14.5-1.6-11.2 4.4-24.7 17.1-48.5 17.4"/>
  <path fill="none" stroke="#703D29" stroke-width="1.8422" stroke-miterlimit="3.8637" d="M314.4 99.9c2.2-1.4 3.8-3.7 4.7-6.5 1.4-4.3 1.4-8-.9-11.4 2.9 3.7 3.1 6.9 2.3 11.5-.5 2.9-2.4 4.4-4.7 6.5"/>
  <path fill="#C7B37F" d="M252.3 85.5c0-3.1 2.5-5.6 5.6-5.6 3.1 0 5.6 2.5 5.6 5.6 0 3.1-2.5 5.6-5.6 5.6-3.1 0-5.6-2.5-5.6-5.6z"/>
  <path fill="none" stroke="#703D29" stroke-width="1.8422" stroke-miterlimit="3.8637" d="M465.9 351.2v47.1h.1s0 4.5-.4 7.3c-.2 1.8-.5 3.5-.8 5"/>
  <path fill="none" stroke="#703D29" stroke-width="1.8422" stroke-miterlimit="3.8637" d="M465.1 346.7v50.8h.1s0 4.5-.4 7.3c-.4 2.9-.8 5.4-1.4 7.7"/>
  <path fill="none" stroke="#703D29" stroke-width="1.8422" stroke-miterlimit="3.8637" d="M465.1 287.2v42.4"/>
  <path fill="none" stroke="#703D29" stroke-width="1.8422" stroke-miterlimit="3.8637" d="M465.9 290.6V325"/>
  <path fill="none" stroke="#703D29" stroke-width="1.8422" stroke-miterlimit="3.8637" d="M465.9 246.7v25.9"/>
  <path fill="none" stroke="#703D29" stroke-width="1.8422" stroke-miterlimit="3.8637" d="M465.1 243.7v31.8"/>
  <path fill="none" stroke="#703D29" stroke-width="1.8422" stroke-miterlimit="3.8637" d="M465.9 220.3v10"/>
  <path fill="none" stroke="#703D29" stroke-width="1.8422" stroke-miterlimit="3.8637" d="M465.1 218.3v14.5"/>
  <path fill="none" stroke="#703D29" stroke-width="1.8422" stroke-miterlimit="3.8637" d="M465.9 198.9v10.3"/>
  <path fill="none" stroke="#703D29" stroke-width="1.8422" stroke-miterlimit="3.8637" d="M465.1 196.4v14.5"/>
  <path fill="none" stroke="#703D29" stroke-width="1.8422" stroke-miterlimit="3.8637" d="M465.9 165v19"/>
  <path fill="none" stroke="#703D29" stroke-width="1.8422" stroke-miterlimit="3.8637" d="M465.1 160.8v25.9"/>
  <path fill="none" stroke="#703D29" stroke-width="1.8422" stroke-miterlimit="3.8637" d="M459.6 425.8c-3.6 7.2-6.5 10.9-12.2 16.5-5.8 5.7-9.8 8.3-17 11.9-7 3.5-11.5 4.7-19.2 6.4-7.7 1.7-12.2 2.1-20 2.5-7.2.3-11.3 0-18.5-.5-7.7-.5-12-1.6-19.7-2.3-6.4-.6-9.9-1.1-16.3-1.1-6.6 0-10.3.1-16.8 1.2-6 1.1-9.4 1.9-15.1 4.2-7.8 3.2-16.7 8.7-18.6 11.2-1.9-2.5-10.7-8-18.6-11.2-5.7-2.3-9.1-3.1-15.1-4.2-6.5-1.1-10.2-1.2-16.8-1.2-6.4 0-10 .5-16.3 1.1-7.7.7-12 1.8-19.7 2.3-7.2.5-11.3.8-18.5.5-7.9-.4-12.4-.7-20-2.5-7.7-1.7-12.1-2.9-19.2-6.4-7.2-3.6-11.2-6.2-17-11.9l-1.8-1.8"/>
  <path fill="none" stroke="#703D29" stroke-width="1.8422" stroke-miterlimit="3.8637" d="M459.7 422.9c-.3.7-.6 1.3-1 2-3.6 7.2-6.5 10.9-12.2 16.5-5.8 5.7-9.8 8.3-17 11.9-7 3.5-11.5 4.7-19.2 6.4-7.7 1.7-12.2 2.1-20 2.5-7.2.3-11.3 0-18.5-.5-7.7-.5-12-1.6-19.7-2.3-6.4-.6-9.9-1.1-16.3-1.1-6.6 0-10.3.1-16.8 1.2-6 1.1-9.4 1.9-15.1 4.2-7.8 3.2-16.7 8.7-18.6 11.2-1.9-2.5-10.7-8-18.6-11.2-5.7-2.3-9.1-3.1-15.1-4.2-6.5-1.1-10.2-1.2-16.8-1.2-6.4 0-10 .5-16.3 1.1-7.7.7-12 1.8-19.7 2.3-7.2.5-11.3.8-18.5.5-7.9-.4-12.4-.7-20-2.5-7.7-1.7-12.1-2.9-19.2-6.4-7.2-3.6-11.2-6.2-17-11.9-3-3-5.2-5.4-7.2-8.1"/>
  <circle fill="#C7B37F" cx="83.1" cy="439.1" r="7.3"/>
  <circle fill="none" stroke="#C7B37F" stroke-width=".9571" stroke-miterlimit="3.8637" cx="83.1" cy="439.1" r="7.3"/>
  <path fill="none" stroke="#703D29" stroke-width="1.9735" stroke-miterlimit="3.8637" d="M76.2 426.1l-6 2.2-6.1 4.6-2.6 3.7-3.3 5.8-1.5 4.3-1.1 5.4-.6 4.1"/>
  <path fill="none" stroke="#703D29" stroke-width="1.8422" stroke-miterlimit="3.8637" d="M111.3 424.1c1.2 9.2-2.6 18.3-6.6 22.5-2.5 2.6-7.8 7.6-14.5 7.7-11 .1-14.3-7.4-15-9.3"/>
  <path fill="none" stroke="#703D29" stroke-width="1.9735" stroke-miterlimit="3.8637" d="M110.4 426.7l-.4 5.2-.9 3.6-2.6 6.3-4 5.4-4.4 3.4-3.2 1.6-4.5 1.1"/>
  <path fill="none" stroke="#703D29" stroke-width="1.8422" stroke-miterlimit="3.8637" d="M98.2 419.3c2 2 3.9 4.5 5.4 7.4 2.8 5.2 1.9 14-.3 18-.2.4-.5.9-.9 1.4"/>
  <path fill="none" stroke="#703D29" stroke-width="1.8422" stroke-miterlimit="3.8637" d="M43.4 498.6c6.6 6.9 16.5 14.4 31.7 20.6 20.8 8.6 52.8 10.6 74.9 11.4 29.3 1.2 56.4 2.4 72.8 20.5"/>
  <path fill="none" stroke="#703D29" stroke-width="1.8422" stroke-miterlimit="3.8637" d="M273.5 539.4c4.9 4.8 9.8 9.9 11.9 16.4"/>
  <path fill="none" stroke="#703D29" stroke-width="2.2335" stroke-miterlimit="3.8636" d="M285.3 565.9c-1.1 4.8-5.6 10.4-15.5 12.4 0 0-1.2.2-1.9.4"/>
  <path fill="none" stroke="#703D29" stroke-width="1.8422" stroke-linecap="round" stroke-miterlimit="3.8637" d="M269.7 576.2c-1.2 4.4-3.3 8.6-6.5 12"/>
  <path fill="none" stroke="#703D29" stroke-width="1.8422" stroke-linecap="round" stroke-miterlimit="3.8637" d="M219.9 523c2.3.9.6-.6 15.3 6 14.1 6.3 24.2 11.8 33 25.6 2.8 4.4 3.5 10.6 3.5 14.2 0 2.3-.3 4.8-.9 7.2"/>
  <path fill="none" stroke="#703D29" stroke-width="1.8422" stroke-miterlimit="3.8637" d="M263.9 589.2c-.6.7-1.3 1.3-2 1.9-6.1 5.1-12 6.7-19.4 5.9-5.6-.6-11-4.8-12.5-7.5"/>
  <path fill="none" stroke="#703D29" stroke-width="1.8422" stroke-miterlimit="3.8637" d="M270.7 570.1l-1.3 6.4"/>
  <path fill="none" stroke="#703D29" stroke-width="1.8422" stroke-miterlimit="3.8637" d="M262.5 588.7l-2.7 2.7-5 2.8-5.6 1.7"/>
  <path fill="none" stroke="#703D29" stroke-width="1.8422" stroke-miterlimit="3.8637" d="M307.7 588.2c-3.8 5.8-12.8 14.5-22.2 18-9.4-3.5-18.4-12.2-22.2-18"/>
  <path fill="none" stroke="#231F20" stroke-width="1.8422" stroke-miterlimit="3.8637" d="M308.5 589.1c-3.8 5.8-12.8 14.5-22.2 18-9.4-3.5-18.4-12.2-22.2-18-.3-.5-.6-.9-.9-1.4"/>
  <path fill="none" stroke="#703D29" stroke-width="1.8422" stroke-miterlimit="3.8637" d="M246.4 596.2l5.3-.7"/>
  <path fill="none" stroke="#703D29" stroke-width="1.8422" stroke-miterlimit="3.8637" d="M214.4 581.1c.3.4.6.7.9 1.1 3.5 4.1 9.1 6.7 14.9 7.2"/>
  <path fill="none" stroke="#703D29" stroke-width="1.8422" stroke-miterlimit="3.8637" d="M220.8 586.1c2.9 1.4 6.1 2.3 9.5 2.4 12.3.5 21.9-11 21.9-22.8 0-8.1-4.4-15-10.6-20.5"/>
  <path fill="none" stroke="#703D29" stroke-width="1.8422" stroke-linecap="round" stroke-miterlimit="3.8637" d="M223.5 563.9c-3 6.6 1.3 10.2 5.5 10.7 6.2.7 9.8-4.2 10.2-8.7.5-4.9-2.1-9.7-6.1-12.1"/>
  <circle fill="#C7B37F" cx="229.6" cy="566.5" r="6.7"/>
  <path fill="none" stroke="#703D29" stroke-width="1.8422" stroke-miterlimit="3.8637" d="M308.5 589.1c-3.8 5.8-12.8 14.5-22.2 18-9.4-3.5-18.4-12.2-22.2-18-.3-.5-.6-.9-.9-1.4"/>
  <path fill="none" stroke="#C7B37F" stroke-width="1.8422" stroke-linecap="round" stroke-miterlimit="3.8637" d="M345.3 524.6c-3.9 1-6.2 1.3-10 2.5-3.9 1.3-5.8 2.3-9.7 4"/>
  <path fill="none" stroke="#C7B37F" stroke-width="1.8422" stroke-linecap="round" stroke-miterlimit="3.8637" d="M312.8 545.7c1.1-1.5 1.5-2.4 2.7-3.8 1.7-1.9 3-2.7 5.2-4.1 2.5-1.5 4.3-2.7 7.1-4.2 2.3-1.2 3.7-1.8 6-2.9 2.3-1 3.6-1.6 5.9-2.5 2.5-1 3.9-1.5 6.4-2.5"/>
  <path fill="none" stroke="#C7B37F" stroke-width="1.8422" stroke-linecap="round" stroke-miterlimit="3.8637" d="M250.6 542.1c-1-1.5-1.3-2.5-2.5-3.8-1.7-1.9-3.1-2.3-5.4-3.6-2.5-1.5-3.3-1.8-7.2-3.7-2.3-1.2-3.7-1.8-6-2.9-2.3-1-3.6-1.6-5.9-2.5-2.5-1-3.9-1.5-6.4-2.4"/>
  <path fill="none" stroke="#703D29" stroke-width="1.8422" stroke-miterlimit="3.8637" d="M308.6 589c.7.7 1.4 1.4 2.2 2.1 6.1 5.1 12 6.7 19.4 5.9 5.6-.6 10.1-4.3 11.9-7.5 0 0 1-1.1 1.3-2.1"/>
  <path fill="none" stroke="#703D29" stroke-width="1.8422" stroke-miterlimit="3.8637" d="M341.5 587.8l-2.1 3.5-3.3 2.8-5 2-4.5.2"/>
  <path fill="none" stroke="#703D29" stroke-width="1.8422" stroke-miterlimit="3.8637" d="M353.3 554.7c2.7 2 5.3 5.2 6.7 8.5.9 2.1 1.3 4.5 1.5 6.9.2 4.6-1.4 8.8-4.1 12.1-3.7 4.3-9.5 7-15.7 7.2h-1.4"/>
  <path fill="none" stroke="#703D29" stroke-width="1.8422" stroke-miterlimit="3.8637" d="M340.7 588.5c-5.9.2-11.2-2.3-15.1-6.3"/>
  <path fill="none" stroke="#703D29" stroke-width="1.8422" stroke-miterlimit="3.8637" d="M339.9 588.7l5.3-.5 5-2 3.6-2.2 4.7-5.6 1-2.1.8-4.9.2-2.3"/>
  <path fill="#C7B37F" d="M333.2 566.8c0-3.8 3.1-6.9 6.9-6.9 3.8 0 6.9 3.1 6.9 6.9 0 3.8-3.1 6.9-6.9 6.9-3.8 0-6.9-3.1-6.9-6.9z"/>
  <path fill="none" stroke="#703D29" stroke-width="2.5313" stroke-miterlimit="3.8636" d="M531.6 411.6c6.2 5.8 10.6 12.9 14 22.6 1.4 4.1 2.6 10.3 2.4 16.8-.3 10.5-2.9 21.9-5.8 27.4-2.5 4.8-9 26.1-44.7 40.8-20.8 8.6-52.8 10.6-74.9 11.4-29.9 1.2-57.5 2.3-73.9 21.5"/>
  <path fill="none" stroke="#703D29" stroke-width="1.8422" stroke-miterlimit="3.8637" d="M347.7 551.4l5.3-4.8 3.6-2.8 6.8-4.2 6.4-3 4.5-1.2 9-2 10.4-1.6"/>
  <path fill="none" stroke="#703D29" stroke-width="1.7345" stroke-miterlimit="3.8636" d="M482.8 431c2.2-3 10.3-6.9 16.8-3.2 2.1 1.2 4.7 2.7 6.9 6.1"/>
  <path fill="#703D29" d="M123.8 463.6c1.5-1.6 2.7-1 2.9-1.8.2-.6-.2-.6-.9-.8-.8-.3-1.7-.5-2.5-.8-.9-.3-1.6-.8-2.5-1.1-.4-.1-1.2-.5-1.4.1-.4 1.1 3 1 1.8 4.1-.2.5-.7 1.6-2.4 3.5l-7.7 8.4c-.2.2-.5.6-.6.5-.2-.1-.2-.6-.2-.8l.1-11.9c0-2.3.2-3.9.6-4.9.5-1.4 2.1-.2 2.4-1.1.2-.6.1-.6-.9-.9-.5-.2-1.4-.4-3.2-1.1-1-.4-1.9-.9-2.9-1.2-.4-.2-1.3-.8-1.5 0-.1.2.2.6.3.6 1.1.8 1.4 1.3 1.4 2.7l.2 21.7c0 1.6.2 2 .5 2.1.3.1.5 0 1.2-.7l15.3-16.6z"/>
  <path fill="#703D29" d="M132.8 466.9c1-3.2 2.9-1.3 3.2-2.4.1-.4 0-.5-.9-.8-1.7-.5-2.8-.7-3.9-1.1-1-.3-2.2-.8-3.3-1.2-.3-.1-1-.4-1.2.1-.4 1.2 3.3 1.3 2.4 4.3l-5 15.9c-1 3.2-2.9 1.6-3.2 2.8-.1.2-.1.4.2.5.8.2 2.1.5 3.4.9 2.3.7 3.4 1.2 4.5 1.6.7.2 1 .2 1.1-.2.3-1.1-3.5-.6-2.2-4.7l4.9-15.7z"/>
  <path fill="#703D29" d="M135.4 484.5c-1.3 4.2-3.4 2.4-3.7 3.5-.2.7.5.8.8.9 1.5.4 3 .8 4.7 1.2 1.3.4 2 .7 2.5.9.7.2 1 .1 1.1-.2.4-1.2-3-.7-2-4.3l1.7-5.8c.3-1.2.2-1.5 1.8-1 1.5.4 2 .9 2.2 2.6l1 6c.4 2.2.7 4.6 3.1 5.3 1.2.4 3.4.2 3.7-.8.1-.3 0-.5-.3-.6-.3-.1-.7 0-1-.1-.2-.1-.8-.2-.9-.9-.9-4.8-2-10.4-2-10.6.1-.3 1.1-.4 2.2-.9s2.3-1.5 3-3.7c.5-1.5 1.3-6.4-5.3-8.4-2-.6-4.1-1.1-6.1-1.7-1.9-.6-2.1-.8-3.5-1.2-.4-.1-.7 0-.8.3-.4 1.2 3.3.9 2.2 4.7l-4.4 14.8zm8.2-14.4c.6-2 1.5-1.7 2.6-1.4 3 .9 4 3.9 3 7.1-.6 2-1.3 3.8-5.9 2.4-.9-.3-2-.6-1.8-1.4l2.1-6.7z"/>
  <path fill="#703D29" d="M159.9 491.7c-1 4-4 1.6-4.3 2.9-.2.7.3.8.9 1 1.2.3 2.3.4 4.3.9s3 .9 4.2 1.2c.9.2 1.5.5 1.7-.4.2-.9-3.9-.9-2.9-5.1l3.7-15.3c.4-1.6.7-1.7 2-1.4l2.6.6c3.5.7 1.7 4.2 2.9 4.5.8.2.8-1.2.8-1.6l.4-3.2c.1-.3.2-.8-.3-.9-2.8-.7-4.9-1-9.4-2.1s-6.5-1.7-9.3-2.4c-.5-.1-.6.4-.7.7l-1.6 4.4c-.2.4-.5 1.1.1 1.3 1.4.3 1.5-4.3 5-3.5l2.6.6c1.2.3 1.5.5 1.1 2.2l-3.8 15.6z"/>
  <path fill="#703D29" d="M196.9 482.2c1.2-1.9 2.4-1.5 2.6-2.3.1-.6-.3-.6-1-.7-.9-.2-1.8-.2-2.6-.3-.9-.2-1.7-.5-2.6-.6-.4-.1-1.2-.3-1.4.3-.2 1.2 3.1.5 2.5 3.7-.1.5-.4 1.7-1.7 3.9l-6.2 9.6c-.1.2-.3.7-.5.6-.2 0-.3-.5-.3-.8l-2-11.8c-.4-2.2-.5-3.9-.3-4.9.3-1.4 2-.6 2.2-1.5.1-.6-.1-.6-1-.8-.5-.1-1.4-.1-3.4-.5-1-.2-2.1-.5-3.1-.7-.5-.1-1.4-.5-1.5.3 0 .2.3.5.4.6 1.2.6 1.6 1 1.8 2.5l4 21.4c.3 1.5.5 1.9.8 2 .3.1.5-.1 1-.9l12.3-19.1z"/>
  <path fill="#703D29" d="M198.7 501.9c0 .9-.1 1.1.7 1.5 1.7.7 3.2 1.8 5 2.1 4 .7 7.4-1.9 8.2-6.4.7-4.4-1.1-6.2-4.1-8.3-3.8-2.7-5.4-3.5-5-5.8.4-2.3 2-3.4 4-3 5.3.9 4.7 7.4 5.4 7.5.7.1.8-.3.9-1l.4-4.7c.1-.8.3-1.3-.2-1.4-.4-.1-1.3.4-1.7.3-.9-.2-2-1.7-4.5-2.1-3.6-.6-6.6 1.9-7.2 5.8-.6 3.6 1 5.3 3.4 7 4.6 3.3 6.4 4 6 7-.5 2.7-2.6 4.1-5 3.7-3.4-.6-4.8-4-5.3-7.5 0-.5-.1-.8-.6-.9-.8-.1-.6.9-.6 1.4l.2 4.8z"/>
  <path fill="#703D29" d="M244.8 488.9c1-2 2.3-1.7 2.3-2.5 0-.6-.4-.5-1.1-.6-.9-.1-1.8 0-2.6-.1-.9-.1-1.8-.3-2.7-.4-.4 0-1.3-.2-1.3.5-.1 1.2 3.2.2 2.9 3.4 0 .6-.2 1.8-1.3 4l-5.1 10.2c-.1.2-.3.7-.5.7s-.3-.5-.4-.8l-3.2-11.5c-.6-2.2-.9-3.8-.8-4.9.1-1.5 1.9-.8 2-1.7 0-.6-.1-.6-1.1-.6-.5 0-1.4 0-3.4-.1-1.1-.1-2.1-.3-3.1-.4-.5 0-1.4-.4-1.5.4 0 .2.4.5.5.5 1.3.4 1.7.9 2.1 2.3l6.2 20.8c.4 1.5.7 1.9 1 1.9.3 0 .5-.2.9-1l10.2-20.1z"/>
  <path fill="#703D29" d="M249.8 505.7c0 3.6-3 2.9-3 4.3 0 .6.6.4 1 .4.8 0 1.7-.1 2.7-.1 1.1 0 2.2.2 3.7.2.4 0 1.2 0 1.2-.4 0-1.6-4 .7-4-6l.1-11.8c0-.3.1-.6.3-.6.2 0 .3.2.6.5l14.9 18.2c.2.3.4.5.8.5s.4-.3.4-1l.2-19.5c0-3.7 2.7-2.8 2.7-3.8 0-.1 0-.5-.6-.5-.3 0-1.4.1-3.4.1-2.2 0-3.1-.2-3.6-.2-.4 0-.5.3-.5.6 0 1.1 3.8.6 3.8 3.7l-.1 11.6c0 .9-.1 1.3-.3 1.3-.2 0-.6-.4-1-.9l-12.5-15.5c-.6-.7-.2-.9-1.2-.9-1.7 0-2.5.1-3.3.1-.6 0-1.2-.2-1.8-.2-.4 0-.5.3-.5.6 0 1.7 3.5-.6 3.5 6.1l-.1 13.2z"/>
  <path fill="#703D29" d="M280.1 490.1c0-3.3 2.4-2 2.4-3.2 0-.4-.2-.5-1.1-.5-1.8 0-2.9.1-4 .1s-2.3-.2-3.5-.2c-.3 0-1.1-.1-1.1.5 0 1.2 3.4.3 3.3 3.4v16.7c0 3.3-2.3 2.4-2.3 3.6 0 .2.1.4.3.4.8 0 2.2-.1 3.5-.1 2.4 0 3.6.2 4.8.2.7 0 1-.1 1-.5 0-1.1-3.5.5-3.5-3.8l.2-16.6z"/>
  <path fill="#703D29" d="M293.3 506.2c0 4.1-3.5 2.5-3.5 3.9 0 .8.5.7 1.1.7 1.3 0 2.3-.2 4.4-.2 2.1 0 3.1.1 4.4.1.9 0 1.5.1 1.5-.7 0-1-4 .1-4-4.2L297 490c0-1.7.3-1.8 1.6-1.9h2.7c3.6-.2 2.6 3.7 3.9 3.7.8 0 .5-1.4.4-1.8l-.4-3.2c0-.3 0-.8-.5-.8-2.9 0-5 .2-9.6.2s-6.7-.1-9.6-.1c-.5 0-.5.5-.5.8l-.5 4.6c-.1.5-.2 1.2.4 1.2 1.4 0 .4-4.6 4-4.6h2.6c1.3 0 1.6.2 1.6 1.8l.2 16.3z"/>
  <path fill="#703D29" d="M316.9 501.1c.8-.1 1 .3 2.2 2.9.4.9.7 1.5.7 2.3.2 2.1-2.1 1.9-2 2.9 0 .5.4.4 1 .3.9-.1 2.1-.3 3.4-.4 2.1-.2 2.9-.1 4-.2.8-.1 1.1 0 1.1-.6-.1-1.1-1.7.3-2.9-2l-10.1-20.6c-.5-1-.6-1.1-.8-1.1-.4 0-.5.7-.7 1.3l-6.8 21.7c-.6 2-2.2 1.9-2.2 2.7 0 .5.5.3 1 .3.9-.1 1.8-.3 2.7-.4 1-.1 1.9 0 2.9-.1.7-.1 1.6.1 1.6-.6-.1-.9-3.4-.1-3.6-2.6-.1-.8.3-2.1.4-2.8.5-2.3 1.2-2.5 1.7-2.6l6.4-.4zm-5.4-1.5c-.6 0-1 .1-1-.2 0-.5.1-.9.2-1.3l1.9-6.3c.1-.4.2-.4.3-.4.2 0 .1 0 .3.3l3.1 6.1c.2.4.4.8.4 1.3 0 .3-.4.3-1 .4l-4.2.1z"/>
  <path fill="#703D29" d="M341.1 486.7c-.3-2.4-.2-2.4 3.6-2.9 6-.8 4.1 3.6 5.6 3.4.7-.1.4-1.2.3-1.7l-.6-3.4c0-.3-.3-.6-.7-.6-2.7.4-4.9.8-7.1 1.1-4.8.6-7 .8-8.3.9-.4.1-.6.4-.6.7.2 1.4 3.6-.2 4 2.9l2.1 16.2c.6 4.2-2.1 2.7-1.8 4.2 0 .2.2.4.6.3 1.7-.2 3-.5 4-.7 1.4-.2 2.5-.2 3.7-.3.8-.1 1.4 0 1.4-.7-.1-.9-3.5.4-4-3.4l-.7-5.1c-.3-2-.4-2.4 1-2.6l2.3-.3c3.2-.4 2.8 3.4 3.8 3.2.7-.1.4-1.3.3-1.8l-1-6.1c-.2-.9-.5-.8-.7-.8-.6.1-.3 3.3-3 3.6l-2 .3c-1.3.2-1.4-.1-1.6-1.6l-.6-4.8z"/>
  <path fill="#703D29" d="M356 491.9c-.9-5-.3-10 4.9-11 4-.8 8.5 2.5 9.9 10 1.1 5.7.2 10.6-5.1 11.7-5.5 1.1-8.8-5.7-9.7-10.7zm-3.4 2.7c1.3 7 6.3 10.8 12.5 9.7 9.8-1.8 10.2-10.6 9.3-15.4-1.3-7.3-6.8-10.8-12.8-9.6-7.4 1.4-10.4 7.8-9 15.3z"/>
  <path fill="#703D29" d="M380.3 496.4c1 4.3-1.7 3.7-1.5 4.8.2.7.8.4 1.1.3 1.5-.4 3-.9 4.7-1.3 1.3-.3 2.1-.4 2.7-.5.7-.2.9-.4.8-.7-.3-1.2-3 .9-3.8-2.7l-1.4-5.9c-.3-1.2-.5-1.4 1.1-1.8 1.5-.4 2.1-.2 3.2 1.1l3.8 4.7c1.4 1.7 2.9 3.6 5.3 3.1 1.2-.3 3.1-1.5 2.8-2.6-.1-.3-.3-.4-.6-.4-.3.1-.6.3-.9.4-.2.1-.8.2-1.2-.3-3.2-3.7-7-8-7-8.2-.1-.3.7-.9 1.4-1.8.7-1 1.3-2.5.8-4.7-.4-1.6-2.1-6.2-8.8-4.6-2 .5-4.1 1.1-6.1 1.6-1.9.5-2.2.4-3.6.7-.4.1-.6.3-.6.7.3 1.2 3.3-.8 4.2 3l3.6 15.1zm0-16.6c-.5-2 .5-2.3 1.6-2.5 3.1-.7 5.4 1.4 6.2 4.7.5 2 .8 3.9-3.9 5.1-.9.2-2 .5-2.2-.4l-1.7-6.9z"/>
  <path fill="#703D29" d="M405.5 490.8c1 4-2.8 3.3-2.5 4.6.2.7.7.6 1.2.4 1.2-.3 2.2-.7 4.2-1.2s3.1-.6 4.3-1c.9-.2 1.5-.3 1.3-1.1-.2-.9-3.9 1-4.9-3.1l-3.9-15.2c-.4-1.6-.2-1.9 1.1-2.2l2.6-.7c3.5-1 3.4 3 4.7 2.6.8-.2.1-1.4-.1-1.8l-1.1-3c-.1-.3-.2-.8-.7-.7-2.8.7-4.8 1.4-9.3 2.5-4.4 1.1-6.5 1.5-9.3 2.3-.5.1-.3.6-.3.9l.7 4.6c.1.5.1 1.2.7 1.1 1.4-.4-.7-4.5 2.7-5.4l2.6-.7c1.2-.3 1.6-.2 2 1.4l4 15.7z"/>
  <path fill="#703D29" d="M421.5 469.4c-.9-3.2 1.7-2.6 1.4-3.7-.1-.4-.3-.4-1.2-.2-1.7.5-2.8.9-3.9 1.2-1.1.3-2.3.5-3.5.8-.3.1-1.1.2-.9.8.3 1.2 3.5-.7 4.3 2.3l4.5 16.1c.9 3.2-1.5 2.9-1.2 4.1 0 .2.2.4.4.3.8-.2 2-.7 3.3-1.1 2.4-.7 3.5-.8 4.6-1.1.7-.2.9-.4.8-.8-.3-1.1-3.3 1.4-4.4-2.7l-4.2-16z"/>
  <path fill="#703D29" d="M431.2 474.1c-1.6-4.8-1.6-9.8 3.3-11.6 3.8-1.3 8.7 1.3 11.2 8.6 1.8 5.5 1.7 10.5-3.4 12.3-5.3 1.8-9.5-4.5-11.1-9.3zm-3 3.1c2.2 6.7 7.8 9.8 13.7 7.8 9.5-3.2 8.6-11.9 7-16.5-2.3-7-8.2-9.8-14-7.8-7 2.5-9.1 9.2-6.7 16.5z"/>
  <path fill="#703D29" d="M455.8 474.7c1.6 4.1-1.2 3.9-.8 5 .3.6.8.3 1.1.2 1.5-.6 2.9-1.3 4.4-1.9 1.2-.5 2.1-.7 2.6-.9.7-.3.8-.6.7-.8-.5-1.2-2.8 1.3-4.2-2.2l-2.2-5.6c-.4-1.1-.7-1.3.8-1.9 1.5-.6 2.1-.5 3.3.7l4.5 4.2c1.6 1.5 3.4 3.2 5.7 2.3 1.2-.5 2.8-1.9 2.4-2.9-.1-.3-.4-.4-.6-.3-.3.1-.5.4-.8.5-.2.1-.8.3-1.3-.1-3.7-3.3-8-7-8.1-7.2-.1-.3.6-.9 1.2-2 .5-1.1.9-2.6.1-4.7-.6-1.5-3-5.8-9.4-3.3-2 .8-3.9 1.7-5.8 2.4-1.8.7-2.1.7-3.5 1.2-.4.1-.6.4-.5.7.5 1.2 3.2-1.3 4.6 2.3l5.8 14.3zm-2.3-16.4c-.8-1.9.1-2.3 1.2-2.7 2.9-1.2 5.5.6 6.8 3.8.8 1.9 1.3 3.8-3.1 5.5-.9.3-2 .8-2.3 0l-2.6-6.6z"/>
  <path fill="none" stroke="#703D29" stroke-width="1.8422" stroke-miterlimit="3.8637" d="M511.3 384.3c-4.6-4.3-9.4-10.2-14-18.8-2.4-4.6-4-8.9-5-13.1-.8-3.2-1.3-6.4-1.5-9.7-.2-5.6.4-11.4 1.8-18.1 2.3-11.1 6.4-19.6 11.9-26.4 1.9-2.3 4-5.2 6.1-6.5"/>
  <path fill="none" stroke="#703D29" stroke-width="1.8422" stroke-miterlimit="3.8637" d="M518.5 367.9c-1.3-1-2.6-1.9-3.8-3.2-7.1-7.5-12.5-18.5-12.6-31.1-.1-12.1 4.8-24.4 10.4-29.2"/>
  <path fill="none" stroke="#703D29" stroke-width="1.6446" stroke-miterlimit="3.8637" d="M501.3 330.6l.4-4.7 1.5-7.4 2.2-5.8 2.5-4.7 3.2-3.9"/>
  <path fill="none" stroke="#703D29" stroke-width="2.5313" stroke-miterlimit="3.8636" d="M524 404.5c1.5.6 2.9 1.1 4.2 1.4 4.2 1.2 8.1 1.3 11.5.3 8.3-2.5 13.6-10.2 9.3-20.2-1-2.3-2.9-4.6-5.1-6.2"/>
  <path fill="none" stroke="#703D29" stroke-width="1.8422" stroke-miterlimit="3.8637" d="M545.4 381.5c.1-.7.2-1.4.2-2.1 0-3.4-1.4-6.5-3.8-8.6-.8-.7-1.6-1.8-2.5-2.3"/>
  <path fill="none" stroke="#703D29" stroke-width="1.8422" stroke-miterlimit="3.8637" d="M540.7 369.9c-.1-5.4-4.6-9.3-10.1-10.3"/>
  <path fill="none" stroke="#703D29" stroke-width="1.8422" stroke-miterlimit="3.8637" d="M512.9 304.8c2.9 3.8 8.5 4.8 12.8 3.7 3.3-.9 5.7-2.9 7.3-5.7 1.7-3.1 2.3-7.1 1.1-10.9-.5-1.7-1.2-3.2-2.5-4.8-1.2-1.6-2.8-3.4-4-4.2-.3-.2-.6-.5-1-.7"/>
  <path fill="none" stroke="#703D29" stroke-width="1.6446" stroke-miterlimit="3.8637" d="M533.8 294.2l-.4 4.6-1.3 3.1-2 3-2.3 1.7-3.6 1.3-3.1.2-2.3-.3"/>
  <path fill="none" stroke="#C7B37F" stroke-width="1.6446" stroke-miterlimit="3.8637" d="M520.9 289.8c.6.7 1.1 1 1.5 1.8.4.7.6 1.2.7 2 .1.8.2 1.2 0 2-.2.7-.5 1.1-.8 1.7"/>
  <path fill="none" stroke="#703D29" stroke-width="1.8422" stroke-linecap="round" stroke-miterlimit="3.8637" d="M527.3 394c.2.3 1.1.4 1.4.6 4.1 2.5 12.3-.6 9.9-7"/>
  <path fill="#C7B37F" d="M526.6 388.8c0-3.2 2.7-5.7 6.1-5.7 3.3 0 6.1 2.6 6.1 5.7 0 3.2-2.7 5.7-6.1 5.7-3.4 0-6.1-2.5-6.1-5.7z"/>
  <path fill="#C7B37F" d="M503.4 259c0-2.5 2-4.6 4.5-4.6s4.5 2.1 4.5 4.6c0 2.5-2 4.6-4.5 4.6s-4.5-2.1-4.5-4.6z"/>
  <path fill="#C7B37F" d="M500.2 193.9c0-1.4 1.5-2.6 3.3-2.6s3.3 1.2 3.3 2.6c0 1.4-1.5 2.6-3.3 2.6s-3.3-1.2-3.3-2.6z"/>
  <path fill="none" stroke="#703D29" stroke-width="1.8422" stroke-miterlimit="3.8637" d="M506.6 70.5c7.4.6 14.3 8.5 14.2 16.4-.1 11.3-3.9 16-12.9 27.1-7.7 9.6-30.8 26.4-30.2 42.5.1 2.9 1.6 5.8 3.4 8.2"/>
  <path fill="#C7B37F" d="M482.3 161.8c0-3 2.1-5.5 4.6-5.5 2.6 0 4.6 2.5 4.6 5.5s-2.1 5.5-4.6 5.5c-2.5 0-4.6-2.5-4.6-5.5z"/>
  <path fill="none" stroke="#C7B37F" stroke-width=".9571" stroke-miterlimit="3.8636" d="M482.3 161.8c0-3 2.1-5.5 4.6-5.5 2.6 0 4.6 2.5 4.6 5.5s-2.1 5.5-4.6 5.5c-2.5 0-4.6-2.5-4.6-5.5z"/>
  <path fill="none" stroke="#703D29" stroke-width="1.6446" stroke-miterlimit="3.8637" d="M477 153.7l1-4.9 2.2-4.6 2.8-4.6 4.9-6.2 3.9-4.3 6.2-6.3 5.4-5.4 3.4-4 4.5-5.4 4-6 2.4-5 1.3-6.3.4-8-.8-2.3"/>
  <path fill="none" stroke="#703D29" stroke-width="1.8422" stroke-miterlimit="3.8637" d="M497.4 170.4c2.3-7.7-.5-15.8-8-15.6"/>
  <path fill="none" stroke="#703D29" stroke-width="1.8422" stroke-miterlimit="3.8637" d="M471.9 174.8c1.6 1.6 3.6 3 6 4 4.2 1.9 9 .9 12.4-.8"/>
  <path fill="none" stroke="#703D29" stroke-width="1.8422" stroke-miterlimit="3.8637" d="M490.5 57.5c9.4 0 17.5 10.4 17.5 21.1 0 12.3-6.6 19.9-11.4 25.6-3.9 4.6-8.1 8.7-13 13.7"/>
  <path fill="none" stroke="#703D29" stroke-width="1.8422" stroke-linecap="round" stroke-miterlimit="3.8637" d="M479.4 47.6c3.2 1.5 6 4 8.1 7.1 3.9 5.8 4.9 10.7 4.6 17.9-.5 12.3-9.3 20.9-17.3 26.1"/>
  <path fill="none" stroke="#C7B37F" stroke-width="1.8422" stroke-linecap="round" stroke-miterlimit="3.8637" d="M471.4 99.1c1.4-1.1 2.3-1.4 3.7-2.7 1.2-1.1 2-1.6 3.2-2.8 1.2-1.2 1.9-2 2.9-3.3 1.1-1.4 1.5-2.3 2.5-3.7"/>
  <path fill="none" stroke="#703D29" stroke-width="1.8422" stroke-linecap="round" stroke-miterlimit="3.8637" d="M460.9 47.6c.6.6 1.3 1.2 1.9 1.9 5.4 6.4 5.8 15.8 4.5 21.1-1.9 7.9-4.5 11.3-10.9 16"/>
  <path fill="none" stroke="#C7B37F" stroke-width="1.8422" stroke-linecap="round" stroke-miterlimit="3.8637" d="M452.7 87.7c1.5-1.5 2.5-2.3 3.8-3.9 1.3-1.5 2-2.5 3-4.2.9-1.4 1.2-2.3 2-3.8"/>
  <path fill="none" stroke="#703D29" stroke-width="1.8422" stroke-linecap="round" stroke-miterlimit="3.8637" d="M441.6 44.4c7.7 5.8 10 15.8 7.4 26.2-1.8 7.4-6.5 11.8-12.3 15.3"/>
  <path fill="none" stroke="#C7B37F" stroke-width="1.8422" stroke-linecap="round" stroke-miterlimit="3.8637" d="M434.5 86.2c1.5-1.1 2.3-1.6 3.7-2.7 1-.8 1.6-1.3 2.5-2.3.8-.9 1.2-1.4 1.9-2.3.6-.9 1-1.5 1.5-2.5.6-1.2.9-1.9 1.4-3.3.5-1.2.5-1.7.8-2.7"/>
  <path fill="none" stroke="#703D29" stroke-width="1.8422" stroke-miterlimit="3.8637" d="M428.6 52c2.5 1.7 5 4.3 6.4 7.6 5.4 13.1-6.4 22.9-17.3 30.3-7.8 5.3-16.2 8.1-24.2 9.6"/>
  <path fill="none" stroke="#703D29" stroke-width="1.8422" stroke-miterlimit="3.8637" d="M416.1 77.2c-2.6 0-5.8-.8-9.2-4.4-.8-.8-1.7-1.9-2.1-2.9"/>
  <path fill="none" stroke="#703D29" stroke-width="1.8422" stroke-miterlimit="3.8637" d="M361.5 84.2c-1.4-.7-2.9-1.7-3.9-2.8-2.6-2.9-4.3-6.8-2.3-12.8 1.8-5.5 10.7-21 11.2-31.8.7-16.4-5.6-26.1-15.5-29.9"/>
  <path fill="none" stroke="#703D29" stroke-width="1.8422" stroke-linecap="round" stroke-miterlimit="3.8637" d="M365.7 33.2l-.4 6.2-1.7 6.3-3.2 8.6-2.4 5.5-2.6 5.5-1.3 3.9-.5 2.8.4 2.7"/>
  <path fill="none" stroke="#703D29" stroke-width="1.8422" stroke-linecap="round" stroke-miterlimit="3.8637" d="M469.2 205.7c.9 2.7 2.4 3.6 4.4 5.6 4.2 4.4 10.3 8.1 18 10.3 7.1 2 13.5.5 18.4-2.6"/>
  <path fill="none" stroke="#C7B37F" stroke-width="1.4949" stroke-miterlimit="3.8636" d="M489.8 212.2c1.4.8 2 1.6 3.6 2.2 1.3.4 2.1.4 3.4.6 1.2.1 1.8.2 3 .2 1.4 0 2.1 0 3.5-.2 1.1-.1 1.7-.3 2.8-.6 1-.3 1.6-.4 2.5-.8 1-.4 1.6-.8 2.5-1.3 1.1-.6 1.8-.9 2.9-1.5"/>
  <path fill="none" stroke="#C7B37F" stroke-width="2.3926" stroke-miterlimit="3.8636" d="M509.4 232.9c1.4-.8 2.3-1.1 3.6-2 1.4-.9 2.1-1.6 3.3-2.7 1-.9 1.5-1.5 2.4-2.6 1-1.3 1.5-2 2.3-3.4.8-1.3 1.2-2.1 1.9-3.5.9-1.9 1.2-3.1 2-5.1"/>
  <path fill="none" stroke="#C7B37F" stroke-width="1.4949" stroke-miterlimit="3.8636" d="M475.4 262.6c.5.3.7.4 1.2.7.7.4 1.1.6 1.8.9 1.4.6 2.2.7 3.6 1.1"/>
  <path fill="none" stroke="#C7B37F" stroke-width="1.8422" stroke-linecap="round" stroke-miterlimit="3.8637" d="M476.2 301.3c1.4-1.6 2.2-2.6 3.7-4.2 1.7-1.8 2.8-2.6 4.5-4.3"/>
  <path fill="none" stroke="#C7B37F" stroke-width="1.8422" stroke-linecap="round" stroke-miterlimit="3.8637" d="M478 305.3l9.6-13.1"/>
  <path fill="none" stroke="#C7B37F" stroke-width="1.8422" stroke-linecap="round" stroke-miterlimit="3.8637" d="M472 369.6c.9 1.3 1.4 2.1 2.4 3.3 1 1.2 1.6 1.8 2.8 2.8 1.9 1.8 3.3 2.5 5.4 4.1"/>
  <path fill="#C7B37F" d="M479.4 442.4c-1-4 .9-7.8 4.3-8.7s6.9 1.7 7.8 5.6c1 4-.9 7.8-4.3 8.7-3.3.9-6.8-1.7-7.8-5.6z"/>
  <path fill="none" stroke="#C7B37F" stroke-width="1.1961" stroke-miterlimit="3.8636" d="M479.4 442.4c-1-4 .9-7.8 4.3-8.7s6.9 1.7 7.8 5.6c1 4-.9 7.8-4.3 8.7-3.3.9-6.8-1.7-7.8-5.6z"/>
  <path fill="none" stroke="#C7B37F" stroke-width="1.8422" stroke-linecap="round" stroke-miterlimit="3.8637" d="M501.8 361.8c.4 1.2 1.4 2.9 1.9 4.1.5 1.2 1.2 1.8 1.7 2.8.5.9 1.2 1.6 1.9 2.4.9 1.1 1.6 2 2.8 3"/>
  <path fill="none" stroke="#C7B37F" stroke-width="1.8422" stroke-linecap="round" stroke-miterlimit="3.8637" d="M502.4 401.4c1.6.6 2.6.9 4.1 1.6 1.2.5 1.8.9 3 1.5 1.1.6 1.7.9 2.8 1.6 1.2.8 1.9 1.2 3.1 2 1.5 1.1 2.2 1.8 3.6 2.9"/>
  <path fill="none" stroke="#703D29" stroke-width="1.8422" stroke-linecap="round" stroke-miterlimit="3.8637" d="M464.8 443c.5 1.2 1.7 2.4 1.7 2.4 1.9 3.2 9.2 8.7 15.9 8.8 11 .1 13.7-7.6 13.9-9.3 1.4-8.4-1.5-10.7-5.8-13.1 0 0-2.5-1.3-5.6-.8"/>
  <path fill="none" stroke="#703D29" stroke-width="1.6446" stroke-miterlimit="3.8637" d="M482.8 454.3l4.7-1 3.6-1.8 2-2 1.3-2.3 1-3.6v-2.5"/>
  <path fill="none" stroke="#703D29" stroke-width="1.8422" stroke-miterlimit="3.8637" d="M43.8 406.2c-3.9 1-7.6 1-10.8.1-8.3-2.5-14.9-10.4-11.5-20.2"/>
  <path fill="none" stroke="#703D29" stroke-width="1.6446" stroke-miterlimit="3.8637" d="M33.9 405.6l3.5.3 4.5-.3 4.5-1.6"/>
  <path fill="none" stroke="#703D29" stroke-width="1.8422" stroke-linecap="round" stroke-miterlimit="3.8637" d="M34.5 376.7c3.6-.1 7.2 2.4 9.6 6.5.5.8 1.2 2.6 1.2 4.5 0 2.6-1.1 5.3-3 6.4-4.2 2.7-11.6 1.5-11.3-5.9"/>
  <path fill="#C7B37F" d="M31.1 387.6c0-3.6 2.3-6.5 5.2-6.5 2.8 0 5.2 2.9 5.2 6.5s-2.3 6.5-5.2 6.5c-2.9 0-5.2-2.9-5.2-6.5z"/>
  <path fill="none" stroke="#C7B37F" stroke-width=".9571" stroke-miterlimit="3.8637" d="M31.1 387.6c0-3.6 2.3-6.5 5.2-6.5 2.8 0 5.2 2.9 5.2 6.5s-2.3 6.5-5.2 6.5c-2.9 0-5.2-2.9-5.2-6.5z"/>
  <path fill="none" stroke="#703D29" stroke-width="1.8422" stroke-miterlimit="3.8637" d="M57 280.6c14.4 2.7 28.2 20 32.7 38.9 1.6 6.6 3.7 21.2.7 35.1-3.2 14.8-9.6 25.1-17.1 32.8-1.8 1.8-3.8 3.6-6.2 5.3l-3.1 2.1"/>
  <path fill="none" stroke="#703D29" stroke-width="1.8422" stroke-miterlimit="3.8637" d="M60.5 293.2c.8.8 1.1 2.1 1.2 3.1 1.3 10.7-8 13.9-14.7 12.1-3.3-.9-7.3-3.9-8.8-6.6-1.1-2-1.8-4.3-1.8-6.7"/>
  <path fill="none" stroke="#703D29" stroke-width="1.6446" stroke-miterlimit="3.8637" d="M61 297.4l-.6 4-1 1.9-1.3 1.7-1.9 1.5-2.1.9-2.8.4-1.9.2"/>
  <path fill="none" stroke="#C7B37F" stroke-width="1.8422" stroke-linecap="round" stroke-miterlimit="3.8637" d="M50.6 288.3c-1.1.5-1.7.9-2.5 1.7-.8.8-.9 1.1-1.5 2.4-.4 1-.5 2.1-.7 3.5"/>
  <path fill="none" stroke="#703D29" stroke-width="1.8422" stroke-miterlimit="3.8637" d="M41 359.5c5.9 0 11.1 5.7 11.1 11.7 0 3-1.1 5.7-3 7.6"/>
  <path fill="none" stroke="#703D29" stroke-width="1.8422" stroke-miterlimit="3.8637" d="M37 366.4c6.2 0 12 5.9 12 12.2 0 3.6-1.7 6.8-4.3 8.9"/>
  <path fill="none" stroke="#C7B37F" stroke-width="1.8422" stroke-linecap="round" stroke-miterlimit="3.8637" d="M59.7 373.9c1-1.2 1.6-1.9 2.6-3.1.8-1 1.3-1.6 2-2.7.6-1 .9-1.6 1.5-2.7.8-1.5 1.2-2.3 2-3.8"/>
  <path fill="none" stroke="#C7B37F" stroke-width="1.8422" stroke-linecap="round" stroke-miterlimit="3.8637" d="M64.1 402.2c-1.7.8-2.8 1.1-4.4 2-1.3.7-2 1.1-3.2 1.9-1.4.9-2.3 1.4-3.6 2.4-1.4 1-2.2 1.7-3.6 2.8"/>
  <path fill="none" stroke="#C7B37F" stroke-width="1.8422" stroke-linecap="round" stroke-miterlimit="3.8637" d="M92.9 300.9c-.9-1-1.4-1.5-2.4-2.5s-1.5-1.6-2.6-2.5c-1-.9-1.7-1.3-2.8-2.1"/>
  <path fill="none" stroke="#703D29" stroke-width="1.8422" stroke-linecap="round" stroke-miterlimit="3.8637" d="M93.4 304.5c5.7 7.6 9.4 14.1 11.1 22.5"/>
  <path fill="none" stroke="#703D29" stroke-width="1.8422" stroke-linecap="round" stroke-miterlimit="3.8637" d="M104.4 351.8c-.9 4.2-2.4 8.1-4.2 11.8-2.4 4.7-6.5 10-10.4 13.5"/>
  <path fill="none" stroke="#703D29" stroke-width="1.8422" stroke-miterlimit="3.8637" d="M104.5 290.6c-1.9 6.4-6 10.8-10.5 13.6"/>
  <path fill="none" stroke="#703D29" stroke-width="1.8422" stroke-miterlimit="3.8637" d="M94.3 260.3c5.4 4.3 8.7 8.7 10.3 13.9"/>
  <path fill="none" stroke="#703D29" stroke-width="1.8422" stroke-miterlimit="3.8637" d="M100.7 226c1.7 1.5 2.8 3.2 3.6 5.1"/>
  <path fill="none" stroke="#703D29" stroke-width="1.8422" stroke-linecap="round" stroke-miterlimit="3.8637" d="M94.3 259.5c-2.1 1.9-4.2 3-6.1 3.8"/>
  <path fill="none" stroke="#C7B37F" stroke-width="1.8422" stroke-miterlimit="3.8637" d="M94.1 262.1c-1.4.6-2.1 1.1-3.6 1.6-1.7.5-2.8.8-4.4.9"/>
  <path fill="none" stroke="#703D29" stroke-width="1.8422" stroke-linecap="round" stroke-miterlimit="3.8637" d="M104.7 246.1c-1.4 5-4.7 8.7-9.8 13.4"/>
  <path fill="none" stroke="#703D29" stroke-width="1.8422" stroke-miterlimit="3.8637" d="M101 206.3c1.5 1.1 2.7 2.4 3.4 3.8"/>
  <path fill="none" stroke="#703D29" stroke-width="1.8422" stroke-linecap="round" stroke-miterlimit="3.8637" d="M104.8 220c-.9 2.2-2.5 4.6-4.5 6.9-5.6 6.2-15.1 11.6-25.6 11.7-5.7.1-11.6-1.1-17.6-5.1-6.4-4.3-10.5-10.3-11.9-16.3"/>
  <path fill="none" stroke="#C7B37F" stroke-width="1.8422" stroke-linecap="round" stroke-miterlimit="3.8637" d="M45.2 213.9c.5 1.7.6 2.7 1.2 4.3.8 2.1 1.5 3.1 2.7 5 1.3 1.9 2.1 3 3.7 4.6 1.4 1.4 2.4 2.1 4.1 3.2 1.6 1.1 2.6 1.4 4.3 2.3"/>
  <path fill="none" stroke="#703D29" stroke-width="1.8422" stroke-miterlimit="3.8637" d="M97.7 175.6c3.2 2.7 5.7 6.2 6.9 9.9"/>
  <path fill="none" stroke="#703D29" stroke-width="1.8422" stroke-linecap="round" stroke-miterlimit="3.8637" d="M104.7 198.8c-2.6 8.5-10.3 19.1-25.1 22.9-7.1 1.8-16.2-.5-19.4-3.1"/>
  <path fill="none" stroke="#C7B37F" stroke-width="1.8422" stroke-linecap="round" stroke-miterlimit="3.8637" d="M58.3 216.3c1.4.8 2.1 1.3 3.6 1.9 1.3.6 2.1.8 3.6 1.1 1.9.4 3 .6 5 .6 2.1 0 2.8 0 5.4-.4"/>
  <path fill="none" stroke="#703D29" stroke-width="1.8422" stroke-miterlimit="3.8637" d="M52.8 196.8c.8 7.7 5.9 13.5 15.7 13.6 13.7.3 22.1-19.7 9.9-33.8"/>
  <path fill="none" stroke="#703D29" stroke-width="1.8422" stroke-linecap="round" stroke-miterlimit="3.8637" d="M68.2 209.4l6.3-1.6 3.7-2.8 2.4-3.4 2.1-5.3.8-4.3"/>
  <path fill="#C7B37F" d="M60.3 190c.8-2.7 3.6-4.3 6.3-3.5 2.7.8 4.3 3.6 3.5 6.3-.8 2.7-3.6 4.3-6.3 3.5-2.7-.8-4.2-3.6-3.5-6.3z"/>
  <path fill="none" stroke="#C7B37F" stroke-width=".9571" stroke-miterlimit="3.8637" d="M60.3 190c.8-2.7 3.6-4.3 6.3-3.5 2.7.8 4.3 3.6 3.5 6.3-.8 2.7-3.6 4.3-6.3 3.5-2.7-.8-4.2-3.6-3.5-6.3z"/>
  <path fill="none" stroke="#C7B37F" stroke-width="1.6446" stroke-miterlimit="3.8637" d="M54 189l-5.2 1.8-4.5 2.8-3 2.6-3.3 4.2-1.7 3.1-2 5.1-1.4 4.8-1.1 6-.2 3"/>
  <path fill="none" stroke="#C7B37F" stroke-width="1.8422" stroke-miterlimit="3.8637" d="M65.9 183.1c-6-3.2-15.7-2.8-25.3 3.3-1.5 1-3.1 2.2-4.6 3.5-1.6 1.4-2.9 2.9-4.2 4.6-1.4 1.9-3.1 5-4.1 7.1-1.4 2.9-2 4.8-2.8 7.7-2.2 8.3-2.2 16-1.9 18.3.3 2.8.6 5.4 1.1 7.8 1.6 8.2 3.9 13.9 6.4 18.1 1 1.7 2.6 4.1 4.9 6.6"/>
  <ellipse fill="#C7B37F" cx="61.5" cy="258.1" rx="5" ry="5.4"/>
  <path fill="none" stroke="#703D29" stroke-width="1.8422" stroke-linecap="round" stroke-miterlimit="3.8637" d="M21.9 263.8c2 2.5 4.4 4.8 6.8 6.8 4.9 4.1 10.7 7.7 17.3 9.6"/>
  <path fill="none" stroke="#703D29" stroke-width="1.8422" stroke-linecap="round" stroke-miterlimit="3.8637" d="M61.4 281.6c12.3-1.5 19.2-10.6 17.8-21.3-1-8.1-8.5-14.4-13.6-14.8"/>
  <path fill="none" stroke="#703D29" stroke-width="1.6446" stroke-miterlimit="3.8637" d="M78.3 262.4l-1 6.3-1.3 2.8-2.5 3.5-3.4 2.6-3.5 1.7-6.7 1.7"/>
  <path fill="none" stroke="#703D29" stroke-width="1.8422" stroke-miterlimit="3.8637" d="M104.7 168c-1.9 5.4-5.3 9.2-10.7 11.7-5.4 2.4-11.6.2-15-2.4"/>
  <path fill="none" stroke="#703D29" stroke-width="1.6446" stroke-miterlimit="3.8637" d="M104.5 165l-1.3 3.8-1.6 2.8-2.2 3-3 2.8-3.7 1.7-3 .7-1.9-.1"/>
  <path fill="none" stroke="#703D29" stroke-width="1.8422" stroke-miterlimit="3.8637" d="M81.4 154.7c5.3-.2 8.3 4.6 8.3 8.7"/>
  <path fill="none" stroke="#703D29" stroke-width="1.8422" stroke-linecap="round" stroke-miterlimit="3.8637" d="M90.7 159.6c-1 3.7-3 8.4-8.9 7.9"/>
  <ellipse fill="#C7B37F" cx="81.9" cy="161.7" rx="5.5" ry="6"/>
  <ellipse fill="none" stroke="#C7B37F" stroke-width=".9571" stroke-miterlimit="3.8637" cx="81.9" cy="161.7" rx="5.5" ry="6"/>
  <path fill="none" stroke="#703D29" stroke-width="1.6446" stroke-miterlimit="3.8637" d="M88.9 161.6l.1 2.9"/>
  <path fill="none" stroke="#703D29" stroke-width="1.8422" stroke-linecap="round" stroke-miterlimit="3.8637" d="M80.1 81.6c2.9 7.6 8.6 13.6 14.7 17"/>
  <path fill="none" stroke="#C7B37F" stroke-width="1.8422" stroke-linecap="round" stroke-miterlimit="3.8637" d="M96.9 101c-2.3-1.4-3.8-2-6-3.5-2.3-1.6-3.5-2.5-5.5-4.4-1.4-1.4-2.2-2.2-3.4-3.8-1-1.4-1.4-2.3-2.4-3.8"/>
  <path fill="none" stroke="#C7B37F" stroke-width="1.8422" stroke-linecap="round" stroke-miterlimit="3.8637" d="M101.6 72.1c.7 2 .9 3.1 1.9 5 1.3 2.5 2.2 3.9 4.2 5.9 2.6 2.9 4.9 3.7 8 6.1"/>
  <path fill="none" stroke="#C7B37F" stroke-width="1.8422" stroke-linecap="round" stroke-miterlimit="3.8637" d="M119.8 71.9c.7 1.8.9 2.8 1.9 4.5.8 1.5 1.4 2.3 2.4 3.6 1.4 1.7 2.2 2.5 3.9 3.8 2 1.5 3.3 2 5.5 3.3"/>
  <path fill="#C7B37F" d="M145.8 66.7c-.3-3 1.5-5.6 4-5.9 2.5-.3 4.8 1.9 5.1 4.9.3 3-1.5 5.6-4 5.9-2.5.3-4.8-1.9-5.1-4.9z"/>
  <path fill="none" stroke="#703D29" stroke-width="1.8422" stroke-linecap="round" stroke-miterlimit="3.8637" d="M515.3 188.9c5 6.9 1.7 20.4-11.9 20.7-5.3.1-10.1-2.9-13-7.3"/>
  <path fill="none" stroke="#703D29" stroke-width="1.8422" stroke-miterlimit="3.8637" d="M69.2 185c-5.6-5.5-17.6-7-29.5.6-1.5 1-3.1 2.2-4.6 3.5-1.6 1.4-2.9 2.9-4.2 4.6-1.4 1.9-3.1 5-4.1 7.1-1.4 2.9-2 4.8-2.8 7.7-2.2 8.3-2.2 16-1.9 18.2.3 2.8.6 5.4 1.1 7.8 1.6 8.2 4 13.9 6.5 18 2.6 4.4 9.2 14.4 22.5 15.7 5.2.5 14.2-1.9 14.5-8.7"/>
  <path fill="none" stroke="#703D29" stroke-width="1.8422" stroke-linecap="round" stroke-miterlimit="3.8637" d="M413.6 64.1c.9-4.8 6.7-5.8 8.9-2.9 3.4 4.4 1.1 11.9-5.7 14-2.3.7-7.7.4-11.2-4.1-2.8-3.6-2.6-8.2-1.6-11.8.7-2.3 2.5-4.3 5-6.2 7.9-6 20.8-4.6 25 5.5 5.4 13.1-6.4 22.9-17.3 30.3-13.7 9.3-29.3 11-41.1 10.9-26.7-.3-47-13.1-60.2-20.3-3.1-1.7-6.2-1.3-7.8.6-1.8 2.2-1.8 5.7.7 8"/>
  <path fill="none" stroke="#703D29" stroke-width="1.8422" stroke-linecap="round" stroke-miterlimit="3.8637" d="M419 59.6c2.8.1 3.6 1.2 4.5 2.4 3.4 4.4.9 11.9-5.9 14.1"/>
  <circle fill="#C7B37F" cx="312.1" cy="85" r="5.6"/>
  <path fill="#C7B37F" d="M413.6 65.2c.5-2.8 2.8-4.7 5.2-4.3 2.4.4 3.9 3 3.4 5.8s-2.8 4.7-5.2 4.3c-2.4-.4-3.9-3-3.4-5.8z"/>
  <path fill="none" stroke="#703D29" stroke-width="2.0932" stroke-linecap="round" stroke-miterlimit="3.8636" d="M270.1 72.3c4.5 3.4 7.7 7.7 7.1 14.5-.6 7.4-2.4 9.2-8.2 13.2"/>
  <path fill="none" stroke="#703D29" stroke-width="1.8422" stroke-miterlimit="3.8637" d="M465.9 99.3v46"/>
  <path fill="none" stroke="#703D29" stroke-width="2.0932" stroke-linecap="round" stroke-miterlimit="3.8636" d="M276.1 88.9c-.3 4.5-2.1 7.4-6.6 9.2"/>
  <path fill="#703D29" d="M324.8 48.2c-.2-4.9-5-5.5-6.9-5.5-5.4 0-6.8 3.4-13.6 7-8.4 4.5-12 5.5-19.5 5.6-7.5-.1-11.2-1.1-19.6-5.6-6.7-3.6-7.9-6.9-13.2-6.9-2.9 0-6.7 2.5-6.6 7.2 0 0-.1 1.5.2 2.5.1.4.6.3.7.6-.1-2.2.4-3.4 1.5-4.9 1.4-1.9 3.8-2.5 4.7-2.5 5.4 0 7.4 3.5 14.1 7.1 8.4 4.5 12 5.5 19.5 5.6 7.5-.1 11.2-1.1 19.6-5.6 6.7-3.6 8.6-7.4 14-7.4 1.9 0 3.2 1.2 3.8 3.1.4 1.2.2 2 .3 2.4.1.2.3.2.4.4.2-.7.7-1 .6-3.1z"/>
  <path fill="none" stroke="#703D29" stroke-width=".5163" stroke-miterlimit="3.8636" d="M324.8 48.2c-.2-4.9-5-5.5-6.9-5.5-5.4 0-6.8 3.4-13.6 7-8.4 4.5-12 5.5-19.5 5.6-7.5-.1-11.2-1.1-19.6-5.6-6.7-3.6-7.9-6.9-13.2-6.9-2.9 0-6.7 2.5-6.6 7.2 0 0-.1 1.5.2 2.5.1.4.6.3.7.6-.1-2.2.4-3.4 1.5-4.9 1.4-1.9 3.8-2.5 4.7-2.5 5.4 0 7.4 3.5 14.1 7.1 8.4 4.5 12 5.5 19.5 5.6 7.5-.1 11.2-1.1 19.6-5.6 6.7-3.6 8.6-7.4 14-7.4 1.9 0 3.2 1.2 3.8 3.1.4 1.2.2 2 .3 2.4.1.2.3.2.4.4.2-.7.7-1 .6-3.1z"/>
  <path fill="none" stroke="#703D29" stroke-width="1.9435" stroke-linecap="round" stroke-miterlimit="3.8636" d="M166.3 67c0 5-3.7 8.2-8.7 9.2"/>
  <path fill="none" stroke="#703D29" stroke-width="1.8422" stroke-miterlimit="3.8637" d="M53.8 189.9c-4.4 1.5-10 4.3-14.1 10.1-3.5 4.9-5.5 11.7-6.7 17.7-.5 2.6-1.2 10.9.5 19.4 1.2 6.3 3.8 12.2 6.7 16.4 1 1.5 2 2.6 3 3.6s2.3 1.8 3.3 2.6"/>
  <path fill="none" stroke="#703D29" stroke-width="1.8422" stroke-miterlimit="3.8637" d="M55.5 187.3c-4.6 1.2-12.2 3.6-17.4 11-3.5 4.9-5.5 11.7-6.7 17.7-.5 2.6-1.2 10.9.5 19.4 1.2 6.3 3.8 12.2 6.7 16.4 1 1.5 2 2.8 3 3.9 3.8 3.8 7.3 6.1 13.1 4.9"/>
  <path fill="none" stroke="#703D29" stroke-width="1.9435" stroke-linecap="round" stroke-miterlimit="3.8636" d="M53.5 188.6c-5.5 3.4-9.7 4.2-14 9.2-5 5.8-6.1 10.8-6.6 18.2"/>
  <path fill="none" stroke="#703D29" stroke-width="1.8422" stroke-linecap="round" stroke-miterlimit="3.8637" d="M469.6 226.4c-10.2 11.1-.8 30.1 6.8 34.4 2.6 2 3.8 1 5.9 2.2"/>
  <path fill="none" stroke="#703D29" stroke-width="1.8422" stroke-miterlimit="3.8637" d="M470.1 205.2c-3.3 2.3-4.5 4.9-4.6 9.5-.1 3.8.6 8 4.1 11.7 5.5 5.8 16.4 10.8 26.9 10.9 5.7.1 11.6-1.1 17.6-5.1 6.4-4.3 9.7-10 11.2-15.7"/>
  <path fill="#C7B37F" d="M464.4 396.7s0 4.5-.4 7.3c-1.1 8.1-2.4 12.8-6.1 20.2-3.6 7.2-6.5 10.9-12.2 16.5-5.8 5.7-9.8 8.3-17 11.9-7 3.5-11.5 4.6-19.2 6.4-7.7 1.7-12.2 2.1-20 2.5-7.2.3-11.3 0-18.5-.5-7.7-.5-12-1.6-19.7-2.3-6.4-.6-9.9-1.1-16.3-1.1-6.6 0-10.3.1-16.8 1.2-6 1.1-9.4 1.9-15.1 4.2-7.8 3.2-16.7 8.7-18.6 11.2-1.9-2.5-10.7-8-18.6-11.2-5.7-2.3-9.1-3.1-15.1-4.2-6.5-1.1-10.2-1.2-16.8-1.2-6.4 0-10 .5-16.3 1.1-7.7.7-12 1.8-19.7 2.3-7.2.5-11.3.8-18.5.5-7.9-.4-12.4-.7-20-2.5-7.7-1.7-12.1-2.9-19.2-6.4-7.2-3.6-11.2-6.2-17-11.9-5.7-5.6-8.6-9.4-12.2-16.5-3.7-7.3-5-12-6.1-20.2-.4-2.8-.4-7.2-.4-7.3V99.9H464v296.8h.4z"/>
  <path fill="none" stroke="#703D29" stroke-width="1.8422" stroke-miterlimit="3.8637" d="M464.4 396.7s0 4.5-.4 7.3c-1.1 8.1-2.4 12.8-6.1 20.2-3.6 7.2-6.5 10.9-12.2 16.5-5.8 5.7-9.8 8.3-17 11.9-7 3.5-11.5 4.6-19.2 6.4-7.7 1.7-12.2 2.1-20 2.5-7.2.3-11.3 0-18.5-.5-7.7-.5-12-1.6-19.7-2.3-6.4-.6-9.9-1.1-16.3-1.1-6.6 0-10.3.1-16.8 1.2-6 1.1-9.4 1.9-15.1 4.2-7.8 3.2-16.7 8.7-18.6 11.2-1.9-2.5-10.7-8-18.6-11.2-5.7-2.3-9.1-3.1-15.1-4.2-6.5-1.1-10.2-1.2-16.8-1.2-6.4 0-10 .5-16.3 1.1-7.7.7-12 1.8-19.7 2.3-7.2.5-11.3.8-18.5.5-7.9-.4-12.4-.7-20-2.5-7.7-1.7-12.1-2.9-19.2-6.4-7.2-3.6-11.2-6.2-17-11.9-5.7-5.6-8.6-9.4-12.2-16.5-3.7-7.3-5-12-6.1-20.2-.4-2.8-.4-7.2-.4-7.3V99.9H464v296.8h.4z"/>
  <path fill="#E20025" d="M123 117.9h153.4V271H123z"/>
  <path fill="none" stroke="#703D29" stroke-width="1.4886" stroke-miterlimit="3.8636" d="M123 117.9h153.4V271H123z"/>
  <path fill="#FFFFFF" d="M216.1 235.8l-4.7-1.2-6.5-.6-.5 4.4s.1 5.5 1.6 9.9c1.7 5.1 1.8 5.1 3.4 7.5 2.2 3.3 4.8 5.8 7.1 7.3 3.7 2.3 7.4 3.5 11.1 3.2 10.3-.9 15-12 17.3-21 2.5-9.6 9.5-14.8 13.9-11.3 2.6 2 2.8 5.4.6 8.7-2.3 3.5-7.7 5.2-7.7 5.2l5.5 7s11.8-1.5 14.1-13.8c.9-4.6-.4-14.2-9.1-15.9-10.2-2-15.5 3.6-18.6 9.5-4.2 8.2-6.7 23.4-18.3 21-6.3-1.3-9.3-10.4-9.3-14.7l.1-5.2z"/>
  <path fill="#FFFFFF" d="M194.9 238.5s-.1 5.5-1.6 9.9c-1.7 5.1-1.8 5.1-3.4 7.5-2.2 3.3-4.8 5.8-7.1 7.3-3.7 2.3-7.4 3.5-11.1 3.2-10.3-.9-15-12-17.3-21-2.5-9.6-9.5-14.8-13.9-11.3-2.6 2-2.8 5.4-.6 8.7 2.3 3.5 7.7 5.2 7.7 5.2l-5.5 7s-11.8-1.5-14.1-13.8c-.9-4.6 1.4-13.3 9.1-15.9 9.9-3.3 16.2 3.7 19.3 9.7 4.2 8.2 6 23.2 17.6 20.9 6.3-1.3 9.3-10.4 9.3-14.7l4.6-4.9 6.8 2.2h.2z"/>
  <path fill="#FFEA0F" d="M213.4 173.4l20.1-21.7s3-2.4 3-6.4l-4.1.6-.9-2.1-.2-2.1 5.6-1.2c.1-.9 0-1.6.2-2.6.1-.9.4-1.4.6-2.3l-6.1.4c.3-1.1.2-1.6.6-2.6.3-.8.4-1.2.9-2.1 1.1-.2 2.2-.4 3.6-.6 1.4-.1 2.1-.1 3.5-.2 3.3-6.2 17.2-11.9 27-1.7 7.1 7.4 5.6 20.9-3.6 24.5-5.2 2-9.4.8-12.8-2.1l3.7-7.2c5.1 3 9.3-.7 9-4.7-.4-5-3.6-8-8.1-8.4-4.2-.4-7.2 2-9.1 5.8-1.2 2.3-.6 4-1 6.5-.4 2.8-.2 4.3-1 7.1-.6 2-2.2 4.5-4.4 6.7l-20.6 22.3-80.2 86.7-6-5.6 80.3-87z"/>
  <path fill="#FFFFFF" d="M154.4 181s5 25 22.2 62.4c8.7-3.2 13.9-5.2 23.1-5.2 9.2 0 14.4 1.7 23.1 5.2C239.9 206 245 181 245 181l-45.2-58.2-45.4 58.2z"/>
  <path fill="#FFEA0F" d="M204.2 142.5l31.3 40.4s-4.2 19.6-16.9 49.2c-4.9-1.1-9.1-2.1-14.4-2.4v-87.2z"/>
  <path fill="#FFEA0F" d="M195.3 142.5l-31.4 40.4s4.2 19.6 16.9 49.2c4.9-1.1 9.2-2.1 14.4-2.5l.1-87.1z"/>
  <path fill="#FFEA0F" d="M292.7 117.9h153.4V271H292.7z"/>
  <path fill="none" stroke="#703D29" stroke-width="1.4886" stroke-miterlimit="3.8636" d="M292.7 117.9h153.4V271H292.7z"/>
  <path fill="#FFEA0F" d="M445.6 403.8c-.4 2.8-1.4 7.5-4 12.3-2.8 4.4-1.7 4.2-8 11.2-3.1 3.4-7.9 6.4-11.6 8.4-3.8 2-6.6 3-12.8 4.7-12.2 3.2-20.7 3.4-30.9 3-8-.3-14.1-1.3-19.1-2-7.2-1-12.6-1.5-20.8-1.9-4-.2-7.7-.2-11.5 0-4.5.2-8.9.9-13.6 1.9-10.2 2-20.6 5.9-20.6 5.9l.1-159.9h153.4v109.3c-.1 0-.4 5.3-.6 7.1z"/>
  <path fill="none" stroke="#703D29" stroke-width="1.4886" stroke-miterlimit="3.8636" d="M445.6 403.8c-.4 2.8-1.4 7.5-4 12.3-2.8 4.4-1.7 4.2-8 11.2-3.1 3.4-7.9 6.4-11.6 8.4-3.8 2-6.6 3-12.8 4.7-12.2 3.2-20.7 3.4-30.9 3-8-.3-14.1-1.3-19.1-2-7.2-1-12.6-1.5-20.8-1.9-4-.2-7.7-.2-11.5 0-4.5.2-8.9.9-13.6 1.9-10.2 2-20.6 5.9-20.6 5.9l.1-159.9h153.4v109.3c-.1 0-.4 5.3-.6 7.1z"/>
  <path fill="#0065BD" d="M332.9 332.5c-1.5-.4-3.7-1.5-3.7-1.5.6-.5 1.1-.5 1.6-1 .7-.8.7-1.5 1.1-2.5.4-1 .3-1.8 1.3-2.5.5-.4 1.4-.5 2.1-.3.7.2 1.4.7 1.6 1.4.3 1-.3 1.7-.5 2.7-.2 1.1-.5 1.7-.4 2.7.1.7.4 1 .7 1.7 0 0-2.3-.3-3.8-.7z"/>
  <path fill="#0065BD" d="M331.1 334.2c0-.6.5-1.2 1.2-1.2.6 0 1.2.5 1.2 1.2s-.5 1.2-1.2 1.2-1.2-.5-1.2-1.2z"/>
  <path fill="#0065BD" d="M327.8 303.4s-.2-.1-.3-.2c-.7-.6-.8-1.2-1.1-2.1-.3-.8-.5-1.3-.6-2.2-.1-.8 0-1.2 0-2 0-.7.1-1.1 0-1.8s-.1-1.1-.4-1.8c-.2-.3-.7-.6-.6-.8.2-.2.5 0 .8 0 .7.1 1.2.3 1.8.8.7.6 1 1.1 1.3 2 .3 1 .5 1.7.8 2.7.2.6.2.9.5 1.4.3.5.6.7 1 1.2-.6.6-.8 1-1.4 1.6-.7.6-1.2.9-1.8 1.2z"/>
  <path fill="#E20025" d="M412.9 323.3c0 1.3-.1 2.9 0 5.4.1 2.3-.4 3.6-.2 5.1.1 1 .4 1.5 1.3 2.8 1.6 2.4 3.3 2.9 2 6.9-.9 2.6-.4 1.9-.8 3.1-.4 1.4-.3 1.7-.8 3.5-.4 1.6-.8 4.9-1.2 8.4-.1.6-.1.9-.1 1.2-.2.6-.7.5-1.5.6-.9.1-.5 1.9-.8 3.1l-.7.7-3-.8-2.1-.7.3-1.9c.4-.3.7-.4 1.1-.7 1.1-.9 1.6-1.6 2.2-2.9.6-1.4.6-2.3.9-3.7.3-1.7.7-2.6.6-4.3-.1-1.4-.8-2.1-1-3.5-.2-1.2.3-2-.1-3.1-.5-1.4.5-1.2-2.3-2.6 0 0 .2 1.1.4 1.8.1.5.4.8.4 1.3 0 .8-.6 1.1-1 1.7-1 1.3-2 1.5-3.1 2.7-2.6 2.5-4 4.1-5.6 7.3-.5 1-.5 2.2-1.2 2.7-.5.5-1.2.3-1.9.4-.6.1-1.1.3-1.4.8-.3.4-.5.8-.4 1.4l-.8.5-2.4-.4-2.7-1 .4-1.9c1.8-1.4 2.6-.5 3.9-1.6.8-.6 1.1-1.1 1.7-2 .5-.6.6-1.1 1.1-1.7.4-.5.7-.7 1.1-1.2.9-1.1 1.3-1.8 2-2.9.6-1 1-1.5 1.4-2.5.2-.7.4-1.1.5-1.8.1-.6.1-1 .1-1.5-.4.2-1.5.5-1.9.7v1.5c-.1.6 0 1.2-.6 1.6-.3.2-.6.3-1 .2-.5-.1-.7-.4-.9-.8-.2-.4 0-.7-.1-1.2v-.9c-.6.1-1 .1-1.6.1-.7 0-.9 0-1.6-.1 0 .2.1 1.1 0 1.3-.1.6 0 1-.5 1.4-.4.3-.8.4-1.3.3-.3-.1-.5-.3-.7-.5-.3-.4-.2-.8-.2-1.4v-1.8c-1.9-.7-3.6-1.7-5.1-3 0 0-1.1.4-1.4.4-6.6 1.4-11.5 1.6-17.5.7-.2 1.6-.3 2.8-.7 4.6-.4 1.6-1 2.5-1.3 4.1-.2 1.1-.3 1.8-.3 2.9-.1 2 0 3 .3 5.1.2 1.2.4 1.9.5 3.1.1.8.2.9-.1 1.4-.3.4-1-.1-1.7.2-.4.2-.7.5-.9 1-.2.4-.3.7-.3 1.2l-1.3-.1-2.4-.6-2.1-.9.2-1.9c.7-.5 1.3-.6 1.8-1.3.5-.7.7-1.1.8-2 .2-1.3.3-2 .4-3.3.1-1.4 0-2.2 0-3.5 0-.5-.2-.7-.4-1.2-.2-.4-.3-.7-.5-1.1-.6-.9-.2-4.6-.3-6.6 0-.5-.1-.9-.2-1.3l-.7.2c-.6.1-1.1.2-2.3-.1-1.6-.5-2.1-.8-2.7-.7-.7.1-1.3 0-1.8-.2-1.6 1.6-2.1 1.8-3.7 3.4-.6.5-.8.8-.7 1.4.4 1.9 1.9 2.1 3 3.4.6.7 1.7 1.2 1.2 2-.4.6-1.2.5-1.3 1.2-.1.6.1 1 .5 1.4l-.1 1.7-1.2 2.2-1.2 1.2-1.8-.7c-.1-1.5-.2-2.3-.6-3.7-.4-1.5-.8-2.4-1.5-3.7-1.3-2.4-1.8-2.8-2.9-4.5-1.7-2.9-.8-2.9.6-5.1 1.1-1.8 2.3-2.4 3.7-4-.7-1.2-1-2.4-2.2-2.8-.6-.2-1.6-2.4-2.7-6-.1-.3 0-1 .1-1.6.1-.2.2-.4.3-.7l-4-1.8c.4-.3.8-.5 1.2-.8-.5.1-.8-.1-1.4 0-.5.1-.7.2-1.2.3-.7.1-1.2 0-1.9-.2-.9-.2-1.5-.4-2.3-.8-1.1-.5-1.6-1.1-2.7-1.6-1.4-.6-2.3-.5-3.8-.9-.8.1-1.4.1-2.4-.2-.5-.2-.6-.9-1-1.5-.2-.4-1.2-2.1-1.5-2.7-.2-.4-.2-.7-.4-1.1.5-.3.7-1.1 1.4-1.3.4-.1.7 0 1.1-.1.3-.1.4-.2.7-.3.9-.5 1.2-1.1 2-1.9.8-.7 1.3-1.1 2-1.9.5-.6.9-1 1.2-1.7.3-.7 0-1.3.5-1.9.3-.4.7-.5 1.1-.8.9-.6 1.5-.8 2.3-1.6.6-.5.9-.9 1.4-1.6.4-.2 1.1-.5 1.1-.5 2.6.4 3.5.8 5.6 1.7 1.7.7 4.1 2.3 4.1 2.3.4-.4.9-.8 1.5-1.1.8-.4 1.4-.5 2.3-.6.7-.1 1.1-.1 1.8 0 .6.1 1.1.4 1.7.8-.6.6-.9 1.2-1.4 1.8-.6.7-.5 1.3-1 1.9-.8 1-1.1 1.4-2.7 1.9l4 1.3s3.6-.1 7.2-.3c6.9-.6 6.9-1.6 11.5-2 2.5-.2 6.6.7 10.8.6 3.6-.1 5.6-.4 9.2-.8 3.7-.4 5.8-1.2 9.5-1.4 3.1-.2 4.9-.1 8 .1 3 .2 4.9.1 7.7 1.1 1.8.6 3.6 1 5.1 2.7.4.5.8.9 1 1.5.2.6.5 1 .6 1.8.1.7.2 1.3.2 1.9 0 .9-.1 1.8-.6 2.7-1.4 3-2.2 3.4-4.4 4.6 0 .8-.2 1-.5 1.1z"/>
  <path fill="none" stroke="#FFEA0F" stroke-width="1.8422" stroke-linecap="round" stroke-miterlimit="3.8637" d="M414.4 323.8l-1.4.5c-1.6.8-2.9.8-4.9.9-4.9.4-8-2-13.1-1.6-2.6.2-3.8 2.2-6.5 2.9-1.2.3-1.9.4-3.2.5l1-1.9s-2.4.5-3.9.5c-1.1 0-1.7-.1-2.8-.2l1.9-1.8s-1.5-.2-2.4-.6c-.8-.4-1.3-.6-2-1.2 1.2-.2 1.9-.4 3.2-.7 2.9-.7 3.8-2.1 7.3-2.5 2.1-.2 5.7-.1 14.3 1.3 5.7.9 8.2.5 10.3-.5 1.4-.6 1.9-1.9 2.1-3.3s-.8-2.6-1.6-3.4c-.2-.2-.8-.6-2.1-.7"/>
  <path fill="#FFEA0F" d="M332.3 307.1c-1-.1-1.7 0-2.5.5-.9.6-1 1.3-1.7 2.1.8.2 1.3.7 2.1.5.6-.2 1-.4 1.4-.9.6-.7.8-1.3.8-2.2h-.1z"/>
  <path fill="none" stroke="#FFEA0F" stroke-width=".9571" stroke-miterlimit="3.8636" d="M332.3 307.1c-1-.1-1.7 0-2.5.5-.9.6-1 1.3-1.7 2.1.8.2 1.3.7 2.1.5.6-.2 1-.4 1.4-.9.6-.7.8-1.3.8-2.2h-.1z"/>
  <path fill="none" stroke="#FFEA0F" stroke-width="1.8422" stroke-linecap="round" stroke-miterlimit="3.8637" d="M353.3 331.8s.5.9.8 1.5c.5 1 .7 1.6 1 2.7.4 1.5.2 2.4.4 3.9 0 .3.1.5.1.7l-.1 2.1"/>
  <path fill="none" stroke="#FFEA0F" stroke-width="1.8422" stroke-linecap="round" stroke-miterlimit="3.8637" d="M368.2 329.7s-.4 1.5-.7 2.5c-.7 2.5-1.3 3.9-1.8 6.5-.1.4-.1.8-.2 1.2"/>
  <path fill="#0065BD" d="M334.5 323.3l4.2 1.9c2.1-1.2 4.6-3.6 6.5-7.3 1.6-3.2 1.9-4.9 2.5-8.1l-3.3-1.1-.7.1c-1 3.2-1.3 5-3 7.8-1.5 2.4-3.2 4.3-4.9 5.7l-1.3 1z"/>
  <path fill="#E20025" d="M334.6 323.3v-.9h1.1l.9.6z"/>
  <path fill="#0065BD" d="M343.7 357.1c.7-.9 1-1.5 1.7-2.4.8-.9 1.5-1.3 2.4-2.1.3 0 .6 0 .9.1-.1 1-.1 1.8-.3 2.9-.2.9-.3 1.4-.6 2.3-.3.7-.3 1.2-.7 1.8-.3.4-.5.6-.9 1-1-1.4-2.5-2.5-2.5-3.6z"/>
  <path fill="#0065BD" d="M405.3 360.5c1.1.4 1.7.5 2.7 1 1.1.6 1.7 1.1 2.7 1.8.1.3.2.6.1.9-1 .2-1.7.4-2.9.5-.9.1-1.4 0-2.3 0-.8 0-1.2 0-2-.2-.5-.2-.7-.4-1.2-.6 1.3-1.3 1.8-3.1 2.9-3.4z"/>
  <path fill="#0065BD" d="M387.1 356.7c1.1.4 1.7.5 2.7 1 1.1.6 1.7 1.1 2.7 1.8.1.3.2.6.1.9-1 .2-1.7.4-2.9.5-.9.1-1.4.1-2.3 0-.8 0-1.2 0-2-.2-.5-.2-.7-.4-1.2-.6 1.3-1.3 1.8-3.1 2.9-3.4z"/>
  <path fill="#0065BD" d="M354.7 360.7c1.1.4 1.7.5 2.7 1 1.1.6 1.7 1.1 2.7 1.8 0 .3.2.6.1.9-1 .2-1.7.4-2.9.5-.9.1-1.4.1-2.3 0-.8 0-1.2 0-2-.2-.5-.2-.7-.4-1.2-.6 1.3-1.3 1.8-3.1 2.9-3.4z"/>
  <path fill="#0065BD" d="M338 305.1c-1.1-.5-2-1.9-1.2-3 .3-.4.8-.3 1.1-.7.4-.5.3-.9.3-1.6 0-.7-.3-1.1-.4-1.8-.1-.8-.3-1.2-.3-2 0-1.2-.1-2 .6-2.9.5-.6 1.2-1.1 1.5-1.1.3.3-.1.9-.1 1.5.1.9.2 1.3.5 2.2.4 1 .9 1.5 1.3 2.5s.7 1.5.8 2.5c0 .9 0 1.4-.4 2.2-.3.7-.6 1.1-1.1 1.6-.5.4-.9.6-1.5.8-.4 0-.7 0-1.1-.2z"/>
  <path fill="none" stroke="#E20025" stroke-width=".9571" stroke-miterlimit="3.8636" d="M324.2 320.2c1.4-.1 2.1-.3 3.5-.4.9 0 1.4.1 2.2.1.8 0 1.3.2 2.1.1.9-.1 1.4-.4 2.2-.8.6-.3.9-.5 1.4-.9.6-.5.9-.8 1.5-1.4.6-.6 1-.9 1.6-1.4"/>
  <path fill="none" stroke="#E20025" stroke-width="1.8422" stroke-linecap="round" stroke-miterlimit="3.8637" d="M342.3 336.5c.7.8 1.6 1.6 3 2.1"/>
  <path fill="none" stroke="#FFEA0F" stroke-width="1.8422" stroke-linecap="round" stroke-miterlimit="3.8637" d="M345.3 332.5c1.5.3 1 6.3 3.3 7.6"/>
  <path fill="none" stroke="#FFEA0F" stroke-width="1.8422" stroke-miterlimit="3.8637" d="M398.2 342.9l.7-.5c1.9-.8 3.6-1.9 5-3.3"/>
  <path fill="none" stroke="#FFEA0F" stroke-width="1.8422" stroke-linecap="round" stroke-miterlimit="3.8637" d="M383.8 339.6s0 0 0 0c6.6-1.7 11-4.9 14.2-5.4"/>
  <path fill="none" stroke="#FFEA0F" stroke-width="1.8422" stroke-linecap="round" stroke-miterlimit="3.8637" d="M390.5 331.4c.6 0 1.1-.1 1.5-.1 2.7-.4 3.2 1.3 5.1 2.3 3.5 1.9 3.9 4.3 8 6.3l.6.3 1.6.8"/>
  <path fill="#E20025" d="M388.6 331.5l2.8 2.8 4.4-.5s-.9-.9-1.5-1.4c-.3-.2-.4-.4-.8-.5-.3-.1-.4 0-.7-.1-.5 0-.7 0-1.2-.1-.7 0-1-.1-1.7-.1-.5 0-.8 0-1.2-.1h-.1z"/>
  <path fill="#E20025" d="M411.7 313.4c-.2-.4-.5-.5-.9-.7-.7-.4-2-.5-2-.5l-.5 3.3 3.6-.9c0-.1 0-.9-.2-1.2z"/>
  <path fill="#E20025" d="M402.1 327.4l.8-1.8c-.7-.1-1.1-.2-1.8-.4-.8-.2-1.3-.4-2.1-.5-.9-.2-1.4-.3-2.3-.4-.8-.1-1.3-.3-2.1-.2-.7.1-1 .3-1.6.6-.7.4-1.1.7-1.8 1.1-.8.5-1.3.8-2.2 1.1-.8.3-1.3.4-2.1.6-1.5.4-2.3.5-3.8.7l4.2 1.6 14.8-2.4z"/>
  <path fill="#E20025" d="M383.5 328.4l1.8-2.9s-1.8.4-3 .5c-2.2.2-3.4.1-5.7 0l.5 3.2 3.6 1.6 2.8-2.4z"/>
  <path fill="#E20025" d="M378.9 321.8s1.8-.4 2.9-.8c.9-.4 1.4-.7 2.4-1.1.6-.3 1-.4 1.6-.6.8-.2 1.3-.3 2.2-.4.9-.1 1.4 0 2.2.1 1.3.1 2 .2 3.2.3 1.2.1 1.8.3 3 .4 1.1.2 1.8.3 2.9.5 1.9.4 3 .6 5 .9 1.6.2 2.5.3 4 .3 1.1 0 1.8-.1 2.9-.3l-1.1 1.8-10.4-.9-10.9-.6-7.9.8h-1.4l-.6-.4z"/>
  <path fill="#FFEA0F" d="M319 314.5c.5.1.8.1 1.3.1.6-.1.9-.4 1.5-.5.5 0 .9-.1 1.3.2.3.2.4.4.5.6.2.3.3.5.2.9-.1.5-.6.8-1.1.8-.4 0-.8-.1-1-.5-.1-.3-.2-.5-.1-.7-.5.2-.9.2-1.4 0-.5-.2-.9-.4-1.2-.9z"/>
  <path fill="none" stroke="#FFEA0F" stroke-width=".9571" stroke-miterlimit="3.8636" d="M319 314.5c.5.1.8.1 1.3.1.6-.1.9-.4 1.5-.5.5 0 .9-.1 1.3.2.3.2.4.4.5.6.2.3.3.5.2.9-.1.5-.6.8-1.1.8-.4 0-.8-.1-1-.5-.1-.3-.2-.5-.1-.7-.5.2-.9.2-1.4 0-.5-.2-.9-.4-1.2-.9z"/>
  <path fill="#0065BD" d="M332.9 400.8c-1.5-.4-3.7-1.5-3.7-1.5.6-.5 1.1-.5 1.6-1 .7-.8.7-1.5 1.1-2.5.4-1 .3-1.8 1.3-2.5.5-.4 1.4-.5 2.1-.3.7.2 1.4.8 1.6 1.4.3 1-.3 1.7-.5 2.7-.2 1.1-.5 1.7-.4 2.7.1.7.4 1 .7 1.7 0 0-2.3-.3-3.8-.7z"/>
  <path fill="#0065BD" d="M331.1 402.5c0-.6.5-1.2 1.2-1.2s1.2.5 1.2 1.2-.5 1.2-1.2 1.2-1.2-.5-1.2-1.2z"/>
  <path fill="#0065BD" d="M327.8 371.7s-.2-.1-.3-.2c-.7-.6-.8-1.2-1.1-2.1-.3-.8-.5-1.3-.6-2.2-.1-.8 0-1.2 0-2 0-.7.1-1.1 0-1.8s-.1-1.1-.4-1.8c-.2-.3-.7-.6-.6-.8.2-.2.5 0 .8 0 .7.1 1.2.3 1.8.8.7.6 1 1.1 1.3 2 .3 1 .5 1.7.8 2.7.2.6.2.9.5 1.4.3.5.6.7 1 1.2-.6.6-.8 1-1.4 1.6-.7.6-1.2.9-1.8 1.2z"/>
  <path fill="#E20025" d="M412.9 391.6c0 1.3-.1 2.9 0 5.4.1 2.3-.4 3.6-.2 5.1.1 1 .4 1.5 1.3 2.8 1.6 2.4 3.3 2.9 2 6.9-.9 2.6-.4 1.9-.8 3.1-.4 1.4-.3 1.7-.8 3.5-.4 1.6-.8 4.9-1.2 8.4-.1.6-.1.9-.1 1.2-.2.6-.7.5-1.5.6-.9.1-.5 1.9-.8 3.1l-.7.7-3-.8-2.1-.7.3-1.9c.4-.3.7-.4 1.1-.7 1.1-.9 1.6-1.7 2.2-2.9.6-1.4.6-2.3.9-3.7.3-1.7.7-2.6.6-4.3-.1-1.4-.8-2.1-1-3.5-.2-1.2.3-2-.1-3.1-.5-1.4.5-1.2-2.3-2.6 0 0 .2 1.1.4 1.8.1.5.4.8.4 1.3 0 .8-.6 1.1-1 1.7-1 1.3-2 1.5-3.1 2.7-2.6 2.5-4 4.1-5.6 7.3-.5 1-.5 2.1-1.2 2.7-.5.5-1.2.3-1.9.4-.6.1-1.1.3-1.4.8-.3.4-.5.8-.4 1.4l-.8.5-2.4-.4-2.7-1 .4-1.9c1.8-1.4 2.6-.5 3.9-1.6.8-.6 1.1-1.1 1.7-2 .5-.6.6-1.1 1.1-1.7.4-.5.7-.7 1.1-1.2.9-1.1 1.3-1.8 2-2.9.6-1 1-1.5 1.4-2.5.2-.7.4-1.1.5-1.8.1-.6.1-1 .1-1.5-.4.2-1.5.5-1.9.7v1.5c-.1.6 0 1.2-.6 1.6-.3.2-.6.3-1 .2-.5-.1-.7-.4-.9-.8-.2-.4 0-.7-.1-1.2v-.9c-.6.1-1 .1-1.6.1-.7 0-.9 0-1.6-.1 0 .2.1 1.1 0 1.3-.1.6 0 1-.5 1.4-.4.3-.8.4-1.3.3-.3-.1-.5-.3-.7-.5-.3-.4-.2-.8-.2-1.4v-1.8c-1.9-.7-3.6-1.7-5.1-3 0 0-1.1.3-1.4.4-6.6 1.4-11.5 1.6-17.5.7-.2 1.6-.3 2.8-.7 4.6-.4 1.6-1 2.5-1.3 4.1-.2 1.1-.3 1.8-.3 2.9-.1 2 0 3 .3 5.1.2 1.2.4 1.9.5 3.1.1.8.2.9-.1 1.4-.3.4-1-.1-1.7.2-.4.2-.7.5-.9 1-.2.4-.3.7-.3 1.2l-1.3.5-2.4-.6-2.1-.9.2-1.9c.7-.5 1.3-.6 1.8-1.3.5-.7.7-1.1.8-2 .2-1.3.3-2 .4-3.3.1-1.4 0-2.2 0-3.5 0-.5-.2-.7-.4-1.2-.2-.4-.3-.7-.5-1.1-.6-.9-.2-4.6-.3-6.6 0-.5-.1-.9-.2-1.3l-.7.2c-.6.1-1.1.3-2.3-.1-1.6-.5-2.1-.8-2.7-.7-.7.1-1.3 0-1.8-.2-1.6 1.6-2.1 1.8-3.7 3.4-.6.5-.8.8-.7 1.3.4 1.9 1.9 2.1 3 3.4.6.7 1.7 1.2 1.2 2-.4.6-1.2.5-1.3 1.2-.1.6.1 1 .5 1.4l-.1 1.7-1.2 2.2-1.2 1.2-1.8-.7c-.1-1.5-.2-2.3-.6-3.7-.4-1.5-.8-2.4-1.5-3.7-1.3-2.4-1.8-2.8-2.9-4.5-1.7-2.9-.8-2.9.6-5.1 1.1-1.8 2.3-2.4 3.7-4-.7-1.2-1-2.4-2.2-2.8-.6-.2-1.6-2.4-2.7-6-.1-.3 0-1 .1-1.6.1-.2.2-.4.3-.7l-4-1.8c.4-.3.8-.5 1.2-.8-.5.1-.8-.1-1.4 0-.5.1-.7.2-1.2.3-.7.1-1.2 0-1.9-.2-.9-.2-1.5-.4-2.3-.8-1.1-.5-1.6-1.1-2.7-1.6-1.4-.6-2.3-.5-3.8-.9-.8.1-1.4.1-2.4-.2-.5-.2-.6-.9-1-1.5-.2-.4-1.2-2.1-1.5-2.7-.2-.4-.2-.7-.4-1.1.5-.3.7-1.1 1.4-1.3.4-.1.7 0 1.1-.1.3-.1.4-.2.7-.3.9-.5 1.2-1.1 2-1.9.8-.7 1.3-1.1 2-1.9.5-.6.9-1 1.2-1.7.3-.7 0-1.3.5-1.9.3-.4.7-.5 1.1-.8.9-.6 1.5-.8 2.3-1.6.6-.6.9-.9 1.4-1.6.4-.2 1.1-.5 1.1-.5 2.6.4 3.5.8 5.6 1.7 1.7.7 4.1 2.3 4.1 2.3.4-.4.9-.8 1.5-1.1.8-.4 1.4-.5 2.3-.6.7-.1 1.1-.1 1.8 0 .6.1 1.1.4 1.7.8-.6.6-.9 1.2-1.4 1.8-.6.7-.5 1.3-1 1.9-.8 1-1.1 1.4-2.7 1.9l4 1.3s3.6-.1 7.2-.3c6.9-.6 6.9-1.6 11.5-2 2.5-.2 6.6.7 10.8.6 3.6-.1 5.6-.4 9.2-.8 3.7-.4 5.8-1.2 9.5-1.4 3.1-.2 4.9-.1 8 .1 3 .2 4.9.1 7.7 1.1 1.8.6 3.6 1 5.1 2.7.4.5.8.9 1 1.5.2.6.5 1 .6 1.8.1.7.2 1.3.2 1.9 0 .9-.1 1.8-.6 2.7-1.4 3-2.2 3.4-4.4 4.6 0 .3-.2.5-.5.6z"/>
  <path fill="none" stroke="#FFEA0F" stroke-width="1.8422" stroke-linecap="round" stroke-miterlimit="3.8637" d="M414.4 392.1l-1.4.5c-1.6.8-2.9.8-4.9.9-4.9.4-8-2-13.1-1.6-2.6.2-3.8 2.2-6.5 2.9-1.2.3-1.9.4-3.2.5l1-1.9s-2.4.5-3.9.5c-1.1 0-1.7-.1-2.8-.2l1.9-1.8s-1.5-.2-2.4-.6c-.8-.3-1.3-.6-2-1.2 1.2-.2 1.9-.4 3.2-.7 2.9-.7 3.8-2.1 7.3-2.5 2.1-.2 5.7-.1 14.3 1.3 5.7.9 8.2.5 10.3-.5 1.4-.6 1.9-1.9 2.1-3.3.2-1.4-.8-2.6-1.6-3.4-.2-.2-.8-.6-2.1-.7"/>
  <path fill="#FFEA0F" d="M332.3 375.4c-1-.1-1.7 0-2.5.5-.9.6-1 1.3-1.7 2.1.8.2 1.3.7 2.1.5.6-.2 1-.4 1.4-.9.6-.7.8-1.3.8-2.2h-.1z"/>
  <path fill="none" stroke="#FFEA0F" stroke-width=".9571" stroke-miterlimit="3.8636" d="M332.3 375.4c-1-.1-1.7 0-2.5.5-.9.6-1 1.3-1.7 2.1.8.2 1.3.7 2.1.5.6-.2 1-.4 1.4-.9.6-.7.8-1.3.8-2.2h-.1z"/>
  <path fill="none" stroke="#FFEA0F" stroke-width="1.8422" stroke-linecap="round" stroke-miterlimit="3.8637" d="M353.3 396.9s.5.9.8 1.5c.5 1 .7 1.6 1 2.7.4 1.5.2 2.4.4 3.9 0 .3.1.5.1.7l-.1 2.1"/>
  <path fill="none" stroke="#FFEA0F" stroke-width="1.8422" stroke-linecap="round" stroke-miterlimit="3.8637" d="M368.2 398s-.4 1.5-.7 2.5c-.7 2.5-1.3 3.9-1.8 6.5-.1.4-.1.8-.2 1.2"/>
  <path fill="#0065BD" d="M334.5 391.6l4.2 1.9c2.1-1.2 4.6-3.6 6.5-7.3 1.6-3.2 1.9-4.9 2.5-8l-3.3-1.1-.7.1c-1 3.2-1.3 5.1-3 7.8-1.5 2.4-3.2 4.3-4.9 5.7l-1.3.9z"/>
  <path fill="#E20025" d="M334.6 391.6v-.8h1.1l.9.5z"/>
  <path fill="#0065BD" d="M343.7 425.4c.7-.9 1-1.5 1.7-2.4.8-.9 1.5-1.3 2.4-2.1.3 0 .6 0 .9.1-.1 1-.1 1.8-.3 2.9-.2.9-.3 1.4-.6 2.3-.3.7-.3 1.2-.7 1.8-.3.4-.5.6-.9 1-1-1.4-2.5-2.5-2.5-3.6z"/>
  <path fill="#0065BD" d="M405.3 428.8c1.1.4 1.7.5 2.7 1 1.1.6 1.7 1.1 2.7 1.8.1.3.2.6.1.9-1 .2-1.7.4-2.9.5-.9.1-1.4.1-2.3 0-.8 0-1.2 0-2-.2-.5-.2-.7-.4-1.2-.6 1.3-1.3 1.8-3.1 2.9-3.4z"/>
  <path fill="#0065BD" d="M387.1 425c1.1.4 1.7.5 2.7 1 1.1.6 1.7 1.1 2.7 1.8.1.3.2.6.1.9-1 .2-1.7.4-2.9.5-.9.1-1.4.1-2.3 0-.8 0-1.2 0-2-.2-.5-.2-.7-.4-1.2-.6 1.3-1.3 1.8-3.1 2.9-3.4z"/>
  <path fill="#0065BD" d="M354.7 429c1.1.4 1.7.5 2.7 1 1.1.6 1.7 1.1 2.7 1.8 0 .3.2.6.1.9-1 .2-1.7.4-2.9.5-.9.1-1.4.1-2.3 0-.8 0-1.2 0-2-.2-.5-.2-.7-.4-1.2-.6 1.3-1.3 1.8-3.1 2.9-3.4z"/>
  <path fill="#0065BD" d="M338 373.4c-1.1-.5-2-1.9-1.2-3 .3-.4.8-.3 1.1-.7.4-.5.3-.9.3-1.6 0-.7-.3-1.1-.4-1.8-.1-.8-.3-1.2-.3-2 0-1.2-.1-2 .6-2.9.5-.6 1.2-1.1 1.5-1.1.3.3-.1.9-.1 1.5.1.9.2 1.3.5 2.2.4 1.1.9 1.5 1.3 2.5s.7 1.5.8 2.5c0 .9 0 1.4-.4 2.2-.3.7-.6 1.1-1.1 1.6-.5.4-.9.6-1.5.8-.4 0-.7 0-1.1-.2z"/>
  <path fill="none" stroke="#E20025" stroke-width="1.8422" stroke-linecap="round" stroke-miterlimit="3.8637" d="M343.3 404.8c.7.8 1.6 1.6 3 2.1"/>
  <path fill="none" stroke="#FFEA0F" stroke-width="1.8422" stroke-linecap="round" stroke-miterlimit="3.8637" d="M345.3 400.8c1.5.3 1 6.3 3.3 7.6"/>
  <path fill="none" stroke="#FFEA0F" stroke-width="1.8422" stroke-miterlimit="3.8637" d="M398.2 411.2l.7-.5c1.9-.8 3.6-1.9 5-3.3"/>
  <path fill="none" stroke="#FFEA0F" stroke-width="1.8422" stroke-linecap="round" stroke-miterlimit="3.8637" d="M383.8 407.9s0 0 0 0c6.6-1.7 11-4.9 14.2-5.4"/>
  <path fill="none" stroke="#FFEA0F" stroke-width="1.8422" stroke-linecap="round" stroke-miterlimit="3.8637" d="M390.5 399.7c.6 0 1.1-.1 1.5-.1 2.7-.4 3.2 1.3 5.1 2.3 3.5 1.9 3.9 4.3 8 6.3l.6.3 1.6.8"/>
  <path fill="#E20025" d="M388.6 399.8l2.8 2.8 4.4-.5s-.9-.9-1.5-1.4c-.3-.2-.4-.4-.8-.5-.3-.1-.4 0-.7-.1-.5 0-.7 0-1.2-.1-.7 0-1-.1-1.7-.1-.5 0-.8 0-1.2-.1h-.1z"/>
  <path fill="#E20025" d="M411.7 381.7c-.2-.4-.5-.5-.9-.7-.7-.4-2-.5-2-.5l-.5 3.3 3.6-.9c0-.1 0-.8-.2-1.2z"/>
  <path fill="#E20025" d="M402.1 395.7l.8-1.8c-.7-.1-1.1-.2-1.8-.4-.8-.2-1.3-.4-2.1-.5-.9-.2-1.4-.3-2.3-.4-.8-.1-1.3-.3-2.1-.2-.7.1-1 .3-1.6.6-.7.4-1.1.7-1.8 1.1-.8.5-1.3.8-2.2 1.1-.8.3-1.3.4-2.1.6-1.5.4-2.3.5-3.8.7l4.2 1.6 14.8-2.4z"/>
  <path fill="#E20025" d="M383.5 396.7l1.8-2.9s-1.8.4-3 .5c-2.2.2-3.4.1-5.7 0l.5 3.2 3.6 1.6 2.8-2.4z"/>
  <path fill="#FFEA0F" d="M319 382.8c.5.1.8.1 1.3.1.6-.1.9-.4 1.5-.5.5 0 .9-.1 1.3.2.3.2.4.4.5.6.2.3.3.5.2.9-.1.5-.6.8-1.1.8-.4 0-.8-.1-1-.5-.1-.3-.2-.5-.1-.7-.5.2-.9.2-1.4 0-.5-.2-.9-.4-1.2-.9z"/>
  <path fill="none" stroke="#FFEA0F" stroke-width=".9571" stroke-miterlimit="3.8636" d="M319 382.8c.5.1.8.1 1.3.1.6-.1.9-.4 1.5-.5.5 0 .9-.1 1.3.2.3.2.4.4.5.6.2.3.3.5.2.9-.1.5-.6.8-1.1.8-.4 0-.8-.1-1-.5-.1-.3-.2-.5-.1-.7-.5.2-.9.2-1.4 0-.5-.2-.9-.4-1.2-.9z"/>
  <path fill="#FFEA0F" d="M123.5 403.8c.4 2.8 1.4 7.5 4 12.3 2.8 4.4 1.7 4.2 8 11.2 3.1 3.4 7.9 6.4 11.6 8.4 3.8 2 6.6 3 12.8 4.7 12.2 3.2 20.7 3.4 30.9 3 8-.3 14.1-1.3 19.1-2 7.2-1 12.6-1.5 20.8-1.9 4-.2 7.7-.2 11.5 0 4.5.2 8.9.9 13.6 1.9 10.2 2 20.5 5.9 20.5 5.9V287.4H122.9v109.3s.4 5.4.6 7.1z"/>
  <path fill="none" stroke="#703D29" stroke-width="1.4886" stroke-miterlimit="3.8636" d="M123.5 403.8c.4 2.8 1.4 7.5 4 12.3 2.8 4.4 1.7 4.2 8 11.2 3.1 3.4 7.9 6.4 11.6 8.4 3.8 2 6.6 3 12.8 4.7 12.2 3.2 20.7 3.4 30.9 3 8-.3 14.1-1.3 19.1-2 7.2-1 12.6-1.5 20.8-1.9 4-.2 7.7-.2 11.5 0 4.5.2 8.9.9 13.6 1.9 10.2 2 20.5 5.9 20.5 5.9V287.4H122.9v109.3s.4 5.4.6 7.1z"/>
  <path fill="#E20025" d="M141.3 430.3c2.4 1.6 4.9 3 7.2 4.2 3.7 2 5.4 2.2 9.9 3.8v-150h-17v142h-.1z"/>
  <path fill="none" stroke="#E20025" stroke-width=".9571" stroke-miterlimit="3.8636" d="M141.3 430.3c2.4 1.6 4.9 3 7.2 4.2 3.7 2 5.4 2.2 9.9 3.8v-150h-17v142h-.1z"/>
  <path fill="#E20025" d="M226.6 438.8V288.4h-17.1v151.8s11.7-1 17.1-1.4z"/>
  <path fill="none" stroke="#E20025" stroke-width=".9571" stroke-miterlimit="3.8636" d="M226.6 438.8V288.4h-17.1v151.8s11.7-1 17.1-1.4z"/>
  <path fill="#E20025" d="M260.6 288.4h-17v149.8c5.5.6 11.2 1.4 17 3V288.4z"/>
  <path fill="none" stroke="#E20025" stroke-width=".9571" stroke-miterlimit="3.8636" d="M260.6 288.4h-17v149.8c5.5.6 11.2 1.4 17 3V288.4z"/>
  <path fill="none" stroke="#703D29" stroke-width="1.8605" stroke-miterlimit="3.8636" d="M510.9 166.1c13.8-.3 53.9 10.5 54.2 57.6.3 46.5-28.7 54.1-40.3 57.2"/>
  <path fill="none" stroke="#703D29" stroke-width="1.9351" stroke-miterlimit="3.8636" d="M514.5 166.1c23.8-1 48.3 16.5 49.4 60.2.8 34.1-23.4 49.6-35 52.7"/>
  <path fill="#E20025" d="M314.7 118.2h21.9v150.7h-21.9z"/>
  <path fill="none" stroke="#E20025" stroke-width=".9571" stroke-miterlimit="3.8636" d="M314.7 118.2h21.9v150.7h-21.9z"/>
  <path fill="#E20025" d="M358.5 118.2h21.9v150.7h-21.9z"/>
  <path fill="none" stroke="#E20025" stroke-width=".9571" stroke-miterlimit="3.8636" d="M358.5 118.2h21.9v150.7h-21.9z"/>
  <path fill="#E20025" d="M402.3 118.2h21.9v150.7h-21.9z"/>
  <path fill="none" stroke="#E20025" stroke-width=".9571" stroke-miterlimit="3.8636" d="M402.3 118.2h21.9v150.7h-21.9z"/>
  <path fill="#E20025" d="M192.5 288.4v153.8c-.2 0-11.4.3-17.1-.3V288.4h17.1z"/>
  <path fill="none" stroke="#E20025" stroke-width=".9571" stroke-miterlimit="3.8636" d="M192.5 288.4v153.8c-.2 0-11.4.3-17.1-.3V288.4h17.1z"/>
</svg>
