<svg xmlns="http://www.w3.org/2000/svg" id="svg2" version="1.0" viewBox="0 0 200 245">
  <g id="g29142">
    <g id="g2771" stroke-opacity="1">
      <path id="path8169" d="M-.91905212 123.45547a64.333588 68.158401 0 11-128.66717788 0 64.333588 68.158401 0 11128.66717788 0z" transform="matrix(1.34977 0 0 1.30774 186.5232 -57.506136)" fill="#428cc5" fill-opacity="1" stroke="#000" stroke-width="1" stroke-miterlimit="4" stroke-dasharray="none" stroke-dashoffset="0"/>
      <path id="path5106" d="M198.05421 93.586309c.28927 3.17159.43722 6.385807.43722 9.635751 0 1.77451-.04411 3.53837-.11124 5.2372l-7.99157-.05136c-.25473 4.91992-.88688 9.27903-1.86752 13.96693l7.99001 1.4496c-1.0957 5.24946-2.5293 10.3269-4.25923 15.35352l-7.88865-2.63403c-1.60118 4.19292-3.49358 8.23821-5.65186 12.11011l6.98774 4.78185c-2.60878 4.69928-5.56942 9.16076-8.7556 13.45236l-6.63168-5.68251c-2.92124 3.6796-6.11327 7.12741-9.54515 10.31194l5.98713 6.34184c-3.68995 3.48511-7.63329 6.67835-11.73069 9.68019l-12.35058-19.17941c19.69545-14.66167 32.46042-38.12112 32.46042-64.54388 0-44.389008-36.02587-80.414868-80.414871-80.414868l.512103-21.4134363c3.097751-.346495 6.051648-.4339345 9.434408.2758001l-.06244 7.9912992c4.55256.446775 8.95829 1.037759 13.25395 1.936904l2.27853-7.999502c5.31787 1.0754823 10.48118 2.6041824 15.45123 4.5458765l-3.39756 7.5465385c4.27989 1.861177 8.54828 3.936589 12.6187 6.323052l4.43583-7.23616c4.8093 2.84981 9.35257 6.09333 13.59683 9.703747l-5.83041 6.044116c3.61254 3.058344 7.02409 6.369369 10.1689 9.929325l6.25223-5.270744c3.61967 3.947706 6.8487 8.335931 9.72102 12.985197l-6.8182 4.369407c2.36818 3.949732 4.5727 8.120122 6.45879 12.465375l7.57339-3.065888c1.95601 4.821595 3.66231 9.879993 4.97605 15.103071l-7.72965 2.076818c1.17121 4.594059 1.99822 9.297649 2.46338 14.108851l7.98038-.00512" fill="#4a4a4a" fill-opacity="1" stroke="#000" stroke-width="1" stroke-miterlimit="4" stroke-dashoffset="0"/>
      <path d="M93.513465 151.94606l-3.905968-52.385921" id="path8083" fill="none" fill-rule="evenodd" stroke="#000" stroke-width="1" stroke-linecap="butt" stroke-linejoin="miter"/>
      <path d="M97.419433 152.63535l.229763-88.228922" id="path8085" fill="none" fill-rule="evenodd" stroke="#000" stroke-width="1" stroke-linecap="butt" stroke-linejoin="miter"/>
      <path d="M104.31232 99.560139l-2.98692 55.602601" id="path8087" fill="none" fill-rule="evenodd" stroke="#000" stroke-width="1" stroke-linecap="butt" stroke-linejoin="miter"/>
      <path d="M117.4088 59.121884l-12.63696 93.513466" id="path8089" fill="none" fill-rule="evenodd" stroke="#000" stroke-width="1" stroke-linecap="butt" stroke-linejoin="miter"/>
      <path d="M118.09809 105.53397l-10.10957 49.39901" id="path8091" fill="none" fill-rule="evenodd" stroke="#000" stroke-width="1" stroke-linecap="butt" stroke-linejoin="miter"/>
      <path d="M135.56006 66.933819l-25.04415 88.918211" id="path8093" fill="none" fill-rule="evenodd" stroke="#000" stroke-width="1" stroke-linecap="butt" stroke-linejoin="miter"/>
      <path d="M75.13244 103.69587l11.258378 49.16924" id="path8095" fill="none" fill-rule="evenodd" stroke="#000" stroke-width="1" stroke-linecap="butt" stroke-linejoin="miter"/>
      <path d="M76.511017 58.892121L89.83726 152.63535" id="path8097" fill="none" fill-rule="evenodd" stroke="#000" stroke-width="1" stroke-linecap="butt" stroke-linejoin="miter"/>
      <path d="M57.440703 69.001685l25.27391 85.471765" id="path8099" fill="none" fill-rule="evenodd" stroke="#000" stroke-width="1" stroke-linecap="butt" stroke-linejoin="miter"/>
      <path d="M129.1267 116.10306l-15.16434 40.43826" id="path8101" fill="none" fill-rule="evenodd" stroke="#000" stroke-width="1" stroke-linecap="butt" stroke-linejoin="miter"/>
      <path d="M46.412088 154.70321l8.730987 8.96075" id="path8103" fill="none" fill-rule="evenodd" stroke="#000" stroke-width="1" stroke-linecap="butt" stroke-linejoin="miter"/>
      <path d="M37.221576 138.39005l19.529839 23.89534" id="path8105" fill="none" fill-rule="evenodd" stroke="#000" stroke-width="1" stroke-linecap="butt" stroke-linejoin="miter"/>
      <path d="M49.169242 146.66152L59.278806 159.758" id="path8107" fill="none" fill-rule="evenodd" stroke="#000" stroke-width="1" stroke-linecap="butt" stroke-linejoin="miter"/>
      <path d="M33.545371 118.40069l29.869166 42.27636" id="path8109" fill="none" fill-rule="evenodd" stroke="#000" stroke-width="1" stroke-linecap="butt" stroke-linejoin="miter"/>
      <path d="M49.858531 134.02456l17.232211 26.88225" id="path8111" fill="none" fill-rule="evenodd" stroke="#000" stroke-width="1" stroke-linecap="butt" stroke-linejoin="miter"/>
      <path d="M36.072762 100.24943l34.004896 59.2788" id="path8113" fill="none" fill-rule="evenodd" stroke="#000" stroke-width="1" stroke-linecap="butt" stroke-linejoin="miter"/>
      <path d="M54.68355 122.53642l18.610788 36.53229" id="path8115" fill="none" fill-rule="evenodd" stroke="#000" stroke-width="1" stroke-linecap="butt" stroke-linejoin="miter"/>
      <path d="M44.803749 84.16603l32.166794 74.67291" id="path8117" fill="none" fill-rule="evenodd" stroke="#000" stroke-width="1" stroke-linecap="butt" stroke-linejoin="miter"/>
      <path d="M62.725248 111.96733l17.002448 44.34422" id="path8119" fill="none" fill-rule="evenodd" stroke="#000" stroke-width="1" stroke-linecap="butt" stroke-linejoin="miter"/>
      <path d="M149.80535 81.408877l-33.54537 76.970543" id="path8121" fill="none" fill-rule="evenodd" stroke="#000" stroke-width="1" stroke-linecap="butt" stroke-linejoin="miter"/>
      <path d="M139.23627 121.15784l-20.4489 39.74897" id="path8123" fill="none" fill-rule="evenodd" stroke="#000" stroke-width="1" stroke-linecap="butt" stroke-linejoin="miter"/>
      <path d="M158.53634 98.181562l-35.61323 62.265718" id="path8125" fill="none" fill-rule="evenodd" stroke="#000" stroke-width="1" stroke-linecap="butt" stroke-linejoin="miter"/>
      <path d="M144.98034 131.26741l-19.07032 29.40964" id="path8127" fill="none" fill-rule="evenodd" stroke="#000" stroke-width="1" stroke-linecap="butt" stroke-linejoin="miter"/>
      <path d="M161.75302 114.49472l-35.38347 49.85853" id="path8129" fill="none" fill-rule="evenodd" stroke="#000" stroke-width="1" stroke-linecap="butt" stroke-linejoin="miter"/>
      <path d="M147.50773 141.8365l-16.31316 21.5977" id="path8131" fill="none" fill-rule="evenodd" stroke="#000" stroke-width="1" stroke-linecap="butt" stroke-linejoin="miter"/>
      <path d="M161.75302 130.34836l-26.42272 31.70726" id="path8133" fill="none" fill-rule="evenodd" stroke="#000" stroke-width="1" stroke-linecap="butt" stroke-linejoin="miter"/>
      <path d="M148.8863 150.79725l-13.78577 14.01553" id="path8135" fill="none" fill-rule="evenodd" stroke="#000" stroke-width="1" stroke-linecap="butt" stroke-linejoin="miter"/>
      <path d="M156.00895 147.3508l-17.00245 17.46198" id="path8137" fill="none" fill-rule="evenodd" stroke="#000" stroke-width="1" stroke-linecap="butt" stroke-linejoin="miter"/>
      <g id="g8066" fill-opacity="1" fill-rule="evenodd" stroke="#000" stroke-width="1" stroke-linecap="butt" stroke-linejoin="miter">
        <path id="path3136" d="M58.934162 149.53355l61.116908-48.13531 2.06787 2.5274-61.002032 47.44601c-2.182473 1.50859-3.234203-.71531-2.182746-1.8381z" fill="#894728"/>
        <path id="path3140" d="M122.5 98.211206c-1.67878.821365-2.70508 1.643021-2.437 2.680704l2.59947 3.4118 3.98043-1.7059-4.1429-4.386604z" fill="#fffbf7"/>
        <path id="path3138" d="M123.55603 104.54741l.32494 8.69198 8.04211 9.26061 5.03647-11.21021-6.41744-9.34185-4.22414-.16246c-.05565-2.327195-1.64996-4.090534-3.4118-3.73674-1.42634 1.110189.31635 3.92628 2.27453 5.03647l-1.62467 1.4622z" fill="#fffbf7"/>
      </g>
      <g id="g8059" fill-rule="evenodd" stroke="#000" stroke-width="1" stroke-linecap="butt" stroke-linejoin="miter">
        <path id="path3134" d="M122.69334 136.09243l-2.98691 5.39942c.09238 2.3021 1.64684 2.65476 3.56132 2.52739l9.42027 7.12265c4.3653 2.19016 8.07495-2.90651 5.16967-5.74407l-15.16435-9.30539z" fill="#894728" fill-opacity="1"/>
        <path id="path2161" d="M67.78003 92.667255c-1.633487 5.216742-7.153358 14.898295 2.527391 22.286995l49.169239 26.88225 3.10181-5.6292-41.472197-25.15902c-7.05721-4.53519-13.222021-9.61358-13.326243-18.381025z" fill="#fffbf7" fill-opacity="1"/>
        <path id="path5080" d="M123.72728 140.5728l1.14881.45953" fill="none"/>
        <path id="path5082" d="M128.89694 143.44484l1.37858.80417" fill="none"/>
        <path id="path5084" d="M134.0666 147.00616l1.03393.68929" fill="none"/>
      </g>
      <path id="path5104" d="M113.3480944 78.66697705L97.58159744 67.0846167 81.22394806 78.78388581l6.1433641-18.57397522L71.18585429 48.2681347l19.56330466.10301165 6.35695726-19.0796922 5.94742346 18.63764137 20.11027464.14987657L107.27621952 59.494656l6.07187488 19.17232106z" fill="#ffd600" fill-opacity="1" stroke="#000" stroke-width=".99999994" stroke-miterlimit="4" stroke-dasharray="none" stroke-dashoffset="0"/>
      <path id="path7078" d="M137.1614416 175.1392631a40.04569 25.01989462 0 11-80.09138 0 40.04569 25.01989462 0 1180.09138 0z" fill="#d65a52" fill-opacity="1" stroke="#000" stroke-width="1" stroke-miterlimit="4" stroke-dasharray="none" stroke-dashoffset="0"/>
      <path d="M11.616379 129.56731c-6.4525803-5.49879-8.4624888-18.9798-9.5855435-25.91346 2.0887028 3.82883 3.2946704 9.67533 6.7423741 10.39787l2.8431694 15.51559z" id="path11118" fill="#ffd600" fill-opacity="1" fill-rule="evenodd" stroke="#000" stroke-width="1" stroke-linecap="butt" stroke-linejoin="miter"/>
      <path d="M10.154178 128.34881c-.9972164-7.53229-3.1076764-13.95135-2.9244035-22.66413.3139655-3.51589 5.1685045-3.477 6.2549735-1.4622 3.302806 4.83802 4.685914 9.99598 6.823607 15.02818l-2.437002 21.68933-7.717175-12.59118z" id="path11116" fill="#c55221" fill-opacity="1" fill-rule="evenodd" stroke="#000" stroke-width="1" stroke-linecap="butt" stroke-linejoin="miter"/>
      <g id="g14469" transform="translate(52.730566 -.8041698)" fill-rule="evenodd" stroke="#000" stroke-width=".14851284" stroke-linecap="butt" stroke-linejoin="miter" stroke-miterlimit="4" stroke-dasharray="none">
        <path id="path12093" d="M-44.698483 105.24891c.261391-.29155.784174-.29155.965137 0 .180963.29155.020107.87465-.241284 1.1662-.261391.29156-.623318.29156-.804281 0-.180963-.29155-.180963-.87465.080428-1.1662z" fill="none"/>
        <path id="path13064" d="M-43.528758 104.63966c.261391-.29155.784174-.29155.965137 0 .180963.29155.020107.87465-.241284 1.1662-.261391.29156-.623318.29156-.804281 0-.180963-.29155-.180963-.87465.080428-1.1662z" fill="none"/>
        <path id="path13066" d="M-42.39149 104.39596c.261391-.29155.784174-.29155.965137 0 .180963.29155.020107.87465-.241284 1.1662-.261392.29156-.623318.29156-.804281 0-.180963-.29155-.180963-.87465.080428-1.1662z" fill="#894728" fill-opacity="1"/>
        <path id="path13068" d="M-41.254222 104.47719c.261392-.29155.784174-.29155.965137 0 .180963.29155.020107.87465-.241284 1.1662-.261391.29156-.623317.29156-.804281 0-.180963-.29155-.180963-.87465.080428-1.1662z" fill="none"/>
        <path id="path13070" d="M-43.788686 106.36586c.261391-.29155.784173-.29155.965136 0 .180963.29155.020107.87465-.241284 1.1662-.261391.29156-.623317.29156-.80428 0-.180964-.29155-.180964-.87465.080428-1.1662z" fill="none"/>
        <path id="path13072" d="M-42.618961 105.95969c.261391-.29155.784174-.29155.965136 0 .180963.29155.020107.87465-.241283 1.1662-.261391.29156-.623318.29156-.804282 0-.180963-.29155-.180963-.87465.080429-1.1662z" fill="#42342c" fill-opacity="1"/>
        <path id="path13074" d="M-41.359844 106.04093c.261391-.29155.784174-.29155.965137 0 .180963.29155.020107.87465-.241284 1.1662-.261392.29156-.623318.29156-.804281 0-.180962-.29155-.180962-.87465.080428-1.1662z" fill="none"/>
        <path id="path13076" d="M-40.141343 105.10674c.261392-.29155.784174-.29155.965137 0 .180963.29155.020107.87465-.241284 1.1662-.261391.29156-.623317.29156-.804281 0-.180963-.29155-.180963-.87465.080428-1.1662z" fill="none"/>
        <path id="path13078" d="M-45.031577 106.83297c.261393-.29155.784174-.29155.965137 0 .180963.29155.020107.87465-.241284 1.1662-.26139.29156-.623317.29156-.804281 0-.180963-.29155-.180963-.87465.080428-1.1662z" fill="#894728" fill-opacity="1"/>
        <path id="path13080" d="M-44.869109 108.41702c.261392-.29155.784174-.29155.965137 0 .180963.29155.020107.87465-.241284 1.1662-.261391.29156-.623317.29156-.804281 0-.180963-.29155-.180963-.87465.080428-1.1662z" fill="none"/>
        <path id="path13082" d="M-43.650608 108.01085c.261392-.29155.784174-.29155.965137 0 .180963.29155.020107.87465-.241284 1.1662-.261391.29156-.623317.29156-.804281 0-.180963-.29155-.180963-.87465.080428-1.1662z" fill="#42342c" fill-opacity="1"/>
        <path id="path13084" d="M-42.432107 107.56406c.261392-.29155.784174-.29155.965137 0 .180963.29155.020107.87465-.241284 1.1662-.261391.29156-.623317.29156-.804281 0-.180962-.29155-.180962-.87465.080428-1.1662z" fill="#ad5719" fill-opacity="1"/>
        <path id="path13086" d="M-41.213605 107.6453c.261392-.29155.784174-.29155.965137 0 .180963.29155.020107.87465-.241284 1.1662-.261391.29156-.623317.29156-.804281 0-.180963-.29155-.180963-.87465.080428-1.1662z" fill="#ad5719" fill-opacity="1"/>
        <path id="path13088" d="M-40.116954 106.6705c.261392-.29155.784174-.29155.965137 0 .180963.29155.020107.87465-.241284 1.1662-.261391.29156-.623317.29156-.804281 0-.180963-.29155-.180963-.87465.080428-1.1662z" fill="#ad5719" fill-opacity="1"/>
        <path id="path13090" d="M-38.939069 106.95482c.261392-.29155.784174-.29155.965137 0 .180963.29155.020107.87465-.241284 1.1662-.261391.29156-.623317.29156-.804281 0-.180963-.29155-.180963-.87465.080428-1.1662z" fill="none"/>
        <path id="path13092" d="M-40.076338 108.21394c.261392-.29155.784174-.29155.965137 0 .180963.29155.020107.87465-.241284 1.1662-.261391.29156-.623317.29156-.804281 0-.180963-.29155-.180963-.87465.080428-1.1662z" fill="none"/>
        <path id="path13094" d="M-42.107172 109.06688c.261392-.29155.784174-.29155.965137 0 .180963.29155.020107.87465-.241284 1.1662-.261391.29156-.623317.29156-.804281 0-.180963-.29155-.180963-.87465.080428-1.1662z" fill="none"/>
        <path id="path13096" d="M-43.447525 109.5949c.261393-.29155.784174-.29155.965137 0 .180963.29155.020107.87465-.241284 1.1662-.26139.29156-.623317.29156-.80428 0-.180964-.29155-.180964-.87465.080427-1.1662z" fill="#ad5719" fill-opacity="1"/>
        <path id="path13098" d="M-42.586414 110.81339c.261391-.29155.784174-.29155.965137 0 .180963.29155.020107.87465-.241284 1.1662-.261391.29156-.623318.29156-.804281 0-.180963-.29155-.180963-.87465.080428-1.1662z" fill="none"/>
        <path id="path13100" d="M-41.416689 110.20414c.261391-.29155.784174-.29155.965137 0 .180963.29155.020107.87465-.241284 1.1662-.261391.29156-.623318.29156-.804281 0-.180963-.29155-.180963-.87465.080428-1.1662z" fill="#ad5719" fill-opacity="1"/>
        <path id="path13102" d="M-40.279421 109.96044c.261391-.29155.784174-.29155.965137 0 .180963.29155.020107.87465-.241284 1.1662-.261392.29156-.623318.29156-.804281 0-.180963-.29155-.180963-.87465.080428-1.1662z" fill="#894728" fill-opacity="1"/>
        <path id="path13104" d="M-39.142153 110.04167c.261392-.29155.784174-.29155.965137 0 .180963.29155.020107.87465-.241284 1.1662-.261391.29156-.623317.29156-.804281 0-.180963-.29155-.180963-.87465.080428-1.1662z" fill="none"/>
        <path id="path13106" d="M-41.676617 111.93034c.261391-.29155.784173-.29155.965136 0 .180963.29155.020107.87465-.241284 1.1662-.261391.29156-.623317.29156-.80428 0-.180964-.29155-.180964-.87465.080428-1.1662z" fill="none"/>
        <path id="path13108" d="M-40.506893 111.52417c.261392-.29155.784175-.29155.965137 0 .180963.29155.020107.87465-.241283 1.1662-.261391.29156-.623318.29156-.804282 0-.180963-.29155-.180963-.87465.080428-1.1662z" fill="none"/>
        <path id="path13110" d="M-39.247775 111.60541c.261391-.29155.784174-.29155.965137 0 .180963.29155.020107.87465-.241284 1.1662-.261392.29156-.623318.29156-.804281 0-.180962-.29155-.180962-.87465.080428-1.1662z" fill="#42342c" fill-opacity="1"/>
        <path id="path13112" d="M-38.029274 110.67122c.261392-.29155.784174-.29155.965137 0 .180963.29155.020107.87465-.241284 1.1662-.261391.29156-.623317.29156-.804281 0-.180963-.29155-.180963-.87465.080428-1.1662z" fill="none"/>
        <path id="path13114" d="M-42.919508 112.39745c.261392-.29155.784174-.29155.965137 0 .180963.29155.020107.87465-.241284 1.1662-.261391.29156-.623317.29156-.804281 0-.180963-.29155-.180963-.87465.080428-1.1662z" fill="none"/>
        <path id="path13116" d="M-42.75704 113.9815c.261392-.29155.784174-.29155.965137 0 .180963.29155.020107.87465-.241284 1.1662-.261391.29156-.623317.29156-.804281 0-.180963-.29155-.180963-.87465.080428-1.1662z" fill="none"/>
        <path id="path13118" d="M-41.538539 113.57533c.261392-.29155.784174-.29155.965137 0 .180963.29155.020107.87465-.241284 1.1662-.261391.29156-.623317.29156-.804281 0-.180963-.29155-.180963-.87465.080428-1.1662z" fill="none"/>
        <path id="path13120" d="M-40.320038 113.12854c.261392-.29155.784174-.29155.965137 0 .180963.29155.020107.87465-.241284 1.1662-.261391.29156-.623317.29156-.804281 0-.180963-.29155-.180963-.87465.080428-1.1662z" fill="#42342c" fill-opacity="1"/>
        <path id="path13122" d="M-39.101536 113.20978c.261392-.29155.784174-.29155.965137 0 .180963.29155.020107.87465-.241284 1.1662-.261391.29156-.623317.29156-.804281 0-.180963-.29155-.180963-.87465.080428-1.1662z" fill="#42342c" fill-opacity="1"/>
        <path id="path13124" d="M-38.004885 112.23498c.261392-.29155.784174-.29155.965137 0 .180963.29155.020107.87465-.241284 1.1662-.261391.29156-.623317.29156-.804281 0-.180963-.29155-.180963-.87465.080428-1.1662z" fill="none"/>
        <path id="path13126" d="M-36.827 112.5193c.261392-.29155.784174-.29155.965137 0 .180963.29155.020107.87465-.241284 1.1662-.261391.29156-.623317.29156-.804281 0-.180963-.29155-.180963-.87465.080428-1.1662z" fill="none"/>
        <path id="path13128" d="M-37.842419 113.69719c.261392-.29155.784174-.29155.965137 0 .180963.29155.020107.87465-.241284 1.1662-.261391.29156-.623317.29156-.804281 0-.180963-.29155-.180963-.87465.080428-1.1662z" fill="#894728" fill-opacity="1"/>
        <path id="path13130" d="M-39.995103 114.63136c.261392-.29155.784174-.29155.965137 0 .180963.29155.020107.87465-.241284 1.1662-.261391.29156-.623317.29156-.804281 0-.180963-.29155-.180963-.87465.080428-1.1662z" fill="#42342c" fill-opacity="1"/>
        <path id="path13132" d="M-41.335456 115.15938c.261392-.29155.784174-.29155.965137 0 .180963.29155.020107.87465-.241284 1.1662-.261391.29156-.623317.29156-.804281 0-.180963-.29155-.180963-.87465.080428-1.1662z" fill="none"/>
        <path id="path13134" d="M-38.776602 108.49824c.261392-.29155.784174-.29155.965137 0 .180963.29155.020107.87465-.241284 1.1662-.261391.29156-.623317.29156-.804281 0-.180963-.29155-.180963-.87465.080428-1.1662z" fill="none"/>
        <path id="path13136" d="M-37.679952 108.98565c.261392-.29155.784174-.29155.965137 0 .180963.29155.020107.87465-.241284 1.1662-.261391.29156-.623317.29156-.804281 0-.180963-.29155-.180963-.87465.080428-1.1662z" fill="#894728" fill-opacity="1"/>
        <path id="path13138" d="M-36.867617 110.85402c.261392-.29155.784174-.29155.965137 0 .180963.29155.020107.87465-.241284 1.1662-.261391.29156-.623317.29156-.804281 0-.180963-.29155-.180963-.87465.080428-1.1662z" fill="#42342c" fill-opacity="1"/>
        <path id="path13140" d="M-43.955233 115.97173c.261392-.29155.784174-.29155.965137 0 .180963.29155.020107.87465-.241284 1.1662-.261391.29156-.623317.29156-.804281 0-.180963-.29155-.180963-.87465.080428-1.1662z" fill="none"/>
        <path id="path13142" d="M-42.736732 115.56556c.261392-.29155.784174-.29155.965137 0 .180963.29155.020107.87465-.241284 1.1662-.261391.29156-.623317.29156-.804281 0-.180963-.29155-.180963-.87465.080428-1.1662z" fill="#ad5719" fill-opacity="1"/>
        <path id="path13144" d="M-38.999995 116.01235c.261392-.29155.784174-.29155.965137 0 .180963.29155.020107.87465-.241284 1.1662-.261391.29156-.623317.29156-.804281 0-.180963-.29155-.180963-.87465.080428-1.1662z" fill="none"/>
        <path id="path13146" d="M-41.315146 116.74344c.261392-.29155.784174-.29155.965137 0 .180963.29155.020107.87465-.241284 1.1662-.261391.29156-.623317.29156-.804281 0-.180963-.29155-.180963-.87465.080428-1.1662z" fill="none"/>
        <path id="path13148" d="M-42.533648 117.14961c.261392-.29155.784174-.29155.965136 0 .180963.29155.020107.87465-.241283 1.1662-.261391.29156-.623317.29156-.804281 0-.180963-.29155-.180963-.87465.080428-1.1662z" fill="none"/>
        <path id="path13150" d="M-41.672538 118.3681c.261391-.29155.784174-.29155.965137 0 .180963.29155.020107.87465-.241284 1.1662-.261391.29156-.623318.29156-.804281 0-.180963-.29155-.180963-.87465.080428-1.1662z" fill="none"/>
        <path id="path13152" d="M-40.502813 117.75885c.261391-.29155.784174-.29155.965137 0 .180963.29155.020107.87465-.241284 1.1662-.261391.29156-.623318.29156-.804281 0-.180963-.29155-.180963-.87465.080428-1.1662z" fill="none"/>
        <path id="path13154" d="M-39.365545 117.51515c.261391-.29155.784174-.29155.965137 0 .180963.29155.020107.87465-.241284 1.1662-.261392.29156-.623318.29156-.804281 0-.180963-.29155-.180963-.87465.080428-1.1662z" fill="none"/>
        <path id="path13156" d="M-38.228277 117.59638c.261392-.29155.784174-.29155.965137 0 .180963.29155.020107.87465-.241284 1.1662-.261391.29156-.623317.29156-.804281 0-.180963-.29155-.180963-.87465.080428-1.1662z" fill="none"/>
        <path id="path13158" d="M-40.762741 119.48505c.261391-.29155.784173-.29155.965136 0 .180963.29155.020107.87465-.241284 1.1662-.261391.29156-.623317.29156-.80428 0-.180964-.29155-.180964-.87465.080428-1.1662z" fill="none"/>
        <path id="path13160" d="M-39.593017 119.07888c.261392-.29155.784175-.29155.965137 0 .180963.29155.020107.87465-.241283 1.1662-.261391.29156-.623318.29156-.804282 0-.180963-.29155-.180963-.87465.080428-1.1662z" fill="none"/>
        <path id="path13162" d="M-38.333899 119.16012c.261391-.29155.784174-.29155.965137 0 .180963.29155.020107.87465-.241284 1.1662-.261392.29156-.623318.29156-.804281 0-.180962-.29155-.180962-.87465.080428-1.1662z" fill="none"/>
        <path id="path13164" d="M-37.115398 118.22593c.261392-.29155.784174-.29155.965137 0 .180963.29155.020107.87465-.241284 1.1662-.261391.29156-.623317.29156-.804281 0-.180963-.29155-.180963-.87465.080428-1.1662z" fill="#42342c" fill-opacity="1"/>
        <path id="path13166" d="M-42.005632 119.95216c.261392-.29155.784174-.29155.965137 0 .180963.29155.020107.87465-.241284 1.1662-.261391.29156-.623317.29156-.804281 0-.180963-.29155-.180963-.87465.080428-1.1662z" fill="#42342c" fill-opacity="1"/>
        <path id="path13168" d="M-41.843164 121.53621c.261392-.29155.784174-.29155.965137 0 .180963.29155.020107.87465-.241284 1.1662-.261391.29156-.623317.29156-.804281 0-.180963-.29155-.180963-.87465.080428-1.1662z" fill="none"/>
        <path id="path13170" d="M-40.624663 121.13004c.261392-.29155.784174-.29155.965137 0 .180963.29155.020107.87465-.241284 1.1662-.261391.29156-.623317.29156-.804281 0-.180963-.29155-.180963-.87465.080428-1.1662z" fill="#ad5719" fill-opacity="1"/>
        <path id="path13172" d="M-39.406162 120.68325c.261392-.29155.784174-.29155.965137 0 .180963.29155.020107.87465-.241284 1.1662-.261391.29156-.623317.29156-.804281 0-.180963-.29155-.180963-.87465.080428-1.1662z" fill="none"/>
        <path id="path13174" d="M-38.18766 120.76449c.261392-.29155.784174-.29155.965137 0 .180963.29155.020107.87465-.241284 1.1662-.261391.29156-.623317.29156-.804281 0-.180963-.29155-.180963-.87465.080428-1.1662z" fill="#ad5719" fill-opacity="1"/>
        <path id="path13176" d="M-37.091009 119.78969c.261392-.29155.784174-.29155.965137 0 .180963.29155.020107.87465-.241284 1.1662-.261391.29156-.623317.29156-.804281 0-.180963-.29155-.180963-.87465.080428-1.1662z" fill="none"/>
        <path id="path13178" d="M-37.050393 121.33313c.261392-.29155.784174-.29155.965137 0 .180963.29155.020107.87465-.241284 1.1662-.261391.29156-.623317.29156-.804281 0-.180963-.29155-.180963-.87465.080428-1.1662z" fill="none"/>
        <path id="path13180" d="M-39.081227 122.18607c.261392-.29155.784174-.29155.965137 0 .180963.29155.020107.87465-.241284 1.1662-.261391.29156-.623317.29156-.804281 0-.180963-.29155-.180963-.87465.080428-1.1662z" fill="#894728" fill-opacity="1"/>
        <path id="path13182" d="M-40.42158 122.71409c.261392-.29155.784174-.29155.965137 0 .180963.29155.020107.87465-.241284 1.1662-.261391.29156-.623317.29156-.804281 0-.180963-.29155-.180963-.87465.080428-1.1662z" fill="none"/>
        <path id="path13184" d="M-37.862726 116.05295c.261392-.29155.784174-.29155.965137 0 .180963.29155.020107.87465-.241284 1.1662-.261391.29156-.623317.29156-.804281 0-.180963-.29155-.180963-.87465.080428-1.1662z" fill="none"/>
        <path id="path13186" d="M-36.766076 116.54036c.261392-.29155.784174-.29155.965137 0 .180963.29155.020107.87465-.241284 1.1662-.261391.29156-.623317.29156-.804281 0-.180963-.29155-.180963-.87465.080428-1.1662z" fill="none"/>
        <path id="path13188" d="M-40.116954 116.17481c.261392-.29155.784174-.29155.965137 0 .180963.29155.020107.87465-.241284 1.1662-.261391.29156-.623317.29156-.804281 0-.180963-.29155-.180963-.87465.080428-1.1662z" fill="#42342c" fill-opacity="1"/>
        <path id="path13192" d="M-38.857836 114.59075c.261392-.29155.784174-.29155.965137 0 .180963.29155.020107.87465-.241284 1.1662-.261391.29156-.623317.29156-.804281 0-.180963-.29155-.180963-.87465.080428-1.1662z" fill="none"/>
        <path id="path13194" d="M-39.17461 123.83105c.261391-.29155.784174-.29155.965137 0 .180963.29155.020107.87465-.241284 1.1662-.261391.29156-.623318.29156-.804281 0-.180963-.29155-.180963-.87465.080428-1.1662z" fill="none"/>
        <path id="path13196" d="M-37.923652 122.7344c.261391-.29155.784174-.29155.965137 0 .180963.29155.020107.87465-.241284 1.1662-.261391.29156-.623318.29156-.804281 0-.180963-.29155-.180963-.87465.080428-1.1662z" fill="#894728" fill-opacity="1"/>
        <path id="path13198" d="M-36.843229 123.93258c.261391-.29155.784173-.29155.965136 0 .180963.29155.020107.87465-.241284 1.1662-.261391.29156-.623317.29156-.80428 0-.180964-.29155-.180964-.87465.080428-1.1662z" fill="none"/>
        <path id="path13200" d="M-35.673505 123.52641c.261392-.29155.784175-.29155.965137 0 .180963.29155.020107.87465-.241283 1.1662-.261391.29156-.623318.29156-.804282 0-.180963-.29155-.180963-.87465.080428-1.1662z" fill="none"/>
        <path id="path13202" d="M-38.08612 124.39969c.261392-.29155.784174-.29155.965137 0 .180963.29155.020107.87465-.241284 1.1662-.261391.29156-.623317.29156-.804281 0-.180963-.29155-.180963-.87465.080428-1.1662z" fill="none"/>
        <path id="path13204" d="M-37.923652 125.98374c.261392-.29155.784174-.29155.965137 0 .180963.29155.020107.87465-.241284 1.1662-.261391.29156-.623317.29156-.804281 0-.180963-.29155-.180963-.87465.080428-1.1662z" fill="none"/>
        <path id="path13206" d="M-36.705151 125.57757c.261392-.29155.784174-.29155.965137 0 .180963.29155.020107.87465-.241284 1.1662-.261391.29156-.623317.29156-.804281 0-.180963-.29155-.180963-.87465.080428-1.1662z" fill="#ad5719" fill-opacity="1"/>
        <path id="path13208" d="M-35.48665 125.13078c.261392-.29155.784174-.29155.965137 0 .180963.29155.020107.87465-.241284 1.1662-.261391.29156-.623317.29156-.804281 0-.180963-.29155-.180963-.87465.080428-1.1662z" fill="#ad5719" fill-opacity="1"/>
        <path id="path13210" d="M-35.161715 126.6336c.261392-.29155.784174-.29155.965137 0 .180963.29155.020107.87465-.241284 1.1662-.261391.29156-.623317.29156-.804281 0-.180963-.29155-.180963-.87465.080428-1.1662z" fill="none"/>
        <path id="path13212" d="M-43.804914 111.19926c.261391-.29155.784173-.29155.965136 0 .180963.29155.020107.87465-.241284 1.1662-.261391.29156-.623317.29156-.80428 0-.180963-.29155-.180963-.87465.080428-1.1662z" fill="none"/>
        <path id="path13214" d="M-44.666025 109.81829c.261391-.29155.784174-.29155.965137 0 .180963.29155.020107.87465-.241284 1.1662-.261391.29156-.623318.29156-.804281 0-.180963-.29155-.180963-.87465.080428-1.1662z" fill="#ad5719" fill-opacity="1"/>
        <path id="path13216" d="M-44.925953 111.54449c.261391-.29155.784173-.29155.965136 0 .180963.29155.020107.87465-.241284 1.1662-.261391.29156-.623317.29156-.804281 0-.180963-.29155-.180963-.87465.080429-1.1662z" fill="#894728" fill-opacity="1"/>
        <path id="path13218" d="M-43.772458 113.4738c.261392-.29155.784174-.29155.965137 0 .180963.29155.020107.87465-.241284 1.1662-.261391.29156-.623317.29156-.804281 0-.180963-.29155-.180963-.87465.080428-1.1662z" fill="#42342c" fill-opacity="1"/>
        <path id="path13220" d="M-36.908233 114.77353c.261392-.29155.784174-.29155.965137 0 .180963.29155.020107.87465-.241284 1.1662-.261391.29156-.623317.29156-.804281 0-.180963-.29155-.180963-.87465.080428-1.1662z" fill="none"/>
        <path id="path13222" d="M-44.787875 113.18948c.261392-.29155.784174-.29155.965137 0 .180963.29155.020107.87465-.241284 1.1662-.261391.29156-.623317.29156-.804281 0-.180963-.29155-.180963-.87465.080428-1.1662z" fill="none"/>
        <path id="path13224" d="M-44.584792 114.77353c.261392-.29155.784174-.29155.965137 0 .180963.29155.020107.87465-.241284 1.1662-.261391.29156-.623317.29156-.804281 0-.180963-.29155-.180963-.87465.080428-1.1662z" fill="#ad5719" fill-opacity="1"/>
        <path id="path13226" d="M-35.97405 113.51441c.261393-.29155.784174-.29155.965137 0 .180963.29155.020107.87465-.241284 1.1662-.261391.29156-.623317.29156-.804281 0-.180963-.29155-.180963-.87465.080428-1.1662z" fill="#894728" fill-opacity="1"/>
        <path id="path13228" d="M-35.71004 115.13908c.261392-.29155.784174-.29155.965137 0 .180963.29155.020107.87465-.241284 1.1662-.261391.29156-.623317.29156-.804281 0-.180963-.29155-.180963-.87465.080428-1.1662z" fill="none"/>
        <path id="path13230" d="M-35.559722 116.68251c.261391-.29155.784174-.29155.965137 0 .180963.29155.020107.87465-.241285 1.1662-.261391.29156-.623317.29156-.80428 0-.180963-.29155-.180963-.87465.080428-1.1662z" fill="#ad5719" fill-opacity="1"/>
        <path id="path13232" d="M-35.324181 121.35343c.261391-.29155.784174-.29155.965137 0 .180963.29155.020107.87465-.241284 1.1662-.261391.29156-.623318.29156-.804281 0-.180963-.29155-.180963-.87465.080428-1.1662z" fill="none"/>
        <path id="path13234" d="M-36.518295 127.1413c.261391-.29155.784174-.29155.965137 0 .180963.29155.020107.87465-.241284 1.1662-.261391.29156-.623318.29156-.804281 0-.180963-.29155-.180963-.87465.080428-1.1662z" fill="none"/>
        <path id="path13236" d="M-35.892816 118.26657c.261392-.29155.784174-.29155.965137 0 .180963.29155.020107.87465-.241284 1.1662-.261391.29156-.623317.29156-.804281 0-.180963-.29155-.180963-.87465.080428-1.1662z" fill="#ad5719" fill-opacity="1"/>
        <path id="path13238" d="M-35.730348 119.85062c.261392-.29155.784174-.29155.965137 0 .180963.29155.020107.87465-.241284 1.1662-.261391.29156-.623317.29156-.804281 0-.180963-.29155-.180963-.87465.080428-1.1662z" fill="#894728" fill-opacity="1"/>
        <path id="path13240" d="M-36.380216 122.32824c.261392-.29155.784174-.29155.965137 0 .180963.29155.020107.87465-.241284 1.1662-.261391.29156-.623317.29156-.804281 0-.180963-.29155-.180963-.87465.080428-1.1662z" fill="#42342c" fill-opacity="1"/>
        <path id="path13242" d="M-43.853691 117.6167c.261392-.29155.784174-.29155.965137 0 .180963.29155.020107.87465-.241284 1.1662-.261391.29156-.623317.29156-.804281 0-.180963-.29155-.180963-.87465.080428-1.1662z" fill="#894728" fill-opacity="1"/>
        <path id="path13244" d="M-42.919507 118.79458c.261392-.29155.784174-.29155.965137 0 .180963.29155.020107.87465-.241284 1.1662-.261391.29156-.623317.29156-.804281 0-.180963-.29155-.180963-.87465.080428-1.1662z" fill="#ad5719" fill-opacity="1"/>
        <path id="path13246" d="M-43.386598 120.41926c.261392-.29155.784174-.29155.965137 0 .180963.29155.020107.87465-.241284 1.1662-.261391.29156-.623317.29156-.804281 0-.180963-.29155-.180963-.87465.080428-1.1662z" fill="#ad5719" fill-opacity="1"/>
        <path id="path13248" d="M-37.06254 128.98937c.261391-.29155.784173-.29155.965136 0 .180963.29155.020107.87465-.241284 1.1662-.261391.29156-.623317.29156-.80428 0-.180963-.29155-.180963-.87465.080428-1.1662z" fill="none"/>
        <path id="path13250" d="M-35.892815 128.38012c.261391-.29155.784174-.29155.965136 0 .180963.29155.020107.87465-.241283 1.1662-.261391.29156-.623318.29156-.804281 0-.180963-.29155-.180963-.87465.080428-1.1662z" fill="#894728" fill-opacity="1"/>
        <path id="path13252" d="M-36.152744 130.10632c.261391-.29155.784173-.29155.965136 0 .180964.29155.020107.87465-.241284 1.1662-.261391.29156-.623317.29156-.80428 0-.180963-.29155-.180963-.87465.080428-1.1662z" fill="none"/>
        <path id="path13254" d="M-37.355018 130.9796c.261392-.29155.784174-.29155.965137 0 .180963.29155.020107.87465-.241284 1.1662-.261391.29156-.623317.29156-.804281 0-.180963-.29155-.180963-.87465.080428-1.1662z" fill="none"/>
        <path id="path13256" d="M-37.0707 132.56365c.261392-.29155.784174-.29155.965137 0 .180963.29155.020107.87465-.241284 1.1662-.261391.29156-.623317.29156-.804281 0-.180963-.29155-.180963-.87465.080428-1.1662z" fill="#ad5719" fill-opacity="1"/>
        <path id="path13258" d="M-43.163207 122.0033c.261392-.29155.784174-.29155.965137 0 .180963.29155.020107.87465-.241284 1.1662-.26139.29156-.623317.29156-.80428 0-.180964-.29155-.180964-.87465.080427-1.1662z" fill="#42342c" fill-opacity="1"/>
        <path id="path13260" d="M-38.289202 129.88294c.261392-.29155.784174-.29155.965137 0 .180963.29155.020107.87465-.241284 1.1662-.261391.29156-.623317.29156-.804281 0-.180963-.29155-.180963-.87465.080428-1.1662z" fill="#42342c" fill-opacity="1"/>
        <path id="path13262" d="M-42.39149 123.05933c.261392-.29155.784174-.29155.965137 0 .180963.29155.020107.87465-.241284 1.1662-.261391.29156-.623317.29156-.804281 0-.180963-.29155-.180963-.87465.080428-1.1662z" fill="#894728" fill-opacity="1"/>
        <path id="path13264" d="M-41.396379 123.95291c.261392-.29155.784174-.29155.965137 0 .180963.29155.020107.87465-.241284 1.1662-.261391.29156-.623317.29156-.804281 0-.180963-.29155-.180963-.87465.080428-1.1662z" fill="#ad5719" fill-opacity="1"/>
        <path id="path13266" d="M-40.433727 126.10558c.261391-.29155.784173-.29155.965136 0 .180963.29155.020107.87465-.241284 1.1662-.261391.29156-.623317.29156-.80428 0-.180963-.29155-.180963-.87465.080428-1.1662z" fill="none"/>
        <path id="path13268" d="M-39.264002 125.49633c.261391-.29155.784174-.29155.965136 0 .180963.29155.020107.87465-.241283 1.1662-.261391.29156-.623318.29156-.804281 0-.180963-.29155-.180963-.87465.080428-1.1662z" fill="none"/>
        <path id="path13270" d="M-39.523931 127.22253c.261391-.29155.784173-.29155.965136 0 .180963.29155.020107.87465-.241284 1.1662-.261391.29156-.623317.29156-.80428 0-.180963-.29155-.180963-.87465.080428-1.1662z" fill="#42342c" fill-opacity="1"/>
        <path id="path13272" d="M-38.979686 128.62383c.261392-.29155.784174-.29155.965137 0 .180963.29155.020107.87465-.241284 1.1662-.261391.29156-.623317.29156-.804281 0-.180963-.29155-.180963-.87465.080428-1.1662z" fill="none"/>
        <path id="path13276" d="M-37.842417 127.6084c.261392-.29155.784174-.29155.965137 0 .180962.29155.020107.87465-.241284 1.1662-.261391.29156-.623317.29156-.804281 0-.180963-.29155-.180963-.87465.080428-1.1662z" fill="#42342c" fill-opacity="1"/>
        <path id="path13278" d="M-40.360654 124.56215c.261392-.29155.784174-.29155.965137 0 .180963.29155.020107.87465-.241284 1.1662-.261391.29156-.623317.29156-.804281 0-.180963-.29155-.180963-.87465.080428-1.1662z" fill="#ad5719" fill-opacity="1"/>
      </g>
      <path d="M10.291369 128.41843c-.997217-7.53229-3.107677-13.95135-2.924404-22.66413.313966-3.51589 5.168505-3.477 6.254974-1.4622 3.302806 4.83802 4.685914 9.99598 6.823607 15.02818l-2.437002 21.68933-7.717175-12.59118z" id="path14578" fill="none" fill-opacity="1" fill-rule="evenodd" stroke="#000" stroke-width="1" stroke-linecap="butt" stroke-linejoin="miter"/>
      <path d="M12.022546 137.93435c-8.7709099-8.6649-8.7441399-17.32979-11.04774494-25.99469 3.09900504 6.40587 5.58540504 13.66938 10.72281194 17.22148l.324933 8.77321z" id="path9172" fill="#ffd600" fill-opacity="1" fill-rule="evenodd" stroke="#000" stroke-width=".75" stroke-linecap="butt" stroke-linejoin="miter" stroke-miterlimit="4" stroke-dasharray="none"/>
      <path d="M12.292311 137.70077c-3.0741389-.57334-5.0320742 3.31272-4.0208497 7.12264 1.6457644 3.85048 4.6453017 4.65498 7.4672917 5.85895-1.175785-1.96517-3.515955-3.46459-3.331561-5.97383 2.795448 1.535 5.590895 2.17854 8.386343 2.18275l-8.501224-9.19051z" id="path9168" fill="#ffd600" fill-opacity="1" fill-rule="evenodd" stroke="#000" stroke-width=".75" stroke-linecap="butt" stroke-linejoin="miter" stroke-miterlimit="4" stroke-dasharray="none"/>
      <path d="M45.653183 176.27653c-6.577906-4.52981-12.794469-9.49324-21.445623-11.53515-1.960967 2.25459-3.224928 4.62535-2.59947 7.31101l19.496021 10.56034.487401-1.9496-5.198939-6.33621 6.986074 3.41181 2.274536-1.4622z" id="path9140" fill="#ffd600" fill-opacity="1" fill-rule="evenodd" stroke="#000" stroke-width=".75" stroke-linecap="butt" stroke-linejoin="miter" stroke-miterlimit="4" stroke-dasharray="none"/>
      <path d="M36.879974 174.81432l-6.986075-6.8236" id="path9142" fill="none" fill-rule="evenodd" stroke="#000" stroke-width=".75" stroke-linecap="butt" stroke-linejoin="miter" stroke-miterlimit="4" stroke-dasharray="none"/>
      <path d="M22.257957 167.58455l12.834881 9.34184" id="path9144" fill="none" fill-rule="evenodd" stroke="#000" stroke-width=".75" stroke-linecap="butt" stroke-linejoin="miter" stroke-miterlimit="4" stroke-dasharray="none"/>
      <path d="M16.084218 135.09118c3.936545-9.97155 2.101806-20.20543 1.543434-30.3813 1.81048 2.66973 3.730203 9.79163 5.814731 17.39249.486037 1.77225-.75336 3.49777-.534558 5.10917l-3.249337 12.59118-3.57427-4.71154z" id="path11114" fill="#ffd600" fill-opacity="1" fill-rule="evenodd" stroke="#000" stroke-width="1" stroke-linecap="butt" stroke-linejoin="miter"/>
      <path d="M19.008621 137.85312c3.28881-5.93227 3.975555-11.65101 4.955238-20.47083.544129 7.56159 1.838991 17.61152 1.380969 22.09549-.493725 2.38862-.748408 4.96847-3.33057 5.68634l-3.005637-7.311z" id="path11112" fill="#ffd600" fill-opacity="1" fill-rule="evenodd" stroke="#000" stroke-width="1" stroke-linecap="butt" stroke-linejoin="miter"/>
      <path d="M27.226893 157.00084c-2.040617-3.50658-4.318375-6.93412-7.007765-10.22444-3.706472-1.99665-8.163098-5.78915-8.501224-11.48814-.027331-5.42897-1.805947-9.02543-2.5216184-13.44113 1.9912674 3.92512 4.8224664 7.71459 6.4275854 11.83279.819444 2.30642 2.037649 4.27104 4.365494 5.28454 3.368491 2.4938 2.404419 4.71681 2.527391 7.00777 2.10369 2.87121 3.454786 5.49156 4.9399 8.15658l-2.986916-15.16435c.443449-1.29585 1.486036-1.39342 2.527391-1.49346.930075-.7653 1.871633-1.45021 3.101798-.11488l1.608339 8.61611 1.952984 15.85363-6.433359-4.82502z" id="path9162" fill="#ffd600" fill-opacity="1" fill-rule="evenodd" stroke="#000" stroke-width=".75" stroke-linecap="butt" stroke-linejoin="miter" stroke-miterlimit="4" stroke-dasharray="none"/>
      <path d="M40.373011 172.70225c-4.790766-4.48238-8.141831-9.68461-15.271884-12.99734l3.411804 6.25497-4.224138-1.29973-1.137268 1.4622-9.585544-10.88528c-1.117048-1.29645 3.999531-6.10942 4.792772-5.36141l15.109417 12.26625c-2.73447-5.74049-4.405884-10.42496-4.792772-16.16545.578775-1.52661 1.408321-1.29781 2.193302-1.38097.833567-.58227 1.551092-1.43531 3.005637-.56863 1.706105 4.98191 3.352316 10.08361 5.686339 13.80968-2.054059-1.63238-4.645653-2.59585-6.092507-5.44264 1.00235 3.76381 1.792111 7.12146 2.59947 10.88527l7.554709 9.50432 1.705901 3.24933-4.955238-3.33057z" id="path9152" fill="#ffd600" fill-opacity="1" fill-rule="evenodd" stroke="#000" stroke-width=".75" stroke-linecap="butt" stroke-linejoin="miter" stroke-miterlimit="4" stroke-dasharray="none"/>
      <path d="M45.81565 176.92639c-3.535386-4.73515-5.653484-12.30488-7.473475-20.47082.147773-1.15196 1.501677-1.09779 2.924403-.9748.86649-.53959 1.73298-1.1452 2.59947 0l6.986074 11.21021-7.473475-5.03647c-.135469 5.09063 1.355755 10.18125 2.437003 15.27188z" id="path9146" fill="#ffd600" fill-opacity="1" fill-rule="evenodd" stroke="#000" stroke-width=".75" stroke-linecap="butt" stroke-linejoin="miter" stroke-miterlimit="4" stroke-dasharray="none"/>
      <path d="M43.866048 162.06067l-4.549072-4.1429" id="path9148" fill="none" fill-rule="evenodd" stroke="#000" stroke-width=".75" stroke-linecap="butt" stroke-linejoin="miter" stroke-miterlimit="4" stroke-dasharray="none"/>
      <path d="M41.104111 155.562l3.574271 4.63031" id="path9150" fill="none" fill-rule="evenodd" stroke="#000" stroke-width=".75" stroke-linecap="butt" stroke-linejoin="miter" stroke-miterlimit="4" stroke-dasharray="none"/>
      <path d="M15.271883 152.06897l4.792772 6.25497" id="path9154" fill="none" fill-rule="evenodd" stroke="#000" stroke-width=".75" stroke-linecap="butt" stroke-linejoin="miter" stroke-miterlimit="4" stroke-dasharray="none"/>
      <path d="M25.101127 159.78614l-5.930039-7.63594" id="path9156" fill="none" fill-rule="evenodd" stroke="#000" stroke-width=".75" stroke-linecap="butt" stroke-linejoin="miter" stroke-miterlimit="4" stroke-dasharray="none"/>
      <path d="M33.71187 152.96253l-3.168104-5.36141" id="path9158" fill="none" fill-rule="evenodd" stroke="#000" stroke-width=".75" stroke-linecap="butt" stroke-linejoin="miter" stroke-miterlimit="4" stroke-dasharray="none"/>
      <path d="M31.112401 144.67672l3.08687 5.60511" id="path9160" fill="none" fill-rule="evenodd" stroke="#000" stroke-width=".75" stroke-linecap="butt" stroke-linejoin="miter" stroke-miterlimit="4" stroke-dasharray="none"/>
      <path d="M26.767368 137.58588l1.263695 1.95299" id="path9164" fill="none" fill-rule="evenodd" stroke="#000" stroke-width=".75" stroke-linecap="butt" stroke-linejoin="miter" stroke-miterlimit="4" stroke-dasharray="none"/>
      <path d="M29.064996 144.70853l-3.216679-3.79108" id="path9166" fill="none" fill-rule="evenodd" stroke="#000" stroke-width=".75" stroke-linecap="butt" stroke-linejoin="miter" stroke-miterlimit="4" stroke-dasharray="none"/>
      <path d="M12.522074 146.08711l-1.033933-3.56132" id="path9170" fill="none" fill-rule="evenodd" stroke="#000" stroke-width=".75" stroke-linecap="butt" stroke-linejoin="miter" stroke-miterlimit="4" stroke-dasharray="none"/>
      <g id="g7065" fill="#fffbf7" fill-opacity="1" fill-rule="evenodd" stroke="#000" stroke-width="1" stroke-linecap="butt" stroke-linejoin="miter">
        <path id="path7059" d="M38.667449 188.96575c10.444811 3.54153 21.673126 3.96345 32.788786 4.56738 23.893628.89625 24.804969 10.99049 25.733435 15.39411l-65.607138-14.51363.034656-.02665.744172-.57222 6.306089-4.84899z"/>
        <path id="path7061" d="M38.667239 188.96551c10.444811 3.54153 21.673126 3.96345 32.788786 4.56738 23.893628.89625 24.804969 10.99049 25.733435 15.39411l.290646-44.34809c-2.397035-3.39527-6.335786-5.52914-13.484748-5.03647-8.502431.13468-17.062304-.10255-25.564735-2.11207l-19.763384 31.53514z"/>
        <path id="path7063" d="M32.0284 194.24826c4.343588-3.09165 6.719942-5.46179 6.719942-5.46179l19.639624-31.37088c.466253-.11425-.218677.1257-.700412.30314l-1.961427.84891s-16.29652 26.35949-24.067882 35.5754c.330521.08055-.123958.35368.370155.10522z"/>
      </g>
      <g id="g7070" transform="matrix(-1 0 0 1 194.83011 -.00024)" fill="#fffbf7" fill-opacity="1" fill-rule="evenodd" stroke="#000" stroke-width="1" stroke-linecap="butt" stroke-linejoin="miter">
        <path id="path7072" d="M38.667449 188.96575c10.444811 3.54153 21.673126 3.96345 32.788786 4.56738 23.893628.89625 24.804969 10.99049 25.733435 15.39411l-65.607138-14.51363.034656-.02665.744172-.57222 6.306089-4.84899z"/>
        <path id="path7074" d="M38.667239 188.96551c10.444811 3.54153 21.673126 3.96345 32.788786 4.56738 23.893628.89625 24.804969 10.99049 25.733435 15.39411l.290646-44.34809c-2.397035-3.39527-6.335786-5.52914-13.484748-5.03647-8.502431.13468-17.062304-.10255-25.564735-2.11207l-19.763384 31.53514z"/>
        <path id="path7076" d="M32.0284 194.24826c4.343588-3.09165 6.719942-5.46179 6.719942-5.46179l19.639624-31.37088c.466253-.11425-.218677.1257-.700412.30314l-1.961427.84891s-16.29652 26.35949-24.067882 35.5754c.330521.08055-.123958.35368.370155.10522z"/>
      </g>
      <path d="M23.200679 222.7515c8.141937.43753 15.626959-.96728 22.09073-4.85615l-3.52309-11.2358c-1.363292 5.09647-8.960115 7.15455-13.140176 8.85534-6.615311 3.35303-5.605025 5.14534-5.427464 7.23661z" id="path23703" fill="#ce5221" fill-opacity="1" fill-rule="evenodd" stroke="#000" stroke-width="1" stroke-linecap="butt" stroke-linejoin="miter"/>
      <path d="M173.55097 222.7518c-8.14194.43753-15.62696-.96728-22.09073-4.85615l3.52309-11.2358c1.36329 5.09647 8.96011 7.15455 13.14018 8.85534 6.61531 3.35303 5.60502 5.14534 5.42746 7.23661z" id="path23722" fill="#ce5221" fill-opacity="1" fill-rule="evenodd" stroke="#000" stroke-width="1" stroke-linecap="butt" stroke-linejoin="miter"/>
      <path id="path23705" d="M24.2480851 217.9905719c-15.2799084-1.04629-17.7609269-6.06768-18.0915459-7.99837-1.1672153-6.26019 7.9844129-7.30874 13.5210499-7.90314 1.01862 4.05316 5.316408 3.51708 7.712712 3.42787l9.997959-.28566c1.856556-.07467 4.317011-.56709 4.189621.76175.139351 3.383-3.638558 6.22136-10.137126 8.31332-3.084609.8748-4.703531 2.68011-7.19267 3.68423z" fill="#ffd600" fill-opacity="1" fill-rule="evenodd" stroke="#000" stroke-width="1" stroke-linecap="butt" stroke-linejoin="miter"/>
      <path id="path23707" d="M5.8708832 208.5639219l-.9521866-15.13976c2.0637465-2.50608 4.9273035-3.41253 7.9983675-3.90397l9.331429 8.28403c1.740186 2.12045 1.208918 3.59191-2.380466 4.18962-5.437278.82762-12.4884958 1.10379-13.9971439 6.57008z" fill="#ce5221" fill-opacity="1" fill-rule="evenodd" stroke="#000" stroke-width="1" stroke-linecap="butt" stroke-linejoin="miter"/>
      <path id="path23709" d="M23.2006801 200.2799019l7.522274-10.37883c-5.232632-5.97319-11.147725-10.99093-15.234986-18.56764-3.504448-5.91895-3.657227-12.46635-3.142216-19.13895-1.682286 3.35351-3.4338942 6.47595-4.3800583 12.2832-1.4307815-3.27102-1.6169589-8.78233-1.8091546-14.2828-7.2651217 25.92678.572265 31.15754 6.4748689 39.03966 2.466723 2.20092 5.841463 5.08342 8.175719 7.34763 1.769438 1.18158 2.640089 3.15218 2.393553 3.69773z" fill="#ffd600" fill-opacity="1" fill-rule="evenodd" stroke="#000" stroke-width="1" stroke-linecap="butt" stroke-linejoin="miter"/>
      <path d="M98.3758231 234.9396419c15.867145-.07137 30.647385 1.50041 48.513915 6.8559 4.69746 1.31258 9.58535 3.21514 14.2828-.76175l12.18799-17.90111c-7.32418.06571-13.55798-.78366-21.13854-4.5705-12.46448-4.98034-27.27785-8.11487-53.132016-9.14099-25.854166-1.02612 24.425866-1.02642-1.428298-.0003-25.854166 1.02612-40.667537 4.16065-53.132014 9.14099-7.580558 3.78684-13.814362 4.63621-21.138543 4.5705l12.187989 17.90111c4.697454 3.97689 9.585345 2.07433 14.282799.76175 17.866536-5.35549 32.646773-6.92697 48.513918-6.8556z" id="path23699" fill="#ffd600" fill-opacity="1" fill-rule="evenodd" stroke="#000" stroke-width="1" stroke-linecap="butt" stroke-linejoin="miter"/>
      <path id="path23724" d="M172.5035581 217.9908719c15.27991-1.04629 17.76093-6.06768 18.09155-7.99837 1.16721-6.26019-7.98441-7.30874-13.52105-7.90314-1.01862 4.05316-5.31641 3.51708-7.71271 3.42787l-9.99796-.28566c-1.85656-.07467-4.31701-.56709-4.18962.76175-.13935 3.383 3.63856 6.22136 10.13712 8.31332 3.08461.8748 4.70353 2.68011 7.19267 3.68423z" fill="#ffd600" fill-opacity="1" fill-rule="evenodd" stroke="#000" stroke-width="1" stroke-linecap="butt" stroke-linejoin="miter"/>
      <path id="path23726" d="M190.8807581 208.5642219l.95219-15.13976c-2.06374-2.50608-4.9273-3.41253-7.99837-3.90397l-9.33142 8.28403c-1.74019 2.12045-1.20892 3.59191 2.38046 4.18962 5.43728.82762 12.4885 1.10379 13.99714 6.57008z" fill="#ce5221" fill-opacity="1" fill-rule="evenodd" stroke="#000" stroke-width="1" stroke-linecap="butt" stroke-linejoin="miter"/>
      <path id="path23728" d="M173.5509681 200.2802019l-7.52228-10.37883c5.23264-5.97319 11.14773-10.99093 15.23499-18.56764 3.50445-5.91895 5.81178-13.00499 5.29677-19.67759 1.82933 3.0594 2.41851 4.73625 2.2255 12.82184 1.43079-3.27102 3.77151-9.85961 3.96371-15.36008 7.26512 25.92678-2.72682 32.23482-8.62942 40.11694-2.46672 2.20092-5.84146 5.08342-8.17572 7.34763-1.76944 1.18158-2.64009 3.15218-2.39355 3.69773z" fill="#ffd600" fill-opacity="1" fill-rule="evenodd" stroke="#000" stroke-width="1" stroke-linecap="butt" stroke-linejoin="miter"/>
      <path id="path25685" d="M38.512624 235.84315c40.21831-15.10522 80.436616-13.50002 120.654926-1.34659" transform="translate(.5386381 -.5386381)" fill="none" fill-rule="evenodd" stroke="none" stroke-width="1" stroke-linecap="butt" stroke-linejoin="miter"/>
      <path d="M88.362919 13.237775c5.620333 12.714424 14.031011 10.360964 22.090721 9.902741-4.33302-6.88633-10.20231-15.6514971-22.090721-9.902741z" id="path27759" fill="#008d3a" fill-opacity="1" fill-rule="evenodd" stroke="#000" stroke-width="1" stroke-linecap="butt" stroke-linejoin="miter"/>
      <g id="g23598" fill-rule="evenodd" stroke="#000" stroke-linecap="butt" stroke-linejoin="miter">
        <path id="path15549" d="M6.9509624 106.36163c-7.9655226-2.5623-6.46925904-12.930564-4.4752772-23.70945 2.5520274 3.628611 5.2388579 14.84048 8.7601168 20.75767l-4.2848396 2.95178z" fill="#008d3a" fill-opacity="1" stroke-width="1"/>
        <g id="g23499">
          <path d="M60.327467 24.29304c-7.452388 5.993152-3.788994 11.269156-.403979 16.563121 4.38555-6.069542 7.026357-11.913956.403979-16.563121z" id="path15585" fill="#008d3a" fill-opacity="1" stroke-width="1"/>
          <path d="M51.709257 46.91584c-3.000807-4.358671-7.88915-8.668166 4.309105-14.40857 2.301935 1.437554 2.302857 3.221135 2.271139 4.247131 1.034272.987097 1.032941 2.704451.862063 3.830927-.501305 3.304746-3.864861 4.374078-7.442307 6.330512z" id="path15571" fill="#fffbf7" fill-opacity="1" stroke-width="1"/>
          <path d="M42.956389 34.661823c-.927382-5.708631.813873-10.385448-9.560827-15.081867-1.299076 9.272911 2.982345 12.612301 9.560827 15.081867z" id="path15573" fill="#008d3a" fill-opacity="1" stroke-width="1"/>
          <path d="M72.042845 16.886766c-6.841512-3.31299-6.146547-9.4172678-3.366488-16.29380234C72.600139 5.0903579 76.530248 9.5856433 72.042845 16.886766z" id="path15599" fill="#008d3a" fill-opacity="1" stroke-width="1"/>
          <path d="M82.950267 29.006123c2.796006.308446 5.702764.949151 7.810252-.807957 1.122163-1.879534 2.244325-2.195694 3.366488-2.69319 1.483019-3.658912-.206683-6.128053-1.481254-8.752869l-9.695486 2.69319c-.11882 3.186942-3.083605 6.373884 0 9.560826z" id="path15603" fill="#f6f4ef" fill-opacity="1" stroke-width="1"/>
          <path d="M78.506503 17.964042l2.423871 1.481255c-3.755881 7.405815.630886 8.760665 2.289211 10.907422-.237257-2.509952-1.189558-4.026625.048577-6.392109.607298-1.160256 1.619222-2.414712 1.836657-3.842015 3.543211-.451688 5.986251-2.003547 8.48355-3.501148-3.11799-1.584456-6.712482-1.421739-10.907421.942617l-6.194338-3.366488 2.019893 3.770466z" id="path15601" fill="#008d3a" fill-opacity="1" stroke-width="1"/>
          <path d="M78.841053 15.332586C81.4967 9.065944 91.615484 3.5887614 99.979596 3.7159088 97.372633 12.661526 88.447258 14.386101 78.841053 15.332586z" id="path15611" fill="#008d3a" fill-opacity="1" stroke-width="1"/>
          <path d="M72.581484 16.752107C72.040693 8.2368999 76.535951 2.6458501 87.124712.59296366 86.280998 8.5701867 85.350337 16.49115 72.581484 16.752107z" id="path15597" fill="#008d3a" fill-opacity="1" stroke-width="1"/>
          <path d="M60.462126 22.811785c7.070534 2.260849 14.029695 3.872025 18.986993-6.194338-15.048218-3.664994-15.966919 1.955123-18.986993 6.194338z" id="path15587" fill="#008d3a" fill-opacity="1" stroke-width="1"/>
          <path d="M50.76664 14.058916c.85909-2.334098 1.81375-5.4761539 6.463658-7.8102523.79573.5704606 2.724282.5262014 1.885233 1.7505738 1.436368-.4252049 2.603418-1.0068098 4.039786.269319.755608 1.0118122 2.268057 1.7670845 1.615914 3.0971695l-4.847743 6.867635c-3.173754-1.178907-7.261914-.757603-9.156848-4.174445z" id="path15591" fill="#f6f4ef" fill-opacity="1" stroke-width="1"/>
          <path d="M56.826319 23.350423l2.558531-4.847743c-7.189732 2.071839-8.276541-1.316831-8.752869-5.251721 1.795614 2.109512 4.62828 3.181972 9.291507 2.423871.744519-1.370538 3.197798-3.831938 5.79036-5.251721-.409105 2.373984.040308 4.833819-3.770467 6.867636l-1.481255 7.002295-3.635807-.942617z" id="path15589" fill="#008d3a" fill-opacity="1" stroke-width="1"/>
          <path d="M56.69166 23.350423l6.194338-.538638c9.65797-1.027618 12.639744 3.786436 16.83244 7.540933-8.764575 4.256953-13.669637 1.444602-18.583014-5.925019l-6.463657.942617 2.019893-2.019893z" id="path15583" fill="#008d3a" fill-opacity="1" stroke-width="1"/>
          <path d="M43.495026 34.931142C52.25437 36.088006 54.888647 29.89479 56.557 22.542466c-5.484824 1.396713-11.699827 1.028826-13.061974 12.388676z" id="path15575" fill="#008d3a" fill-opacity="1" stroke-width="1"/>
          <path d="M42.55241 33.988526l-9.022188 10.503443.673297 1.615914 6.194338-6.194338h5.79036c.860129 3.911706 2.414642 4.727405 4.847742 6.598316-.549274-2.98318-.551907-4.21712-2.423871-7.675593 2.742571-.516185 4.471451-3.70936 6.194338-5.925019-2.872736 1.373832-5.745473.968122-8.618209 5.251722h-4.443764l2.558531-3.231828c6.150043-3.573574 6.219506-17.062333 3.181142-19.64624-5.537247 4.013873-10.008464 9.804803-4.931716 18.703623z" id="path15569" fill="#008d3a" fill-opacity="1" stroke-width="1"/>
          <path d="M28.009181 56.072688c14.90686.303993 14.925324-7.675498 19.121652-12.523336-5.296608.538638-17.263405-3.145457-19.121652 12.523336z" id="path15561" fill="#008d3a" fill-opacity="1" stroke-width="1"/>
          <path d="M18.448355 69.403981c7.806841-4.933393 12.887462-11.886209 11.042081-23.969396-11.131976 7.034506-13.902358 15.141011-11.042081 23.969396z" id="path15567" fill="#008d3a" fill-opacity="1" stroke-width="1"/>
          <path d="M26.931905 51.628923c-3.962391-7.523422-4.563716-15.257522 3.905126-24.912012 6.512557 16.47623.817669 22.175364-3.905126 24.912012z" id="path15563" fill="#008d3a" fill-opacity="1" stroke-width="1"/>
          <path d="M19.256312 57.419283c10.111758-2.799623 12.114273-13.96702 6.463657-26.797245-5.931835 9.905583-12.908066 21.134946-6.463657 26.797245z" id="path15559" fill="#008d3a" fill-opacity="1" stroke-width="1"/>
          <path d="M12.792655 74.790361c5.267688-1.958521 10.304921-4.266696 5.386381-21.680183-12.7299634 10.465471-6.451758 15.183882-5.386381 21.680183z" id="path15565" fill="#008d3a" fill-opacity="1" stroke-width="1"/>
          <path d="M14.758893 77.415153C13.57495 67.786146 26.233846 60.909158 35.61178 56.847922c-.439421 6.778853-8.349151 28.772101-20.852887 20.567231z" id="path15557" fill="#008d3a" fill-opacity="1" stroke-width="1"/>
          <path d="M10.759709 91.983609c6.13725-8.031799 8.575124-18.154171-3.142216-29.993878-7.50372182 10.930663-4.7870082 20.841984 3.142216 29.993878z" id="path15555" fill="#008d3a" fill-opacity="1" stroke-width="1"/>
          <path d="M8.8186982 100.37639c15.2177798.8291 16.4167118-12.501051 20.3182128-20.866426C18.672056 84.784608 4.8365159 90.939036 8.8186982 100.37639z" id="path15553" fill="#008d3a" fill-opacity="1" stroke-width="1"/>
          <path d="M11.045365 103.12419C7.8916266 87.283949 22.198019 90.96654 27.232538 89.412705c-2.213675 8.320768-6.879652 13.751325-16.187173 13.711485z" id="path15551" fill="#008d3a" fill-opacity="1" stroke-width="1"/>
          <path d="M55.345064 37.758992l-1.211935.673298" id="path15577" fill="none" stroke-width="1"/>
          <path d="M53.594491 41.26014l-.13466 1.750574" id="path15579" fill="none" stroke-width="1"/>
          <path d="M57.364957 39.374907l-.538638 1.481254" id="path15581" fill="none" stroke-width="1"/>
          <path d="M55.345065 10.15379c.538638-.6487781.673297-.3273905 1.211935.807957l.942616-.403979" id="path15593" fill="none" stroke-width="1"/>
          <path d="M58.980872 12.308342l.673297-.673297" id="path15595" fill="none" stroke-width="1"/>
          <path d="M85.778117 26.582252h.942617" id="path15605" fill="none" stroke-width="1"/>
          <path d="M87.124712 23.485083l.269319-.807957.538638.134659" id="path15607" fill="none" stroke-width="1"/>
          <path d="M90.62586 22.273147l1.211935 1.077276" id="path15609" fill="none" stroke-width="1"/>
          <path d="M7.6755929 67.990055C7.278354 76.16068 9.1948024 82.939243 11.244071 90.410866" id="path16582" fill="none" stroke-width=".5" stroke-miterlimit="4" stroke-dasharray="none"/>
          <path d="M4.3764345 72.703139l3.7704667 5.790359 2.6931908-4.780413" id="path16584" fill="none" stroke-width=".5" stroke-miterlimit="4" stroke-dasharray="none"/>
          <path d="M4.9150726 79.570774l4.241775 3.231829 4.5110944-6.665646" id="path16586" fill="none" stroke-width=".5" stroke-miterlimit="4" stroke-dasharray="none"/>
          <path d="M7.3389441 84.957155l3.2991579 3.299159 1.279266-2.82785" id="path16588" fill="none" stroke-width=".5" stroke-miterlimit="4" stroke-dasharray="none"/>
          <path d="M33.891071 60.280796C28.999498 66.2977 22.259502 74.07147 16.318003 77.517216" id="path17559" fill="none" stroke-width=".5" stroke-miterlimit="4" stroke-dasharray="none"/>
          <path d="M3.669472 89.198931c.2093216 5.521707 1.69886 10.255589 4.2417747 14.341239" id="path17561" fill="none" stroke-width=".5" stroke-miterlimit="4" stroke-dasharray="none"/>
          <path d="M20.602907 70.279267l-.538638 4.915073 6.261668.06733" id="path17563" fill="none" stroke-width=".5" stroke-miterlimit="4" stroke-dasharray="none"/>
          <path d="M23.700076 68.124715l-.403978 3.972456 5.319051-.201989" id="path17565" fill="none" stroke-width=".5" stroke-miterlimit="4" stroke-dasharray="none"/>
          <path d="M27.739862 64.354248v2.89518l3.568477-.605968" id="path17567" fill="none" stroke-width=".5" stroke-miterlimit="4" stroke-dasharray="none"/>
          <path d="M2.6931905 97.547821l4.241775 4.241779.2019893-2.221886" id="path18538" fill="none" stroke-width=".5" stroke-miterlimit="4" stroke-dasharray="none"/>
          <path d="M2.6931905 92.700078l1.9525631 3.164499.7406274-1.683244" id="path18540" fill="none" stroke-width=".5" stroke-miterlimit="4" stroke-dasharray="none"/>
          <path d="M29.625095 54.793422l13.533283-9.089518" id="path19511" fill="none" stroke-width=".5" stroke-miterlimit="4" stroke-dasharray="none"/>
          <path d="M31.442999 51.426934v2.019893l3.164499-.201989" id="path19513" fill="none" stroke-width=".5" stroke-miterlimit="4" stroke-dasharray="none"/>
          <path d="M34.742157 49.205052l-.06733 1.885233 2.221883.269319" id="path19515" fill="none" stroke-width=".5" stroke-miterlimit="4" stroke-dasharray="none"/>
          <path d="M37.973986 47.387148l-.403979 1.952563 2.289212.20199" id="path19517" fill="none" stroke-width=".5" stroke-miterlimit="4" stroke-dasharray="none"/>
          <path d="M40.869166 45.434585l-.403979 1.952563 2.289212.20199" id="path20488" fill="none" stroke-width=".5" stroke-miterlimit="4" stroke-dasharray="none"/>
          <path d="M19.380088 90.468047c1.738964-1.86363 3.415844-3.835906 4.993286-5.9822" id="path20490" fill="none" stroke-width=".5" stroke-miterlimit="4" stroke-dasharray="none"/>
          <path d="M11.10941 102.66489c4.353992-4.317782 8.707983-7.733751 13.061975-10.43612" id="path20492" fill="none" stroke-width=".5" stroke-miterlimit="4" stroke-dasharray="none"/>
          <path d="M18.448355 88.256314l.807957 1.952563" id="path20494" fill="none" stroke-width=".5" stroke-miterlimit="4" stroke-dasharray="none"/>
          <path d="M13.465952 98.288448l-.067329 2.491202h3.366488" id="path20498" fill="none" stroke-width=".5" stroke-miterlimit="4" stroke-dasharray="none"/>
          <path d="M16.428462 96.268555l-.06733 1.683245h3.366489" id="path20500" fill="none" stroke-width=".5" stroke-miterlimit="4" stroke-dasharray="none"/>
          <path d="M20.266258 92.834738l-.067329 2.154552 2.558531-.471308" id="path20502" fill="none" stroke-width=".5" stroke-miterlimit="4" stroke-dasharray="none"/>
          <path d="M14.879877 71.962511c-.077559-4.162187-.39739-8.185933 1.952564-13.735271" id="path22442" fill="none" stroke-width=".5" stroke-miterlimit="4" stroke-dasharray="none"/>
          <path d="M13.331293 61.526398l1.683244 2.356542 2.69319-1.952563" id="path22444" fill="none" stroke-width=".5" stroke-miterlimit="4" stroke-dasharray="none"/>
          <path d="M12.927314 66.845449l1.683244 2.289212 2.356542-2.019893" id="path22446" fill="none" stroke-width=".5" stroke-miterlimit="4" stroke-dasharray="none"/>
          <path d="M19.525631 56.611326c2.154865-6.303304 4.50373-12.578893 5.453711-19.054323" id="path22448" fill="none" stroke-width=".5" stroke-miterlimit="4" stroke-dasharray="none"/>
          <path d="M19.458301 50.080339l1.211936 2.423871 3.366488-1.413925" id="path22450" fill="none" stroke-width=".5" stroke-miterlimit="4" stroke-dasharray="none"/>
          <path d="M21.006886 44.761287l1.615914 3.09717 2.89518-2.019893" id="path22452" fill="none" stroke-width=".5" stroke-miterlimit="4" stroke-dasharray="none"/>
          <path d="M22.6228 39.240247l1.346595 2.423871 2.82785-1.413925" id="path22454" fill="none" stroke-width=".5" stroke-miterlimit="4" stroke-dasharray="none"/>
          <path d="M20.333588 65.229536l7.204285-13.869931" id="path22456" fill="none" stroke-width=".5" stroke-miterlimit="4" stroke-dasharray="none"/>
          <path d="M21.410864 58.361899l.942617 2.693191 2.76052-1.077276" id="path22458" fill="none" stroke-width=".5" stroke-miterlimit="4" stroke-dasharray="none"/>
          <path d="M23.363427 56.813315l.807958.942617 3.366488-2.087223" id="path22460" fill="none" stroke-width=".5" stroke-miterlimit="4" stroke-dasharray="none"/>
          <path d="M30.500382 30.756697l-1.683244 13.331292" id="path23431" fill="none" stroke-width=".5" stroke-miterlimit="4" stroke-dasharray="none"/>
          <path d="M29.288447 40.182864l2.019892-1.548585" id="path23433" fill="none" stroke-width=".5" stroke-miterlimit="4" stroke-dasharray="none"/>
          <path d="M28.682479 46.175212l2.423871-2.221882" id="path23435" fill="none" stroke-width=".5" stroke-miterlimit="4" stroke-dasharray="none"/>
          <path d="M42.485079 33.786536c2.103677-4.622147 3.816758-9.02437 4.309106-14.00459" id="path23437" fill="none" stroke-width=".5" stroke-miterlimit="4" stroke-dasharray="none"/>
          <path d="M35.954093 23.687072c1.557484 3.348559 2.888454 5.156709 5.521041 8.146901" id="path23439" fill="none" stroke-width=".5" stroke-miterlimit="4" stroke-dasharray="none"/>
          <path d="M46.794185 32.574601l7.406274-7.473604" id="path23441" fill="none" stroke-width=".5" stroke-miterlimit="4" stroke-dasharray="none"/>
          <path d="M35.886763 27.18822l2.154553.403978.471308-2.423871" id="path23443" fill="none" stroke-width=".5" stroke-miterlimit="4" stroke-dasharray="none"/>
          <path d="M37.637337 30.554708l2.693191.201989" id="path23445" fill="none" stroke-width=".5" stroke-miterlimit="4" stroke-dasharray="none"/>
          <path d="M44.504973 22.071158l1.346595 2.087222 1.885233-.605968" id="path23447" fill="none" stroke-width=".5" stroke-miterlimit="4" stroke-dasharray="none"/>
          <path d="M42.956388 26.716911l1.144606 2.96251 3.029839-1.548585" id="path23449" fill="none" stroke-width=".5" stroke-miterlimit="4" stroke-dasharray="none"/>
          <path d="M42.55241 33.449888l2.76052-1.413926" id="path23451" fill="none" stroke-width=".5" stroke-miterlimit="4" stroke-dasharray="none"/>
          <path d="M51.305279 25.437646l-.269319 2.76052h2.221882" id="path23453" fill="none" stroke-width=".5" stroke-miterlimit="4" stroke-dasharray="none"/>
          <path d="M48.20811 31.295335h3.433818" id="path23455" fill="none" stroke-width=".5" stroke-miterlimit="4" stroke-dasharray="none"/>
          <path d="M61.068094 24.023721c4.533537 1.286439 9.067075 3.500082 13.600612 5.45371" id="path23457" fill="none" stroke-width=".5" stroke-miterlimit="4" stroke-dasharray="none"/>
          <path d="M60.596786 24.764348l-.942617 12.994644" id="path23459" fill="none" stroke-width=".5" stroke-miterlimit="4" stroke-dasharray="none"/>
          <path d="M61.674062 22.609796l14.812548-4.511094" id="path23461" fill="none" stroke-width=".5" stroke-miterlimit="4" stroke-dasharray="none"/>
          <path d="M69.416985 4.1614409l2.62586 10.9747511" id="path23463" fill="none" stroke-width=".5" stroke-miterlimit="4" stroke-dasharray="none"/>
          <path d="M85.172149 2.9495052L74.870696 15.67483" id="path23465" fill="none" stroke-width=".5" stroke-miterlimit="4" stroke-dasharray="none"/>
          <path d="M83.825554 12.241012l11.17674-5.1170616" id="path23467" fill="none" stroke-width=".5" stroke-miterlimit="4" stroke-dasharray="none"/>
          <path d="M68.339709 18.233361l-2.693191 2.96251 2.625861 1.009946" id="path23469" fill="none" stroke-width=".5" stroke-miterlimit="4" stroke-dasharray="none"/>
          <path d="M73.45677 17.358074l-1.144605 2.019893 2.019892.942617" id="path23471" fill="none" stroke-width=".5" stroke-miterlimit="4" stroke-dasharray="none"/>
          <path d="M68.609028 9.6151517l2.82785 2.8951793 1.009946-2.491201" id="path23473" fill="none" stroke-width=".5" stroke-miterlimit="4" stroke-dasharray="none"/>
          <path d="M68.609028 5.844685l1.548585 1.2119357 1.144605-1.144606" id="path23475" fill="none" stroke-width=".5" stroke-miterlimit="4" stroke-dasharray="none"/>
          <path d="M76.217291 10.894417l.134659 2.76052 3.568478-.740627" id="path23477" fill="none" stroke-width=".5" stroke-miterlimit="4" stroke-dasharray="none"/>
          <path d="M79.449119 6.6526421l.471309 2.558531 2.62586-.8079572" id="path23479" fill="none" stroke-width=".5" stroke-miterlimit="4" stroke-dasharray="none"/>
          <path d="M82.546288 4.1614409l.538638 1.8179036 1.481255-.2693191" id="path23481" fill="none" stroke-width=".5" stroke-miterlimit="4" stroke-dasharray="none"/>
          <path d="M89.009946 8.4032159L87.86534 10.423109l2.019892 1.144606" id="path23483" fill="none" stroke-width=".5" stroke-miterlimit="4" stroke-dasharray="none"/>
          <path d="M93.117061 6.3833231l-1.481255 2.0872226 2.82785.9426167" id="path23485" fill="none" stroke-width=".5" stroke-miterlimit="4" stroke-dasharray="none"/>
          <path d="M66.050497 28.198166l-.605968-2.76052 2.76052-.740628" id="path23487" fill="none" stroke-width=".5" stroke-miterlimit="4" stroke-dasharray="none"/>
          <path d="M70.62892 26.514922l-1.817903.336649.201989 2.89518" id="path23489" fill="none" stroke-width=".5" stroke-miterlimit="4" stroke-dasharray="none"/>
          <path d="M73.389441 27.726858l-1.683244.740627.336648 1.413925" id="path23491" fill="none" stroke-width=".5" stroke-miterlimit="4" stroke-dasharray="none"/>
          <path d="M58.172914 29.81408l1.952564-1.750574 1.481254 1.009947" id="path23493" fill="none" stroke-width=".5" stroke-miterlimit="4" stroke-dasharray="none"/>
          <path d="M58.576893 32.035963l1.279266-.807958 1.279265 1.548585" id="path23495" fill="none" stroke-width=".5" stroke-miterlimit="4" stroke-dasharray="none"/>
          <path d="M58.644223 36.210407l1.279265-.875286 1.211936 1.211935" id="path23497" fill="none" stroke-width=".5" stroke-miterlimit="4" stroke-dasharray="none"/>
        </g>
      </g>
      <path d="M89.69598 13.809087l15.99674 6.855744" id="path28061" fill="none" fill-rule="evenodd" stroke="#000" stroke-width=".5" stroke-linecap="butt" stroke-linejoin="miter" stroke-miterlimit="4" stroke-dasharray="none"/>
      <path d="M96.170849 13.999524l-2.475685 1.333062 1.523499 3.046997" id="path28063" fill="none" fill-rule="evenodd" stroke="#000" stroke-width=".5" stroke-linecap="butt" stroke-linejoin="miter" stroke-miterlimit="4" stroke-dasharray="none"/>
      <path d="M100.74135 17.046522l-2.285253.761749.761749 2.285248" id="path28065" fill="none" fill-rule="evenodd" stroke="#000" stroke-width=".5" stroke-linecap="butt" stroke-linejoin="miter" stroke-miterlimit="4" stroke-dasharray="none"/>
      <path id="text23743" d="M37.815796 235.02998L35.576 228.66603l3.277479-1.15351c.607742-.21389 1.090565-.32527 1.448472-.33416.357901-.009.684904.0932.98101.30605.296098.21291.515447.52195.658049.9271.124259.35308.156217.68416.09587.99324-.06035.30909-.194193.58956-.401524.84141-.132208.16037-.332744.32528-.60161.49471.261913-.004.460161.0137.594745.0541.09068.0266.234802.10113.432367.22349.197556.12237.335785.22171.414688.29802l1.600013 1.51034-2.222608.78225-1.734997-1.57505c-.221741-.20492-.397944-.32667-.528609-.36525-.17644-.0485-.354373-.0412-.5338.022l-.173642.0611.909058 2.58292-1.975169.69516zm.642903-4.48054l.829137-.29182c.08971-.0316.253168-.12162.490367-.27016.121061-.0719.20399-.17587.248786-.31198.04479-.1361.04274-.27361-.0061-.41253-.07232-.20547-.192947-.34028-.36188-.40442-.168938-.0641-.432835-.0331-.791691.0932l-.863866.30404.455293 1.29363zm4.270523-4.3605l5.341329-1.63812.42235 1.37713-3.343831 1.02551.3144 1.02515 3.101843-.9513.403459 1.31554-3.101843.95129.389964 1.27154 3.440626-1.0552.447987 1.46073-5.438125 1.6678-1.978159-6.45007zm6.774964-2.04413l3.351008-.88279c.729832-.19226 1.322187-.16271 1.777069.0887.454874.25138.766723.69748.935548 1.3383.173505.65864.111074 1.22555-.187293 1.70074-.298376.47519-.854014.81986-1.666915 1.03401l-1.103653.29075.637766 2.42091-2.024846.53343-1.718684-6.52401zm2.757573 2.24795l.493973-.13013c.388649-.10238.643814-.24178.765496-.4182.121676-.17641.15477-.36993.09928-.58058-.05393-.20471-.16789-.36029-.341876-.46675-.173992-.10645-.449378-.11004-.82616-.0108l-.574077.15124.383363 1.45521zm8.418824-4.96904l2.032656-.44185.854358 3.93041c.08471.38974.103996.77095.05785 1.14361-.04616.37266-.170711.71684-.373663 1.03254-.202964.3157-.435444.55697-.697441.72381-.363811.23293-.82303.40967-1.377659.53023-.320791.0697-.675697.12333-1.064718.1608-.389027.0375-.725455.0172-1.009284-.0608-.283833-.078-.558148-.21697-.822945-.41687-.264799-.19989-.464521-.42178-.599165-.66566-.217153-.39235-.36092-.75042-.431301-1.07421l-.854358-3.9304 2.032656-.44184.874886 4.02484c.0782.35976.238979.61916.482338.77818.243354.15903.541915.2001.895685.1232.350764-.0762.604163-.23572.760199-.47843.156027-.2427.194289-.54693.114788-.91269l-.874885-4.02484zm-1.553981-1.49421l1.573959-.34214-1.16026 1.66035-.87692.19062.463221-1.50883zm5.257534.73458l3.847098-.65545c.641179-.10923 1.16046-.0343 1.557844.22477.397375.25909.635999.62302.715874 1.0918.06698.39319.0019.75128-.195108 1.07429-.131378.21535-.34506.40425-.641047.56672.497438.0335.882652.17096 1.155643.41233.272979.24137.445541.57377.517687.99719.05874.34479.0314.66845-.08199.97098-.113411.30254-.295583.55766-.546516.76536-.155395.12918-.40313.24608-.743207.3507-.45244.13933-.754268.22188-.905486.24764l-3.547677.60443-1.133112-6.65076zm2.517693 2.25536l.893724-.15227c.320588-.0546.534237-.14782.640947-.2796.106703-.13177.142279-.302.106728-.51069-.03298-.19356-.121503-.33409-.265564-.42159-.144068-.0875-.37186-.1047-.683375-.0516l-.907334.15458.214874 1.2612zm.445206 2.61312l1.047971-.17855c.353856-.0603.592681-.16555.716474-.3158.123785-.15025.167645-.33123.131579-.54294-.0335-.19659-.132252-.34238-.296263-.43737-.164019-.095-.425981-.11182-.785886-.0505l-1.043435.17778.22956 1.34739zm4.532178-6.10064l2.067619-.26652.650134 5.04353 3.226945-.41597.212397 1.6477-5.294564.6825-.862531-6.69124zm6.528804-.79597l2.079155-.20592.664954 6.71374-2.079155.20593-.664954-6.71375zm8.526201 3.30475l1.859682.42957c-.0884.51939-.252803.95928-.49322 1.31968-.24043.3604-.549983.64084-.92866.84134-.378688.20049-.869562.32083-1.472622.36101-.73164.0487-1.336435-.0178-1.814385-.19967-.477955-.18186-.903145-.52943-1.275573-1.04271-.372429-.51328-.586483-1.18778-.642162-2.0235-.07424-1.11429.164879-1.9904.717356-2.62835.552476-.63793 1.370554-.993 2.454236-1.0652.84796-.0565 1.525967.0705 2.034021.38105.508044.31054.903585.81306 1.186625 1.50756l-1.809518.53104c-.07796-.20081-.155297-.34632-.232023-.43654-.126937-.15143-.277443-.26439-.451518-.33889-.174083-.0745-.365205-.10481-.573365-.0909-.471435.0314-.820016.24528-1.045745.64159-.171035.29429-.236462.74296-.196281 1.34602.04976.74695.19714 1.25139.442132 1.51334.244987.26195.572585.37926.982795.35193.397957-.0265.691279-.15829.879968-.39532.188679-.23703.314765-.57137.378257-1.003h0zm7.13708 1.37793l-2.373956.0576-.29964 1.12129-2.13012.0517 2.371365-6.80611 2.272741-.0551 2.698596 6.68312-2.180727.0529-.358259-1.10533zm-.472445-1.44781l-.804128-2.40649-.681895 2.44253 1.486023-.036zm7.082687-4.19848l3.09535.10651c.61017.021 1.10021.12075 1.47013.29924.36991.17851.67219.42682.90684.74494.23463.31813.40008.68453.49633 1.0992.0962.41467.13645.85198.12063 1.3119-.0248.72057-.12605 1.27656-.30375 1.66799-.17771.39143-.41682.71628-.71734.97455-.30053.25827-.61943.42612-.9567.50354-.46109.10693-.87714.15401-1.24814.14124l-3.09535-.1065.232-6.74261zm2.03096 1.59867l-.12677 3.68405.51053.0176c.4354.015.74675-.0227.93405-.11291.18729-.0903.3372-.25394.44974-.49105.11253-.23711.17808-.62549.19665-1.16515.0246-.71442-.0751-1.20749-.29906-1.47921-.22396-.27171-.60577-.41685-1.14542-.43542l-.51972-.0179zm5.51499-1.3019l5.57219.40485-.10438 1.43666-3.48835-.25345-.0777 1.06946 3.23592.2351-.0997 1.3724-3.23591-.23511-.0964 1.32649 3.58933.26079-.11071 1.52386-5.67318-.41219.48889-6.72886zm13.6968 6.97961l-2.35606-.29657-.46328 1.06416-2.11406-.26611 3.35847-6.37708 2.25561.28393 1.67327 7.01047-2.16429-.27244-.18966-1.14636zm-.25157-1.50202l-.43679-2.4994-1.03803 2.31375 1.47482.18565zm4.36498-3.62977l1.92106.31471 1.90353 4.09384.60338-3.68316 1.93922.31768-1.09069 6.65785-1.93922-.31768-1.89438-4.06437-.59891 3.65592-1.93468-.31694 1.09069-6.65785zm10.45627 6.22813l.27743-1.37594 3.15788.63673-.56851 2.81953c-.68759.29014-1.27872.4628-1.77339.51799-.49468.0552-1.06082.0185-1.6984-.11007-.78496-.15827-1.39782-.42111-1.83859-.78854-.44076-.36742-.74387-.84323-.90932-1.42743-.16545-.5842-.17905-1.21915-.0408-1.90486.14554-.7218.421-1.3196.82638-1.7934.40537-.47379.92317-.79113 1.5534-.952.49117-.12317 1.1157-.10835 1.87359.0445.73082.14736 1.26409.32374 1.59982.52914.33572.20541.59508.47131.77809.79771.183.3264.2916.71527.3258 1.16658l-2.04237-.0456c-.0309-.26599-.12997-.48471-.29726-.65615-.16731-.17144-.40134-.28748-.70208-.34813-.44812-.0904-.83665-.007-1.16557.25088-.32893.25762-.56131.72326-.69714 1.39694-.14433.71579-.11283 1.2542.0945 1.61524.20732.36104.55158.59007 1.03278.68709.22857.0461.45328.057.67414.0326.22086-.0243.48119-.0892.781-.19463l.12553-.62255-1.36691-.27561zm4.41714-.0339c.25494-1.0715.7519-1.83471 1.49087-2.28963.73897-.45491 1.64122-.55561 2.70677-.30209 1.0924.25992 1.86431.75343 2.31575 1.48053.45142.7271.55144 1.61895.30006 2.67553-.18252.76708-.46127 1.36539-.83626 1.79495-.375.42955-.83899.72283-1.39196.87982-.55299.15699-1.19361.14885-1.92187-.0244-.74021-.17612-1.32478-.43977-1.75369-.79096-.42891-.35119-.73338-.81784-.9134-1.39995-.18002-.58211-.17878-1.2567.004-2.02378h0zm2.02598.4915c-.15766.66261-.1478 1.16796.0296 1.51607.17735.3481.47795.57257.90178.67341.43576.10368.80677.0422 1.11301-.18458.30624-.22673.5467-.70722.72141-1.44146.14699-.61783.12979-1.09892-.0516-1.44326-.18141-.34433-.48552-.56728-.91233-.66883-.40891-.0973-.77167-.0306-1.08828.19993-.31662.23058-.55446.68015-.71353 1.34872h0zm6.8436-1.81607l2.01298.54219-1.32257 4.91026 3.14168.84621-.43208 1.60416-5.15466-1.3884 1.75465-6.51442zm8.61703 8.28395l-2.27548-.67913-.6316.97373-2.04175-.60937 4.35928-5.73961 2.17846.65017.50034 7.19-2.09025-.62385.001-1.16194zm-.002-1.52295l-.0208-2.53719-1.40359 2.11208 1.42437.42511z" font-size="9.42498589" font-style="normal" font-weight="400" fill="#ce5221" fill-opacity="1" fill-rule="nonzero" stroke="#000" stroke-width="0" stroke-linecap="butt" stroke-linejoin="miter" stroke-miterlimit="4" stroke-dasharray="none" font-family="Arial Black"/>
    </g>
  </g>
</svg>
