<svg xmlns="http://www.w3.org/2000/svg" version="1.0" id="Layer_1" viewBox="0 0 433.836 502.06" overflow="visible" xml:space="preserve">
  <g id="g3">
    <g id="g5">
      <g id="g7">
        <g id="g9">
          <path fill="#6B2808" stroke="#000000" stroke-width="1.2021" d="M128.8 196.772c9.149-3.585 15.266-11.65 24.679-6.004 7.289 4.372 5.816 12.089 7.928 19.643.618 2.221 3.594 7.515 1.725 9.505-2.815 3.001-5.357-1.013-6.676-2.869-4.233-5.961-6.809-9.879-14.433-11.405-3.349-.666-2.705-.79-5.973.736-2.777 1.296-5.329 3.135-7.851 4.8-10.297 6.803-20.274 13.296-32.364 16.833-7.838 2.288-9.397-3.945-7.75-10.25.771-2.952 2.188-6.521 4.273-8.819.805-.886 1.539-1.996 2.657-2.531.9-.436 4.493-.483 5.646-.688 3.112-.544 6.438-1.499 9.524-2.355 6.347-1.764 12.49-4.2 18.615-6.596z" id="path11"/>
          <path fill="#6B2808" stroke="#000000" stroke-width="1.2021" d="M286.979 203.885c-2.289 4.371.545 11.121-1.673 14.825-2.349 3.924-8.791 1.679-11.418-.819-5.799-5.525.875-14.941 2.316-21.275 1.156-5.072 3.131-5.428 8.26-7.933 8.232-4.015 13.488-7.042 21.79-2.255 8.239 4.749 16.795 10.391 25.149 14.544 2.807 1.395 8.278 1.285 9.226 4.765.842 3.063-4.545 9.461-5.359 12.661-.698 2.747-.567 5.474-1.416 8.151-9.865 1.112-14.318-11.471-20.362-16.851-2.398-2.13-5.984-4.798-9.059-5.871-5.479-1.908-11.44 2.197-17.454.058z" id="path13"/>
          <path fill="#BD3010" stroke="#000000" stroke-width="1.2021" d="M235.889 197.222c.191 6.077-1.328 9.751 5.41 12.606 9.342 3.957 19.819-9.206 23.331-16.81 4.336-9.401.497-19.283-8.887-23.865-6.377-3.116-16.203-2.428-22.753-.336-5.371 1.721-11.365 7.496-7.815 13.367 3.882 6.406 10.413 5.549 10.714 15.038z" id="path15"/>
          <g id="g17">
            <g id="g19" stroke="#000000">
              <path fill="#94D342" stroke-width="1.2021" d="M73.081 388.628c1.116-1.199.713-2.674.834-4.368 1.107.204 2.297.816 3.493 1.104-.122-1.009 2.334-5.361 3.265-5.602 1.746-.453 3.989 3.253 5.133 4.013-.101-.544.21-1.354.137-1.915 1.206-.448 1.205-.461 1.985-1.204.851.199 2.218.044 3.05.293-.445-.946-.028-1.769-.22-2.692 3.711-.134 4.068-.591 7.083.697 1.053-4.433 3.614-1.301 6.425-2.827.023-2.817 1.977-5.512 1.653-8.24.697 1.945 1.194 4.248 2.727 5.48 1.208-2.48 3.831 1.137 4.955-2.306 1.153-.109 2.381-.082 3.537-.147-.309-.529-.143-.963-.31-1.46.493 1.464 11.166-2.913 11.941-3.684 1.141-1.141 1.125-2.732 2.851-3.195 1.137 1.612 1.361 2.938 3.219 3.151.133.017 5.207-2.481 5.992-2.743 3.994-1.295 9.084-3.094 13.167-3.539.051.238.109.479.159.729.634-2.172 1.507-1.796 2.807-2.022.127-.021 1.178 1.193 1.838 1.161.329-.013 1.554-1.357 2.107-1.531 7.433-2.367 16.043.639 23.676 1.124 10.868.693 21.882-.692 32.773-.73 10.807-.027 21.01 1.066 31.73-.329 3.846-.502 8.164.344 11.991.838 3.844.5 4.803.496 6.108 3.854 1.538-.764 2.465-2.306 3.606-3.473.178.573 1.049 1.256 1.271 1.86 1.666-.438 3.113-1.726 4.671-2.184.695-.201 1.335-.591 2.063-.573.762.017 1.597 1.211 2.009 1.159 1.012-.138 2.039-1.884 2.383-1.887 1.531-.037 2.799 1.86 3.725 3.026 1.191-1.24 2.59-2.392 4.164-3.037-.384 1.682-.6 3.993.218 5.417 1.605-1.46 5.109-1.679 6.021.469 1.004.209 2.872-.605 3.568-.373 1.673.582 2.063 2.919 3.597 3.799 3.133 1.794 8.429.457 11.738.327 4.533-.164 7.728 1.344 11.967 1.955 3.523.503 5.611-1.082 8.851-1.578 1.302-.207 3.879-.23 5.083.443 1.347.771.956.907 1.651 1.507.165.145.049.97.364 1.295.679.708 1.699.639 2.443 1.183 1.513 1.107 2.75 2.762 4.349 3.479.352-.987.935-.869 1.587-1.507 1.807 3.711 11.251-.482 14.135-1.105-3.999 3.334 1.172 2.906 1.926 3.918.886 1.198-.754 2.023-.086 3.142.869 1.474 2.913 1.6 4.463 2.013-.411.326-.416.479-.718.805 2.984 1.274 5.349 2.082 8.01 3.678 1.588.955 5.649 1.756 6.771 3.114.913 1.106 1.004 2.555 1.664 4.002 1.107 2.424 2.225 2.37 1.523 5.163-2.937 11.75-22.009 12.6-30.848 13.174-24.844 1.621-49.905.017-73.752 7.999-6.132 2.053-12.165 4.362-18.715 4.826-11.18.802-22.721-1.333-33.841-2.341-8.429-.76-16.776-2.185-25.24-2.712-7.909-.491-15.524.766-23.372 1.421-9.833.821-20.12 2.906-30 1.579-9.57-1.291-19.197-3.828-28.833-4.799-15.032-1.512-29.947 2.417-44.949 1.75-10.362-.464-24.211-4.981-32.413-11.649-2.909-2.354-1.505-6.707-1.194-10.387 1.386-.381 2.498.42 3.059 1.554.348-1.216.715-2.441 1.278-3.557 3.382 2.348 7.021-2.154 10.134-3.095 3.744-1.127 8.676-.586 11.563-3.71z" id="path21"/>
              <path fill="none" stroke-width=".601" d="M86.287 406.62c.048-1.623-.647-3.095-1.894-4.039 1.454.255 2.881.932 4.241 1.205-.234-1.07.198-1.871.553-2.716.183.192.841.541 1.111.803.912-.772 1.359-2.046 1.685-3.241.345.371 1.448.726 1.827 1.145.14-.544.726-1.042.88-1.531.284.222.867.332 1.224.661 1.558-1.562 2.285-3.745 2.688-5.772.658 1.049 1.171 2.085 2.035 2.968.314-.925 1.212-1.712 1.614-2.259.048.649.455 1.203.542 1.846 1.485-1.044 3.016-2.228 3.979-3.761-.112 1.179.259 2.352 1.086 3.053.155-.983.908-1.389 1.194-1.941.562.828 1.175.739 1.643 1.131.234-1.175.383-2.354.521-3.538.813.447 1.562 1.375 1.944 2.38" id="path23"/>
              <path fill="none" stroke-width=".601" d="M141.233 381.802c.428-1.538.956-3.04 1.293-4.591 1.117 2.376 2.907 1.024 3.171-.904 1.736 1.331 3.389.736 3.52-1.279 2.819 2.241 4.601-.37 6.063-3.12.376 1.646 3.009 6.051 3.296 1.598.172.781.861 1.52 1.118 2.111.885-1.438.958-3.256.764-4.919.957 1.705 2.167 3.447 2.084 5.467.99-.37 3.642-.747 3.558-.767" id="path25"/>
              <path fill="none" stroke-width=".601" d="M110.75 403.02c1.197-.242 2.394-.546 3.579-.762-.15.386-.123 1.169-.329 1.61 1.037.037 2.432-.227 3.517.096-.013.45.141.975.106 1.412 1.887-.163 1.622-2.316 3.177-3.202.897-.519 3.409 2.343 2.843-1.442.253.438.923.821 1.233 1.444 1.815-.229 2.432-2.644 4.27-3.409-.065.342-.189.602-.309.958.538.323 1.344.388 1.898.446.399-1.812.958-3.624 1.258-5.444.766 1.478 1.194 3.124 1.717 4.662.753-.815 1.579-.682 2.266-1.096-1.045 1.61-.12 2.394 1.594 1.568-.021.245-.191.648-.203.818 1.213-1.42 2.311-3.324 4.147-4.078.478 1.205 1.974 1.092 3.325.813" id="path27"/>
              <path fill="none" stroke-width=".601" d="M150.456 393.012c.239-1.477.36-2.886.801-4.301.669 1.037.853 2.406 1.607 3.495.144-.095 1.536-1.719 1.503-1.719-.37.031 1.882-.318 1.705-.281.753-.165 3.229-.131 4.353-.059.108-1.64 1.225-1.815 2.475-1.159.807-1.488 1.003-3.399 1.274-5.064.764 1.101 1.05 2.552 1.415 3.77.396-.866 1.196-1.419 1.657-2.177.03.88.51 1.729.558 2.564.605-1.25 1.385-2.448 1.926-3.791.165 1.258.928 2.429 1.582 3.516" id="path29"/>
              <path fill="none" stroke-width=".601" d="M162.089 410.223c1.985 0 4.018.09 5.977-.062-.563-1.05-.271-1.694-.001-2.729 2.319 1.035 3.016 1.311 4.442.399 1.226-.791 2.361-3.335 2.905-4.843 1.005 1.058 1.551 2.595 2.23 3.91.831-1.24 2.128-1.891 2.595-3.451 2.76 4.015 2.139.774 5.02-.384.198.68.849 1.061.967 1.913 1.171-.164 3.078-2.048 3.931-2.016.829.027 3.277 2.415 4.416 2.857" id="path31"/>
              <path fill="none" stroke-width=".601" d="M237.895 406.62c1.518.678 3.082 1.32 4.701 1.578-.104-1.729-.821-3.605.497-5.2 1.258 1.119 2.574 2.664 3.928 3.611.677-1.797.697-3.808 1.611-5.509.317 1.419.388 2.918.97 4.193 2.136-2.502 3.236 1.011 5.474-.345.072-.356.357-1.03.373-1.112-.049 1.102.319 2.009.578 3.055 1.575-1.953 2.646-4.797 4.755-6.153 1.008 1.589-.232 4.245.027 6.23 1.216-.14 2.123-.961 3.174-1.502.647 1.921 2.61 3.326 4.385 1.553" id="path33"/>
              <path fill="none" stroke-width=".601" d="M264.762 397.016c.23-1.235.561-2.385.881-3.604.588.633 1.406 1.682 1.935 2.507 1.111-2.962 4.863-.374 7.533-.818 4.888-.818 4.958-6.758 8.006-10.063.179.736.636.93.886 1.444.425-.45 1.206-.833 1.57-1.354-.837 2.637-.837 6.765.111 9.424 1.149-.14 2.209-.214 3.459.103.414 1.264.66 2.626 1.173 3.817 1.645-.728 2.064-2.639 3.653-3.014-.138 4.516 5.025 2.272 5.986-.304.533.654.895 1.707.895 2.658" id="path35"/>
              <path fill="none" stroke-width=".601" d="M286.818 406.62c1.817 1.031 3.013-.785 3.18-2.388 2.343 1.731 2.968 1.185 5.172-.358.559 2.341 2.782 3.547 5.292 2.348" id="path37"/>
              <path fill="none" stroke-width=".601" d="M328.127 397.414c.629-1.103 1.37-2.131 2.093-3.166 2.8 2.6 2.236-.798 3.499-.787 1.701.017 3.121 2.333 4.448 3.411.496-2.08 1.772-3.771 2.48-5.841 1.233.203 2.6.559 3.924.378" id="path39"/>
              <path fill="none" stroke-width=".601" d="M342.568 399.016c.744-1.194 1.656-1.357 2.746-.853.062-1.215-.076-2.465.41-3.532.528.368 1.926.456 2.394.737-.167-.724.108-1.515-.185-2.316.463.32 1.685.53 2.295 1.044.621-1.17 1.188-2.649 2.304-3.475.081 1.307.531 1.283.969 2.267.628-1.856 1.969-3.658 3.44-4.953.216 2.266-.727 5.117.055 7.046 1.532-.997 2.351-4.07 4.017-2.771" id="path41"/>
            </g>
            <g id="g43">
              <path d="M133.214 199.023H300.86s30.478 148.912-84.223 216.965c0 0-93.851-37.626-83.423-216.965z" id="path45"/>
              <g id="g47" fill="#fdda53" fill-opacity="1">
                <path d="M240.054 264.475c0 11.382-9.695 20.616-21.656 20.616-11.962 0-21.655-9.234-21.655-20.616 0-11.387 9.693-20.615 21.655-20.615 11.961 0 21.656 9.227 21.656 20.615z" id="path49"/>
                <path d="M242.064 257.871c.399 1.786.479 3.618.371 5.454 9.213-2.194 15.888-10.065 25.577-11.852-8.168-4.682-17.921 7.068-26.35 5.998" id="path51"/>
                <path d="M181.60937 257.51267c2.672 1.434 5.829 2.162 8.823 2.493 4.092.446 5.077.334 4.76-3.953-1.999-.041-4.064-.419-6.05-.744-3.708-.601-6.529-3.366-9.771-4.938-3.655-1.775-7.762-.673-11.273-1.986 5.512 2.056 8.567 6.464 13.511 9.128z" id="path53"/>
                <path d="M196.596 253.923c.835-1.547 1.838-2.994 3.001-4.317-1.704-1.445-5.474-4.551-5.837-4.838-1.491-1.172-3.108-1.938-4.867-2.673-2.588-1.092-5.208-2.132-7.693-3.464-1.215-.654-2.327-1.472-3.523-2.143-1.143-.645-2.339-1.202-3.168-2.252 1.127 2.061 2.189 4.077 4.017 5.683 1.829 1.606 3.887 3.194 6.112 4.211 2.607 1.195 4.465 3.045 6.655 4.803 1.501 1.207 3.419 3.684 5.303 4.99z" id="path55"/>
                <path d="M187.112 226.244c-.122-.685-.298-1.353-.497-2.014-.224-.402-.449-.804-.703-1.188l1.2 3.202zm6.82 5.207c-2.396-2.744-6.165-4.912-7.648-8.288.125.346.231.709.332 1.067 2.361 4.155 3.244 9.049 6.499 12.735 1.833 2.064 6.232 7.869 9.043 10.17 1.313-1.099 2.742-2.08 4.282-2.889-3.965-2.305-10.076-10.011-12.508-12.795z" id="path57"/>
                <path d="M208.499 243.284c1.585-.658 3.26-1.151 5-1.47-1.497-2.904-2.397-7.481-4.415-9.877-2.687-3.191-5.773-6.058-7.23-10.095-.662-1.836-.814-3.927-.685-5.92-.368 5.763-.907 11.725 2.787 16.727 2.202 2.98 3.611 6.909 4.543 10.635z" id="path59"/>
                <path d="M218.119 241.383c.753 0 1.494.042 2.235.108-.088-4.644-1.546-9.885-1.402-14.263.156-4.628.932-8.961-1.691-13.116.93 1.474.259 6.252.111 8.055-.281 3.356-1.811 6.447-2.177 9.783-.299 2.641-.068 6.695.299 9.575.862-.09 1.735-.142 2.625-.142z" id="path61"/>
                <path d="M228.472 243.626c.695-2.421 1.631-5.093 2.046-7.315.602-3.255.665-6.459 1.638-9.678.392-1.307 3.26-9.608 4.261-9.522-2.985-.247-8.453 7.874-9.105 10.733-.1.427-.154.857-.193 1.294-.113 1.434-.01 2.906-.323 4.309-.496 2.26-2.424 6.198-2.836 8.641 1.575.372 3.085.889 4.512 1.538z" id="path63"/>
                <path d="M235.108 248.028c.977-1.511 1.902-3.541 2.774-4.788 1.242-1.769 2.381-3.613 3.468-5.366 2.687-4.322 5.467-9.444 5.533-14.711-.07 5.975-7.525 10.553-11.145 14.528-1.585 1.741-4.129 4.456-5.299 6.93 1.697.959 3.27 2.094 4.669 3.407z" id="path65"/>
                <path d="M250.479 242.648c-1.136 1.205-2.132 3.236-3.721 3.926-1.718.74-3.828.052-5.624.426-.567.118-2.924 1.655-4.515 2.591 1.361 1.541 2.505 3.265 3.413 5.118 2.772-2.657 8.313-4.834 10.872-7.249 3.225-3.04 4.649-7.885 8.369-10.347-3.402.573-6.443 3.015-8.794 5.535z" id="path67"/>
              </g>
              <path fill="#4166b5" d="M301.231 263.49c-8.594 1.621-20.726-1.362-28.914-3.44-6.514-1.652-12.334-6.144-19.051-6.186-8.706-.055-16.772 4.683-24.922 7.027-8.174 2.357-14.834.578-22.588-2.044-14.625-4.95-23.259-10.419-39.127-5.207-10.494 3.45-21.393 3.86-32.21 5.899.02.244.038.495.062.736 11.449 125.953 82.684 154.511 82.684 154.511 64.078-38.011 82.849-101.263 86.938-149.685.07-.855.132-1.693.19-2.536-1.062.423-2.102.746-3.062.925z" id="path69" fill-opacity="1"/>
              <path fill="#FFFFFF" stroke="none" stroke-width=".601" d="M240.231 302.548c-20.697 6.73-41.409-8.969-62.371-4.822-7.123 1.405-12.528 4.873-20.051 4.977-5.352.08-10.968.777-16.36.908 1.634 6.813 3.458 13.225 5.431 19.271 1.245-.023 2.487-.087 3.727-.24 7.271-.959 14.434-2.609 21.642-3.93 13.966-2.551 26.323-1.826 40.671.048 7.681.998 14.67 1.892 22.433.937 7.462-.923 14.606-4.163 22.2-4.181 6.79-.003 13.053 2.922 19.169 5.636.678.305 1.354.604 2.031.899 3.779 1.636 7.852 3.028 11.82 4.655 2.325-6.14 4.313-12.292 5.98-18.396-9.591-3.822-18.877-9.22-28.857-10.584-10.429-1.427-17.751 1.657-27.465 4.822zm15.893 33.178c-.146-.007-.286-.021-.431-.03-9.32-.598-18.79 3.341-27.945 4.616-9.161 1.279-16.67-.258-25.822-2.582-9.998-2.53-20.226-2.045-30.237.105-3.414.73-11.645 1.534-14.186 3.932-3.533 3.331-1.187 5.356 1.237 10.171 6.967 13.829 15.587 26.869 26.152 38.231 2.723 2.928 26.807 27.866 32.272 24.617 31.792-18.854 52.417-43.93 65.646-70.318-8.143-4.099-17.468-8.038-26.686-8.742zm45.107-72.236c-8.594 1.621-20.726-1.362-28.914-3.438-6.514-1.654-12.334-6.146-19.051-6.188-8.706-.055-16.772 4.683-24.913 7.027-8.183 2.357-14.843.578-22.597-2.044-14.625-4.948-23.259-10.419-39.127-5.207-10.494 3.453-21.393 3.864-32.208 5.899.019.244.035.499.059.737.574 6.309 1.3 12.36 2.158 18.183 3.467.292 6.727.354 8.868.109 8.888-1.013 17.323-4.417 25.8-7.091 12.853-4.05 24.896 4.569 36.679 8.388 14.913 4.839 24.88-.732 38.678-6.181 18.498-7.301 27.366 7.756 44.335 9.044.873.065 5.619.2 10.955.237.951-6.119 1.658-12.1 2.144-17.866.076-.853.138-1.693.196-2.529-1.072.418-2.102.741-3.062.92z" id="path71"/>
              <path fill="#94D342" d="M167.555 352.464c2.179.134 4.45-.159 6.295-.825.582.521 1.325 1.423 1.785 2.021.609-.664 1.088-1.296 1.642-2.044.258.18 1.248 1.355 1.503 1.43 9.173-3.908 23.222 1.29 31.895-4.51 4.2 8.94 5.881 3.966 12.096 2.924 5.647-.944 19.344 5.896 22.628-1.198 3.238 1.728 7.339-.904 8.805 3.535 1.254-.184 2.44.052 3.739-.559.073.457.155.914.231 1.367.852-.219 2.808-.249 3.813-.367.287.632.03 1.308.215 1.993 3.396 0 7.402 2.548 10.491 3.161.931 8.624-15.601 23.208-21.411 29.022-10.193 10.197-21.712 19.018-34.118 26.372-2.874 1.707-18.023-11.339-19.853-12.857-14.861-12.272-30.666-28.98-37.199-47.26 1.912.954 5.138.889 7.197.751-.089-.87.334-2.083.246-2.956z" id="path73"/>
              <g id="g75">
                <linearGradient id="XMLID_9_" gradientUnits="userSpaceOnUse" x1="180.354" y1="336.3311" x2="257.6602" y2="336.3311">
                  <stop offset="0" id="stop78" stop-color="#ffff8c"/>
                  <stop offset=".0277" id="stop80" stop-color="#ffff92"/>
                  <stop offset=".1859" id="stop82" stop-color="#fefdb0"/>
                  <stop offset=".3525" id="stop84" stop-color="#fefcc8"/>
                  <stop offset=".5293" id="stop86" stop-color="#fdfcd9"/>
                  <stop offset=".7231" id="stop88" stop-color="#fdfbe3"/>
                  <stop offset=".9663" id="stop90" stop-color="#fdfbe6"/>
                </linearGradient>
                <path fill="url(#XMLID_9_)" stroke="#000000" stroke-width="1.2021" d="M187.575 298.303s30.079-12.609 63.467 0l6.618 81.662h-77.306l7.221-81.662z" id="path92"/>
                <path fill="none" stroke="#000000" stroke-width="1.2021" d="M186.463 310.864s30.222-10.85 65.6 0" id="path94"/>
                <path fill="none" stroke="#000000" stroke-width="1.2021" d="M185.27 324.35s29.389-9.076 67.889 0" id="path96"/>
                <path fill="none" stroke="#000000" stroke-width="1.2021" d="M184.149 337.017s34.855-10.579 70.128 1.174" id="path98"/>
                <path fill="none" stroke="#000000" stroke-width="1.2021" d="M199.606 379.965v-30.329s2.994-16.97 20.748-16.97c0 0 17.755.767 19.26 16.97v30.329" id="path100"/>
                <path fill="none" stroke="#000000" stroke-width="1.2021" d="M182.854 351.697s12.842-2.062 16.752-2.062" id="path102"/>
                <path fill="none" stroke="#000000" stroke-width="1.2021" d="M181.42 367.94s11.565-2.685 18.186-2.685" id="path104"/>
                <path fill="none" stroke="#000000" stroke-width="1.2021" d="M239.614 364.052s10.74.285 16.952 2.392" id="path106"/>
                <path fill="none" stroke="#000000" stroke-width="1.2021" id="line108" d="M197.394 308.097v13.74"/>
                <path fill="none" stroke="#000000" stroke-width="1.2021" id="line110" d="M207.056 293.535v12.571"/>
                <path fill="none" stroke="#000000" stroke-width="1.2021" id="line112" d="M219.76 306.047v14.274"/>
                <path fill="none" stroke="#000000" stroke-width="1.2021" id="line114" d="M232.168 293.535v13.169"/>
                <path fill="none" stroke="#000000" stroke-width="1.2021" id="line116" d="M243.85 308.701v13.766"/>
                <path fill="none" stroke="#000000" stroke-width="1.2021" id="line118" d="M206.522 320.796v12.358"/>
                <path fill="none" stroke="#000000" stroke-width="1.2021" id="line120" d="M232.676 320.987v12.484"/>
                <path fill="none" stroke="#000000" stroke-width="1.2021" id="line122" d="M193.768 334.839v15.308"/>
                <path fill="none" stroke="#000000" stroke-width="1.2021" id="line124" d="M246.503 335.946v14.516"/>
                <path fill="#FFFF84" stroke="#000000" stroke-width="1.2021" d="M207.727 379.965V349.94s.302-10.207 12.332-10.207c12.032 0 10.833 9.902 10.833 9.902v30.329h-23.165z" id="path126"/>
                <path fill="none" stroke="#000000" stroke-width="1.2021" id="line128" d="M191.171 366.07v13.895"/>
                <path fill="none" stroke="#000000" stroke-width="1.2021" id="line130" d="M248.364 364.742v15.223"/>
                <path fill="none" stroke="#000000" stroke-width="1.2021" id="line132" d="M199.606 367.655h8.121"/>
                <path fill="none" stroke="#000000" stroke-width="1.2021" id="line134" d="M230.892 367.953h8.722"/>
                <path fill="none" stroke="#000000" stroke-width="1.2021" id="line136" d="M199.606 357.146h8.121"/>
                <path fill="none" stroke="#000000" stroke-width="1.2021" id="line138" d="M230.892 358.645h8.722"/>
                <path fill="none" stroke="#000000" stroke-width="1.2021" id="line140" d="M200.259 347.255l7.468 2.685"/>
                <path fill="none" stroke="#000000" stroke-width="1.2021" id="line142" d="M205.856 338.167l4.915 4.904"/>
                <path fill="none" stroke="#000000" stroke-width="1.2021" id="line144" d="M215.199 333.206l1.673 6.8"/>
                <path fill="none" stroke="#000000" stroke-width="1.2021" id="line146" d="M225.496 332.847l-2.114 7.182"/>
                <path fill="none" stroke="#000000" stroke-width="1.2021" id="line148" d="M229.633 344.038l6.29-3.942"/>
                <path fill="none" stroke="#000000" stroke-width="1.2021" d="M230.892 349.636h8.723s10.202 1.04 15.78 2.323" id="path150"/>
                <path d="M207.727 379.965h8.725V349.94s7.974-12.865 14.065-3.882c-2.906-5.297-9.075-7.82-14.767-5.648-10.72 4.108-8.024 15.226-8.024 24.308.001 5.083.001 10.163.001 15.247z" id="path152"/>
              </g>
              <path fill="none" stroke="#000000" stroke-width="2.4041" d="M133.214 199.023H300.86s30.478 148.912-84.223 216.965c0 0-93.851-37.626-83.423-216.965z" id="path154"/>
            </g>
          </g>
        </g>
        <g id="g156">
          <g id="g158" stroke="#000000" stroke-width="1.2021">
            <g id="g160" fill="#73B642">
              <path id="polygon162" d="M312.497 181.247v196.951l7.217 4.001V174.442z"/>
              <path d="M316.105 320.149c-.032-5.315-1.977-17.178-8.775-18.368 1.271 5.871 1.688 11.814 2.71 17.639 1.149 6.56 2.853 12.826 2.855 19.549" id="path164"/>
              <path d="M314.903 309.344c1.12-3.073 5.787-14.417 10.313-13.334-4.934-1.182-5.899 36.769-5.899 39.757" id="path166"/>
              <path d="M313.297 269.716c0-8.466-.459-16.388-1.707-24.809-.411-2.783-.521-5.58-1.343-8.291-.434-1.435-1.394-5.748-2.504-6.519 5.542 3.829 7.258 10.275 8.75 16.4 1.054 4.314 3.014 9.958 2.823 14.41" id="path168"/>
              <path d="M318.111 252.103c-.264-7.664 2.187-18.264 5.982-24.778-4.277.998-8.32 6.82-9.596 10.766" id="path170"/>
              <path d="M319.714 224.48c-.002-6.109-.613-11.5.46-17.741.45-2.607-.229-8.11 2.187-9.852-4.936 3.548-7.496 12.698-7.457 18.387" id="path172"/>
              <path d="M317.71 282.923c-1.503-3.545-3.298-6.976-4.911-10.479-.856-1.862-4.201-4.908-4.242-6.7.253 9.698 3.631 19.101 4.339 28.788" id="path174"/>
              <path d="M319.316 296.938c.013-5.256.423-11.114 1.162-16.355.693-4.899 3.057-9.331 3.166-14.439-.02.856-4.222 4.758-4.889 5.882-1.381 2.327-2.674 5.084-3.459 7.67-2.364 7.703-3.48 15.149-3.206 23.246" id="path176"/>
            </g>
            <path fill="#73B642" d="M268.378 380.199s20.854-2.406 34.895 0l18.448 5.606s27.675-26.022 52.938-32.831c0 0-32.714 6.23-47.73 21.217 0 0-21.256-32.023-34.088-41.23 0 0 15.259 24.006 28.145 45.278 0 0-27.74-12.85-45.384-11.651 0 0 20.162 2.913 24.171 8.523l26.362 3.891s16.839-29.223 31.279-51.644c0 0-41.941 48.761-34.893 51.644-21.066-8.61-55.272 1.727-54.143 1.197z" id="path178"/>
            <g id="g180">
              <g id="g182">
                <path fill="#F7FF73" d="M309.667 148.824c-.639 1.703-.857 3.824-.63 5.623.203 1.673 1.346 3.146 1.491 4.781.074.907-1.244 2.379-1.242 3.607.006 3.211 2.334 5.02 5.49 4.802-2.033.14-3.484-.974-5.399-1.26-2.473-.369-3.104.349-5.284 1.281-5.139 2.2-3.805 4.127-2.708 8.793.22.978.208 1.163.687 2.309.209.5 1.367.92 1.623 1.668.61 1.842-3.562 12.786 1.073 11.687 1.296 1.859.896 5.15 4.534 3.866 1.109-.403 1.621-1.968 2.589-2.582.778-.497 1.977-.069 2.626-.615 1.575-1.334 1.495-3.116 1.997-5 1.236 2.313-1.786 4.603-.328 7.072 1.225 2.077 4.516 2.762 5.847.542-.999 1.666 3.244 1.541 3.828 1.259 2.465-1.202 1.339-3.209 1.872-4.969.354-1.165-.687-.775.412-1.883.64-.65 2.613-.347 3.446-.687 2.274-.932 2.688-1.463 3.365-3.867.197-.724-.327-1.766.061-2.434.403-.701 1.873-.385 2.382-1.063.886-1.197 1.202-2.534 1.164-4.11-.035-1.514-.499-2.922-.709-4.414-.277-1.903-.476-2.204-1.7-3.598-.72-.824-2.199-.569-2.686-1.512-.425-.816.188-1.66-.112-2.494-.72-2.014-1.08-2.576-3.214-3.996-1.475-.981-3.684-1.825-4.721-3.293-1.11-1.58-2.766-4.202-3.389-5.901-.709-1.92.936-4.874-1.457-6.118-1.053-.544-5.002 1.398-4.787 1.659-1.943-2.337-5.053-2.005-6.121.847z" id="path184"/>
                <path fill="#F7FF73" d="M299.985 173.99c.88-3.017 3.763-3.828 6.59-3.299 1.604.297 2.697 1.325 4.145 1.868.864.319 1.743-.395 2.595.248 1.269.967 2.082 2.976 1.54 4.565-.317.909-4.22 3.585-4.307 1.938.157 2.898-.336 4.848-3.268 5.458-1.283.268-5.854-.179-6.815-1.169-3.41 2.504-7.921-2.056-3.756-5.144-2.847-2.365.373-5.713 3.276-4.465z" id="path186"/>
                <path fill="#F7FF73" d="M325.156 165.586c-3.002 4.161 6.496 9.001 6.649 2.601 1.906 1.062 3.89.274 3.629-2.111 3.201 1.729 3.208-5.973-.842-6.118 2.157-5.239-3.189-5.665-6.553-4.082-.293.139-2.73-1.961-4.477-.979-1.81 1.015-2.419 2.967-1.194 4.761-7.05.433-.392 10.349 2.788 5.928z" id="path188"/>
                <path fill="#F7FF73" d="M324.232 176.023c-2.268-3.329-4.476-.939-6.994-.147-.783.249-1.703-1.083-2.714-.487-.736.435-1.825 3.954-.582 4.196-3.708-.723-5.042 4.076-2.757 6.486 1.767 1.862 2.234.145 4.133.661 1.598.438 1.535 2.624 4.008 2.13 2.278-.46 1.665-2.589 2.867-3.942 1.528-1.733 3.4-1.297 3.153-4.473-.036-.476-1.012-4.271-1.114-4.424z" id="path190"/>
                <path fill="#F7FF73" d="M311.671 163.342c.066-3.638-.375-6.791-4.696-6.462-1.945.149-5.836 1.681-4.65 4.291-3.078-.34-6.434 5.726-2.399 6.052-.764.846-1.346 3.29.128 3.953 1.83.826 4.08-2.324 4.932-3.498 1.474 1.608 2.593 2.259 4.717 1.059.835-.467 2.024-1.745 2.312-2.7.465-1.539-.356-1.979-.344-2.695z" id="path192"/>
                <path fill="none" d="M314.903 175.243c-.903-2.303-2.098-5.069 1.059-5.981-2.24-3.315-.107-6.483 3.752-6.029" id="path194"/>
                <path fill="none" d="M323.725 175.642c2.355-.129 3.96-2.979 3.615-4.805" id="path196"/>
                <path fill="none" d="M336.963 181.648c-1.514 2.233-4.938.846-6.1-1.144-2.354 1.074-3.364-.898-5.473-.796.214 3.233-3.75 4.307-3.093 7.038.535 2.208 4.831 3.242 6.643 2.507" id="path198"/>
                <path fill="none" d="M310.486 158.428c2.575 1.413 3.796-2.519 6.354-2.642 1.712-.082 5.083 1.71 4.077 3.844" id="path200"/>
                <path fill="none" d="M329.339 160.829c-.398-.079-.788-.057-1.17.065-.14.506-.138 1.381.028 1.879.473.083 1.053.145 1.546.063" id="path202"/>
                <path fill="none" d="M331.747 174.843c-.479.489-.67 1.053-.583 1.691.764.522 1.343.262 2.185-.092" id="path204"/>
                <path fill="none" d="M328.145 184.451c-.534.083-.805.36-.829.826.529.433.976.385 1.625.376" id="path206"/>
                <path fill="none" d="M321.721 191.253c-.572.129-1.138.426-1.58.78.189.694.219.654.796 1.102.321-.109.446-.337.382-.68" id="path208"/>
                <path fill="none" d="M308.486 188.453c-.125.443 0 .731.378.87 2.331-.638.919-4.509-.778-1.672" id="path210"/>
                <path fill="none" d="M304.474 176.042c-.608.259-1.053.677-1.324 1.251.905.947 1.7.816 2.522.351" id="path212"/>
                <path fill="none" d="M317.71 180.047c-.892.666-1.403 1.268-1.138 2.339.711.285.951-.073 1.539-.34" id="path214"/>
                <path fill="none" d="M320.512 169.238c-1.122.675-1.677 1.229-.704 2.239.541-.05.44-.459.704-.639" id="path216"/>
                <path fill="none" d="M306.48 161.631c-.756.481-1.236.892-1.448 1.717 1.098.734 1.223.075 1.849-.514" id="path218"/>
                <path fill="none" d="M313.297 159.629c-.118.561-.039 1.391.057 1.964 1.177.012 1.257-.642 1.55-1.563" id="path220"/>
              </g>
              <path fill="none" d="M320.115 150.823c-.358-.051.193 1.088-.505.461-.145-.186-.603-.958-.688-1.141-.668.624-.605.608-.759 1.418 1.811.071 3.599.331 4.804 1.667-4.048 5.921-12-1.318-6.461-5.609" id="path222"/>
            </g>
          </g>
          <g id="g224">
            <path fill="#6B2808" stroke="#000000" stroke-width="1.2021" d="M371.213 281.336c-.391-1.144-.818-2.281-1.263-3.398-1.945-4.908-6.738-13.578-13.159-12.901-3.226.336-8.679 6.49-10.813 8.622-3.459 3.447-7.284 7.474-9.632 11.76-2.618 4.775-1.498 12.725-1.705 18.017-.208 5.28.715 12.092-1.911 16.848-2.916 5.282-7.563 11.148-12.125 15.141-3.216 2.818-2.479 4.897-2.366 8.674.11 3.767-.528 7.672-.737 11.448-.033.689.236 1.759.012 2.408-.381 1.11-1.227.743-1.622 1.541-2.036 4.102-.287 8.017.019 12.462.153 2.275-.276 2.776 1.466 4.402 1.268 1.18 6.297 3.399 8 3.146.779-5.993 1.611-12.714 6.027-17.467-5.701-8.783 1.002-20.98 8.152-26.103 2.69-1.929 7.144-3.896 8.938-6.789 1.056-1.71.267-4.373.363-6.107.2-3.678.621-8.171 2.325-11.525 1.561-3.07 4.427-3.98 7.426-5.431 10.906-5.269 16.84-12.308 12.605-24.748z" id="path226"/>
            <path fill="#391810" d="M367.723 282.216c-.976-4.188-4.182-7.066-7.691-9.535-4.85-3.417-9.828-3.234-14.054.977-3.459 3.447-7.284 7.474-9.632 11.76-3.021 5.507-2.5 16.013-1.918 22.067 3.041-4.566 3.896-10.754 7.542-15.502 2.319-3.027 6.451-6.153 10.526-6.115 5.771.055 7.448 5.769 7.557 10.579.021 1.149-1.23 6.987-.394 7.566 1.928 1.319 6.755-5.803 7.265-7.31 1.357-4.021 1.525-8.941 1.022-13.228-.052-.427-.126-.855-.223-1.259z" id="path228"/>
            <path fill="#391810" d="M331.618 338.038c.445-.99.946-1.966 1.513-2.9 2.158-3.548 5.599-5.854 7.909-9.161-2.816-.134-4.684 3.352-7.457 3.512.204-1.478 1.091-2.938.891-4.234-3.333 2.257-4.484 6.734-5.415 10.262-1.449 5.426-2.472 11.054-5 16.112-1.335 2.68-2.66 3.917-4.806 5.75-1.619 1.39-3.496 2.607-3.671 4.962-.172 2.489 1.361 5.797 1.518 8.404.149 2.504-.438 5.088 1.188 7.128 1.497 1.879 1.618 1.577 2.912.54 2.18-1.737 2.691-5.668 3.592-8.127 1.334-3.604 3.565-6.889 3.575-10.884.013-7.049.312-14.746 3.251-21.364z" id="path230"/>
          </g>
          <path fill="#73B642" stroke="#000000" stroke-width="1.2021" d="M285.02 345.139s32.481 33.623 32.481 40.829c0 0 4.414 5.2 9.628 0 0 0 24.061-5.208 48.93-5.208 0 0-25.269-4.401-48.124-1.6 0 0 1.996-42.43 4.806-50.838 0 0-10.02 20.414-11.625 50.439-.001.001-17.65-22.82-36.096-33.622z" id="path232"/>
        </g>
        <g id="g234">
          <path fill="#6B2808" stroke="#000000" stroke-width="1.2021" d="M91.803 277.877c-5.158-3.563-2.811-7.408-4.539-11.968-1.758-4.634-2.635-2.667-5.198.245-4.036 4.585-8.625 8.537-12.365 13.403-3.871 5.04-5.907 14.695-4.435 20.848 1.81 7.58 11.826 6.633 18.147 9.858 4.793 2.437 6.343 5.597 7.852 10.653 1.245 4.16-.247 11.248 2.361 14.572 2.41 3.077 8.811 4.675 12.076 6.432 4.211 2.255 7.862 5.428 11.986 7.669 3.58 1.936 5.778 2.081 8.497 5.07 2.671 2.937 4.037 6.499 8.5 7.09 8.971 1.179 5.585-13.432 2.417-17.547-2.626-3.417-7.707-3.671-11.592-5.124-6.935-2.59-13.451-5.379-18.488-11.108-7.145-8.141-1.996-25.905-3.289-35.738-.815-6.211-7.051-10.987-11.93-14.355z" id="path236"/>
          <path fill="#841C18" stroke="#000000" stroke-width="1.2021" d="M143.575 354.57c3.472-.071 4.158-.876 6.647 2.356 1.267 1.652 3.277 5.708 2.402 7.854-2.133 5.246-10.108 3.458-14.137 2.132-2.438-.805-9.229-4.268-9.813-6.98-.831-3.824 11.449-5.276 14.901-5.362z" id="path238"/>
          <path fill="#391810" d="M80.527 288.017c1.521-1.793 4.437 1.237 4.781-3.039 3.588-.263 15.629-.814 16.681 4.666-1.01-5.261-5.652-7.051-9.538-9.705-5.653-3.868-4.761-8.501-7.984-13.571-3.265 2.997-6.821 8.089-9.341 11.784-3.688 5.413-4.509 7.188-3.745 12.86.82 6.133-3.168 17.216 7.024 15.4-2.351.419 1.07-17.162 2.122-18.395z" id="path240"/>
          <path fill="#391810" d="M122.519 350.339c-2.396-.151-4.783-1.42-5.926-3.44 1.673-1.912 1.219-4.535.575-6.708 3.861 1.729 4.256-1.175 7.155-1.289 2.307-.093 4.813 1.822 6.734 2.886 5.017 2.779 7.169 6.792 9.101 11.476-2.311-4.027-4.723-8.352-9.22-9.991-4.615-1.685-10.398.014-6.827 5.776-.546.16-1.016.067-1.593.089" id="path242"/>
        </g>
        <g id="g244" stroke="#000000" stroke-width="1.2021">
          <g id="g246">
            <path fill="#FFF363" d="M128.098 194.819l.102 201.752s-.901 8.712-7.819 1.803l1.2-199.951" id="path248"/>
            <path fill="none" d="M127.6 381.262c-.815 1.917-5.357 1.521-6.918.602" id="path250"/>
            <path fill="none" d="M120.078 358.451c1.709 1.647 6.028 1.912 7.521 0" id="path252"/>
            <path fill="none" d="M120.381 326.024c1.718 1.341 6.051 1.147 7.218-.907" id="path254"/>
            <path fill="none" d="M121.281 294.798c1.555.607 5.073.928 6.617.3" id="path256"/>
          </g>
          <g id="g258">
            <path fill="#73B642" d="M121.428 200.767c-.007-.825.124-1.757-.248-2.523-.387-.794-1.242-1.272-1.777-1.955-1.225-1.552-2.288-3.263-3.087-5.071-.907-2.063-1.843-4.144-3.146-5.991-.799-1.138-1.773-2.125-2.7-3.152-.461-.518-.89-1.038-1.276-1.602-.337-.487-.806-.871-1.054-1.415 1.123 1.625-.946 3.474-1.46 4.89-.583 1.595-1.155 3.195-1.491 4.864-.48 2.395.037 5.496-1.07 7.597-1.373-7.403-4.339-15.367-.48-22.498 2.99.345 7.583 1.293 10.03.368-1.08-5.562-1.929-7.243-7.726-7.683-5.454-.41-8.983.389-12.393 4.753 1.981-4.988 2.601-8.444 7.577-10.153 3.768-1.295 8.55-.218 12.542-.814.574-10.431-10.582-14.06-16.056-21.784 4.13 3.491 8.954 6.555 13.757 9.249 3.076 1.73 8.113 1.742 10.372 4.129 2.966-7.769 1.233-19.332-2.042-26.611 5.429 6.26 10.315 12.558 10.307 20.801-.014 8.292-1.711 17.069-1.236 25.055.703-2.269 3.891-5.434 6.513-5.367 2.404.058 4.052 2.863 5.985 5.097 5.073 5.86 6.191 8.385 6.178 16.482-.495-6.471-7.796-15.043-13.399-9.591-1.887 1.834-3.236 4.104-3.961 6.633-.351 1.222-.56 2.482-.679 3.749-.141 1.425-.357 2.548-.72 3.923-.189.71-.4 1.47-.554 2.179-.243 1.142-.461 2.111-.461 3.326" id="path260"/>
            <path fill="none" d="M113.759 156.991c1.072 6.092 7.164 13.057 7.254 19.032-.127-8.796.678-18.709 1.773-27.438" id="path262"/>
            <path fill="none" d="M113.157 172.602c2.024 6.075 3.628 17.315 10.228 20.416" id="path264"/>
            <path fill="none" d="M126.997 184.009c.819-2.292.938-4.749 1.16-7.152.12-1.303 0-2.668.193-3.958.126-.839.298-2.214.933-2.834" id="path266"/>
            <path fill="none" d="M103.534 176.207c2.667.388 4.53 3.119 6.015 4.8" id="path268"/>
            <path fill="none" d="M132.687 179.606c.2-1.017 1.056-1.685 1.476-2.594.396-.85.439-1.808.607-2.716.257-1.387.53-2.786.943-4.138.105-.357 1.268-3.916 1.896-3.024" id="path270"/>
          </g>
        </g>
      </g>
      <g id="g272">
        <path fill="#FFFFFF" stroke="#000000" stroke-width="1.2021" d="M348.434 171.266c.612-.058 1.501.122 2.177.105-7.966 3.492-11.75 17.692-17.271 24.049-5.19 5.98-7.999 9.896-8.419 18.012-.423 8.246-7.217 8.353-13.129 11.221-1.58.765-7.535 4.049-5.729 6.712 1.661 2.441 8.821-1.467 11.068-1.72 3.866-.433 7.557-2.155 11.397-2.399 3.199-.204 5.145.593 8.182-1.264-3.257 2.013-6.777 1.651-10.525 1.982 2.63-.237 4.563 10.069 5.123 11.377.854 2.016 5.835 16.944 7.375 17.222-.814-.15-2.049.339-2.87.227 2.556 7.191 6.391 10.124 12.435 14.42 2.658 1.888 5.171 4.647 7.344 6.636 1.687 1.542 4.949 5.191 7.136 5.779.203-3.284.094-6.656.094-9.977 0 4.541 1.287 8.371 1.643 12.667.408 4.724-2.311 9.424-1.053 14.16 4.149 15.605 18.692 25.641 19.865 42.657.367 5.313-.257 10.564-.598 15.748-.252 3.733-2.36 16.354.598 18.55 4.713-3.731 5.963-17.607 7.068-23.462 2.075-10.962-.219-20.229-3.494-30.705-4.166-13.379-10.341-26.251-9.583-40.664.485-9.457.079-16.181-9.026-21.146-11.15-6.07-26.744-19.093-20.462-32.407 1.418-2.995 2.874-6.286 2.888-9.608.024-4.44-3.313-7.897-3.489-12.014-.197-5.061 4.961-9.571 7.839-13.234 4.145-5.285 7.35-10.831 10.38-16.83 1.641-3.271 3.086-4.495 5.215-6.655 2.332-2.362 5.563-5.597 4.271-9.525-1.787-5.446-10.349-4.933-14.354-2.424-3.688 2.314-1.782 3.542-3.743 6.873-1.75 2.979-5.527 4.016-8.353 5.637z" id="path274"/>
        <path fill="#6B2808" stroke="#000000" stroke-width="1.2021" d="M405.067 290.894c.401 3.816 2.211 7.024 3.012 10.676.775 3.563-.577 4.433-2.54 7.971-2.258 4.071-2.25 4.864-5.581.114-2.243-3.194-3.635-6.58-4.504-10.359-1.35-5.881-1.068-10.921-.746-16.81.218-4.045-1.514-7.812-2.187-11.702 6.287-.358 12.014 15.08 12.546 20.11z" id="path276"/>
        <path fill="#391810" stroke="#000000" stroke-width="1.2021" d="M374.254 112.742c3.438 4.172 8.157 10.091 10.072 14.971 1.044 2.66 2.394 9.355-.186 11.568-4.699 4.037-10.231-5.887-10.477-9.87-.34-5.507-.498-11.872.079-17.287.165.201.334.408.512.618z" id="path278"/>
        <path fill="#6B2808" stroke="#000000" stroke-width="1.2021" d="M387.487 139.578c4.733-4.397 2.475-8.088 2.98-13.361.504-5.271 4.737-10.757 8.436-14.249 1.201-1.129 10.626-6.625 10.735-7.938.364-4.504-6.807-.483-8.823-.576-.814-4.658 2.686-10.033 4.505-14.225-5.852-.192-15.645 13.252-16.767 18.458-1.579-1.384-2.458-3.69-4.059-5.157-1.411-1.302-2.255 6.417-2.274 6.624-.323 3.169-1.399 6.199-1.767 9.334-.199 1.667 0 3.571-.479 5.135-1.593-1.161-1.944-3.668-4.046-3.813.176.013 3.198 13.908 3.68 15.24 1.452 3.963 4.857 8.84 9.081 4.526" id="path280"/>
        <path fill="#732400" stroke="#000000" stroke-width="1.2021" d="M392.691 261.561c2.645 7.092 5.099 14.335 5.857 21.905.646 6.49.776 15.501-1.328 21.729-1.118 3.317-3.749 6.023-4.542 9.517-1.019 4.5.187 9.278 2.431 13.218 1.62 2.854 4.117 5.002 4.494 8.308.419 3.663-2.086 8.354-3.395 12.037-1.568 4.445-3.453 8.951-3.82 13.668-.43 5.676-.3 11.758.336 17.309.345 3.011-.844 8.091-5.154 5.274-1.799 3.525-3.89 5.22-8.422 3.52 4.801.103 5.721 4.882 2.755 8.329-2.491 2.894-7.911 2.657-11.427 2.432-1.914-.133-5.808 0-7.451-1.132-2.045-1.401-1.262-1.544-.318-3.706 1.828-4.122 5.699-6.823 9.903-7.673-1.512-5.67 2.607-5.128 5.962-7.624 3.016-2.235 4.148-7.688 5.295-11.104 2.471-7.373 4.275-15.186 3.875-23.003-.403-7.938-3.771-13.846-7.487-20.659-3.565-6.499-7.776-13.977-10.333-20.812-1.562-4.157-4.579-11.224-3.694-16.013.809-4.411 5.848-8.814 4.313-13.655-2.059-6.521-7.914-1.257-11.951-2.723-2.641-.962-4.981-3.794-7.188-5.526-2.769-2.18-6.666-4.267-8.804-6.847 1.001.149 1.94.649 2.728 1.401-.47-5.893-2.112-13.088-5.253-18.276-1.941-3.208-5.988-7.075-6.07-11.047-.089-4.192 7.081-4.735 10.157-7.346 2.586-2.183 4.313-5.68 6.768-7.584-.111.421-.122.709-.45 1.071-2.666 2.955-4.505 2.207-8.313 1.781-4.088-.458-5.899 1.636-9.211 3.424-7.445 4.001-15.91 2.24-22.483 8.085-1.729 1.533-2.276 2.129-4.395 2.809-1.852.595-3.048-.083-4.322 1.982-1.809 2.919 2.482 9.481 4.323 11.827.886 1.129 7.808 4.053 7.557 4.718-.422 1.107-.739 2.235-1.103 3.455 12.571-4.572 11.305 20.019 2.789 21.584-2.821.52-3.878-2.753-5.323-4.727-.849-1.162-1.96-2.187-2.413-3.519-.212-.614.031-2.414-.297-2.902-1.298-1.922-2.701-.36-4.523-1.574-2.418-1.614-3.179-5.567-4.516-7.986-1.788-3.276-4.189-6.102-6.71-8.842-2.411-2.629-4.884-5.461-4.402-8.896.802-5.679 4.985-14.549 10.918-16.015 7.295-1.802 14.818-3.087 21.48-6.748 6.116-3.365 10.767-8.053 15.498-13.091 2.576-2.747 6.447-4.218 8.76-7.276 1.955-2.581 3.31-6.016 5.192-8.745 1.744-2.545 3.992-4.586 5.721-7.195 1.324-2 2.1-4.584 3.598-6.516 2.003-2.574 4.516-3.267 6.357-5.983.465-.681-.45-1.047.372-1.923.531-.563 1.053-.203 1.6-.56 1.443-.951 3.27-1.259 4.725-2.173-4.635 1.462-10.119 3.413-14.748 1.083-4.023-2.027-6.052-6.858-10.831-7.944-2.463-.563-9.699 1.626-9.637-2.493.085-4.978 12.157-.779 14.329-1.505-5.414-2.233-10.149-.002-15.452-.958-.188-2.451-.657-5.417 1.119-7.142 1.488-1.453 5.655-2.706 7.655-3.518 4.674-1.883 9.176-.349 13.707-1.602 6.115-1.695 9.498-4.413 16.361-3.692 3.368.354 7.5 2.152 10.472.223 3.037-1.969 4.342-6.89 6.279-9.788.695 1.687-.025 3.63 2.175 4 3.876.645 9.603-8.235 11.449-10.847 2.763-3.901 5.229-7.709 7.72-11.714 1.495-2.408 3.697-7.17 6.34-8.267.896 5.556-5.132 11.174-4.279 16.726 4.705-.779 8.952-7.164 13.047-9.034-2.317 5.535-7.391 10.149-10.812 15.109-1.616 2.337-3.52 7.567-5.981 9.105-1.036.649-3.83.754-5.223 1.285-1.576.597-3.134 1.211-4.637 2.003-2.203 1.166-5.299 2.475-6.461 4.729 9.582-1.799 15.819.611 23.187 7.133-1.406-.39-3.12 1.475-4.286 2.55-2.396 2.184-4.396 3.302-7.242 4.803-2.213 1.163-5.319 2.558-7.78 2.922-3.426.511-6.236-1.417-9.53-1.961 5.922 3.071-.38 15.469-2.106 19.774-2.724 6.792-6.29 12.974-9.237 19.624-2.169 4.895-3.475 10.953-3.926 16.387-1.235 15.09 5.585 27.997 13.56 40.127 2.599 3.96 4.438 8.432 6.102 12.9z" id="path282"/>
        <path fill="#391810" d="M346.182 223.04c1.038.312 2.114.173 3.069-.356-.944 2.139-2.327 8.911-.263 9.744 1.612 2.68 2.399 5.69 4.729 7.793.045-.646.417-1.243.481-1.846 1.261 2.651 1.346 4.444 3.292 6.654 3.089 3.497 7.589 4.667 10.674 7.632-3.081-1.873-16.542-16.116-13.931-20.675-.16.291-.736.969-.778 1.035.801-5.254.512-11.694-1.355-16.756-1.824 1.607-2.882 4.437-4.72 5.975" id="path284"/>
        <path fill="#391810" d="M349.389 152.986c1.118.598 2.458.539 3.577.045-.165.423-.258.901-.313 1.349 1.765.328 9.87 6.294 10.496 2.06 2.875-.585 7.582-1.308 7.838-5.041 1.411.393 2.975.124 4.429.23-.591 4.376.753 5.856 3.848 8.964-1.182 1.366-.478 4.823.036 6.375 1.171 3.555 1.036 3.738-.748 6.557-1.983 3.142-1.604 7.514-2.717 10.974-.021-.356-.01-.686-.049-1.039-4.013 1.348-3.773 8.258-5.857 11.144-.339-3.218-4.255-3.298-5.347-5.589-1.089-2.288.794-4.861 2.032-6.816 3.217-5.085 8.69-4.394 10.337-11.078 3.12 1.386 1.632-4.579 1.32-5.858-.761-3.017-2.131-3.992-5.19-4.73.84-1.148 1.64-2.524 2.022-3.818-1.451.746-2.537 2.583-4.147 3.571-2.251 1.382-5.235 2.088-7.976 1.817-2.988-.301-5.953-1.596-8.378-3.345-2.271-1.643-3.479-4.104-5.982-5.336.009-.878.506-.932 1.171-1.234" id="path286"/>
        <path fill="#391810" d="M363.427 140.979c-1.053.743-1.857 1.589-1.971 2.732 4.333 1.376 10.285.917 14.761 1.625-.216-2.041-2.455-2.497-3.682-3.869-.997-1.117-.215-2.028-1.895-2.999-3.06-1.779-5.409 1.423-7.615 2.909" id="path288"/>
        <path fill="#391810" d="M392.303 138.575c-2.321 1.719-5.793 3.793-5.147 7.167 1.566-.754 2.982.35 3.839 1.61 1.343-4.041 7.103-5.458 10.917-4.77 3.988.714 5.958 3.322 1.762 6.028 3.011-.698 8.016-2.958 9.842-5.544-4.464-2.007-8.116-3.956-13.207-4.798-1.796-.299-4.184-.744-6.005-.514-1.3.165-3.275 1.534-3.201 1.223" id="path290"/>
        <path fill="#391810" d="M374.653 229.448c.333 12.249 11.147 22.023 14.368 33.329 1.18 4.137-.513 7.085.182 11.095 1.158 6.669 1.541 13.266 1.961 20 1.318-1.176 2.897-.938 3.644.793 2.935-2.158-.48-16.225-.911-19.985-.622-5.384-1.647-11.379-4.497-16.1-2.703-4.505-5.199-8.699-7.837-13.428-2.421-4.333-5.664-8.252-6.909-13.304" id="path292"/>
        <path fill="#391810" d="M389.892 322.318c.03 4.394.328 8.639 2.787 12.423.677 1.039 1.753 1.548 2.365 2.779.515 1.051.34 2.458.966 3.589 1.851-2.359 1.695-3.435.72-5.842-2.251-5.545-6.243-9.058-6.035-15.351" id="path294"/>
        <path fill="#391810" d="M301.662 258.67c2.688 5.996 8.044.343 10.668-2.059-1.519 4.568-3.958 6.7-2.204 11.561-.958-2.711-1.262-4.89-3.648-5.899-1.984-.835-5.282.849-4.815-3.204" id="path296"/>
      </g>
      <g id="g298">
        <path fill="#FFFFFF" stroke="#000000" stroke-width="1.2021" d="M76.465 165.396c-3.438 8.477 10.613 13.384 14.967 19.545-.336-.182-.686-.259-1.061-.229 1.737 3.153 3.924 5.485 5.478 8.892 1.873 4.103 3.375 8.296 5.732 12.152 2.472 4.051 6.25 8.008 8.153 12.342 1.626 3.726-.2 7.16.943 10.843-4.753.323-11.042-4.032-14.287-6.105 2 1.906 4.245 3.664 7.053 3.896.439 6.918.38 14.098-2.156 20.327-3.261 8.036-9.657 14.873-11.969 22.889 1.357-.852 2.863-1.519 4.379-1.93-1.872.505-2.386 4.781-3.466 6.032-1.476 1.705-3.902 2.679-5.816 4.02-4.376 3.07-8.509 6.888-11.909 11.01 9.04 19.262-12.554 37.886-19.538 54.438.218-11.768-.529-23.825 3.024-35.224 2.17-6.954 7.689-13.164 6.124-19.727 2.939.139 4.533 3.318 7.559 3.439-10.122-4.05-4.533-11.943.757-17.326C82.765 262.111 87 248.655 84.849 231.481c-.415-3.309-1.504-4.393-2.37-7.19-2.012-6.498-1.581-14.335-2.395-21.095-1.246-10.361-5.434-12.77-10.9-21.194-2.72-4.194-4.223-9.821-2.196-14.655 2.481-5.907 4.643-1.001 9.475-3.15" id="path300"/>
        <path fill="#391810" stroke="#000000" stroke-width="1.2021" d="M57.814 143.178c-1.173-7.455 1.812-16.299 1.803-24.106-1.653 5.265-7.271 11.289-8.423 18.105-.346 2.027-2.125 7.188-.475 8.942 2.317 2.461 6.489-1.149 6.493-4.14" id="path302"/>
        <path fill="#6B2808" stroke="#000000" stroke-width="1.2021" d="M44.684 140.672c-.897-9.572-.992-13.437-9.126-19.079-5.626-3.899-10.892-7.367-10.142-14.964 4.549.249 5.678 5.576 10.647 5.834.355-3.235-.932-6.298-.403-9.438 4.335.858 7.75 12.073 11.208 15.528 2.34 2.354 1.455 3.645 4.339 1.685 1.777-1.204.988-6.797 4.075-2.274 2.288 3.349-.139 15.157.094 19.255.169 2.896 2.989 11.498-2.807 11.88-4.669.313-4.002-7.256-7.885-8.427z" id="path304"/>
        <path fill="#6B2808" stroke="#000000" stroke-width="1.2021" d="M43.376 276.483c-.682-.42-1.37-.499-2.061-.24-3.763 6.397-6.047 11.678-6.961 19.319-1.111 9.293.076 18.327-1.731 27.574 2.499-2.214 6.814-5.194 8.211-8.226 1.434-3.126.535-6.91.718-10.31.239-4.284 2.276-7.488 3.055-11.267 1.186-5.763-1.173-12.283-1.231-18.054" id="path306"/>
        <path fill="#6B2808" stroke="#000000" stroke-width="1.2021" d="M23.707 141.38c2.628 3.935 11.193 3.685 15.247 5.591 1.328.628 3.148 2.466 4.509 2.733 1.944.386 6.182-.505 7.251-2.403 1.484-2.642-2.387-4.442-3.629-7.116-1.317-2.83-.137-6.088-1.271-8.696-1.721 1.361-2.559 3.26-2.909 5.443-2.89-.459-4.771-2.909-6.75-4.852-2.463-2.411-5.976-4.401-8.421-7.098-1.648-1.82-4.171-7.036-5.613-3.226-.524 1.388 1.503 5.104.027 5.978-1.156.683-2.446-1.035-2.495-1.91-2.723-.187-5.08.167-7.25-1.563-2.112-1.691-3.276-4.291-5.455-5.669-1.805 9.224 10.952 12.542 15.97 16.985 3.352 2.964-.822 3.403.789 5.803z" id="path308"/>
        <path fill="#732400" stroke="#000000" stroke-width="1.2021" d="M63.83 138.257c5.186-1.381 5.936.562 10.825 1.918 6.417 1.782 15.484-1.569 21.559 1.307.374 2.611 2.83 7.063.583 9.381-1.572 1.625-8.437.723-9.633.723 4.104-.02 13.062-1.438 8.58 5.402-2.695 4.11-8.053 2.624-11.928 4.338-8.112 3.587-12.948 11.747-23.077 6.741 3.761 2.182 8.742 2.894 12.64 1.005-2.371 7.783 2.955 7.103 7.31 10.854 4.605 3.958 4.632 10.972 8.271 15.357 3.292 3.959 9.637 5.109 14.106 7.188 5.9 2.745 10.595 7.349 16.108 10.192 5.984 3.084 10.138 7.073 16.875 8.637 6.67 1.546 9.577 2.885 10.806 10.143.825 4.902 4.653 10.435 2.232 15.026-2.468 4.686-8.656 7.476-11.997 11.964-2.364 3.17-3.069 14.764-7.553 12.716-1.078.984-1.145 1.021-2.454 1.816-.396 3.193.436 4.525-1.142 7.269-1.375 2.39-4.068 4.008-5.683 6.24-9.396-8.509-8.382-18.56 1.967-25.398-.307 3.098.446 7.316 2.29 9.784-2.492-2.114-1.823-5.742-1.641-8.7 4.292.622 2.641-2.498 3.518-4.898 1.002-2.725 1.553-3.071 3.595-5.375 2.986-3.361 8.826-9.779 5.578-14.454-2.425-3.497-8.35-.766-12.78-1.818-4.766-1.132-9.756-4.218-13.837-7.173-2.875-2.083-24.799-22.494-21.815-9.008 1.227 5.571 8.18 6.068 9.273 12.223 1.228 6.939-2.945 14.679-5.673 20.802-1.898 4.268-7.384 10.628-7.563 14.924.552.079 1.087.128 1.639.193-1.041 4.435-8.701 10.224-12.409 12.653-5.188 3.401-5.754 3.759-4.193 9.895 2.851 11.197-6.11 21.514-9.659 32.021-2.269 6.721-4.187 14.573-3.945 21.7.083 2.34-.019 4.627.401 6.893.828 4.455 3.308 8.71 3.618 13.485.322 4.954-.702 13.139 2.298 17.354 1.109 1.56 2.388 1.546 3.71 2.474 1.734 1.215 13.08 10.325 11.737 12.359-2.689 4.07-10.391 4.962-14.978 4.386-6.857-.836-5.247-7.895-11.908-9.737-.892-4.425.724-9.454.377-14.201-.377-5.174-1.722-10.837-3.309-15.848-1.643-5.174-4.382-9.423-6.634-14.31-2.363-5.128-.856-6.753 2.841-10.792 2.717-2.965 6.639-7.726 6.529-11.991-.108-4.277-4.583-9.454-6.263-13.438-2.292-5.426-3.399-10.674-2.67-16.588.496-4.021 2.158-7.233 1.853-11.448-.282-3.804-2.336-7.539-.844-11.33 1.493-3.806 6.2-7.263 8.514-10.851 3.959-6.146 6.619-12.492 9.128-19.331 3.325-9.072-2.219-15.196-2.793-23.88-.139-2.072.288-3.978.397-5.991.545-10.048-6.157-17.178-9.376-26.481-2.898-8.382-3.666-17.504-1.638-26.17-5.288-2.045-9.681 2.403-15.234.014-2.007-.864-11.073-12.663-9.149-12.756 4.408-.226 7.938-3.552 12.341-3.707 4.984-.174 9.375 3.244 13.31 5.824-2.67-1.744 15.957-9.255 16.969-9.527z" id="path310"/>
        <path fill="#391810" d="M62.023 159.391c-.762-.639-1.617-1.082-2.569-1.333 1.034 3.551-.548 4.456 3.803 6.304 2.301.975 6.587 2.244 5.945-1.771 2.922 4.531 4.26-1.038 5.412-2.012 2.94-2.489 5.981-3.197 10.087-2.955-8.059-3.576-15.623 6.58-22.075.571" id="path312"/>
        <path fill="#391810" d="M74.562 146.286c-3.546-.584-4.576-4.502-8.327-4.229-.09.142-.699 1.52-.52 1.605.705.344 1.31 1.031 1.807 1.318-1.677 1.076-3.248 2.194-3.833 4.068 3.442-.947 7.092-.29 10.279 1.275.479-1.002.718-2.959.594-4.037z" id="path314"/>
        <path fill="#391810" d="M75.858 247.658c-4.269 4.718-2.891 10.055-1.335 15.487.917-8.265 2.706-10.784 7.221-17.272 3.633-5.225 4.028-9.5 4.434-15.534 8.079 1.636.451-6.241-.722-8.932.037 2.112.084 4.263-.06 6.344-4.395-.405-4.029 16.352-9.537 19.307" id="path316"/>
        <path fill="#391810" d="M51.195 172.002c-1.443 1.095-2.333 2.518-2.344 4.086 2.121.658 4.012 1.159 5.229 2.967.207-2.28.179-4.688.036-6.977-1.1-.103-2.047.367-2.92 1.125" id="path318"/>
        <path fill="#391810" d="M54.804 185.21c-.683.735-.841 2.053-1.578 2.883 3.912 3.59 4.933 9.249 5.185 14.36.01-4.909-.551-10.038 1.146-14.619-2.683.984-4.806-1.759-4.753-4.424" id="path320"/>
        <path fill="#391810" d="M48.189 334.725c-1.61 3.442-3.537 2.754-4.228 6.621-.389 2.18 1.531 3.698-.493 5.831 1.063 1.162 2.313 2.31 3.409 3.124.708-5.025-4.575-10.341 1.834-13.916.505-.978-.312-.607-.523-1.056" id="path322"/>
        <path fill="#391810" d="M61.716 388.356c-.493.717-1.222 1.352-1.781 1.86 1.927.693 3.7-.369 5.707.116 2.127.515 5.431 2.237 6.651 4.036-1.409-2.06-4.42-6.556-7.041-5.334.951-.442-3.144-3.989-3.781-4.141.779.182.564 2.724.364 3.204-.738 1.773-3.872 4.074-5.294 5.438-1.119-.929-2.806-1.758-3.839-2.902-.655-.729-.859-.367-1.151-1.281-.468-1.467.952-3.022.065-4.727.671 3.472 7.526 7.74 10.108 4.139" id="path324"/>
        <path fill="#391810" d="M36.457 294.194c-.544 4.077-.844 6.089.376 10.123.801 2.642.921 4.958.598 7.691-.148 1.272-.715 2.825-.093 3.864 2.008-1.469 2.873-5.636 2.517-7.938-.33-2.113-1.211-3.928-1.902-5.905-.844-2.419-.46-4.871-1.193-7.231" id="path326"/>
        <path fill="#391810" d="M27.934 146.785c4.035 1.151 8.889 1.461 11.429 5.394 4.544-1.706 5.215 5.293 7.992 6.615.088-1.308-.01-2.638.072-3.952.11-1.769.867-3.372 1.024-5.092.197-2.162-.966-1.713-3.021-2.011-4.096-.596-6.665-4.046-10.689-4.56-2.645-.333-4.108.742-6.249 1.963-1.681.957-3.165.681-4.938.67-.18 1.673 3.287.746 4.379 1.172" id="path328"/>
      </g>
    </g>
    <g id="g330">
      <g id="g332">
        <g id="g334">
          <path fill="#73B642" stroke="#000000" stroke-width="1.2021" d="M250.837 80.565c-.205-.971-.393-1.948-.549-2.932-3.994.73-6.858 4.46-11.081 4.88-2.988.302-6.964.857-9.981.502-6.291-.732-10.302-.888-16.561 1.126-6.988 2.256-12.264 3.542-19.005.887-2.387-.941-5.221-.644-7.527-1.83-.554-.286-5.064-4.165-3.524-4.92-1.98.974-3.633 3.285-4.715 5.155 4.128 4.535 6.11 7.753 12.653 7.646-1.734-.626-4.226-1.117-6.216-.762.174 1.937-.813 3.767-1.088 5.55 3.842 1.646 7.633 3.606 11.48 5.456 3.211-3.077 5.338-7.467 9.483-9.784 3.181-1.78 8.526-3.698 12.15-4.083 7.903-.837 12.929 6.489 17.988 11.085-3.778-3.434 13.481-2.904 11.613-.382 1.467-1.985 1.282-4.849 3.248-6.427-2.168-2.354-5.762-.986-8.367-2.276 2.453-1.625 5.337-2.433 7.966-3.687 3.259-1.552 2.885-1.181 2.033-5.204z" id="path336"/>
          <path fill="#73B642" stroke="#000000" stroke-width="1.2021" d="M209.538 47.024c2.71-3.732-1.838-9.315-5.188-10.917-4.185-1.999-7.46-1.889-11.283.38-.758-10.936 10.936-11.507 17.542-6.236-2.726-1.45-5.666-3.239-8.29-4.92-3.267-2.102-4.225-5.222-8.382-3.98 4.081-9.942 19.575-6.367 19.992 3.546 1.392-4.074 3.861-6.711 8.446-7.104 4.866-.42 6.19 3.392 9.593 5.523-2.725.056-6.177.795-8.412 2.471-2.966 2.233-3.823 5.701-8.287 5.246 3.941-1.195 6.728-5.509 11.032-4.833 4.365.683 5.811 4.221 6.852 7.867-8.125-2.175-9.77 4.508-13.274 9.762-1.662 2.497-9.121 5.346-9.935.792" id="path338"/>
          <path fill="#73B642" stroke="#000000" stroke-width="1.2021" d="M241.318 41.447c1.187 1.578 5.087 5.212 5.552 7.188.7 3.013-3.032 4.593-5.552 5.916-1.42.742-6.072 3.468-7.717 3.188-7.667-1.309 7.376-14.724 7.717-16.292z" id="path340"/>
          <radialGradient id="XMLID_10_" cx="253.0488" cy="85.874" r="16.6817" gradientTransform="matrix(1.0501 0 0 1.0481 -5.4221 -16.4509)" gradientUnits="userSpaceOnUse">
            <stop offset=".0056" id="stop343" stop-color="#71190b"/>
            <stop offset=".0686" id="stop345" stop-color="#871509"/>
            <stop offset=".1862" id="stop347" stop-color="#a90f06"/>
            <stop offset=".3117" id="stop349" stop-color="#c50904"/>
            <stop offset=".4458" id="stop351" stop-color="#db0502"/>
            <stop offset=".5923" id="stop353" stop-color="#eb0201"/>
            <stop offset=".7606" id="stop355" stop-color="#f40100"/>
            <stop offset="1" id="stop357" stop-color="#f70000"/>
          </radialGradient>
          <path fill="url(#XMLID_10_)" stroke="#000000" stroke-width="1.2021" d="M258.071 60.634c-.573-3.009-4.163-3.831-6.821-3.211-4.71 1.1-2.416 3.78-3.992 6.835-1.247 2.421-4.083 2.583-4.448 6.276-.369 3.671 1.729 8.021 5.994 7.373-2.436 4.247.651 9.092 5.609 7.697-.87 2.371.696 4.218 2.854 5.041 3.234 1.234 3.822-.934 6.419-1.55.411-.094 1.807.931 2.807.683 1.295-.324 2.034-1.447 2.789-2.345 1.688-1.969 1.926-3.85 2.487-6.331 5.252 1.302 9.077-10.736 2.879-10.919 2.635-3.417-1.717-7.483-5.296-7.206 2.32-5.52-9.128-10.577-10.981-3.177-.479-.083-.224-.362-.299-.768" id="path359"/>
          <radialGradient id="XMLID_11_" cx="171.4756" cy="91.8794" r="10.5365" gradientTransform="matrix(1.0501 0 0 1.0481 -5.4221 -16.4509)" gradientUnits="userSpaceOnUse">
            <stop offset=".0056" id="stop362" stop-color="#71190b"/>
            <stop offset=".0686" id="stop364" stop-color="#871509"/>
            <stop offset=".1862" id="stop366" stop-color="#a90f06"/>
            <stop offset=".3117" id="stop368" stop-color="#c50904"/>
            <stop offset=".4458" id="stop370" stop-color="#db0502"/>
            <stop offset=".5923" id="stop372" stop-color="#eb0201"/>
            <stop offset=".7606" id="stop374" stop-color="#f40100"/>
            <stop offset="1" id="stop376" stop-color="#f70000"/>
          </radialGradient>
          <path fill="url(#XMLID_11_)" stroke="#000000" stroke-width="1.2021" d="M172.24 63.437c4.274-4.476 8.603-.177 8.883 4.752 5.711-.348 8.006 5.193 6.055 9.668-.336.775-1.345.608-1.63 1.276-.28.655.102 2.822-.074 3.811-.402 2.257-2.276 6.491-5.063 5.363 2.292 7.853-9.674 9.395-11.039 2.012-2.399.473-4.328 1.309-6.846-.049-3.2-1.727-4.866-5.83-3.441-9.248.694-1.665 1.431-.936 1.53-2.771.071-1.323-1.383-3.016-1.22-4.803.271-2.904 2.037-5.929 5.184-4.847-.79-2.381-.534-5.876 2.446-6.683 2.325-.627 5.043 2.413 6.821.319" id="path378"/>
          <radialGradient id="XMLID_12_" cx="247.0977" cy="54.0684" r="11.5582" gradientTransform="matrix(1.0501 0 0 1.0481 -5.4221 -16.4509)" gradientUnits="userSpaceOnUse">
            <stop offset=".0056" id="stop381" stop-color="#71190b"/>
            <stop offset=".0686" id="stop383" stop-color="#871509"/>
            <stop offset=".1862" id="stop385" stop-color="#a90f06"/>
            <stop offset=".3117" id="stop387" stop-color="#c50904"/>
            <stop offset=".4458" id="stop389" stop-color="#db0502"/>
            <stop offset=".5923" id="stop391" stop-color="#eb0201"/>
            <stop offset=".7606" id="stop393" stop-color="#f40100"/>
            <stop offset="1" id="stop395" stop-color="#f70000"/>
          </radialGradient>
          <path fill="url(#XMLID_12_)" stroke="#000000" stroke-width="1.2021" d="M256.063 24.207c-1.73-.388-3.461.146-4.945 1.067-.96.596-2.052 2.499-2.819 2.809-1.2.487-3.532-.63-5.146-.027-1.686.625-3.076 1.895-3.891 3.486-.631 1.228-.246 9.332 2.602 7.478-2.966 1.932-.945 7.962 1.281 9.604 3.261 2.405 6.523-.468 10.046-.338-.107 3.149-1.106 9.972 4.076 9.057 4.851-.855 5.282-7.183 5.184-10.987 1.046 1.403 4.073 1.861 5.661 1.081 2.665-1.306 2.638-5.771 2.405-8.308-.436-4.774-3.931-15.05-10.361-9.759.229-2.732-1.717-4.623-4.093-5.163z" id="path397"/>
          <radialGradient id="XMLID_13_" cx="179.8784" cy="54.8301" r="7.8734" gradientTransform="matrix(1.0501 0 0 1.0481 -5.4221 -16.4509)" gradientUnits="userSpaceOnUse">
            <stop offset=".0056" id="stop400" stop-color="#71190b"/>
            <stop offset=".0686" id="stop402" stop-color="#871509"/>
            <stop offset=".1862" id="stop404" stop-color="#a90f06"/>
            <stop offset=".3117" id="stop406" stop-color="#c50904"/>
            <stop offset=".4458" id="stop408" stop-color="#db0502"/>
            <stop offset=".5923" id="stop410" stop-color="#eb0201"/>
            <stop offset=".7606" id="stop412" stop-color="#f40100"/>
            <stop offset="1" id="stop414" stop-color="#f70000"/>
          </radialGradient>
          <path fill="url(#XMLID_13_)" stroke="#000000" stroke-width="1.2021" d="M193.557 28.147c-.288-4.09-1.012-5.93-5.363-5.89-.558.008-6.486.678-5.196 1.811-2.93-2.579-7.443 2.792-8.759 4.933-.388.621.117 1.669-.346 2.432-.38.631-2.214 1.213-2.865 1.972-1.52 1.775-.968 3.499-1.574 5.21-.53 1.485-1.726 2.306-2.023 4.005-.336 1.917.56 2.345.63 3.685.168 3.245-1.358 7.304 4.116 6.775-.423 3.647 1.111 5.389 4.858 5.161 2.34-.141 2.999-1.413 4.852-2.008.62-.199.282-1.236 1.197-1.258.625-.018.59 1.172 1.186 1.265 4.353.705 6.233.463 9.14-4.001 1.602-2.461 5.079-8.851 2.143-11.128 4.438-1.663 5.029-13.398-1.996-12.964z" id="path416"/>
          <path fill="none" stroke="#000000" stroke-width="1.2021" d="M254.464 85.454c2.412-2.08 3.461-5.281 4.809-7.607" id="path418"/>
          <path fill="none" stroke="#000000" stroke-width="1.2021" d="M262.884 89.057c.684-2 .706-4.802 0-6.803" id="path420"/>
          <path fill="none" stroke="#000000" stroke-width="1.2021" d="M248.041 77.847c1.911-1.484 4.383-1.898 6.423-3.202" id="path422"/>
          <path fill="none" stroke="#000000" stroke-width="1.2021" d="M246.84 64.639c2.937-.342 5.624 2.2 7.219 4.403" id="path424"/>
          <path fill="none" stroke="#000000" stroke-width="1.2021" d="M257.267 59.033c1.536 2.384 2.122 5.598 2.006 8.406" id="path426"/>
          <path fill="none" stroke="#000000" stroke-width="1.2021" d="M268.899 62.636c-1.105 2.455-3.366 4.134-5.214 6.005" id="path428"/>
          <path fill="none" stroke="#000000" stroke-width="1.2021" d="M273.714 70.239c-2.375.054-4.711.967-6.82 2.003" id="path430"/>
          <path fill="none" stroke="#000000" stroke-width="1.2021" d="M272.102 81.45c-2.174-1.389-4.081-3.168-6.815-3.2" id="path432"/>
          <path fill="none" stroke="#000000" stroke-width="1.2021" d="M248.45 30.212c3.166 0 2.788 6.973 4.003 9.207" id="path434"/>
          <path fill="none" stroke="#000000" stroke-width="1.2021" d="M259.272 28.609c.91 2.35-1.756 6.604-3.21 8.407" id="path436"/>
          <path fill="none" stroke="#000000" stroke-width="1.2021" d="M242.027 41.017c3.146.056 6.409-.396 9.624-.396" id="path438"/>
          <path fill="none" stroke="#000000" stroke-width="1.2021" d="M252.453 48.625c.55-1.968.769-4.349.801-6.404" id="path440"/>
          <path fill="none" stroke="#000000" stroke-width="1.2021" d="M262.48 46.622c-.557-3.425-4.893-5.199-8.017-4.802" id="path442"/>
          <path fill="none" stroke="#000000" stroke-width="1.2021" d="M194.298 28.609c-3.751 2.318-7.134 5.051-7.219 10.005" id="path444"/>
          <path fill="none" stroke="#000000" stroke-width="1.2021" d="M183.471 23.404c-1.724 3.818-1.138 9.41 1.204 12.811" id="path446"/>
          <path fill="none" stroke="#000000" stroke-width="1.2021" d="M173.444 30.611c2.075 1.993 5.607 3.938 6.419 6.805" id="path448"/>
          <path fill="none" stroke="#000000" stroke-width="1.2021" d="M169.435 38.218c2.308.004 5.052-.469 7.217.396" id="path450"/>
          <path fill="none" stroke="#000000" stroke-width="1.2021" d="M167.429 45.023c4.037-1.807 9.045-4.857 13.23-2.403" id="path452"/>
          <path fill="none" stroke="#000000" stroke-width="1.2021" d="M171.837 54.23c2.471-3.875 4.702-7.779 9.63-8.806" id="path454"/>
          <path fill="none" stroke="#000000" stroke-width="1.2021" d="M183.471 55.031c-1.015-3.54-1.353-8.039.804-11.211" id="path456"/>
          <path fill="none" stroke="#000000" stroke-width="1.2021" d="M195.102 42.62c-2.329-1.395-7.599-.812-9.226 1.2" id="path458"/>
          <path fill="none" stroke="#000000" stroke-width="1.2021" d="M167.829 92.26c1.534-3.775 2.863-7.005 6.415-9.209" id="path460"/>
          <path fill="none" stroke="#000000" stroke-width="1.2021" d="M159.807 80.25c3.574-1.515 8.098-.339 11.632.803" id="path462"/>
          <path fill="none" stroke="#000000" stroke-width="1.2021" d="M164.617 68.642c1.687 3.162 4.617 6.066 7.623 8.005" id="path464"/>
          <path fill="none" stroke="#000000" stroke-width="1.2021" d="M173.043 63.437c.013 4.38-.529 9.075 1.2 13.21" id="path466"/>
          <path fill="none" stroke="#000000" stroke-width="1.2021" d="M181.869 69.44c-1.171 3.255-4.531 5.448-6.017 8.809" id="path468"/>
          <path fill="none" stroke="#000000" stroke-width="1.2021" d="M179.056 85.053c-1.26-1.046-2.213-2.116-2.804-3.604" id="path470"/>
          <path fill="#73B642" stroke="#000000" stroke-width="1.2021" d="M218.464 31.933c.521 2.345 1.979 6.806.811 9.084-1.342 2.619-4.451 2.218-6.544.512-4.727-3.847-1.935-11.309-2.889-16.523-.51-2.771-1.581-5.167-.821-8.086 1.069-4.109 5.167-10.948 9.995-11.293.057 1.916-1.777 2.985-2.507 4.663-.93 2.158-.807 4.974-.692 7.266.253 4.884 1.593 9.628 2.647 14.377z" id="path472"/>
          <path fill="#F7A639" stroke="#000000" stroke-width="1.2021" d="M195.024 49.818c-5.616 8.022-6.068 19.386-3.835 28.731 2.299 9.601 6.602 16.132 15.433 20.505 12.598 6.238 26.385-.036 31.685-12.478 5.511-12.947 5.05-29.389-4.37-40.458-11.681-13.705-29.051-10.391-38.913 3.7z" id="path474"/>
        </g>
        <path fill="none" stroke="#000000" stroke-width="1.2021" d="M191.029 78.948c2.635.098 5.12 2.668 7.222 3.995 3.742 2.362 7.239 5.383 10.727 8.106 4.321 3.364 8.191 7.178 12.54 10.317" id="path476"/>
        <path fill="none" stroke="#000000" stroke-width="1.2021" d="M189.83 67.339c8.711 2.374 16.673 8.936 23.566 14.502 5.645 4.556 12.177 9.32 16.542 15.125" id="path478"/>
        <path fill="none" stroke="#000000" stroke-width="1.2021" d="M192.239 55.73c4.061 2.968 9.337 4.692 13.735 7.207 4.783 2.734 9.443 6.062 13.943 9.305 6.465 4.655 10.917 11.483 16.836 16.314" id="path480"/>
        <path fill="none" stroke="#000000" stroke-width="1.2021" d="M197.448 47.326c17.35 3.859 31.707 19.257 43.318 31.223" id="path482"/>
        <path fill="none" stroke="#000000" stroke-width="1.2021" d="M206.675 39.719c8.238 3.263 15.008 8.176 21.66 14.001 4.047 3.54 10.966 7.905 13.237 12.82" id="path484"/>
        <path fill="none" stroke="#000000" stroke-width="1.2021" d="M191.029 76.947c2.302-3.614 3.142-8.447 4.898-12.399 2.006-4.516 4.118-9.019 6.729-13.219 2.435-3.928 5.409-10.866 9.628-13.211" id="path486"/>
        <path fill="none" stroke="#000000" stroke-width="1.2021" d="M195.421 89.225c5.084-11.29 9.006-20.998 14.976-31.878 2.36-4.299 9.097-18.243 13.925-18.828" id="path488"/>
        <path fill="none" stroke="#000000" stroke-width="1.2021" d="M200.661 96.163c3.039-4.237 4.72-10.417 7.203-15.11 3.456-6.517 6.95-12.94 10.777-19.248 3.53-5.819 7.422-13.067 12.897-17.283" id="path490"/>
        <path fill="none" stroke="#000000" stroke-width="1.2021" d="M208.277 100.165c6.127-11.71 11.513-23.919 18.152-35.435 2.424-4.209 6.196-11.226 9.924-13.401" id="path492"/>
        <path fill="none" stroke="#000000" stroke-width="1.2021" d="M216.7 101.768c1.479-4.585 5.092-8.624 7.322-12.901 2.616-5.009 4.931-10.148 7.628-15.128 1.715-3.164 3.729-6.217 5.3-9.452 1.136-2.33 1.507-5.225 3.017-7.354" id="path494"/>
        <path fill="none" stroke="#000000" stroke-width="1.2021" d="M227.13 98.162c4.278-5.051 6.931-11.974 9.62-17.931 1.695-3.74 3.765-7.63 4.416-11.69" id="path496"/>
        <path fill="none" stroke="#000000" stroke-width="1.2021" d="M218.709 37.717c6.699 4.822 12.753 9.877 18.853 15.212" id="path498"/>
      </g>
      <g id="g500">
        <path fill="#FFFFFF" stroke="#000000" stroke-width="1.2021" d="M262.537 182.895c1.903 2.186 6.574 3.486 9.362 4.006 3.312.616 3.391-.245 3.59-4.103.137-2.596-.131-3.898-1.971-5.962 2.911 2.141 2.252 2.771 5.869 2.771 2.828 0 5.261.608 7.98-.47-.579-2.195-.414-4.909-1.121-7.135-.908-2.834-1.922-3.049-4.719-4.445 1.237.497 2.662.608 3.811 1.202.29-1.936.558-8.118-.303-9.988-1.306-2.841-4.322-3.324-6.611-4.797-2.897-1.862-4.906-4.937-6.362-8.015-1.077-2.275-2.202-5.91-4.204-7.602-2.918-2.468-7.966-1.72-11.217-4.358-1.638 3.103.198 6.66-.062 10.049-.365 4.673-.932 9.283-1.147 13.976-.214 4.435 1.945 8.094 3.103 12.223 1.113 4 1.156 9.374 4.002 12.648z" id="path502"/>
        <g id="g504">
          <path fill="#FFFFFF" stroke="#000000" stroke-width="1.2021" d="M167.373 126.272c-5.366.799-15.385-1.206-18.242-6.585-3.181-5.975 2.787-14.387 9.474-11.327.079-8.083-8.463-8-12.989-3.227 11.769-10.729 8.854-20.275 2.467-32.219 1.656 7.306-7.411 11.608-11.091 16.221-4.6 5.771-6.271 22.699 3.389 25.564-6.03-3.965-7.685-8.06-10.607-14.447-5.127-11.2-15.746-24.591-29.528-24.146-8.202.268-18.901 5.494-20.236 14.448-1.034 6.949 3.99 10.391 9.956 11.676 4.761 1.03 11.083 2.198 15.439 4.163 4.598 2.068 8.599 8.365 11.516 12.275 8.35 11.215 22.641 16.081 36.316 13.697 2.601-.455 15.08-3.189 13.337-6.892" id="path506"/>
          <path fill="#6BC3FF" stroke="#000000" stroke-width="1.1895" d="M264.229 121.582c7.327 2.865 19.666-.982 18.173-10.941-.76-5.044-8.807-6.228-11.093-1.66-.231-3.851-.289-7.846 3.239-10.236 3.33-2.259 8.826-1.008 10.797 2.589-1.774-2.684-5.632-2.626-6.973-5.071-1.06-1.934-.83-7.915-.323-10.04 1.717-7.166 14.9-9.031 14.467-16.671-2.794 8.556 2.326 13.732 4.109 21.897.835 3.8 1.509 7.94 1.121 11.897-.44 4.393-2.674 7.263-4.29 10.892 5.742-8.067 8.168-17.738 15.166-24.892 7.827-8.004 21.06-22.628 33.211-13.831 4.372 3.163 7.5 10.214 5.736 15.552-1.507 4.558-6.201 6.155-10.134 7.875-8.7 3.803-13.755 12.679-20.465 18.925-3.237 3.012-6.825 5.542-10.427 8.019-7.308 5.025-17.153 4.664-25.625 5.621-2.997.339-6.14 1.494-9.102.493-3.805-1.285-5.546-5.912-9.349-6.944-2.164-.589-3.955 1.292-5.993-.481-1.72-1.509-1.901-4.531.313-5.549 2.289-1.051 5.474 1.785 7.442 2.556z" id="path508"/>
          <path fill="#6BC3FF" stroke="#000000" stroke-width="1.1895" d="M167.711 122.732c-4.185-.835-7.691 1.769-11.987-.452-4.781-2.469-5.188-6.055-4.896-10.913-.091 1.518-2.703 3.885-2.983 5.934-.343 2.574.344 5.122 1.611 7.353 2.705 4.742 8.626 7.248 13.941 5.834 1.65-.443 6.949-7.235 4.314-7.756z" id="path510"/>
          <path fill="#FFFFFF" stroke="#000000" stroke-width="1.2021" d="M349.847 97.126c.323-2.561.657-5.121.72-7.709.283-10.633-8.291-18.159-18.521-16.806 4.194 1.415 8.2 1.721 10.413 6.126 1.943 3.864 1.051 8.343-2.195 11.192-2.097 1.831-4.908 3.208-7.734 3.202-.801-.005-7.985-2.768-6.834-3.625-3.122 2.339-1.832 6.539.892 8.768 2.576 2.11 5.869 2.024 8.378 1.448-4.952 2.718-10.851.979-13.093 7.807-1.569 4.787-.379 11.674-.023 16.686 4.306.269 8.054-.007 11.859-2.245 4.698-2.771 5.731-5.496 8.172-9.965-3.057 4.729 2.38 8.446 2.443 12.938-.015-1.072 2.133-3.657 2.603-4.793.671-1.621 1.174-3.31 1.547-5.022.95-4.327.462-8.37.785-12.677.137-1.786.359-3.555.588-5.325z" id="path512"/>
          <path fill="#6BC3FF" stroke="#000000" stroke-width="1.1895" d="M105.501 90.686c4.432 4.75-.253 15.947-6.187 17.091 11.657-3.911 6.699 15.781 9.474 20.441-8.063.497-19.624 1.945-23.872-6.627 3.26 5.067 3.085 11.152-3.701 13.036-.442-5.251-2.992-8.317-4.992-13.159-1.44-3.479-2.286-10.582 1.958-12.38-.644-2.573-3.439-10.97.084-12.504.288-4.004-.583-8.017 1.577-11.674 4.175-7.066 11.136-5.961 17.713-8.932-3.537 4.655-8.69 7.396-4.345 13.696 1.335 1.933 3.479 3.733 5.881 4.058.845.114 7.55-1.823 6.41-3.046z" id="path514"/>
          <g id="g516">
            <path fill="#6BC3FF" stroke="#000000" stroke-width="1.1895" d="M184.44 178.507c-3.746 3.438-9.55 7.674-9.012 13.416-.871-3.603-2.565-6.63-1.2-10.353 1.36-3.696 5.188-5.719 7.106-9.125-4.014 4.208-6.569 11.34-13.205 12.08-5.095.567-10.215-2.065-15.18-2.459 1.495-1.469 3.413-2.172 4.728-3.912 1.855-2.447 2.782-5.522 4.437-8.07 1.801-2.767 4.033-4.658 6.75-6.34 1.678-1.035 4.086-2.31 4.948-4.059-2.552 3.2-10.791 8.502-14.511 3.809.477.603 1.216-4.075 1.231-4.239.165-1.874.444-3.75.908-5.572.878-3.452 2.408-7.182 5.547-9.17 3.009-1.901 5.497-1.5 8.924-1.733 2.651-.183 3.386-.857 5.067 1.351 1.382 1.816 2.162 4.14 3.195 6.163 1.453 2.849 3.391 5.458 4.73 8.364 3.074 6.658.749 15.052-4.463 19.849z" id="path518"/>
            <path fill="#6BC3FF" stroke="#000000" stroke-width="1.1895" d="M166.414 134.665c2.219-2.676 1.284-4.096 1.136-7.004-2.097.563-4.122.754-6.3.835-2.036.069-3.876.723-5.894 1.147-3.363.707-6.917 1.703-9.71 3.815-3.792 2.862-4.806 9.091-8.934 11.131 5.311 2.244 7.961.661 11.858-3.227-7.335 6.268-8.079 20.17.875 25.711-1.159-3.502 3.41-8.669 5.475-11.016 2.344-2.663 4.127-5.446 6.065-8.374 1.113 2.604-1.757 5.228-1.818 7.707-.052 2.092 1.634 3.932 1.497 6.198 3.337-2.958 6.494-5.567 7.553-10.33.889-4.028.043-11.127 3.192-14.204-2.622.65-5.282.985-7.699 2.417-4.208 2.493-7.815 7.014-10.592 10.977 2.878-7.453 10.287-9.666 16.185-13.39-4.87.71-11.04 1.854-15.169 4.714 4.033-1.951 9.328-3.544 12.28-7.107z" id="path520"/>
            <g id="g522">
              <g id="g524">
                <linearGradient id="XMLID_14_" gradientUnits="userSpaceOnUse" x1="191.5625" y1="177.1738" x2="263.846" y2="195.847">
                  <stop offset="0" id="stop527" stop-color="#ffe000"/>
                  <stop offset=".0843" id="stop529" stop-color="#bddfd6"/>
                  <stop offset=".264" id="stop531" stop-color="#c6f7ff"/>
                  <stop offset=".9663" id="stop533" stop-color="#fdfbe6"/>
                </linearGradient>
                <path fill="url(#XMLID_14_)" stroke="#000000" stroke-width="1.2021" d="M204.001 163.796c5.536-.626 9.848-.682 14.923 1.319 4.581 1.808 7.762 2.675 12.871 1.847 9.394-1.528 19.484-7.644 28.5-1.465 3.019 2.067 8.079 7.407 8.079 11.512 0 4.479-.038 9.179-1.07 13.565-.374 1.589-.644 3.856-1.374 5.313-.37.743-3.67 2.698-3.547 2.087.921-4.29 1.763-9.286.849-13.636-1.192-5.661-5.395-7.152-10.897-7.338-5.106-.174-10.841 3.601-15.088 6.213-6.755 4.155-13.19 9.202-18.811 14.81-6.917 6.903-31.28 8.404-31.28 8.404s-10.225-24.021 7.819-35.426l9.026-7.205z" id="path535"/>
                <linearGradient id="XMLID_15_" gradientUnits="userSpaceOnUse" x1="169.709" y1="144.8687" x2="251.5234" y2="144.8687">
                  <stop offset="0" id="stop538" stop-color="#bddfd6"/>
                  <stop offset=".2247" id="stop540" stop-color="#c6f7ff"/>
                  <stop offset=".9663" id="stop542" stop-color="#fdfbe6"/>
                </linearGradient>
                <path fill="url(#XMLID_15_)" stroke="#000000" stroke-width="1.2021" d="M169.709 138.575s25.267 31.43 25.267 49.238h7.224s33.203-25.021 49.324-25.021v-38.028s-5.408-21.614-37.896-21.614c-.001-.001-34.294-11.411-43.919 35.425z" id="path544"/>
              </g>
              <path fill="#F9E255" stroke="#000000" stroke-width="1.2021" d="M164.295 140.379s25.266 24.616 26.159 45.97l4.811 1.8s2.118-21.353-26.154-49.575l-4.816 1.805z" id="path546"/>
              <path fill="#F9E255" stroke="#000000" stroke-width="1.2021" id="polygon548" d="M252.134 161.994v-37.23l7.514 7.508v32.124z"/>
              <path fill="#F9E255" stroke="#000000" stroke-width="1.2021" d="M167.426 128.423h8.598s7.82-14.467 12.336-18.968l-9.02.006s-10.015 14.624-11.914 18.962z" id="path550"/>
              <linearGradient id="XMLID_16_" gradientUnits="userSpaceOnUse" x1="171.0381" y1="136.0596" x2="190.8896" y2="127.6377">
                <stop offset="0" id="stop553" stop-color="#a52410"/>
                <stop offset="1" id="stop555" stop-color="#420e06"/>
              </linearGradient>
              <path fill="url(#XMLID_16_)" stroke="#000000" stroke-width="2.4041" d="M168.007 127.236h41.112s-16.85 17.345-46.026 11.041c-.001 0-2.292-4.454 4.914-11.041z" id="path557"/>
              <path fill="#F9E255" stroke="#000000" stroke-width="1.2021" d="M211.219 115.156s19.85-4.199 22.864-7.202l5.414 5.403-22.86 5.402s-.603 6.004-7.829 13.212l19.858-7.208 4.807 4.807s-37.897 16.812-73.991 10.207c0 0 .941-2.633 2.408-6.41 3.148-8.118 8.729-21.521 12.633-25.413h6.015s-11.73 14.109-16.243 28.221c0 0 40.007 8.106 46.924-21.019z" id="path559"/>
              <path fill="none" stroke="#000000" stroke-width="1.2021" id="line561" d="M176.34 146.557h28.863"/>
              <path fill="none" stroke="#000000" stroke-width="1.2021" id="line563" d="M179.516 150.67h14.859"/>
              <path fill="none" stroke="#000000" stroke-width="1.2021" id="line565" d="M183.268 156.231h10.204"/>
              <path fill="none" stroke="#000000" stroke-width="1.2021" id="line567" d="M186.243 161.42h5.126"/>
              <path fill="none" stroke="#000000" stroke-width="1.2021" id="line569" d="M189.655 165.63h9.563"/>
              <path fill="none" stroke="#000000" stroke-width="1.2021" id="line571" d="M191.969 169.501h9.621"/>
              <path fill="none" stroke="#000000" stroke-width="1.2021" id="line573" d="M193.967 175.465h4.511"/>
            </g>
            <path fill="#6BC3FF" stroke="#000000" stroke-width="1.1895" d="M239.801 117.252c0 2.411-.302 5.216-2.335 6.927-3.316 2.791-6.444-2.446-4.62-5.375-4.18.228-7.494 7.151-6.583 10.771.949 3.803 6.296 5.993 9.517 3.275-1.406.524-2.879 1.111-4.406 1.221-1.258.087-2.751-.614-3.854-.239-2.171.738-5.192 5.359-5.778 7.447-.912 3.262-.467 6.75.308 9.987.93 3.891 1.278 7.503 1.189 11.537 2.436-7.209 11.883-10.241 16.521-15.748 2.12-2.507 3.563-5.497 4.621-8.782 1.012-3.107 1.206-6.839 2.356-9.832-1.055 3.64-1.326 7.313-2.653 10.949-1.231 3.356-3.114 6.727-5.127 9.39-3.051 4.057-2.978 11.254-.354 15.808-.47-3.821 3.502-6.675 6.242-8.559 2.781-1.924 4.756-3.847 6.158-7.006 2.562-5.78 2.71-12.563 2.345-18.771-1.246 2.406 1.064 5.257 2.691 6.822 5.959 5.709 8.145 11.181 8.12 19.522-.007 3.429.939 4.146 3.099 6.552 1.025 1.151 2.876-5.098 3.026-5.624 1.369-4.473.407-13.452-2.819-17.056-.787 1.496.798 4.619 1.279 6.205 1.368 4.49 4.958 9.095 8.645 11.951 2.853 2.208 5.759 2.403 9.341 2.168 2.982-.196 5.014-1.101 7.778-2.095-1.16-1.564-2.804-2.378-3.574-4.512-.907-2.485-.868-5.181-1.507-7.737-1.367-5.43-4.996-7.446-8.899-10.914 1.401 1.217 3.238 2.01 4.69 3.34 1.067.979 2.362 3.286 3.611 3.859 2.537 1.163 6.866.23 9.474-.273-3.963-.211-6.696-5.599-9.167-8.09-2.288-2.295-5.466-2.807-8.526-3.271-3.191-.481-7.374-.481-10.368-1.61-4.671-1.761-6.812-6.636-9.549-10.355-1.137-1.558-5.689-7.742-8.229-5.729 1.667 4.422 4.334 8.058 6.832 11.927-2.35-3.315-4.734-7.856-7.498-10.913 1.098 3.199 2.018 7.178 1.814 10.563 1.314-3.64-1.051-11.456-4.876-13.056-6.57-2.749-2.246 6.508-2.254 9.998 1.08-3.229-.491-10.47-3.143-13.071-.41-.4-5.607-2.167-5.316-1.149 1.05 3.627 1.766 5.683 1.778 9.548z" id="path575"/>
          </g>
          <g id="g577" stroke="#000000">
            <path fill="#FFFFFF" stroke-width="1.2021" d="M184.137 113.473c-2.67 6.034-8.95-1.708-11.488-2.362.306 1.911 3.541 2.497 3.887 5.085-4.326 2.018-10.266-.729-11.08-5.523-1.01-5.956 6.011-9.738 11.127-8.785 3.8.707 9.452 7.302 7.554 11.585z" id="path579"/>
            <path fill="#FFFFFF" stroke-width="1.2021" d="M215.871 106.251c1.491-2.132 1.67-5.245-.192-7.368-2.401-2.74-8.39-3.963-11.813-4.234-3.087-.245-5.614.371-7.536 2.821-2.228 2.837-.388 3.397 1.431 5.552 2.812 3.327 4.117 6.71 9.243 5.478.71-1.862 1.384-5.744.098-7.413-.024-.031 0 3.467.225 4.074.818 2.193 1.699 3.515 4.266 3.459 1.834-.043 3.323-1.006 4.278-2.369z" id="path581"/>
            <path fill="#6BC3FF" stroke-width="1.1895" d="M200.379 104.157c-.169-.804-.476-1.573-.929-2.255-1.422-2.134-4.522-3.478-6.953-3.893-.63-.107-7.173-.049-7.017.701.082.382.072.794.193 1.171-2.092-.664-6.83-1.437-7.091 1.707-.166 2.061 3.217 4.133 4.143 5.776 1.046 1.868 1.038 4.31 2.683 5.31 1.351.816 4.554.586 5.96-.081.011-1.869.138-7.46-1.865-7.885-.108 2.365 3.611 7.12 5.982 6.95 3.891-.275 5.604-4.167 4.894-7.501z" id="path583"/>
            <path fill="#6BC3FF" stroke-width="1.1895" d="M250.797 103.456c3.984-.003 8.979.071 11.353 3.971 2.245 3.708-.356 7.266-1.799 10.366-3.502.515-2.383-5.087-2.403-7.079-2.671.664 1.443 3.483.498 5.55-.824 1.781-4.923 1.729-6.455.511-2.136-1.7-.891-4.139-.708-6.505.159-1.977-1.182-6.386-.485-7.611" id="path585"/>
            <path fill="#FFFFFF" stroke-width="1.2021" d="M240.69 97.813c-.096-4.541 6.123 1.536 6.996 2.844 1.981 2.948 2.706 5.304 2.706 8.815.016 3.056-.869 6.763-4.831 4.492-4.279-2.45 1.331-6.617-1.582-9.966-.775 2.289 1.813 5.86-.404 7.774-1.625 1.401-5.208-.019-6.822-1-3.054-1.859-2.144-3.094-2.789-6.114-.548-2.534-3.499-5.147-1.258-7.688 1.931-2.192 6.09-.75 7.984.843z" id="path587"/>
            <path fill="#6BC3FF" stroke-width="1.1895" d="M216.305 103.456c1.463 1.85 5.029 4.862 7.624 4.311 1.964-.408 3.087-3.354 1.69-5.079-.783 3.56 1.145 9.198 6.328 7.112 5.039-2.028 2.304-9.384-.292-12.06-1.613-1.659-3.764-2.756-6.135-2.688-1.235.03-2.09.711-3.222.794-.847.062-1.528-.403-2.361-.421-1.991-.037-3.828-.633-4.945 1.537-1.185 2.311 1.029 3.878 1.314 6.093" id="path589"/>
          </g>
          <path d="M87.651 104.89c-3.254-3.203-6.759-6.775-7.611-11.441-.69-3.791 1.261-9.34 5.187-10.648-1.414 2.741 1.984 6.757 4.422 8.098-5.02-6.011 3.17-9.595 6.017-13.785-2.691-.358-9.566 2.09-11.906 3.615-3.93 2.558-5.699 8.176-4.832 12.586 1.1 5.604 5.079 7.99 8.723 11.575z" id="path591"/>
          <path d="M78.708 109.712c-1.134-4.345-3.345-7.895-1.544-12.537-2.536 6.534 4.192 12.709 7.682 16.927-2.386-1.328-4.745-3.503-6.737-1.049-1.43 1.755-1.068 5.45.19 7.163-.744-.591-1.437-.428-2.187-.686.044.685-.229 1.521-.041 2.217-1.268-2.222-2.894-14.344 2.637-12.035z" id="path593"/>
          <path d="M163.021 129.104c-1.717.332-2.435 4.739-3.539 6.374-1.809 2.684-5.265 4.363-6.776 7.059 1.919-1.012 3.995-.918 4.842 1.298 2.016-1.311 5.14-1.934 7.404-1.122-.093-.031-2.249-1.876-2.616-2.127-1.267-.861-1.958.357-2.588-1.504-.822-2.439 3.039-7.312 3.273-9.978z" id="path595"/>
          <path d="M174.713 180.713c-1.192 1.18-1.838 2.579-3.159 3.604.884 1.83 1.767 3.839 3.109 5.482-.88-3.08-1.815-6.049-.352-9.086" id="path597"/>
          <path d="M160.675 147.09c-.203 5.264-7.472 9.519-1.253 14.099-.825 1.39-2.773 1.39-3.105 3.042 1.404-.071 3.051.108 4.33.397-1.947-1.514-.023-1.785-.053-3.218-.034-1.759-.709-3.002-1.011-4.714-.482-2.733 1.067-6.652 1.092-8.807" id="path599"/>
          <path d="M276.585 121.37c4.768-2.228 4.85-5.167 6.329-9.073.28 1.896-.075 3.87-.729 5.654-.58 1.583-2.742 3.253-3.128 4.423-.447 1.342-1.63 1.202.335 1.887.726.25 2.088-.062 2.809-.304 3.267-1.107 5.711-3.689 8.711-5.349-2.984 2.565-6.287 4.736-9.167 7.274 3.798 3.845 14.231-3.476 17.953-5.244-2.688 1.731-5.073 3.731-7.965 5.134-1.346.654-10.567 4.258-5.556 5.214-3.754.379-7.47.135-11.189-.538-4.839-.876-10.67-4.161-12.296-9.017.27.788 4.848 1.683 5.782 1.761 2.735.22 5.658-.675 8.111-1.822z" id="path601"/>
          <path d="M343.564 83.041c.309-6.439-5.266-10.689-11.145-10.32-6.646.415-12.971 6.249-17.702 10.557 4.235-3.854 13.639-5.37 19.128-6.222 4.552-.706 6.469.224 9.183 3.609-4.875-.748-8.582-2.154-13.383.389 3.713-.429 11.531-2.667 13.97 1.596-1.825 1.834-6.916 1.064-9.584 2.407 2.107.08 4.268-.214 6.348-.124 1.992.088 3.408 1.636 3.584-2.294" id="path603"/>
        </g>
      </g>
    </g>
    <path fill="#9CE3F7" stroke="#000000" stroke-width="1.7493" d="M363.897 402.781c5.742 0 11.624.524 17.282-.739 6.919-1.543 7.631-4.066 8.677-10.151.11-.659 3.69 3.196 3.987 3.623 1.53 2.222 2.198 4.074 1.975 6.826-.54 6.646-5.355 11.373-11.234 13.565-7.566 2.83-15.932 2.27-23.841 1.819-9.636-.54-19.309-.269-28.901.258-4.643.247-9.445 1.145-14.05 2.007-5.093.958-10.063 2.668-14.932 4.483-3.312 1.234-6.692 2.62-10.025 3.922-4.09 1.613-7.496 3.661-11.825 4.679-2.799.66-5.689.375-8.537.529-8.369.465-16.316.843-24.62-.89-2.727-.567-5.295-1.629-7.954-2.303-8.563-2.148-18.491-2.454-27.171-1.111-3.936.606-7.889 1.608-11.645 2.304-13.881 2.537-27.035 3.967-41.321 3.201-7.631-.407-14.142-1.18-21.081-4.199-7.468-3.239-16.288-6.201-24.304-7.658-3.737-.684-7.407-.03-11.214-.237-14.47-.804-29.115 1.135-43.545-.866-9.568-1.334-22.864-5.549-19.149-17.865.544-1.795 2.953-5.961 5.314-5.642 2.105.285 4.102 4.226 5.886 5.471 2.715 1.89 6.189 3.213 9.353 4.1 7.122 1.99 14.663 1.748 21.968 1.278 4.867-.314 9.756-.059 14.631-.181 4.028-.097 7.773-1.302 11.815-1.321 9.04-.055 17.323 2.417 25.772 4.813 2.981.846 5.891 1.653 8.852 2.384 1.898.467 3.682 1.449 5.576 1.914 5.073 1.23 11.138 1.986 16.374 1.977 6.069-.011 12.144-.43 18.138-1.263 7.06-.972 14.181-2.079 21.281-2.319 7.78-.262 15.563-.464 23.349-.473 6.261-.004 12.893 1.491 19.133 2.479 13.498 2.122 28.021 1.999 40.825-2.302 16.822-5.658 32.437-13.146 50.69-12.11 8.168.461 16.237-.002 24.471-.002z" id="path605"/>
    <path fill="none" stroke="#FFFFFF" stroke-width="2.4041" d="M45.227 401.294c2.107.279 4.101 4.221 5.886 5.464 2.717 1.892 6.19 3.218 9.356 4.104 7.117 1.992 14.661 1.744 21.966 1.276 4.864-.312 9.755-.062 14.627-.174 4.03-.104 7.779-1.3 11.815-1.331 9.044-.048 17.324 2.42 25.775 4.819 2.982.849 5.89 1.654 8.853 2.379 1.893.471 3.682 1.457 5.575 1.915 5.074 1.231 11.143 1.986 16.375 1.979 6.065-.015 12.142-.43 18.136-1.258 7.057-.976 14.181-2.088 21.284-2.327 7.782-.262 15.56-.461 23.341-.475 6.268 0 12.9 1.499 19.135 2.479 13.501 2.129 28.019 2.004 40.831-2.299 16.815-5.655 32.436-13.146 50.687-12.116 8.166.465 16.236 0 24.473 0 5.742 0 11.63.536 17.284-.732" id="path607"/>
    <g id="g609">
      <g id="g611" stroke="#000000" stroke-width="1.7493">
        <path fill="#FF3810" d="M64.833 446.998s19.211-5.358 60.472 20.642c0 0 23.734 20.419 49.147 28.583 0 0 10.506 1.688 16.593-4.472l12.142-18s-7.858 2.232-14.432.084l-89.501-48.903s-23.892-10.139-36.285 2.396c.001 0-6.933 10.974 1.864 19.67z" id="path613"/>
        <path fill="#FF3810" d="M372.677 445.22s-19.273-5.137-60.229 21.341c0 0-23.496 20.689-48.813 29.146 0 0-10.485 1.811-16.643-4.277l-12.351-17.859s7.885 2.141 14.432-.083l88.93-49.934s23.775-10.415 36.312 1.977c-.002-.002 7.058 10.891-1.638 19.689z" id="path615"/>
        <path fill="#FFFFA5" d="M178.748 482.639s17.726 1.436 6.745 12.543c0 0 11.254-.838 22.261-26.048 0 0 2.793-8.546-8.578-8.479l-20.428 21.984z" id="path617"/>
        <path fill="#FFFFA5" d="M259.418 482.173s-17.709 1.64-6.602 12.621c0 0-11.261-.708-22.557-25.79 0 0-2.894-8.513 8.477-8.578l20.682 21.747z" id="path619"/>
        <path fill="#FFFFA5" d="M60.478 438.344s6.188 23.076 13.226 30.032c7.038 6.957 122.421-5.955 147.348-6.099 24.929-.146 134.576 11.864 143.716 2.725 13.202-13.201 11.5-34.982 11.5-34.982s-13.185 16.306-51.257 12.59c-38.068-3.716-104.104-5.697-104.104-5.697s-88.79 4.568-110.169 7.195c-41.082 5.048-50.26-5.764-50.26-5.764z" id="path621"/>
      </g>
      <g id="g623" fill="#FF3810">
        <path d="M87.202 464.586l1.216-15.29 5.315.423-.205 2.585-3.874-.307-.27 3.39 3.599.286-.205 2.576-3.599-.286-.331 4.161 4.005.319-.205 2.576-5.446-.433z" id="path625"/>
        <path d="M101.55 465.353l-1.579-.05-.518-3.501-2.87-.093-.702 3.464-1.542-.05 3.284-15.239 1.536.048 2.391 15.421zm-2.481-6.15l-.806-5.721-1.155 5.658 1.961.063z" id="path627"/>
        <path d="M108.125 459.67l1.415.938c-.202 1.719-.556 2.976-1.058 3.773-.502.796-1.125 1.198-1.871 1.206-.937.009-1.703-.614-2.297-1.872-.683-1.45-1.038-3.415-1.062-5.892-.025-2.616.292-4.665.951-6.151.573-1.291 1.354-1.94 2.343-1.948.806-.009 1.483.466 2.036 1.423.393.681.686 1.692.878 3.038l-1.428.747c-.099-.829-.288-1.465-.565-1.905-.276-.441-.601-.658-.972-.654-.53.005-.958.412-1.286 1.226-.327.812-.481 2.149-.463 4.012.019 1.933.196 3.305.531 4.118.334.813.763 1.217 1.286 1.212.383-.003.71-.266.984-.789.272-.522.466-1.351.578-2.482z" id="path629"/>
        <path d="M112.057 465.225l-.66-15.329 1.445-.063.26 6.033 2.843-.122-.26-6.033 1.451-.063.661 15.329-1.45.063-.29-6.702-2.843.122.289 6.702-1.446.063z" id="path631"/>
        <path d="M136.506 463.528l-1.505-15.262 5.31-.523.254 2.58-3.868.382.333 3.384 3.596-.354.253 2.572-3.595.354.41 4.153 4-.393.252 2.571-5.44.536z" id="path633"/>
        <path d="M144.386 462.741l-1.596-15.264 1.405-.146 3.991 9.887-1.066-10.192 1.344-.14 1.596 15.261-1.451.152-3.917-9.651 1.04 9.951-1.346.142z" id="path635"/>
        <path d="M151.225 446.593l2.634-.273c.666-.067 1.182.011 1.548.236s.723.632 1.073 1.22c.349.587.656 1.366.92 2.336.264.968.473 2.185.624 3.648.137 1.318.17 2.476.101 3.468-.07.993-.207 1.787-.409 2.383-.204.597-.475 1.058-.816 1.385-.341.326-.802.519-1.384.579l-2.712.279-1.579-15.261zm1.706 2.433l1.045 10.107 1.082-.11c.464-.048.792-.161.984-.336.192-.173.339-.421.44-.744.101-.321.161-.821.179-1.496.018-.676-.029-1.558-.142-2.648-.117-1.131-.253-2.017-.411-2.662-.156-.642-.349-1.14-.575-1.496-.228-.355-.482-.579-.764-.668-.212-.07-.606-.075-1.186-.016l-.652.069z" id="path637"/>
        <path d="M161.268 460.98l-1.314-15.28 5.316-.457.222 2.586-3.873.333.291 3.387 3.6-.31.221 2.575-3.6.309.358 4.158 4.004-.343.221 2.574-5.446.468z" id="path639"/>
        <path d="M175.59 459.924l-1.575.101-.85-3.437-2.864.185-.367 3.515-1.539.099 1.807-15.488 1.532-.099 3.856 15.124zm-3.056-5.886l-1.35-5.618-.607 5.743 1.957-.125z" id="path641"/>
        <path d="M178.681 459.76l-3.403-15.181 1.571-.085 2.438 11.238 1.133-11.435 1.542-.086-1.727 15.462-1.554.087z" id="path643"/>
        <path d="M184.039 451.881c-.103-1.826-.033-3.339.21-4.536.242-1.199.595-2.102 1.061-2.706.465-.606 1.051-.929 1.761-.97 1.028-.059 1.903.58 2.627 1.918.724 1.336 1.158 3.271 1.3 5.808.145 2.563-.085 4.587-.689 6.067-.529 1.308-1.31 1.992-2.341 2.05-1.04.059-1.895-.526-2.567-1.755-.767-1.403-1.221-3.361-1.362-5.876zm1.487-.19c.099 1.763.364 3.074.796 3.935.431.858.93 1.273 1.496 1.241.57-.032 1.017-.495 1.342-1.391.325-.896.437-2.25.335-4.062-.1-1.776-.356-3.08-.769-3.907-.412-.83-.913-1.229-1.502-1.194-.59.032-1.046.489-1.367 1.364-.322.88-.432 2.217-.331 4.014z" id="path645"/>
        <path d="M192.71 443.612l1.443-.104.586 8.288c.091 1.288.168 2.126.232 2.511.111.672.299 1.183.567 1.534.267.353.597.513.991.485.334-.023.597-.173.79-.449.192-.275.311-.647.355-1.116.045-.467.014-1.464-.094-2.987l-.599-8.465 1.45-.103.569 8.036c.146 2.054.187 3.542.126 4.466-.061.923-.291 1.685-.69 2.282-.399.598-.958.923-1.679.974-.748.054-1.348-.141-1.801-.58-.452-.44-.804-1.08-1.053-1.918-.25-.84-.455-2.405-.617-4.693l-.576-8.161z" id="path647"/>
        <path d="M202.226 458.276l-.936-15.31 3.049-.187c.78-.048 1.345.055 1.695.312.352.252.654.714.911 1.38.256.664.414 1.471.471 2.419.074 1.196-.032 2.171-.315 2.922-.284.751-.722 1.239-1.314 1.465.333.369.616.78.847 1.232.23.448.558 1.264.981 2.439l1.053 2.933-1.724.105-1.254-3.266c-.451-1.183-.753-1.921-.907-2.215-.153-.295-.31-.494-.468-.601-.158-.105-.405-.148-.738-.128l-.299.019.391 6.391-1.443.09zm.904-8.923l1.074-.064c.656-.042 1.07-.117 1.243-.229.174-.112.306-.323.399-.639.092-.313.123-.725.092-1.23-.03-.488-.109-.876-.239-1.166-.129-.289-.293-.484-.49-.583-.14-.067-.534-.082-1.182-.042l-1.134.068.237 3.885z" id="path649"/>
        <path d="M210.657 457.811l-.63-15.329 1.445-.061.63 15.331-1.445.059z" id="path651"/>
        <path d="M214.726 457.649l-.346-15.339 1.411-.032 3.172 10.178-.231-10.243 1.352-.031.346 15.34-1.459.033-3.12-9.938.226 10.002-1.351.03z" id="path653"/>
        <path d="M226.529 451.856l.007-2.584 3.126.005-.01 6.11c-.318.649-.765 1.206-1.343 1.672-.579.468-1.158.699-1.743.697-.707 0-1.333-.307-1.875-.917-.54-.611-.967-1.527-1.281-2.744-.316-1.218-.472-2.65-.469-4.297.003-1.688.165-3.132.49-4.331.321-1.2.741-2.094 1.253-2.686.513-.593 1.127-.888 1.84-.887.856.001 1.543.384 2.059 1.149.513.764.844 1.887.988 3.366l-1.435.572c-.106-.788-.303-1.393-.588-1.812-.287-.419-.628-.628-1.028-.631-.619 0-1.118.419-1.503 1.26-.383.84-.578 2.122-.581 3.844-.003 1.849.202 3.254.615 4.218.354.832.834 1.247 1.438 1.248.284 0 .578-.115.883-.35.306-.231.579-.552.818-.955l.004-1.948-1.665.001z" id="path655"/>
        <path d="M254.372 458.482l-1.575-.094-.425-3.515-2.862-.169-.797 3.441-1.537-.09 3.697-15.146 1.534.093 1.965 15.48zm-2.31-6.215l-.648-5.74-1.31 5.624 1.958.116z" id="path657"/>
        <path d="M256.391 458.627l1.135-15.175 1.441.107-.939 12.598 3.604.268-.194 2.578-5.047-.376z" id="path659"/>
        <path d="M263.754 459.199l1.336-15.156 1.441.126-1.107 12.582 3.599.318-.227 2.573-5.042-.443z" id="path661"/>
        <path d="M292.901 462.125l-1.568-.158-.273-3.53-2.854-.29-.939 3.406-1.534-.154 4.333-14.979 1.527.155 1.308 15.55zm-2.043-6.307l-.406-5.763-1.545 5.563 1.951.2z" id="path663"/>
        <path d="M299.967 457.111l1.313 1.074c-.372 1.69-.849 2.906-1.425 3.649-.578.743-1.24 1.082-1.981 1.016-.934-.085-1.631-.781-2.098-2.09-.537-1.512-.695-3.502-.473-5.969.233-2.605.752-4.617 1.555-6.028.697-1.228 1.537-1.796 2.522-1.707.803.071 1.427.611 1.883 1.617.323.717.515 1.753.573 3.109l-1.493.602c-.018-.834-.144-1.484-.376-1.951-.232-.464-.532-.714-.902-.748-.525-.047-.994.317-1.4 1.094-.403.776-.69 2.092-.857 3.947-.171 1.926-.134 3.31.119 4.151s.639 1.286 1.159 1.332c.383.035.733-.195 1.058-.688.324-.491.597-1.294.823-2.41z" id="path665"/>
        <path d="M303.315 463.053l1.1-15.302 1.442.105-.431 6.021 2.839.206.431-6.023 1.452.104-1.1 15.302-1.449-.104.482-6.689-2.841-.204-.481 6.69-1.444-.106z" id="path667"/>
        <path d="M311.727 463.616l.834-15.32 1.445.078-.834 15.322-1.445-.08z" id="path669"/>
        <path d="M315.813 463.834l.532-15.331 5.327.187-.092 2.593-3.882-.135-.116 3.398 3.608.125-.092 2.583-3.608-.125-.144 4.173 4.015.138-.093 2.584-5.455-.19z" id="path671"/>
        <path d="M325.538 464.025l-2.888-15.284 1.574-.035 2.054 11.316 1.521-11.39 1.545-.033-2.252 15.394-1.554.032z" id="path673"/>
        <path d="M331.588 463.829l-.69-15.32 1.445-.065.691 15.32-1.446.065z" id="path675"/>
        <path d="M335.65 463.627l-.502-15.331 1.412-.045 3.276 10.14-.336-10.236 1.35-.044.502 15.329-1.459.047-3.222-9.9.328 9.997-1.349.043z" id="path677"/>
        <path d="M347.113 457.627l-.156-2.579 3.119-.188.369 6.099c-.277.667-.687 1.251-1.237 1.752-.547.502-1.11.771-1.691.804-.711.043-1.354-.224-1.93-.799-.578-.577-1.06-1.464-1.449-2.659-.39-1.196-.636-2.614-.734-4.258-.103-1.687-.027-3.136.219-4.353.25-1.217.611-2.138 1.086-2.759.476-.624 1.07-.957 1.78-.999.854-.053 1.562.287 2.125 1.019.561.731.96 1.83 1.196 3.298l-1.397.66c-.158-.78-.39-1.37-.7-1.771-.312-.399-.667-.588-1.063-.563-.618.036-1.093.486-1.421 1.347-.332.864-.447 2.154-.342 3.874.109 1.845.403 3.234.874 4.171.403.809.909 1.192 1.515 1.157.28-.017.567-.152.857-.403.29-.254.543-.588.755-1.005l-.116-1.942-1.659.097z" id="path679"/>
      </g>
    </g>
  </g>
</svg>
