<svg xmlns="http://www.w3.org/2000/svg" version="1.0" id="Layer_1" xml:space="preserve" viewBox="0 0 274.8176 300">
  <path d="M141.12813 148.5604l118.00231-4.23647c-1.14811 13.14076-6.10136 25.34508-10.0492 39.13206 3.08676 5.74377 11.19731-13.64267 11.77137-15.58131.21647-.43295 2.5127-9.19132 3.5165-5.74377-2.5111 5.38298-3.23108 10.84293-4.30703 14.14616-.14432.42974-.43135 4.30703 0 3.73297.57406-1.0054 1.29403-3.30483 1.57946-4.66942 1.57945-3.66081 2.79812-7.82673 3.51649-10.26567.21487-.64461.57246-2.22727 1.0038-3.23268 0-2.0108 2.44054-2.58325 1.36459-.57245 0 1.14972-1.57786 6.10456-2.08136 7.5381.57406 2.15512.93324.43295 1.5057-.57245.07376-.14432.93484-2.65862 1.43674-4.66942.57406-2.36839 1.57946-4.95164 2.29783-8.5435.35919-1.86649 1.43675-4.30864 1.43675-1.72217-.64622 3.94944-2.36999 10.12456-3.15892 14.00185 0 .78892-.28703 1.79432.5019 1.79432.71677-2.29943 2.08136-6.96564 2.65541-7.5381 2.29783-.57566-2.22567 8.39919-2.08135 11.84834 0-1.14972 2.5111-5.027 3.15891-6.03241 2.0092 0-.43294 1.57786-.43294 2.79973-.14272.42974-3.94785 11.27108-3.0146 11.27108.93324-1.21867 3.87568-9.54891 4.95324-9.83754.86108.93324-3.44434 10.48535-3.44434 12.42079-.78893 1.43675-1.29243 3.30483-1.79433 4.8859-.5019.50189-.57405 1.21866-.28863 2.00759 0-.93004 2.0108-2.72757 2.44054-3.87729.71677-1.14651.93325-2.43894 2.15352-1.57785-1.5073 4.37758-4.44974 8.33023-6.24568 12.70942-1.36458 2.0108-3.65921 6.17672-1.50569 4.0216 1.93864-1.93864 1.86648-2.36838 2.87028-3.73297l2.08136-3.44434c.5019-.36079 1.0054-.93645 1.72377-.93645-1.22187 2.8751-3.15891 5.88809-4.59406 8.69103-3.51649 4.01839-5.59785 8.97324-9.25866 12.63726-1.07756 1.57785-3.87569 3.58866.64621 1.72217 4.44974-3.80513 8.0384-9.76538 11.19571-14.64807.28703.07216.86108.21648 1.14972.28864-3.51811 6.89028-8.32703 12.20431-12.70622 18.38103-1.29243 1.29083-4.16271 3.73297-4.87948 5.16812.78893.36079.57245.28863 1.5057-.28543 1.86648-2.15512 4.23647-4.31023 6.53109-6.10456l.57406.64461c-4.30703 5.45835-8.39758 10.19672-13.78217 14.36264-1.65001 1.29082-3.5165 2.65541-5.24027 3.73297 2.22567 1.14972 10.33623-5.74377 12.20271-7.10996.28703-.71677.57406-.71677 1.07596-1.22188.28863-.64461 2.36998-2.15191 2.36998-.28542-2.72757 2.36838-5.38298 5.16811-8.11215 7.46594-4.44974 3.94945-9.40299 7.75458-14.71542 10.69862 1.79433.86108 9.97865-4.16592 11.48434-5.45514 1.22028-.79214 2.43894-1.72538 3.5165-2.58646 0 .28863 1.22188.79213 1.43675.79213-2.58326 2.22407-5.81433 4.16271-8.68461 6.10136-3.15892 2.15511-6.89029 4.88269-10.26407 6.5359-3.37379 1.36299-6.96244 3.80513-10.40678 4.66622 0 .93324 5.59785-.86109 6.38678-.86109 4.59405-1.14971 9.11595-3.16052 12.92108-6.0324 1.14972 1.22187.86109 1.29082-.57405 2.22727-1.93704 1.43515-4.16272 2.22407-5.81433 3.80513-2.22407.78893-4.87948 2.58326-7.17892 3.44434-4.80732 2.58646-10.55109 4.88269-15.79136 6.60486-1.5057 0-3.23108 1.14972-4.59246 1.14972-1.07595 0-.78892.64782.28864.64782 3.22946 0 5.88488-.21648 8.89948-.93325 2.08296-.43294 4.30863-1.07756 6.02919-1.72217 2.94405-1.0054 6.45894-3.01941 9.5473-4.31023.14272.36079.43135.78893.57406 1.14971-2.72757 2.72758-7.32163 3.37379-10.40838 4.88269-.07216 0-.64622.64461-.86109.64461-1.43674 0-5.45514 2.08296-6.60325 2.22728-3.44595.57245-8.04 3.15731-11.48434 3.15731 2.51109.79214 6.67541-.28542 9.18651-.78893 0 .71998 1.79432 1.29404 1.72217 1.65322-.93325 2.87189-2.87189 5.95704-4.59246 8.68782-3.80513 1.86649-7.60865 4.16271-11.48594 6.03241-1.29243 0-2.0092-.07216-1.22027-1.72538 0 0 2.94404-3.44434 1.5073-3.44434-1.29243 0-2.36999-.28863-2.36999 1.43514-.14271.43295-.21487.79213-.5019 1.07756 0 2.15512-.86269 6.24727-2.94404 7.25268-1.36299 1.43514-5.24027 2.0108-7.17731 2.87188-4.66622 0-10.40839 2.87189-14.93189 0-1.22027 0-2.94244.36079-2.0092-1.43674.86109 0 1.07756 0 1.72217-.28543 2.0108 0 11.62866-2.5143 10.62326-4.66621-.86109 0-2.22568.21326-2.87029-.5035-.93484 0-1.07756-.28864-2.0108-.57246-.78893-1.43674-3.5165-.36079-4.66461-1.43674-.93324-.43295-2.15512-.86109-.28863.57566 0 1.57785.21647 3.22947-1.36459 4.01839-.71677.36079-1.57785.8643-2.36999.8643-1.29243 0-5.09435.28542-5.09435-1.14972-1.14971.57245-.28863.57245-.28863 1.43514.86109 0-.64621 2.08296-.86108 2.29943-1.36459 2.72758-8.32543 2.36839-10.98244 2.36839-1.00541-.21327-2.01081-.71677-2.87029-.93004-3.94784-2.01401-8.39918-3.95265-12.06-6.31943-1.29243 0-3.30162 1.65001-4.37758 2.29943-3.66081 2.5111-7.10676 6.0292-11.98784 6.0292-1.65162 0-3.15892.07216-3.73137-1.07756-1.0054 0-.86269-1.79433-.86269-2.36838 0 0 2.22567-2.37159.28703-1.36619-1.86649 1.36619-5.95704 1.86648-8.32542 1.07756-2.36999-2.3716-1.86649-3.08836 0-4.88269-.28703 0-1.93865-1.29083-2.08136-1.43514 0-.64782-.21487-1.07756-.5019-1.72538-2.29623 1.14972-4.73677 1.14972-6.96244-.28543-1.579457 1.57786-3.444339 2.58326-5.95704 2.58326-.574056-.28863-1.292429-.64461-1.794328-.86109-4.307028 0-3.732971-.21647-3.732971 3.16052 0 .78893.287028 1.36299 0 2.08296 0 .71677-.646215 2.22407-1.435142 2.22407-1.436745 1.43675-4.881084 2.44215-6.890283 1.79433-2.081356 0-2.942441-.71677-4.307028-2.07975-1.148113 0-.861085-.71998-.861085-1.43675-1.651615-1.29082-1.507299-6.82133.861085-8.61566.287029-.28863 1.579458-2.0108.574057-2.0108 0-1.0054.287028-1.22187-.861085-1.22187-.933243 0-.431344-.86109-1.507299-.86109-2.081357-.86108-2.583255.28863-4.592453.28863-2.010802 3.0162-5.240271 6.67702-9.117559 6.67702-1.003797 0-2.081356-1.86649-2.081356-2.87189-.718372-2.15512-.21487-5.31403.287028-7.5381-1.364587 0-1.93704-.71998-2.871886-1.36619-.359186 0-.861085-1.36619-.861085-1.79433 0-1.93864-1.148113-1.5089-1.148113-2.22727 0-1.5057-3.086757.28863-4.02.28863h-4.307028c0-.07216.21487-.43295.287028-.57566-2.871887 0-5.095955-4.59406-3.731368-7.24947-.501899 0 0-.64782 0-1.07756 1.003797-2.08296 5.023797-3.5197 7.177311-4.66621-1.220271 0-1.005401-1.43675-2.009198-1.43675-.359186-.36079-.574057-.5019-.574057-1.14972-2.081356 0 .718373-3.73297-2.870283-3.73297-.933243-.78892-.933243-.93324-2.009198-.93324h-.646214c-2.584859 0-9.188113-3.58866-9.188113-5.96025.431344-.93324 1.292429-1.65001 2.081356-2.36838 1.93704-1.65322-1.866486-1.00861-2.29783-2.8751-1.72217-.50189-2.081356-2.36838-2.081356-4.01839 0-2.22728 2.871886-3.44755 4.018396-5.17132-1.794328-1.22188-3.229469-.28863-5.453538-.79214h-2.29783c-1.507299-.35758-3.732971-1.50569-4.307028-2.65541-.718372-1.43514-1.005401-3.73297-.574056-5.45514 0-2.29943 5.168113-3.0162 5.168113-4.88269-1.579458-.5035-2.440543-3.23267-3.373786-4.59726-.574056-2.07975-.933243-4.73837-.933243-6.96565-3.014599 0-5.168113-.21327-7.178914-3.15731-2.296227-2.29943-2.871887-5.24348-2.871887-8.33024 0-3.37378-2.9424409-1.14971-4.3775824-2.58325-1.2924292 0 .2870283-2.65541-1.3629836-3.16052C2.081356 188.92075-1.3e-7 186.62292-1.3e-7 183.75103c0-4.16592 4.88108473-.5035 4.88108473-4.31023 0-5.59946.5740566-4.09376 4.2348702-6.60486.4313442-2.15512-1.1481132-1.65001-1.6516154-3.23268-1.5072995-1.21866-1.3629836-3.37378-2.3683844-4.30702 0-4.88269 1.2924291-6.53591 4.951639-8.61887h1.436745c2.081356 0 2.296227 2.29943 3.445943 2.29943 1.148114 2.37159 1.003798 0 .287029 0 0-.78893.21487-3.37378-.861085-3.37378 0-1.0054 0-2.15512-.287029-3.16052-.501898 0-.287028-1.36619-.287028-1.72378l127.345961-2.15832z" id="path7" fill-rule="evenodd"/>
  <path transform="translate(-17.125488 -4.5459511) scale(1.60351)" id="polygon9" fill="#496e6e" fill-rule="evenodd" d="M84.95 188.668l-.537-.539v-.358l.179-.179h.179l.179-.18.179-.178.359-.179h2.149l.536.179.537.178.582.359.672.18-.493.358-.537.179h-.581l-.538.18H84.95z"/>
  <path transform="translate(-17.125488 -4.5459511) scale(1.60351)" id="polygon11" fill="#496e6e" fill-rule="evenodd" d="M104.646 188.309l-.538-.358.538-.539h.358l.224-.178h.134l.18-.179.179-.135.357-.178h.359l.358-.224h.357l.404-.18H111.092l.358.404-.179.178-.179.135-.179.179-.358.178-.134.18h-.358l-.403.179h-.358l-.359.18-.537.178h-.538l-.536.18h-2.686z"/>
  <path d="M70.499925 278.66761c0-5.38299 5.023797-4.31024 8.325424-5.38299 2.081356 0 5.382984-2.22727 6.604858-3.73297.933243-4.23808-2.584858-2.29943-2.584858-5.81593 0-2.87509 2.799729-2.15512 4.594057-2.01401.933242.07216.788927.57566 1.722169.57566-2.438938 1.29083-2.009198 2.15512-2.009198 4.31024 0 .85787-2.153514 5.16811.287029 5.16811 0 .78893 1.579457.28863.287028.93324 0 2.87189-7.46434 6.67702-8.614056 7.46595.646214 1.29403 4.090554-1.36299 4.881084-2.0076.501899.42974-1.722169 4.5219-2.009198 5.09916-.79053 2.65542-2.010801 5.74378-2.010801 8.68782 0 1.72217.861085.14111.861085-.57566 0-2.0108 3.301627-11.41539 5.168113-13.20972.359186.57246.788927 3.73298 1.148113 3.73298 0 1.14971 1.362983 2.72757 1.72217 3.73297 2.368384 1.14971-.861085-5.24348-.861085-6.38839-1.292429-1.29403.21487-4.0216.861085-5.09916 0 .21327 1.722169 3.16052 1.722169.78893 0 .36079 3.014599 0 3.947842 0 .072158 0 10.336225.64461 10.336225.64461 1.93704 2.15512-.71677 4.81053-2.0092 4.81053-3.157308 0-7.464336-3.94945-8.541895-3.08515-4.092158 3.30162 4.594056 8.61566.574057 10.62646-1.579458 0-5.814328.42974-6.890283-1.43675-6.962441 1.72217-1.005401 9.76538-9.188113 9.76538-4.808927 0-5.168113-5.5273-2.368385-8.32703 1.866486-1.86648 2.009199-7.18212-1.650011-7.18212-1.003798-.0016-4.305425-.50671-4.305425-2.08456z" id="path13" fill="#2ca02c" fill-rule="evenodd"/>
  <path transform="translate(-17.125488 -4.5459511) scale(1.60351)" id="polygon15" fill="#2ca02c" fill-rule="evenodd" d="M122.954 187.234h.179l.358-.179h.358l.358-.135h.358l.359-.402.358-.18.536-.358h.359l.358.18v.178H127.609l.358-.178-.536.358h-.359l-.358.224h-.359l-.312.178-.582.135H124.565l-.537.179h-1.074z"/>
  <path transform="translate(-17.125488 -4.5459511) scale(1.60351)" id="polygon17" fill="#496e6e" fill-rule="evenodd" d="M78.863 186.92H78.326v-.178h-.18v-.224h-.178v-.538l.716-.359h2.149v.18h.357v.179h.717v.358l-.224.18h-.313l-.18.224h-.179l-.178.178h-1.97z"/>
  <path transform="translate(-17.125488 -4.5459511) scale(1.60351)" id="polygon19" fill="#496e6e" fill-rule="evenodd" d="M113.778 185.084h-.716l-.134-.178-.18-.179v-.18l.18-.358h.671l.179-.179h.178l.358-.358h.404l.358-.179h1.79v1.074l-.762.359-.357.178H113.778z"/>
  <path transform="translate(-17.125488 -4.5459511) scale(1.60351)" id="polygon23" fill="#fff" fill-rule="evenodd" d="M84.279 180.607v-1.613l.134-.537.179.18.179.179.179.178h.179l.18.135.179.18.179.179h.537v.403l-.358.177h-.179l-.358.18h-.18l-.358.18h-.179l-.179.179h-.134z"/>
  <path d="M128.85486 282.47274c-1.43514 0-3.73297-5.96025-3.08515-7.24947-1.22027 0-2.08136-2.22728-3.44594-2.22728-3.30163 1.29403-8.46974 5.5273-11.5565 3.73297-.86108-.5019-2.44054-1.79433-.64621-3.73297.50189-.43295-.57406-4.66621 1.22027-4.66621 0 .93324 1.79593-.07216 2.0108-.28864 1.72217-1.65001 3.87568 1.79433 4.87948 2.87189 2.0108-1.0054-1.43514-3.37539-1.43514-4.30703.93324-.93645 12.05839-1.07756 12.05839 2.65542 1.36459 0 1.22028 3.66081 1.22028 4.88268 1.50569 1.14972 1.00379-2.73077 1.00379-3.23267 0-3.73297 2.58326.93324 2.94244 1.43674.64622 1.07756 5.31083 8.04 6.60326 5.5273-2.79973-1.93864-4.66461-6.60486-7.17731-8.90429-.35759-.43295-1.93704-1.57785-.57246-.93324 2.79973 0 5.81273 1.57785 7.46434-1.72217-1.29243.5019-15.50434-.07216-15.50434-1.72538h-6.31622c1.57946-1.07756 7.32163-5.81593 6.96244-6.60486-2.5111 1.57786-5.38138 3.51971-7.82353 5.17132-7.89568 6.17352-3.30162-4.31023-3.15731-4.31023.93324 0 1.14812-1.43514.57406-2.0108 1.43514-1.43515 3.44434-2.65542 5.16811-3.5165.5019-.21648 4.59245-.93324 4.59245-.5035.64622 0 1.57946.79213 2.29783.79213 0 .86109 1.43675 2.79973 1.43675 4.37758 0 5.17132 5.88649 4.38079 9.47354 3.51971 1.72217 1.21867 5.38298 1.43514 5.38298 4.5219-.79053 1.79432-1.22027 1.86648-2.5111 3.23267 0 .42974-.36079 1.14651-.57405 1.36299 0 4.09376 5.45514 4.23807 5.45514 7.25267 0 1.5057.43134 4.81053-2.08296 4.81053-1.65001 1.72217-6.81813 1.0054-6.81813-2.22727-.57405 0-1.79432-.71677-1.79432-1.21867-2.94405.00321-3.58866 3.23268-6.24568 3.23268z" id="path25" fill="#2ca02c" fill-rule="evenodd"/>
  <path transform="translate(-17.125488 -4.5459511) scale(1.60351)" id="polygon27" fill="#217821" fill-rule="evenodd" d="M88.353 177.92l.178-.359h-.716l-.358-.223-.179-.18h-.313l-.179-.178h-.403l-.179-.179h-.179v-.315h-.358l-.179-.177v-.18h-.179l-.18-.18v-.178h-.179v-.179h-.179V175.01H85.846l.358-.18v.18l.402.222.18.18h.492l.179.18.358.179.179.178.359.18V177.74h.178l-.178.18z"/>
  <path d="M180.31952 277.01759c-4.02.71677-10.40678 1.43515-14.71541 1.43515-4.5203 0-6.31462-2.15191-6.24407-5.16812.07216-5.38619 12.48814-.71997 16.36542-.28863 4.59246.57245 8.25327 1.36298 12.63246 1.36298 4.37918 0-2.44055 1.43675-2.87189 1.43675-.71677.43295-4.0184 1.0054-5.16651 1.22187z" id="path29" fill="#fff200" fill-rule="evenodd"/>
  <path d="M54.063946 272.70736c-.287028 0-2.153514-2.22728-3.732971-1.5057-2.655413 0-8.325425 2.94405-8.325425-2.22727 0-4.31024 1.72217-3.87729 4.307029-5.81593 1.003797.93324 5.742169.28863 5.742169-2.01081 1.292429-1.29403-2.009198-6.74917 4.881085-3.44754 4.666214 0 7.46434.79213 7.46434-4.59406 0-4.0216 6.675412-6.0324 7.751367-2.87188 1.364587 0 5.168113 4.16591 4.592453 5.17132 0 3.66081-.788927 3.0162-.287028 5.17132-3.732972 0-4.666214-2.3716-8.038396-3.44755-.718373-1.07756-.431344-.86109-1.651616-.57245 0 1.65001 3.732972 3.30162 5.168113 3.73297-.718372.28863-7.823525 1.36298-8.614056 2.29943-1.93704.42974-6.604858-1.0054-8.110554-2.58646-.21487.5035-.501899.93324-.501899 1.5089 1.362984 0 4.521899 2.22728 5.382984 2.22728-2.081356 1.07435-6.173514 1.14651-8.614056 1.14651-.287029.36079-4.307029 1.14971.861085 1.14971 3.373785 0 6.244068.36079 9.186509-1.14971-.718373 1.14971-4.162712 5.38619-3.732972 6.31943 1.5073 0 3.660814-4.16592 4.95164-5.67161 2.871886-2.3716 3.947841-3.23268 8.325424-3.23268 2.871887-.86109-6.17191 5.45514-2.368384 5.45514.646214-1.43514 6.388384-6.89349 6.388384-5.45514h3.44434c-3.231073 1.50569.359186 3.16052.287028 3.23268 7.751368 2.07975 1.075955 6.24567-5.455142 6.24567-1.292429 0-1.794327.93324-2.871886 2.87188-1.435142 1.36619-4.666215-4.73837-7.751368-1.65001-2.583255 2.5111-2.511097 4.31024-6.675412 4.31024-1.71736-.00642-1.430331-4.60368-2.002785-4.60368z" id="path31" fill="#2ca02c" fill-rule="evenodd"/>
  <path transform="translate(-17.125488 -4.5459511) scale(1.60351)" id="polygon33" fill="#fff200" fill-rule="evenodd" d="M102.632 175.771h-.135v-1.121h.537l.538-.357.536-.18.717-.312.537-.18.716-.357.717-.36.761-.582h.671l.537.36-.716.582-.716.177-.537.18-.537.18-.716.312-.538.18-.716.357-.538.18-.178.18-.179.222-.179.18-.18.18v.179h-.402z"/>
  <path d="M146.3684 274.14571c-1.36298 0-1.43514-1.14972-2.29783-1.14972 0-.28863-.5019-1.07756-.64461-1.22187 0-4.37759 5.0238-8.97645 7.82353-11.77618 3.87568-2.94405 7.75136-5.38299 11.84352-7.75458-3.58705 4.09376-7.39218 9.04861-8.97164 14.36264-1.5073 2.58326-4.09215 7.5381-7.46594 7.5381h-.28703v.00161z" id="path35" fill="#fff200" fill-rule="evenodd"/>
  <path d="M92.392648 272.99599c-3.588655-1.36619-1.292429-5.81593 1.364587-7.46594 1.436745-2.22728 1.148114-1.58106 1.148114-3.80834 0-3.87729-9.76217-2.00759-10.336226-2.00759-2.153515 0-6.029198-1.14972-6.029198-4.02161 0-.64781 3.085153-.14431 4.594056-.86429 5.240271-2.36838-.501899-7.46594-4.02-7.46594-.429741-.43295-2.583255-1.57786-2.655413-1.79433-.861084-3.73297-.574056-5.96025 2.368385-7.46594.646214.64461 6.890283 2.72757 6.890283 3.44434 0 .78892 2.225672 2.51109 2.942441 2.94404.861085.71677 6.17191-1.65001 6.245672 1.07756l2.081356.57245c3.803525 0-1.435142 5.53051 5.670015 5.53051 2.72757 0 4.44974-2.0108 6.67541-.28863 5.38298 3.94944-1.93704 11.41539-2.58326 16.37023-1.79432-2.87188-2.0108-8.97645-2.0108-12.34863-1.29082 0-1.07595-.36079-1.43514.86109 0 1.29403-.28703 3.73297.28703 4.88268-.93324-.57245-1.57946-1.50569-2.29623-2.29943-.5035-.78893-4.594054-3.94944-4.594054-4.30703-1.505696 0-2.296226-10.41319-3.732971-8.40239 0 .71677.072158 5.67482 1.075955 6.67702-4.018396-.78893-10.336226-7.39379-11.484339-11.27108h-1.148113c1.003797 4.59406 5.525695 8.9043 9.186509 11.27108 4.953243 3.0162-4.307028 1.0054-4.307028 2.29943 0 2.22728 7.321627.78893 8.614056.57566 3.588656 1.5057 6.747575 6.17351 8.971635 9.18811-1.57945 0-7.034595-.42974-7.464335.93325.359186 1.65001 7.608655.14431 8.612455 2.22727 0 .71677.07216 3.94945.5019 4.66622-1.5073.5035-3.73298.07215-5.09596.57566-.500294.21487-8.036792-.28543-8.036792-.28543z" id="path37" fill="#2ca02c" fill-rule="evenodd"/>
  <path d="M211.68578 270.6244c-6.81973 3.37539-14.35462 2.58646-21.60569 1.43674-1.86489-.28863.35918-.57566 1.43514-.86108 2.80133-.86109 5.74377-1.07756 8.0416-2.87189 4.23487 1.07917 7.89569 2.72918 12.12895 2.29623z" id="path39" fill="#fff200" fill-rule="evenodd"/>
  <path d="M173.07005 264.5936c2.5111 0 5.16812 0 7.5365.64782 7.17731 1.65001 9.47354 1.79432 14.35462 2.51109.57406.14432 3.15892.57566 1.22188.57566-.21808.14432-4.45135 1.22188-4.95485 1.22188-2.72597 1.29082-16.58029 2.94084-18.15815 1.36298-4.0216 0-3.0146-6.31943 0-6.31943z" id="path41" fill="#fff200" fill-rule="evenodd"/>
  <path d="M157.85274 270.91303c-8.39758-4.09376 10.62326-19.02885 13.85272-21.03965-4.09055 5.5305-6.60325 11.99265-9.25866 18.16776-1.57786 1.65002-1.72057 2.87189-4.30543 2.87189h-.28863z" id="path43" fill="#fff200" fill-rule="evenodd"/>
  <path d="M200.7771 266.03034c-1.57945 0-4.09215-.21647-.57405-1.43674 4.44974-1.43514 8.46974-2.94405 12.34542-5.16811 1.36459 0 2.43894.86108 3.44434.86108 3.73137 0 7.32163 0 10.98404-.57245-2.79972 1.65001-11.91728 5.5273-15.00083 6.10135-5.17132 1.0038-2.30104.07056-11.19892.21487z" id="path45" fill="#fff200" fill-rule="evenodd"/>
  <path d="M169.04845 264.88063c-1.36298 0-.42974-.57246-1.07596-.57246-4.88108-4.88268 11.98784-17.59211 12.92109-16.65886-4.16432 6.24567-3.37379 14.14296-11.5565 17.23132h-.28863z" id="path47" fill="#fff200" fill-rule="evenodd"/>
  <path d="M201.85306 261.72171c2.0092 0-.5019.57566-.5019.57566-.93164.93324-10.40678 2.29623-11.84192 2.29623-3.15892 0-6.89189 1.00861-6.89189-3.44434 0-5.17132 10.69381-2.43894 13.20651-1.14972 1.65001.78893 4.16271 1.72217 6.0292 1.72217z" id="path49" fill="#fff200" fill-rule="evenodd"/>
  <path transform="translate(-17.125488 -4.5459511) scale(1.60351)" id="polygon51" fill="#fff200" fill-rule="evenodd" d="M100.886 166.949l-.179-.179-.18-.178-.223-.18-.179-.18h-.313v-.179l-.358-.133v-.404l.492-.537.94-.717.717-.537.894-.717.896-.537 1.074-.537 1.075-.358 1.253-.582-.358.582-.359.178-.357.539-.359.178-.537.359-.358.358-.359.357-.178.359-.358.18-.538.537-.179.358-.223.179-.135.18-.179.178v.179l-.358.225-.179.312-.178.18-.179.18-.18.178v.179h-.358z"/>
  <path d="M45.162862 254.25416c0-2.15511 5.455141-3.58865 5.455141-7.18212 0-1.86648-4.521898-4.23487-5.168113-6.89349 0-3.94944 4.307028-1.72217 3.158915-5.81593 0-1.0054-2.368384-3.16052-3.445943-3.16052-.214871-.50189-3.086757-5.31243-1.72217-6.60485.574057-.93325 2.368384-3.15732 3.732971-3.15732 2.153515-1.0054 2.440543 1.14651 4.02.28543 2.871887 2.94404 1.577854 10.26888 8.901085 5.17132 1.435141.64461 1.292429 1.57785 2.081356 2.29623 2.079753 0 .788927 6.39159 2.798125 6.39159 1.794328 1.72217 6.029198-1.5057 6.962441.57245 1.507299 0 2.727571 1.36619 3.158915 2.5143.429741 1.0054-.862689 1.93865-.862689 2.87189 0 0-1.866485 2.58326-1.507299 3.23268 2.5127 3.80513-6.890283 1.36298-4.307028-.57566 0-.78893-.072158-1.5057.287028-2.36839-2.727571 0-.646214 5.24027-3.157311 5.24027-.072158.07216-.574057.28864-.574057.57566-1.72217-.36079.574057 3.58866-1.650012.28543-2.369988-3.58866-4.738372-8.61566-3.229469-13.28188.429741-1.22187-.144316-3.16051.287028-4.59405-1.866486 0-1.93704 5.59945-1.93704 7.17891 0 2.87189-5.168113-4.88269-5.527299-5.38298-1.650012-2.08296-4.02-4.52511-5.455142-6.67702-2.225672 1.07756 6.675413 10.77078 8.038396 12.63727 1.938644 2.43893 1.436745 2.08296-.788927 1.50569-1.794327 0-5.023797-.14111-6.388384-.64461-.933243 2.0108 7.823526 1.86649 9.475141 2.58326.574057 1.79753 2.655413 5.88808 4.02 7.25267.431344 1.43675 2.153514-.14431 0 2.0108-2.225672 2.22728-5.382983-.43294-6.818125.28864-3.014599 0 4.736769 2.72757 1.650012 3.44433-1.003797.21648-.359186.21648-1.435141.57246-1.364587.5035-.359187-.21327-2.29783.71997-1.003798.5019-2.942441 3.87729-2.29783 3.87729-2.442146.00161-5.456745-3.0146-5.456745-5.16972z" id="path53" fill="#2ca02c" fill-rule="evenodd"/>
  <path d="M199.91441 251.95634c4.88269 0 9.33243 1.65321 14.0692 1.65321-4.73677 3.58866-20.81516 8.61566-19.30786.64461.35918-1.86648 4.16271-2.29782 5.23866-2.29782z" id="path55" fill="#fff200" fill-rule="evenodd"/>
  <path d="M182.04169 257.98874c-.57406 0-1.72217-.86108-2.0092-1.14972 0-7.46594 4.87948-9.40458 10.0492-13.20971.78893-.57246 1.22027-1.79433 2.36999-1.79433-1.07756 2.08296-2.36999 4.95485-3.15892 6.96565-1.29243 3.22947-2.36998 9.18811-6.96244 9.18811h-.28863z" id="path57" fill="#fff200" fill-rule="evenodd"/>
  <path d="M224.46255 255.83362c-3.08676 1.14972-10.47894 1.86649-10.47894 1.29404-1.36458-1.07756-1.43674-.71677 0-1.43515 3.58866-2.22727 6.81813-4.09376 13.20651-4.59726 2.87028-.21647 5.09596.21647 7.24947-.28542-2.36838 1.72217-7.75137 4.59405-9.97704 5.02379z" id="path59" fill="#fff200" fill-rule="evenodd"/>
  <path d="M192.09089 252.532c-3.15731 0-.21487-5.09917.36079-6.3916 2.58325-3.30162 5.95704-6.10456 9.40138-8.61566-3.58705 3.87729-3.23107 15.00726-9.40138 15.00726h-.36079z" id="path61" fill="#fff200" fill-rule="evenodd"/>
  <path d="M212.8339 252.24497c1.93864 0 6.46054-2.65542 8.04-3.73297.36078.14431 3.0162.43294 3.94784.57245-1.72217 1.86648-8.25327 3.16052-9.97704 3.16052h-2.0108z" id="path63" fill="#fff200" fill-rule="evenodd"/>
  <path d="M205.37116 249.87338c-.57406 0-1.65162-3.37379.28703-3.37379 1.22027-1.29403 11.12515.57245 14.35462.57245-2.72597 2.66023-13.20811 5.96185-14.64165 2.80134z" id="path65" fill="#fff200" fill-rule="evenodd"/>
  <path d="M244.77582 240.46879c-2.94244 4.0216-14.49894 12.13536-19.093 7.61026-.78893-.78893-.71677-2.08296.64622-2.79973 1.93864-1.14972 4.30702-2.29943 8.68461-3.44434 3.37539-.79374 6.46054-.28863 9.76217-1.36619z" id="path67" fill="#fff200" fill-rule="evenodd"/>
  <path d="M202.14009 246.1404c-3.80513-3.01299 3.37378-9.90969 5.81272-12.34863.07376.07216-.93164 5.74378-.93164 6.38839-.5035 2.58646-1.72377 5.96024-4.88108 5.96024z" id="path69" fill="#fff200" fill-rule="evenodd"/>
  <path d="M226.11256 239.89473c1.36459 0 2.65542-.14431 4.02-.28863-1.79433 2.22728-17.51353 8.61566-17.87272 4.0216-1.43514-6.24727 10.48054-3.73297 13.85272-3.73297z" id="path71" fill="#fff200" fill-rule="evenodd"/>
  <path d="M30.736081 240.18016c-.646214 0-1.220271-2.94405-.287028-2.94405 1.220271-.57245 2.081356-.5019 3.231073-1.65001 1.148113-1.22187.861085-3.87729-.574057-4.66621 0-1.36619-5.382983-.86109-6.675412-.86109-2.584858-.64461-6.747571-1.93864-4.81053-5.74377 1.292429-.79214 6.245671-3.01941 6.245671-5.45835-1.507299-1.5057-4.307028-3.73297-5.455141-5.45514-.287028-2.15512-.501899-4.45295.862688-6.31944.646215 0 2.081357-1.93864 2.583255-1.14971 1.292429 0 2.368385.28863 3.803526.28863 1.077559 2.15512 4.23487 7.68242 7.178915 6.24728.933243 0 2.009198-2.22728 4.02-2.22728 3.373785 0 4.808927 3.16052 6.890283 5.17132 1.795931 1.0054.144316 3.013 1.148113 4.0184-2.225672 0-7.177311 1.07755-7.177311 3.44754-.501899.07216-1.5073 1.14972-1.72217 1.14972-1.364587 1.29083 0-.57566-1.5073-.57566 0-3.15731-.79053-5.88809 0-9.18811-1.148113-3.51971-1.651615 6.89349-1.651615 6.89349 1.075955 3.58865-1.72217.07215-2.583255-.86109-2.655413-3.0162-6.101356-7.39699-8.112157-10.91509-2.440543 1.29403 7.823525 12.99645 9.834327 14.64806-1.866486.42974-6.244068.57246-8.110554 0-.287028 1.0054-.574057 1.14972.287028 1.14972 0 .14111 9.330825 1.14651 10.336226 1.14651v2.29943c0 4.09376 2.081356-.21647 2.081356 2.94405 0 1.43674-.144315 1.43674.861085 2.79973-2.799728 0-1.72217 1.79432-.287028 1.79432 2.727571 0 0 2.29944 0 2.8751 2.440542 0 .718373 1.29082-.287028 1.93864.788927 3.30163-3.80513 1.79433-5.5273 1.79433-1.36619-.00481-3.376992-2.59127-4.59566-2.59127z" id="path73" fill="#2ca02c" fill-rule="evenodd"/>
  <path d="M210.25064 240.46879c-4.73677-2.36839 3.30323-10.91509 5.74217-12.63726 0 1.65001-2.36838 11.12675-3.15891 11.77617 0 0-2.58326 1.57786-2.58326.86109z" id="path75" fill="#fff200" fill-rule="evenodd"/>
  <path d="M242.26472 232.93069c3.44434-.93325 5.24027-1.86649 7.96784-2.29944.28703 1.36619-13.5673 13.85914-15.50434 8.4024.14271-1.0054-2.0108-3.16052 2.43894-4.88269 4.44974-1.72538 3.08676-.64782 5.09756-1.22027z" id="path77" fill="#fff200" fill-rule="evenodd"/>
  <path d="M241.6169 228.12016c-.28863-.64782 2.72757-4.45295 5.16972-5.53051 2.43894-1.07756 4.30703-1.65001 6.60325-2.0108 1.65001 0 3.44434-.64461 4.87948-1.14972-3.51489 4.8859-5.74217 8.76319-10.76596 9.12077-1.14972.57566-1.65162.78893-3.58866.64461-2.08135-.14111-2.0108-.57406-2.29783-1.07435z" id="path79" fill="#fff200" fill-rule="evenodd"/>
  <path d="M232.07121 232.35342c2.36998 0 4.37758 0 6.67381-.21647-5.88489 3.08836-9.25867 6.68022-15.86353 5.38619-.35919-.07216-2.22407-.93324-.85948-3.16052 1.007-1.43193 8.39918-2.36518 10.0492-2.0092z" id="path81" fill="#fff200" fill-rule="evenodd"/>
  <path d="M218.29064 234.65286c-1.43674 0-1.14811-.93325-1.14811-2.29944 0-3.80513 4.37758-7.82673 6.89028-10.33783-1.65001 3.5165-2.58325 7.25268-2.58325 11.19892-1.14972 1.14972-2.79973 2.37159-2.79973 1.43674h-.35919v.00161z" id="path83" fill="#fff200" fill-rule="evenodd"/>
  <path d="M246.35367 218.99939c-2.29783 2.37159-14.93028 17.01805-18.87652 11.05781 0-3.23268 7.24947-4.81053 9.25867-5.24348 2.36998-.42653 7.0346-3.30163 9.61785-5.81433z" id="path85" fill="#fff200" fill-rule="evenodd"/>
  <path d="M246.92933 217.27722c.14432-4.81053 4.44974-7.0378 8.46974-7.0378 2.65541 0 5.16811-2.15512 7.46434-3.16052-3.80513 4.81213-8.5419 14.36424-15.93408 10.19832z" id="path87" fill="#fff200" fill-rule="evenodd"/>
  <path d="M224.89389 229.48154c-4.95163-2.5111 8.25487-15.36484 10.62326-17.87914.5019.5035-3.94784 9.26348-4.23487 10.19672-.64622 1.72217-2.44054 6.74917-6.10136 7.68242h-.28703z" id="path89" fill="#fff200" fill-rule="evenodd"/>
  <path d="M233.00445 224.31503c-2.72757-3.87729 3.44434-7.18212 4.44814-8.25808.93484-1.07756 5.16971-3.30483 6.10296-4.66621 0 .78892-2.08136 4.81053-2.58326 5.74377-3.0162 6.10456-4.44974 6.31623-7.68081 7.18212h-.28703v-.0016z" id="path91" fill="#fff200" fill-rule="evenodd"/>
  <path d="M244.70366 195.30432c0 2.79973-.07216 9.47995-1.36459 12.06321-1.0038 2.15512-3.44434 5.24348-4.73677 3.80513-2.22567-2.58326-1.43674-2.94405.71677-7.10996 1.36459-2.79813 3.66242-6.03081 5.38459-8.75838z" id="path93" fill="#fff200" fill-rule="evenodd"/>
  <path d="M255.11044 207.86943c-4.37598 0-2.08136-5.24027 2.58325-5.96025 2.87189-.5019 4.73838-1.22187 6.96405-2.65541-1.93704 3.0162-5.38299 8.61566-9.5473 8.61566z" id="path95" fill="#fff200" fill-rule="evenodd"/>
  <path d="M8.3414594 180.5841c-1.0054008 0-2.225672-3.37539-.8626884-4.0216 1.2202712-1.29083 6.74757-3.08836 3.732971-6.10136-2.0813556-2.0108-4.0183958-3.87729-4.0183958-7.18212 0-3.16052 1.8664857-4.0216 4.5940568-4.0216 1.220271 1.0054 2.153514 3.51649 3.158915 4.0216 1.93704 2.0108 1.650011-1.5089 2.583254 3.16052 1.290826 5.24027 4.307028 11.84513 7.249469 16.37023-.646214 2.43894-1.507299.36079-1.507299-.57566-1.866486-3.22947-3.086757-6.96244-5.455141-9.69322-1.075956-2.0108-2.655413-3.87728-3.732972-5.81593-.142712.07216-.501899.28863-.646214.28863 1.436745 3.73298 4.092157 6.89349 5.814327 10.4132 4.736769 7.96784 3.086757 7.0346-2.871886 1.07435-.718373 1.58106 3.946238 4.23808 4.307028 5.5273 1.866485 1.79753 2.72757 4.81374 4.666214 6.60807-.933243.86108.933243 1.07755-.574057 2.58325-2.29783 2.29943 2.440543-.21647.574057 1.72217-.142712.28863-6.74757 1.43674-2.655413 1.43674.861085.86109 2.153514.57567 1.148114 2.08296-1.005401-1.07755-.716769-1.07755-1.436745-.28863-1.362984 1.36619-.788927 2.0108-.788927 3.08836 1.148113 0-2.512701 3.37379-4.307029.64461-.788927 1.50891 1.148114 3.16052 2.224069 3.73618-1.5073 0-1.93704-1.79753-2.583255-1.79753 0-.14432-2.511097-.71677-2.871886-1.65001-1.5073-.78893-3.301628-6.46055-1.72217-8.11537 7.105153-7.0346.144316-9.04219-4.0183966-13.49514z" id="path97" fill="#2ca02c" fill-rule="evenodd"/>
  <path d="M251.37907 186.04245c-2.29783 6.38838 3.5165 13.28187-2.87189 17.23132-7.89568.0016 2.15512-15.43539 2.87189-17.23132z" id="path99" fill="#fff200" fill-rule="evenodd"/>
  <path d="M262.57638 190.63811c1.72217-1.0054 3.80513-2.65541 5.24188-4.09376.93324 2.0108-6.10296 15.29267-9.83433 11.63186-1.72217-1.79433 0-2.72757 0-3.23268.07055-.71677 3.80192-3.73297 4.59245-4.30542z" id="path101" fill="#fff200" fill-rule="evenodd"/>
  <path transform="translate(-17.125488 -4.5459511) scale(1.60351)" id="polygon103" fill="#d2ab67" fill-rule="evenodd" d="M14.628 121.006l-.582-.18-.313-.357-.358-.18-.179-.537-.537-.357-.18-.405-.402-.492-.18-.537v-.359l.762-.536v.178H14.808l.715.18v.178h.359v.179h.179l.178.18h.135v.357l-.313.36-.179.312-.18.405-.179.357-.179.537-.178.18-.18.357-.178.18h-.18z"/>
  <path d="M261.28556 188.62731c-6.0308-2.44215 3.22947-12.85374 5.6684-17.87914 0 5.24187 0 20.10481-5.6684 17.87914z" id="path105" fill="#fff200" fill-rule="evenodd"/>
  <path d="M32.099065 196.16541s-2.727571 2.0108-1.364587 4.31023c1.364587 2.22728 1.93704 1.14972 4.02 2.5111 2.15191 1.43675-2.512701 3.87729 0 5.96025 2.583255 2.0108 2.871886-3.01621 4.23487-1.93865.79053.21487-7.46434-10.62646-6.890283-10.84293z" id="path107" fill="#2ca02c" fill-rule="evenodd"/>
  <path transform="translate(-17.125488 -4.5459511) scale(1.60351)" id="polygon109" fill="#2ca02c" fill-rule="evenodd" d="M100.617 181.951l7.923 3.223-3.536.582-5.55-2.955 1.163-.85z"/>
  <path transform="translate(-17.125488 -4.5459511) scale(1.60351)" id="polygon111" fill="#fff200" fill-rule="evenodd" d="M85.309 186.07l11.414-5.912 1.03.717-8.908 5.508-3.536-.313z"/>
  <path transform="translate(-17.125488 -4.5459511) scale(1.60351)" id="polygon113" fill="#fff200" fill-rule="evenodd" d="M79.982 184.771l10.161-4.568 1.03.135-8.371 4.568h-1.477l-1.343-.135z"/>
  <path transform="translate(-17.125488 -4.5459511) scale(1.60351)" id="polygon115" fill="#2ca02c" fill-rule="evenodd" d="M105.631 180.473l7.027 2.955 1.746-.762-8.37-2.775-.403.582z"/>
  <path id="polygon117" fill="#2ca02c" fill-rule="evenodd" stroke="#000" stroke-width=".2159999967599" stroke-miterlimit="2.61310005" d="M180.24736319 278.73976423l33.01787647-2.65541273-3.01459899 6.17191038-25.9111197-.50029516-4.09215778-3.0162025z"/>
  <path id="polygon119" fill="#2ca02c" fill-rule="evenodd" stroke="#000" stroke-width=".2159999967599" stroke-miterlimit="2.61310005" d="M193.88521659 291.73621359L151.8940976 279.6730071l2.01080167-1.86648575 41.77624863 6.6048581-1.79593131 7.32483414z"/>
  <path d="M95.76483 279.17271s1.795931 3.22947 1.866486 3.87729c.072158.57245 1.075955 4.23487 4.521894 2.94404 4.59406-1.72537 2.0092-4.0216-1.07755-4.74158-5.31083-1.29082-5.31083-2.07975-5.31083-2.07975" id="path121" fill="none" stroke="#000" stroke-width=".21600001" stroke-miterlimit="2.61310005"/>
  <path d="M137.25405 253.10605c69.69496 0 126.54421-56.86848 126.54421-126.51695C263.79826 56.868486 206.95062 3e-8 137.25405 3e-8 67.629642 3e-8 10.780398 56.868486 10.780398 126.5891c0 69.64847 56.84764 126.51695 126.473652 126.51695z" id="path123" fill="#ffcb05" fill-opacity="1" fill-rule="evenodd" stroke="none" stroke-width=".21600001" stroke-miterlimit="2.61310005"/>
  <path d="M254.89717 184.96649c.07216-.36079 2.87029-6.39159 1.93865-2.58646 0 1.65001 2.15351 12.35184-1.57946 13.64267-2.87028.93645-2.43894-4.16272-2.0092-5.31243.5003-1.58267 1.21867-4.02161 1.65001-5.74378z" id="path125" fill="#fff200" fill-rule="evenodd"/>
  <path d="M137.25405 244.34608c64.88604 0 117.78744-52.9912 117.78744-117.75698 0-64.910084-52.8998-117.8291243-117.78744-117.8291243-64.743323 0-117.716883 52.9174373-117.716883 117.8291243 0 64.76578 52.971956 117.75698 117.716883 117.75698z" id="path127" fill="#0092c7" fill-opacity="1" fill-rule="evenodd" stroke="none" stroke-width=".21600001" stroke-miterlimit="2.61310005"/>
  <path d="M137.25405 227.0426c55.33874 0 100.48717-45.23662 100.48717-100.52405 0-55.361186-45.14843-100.525651-100.48717-100.525651-55.268182 0-100.488771 45.164465-100.488771 100.525651-.001603 55.28743 45.220589 100.52405 100.488771 100.52405z" id="path129" fill="#ea0437" fill-opacity="1" fill-rule="evenodd" stroke="none" stroke-width=".21600001" stroke-miterlimit="2.61310005"/>
  <path d="M137.25405 207.5808c44.64493 0 81.03659-36.40129 81.03659-80.9917 0-44.662562-36.39006-81.067052-81.03659-81.067052-44.574373 0-80.966035 36.40449-80.966035 81.067052 0 44.59041 36.391662 80.9917 80.966035 80.9917z" id="path131" fill="#00ae68" fill-opacity="1" fill-rule="evenodd" stroke="none" stroke-width=".21600001" stroke-miterlimit="2.61310005"/>
  <path transform="translate(-17.125488 -4.5459511) scale(1.60351)" id="polygon133" fill="#ffcb05" fill-opacity="1" fill-rule="evenodd" d="M111.271 116.707l35.855 14.777-14.279-35.733 36.034-14.732-36.527-15.091 14.861-35.734-35.676 14.509L96.007 8.924 80.474 44.703 44.798 30.194 59.66 65.973 23.939 81.019l35.228 14.732-14.279 35.733 35.855-14.777 15.264 38.645 15.264-38.645z"/>
  <path transform="translate(-17.125488 -4.5459511) scale(1.60351)" id="polygon135" fill="#fff" fill-rule="evenodd" d="M96.007 147.783l13.697-34.703 32.408 13.344-12.846-32.195 32.318-13.21-32.855-13.568 13.383-32.197-32.049 13.031L96.007 15.91 81.952 48.285 49.901 35.254l13.385 32.197-32.185 13.568 31.647 13.21-12.847 32.195L82.31 113.08l13.697 34.703z"/>
  <path d="M149.31245 161.05335c-.71838 1.29403-3.94785 5.24348-5.67162 5.24348-1.22027 0-3.87568.06895-4.52029-.57566-1.57946 0-.28703-1.07756-2.29623-1.07756-5.31243 3.87728-10.98244 2.15511-15.21731-2.87189-1.86649-1.86649-4.88109-6.96565-5.09596-9.5489-.07055-.71677-3.37378-11.55971-3.37378-13.28348-.07216.64621-.78893 12.99485.86108 12.99485-10.16255-11.23466-4.06226-32.01172 3.08516-42.9388-.71838 10.12456-.57406 20.17697 1.72217 30.22937 0 2.65702 3.51649 13.21293 5.31243 13.21293 0 .71677 2.58485 1.14971 2.58485-.78893 0-2.08296-.14431-2.72917-.86268-4.81053-3.34878-5.8017-5.73009-12.45393-6.17191-19.17157-.74109-11.26776 1.50729-29.655312 8.97324-38.415288 1.65001-2.153514 1.86488-3.660813 1.43514-.287028 0 8.400789 1.93704 17.805376 3.08515 25.991296 1.22027 6.17512 2.65542 6.89349 3.94784 12.42239.43135 3.37379.43135 6.96405 0 10.41159-.64621 5.45675-1.93704 11.20212-1.93704 16.65887 1.07596 2.22407 0 2.79973 2.79973 2.79973 2.87189 0 4.0184-9.47835 3.37218-11.84673 0-5.45675-.42974-13.85914-2.79812-18.59912-.71837-1.57785-2.29623-6.31783-2.79813-7.89729-.64621-2.08135-1.0054-3.94944-1.14971-4.81053-2.08136-10.12456-3.22947-25.418838 1.14971-35.039899.42975-1.220271.64462-2.87349 1.36299-3.949445 0 2.729174-.64622 5.745377.57245 8.184316 0 6.534303 12.77677 32.384488 13.99704 37.482048 0 .07216 1.5073 4.30863 1.79433 6.0308.71837 7.46915 1.0054 15.9405 0 23.12101-.35919 2.94405-2.5127 8.11537-4.16271 11.12997z" id="path137" fill="#ea0437" fill-opacity="1" fill-rule="evenodd"/>
  <path d="M150.02922 160.98279c1.29242-1.36298 4.60518-9.04712 5.16811-13.28347.94437-7.10688 1.87736-14.57214.86269-21.4694-.81319-5.52768-2.78463-10.96148-5.09756-16.08321-1.78537-3.95349-6.31623-13.71482-6.24567-22.906139 1.36458 1.364587 2.12806 3.532664 2.87188 4.81053 3.05971 5.256437 7.5124 10.280969 10.69381 15.509149 2.84779 4.67991 7.34695 12.42107 7.60866 17.80698 1.35251 14.39805-4.89238 27.15527-15.79137 36.40289l-.07055-.78733z" id="path139" fill="#ea0437" fill-opacity="1" fill-rule="evenodd"/>
  <path d="M94.905349 223.59345c2.081356 0 3.803526 1.72217 3.803526 3.73297 0 2.08617-1.72217 3.80834-3.803526 3.80834-2.08296 0-3.732972-1.72217-3.732972-3.80834 0-2.0092 1.650012-3.73297 3.732972-3.73297z" id="path143" fill="#ffcb05" fill-rule="evenodd"/>
  <path d="M175.79762 225.24827c1.43514-1.5089 3.80353-1.5089 5.31083 0 1.43674 1.43514 1.43674 3.80513 0 5.31243-1.5057 1.43674-3.87569 1.43674-5.31083 0-1.5073-1.5073-1.5073-3.87889 0-5.31243z" id="path147" fill="#ffcb05" fill-rule="evenodd"/>
  <path d="M234.15256 169.16871c0-2.08296 1.65001-3.80513 3.73297-3.80513 2.08136 0 3.80353 1.72217 3.80353 3.80513 0 2.0108-1.72217 3.73297-3.80353 3.73297-2.08296 0-3.73297-1.72217-3.73297-3.73297z" id="path151" fill="#ffcb05" fill-rule="evenodd"/>
  <path d="M235.73202 88.245971c-1.43675-1.436745-1.43675-3.806733 0-5.314032 1.5057-1.436745 3.87568-1.436745 5.31243 0 1.50569 1.507299 1.50569 3.877287 0 5.314032-1.43675 1.5073-3.80513 1.5073-5.31243 0z" id="path155" fill="#ffcb05" fill-rule="evenodd"/>
  <path d="M179.67331 29.870186c-2.08296 0-3.73297-1.651615-3.73297-3.734575 0-2.082959 1.65001-3.806733 3.73297-3.806733 2.08135 0 3.80352 1.723774 3.80352 3.806733 0 2.08296-1.72217 3.734575-3.80352 3.734575z" id="path159" fill="#ffcb05" fill-rule="evenodd"/>
  <path d="M98.853191 28.290729c-1.436746 1.436745-3.875684 1.436745-5.312429 0-1.5073-1.5073-1.5073-3.877288 0-5.314033 1.435141-1.507299 3.875683-1.507299 5.312429 0 1.435139 1.436745 1.435139 3.80513 0 5.314033z" id="path163" fill="#ffcb05" fill-rule="evenodd"/>
  <path d="M40.496647 84.368684c0 2.08296-1.722169 3.734575-3.732971 3.734575-2.081356 0-3.80513-1.651615-3.80513-3.734575 0-2.081356 1.723774-3.80513 3.80513-3.80513 2.010802 0 3.732971 1.72217 3.732971 3.80513z" id="path167" fill="#ffcb05" fill-rule="evenodd"/>
  <path d="M38.846636 165.21927c1.507299 1.43514 1.507299 3.87728 0 5.31243-1.436745 1.5089-3.80513 1.5089-5.312429 0-1.435142-1.43515-1.435142-3.87729 0-5.31243 1.507299-1.50891 3.875684-1.50891 5.312429 0z" id="path171" fill="#ffcb05" fill-rule="evenodd"/>
  <path d="M41.21502 244.49039l.072158 6.10456s-7.608656-.07215-7.751368-2.22727c-.216474-2.22728 3.731368-3.66242 7.67921-3.87729z" id="path173" fill="#d2ab67" fill-rule="evenodd"/>
  <path d="M59.230456 278.95624l5.814328 3.23267s-3.22947 6.10136-5.382984 5.38299c-2.081356-.71677-1.794328-4.88269-.431344-8.61566z" id="path175" fill="#d2ab67" fill-rule="evenodd"/>
  <path d="M142.06137 260.64415l-3.87568-4.5219s4.59406-4.09376 6.10136-2.87188c1.57785 1.29243.07215 4.66621-2.22568 7.39378z" id="path177" fill="#d2ab67" fill-rule="evenodd"/>
  <path d="M109.18781 281.11136l5.16812 4.16271s-4.16272 5.45835-6.10136 4.38079c-2.0092-1.0054-1.0054-5.09916.93324-8.5435z" id="path179" fill="#d2ab67" fill-rule="evenodd"/>
  <path d="M197.83306 267.89683s12.48974-1.86649 18.15975-4.66622m-12.70461-1.22187s13.5657-3.58866 20.16895-8.11536" id="path181" fill="none" stroke="#000" stroke-width="2.01600003" stroke-linecap="round" stroke-miterlimit="2.61310005"/>
  <path d="M220.44255 247.1458s9.90649-4.01839 16.50974-8.5435m-5.45514.86109s7.39218-4.02161 13.99704-8.5435m-6.10136 1.21866s7.0346-2.58325 13.20651-8.97324m-7.24947-3.0162c.79053-.64782 2.72757-1.29403 5.74378-5.96025" id="path183" fill="none" stroke="#000" stroke-width="1.80000007" stroke-linecap="round" stroke-miterlimit="2.61310005"/>
  <path d="M234.29688 211.74672c.78893-.64462 2.72757-1.29083 5.74217-5.96025m-4.30703 6.31943c.78893-.64461 2.72597-1.29403 5.74217-5.96025m-4.81053 6.89349c.78893-.64461 2.72757-1.29403 5.74217-5.96024" id="path185" fill="none" stroke="#000" stroke-width="1.00800002" stroke-linecap="round" stroke-miterlimit="2.61310005"/>
  <path d="M223.31444 251.09525s3.5165-1.0054 10.12135-4.95485" id="path187" fill="none" stroke="#000" stroke-width="1.80000007" stroke-linecap="round" stroke-miterlimit="2.61310005"/>
</svg>
