<svg xmlns="http://www.w3.org/2000/svg" xml:space="preserve" shape-rendering="geometricPrecision" text-rendering="geometricPrecision" image-rendering="optimizeQuality" clip-rule="evenodd" viewBox="0 0 14999999 14999999" id="svg2" version="1.1" fill-rule="evenodd">
  <g id="Layer_x0020_1" transform="translate(-250000 -250000)">
    <g id="_150265272">
      <path id="_125490624" d="M7751780 250000c-4145060 0-7501780 3356720-7501780 7498220 0 4145060 3356720 7501780 7501780 7501780 4141500 0 7498220-3356720 7498220-7501780 0-4141500-3356720-7498220-7498220-7498220z" fill="#ce7218" fill-opacity="1" stroke="none"/>
      <path id="_99207464" d="M7751780 442630c-4038050 0-7309150 3271100-7309150 7305590 0 4038050 3271100 7309150 7309150 7309150 4034490 0 7309160-3271100 7309160-7309150 0-4034490-3274670-7305590-7309160-7305590z" fill="#fff500" fill-opacity="1" stroke="none"/>
      <path id="_61539600" d="M7751780 672060c-1040680.2 0-2028911.6 224533.58-2918892.7 627733.1C2379025.8 2411497.4 672080 4881453.4 672080 7748240c0 3910050 3169650 7079700 7079700 7079700 3910060 0 7079710-3169650 7079710-7079700 0-3906530-3169650-7076180-7079710-7076180z" fill="#fff" stroke="none"/>
      <g id="g10" stroke="none">
        <path id="_125609632" d="M7545000 8955560c-116610-45140-210650-116600-304680-206880-60190-56420-327260-150460-41380-820010 447620-1060740 1425610-2685710 2493880-3513250L7545000 8955560z" fill="#fff500"/>
        <path id="_125594880" d="M7545000 8955560c233210 127890 601840 379920 1064500-541650 511570-1030660 1098360-2365990 1072030-3979680L7545000 8955560z" fill="#ef9b11" fill-opacity="1"/>
      </g>
      <g id="g14" stroke="none">
        <path id="_116914736" d="M7706740 8865290c-94030-82760-82750 0-142930-116610-37620-71470-308450-485230 184310-1019370 782390-850100 2407360-2140300 3690040-2561580L7706740 8865290z" fill="#fff500"/>
        <path id="_125479936" d="M7706740 8865290c176790 199360 473950 571750 1388000-274590 846340-782400 1948460-2023690 2328370-3407930L7706740 8865290z" fill="#ef9b11" fill-opacity="1"/>
      </g>
      <g id="g18" stroke="none">
        <path id="_125284296" d="M7902340 9260240c-112840 56430-30090 79000-161740 86520-82760 7520-564230 101560-872670-556700-485240-1045700-1056990-3043060-955430-4389680l1989840 4859860z" fill="#fff500"/>
        <path id="_125284336" d="M7902340 9260240c252020-86510 710930-218160 274590-1387990-398720-1079550-1124690-2572870-2260660-3453060l1986070 4841050z" fill="#ef9b11" fill-opacity="1"/>
      </g>
      <g id="g22" stroke="#000" stroke-opacity="1">
        <path id="_125506744" d="M7868490 1962920s-41380-677070 455140-782390 981750 233210 1135970 496520c0 0-601840-105320-951660-41380-274590 52660-458900 225690-639450 327250z" fill="#ef9b11" stroke-width="35560" stroke-linejoin="round" stroke-miterlimit="4" stroke-dasharray="none"/>
        <path id="_125506768" d="M8125664.5 1799661.9S8312350 1688330 8338680 1586770c26330-105320 11280-131650 78990-184310" fill="none" stroke-width="15240"/>
        <path id="_125383784" d="M8545560 1624390s105320-195600 157980-221930" fill="none" stroke-width="15240"/>
        <path id="_125283072" d="M8820150 1613100s78990-78990 116610-173030" fill="none" stroke-width="15240"/>
      </g>
      <g id="g28" stroke="#000" stroke-opacity="1">
        <path id="_125473280" d="M7774450 3516420c78990-63940 157980-154220 157980-154220l26330 52660c63950-67700 169270-391190 169270-391190l52660 11280c52660-105320 41380-443860 41380-443860l22570 37620c67710-650740-470190-613130-470190-613130v1500840z" fill="#ef9b11" stroke-width="35560" stroke-linejoin="round"/>
        <path id="_125524072" fill="none" stroke-width="15240" d="M7774450 2316500l248260 142940"/>
        <path id="_61991184" fill="none" stroke-width="15240" d="M7766930 2553480l244490 195600"/>
        <path id="_125522736" fill="none" stroke-width="15240" d="M7815830 2876970l142930 146700"/>
        <path id="_125473256" d="M7774450 3531470c-56420-63950-116610-157980-116610-157980l-18800 52660c-48900-63950-127900-391200-127900-391200l-37610 11290c-41380-101560-30090-443860-30090-443860l-18810 41370c-52660-654500 349820-613120 349820-613120v1500840z" fill="#fff500" stroke-width="25400"/>
        <path id="_125469288" fill="none" stroke-width="15240" d="M7774450 2316500l-184310 157990"/>
        <path id="_125622976" fill="none" stroke-width="15240" d="M7766930 2553480l-169270 206880"/>
        <path id="_117896712" fill="none" stroke-width="15240" d="M7774450 2865680l-135410 169270"/>
      </g>
      <g id="g38" stroke="#000" stroke-opacity="1">
        <path id="_125373040" d="M7729310 1951640s127890-534140-379910-714690c-526610-188070-887720 48900-1049460 267070 0 0 556700 0 857620 90270 240740 71470 425050 252030 571750 357350z" fill="#fff500" stroke-width="35560" stroke-miterlimit="4" stroke-dasharray="none"/>
        <path id="_125612280" d="M7488363.3 1775377.1S7323070 1658240 7311780 1564200c-15040-94040-7520-124130-52660-169270" fill="none" stroke-width="15240"/>
        <path id="_125288384" d="M7123710 1579250s-75230-180550-116610-210650" fill="none" stroke-width="15240"/>
        <path id="_125446568" d="M6882970 1541630s-60180-75230-86510-157980" fill="none" stroke-width="15240"/>
      </g>
      <path id="_125524096" d="M7906100 1631910h-180550s-33850-387440 97800-470190c0 0 116610 109080 82750 470190z" fill="#fff500" stroke="#000" stroke-width="25400" stroke-opacity="1"/>
      <path id="_125313944" fill="#fff500" stroke="#000" stroke-width="25400" stroke-opacity="1" d="M7872250 2030630h-146700l15050-86520h120360z"/>
      <path id="_125371720" d="M7860960 1944110h-120360s15040-252020-22570-312200h188070s-33850 142940-45140 312200z" fill="#ef9b11" stroke="#000" stroke-width="35560" stroke-linejoin="round" stroke-opacity="1"/>
      <g id="g47" stroke="none">
        <g id="g49">
          <path id="_125466568" d="M3211740 3565320c-206880 11290-601840 214410-628170 737260 402480 0 835060-458900 902760-759830 0 0-71470 7530-274590 22570z" fill="#fff500"/>
          <path id="_125385024" d="M2583570 4302580c710930-82750 899000-756060 899000-756060s-631930 436330-899000 756060z" fill="#ef9b11"/>
        </g>
        <g id="g53">
          <path id="_125474592" d="M2775410 3821110c-11290-94040-11290-180560-41380-229460 0 0-188070 101570-259540 233220-18810 30090-131660 169270-33860 804960 244500-206880 379920-477710 334780-808720z" fill="#fff500"/>
          <path id="_125474616" d="M2737790 3591650s52660 97800 41380 319730c-11290 267070-18810 308450-124130 477710-90280 146700-195600 229460-195600 229460 169270-361110 90280-507810 112850-665790 26330-165510 135410-289640 135410-289640l30090-71470z" fill="#ef9b11"/>
        </g>
        <g id="g57">
          <path id="_125453200" d="M2192370 5186530c334780-157980 631940-334770 598080-947900 0 0-722210 225690-598080 947900z" fill="#fff500"/>
          <path id="_125358256" d="M2192370 5186530c105330-173030 327250-545420 440100-654500 75230-71470 157980-297160 157980-297160s154230 616890-598080 951660z" fill="#ef9b11"/>
        </g>
        <g id="g61">
          <path id="_125483992" d="M2196140 4595980c-30100-37620-97800-139180-188080-297160 0 0-7520 270830-78990 372390-78990 109080-161750 432570 157980 786150 37620-52660 398720-504040 109090-861380z" fill="#fff500"/>
          <path id="_125297752" d="M2008060 4310100s116610 184320 173030 270830c101560 146700 127890 203120 131650 297160 7530 285870-225690 579270-225690 579270 176790-703400-75230-1135970-75230-1135970l-3760-11290z" fill="#ef9b11"/>
        </g>
        <g id="g65">
          <path id="_125469264" d="M2504580 5291860c33850-154230-3760-252030-18810-353590 0 0 41380-18800-195600 135420-206880 135410-346060 417530-372390 729730 489000-116610 541660-304680 586800-511560z" fill="#fff500"/>
          <path id="_125328656" d="M2489530 4942040s-56420 105320-112840 236970c-75230 161740-112850 252020-263310 379910-218170 188080-184310 233220-184310 233220 447620-94040 500280-274590 564220-425050 48900-112850-7520-413770-7520-413770l3760-11280z" fill="#ef9b11"/>
        </g>
        <g id="g69">
          <path id="_125333984" d="M1944110 5378370c-52660-101560-236970-410000-289630-451380 0 0 56420 199360 18810 357340-33860 142940-139180 688360 199360 966710 221920-334770 285870-455140 71460-872670z" fill="#fff500"/>
          <path id="_125307136" d="M1662000 4945800s78990 33850 233210 338530c86520 173030 120370 206890 173030 417530 63950 252020-203120 534130-203120 534130 0-654500-82750-876430-116600-996800-22570-86510-86520-293390-86520-293390z" fill="#ef9b11"/>
        </g>
        <g id="g73">
          <path id="_151208488" d="M2064480 6179570c30090-94040 82760-274590 131660-349820 0 0-146700 52660-248260 131650-105330 82760-447620 188080-357350 782400 368630-142940 428810-428810 473950-564230z" fill="#fff500"/>
          <path id="_151208512" d="M2192370 5837270s-86510 45140-229450 214410c-146700 169270-127890 221930-263300 413770-37620 52660-109090 278350-109090 278350 413770-180560 458910-534140 500280-650740 41380-124130 94040-263310 94040-263310l7520 7520z" fill="#ef9b11"/>
        </g>
        <g id="g77">
          <path id="_151208536" d="M1537870 6141960c-67710-75230-169270-139180-206880-206890 0 0 26330 248260-7520 413770-22570 131650 82750 590560 308440 804960 391200-357340 41380-857620-94040-1011840z" fill="#fff500"/>
          <path id="_125463936" d="M1330990 5935070s109080 109090 199360 199360c112840 112850 218170 293400 278350 560470 56420 263300-176790 458900-176790 458900 7520-695880-135410-846340-173030-962940-56420-173030-127890-255790-127890-255790z" fill="#ef9b11"/>
        </g>
        <g id="g81">
          <path id="_125367640" d="M2038150 6747560c11290-101560 33860-259550 48900-338540 0 0-240730 195600-349820 323490-86510 101560-349820 530370-267070 733500 515330-146700 545420-473950 567990-718450z" fill="#fff500"/>
          <path id="_125323288" d="M2094570 6409020s-37610 15050-154220 139180c-56420 63940 3760 248260-214400 519090-41380 48900-255790 398720-255790 398720 643220-165510 549180-669550 575520-789920 30090-161740 48890-267070 48890-267070z" fill="#ef9b11"/>
        </g>
        <g id="g85">
          <path id="_125360944" d="M1470160 7093620c-52660-37620-124130-116610-195590-214410 0 0 0 169270 3760 282110 7520 308450 26330 485240 379910 1094600 206880-432570 26330-996800-188080-1162300z" fill="#fff500"/>
          <path id="_61693848" d="M1274570 6879210s82750 105320 195590 214410c112850 112840 173030 180550 244500 451380 105320 413760-56420 710920-56420 710920-94040-752300-195600-831290-236980-981750-18800-75230-82750-142940-105320-218170-37610-124130-41370-176790-41370-176790z" fill="#ef9b11"/>
        </g>
        <g id="g89">
          <path id="_125350160" d="M1451360 8451520c376150-176790 624410-778630 534130-1117170 0 0-744780 357350-534130 1117170z" fill="#fff500"/>
          <path id="_125593592" d="M1451360 8451520c289630-654500 537890-1094600 537890-1094600s105320 680840-537890 1094600z" fill="#ef9b11"/>
        </g>
        <g id="g93">
          <path id="_125344872" d="M1297140 7838400c-90280-71470-135420-135420-173030-188080 0 0 33850 161740 30090 304680-11290 255780-26330 500280 379910 831300 206880-436340-18810-782400-236970-947900z" fill="#fff500"/>
          <path id="_117893384" d="M1120340 7650320s75230 116610 161750 274590c86510 150460 199360 203120 214410 398720 18800 206880 37610 462670 37610 462670 78990-146700 150460-515330-67710-759830-56420-67710-124130-161740-169260-188070-79000-48900-176800-188080-176800-188080z" fill="#ef9b11"/>
        </g>
        <g id="g97">
          <path id="_125473304" d="M1974210 8342440c-18810-101560 7520-225690 18800-308450 0 0-94030 139180-214400 180560-225690 75230-470190 564220-315970 921570 492760-154230 545420-594320 511570-793680z" fill="#fff500"/>
          <path id="_125471960" d="M1985490 8060320s-41380 82760-71470 184320c-45140 157980-78990 334770-255780 567990-188080 252020-195600 323490-195600 323490 489000-199360 485240-466430 504040-567990 15050-71470 3760-297160 3760-289640 0-60180 15050-218170 15050-218170z" fill="#ef9b11"/>
        </g>
        <g id="g101">
          <path id="_125299080" d="M1188050 8857760c-37610-139170-18810-169260-41380-255780 0 0 26340 15050 210650 97800 289640 127890 507800 507800 398720 917810-541660-357350-489000-481470-567990-759830z" fill="#fff500"/>
          <path id="_125299120" d="M1150440 8601980s67700 94040 165500 206880c139180 169270 203120 267070 278350 410010 86520 176790 169270 387430 169270 387430 90280-432570-139170-707160-229450-797440-33850-33850-203120-112840-244500-139170-101560-63950-139170-67710-139170-67710z" fill="#ef9b11"/>
        </g>
        <g id="g105">
          <path id="_140684072" d="M2034390 9260240c11290-221920 7520-379910 37620-488990 0 0-109090 142940-274590 285870-7530 3770-364870 507810 11280 872670 195600-206880 214410-496520 225690-669550z" fill="#fff500"/>
          <path id="_100785152" d="M2072010 8771250s-30100 154220-26330 289640c3760 67700-11290 353580-48900 511560-37620 173030-188080 357340-188080 357340 101560-402480 165510-741010 157980-929090-3760-63940 90280-203120 90280-203120l15050-26330z" fill="#ef9b11"/>
        </g>
        <g id="g109">
          <path id="_100325616" d="M1496500 9553640c-112850-15040-184320 11290-240740-15040 0 0 18810 161740 97800 278350 135410 199360 394960 447620 752300 462660-75230-432570-338540-688350-609360-725970z" fill="#fff500"/>
          <path id="_100206512" d="M1255760 9538600s372390 124130 699640 515320c112840 131660 150460 218170 150460 218170-116610-466430-308440-590560-383670-635690-56430-33860-225690-101570-300930-86520-45130 11290-165500-11280-165500-11280z" fill="#ef9b11"/>
        </g>
        <g id="g113">
          <path id="_101021480" d="M2339070 9858320c7530-165500-22570-285870-37610-372380 0 0-142940 139170-221930 240730-90280 116610-293400 590560 45140 921570 86510-481470 210640-609360 214400-789920z" fill="#fff500"/>
          <path id="_101018584" d="M2301460 9489700s22570 146700 41370 259540c-7520-30090 41380 154220-120360 489000-22570 52660-105330 443850-105330 443850-82750-406240 75230-771100 105330-835050 56420-116610 71460-312210 71460-312210l7530-45130z" fill="#ef9b11"/>
        </g>
        <g id="g117">
          <path id="_97605960" d="M1650720 10132900c-63950-15040-203120-45130-319730-15040 0 0 101560-3760 161740 165500 67710 188080 124130 609370 868910 552950-131650-425050-364860-613130-710920-703410z" fill="#fff500"/>
          <path id="_100207592" d="M1330990 10117900s146700-3760 315970 86510c173020 90280 131650 203120 357340 285880 184310 71470 357340 346060 357340 346060-203120-631940-519090-594320-609360-658270-146700-109080-421290-60180-421290-60180z" fill="#ef9b11"/>
        </g>
        <g id="g121">
          <path id="_101101464" d="M2647520 10512800c-26330-221930-127900-319730-120370-485240 0 0-105320 173030-180550 244500-105330 105320-300920 756060 135410 880190 142940-142930 195600-402480 165510-639450z" fill="#fff500"/>
          <path id="_100907544" d="M2523390 10050200s-71470 146700-41380 240740c-7520-26330 82750 206880-26330 432570-52660 97800 26330 432570 26330 432570 308440-432570 135410-771100 90280-883950-15050-41380-48900-221930-48900-221930z" fill="#ef9b11"/>
        </g>
        <g id="g125">
          <path id="_139938768" d="M2162280 10832600c-109080-18800-259540 33860-436330 52670 0 0-11290-22570 101560 109080 97800 116610 470190 477710 951660 334770-142940-353580-263310-432570-616890-496520z" fill="#fff500"/>
          <path id="_101577808" d="M1725950 10892700s169260-52660 406240-60190c82750-3760 267070 26340 406240 131660 161750 124130 229450 364860 229450 364860-248260-282110-327250-139170-646970-229450-184320-52660-394960-206880-394960-206880z" fill="#ef9b11"/>
        </g>
        <g id="g129">
          <path id="_100782528" d="M2907060 10892700c-41380-206880-71470-244500-169270-402480 0 0 37620 120370-48900 236970-124130 169270-270830 511570 94040 831300 154220-195600 176790-432580 124130-665790z" fill="#fff500"/>
          <path id="_115663872" d="M2741550 10505300s79000 116610 124130 240740c75230 191840 52660 240740 60190 413770 3760 210640-142940 398720-142940 398720-139180-451390-56420-549180-15050-748540 26330-127900-26330-304690-26330-304690z" fill="#ef9b11"/>
        </g>
        <g id="g133">
          <path id="_96640936" d="M2707700 11366700c-218170-124130-368630-30090-613130 7520 0 0 7530 101560 86520 173030 338530 293400 586790 447620 966710 372390 112840-225690-221930-428810-440100-552940z" fill="#fff500"/>
          <path id="_61631784" d="M2094570 11378000s338540-112840 534140-41370c157980 56420 221930 120360 315970 188070 361100 255780 188070 394960 188070 394960-327250-315970-549180-398720-616890-436330-86510-41380-421290-105330-421290-105330z" fill="#ef9b11"/>
        </g>
        <g id="g137">
          <path id="_58840680" d="M3260640 11426900c-90270-221930-210640-300920-285870-391190 0 0-71470 184310-86520 248260-37610 142930-142930 703400 259550 812480 173030-218170 214400-421290 112840-669550z" fill="#fff500"/>
          <path id="_99445728" d="M2974770 11035700s78990 116600 82750 282110c0 71470-45140 334770 30090 556700 33860 105320 60190 221930 60190 221930 331010-383670 63940-793680-30100-910280-11280-15050-142930-150460-142930-150460z" fill="#ef9b11"/>
        </g>
        <g id="g141">
          <path id="_97681232" d="M3016140 11904600c-109080-11280-346050 90280-605600 0 0 0-22570-11280 150460 146700 323490 289640 349820 432580 1023130 278350-139170-368620-206880-402480-567990-425050z" fill="#fff500"/>
          <path id="_61707920" d="M2391730 11889500s304690 180550 496520 195600c146700 11280 86520 3760 376150 67700 188080 45140 304690 180560 304690 180560-71470-560470-684600-421290-759830-410010-289640 52660-417530-33850-417530-33850z" fill="#ef9b11"/>
        </g>
        <g id="g145">
          <path id="_62013144" d="M3591650 11761700c-165500-105330-157980-191840-221920-270830 0 0-26340 33850-71470 191840-203120 718440 545420 876430 451380 842570 90270-300920 48900-631930-157990-763580z" fill="#fff500"/>
          <path id="_150243072" d="M3373490 11494600s60180 82750 90270 165510c30100 67700 285880 101560 323490 485230 11290 109080-37610 379910-37610 379910-86520-421290-240740-680830-327250-835050-41380-75230-48900-195600-48900-195600z" fill="#ef9b11"/>
        </g>
        <g id="g149">
          <path id="_100324752" d="M3452480 12337200c-109090 3760-248260 75230-575510-11290 0 0-41380-37610 139170 109090 334780 270830 575510 500280 1293960 274590-120370-361110-488990-383680-857620-372390z" fill="#fff500"/>
          <path id="_151121496" d="M2858160 12314600s304680 142940 504040 180550c206890 41380 383680 78990 714690 124130 191840 26330 236970 90280 236970 90280-154220-507810-1008080-368630-1087070-349820-112850 26330-368630-45140-368630-45140z" fill="#ef9b11"/>
        </g>
        <g id="g153">
          <path id="_151131640" d="M6567010 13785300s-801200-267070-1414330-511570c-466430-180550-564230-327250-639460-650740-18800-94040-233210-312200-549180-425050 0 0-22570 560470 443860 887720 297160 206880 1011850 481470 2053780 853860 0 0 176790-90280 105330-154220z" fill="#fff500"/>
          <path id="_99948672" d="M4780290 13112000c-372390-135420-816250-910290-816250-910290s537900 146700 594320 575510c0 0 75230 315970 507800 466430l-285870-131650z" fill="#ef9b11"/>
          <path id="_99153576" d="M4155880 12837400s221930 289630 571750 425050c56420 22570 801200 346060 977990 402480 165510 56420 756060 274590 756060 274590l26330-11290s-11280 11290-116600-26330c-101560-37610-771110-278350-887720-319720-116600-41380-218170-86520-244500-97800-26330-15050-127890-60190-165500-71470-41380-15050-161750-67710-221930-94040-67710-26330-188080-86510-233210-105320-52670-22570-109090-63950-161750-97800-56420-37620-120370-82750-165510-120370-37610-37610-97790-120370-135410-157980z" fill="#fff"/>
        </g>
      </g>
      <g id="g158" stroke="none">
        <path id="_129736672" d="M7654080 8895380c-82750 94040-184310 154220-300920 210640-75230 33860-255780 252020-778630-252020-831290-801200-2001120-2290760-2392320-3584710l3471870 3626090z" fill="#fff500"/>
        <path id="_124035040" d="M7654080 8895380c206880-173030 571750-428810-124130-1184880-778630-850100-1816810-1873230-3336450-2426170l3460580 3611050z" fill="#ef9b11" fill-opacity="1"/>
      </g>
      <path id="_100815240" d="M6946920 8289780c-248260-116610-545420-300920-861390-455150-609360-293390-2305800-835050-3558380-906520l4487480 2080110c-86520-304680-56430-598080-67710-718440z" fill="#ef9b11" fill-opacity="1" stroke="none"/>
      <path id="_100817792" d="M7623990 9749240s7520-71470 0-150460c-15050-116610-109080-169270-240740-191840-82750-11280-1090830 33860-1324050 41380-236970 7520-703400-82750-1293960-567990-109080-90270-1677630-974230-2238090-1952220l4487480 2080110c-60190-169260-56430-383670-75230-763580-52670-1147260 131650-3283800 842570-4438580v5946940l-157980-3760z" fill="#fff"/>
      <path id="_24584688" d="M7781970 9753000V3806060c-710920 1154780-895240 3291320-842570 4438580 18800 379910 15040 594320 75230 763580L2527150 6928110c560460 977990 2129010 1861950 2238090 1952220 590560 485240 1056990 575510 1293960 567990 233220-7520 1241300-52660 1324050-41380 131660 22570 225690 75230 240740 191840 7520 78990 0 150460 0 150460l157980 3760z" fill="#fff500" stroke="none"/>
      <path id="_95478192" d="M7928670 9760530s3760-82760 15050-161750c15040-116610 109080-169270 236970-191840 86520-11280 1090840 33860 1327810 41380 233220 7520 699640-82750 1290200-567990 112850-90270 1655060-1079550 2241860-1952220L8549320 9008220c60180-169260 60180-383670 75230-763580 52660-1147260-131650-3283800-842580-4438580v5946940l146700 7530z" fill="#ef9b11" fill-opacity="1" stroke="none"/>
      <path id="_60924736" d="M7928670 9760530s3760-82760 15050-161750c15040-116610 109080-169270 236970-191840 86520-11280 1090840 33860 1327810 41380 233220 7520 699640-82750 1290200-567990 112850-90270 1655060-1079550 2241860-1952220L8549320 9008220c60180-169260 60180-383670 75230-763580 52660-1147260-131650-3283800-842580-4438580v5946940" fill="none" stroke="none"/>
      <path id="_101019448" d="M8620790 8289780c244500-116610 541660-300920 857620-455150 609370-293390 2305810-835050 3562150-906520L8549320 9008220c90280-304680 56420-598080 71470-718440z" fill="#fff500" stroke="none"/>
      <path id="_99392936" d="M2865680 9982450c79000 15050 455150-26330 534140 41380 78990 63950 417520 116610 511560 116610 90280 0 650740-116610 782400-116610 379910 0 756060 105320 1045690 116610 312210 11280 507810-90280 808730-116610s797440 169270 861380 180550c67710 15050 364870 30100 432580 26330 221930-11280 537890-229450 808720-221930 391200 15050 692120 210650 1135980 195600 443850-11280 564220-120370 808720-127890 342300-15040 643220 116610 838820 116610 195590 0 549180-157980 835050-169270 285870-15050 428810 75230 428810 75230l184320-376150s-259550-94040-496520-78990c-233220 11280-823770 105320-940380 116610-116610 15040-549180-90280-703400-90280-342300 0-590560 142940-797440 142940-142940 0-312210-52660-379910-63950-63950-15050-274590-120370-534140-105320-263300 11280-470190 26330-665780 90270-195600 67710-379920 94040-575510 94040-195600 0-327260-26330-443860-52660-116610-26330-236980-120370-432580-105320-195590 11280-312200 63940-376150 63940-67700 0-289630 79000-421280 67710-127900-15040-323490-78990-519090-105320s-458910-131650-707170-116610c-248260 11290-259540 26330-391190 48900-131660 26330-300920 131660-432580 120370-127890-15050-259540-41380-391190-67710-131660-26330-195600-82750-391200-101560-259540-26330-560460 48900-560460 48900l142930 353580z" fill="#fff500" fill-opacity="1" stroke="none"/>
      <path id="_98048536" d="M3335870 10779900c142940 63950 391200 116610 481470 116610 94040 0 549180-154220 680840-154220 379910 0 861380 221930 1147260 233210 315960 15050 564220-116600 865140-142940 300920-26330 639460 79000 703410 90280 67700 15050 364860 18810 432570 26330 402480 41380 797440-150460 1068270-142940 394950 11290 379910 157990 876430 116610 312200-26330 560460-120370 808720-127890 342300-15050 1019370 127890 1214970 127890s221930-105320 511560-116610c285880-11280 169270-11280 169270-11280l233210-394960s-101560-52660-338530-37610c-233210 11280-729730 116600-850100 131650-116610 11280-338540-131650-744780-131650-338540 0-677070 131650-887720 131650-142930 0-274590-15050-338530-26330-63950-15050-274590-120370-534140-105320-263300 11280-470180 26330-665780 90270-195600 67710-210650 105320-406240 105320-195600 0-496520-37610-613130-63940s-236980-120370-432570-105320c-195600 11280-312210 63940-376150 63940-67710 0-447620 78990-575510 67710-131660-15050-289640 0-496520-78990-184320-71470-210650-124130-511570-142940-180550-15050-259540 37620-391200 63950-131650 26330-274590 105320-402480 90270-131650-11280-274590-90270-406240-116600s-274590-18810-470190-37620l248260 481470z" fill="#fff500" stroke="none"/>
      <path id="_100333544" d="M3700740 11212500c131650 11280 432570-67710 560460-94040 131660-26330 210650-78990 394960-63950 297160 22570 323490 75230 507800 142940 210650 78990 364870 67710 496520 78990 131660 11290 391200-90270 455150-90270 67700 0 236970-67710 432570-79000 195600-15040 470190 90280 586790 116610 120370 26330 327250 90280 522850 90280s274590 0 470190-63950c195600-63940 274590-105320 537900-116600 259540-15050 470190 105320 534130 116600 63950 15050 391200 63950 534130 63950 210650 0 665790-169270 1008090-169270 402480 0 522850 120370 639450 105320 116610-11280 300930 52660 455150 90280 0 0-342300 368630-391200 353580-169270-52660-586790-157980-1030650-52660-297160 71470-613130 116610-929090 105320-428820-11280-455150-78990-846340-90280-274590-11280-507810 127900-914050 127900-221930 0-549180-90280-616890-101560-63940-15050-285870-105330-586790-79000s-677070 63950-993040 52660c-285870-11280-613130-105320-940380-94030-105320 7520-522850 26330-560460 26330l-327250-376150z" fill="#fff500" stroke="none"/>
      <path id="_100317688" d="M5412220 12529000c195600-37610 861390-78990 1162310-101560 300920-26330 575510 63950 639460 75230 67700 15050 391190 105330 613120 105330 406240 0 537900-112850 812490-105330 391190 15050 496520 105330 925330 120370 315960 7520 248260 116610 447620 41380 139170-41380 1053220-616890 1053220-616890-116610 11290 157980-26330-248260-26330-338540 0-835060 142940-1041940 142940-142940 0-368630-26330-432570-37620-63950-15040-221930-146700-534140-120370-263300 22570-406240 52670-601840 120370-195600 63950-274590 63950-470190 63950-195590 0-406240-63950-522840-90280-116610-26330-391200-131650-586800-120370-195600 15050-364870 79000-432570 79000-63950 0-323490 105320-455150 94030-131650-15040-184310 26330-391190-52660-188080-71470-157990-45140-458910-67700-184310-11290-206880-11290-338530 15040l861380 481470z" fill="#fff500" stroke="none"/>
      <path id="_99198152" d="M6157000 12845000s300920-221930 481470-184310c184320 37610 823770 169260 1019370 184310 195600 11290 575510-105320 876430-67710 300920 41380 455150 15050 650740 157990 0 0-925330 221930-1369180 184310-443860-41380-1162310-52660-1658830-274590z" fill="#fff500" stroke="none"/>
      <g id="g173" stroke="none">
        <g id="g175">
          <path id="_102513424" d="M12340900 3565320c206880 11290 601840 214410 628170 737260-402480 0-835050-458900-902760-759830 0 0 71470 7530 274590 22570z" fill="#fff500"/>
          <path id="_101277704" d="M12969100 4302580c-710920-82750-899000-756060-899000-756060s631930 436330 899000 756060z" fill="#ef9b11"/>
        </g>
        <g id="g179">
          <path id="_101117760" d="M12777300 3821110c11290-94040 11290-180560 41380-229460 0 0 188080 101570 259540 233220 18810 30090 131660 169270 33860 804960-244500-206880-379910-477710-334780-808720z" fill="#fff500"/>
          <path id="_101026008" d="M12814900 3591650s-52660 97800-41380 319730c11290 267070 18810 308450 124130 477710 90280 146700 195600 229460 195600 229460-169270-361110-90280-507810-112840-665790-26340-165510-135420-289640-135420-289640l-30090-71470z" fill="#ef9b11"/>
        </g>
        <g id="g183">
          <path id="_61882472" d="M13360300 5186530c-334780-157980-631940-334770-598080-947900 0 0 722210 225690 598080 947900z" fill="#fff500"/>
          <path id="_116393592" d="M13360300 5186530c-105320-173030-327250-545420-440100-654500-75230-71470-157980-297160-157980-297160s-154220 616890 598080 951660z" fill="#ef9b11"/>
        </g>
        <g id="g187">
          <path id="_99381232" d="M13356500 4595980c30090-37620 97790-139180 188070-297160 0 0 7520 270830 78990 372390 78990 109080 161750 432570-157980 786150-37620-52660-398720-504040-109080-861380z" fill="#fff500"/>
          <path id="_61906888" d="M13544600 4310100s-116610 184320-173030 270830c-101560 146700-127890 203120-131650 297160-7520 285870 225690 579270 225690 579270-176790-703400 75230-1135970 75230-1135970l3760-11290z" fill="#ef9b11"/>
        </g>
        <g id="g191">
          <path id="_98343096" d="M13048100 5291860c-33850-154230 3760-252030 18810-353590 0 0-41380-18800 195600 135420 206880 135410 346060 417530 372390 729730-489000-116610-541660-304680-586800-511560z" fill="#fff500"/>
          <path id="_100319232" d="M13063100 4942040s56420 105320 112840 236970c75230 161740 112850 252020 263310 379910 218170 188080 184310 233220 184310 233220-447620-94040-500280-274590-564220-425050-48900-112850 7520-413770 7520-413770l-3760-11280z" fill="#ef9b11"/>
        </g>
        <g id="g195">
          <path id="_59502528" d="M13608600 5378370c52660-101560 236970-410000 289630-451380 0 0-56420 199360-18800 357340 33850 142940 139170 688360-199360 966710-221930-334770-285880-455140-71470-872670z" fill="#fff500"/>
          <path id="_142965952" d="M13890700 4945800s-78990 33850-233210 338530c-86520 173030-120370 206890-173030 417530-63950 252020 203120 534130 203120 534130 0-654500 82750-876430 116610-996800 22560-86510 86510-293390 86510-293390z" fill="#ef9b11"/>
        </g>
        <g id="g199">
          <path id="_99872672" d="M13488200 6179570c-30090-94040-82750-274590-131650-349820 0 0 146690 52660 248260 131650 105320 82760 447610 188080 357340 782400-368630-142940-428810-428810-473950-564230z" fill="#fff500"/>
          <path id="_100983576" d="M13360300 5837270s86510 45140 229450 214410c146700 169270 127890 221930 263300 413770 37620 52660 109090 278350 109090 278350-413770-180560-458910-534140-500280-650740-41380-124130-94040-263310-94040-263310l-7520 7520z" fill="#ef9b11"/>
        </g>
        <g id="g203">
          <path id="_59500496" d="M14014800 6141960c67710-75230 169270-139180 206880-206890 0 0-26330 248260 7530 413770 22560 131650-82760 590560-308450 804960-391190-357340-41370-857620 94040-1011840z" fill="#fff500"/>
          <path id="_61670616" d="M14221700 5935070s-109080 109090-199360 199360c-112840 112850-218160 293400-278350 560470-56420 263300 176790 458900 176790 458900-7520-695880 135420-846340 173030-962940 56420-173030 127890-255790 127890-255790z" fill="#ef9b11"/>
        </g>
        <g id="g207">
          <path id="_60003720" d="M13514500 6747560c-11290-101560-33850-259550-48900-338540 0 0 240740 195600 349820 323490 86510 101560 349820 530370 267070 733500-515330-146700-545420-473950-567990-718450z" fill="#fff500"/>
          <path id="_100838056" d="M13458100 6409020s37610 15050 154220 139180c56420 63940-3760 248260 214400 519090 41380 48900 255790 398720 255790 398720-643220-165510-549180-669550-575510-789920-30100-161740-48900-267070-48900-267070z" fill="#ef9b11"/>
        </g>
        <g id="g211">
          <path id="_59502008" d="M14082500 7093620c52660-37620 124130-116610 195590-214410 0 0 0 169270-3760 282110-7520 308450-26330 485240-379910 1094600-206880-432570-26330-996800 188080-1162300z" fill="#fff500"/>
          <path id="_59501272" d="M14278100 6879210s-82750 105320-195590 214410c-112850 112840-173030 180550-244500 451380-105320 413760 56420 710920 56420 710920 94040-752300 195600-831290 236980-981750 18800-75230 82750-142940 105320-218170 37610-124130 41370-176790 41370-176790z" fill="#ef9b11"/>
        </g>
        <g id="g215">
          <path id="_101578032" d="M14101300 8451520c-376150-176790-624410-778630-534130-1117170 0 0 744780 357350 534130 1117170z" fill="#fff500"/>
          <path id="_97524568" d="M14101300 8451520c-289630-654500-537890-1094600-537890-1094600s-105320 680840 537890 1094600z" fill="#ef9b11"/>
        </g>
        <g id="g219">
          <path id="_94916864" d="M14255500 7838400c90270-71470 135410-135420 173030-188080 0 0-33860 161740-30100 304680 11290 255780 26330 500280-379910 831300-206880-436340 18810-782400 236980-947900z" fill="#fff500"/>
          <path id="_126861280" d="M14432300 7650320s-75230 116610-161750 274590c-86510 150460-199360 203120-214400 398720-18810 206880-37620 462670-37620 462670-78990-146700-150460-515330 67710-759830 56420-67710 124130-161740 169270-188070 78990-48900 176790-188080 176790-188080z" fill="#ef9b11"/>
        </g>
        <g id="g223">
          <path id="_101563136" d="M13578500 8342440c18810-101560-7520-225690-18800-308450 0 0 94030 139180 214400 180560 225690 75230 470190 564220 315970 921570-492760-154230-545420-594320-511570-793680z" fill="#fff500"/>
          <path id="_94770376" d="M13567200 8060320s41380 82760 71470 184320c45140 157980 78990 334770 255780 567990 188080 252020 195600 323490 195600 323490-489000-199360-485230-466430-504040-567990-15050-71470-3760-297160-3760-289640 0-60180-15050-218170-15050-218170z" fill="#ef9b11"/>
        </g>
        <g id="g227">
          <path id="_60003824" d="M14364600 8857760c37610-139170 18810-169260 41380-255780 0 0-26330 15050-210650 97800-289630 127890-507800 507800-398720 917810 541660-357350 489000-481470 567990-759830z" fill="#fff500"/>
          <path id="_126861256" d="M14402200 8601980s-67700 94040-165500 206880c-139180 169270-203120 267070-278350 410010-86520 176790-169270 387430-169270 387430-90280-432570 139170-707160 229450-797440 33850-33850 203120-112840 244500-139170 101560-63950 139170-67710 139170-67710z" fill="#ef9b11"/>
        </g>
        <g id="g231">
          <path id="_95175040" d="M13518300 9260240c-11280-221920-7520-379910-37610-488990 0 0 109080 142940 274590 285870 7520 3770 364860 507810-11290 872670-195600-206880-214400-496520-225690-669550z" fill="#fff500"/>
          <path id="_100983600" d="M13480700 8771250s30090 154220 26330 289640c-3770 67700 11280 353580 48900 511560 37610 173030 188070 357340 188070 357340-101560-402480-165510-741010-157980-929090 3760-63940-90280-203120-90280-203120l-15040-26330z" fill="#ef9b11"/>
        </g>
        <g id="g235">
          <path id="_100211392" d="M14056200 9553640c112840-15040 184310 11290 240730-15040 0 0-18810 161740-97800 278350-135410 199360-394950 447620-752300 462660 75230-432570 338540-688350 609370-725970z" fill="#fff500"/>
          <path id="_95024512" d="M14296900 9538600s-372390 124130-699640 515320c-112840 131660-150460 218170-150460 218170 116610-466430 308450-590560 383680-635690 56420-33860 225690-101570 300920-86520 45130 11290 165500-11280 165500-11280z" fill="#ef9b11"/>
        </g>
        <g id="g239">
          <path id="_94999672" d="M13213600 9858320c-7520-165500 22570-285870 37610-372380 0 0 142940 139170 221930 240730 90280 116610 293400 590560-45140 921570-86510-481470-210640-609360-214400-789920z" fill="#fff500"/>
          <path id="_102514192" d="M13251200 9489700s-22570 146700-41370 259540c7520-30090-41380 154220 120370 489000 22560 52660 105320 443850 105320 443850 82750-406240-75230-771100-105320-835050-56430-116610-71470-312210-71470-312210l-7530-45130z" fill="#ef9b11"/>
        </g>
        <g id="g243">
          <path id="_59501584" d="M13901900 10132900c63950-15040 203130-45130 319730-15040 0 0-101560-3760-161740 165500-67710 188080-124130 609370-868910 552950 131650-425050 364870-613130 710920-703410z" fill="#fff500"/>
          <path id="_101566688" d="M14221700 10117900s-146700-3760-315960 86510c-173030 90280-131660 203120-357350 285880-184310 71470-357340 346060-357340 346060 203120-631940 519090-594320 609360-658270 146700-109080 421290-60180 421290-60180z" fill="#ef9b11"/>
        </g>
        <g id="g247">
          <path id="_119625144" d="M12905100 10512800c26340-221930 127900-319730 120370-485240 0 0 105330 173030 180560 244500 105320 105320 300920 756060-135420 880190-142940-142930-195600-402480-165510-639450z" fill="#fff500"/>
          <path id="_60224400" d="M13029300 10050200s71470 146700 41380 240740c7520-26330-82750 206880 26330 432570 52660 97800-26330 432570-26330 432570-308440-432570-135410-771100-90270-883950 15040-41380 48890-221930 48890-221930z" fill="#ef9b11"/>
        </g>
        <g id="g251">
          <path id="_100321000" d="M13390400 10832600c109080-18800 259540 33860 436330 52670 0 0 11290-22570-101560 109080-97800 116610-470180 477710-951660 334770 142940-353580 263310-432570 616890-496520z" fill="#fff500"/>
          <path id="_142466024" d="M13826700 10892700s-169260-52660-406240-60190c-82750-3760-267070 26340-406240 131660-161750 124130-229450 364860-229450 364860 248260-282110 327250-139170 646980-229450 184310-52660 394950-206880 394950-206880z" fill="#ef9b11"/>
        </g>
        <g id="g255">
          <path id="_100783976" d="M12645600 10892700c41380-206880 71470-244500 169270-402480 0 0-37620 120370 48900 236970 124130 169270 270830 511570-94040 831300-154220-195600-176790-432580-124130-665790z" fill="#fff500"/>
          <path id="_153305456" d="M12811100 10505300s-78990 116610-124130 240740c-75230 191840-52660 240740-60190 413770-3760 210640 142940 398720 142940 398720 139180-451390 56420-549180 15050-748540-26330-127900 26330-304690 26330-304690z" fill="#ef9b11"/>
        </g>
        <g id="g259">
          <path id="_101110472" d="M12845000 11366700c218170-124130 368630-30090 613130 7520 0 0-7530 101560-86520 173030-338530 293400-586790 447620-966710 372390-112840-225690 221930-428810 440100-552940z" fill="#fff500"/>
          <path id="_100828944" d="M13458100 11378000s-338540-112840-534140-41370c-157980 56420-221930 120360-315960 188070-361110 255780-188080 394960-188080 394960 327250-315970 549180-398720 616890-436330 86510-41380 421290-105330 421290-105330z" fill="#ef9b11"/>
        </g>
        <g id="g263">
          <path id="_62010192" d="M12292000 11426900c90280-221930 210640-300920 285870-391190 0 0 71470 184310 86520 248260 37610 142930 142940 703400-259550 812480-173020-218170-214400-421290-112840-669550z" fill="#fff500"/>
          <path id="_62306344" d="M12577900 11035700s-78990 116600-82750 282110c0 71470 45140 334770-30090 556700-33850 105320-60190 221930-60190 221930-331010-383670-63940-793680 30100-910280 11280-15050 142930-150460 142930-150460z" fill="#ef9b11"/>
        </g>
        <g id="g267">
          <path id="_98834792" d="M12536500 11904600c109080-11280 346060 90280 605600 0 0 0 22570-11280-150460 146700-323490 289640-349820 432580-1023130 278350 139180-368620 206880-402480 567990-425050z" fill="#fff500"/>
          <path id="_98834816" d="M13160900 11889500s-304680 180550-496520 195600c-146700 11280-86520 3760-376150 67700-188080 45140-304680 180560-304680 180560 71460-560470 684590-421290 759820-410010 289640 52660 417530-33850 417530-33850z" fill="#ef9b11"/>
        </g>
        <g id="g271">
          <path id="_97678184" d="M11961000 11761700c165500-105330 157980-191840 221930-270830 0 0 26330 33850 71460 191840 203130 718440-545410 876430-451380 842570-90270-300920-48900-631930 157990-763580z" fill="#fff500"/>
          <path id="_97679128" d="M12179200 11494600s-60180 82750-90270 165510c-30090 67700-285880 101560-323490 485230-11290 109080 37610 379910 37610 379910 86520-421290 240740-680830 327250-835050 41380-75230 48900-195600 48900-195600z" fill="#ef9b11"/>
        </g>
        <g id="g275">
          <path id="_61757248" d="M12100200 12337200c109090 3760 248260 75230 575510-11290 0 0 41380-37610-139170 109090-334780 270830-575510 500280-1293960 274590 120370-361110 488990-383680 857620-372390z" fill="#fff500"/>
          <path id="_61794272" d="M12694500 12314600s-304680 142940-504040 180550c-206880 41380-383680 78990-714690 124130-191830 26330-236970 90280-236970 90280 154220-507810 1008080-368630 1087070-349820 112850 26330 368630-45140 368630-45140z" fill="#ef9b11"/>
        </g>
        <g id="g279">
          <path id="_61827248" d="M8985650 13785300s801210-267070 1414330-511570c466430-180550 564230-327250 639460-650740 18810-94040 233210-312200 549180-425050 0 0 22570 560470-443860 887720-297160 206880-1011850 481470-2053780 853860 0 0-176790-90280-105330-154220z" fill="#fff500"/>
          <path id="_61830656" d="M10772400 13112000c372390-135420 816250-910290 816250-910290s-537900 146700-594320 575510c0 0-75230 315970-507800 466430l285870-131650z" fill="#ef9b11"/>
          <path id="_61880472" d="M11396800 12837400s-221930 289630-571750 425050c-56420 22570-801200 346060-977990 402480-165510 56420-756060 274590-756060 274590l-26330-11290s11280 11290 116600-26330c101560-37610 771110-278350 887720-319720 116610-41380 218170-86520 244500-97800 26330-15050 127890-60190 165500-71470 41380-15050 161750-67710 221930-94040 67710-26330 188080-86510 233220-105320 52660-22570 109080-63950 161740-97800 56420-37620 120370-82750 165510-120370 37610-37610 97800-120370 135410-157980z" fill="#fff"/>
        </g>
      </g>
      <g id="g284" stroke="none">
        <g id="g286">
          <path id="_125355648" fill="#fff500" d="M4659920 3602940l195600 594320-507800-368630-507810 368630 195600-594320-507800-368630h628170l191840-598080 191830 598080h628180z"/>
          <g id="g289">
            <path id="_125320560" fill="#fff500" d="M3527710 3234310h628170l191840 263310z"/>
            <path id="_59363200" fill="#fff500" d="M4347720 2636230l191830 598080-191830 263310z"/>
            <path id="_125320600" fill="#fff500" d="M5167730 3234310l-507810 368630-312200-105320z"/>
            <path id="_125286984" fill="#fff500" d="M4855520 4197260l-507800-368630v-331010z"/>
            <path id="_59380744" fill="#fff500" d="M3839910 4197260l195600-594320 312210-105320z"/>
            <path id="_125612304" fill="#ef9b11" d="M4347720 2636230l-191840 598080 191840 263310z"/>
            <path id="_125338176" fill="#ef9b11" d="M5167730 3234310h-628180l-191830 263310z"/>
            <path id="_116841552" fill="#ef9b11" d="M4855520 4197260l-195600-594320-312200-105320z"/>
            <path id="_125339464" fill="#ef9b11" d="M3839910 4197260l507810-368630v-331010z"/>
            <path id="_125245864" fill="#ef9b11" d="M3527710 3234310l507800 368630 312210-105320z"/>
          </g>
        </g>
        <g id="g301">
          <path id="_125335392" fill="#fff500" d="M6262630 2740150l-35150 624690-337950-528720-607400 157530 399280-481710-337940-528720 584710 229590 397160-486590-40030 626810 584720 229590z"/>
          <g id="g304">
            <path id="_125312576" fill="#fff500" d="M5343470 1983220l584710 229590 82330 315200z"/>
            <path id="_125300480" fill="#fff500" d="M6325340 1726220l-40030 626810-274800 174980z"/>
            <path id="_125319280" fill="#fff500" d="M6870030 2582620l-607400 157530-252120-212140z"/>
            <path id="_125371760" fill="#fff500" d="M6227480 3364840l-337950-528720 120980-308110z"/>
            <path id="_125344832" fill="#fff500" d="M5282130 2993650l399280-481710 329100 16070z"/>
            <path id="_100204152" fill="#ef9b11" d="M6325340 1726220l-397160 486590 82330 315200z"/>
            <path id="_24955384" fill="#ef9b11" d="M6870030 2582620l-584720-229590-274800 174980z"/>
            <path id="_61700416" fill="#ef9b11" d="M6227480 3364840l35150-624690-252120-212140z"/>
            <path id="_61986808" fill="#ef9b11" d="M5282130 2993650l607400-157530 120980-308110z"/>
            <path id="_95839304" fill="#ef9b11" d="M5343470 1983220l337940 528720 329100 16070z"/>
          </g>
        </g>
      </g>
      <g id="g316" stroke="none">
        <g id="g318">
          <path id="_61988056" fill="#fff500" d="M10970100 3602940l-195600 594320 507800-368630 507800 368630-195600-594320 507800-368630h-628200l-191800-598080-191900 598080h-628100z"/>
          <g id="g321">
            <path id="_62070776" fill="#fff500" d="M12102300 3234310h-628200l-191800 263310z"/>
            <path id="_62000264" fill="#fff500" d="M11282300 2636230l-191900 598080 191900 263310z"/>
            <path id="_94762448" fill="#fff500" d="M10462300 3234310l507800 368630 312200-105320z"/>
            <path id="_151122400" fill="#fff500" d="M10774500 4197260l507800-368630v-331010z"/>
            <path id="_62190096" fill="#fff500" d="M11790100 4197260l-195600-594320-312200-105320z"/>
            <path id="_62138408" fill="#ef9b11" d="M11282300 2636230l191800 598080-191800 263310z"/>
            <path id="_62254984" fill="#ef9b11" d="M10462300 3234310h628100l191900 263310z"/>
            <path id="_117979048" fill="#ef9b11" d="M10774500 4197260l195600-594320 312200-105320z"/>
            <path id="_151133136" fill="#ef9b11" d="M11790100 4197260l-507800-368630v-331010z"/>
            <path id="_119812624" fill="#ef9b11" d="M12102300 3234310l-507800 368630-312200-105320z"/>
          </g>
        </g>
        <g id="g333">
          <path id="_62123688" fill="#fff500" d="M9367370 2740150l35150 624690 337940-528720 607440 157530-399320-481710 337920-528720-584690 229590-397150-486590 40020 626810-584710 229590z"/>
          <g id="g336">
            <path id="_119884176" fill="#fff500" d="M10286500 1983220l-584690 229590-82330 315200z"/>
            <path id="_98053648" fill="#fff500" d="M9304660 1726220l40020 626810 274800 174980z"/>
            <path id="_61972320" fill="#fff500" d="M8759970 2582620l607400 157530 252110-212140z"/>
            <path id="_62273240" fill="#fff500" d="M9402520 3364840l337940-528720-120980-308110z"/>
            <path id="_61551960" fill="#fff500" d="M10347900 2993650l-399320-481710-329100 16070z"/>
            <path id="_62006416" fill="#ef9b11" d="M9304660 1726220l397150 486590-82330 315200z"/>
            <path id="_61693464" fill="#ef9b11" d="M8759970 2582620l584710-229590 274800 174980z"/>
            <path id="_151132840" fill="#ef9b11" d="M9402520 3364840l-35150-624690 252110-212140z"/>
            <path id="_62091712" fill="#ef9b11" d="M10347900 2993650l-607440-157530-120980-308110z"/>
            <path id="_151133432" fill="#ef9b11" d="M10286500 1983220l-337920 528720-329100 16070z"/>
          </g>
        </g>
      </g>
    </g>
  </g>
</svg>
