<svg xmlns="http://www.w3.org/2000/svg" xmlns:xlink="http://www.w3.org/1999/xlink" version="1.0" id="svg2" viewBox="0 0 626.24829 964.04706">
  <defs id="defs6">
    <radialGradient xlink:href="#linearGradient2893" id="radialGradient3163" gradientUnits="userSpaceOnUse" gradientTransform="matrix(1.35322 0 0 1.34893 -77.649096 -85.74693)" cx="221.44487" cy="226.33101" fx="221.44487" fy="226.33101" r="300"/>
    <linearGradient id="linearGradient2893">
      <stop offset="0" id="stop2895" stop-color="white" stop-opacity=".3137255"/>
      <stop id="stop2897" offset=".19" stop-color="white" stop-opacity=".25098041"/>
      <stop offset=".60000002" id="stop2901" stop-color="#6b6b6b" stop-opacity=".1254902"/>
      <stop offset="1" id="stop2899" stop-color="black" stop-opacity=".1254902"/>
    </linearGradient>
  </defs>
  <g id="layer5" transform="translate(-4.6e-7 9.8994685)">
    <g transform="translate(13.1439 284.24782)" id="g3404" display="inline" stroke="#000" stroke-miterlimit="4" stroke-dasharray="none" stroke-opacity="1">
      <path transform="matrix(1.0083 0 0 .99984 -15.154594 -325.3837)" d="M552.9575 298.65961a240.41631 30.405592 0 11-480.832607 0 240.41631 30.405592 0 11480.832607 0z" id="path2631" fill="#e20909" fill-rule="evenodd" stroke-width="2.4000001" stroke-linecap="butt" stroke-linejoin="miter"/>
      <g transform="matrix(2.165 0 0 2.165 602.98019 -471.05)" id="g6832" fill="#fcef3c" stroke-width="1.01616275">
        <path id="path7201" d="M-252.82611 160.7295s78.71703-6.97982 112.87282-6.97982c34.15579 0 113.199431 6.97982 113.199431 6.97982l6.278884-17.89387c-13.01949 16.72928-20.74211 10.05762-29.86958-1.98378-8.42981 11.74423-20.6149 6.74311-29.86958-10.30834-7.71701 16.51295-23.357255 12.98499-29.869575.01622-5.93952 12.66546-19.39928 4.97574-29.52956-11.32841-9.54298 16.30415-23.0955 23.99387-30.20959 11.32841-6.21869 12.38148-18.62885 16.79037-29.86958-.01622-9.54833 15.87687-20.85248 23.22715-29.86958 10.30834-8.83381 12.33505-18.61196 18.41942-29.86958 1.98378l6.60549 17.89387z" fill="#fcef3c" fill-opacity="1" fill-rule="evenodd" stroke-width="1.01616275" stroke-linecap="butt" stroke-linejoin="miter"/>
        <path id="path4344" d="M-140.96496 187.37959c-34.08741-.35157-79.01034 5.50753-109.39794 12.13994l-4.55248-32.3514s79.46179-12.13994 113.95042-12.13994 115.973766 12.13994 115.973766 12.13994l-4.046648 32.3514c-26.809043-6.71001-77.839708-11.78837-111.927118-12.13994z" fill="#fcef3c" fill-opacity="1" fill-rule="evenodd" stroke-width="1.01616275" stroke-linecap="round" stroke-linejoin="round"/>
        <path d="M-139.9533 160.18168c-34.6628-.47677-79.49211 3.68986-114.45225 12-3.49882 0-6.31557-2.59228-6.31557-5.81228 0-3.22003 2.94982-4.90957 6.31557-5.81233 28.45961-7.63339 79.94473-12.46847 114.45225-12 34.50752.46847 87.570181 5.51749 114.452285 12 3.38938.81734 6.31556 2.5923 6.31556 5.81233 0 3.22-2.81675 5.81228-6.31556 5.81228-31.867352-8.09483-79.789485-11.52323-114.452285-12z" id="path6592" fill="#fcef3c" fill-opacity="1" fill-rule="evenodd" stroke-width="1.01616275" stroke-linecap="round" stroke-linejoin="round"/>
        <path id="path4122" d="M-139.19455 195.58984c-34.6628-.47677-74.4338 3.68986-109.39394 12-3.49882 0-6.31557-2.59228-6.31557-5.81228 0-3.22003 2.94982-4.90957 6.31557-5.81233 28.45961-7.63339 74.88642-12.46847 109.39394-12 34.50752.46847 80.994373 5.51749 107.876477 12 3.38938.81734 6.31556 2.5923 6.31556 5.81233 0 3.22-2.81675 5.81228-6.31556 5.81228-31.867351-8.09483-73.213677-11.52323-107.876477-12z" fill="#fcef3c" fill-opacity="1" fill-rule="evenodd" stroke-width="1.01616275" stroke-linecap="round" stroke-linejoin="round"/>
        <g id="g6670" transform="translate(5.5603341)" fill="#fff" stroke-width="1.15269434" fill-opacity="1" fill-rule="evenodd" stroke-linecap="butt" stroke-linejoin="miter">
          <g transform="matrix(.87813 .07758 -.07758 .87813 21.964547 -63.380892)" id="g6650">
            <path id="path6652" d="M-123.31998 274.05616c0 2.06053-1.73463 3.73091-3.87441 3.73091-2.13977 0-3.8744-1.67038-3.8744-3.73091 0-2.06052 1.73463-3.73091 3.8744-3.73091 2.13978 0 3.87441 1.67039 3.87441 3.73091z"/>
            <path id="path6654" d="M-123.31998 287.51801c0 2.06053-1.73463 3.73091-3.87441 3.73091-2.13977 0-3.8744-1.67038-3.8744-3.73091 0-2.06052 1.73463-3.73091 3.8744-3.73091 2.13978 0 3.87441 1.67039 3.87441 3.73091z"/>
          </g>
          <g transform="matrix(-.87813 .07758 .07758 .87813 -312.99179 -63.380892)" id="g6632">
            <path id="path4211" d="M-123.31998 274.05616c0 2.06053-1.73463 3.73091-3.87441 3.73091-2.13977 0-3.8744-1.67038-3.8744-3.73091 0-2.06052 1.73463-3.73091 3.8744-3.73091 2.13978 0 3.87441 1.67039 3.87441 3.73091z"/>
            <path id="path4225" d="M-123.31998 287.51801c0 2.06053-1.73463 3.73091-3.87441 3.73091-2.13977 0-3.8744-1.67038-3.8744-3.73091 0-2.06052 1.73463-3.73091 3.8744-3.73091 2.13978 0 3.87441 1.67039 3.87441 3.73091z"/>
          </g>
        </g>
        <g transform="matrix(.63284 0 0 .55497 -294.59074 58.692009)" id="g501" fill="#fcef3c" fill-rule="nonzero" stroke-width="1.71466589">
          <path id="path503" transform="matrix(.72987 0 0 .83228 25.407548 286.28744)" d="M299.96875-118.5L258.125-97.625l41.84375 20.90625L341.8125-97.625 299.96875-118.5z" fill="#e20909" stroke="#000" stroke-width="2.20000005" stroke-miterlimit="4" stroke-dasharray="none" stroke-opacity="1"/>
        </g>
        <g id="g6798" transform="translate(2.5970326)" fill="#fff" stroke-width="1.01616275" fill-opacity="1" fill-rule="evenodd" stroke-linecap="butt" stroke-linejoin="miter">
          <path id="path12408" d="M-108.99477 127.54953c0 2.06053-1.73463 3.73091-3.87441 3.73091-2.13977 0-3.8744-1.67038-3.8744-3.73091 0-2.06052 1.73463-3.73091 3.8744-3.73091 2.13978 0 3.87441 1.67039 3.87441 3.73091z"/>
          <path id="path12410" d="M-168.35706 127.54953c0 2.06053-1.73463 3.73091-3.87441 3.73091-2.13977 0-3.8744-1.67038-3.8744-3.73091 0-2.06052 1.73463-3.73091 3.8744-3.73091 2.13978 0 3.87441 1.67039 3.87441 3.73091z"/>
        </g>
        <g id="g6794" transform="translate(2.5970276)" fill="#fff" stroke-width="1.01616275" fill-opacity="1" fill-rule="evenodd" stroke-linecap="butt" stroke-linejoin="miter">
          <path id="path12412" d="M-49.0452 137.9221c0 2.06053-1.73463 3.73092-3.87441 3.73092-2.13977 0-3.8744-1.67039-3.8744-3.73092 0-2.06052 1.73463-3.73091 3.8744-3.73091 2.13978 0 3.87441 1.67039 3.87441 3.73091z"/>
          <path id="path12466" d="M-228.30662 137.9221c0 2.06053-1.73463 3.73092-3.87441 3.73092-2.13977 0-3.8744-1.67039-3.8744-3.73092 0-2.06052 1.73463-3.73091 3.8744-3.73091 2.13978 0 3.87441 1.67039 3.87441 3.73091z"/>
        </g>
        <g transform="translate(-270.53004 84.57425)" id="g7563" fill="#fcef3c" stroke-width="1.01616275" fill-opacity="1" fill-rule="evenodd" stroke-linecap="butt" stroke-linejoin="miter">
          <g transform="translate(-1.4425922 -1.9234563)" id="g7543">
            <path id="path9172" d="M188.637 48.347s-10.66126 4.06995-12.42299 3.905119c-1.76172-.164831-1.14823-4.183991-2.60321-6.358402-1.45498-2.17441-5.97174-7.702964-5.81991-8.697643.15183-.994683 7.96714-5.369415 8.27389-7.378995.30675-2.00958-4.10253-5.519562-2.60321-6.358401 5.90986-3.306486 12.87584.949117 16.15534 8.52353" stroke-width="1.01616275"/>
            <path id="path9176" d="M195.87543 49.024246s9.13603 5.922226 10.89776 6.087059c1.76172.164831 2.37523-3.854328 4.44368-5.699077 2.06848-1.844749 8.12208-6.384316 8.27389-7.378995.15184-.994683-6.12666-6.688064-5.81989-8.697643.30674-2.00958 5.6483-4.607251 4.44367-5.699078-4.74821-4.303682-12.79891-1.453072-18.26585 5.303005" stroke-width="1.01616275"/>
            <path d="M199.33352 35.891135c4.94185-5.556445 14.28506-17.267347 7.19458-22.257505-.22829-.160656-.24458-.652835-.61148-.807626-3.29535-1.390319-12.21793-2.44356-16.28775-1.59485-.82932.172931-1.11.630007-1.48385.952748-7.62199 6.580039-2.21368 15.194533 1.49901 22.800663" id="path6992" stroke-width="1.01616275"/>
            <path d="M188.32435 12.249355c3.33031-3.8923607 2.32611 8.210587 8.27193 8.766891 5.72561.535701 8.27048-11.4694691 10.12656-7.078264" id="path6994" stroke-width="1.01616275"/>
            <path d="M173.98006 37.635513c3.73536.638594 7.16454 2.501942 11.28593 1.596419m28.07763 2.086526c-3.7444-.057217-6.54626 1.456451-11.4486-.530675m-5.40146-19.83027c.44964 4.479688-.80081 8.959377-2.05137 13.439065" id="path6986" stroke-width=".55427057"/>
            <path d="M201.48573 40.839582c-.76139 5.005386-4.93726 8.731701-9.3251 8.321164-4.38783-.410535-7.32454-4.802319-6.55793-9.807217.76139-5.005386 4.93726-8.731701 9.32509-8.321166 4.38784.410537 7.32454 4.802321 6.55794 9.807219z" id="path6998" stroke-width="1.01616275" stroke-dashoffset="10.75520682"/>
          </g>
          <g transform="translate(-1.9234563 -1.9234563)" id="g7523">
            <path id="path9159" d="M75.882576 48.347s10.661259 4.06995 12.422984 3.905119c1.761726-.164831 1.148232-4.183991 2.60321-6.358402 1.45498-2.17441 5.971746-7.702964 5.819915-8.697643-.151832-.994683-7.967145-5.369415-8.27389-7.378995-.306748-2.00958 4.102524-5.519562 2.603209-6.358401-5.90986-3.306486-12.875841.949117-16.155339 8.52353" stroke-width="1.01616275"/>
            <path id="path9163" d="M68.64414 49.024246s-9.136027 5.922226-10.897753 6.087059c-1.761726.164831-2.37522-3.854328-4.443694-5.699077-2.068471-1.844749-8.12206-6.384316-8.27389-7.378995-.151831-.994683 6.126661-6.688064 5.819915-8.697643-.306748-2.00958-5.648309-4.607251-4.443693-5.699078 4.748227-4.303682 12.798913-1.453072 18.265854 5.303005" stroke-width="1.01616275"/>
            <path d="M65.18605 35.891135c-4.941851-5.556445-14.285045-17.267347-7.194573-22.257505.228281-.160656.244574-.652835.611475-.807626 3.295348-1.390319 12.217935-2.44356 16.287753-1.59485.829321.172931 1.110001.630007 1.483845.952748 7.621988 6.580039 2.213684 15.194533-1.499011 22.800663" id="path7104" stroke-width="1.01616275"/>
            <path d="M76.195218 12.249355c-3.330309-3.8923607-2.326101 8.210587-8.271924 8.766891-5.725607.535701-8.270478-11.4694691-10.126552-7.078264" id="path7106" stroke-width="1.01616275"/>
            <path d="M90.539516 37.635513c-3.860962.492531-6.948968 2.144496-11.612538 1.433115m-27.751033 2.24983c3.816202-.113671 7.632405.356217 11.448607-.530675m5.401457-19.83027c.402066 5.32486 1.223672 9.391101 2.051371 13.439065" id="path7098" stroke-width=".55427057"/>
            <path d="M63.033841 40.839582c.761389 5.005386 4.937262 8.731701 9.325104 8.321164 4.387824-.410535 7.32453-4.802319 6.557926-9.807217-.76139-5.005386-4.937262-8.731701-9.325086-8.321166-4.387842.410537-7.324549 4.802321-6.557944 9.807219z" id="path7110" stroke-width="1.01616275" stroke-dashoffset="10.75520682"/>
          </g>
        </g>
        <g transform="translate(-271.26224 74.559307)" id="g7503" fill="#fcef3c" stroke-width="1.01616275" fill-opacity="1" fill-rule="evenodd" stroke-linecap="butt" stroke-linejoin="miter">
          <path id="path9167" d="M126.63867 45.541295s-12.77334 5.046019-15.04669 5.046019c-2.27336 0-2.27336-4.059327-4.54671-6.08899-2.27335-2.029664-9.09341-7.114033-9.09341-8.118653 0-1.004623 9.09341-6.08899 9.09341-8.118654 0-2.029663-6.2913-5.114008-4.5467-6.08899 6.87666-3.84311 16.56551-.254495 22.20877 6.982359" stroke-width="1.01616275"/>
          <path id="path9181" d="M135.97923 45.541295s12.77334 5.046019 15.04669 5.046019c2.27336 0 2.27336-4.059327 4.54671-6.08899 2.27335-2.029664 9.09341-7.114033 9.09341-8.118653 0-1.004623-9.09341-6.08899-9.09341-8.118654 0-2.029663 6.2913-5.114008 4.5467-6.08899-6.87666-3.84311-16.56551-.254495-22.20877 6.982359" stroke-width="1.01616275"/>
          <path d="M137.82834 32.141525c5.20818-5.993373 14.82076-18.525245 4.83088-22.8337126-.32163-.1387072-.43794-.6272877-.93479-.7472408-4.46248-1.0774265-16.01871-1.2949252-21.0317-.0706323-1.02151.2494659-1.28984.73076-1.70278 1.0869659-8.41919 7.2623378.1344 15.3365418 6.33495 22.5646198" id="path6887" stroke-width="1.01616275"/>
          <path d="M119.23081 9.6253735c3.48107-4.1861805 4.55385 7.9591625 12.22641 7.9591625 7.3884 0 8.29471-12.1915179 11.50885-7.9917994" id="path6907" stroke-width="1.01616275"/>
          <path d="M105.91132 36.240628c5.62624-.80293 10.34384-.394352 14.66847.538196m36.12679-.538196c-4.8447.000221-9.43375-1.02212-14.66847.538196m-10.72297-19.243203c-.483 4.524458-.38565 9.048915 0 13.573373" id="path6491" stroke-width=".55427057"/>
          <path d="M141.52744 36.868529c.00337 5.055162-4.58571 9.154778-10.24784 9.154778-5.6621 0-10.25118-4.099616-10.24782-9.154778-.00336-5.055163 4.58572-9.154779 10.24782-9.154779 5.66213 0 10.25121 4.099616 10.24784 9.154779z" id="path6461" stroke-width="1.01616275" stroke-dashoffset="10.75520682"/>
        </g>
        <g id="g6822" fill="#fcef3c" stroke-width="1.01616275" fill-opacity="1" fill-rule="evenodd" stroke-linecap="butt" stroke-linejoin="miter">
          <g transform="translate(-267.5445 93.035299)" id="g7614">
            <path d="M245.18893 50.486419s-4.82251 1.435195-6.63094 2.511587c-1.80846 1.076391-3.41597 4.305565-4.21971 4.305565-.80374 0-5.22439-5.561359-5.22439-8.431729 0-2.87039 3.21502-8.431749 3.21502-10.763933 0-2.332165 5.22437-12.019703 6.43-12.019703 1.20562 0 4.01876 7.534756 5.22439 7.534756 1.20563 0 2.41125-4.126184 1.80845-4.843778-.60282-.717595-2.00939-1.435189-2.00939-3.946769 0-2.511581 5.02345-10.22572 10.0469-10.22572s17.88346 5.561357 17.88346 9.149328c0 3.587972-3.81782 4.305566-6.22907.896994-2.41126-3.408574-3.41594 3.229174-5.42531 5.202559-2.00938 1.973384-2.6122 8.611136-2.6122 11.481507 0 2.87039-.6028 4.664369-2.6122 5.920162-2.00937 1.255793-4.21968 1.435195-6.22907 1.973381-2.00938.538206-3.215 1.255793-3.41594 1.255793z" id="path6797" stroke-width="1.01616275"/>
            <path id="path9196" d="M245.11997 50.63767s-4.8225 1.435195-6.63093 2.511586c-1.80846 1.076392-3.41597 4.305566-4.21971 4.305566-.80374 0-5.22439-5.561359-5.22439-8.431729 0-2.870391 3.21502-8.431749 3.21502-10.763934 0-2.332164 5.22437-12.019694 6.43-12.019694 1.20562 0 4.01876 7.534747 5.22439 7.534747 1.20562 0 2.41125-4.126175 1.80845-4.843769-.60283-.717596-2.00939-1.435189-2.00939-3.94677 0-2.51158 5.02622-10.405327 10.0469-10.572138 1.85308-.061569 4.13815.391699 7.69393 2.12693 3.01881.846102 9.98859 4.392306 9.98859 6.651223 0 6.278951-3.61688 5.023159-6.02813 1.614587-2.41126-3.408573-3.41594 3.229174-5.42531 5.202559-2.00938 1.973385-2.6122 8.611129-2.6122 11.481499 0 2.870391-.6028 4.664369-2.6122 5.920163-2.00937 1.255793-4.21968 1.435195-6.22908 1.97338-2.00937.538206-3.21499 1.255794-3.41594 1.255794z" stroke-width="1.01616275"/>
            <path id="path9194" d="M232.25996 38.797365c0 2.152783 1.80843 4.664369 5.22437 4.664369 5.37711-1.073919 5.26899 1.419427 8.44951 4.069881" stroke-width=".55427057"/>
            <path id="path6793" d="M244.90119 33.116363c-.71042 1.268539 1.33598 3.66126 1.33598 3.66126" stroke-width="1.01616275"/>
            <path d="M246.60154 49.622853c-1.53351-2.738265-1.03319-6.035522 1.2611-8.310803 2.29427-2.275281 5.91474-3.064694 9.12546-1.989732" id="path6823" stroke-width="1.01616275" stroke-dashoffset="10.75520682"/>
          </g>
          <g transform="translate(-277.55154 93.035299)" id="g7603">
            <path d="M20.000545 50.486419s4.822509 1.435195 6.630938 2.511587c1.808452 1.076391 3.415963 4.305565 4.219707 4.305565.803744 0 5.224392-5.561359 5.224392-8.431729 0-2.87039-3.215021-8.431749-3.215021-10.763933 0-2.332165-5.22437-12.019703-6.429997-12.019703-1.205627 0-4.018765 7.534756-5.224392 7.534756-1.205627 0-2.411255-4.126184-1.808452-4.843778.602825-.717595 2.009394-1.435189 2.009394-3.946769 0-2.511581-5.023451-10.22572-10.046902-10.22572-5.0234504 0-17.8834667 5.561357-17.8834667 9.149328 0 3.587972 3.8178234 4.305566 6.22907784.896994 2.41125446-3.408574 3.41594006 3.229174 5.42531126 5.202559 2.0093711 1.973384 2.6121961 8.611136 2.6121961 11.481507 0 2.87039.6028023 4.664369 2.6121965 5.920162 2.009371 1.255793 4.219684 1.435195 6.229078 1.973381 2.009371.538206 3.214998 1.255793 3.41594 1.255793z" id="path6847" stroke-width="1.01616275"/>
            <path id="path9190" d="M20.069495 50.63767s4.822509 1.435195 6.630939 2.511586c1.808452 1.076392 3.415963 4.305566 4.219707 4.305566.803744 0 5.224392-5.561359 5.224392-8.431729 0-2.870391-3.215021-8.431749-3.215021-10.763934 0-2.332164-5.22437-12.019694-6.429997-12.019694-1.205627 0-4.018765 7.534747-5.224392 7.534747-1.205628 0-2.411255-4.126175-1.808453-4.843769.602825-.717596 2.009394-1.435189 2.009394-3.94677 0-2.51158-5.038957-10.035436-10.046901-10.429848-1.8607848-.146551-4.646117.662944-7.6939355 1.841148-3.34541513.691006-9.9885898 4.535798-9.9885898 6.794715 0 6.278951 3.6168818 5.023159 6.02813624 1.614587C2.1860284 21.395702 3.190714 28.033449 5.2000852 30.006834c2.0093711 1.973385 2.6121961 8.611129 2.6121961 11.481499 0 2.870391.6028023 4.664369 2.6121957 5.920163 2.009372 1.255793 4.219684 1.435195 6.229078 1.97338 2.009372.538206 3.214999 1.255794 3.41594 1.255794z" stroke-width="1.01616275"/>
            <path id="path9188" d="M32.929512 38.797365c0 2.152783-1.80843 4.664369-5.22437 4.664369-5.377116-1.073919-5.268995 1.419427-8.449507 4.069881" stroke-width=".55427057"/>
            <path id="path6849" d="M20.124967 32.626453c.710423 1.268539-1.172665 4.15117-1.172665 4.15117" stroke-width="1.01616275"/>
            <path d="M18.587927 49.622853c1.533513-2.738265 1.033193-6.035522-1.261097-8.310803-2.294268-2.275281-5.914742-3.064694-9.1254662-1.989732" id="path6853" stroke-width="1.01616275" stroke-dashoffset="10.75520682"/>
          </g>
        </g>
        <g id="g6690" transform="translate(1.8191861)" fill="#fcef3c" stroke-width="1.87959445" fill-rule="nonzero">
          <g id="g6217" transform="matrix(-.52853 -.0738 -.07574 .54243 20.027913 77.636024)">
            <path id="path6219" d="M93.292 205.044L62.75 222.428l-3.701-17.384 3.701-17.386 30.542 17.386h0z" fill="#fcef3c"/>
            <path id="path6221" d="M59.049 205.044h34.243L62.75 222.428l-3.701-17.384h0z" fill="#fcef3c"/>
            <path id="path6223" d="M93.292 205.044L62.75 222.428l-3.701-17.384 3.701-17.386 30.542 17.386h0z" fill="#e20909"/>
          </g>
          <g transform="matrix(.52853 -.0738 .07574 .54243 -303.57286 77.636024)" id="g6596">
            <path d="M93.292 205.044L62.75 222.428l-3.701-17.384 3.701-17.386 30.542 17.386h0z" id="path6598" fill="#fcef3c"/>
            <path d="M59.049 205.044h34.243L62.75 222.428l-3.701-17.384h0z" id="path6600" fill="#fcef3c"/>
            <path d="M93.292 205.044L62.75 222.428l-3.701-17.384 3.701-17.386 30.542 17.386h0z" id="path6602" fill="#e20909"/>
          </g>
        </g>
        <g id="g6686" transform="translate(6.0597578)" fill="#2b5df2" stroke-width="1.01616275" fill-opacity="1" fill-rule="evenodd" stroke-linecap="butt" stroke-linejoin="miter">
          <path id="path4269" d="M-75.61185 176.55533c-.257256 3.62898-5.122577 6.24073-10.866996 5.83351-5.744424-.40722-10.192651-3.6792-9.935395-7.30817.257256-3.62898 5.122577-6.24073 10.867001-5.83351 5.744419.40722 10.192646 3.6792 9.93539 7.30817z"/>
          <path d="M-216.41424 176.55533c.25725 3.62898 5.12258 6.24073 10.86699 5.83351 5.74443-.40722 10.19266-3.6792 9.9354-7.30817-.25726-3.62898-5.12258-6.24073-10.867-5.83351-5.74442.40722-10.19265 3.6792-9.93539 7.30817z" id="path6604"/>
        </g>
        <g id="g6678" transform="translate(5.5655342)" fill="#fff" stroke-width="1.15269446" fill-opacity="1" fill-rule="evenodd" stroke-linecap="butt" stroke-linejoin="miter">
          <g id="g6640" transform="matrix(.86989 .14295 -.14295 .86989 92.265667 -47.630565)">
            <path d="M-123.31998 274.05616c0 2.06053-1.73463 3.73091-3.87441 3.73091-2.13977 0-3.8744-1.67038-3.8744-3.73091 0-2.06052 1.73463-3.73091 3.8744-3.73091 2.13978 0 3.87441 1.67039 3.87441 3.73091z" id="path6642"/>
            <path d="M-123.31998 287.51801c0 2.06053-1.73463 3.73091-3.87441 3.73091-2.13977 0-3.8744-1.67038-3.8744-3.73091 0-2.06052 1.73463-3.73091 3.8744-3.73091 2.13978 0 3.87441 1.67039 3.87441 3.73091z" id="path6644"/>
          </g>
          <g transform="matrix(-.86989 .14295 .14295 .86989 -383.30331 -47.630565)" id="g6660">
            <path id="path6662" d="M-123.31998 274.05616c0 2.06053-1.73463 3.73091-3.87441 3.73091-2.13977 0-3.8744-1.67038-3.8744-3.73091 0-2.06052 1.73463-3.73091 3.8744-3.73091 2.13978 0 3.87441 1.67039 3.87441 3.73091z"/>
            <path id="path6664" d="M-123.31998 287.51801c0 2.06053-1.73463 3.73091-3.87441 3.73091-2.13977 0-3.8744-1.67038-3.8744-3.73091 0-2.06052 1.73463-3.73091 3.8744-3.73091 2.13978 0 3.87441 1.67039 3.87441 3.73091z"/>
          </g>
        </g>
      </g>
    </g>
  </g>
  <g id="layer3" transform="translate(13.1439 304.04676)" display="inline" stroke-opacity="1">
    <path id="path2855" d="M299.98032 658.5s298.50001-112.32031 298.50001-397.77183V2.1764765H1.4801892V260.72817C1.4801892 546.17969 299.98032 658.5 299.98032 658.5z" fill="#2b5df2" fill-opacity="1" fill-rule="evenodd" stroke="none" stroke-width="1" stroke-linecap="butt" stroke-linejoin="miter"/>
    <g id="g4253" transform="matrix(1.03202 0 0 1.03202 62.066999 627.75522)" fill="#fcef3c" stroke="#000" stroke-width="2.51933885" stroke-miterlimit="4" stroke-dasharray="none">
      <path d="M333.66152-578.42241c-7.66822-3.23018-16.50056.38133-19.73074 8.04958-2.41092 5.72335-1.01314 12.10176 3.03789 16.31241l-10.80901 25.65983c-4.72258-.3835-8.79266 1.25303-10.18732 4.56384-.55624 1.32049-.60625 2.77899-.26459 4.23181l-30.62425 72.69985 4.65566 1.96116c-4.08086-.3903-7.34832.62711-8.32468 2.94493-1.04311 2.47627.80066 5.78443 4.36996 8.54545l-4.4654 10.60057c-4.56689-.2745-8.46827 1.38383-9.8273 4.61009-1.35895 3.22604.18252 7.17107 3.56667 10.25219l-1.30492 3.0978-5.21076-2.19498-17.82392 42.31274-17.31732-42.52575-5.24256 2.13486-1.26433-3.10481c3.41137-3.03872 4.99024-6.98026 3.67175-10.21804-.0592-.14541-.10685-.29344-.17618-.43264-1.4754-2.96248-5.21286-4.49707-9.57892-4.28805l-4.33474-10.68116c3.59527-2.7175 5.4852-5.98339 4.47355-8.46768-.94922-2.33101-4.22397-3.38178-8.31334-3.03809l4.70811-1.91724-29.75346-73.06491c.35904-1.44862.31017-2.88127-.23024-4.20831-1.35724-3.33299-5.4005-5.04772-10.13776-4.71321l-10.4878-25.75469c4.11465-4.16149 5.58668-10.54285 3.24106-16.30292-3.13817-7.70634-11.93693-11.41274-19.64328-8.27458-7.70631 3.13817-11.41276 11.93694-8.27458 19.64329 2.34226 5.75177 7.84837 9.28045 13.69024 9.39332l10.49818 25.78013c-3.61052 3.06819-5.32645 7.10184-3.97151 10.42911.54042 1.32704 1.52418 2.39381 2.79307 3.17952l29.75346 73.06491 4.68267-1.90688c-3.16158 2.60962-4.74908 5.64175-3.80052 7.97109 1.01343 2.48858 4.65052 3.5306 9.12673 2.95905l4.34984 10.64534c-3.42336 3.03518-5.01 6.96821-3.68967 10.2105 1.32026 3.24209 5.20137 4.94251 9.77301 4.72824l1.26434 3.10481-5.24255 2.13487 17.29942 42.51822-42.29485-17.81638-2.19499 5.21075-3.0978-1.30492c.2635-4.56091-1.39587-8.45224-4.61764-9.80939-.14467-.06097-.28231-.13163-.42974-.18103-3.13807-1.05152-6.87543.49472-9.81491 3.72979l-10.61847-4.47295c.62068-4.46381-.3531-8.11839-2.8251-9.15971-2.31947-.97707-5.37272.59167-8.02132 3.72631l1.96871-4.67356-72.69985-30.62425c-.77046-1.27823-1.83269-2.26896-3.15316-2.8252-3.31649-1.39706-7.3822.25746-10.49541 3.84373l-25.62402-10.79392c-.03312-5.85212-3.50085-11.40516-9.2324198-13.81954-7.66823-3.23019-16.5184602.37381-19.7486602 8.04203-3.23016 7.6682.38135 16.50056 8.0495802 19.73074 5.72336001 2.4109 12.10178 1.01314 16.3124198-3.03789l25.65983 10.809c-.38349 4.72257 1.25302 8.79267 4.56385 10.18733 1.32048.55622 2.77898.60625 4.2318.26458l72.69985 30.62426 1.96116-4.65566c-.3903 4.08085.62711 7.34832 2.94492 8.32468 2.47629 1.04309 5.78443-.80066 8.54545-4.36996l10.60058 4.4654c-.27449 4.56688 1.38382 8.46827 4.61009 9.8273 3.22606 1.35893 7.17107-.18252 10.25219-3.56667l3.0978 1.30492-2.19498 5.21076 42.31274 17.82392-42.52576 17.31732 2.13487 5.24256-3.10481 1.26433c-3.03517-3.42338-6.96821-5.01-10.21051-3.68966-3.24226 1.3203-4.94804 5.20316-4.72823 9.773l-10.6557 4.32439c-2.72339-3.59995-6.03-5.46624-8.51858-4.45283-2.33691.95163-3.37187 4.2169-3.02019 8.32089l-1.91723-4.70812-73.06491 29.75346c-1.44864-.35902-2.89164-.33561-4.21869.20478-3.32802 1.35523-5.04117 5.40955-4.7132 10.13777L9.0100602-249.77631c-4.16188-4.10068-10.50805-5.58603-16.25957-3.24389-7.7063402 3.13815-11.4127502 11.93695-8.2745802 19.64328 3.13817 7.70633 11.9369502 11.41276 19.6432902 8.27459 5.75982-2.34553 9.2719298-7.84679 9.3754098-13.69779l25.78013-10.49818c3.06987 3.62184 7.12221 5.31814 10.45456 3.96114 1.32703-.54038 2.36836-1.5138 3.15407-2.7827l73.0649-29.75346-1.92759-4.73357c2.61672 3.18697 5.64558 4.8217 7.98427 3.86932 2.4843-1.01166 3.52095-4.65366 2.95905-9.12673l10.6887-4.35264c3.03296 3.41088 6.9381 4.99257 10.17468 3.67457.14542-.0592.29345-.10685.43264-.17618 2.96249-1.47544 4.52252-5.22322 4.3135-9.58928l3.10482-1.26434 2.13487 5.24255 42.52575-17.31732-17.82392 42.31275 5.21076 2.19498-1.30493 3.09781c-4.56688-.27451-8.46826 1.38383-9.82729 4.61009-1.35903 3.22625.17988 7.17626 3.56667 10.2522l-4.46541 10.60056c-4.47126-.61981-8.1317.38463-9.1748 2.86091-.97954 2.32535.59359 5.37558 3.74422 8.02885l-4.69147-1.97624-30.62425 72.69986c-1.27821.77046-2.27932 1.80723-2.83556 3.12771-1.39498 3.31158.26847 7.38395 3.84373 10.49541l-10.80901 25.65982c-5.84251.04326-11.37576 3.48109-13.78655 9.20416-3.23018 7.66823.35591 16.510922 8.02413 19.741102 7.66822 3.230193 16.51847-.373807 19.74865-8.042026 2.41428-5.731336 1.00832-12.109506-3.0558-16.319956l10.80146-25.64193c4.73176.39032 8.79808-1.26588 10.19487-4.58175.55625-1.32048.61661-2.75352.27495-4.20635l30.62425-72.69986-4.70938-1.98378c4.10384.40323 7.39812-.59518 8.3784-2.9223 1.04132-2.47202-.8097-5.77984-4.36996-8.54545l4.48049-10.63639c4.5565.26723 8.4452-1.37915 9.80185-4.59972.06096-.1447.13162-.28231.18103-.42975 1.05151-3.13809-.49472-6.87543-3.7298-9.81491l1.30493-3.09779 5.21075 2.19498 17.81638-42.29484 17.32487 42.50785 5.24255-2.13487 1.26434 3.10482c-3.42336 3.03517-5.00999 6.96821-3.68966 10.2105 1.32033 3.24226 5.20316 4.94804 9.77301 4.72823l4.32438 10.65571c-3.59993 2.7234-5.46624 6.03-4.45283 8.51858.95165 2.3369 4.2169 3.37187 8.32089 3.02018l-4.70812 1.91724 29.75346 73.06491c-.35898 1.44862-.33561 2.89163.20479 4.21868 1.35526 3.32802 5.40953 5.04117 10.13776 4.71321l10.49817 25.78013c-4.10066 4.16188-5.58603 10.50805-3.24389 16.259566 3.13818 7.706317 11.93695 11.412752 19.64328 8.274581 7.70635-3.138196 11.41276-11.936951 8.27458-19.643287-2.3455-5.75982-7.84678-9.27193-13.69778-9.37541l-10.49818-25.78013c3.62186-3.06988 5.31814-7.12221 3.96115-10.45456-.54036-1.32705-1.51381-2.36836-2.78271-3.15407l-29.75346-73.06491-4.73357 1.9276c3.187-2.61674 4.82169-5.64558 3.86933-7.98427-1.01164-2.48431-4.65367-3.52095-9.12674-2.95905l-4.35265-10.6887c3.41091-3.03296 4.99258-6.93811 3.67458-10.17469-.05917-.14542-.10685-.29344-.17617-.43263-1.47543-2.96251-5.22323-4.52253-9.5893-4.31351l-1.26433-3.10481 5.24255-2.13487-17.31732-42.52576 42.31274 17.82392 2.195-5.21075 3.0978 1.30492c-.27449 4.56688 1.38383 8.46826 4.61009 9.8273 3.22626 1.35901 7.17626-.17988 10.25219-3.56667l10.60057 4.4654c-.6198 4.47126.38463 8.1317 2.86091 9.1748 2.32537.97952 5.37558-.59358 8.02886-3.74422l-1.97625 4.69147 72.69985 30.62426c.77049 1.27818 1.80725 2.27932 3.12772 2.83555 3.3116 1.39497 7.38395-.26846 10.4954-3.84372l25.65983 10.809c.04327 5.8425 3.48109 11.37576 9.20416 13.78655 7.66824 3.23017 16.51093-.3559 19.74111-8.02413 3.23018-7.66823-.37381-16.51847-8.04204-19.74865-5.73132-2.41427-12.10951-1.00831-16.31996 3.0558l-25.64191-10.80146c.39033-4.73177-1.26589-8.79808-4.58176-10.19486-1.32046-.55626-2.75352-.61661-4.20636-.27495l-72.69984-30.62425-1.98379 4.70937c.40325-4.10385-.59518-7.39811-2.9223-8.37839-2.47201-1.04133-5.77985.80969-8.54545 4.36996l-10.63638-4.48049c.26724-4.55651-1.37916-8.44521-4.59973-9.80185-.14468-.06097-.28231-.13162-.42975-.18103-3.13807-1.05152-6.87543.49472-9.81491 3.72979l-3.09779-1.30492 2.19498-5.21075-42.29484-17.81638 42.50785-17.32487-2.13486-5.24255 3.10481-1.26434c3.03873 3.41135 6.98026 4.99025 10.21804 3.67176.14544-.05921.29344-.10686.43264-.17618 2.96249-1.47543 4.49707-5.21287 4.28805-9.57893l10.68116-4.33473c2.7175 3.59525 5.98339 5.48519 8.46768 4.47354 2.33101-.94924 3.38178-4.22397 3.03809-8.31334l1.91723 4.70811 73.06491-29.75345c1.44863.35902 2.88128.31016 4.20832-.23024 3.333-1.35725 5.04771-5.40051 4.71321-10.13777l25.75469-10.4878c4.16148 4.11463 10.54284 5.58668 16.30291 3.24107 7.70634-3.13818 11.41275-11.93694 8.27459-19.64329-3.13819-7.70633-11.93694-11.41276-19.64329-8.27457-5.75181 2.34222-9.28045 7.84836-9.39332 13.69024l-25.78013 10.49817c-3.06819-3.61054-7.10184-5.32644-10.42911-3.9715-1.32707.54039-2.39381 1.52418-3.17952 2.79307l-73.06491 29.75346 1.90688 4.68267c-2.6096-3.1616-5.64175-4.74909-7.97109-3.80053-2.48859 1.0134-3.5306 4.65053-2.95905 9.12674l-10.64534 4.34983c-3.03518-3.42338-6.96821-5.01-10.2105-3.68967-3.2421 1.32024-4.94251 5.20137-4.72824 9.77301l-3.10482 1.26434-2.13486-5.24255-42.51822 17.29942 17.81638-42.29484-5.21075-2.195 1.30492-3.0978c4.5609.26348 8.45224-1.39586 9.80939-4.61763.06095-.1447.13162-.28231.18103-.42975 1.0515-3.13809-.49473-6.87543-3.7298-9.8149l4.47295-10.61848c4.4638.62066 8.1184-.35309 9.15972-2.8251.97707-2.31948-.59167-5.37272-3.72631-8.02131l4.67356 1.96871 30.62425-72.69986c1.27821-.77047 2.26896-1.83269 2.8252-3.15317 1.39704-3.31649-.25746-7.38218-3.84373-10.4954l10.79392-25.62401c5.8521-.03314 11.40516-3.50086 13.81954-9.23243 3.23019-7.66823-.37381-16.51846-8.04203-19.74865z" id="path4245" stroke-width="2.51933885"/>
      <path d="M230.53235-520.90272c-103.40135 0-187.32681 83.92545-187.3268 187.3268 0 103.40135 83.92545 187.32681 187.3268 187.32681 103.40134 0 187.32682-83.92548 187.3268-187.32681 0-103.40134-83.92546-187.3268-187.3268-187.3268zm0 34.10005c84.57745-.00001 153.22676 68.6493 153.22676 153.22675-.00001 84.57746-68.64931 153.22676-153.22676 153.22676-84.57746-.00001-153.22676-68.6493-153.22676-153.22676-.00001-84.57745 68.6493-153.22675 153.22676-153.22675z" id="path4247" stroke-width="2.51933885"/>
      <path id="path4249" d="M265.1736545-333.57595196a34.6413181 34.6413181 0 11-69.28263619 0 34.6413181 34.6413181 0 1169.28263619 0z" stroke-width="2.5193501054903003"/>
      <path d="M245.60205933-333.57590154a15.06969587 15.06969587 0 11-30.13939175 0 15.06969587 15.06969587 0 1130.13939175 0z" id="path4251" stroke-width="2.5193229814368"/>
    </g>
  </g>
  <g id="layer4" transform="translate(13.1439 304.04676)">
    <g id="g4285" transform="matrix(1.08143 0 0 1.08143 -24.448326 -14.748009)" stroke-miterlimit="4" stroke-dasharray="none" stroke-opacity="1">
      <path id="path2491" d="M300.00001 455.29068s136.33746-51.30139 136.33746-181.67907v-118.0914H163.66254v118.0914c0 130.37768 136.33747 181.67907 136.33747 181.67907z" fill="#fff" fill-opacity="1" fill-rule="evenodd" stroke="#000" stroke-width="3" stroke-linecap="butt" stroke-linejoin="miter" display="inline"/>
      <g transform="translate(-1.25124 -3.1746032)" id="g4281">
        <path id="path3263" d="M374.79035355 341.21105552l-48.82668324.34397452-24.4529588 42.26365295-24.7112307-42.11315762-48.8278786-.04505672 24.11544651-42.45713794-24.37491498-42.30871195 48.82668325-.34397451 24.45295856-42.26365447 24.71123093 42.11315914 48.8278786.04505672-24.11544651 42.45713794 24.37491498 42.30871194z" fill="#e20909" stroke="#000" stroke-width="1.5303" display="inline"/>
        <path d="M301.26318 168.89432l-4.10738 24.02337c-55.39772 1.90204-100.01007 46.56087-101.77701 101.99195l-24.28606 4.15514 24.3577 4.15514c2.50357 54.6561 46.66175 98.51838 101.44269 100.53525l4.37006 25.45618 4.34618-25.50395c54.34516-2.4284 98.04604-46.0334 100.60689-100.34421l25.19351-4.29841-25.14575-4.29843c-1.83025-55.07677-45.94332-99.49427-100.89345-101.82477l-4.10738-24.04726zm-.42983 42.22002c48.14964.00001 87.23402 39.06051 87.23402 87.21015s-39.08438 87.23403-87.23402 87.23403c-48.14965.00001-87.23403-39.08439-87.23403-87.23403.00001-48.14964 39.08438-87.21015 87.23403-87.21015z" id="path4264" fill="#000" stroke="#313131" stroke-width="1.98682487" display="inline"/>
      </g>
    </g>
  </g>
  <g id="layer2" transform="translate(13.1439 304.04676)" display="inline">
    <path d="M299.98026 658.5s298.5-112.32031 298.5-397.77183V2.1764865H1.4802542V260.72817C1.4802542 546.17969 299.98026 658.5 299.98026 658.5z" id="path2875" opacity="1" fill="url(#radialGradient3163)" fill-opacity="1" fill-rule="evenodd" stroke="none" stroke-width="1" stroke-linecap="butt" stroke-linejoin="miter" stroke-opacity="1"/>
  </g>
  <g id="layer1" transform="translate(13.1439 304.04676)" display="inline">
    <path d="M299.98025 658.50028S1.4802642 546.17992 1.4802642 260.72828V2.1764957H598.48025V260.72828c0 285.45164-298.5 397.772-298.5 397.772z" id="path1411" opacity="1" fill="none" fill-opacity="1" fill-rule="evenodd" stroke="#000" stroke-width="3.00000048" stroke-linecap="butt" stroke-linejoin="miter" stroke-miterlimit="4" stroke-dasharray="none" stroke-opacity="1"/>
  </g>
</svg>
