<svg xmlns="http://www.w3.org/2000/svg" id="svg2" version="1.0" viewBox="0 0 569 649.98315">
  <g transform="matrix(1.09205 0 0 1.08534 1.0379647 -.5090564)" id="g13683" fill-opacity="1">
    <path id="path1314" d="M63.52381.51173555l456.73382.06396694C519.22812 84.799118 523.18328 166.95229 517.06273 250.15711c-3.80007 29.3231-9.6086 55.37529-18.20108 81.63481-6.84418 20.9165-11.46357 40.57152-17.33837 51.54744L63.52381.51173555z" fill="#fecb00"/>
    <path id="path1312" d="M261.05556 598.63646C117.07633 526.36459 26.84429 409.45886 5.5254665 244.5c-2.2886466-18.27914-2.6917556-22.73127-4.2555139-47-.38983249-6.05-.72254873-36.10395-.73936946-66.78656L-.31659523.73466463 68.306505.5C206.52786 126.49479 344.52306 254.48927 483.21464 379.96228c-38.41637 89.07481-133.7167 173.13679-222.15908 218.67418z" fill="#002395"/>
  </g>
  <path d="M48.744015 172.30518L82.940566 67.059037 117.1371 172.30518l-89.527713-65.0457 110.662343.00001-89.527715 65.04569z" id="path11754" fill="#fff" fill-opacity="1" fill-rule="nonzero" stroke="none" stroke-width="1" stroke-linecap="butt" stroke-linejoin="miter" stroke-opacity="1"/>
  <path d="M-33.118552 100.86401L1.0780002-4.3821352 35.274537 100.86401l-89.527713-65.045699H56.409166l-89.527718 65.045699z" id="path2262" fill="#fff" fill-opacity="1" fill-rule="nonzero" stroke="none" stroke-width="1" stroke-linecap="butt" stroke-linejoin="miter" stroke-opacity="1"/>
  <path d="M126.60658 245.58682l34.19655-105.24615 34.19654 105.24615-89.52772-65.0457 110.66234.00001-89.52771 65.04569z" id="path2264" fill="#fff" fill-opacity="1" fill-rule="nonzero" stroke="none" stroke-width="1" stroke-linecap="butt" stroke-linejoin="miter" stroke-opacity="1"/>
  <path d="M206.16181 316.67873l34.19655-105.24615 34.19654 105.24615-89.52771-65.0457 110.66233.00001-89.52771 65.04569z" id="path2266" fill="#fff" fill-opacity="1" fill-rule="nonzero" stroke="none" stroke-width="1" stroke-linecap="butt" stroke-linejoin="miter" stroke-opacity="1"/>
  <path d="M284.02438 390.30963l34.19654-105.24614 34.19654 105.24614-89.52771-65.0457 110.66234.00001-89.52771 65.04569z" id="path2268" fill="#fff" fill-opacity="1" fill-rule="nonzero" stroke="none" stroke-width="1" stroke-linecap="butt" stroke-linejoin="miter" stroke-opacity="1"/>
  <path d="M363.57961 463.09421l34.19656-105.24614 34.19653 105.24614-89.52772-65.0457 110.66235.00001-89.52772 65.04569z" id="path2270" fill="#fff" fill-opacity="1" fill-rule="nonzero" stroke="none" stroke-width="1" stroke-linecap="butt" stroke-linejoin="miter" stroke-opacity="1"/>
  <path transform="translate(1.7158064 1.9064515)" d="M449.30505 523.55233l7.67056-25.06864-34.19975-25.00646 42.36672-.08771 13.21425-40.25332 12.9848 39.50346c-12.86832 17.35218-27.2618 34.70436-42.03658 50.91267z" id="path3350" fill="#fff" fill-opacity="1" stroke="none" stroke-width="3.80699992" stroke-miterlimit="4" stroke-opacity="1"/>
</svg>
