<svg xmlns="http://www.w3.org/2000/svg" version="1.0" x="0" y="0" viewBox="-1.5 -1.5 600 680" id="svg155">
  <g id="g2851">
    <g id="g2639">
      <g id="g457">
        <path d="M7.434 80.861c1.038-1.07 2.463-2.381 4.435-3.835 2.424-1.787 4.613-2.532 6.488-2.349 1.707.133 3.346 1.056 4.592 2.747 1.268 1.719 1.757 3.445 1.525 5.137-.277 2.336-1.871 4.598-4.266 6.364-.732.54-1.43 1.011-2.098 1.285l5.609 7.607-2.451 1.808zm9.202 7.349c.64-.253 1.357-.696 2.174-1.298 2.959-2.181 3.702-4.948 1.771-7.568-1.849-2.507-4.518-2.409-7.222-.415-1.07.789-1.825 1.476-2.165 1.9z" id="path459"/>
        <path d="M32.556 82.082l2.432 7.427-2.535 1.87-7.549-23.745 2.958-2.181 20.48 14.21-2.62 1.932-6.432-4.477zm4.814-6.507l-5.89-4.095c-1.337-.927-2.45-1.848-3.541-2.738l-.057.042c.549 1.334 1.091 2.718 1.576 4.143l2.192 6.865z" id="path461"/>
        <path d="M39.579 56.811L53.58 75.799l-2.45 1.808-14.002-18.988z" id="path463"/>
        <path d="M68.258 64.978l-5.519-2.411c-2.17-.879-3.559-1.464-4.961-2.127l-.056.042c.274 1.494.487 2.902.728 5.292l.792 5.852-2.817 2.078-1.279-13.886-12.496-5.269 2.846-2.098 5.789 2.602c1.618.72 2.86 1.283 4.115 1.924l.084-.062c-.296-1.522-.461-2.749-.65-4.479l-.689-6.362 2.818-2.078L58 57.495l13.104 5.386z" id="path465"/>
        <path d="M27.827 111.38c.741-.764 1.759-1.7 3.168-2.738 1.729-1.276 3.293-1.809 4.632-1.677 1.219.095 2.388.754 3.278 1.961.904 1.227 1.254 2.46 1.09 3.668-.199 1.668-1.336 3.283-3.047 4.543-.523.386-1.021.722-1.496.918l4.004 5.432-1.75 1.291zm6.571 5.247c.456-.181.969-.497 1.552-.927 2.113-1.558 2.645-3.533 1.264-5.403-1.319-1.791-3.225-1.721-5.156-.297-.764.563-1.303 1.054-1.545 1.357z" id="path467"/>
        <path d="M50.745 105.351l-5.271 3.886 3.604 4.888 5.874-4.331 1.082 1.469-7.623 5.622-9.998-13.559 7.322-5.399 1.083 1.468-5.571 4.108 3.158 4.285 5.271-3.886z" id="path469"/>
        <path d="M57.358 103.704l1.736 5.303-1.811 1.335-5.391-16.956 2.112-1.557 14.624 10.147-1.871 1.379-4.592-3.197zm3.438-4.646l-4.205-2.924c-.955-.663-1.75-1.319-2.529-1.955l-.04.029c.393.953.778 1.941 1.126 2.958l1.564 4.902z" id="path471"/>
        <path d="M79.472 93.299c-.406.797-1.441 2.088-3.092 3.304-3.822 2.818-8.493 2.505-11.771-1.94-3.129-4.245-2.373-9.243 1.831-12.342 1.69-1.246 3.022-1.67 3.663-1.771l.631 1.74c-.9.168-2.025.624-3.151 1.455-3.179 2.343-3.792 5.933-1.167 9.493 2.447 3.319 5.931 4.042 9.23 1.61 1.065-.786 1.988-1.808 2.44-2.669z" id="path473"/>
        <path d="M84.327 80.589l-5.271 3.886 3.604 4.888 5.874-4.331 1.083 1.469-7.624 5.622-9.997-13.559 7.322-5.399 1.083 1.468-5.572 4.108 3.158 4.285 5.271-3.886z" id="path475"/>
      </g>
      <g id="g477">
        <path d="M513.775 27.061c1.328.676 3.002 1.65 4.973 3.105 2.422 1.789 3.779 3.662 4.157 5.508.376 1.67-.022 3.507-1.271 5.197-1.268 1.717-2.773 2.694-4.459 2.973-2.313.424-4.945-.432-7.338-2.199-.732-.541-1.388-1.068-1.848-1.625l-5.613 7.604-2.45-1.81zm-4.308 10.96c.432.536 1.066 1.091 1.883 1.694 2.957 2.184 5.818 2.078 7.752-.541 1.852-2.506.971-5.027-1.732-7.023-1.07-.789-1.949-1.309-2.454-1.508z" id="path479"/>
        <path d="M520.018 51.425l-6.379 4.515-2.534-1.871 20.463-14.217 2.956 2.183-7.537 23.761-2.619-1.934 2.381-7.467zm7.636 2.68l2.176-6.835c.492-1.551 1.043-2.885 1.572-4.19l-.057-.043c-1.113.918-2.275 1.845-3.494 2.729l-5.913 4.119z" id="path481"/>
        <path d="M543.684 52.018l-5.771-4.262 1.538-2.084 14.051 10.376-1.538 2.083-5.801-4.283-12.477 16.896-2.478-1.83z" id="path483"/>
        <path d="M555.424 57.859c1.427.662 3.305 1.83 4.994 3.078 2.619 1.934 3.954 3.66 4.348 5.604.333 1.553-.088 3.242-1.17 4.707-1.851 2.506-4.654 3.002-7.152 2.201l-.063.085c1.09 1.589.965 3.585-.041 5.888-1.334 3.105-2.236 5.268-2.382 6.291l-2.534-1.871c.106-.792.869-2.709 2.08-5.47 1.371-3.034 1.086-4.769-1.077-6.496l-2.309-1.705-6.071 8.223-2.45-1.81zm-3.934 10.454l2.506 1.852c2.619 1.934 5.341 1.725 6.941-.443 1.81-2.45.826-4.831-1.744-6.771-1.183-.873-2.109-1.385-2.588-1.563z" id="path485"/>
        <path d="M573.209 70.602L559.193 89.58l-2.449-1.81 14.015-18.979z" id="path487"/>
        <path d="M579.871 91.099l-7.377-5.448-5.054 6.843 8.223 6.071-1.518 2.057-10.673-7.882 14.016-18.979 10.249 7.569-1.519 2.055-7.799-5.76-4.43 5.998 7.378 5.447z" id="path489"/>
        <path d="M474.583 43.451l7.298 5.389-1.083 1.469-5.549-4.098-3.325 4.503 5.127 3.786-1.07 1.447-5.127-3.785-4.527 6.133-1.75-1.293z" id="path491"/>
        <path d="M478.142 60.432l-4.556 3.225-1.81-1.337 14.611-10.151 2.11 1.559-5.382 16.967-1.87-1.381 1.7-5.332zm5.452 1.914l1.554-4.88c.352-1.107.745-2.061 1.122-2.993l-.04-.029c-.794.656-1.624 1.316-2.495 1.947l-4.223 2.941z" id="path493"/>
        <path d="M495.043 60.859l-4.121-3.044 1.099-1.488 10.032 7.409-1.098 1.488-4.143-3.059-8.908 12.063-1.77-1.307z" id="path495"/>
        <path d="M505.313 66.143l-4.186 5.67 6.554 4.841 4.187-5.67 1.77 1.306-10.008 13.553-1.769-1.307 4.692-6.354-6.555-4.84-4.691 6.354-1.75-1.293 10.007-13.551z" id="path497"/>
        <path d="M518.378 86.914l-5.269-3.891-3.607 4.886 5.871 4.335-1.084 1.469-7.621-5.627 10.008-13.553 7.318 5.405-1.084 1.468-5.568-4.113-3.163 4.283 5.269 3.891z" id="path499"/>
        <path d="M526.437 82.021c1.019.473 2.359 1.307 3.565 2.198 1.871 1.38 2.824 2.613 3.104 4.001.237 1.107-.063 2.314-.835 3.36-1.321 1.79-3.323 2.145-5.107 1.573l-.045.061c.779 1.133.689 2.559-.027 4.203-.954 2.217-1.598 3.762-1.701 4.492l-1.811-1.336c.076-.566.621-1.935 1.486-3.906.979-2.166.774-3.404-.77-4.638l-1.648-1.218-4.336 5.871-1.75-1.291zm-2.809 7.465l1.789 1.32c1.87 1.381 3.813 1.232 4.957-.316 1.292-1.749.589-3.449-1.245-4.834-.845-.624-1.508-.989-1.849-1.116z" id="path501"/>
        <path d="M537.39 89.83l1.749 1.292-8.922 12.083 5.79 4.276-1.084 1.468-7.54-5.567z" id="path503"/>
        <path d="M542.215 107.747l-4.557 3.224-1.809-1.336 14.611-10.152 2.11 1.559-5.382 16.967-1.87-1.381 1.7-5.332zm5.451 1.914l1.555-4.881c.352-1.106.744-2.06 1.121-2.993l-.039-.029c-.795.656-1.625 1.316-2.495 1.948l-4.222 2.94z" id="path505"/>
        <path d="M549.183 119.48l10.007-13.553 1.91 1.411-.72 10.063c-.167 2.33-.438 4.337-.819 6.199l.056.01c1.175-1.928 2.353-3.606 3.912-5.718l4.187-5.67 1.648 1.218-10.007 13.552-1.769-1.307.774-10.054c.169-2.205.407-4.422.808-6.395l-.076-.025c-1.161 1.783-2.323 3.442-3.986 5.693l-4.275 5.791z" id="path507"/>
        <path d="M572.289 115.881c1.184.627 2.541 1.441 3.928 2.465 2.514 1.856 3.872 3.762 4.242 5.743.389 1.997-.064 4.084-1.684 6.276-1.633 2.211-3.652 3.516-5.84 3.827-2.203.331-4.799-.529-7.432-2.474-1.247-.922-2.248-1.754-3.059-2.508zm-7.1 13.275c.383.407 1.012.902 1.695 1.406 3.739 2.762 7.314 2.17 10.017-1.488 2.38-3.182 2.07-6.549-1.629-9.281-.905-.668-1.647-1.092-2.185-1.333z" id="path509"/>
      </g>
      <g id="g511" transform="translate(-1.201995)">
        <path d="M247.739 2.766h-7.176V.176h17.467v2.59h-7.21v21.002h-3.081z" id="path513"/>
        <path d="M260.653.49c1.54-.315 3.746-.49 5.846-.49 3.255 0 5.355.595 6.826 1.925 1.19 1.05 1.855 2.66 1.855 4.48 0 3.115-1.96 5.181-4.446 6.021v.105c1.82.63 2.905 2.311 3.465 4.761.77 3.29 1.33 5.565 1.82 6.476h-3.15c-.385-.7-.91-2.695-1.575-5.636-.7-3.255-1.96-4.48-4.726-4.585h-2.87v10.221h-3.045zm3.046 10.746h3.115c3.255 0 5.321-1.785 5.321-4.48 0-3.045-2.206-4.375-5.426-4.411-1.47 0-2.52.14-3.01.28z" id="path515"/>
        <path d="M283.473 16.347l-2.45 7.421h-3.15L285.889.176h3.675l8.051 23.592h-3.255l-2.521-7.421zm7.736-2.38l-2.31-6.791c-.525-1.54-.875-2.94-1.225-4.305h-.07c-.35 1.4-.735 2.835-1.19 4.27l-2.31 6.826z" id="path517"/>
        <path d="M304.403 23.768L296.702.176h3.29l3.676 11.621c1.016 3.185 1.891 6.056 2.521 8.821h.069c.666-2.73 1.646-5.706 2.695-8.786L312.944.176h3.255l-8.436 23.592z" id="path519"/>
        <path d="M320.573 16.347l-2.45 7.421h-3.15L322.989.176h3.676l8.051 23.592h-3.256l-2.52-7.421zm7.736-2.38l-2.31-6.791c-.525-1.54-.875-2.94-1.226-4.305h-.07c-.35 1.4-.734 2.835-1.189 4.27l-2.311 6.826z" id="path521"/>
        <path d="M341.223.175v23.592h-3.045V.175z" id="path523"/>
        <path d="M346.543.175h3.045v21.037h10.082v2.555h-13.127z" id="path525"/>
        <path d="M272.462 53.768l-4.274-16.846h2.299l2 8.523c.5 2.099.95 4.199 1.25 5.823h.05c.275-1.674.8-3.674 1.375-5.849l2.25-8.498h2.274l2.049 8.548c.475 2 .925 3.999 1.175 5.773h.05c.35-1.85.825-3.724 1.35-5.824l2.224-8.498h2.225l-4.774 16.846h-2.274l-2.125-8.773c-.525-2.149-.875-3.799-1.1-5.499h-.05c-.3 1.675-.675 3.324-1.3 5.499l-2.399 8.773h-2.275z" id="path527"/>
        <path d="M305.259 45.17c0 5.798-3.524 8.873-7.823 8.873-4.449 0-7.573-3.449-7.573-8.548 0-5.349 3.324-8.848 7.823-8.848 4.599 0 7.573 3.524 7.573 8.523zm-13.072.275c0 3.599 1.95 6.823 5.374 6.823 3.449 0 5.398-3.174 5.398-6.999 0-3.349-1.749-6.848-5.373-6.848-3.599 0-5.399 3.325-5.399 7.024z" id="path529"/>
        <path d="M308.087 37.146c1.1-.225 2.675-.35 4.175-.35 2.324 0 3.823.425 4.873 1.375.85.75 1.324 1.899 1.324 3.199 0 2.225-1.398 3.699-3.174 4.299v.075c1.3.45 2.074 1.649 2.475 3.399.55 2.35.949 3.974 1.3 4.624h-2.249c-.275-.5-.65-1.924-1.125-4.024-.5-2.325-1.4-3.199-3.375-3.274h-2.049v7.298h-2.175zm2.175 7.674h2.225c2.324 0 3.799-1.275 3.799-3.199 0-2.174-1.574-3.125-3.874-3.149-1.05 0-1.8.1-2.149.2v6.148z" id="path531"/>
        <path d="M321.537 36.922h2.175v8.123h.075c.449-.65.899-1.25 1.324-1.8l5.148-6.323h2.699l-6.098 7.148 6.573 9.698h-2.575l-5.548-8.273-1.6 1.85v6.423h-2.175V36.922z" id="path533"/>
      </g>
    </g>
    <g id="g2520">
      <g id="g1986">
        <g id="g1580">
          <g id="g1418">
            <g id="g1377" fill-opacity="1" stroke-opacity="1">
              <g id="g1221">
                <path id="rect274" fill="#f1c403" stroke="#7a6402" stroke-width="2.999897" d="M58.07106539 120.53029945l12.00837966-9.4946419 47.8831627 60.56038803-12.00837965 9.4946419z"/>
                <path id="rect1078" d="M62.987401 121.10539l6.517485-5.15317 43.541474 55.06922-6.51748 5.15317z" style="line-height:normal;font-variant-ligatures:normal;font-variant-position:normal;font-variant-caps:normal;font-variant-numeric:normal;font-variant-alternates:normal;font-feature-settings:normal;text-indent:0;text-align:start;text-decoration-line:none;text-decoration-style:solid;text-decoration-color:#000;text-transform:none;text-orientation:mixed;white-space:normal;shape-padding:0;isolation:auto;mix-blend-mode:normal;solid-color:#000;solid-opacity:1" color="#000" font-style="normal" font-variant="normal" font-weight="400" font-stretch="normal" font-size="medium" font-family="sans-serif" text-decoration="none" letter-spacing="normal" word-spacing="normal" writing-mode="lr-tb" direction="ltr" dominant-baseline="auto" baseline-shift="baseline" text-anchor="start" clip-rule="nonzero" display="inline" overflow="visible" visibility="visible" opacity="1" color-interpolation="sRGB" color-interpolation-filters="linearRGB" vector-effect="none" fill="#fcd734" fill-rule="nonzero" stroke="none" stroke-width="7" stroke-linecap="butt" stroke-linejoin="miter" stroke-miterlimit="4" stroke-dasharray="none" stroke-dashoffset="0" color-rendering="auto" image-rendering="auto" shape-rendering="auto" text-rendering="auto"/>
              </g>
              <g id="g1217">
                <path id="rect276" fill="#f1c403" stroke="#7a6402" stroke-width="2.999897" d="M398.02677954 532.67205702l12.00759446-9.49402105 47.8831627 60.56038803-12.00759445 9.49402105z"/>
                <path id="rect1080" d="M402.94252 533.24727l6.51749-5.15317 43.54147 55.06923-6.51748 5.15316z" style="line-height:normal;font-variant-ligatures:normal;font-variant-position:normal;font-variant-caps:normal;font-variant-numeric:normal;font-variant-alternates:normal;font-feature-settings:normal;text-indent:0;text-align:start;text-decoration-line:none;text-decoration-style:solid;text-decoration-color:#000;text-transform:none;text-orientation:mixed;white-space:normal;shape-padding:0;isolation:auto;mix-blend-mode:normal;solid-color:#000;solid-opacity:1" color="#000" font-style="normal" font-variant="normal" font-weight="400" font-stretch="normal" font-size="medium" font-family="sans-serif" text-decoration="none" letter-spacing="normal" word-spacing="normal" writing-mode="lr-tb" direction="ltr" dominant-baseline="auto" baseline-shift="baseline" text-anchor="start" clip-rule="nonzero" display="inline" overflow="visible" visibility="visible" opacity="1" color-interpolation="sRGB" color-interpolation-filters="linearRGB" vector-effect="none" fill="#fcd734" fill-rule="nonzero" stroke="none" stroke-width="7" stroke-linecap="butt" stroke-linejoin="miter" stroke-miterlimit="4" stroke-dasharray="none" stroke-dashoffset="0" color-rendering="auto" image-rendering="auto" shape-rendering="auto" text-rendering="auto"/>
              </g>
              <g id="g1342">
                <path id="path280" d="M133.075 157.706l314.239 386.986s-8.236 10.449-17.957 17.832c-9.701 7.369-22.043 11.168-22.043 11.168L92.037 188.517s2.483-7.303 15.92-17.964c12.385-9.828 25.118-12.847 25.118-12.847z" fill="#f1c403" stroke="#7a6402" stroke-width="3"/>
                <g id="g1314">
                  <g id="g1288">
                    <path transform="translate(-1.5 -1.5)" id="path1082" d="M107.26172 178.48242c1.29693-1.16842 2.74875-2.40032 4.37109-3.6875.30269-.24019.59993-.46063.90039-.6914 0 0 104.02751 129.6293 156.042 194.44335 52.20426 65.05053 156.61425 195.1504 156.61425 195.1504-1.89227 1.21779-3.75983 2.27907-5.52929 3.18554 0 0-103.50856-130.17067-155.625-194.96582-52.01755-64.67218-156.77344-193.43457-156.77344-193.43457zm11.03906-8.37695c1.99855-1.23953 3.85715-2.23443 5.58984-3.08789 0 0 106.96641 134.45409 160.81934 201.38477 50.19639 62.38617 151.27637 186.60351 151.27637 186.60351-1.56106 1.49519-3.28505 3.03435-5.14258 4.55273 0 0-104.54549-130.26843-156.81738-195.40332-51.90909-64.68282-155.72559-194.0498-155.72559-194.0498zm294.80469 399.74414c-1.35959.53565-2.46488.92818-3.18164 1.17383L97.753906 189.64258c.280653-.59228.212386-.73537 1.533203-2.54883.759701-1.04306 1.743871-2.27253 2.988281-3.6543 0 0 104.4297 128.3735 156.29102 192.84571 51.74889 64.33245 154.53906 193.56445 154.53906 193.56445zM130.56445 164.18945c1.23974-.42815 2.2236-.71905 2.82813-.88672l310.85156 382.81446c-.72449.87335-1.87999 2.23571-3.3418 3.84375 0 0-100.71349-123.77775-150.73242-185.93946-53.44315-66.4172-159.60547-199.83203-159.60547-199.83203z" style="line-height:normal;font-variant-ligatures:normal;font-variant-position:normal;font-variant-caps:normal;font-variant-numeric:normal;font-variant-alternates:normal;font-feature-settings:normal;text-indent:0;text-align:start;text-decoration-line:none;text-decoration-style:solid;text-decoration-color:#000;text-transform:none;text-orientation:mixed;white-space:normal;shape-padding:0;isolation:auto;mix-blend-mode:normal;solid-color:#000;solid-opacity:1" color="#000" font-style="normal" font-variant="normal" font-weight="400" font-stretch="normal" font-size="medium" font-family="sans-serif" text-decoration="none" letter-spacing="normal" word-spacing="normal" writing-mode="lr-tb" direction="ltr" dominant-baseline="auto" baseline-shift="baseline" text-anchor="start" clip-rule="nonzero" display="inline" overflow="visible" visibility="visible" opacity="1" color-interpolation="sRGB" color-interpolation-filters="linearRGB" vector-effect="none" fill="#fcd734" fill-rule="nonzero" stroke="none" stroke-width="7" stroke-linecap="butt" stroke-linejoin="miter" stroke-miterlimit="4" stroke-dasharray="none" stroke-dashoffset="0" color-rendering="auto" image-rendering="auto" shape-rendering="auto" text-rendering="auto"/>
                    <g id="g1233" fill="#f1c403" stroke="#7a6402" stroke-width="3">
                      <path id="line284" d="M397.32901 502.879l42 51.00003"/>
                      <path id="line286" d="M386.82901 510.879l41.5 51.50003"/>
                      <path id="line288" d="M377.32901 518.37903l39.5 51"/>
                    </g>
                    <g id="g1228" fill="#f1c403" stroke="#7a6402" stroke-width="3">
                      <path id="line296" d="M142.272 226.823l-42-51"/>
                      <path id="line298" d="M152.772 218.823l-41.5-51.5"/>
                      <path id="line300" d="M174.55099 226.545L122.772 160.323"/>
                    </g>
                  </g>
                  <g id="g1265">
                    <g id="g1241">
                      <path id="polygon290" fill="#f1c403" stroke="#7a6402" stroke-width="3" d="M440.329 535.879l-9-10.5-59 5 9 11z"/>
                      <path style="line-height:normal;font-variant-ligatures:normal;font-variant-position:normal;font-variant-caps:normal;font-variant-numeric:normal;font-variant-alternates:normal;font-feature-settings:normal;text-indent:0;text-align:start;text-decoration-line:none;text-decoration-style:solid;text-decoration-color:#000;text-transform:none;text-orientation:mixed;white-space:normal;shape-padding:0;isolation:auto;mix-blend-mode:normal;solid-color:#000;solid-opacity:1" d="M429.83789 529.01758l3.43359 4.0039-50.4121 4.69922-3.61329-4.41406z" id="polygon1090" color="#000" font-style="normal" font-variant="normal" font-weight="400" font-stretch="normal" font-size="medium" font-family="sans-serif" text-decoration="none" letter-spacing="normal" word-spacing="normal" writing-mode="lr-tb" direction="ltr" dominant-baseline="auto" baseline-shift="baseline" text-anchor="start" clip-rule="nonzero" display="inline" overflow="visible" visibility="visible" opacity="1" color-interpolation="sRGB" color-interpolation-filters="linearRGB" vector-effect="none" fill="#fcd734" fill-rule="nonzero" stroke="none" stroke-width="7" stroke-linecap="butt" stroke-linejoin="miter" stroke-miterlimit="4" stroke-dasharray="none" stroke-dashoffset="0" color-rendering="auto" image-rendering="auto" shape-rendering="auto" text-rendering="auto"/>
                    </g>
                    <g id="g1237">
                      <path id="polygon292" fill="#f1c403" stroke="#7a6402" stroke-width="3" d="M391.329 552.879l8.217 10.07 19.283-53.07-8.5-9.5z"/>
                      <path style="line-height:normal;font-variant-ligatures:normal;font-variant-position:normal;font-variant-caps:normal;font-variant-numeric:normal;font-variant-alternates:normal;font-feature-settings:normal;text-indent:0;text-align:start;text-decoration-line:none;text-decoration-style:solid;text-decoration-color:#000;text-transform:none;text-orientation:mixed;white-space:normal;shape-padding:0;isolation:auto;mix-blend-mode:normal;solid-color:#000;solid-opacity:1" d="M411.62695 507.07812l3.19727 3.57422-16.46289 45.3086-3.06641-3.75782z" id="polygon1092" color="#000" font-style="normal" font-variant="normal" font-weight="400" font-stretch="normal" font-size="medium" font-family="sans-serif" text-decoration="none" letter-spacing="normal" word-spacing="normal" writing-mode="lr-tb" direction="ltr" dominant-baseline="auto" baseline-shift="baseline" text-anchor="start" clip-rule="nonzero" display="inline" overflow="visible" visibility="visible" opacity="1" color-interpolation="sRGB" color-interpolation-filters="linearRGB" vector-effect="none" fill="#fcd734" fill-rule="nonzero" stroke="none" stroke-width="7" stroke-linecap="butt" stroke-linejoin="miter" stroke-miterlimit="4" stroke-dasharray="none" stroke-dashoffset="0" color-rendering="auto" image-rendering="auto" shape-rendering="auto" text-rendering="auto"/>
                    </g>
                  </g>
                  <g id="g1257">
                    <g id="g1249">
                      <path id="polygon302" fill="#f1c403" stroke="#7a6402" stroke-width="3" d="M97.272 193.823l10 10.5 58.724-5.161-8.724-10.839z"/>
                      <path style="line-height:normal;font-variant-ligatures:normal;font-variant-position:normal;font-variant-caps:normal;font-variant-numeric:normal;font-variant-alternates:normal;font-feature-settings:normal;text-indent:0;text-align:start;text-decoration-line:none;text-decoration-style:solid;text-decoration-color:#000;text-transform:none;text-orientation:mixed;white-space:normal;shape-padding:0;isolation:auto;mix-blend-mode:normal;solid-color:#000;solid-opacity:1" d="M155.72266 191.98047l3.43554 4.26953-50.51367 4.43945-3.84961-4.04101z" id="polygon1102" color="#000" font-style="normal" font-variant="normal" font-weight="400" font-stretch="normal" font-size="medium" font-family="sans-serif" text-decoration="none" letter-spacing="normal" word-spacing="normal" writing-mode="lr-tb" direction="ltr" dominant-baseline="auto" baseline-shift="baseline" text-anchor="start" clip-rule="nonzero" display="inline" overflow="visible" visibility="visible" opacity="1" color-interpolation="sRGB" color-interpolation-filters="linearRGB" vector-effect="none" fill="#fcd734" fill-rule="nonzero" stroke="none" stroke-width="7" stroke-linecap="butt" stroke-linejoin="miter" stroke-miterlimit="4" stroke-dasharray="none" stroke-dashoffset="0" color-rendering="auto" image-rendering="auto" shape-rendering="auto" text-rendering="auto"/>
                    </g>
                    <g id="g1245">
                      <path id="polygon304" fill="#f1c403" stroke="#7a6402" stroke-width="3" d="M148.272 176.823l-9.102-10.582-18.398 55.582 9.5 10.5z"/>
                      <path style="line-height:normal;font-variant-ligatures:normal;font-variant-position:normal;font-variant-caps:normal;font-variant-numeric:normal;font-variant-alternates:normal;font-feature-settings:normal;text-indent:0;text-align:start;text-decoration-line:none;text-decoration-style:solid;text-decoration-color:#000;text-transform:none;text-orientation:mixed;white-space:normal;shape-padding:0;isolation:auto;mix-blend-mode:normal;solid-color:#000;solid-opacity:1" d="M140.54883 173.21289l3.78711 4.40234-15.52539 47.875-4.07422-4.5039z" id="polygon1104" color="#000" font-style="normal" font-variant="normal" font-weight="400" font-stretch="normal" font-size="medium" font-family="sans-serif" text-decoration="none" letter-spacing="normal" word-spacing="normal" writing-mode="lr-tb" direction="ltr" dominant-baseline="auto" baseline-shift="baseline" text-anchor="start" clip-rule="nonzero" display="inline" overflow="visible" visibility="visible" opacity="1" color-interpolation="sRGB" color-interpolation-filters="linearRGB" vector-effect="none" fill="#fcd734" fill-rule="nonzero" stroke="none" stroke-width="7" stroke-linecap="butt" stroke-linejoin="miter" stroke-miterlimit="4" stroke-dasharray="none" stroke-dashoffset="0" color-rendering="auto" image-rendering="auto" shape-rendering="auto" text-rendering="auto"/>
                    </g>
                  </g>
                </g>
              </g>
            </g>
            <g id="g1054" stroke-width="3">
              <path id="path306" d="M3.548 137.243s-9.887 34.636 13.779 59.969c22.046 23.599 54.667 14.667 54.667 14.667s-5-28.333-1.333-39c3.59-10.441 4.443-10.833 10.146-16.25 5.703-5.417 20.857-20.291 26.521-25.75 9.334-9 10.667-14.667 7.334-18-1.841-1.841-8.641-.684-18.667 5.667-10 6.333-24.285 19.479-41.131 24.685-17.202 5.315-27.202 3.982-34.78.855-7.426-3.064-16.536-6.843-16.536-6.843z" fill="#c3c3c3" fill-opacity="1" stroke="#7d7d7d" stroke-opacity="1"/>
              <path d="M110.68359 116.34375c-16.516811 4.95219-27.846506 18.85996-43.289059 25.94922-24.700889 11.33951-37.487828 13.55795-60.7059333.54112-4.5607874 45.52223 23.0542543 69.57375 60.7938243 65.86903-2.196949-16.1643-5.913058-35.40624 4.998516-49.05997 11.533447-14.43188 27.724272-24.74176 38.716332-39.59237.66434-.89754 2.84798-4.71495-.51368-3.70703z" id="path988" fill="#d7d7d7" fill-opacity="1" stroke="none"/>
              <path d="M81.996094 140.55273c-17.436009 11.88531-39.430566 20.88036-60.716797 15.3086-3.179866-.84258-6.275301-2.00454-9.214844-3.48242-.720676 20.1034 10.28831 42.88042 31.346853 48.32236 5.551028 1.71019 11.382478 2.4294 17.182444 2.36709-2.775765-17.07913-3.119423-37.33416 9.988281-50.49609 4.225333-4.83422 8.908017-9.24147 13.646485-13.56446-.744141.51498-1.488282 1.02995-2.232422 1.54492z" id="path994" fill="#ebebeb" fill-opacity="1" stroke="none"/>
              <path d="M51.484375 165.61719c-9.110926 2.09932-18.592289 2.21309-27.851563 1.15429 3.384434 11.99643 12.973242 22.98537 25.580079 25.34766-.745695-8.92159.122791-17.98601 2.621093-26.58594z" id="path1002" fill="#fff" stroke="none"/>
            </g>
          </g>
          <g id="g1498" transform="matrix(-1 0 0 1 597.82901 0)">
            <g id="g1486" fill-opacity="1" stroke-opacity="1">
              <g id="g1424">
                <path id="rect1420" fill="#f1c403" stroke="#7a6402" stroke-width="2.999897" d="M58.07106539 120.53029945l12.00837966-9.4946419 47.8831627 60.56038803-12.00837965 9.4946419z"/>
                <path style="line-height:normal;font-variant-ligatures:normal;font-variant-position:normal;font-variant-caps:normal;font-variant-numeric:normal;font-variant-alternates:normal;font-feature-settings:normal;text-indent:0;text-align:start;text-decoration-line:none;text-decoration-style:solid;text-decoration-color:#000;text-transform:none;text-orientation:mixed;white-space:normal;shape-padding:0;isolation:auto;mix-blend-mode:normal;solid-color:#000;solid-opacity:1" d="M62.987401 121.10539l6.517485-5.15317 43.541474 55.06922-6.51748 5.15317z" id="path1422" color="#000" font-style="normal" font-variant="normal" font-weight="400" font-stretch="normal" font-size="medium" font-family="sans-serif" text-decoration="none" letter-spacing="normal" word-spacing="normal" writing-mode="lr-tb" direction="ltr" dominant-baseline="auto" baseline-shift="baseline" text-anchor="start" clip-rule="nonzero" display="inline" overflow="visible" visibility="visible" opacity="1" color-interpolation="sRGB" color-interpolation-filters="linearRGB" vector-effect="none" fill="#fcd734" fill-rule="nonzero" stroke="none" stroke-width="7" stroke-linecap="butt" stroke-linejoin="miter" stroke-miterlimit="4" stroke-dasharray="none" stroke-dashoffset="0" color-rendering="auto" image-rendering="auto" shape-rendering="auto" text-rendering="auto"/>
              </g>
              <g id="g1430">
                <path id="rect1426" fill="#f1c403" stroke="#7a6402" stroke-width="2.999897" d="M398.02677954 532.67205702l12.00759446-9.49402105 47.8831627 60.56038803-12.00759445 9.49402105z"/>
                <path style="line-height:normal;font-variant-ligatures:normal;font-variant-position:normal;font-variant-caps:normal;font-variant-numeric:normal;font-variant-alternates:normal;font-feature-settings:normal;text-indent:0;text-align:start;text-decoration-line:none;text-decoration-style:solid;text-decoration-color:#000;text-transform:none;text-orientation:mixed;white-space:normal;shape-padding:0;isolation:auto;mix-blend-mode:normal;solid-color:#000;solid-opacity:1" d="M402.94252 533.24727l6.51749-5.15317 43.54147 55.06923-6.51748 5.15316z" id="path1428" color="#000" font-style="normal" font-variant="normal" font-weight="400" font-stretch="normal" font-size="medium" font-family="sans-serif" text-decoration="none" letter-spacing="normal" word-spacing="normal" writing-mode="lr-tb" direction="ltr" dominant-baseline="auto" baseline-shift="baseline" text-anchor="start" clip-rule="nonzero" display="inline" overflow="visible" visibility="visible" opacity="1" color-interpolation="sRGB" color-interpolation-filters="linearRGB" vector-effect="none" fill="#fcd734" fill-rule="nonzero" stroke="none" stroke-width="7" stroke-linecap="butt" stroke-linejoin="miter" stroke-miterlimit="4" stroke-dasharray="none" stroke-dashoffset="0" color-rendering="auto" image-rendering="auto" shape-rendering="auto" text-rendering="auto"/>
              </g>
              <g id="g1484">
                <path d="M133.075 157.706l314.239 386.986s-8.236 10.449-17.957 17.832c-9.701 7.369-22.043 11.168-22.043 11.168L92.037 188.517s2.483-7.303 15.92-17.964c12.385-9.828 25.118-12.847 25.118-12.847z" id="path1432" fill="#f1c403" stroke="#7a6402" stroke-width="3"/>
                <g id="g1482">
                  <g id="g1452">
                    <path style="line-height:normal;font-variant-ligatures:normal;font-variant-position:normal;font-variant-caps:normal;font-variant-numeric:normal;font-variant-alternates:normal;font-feature-settings:normal;text-indent:0;text-align:start;text-decoration-line:none;text-decoration-style:solid;text-decoration-color:#000;text-transform:none;text-orientation:mixed;white-space:normal;shape-padding:0;isolation:auto;mix-blend-mode:normal;solid-color:#000;solid-opacity:1" d="M107.26172 178.48242c1.29693-1.16842 2.74875-2.40032 4.37109-3.6875.30269-.24019.59993-.46063.90039-.6914 0 0 104.02751 129.6293 156.042 194.44335 52.20426 65.05053 156.61425 195.1504 156.61425 195.1504-1.89227 1.21779-3.75983 2.27907-5.52929 3.18554 0 0-103.50856-130.17067-155.625-194.96582-52.01755-64.67218-156.77344-193.43457-156.77344-193.43457zm11.03906-8.37695c1.99855-1.23953 3.85715-2.23443 5.58984-3.08789 0 0 106.96641 134.45409 160.81934 201.38477 50.19639 62.38617 151.27637 186.60351 151.27637 186.60351-1.56106 1.49519-3.28505 3.03435-5.14258 4.55273 0 0-104.54549-130.26843-156.81738-195.40332-51.90909-64.68282-155.72559-194.0498-155.72559-194.0498zm294.80469 399.74414c-1.35959.53565-2.46488.92818-3.18164 1.17383L97.753906 189.64258c.280653-.59228.212386-.73537 1.533203-2.54883.759701-1.04306 1.743871-2.27253 2.988281-3.6543 0 0 104.4297 128.3735 156.29102 192.84571 51.74889 64.33245 154.53906 193.56445 154.53906 193.56445zM130.56445 164.18945c1.23974-.42815 2.2236-.71905 2.82813-.88672l310.85156 382.81446c-.72449.87335-1.87999 2.23571-3.3418 3.84375 0 0-100.71349-123.77775-150.73242-185.93946-53.44315-66.4172-159.60547-199.83203-159.60547-199.83203z" id="path1434" transform="translate(-1.5 -1.5)" color="#000" font-style="normal" font-variant="normal" font-weight="400" font-stretch="normal" font-size="medium" font-family="sans-serif" text-decoration="none" letter-spacing="normal" word-spacing="normal" writing-mode="lr-tb" direction="ltr" dominant-baseline="auto" baseline-shift="baseline" text-anchor="start" clip-rule="nonzero" display="inline" overflow="visible" visibility="visible" opacity="1" color-interpolation="sRGB" color-interpolation-filters="linearRGB" vector-effect="none" fill="#fcd734" fill-rule="nonzero" stroke="none" stroke-width="7" stroke-linecap="butt" stroke-linejoin="miter" stroke-miterlimit="4" stroke-dasharray="none" stroke-dashoffset="0" color-rendering="auto" image-rendering="auto" shape-rendering="auto" text-rendering="auto"/>
                    <g id="g1442" fill="#f1c403" stroke="#7a6402" stroke-width="3">
                      <path id="line1436" d="M397.32901 502.879l42 51.00003"/>
                      <path id="line1438" d="M386.82901 510.879l41.5 51.50003"/>
                      <path id="line1440" d="M377.32901 518.37903l39.5 51"/>
                    </g>
                    <g id="g1450" fill="#f1c403" stroke="#7a6402" stroke-width="3">
                      <path id="line1444" d="M142.272 226.823l-42-51"/>
                      <path id="line1446" d="M152.772 218.823l-41.5-51.5"/>
                      <path id="line1448" d="M174.55099 226.545L122.772 160.323"/>
                    </g>
                  </g>
                  <g id="g1466">
                    <g id="g1458">
                      <path id="polygon1454" fill="#f1c403" stroke="#7a6402" stroke-width="3" d="M372.329 530.379l9 11 59-5.5-9-10.5z"/>
                      <path id="path1456" d="M429.83789 529.01758l3.43359 4.0039-50.4121 4.69922-3.61329-4.41406z" style="line-height:normal;font-variant-ligatures:normal;font-variant-position:normal;font-variant-caps:normal;font-variant-numeric:normal;font-variant-alternates:normal;font-feature-settings:normal;text-indent:0;text-align:start;text-decoration-line:none;text-decoration-style:solid;text-decoration-color:#000;text-transform:none;text-orientation:mixed;white-space:normal;shape-padding:0;isolation:auto;mix-blend-mode:normal;solid-color:#000;solid-opacity:1" color="#000" font-style="normal" font-variant="normal" font-weight="400" font-stretch="normal" font-size="medium" font-family="sans-serif" text-decoration="none" letter-spacing="normal" word-spacing="normal" writing-mode="lr-tb" direction="ltr" dominant-baseline="auto" baseline-shift="baseline" text-anchor="start" clip-rule="nonzero" display="inline" overflow="visible" visibility="visible" opacity="1" color-interpolation="sRGB" color-interpolation-filters="linearRGB" vector-effect="none" fill="#fcd734" fill-rule="nonzero" stroke="none" stroke-width="7" stroke-linecap="butt" stroke-linejoin="miter" stroke-miterlimit="4" stroke-dasharray="none" stroke-dashoffset="0" color-rendering="auto" image-rendering="auto" shape-rendering="auto" text-rendering="auto"/>
                    </g>
                    <g id="g1464">
                      <path id="polygon1460" fill="#f1c403" stroke="#7a6402" stroke-width="3" d="M418.829 509.879l-8.5-9.5-19 52.5 8.217 10.07z"/>
                      <path id="path1462" d="M411.62695 507.07812l3.19727 3.57422-16.46289 45.3086-3.06641-3.75782z" style="line-height:normal;font-variant-ligatures:normal;font-variant-position:normal;font-variant-caps:normal;font-variant-numeric:normal;font-variant-alternates:normal;font-feature-settings:normal;text-indent:0;text-align:start;text-decoration-line:none;text-decoration-style:solid;text-decoration-color:#000;text-transform:none;text-orientation:mixed;white-space:normal;shape-padding:0;isolation:auto;mix-blend-mode:normal;solid-color:#000;solid-opacity:1" color="#000" font-style="normal" font-variant="normal" font-weight="400" font-stretch="normal" font-size="medium" font-family="sans-serif" text-decoration="none" letter-spacing="normal" word-spacing="normal" writing-mode="lr-tb" direction="ltr" dominant-baseline="auto" baseline-shift="baseline" text-anchor="start" clip-rule="nonzero" display="inline" overflow="visible" visibility="visible" opacity="1" color-interpolation="sRGB" color-interpolation-filters="linearRGB" vector-effect="none" fill="#fcd734" fill-rule="nonzero" stroke="none" stroke-width="7" stroke-linecap="butt" stroke-linejoin="miter" stroke-miterlimit="4" stroke-dasharray="none" stroke-dashoffset="0" color-rendering="auto" image-rendering="auto" shape-rendering="auto" text-rendering="auto"/>
                    </g>
                  </g>
                  <g id="g1480">
                    <g id="g1472">
                      <path id="polygon1468" fill="#f1c403" stroke="#7a6402" stroke-width="3" d="M165.996 199.162l-8.724-10.839-60 5.5 10 10.5z"/>
                      <path id="path1470" d="M155.72266 191.98047l3.43554 4.26953-50.51367 4.43945-3.84961-4.04101z" style="line-height:normal;font-variant-ligatures:normal;font-variant-position:normal;font-variant-caps:normal;font-variant-numeric:normal;font-variant-alternates:normal;font-feature-settings:normal;text-indent:0;text-align:start;text-decoration-line:none;text-decoration-style:solid;text-decoration-color:#000;text-transform:none;text-orientation:mixed;white-space:normal;shape-padding:0;isolation:auto;mix-blend-mode:normal;solid-color:#000;solid-opacity:1" color="#000" font-style="normal" font-variant="normal" font-weight="400" font-stretch="normal" font-size="medium" font-family="sans-serif" text-decoration="none" letter-spacing="normal" word-spacing="normal" writing-mode="lr-tb" direction="ltr" dominant-baseline="auto" baseline-shift="baseline" text-anchor="start" clip-rule="nonzero" display="inline" overflow="visible" visibility="visible" opacity="1" color-interpolation="sRGB" color-interpolation-filters="linearRGB" vector-effect="none" fill="#fcd734" fill-rule="nonzero" stroke="none" stroke-width="7" stroke-linecap="butt" stroke-linejoin="miter" stroke-miterlimit="4" stroke-dasharray="none" stroke-dashoffset="0" color-rendering="auto" image-rendering="auto" shape-rendering="auto" text-rendering="auto"/>
                    </g>
                    <g id="g1478">
                      <path id="polygon1474" fill="#f1c403" stroke="#7a6402" stroke-width="3" d="M120.772 221.823l9.5 10.5 18-55.5-9.102-10.582z"/>
                      <path id="path1476" d="M140.54883 173.21289l3.78711 4.40234-15.52539 47.875-4.07422-4.5039z" style="line-height:normal;font-variant-ligatures:normal;font-variant-position:normal;font-variant-caps:normal;font-variant-numeric:normal;font-variant-alternates:normal;font-feature-settings:normal;text-indent:0;text-align:start;text-decoration-line:none;text-decoration-style:solid;text-decoration-color:#000;text-transform:none;text-orientation:mixed;white-space:normal;shape-padding:0;isolation:auto;mix-blend-mode:normal;solid-color:#000;solid-opacity:1" color="#000" font-style="normal" font-variant="normal" font-weight="400" font-stretch="normal" font-size="medium" font-family="sans-serif" text-decoration="none" letter-spacing="normal" word-spacing="normal" writing-mode="lr-tb" direction="ltr" dominant-baseline="auto" baseline-shift="baseline" text-anchor="start" clip-rule="nonzero" display="inline" overflow="visible" visibility="visible" opacity="1" color-interpolation="sRGB" color-interpolation-filters="linearRGB" vector-effect="none" fill="#fcd734" fill-rule="nonzero" stroke="none" stroke-width="7" stroke-linecap="butt" stroke-linejoin="miter" stroke-miterlimit="4" stroke-dasharray="none" stroke-dashoffset="0" color-rendering="auto" image-rendering="auto" shape-rendering="auto" text-rendering="auto"/>
                    </g>
                  </g>
                </g>
              </g>
            </g>
            <g id="g1496" stroke-width="3">
              <path d="M3.548 137.243s-9.887 34.636 13.779 59.969c22.046 23.599 54.667 14.667 54.667 14.667s-5-28.333-1.333-39c3.59-10.441 4.443-10.833 10.146-16.25 5.703-5.417 20.857-20.291 26.521-25.75 9.334-9 10.667-14.667 7.334-18-1.841-1.841-8.641-.684-18.667 5.667-10 6.333-24.285 19.479-41.131 24.685-17.202 5.315-27.202 3.982-34.78.855-7.426-3.064-16.536-6.843-16.536-6.843z" id="path1488" fill="#c3c3c3" fill-opacity="1" stroke="#7d7d7d" stroke-opacity="1"/>
              <path id="path1490" d="M110.68359 116.34375c-16.516811 4.95219-27.846506 18.85996-43.289059 25.94922-24.700889 11.33951-37.487828 13.55795-60.7059333.54112-4.5607874 45.52223 23.0542543 69.57375 60.7938243 65.86903-2.196949-16.1643-5.913058-35.40624 4.998516-49.05997 11.533447-14.43188 27.724272-24.74176 38.716332-39.59237.66434-.89754 2.84798-4.71495-.51368-3.70703z" fill="#d7d7d7" fill-opacity="1" stroke="none"/>
              <path id="path1492" d="M81.996094 140.55273c-17.436009 11.88531-39.430566 20.88036-60.716797 15.3086-3.179866-.84258-6.275301-2.00454-9.214844-3.48242-.720676 20.1034 10.28831 42.88042 31.346853 48.32236 5.551028 1.71019 11.382478 2.4294 17.182444 2.36709-2.775765-17.07913-3.119423-37.33416 9.988281-50.49609 4.225333-4.83422 8.908017-9.24147 13.646485-13.56446-.744141.51498-1.488282 1.02995-2.232422 1.54492z" fill="#ebebeb" fill-opacity="1" stroke="none"/>
              <path id="path1494" d="M51.484375 165.61719c-9.110926 2.09932-18.592289 2.21309-27.851563 1.15429 3.384434 11.99643 12.973242 22.98537 25.580079 25.34766-.745695-8.92159.122791-17.98601 2.621093-26.58594z" fill="#fff" stroke="none"/>
            </g>
          </g>
        </g>
        <g transform="translate(.19110194)" id="g1858">
          <g id="g1812" fill-opacity="1" stroke-opacity="1">
            <path id="path373" d="M91.167964 540.43555l-24.33398 22.10937S140.67623 672.76235 295.83588 675.67188v.0742c.9972-.001 1.97615-.0269 2.96679-.0371.93816.009 1.86457.0338 2.8086.0352v-.0703c155.15962-2.90958 229.00006-113.127 229.00006-113.127l-23.33203-21.11133s-27.83386 36.33436-62.71686 57.69336l-15.51953-19.81055s-55.14324 39.02052-130.32031 39.71875c-75.17672-.69784-130.32032-39.71875-130.32032-39.71875l-15.51953 19.81055c-34.883-21.36-61.714786-58.69336-61.714786-58.69336z" fill="#f1c403" stroke="#7a6402" stroke-width="3"/>
            <path id="path1593" d="M90.501953 547.79688c7.41918 9.66717 30.045767 37.39487 59.769527 55.5957l3.79883 2.32617 15.5-19.7832c9.93055 6.54687 60.02142 37.46028 129.10547 38.10156h.0938c69.08434-.64164 119.17498-31.55475 129.10547-38.10156l15.49805 19.7832 3.80078-2.32617c29.81559-18.2562 53.15397-45.46016 60.66406-54.70703l16.08203 14.55078c-12.27866 16.60842-83.85 104.83934-222.40234 107.4375l-2.16992.041c-.17317-.002-.3178-.004-.4961-.006h-.0996c-.18909.002-.34534.003-.52929.006l-2.29297-.043c-138.58483-2.59868-210.156439-90.86685-222.410219-107.44527z" style="line-height:normal;font-variant-ligatures:normal;font-variant-position:normal;font-variant-caps:normal;font-variant-numeric:normal;font-variant-alternates:normal;font-feature-settings:normal;text-indent:0;text-align:start;text-decoration-line:none;text-decoration-style:solid;text-decoration-color:#000;text-transform:none;text-orientation:mixed;white-space:normal;shape-padding:0;isolation:auto;mix-blend-mode:normal;solid-color:#000;solid-opacity:1" color="#000" font-style="normal" font-variant="normal" font-weight="400" font-stretch="normal" font-size="medium" font-family="sans-serif" text-decoration="none" letter-spacing="normal" word-spacing="normal" writing-mode="lr-tb" direction="ltr" dominant-baseline="auto" baseline-shift="baseline" text-anchor="start" clip-rule="nonzero" display="inline" overflow="visible" visibility="visible" opacity="1" color-interpolation="sRGB" color-interpolation-filters="linearRGB" vector-effect="none" fill="#fcd734" fill-rule="nonzero" stroke="#fcd734" stroke-width="2" stroke-linecap="butt" stroke-linejoin="miter" stroke-miterlimit="4" stroke-dasharray="none" stroke-dashoffset="0" color-rendering="auto" image-rendering="auto" shape-rendering="auto" text-rendering="auto"/>
          </g>
          <g id="g1764">
            <g transform="translate(.24190306)" id="g377">
              <path id="path379" d="M75.685 565.538l16.417-13.844 5.883 6.977c1.479 1.754 2.407 3.153 2.783 4.197.375 1.044.388 2.122.037 3.236-.352 1.113-1.012 2.079-1.982 2.897-1.232 1.039-2.555 1.535-3.968 1.487-1.413-.047-2.832-.703-4.256-1.968.187 1.069.226 2.048.12 2.937-.107.888-.465 2.267-1.074 4.134l-1.512 4.706-3.343-3.965 1.551-5.408c.559-1.928.872-3.188.94-3.782.068-.594.015-1.118-.157-1.572-.173-.455-.58-1.063-1.222-1.825l-.567-.672-6.853 5.779zm12.269-4.674l2.068 2.452c1.341 1.59 2.246 2.526 2.713 2.809.468.282.961.397 1.479.344.517-.053 1.022-.287 1.515-.702.553-.466.874-.99.965-1.571.091-.581-.045-1.179-.409-1.791-.189-.301-.85-1.123-1.983-2.467l-2.182-2.587z"/>
              <path id="path381" d="M92.477 584.729l14.994-15.374 11.399 11.118-2.537 2.601-8.295-8.091-3.324 3.408 7.718 7.528-2.526 2.59-7.718-7.527-4.081 4.184 8.588 8.377-2.526 2.59z"/>
              <path id="path383" d="M109.796 601.11l13.592-16.626 5.387 4.404c2.041 1.668 3.304 2.84 3.788 3.513.749 1.028 1.103 2.223 1.062 3.584-.041 1.36-.601 2.702-1.683 4.025-.834 1.021-1.722 1.728-2.661 2.12-.939.392-1.856.555-2.751.484-.896-.069-1.69-.281-2.385-.635-.931-.496-2.157-1.366-3.676-2.608l-2.189-1.789-5.127 6.271zm14.649-11.069l-3.857 4.718 1.837 1.502c1.323 1.082 2.278 1.718 2.867 1.909.588.19 1.161.204 1.717.041.556-.163 1.035-.491 1.437-.982.494-.604.725-1.249.69-1.933-.035-.684-.283-1.297-.747-1.841-.339-.403-1.113-1.1-2.323-2.088z"/>
              <path id="path385" d="M140.518 598.175l3.589 2.434-6.528 9.626c-1.036 1.528-1.663 2.548-1.881 3.061-.34.832-.37 1.664-.091 2.496.279.833.92 1.589 1.922 2.269 1.019.69 1.927 1.003 2.727.938.799-.065 1.458-.365 1.974-.9s1.251-1.506 2.205-2.912l6.668-9.832 3.588 2.435-6.331 9.335c-1.447 2.133-2.566 3.575-3.358 4.324-.792.749-1.653 1.25-2.585 1.503-.933.253-1.957.263-3.074.03-1.117-.233-2.378-.825-3.785-1.779-1.697-1.15-2.852-2.22-3.463-3.206-.611-.987-.958-1.966-1.043-2.938-.085-.972.025-1.856.33-2.652.456-1.178 1.358-2.761 2.707-4.749z"/>
              <path id="path387" d="M160.181 611.163l7.518 4.143c1.488.82 2.563 1.494 3.227 2.021.663.526 1.175 1.146 1.535 1.857.36.712.553 1.501.577 2.367.024.866-.188 1.706-.635 2.519-.485.881-1.168 1.559-2.048 2.032-.88.474-1.828.671-2.843.591.962.965 1.53 2.02 1.703 3.163.173 1.143-.04 2.258-.639 3.344-.472.855-1.128 1.577-1.972 2.167-.843.589-1.742.936-2.697 1.039-.955.104-1.968-.066-3.038-.512-.671-.28-2.221-1.079-4.651-2.396l-6.402-3.528zm-2.05 12.702l-2.771 5.029 3.515 1.938c1.368.754 2.258 1.193 2.668 1.319.621.209 1.219.212 1.793.01.574-.202 1.045-.637 1.413-1.304.311-.564.438-1.119.381-1.663-.057-.544-.295-1.049-.713-1.514-.418-.465-1.492-1.174-3.219-2.125zm4.122-7.479l-2.396 4.35 2.489 1.371c1.479.815 2.411 1.301 2.793 1.456.692.281 1.328.339 1.904.172.577-.167 1.033-.555 1.368-1.162.321-.581.42-1.142.3-1.683-.121-.54-.476-1.023-1.066-1.449-.353-.25-1.423-.867-3.21-1.853z"/>
              <path id="path389" d="M172.454 641.948l8.636-19.47 3.963 1.758-7.169 16.162 9.855 4.372-1.467 3.307z"/>
              <path id="path391" d="M192.646 650.467l7.48-20.13 4.064 1.51-7.48 20.13z"/>
              <path id="path393" d="M221.539 656.99c.806 1.031 1.746 1.938 2.818 2.722l-2.396 2.487c-.573-.373-1.11-.811-1.613-1.314-.112-.104-.856-.985-2.231-2.642-1.522.193-3.104.049-4.743-.434-3.167-.932-5.373-2.593-6.619-4.985-1.246-2.392-1.373-5.274-.38-8.646.989-3.363 2.658-5.716 5.007-7.056 2.349-1.34 5.063-1.557 8.146-.649 3.054.897 5.201 2.545 6.441 4.94 1.24 2.395 1.365 5.274.375 8.638-.523 1.78-1.232 3.271-2.125 4.475-.679.92-1.572 1.742-2.68 2.464zm-2.655-3.331c.719-.471 1.342-1.111 1.871-1.923.529-.812.963-1.794 1.302-2.946.7-2.379.698-4.312-.005-5.796s-1.903-2.476-3.599-2.975c-1.696-.499-3.244-.313-4.646.558-1.401.87-2.45 2.491-3.147 4.861-.708 2.407-.711 4.363-.008 5.868.703 1.504 1.859 2.493 3.471 2.968.599.176 1.195.244 1.787.205-.681-.801-1.411-1.484-2.191-2.05l1.865-2.031c1.229.871 2.33 1.958 3.3 3.261z"/>
              <path id="path395" d="M234.522 640.924l4.254.841-2.255 11.41c-.358 1.811-.538 2.994-.538 3.552.012.898.308 1.676.89 2.333.582.658 1.467 1.104 2.655 1.339 1.207.238 2.166.172 2.876-.2s1.199-.905 1.466-1.6c.267-.693.564-1.874.894-3.541l2.303-11.654 4.254.841-2.187 11.064c-.5 2.529-.968 4.294-1.404 5.292-.436.999-1.034 1.797-1.794 2.394-.76.596-1.699 1.005-2.818 1.227-1.119.222-2.512.169-4.179-.161-2.012-.397-3.492-.932-4.439-1.602-.948-.67-1.65-1.436-2.107-2.298-.457-.861-.701-1.719-.731-2.57-.04-1.263.174-3.071.64-5.429z"/>
              <path id="path397" d="M255.459 666.568l2.435-21.336 15.82 1.806-.412 3.609-11.512-1.313-.54 4.729 10.711 1.223-.41 3.595-10.712-1.223-.663 5.808 11.92 1.36-.411 3.595z"/>
              <path id="path399" d="M291.601 647.944l7.925.092c1.787.021 3.146.174 4.082.458 1.255.386 2.326 1.057 3.213 2.015.889.958 1.559 2.125 2.011 3.502.453 1.378.668 3.072.645 5.084-.021 1.768-.258 3.288-.712 4.563-.555 1.556-1.336 2.812-2.344 3.767-.761.724-1.783 1.283-3.066 1.679-.961.292-2.242.428-3.843.409l-8.159-.094zm4.293 3.683l-.165 14.223 3.237.038c1.211.014 2.086-.044 2.625-.175.705-.168 1.292-.459 1.761-.873.469-.415.855-1.102 1.159-2.06.304-.959.466-2.268.485-3.928.019-1.66-.113-2.937-.396-3.828-.283-.891-.685-1.59-1.206-2.095-.521-.504-1.188-.849-1.995-1.033-.604-.144-1.79-.227-3.557-.247z"/>
              <path id="path401" d="M315.068 647.796l4.321-.357.96 11.591c.152 1.84.304 3.027.456 3.563.258.86.757 1.527 1.496 2 .739.474 1.713.659 2.92.56 1.227-.102 2.13-.429 2.712-.981.581-.553.904-1.199.971-1.939.067-.74.029-1.958-.111-3.651l-.979-11.839 4.321-.357.93 11.24c.213 2.569.247 4.395.101 5.475s-.502 2.011-1.069 2.793-1.358 1.433-2.374 1.953c-1.015.52-2.369.85-4.063.99-2.044.169-3.613.062-4.709-.323-1.095-.385-1.979-.929-2.655-1.632-.676-.704-1.146-1.461-1.408-2.272-.384-1.203-.675-3.001-.873-5.396z"/>
              <path id="path403" d="M366.036 654.167l4.392.413c-.135 2.428-.814 4.355-2.038 5.784-1.225 1.43-2.964 2.388-5.216 2.875-2.787.603-5.284.146-7.49-1.369-2.207-1.517-3.667-3.926-4.382-7.228-.756-3.494-.44-6.402.945-8.726 1.385-2.324 3.548-3.803 6.488-4.438 2.567-.556 4.817-.248 6.749.923 1.148.69 2.143 1.824 2.983 3.4l-3.978 1.91c-.484-1.034-1.188-1.781-2.111-2.241-.924-.459-1.949-.567-3.075-.323-1.556.337-2.697 1.168-3.424 2.494-.728 1.326-.82 3.24-.279 5.741.574 2.653 1.46 4.439 2.658 5.359 1.198.92 2.561 1.215 4.088.884 1.126-.243 2.018-.812 2.674-1.702.657-.891.996-2.143 1.016-3.756z"/>
              <path id="path405" d="M397.606 653.213l-4.499 1.416-3.253-4.09-8.188 2.578-.226 5.186-4.388 1.381 1.529-22.995 4.373-1.377zm-10.166-5.707l-5.216-6.712-.373 8.472z"/>
              <path id="path407" d="M403.32 651.081l-8.445-19.745 5.967-2.552 9.343 11.937-2.218-14.983 5.979-2.558 8.445 19.744-3.704 1.584-6.647-15.542 2.729 17.219-3.839 1.642-10.554-13.872 6.647 15.543z"/>
              <path id="path409" d="M429.671 639.251l-10.294-18.847 13.974-7.633 1.741 3.188-10.169 5.555 2.282 4.179 9.462-5.169 1.734 3.176-9.461 5.168 2.802 5.13 10.528-5.752 1.734 3.176z"/>
              <path id="path411" d="M450.458 627.52l-11.921-17.861 7.59-5.066c1.909-1.274 3.403-2.039 4.482-2.296 1.079-.257 2.152-.148 3.22.325s1.953 1.238 2.658 2.294c.895 1.34 1.239 2.71 1.034 4.109-.205 1.398-1.016 2.735-2.432 4.009 1.084-.065 2.061.005 2.932.21s2.2.715 3.988 1.529l4.507 2.028-4.313 2.879-5.201-2.146c-1.853-.771-3.07-1.223-3.653-1.356-.582-.134-1.109-.141-1.58-.02-.472.121-1.121.458-1.949 1.011l-.731.488 4.977 7.456zm-3.273-12.715l2.669-1.781c1.729-1.154 2.761-1.948 3.094-2.382.333-.434.503-.91.508-1.431.005-.52-.172-1.048-.529-1.584-.401-.602-.886-.979-1.453-1.135-.567-.156-1.176-.087-1.826.206-.319.154-1.21.72-2.672 1.695l-2.814 1.879z"/>
              <path id="path413" d="M464.104 605.397c-1.379-1.698-2.281-3.33-2.709-4.896-.31-1.156-.411-2.339-.303-3.546.108-1.207.421-2.291.938-3.251.682-1.282 1.701-2.475 3.059-3.576 2.457-1.993 5.041-2.827 7.753-2.5 2.712.328 5.169 1.849 7.372 4.563 2.185 2.692 3.162 5.393 2.933 8.1-.23 2.709-1.569 5.057-4.019 7.044-2.48 2.012-5.065 2.855-7.757 2.53-2.692-.325-5.113-1.813-7.267-4.468zm3.376-2.928c1.532 1.888 3.13 2.966 4.793 3.232 1.663.266 3.165-.145 4.508-1.234 1.342-1.089 2.051-2.466 2.127-4.131.076-1.665-.67-3.465-2.239-5.398-1.551-1.911-3.127-2.997-4.728-3.257-1.601-.261-3.096.172-4.483 1.299-1.388 1.126-2.12 2.51-2.197 4.15-.076 1.641.663 3.42 2.219 5.339z"/>
              <path id="path415" d="M477.265 580.305l3.098-3.034 8.138 8.311c1.291 1.318 2.167 2.136 2.626 2.451.748.498 1.557.693 2.429.585.871-.108 1.739-.586 2.604-1.434.879-.86 1.366-1.689 1.461-2.486.094-.796-.069-1.501-.491-2.113-.422-.611-1.227-1.524-2.416-2.739l-8.312-8.487 3.098-3.034 7.892 8.06c1.804 1.842 2.995 3.225 3.572 4.149.577.924.896 1.869.959 2.833.063.964-.131 1.97-.58 3.019-.45 1.048-1.281 2.167-2.496 3.355-1.465 1.436-2.741 2.354-3.83 2.757s-2.117.55-3.086.439c-.97-.11-1.814-.394-2.534-.851-1.063-.681-2.436-1.88-4.116-3.596z"/>
              <path id="path417" d="M510.304 577.484l-16.427-13.833 2.718-3.227 16.631 2.515-10.969-9.237 2.595-3.081 16.426 13.832-2.803 3.328-16.288-2.398 10.712 9.021z"/>
            </g>
            <g transform="translate(-.37909694)" id="g419">
              <path id="path421" d="M161.105 599.359l7.836-11.981 5.312 3.475c1.068.698 1.81 1.337 2.225 1.916.415.579.61 1.249.586 2.012-.024.762-.252 1.473-.683 2.132-.556.85-1.299 1.387-2.231 1.609-.932.224-2.024.038-3.277-.556.288.476.476.883.566 1.222.185.728.276 1.546.273 2.454l-.049 4.624-1.994-1.304.045-3.53c.007-1.021-.014-1.821-.064-2.399-.05-.577-.144-1.02-.281-1.327-.137-.307-.309-.571-.515-.792-.155-.155-.437-.367-.845-.634l-1.839-1.203-3.48 5.32zm5.963-5.656l3.408 2.229c.725.475 1.34.771 1.847.888.507.117.974.081 1.402-.11.428-.19.769-.479 1.022-.866.371-.566.469-1.167.297-1.801-.173-.634-.703-1.241-1.591-1.822l-3.792-2.48z"/>
              <path id="path423" d="M175 608.185l6.898-12.546 9.071 4.988-.814 1.48-7.411-4.075-2.113 3.843 6.94 3.815-.809 1.472-6.94-3.815-2.348 4.27 7.702 4.235-.814 1.48z"/>
              <path id="path425" d="M188.5 615.394l5.965-13.014 4.909 2.25c.864.396 1.505.74 1.923 1.032.59.399 1.033.848 1.328 1.345.295.496.451 1.074.467 1.733.016.66-.123 1.312-.419 1.957-.507 1.106-1.289 1.882-2.344 2.325-1.056.444-2.504.244-4.344-.6l-3.338-1.53-2.425 5.291zm4.851-6.038l3.365 1.542c1.113.511 1.998.666 2.655.466.657-.2 1.158-.676 1.503-1.428.25-.544.326-1.073.228-1.587s-.343-.937-.735-1.267c-.255-.21-.773-.494-1.554-.853l-3.329-1.525z"/>
              <path id="path427" d="M216.319 611.489l1.775.66-2.882 7.753c-.501 1.349-1.052 2.363-1.652 3.043-.6.68-1.391 1.12-2.372 1.321-.981.201-2.119.062-3.412-.419-1.257-.468-2.205-1.066-2.843-1.797-.638-.731-.976-1.57-1.012-2.518-.037-.948.209-2.133.738-3.555l2.883-7.753 1.776.66-2.879 7.744c-.433 1.165-.645 2.064-.633 2.697.011.633.225 1.197.642 1.692.417.495 1.006.885 1.77 1.168 1.306.485 2.346.536 3.122.15.776-.386 1.477-1.421 2.103-3.104z"/>
              <path id="path429" d="M217.923 627.146l4.021-13.74 5.155 1.509c1.05.307 1.851.692 2.404 1.156.553.464.924 1.037 1.114 1.72.19.684.193 1.341.008 1.972-.172.587-.493 1.094-.963 1.519-.47.426-1.074.703-1.811.834.759.486 1.277 1.09 1.552 1.808.275.718.295 1.477.061 2.276-.188.644-.499 1.202-.933 1.676-.434.474-.895.802-1.382.984-.488.183-1.056.263-1.703.239-.648-.023-1.409-.163-2.284-.419zm2.293-1.088l3.421 1.001c.587.172 1.006.271 1.256.296.44.048.827.025 1.16-.067.332-.093.638-.279.917-.561.279-.281.482-.641.61-1.078.15-.513.149-.996-.003-1.451-.152-.455-.438-.827-.858-1.116-.421-.289-1.069-.562-1.943-.817l-3.177-.93zm1.856-6.346l2.971.869c.806.236 1.399.353 1.781.349.502-.002.917-.129 1.245-.379.328-.25.562-.615.703-1.097.133-.456.142-.89.024-1.3-.117-.411-.36-.74-.729-.987-.369-.246-1.046-.515-2.034-.804l-2.746-.804z"/>
              <path id="path431" d="M232.706 631.276l3.172-13.96 1.847.419-2.797 12.313 6.875 1.563-.375 1.647z"/>
              <path id="path433" d="M245.923 634.093l2.573-14.083 1.864.341-2.573 14.083z"/>
              <path id="path435" d="M263.842 631.757l1.814.726c-.6 1.49-1.466 2.571-2.597 3.244s-2.436.91-3.913.712c-1.529-.204-2.731-.682-3.606-1.434-.875-.751-1.483-1.75-1.825-2.998-.342-1.248-.422-2.549-.241-3.904.198-1.478.653-2.729 1.365-3.753.712-1.025 1.627-1.753 2.746-2.185 1.118-.432 2.304-.563 3.556-.396 1.419.19 2.565.712 3.436 1.564.871.852 1.409 1.959 1.615 3.319l-1.907.188c-.191-1.077-.568-1.893-1.13-2.447-.563-.555-1.319-.896-2.267-1.023-1.091-.146-2.037-.006-2.839.418-.803.425-1.411 1.058-1.826 1.899-.415.841-.685 1.729-.81 2.665-.162 1.206-.127 2.283.104 3.23.231.947.688 1.693 1.37 2.238.683.544 1.456.874 2.321.99 1.052.141 1.983-.043 2.793-.553.809-.507 1.423-1.341 1.841-2.5z"/>
              <path id="path437" d="M276.63 631.01c.102-2.374.819-4.206 2.151-5.494 1.333-1.289 3.007-1.89 5.023-1.804 1.321.057 2.498.423 3.531 1.099 1.033.677 1.804 1.591 2.312 2.743.508 1.152.731 2.444.67 3.875-.062 1.45-.41 2.735-1.044 3.855-.634 1.12-1.501 1.951-2.599 2.494-1.099.542-2.269.787-3.511.734-1.346-.058-2.536-.435-3.568-1.131-1.032-.695-1.798-1.617-2.296-2.767-.5-1.147-.723-2.349-.669-3.604zm1.95.112c-.074 1.724.332 3.102 1.216 4.133.884 1.032 2.026 1.577 3.424 1.638 1.424.061 2.618-.39 3.582-1.353.963-.962 1.484-2.363 1.563-4.204.05-1.165-.104-2.189-.46-3.074-.356-.886-.903-1.583-1.641-2.094-.738-.511-1.578-.786-2.521-.826-1.34-.058-2.513.354-3.518 1.232s-1.553 2.396-1.645 4.548z"/>
              <path id="path439" d="M294.548 638.631l-.366-14.312 9.655-.247.044 1.688-7.762.199.113 4.432 6.717-.172.043 1.688-6.716.173.167 6.501z"/>
              <path id="path441" d="M325.982 632.076l1.928.319c-.266 1.584-.879 2.825-1.84 3.726-.96.9-2.183 1.412-3.669 1.536-1.537.129-2.813-.08-3.83-.625-1.016-.546-1.824-1.392-2.427-2.536-.602-1.146-.96-2.399-1.073-3.762-.124-1.485.051-2.806.526-3.959.475-1.153 1.213-2.062 2.213-2.723.999-.662 2.129-1.046 3.388-1.151 1.427-.119 2.657.145 3.691.789 1.034.646 1.797 1.611 2.29 2.896l-1.822.594c-.417-1.011-.961-1.727-1.63-2.147-.669-.42-1.479-.592-2.434-.512-1.097.092-1.991.431-2.684 1.019-.692.587-1.15 1.335-1.375 2.246-.225.91-.298 1.836-.219 2.776.102 1.214.366 2.258.796 3.134.43.875 1.035 1.506 1.819 1.891.783.386 1.609.542 2.479.469 1.057-.088 1.927-.468 2.609-1.139.684-.672 1.105-1.619 1.264-2.841z"/>
              <path id="path443" d="M331.013 636.629l3.471-14.938 2.021-.282 7.778 13.371-2.138.298-2.252-4.063-5.929.825-.959 4.512zm3.28-6.393l4.808-.67-2.027-3.721c-.617-1.13-1.089-2.063-1.415-2.8-.054.935-.183 1.872-.387 2.814z"/>
              <path id="path445" d="M347.707 634.204l-2.867-14.026 2.794-.571 5.351 9.253c.495.862.859 1.509 1.094 1.939.055-.543.15-1.344.287-2.401l1.363-10.445 2.497-.511 2.867 14.026-1.789.366-2.399-11.74-1.677 12.573-1.675.342-6.497-11.111 2.44 11.94z"/>
              <path id="path447" d="M366.025 630.231l-3.805-13.801 9.979-2.751.449 1.628-8.152 2.248 1.165 4.227 7.635-2.104.446 1.619-7.635 2.105 1.295 4.697 8.474-2.336.448 1.629z"/>
              <path id="path449" d="M380.794 626.004l-4.718-13.517 5.993-2.092c1.205-.42 2.163-.618 2.875-.595.712.024 1.362.278 1.952.762.589.484 1.014 1.098 1.273 1.842.335.959.307 1.876-.085 2.75-.392.874-1.204 1.627-2.439 2.258.553.063.991.161 1.314.297.689.297 1.394.724 2.111 1.279l3.636 2.858-2.25.785-2.771-2.188c-.806-.629-1.452-1.1-1.94-1.412-.488-.312-.896-.508-1.224-.587-.327-.078-.642-.104-.941-.074-.218.027-.558.122-1.019.282l-2.074.725 2.095 6.002zm-.847-8.175l3.845-1.342c.817-.286 1.428-.594 1.829-.923.402-.33.658-.723.769-1.179.109-.455.089-.901-.063-1.338-.224-.64-.639-1.084-1.247-1.334-.607-.249-1.412-.199-2.414.15l-4.278 1.492z"/>
              <path id="path451" d="M392.926 614.277c-.948-2.179-1.105-4.139-.472-5.881s1.875-3.016 3.726-3.821c1.212-.527 2.431-.713 3.655-.558 1.224.155 2.318.64 3.279 1.453.961.813 1.728 1.877 2.299 3.19.58 1.331.829 2.639.75 3.924-.08 1.284-.495 2.411-1.245 3.38-.75.969-1.694 1.701-2.835 2.197-1.235.538-2.47.721-3.703.547-1.232-.173-2.324-.667-3.275-1.481-.951-.814-1.677-1.797-2.179-2.95zm1.803-.753c.688 1.582 1.656 2.644 2.903 3.184s2.512.53 3.795-.028c1.308-.568 2.184-1.496 2.628-2.783.444-1.287.3-2.775-.436-4.465-.466-1.068-1.052-1.923-1.76-2.563-.708-.64-1.506-1.027-2.392-1.163-.887-.137-1.763-.017-2.628.36-1.23.535-2.104 1.418-2.623 2.648-.518 1.232-.348 2.835.513 4.81z"/>
              <path id="path453" d="M408.45 607.377c-1.12-2.096-1.434-4.037-.942-5.824s1.629-3.156 3.408-4.107c1.166-.623 2.366-.905 3.6-.849 1.234.056 2.361.452 3.385 1.187 1.023.733 1.872 1.732 2.548 2.996.684 1.28 1.037 2.563 1.061 3.851.024 1.288-.301 2.443-.971 3.469-.669 1.026-1.553 1.832-2.649 2.418-1.188.635-2.404.915-3.647.841-1.242-.074-2.37-.479-3.384-1.215-1.014-.737-1.817-1.659-2.409-2.767zm1.737-.895c.813 1.521 1.862 2.502 3.148 2.94 1.286.438 2.547.328 3.781-.332 1.258-.672 2.057-1.667 2.396-2.985.339-1.318.076-2.79-.792-4.415-.55-1.027-1.202-1.832-1.959-2.413-.758-.581-1.583-.904-2.478-.969-.895-.065-1.758.126-2.591.57-1.183.632-1.983 1.582-2.402 2.851-.417 1.268-.119 2.853.897 4.753z"/>
              <path id="path455" d="M427.607 604.797l-7.731-12.05 1.636-1.05 12.399 5.4-6.07-9.461 1.529-.98 7.73 12.049-1.636 1.05-12.403-5.408 6.074 9.469z"/>
            </g>
          </g>
        </g>
      </g>
      <g id="g2349" transform="translate(-2.591995)">
        <g transform="translate(.75059)" id="g2092" color="#000" font-style="normal" font-variant="normal" font-weight="400" font-stretch="normal" font-size="medium" font-family="sans-serif" letter-spacing="normal" word-spacing="normal" writing-mode="lr-tb" direction="ltr" dominant-baseline="auto" text-anchor="start" clip-rule="nonzero" visibility="visible" color-interpolation="sRGB" color-interpolation-filters="linearRGB" fill-opacity="1" fill-rule="nonzero" stroke-width="3" stroke-linecap="butt" stroke-linejoin="miter" stroke-miterlimit="4" stroke-dasharray="none" stroke-dashoffset="0" stroke-opacity="1" color-rendering="auto" image-rendering="auto" shape-rendering="auto" text-rendering="auto">
          <g id="g2084" stroke="none">
            <g id="g2073">
              <path id="path2065" d="M302.2559 188.80273h-66.39067c-13.99912 23.70837-32.07272 36.15235-54.15039 36.15235-14.5512 0-31.00384-5.30915-48.85937-15.91602-6.98568-4.14976-12.82411-8.27072-17.11719-11.30078-1.13752-.80266-2.29634-1.62072-3.3125-2.3164l-1.99805-1.36719-.33593 2.39648c-8.37373 59.80318-6.6914 116.02796 5.03515 167.16797 9.2178 40.20021 24.98862 77.01836 44.51367 103.76563 20.233 27.71618 47.6479 54.81277 81.47461 80.56835 27.20892 20.71758 50.83411 34.55215 59.75196 39.55274l.002.002 1.38672.76953z" style="line-height:normal;font-variant-ligatures:normal;font-variant-position:normal;font-variant-caps:normal;font-variant-numeric:normal;font-variant-alternates:normal;font-feature-settings:normal;text-indent:0;text-align:start;text-decoration-line:none;text-decoration-style:solid;text-decoration-color:#000;text-transform:none;text-orientation:mixed;white-space:normal;shape-padding:0;isolation:auto;mix-blend-mode:normal;solid-color:#000;solid-opacity:1" transform="translate(-1.5 -1.5)" text-decoration="none" baseline-shift="baseline" display="inline" overflow="visible" opacity="1" vector-effect="none" fill="#007a5e"/>
              <path style="line-height:normal;font-variant-ligatures:normal;font-variant-position:normal;font-variant-caps:normal;font-variant-numeric:normal;font-variant-alternates:normal;font-feature-settings:normal;text-indent:0;text-align:start;text-decoration-line:none;text-decoration-style:solid;text-decoration-color:#000;text-transform:none;text-orientation:mixed;white-space:normal;shape-padding:0;isolation:auto;mix-blend-mode:normal;solid-color:#000;solid-opacity:1" d="M300.7559 187.30273h66.39067c13.99912 23.70837 32.07272 36.15235 54.15039 36.15235 14.5512 0 31.00384-5.30915 48.85937-15.91602 6.98568-4.14976 12.82411-8.27072 17.11719-11.30078 1.13752-.80266 2.29634-1.62072 3.3125-2.3164l1.99805-1.36719.33593 2.39648c8.37373 59.80318 6.6914 116.02796-5.03515 167.16797-9.2178 40.20021-24.98862 77.01836-44.51367 103.76563-20.233 27.71618-47.6479 54.81277-81.47461 80.56835-27.20892 20.71758-50.83411 34.55215-59.75196 39.55274l-.002.002-1.38672.76953z" id="path2069" text-decoration="none" baseline-shift="baseline" display="inline" overflow="visible" opacity="1" vector-effect="none" fill="#fcd116"/>
            </g>
            <path style="line-height:normal;font-variant-ligatures:normal;font-variant-position:normal;font-variant-caps:normal;font-variant-numeric:normal;font-variant-alternates:normal;font-feature-settings:normal;text-indent:0;text-align:start;text-decoration-line:none;text-decoration-style:solid;text-decoration-color:#000;text-transform:none;text-orientation:mixed;white-space:normal;shape-padding:0;isolation:auto;mix-blend-mode:normal;solid-color:#000;solid-opacity:1" d="M443.37119 465.88477c-20.233 27.71618-47.6479 54.81277-81.47461 80.56835-27.20892 20.71758-50.83411 34.55215-59.75196 39.55274l-.002.002-1.38672.76953-1.38672-.76953-.002-.002c-8.91785-5.00059-32.54303-18.83516-59.75195-39.55274-33.82671-25.75558-61.24162-52.85217-81.47461-80.56835l142.61529-278.58204z" id="path2075" text-decoration="none" baseline-shift="baseline" display="inline" overflow="visible" opacity="1" vector-effect="none" fill="#ce1126"/>
          </g>
          <path style="line-height:normal;font-variant-ligatures:normal;font-variant-position:normal;font-variant-caps:normal;font-variant-numeric:normal;font-variant-alternates:normal;font-feature-settings:normal;text-indent:0;text-align:start;text-decoration-line:none;text-decoration-style:solid;text-decoration-color:#000;text-transform:none;text-orientation:mixed;white-space:normal;shape-padding:0;isolation:auto;mix-blend-mode:normal;solid-color:#000;solid-opacity:1" d="M235.86523 188.80273c-13.99912 23.70837-32.07272 36.15235-54.15039 36.15235-14.5512 0-31.00384-5.30915-48.85937-15.91602-6.98568-4.14976-12.82411-8.27072-17.11719-11.30078-1.13752-.80266-2.29634-1.62072-3.3125-2.3164l-1.99805-1.36719-.33593 2.39648c-8.37373 59.80318-6.6914 116.02796 5.03515 167.16797 9.2178 40.20021 24.98862 77.01836 44.51367 103.76563 20.233 27.71618 47.6479 54.81277 81.47461 80.56835 27.20892 20.71758 50.83411 34.55215 59.75196 39.55274l.002.002 1.38672.76953 1.38672-.76953.002-.002c8.91785-5.00059 32.54303-18.83516 59.75195-39.55274 33.82671-25.75558 61.24162-52.85217 81.47461-80.56835 19.52505-26.74727 35.29588-63.56542 44.51368-103.76563 11.72655-51.14001 13.40888-107.36479 5.03515-167.16797l-.33594-2.39648-1.99804 1.36719c-1.01616.69568-2.17498 1.51374-3.3125 2.3164-4.29308 3.03006-10.13151 7.15102-17.11719 11.30078-17.85553 10.60687-34.30818 15.91602-48.85937 15.91602-22.07767 0-40.15128-12.44398-54.1504-36.15235z" id="path2055" transform="translate(-1.5 -1.5)" text-decoration="none" baseline-shift="baseline" display="inline" overflow="visible" opacity="1" vector-effect="none" fill="none" stroke="#4d4d4d"/>
        </g>
        <g id="g2306">
          <g id="g331" fill-opacity="1">
            <path id="polygon333" fill="#fcd116" d="M276.627 253.591l16.262-2.354 7.282-14.731 1.346-2.725 1.343 2.727 7.264 14.738 16.26 2.372 3.007.437-2.178 2.122-11.774 11.464 2.77 16.193.515 2.998-2.69-1.416-14.542-7.654-14.548 7.637-2.692 1.414.516-2.995 2.787-16.195-11.76-11.475-2.175-2.122z"/>
            <path d="M301.514 237.169l7.613 15.446 17.039 2.485-12.338 12.013 2.902 16.975-15.238-8.022-15.247 8.005 2.92-16.971-12.325-12.027 17.042-2.467 7.632-15.437m.004-6.778l-2.693 5.449-6.931 14.024-15.481 2.241-6.016.871 4.351 4.245 11.196 10.925-2.653 15.417-1.031 5.991 5.382-2.826 13.85-7.272 13.843 7.288 5.379 2.832-1.024-5.992-2.637-15.42 11.208-10.913 4.355-4.241-6.016-.877-15.479-2.258-6.915-14.031z" id="path335" fill="none" stroke="#000" stroke-width="0" stroke-miterlimit="4" stroke-dasharray="none" stroke-opacity="1"/>
          </g>
          <g id="g2271" transform="translate(-.4935)">
            <g id="g1048" fill-opacity="1" stroke-opacity="1">
              <path d="M301.5 299.643c-4.5-.375-4.5-3.875-8 3.625-3.234 6.931-2.5 5 1.5 11.5s4-1.25 5 11.5 4 15-.5 21.5c-5.438 7.854-10.5 5.5-14 17s-7 15-10.5 25.5 0 14-7 23-19 17.5-29.5 21.5-9 2-18.5 12c-9.17 9.652-8 10.5-12.5 19s-4 9.5-7 12.5-4 1-2.5 8.5c2.287 11.436 12.5 4 16 10 9.083 15.572 10.5 6 13.5 13 7.661 17.876 4.5 17 12.5 17.5s6.5.5 16.5-1.5 4 .5 20-4 13.5-4.5 23-4.5-1.5-2 14 1.5 19 7.5 28.5 7.5 9.5 3.5 16 .5c6.307-2.911 6.5-7.5 7-15s-5.5-14.5-11.5-17-12.5-2-19-5.5-8.5-3-7.5-10 1.5-12.5 2.5-18-.5-10.5 1-18 .5-8.5 2-17.5 2-12 2.5-15.5 3.5-3 1-11 2-4-7.5-9.5c-9.169-5.309-11-1.5-13.5-11-3.474-13.198-4-9-2-13.5 2.445-5.502 7-3.5 10-6s6.5-5 3.5-9-6-7-7-12-.5-7-3-10.5-3-4-4-9 0-5.5-3-9.5-8-9.625-8-9.625z" id="path337" fill="#3f4e8f" stroke="#273157" stroke-width="2"/>
              <path style="line-height:normal;font-variant-ligatures:normal;font-variant-position:normal;font-variant-caps:normal;font-variant-numeric:normal;font-variant-alternates:normal;font-feature-settings:normal;text-indent:0;text-align:start;text-decoration-line:none;text-decoration-style:solid;text-decoration-color:#000;text-transform:none;text-orientation:mixed;white-space:normal;shape-padding:0;isolation:auto;mix-blend-mode:normal;solid-color:#000;solid-opacity:1" d="M298.89844 305.89258c1.51468 1.73826 3.76238 4.25674 5.80078 6.97461 1.236 1.648 1.08391 1.53284 1.16797 1.95312.084.42028.16703 2.21014.75 5.125 1.06034 5.30172 2.56283 7.89852 5 11.31055.82585 1.15619.85862 1.35754 1.0625 2.37695.20388 1.01941.36961 2.97307.9375 5.8125 1.26117 6.30588 4.73915 10.11847 7.4082 13.53125-.43025.4122-.74981.7505-1.86719 1.68164.2524-.21033-.35841-.014-2.95508.69922-2.59666.71326-6.79186 3.21326-8.68554 7.47461-.39903.89781-.61722 1.12628-1.11133 2.36524-.49411 1.23895-.57118 3.9481-.25 5.13085.64236 2.36551 1.36285 3.59133 3.04102 9.9668.69598 2.64475 1.37541 4.6985 2.5957 6.64258 1.22029 1.94408 3.24146 3.5522 4.9082 4.33398 3.33348 1.56357 4.89683 1.43353 8.79297 3.68946 1.96963 1.14031 3.01686 1.68946 3.94336 2.18945.16528 1.09956.29556 2.17898.83594 3.9082 1.05681 3.3818.68582 3.4148.74414 3.26172.0583-.15307-1.46379 1.6469-1.95703 5.09961-.48869 3.42081-.97852 6.36133-2.47852 15.36133-.79147 4.74882-.95016 7.67956-1.07422 9.97461-.12405 2.29504-.20097 3.88765-.89062 7.33594-1.75143 8.75715-.32292 14.27216-1.01953 18.10351-1.06297 5.84632-1.55974 11.383-2.53711 18.22461-.28819 2.01729-.45494 3.77631-.15821 5.75977.29674 1.98346 1.38047 4.23007 2.79297 5.64258 2.82501 2.82501 5.04213 3.15684 7.96094 4.72851 8.18017 4.40471 15.21745 3.95682 19.53516 5.75586 3.64042 1.51684 8.09386 6.98852 7.82226 11.0625-.25199 3.77992-.5343 6.36763-.96875 7.55078-.43445 1.18316-.47318 1.43787-2.55859 2.40039-2.44391 1.12796-1.41986.87355-2.90625.50196-1.4864-.3716-5.09324-1.55469-10.58008-1.55469-3.90789 0-6.11069-.6968-9.9707-2.08399-3.86001-1.38719-9.07265-3.43078-17.20703-5.26757-3.84603-.86846-6.01458-1.38787-7.33985-1.69922-1.32526-.31136-1.15204-.94081-4.21875-.42969-1.53335.25556-2.66185 1.08695-2.35742.90234.30443-.1846.99487-.46156 1.19336-.50976.39697-.0964-.43514.0879-2.59961.0879-4.75 0-7.22834.018-10.34961.70312-3.12127.68516-6.3538 1.79354-14.27539 4.02149-7.9094 2.22452-10.03528 2.61643-11.26367 2.74804-1.2284.13162-3.04197.0955-8.28711 1.14454-10.11315 2.02262-6.90262 1.89744-14.94922 1.39453-1.32202-.0826-1.44402-.0967-1.90039-.13672-.41655-.99062-1.78002-5.15388-5.45899-13.73828-1.01239-2.36226-2.62847-4.70673-5.04296-5.85157-2.4145-1.14483-3.55576-.90834-3.59766-.91796-.0419-.01.14759.23674-.69531-.57422-.8429-.81097-2.39435-2.71314-4.4961-6.31641-1.78671-3.06293-5.12364-4.78985-7.55468-5.32226-2.43104-.53242-4.27949-.46656-5.5-.58594-1.22052-.11939-1.55104-.31955-1.54688-.31641.004.003-.32038-.0334-.69922-1.92773-.22282-1.11414-.25899-1.4822-.34961-2.07618.43658-.35184.69987-.49674 1.20899-1.00585 1.85355-1.85356 3.16925-3.88985 4.10156-5.82618.93231-1.93633 1.7975-4.02462 3.95898-8.10742 4.77843-9.02591 2.67328-8.33576 11.54688-17.67578 9.44208-9.93903 5.343-6.3562 16.28711-10.52539 11.72131-4.46526 24.18342-13.24587 32.09961-23.42383 4.02893-5.18006 5.51605-9.97952 6.02539-13.83594.50934-3.85641.43267-6.45816 1.92969-10.94921 3.24701-9.74106 6.82315-13.40889 10.54882-25.6504 1.48221-4.87009 2.34399-5.43948 4.18946-6.85742 1.84547-1.41794 5.6292-3.60059 9.0039-8.47461 2.78961-4.02943 3.74264-8.67832 3.34571-12.44921-.39694-3.7709-1.3313-6.9994-1.79688-12.93555-.2537-3.23474-.42578-5.18067-.71094-6.82031-.14257-.81983-.29659-1.58978-.70898-2.56836-.41239-.97859-1.31124-2.26517-2.33789-3.03516-2.0533-1.53998-1.90691-1.07935-1.56055-.84766.34637.23169.1664.26746-.55468-.90429-1.03166-1.67645-1.70871-2.85113-2.17188-3.5918.24828-.56764.44287-1.02723.96094-2.13867z" id="path1042" color="#000" font-style="normal" font-variant="normal" font-weight="400" font-stretch="normal" font-size="medium" font-family="sans-serif" text-decoration="none" letter-spacing="normal" word-spacing="normal" writing-mode="lr-tb" direction="ltr" dominant-baseline="auto" baseline-shift="baseline" text-anchor="start" clip-rule="nonzero" display="inline" overflow="visible" visibility="visible" opacity="1" color-interpolation="sRGB" color-interpolation-filters="linearRGB" vector-effect="none" fill="#4b5eab" fill-rule="nonzero" stroke="none" stroke-width="12" stroke-linecap="butt" stroke-linejoin="miter" stroke-miterlimit="4" stroke-dasharray="none" stroke-dashoffset="0" color-rendering="auto" image-rendering="auto" shape-rendering="auto" text-rendering="auto"/>
            </g>
            <g id="g2240">
              <g id="g2197" transform="matrix(-1 0 0 1 604.21815 0)">
                <path id="line361" fill="#000" stroke="#120b15" stroke-width="6.19983864" d="M233.43283 344.70499h137.57062"/>
                <g id="g2175" stroke-opacity="1">
                  <g id="g2137">
                    <g id="g2127" stroke="#120b15" fill="none" stroke-width="3" stroke-linecap="butt" stroke-linejoin="miter" stroke-miterlimit="4" stroke-dasharray="none">
                      <path id="path2118" d="M235.833 344.70499V482.373"/>
                      <path d="M235.833 344.70499l-38.05393 136.5925" id="path2120"/>
                      <path id="path2122" d="M235.833 344.70499l38.05393 136.5925"/>
                    </g>
                    <g id="g2107" fill-opacity="1">
                      <path d="M273.833 482.373c0 12.334-17.013 22.332-38 22.332s-38-9.998-38-22.332z" id="path343" fill="#ccc" stroke="#4d4d4d" stroke-width="3"/>
                      <path style="line-height:normal;font-variant-ligatures:normal;font-variant-position:normal;font-variant-caps:normal;font-variant-numeric:normal;font-variant-alternates:normal;font-feature-settings:normal;text-indent:0;text-align:start;text-decoration-line:none;text-decoration-style:solid;text-decoration-color:#000;text-transform:none;text-orientation:mixed;white-space:normal;shape-padding:0;isolation:auto;mix-blend-mode:normal;solid-color:#000;solid-opacity:1" d="M201.98047 485.87305h67.70508c-1.21196 3.34449-4.14515 6.56381-8.75586 9.27343-6.20616 3.64723-15.15995 6.0586-25.09766 6.0586-9.93771 0-18.88954-2.41137-25.0957-6.0586-4.61072-2.70962-7.5439-5.92894-8.75586-9.27343z" id="path1034" color="#000" font-style="normal" font-variant="normal" font-weight="400" font-stretch="normal" font-size="medium" font-family="sans-serif" text-decoration="none" letter-spacing="normal" word-spacing="normal" writing-mode="lr-tb" direction="ltr" dominant-baseline="auto" baseline-shift="baseline" text-anchor="start" clip-rule="nonzero" display="inline" overflow="visible" visibility="visible" opacity="1" color-interpolation="sRGB" color-interpolation-filters="linearRGB" vector-effect="none" fill="#e6e6e6" fill-rule="nonzero" stroke="none" stroke-width="7" stroke-linecap="butt" stroke-linejoin="miter" stroke-miterlimit="4" stroke-dasharray="none" stroke-dashoffset="0" color-rendering="auto" image-rendering="auto" shape-rendering="auto" text-rendering="auto"/>
                      <path style="line-height:normal;font-variant-ligatures:normal;font-variant-position:normal;font-variant-caps:normal;font-variant-numeric:normal;font-variant-alternates:normal;font-feature-settings:normal;text-indent:0;text-align:start;text-decoration-line:none;text-decoration-style:solid;text-decoration-color:#000;text-transform:none;text-orientation:mixed;white-space:normal;shape-padding:0;isolation:auto;mix-blend-mode:normal;solid-color:#000;solid-opacity:1" d="M208.95703 489.37305h53.75195c-1.03431.93-2.04218 1.86814-3.55273 2.75586-5.51937 3.24361-13.95269 5.57617-23.32422 5.57617s-17.80262-2.3324-23.32226-5.57617c-1.51056-.88772-2.51843-1.82586-3.55274-2.75586z" id="path1038" color="#000" font-style="normal" font-variant="normal" font-weight="400" font-stretch="normal" font-size="medium" font-family="sans-serif" text-decoration="none" letter-spacing="normal" word-spacing="normal" writing-mode="lr-tb" direction="ltr" dominant-baseline="auto" baseline-shift="baseline" text-anchor="start" clip-rule="nonzero" display="inline" overflow="visible" visibility="visible" opacity="1" color-interpolation="sRGB" color-interpolation-filters="linearRGB" vector-effect="none" fill="#fff" fill-rule="nonzero" stroke="none" stroke-width="7" stroke-linecap="butt" stroke-linejoin="miter" stroke-miterlimit="4" stroke-dasharray="none" stroke-dashoffset="0" color-rendering="auto" image-rendering="auto" shape-rendering="auto" text-rendering="auto"/>
                    </g>
                  </g>
                  <g id="g2155" transform="matrix(-1 0 0 1 604.4363 0)">
                    <g id="g2145" stroke="#120b15" fill="none" stroke-width="3" stroke-linecap="butt" stroke-linejoin="miter" stroke-miterlimit="4" stroke-dasharray="none">
                      <path d="M235.833 344.70499V482.373" id="path2139"/>
                      <path id="path2141" d="M235.833 344.70499l-38.05393 136.5925"/>
                      <path d="M235.833 344.70499l38.05393 136.5925" id="path2143"/>
                    </g>
                    <g id="g2153" fill-opacity="1">
                      <path id="path2147" d="M273.833 482.373c0 12.334-17.013 22.332-38 22.332s-38-9.998-38-22.332z" fill="#ccc" stroke="#4d4d4d" stroke-width="3"/>
                      <path id="path2149" d="M201.98047 485.87305h67.70508c-1.21196 3.34449-4.14515 6.56381-8.75586 9.27343-6.20616 3.64723-15.15995 6.0586-25.09766 6.0586-9.93771 0-18.88954-2.41137-25.0957-6.0586-4.61072-2.70962-7.5439-5.92894-8.75586-9.27343z" style="line-height:normal;font-variant-ligatures:normal;font-variant-position:normal;font-variant-caps:normal;font-variant-numeric:normal;font-variant-alternates:normal;font-feature-settings:normal;text-indent:0;text-align:start;text-decoration-line:none;text-decoration-style:solid;text-decoration-color:#000;text-transform:none;text-orientation:mixed;white-space:normal;shape-padding:0;isolation:auto;mix-blend-mode:normal;solid-color:#000;solid-opacity:1" color="#000" font-style="normal" font-variant="normal" font-weight="400" font-stretch="normal" font-size="medium" font-family="sans-serif" text-decoration="none" letter-spacing="normal" word-spacing="normal" writing-mode="lr-tb" direction="ltr" dominant-baseline="auto" baseline-shift="baseline" text-anchor="start" clip-rule="nonzero" display="inline" overflow="visible" visibility="visible" opacity="1" color-interpolation="sRGB" color-interpolation-filters="linearRGB" vector-effect="none" fill="#e6e6e6" fill-rule="nonzero" stroke="none" stroke-width="7" stroke-linecap="butt" stroke-linejoin="miter" stroke-miterlimit="4" stroke-dasharray="none" stroke-dashoffset="0" color-rendering="auto" image-rendering="auto" shape-rendering="auto" text-rendering="auto"/>
                      <path id="path2151" d="M208.95703 489.37305h53.75195c-1.03431.93-2.04218 1.86814-3.55273 2.75586-5.51937 3.24361-13.95269 5.57617-23.32422 5.57617s-17.80262-2.3324-23.32226-5.57617c-1.51056-.88772-2.51843-1.82586-3.55274-2.75586z" style="line-height:normal;font-variant-ligatures:normal;font-variant-position:normal;font-variant-caps:normal;font-variant-numeric:normal;font-variant-alternates:normal;font-feature-settings:normal;text-indent:0;text-align:start;text-decoration-line:none;text-decoration-style:solid;text-decoration-color:#000;text-transform:none;text-orientation:mixed;white-space:normal;shape-padding:0;isolation:auto;mix-blend-mode:normal;solid-color:#000;solid-opacity:1" color="#000" font-style="normal" font-variant="normal" font-weight="400" font-stretch="normal" font-size="medium" font-family="sans-serif" text-decoration="none" letter-spacing="normal" word-spacing="normal" writing-mode="lr-tb" direction="ltr" dominant-baseline="auto" baseline-shift="baseline" text-anchor="start" clip-rule="nonzero" display="inline" overflow="visible" visibility="visible" opacity="1" color-interpolation="sRGB" color-interpolation-filters="linearRGB" vector-effect="none" fill="#fff" fill-rule="nonzero" stroke="none" stroke-width="7" stroke-linecap="butt" stroke-linejoin="miter" stroke-miterlimit="4" stroke-dasharray="none" stroke-dashoffset="0" color-rendering="auto" image-rendering="auto" shape-rendering="auto" text-rendering="auto"/>
                    </g>
                  </g>
                </g>
              </g>
              <g id="g2213" transform="matrix(-1 0 0 1 604 0)">
                <path id="path2199" d="M288 537.26794l14 9.87606 14-9.87606L302 290.142z" fill="#000" fill-opacity="1" stroke="#120b15" stroke-width="6" stroke-linecap="butt" stroke-linejoin="miter" stroke-miterlimit="4" stroke-dasharray="none" stroke-opacity="1"/>
                <path id="path2109" d="M262.5 516.57766c5.677-4.825 26.08236-10.40065 39.5-10.40065 13.41764 0 33.823 5.57565 39.5 10.40065" fill="none" stroke="#120b15" stroke-width="10"/>
                <path transform="rotate(45)" id="rect2208" opacity=".98999999" fill="#120b15" fill-opacity="1" stroke="none" stroke-width="7.46806192" stroke-linecap="round" stroke-linejoin="round" stroke-miterlimit="4" stroke-dasharray="none" stroke-opacity="1" paint-order="normal" d="M598.76019 171.66769h23.112194v23.112194H598.76019z"/>
              </g>
            </g>
          </g>
        </g>
      </g>
    </g>
  </g>
</svg>
