<svg xmlns="http://www.w3.org/2000/svg" xmlns:xlink="http://www.w3.org/1999/xlink" version="1.1" id="svg382" viewBox="0 0 313.7 382.98">
  <clipPath id="c">
    <path d="M0 0v150h700v150H600zm600 0H300v350H0v-50z" id="path4"/>
  </clipPath>
  <g transform="translate(-743.1525 -108.51)" id="g380" stroke-width="1.4377">
    <g id="motto" stroke="#000">
      <g id="g13" fill="#fcea83">
        <path d="M754.42 449.56c2.8754 7.6678 23.482 17.732 47.444 4.7924 16.294-9.1055 26.837-22.045 36.901-45.048 2.8753-5.7508 4.313-12.939-2.3962-17.252-5.2716-3.8339-13.898-8.147-17.732-11.981-1.9169-1.9169-3.8339-3.3546-5.2716-4.7924.95845.95848 1.9169 1.917 2.8754 3.3546 9.5847 11.502-.47923 28.275-11.022 38.339-7.6677 7.1885-21.566 24.92-41.693 8.147-4.3131-3.8339-14.377 11.981-9.1055 24.441z" id="path7"/>
        <path d="M1045.8 449.56c-3.3547 7.6678-23.962 17.732-47.444 4.7924-16.294-9.1055-26.837-22.045-37.38-45.048-2.3962-5.7508-3.8339-12.939 2.8753-17.252 5.2716-3.8339 13.898-8.147 17.732-11.981 1.917-1.9169 3.3547-3.3546 5.2716-4.7924-.95845.95848-1.9169 1.917-2.8754 3.3546-9.5847 11.502.47923 28.275 10.543 38.339 7.6677 7.1885 22.045 24.92 42.173 8.147 4.3132-3.8339 13.898 11.981 9.1055 24.441z" id="path9"/>
        <path d="M900.1 490.78c38.339 0 97.285-17.252 128.91-77.636 5.2716-10.064 0-15.336-6.23-18.69-6.7093-2.8754-14.856-9.5847-19.169-13.898 7.6677 7.6678 6.2301 12.939.9585 21.566-24.441 40.735-57.988 61.342-104.47 61.342-46.486 0-80.032-20.607-104.47-61.342-5.2716-8.6262-6.7094-13.898.47922-21.566-3.8339 4.3131-12.46 11.022-19.17 13.898-6.23 3.3546-11.502 8.6262-6.23 18.69 31.63 60.384 91.055 77.636 129.39 77.636z" id="path11"/>
      </g>
      <g id="g23" fill="#db161c">
        <path d="M811.45 409.79c-.95847-4.7924-7.1885-2.8754-9.1055 2.8754-2.3962-3.3546-4.7924-6.7093-6.7093-10.543-5.7508-8.6262-6.7093-14.377 1.4377-22.524 3.8339-3.8339 11.502-8.147 16.773-3.3546 11.022 9.1055 5.2716 23.962-2.3962 33.546z" id="path15"/>
        <path d="M988.28 409.79c.95847-4.7924 7.6678-2.8754 9.5847 2.8754 2.3962-3.3546 4.7924-6.7093 6.7093-10.543 5.7509-8.6262 6.7093-14.377-1.9169-22.524-3.3547-3.8339-11.022-8.147-16.773-3.3546-10.543 9.1055-5.2716 23.962 2.3962 33.546z" id="path17"/>
        <path d="M754.42 449.56c-4.7924-7.1885-8.6262-25.879-9.5847-30.671-1.4377-4.3131-1.9169-8.147 3.3546-10.064 5.2716-1.9169 10.064 4.7924 12.46 10.543 2.3962 5.7508 6.2301 14.377 10.543 24.92-10.543-6.2301-19.169-1.917-16.773 5.2716z" id="path19"/>
        <path d="M1045.8 449.56c4.3131-7.1885 8.147-25.879 9.5847-30.671.9585-4.3131 1.9169-8.147-3.3547-10.064-5.2715-1.9169-10.064 4.7924-12.46 10.543-2.3962 5.7508-6.23 14.377-10.543 24.92 10.543-6.2301 18.69-1.917 16.773 5.2716z" id="path21"/>
      </g>
      <g id="g77" fill="#00493d" stroke="none">
        <path d="M782.21 406.43l-3.8339 1.9169c-.95847.47924-.95847 1.4377-.95847 1.917h-.47923l-1.9169-4.3131h.47923c0 .47923.47924.95847 1.4377.47923l8.147-4.3131c.95847-.47923.95847-.95847.47923-1.4377l.47924-.47924 2.3962 4.7924h-.47924c-.47923-.47924-.95847-.95847-1.9169-.47924l-3.3546 1.9169 1.4377 2.8754 3.8339-1.4377c.95847-.47924.47924-1.4377.47924-1.9169h.47923l1.9169 4.3131c-.47923-.47924-.95847-.95847-1.9169-.47924l-8.147 4.3131c-.95847.47923-.95847.95847-.47923 1.4377l-.47924.47924-2.3962-4.3131.47924-.47923c.47923.47923.95847.95847 1.9169.47923l3.8339-1.9169z" id="path25"/>
        <path d="M790.36 412.66c.95847-.47923.95847-.95847.47923-1.9169h.47924l4.7924 7.1885-3.3546 2.3962v-.47924c1.917-1.4377 1.917-3.3546 1.4377-3.8339-.47923-.47924-.95847-.95847-.95847-1.4377-.47924 0-.47924-.47923-1.4377.47924-.47923.47923-3.3546 2.3962-3.3546 2.3962.47923.47923.95847 1.9169 3.3546.47923h.47924l-5.2716 3.8339v-.47923c2.3962-1.9169 1.4377-3.3546.95847-3.8339l-3.3546 2.3962c-.95847.47924-.95847.95847-.95847 1.4377.47924 0 .47924.47923.95847.95847.47924.95847 1.917 1.9169 4.3131.95847l.47924.47924-3.8339 1.4377-4.7924-7.6678h.47924c.47923.47923.95847.95847 1.9169.47923z" id="path27"/>
        <path d="M798.03 430.87l-3.3546 2.8754c-.47924.47923-.47924 1.4377 0 1.9169h-.47924l-3.3546-3.3546.47924-.47923c.47923.47923.95847.95847 1.9169 0l6.2301-6.2301c.95847-.47924.95847-.95847.47924-1.9169l3.3546 3.8339c-.47923-.47924-1.4377-.47924-1.9169 0l-2.8754 2.8754 2.3962 2.3962 2.8754-2.3962c.95847-.95847.47923-1.4377 0-1.9169l.47923-.47924 3.3546 3.8339h-.47923c-.47924 0-.95848-.47924-1.917.47923l-6.2301 5.7508c-.95847.95847-.95847 1.4377-.47923 1.9169v.47923l-3.3546-3.8339c.47924 0 1.4377.47924 1.9169 0l3.3546-3.3546z" id="path29"/>
        <path d="M805.22 440.94l1.4377 1.4377 1.9169-4.3131s-1.4377.47923-3.8339 1.9169l.47923.95847-.47923.47923-.95847-.95847c-.47924.47924-.95847.47924-1.4377.95847-1.4377.95847-.95847 1.4377-.47923 1.9169v.47924l-2.3962-2.3962h.47924l1.9169-.47923 9.5847-5.2716.47924.47923s-.47924.47924-4.7924 10.064c0 .95847-.47924 1.4377 0 2.3962l-3.8339-3.3546.47924-.47924c.47923.95847 1.4377.95847 1.9169 0 0-.47923.47923-1.4377.47923-1.9169l-1.4377-1.4377.47923-.47923z" id="path31"/>
        <path d="M809.05 450.52l.47923-.47924c.47924.47924.95847.47924 1.9169 0l6.2301-8.147-.47923-.47924c-.95847-.47923-2.3962-.47923-3.8339.95847v-.47923l1.9169-2.3962 7.1885 5.2716-2.3962 2.8754h-.47924c1.4377-1.4377.95848-3.3546 0-3.8339v-.47924l-6.23 8.147c-.95848.47923-.47924 1.4377 0 1.9169h-.47924z" id="path33"/>
        <path d="M821.51 452.44l-2.3962 3.3546c-.47924.95847 0 1.4377.47923 1.917l-.47923.47923-3.8339-2.8754v-.47924c.95847.47924 1.4377.47924 1.9169-.47923l5.2716-7.1885c.47923-.95847 0-1.4377-.47924-1.9169l.47924-.47924 3.8339 2.8754v.47924c-.95847-.47924-1.4377-.47924-1.9169.47923l-2.3962 3.3546 2.8754 1.9169 2.3962-3.3546c.47924-.95848 0-1.4377-.47924-1.917l.47924-.47923 3.8339 2.8754v.47924c-.47923-.47924-1.4377-.47924-1.9169.47923l-4.7924 7.6678c-.95847.47923-.47924.95847 0 1.4377v.47924l-4.3131-2.8754h.47924c.47923 0 .95847 0 1.4377-.47924l2.3962-3.8339z" id="path35"/>
        <path d="M831.1 465.86l.47924-.47924c.47923.47924 1.4377.47924 1.9169-.47923l3.8339-8.147c.47924-.95847 0-1.4377-.47923-1.9169l8.147 3.8339-1.9169 3.8339-.47924-.47924c1.4377-1.9169 0-3.8339-.47923-4.3131-.47924 0-.95847-.47924-1.4377-.47924s-.47924 0-.95847.95847c-.47924.47924-1.9169 3.3546-1.9169 3.3546.47923.47923 1.4377 1.4377 3.3546-.95847h.47923l-2.8754 5.7508-.47924-.47923c1.4377-2.8754-.47923-3.3546-.95847-3.3546l-1.9169 3.8339c-.47923.95847 0 1.4377.47924 1.4377v.47923z" id="path37"/>
        <path d="M844.99 472.57c-1.4377-.95847-1.4377-3.8339 0-6.7093.95847-2.8754 2.8754-5.2716 4.7924-4.3131 1.4377.47923.95847 3.3546 0 6.2301-1.4377 3.3546-3.3546 5.2716-4.7924 4.7924h-.47924c3.3546 1.4377 5.7508-.47923 7.1885-3.8339 1.4377-2.8754.95847-6.2301-1.9169-7.6678-2.8754-1.4377-5.7508.47924-7.1885 3.8339-1.4377 3.3546-.95847 6.7093 1.9169 7.6678z" id="path39"/>
        <path d="M859.85 473.52l1.917-5.7508c.47923-.95847 0-1.4377-.47924-1.9169l2.3962.47923v.47924c-.47924 0-.95847 0-1.4377.95847l-1.9169 5.7508c-.95847 2.3962-2.3962 4.3131-5.2716 3.3546-1.9169-.47924-3.3546-2.8754-2.3962-5.2716l2.3962-6.2301c.47924-.95847 0-1.4377-.47923-1.9169v-.47924l4.3131 1.917v.47923c-.47923-.47923-1.4377-.47923-1.4377.47924l-2.3962 6.2301c-.47923 1.9169-.47923 3.8339.95847 4.3131 1.4377.47924 2.8754-.47923 3.8339-2.8754z" id="path41"/>
        <path d="M864.16 467.3c0-.47923 0-.47923-.47923-.47923l3.3546.47923 2.8754 9.1055 1.4377-5.7508c.47924-.95847 0-1.4377-.47923-1.9169l2.8754.47923-.47924.47924c-.47923 0-.95847 0-1.4377.95847l-2.3962 10.543h-.47923l-3.8339-11.502-2.3962 7.6678c0 1.4377.47923 1.4377.95847 1.917v.47923l-2.8754-.95847v-.47923c.47924.47923 1.4377 0 1.4377-.95848l2.3962-8.6262-.47924-1.4377z" id="path43"/>
        <path d="M880.46 476.88c-.95847 4.3131-2.8754 5.2716-3.8339 5.2716h-.95847s-.47923-.47924 0-.95847l1.4377-9.5847c.47923-.47923.47923-.95847.95847-.47923h.95847c.95847 0 1.9169 1.9169 1.4377 5.7508l1.4377.47923c.95847-4.7924-.95847-6.7093-3.3546-7.1885-1.9169-.47923-4.7924-.95847-4.7924-.95847v.47924c.47923.47923 1.4377.47923.95847 1.9169l-1.4377 8.6262c-.47923.95847-.95847 1.4377-1.4377 1.4377h-.47924l4.7924.95847c2.3962.47924 4.7924 0 5.7508-5.2716z" id="path45"/>
        <path d="M884.77 473.05c0-.95847-.95847-1.4377-1.4377-1.4377v-.47923l8.6262.95847-.47923 3.8339c0-2.3962-1.4377-3.3546-2.3962-3.3546-.47923-.47923-.95847-.47923-1.4377-.47923-.47923 0-.47923 0-.47923 1.4377 0 .47924-.47924 3.8339-.47924 3.8339.47924 0 1.917.47924 2.8754-2.3962l-.47924 6.2301h-.47923c0-2.8754-1.4377-2.8754-1.917-2.8754l-.47923 4.3131c0 .95847 0 .95847.47923.95847l.95847.47924c1.4377 0 2.8754-.47924 3.8339-3.3546h.47923l-.95847 3.8339-9.1055-.95848c.95847 0 1.4377-.47923 1.9169-1.4377z" id="path47"/>
        <path d="M900.58 478.8c0 4.3131-1.4377 5.7508-2.8754 5.7508-.47924-.47924-.47924-.47924-.95847-.47924l-.47924-.47924.47924-10.064c0-.47923 0-.47923.47923-.47923h.95847c.95847 0 2.3962 1.4377 2.3962 5.7508h1.9169c0-4.7924-2.3962-6.2301-4.7924-6.2301-1.9169-.47923-4.7924-.47923-4.7924-.47923v.47923c.47924 0 1.4377.47924 1.4377 1.4377l-.47924 9.1055c0 .95847-.47923 1.4377-.95847 1.4377v.47923h4.3131c2.3962 0 4.7924-.95847 5.2716-6.2301h-1.9169z" id="path49"/>
        <path d="M914.48 482.63c0 .95847.47924.95847 1.4377.95847v.47924l-5.2716.47924c.47924-.47924 1.4377-.95848 1.4377-1.917l-.95847-9.1055c-.47924-.95847-.95847-.95847-1.9169-.95847v-.47923l5.2716-.47924c-.47923.47924-1.4377.95847-.95847 1.9169z" id="path51"/>
        <path d="M919.27 483.59v-.47923c.47923 0 .95847-.47924.95847-1.4377l-1.9169-10.064h-.47924c-.95847.47924-1.9169 1.4377-1.4377 3.3546h-.47924l-.47924-3.3546 8.6262-1.4377.47924 3.3546h-.47924c0-1.9169-1.4377-2.3962-2.8754-2.3962h-.47924l1.9169 10.064c0 .95847.47924 1.4377 1.4377 1.4377v.47924z" id="path53"/>
        <path d="M939.88 474l-1.9169-5.7508c0-.95847-.95847-.95847-1.4377-.95847v-.47923l2.3962-.95847v.47923c-.47924.47924-.47924.47924-.47924 1.4377l1.9169 6.2301c.47924 1.9169.47924 4.7924-2.3962 5.7508-1.917.47924-4.3131-.47923-4.7924-3.3546l-1.9169-6.2301c-.47923-.95847-.95847-.95847-1.4377-.95847l-.47924-.47923 4.7924-1.4377v.47924c-.47923.47923-.95847.95847-.47923 1.9169l1.4377 6.2301c.47924 1.9169 1.917 2.8754 3.3546 2.8754 1.4377-.47923 1.9169-2.3962 1.4377-4.7924z" id="path55"/>
        <path d="M945.15 470.65c2.3962-.95847 1.9169-2.3962 1.4377-3.8339-.47923-1.4377-1.4377-2.3962-2.3962-1.9169-.47924 0-.95848.47923-.47924.95847l1.4377 4.7924.47923.47924.95847 3.8339c.47924.95847 1.4377.95847 1.9169.47923v.47924l-4.3131 1.9169-.47924-.47924c.95847-.47923.95847-.95847.95847-1.9169l-3.3546-8.147c-.47923-1.4377-.95847-.95847-1.9169-.95847v-.47923l4.7924-1.9169c1.9169-.47924 3.8339 0 4.7924 1.9169.47923 2.3962-.47924 3.8339-2.3962 4.7924-.47923 0-.95847.47924-.95847.47924z" id="path57"/>
        <path d="M957.13 472.09c-1.4377.47923-3.3546-1.4377-4.7924-4.7924-1.4377-2.8754-1.4377-5.7508 0-6.2301 1.4377-.47923 3.3546 1.4377 4.7924 4.3131s1.4377 5.7508 0 6.7093c2.8754-.95847 3.8339-4.3131 2.3962-7.6678-1.4377-2.8754-4.3131-4.7924-7.1885-3.8339-2.8754 1.4377-3.8339 4.7924-2.3962 7.6678 1.4377 3.3546 4.3131 5.2716 7.1885 3.8339z" id="path59"/>
        <path d="M957.61 458.67h-.95848l2.8754-1.917 8.6262 4.7924-2.8754-5.2716c-.47923-.95847-1.4377-.95847-1.9169-.95847v-.47924l2.3962-.95847c-.47924.47924-.95847.95847 0 1.9169l4.7924 9.5847-.47924.47924-10.543-5.7508 3.8339 7.1885c.47923.95847 1.4377.95847 1.9169.47924v.47923l-2.3962 1.4377v-.47924c.47924-.47923.47924-.95847 0-1.9169l-3.8339-7.6678-1.4377-.95847z" id="path61"/>
        <path d="M979.18 460.11v-.47923c0-.47924.47923-.95847 0-1.9169l-5.7508-8.147h-.47923c-.95847.47924-1.4377 2.3962 0 3.8339l-.47924.47923-1.9169-3.3546 7.1885-4.7924 1.9169 2.8754c-1.4377-1.4377-2.8754-1.4377-3.8339-.95847l-.47924.47924 5.7508 8.147c.47923.95847 1.4377.95847 1.9169.47923v.47924z" id="path63"/>
        <path d="M984.45 448.6l2.8754 3.3546c.47923.47924 1.4377.47924 1.9169 0v.47924l-3.8339 3.3546v-.47923c.47923-.47924.47923-.95847 0-1.9169l-5.7508-7.1885c-.47923-.95847-.95847-.47924-1.9169-.47924l3.8339-3.3546v.47924c0 .47923-.47923.95847 0 1.9169l2.3962 2.8754 2.8754-1.9169-2.3962-3.3546c-.47924-.95847-1.4377-.47923-1.917-.47923l3.8339-3.3546v.47924c-.47924.47923-.47924.95847 0 1.9169l5.7508 7.1885c.47924.47923.95847.47923 1.4377 0l.47923.47923-3.8339 3.3546-.47924-.47923c.47924-.47924.95847-.95847.47924-1.917l-2.8754-3.3546z" id="path65"/>
        <path d="M988.76 438.54c-.47923-.47923-1.4377-.47923-1.9169 0v-.47923l6.2301-5.7508 2.8754 2.8754h-.47923c-1.4377-1.9169-3.3546-.95847-4.3131-.47923 0 .47923-.47924.47923-.95847.95847 0 0 0 .47923.47923 1.4377.47924.47923 2.8754 2.8754 2.8754 2.8754.47923-.47924 1.9169-1.4377 0-3.8339h.47923l3.8339 4.3131v.47924c-2.3962-2.3962-3.3546-.95847-3.8339-.47924l2.8754 2.8754c.47924.95848.95847.95848.95847.95848l1.4377-1.4377c.47924-.47924.95842-1.9169 0-4.7924h.47924l1.9169 3.3546-6.23 6.2301-.47924-.47923c.47924-.47924.95847-.95847 0-1.9169z" id="path67"/>
        <path d="M1000.3 425.12c-.47921.47924-.47921 1.4377.4793 1.9169.9584.95847 1.9169.95847 3.8338 0 .9585-.47923 2.8755-.95847 4.3132.47924 2.3961 2.3962 1.4377 4.3131.9584 5.2716-.4792.47923-1.4377.95847-1.9169 1.4377-.4792 0-.4792 0-.4792.47924v.47923l-3.3547-2.8754h.4792c1.917.95847 3.8339 1.4377 4.7924 0 .9585-.95847 0-1.9169-.4792-2.3962-.9585-.95848-1.917-.95848-3.3547 0-1.4377.47923-3.3546.47923-4.7923-.47924-1.917-1.9169-1.917-3.3546-.95851-4.7924.47921-.47924 1.4377-.95847 1.9169-1.4377.4793 0 .4793 0 0-.95847l3.3547 2.3962h-.4793c-2.3961-.95847-3.8338-.47924-4.3131.47923z" id="path69"/>
        <path d="M1004.6 421.29c-.9584-.47924-1.4377 0-1.9169.47923h-.4792l5.2716-7.6678 3.3546 2.3962-.4792.47923c-1.917-1.4377-3.8339-.47923-4.3132 0 0 .47924-.4792.95847-.4792 1.4377-.4792 0-.4792.47923.4792.95847.4793.47923 3.3547 2.3962 3.3547 2.3962.4792-.47923 1.4377-1.4377-.4792-3.3546v-.47924l4.7923 3.8339c-2.8754-1.4377-3.3546 0-3.8339.47924l3.3547 2.3962c.9584.47923 1.4377.47923 1.4377.47923 0-.47923.4792-.95847.9585-1.4377.4792-.95848.9584-2.3962-.9585-4.3131l.4792-.47924 2.3962 2.8754-4.7924 7.1885h-.4792c.4792-.95847.4792-1.4377-.4792-2.3962z" id="path71"/>
        <path d="M1017.5 412.66l-1.4377 2.3962c-1.917-1.9169-2.8754-3.3546-2.8754-3.3546l4.3131.95847h.9585c.4792 0 1.4377.47924 1.9169.47924 1.4377.47923.9585.95847.4792 1.9169h.4793l2.3962-4.3131c-.9585.95847-1.4378.47924-2.3962.47924-10.064-1.9169-11.022-2.3962-11.022-2.3962v.47924l7.6677 8.6262c.4793.47924.4793 1.4377.4793 1.9169h.4792l1.4377-2.3962-.4792-.47924c-.4793.95847-.9585 1.4377-1.917 0-.4792-.47923-.9584-.95847-.9584-.95847l1.4377-3.3546z" id="path73"/>
        <path d="M1014.6 402.12c-.4793.47924-.4793 1.4377.9585 1.917 1.4377.47923 1.9169 0 3.3546-.95847 1.4377-.95848 2.8754-1.917 4.7924-.95848 2.8754 1.4377 2.3961 3.8339 1.9169 4.7924-.4792.47923-.9585 1.4377-1.4377 1.9169v.95847l-3.8339-1.9169c2.3962.47923 4.3131 0 4.7924-1.4377.4792-.95847-.4793-1.9169-.9585-2.3962-.9585-.47924-1.917 0-3.3547.95847-1.4377 1.4377-2.8754 1.9169-4.7923.95847-1.917-.95847-2.8754-2.3962-1.917-3.8339 0-.95847.9585-1.4377 1.4378-1.9169 0-.47923 0-.47923-.4793-.95847v-.47923l3.8339 1.9169h-.4792c-2.3962-.47924-3.8339.47923-3.8339 1.4377z" id="path75"/>
      </g>
    </g>
    <g id="crest" stroke="#000">
      <g id="rope" fill="#073163">
        <path d="M863.2 232.47c-6.2301 1.4377-10.543 1.9169-16.294-3.3546-3.8339-3.8339-2.8754-10.543.95847-12.939 4.3131-2.8754 8.147-4.7924 13.419-3.3546 5.2716 1.4377 19.169 14.377 15.815 14.856-3.3546 0-8.6262 3.3546-13.898 4.7924z" id="path80" fill="#fff"/>
        <path d="M878.06 209.47c1.9169-1.4377 4.3131-2.3962 10.543-2.8754 5.7508-.47923 10.064-.47923 11.502 3.8339 1.9169 5.2716 3.3546 11.502 7.1885 14.377-2.3962 1.4377-14.377 2.8754-18.69.47923-5.7508-2.8754-7.1885-13.898-10.543-15.815z" id="path82" fill="#fff"/>
        <path d="M919.27 209.95c1.9169-1.4377 4.3131-1.4377 10.543-.95847 6.23.47923 8.6262.95847 10.064 5.2716 1.4377 4.7924 0 11.022 2.8754 15.336-2.8754.95847-12.46.95847-15.815-2.3962-5.2716-3.8339-4.7924-14.856-7.6678-17.252z" id="path84" fill="#fff"/>
        <path d="M948.03 212.82c-4.3131-.95847-7.1885-1.4377-9.1055 0 2.3962 2.8754.47923 14.377 5.2716 18.211 3.3546 2.3962 11.981 2.8754 13.898-2.3962 2.3962-4.7924 2.3962-11.981-10.064-15.815z" id="path86"/>
        <path d="M898.67 208.03c1.4377-1.4377 4.3131-1.9169 10.064-1.9169 6.2301 0 10.064.95847 11.981 4.7924 1.9169 4.7924 1.4377 11.022 4.7924 14.856-1.4377 1.9169-14.377 1.9169-18.211-.95847-5.2716-3.3546-5.7508-14.377-8.6262-16.773z" id="path88"/>
        <path d="M857.93 212.34c0-2.3962 3.3546-2.8754 11.981-3.3546 8.6262-.95847 9.1055-.47924 11.981 5.7508 1.4377 3.3546 3.3546 9.1055 7.1885 11.022-10.543 2.3962-13.898 3.8339-19.649.47923-4.3131-2.3962-9.1055-8.147-10.064-10.543-.47924-1.4377-.47924-2.8754-1.4377-3.3546z" id="path90"/>
      </g>
      <g id="g171" fill="#f9d050" stroke-width=".6469">
        <g id="g129">
          <path d="M880.94 163.46c-10.064-7.6678-22.045-14.856-33.067-16.294 7.1885 4.3131 27.316 20.128 32.588 25.4" id="path93"/>
          <path d="M886.69 156.27c-11.981-8.147-25.879-17.252-39.297-18.211 10.064 5.2716 24.92 17.732 33.067 27.796" id="path95"/>
          <path d="M902.02 142.85c6.7093-14.856 13.898-23.003 23.482-32.109-4.7924 10.064-10.064 30.671-12.46 38.818" id="path97"/>
          <path d="M912.56 140.46c4.7924-10.543 11.981-19.649 24.441-25.4-6.2301 6.2301-15.815 24.92-18.211 34.984" id="path99"/>
          <path d="M916.88 150.04c5.7508-8.147 17.252-23.482 37.86-31.63-11.981 11.981-29.713 34.026-34.026 42.652" id="path101"/>
          <path d="M923.59 160.58c8.6262-4.7924 25.879-12.46 38.339-10.064-7.6678 2.8754-30.671 13.419-40.735 23.003" id="path103"/>
          <path d="M921.67 157.23c8.147-8.6262 23.003-21.566 38.818-26.837-11.502 11.022-35.943 35.943-39.297 39.776" id="path105"/>
          <path d="M898.67 151.96c-5.7508-17.732-14.377-34.505-27.316-39.776 7.1885 10.543 16.294 25.879 21.086 48.882" id="path107"/>
          <path d="M887.64 151.48c-9.5847-11.502-22.524-23.003-37.38-25.4 10.064 5.7508 26.837 22.524 33.067 38.818" id="path109"/>
          <path d="M892.92 151c-11.981-21.566-21.086-25.4-26.358-29.713 4.3131 8.147 14.856 29.713 21.086 38.818" id="path111"/>
          <path d="M868.95 149.56c5.7508 3.3546 14.377 11.502 17.252 16.773" id="path113" fill="none"/>
          <path d="M868.95 159.63c2.8754 2.3962 8.147 5.2716 12.939 9.5847" id="path115"/>
          <path d="M925.98 166.81c4.7924-3.8339 15.336-10.064 20.607-11.981" id="path117"/>
          <path d="M922.63 163.46c4.7924-6.2301 14.377-14.856 17.732-17.732" id="path119"/>
          <path d="M936.05 133.75c-4.3131 4.7924-14.377 16.773-18.211 22.524" id="path121"/>
          <path d="M923.59 129.43c-3.3546 4.3131-10.064 16.773-11.981 21.086" id="path123"/>
          <path d="M885.73 130.39c2.8754 7.6678 8.147 20.607 10.064 25.879" id="path125"/>
          <path d="M881.41 138.54c1.917 2.8754 5.7508 9.5847 7.1885 14.377" id="path127"/>
        </g>
        <g id="g169">
          <path d="M897.71 136.14c0-4.3131 2.8754-9.1055 5.7508-9.1055 3.3546 0 5.7508 5.7508 5.7508 9.1055 0 3.8339-2.8754 7.1885-5.7508 7.1885s-5.7508-2.8754-5.7508-7.1885z" id="path131"/>
          <path d="M891.48 139.98c.47923-4.7924 3.8339-8.6262 6.7093-8.147 2.8754.47923 4.3131 6.2301 3.8339 9.5847-.47923 3.8339-3.8339 6.7093-6.23 6.2301-2.3962 0-4.7924-3.3546-4.3131-7.6678z" id="path133"/>
          <path d="M904.42 141.42c-.95847-4.3131.95847-9.1055 3.8339-9.5847 2.8754-.47924 5.7508 4.3131 6.2301 8.147.95847 3.8339-1.4377 7.6678-3.8339 7.6678-2.3962.47924-5.7508-1.9169-6.2301-6.2301z" id="path135"/>
          <path d="M897.23 145.25c0-4.7924 2.8754-9.1055 5.7508-9.1055 3.3546 0 5.7508 5.2716 5.7508 9.1055 0 3.8339-2.8754 7.1885-5.7508 7.1885s-5.7508-2.8754-5.7508-7.1885z" id="path137"/>
          <path d="M888.6 147.64c0-4.3131 3.3546-9.1055 6.23-9.1055 2.8754 0 5.7508 5.7508 5.7508 9.1055 0 3.8339-3.3546 7.1885-5.7508 7.1885-2.8754 0-6.23-2.8754-6.23-7.1885z" id="path139"/>
          <path d="M906.34 145.73c0-4.3131 2.8754-9.1055 5.7508-9.1055 3.3546 0 5.7508 5.7508 5.7508 9.1055 0 3.8339-2.8754 7.1885-5.7508 7.1885s-5.7508-2.8754-5.7508-7.1885z" id="path141"/>
          <path d="M904.42 149.56c0-4.7924 3.3546-9.1055 6.2301-9.1055s5.7508 5.2716 5.7508 9.1055c0 3.8339-2.8754 7.1885-5.7508 7.1885s-6.2301-2.8754-6.2301-7.1885z" id="path143"/>
          <path d="M896.75 153.88c0-4.7924 2.8754-9.1055 5.7508-9.1055 3.3546 0 5.7508 5.7508 5.7508 9.1055 0 3.8339-2.8754 7.1885-5.7508 7.1885s-5.7508-2.8754-5.7508-7.1885z" id="path145"/>
          <path d="M884.77 153.88c0-4.7924 2.3962-9.1055 4.7924-9.1055s4.3131 5.7508 4.3131 9.1055c0 3.8339-2.3962 7.1885-4.3131 7.1885-2.3962 0-4.7924-2.8754-4.7924-7.1885z" id="path147"/>
          <path d="M911.61 152.92c0-4.3131 2.3962-8.6262 4.7924-8.6262s4.7924 5.2716 4.7924 8.6262c0 4.3131-2.8754 7.1885-4.7924 7.1885-2.3962 0-4.7924-2.8754-4.7924-7.1885z" id="path149"/>
          <path d="M914.48 161.06c.95847-4.7924 3.8339-8.6262 5.7508-8.147 1.9169.47924 2.3962 6.2301 1.4377 9.5847-.47923 4.3131-3.3546 6.7093-5.2716 6.2301-1.917-.47924-2.8754-3.8339-1.917-7.6678z" id="path151"/>
          <path d="M905.38 159.63c.47924-4.3131 3.3546-8.6262 5.7508-8.147 2.8754 0 4.3131 5.7508 3.8339 9.1055-.47924 4.3131-2.8754 7.1885-5.2716 6.7093-2.3962 0-4.7924-3.3546-4.3131-7.6678z" id="path153"/>
          <path d="M891.96 161.06c-1.4377-4.7924-4.3131-8.147-6.2301-7.6678-1.9169.47923-2.3962 6.2301-1.4377 9.5847.95847 3.8339 3.8339 6.23 5.7508 5.7508 1.4377-.47924 2.8754-3.8339 1.9169-7.6678z" id="path155"/>
          <path d="M888.6 160.1c0-4.3131 2.3962-8.6262 4.7924-8.6262 2.8754 0 4.7924 5.2716 4.7924 8.6262 0 4.3131-2.3962 7.1885-4.7924 7.1885-1.9169 0-4.7924-2.8754-4.7924-7.1885z" id="path157"/>
          <path d="M895.79 162.02c0-4.7924 2.8754-9.1055 5.7508-9.1055 3.3546 0 5.7508 5.2716 5.7508 9.1055 0 3.8339-2.8754 7.1885-5.7508 7.1885s-5.7508-2.8754-5.7508-7.1885z" id="path159"/>
          <path d="M898.19 109.31c-.95847 3.8339-4.3131 7.1885-1.9169 12.46-4.3131-1.4377-8.147-1.917-11.502 1.9169 4.3131-.47924 8.147.95847 10.064 3.8339-3.8339-.47924-5.7508 1.4377-6.7093 3.8339 3.3546-.95847 6.7093-1.9169 8.147-1.4377-1.4377 1.4377-3.8339 3.8339-4.3131 5.7508 2.8754-2.3962 6.2301-1.9169 8.147-3.3546-1.4377 3.3546 1.4377 6.7093 3.8339 10.064-.47924-4.7924 2.3962-8.147.95847-10.543 4.3131.95847 4.7924 4.7924 11.022 4.7924-2.3962-1.4377-3.8339-6.2301-6.7093-6.2301 1.4377-.47923 7.1885-.95847 8.147 0-.95847-1.9169-4.3131-3.8339-6.2301-3.8339 1.9169-1.9169 5.2716-5.7508 7.6678-6.7093-3.3546.47924-8.6262.95847-10.543 3.8339 4.7924-3.8339 3.8339-11.022 9.1055-11.981-2.8754-.47923-7.1885 1.4377-10.543 4.7924 1.4377-2.8754 1.4377-6.7093 3.3546-7.6678-3.8339.95847-8.147 5.7508-9.5847 8.147 0-2.3962-1.4377-6.2301-2.3962-7.6678z" id="path161"/>
          <path d="M900.58 116.97c0 1.4377 0 4.3131-.47924 5.2716" id="path163"/>
          <path d="M906.81 116.5c-.95847.95847-2.8754 4.3131-2.8754 7.1885" id="path165"/>
          <path d="M909.69 122.25c-1.4377.95847-2.8754 2.3962-3.3546 4.3131" id="path167" fill="none"/>
        </g>
      </g>
      <g id="turtle" fill="#059334">
        <path d="M858.89 169.69c-3.3546 0-6.2301-1.4377-8.147-3.8339-3.3546-4.3131-12.46-6.2301-16.294-2.3962-1.4377.95847-3.3546.95847-4.7924 1.4377-2.3962 0-5.2716 2.3962-4.3131 7.1885 1.9169-1.4377 2.3962 0 3.8339 0 .95847-.47924.47924.47923.47924 1.4377 0 2.3962 5.2716 7.1885 10.064 6.7093 5.2716 0 7.6678 1.9169 8.6262 2.8754 1.4377 1.4377.47923.95847 1.4377 3.3546 1.4377 1.4377 1.9169 1.9169-.47923 3.8339-3.3546 2.8754-5.7508 9.5847 0 14.856 6.2301 4.7924 22.045 11.981 39.776-1.917 17.252-13.419 44.09-5.7508 46.007-.95847 2.3962 4.7924 3.3546 7.6678 3.8339 10.064.47923 1.9169 2.8754 3.8339 6.2301 3.3546 3.3546 0 7.1885 1.4377 9.1055 2.8754 2.3962 1.4377 5.7508.95847 4.7924-3.3546-1.9169-13.419-10.064-15.336-11.022-21.566 4.7924.47923 8.147.47923 10.064-1.4377 1.4377-1.9169 3.3546-5.2716 5.2716-6.2301 1.4377-.95847 1.4377-1.9169-.47924-1.4377-2.3962.47923-3.8339 1.4377-8.147.95847-22.045-2.3962-83.866-19.169-95.847-15.815z" id="path173"/>
        <path d="M956.65 185.98c-2.3962 1.4377-4.7924 3.8339-9.1055 9.5847-4.7924 6.2301-19.169 12.46-36.901 12.46-17.252 0-27.796-2.8754-35.463-9.1055-4.3131-3.3546-7.6678-5.2716-10.543-6.7093-5.2716-2.3962-6.2301-7.6678-4.7924-11.981-1.4377 2.3962-2.3962 4.7924-5.2716 4.3131-1.917 0-5.7508 0-4.7924 1.9169-.47923-.95847-.47923-2.3962-.95847-2.8754-.47923-.47924-.95847-.95848-.95847-.95848 1.4377.95848 4.7924-1.9169 7.1885-1.9169 1.9169.47924 4.3131-1.9169 3.8339-4.7924-.47923-2.3962-.95847-4.3131-1.4377-6.2301 3.8339-1.9169 54.154 7.1885 64.218 8.147 10.064.47924 38.818 4.7924 34.984 8.147z" id="path175" fill="#000"/>
        <path d="M865.6 167.77c4.7924-4.7924 10.543-7.1885 16.294-5.7508h1.4377c2.8754-2.3962 9.5847-2.8754 13.419-.95847h1.9169c5.7508-1.9169 16.773 0 20.607 3.8339l1.4377.95847c12.939-.95847 20.607 4.7924 29.713 13.898.95847.95847 2.3962 2.8754 4.7924 3.3546 2.8754.47924 3.3546 1.9169.95847 3.3546-2.8754 1.4377-5.2716 3.8339-10.064 9.1055-4.3131 5.7508-18.211 11.502-35.463 11.502-16.773 0-26.837-2.8754-34.505-8.6262-4.3131-3.3546-7.6678-5.2716-10.064-6.7093-2.8754-.95847-6.7093-4.7924-5.2716-8.6262.95848-3.8339-1.4377-8.6262-3.3546-13.419 1.4377-.95847 5.2716-2.3962 7.1885-1.4377l.95847-.47923z" id="path177"/>
        <g id="g195" fill="#00493d">
          <path d="M950.42 179.75c-9.1055-9.1055-16.773-14.856-29.713-13.898 0 .47923 0 1.9169-.47923 2.8754 7.6678 2.8754 18.69 11.502 23.482 17.732 1.9169-1.9169 5.2716-4.3131 6.7093-6.7093z" id="path179"/>
          <path d="M919.27 164.9c-3.8339-3.8339-14.856-5.7508-20.607-3.8339 0 1.917 0 4.7924-.95847 6.7093 3.3546 1.4377 6.2301 4.7924 9.1055 8.147 1.9169-.47924 6.7093-1.9169 9.1055-2.3962.95847-1.9169 2.8754-6.2301 3.3546-8.6262z" id="path181"/>
          <path d="M896.75 161.06c-3.8339-1.9169-10.543-1.4377-13.419.95847-.95847 1.917-1.4377 5.7508-1.4377 7.6678 1.9169 0 4.7924 1.4377 5.7508 2.3962 2.8754-.95847 6.7093-2.8754 8.147-4.3131.47923-1.9169 1.4377-4.7924.95847-6.7093z" id="path183"/>
          <path d="M865.6 167.77c4.7924-4.7924 10.543-7.1885 16.294-5.7508-.95847 1.4377-1.4377 4.3131-1.4377 7.1885-5.2716-.47923-11.981.95848-14.856 2.8754V167.77z" id="path185"/>
          <path d="M941.8 187.42c-4.3131-6.2301-14.856-13.419-22.045-16.773 0 .47924-.95847 2.3962-1.4377 3.8339 2.8754 4.3131 8.6262 13.898 11.022 19.169 2.3962-.95847 9.1055-3.8339 12.46-6.2301z" id="path187"/>
          <path d="M905.38 197.96c.95847-6.7093 1.4377-16.294 1.4377-19.649 2.3962-.47924 7.1885-1.9169 9.1055-2.3962 2.3962 3.8339 8.147 13.898 10.543 18.69-5.7508 1.4377-15.336 3.8339-21.086 3.3546z" id="path189"/>
          <path d="M888.6 174.96c2.3962-.95847 5.7508-2.8754 8.147-4.7924 1.9169 1.4377 5.7508 4.7924 7.1885 6.7093 0 4.3131-1.4377 16.773-1.917 21.086-3.8339 0-10.064-.95847-13.419-2.8754.47923-7.1885.95847-15.336 0-20.128z" id="path191"/>
          <path d="M864.64 180.71c.47923-.95847.95847-4.3131.95847-5.7508 3.8339-2.3962 13.419-4.7924 20.607-.95847.47923 4.7924 0 16.773-.47924 19.649-6.2301-4.7924-16.294-11.502-21.086-12.939z" id="path193"/>
        </g>
        <g id="g211" fill="none">
          <path d="M840.68 172.09c-.95847 0-1.4377-2.8754-3.3546-2.8754-.47923 0-1.9169.47924-2.3962 0 0 .95848.47923 1.917.95847 2.3962.47923 1.4377 2.8754.47924 4.7924.47924z" id="path197" fill="#000" stroke="none"/>
          <path d="M840.68 180.23c5.7508 0 6.7093-7.1885 9.5847-7.6678" id="path199"/>
          <path d="M844.03 180.71c4.3131 1.9169 7.6678-8.147 11.022-7.6678" id="path201"/>
          <path d="M835.41 168.25c1.4377 0 2.3962-1.9169 4.7924.47924.95848.95847 2.3962 1.4377 3.3546 1.4377" id="path203"/>
          <path d="M842.6 175.44c-1.9169 2.8754-5.2716 4.7924-7.1885 3.8339" id="path205"/>
          <path d="M834.45 163.46c-1.4377.95847-2.3962 2.8754-3.3546 4.3131" id="path207"/>
          <path d="M829.66 170.65v2.3962" id="path209"/>
        </g>
      </g>
    </g>
    <g id="g378">
      <path id="shield" d="M989.72 232.95v93.451c0 80.991-38.339 108.79-89.617 130.83-51.278-22.045-90.096-49.84-90.096-130.83V232.95h179.71z" fill="#fff"/>
      <path d="M900.1 312.02c4.3132 0 11.022-3.8339 16.773-9.5847 6.23-6.7093 16.773-9.1055 27.796 0 11.022 9.1055 17.732 5.2716 23.482 0 5.7508-5.2716 10.543-7.1885 21.566-7.1885v-62.301h-179.71v62.301c11.022 0 15.815 1.917 21.566 7.1885 5.7508 5.2716 12.46 9.1055 23.483 0 11.502-9.1055 21.566-6.7093 28.275 0 5.2716 5.7508 11.981 9.5847 16.773 9.5847z" id="path216" fill="#cf142b"/>
      <g id="g224" fill="#0b50a0">
        <path d="M900.1 359.95c5.7508 0 17.252-6.2301 20.128-7.6678 10.543-6.2301 18.211-.47924 24.441 2.3962 6.7093 2.8754 19.169 6.23 26.837 0 7.6678-6.2301 11.981-5.7508 17.252-5.7508.95847-7.1885.95847-14.377.95847-22.524v-5.7508c-6.7093-1.4377-10.064.47923-17.252 6.7093-7.1885 6.2301-15.336 4.7924-25.879.95847-10.064-4.3131-20.128-11.981-30.192 0-2.8754 3.3546-9.5847 8.147-16.294 8.147-7.1885 0-13.419-4.7924-16.294-8.147-10.543-11.981-20.128-4.3131-30.192 0-10.543 3.8339-19.169 5.2716-26.358-.95847-6.7093-6.2301-10.064-8.147-17.252-6.7093v5.7508c0 8.147.47923 15.336 1.4377 22.524 5.2716 0 9.1055-.47923 16.773 5.7508 7.6678 6.23 20.607 2.8754 26.837 0 6.7093-2.8754 14.377-8.6262 24.92-2.3962 2.8754 1.4377 13.898 7.6678 20.128 7.6678z" id="path218"/>
        <path d="M900.1 380.55c7.1885 0 15.815-2.8754 23.482-7.1885 9.5847-5.2716 16.294-2.8754 25.879 1.917 10.064 4.7924 18.211 3.3546 23.962 0 2.8754-1.917 5.2716-5.7508 11.502-4.3131-2.8754 11.981-7.1885 22.524-12.46 31.15-9.5847 2.3962-14.856 2.3962-24.92-1.9169-10.064-4.7924-22.524-7.6678-29.233-3.3546-6.2301 3.8339-12.939 5.7508-18.211 5.7508-5.2716 0-11.981-1.9169-18.211-5.7508-6.7093-4.3131-19.169-1.4377-29.233 3.3546-10.064 4.3131-15.336 4.3131-24.92 1.9169-5.2716-8.6262-9.5847-19.169-12.46-31.15 6.2301-1.4377 8.6262 2.3962 11.502 4.3131 5.2716 3.3546 13.898 4.7924 23.482 0 10.064-4.7924 16.773-7.1885 26.358-1.917 7.6678 4.3131 16.294 7.1885 23.482 7.1885z" id="path220"/>
        <path d="M900.1 457.23c19.169-8.147 36.901-17.252 51.278-29.713-3.8339-1.4377-6.2301-.47924-9.5847-2.8754-3.3546-2.3962-13.419-3.3546-22.045 1.4377-9.1055 4.3131-12.939 5.2716-19.649 5.2716-6.7093 0-10.543-.95847-19.649-5.2716-8.6262-4.7924-18.69-3.8339-22.045-1.4377-3.3546 2.3962-5.7508 1.4377-9.5847 2.8754 14.377 12.46 31.63 21.566 51.278 29.713z" id="path222"/>
      </g>
      <g id="star">
        <path d="M831.1 383.43l23.962-73.802 23.962 73.802-62.78-45.527h77.636z" id="path367" fill="#f9d050"/>
        <path d="M835.89 376.72l49.84-36.422h-61.342l49.361 36.422-18.69-58.467z" id="path369" fill="#024919"/>
      </g>
      <use x="90.096649" width="100%" height="100%" xlink:href="#star" id="use372"/>
      <use x="45.047649" y="52.237129" width="100%" height="100%" xlink:href="#star" id="use374"/>
      <path d="M989.72 232.95v93.451c0 80.991-38.339 108.79-89.617 130.83-51.278-22.045-90.096-49.84-90.096-130.83V232.95h179.71z" id="path376" fill="none" stroke-width="1.4377" stroke="#000"/>
      <g transform="matrix(.485 0 0 .485 720.3905 -32.15343)" id="g4735">
        <path d="M292.41 645.07s-6.2618-.0489-8.7692-1.517c-2.7268-1.5966-5.6467-7.2404-5.6467-7.2404s-6.9039 1.1209-10.078.4332c-3.3164-.71855-8.0632-4.5119-8.0632-4.5119 3.1706-.46799 5.5384-.94644 8.6085-3.4299 0 0-6.1115-.32357-9.5924-1.6636-3.0306-1.1667-7.9757-5.0329-7.9757-5.0329 2.8258-.70142 5.8811-.61441 8.1068-3.3763 0 0-5.9857.054-8.6976-.93691-2.7072-.98914-7.0058-4.797-7.0058-4.797 3.2895-.28554 6.4183-.89565 8.5334-3.554 0 0-6.0627.20592-8.6313-.80283-3.5464-1.3929-8.9722-6.0341-8.9722-6.0341 3.4119-.25704 6.8056-.55089 9.3866-2.4868l-1.9183-3.8949c-2.3156-4.7021-7.1655-3.0434-10.389-4.3394-3.1654-1.2729-4.94-4.7433-5.1127-6.6884-.30449-3.4311 1.4496-8.6721 9.1925-7.5777-3.8504-5.8673.15843-10.082 4.2554-11.77 3.9356-1.622 7.4113-1.179 10.084 5.2429 0 0 3.5922-2.9051 5.5384-3.3358 2.709-.59933 5.7628.29934 6.7257 2.8353.39592 1.0427.54028 3.2235-.12374 4.5254-1.0503 2.0591-3.3638 3.4698-4.1194 6.4816-.85559 3.41 2.2949 9.3597 2.2949 9.3597s14.883 11.79 21.729 18.248c3.6428 3.436 10.259 10.872 10.259 10.872l.36562-.21181h14.752l1.3172 24.891-16.053.31287z" id="path126" fill="#e4c900" stroke="#806600"/>
        <path d="M273.02 607.1c-4.3741-3.8886-16.057-12.566-16.057-12.566s-2.6742-6.4842-3.0252-10.937c-.15531-1.9715.25401-4.0616 1.1635-5.8177.93369-1.8027 3.6733-2.4578 4.1887-4.4214.16233-.6187-.054-1.3719-.46541-1.8616-.49145-.58491-1.3317-.97572-2.0944-.93082-2.8818.16953-7.4466 4.4214-7.4466 4.4214s-2.8545-5.1296-5.3522-6.283c-1.0563-.48781-2.4156-.44527-3.4906 0-1.0135.41979-2.0115 1.2764-2.3271 2.3271-1.0022 3.3364 2.0943 10.239 2.0943 10.239s-6.718-1.708-9.3082 0c-.98636.65041-1.4944 2.0805-1.3962 3.2579.10738 1.2865 1.0453 2.5054 2.0944 3.2579 2.8587 2.0505 10.239 2.5598 10.239 2.5598l8.6101 11.635-9.0755 2.5598c3.4569 1.8817 6.165 2.5203 15.591 2.5598-1.9196 4.0344-4.7348 5.4174-7.2139 7.2139l15.824 2.3271c-1.3758 3.9601-5.5118 4.3264-7.4466 6.0504 3.0327 2.018 7.3983 3.0362 12.136 3.7754.7532.1175 1.5158.228 2.284.3343-3.1395-.43266-2.6035-20.125.47325-19.701z" id="path128" fill="#fee46e"/>
        <path d="M269.81 611.54c-8.432-14.636-10.327-12.295-20.873-19.717 7.452 13.219 6.7899 12.14 20.873 19.717z" id="path130" fill="#ffefa7"/>
        <path d="M251.35 562.88c2.8192 3.4968 3.1405 5.1005 2.498 9.1856 1.3356 1.3897 2.6173 1.7255 3.7246 1.3887 2.2278-.67757 3.2664-2.4529 2.748-4.9121-1.6529-1.0375-1.9216-4.159-8.9707-5.6621zm-16.85 1.8516c-1.1641-.0419-2.5802.079-4.3398.4668 4.0143 2.0153 4.971 3.3419 6.0781 7.3262 1.7912.71181 3.0945.48784 3.9629-.27734 1.7472-1.5394 1.959-3.5856.46875-5.6094-1.4506-.19487-2.6778-1.7806-6.1699-1.9062zm-4.9922 15.828c-1.8664.57029-4.4014-1.2724-10.152 3.0723 4.4889.15804 5.9106.9651 8.5781 4.125 1.9248-.0998 3.018-.84675 3.4883-1.9043.94624-2.1276.28425-4.0748-1.9141-5.293z" id="path132" fill="#377bc8" stroke="#2c5aa0"/>
        <path d="M365.41 656.5c-2.6001-.75912-5.7741-4.1775-8.532-4.1619-2.9046.0175-4.9524 1.6377-6.4137 3.8164-.69731 1.0396.39731 4.9291 1.4838 5.6759l5.0032 3.4393s-3.1319 3.598-3.3692 5.6236c-.20617 1.7597.67767 3.1725 1.939 4.5619 1.6447 1.8114 2.0483 2.5116 4.6689 2.8932 1.5649.22795 5.2683-.45555 5.2683-.45555s-.0865 2.8866.8284 4.2189c1.6577 2.4145 4.4725 4.543 7.688 4.2033 2.5111-.26493 3.3259-.64524 4.653-2.5142 1.0524-1.4821.84194-5.2705 2.5507-6.8312l6.9494-6.3473c3.0003 1.8157 2.9207 4.5225 2.5476 7.3142 0 0 4.4603-2.8178 5.7873-4.8367 1.3825-2.1034 1.9291-7.0691 1.9291-7.0691 2.824 2.5473 3.7585 4.8237 3.1532 7.867 0 0 4.5406-2.8352 6.0017-4.8368 1.6447-2.253 3.0628-7.1228 3.0628-7.1228 2.0676 2.0114 2.5039 4.8723 1.7148 8.3713 0 0 5.074-3.3995 6.4303-6.1389 1.0723-2.1657 1.7147-5.9529 1.7147-5.9529 6.1656.4476 10.147-2.2353 10.419-5.0132.21044-2.1543-2.2285-5.0914-7.1928-5.944 0 0-1.8326-2.7366-2.5263-4.7604-.47683-1.3912-.51228-2.9725 0-4.3541 1.0248-2.7638 3.413-5.0893 5.8531-7.0755 3.3563-2.732 10.661-6.1684 10.661-6.1684l-2.1373-10.701-24.876-3.8098-27.497 6.7772c5.0115 2.2995 16.237 10.162 15.32 13.141-.3429 1.115-2.7308 2.1712-3.8725 3.6637-.84086 1.0992-.19944 2.8562.62709 3.9913 1.1564 1.588 3.9194 1.9529 4.8079 3.447.79956 1.3446 1.1629 2.5434.20909 3.8099-1.8831 2.5005-8.2162 3.5508-11.288 4.8984-5.598 2.4559-15.076 7.8104-15.076 7.8104-2.9476.38415-5.7729-.63655-8.4905-1.43z" id="path134" fill="#e4c900" stroke="#806600"/>
        <path d="M375.09 661.75s6.9113-3.636 10.582-5.4498c5.7868-2.8599 15.903-3.6144 18.445-9.5474 0 0 .7191-1.3175.48379-3.1446-.35225-2.7354-5.1212-4.9967-3.6284-7.9824l1.2094-2.4189s5.0727 2.183 6.531 3.8702c1.1848 1.3709 1.3552 3.6533 2.9027 4.5959 1.5898.96837 5.5635.48379 5.5635.48379l2.4189 7.0148s3.6831-.0304 5.0797 1.6932c.40924.50507.48654 1.3328.2419 1.9351-.38861.95664-2.6258 1.1996-3.6001 1.5414-1.9021.66722-4.8378-1.4849-4.8378-1.4849s1.0185 4.7577.51723 6.2992c-.34584 1.0654-1.6932 2.9027-1.6932 2.9027-1.0698-1.8178-1.7653-2.7022-6.5927-5.1462 0 0-.58191 4.0558-1.8783 6.6024-.59994 1.1785-2.4189 3.1446-2.4189 3.1446s-1.1025-2.2382-1.9351-3.1446c-1.56-1.6983-6.1041-2.4902-6.1041-2.4902s-.89487 4.9757-2.1722 7.6268c-.47085.97726-1.2759 2.4189-1.2759 2.4189s-.87122-2.2834-1.6932-3.1446c-.97389-1.0203-3.6284-2.177-3.6284-2.177l-9.372 7.7405s-1.4177 4.5795-3.6235 6.0521c-1.2759.85174-1.958.43556-3.3344-.2419-.66696-.32828-1.2658-.9734-1.4513-1.6932-.59607-2.3122.91071-5.2127.91071-5.2127s-5.0412 1.9764-8.3573 1.0341c-1.2626-.35878-2.8371-1.3499-2.9027-2.6608-.15122-3.0228 4.2452-5.8719 4.2452-5.8719s-4.9646-1.1665-7.0245-3.9936c-.67149-.92158-1.148-2.4596-.48378-3.3865.76454-1.0669 2.583-.98241 3.8702-.72568 2.4564.48991 3.5748 3.4163 6.0569 3.7517l8.9499 1.2094z" id="path136" fill="#ffe66f"/>
        <path d="M407.32 652.61c-12.18-.6253-21.699 5.268-31.429 11.833 12.481.0573 22.043-4.1087 31.429-11.833z" id="path138" fill="#ffefa7"/>
        <path d="M415.7 622.82s-.4746 8.8986-4.1913 11.177c-1.6005.98102-3.842 1.3876-5.5883.69853-1.6916-.66753-2.8736-2.4813-3.4927-4.1912-.3963-1.0947-1.0478-3.842-1.0478-3.842s-5.682-2.5994-8.7317-2.7942c-4.4894-.28666-13.272 2.4449-13.272 2.4449 1.4994-4.6616 5.5339-8.4782 9.7796-12.224l14.669-1.0478 11.875 9.7796z" id="path140" fill="#efd300" stroke="#806600"/>
        <path d="M444.11 563.67c3.4713-.46176 10.598-2.1754 12.991-5.0069 1.1154-1.3198 4.242-5.0069 4.242-5.0069-.66269 8.3242-4.1867 13.72-11.665 17.377-5.9674 2.918-12.856 3.593-19.354 2.9452-4.0918-.40791-11.665-2.9452-11.665-2.9452 4.1548 5.3933 2.0432 9.2001-3.1815 11.781 0 0 .77417-5.1652-.79536-5.8905-3.3849-1.5643-7.2011.47397-10.796 2.8679-2.655 1.7682-6.6751 2.5928-9.3828 2.5567-4.5109-.06-7.0109-.12315-11.229-1.8987-2.5442-1.0708-6.9577-5.1556-8.8276-4.7498-4.0366.8761-9.1349 1.3687-11.432 5.1591-.79793 1.3169-.70008 3.3784 0 4.7622 1.5708 3.1051 5.0989 4.7264 8.2164 5.5559 9.2719 2.467 16.839 2.4507 25.99.88423 9.4314-1.6145 20.444-4.8476 29.874-6.799 9.3467-1.9342 21.397-5.589 28.48-7.3554 12.518-3.1218 18.134-3.5516 27.502-3.3856 16.406.2909 21.777 9.9671 21.278 20.528-.51322 10.849-10.399 15.761-18.863 18.805-14.882 5.3513-35.315 2.3038-48.157 1.9382 0 0 4.3049 4.0049 6.2578 5.8357 2.2877 2.1447 3.4311 6.63 6.2579 7.7242 3.8771 1.5008 9.8074-1.4747 13.906-1.738 5.7315-.36805 15.471.38622 15.471.38622 1.4911-1.6869 2.4574-2.8579 4.007-3.3628 1.1112-.36281 2.8602-.3823 3.7521-.004 1.7649.74872 2.9523 3.0551 2.2122 7.3484 0 0 1.2231 1.9029 3.0896 2.3413 1.976.46494 4.2835.0548 5.4097.44935 1.8576.65072 4.8658 2.7027 4.8658 2.7027s-3.1886 1.1221-4.5153 2.02c-.90812.6146-2.1199 2.6483-2.1199 2.6483s4.3682.0838 6.1928.98281c1.9544.963 3.76 3.6855 3.76 3.6855s-2.6301-.20693-3.8836.67208c-.95825.67197-2.5304 2.522-2.5304 2.522s5.113-.46162 6.8563 1.2285c1.5434 1.4963 3.3176 4.1769 3.3176 4.1769s-2.7586-.0647-4.0646.35281c-.84959.27163-2.3494 1.3671-2.3494 1.3671s3.5345 2.0467 5.087 4.4226c1.2402 1.8979 1.5482 6.1425 1.5482 6.1425s-2.0813-1.7328-3.3602-2.3691c-.79969-.39793-2.6115-.33362-2.6115-.33362l.82805 8.7144c.2036 2.1428 2.908 4.4628 3.3905 6.1206.6085 2.0905.45607 2.8761-.63572 4.7081-1.3978 2.3462-4.2847 2.8254-6.781 2.354-1.3774-.26008-3.3129-2.1909-3.3129-2.1909s-1.4094 2.8919-2.3593 3.7785c-1.5907 1.4847-2.2755 1.297-4.3516 1.2085-1.5923-.068-3.0093-.40073-4.1113-1.6793-1.2685-1.4718-2.1474-5.8777-2.1474-5.8777l-4.8955 1.0751c-1.0631.23345-4.2852-1.5677-4.6444-2.7035-.75282-2.3803-.82578-4.7863.63571-6.7174 1.3877-1.8336 5.2252-1.9291 7.1806-2.9389 2.5054-1.2938 4.913-5.0381 4.913-5.0381s-8.1788-6.989-11.716-11.336c-1.9448-2.39-5.291-7.9769-5.291-7.9769s-10.429 3.4895-14.361 4.1984c-9.6992 1.7485-20.03 0-20.03 0-14.826 0-24.69-25.293-38.171-31.068-4.1139-1.7622-6.0504-1.4864-10.354-.41983-15.621 3.8714-32.297 25.861-47.772 30.396-6.3528 1.8615-19.652 2.519-19.652 2.519s-2.1776 5.2101-4.2369 6.6976c-2.2395 1.6176-7.8622 1.7233-7.8622 1.7233s-1.438 6.23-3.0853 8.597c-1.7211 2.4731-6.4507 4.8697-6.4507 4.8697.69875-2.8417 1.1149-5.0173.12729-8.6084 0 0-2.3515 4.971-4.6382 7.3245-1.9908 2.049-6.8479 4.5813-6.8479 4.5813.38971-2.6502 1.504-5.1663 0-8.1672 0 0-1.999 5.022-3.737 6.8776-1.7349 1.8524-6.3234 3.8686-6.3234 3.8686.88889-2.8657 1.4569-5.7313 0-8.597 0 0-1.9009 5.1492-3.6046 6.8776-2.3523 2.3864-8.0088 4.9998-8.0088 4.9998.95404-2.9562 1.8717-5.9123 1.166-8.8684l-3.8473-.008c-4.6446-.01-4.9406 4.727-7.1032 6.8833-2.1239 2.1178-5.5743 2.1654-7.2275 1.5055-2.9162-1.1641-5.5087-5.2566-1.9685-11.272-6.1236.79053-9.3146-3.8397-9.2992-7.9594.0145-3.9578 1.207-7.4519 7.383-7.0293 0 0-.79834-3.4274-.4869-5.231.43353-2.5106 2.2126-4.6897 4.6199-4.4456.9898.10036 2.8266.88132 3.667 1.9742 1.3292 1.7285 1.6957 4.2441 3.9064 6.1204 2.5029 2.1243 8.4551 1.9524 8.4551 1.9524s11.568-7.5568 19.198-10.606c4.0599-1.6223 15.59-4.0743 15.59-4.0743l.36132-34.192c6.9287.51626 3.9489.58867 9.8084.37735 8.4167-.30353 30.528 3.8156 30.528 3.8156l15.744-1.3005s26.26-4.7825 38.753-6.2783c6.2936-.75347 12.653-1.2952 18.973-.89689 9.5195.59993 17.695 3.4505 26.643 4.036 7.5236.49231 12.662 1.4191 20.184.89688 10.74-.74554 29.938.1294 36.038-11.592 1.5832-3.042.77027-7.209-1.5926-9.5518-3.1176-3.0911-5.3343-4.2552-9.4923-3.1927-2.193.56039-4.9814 2.4198-5.2548 4.7077-.1482 1.2403.0375 2.7907.97487 4.2554 1.6114 2.5183 3.4324 3.2769 3.4324 3.2769s-4.659.75565-6.7804-1.1298c-2.2328-1.9844-4.2378-8.2856-4.2378-8.2856-1.0497 1.6083-1.8216 3.371-1.6447 5.6606.15238 1.9733-.006 3.2082 1.9837 6.2028 0 0-4.9288-.38235-7.2889-3.3896-1.5863-2.0212-2.8817-8.0972-2.8817-8.0972-1.3985 1.5332-2.252 4.0162-2.3116 5.8469-.0861 2.6437.94564 3.8034 1.464 6.5815 0 0-4.8583-1.5861-6.7804-4.5194-1.4916-2.2762-2.2873-8.2549-2.2873-8.2549-5.5889 1.5475-16.257 3.7353-27.874 6.5067-8.1843 1.9525-20.683 4.9531-29.517 6.1865-15.171 2.1182-26.215 1.022-35.541-3.3748-4.8531-2.2881-7.0397-4.489-8.2907-9.6848-.71011-2.9492.33588-7.1271 2.7448-10.38 3.3582-4.5347 9.1914-7.9291 15.707-9.7228 0 0 17.257-5.1475 27.308-6.185 16.115-1.6636 22.668.83822 29.402 1.7805 4.3766.61236 9.0855-.39218 10.464-2.2197 1.1597-1.538 3.0783-3.1954.49343-6.9036 0 0 3.2752.0725 5.4497 4.5405.88814 1.8248-.20749 6.042-.20749 6.042h.00006z" id="path142" fill="#fee46e"/>
        <path d="M461.36 553.66s-4.6873 7.9763-8.0801 10.359c-4.2764 3.0037-9.5051 4.6646-14.414 5.373-4.7715.68858-9.6397-.51439-14.416-1.1523-5.5393-.73985-13.783-4.4121-13.783-4.4121 1.672 2.9416 3.3656 5.8826 3.8027 8.8242 0 0-5.2132-1.3877-7.9609-.48047-2.1662.71522-6.2772 2.7177-8.373 3.6934-3.2534 1.5145-8.4764-.0284-11.938-.52735-3.5737-.51514-4.8296-2.4253-8.043-1.3906l-3.1309 1.0078 10.139 5.9473 10.139 1.5352 6.3359-1.3438 6.9707-4.2207 5.5449-.38281 1.584 2.4941.1582 4.4121 3.6426-3.6445.95117-3.0703-1.1094-5.3711 7.4453 2.3008 9.5059.76758 9.8223-1.918 8.7129-4.2207 4.2754-5.3711 2.2188-9.209zm25.955 26.688c-2.21.0741-4.4835.72066-6.623 2.1055-2.9179 2.8005-2.673 6.1488-2.6406 8.9492-1.4962-2.599-2.6784-7.0955-3.9961-10.775-3.6347 3.7293-3.828 9.1021-4.8262 13.516-2.0413-3.8963-2.9779-8.5236-4.2227-12.42-4.1992 3.531-5.2991 7.7912-6.6367 11.322-1.0494-2.2641-2.0758-4.6256-2.3379-10.227-.53912.20249-.87901.35381-1.3438.53711-12.458 1.6929-40.508 10.841-62.283 13.035-12.064 1.2158-25.235.4127-32.836-5.0137-3.3495-2.3912-5.6173-5.6799-6.2324-10.09l-1.1191 5.1484 3.5801 6.7734 8.0547 4.6055 15.213 3.5234 16.557-1.627 9.3965-1.084 49.191-11.32 1.0684 6.3789 3.3184 4.2012 4.4492 2.0078-1.7344-5.6621.67969-3.834 1.7344-2.4668 2.4883 7.123 3.3926 2.832 4.5996 1.1856-1.8848-3.4688-.15039-4.5664 1.4316-3.3789 2.3379 6.0273 2.7148 2.2832 6.1074.54688-3.7695-4.291-.75391-3.8359 2.4883-3.1055 5.7305-1.3691 4.4492 1.7344 3.4688 3.2891 1.0566 5.1133-.91015 3.8106c8.5817-7.6008.28436-17.832-9.207-17.514zm9.207 17.514c-.0771.0683-.14088.13919-.22071.20703l.15039.0918.0703-.29883zm7.5566-9.5742c-.46326 5.7661-2.4583 10.288-5.5918 13.707-14.855 16.209-48.016 10.795-63.926 5.2461l-7.1602-1.1367c-1.0165-.47023-2.1409-.95839-3.5547-1.5254-5.3198-1.1732-4.1742-.5757-10.039-.94531-6.3199-.3983-12.679.14301-18.973.89648-12.493 1.4957-38.754 6.2773-38.754 6.2773l-15.744 1.3008s-22.111-4.118-30.527-3.8145c-5.8595.21134-2.8799.13739-9.8086-.3789l-.0605 5.7637s7.2421 1.9033 13.975 3.2676l-1.9551.13281-9.7422 17.207c-.42251-3.2249-1.7598-8.0488-1.7598-8.0488l-1.0195 12.955-1.8691 3.3008-11.441 2.8613-11.633 5.2812-9.1387 6.541-9.1387-2.5156-3.5312-6.2891s.83786 7.2662 2.9062 9.5586c2.5399 2.815 9.9707 3.2695 9.9707 3.2695s10.794-7.6506 16.617-10.312c2.5289-1.156 5.1496-1.962 7.793-2.6797.9156 1.0428 2.1344 2.2819 3.5059 3.2715 1.3055.94197 4.1113 2.4082 4.1113 2.4082.32669-7.9004 4.88-7.8082 11.725-11.949l.70312 4.834s12.894-4.4047 16.4-8.3359c2.3436-2.6272 4.6149-5.7198 5.6348-9.3848.75894-2.7274.62794-7.3263.44531-10.369 2.8715-.0172 5.7551-.10073 8.7539-.20703 13.168-.46677 27.29-6.4287 40.383-8.1973 10.486-1.4164 22.08-3.4716 31.621-1.6953 8.014 1.492 11.09 4.6953 18.002 9.8281 5.8136 4.317 11.709 15.928 19.496 15.928 0 0 4.4033-.27146 7.2754-.67773 3.618-.51177 6.1636-2.0266 9.7949-2.373 4.9424-.47151 11.738.52539 11.738.52539 3.2025-4.5183 4.8417-4.6102 5.7617-4.0352 2.0262 1.2664 2.3014 4.0688.47656 6.9062 2.0146 1.5349 3.302 4.054 9.4336 3.6953-2.6996 2.3785-3.515 3.5656-4.625 6.4941 2.3016-.83953 4.7133-.0403 8.1582 1.0586-2.4372 2.3082-3.1087 4.6044-3.9512 6.6367 2.288-.33031 3.9983.22257 8.1094.9961-2.3458 1.3598-4.1098 2.0056-4.5039 3.8906 2.6786 1.6908 2.4315 1.024 6.3281 4.6816-2.476.35625-3.9878.36082-4.9531 2.2852l4.7226 8.3184-.6289-7.748s1.8136-.0639 2.6133.33398c1.2788.63628 3.3594 2.3692 3.3594 2.3692s-.30863-4.2447-1.5488-6.1426c-1.5525-2.3758-5.0859-4.4219-5.0859-4.4219s1.5-1.0956 2.3496-1.3672c1.306-.41753 4.0644-.35351 4.0644-.35351s-1.775-2.6814-3.3184-4.1777c-1.7433-1.6901-6.8555-1.2285-6.8555-1.2285s1.571-1.8495 2.5293-2.5215c1.2535-.87901 3.8848-.67188 3.8848-.67188s-1.8054-2.7226-3.7598-3.6856c-1.8246-.89904-6.1934-.98242-6.1934-.98242s1.211-2.0338 2.1191-2.6484c1.3267-.89791 4.5156-2.0195 4.5156-2.0195s-3.0076-2.0524-4.8652-2.7031c-1.1261-.39462-3.4341.0157-5.4102-.44922-1.8665-.43838-3.0898-2.3418-3.0898-2.3418.74012-4.2933-.44796-6.5989-2.2129-7.3476-.89199-.37841-2.6408-.35893-3.752.004-1.5497.50484-2.5147 1.6764-4.0059 3.3633 0 0-9.7392-.75475-15.471-.38672-4.099.26324-10.029 3.2391-13.906 1.7383-2.8268-1.0943-3.9701-5.5799-6.2578-7.7246-1.9529-1.8308-6.2578-5.8359-6.2578-5.8359-.10933-.15869-.19003-.27521-.29492-.42774l14.627.91211 14.74.22071h9.2812c10.673-2.6056 23.105-5.4536 28.207-18.512l.18164-9.6973zm-110.37 24.896c-3.8613-.0802-8.2554 1.2006-11.744 2.7012-9.9722 4.2892-25.6 17.275-25.6 17.275-4.4206 2.7613-10.774 7.3323-15.49 9.2461-7.2069 2.9244-22.629 3.4082-22.629 3.4082s-2.0926 7.9587-4.9043 9.4766c-2.4902 1.3443-8.0586-1.6973-8.0586-1.6973s.0918 4.5099-.23242 6.9297c-.2958 2.2074-2.4531 6.3652-2.4531 6.3652 0 .00001-.5573-3.2851-1.2852-4.668-1.0657-2.0248-4.3203-4.9492-4.3203-4.9492s-.87421 4.5777-1.752 6.6465c-1.1316 2.6669-4.4375 7.2129-4.4375 7.2129s-.44095-2.7237-.93554-3.959c-.90033-2.2487-3.6211-6.082-3.6211-6.082s-1.0976 4.733-1.9844 6.9297c-.75402 1.8679-2.8027 5.2324-2.8027 5.2324s-.53695-1.7502-.93359-2.5449c-1.1038-2.2118-3.9727-6.082-3.9727-6.082s-1.9689 5.0595-3.2695 7.3555c-.81214 1.4336-2.8027 3.959-2.8027 3.959s-.0415-4.5534-1.2852-5.9395c-1.1632-1.2964-3.4667-1.8551-5.0215-1.5566-5.112.98124-7.1004 6.0423-10.51 10.545-.73365.96893-2.3102 1.5277-1.7012.42383.93352-1.692.22553-3.2621-.44141-4.1387-.75149-.98763-2.1956-1.5756-3.2305-.9375-1.5813.97504 3.7503-6.5996 3.6211-6.5996 0 0-5.3836.18409-7.9434-.42383-1.4791-.35127 1.3019.48254.95898-3.9648-.32296-4.1886-3.608-3.7773-2.7012-4.1016 2.5115-.89809 6.6484.99414 6.6484.99414s-1.9147-1.9871-1.0508-3.7578c.39382-.80714 2.6682-2.4513 3.0273-4.5371.52282-3.0365-1.9383-5.4349-2.0332-5.2051-1.0803 2.6166-4.1876 1.9347-4.6211 4.4453-.31143 1.8036.48829 5.2305.48829 5.2305-6.176-.42262-7.3683 3.0715-7.3828 7.0293-.0153 4.1197 3.1752 8.7495 9.2988 7.959-3.5402 6.015-.9475 10.107 1.9688 11.271 1.6532.6599 5.1027.61193 7.2266-1.5058 2.1626-2.1563 2.4589-6.8926 7.1035-6.8828l3.8477.008c.70574 2.9561-.21198 5.913-1.166 8.8691 0 0 5.6555-2.6136 8.0078-5 1.7037-1.7284 3.6055-6.877 3.6055-6.877 1.4569 2.8656.88889 5.73 0 8.5957 0 0 4.5873-2.0148 6.3223-3.8672 1.738-1.8556 3.7383-6.8789 3.7383-6.8789 1.504 3.0009.38971 5.5177 0 8.168 0 0 4.8568-2.533 6.8476-4.582 2.2867-2.3536 4.6387-7.3242 4.6387-7.3242.98759 3.591.56984 5.7657-.12891 8.6074 0 0 4.7301-2.396 6.4512-4.8691 1.6472-2.3669 3.0859-8.5957 3.0859-8.5957s5.6218-.107 7.8613-1.7246c2.0593-1.4874 4.2383-6.6973 4.2383-6.6973s13.3-.65805 19.652-2.5195c15.476-4.5345 32.151-26.523 47.771-30.395 4.3034-1.0665 6.2396-1.3442 10.354.41797 13.481 5.7746 23.344 31.068 38.17 31.068 6.6767 0 10.332 1.7485 20.031 0 3.9323-.70887 14.361-4.1973 14.361-4.1973s3.3462 5.5865 5.291 7.9766c3.537 4.3467 11.715 11.336 11.715 11.336s-2.4067 3.7433-4.9121 5.0371c-1.9554 1.0098-5.794 1.1059-7.1816 2.9395-1.4615 1.9311-1.3876 4.3365-.63476 6.7168.35921 1.1358 3.5814 2.9366 4.6445 2.7031l4.8945-1.0742s.87992 4.4052 2.1484 5.877c1.102 1.2786 2.519 2.1449 4.1113 2.2129 2.0761.0885 2.7609-.25748 4.3516-1.7422.94992-.88667 2.3594-3.7774 2.3594-3.7774s1.9351 1.9313 3.3125 2.1914c2.4963.47137 5.3835-.009 6.7812-2.3555 1.0918-1.832-.28212-6.4173-.89062-8.5078 0 0-.0559 4.4359.33008 5.9746-1.7128-3.8632-6.4276-3.7472-7.9707.15234-2.3259-1.4662-2.9531-3.998-2.9531-3.998l-1.2129 5.0664c-.61799.95966-.13542 2.2704-1.334 2.9629-.18354-4.8839-3.3646-5.3791-6.1699-4.1152-.88055-1.7612-.42187-4.7148-.42187-4.7148s-2.7497 1.3202-4.7344 1.8672c-1.1809.32544-.40738-.82285-.72461-2.2383-.37191-1.6593-2.7194-1.2112-2.248-1.4961 2.5136-1.5195 5.2019-2.0846 7.5957-3.8652 2.1901-1.6291 4.8457-6.9336 4.8457-6.9336s-8.5121-7.1971-12.402-11.965c-3.1258-3.8308-6.873-11.793-6.873-11.793s-15.365 4.8276-23.957 5.2168c-5.1236.23207-12.344.0253-17.047-2.4492-8.3846-4.4122-13.59-15.331-21.256-21.363-4.8792-3.8392-8.9353-8.2566-14.719-9.0312-.52568-.0704-1.0675-.10963-1.6191-.12109z" id="path144" fill="#e4c900"/>
        <path d="M441.06 553.56s.0938.22259.13476.3164l.0274-.11914-.16211-.19726zm.13476.3164l-.78515 3.4297-3.7441 3.7441-4.3945 1.3809-7.3262-.78906-11.068-1.5762h-12.369l-13.836 1.9707-13.51 3.3516-7.6504 3.3496s5.2023.94599 7.8125.78906c7.7697-.4671 15.239-3.8871 22.951-5.125 4.641-.74497 9.3187-1.5564 13.998-1.3809 6.0819.22818 11.988 2.8763 18.068 3.1543 3.2062.14654 6.7108.89376 9.6035-.78711 1.6618-.96557 3.3171-2.7578 3.7422-4.9297.40744-2.0817-1.145-5.7868-1.4922-6.582zm38.908 20.691l-16.033 1.1426-19.096 4.5684c21.864 3.899 48.145-12.489 58.24 9.5234l.14648-3.4258-4.3965-6.668-6.6016-3.7793-12.26-1.3613zm23.111 15.234l-.008.1836.23633.28711c-.0723-.16573-.15442-.30914-.22851-.47071zm-100.3 21.006c24.407 15.815 27.34 39.828 59.402 29.217-28.823 2.2741-30.624-25.836-59.402-29.217zm-24.621 3.7461c-28.334 11.228-35.606 10.801-39.195 14.852-1.5181 1.7133-1.5735 3.993-2.9609 6.3652-1.3792 2.3581-4.0848 4.8064-7.293 6.877 20.033-.40982 35.839-21.636 49.449-28.094zm96.789 23.256c2.8884 11.684 10.112 18.672 17.914 25.635-3.4134-11.776-9.3053-19.385-17.914-25.635zm-185.89 14.9c-15.655 1.3747-16.444 7.6011-22.701 10.49 16.61-1.6248 15.293-3.7315 22.701-10.49z" id="path146" fill="#fff1a1"/>
        <path id="path150" d="M444.11 563.67c3.4713-.46177 10.598-2.1754 12.991-5.0069 1.1154-1.3198 4.242-5.0069 4.242-5.0069-.66269 8.3242-4.1867 13.72-11.665 17.377-5.9674 2.918-12.856 3.593-19.354 2.9452-4.0918-.40789-11.665-2.9452-11.665-2.9452 4.1548 5.3933 2.0432 9.2001-3.1815 11.781 0 0 .77417-5.1651-.79536-5.8905-3.3849-1.5643-7.2011.47395-10.796 2.8679-2.655 1.7682-6.6751 2.5928-9.3828 2.5567-4.5109-.06-7.0109-.12316-11.229-1.8988-2.5442-1.0707-6.9577-5.1556-8.8276-4.7497-4.0366.87608-9.1349 1.3687-11.432 5.1591-.79793 1.3168-.70008 3.3784 0 4.7622 1.5708 3.1051 5.0989 4.7264 8.2164 5.5559 9.2719 2.467 16.839 2.4507 25.99.88421 9.4314-1.6144 20.444-4.8476 29.874-6.799 9.3467-1.9342 21.397-5.589 28.48-7.3554 12.518-3.1218 18.134-3.5516 27.502-3.3856 16.406.29091 21.777 9.9671 21.278 20.528-.51322 10.849-10.399 15.761-18.863 18.805-14.882 5.3513-35.315 2.3038-48.157 1.9382 0 0 4.3049 4.0049 6.2578 5.8357 2.2877 2.1447 3.4311 6.63 6.2579 7.7243 3.8771 1.5008 9.8074-1.4748 13.906-1.738 5.7315-.36803 15.471.38624 15.471.38624 1.4911-1.6869 2.4574-2.858 4.007-3.3628 1.1112-.36283 2.8602-.3823 3.7521-.004 1.7649.74873 2.9523 3.0551 2.2122 7.3484 0 0 1.2231 1.9029 3.0896 2.3413 1.976.46496 4.2835.0548 5.4097.44937 1.8576.65072 4.8658 2.7027 4.8658 2.7027s-3.1886 1.1221-4.5153 2.02c-.90812.61459-2.1199 2.6483-2.1199 2.6483s4.3682.0838 6.1928.98283c1.9544.96298 3.76 3.6855 3.76 3.6855s-2.6301-.20694-3.8836.67207c-.95825.67198-2.5304 2.522-2.5304 2.522s5.113-.46161 6.8563 1.2285c1.5434 1.4963 3.3176 4.1769 3.3176 4.1769s-2.7586-.0647-4.0646.35283c-.84959.27162-2.3494 1.3671-2.3494 1.3671s3.5345 2.0468 5.087 4.4226c1.2402 1.8979 1.5482 6.1425 1.5482 6.1425s-2.0813-1.7328-3.3602-2.3691c-.79969-.39793-2.6115-.33362-2.6115-.33362l.82805 8.7144c.2036 2.1428 2.908 4.4628 3.3905 6.1206.6085 2.0905.45607 2.8761-.63572 4.7081-1.3978 2.3462-4.2847 2.8254-6.781 2.354-1.3774-.26008-3.3129-2.1909-3.3129-2.1909s-1.4094 2.8919-2.3593 3.7785c-1.5907 1.4847-2.3578 1.8951-4.4339 1.8066-1.5923-.068-2.927-.9988-4.029-2.2774-1.2685-1.4718-2.1474-5.8777-2.1474-5.8777l-4.8955 1.0751c-1.0631.23347-4.2852-1.5676-4.6444-2.7035-.75282-2.3803-.82578-4.7863.63571-6.7174 1.3877-1.8336 5.2252-1.9291 7.1806-2.9389 2.5054-1.2938 4.913-5.0381 4.913-5.0381s-8.1788-6.9889-11.716-11.336c-1.9448-2.39-5.291-7.9769-5.291-7.9769s-10.429 3.4895-14.361 4.1984c-9.6992 1.7485-20.03 0-20.03 0-14.826 0-24.69-25.293-38.171-31.068-4.1139-1.7622-6.0504-1.4863-10.354-.41983-15.621 3.8714-32.297 25.861-47.772 30.396-6.3528 1.8615-19.652 2.519-19.652 2.519s-2.1776 5.2101-4.2369 6.6976c-2.2395 1.6176-7.8622 1.7234-7.8622 1.7234s-1.438 6.23-3.0853 8.597c-1.7211 2.4731-6.4507 4.8697-6.4507 4.8697.69875-2.8417 1.1149-5.0173.12729-8.6084 0 0-2.3515 4.971-4.6382 7.3245-1.9908 2.049-6.8479 4.5813-6.8479 4.5813.38971-2.6503 1.504-5.1663 0-8.1672 0 0-1.999 5.022-3.737 6.8776-1.7349 1.8523-6.3234 3.8686-6.3234 3.8686.88889-2.8656 1.4569-5.7313 0-8.597 0 0-1.9009 5.1492-3.6046 6.8776-2.3523 2.3864-8.0088 4.9998-8.0088 4.9998.95404-2.9562 1.8717-5.9122 1.166-8.8684l-3.8473-.008c-4.6446-.01-4.9406 4.727-7.1032 6.8833-2.1239 2.1178-5.5743 2.1654-7.2275 1.5055-2.9162-1.1641-5.5087-5.2566-1.9685-11.272-6.1236.79053-9.3146-3.8397-9.2992-7.9594.0145-3.9578 1.207-7.4519 7.383-7.0293 0 0-.79834-3.4274-.4869-5.231.43353-2.5106 2.2126-4.6897 4.6199-4.4456.9898.10036 2.8266.88134 3.667 1.9742 1.3292 1.7285 1.6957 4.2441 3.9064 6.1204 2.5029 2.1243 8.4551 1.9524 8.4551 1.9524s11.568-7.5568 19.198-10.606c4.0599-1.6223 15.59-4.0742 15.59-4.0742l.36132-34.192c6.9287.51626 3.9489.58869 9.8084.37735 8.4167-.30353 30.528 3.8156 30.528 3.8156l15.744-1.3005s26.26-4.7825 38.753-6.2782c6.2936-.7535 12.653-1.2952 18.973-.8969 9.5195.59993 17.695 3.4505 26.643 4.036 7.5236.4923 12.662 1.4191 20.184.89687 10.74-.74552 29.938.1294 36.038-11.592 1.5832-3.042.77027-7.209-1.5926-9.5518-3.1176-3.0912-5.3343-4.2552-9.4923-3.1927-2.193.56041-4.9814 2.4198-5.2548 4.7077-.1482 1.2403.0375 2.3341.97487 3.7988 1.6114 2.5184 3.4324 3.7335 3.4324 3.7335s-5.413.29907-7.5345-1.5864c-2.2328-1.9844-3.4837-7.829-3.4837-7.829-1.0497 1.6083-1.8216 3.371-1.6447 5.6606.15238 1.9733-.006 3.2082 1.9837 6.2028 0 0-4.9288-.38234-7.2889-3.3896-1.5863-2.0212-2.8817-8.0972-2.8817-8.0972-1.3985 1.5333-2.252 4.0162-2.3116 5.8469-.0861 2.6437.94564 3.8034 1.464 6.5815 0 0-4.8583-1.5861-6.7804-4.5194-1.4916-2.2762-2.2873-8.2549-2.2873-8.2549-5.5889 1.5475-16.257 3.7353-27.874 6.5067-8.1843 1.9525-20.683 4.9531-29.517 6.1864-15.171 2.1182-26.215 1.022-35.541-3.3748-4.8531-2.2881-7.0397-4.489-8.2907-9.6848-.71011-2.9492.33588-7.1272 2.7448-10.38 3.3582-4.5347 9.1914-7.9291 15.707-9.7228 0 0 17.257-5.1475 27.308-6.185 16.115-1.6636 22.668.83822 29.402 1.7805 4.3766.61236 9.0855-.39218 10.464-2.2197 1.1597-1.5379 3.0783-3.1954.49343-6.9036 0 0 3.2752.0725 5.4497 4.5405.88814 1.8249-.20749 6.042-.20749 6.042h.00006z" fill="none" stroke="#806600"/>
        <path id="path152" d="M327.42 612.37c3.7416 2.3278 7.8508-.72239 8.6972-1.0335 0 0-1.7913-1.2501-3.0036-4.2542-.815-2.0196-1.0971-5.5883-1.1723-7.2612-.27955-6.2137 2.1993-7.1774 2.28-6.7072 0 0 4.1168-1.4112 5.8241-2.7264 1.6184-1.2449 2.366-3.4066 2.8123-5.3978.66946-2.9868-.50768-7.375-.50768-7.375-5.9819-.34569-7.5028.44606-8.904 2.2773 0 0-.12373-3.0522-.95499-5.8396-.41436-1.3894-1.3712-3.458-2.3519-4.7971-1.008-1.3764-2.0347-2.0047-2.0347-2.0047-.0371 1.5852-1.4617 3.0333-2.1903 4.1391 0 0-.60697-6.0706-2.1293-8.2479-1.1742-1.6795-4.4152-3.9157-4.3914-3.9088.024.008-3.683.21187-5.577.99424-2.4554 1.0144-6.2372 5.8018-6.2372 5.8018-.0181-1.3241-.43814-3.3116.38455-4.6671 0 0-1.2034-.0238-2.7941.59287-1.5477.59992-3.4683 1.8272-4.5657 2.7746-2.2019 1.9006-3.9504 4.4054-3.9504 4.4054-.0987-2.399-.91576-3.7804-6.2749-6.7152 0 0-3.3557 3.063-4.4005 5.94-.6968 1.9181-1.2296 4.1426-.53843 6.0626.7298 2.0278 3.4381 5.4345 3.4381 5.4345.32113-.35274 1.8904 1.7946-1.6924 6.879-.9645 1.3689-3.1246 4.2235-4.8992 5.486-2.6397 1.8779-4.8223 1.9662-4.8223 1.9662 1.3327 3.4669 1.6961 4.8856 6.7707 5.5559-11.566 8.3004-12.878 21.542-3.9985 32.822.57871-1.3546 2.5614-4.4303 3.7327-5.6116-.12469-.0978.14926 6.5185 3.4505 9.8878 1.0712 1.0932 1.5924 7.1764 3.14 9.0897 1.4118 1.7455 3.3953 3.644 3.3953 3.644s1.5391-4.8246 3.7962-5.5764c2.273-.75728 6.5183-1.9713 7.9188-2.413 2.8186-.88897 7.8384-6.8949 7.8384-6.8949l-.88195 7.3444c15.216-5.3944 18.689-15.726 14.794-29.666z" fill="#fee46e"/>
        <path id="path154" d="M297.92 593.63c.66304 4.3513-1.4208 12.967-3.0639 15.317l9.8912 3.9665 9.7614 1.1261c-.79677-3.9973 3.1146-11.808 5.0634-14.464l-7.1743.15447-3.2028-3.201-5.8597 1.3005-5.4152-4.1997z" fill="#504416"/>
        <path id="path156" d="M299.87 596.1c-1.2928 4.6796-.54982 5.5433-.30859 7.3926l2.8535-6.1113-2.5449-1.2812zm13.85 4.5059l-.80469 6.6973c1.181-1.4434 2.2687-1.7844 3.6406-6.4414l-2.8359-.25586zm-14.143 4.7148c-1.181 1.4434-2.2687 1.7863-3.6406 6.4434l2.8359.25391.80468-6.6973zm12.443 3.5527l-2.8535 6.1113 2.5449 1.2812c1.2928-4.6796.54982-5.5433.30859-7.3926z" fill="#fff"/>
        <g id="g174">
          <path id="path158" d="M307.34 569.49c-1.9643-.005-3.8687.0891-5.2812.31445-3.5737.57012-3.7266 2.0586-3.7266 2.0586 6.5217.16463 11.174 2.6246 15.094 5.9883l-3.7363 5.4629s1.15 1.9476 2.1367 2.2812c.98399.33271 3.0723-.51563 3.0723-.51563l-.56836-7.1894c5.6309-.0394 10.972.93477 15.918 3.2949 0 0 .37603-1.5687-2.1797-3.8691-3.0391-2.7355-9.3008-6.3326-12.398-7.123-1.615-.4121-5.0562-.6946-8.3301-.70312zm-2.3047 19.285a3.1358 3.0731 15.929 00-3.0215 2.2168 3.1358 3.0731 15.929 002.1719 3.8164 3.1358 3.0731 15.929 003.8594-2.0957 3.1358 3.0731 15.929 00-2.1719-3.8144 3.1358 3.0731 15.929 00-.83789-.12305zm9.3945 2.6816a3.1358 3.0731 15.929 00-3.0215 2.2168 3.1358 3.0731 15.929 002.1719 3.8164 3.1358 3.0731 15.929 003.8594-2.0957 3.1358 3.0731 15.929 00-2.1719-3.8144 3.1358 3.0731 15.929 00-.83789-.12305zm-19.158 9.5996c-6.7009.003-14.093 8.5546-14.014 18.582 4.7635-6.5596 14.791-14.157 14.658-18.555-.21445-.0179-.42837-.0275-.64453-.0273zm22.904 8.8613c-.85059 4.1168 2.6022 12.789 1.6113 20.426 4.4081-9.7788 2.953-18.727-1.6113-20.426zm-25.82 7.0547s-1.752 3.5602-1.8398 6.4453c-.0587 1.9305-.001 3.9551.70703 5.752.73274 1.8589 5.3691 5.373 5.3691 5.373l-1.248 4.3496s4.9814-2.1529 6.0117-3.8359c.78663-1.285 3.1641-6.5801 3.1641-6.5801l-5.2207 4.0644s-5.2698-4.1664-6.1309-6.4453c-1.3247-3.5059-.81055-9.123-.81055-9.123h-.002z" fill="#ffefa7"/>
          <path id="path160" d="M300.83 576.49c-1.8531-.10564-3.158.56715-3.5781 2.0391-.56013 1.9626.81517 4.0764 3.7227 4.9062 2.9075.82982 5.7387-.65269 6.2988-2.6152.56013-1.9625-1.5125-3.137-4.4199-3.9668-.72687-.20746-1.4057-.32807-2.0234-.36328zm20.373 5.8965c-1.456-.0585-2.5171.36325-2.8672 1.5898-.56013 1.9626 1.0613 4.7151 3.9688 5.5449 2.9075.82982 5.1918-.23863 5.752-2.2012.56013-1.9625-.96752-3.5491-3.875-4.3789-1.0903-.31118-2.1049-.51956-2.9785-.55469z" fill="#fff"/>
          <path id="path162" style="text-indent:0;text-decoration-line:none;text-transform:none" d="M300.85 576c-.67372-.0332-1.2956.0265-1.8438.1836-1.0962.31412-1.8952 1.0899-2.2168 2.2168-.32164 1.1269-.0694 2.3046.64453 3.2871.7139.98251 1.8749 1.8029 3.4141 2.2422 3.1349.89474 6.206-.66376 6.8672-2.9805.3306-1.1583-.16738-2.186-1.0723-2.9023-.90488-.71638-2.156-1.2487-3.6387-1.6719-.75546-.21561-1.4806-.34182-2.1543-.375zm-.0332.96485c.57603.0343 1.2216.14836 1.9199.34765 1.4248.40666 2.5868.94342 3.3047 1.5117.71785.5683.96585 1.0532.73633 1.8574-.45906 1.6084-2.9821 3.0754-5.6621 2.3106-1.3683-.39052-2.3334-1.0676-2.8945-1.8398-.56116-.77228-.73264-1.6488-.49414-2.4844.23849-.83562.75008-1.3322 1.5879-1.5723.4189-.12004.92592-.16518 1.502-.13086zm20.406 4.9512c-.31043-.008-.60981.004-.89648.0371-1.1467.13084-2.1108.74009-2.4414 1.8984-.66121 2.3167 1.1248 5.2615 4.2598 6.1562 1.5392.43929 2.9571.35612 4.082-.10157 1.1249-.45768 1.9616-1.3242 2.2832-2.4512.3216-1.127.0524-2.2092-.71289-3.0547-.7653-.84543-1.9852-1.516-3.4961-1.9473-1.112-.31737-2.1468-.51385-3.0781-.53711zm-.0488.98633c.808.0192 1.7908.18328 2.8594.48828 1.3966.39859 2.4346.97497 3.0195 1.6211.58488.64613.75803 1.3402.51953 2.1758-.23849.83563-.84622 1.4879-1.7305 1.8477-.88428.3598-2.0614.42568-3.4297.0352-2.68-.76491-4.0489-3.3428-3.5898-4.9512.22953-.8042.6958-1.0837 1.6055-1.1875.22742-.0259.47676-.0357.74609-.0293z" color="#000" text-decoration="none" fill="#d1b948"/>
          <path id="path164" d="M300.95 572.13c-1.3284-.17933-2.9262.0476-3.8894.97979-.57764.55901-.66853 2.3424-.66853 2.3424l2.0829.0245 2.3424.66853 5.053 2.2655 5.5375-.31943s-3.0253-1.2381-4.5052-2.0758c-1.9983-1.1312-3.6769-3.5783-5.9526-3.8854zm26.527 7.5711c-1.9121-.48919-4.103.52472-6.1106.44249-1.6991-.0696-5.0399-.64848-5.0399-.64848l4.5347 3.1941 5.4876.74293 2.2838.65182 1.782 1.0786s.86409-1.5627.66853-2.3424c-.3261-1.3002-1.5634-2.3362-2.7863-2.8851-.26188-.11751-.54667-.16414-.81983-.23399z" fill="#e4c900"/>
          <path id="path166" d="M295.34 609.11c-5.3114 12.847 15.237 19.344 18.243 5.2068-5.5159-.38641-11.291-1.3909-18.243-5.2068z" fill="#e4c900"/>
          <path id="path168" style="text-indent:0;text-decoration-line:none;text-transform:none" d="M294.85 607.8l-.41795 1.0206c-1.4237 3.4434-1.106 6.6198.26186 9.0675 1.36786 2.4477 3.7426 4.1282 6.3838 4.9251 2.6412.79698 5.5655.70727 8.0887-.60454 2.5232-1.3118 4.5498-3.8854 5.3514-7.6554l.24238-1.0707-1.1209-.0666c-5.4457-.38149-11.044-1.3564-17.86-5.0976l-.92865-.51837-.0001-.00002zm.64057 1.572c6.0086 3.0708 13.214 4.5848 18.093 5.019-.81132 2.6161-2.4432 5.7416-4.2082 6.6593-2.0091 1.0445-5.9026 1.32-8.1104.65385-2.2078-.66621-5.0649-3.4099-6.15-5.3518-.95779-1.714-.40616-4.4596.37579-6.9805l-.00003.00009z" color="#000" text-decoration="none" fill="#806600"/>
          <path id="path170" d="M303.79 597.86c-2.5593 8.4523-4.7858 18.005-3.0526 26.804 6.1166-6.5588 9.2446-15.767 11.532-24.296.0107-.34427-1.681-1.106-1.8968-1.378-.53063-.66864-1.4296-2.2494-1.4296-2.2494s-1.7091 1.0797-2.6751 1.3081c-.82361.19472-2.4781-.18866-2.4781-.18866z" fill="#377bc8" stroke="#2c5aa0"/>
          <path id="path172" d="M319.21 559.18c.024.008-3.6822.21176-5.5762.99414-2.4554 1.0144-6.2363 5.8027-6.2363 5.8027-.0181-1.3241-.43988-3.3125.38282-4.668 0 0-1.2023-.0229-2.793.59375-1.5477.59992-3.469 1.8261-4.5664 2.7734-2.2019 1.9006-3.9492 4.4062-3.9492 4.4062 1.9404-.0679 6.255-3.9598 7.9238-3.582 1.416.32045.43397 4.1079 1.8008 4.2812 1.8639.2364 3.5212-2.6814 5.8398-4.7227 2.0562-1.8103 4.9132-3.1869 6.2793-2.7402 1.3748.44953 3.0821 3.135 3.8086 5.7598.85834 3.1014 1.4918 6.444 2.916 7.1406 1.4145.69189 2.6433-3.1532 4.084-2.6699 1.7109.57403 2.5039 6.4302 4.1387 7.2891 0 0-.12382-3.0524-.95508-5.8398-.41436-1.3894-1.3708-3.4577-2.3516-4.7969-1.008-1.3764-2.0352-2.0039-2.0352-2.0039-.0371 1.5852-1.4609 3.0328-2.1894 4.1387 0 0-.60661-6.0707-2.1289-8.248-1.1742-1.6795-4.4164-3.9151-4.3926-3.9082zm-24.668 21.662c-2.1084 3.5763.54092 7.0118 4.8066 7.7754l-1.6523 4.2051 2.4219 4.7441 4.4141 1.5371 4.1758-1.6504 2.7754 3.7676 3.875.8711 4.9863-2.998 1.9941-3.377 3.1152-.18946 2.6621-1.2773.94531-3.3164c-2.4754 1.7732-4.9196 3.5084-9.9336 1.4238-.14385 2.6557-.79174 4.3052-1.7109 5.2461-1.0973 1.1232-2.5812 1.2374-4.0508.85156-1.8329-.48119-3.4012-2.5542-4.127-3.6524-1.813 1.0864-3.363 1.9109-4.4844 1.5449-2.3435-.76492-3.6575-2.1587-4.041-3.7676-.4062-1.7042.2323-3.6492 1.793-5.3398-9.2834-2.4522-5.9535-4.9245-7.9648-6.3984zm-4.7949 1.2031c-.9645 1.3689-5.6863 8.9133-7.4609 10.176-2.6397 1.8779-4.8223 1.9648-4.8223 1.9648 1.3327 3.4669 1.695 4.8863 6.7695 5.5566-11.566 8.3004-12.878 21.542-3.998 32.822.57872-1.3545 2.5611-4.4301 3.7324-5.6113-.12469-.0978.14993 6.5194 3.4512 9.8887 1.0712 1.0932 1.5929 7.1746 3.1406 9.0879 1.4119 1.7454 3.3945 3.6445 3.3945 3.6445s1.5398-4.8243 3.7969-5.5762c2.273-.75727 6.5175-1.9704 7.918-2.4121 2.8186-.88898 7.8379-6.8965 7.8379-6.8965l-.88086 7.3457c15.216-5.3944 18.689-15.726 14.793-29.666 3.7417 2.3278 7.8509-.72208 8.6973-1.0332 0 0-1.7915-1.2517-3.0039-4.2559-.815-2.0196-1.04-5.5904-1.1719-7.2598l-.36133-4.5742s-1.7208 5.1365-2.1289 6.5664c-.4081 1.4299.14453 6.5137.14453 6.5137-2.4708-.87158-4.9593-1.6815-7.1387-3.5742 0 0 2.6148 10.316 2.8965 15.23.15219 2.6556-.75125 7.3712-1.7754 9.8262-1.0853 2.6016-6.3691 6.5918-6.3691 6.5918s1.2689-6.6024 1.2441-8.8672c-.0352-3.2166-1.3106-11.387-1.3106-11.387s-1.8262 8.3735-3.2773 10.869c-1.6512 2.8397-4.6797 7.8477-4.6797 7.8477.84907-8.0083.42421-8.4689-.60779-11.497 0 0-1.8968 9.962-5.4156 14.243-.87828 1.0685-4.2122 1.9253-6.1172 2.918-2.1145 1.1019-2.7676 2.2871-2.7676 2.2871s-1.9942-5.5735-2.5488-6.8613c-1.2282-2.8516-3.6667-5.8464-4.498-8.8379-1.2216-4.3962 4.6719-13.85 4.6719-13.85-2.1817.0397-4.366 2.603-6.7188 5.4277-1.9222 2.3078-4.118 4.7444-5.1777 6.502 0 0-1.8844-6.8693-1.8535-8.9062.0437-2.8878 1.1307-5.7824 2.6152-8.2598 2.4092-4.0204 13.002-12.275 13.002-12.275-2.9156.78462-5.5539 1.8217-11.082.21289 0 0 4.3736-5.1304 5.0898-6.3359 2.1968-3.6977 1.3692-5.0991 1.9707-7.5859zm19.738 4.2207c-2.192-.0397-4.9492.25196-4.9492.25196l.29493 1.8945 1.9902.76953 2.6938 4.0088 6.8589-1.8388.91211-1.5703s-3.8702-2.8745-5.9199-3.3418c-.4819-.10988-1.1502-.16058-1.8809-.17383z" fill="#e4c900"/>
        </g>
        <path id="path176" d="M327.42 612.37c3.7417 2.3278 7.8508-.72239 8.6972-1.0335 0 0-1.7913-1.2501-3.0036-4.2542-.815-2.0196-1.0971-5.5883-1.1723-7.2612-.27954-6.2137 2.1993-7.1774 2.28-6.7072 0 0 4.1169-1.4112 5.8241-2.7264 1.6184-1.2449 2.366-3.4066 2.8123-5.3978.66946-2.9868-.50767-7.375-.50767-7.375-5.9819-.3457-7.5028.44606-8.904 2.2773 0 0-.12373-3.0522-.95499-5.8396-.41435-1.3894-1.3712-3.458-2.3519-4.7971-1.008-1.3764-2.0347-2.0047-2.0347-2.0047-.0371 1.5852-1.4617 3.0333-2.1903 4.1391-.67605-5.603-1.9241-8.8012-6.5207-12.157-5.3391.12615-8.4234 2.7207-11.814 6.7961-.0181-1.3241-.43815-3.3116.38455-4.6671 0 0-1.2034-.0238-2.7941.59287-1.5477.59991-3.4683 1.8272-4.5657 2.7746-2.2019 1.9006-3.9504 4.4054-3.9504 4.4054-.0987-2.399-.91576-3.7804-6.2749-6.7152 0 0-3.3557 3.063-4.4005 5.94-.69679 1.9181-1.2296 4.1426-.53843 6.0626.72981 2.0278 3.4381 5.4345 3.4381 5.4345.32112-.35275 1.8904 1.7946-1.6924 6.879-.9645 1.3689-3.1246 4.2235-4.8992 5.486-2.6397 1.8779-4.8223 1.9662-4.8223 1.9662 1.3327 3.4669 1.6961 4.8856 6.7707 5.5559-11.566 8.3004-12.878 21.542-3.9985 32.822.57872-1.3545 2.5614-4.4303 3.7327-5.6116-.12468-.0978.14926 6.5185 3.4505 9.8879 1.0712 1.0932 1.5924 7.1764 3.14 9.0897 1.4119 1.7454 3.3953 3.644 3.3953 3.644s1.5391-4.8246 3.7962-5.5764c2.273-.75727 6.5183-1.9713 7.9188-2.413 2.8186-.88898 7.8384-6.8949 7.8384-6.8949l-.88196 7.3444c15.216-5.3944 18.689-15.726 14.794-29.666z" fill="none" stroke="#806600"/>
        <g id="g184">
          <path id="path178" style="text-indent:0;text-decoration-line:none;text-transform:none" d="M290.38 566.57s-2.4398 3.7677-2.0781 6.2207c.28751 1.9498 3.6426 6.3398 3.6426 6.3398s2.0628-6.3738 1.7383-8.7422c-.23796-1.7371-3.3027-3.8184-3.3027-3.8184zm8.248 8.1348c-.43331.0156-.87697.12496-1.332.34765-.9102.44556-1.53.58514-1.916 1.9336 1.1182-.1793 1.8403-.58483 2.7578-.9961.22005-.10783.55695-.10889 1.1426.11719 1.1712.45203 2.7973 1.7564 4.5937 2.2754 2.5725.74231 5.8988-.13399 7.209-.27539-.14164.53888-.39329 2.1268-.96289 2.957-.29043.42329-2.4288 1.2408-3.4141 2.1758-.49261.46749-.97512.94368-1.3828 1.3887-.40769.44497-.75006.80067-.95507 1.3633-.41334 1.1344-.18555 2.3379-.18555 2.3379l.0469.64257.61524.19727c2.2677.73984 2.6605 1.5679 3.2246 3.332l.0879.27734.20508.16211c.23996.21136.4165.38079.6289.51563.21242.13479.49204.2463.74024.27539.49641.0582.58981-.042 1.0527-.0156l.39063.0273.30664-.26758c1.4102-1.2006 2.201-1.6916 4.5176-1.123l.60547.15235.40039-.51563s.80903-.90816 1.0566-2.0898c.12289-.58604-.16007-.8893-.27148-1.4824-.11141-.59313-.26974-1.2511-.44141-1.9082-.34333-1.3141-1.4357-3.7118-1.459-4.2246-.0456-1.0057.4818-2.3486.64648-2.8809 1.0458.81565 3.3979 3.5704 5.9609 4.293 1.7997.50758 3.87.25797 5.1035.49219.61674.11705.90119.29613 1.0312.50391l1.8184 2.3027c.38371-1.3491-.0734-2.2095-.61133-3.0684-.53789-.85885-1.0136-.76307-1.8809-.92773-1.7345-.32929-3.7372-.12643-4.9238-.46094-2.9219-.8238-5.7286-3.9512-5.7286-3.9512l-.82422-.71875-.61719.91406s-1.1242 1.6982-1.002 4.3926c.0473 1.0422 1.0807 3.0762 1.418 4.3672.16864.64549.32174 1.2734.41601 1.7754.0943.50195.0757.91609.0781.90429-.0469.2283-.26205.54398-.45313.85547-2.1879-.31965-4.6102.71518-5.9629 1.7871-.23849.004-.56205-.0147-.54297-.008-.0296-.0206-.11649-.10222-.18555-.1582-.58083-1.6476-2.4301-4.1749-4.4805-5.0684.002-.36542-.0134-.74788.0664-.9668-.004.0111.21755-.34411.5625-.7207.34501-.37657.80707-.82983 1.291-1.2891.96788-.91848 2.9937-1.8194 3.584-2.6797 1.526-2.224 1.4668-4.2598 1.4668-4.2598l-.0606-1.1074-1.0781.17578s-3.7436 1.1942-6.6602.35157c-1.1845-.34212-2.7787-1.5712-4.4258-2.207-.41177-.15896-.83427-.23827-1.2676-.22265zm-3.9551 5.2266c-1.5974 2.1536-1.8483 4.4578-.92187 6.2402.77286 1.487 2.3305 2.4273 4.1484 3.0293-.10518.29183-.13261.33928-.25977.76562-.27691.92761-.56342 2.0106-.45313 3.0586.22728 2.147 1.4241 3.8725 2.9668 5.1894 1.3463 1.1492 3.1607 1.6324 4.8438 1.5488 1.0371-.0515 1.9554-.44785 2.6894-.82617.26172-.13487.29074-.16893.50391-.29688.40937.83841 1.0262 1.8594 2.1797 2.6582 1.3854.95937 3.1621 1.4998 4.9121 1.2344 2.0054-.30425 3.9315-1.1382 5.2578-2.8418.64746-.83169.97588-1.9039 1.2305-2.8379.0909-.33288.0735-.34782.13281-.61328 1.9523.58356 3.799.40933 5.1914-.55273 1.6564-1.1445 2.5554-3.2373 2.4961-5.7266-1.4282.72431-.15525 2.8497-3.2871 4.791-1.0184.70368-2.4946.85873-4.4043.002l-1.4551-1.1953.0937 2.0684s-.12573.69941-.35352 1.5352c-.22835.83558-.61873 1.8115-.88867 2.1582-.96273 1.2366-2.6222 1.8567-4.3008 2.1113-1.1253.17073-2.5082-.22357-3.5137-.91992-.96359-.66727-1.8414-2.5044-1.8848-2.6875l-.47461-2-1.0098 1.1191c-.24766.27482-.94255.56362-1.543.87305-.60043.30945-1.3099.56489-1.8906.59375-1.2216.0607-2.6226-.34112-3.4883-1.0801-1.2913-1.1023-2.4952-2.9454-2.6602-4.5039-.0463-.43698.13713-1.4726.38476-2.3027.24709-.83023.73438-1.4922.73438-1.4922l.82812-1.0664-1.668.10351c-1.9214-.40856-3.2791-1.3632-3.8496-2.4609-2.0718-2.2905-.20099-3.952-.28711-5.6758zm45.156.75195s-3.7013.15215-4.8203 1.502c-1.5257 1.8404-3.1367 8.3398-3.1367 8.3398s5.1661-1.9566 6.4394-3.4609c1.602-1.8926 1.5176-6.3809 1.5176-6.3809z" color="#000" text-decoration="none" fill="#806600"/>
          <path id="path180" d="M302.44 577.81a2.053 2.053 0 00-1.9902 1.4902 2.053 2.053 0 001.4121 2.5371 2.053 2.053 0 002.5371-1.4102 2.053 2.053 0 00-1.4102-2.5371 2.053 2.053 0 00-.54882-.0801zm20.479 5.8633a2.053 2.053 0 00-1.9297 1.4883 2.053 2.053 0 001.4121 2.5391 2.053 2.053 0 002.5371-1.4121 2.053 2.053 0 00-1.4102-2.5371 2.053 2.053 0 00-.60937-.0781z" fill="#2b2200"/>
          <path id="path182" d="M246.54 647.14c-1.5048.69835-3.6989-.96347-8.1875 3.7695 3.7069-.15362 4.9244.5522 7.3027 3.5195 1.5799-.23305 2.4368-1.055 2.7637-2.1426.65781-2.1882.002-4.0838-1.8789-5.1465zM352 653.2025c-1.82.70454-4.4828-.94679-9.9023 3.8047 4.4885-.16889 5.9671.53275 8.8574 3.4902 1.9125-.23958 2.9458-1.0654 3.3379-2.1543.78898-2.1908-.0118-4.0857-2.293-5.1406zm-113.23 7.0352c-1.1541 1.3621-3.712.88597-6.2891 7.3828 3.3546-1.9164 4.7059-1.8501 7.8594-.26367 1.375-.97071 1.8929-2.1356 1.8379-3.291-.11052-2.3248-1.3338-3.7527-3.4082-3.8281zm115.45 10.078c-1.3122 1.4446-4.4326 1.1573-7.1524 7.832 3.9382-2.16 5.5741-2.1929 9.4824-.8418 1.603-1.0702 2.1583-2.2726 2.0215-3.4219-.27506-2.3123-1.8395-3.6459-4.3516-3.5684zm-107.3 5.4766c-.61273-.0317-1.2774.1597-1.9707.58789-.47107 1.8663-2.9021 2.9396-2.582 10.137 2.1803-3.6337 3.3903-4.3632 6.7852-4.8086.82016-1.6518.81158-2.9759.30469-3.957-.63749-1.2337-1.5159-1.9061-2.5371-1.959zm229.38.76953c-.43415.0219-.89571.14253-1.3809.36523-.63641 1.793-3.1502 2.5379-3.4805 9.7344 2.4947-3.324 3.763-3.8887 7.1777-3.8828.96408-1.5336 1.0757-2.8503.66015-3.8926-.62704-1.5727-1.6741-2.3899-2.9766-2.3242zm-106.31 4.8652c-.74121.0469-1.519.32141-2.3086.83594-.37009 1.9162-3.185 3.2943-2.0391 10.41 2.2417-3.8924 3.621-4.7712 7.6621-5.6484.81318-1.7475.66341-3.0639-.0508-3.9746-.89804-1.1452-2.0283-1.7011-3.2637-1.623zm133.15.49024c-1.2405-.11343-2.3343.66976-3.0918 2.3164.46736 1.8677-1.0591 4.3973 2.5176 10.158.13905-4.4886.80946-5.9101 3.4238-8.5703-.0788-1.9251-.69601-3.0175-1.5684-3.4902-.43878-.23779-.86776-.37625-1.2812-.41406zm-14.68 2.0898c-.79104.0726-1.5768.55483-2.3008 1.4551.0489 1.9507-1.9699 3.9104.24218 10.602 1.101-4.2893 2.0535-5.4491 5.1504-7.1914.33859-1.8833-.0195-3.1333-.75976-3.8652-.74476-.73632-1.541-1.0726-2.332-1z" fill="#377bc8" stroke="#2c5aa0"/>
        </g>
      </g>
    </g>
  </g>
</svg>
