<svg xmlns="http://www.w3.org/2000/svg" version="1.0" id="svg2" viewBox="0 0 200 219">
  <path d="M174.49736 72.729932c-.47006-12.671336-8.52618-18.599497-20.28908-21.232752 3.49222 7.69086 5.32171 13.496483 20.28908 21.232752z" id="path3278" fill="#98ba3b" fill-opacity="1" fill-rule="evenodd" stroke="none" stroke-width=".3" stroke-linecap="butt" stroke-linejoin="miter" stroke-opacity="1" stroke-miterlimit="4" stroke-dasharray="none"/>
  <path d="M96.632962 81.204478l.880482 101.695732h5.503016V81.424599l-6.383498-.220121z" id="path2193" fill="#fb46af" fill-opacity="1" fill-rule="evenodd" stroke="#000" stroke-width=".3" stroke-linecap="butt" stroke-linejoin="miter" stroke-opacity="1" stroke-miterlimit="4" stroke-dasharray="none"/>
  <path d="M147.39943 54.129639l-1.54085 85.186691-9.68531-.22012s1.92606 2.25624.44024-7.04386c-1.48581-9.3001-7.09889-18.82032-6.3835-30.15653 1.23863-19.627369 17.16942-47.766181 17.16942-47.766181z" id="path3222" fill="#96c1f4" fill-opacity="1" fill-rule="evenodd" stroke="none" stroke-width="1" stroke-linecap="butt" stroke-linejoin="miter" stroke-opacity="1"/>
  <path d="M144.29967 142.32617s3.27338-2.71307 1.06163-3.65675c-2.21174-.94368-8.4931-.8847-12.97557.94368-4.48247 1.82837-5.2577 4.32594-5.78002 6.60575-.89378 3.90114-19.81724 6.60574-19.81724 6.60574l.11796 16.63232c6.1123-1.36058 12.36847-4.10812 19.10948-10.49841 0 0 1.50398 3.12593 5.89799 3.06695 4.394-.05898 11.67801-3.30287 11.67801-3.30287l.70776-16.39641z" id="path3224" fill="#520" fill-opacity="1" fill-rule="evenodd" stroke="#000" stroke-width="1" stroke-linecap="butt" stroke-linejoin="miter" stroke-opacity="1"/>
  <path d="M142.33665 79.883754l-1.1006 57.011246s-.56888-5.41694-1.10061-7.92434c-.8681-4.09364-5.61307-18.9854-5.50301-27.95532.1471-12.283179 7.70422-21.131586 7.70422-21.131586z" id="path3226" fill="#097cf1" fill-opacity="1" fill-rule="evenodd" stroke="none" stroke-width="1" stroke-linecap="butt" stroke-linejoin="miter" stroke-opacity="1"/>
  <path d="M143.94494 159.78643l-.271 5.96201 1.355 2.3035-12.46601-.271 2.439-4.4715.1355-4.33601 8.80751.813z" id="path3228" fill="#90119a" fill-opacity="1" fill-rule="evenodd" stroke="#000" stroke-width=".6" stroke-linecap="butt" stroke-linejoin="miter" stroke-opacity="1" stroke-miterlimit="4" stroke-dasharray="none"/>
  <path d="M144.62244 167.78094l-9.48501-6.775" id="path3230" fill="none" fill-opacity=".75" fill-rule="evenodd" stroke="#000" stroke-width="0" stroke-linecap="butt" stroke-linejoin="miter" stroke-opacity="1" stroke-miterlimit="4" stroke-dasharray="none"/>
  <path d="M125.92342 155.58593c-1.32494.79291-5.4637 2.90622-9.48501 3.1165" id="path3232" fill="none" fill-opacity=".75" fill-rule="evenodd" stroke="#000" stroke-width="1" stroke-linecap="butt" stroke-linejoin="miter" stroke-opacity="1"/>
  <path d="M144.88947 142.32617c-4.74702 1.22293-7.47005.70678-10.49842 1.41552-.97681.2286-2.30575 1.90148-1.65144 3.89267l10.02658.11796 3.42083-1.29756s.91419-1.32704.5898-2.35919c-.32439-1.03215-1.88735-1.7694-1.88735-1.7694z" id="path3234" fill="#520" fill-opacity="1" fill-rule="evenodd" stroke="#000" stroke-width="1" stroke-linecap="butt" stroke-linejoin="miter" stroke-opacity="1"/>
  <path d="M145.00743 146.69068c-5.07827 1.65494-11.98213.93079-12.0319 2.949-.06671 2.70583 9.90862 2.47715 9.90862 2.47715l3.42083-1.29756s1.38603-1.32704 1.06164-2.35919c-.32439-1.03215-2.35919-1.7694-2.35919-1.7694z" id="path3236" fill="#520" fill-opacity="1" fill-rule="evenodd" stroke="#000" stroke-width="1" stroke-linecap="butt" stroke-linejoin="miter" stroke-opacity="1"/>
  <path d="M144.88947 150.46539c0 .70037-11.33201.47133-11.4421 3.18492-.09257 2.28186 4.61245 1.60915 8.72902 1.76939 3.18971.12416 4.01063-.82572 4.01063-.82572s1.38603-1.32704 1.06164-2.35919c-.32439-1.03215-2.35919-1.7694-2.35919-1.7694z" id="path3238" fill="#520" fill-opacity="1" fill-rule="evenodd" stroke="#000" stroke-width="1" stroke-linecap="butt" stroke-linejoin="miter" stroke-opacity="1"/>
  <path d="M144.29967 155.65562s-9.65666.55264-9.55474 2.47716c.10014 1.89087 7.07893 3.08271 10.85229 1.65143 0 0 1.38603-1.32704 1.06164-2.35919-.32439-1.03215-2.35919-1.7694-2.35919-1.7694z" id="path3240" fill="#520" fill-opacity="1" fill-rule="evenodd" stroke="#000" stroke-width="1" stroke-linecap="butt" stroke-linejoin="miter" stroke-opacity="1"/>
  <path d="M136.75024 143.62373c-.04284 6.13029.29459 11.94369 2.12328 16.51436" id="path3242" fill="none" fill-opacity=".75" fill-rule="evenodd" stroke="#000" stroke-width="1" stroke-linecap="butt" stroke-linejoin="miter" stroke-opacity="1"/>
  <path d="M126.82662 197.52047s8.73332.40785 12.60755-.77825c6.01855-1.84258 26.4603-3.26862 26.4603-3.26862s-10.35293 10.12074-22.56908 10.58411c-11.28454.42804-25.68205-2.64602-25.68205-2.64602l9.18328-3.89122z" id="path3246" fill="#0c7739" fill-opacity="1" fill-rule="evenodd" stroke="none" stroke-width=".3" stroke-linecap="butt" stroke-linejoin="miter" stroke-opacity="1" stroke-miterlimit="4" stroke-dasharray="none"/>
  <path d="M75.61816 214.48618c1.32301-.15564 20.08217-8.51239 31.05714-13.68302 10.97498-5.17064 14.63273-8.40035 17.03834-12.15467 8.53225-13.31587 18.83351-13.54145 18.83351-13.54145s-.88349 12.56648-14.63099 23.19167c-5.73955 4.43599-7.4906 2.84059-15.78376 6.43997-8.29316 3.59938-24.21798 13.32743-24.21798 13.32743l-12.29626-3.57993z" id="path3244" fill="#0c7739" fill-opacity="1" fill-rule="evenodd" stroke="none" stroke-width=".3" stroke-linecap="butt" stroke-linejoin="miter" stroke-opacity="1" stroke-miterlimit="4" stroke-dasharray="none"/>
  <path d="M160.21996 157.85262s-5.5997 12.58748-6.79416 21.09763c-.74471 5.30591-12.87313 12.69434-12.87313 12.69434s3.14463-3.21349 3.75466-8.76088c2.2805-20.55915 15.91263-25.03109 15.91263-25.03109z" id="path3248" fill="#98ba3b" fill-opacity="1" fill-rule="evenodd" stroke="none" stroke-width="1" stroke-linecap="butt" stroke-linejoin="miter" stroke-opacity="1"/>
  <path d="M187.03899 180.3806s-5.1503 9.53761-15.73383 10.37002c-3.97816.31289-24.13713.71518-24.13713.71518s9.76671-9.21806 13.40951-9.29727c22.92594-.49851 26.46145-1.78793 26.46145-1.78793z" id="path3250" fill="#0c7739" fill-opacity="1" fill-rule="evenodd" stroke="none" stroke-width=".3" stroke-linecap="butt" stroke-linejoin="miter" stroke-opacity="1" stroke-miterlimit="4" stroke-dasharray="none"/>
  <path d="M197.332 152.33393c-1.5731 12.40783-4.78103 24.16622-32.24904 26.28703 0 0 8.27899-10.51193 13.14351-13.00802 9.59347-4.92261 19.10553-13.27901 19.10553-13.27901z" id="path3252" fill="#0c7739" fill-opacity="1" fill-rule="evenodd" stroke="none" stroke-width=".3" stroke-linecap="butt" stroke-linejoin="miter" stroke-opacity="1" stroke-miterlimit="4" stroke-dasharray="none"/>
  <path d="M166.97996 140.27441c9.91636 11.66198 6.9706 23.83958-6.233 37.66905 0 0-1.67549-11.48389 1.084-16.26002 1.00012-1.73101 4.84064-15.48486 5.149-21.40903z" id="path3254" fill="#98ba3b" fill-opacity="1" fill-rule="evenodd" stroke="none" stroke-width=".3" stroke-linecap="butt" stroke-linejoin="miter" stroke-opacity="1" stroke-miterlimit="4" stroke-dasharray="none"/>
  <path d="M177.14247 161.41244c18.78832-8.08443 22.16486-23.66312 22.35753-39.97255l-1.084 2.5745s-9.8552 7.98534-13.41452 13.55002c-3.33729 5.21756-7.85901 23.84803-7.85901 23.84803z" id="path3256" fill="#0c7739" fill-opacity="1" fill-rule="evenodd" stroke="none" stroke-width=".3" stroke-linecap="butt" stroke-linejoin="miter" stroke-opacity="1" stroke-miterlimit="4" stroke-dasharray="none"/>
  <path d="M197.80705 85.82701c.09089 4.794645 7.59224 30.45812-10.34567 43.58389 0 0-2.58642-14.85815 0-25.75412 2.58642-10.895973 10.34567-17.82977 10.34567-17.82977z" id="path3258" fill="#0c7739" fill-opacity="1" fill-rule="evenodd" stroke="none" stroke-width=".3" stroke-linecap="butt" stroke-linejoin="miter" stroke-opacity="1" stroke-miterlimit="4" stroke-dasharray="none"/>
  <path d="M185.92054 58.532051s7.81428 10.345669 7.70422 20.471219c-.11006 10.125549-8.14446 20.030979-8.14446 20.030979-2.72194-11.222227-3.50883-19.331055-1.76097-26.194357 1.11549-4.38018 2.43228-9.056158 2.20121-14.307841z" id="path3260" fill="#0c7739" fill-opacity="1" fill-rule="evenodd" stroke="none" stroke-width=".3" stroke-linecap="butt" stroke-linejoin="miter" stroke-opacity="1" stroke-miterlimit="4" stroke-dasharray="none"/>
  <path d="M179.0968 71.739289c6.59766-13.681791 1.75562-24.32331-11.00603-33.898579-.19531 14.276458 4.79041 24.284613 11.00603 33.898579z" id="path3262" fill="#0c7739" fill-opacity="1" fill-rule="evenodd" stroke="none" stroke-width=".3" stroke-linecap="butt" stroke-linejoin="miter" stroke-opacity="1" stroke-miterlimit="4" stroke-dasharray="none"/>
  <path d="M165.66944 48.18638s1.82666-9.27783-3.08169-15.848686c-3.41187-4.567503-14.08772-12.106636-14.08772-12.106636s.65459 9.517896 5.28289 16.288928c1.48582 2.173691 5.55805 4.264838 7.77301 6.142742 2.21497 1.877904 4.11351 5.523652 4.11351 5.523652z" id="path3264" fill="#0c7739" fill-opacity="1" fill-rule="evenodd" stroke="none" stroke-width=".3" stroke-linecap="butt" stroke-linejoin="miter" stroke-opacity="1" stroke-miterlimit="4" stroke-dasharray="none"/>
  <path d="M131.99098 9.4451469c12.25236 5.2559171 12.8509 11.1251921 14.30784 16.9492891-6.34652-4.861145-13.58981-9.273901-14.30784-16.9492891z" id="path3266" fill="#0c7739" fill-opacity="1" fill-rule="evenodd" stroke="none" stroke-width=".3" stroke-linecap="butt" stroke-linejoin="miter" stroke-opacity="1" stroke-miterlimit="4" stroke-dasharray="none"/>
  <path d="M130.23001 14.948163c-6.0863-3.158759-11.49214-6.9979896-14.08772-13.6474799 8.88976 3.2385817 14.56807 7.4807406 14.08772 13.6474799z" id="path3268" fill="#0c7739" fill-opacity="1" fill-rule="evenodd" stroke="none" stroke-width=".3" stroke-linecap="butt" stroke-linejoin="miter" stroke-opacity="1" stroke-miterlimit="4" stroke-dasharray="none"/>
  <path d="M116.93301 9.7394347c-3.05517-2.2380102-4.53352-5.4794515-14.15517-3.538792 2.17184 2.9985621 7.60444 3.6680118 14.15517 3.538792z" id="path3270" fill="#98ba3b" fill-opacity="1" fill-rule="evenodd" stroke="none" stroke-width=".3" stroke-linecap="butt" stroke-linejoin="miter" stroke-opacity="1" stroke-miterlimit="4" stroke-dasharray="none"/>
  <path d="M131.79594 19.176213c-3.57785-5.387091-11.62673-6.303154-21.46868-5.426147 4.79815 4.461552 11.64163 6.622108 21.46868 5.426147z" id="path3272" fill="#98ba3b" fill-opacity="1" fill-rule="evenodd" stroke="none" stroke-width=".3" stroke-linecap="butt" stroke-linejoin="miter" stroke-opacity="1" stroke-miterlimit="4" stroke-dasharray="none"/>
  <path d="M147.1307 31.679945c-11.19142-.254771-21.93356-.883939-25.71522-7.313503 13.97063-2.961061 20.44175 1.577404 25.71522 7.313503z" id="path3274" fill="#98ba3b" fill-opacity="1" fill-rule="evenodd" stroke="none" stroke-width=".3" stroke-linecap="butt" stroke-linejoin="miter" stroke-opacity="1" stroke-miterlimit="4" stroke-dasharray="none"/>
  <path d="M162.22955 49.373905s-3.19854-8.093352-9.90862-11.324134c-3.18491-1.533477-16.04252-3.302873-16.04252-3.302873 3.19033 3.909619 5.93577 8.645158 11.79597 10.616376 5.14069 1.729196 10.03638 2.373953 14.15517 4.010631z" id="path3276" fill="#98ba3b" fill-opacity="1" fill-rule="evenodd" stroke="none" stroke-width=".3" stroke-linecap="butt" stroke-linejoin="miter" stroke-opacity="1" stroke-miterlimit="4" stroke-dasharray="none"/>
  <path d="M181.81086 100.56843c.26062-19.453677-10.76698-25.361486-22.88419-29.961773 0 0 6.7308 10.911599 9.20086 15.806604 2.13702 4.235006 13.68333 14.155169 13.68333 14.155169z" id="path3280" fill="#98ba3b" fill-opacity="1" fill-rule="evenodd" stroke="none" stroke-width=".3" stroke-linecap="butt" stroke-linejoin="miter" stroke-opacity="1" stroke-miterlimit="4" stroke-dasharray="none"/>
  <path d="M183.4623 123.2167s2.77205-7.54942-1.1796-15.8066c-3.95165-8.257185-14.62701-17.222128-14.62701-17.222128s-.6458 14.854188 5.42615 21.704588c2.30022 2.59511 10.38046 11.32414 10.38046 11.32414z" id="path3282" fill="#98ba3b" fill-opacity="1" fill-rule="evenodd" stroke="none" stroke-width=".3" stroke-linecap="butt" stroke-linejoin="miter" stroke-opacity="1" stroke-miterlimit="4" stroke-dasharray="none"/>
  <path d="M169.54305 111.65664c11.51336 9.40338 12.52813 23.08395 7.07758 39.39855-8.53136-11.31751-9.18256-24.95271-7.07758-39.39855z" id="path3284" fill="#98ba3b" fill-opacity="1" fill-rule="evenodd" stroke="none" stroke-width=".3" stroke-linecap="butt" stroke-linejoin="miter" stroke-opacity="1" stroke-miterlimit="4" stroke-dasharray="none"/>
  <path d="M-23.827865 87.828781a3.4208322 4.0106311 0 11-6.841664 0 3.4208322 4.0106311 0 116.841664 0z" transform="matrix(8.03898 0 0 6.85678 319.05172 -483.22231)" id="path2196" fill="#fb5005" fill-opacity="1" fill-rule="nonzero" stroke="#000" stroke-width=".1346913" stroke-linecap="round" stroke-linejoin="round" stroke-miterlimit="4" stroke-dasharray="none" stroke-opacity="1"/>
  <path d="M99.766784 39.670101l-6.07898 25.746266 2.915508 4.029597.041328 12.199286 6.34043.220121-.1788-13.23072 3.21829-3.754664-6.257776-25.209886z" id="path2189" fill="#097cf1" fill-opacity="1" fill-rule="evenodd" stroke="#000" stroke-width=".3" stroke-linecap="butt" stroke-linejoin="miter" stroke-opacity="1" stroke-miterlimit="4" stroke-dasharray="none"/>
  <path d="M-76.361367 66.277257l-5.083722-3.773791-5.143959 3.691262 2.018133-6.001073-5.10017-3.751532 6.330997.064925 1.99188-6.009837 1.894639 6.041198 6.331219.037249-5.160045 3.668741 1.921028 6.032858z" transform="matrix(1.89864 0 0 1.90114 254.54315 -83.998562)" id="path2195" fill="#d40000" fill-opacity="1" fill-rule="nonzero" stroke="none" stroke-width=".15790407" stroke-linecap="round" stroke-linejoin="round" stroke-miterlimit="4" stroke-dasharray="none" stroke-opacity="1"/>
  <path d="M53.049075 54.129639l1.540844 85.186691 9.685308-.22012s-1.926056 2.25624-.440241-7.04386 7.098891-18.82032 6.383499-30.15653c-1.23862-19.627369-17.16941-47.766181-17.16941-47.766181z" id="path2161" fill="#96c1f4" fill-opacity="1" fill-rule="evenodd" stroke="none" stroke-width="1" stroke-linecap="butt" stroke-linejoin="miter" stroke-opacity="1"/>
  <path d="M56.148833 142.32617s-3.273382-2.71307-1.061637-3.65675c2.211745-.94368 8.4931-.8847 12.97557.94368 4.48247 1.82837 5.257708 4.32594 5.780027 6.60575.893776 3.90114 19.817235 6.60574 19.817235 6.60574l-.11796 16.63232c-6.112295-1.36058-12.368468-4.10812-19.109476-10.49841 0 0-1.503987 3.12593-5.897987 3.06695-4.394-.05898-11.678014-3.30287-11.678014-3.30287l-.707758-16.39641z" id="path2176" fill="#520" fill-opacity="1" fill-rule="evenodd" stroke="#000" stroke-width="1" stroke-linecap="butt" stroke-linejoin="miter" stroke-opacity="1"/>
  <path d="M58.111849 79.883754L59.212452 136.895s.568879-5.41694 1.100604-7.92434c.868105-4.09364 5.613077-18.9854 5.503016-27.95532-.147104-12.283179-7.704223-21.131586-7.704223-21.131586z" id="path2163" fill="#097cf1" fill-opacity="1" fill-rule="evenodd" stroke="none" stroke-width="1" stroke-linecap="butt" stroke-linejoin="miter" stroke-opacity="1"/>
  <path d="M56.503562 159.78643l.271001 5.96201-1.355002 2.3035 12.466014-.271-2.439003-4.4715-.1355-4.33601-8.80751.813z" id="path2165" fill="#90119a" fill-opacity="1" fill-rule="evenodd" stroke="#000" stroke-width=".6" stroke-linecap="butt" stroke-linejoin="miter" stroke-opacity="1" stroke-miterlimit="4" stroke-dasharray="none"/>
  <path d="M55.826062 167.78094l9.48501-6.775" id="path2167" fill="none" fill-opacity=".75" fill-rule="evenodd" stroke="#000" stroke-width="0" stroke-linecap="butt" stroke-linejoin="miter" stroke-opacity="1" stroke-miterlimit="4" stroke-dasharray="none"/>
  <path d="M74.525082 155.58593c1.324936.79291 5.463697 2.90622 9.485011 3.1165" id="path2169" fill="none" fill-opacity=".75" fill-rule="evenodd" stroke="#000" stroke-width="1" stroke-linecap="butt" stroke-linejoin="miter" stroke-opacity="1"/>
  <path d="M55.559034 142.32617c4.747015 1.22293 7.470045.70678 10.498417 1.41552.97681.2286 2.305754 1.90148 1.651436 3.89267l-10.026577.11796-3.420833-1.29756s-.914187-1.32704-.589798-2.35919c.324389-1.03215 1.887355-1.7694 1.887355-1.7694z" id="path2166" fill="#520" fill-opacity="1" fill-rule="evenodd" stroke="#000" stroke-width="1" stroke-linecap="butt" stroke-linejoin="miter" stroke-opacity="1"/>
  <path d="M55.441074 146.69068c5.078268 1.65494 11.982131.93079 12.031893 2.949.066717 2.70583-9.908617 2.47715-9.908617 2.47715l-3.420833-1.29756s-1.386026-1.32704-1.061637-2.35919c.324389-1.03215 2.359194-1.7694 2.359194-1.7694z" id="path2168" fill="#520" fill-opacity="1" fill-rule="evenodd" stroke="#000" stroke-width="1" stroke-linecap="butt" stroke-linejoin="miter" stroke-opacity="1"/>
  <path d="M55.559034 150.46539c0 .70037 11.332009.47133 11.442095 3.18492.092571 2.28186-4.612448 1.60915-8.72902 1.76939-3.189705.12416-4.010632-.82572-4.010632-.82572s-1.386026-1.32704-1.061637-2.35919c.324389-1.03215 2.359194-1.7694 2.359194-1.7694z" id="path2170" fill="#520" fill-opacity="1" fill-rule="evenodd" stroke="#000" stroke-width="1" stroke-linecap="butt" stroke-linejoin="miter" stroke-opacity="1"/>
  <path d="M56.148833 155.65562s9.65666.55264 9.554739 2.47716c-.100139 1.89087-7.078936 3.08271-10.852296 1.65143 0 0-1.386026-1.32704-1.061637-2.35919.324389-1.03215 2.359194-1.7694 2.359194-1.7694z" id="path2172" fill="#520" fill-opacity="1" fill-rule="evenodd" stroke="#000" stroke-width="1" stroke-linecap="butt" stroke-linejoin="miter" stroke-opacity="1"/>
  <path d="M63.698256 143.62373c.042848 6.13029-.294582 11.94369-2.123275 16.51436" id="path2174" fill="none" fill-opacity=".75" fill-rule="evenodd" stroke="#000" stroke-width="1" stroke-linecap="butt" stroke-linejoin="miter" stroke-opacity="1"/>
  <path d="M73.621883 197.52047s-8.733321.40785-12.607553-.77825c-6.018546-1.84258-26.460296-3.26862-26.460296-3.26862s10.352925 10.12074 22.569076 10.58411c11.284538.42804 25.682052-2.64602 25.682052-2.64602l-9.183279-3.89122z" id="path2180" fill="#98ba3b" fill-opacity="1" fill-rule="evenodd" stroke="none" stroke-width=".3" stroke-linecap="butt" stroke-linejoin="miter" stroke-opacity="1" stroke-miterlimit="4" stroke-dasharray="none"/>
  <path d="M124.83034 214.48618c-1.32301-.15564-20.08217-8.51239-31.057144-13.68302-10.974976-5.17064-14.632723-8.40035-17.038338-12.15467-8.532251-13.31587-18.833504-13.54145-18.833504-13.54145s.883484 12.56648 14.630987 23.19167c5.739549 4.43599 7.490598 2.84059 15.78376 6.43997 8.293162 3.59938 24.217979 13.32743 24.217979 13.32743l12.29626-3.57993z" id="path2178" fill="#0c7739" fill-opacity="1" fill-rule="evenodd" stroke="none" stroke-width=".3" stroke-linecap="butt" stroke-linejoin="miter" stroke-opacity="1" stroke-miterlimit="4" stroke-dasharray="none"/>
  <path d="M40.228542 157.85262s5.599699 12.58748 6.794154 21.09763c.744718 5.30591 12.873133 12.69434 12.873133 12.69434s-3.144632-3.21349-3.754663-8.76088c-2.280495-20.55915-15.912624-25.03109-15.912624-25.03109z" id="path2175" fill="#0c7739" fill-opacity="1" fill-rule="evenodd" stroke="none" stroke-width=".3" stroke-linecap="butt" stroke-linejoin="miter" stroke-opacity="1" stroke-miterlimit="4" stroke-dasharray="none"/>
  <path d="M13.409514 180.3806s5.150297 9.53761 15.73383 10.37002c3.978156.31289 24.137125.71518 24.137125.71518s-9.76671-9.21806-13.409514-9.29727c-22.925939-.49851-26.461441-1.78793-26.461441-1.78793z" id="path2177" fill="#98ba3b" fill-opacity="1" fill-rule="evenodd" stroke="none" stroke-width=".3" stroke-linecap="butt" stroke-linejoin="miter" stroke-opacity="1" stroke-miterlimit="4" stroke-dasharray="none"/>
  <path d="M3.1165035 152.33393c1.5730997 12.40783 4.7810228 24.16622 32.2490355 26.28703 0 0-8.278986-10.51193-13.143514-13.00802-9.593462-4.92261-19.1055215-13.27901-19.1055215-13.27901z" id="path2179" fill="#98ba3b" fill-opacity="1" fill-rule="evenodd" stroke="none" stroke-width=".3" stroke-linecap="butt" stroke-linejoin="miter" stroke-opacity="1" stroke-miterlimit="4" stroke-dasharray="none"/>
  <path d="M33.468537 140.27441c-9.916356 11.66198-6.970598 23.83958 6.233007 37.66905 0 0 1.675489-11.48389-1.084001-16.26002-1.000118-1.73101-4.840643-15.48486-5.149006-21.40903z" id="path2181" fill="#0c7739" fill-opacity="1" fill-rule="evenodd" stroke="none" stroke-width=".3" stroke-linecap="butt" stroke-linejoin="miter" stroke-opacity="1" stroke-miterlimit="4" stroke-dasharray="none"/>
  <path d="M23.306026 161.41244C4.517708 153.32801 1.1411747 137.74932.94850105 121.43989l1.08400125 2.5745s9.8551967 7.98534 13.4145147 13.55002c3.337291 5.21756 7.859009 23.84803 7.859009 23.84803z" id="path2182" fill="#98ba3b" fill-opacity="1" fill-rule="evenodd" stroke="none" stroke-width=".3" stroke-linecap="butt" stroke-linejoin="miter" stroke-opacity="1" stroke-miterlimit="4" stroke-dasharray="none"/>
  <path d="M2.6414477 85.82701c-.0908871 4.794645-7.592235 30.45812 10.3456703 43.58389 0 0 2.586418-14.85815 0-25.75412C10.400701 92.760807 2.6414477 85.82701 2.6414477 85.82701z" id="path2184" fill="#98ba3b" fill-opacity="1" fill-rule="evenodd" stroke="none" stroke-width=".3" stroke-linecap="butt" stroke-linejoin="miter" stroke-opacity="1" stroke-miterlimit="4" stroke-dasharray="none"/>
  <path d="M14.527963 58.532051S6.7136797 68.87772 6.82374 79.00327c.1100603 10.125549 8.144464 20.030979 8.144464 20.030979 2.721938-11.222227 3.508827-19.331055 1.760965-26.194357-1.115491-4.38018-2.432276-9.056158-2.201206-14.307841z" id="path2186" fill="#98ba3b" fill-opacity="1" fill-rule="evenodd" stroke="none" stroke-width=".3" stroke-linecap="butt" stroke-linejoin="miter" stroke-opacity="1" stroke-miterlimit="4" stroke-dasharray="none"/>
  <path d="M21.351702 71.739289c-6.597661-13.681791-1.755623-24.32331 11.006033-33.898579.19531 14.276458-4.790417 24.284613-11.006033 33.898579z" id="path2188" fill="#98ba3b" fill-opacity="1" fill-rule="evenodd" stroke="none" stroke-width=".3" stroke-linecap="butt" stroke-linejoin="miter" stroke-opacity="1" stroke-miterlimit="4" stroke-dasharray="none"/>
  <path d="M34.779062 48.18638s-1.826661-9.27783 3.081689-15.848686c3.41187-4.567503 14.087721-12.106636 14.087721-12.106636s-.654595 9.517896-5.282895 16.288928c-1.485814 2.173691-5.558046 4.264838-7.77301 6.142742s-4.113505 5.523652-4.113505 5.523652z" id="path2190" fill="#98ba3b" fill-opacity="1" fill-rule="evenodd" stroke="none" stroke-width=".3" stroke-linecap="butt" stroke-linejoin="miter" stroke-opacity="1" stroke-miterlimit="4" stroke-dasharray="none"/>
  <path d="M68.45752 9.4451469C56.205158 14.701064 55.606619 20.570339 54.149678 26.394436c6.346518-4.861145 13.589811-9.273901 14.307842-16.9492891z" id="path2192" fill="#98ba3b" fill-opacity="1" fill-rule="evenodd" stroke="none" stroke-width=".3" stroke-linecap="butt" stroke-linejoin="miter" stroke-opacity="1" stroke-miterlimit="4" stroke-dasharray="none"/>
  <path d="M70.218485 14.948163c6.086308-3.158759 11.492145-6.9979896 14.087722-13.6474799-8.889758 3.2385817-14.568069 7.4807406-14.087722 13.6474799z" id="path2194" fill="#98ba3b" fill-opacity="1" fill-rule="evenodd" stroke="none" stroke-width=".3" stroke-linecap="butt" stroke-linejoin="miter" stroke-opacity="1" stroke-miterlimit="4" stroke-dasharray="none"/>
  <path d="M83.515491 9.7394347c3.055169-2.2380102 4.533517-5.4794515 14.155167-3.538792-2.171838 2.9985621-7.604434 3.6680118-14.155167 3.538792z" id="path3170" fill="#0c7739" fill-opacity="1" fill-rule="evenodd" stroke="none" stroke-width=".3" stroke-linecap="butt" stroke-linejoin="miter" stroke-opacity="1" stroke-miterlimit="4" stroke-dasharray="none"/>
  <path d="M68.652564 19.176213c3.577848-5.387091 11.626725-6.303154 21.468672-5.426147-4.798147 4.461552-11.641625 6.622108-21.468672 5.426147z" id="path3172" fill="#0c7739" fill-opacity="1" fill-rule="evenodd" stroke="none" stroke-width=".3" stroke-linecap="butt" stroke-linejoin="miter" stroke-opacity="1" stroke-miterlimit="4" stroke-dasharray="none"/>
  <path d="M53.317799 31.679945c11.191417-.254771 21.933557-.883939 25.715222-7.313503-13.970636-2.961061-20.441746 1.577404-25.715222 7.313503z" id="path3174" fill="#0c7739" fill-opacity="1" fill-rule="evenodd" stroke="none" stroke-width=".3" stroke-linecap="butt" stroke-linejoin="miter" stroke-opacity="1" stroke-miterlimit="4" stroke-dasharray="none"/>
  <path d="M38.218953 49.373905s3.198533-8.093352 9.908618-11.324134c3.184912-1.533477 16.042523-3.302873 16.042523-3.302873-3.190336 3.909619-5.935777 8.645158-11.795973 10.616376-5.140694 1.729196-10.03638 2.373953-14.155168 4.010631z" id="path3176" fill="#0c7739" fill-opacity="1" fill-rule="evenodd" stroke="none" stroke-width=".3" stroke-linecap="butt" stroke-linejoin="miter" stroke-opacity="1" stroke-miterlimit="4" stroke-dasharray="none"/>
  <path d="M25.951141 72.729932c.470054-12.671336 8.526179-18.599497 20.289074-21.232752-3.492218 7.69086-5.321704 13.496483-20.289074 21.232752z" id="path3178" fill="#0c7739" fill-opacity="1" fill-rule="evenodd" stroke="none" stroke-width=".3" stroke-linecap="butt" stroke-linejoin="miter" stroke-opacity="1" stroke-miterlimit="4" stroke-dasharray="none"/>
  <path d="M18.637638 100.56843c-.26062-19.453677 10.766983-25.361486 22.884188-29.961773 0 0-6.7308 10.911599-9.20086 15.806604-2.137018 4.235006-13.683328 14.155169-13.683328 14.155169z" id="path3180" fill="#0c7739" fill-opacity="1" fill-rule="evenodd" stroke="none" stroke-width=".3" stroke-linecap="butt" stroke-linejoin="miter" stroke-opacity="1" stroke-miterlimit="4" stroke-dasharray="none"/>
  <path d="M16.986201 123.2167s-2.772053-7.54942 1.179598-15.8066c3.951652-8.257185 14.627007-17.222128 14.627007-17.222128s.6458 14.854188-5.426148 21.704588c-2.300215 2.59511-10.380457 11.32414-10.380457 11.32414z" id="path3182" fill="#0c7739" fill-opacity="1" fill-rule="evenodd" stroke="none" stroke-width=".3" stroke-linecap="butt" stroke-linejoin="miter" stroke-opacity="1" stroke-miterlimit="4" stroke-dasharray="none"/>
  <path d="M30.90545 111.65664c-11.513359 9.40338-12.528135 23.08395-7.077584 39.39855 8.531365-11.31751 9.182562-24.95271 7.077584-39.39855z" id="path3184" fill="#0c7739" fill-opacity="1" fill-rule="evenodd" stroke="none" stroke-width=".3" stroke-linecap="butt" stroke-linejoin="miter" stroke-opacity="1" stroke-miterlimit="4" stroke-dasharray="none"/>
  <path d="M-23.827865 87.828781a3.4208322 4.0106311 0 11-6.841664 0 3.4208322 4.0106311 0 116.841664 0z" transform="matrix(1.31547 0 0 1.12202 135.70414 20.361957)" id="path5288" fill="#f046a5" fill-opacity="1" fill-rule="nonzero" stroke="#000" stroke-width=".82311344" stroke-linecap="round" stroke-linejoin="round" stroke-miterlimit="4" stroke-dasharray="none" stroke-opacity="1"/>
  <path d="M-23.827865 87.828781a3.4208322 4.0106311 0 11-6.841664 0 3.4208322 4.0106311 0 116.841664 0z" transform="matrix(2.48478 0 0 2.11937 167.60083 -67.035369)" id="path5290" fill="none" fill-opacity="1" fill-rule="nonzero" stroke="none" stroke-width=".43576592" stroke-linecap="round" stroke-linejoin="round" stroke-miterlimit="4" stroke-dasharray="none" stroke-opacity="1"/>
</svg>
