<svg xmlns="http://www.w3.org/2000/svg" xmlns:xlink="http://www.w3.org/1999/xlink" id="svg2" version="1.0" viewBox="0 0 622 600">
  <defs id="defs5">
    <radialGradient xlink:href="#linearGradient29742" id="radialGradient29748" cx="311.34664" cy="282.70821" fx="311.34664" fy="282.70821" r="22.462642" gradientTransform="matrix(1 0 0 .99458 0 1.5335993)" gradientUnits="userSpaceOnUse"/>
    <radialGradient xlink:href="#linearGradient39619" id="radialGradient39625" cx="87.533157" cy="-191.08267" fx="87.533157" fy="-191.08267" r="124.12418" gradientTransform="matrix(1 0 0 1.03582 114.62472 330.84606)" gradientUnits="userSpaceOnUse"/>
    <radialGradient xlink:href="#linearGradient39619" id="radialGradient39627" cx="-79.575607" cy="-92.298859" fx="-79.575607" fy="-92.298859" r="124.12418" gradientTransform="matrix(1 0 0 1.03582 496.58759 225.3411)" gradientUnits="userSpaceOnUse"/>
    <linearGradient id="linearGradient39619">
      <stop offset="0" id="stop39621" stop-color="#bfbfb5" stop-opacity="1"/>
      <stop offset="1" id="stop39623" stop-color="#bfbfb5" stop-opacity="0"/>
    </linearGradient>
    <linearGradient id="linearGradient29742">
      <stop offset="0" id="stop29744" stop-color="#fff" stop-opacity="1"/>
      <stop offset="1" id="stop29746" stop-color="#fff" stop-opacity="0"/>
    </linearGradient>
  </defs>
  <g id="g2912" stroke-opacity="1">
    <g id="g1485">
      <g id="g1423" fill-rule="evenodd" stroke-miterlimit="4" stroke-dasharray="none">
        <g id="g1408" fill-opacity="1" stroke-linecap="butt" stroke-linejoin="miter">
          <path d="M356.74194 434.57077l104.6593-272.33927c-49.4502-75.775315 41.7019-132.671813 68.6475-160.9277457.89694 65.7399107 28.00558 135.9922557-51.76696 168.8053357l-97.9071 270.08853z" id="path23740" fill="#252525" stroke="#000" stroke-width="3"/>
          <path d="M527.24414 6.90625c-27.09171 24.922526-58.53371 48.432182-72.9082 83.578125-9.55655 22.338725-5.7618 48.852005 7.63672 68.929685 3.83746 4.42298-2.42342 9.86674-3.00968 14.73652-33.17777 86.33457-66.35553 172.66914-99.53329 259.00372 6.55729 1.56119 13.11458 3.12239 19.67187 4.68359 32.53257-89.74479 65.06502-179.48961 97.59766-269.23437 22.27049-8.48328 43.35325-25.0605 50.93359-48.38672 11.00551-33.321932 2.76969-68.908592 1.04688-103.324222-.22369-3.619741-.41527-7.2420084-.52149-10.8671874l-.72006.6939078z" id="path1172" fill="#2f2f2f" stroke="none" stroke-width="1.5"/>
          <path d="M522.27148 16.794922c-26.54617 23.717022-56.31795 48.083005-67.05273 83.304688-5.58865 20.39972-.16221 42.49091 11.5625 59.84961 1.72463 7.76814-5.07367 13.90358-6.23631 21.23588-31.88086 82.95979-63.76173 165.91957-95.6426 248.87935 3.95466.5765 7.86344 3.74474 11.84766 2.51953 32.27102-89.02141 64.54055-178.04337 96.8125-267.06445 23.21433-8.13011 44.82899-25.90187 51.52734-50.16406 8.49899-31.521581 1.56063-65.070049-.42106-97.344037-.35497-2.188062.74557-5.121415-2.3973-1.216511z" id="path1178" fill="#393939" stroke="none" stroke-width="1.5"/>
          <path d="M513.40625 35.408203c-22.31598 20.064515-45.79282 42.929075-51.87891 73.560547-2.28027 16.70088 3.32406 34.7775 12.8125 47.88086 22.31594-8.65416 41.76202-28.10672 45.25196-52.5332 3.47297-24.065756.44948-48.601521-1.89649-72.744144-1.42968 1.278645-2.85937 2.557291-4.28906 3.835937z" id="path1184" fill="#434343" stroke="none" stroke-width="1.5"/>
          <path d="M503.48633 67.083984c-14.85834 15.696014-29.42496 36.034646-25.52149 58.714846.79333 2.89067 1.22172 8.76983 3.67383 9.46289 17.12618-11.48273 25.91146-33.21525 23.50507-53.255754.0451-5.392856-.14727-10.785707-.47382-16.168075l-.68869.725056z" id="path1194" fill="#4d4d4d" stroke="none" stroke-width="1.5"/>
          <path style="line-height:normal;font-variant-ligatures:normal;font-variant-position:normal;font-variant-caps:normal;font-variant-numeric:normal;font-variant-alternates:normal;font-feature-settings:normal;text-indent:0;text-align:start;text-decoration-line:none;text-decoration-style:solid;text-decoration-color:#000;text-transform:none;text-orientation:mixed;white-space:normal;shape-padding:0;isolation:auto;mix-blend-mode:normal;solid-color:#000;solid-opacity:1" d="M530.99023 2.4882812l-2.82812-.9980468S487.32131 105.18046 475.36427 152.58662c20.95999-46.42146 55.62596-150.0983388 55.62596-150.0983388z" id="path41675" color="#000" font-style="normal" font-variant="normal" font-weight="400" font-stretch="normal" font-size="medium" font-family="sans-serif" text-decoration="none" letter-spacing="normal" word-spacing="normal" writing-mode="lr-tb" direction="ltr" dominant-baseline="auto" baseline-shift="baseline" text-anchor="start" clip-rule="nonzero" display="inline" overflow="visible" visibility="visible" opacity="1" color-interpolation="sRGB" color-interpolation-filters="linearRGB" vector-effect="none" fill="#000" stroke="none" stroke-width="3" stroke-dashoffset="0" color-rendering="auto" image-rendering="auto" shape-rendering="auto" text-rendering="auto"/>
        </g>
        <g id="g1398">
          <path d="M288.65712 435.69614C75.370505 211.4156 167.64025 85.167376 203.12908 21.560394 33.568231 167.02357 113.1338 331.10038 200.87835 452.57668z" id="path21798" fill="#ccc" fill-opacity="1" stroke="#666" stroke-width="3" stroke-linecap="round" stroke-linejoin="round"/>
          <path d="M186.95117 41.724609c-41.10204 39.622175-72.72264 91.802951-78.32928 149.324241-6.21824 59.66901 12.82832 119.22188 40.40451 171.58776 15.58768 29.8918 33.96473 58.17264 53.61227 85.5255 26.04557-5.00912 52.09115-10.01823 78.13672-15.02734-51.80307-55.66551-99.24717-118.51669-121.76295-192.125-15.07951-49.98511-14.06842-105.13447 5.82843-153.666846 6.10584-15.698801 14.19283-31.336935 22.1103-45.618315z" id="path1212" fill="#e6e6e6" fill-opacity="1" stroke="none" stroke-width="1.5" stroke-linecap="butt" stroke-linejoin="miter"/>
          <path d="M152.6875 94.775391c-27.97374 41.822009-42.54469 93.426219-35.89124 143.629739 7.38078 68.48668 41.43702 130.76773 79.62952 186.96206 3.21132 4.68288 6.45926 9.34064 9.75195 13.96679 19.67644-3.78515 39.35287-7.57031 59.0293-11.35546-51.81414-57.10363-98.10606-122.49928-117.52344-198.15625-11.17186-45.03652-8.90015-93.29517 6.38086-137.10352-.45898.685547-.91797 1.371094-1.37695 2.056641z" id="path1218" fill="#f2f2f2" fill-opacity="1" stroke="none" stroke-width="1.5" stroke-linecap="butt" stroke-linejoin="miter"/>
          <path d="M129.38672 209.55664c-1.09858 55.94713 20.16034 109.70534 47.15234 157.72852 10.99769 19.4256 27.66264 46.07961 40.31203 64.42445 8.43562-2.02341 19.49375-2.93485 27.00622-5.26562-51.44598-60.02129-101.31458-137.97893-114.46278-217.13735z" id="path1228" fill="#fff" fill-opacity="1" stroke="none" stroke-width="1.5" stroke-linecap="butt" stroke-linejoin="miter"/>
          <path d="M203.12908 21.560394c-93.1614 96.148266-93.4929 260.639946 25.3208 411.885016" id="path22769" fill="#000" stroke="#666" stroke-width="3" stroke-linecap="round" stroke-linejoin="miter" fill-opacity="0"/>
        </g>
      </g>
      <g id="g1391" fill-opacity="1" fill-rule="evenodd" stroke-linecap="butt" stroke-linejoin="miter" stroke-miterlimit="4" stroke-dasharray="none">
        <g id="g1373">
          <path d="M117.77188 499.33687c35.2122-3.51458 68.78079-2.09832 103.0504-2.78515 27.98409-1.01464 55.96817 4.08366 83.95226 6.36605 25.46419 1.77595 50.92838-1.30198 76.39257-1.98939l66.8435 3.5809 45.75597 1.98939c6.98346.43642 6.62116 4.02103 6.36605 7.55969-1.92025 18.9943-11.61811 31.76652-18.30239 46.9496-8.17908 10.87249-16.75797 19.34609-25.46419 27.0557-5.54691 5.60771-13.81658 6.859-24.66844 3.97878-5.06219-3.02345-48.54111 0-72.81167 0 0 0-9.15119-2.08886-15.51724-1.98939-6.36605.0995-4.27719 2.18833-9.94695 2.38727-5.66976.19894-7.65914-1.88992-12.73209-1.59151-3.48143.49735-3.08356 2.68567-7.55969 2.78514-12.90814.22119-41.36814-4.21252-44.56233-2.38727-22.89275 12.44128-55.1325 5.46956-84.35013 4.77454H153.5809c-11.00311-.0722-15.40683-8.15793-19.09814-17.10875-3.24453-9.36454-8.1481-13.75198-12.33422-20.29178-10.82395-19.21364-7.77378-33.80258-8.1565-49.53581-2.73023-8.71025.78649-8.35289 3.77984-9.74801z" id="path19856" fill="#ba857a" stroke="#6f4239" stroke-width="3"/>
          <path d="M226.1582 500.43164c-36.36337 1.31013-72.86619-.40797-109.26052 1.42196 2.29968 8.23713.0587 18.98754 1.0809 27.43753.4822 12.81686 4.71903 25.64857 13.49994 35.17762 5.94418 7.66514 7.04632 18.5751 14.39843 25.10742 8.68387 4.83532 18.94163 1.53897 28.37867 2.31392 28.48236-.92161 57.6593 7.37586 85.4768-1.09907 5.86666-3.13224 12.40891-5.16992 19.08392-3.73139 12.13417.4357 24.53225 3.85454 36.34382 1.75678 7.04615-5.27647 16.14928 2.59038 23.21875-2.07032 11.46111-2.31973 22.83498 3.08877 34.34759 1.12636 20.03723.0787 40.53003-3.18481 60.40436.40685 8.97957 3.18037 19.42294.48906 25.09228-7.34546 11.25161-10.06391 21.16515-21.36655 26.79542-35.43555 5.44007-10.66467 11.40796-23.69684 11.07986-36.00463-7.40042-.61486-14.57046 1.42864-21.69528.21759-35.21441-.96824-70.37155-4.90065-105.54609-4.22729-30.77674 2.00136-61.84433 3.42371-92.43908-1.47029-16.75659-1.89581-33.39105-3.7339-50.25977-3.58203z" id="path1058" fill="#c89d94" stroke="none" stroke-width="1.5"/>
          <path d="M226.20898 514.00546c-34.15975 1.26025-69.58716-4.51263-102.43359-4.61484.29117 16.3422-1.61408 35.04475 10.1081 48.2312 5.69693 7.16716 9.14886 15.6868 12.80987 23.92115 5.63308 7.69821 16.12933 3.45746 24.04879 4.30167 26.79915-1.44396 53.49937 6.19762 80.0723.89364 8.83175-1.79325 16.85948-7.13017 26.20508-6.02539 14.02074.45905 28.56887 5.61486 42.09375.375 7.33182-.42366 14.87448 2.57247 21.85742-.72656 13.21616-.69495 26.29951 3.61527 39.50546 1.32244 20.64765-1.01531 41.64465-2.26005 62.01798 1.88068 10.47965-2.03449 16.19901-12.15828 23.55859-18.89648 11.223-13.87089 19.35064-30.5252 23.71289-47.98828-2.07593-1.31914-7.49921-.001-10.57421-.66407-48.54683.39952-94.76457-1.25931-143.8131-.16235-31.70295 1.45546-63.18485.61584-94.60292-1.71472-4.85166-.23455-9.71196-.31219-14.56641-.13309z" id="path1070" fill="#d5b5af" stroke="none" stroke-width="1.5"/>
          <path d="M223.4707 521.95359c-28.62866.96654-57.38574-2.28074-85.88867.0679-.4144 12.92233 4.15419 25.94314 13.17774 35.25196 2.93827 4.60077 3.7572 11.03588 7.79492 14.62109 14.81174.0778 29.70254-1.27143 44.42974 1.22855 20.33781 2.07399 41.80665 3.13318 60.99995-5.25003 18.97032-4.24788 38.39413 5.28921 57.01171-.74219 15.09971 1.47971 30.37255-2.11895 45.38477.82617 23.83057.22712 47.8573-3.15814 71.64258.43164 7.3894.70395 11.31134-6.93868 16.04086-11.28678 6.98298-8.2933 12.21806-17.88472 16.78922-27.6683-50.67024-2.41661-101.45781-5.85457-152.09934-1.95117-31.93968-.58272-63.42138-5.8438-95.28348-5.52883z" id="path1086" fill="#e0c7c2" stroke="none" stroke-width="1.5"/>
        </g>
        <g id="g1378">
          <path d="M114.22494 500.96754c10.54327-15.16644 44.9131-27.89534 67.10012-42.62335l260.10088 11.81637c19.22126 10.06273 36.80183 22.17632 54.5804 34.04241 5.66472 5.12663 2.91163 4.89647.56268 4.92349-127.44803 1.84396-254.89605 4.42045-382.34408-8.15892z" id="path20827" fill="#ba857a" stroke="#6f4239" stroke-width="3"/>
          <path d="M182.12695 462.5918c-19.2432 12.8229-41.76969 20.32017-59.58789 35.33398 31.86599 2.45113 63.7779 5.08769 95.76363 6.25484 90.50252 3.91676 181.17107 2.35953 271.73833 1.04204-16.36853-11.21611-32.83796-22.71769-50.70405-31.15475-85.71744-3.75555-171.58776-8.06962-257.21002-11.47611z" id="path1060" fill="#c89d94" stroke="none" stroke-width="1.5"/>
          <path d="M183.75977 471.07422c-12.19084 7.7721-25.4938 13.56016-37.98633 20.72851 105.88401 8.34069 212.32024 7.3732 318.51367 5.79883-12.01016-7.66559-24.56304-17.52625-39.57659-16.16276-80.29822-3.34905-160.71937-8.0702-240.95075-10.36458z" id="path1072" fill="#d5b5af" stroke="none" stroke-width="1.5"/>
        </g>
      </g>
      <g id="g1367" fill-opacity="1" stroke-linecap="butt" stroke-linejoin="miter">
        <g transform="translate(-.00000417)" id="g1307" fill-rule="evenodd" stroke-width="1.5" stroke-miterlimit="4" stroke-dasharray="none">
          <g id="g1283">
            <path id="path18883" d="M193.3687 436.47215c10.61046-17.44983 7.6674-37.58762-3.97878-48.93899-38.13205-34.29026-92.375865-83.16774-111.405835-136.87003-10.656164-33.54538-23.043542-64.6176-26.657825-108.22281-5.039096-34.0873-56.8024049-20.22341-50.132626 20.29178l14.721485 62.46684C47.543771 376.03866 136.58589 399.06167 188.59416 454.37666z" fill="#ae1c35" stroke="#580e1b"/>
            <path id="path1142" d="M30.482422 129.14648c-17.282565.0416-28.6849265 20.55049-22.3741939 35.84214 7.2387299 31.42586 13.9850399 63.25662 22.6730219 94.22036 15.090458 49.114 43.758664 94.22061 83.98825 126.49098 19.6983 16.57308 40.8956 31.26061 60.58988 47.83715 3.11329-7.44742 10.40713-12.62086 18.19335-14.19922 2.75368-14.10906-5.65352-27.87713-17.13732-35.45788-38.75805-35.45724-78.565821-72.86376-100.214238-121.72571-10.332494-26.72138-18.955399-54.18568-25.396116-82.10045-3.131277-14.26442-4.063789-29.06213-7.30115-43.19643-2.445881-4.7188-7.67949-7.91783-13.021484-7.71094z" fill="#c8203d" stroke="none"/>
            <path id="path1244" d="M31.072266 137.12109c-13.266194.0941-20.691265 17.05326-14.728516 27.96875 12.722599 52.65258 20.492415 108.18041 50.546926 154.48564 20.697 33.80128 50.740034 60.44605 82.612964 83.36588 8.14484 5.84218 16.44269 13.28709 24.32448 18.46294 3.25218-3.95517 8.78185-5.90041 12.23438-8.91211-1.31556-15.70428-16.95403-23.52497-26.82227-33.55274-38.61733-35.72873-77.084682-75.22912-94.984371-125.8457-13.49034-36.31745-23.258583-74.10784-28.099609-112.53516-.8731-1.95748-2.872957-3.54199-5.083984-3.4375z" fill="#dd2948" stroke="none"/>
          </g>
          <g id="g1288">
            <path id="path19854" d="M427.94037 438.22002c-10.61046-17.44983-7.6674-37.58762 3.97878-48.93899 38.13205-34.29026 92.37587-83.16774 111.40584-136.87003 10.65616-33.54538 23.04354-64.6176 26.65782-108.22281 5.0391-34.0873 56.80241-20.22341 50.13263 20.29178l-14.72149 62.46684C573.7653 377.78653 484.72318 400.80954 432.71491 456.12453z" fill="#ae1c35" stroke="#580e1b"/>
            <path id="path1144" d="M590.24219 130.93555c-10.83709-.28612-16.05866 12.64401-15.07585 21.91742-4.5493 39.67157-17.45761 77.84062-31.72335 114.92278-21.78019 46.11691-59.3844 82.0396-96.49768 115.92737-10.29776 7.82207-21.23054 19.69367-19.45117 33.17579 10.14533-1.00567 20.22222 9.23854 17.54883 19.51562 34.61832-29.74337 75.06981-54.27246 102.59405-91.1119 31.10044-39.78194 46.61641-88.97951 56.09924-138.0006 3.93098-17.78488 10.06816-35.34974 10.8946-53.58281-1.33194-11.80779-11.79565-23.30488-24.38867-22.76367z" fill="#c8203d" stroke="none"/>
            <path id="path1246" d="M590.48047 138.93359c-7.72626 1.27832-7.70269 10.81181-7.6356 16.93217-6.08903 44.2586-19.42254 87.51379-38.58557 127.82437-25.17089 45.99198-65.1467 81.07486-102.99563 116.31768-2.19302 2.85664-5.09016 6.68957-5.03906 10.01563 5.91389 1.96525 11.0475 6.17419 14.13672 11.58594 37.99685-30.39275 80.03785-58.51508 105.01013-101.4788 25.6672-41.46019 35.61794-90.274 46.09822-137.40616 2.6708-11.33594 7.30627-23.67065 2.84673-35.09161-2.80286-4.89482-7.94131-8.9797-13.83594-8.69922z" fill="#dd2948" stroke="none"/>
          </g>
          <g id="g1293">
            <path id="path17912" d="M181.83024 453.18302c-10.88236-31.01997 24.37941-31.75182 32.22812-25.46419l164.72148.79576c9.51921 2.14328 15.19929 2.07103 22.28117 0 13.34554-2.06412 32.9405-13.00585 38.19628 2.38727-.37723 14.83346 1.41178 27.50069 2.38727 40.98143.29048 6.4752-1.58801 14.84594-5.96817 15.51724l-215.64986 1.59151c-27.66367 4.27221-41.5701-9.23094-38.19629-35.80902z" fill="#ae1c35" stroke="#580e1b"/>
            <path id="path1164" d="M427.35352 428.79688c-15.82666 1.76431-31.59775 10.54556-47.82618 6.04101-55.20511-1.28778-110.50647-.0961-165.66548-1.50082-8.14025-2.82545-18.70984-5.28986-25.42631 1.90121-5.94224 6.56793.31286 14.91957-.79297 22.54102-2.06562 10.83959 3.96937 23.75445 15.7539 25.44726 14.56781 1.11365 29.1015-1.39498 43.73809-.44107 62.22388-.52417 124.45056-.736 186.67207-1.52377 4.49493-10.54659-.64142-21.93759-.19087-32.92504-.52673-6.09777.71526-12.62475-1.65874-18.2566-1.28365-1.02825-2.99695-1.33013-4.60351-1.2832z" fill="#c8203d" stroke="none"/>
            <path id="path1248" d="M425.26172 437.30273c-16.56747 3.65773-33.69652 9.37188-50.7888 5.43006-54.42041-1.36613-108.93164.50079-163.3069-1.86365-5.19316-1.69489-12.98181-4.75377-16.96485.60742.26692 8.1557 2.5079 16.32514 1.25977 24.45117 1.70512 8.49423 11.51179 11.15802 18.95073 9.41334 69.59893-1.54004 139.30331-.76592 208.85591-1.99537 1.75397.13823 5.34202 1.29398 4.18164-1.89843-.0822-11.24828-2.98191-23.06174-2.1875-34.14454z" fill="#dd2948" stroke="none"/>
          </g>
        </g>
        <g id="g1330" fill="#ecd718" font-style="normal" stroke="none" stroke-width="1">
          <g id="g24841" font-weight="400" font-family="Times New Roman">
            <path id="text24739" d="M169.92917-48.422888l11.76444-.462761-.0544 1.999536c-1.32477.525188-1.60405 1.457347-1.66748 3.949426v15.833729c-.00002 3.099985-.31002 5.353428-.92999 6.760335-.62002 1.406915-1.72091 2.583316-3.30267 3.529204-1.5818.945891-3.4855 1.418835-5.71111 1.418836-2.71845-.000001-4.91625-.715379-6.59342-2.146138-1.67717-1.430756-2.43081-4.801177-2.43081-6.533989 0-1.112806.34179-2.014977 1.02538-2.706519.68358-.691524 1.51819-1.03729 2.50383-1.0373.96973.00001 1.78447.310007 2.44421.929993.65973.620004.9896 1.383074.98961 2.289214-.00001.445131-.0557.834615-.16692 1.168453-.0636.158978-.17219.813416-.75115 1.204222-1.32633.895298-.98426 2.738257-.74071 3.159784.69377 1.613728 1.64817 1.711035 2.98075 1.740756.68358.000001 1.24793-.174869 1.69307-.524612.44511-.349739.75908-.894221.94191-1.633449.18281-.739221.27422-2.793948.27423-6.164185v-17.288334c.17035-2.916063-.55099-3.252369-2.27188-3.64146z" transform="matrix(.041 1.15591 -.86317 .0549 0 0)" font-size="48.83656311"/>
            <path id="text24743" d="M220.55645 6.4836537h12.08863l.0898.807938c-1.12774.0000282-1.59204.1021231-2.01314.3376329-.42113.2355656-.7209.5603221-.89933.9742706-.17845.4140022-.26767 1.4489408-.26766 3.1048178V25.92624c-.00001 2.598062.10894 2.504092.50152 3.346313.39255.842231 1.03849 1.541706 1.93783 2.098429.89932.556728 2.03418.835091 3.4046.835089 1.57023.000002 2.90851-.353305 4.01485-1.05992.58912-.376281 1.0993-.828463 1.53056-1.356546 1.5034-1.084069.97211-13.909948 1.45817-20.8649217-.27125-.5566989-.61385-.9421243-1.0278-1.1562772-.6424-.3282975-1.54887-.4924602-2.7194-.4924884v-.792264h9.01473l-.14331.8287674c-2.00499.3213856-2.7281 2.0403518-2.91873 4.3958919v11.027459c-.00003 3.41174-.22486 5.87418-.6745 7.387326-.44968 1.513157-1.54529 2.904971-3.28682 4.175445-1.74157 1.270478-4.11836 1.905716-7.13038 1.905717-2.51241-.000001-4.45382-.335464-5.82421-1.00639-1.87003-.9136-3.19047-2.084151-3.96132-3.511656-.77085-1.427498-1.15628-3.347487-1.15627-5.759974V11.708313c.13796-2.6734124-.38396-3.8585173-2.25531-4.2660056z" transform="matrix(.27297 .97647 -.94527 .28198 0 0)" font-size="43.85288239"/>
            <path id="text24757" d="M248.10879 58.261332l.25303 10.397186h-.94311c-.44473-2.60694-1.53736-4.70401-3.27787-6.291218-1.74055-1.587151-3.62293-2.380741-5.64714-2.380771-1.56419.00003-2.8025.417911-3.71493 1.253643-.91244.83579-1.36866 1.798065-1.36865 2.886829-.00001.690104.16101 1.303507.48305 1.84021.44471.720772 1.15779 1.433853 2.13925 2.139244.72073.506079 2.38459 1.40318 4.99157 2.691307 3.64973 1.794222 6.111 3.488747 7.38384 5.083579 1.25745 1.594861 1.88619 3.419734 1.88621 5.474624-.00002 2.60697-1.01597 4.849724-3.04784 6.728267-2.03192 1.878548-4.61205 2.817821-7.74039 2.817822-.98146-.000001-1.90923-.09968-2.78331-.299034-.87411-.199357-1.97057-.575066-3.28938-1.127129-.73609-.3067-1.34183-.460051-1.81721-.460052-.39871.000001-.82043.153352-1.26514.460052-.44472.306702-.8051.774422-1.08112 1.40316h-.8511V79.101708h.8511c.67474 3.312386 1.97438 5.838838 3.89894 7.579365 1.92454 1.740533 3.99861 2.610798 6.22221 2.610797 1.71751.000001 3.08617-.467718 4.10597-1.40316 1.01976-.935437 1.52965-2.024226 1.52967-3.266372-.00002-.736078-.19554-1.449158-.58656-2.139244-.39107-.69007-.9853-1.345645-1.78271-1.966724-.79744-.621061-2.20826-1.429986-4.23248-2.426777-2.837-1.395479-4.87656-2.583947-6.1187-3.565407-1.24215-.981428-2.19675-2.077885-2.86382-3.289375-.66708-1.211451-1.00062-2.545602-1.00062-4.002456 0-2.484258.91244-4.600497 2.73731-6.348724 1.82487-1.748168 4.12513-2.622267 6.90079-2.622299 1.0121.000032 1.99355.122713 2.94434.368042.72073.184053 1.59866.525258 2.6338 1.023617 1.0351.49842 1.75968.747615 2.17374.747585.3987.00003.71306-.122651.94311-.368042.23001-.245331.4447-.835731.64407-1.771202z" transform="matrix(.4873 .99301 -.79569 .43067 0 0)" font-size="47.10937119"/>
            <path id="text24761" d="M297.48349 92.444255v7.571195h-.74268c-.44013-1.746649-.92837-3.001637-1.46473-3.764968-.5364-.763284-1.2722-1.371867-2.2074-1.825751-.52265-.247533-1.43724-.371313-2.74378-.371339h-2.08363v21.578928c-.00002 1.43035.0791 2.32431.23725 2.6819.15814.35758.46759.67047.92834.93866.46072.26819 1.08993.40228 1.88764.40228h.92835v.76331h-14.64727v-.76331h.92835c.81144 0 1.46472-.1444 1.95985-.43323.35757-.19254.63952-.52262.84583-.99023.15127-.33008.22692-1.19654.22693-2.59938V94.053392h-2.02174c-1.88421.000026-3.25266.398871-4.10536 1.196537-1.19654 1.114041-1.95297 2.702546-2.2693 4.765521h-.78393v-7.571195z" transform="matrix(.56079 .83816 -.80155 .5852 0 0)" font-size="42.25014496"/>
            <path id="text24765" d="M273.63754 196.51518v.88271h-16.91453v-.88271h1.07356c.93836 0 1.69383-.16699 2.2664-.50099.41352-.22266.73161-.60437.95428-1.14513.17494-.38171.26242-1.3837.26242-3.00597v-21.28035c0-1.65405-.0875-2.68785-.26242-3.1014-.17496-.41349-.52884-.77531-1.06164-1.08548-.5328-.31011-1.25249-.46518-2.15904-.46521h-1.07356v-.88271h16.91453v.88271h-1.07356c-.93838.00003-1.69385.16703-2.2664.50099-.41354.2227-.73958.60441-.97813 1.14513-.17497.38174-.26244 1.38373-.26243 3.00597v21.28035c-.00001 1.65408.0914 2.68788.27435 3.1014.18289.41352.54075.77535 1.07356 1.08548.53279.31014 1.25247.46521 2.15905.46521z" transform="matrix(.80044 .8593 -.65209 .54928 0 0)" font-size="48.85891724"/>
            <path id="text24769" d="M305.68043 211.40561v10.22341h-.84833c-.63808-2.66822-1.82719-4.7129-3.56732-6.13405-1.74018-1.4211-3.71235-2.13166-5.91652-2.13169-1.84169.00003-3.53109.52933-5.06821 1.58789-1.53715 1.05862-2.661 2.4435-3.37155 4.15462-.91359 2.18972-1.37038 4.62593-1.37037 7.30866-.00001 2.63924.33352 5.04283 1.00059 7.21076.66705 2.16795 1.71114 3.8066 3.13228 4.91594 1.42111 1.10935 3.26277 1.66403 5.52499 1.66402 1.85615.00001 3.55642-.40603 5.10083-1.2181 1.54436-.81207 3.17213-2.21145 4.88331-4.19813v2.54498c-1.65317 1.72565-3.3752 2.97639-5.16608 3.75221-1.79094.77582-3.88275 1.16373-6.27544 1.16373-3.14679 0-5.94191-.63081-8.38537-1.89242-2.44348-1.26161-4.32864-3.07427-5.6555-5.43799-1.32688-2.3637-1.99031-4.87967-1.99031-7.54792 0-2.81323.73594-5.48147 2.20782-8.00471 1.47188-2.5232 3.45856-4.48088 5.96004-5.87303 2.50146-1.39209 5.15882-2.08815 7.97208-2.08818 2.07367.00003 4.26336.44957 6.56909 1.34862 1.33409.52207 2.18241.7831 2.54497.78307.46402.00003.86643-.17036 1.20724-.51117.34075-.34075.56189-.88093.66343-1.62052z" transform="matrix(.82945 .55716 -.55586 .83223 0 0)" font-size="44.54796982"/>
            <path id="text24773" d="M325.67519 193.53446v12.63789h.61815c1.96893.00001 3.39604-.61814 4.28132-1.85447.88524-1.2363 1.44998-3.06024 1.69421-5.47184h.87v16.25525h-.87c-.18318-1.77052-.56858-3.22051-1.15619-4.35-.58765-1.12946-1.27067-1.8888-2.04908-2.27802-.77843-.3892-1.9079-.5838-3.38841-.58382v8.74579c-.00002 1.70947.0725 2.755.2175 3.13657.14498.38158.4159.69448.81276.93869.39683.24421 1.03788.36631 1.92316.36631h1.85447c2.89997 0 5.22379-.67158 6.97144-2.01473 1.7476-1.34316 3.003-3.38842 3.76618-6.13579h.84711l-1.39658 9.86762h-26.83261v-.8471h1.03026c.90052 0 1.62552-.16026 2.175-.48079.39683-.21368.7021-.58.91579-1.09895.16789-.36631.25183-1.32789.25184-2.88473v-20.42209c-.00001-1.40418-.0382-2.26655-.11448-2.5871-.15263-.53418-.435-.94629-.8471-1.23632-.58-.42734-1.37369-.64102-2.38105-.64105h-1.03026v-.84711h25.9855v9.18079h-.87c-.44265-2.24366-1.06463-3.85392-1.86592-4.83079-.80133-.97681-1.93462-1.69418-3.39986-2.1521-.85476-.27471-2.45739-.41208-4.80789-.41211z" transform="matrix(.82265 .7123 -.60154 .69474 0 0)" font-size="46.88838577"/>
          </g>
          <g id="g24832" font-family="Times New Roman">
            <path id="path24785" d="M472.14913 370.8655l4.9094 5.68833-.58655.46572c-1.48019-1.03628-2.67958-1.673-3.59815-1.91015-.91859-.23709-1.89434-.23293-2.92727.0125-.57329.14179-1.37589.62231-2.40779 1.44159l-1.64564 1.30662 13.9925 16.21249c.92746 1.07465 1.56959 1.6967 1.92641 1.86617.35675.16947.80405.21051 1.34185.12308.53777-.0874 1.12166-.38124 1.75168-.88148l.7332-.58214.49497.57347-11.56827 9.18508-.49496-.57349.73321-.58214c.64087-.50885 1.06318-1.02699 1.26694-1.55449.15757-.36888.16621-.79367.0259-1.27438-.0946-.34285-.59665-1.04127-1.50628-2.09525l-13.99249-16.21248-1.59676 1.2678c-1.48811 1.18158-2.31027 2.33937-2.46649 3.47339-.22264 1.58732.20998 3.25513 1.29786 5.00343l-.61915.49159-4.9094-5.68832z" font-weight="400" font-size="42.25014496"/>
            <path id="path24787" d="M574.75509 261.71291l-4.0822 9.81756 2.21969 2.29322c.74275.75757 1.40789 1.25853 1.99543 1.50282.77885.32386 1.48342.24821 2.11369-.22694.37203-.27801.91381-1.11848 1.62538-2.52142l.75834.31533-4.61145 11.09039-.75834-.31533c-.0491-1.163.41486-1.62646-.21732-2.97512-.6322-1.34866-1.47695-2.29688-3.20283-4.12035l-15.76942-17.20088 1.86488-4.48847 23.74997-.25417c2.55661-.0588 4.24286-.27912 5.05876-.6611.61675-.28841 1.13542-.84201 1.556-1.66081l.75835.31533-5.59066 13.44535-.75834-.31532.23011-.5534c.44883-1.07943.61385-1.90028.49505-2.46254-.0936-.39149-.3454-.67248-.75532-.84294-.24595-.10224-.51578-.16636-.80948-.19236-.13435-.0238-.73195-.0319-1.79286-.0243zm-1.80646.0662l-11.29313.16025 7.79897 8.24309z" font-weight="700" font-size="45.45980835"/>
            <path id="path24789" d="M536.51402 332.85387l-6.84122 8.1392 1.42887 2.8538c.48105.94562.96512 1.62314 1.45223 2.03255.6457.54275 1.34047.6821 2.08432.41808.43833-.1535 1.20744-.79255 2.30735-1.91716l.62871.52845-7.72818 9.19442-.6287-.52844c.30236-1.12407.88401-1.42689.68586-2.90313-.19815-1.47623-.71927-2.63433-1.81814-4.89181l-9.87815-21.14158 3.12634-3.72158 22.73076 6.8875c2.45632.71147 4.13095 1.0075 5.02388.88808.67489-.0899 1.33583-.46231 1.98283-1.11707l.6287.52844-9.3692 11.14681-.6287-.52845.38563-.45878c.75219-.8949 1.15602-1.62835 1.21151-2.20034.0282-.40155-.1276-.74515-.46743-1.03081-.20391-.17137-.44206-.31353-.7144-.42649-.12101-.063-.68863-.25015-1.70287-.56141zm-1.74301-.47916l-10.82032-3.23744 4.96459 10.20419z" font-weight="700" font-size="45.45980835"/>
            <path id="path24791" d="M565.01046 236.96176l-.70761-.25629 5.82419-18.99052.70762.2563-.36966 1.20532c-.32311 1.05353-.44938 1.95021-.37878 2.69003.0361.52892.23256.99688.58939 1.40389.24575.30723 1.01886.69639 2.31932 1.16742l17.05908 6.1788c1.32595.48025 2.1848.6822 2.57656.60586.39171-.0764.8036-.36862 1.2357-.87677.43206-.50815.80418-1.27114 1.11636-2.28894l.36966-1.20532.70761.25629-5.82419 18.99052-.70761-.2563.36965-1.20533c.32309-1.05355.44935-1.95023.37878-2.69002-.0361-.52896-.22985-1.00585-.58117-1.43067-.24577-.30729-1.01888-.69643-2.31933-1.16743l-17.05908-6.1788c-1.32596-.48027-2.18618-.67777-2.58066-.59247-.39446.0853-.80773.38199-1.23981.89016-.43207.50811-.80419 1.27111-1.11636 2.28895z" font-weight="400" font-size="48.85891724"/>
            <path id="text24795" d="M135.33049 604.57502v8.08175c-.00001 1.55964.0957 2.54151.28712 2.94559.1914.40409.52814.72665 1.01022.96769.48205.24103 1.38239.36155 2.70101.36155v.78691h-14.75985v-.78691c1.33278 0 2.23666-.12406 2.71165-.37219.47497-.24812.80817-.57068.99958-.96768.19141-.397.28711-1.37532.28712-2.93496v-18.71565c-.00001-1.55961-.0957-2.54147-.28712-2.94558-.19141-.40406-.52815-.72663-1.01022-.96769-.48207-.241-1.38241-.36152-2.70101-.36155v-.78691h13.39871c3.4879.00003 6.04003.24107 7.6564.72311 1.61633.48209 2.93493 1.3718 3.95581 2.6691 1.02082 1.29736 1.53125 2.81801 1.53128 4.56194-.00003 2.1268-.76567 3.88494-2.29692 5.27441-.97835.87909-2.34657 1.53839-4.10469 1.97791l6.9333 9.76191c.9074 1.26189 1.55252 2.0488 1.93537 2.36072.58129.43954 1.25477.68057 2.02044.72311v.78691h-9.08134l-9.29402-13.14349zm0-14.14308V603.065h1.21227c1.9708.00002 3.44536-.18076 4.42369-.54233.9783-.36153 1.74749-1.01374 2.30756-1.95663.56003-.94285.84006-2.17284.84008-3.68996-.00002-2.19765-.51399-3.82109-1.54192-4.87032-1.02796-1.04919-2.6833-1.57379-4.96602-1.57382z" transform="rotate(-41.263)" font-weight="700" font-size="43.55641937"/>
            <path id="text24799" d="M39.76764 614.15172v.84291c-1.123912.18228-2.12629.78219-3.007137 1.79973-.637907.7594-1.587128 2.54394-2.847667 5.35361l-9.191356 20.95017-3.247286.22179-9.545348-22.12878c-1.275759-2.96154-2.1300581-4.70052-2.5629003-5.21692-.4328477-.51635-1.2491782-.84288-2.4489937-.9796v-.84291h14.807869v.84291h-.50119c-1.336518.00003-2.24777.16709-2.73376.50119-.349325.22784-.523982.56197-.523971 1.00238-.000011.2734.06074.59614.182251.9682.121489.37213.531552 1.37071 1.230192 2.99575l6.583807 15.3774 6.105398-13.69158c.728976-1.65542 1.177009-2.76411 1.344099-3.32608.167036-.56191.250567-1.04032.250594-1.43522-.000027-.4556-.121527-.85807-.364501-1.20741-.243028-.34929-.599935-.61507-1.070723-.79735-.65309-.25816-1.51878-.38725-2.597072-.38728v-.84291z" transform="rotate(-59.392)" font-weight="700" font-size="46.65617752"/>
            <path id="text24803" d="M-32.952477 635.53024l-1.04908 9.79142h-24.766512v-.7611h.925659c.809092 0 1.46048-.14399 1.954168-.43198.356546-.19198.630815-.52111.822808-.98737.150843-.32912.226267-1.19306.226272-2.59184v-18.34861c-.000005-1.42618-.07543-2.31755-.226272-2.67413-.150852-.35652-.455977-.6685-.915374-.93594-.459404-.26739-1.079937-.40109-1.861602-.40112h-.925659v-.7611h14.872249v.7611h-1.213641c-.809108.00003-1.460497.14402-1.954168.43198-.356562.19201-.637688.52113-.843378.98736-.15086.32915-.226284 1.1931-.226272 2.59185v17.77265c-.000012 1.4262.08227 2.33472.246842 2.72555.16455.39083.486816.68224.966799.87423.342824.12342 1.172487.18513 2.488993.18513h2.324432c1.481035 0 2.715245-.26055 3.702635-.78167.987347-.52111 1.841009-1.34391 2.560989-2.46842.719932-1.1245 1.402176-2.78382 2.046734-4.97799z" transform="matrix(.23672 -.99045 .9507 .24661 0 0)" font-weight="700" font-size="42.12775421"/>
          </g>
          <g id="g24850">
            <path id="text24711" d="M217.10144 503.10953c.33565 3.27582.25701 3.36849 3.14439 3.64269v1.80036h-13.34168v-2.02874c3.14068.12032 3.10808-.20762 3.33935-3.41431v-19.28111c-.00001-1.60673-.0986-2.61825-.29579-3.03458-.67836-.7087-1.57442-.52586-2.4912-.53198l-.0296-1.6481h11.64648c4.26519.00003 7.32533.75959 9.18043 2.27868 1.85505 1.51914 2.78259 3.41804 2.78261 5.69669-.00002 1.92813-.5989 3.57871-1.79664 4.95174-1.19779 1.37306-2.84837 2.3079-4.95174 2.80452-1.41689.35058-3.81242.52586-7.18659.52585zm0-22.78676v12.6872c1.1087.14745 2.18842.10784 3.27244-.13224.76905-.26257 1.41645-.68263 1.94222-1.26018.96403-1.05898 1.44606-2.6986 1.44608-4.91887-.00002-2.20562-.48205-3.81968-1.44608-4.84219-.96407-1.02245-2.40285-1.53369-4.31634-1.53372z" transform="scale(1.08236 .9239)" font-weight="400" font-size="44.87238312" font-family="Arial Black"/>
            <path id="text24723" d="M286.04019 460.92789h-10.63244l-1.26524 2.93003c-.41435.97668-.62153 1.78318-.62152 2.41949-.00001.8435.34035 1.46502 1.02107 1.86456.39954.23678 1.38361.41435 2.95222.53274v.82129h-12.01092v-.82129c1.05503-.49181 1.66109-.24139 2.66366-1.34293 1.00257-1.10154 1.5538-2.24561 2.57487-4.53932l9.82811-21.1649 4.86047-.001 9.35321 21.83215c1.03584 2.33811 1.88673 3.81052 2.55268 4.41724.5031.45874 1.21341.72511 2.13093.7991v.82129h-14.56135v-.82129h.59933c1.16903 0 1.99032-.16278 2.46388-.48834.32554-.23677.48832-.57713.48834-1.02107-.00002-.26636-.0444-.54013-.13318-.8213-.0296-.13318-.25159-.6881-.66592-1.66478zm-.7547-1.64259l-4.48383-10.36608-4.61701 10.36608z" font-weight="700" font-size="45.45980835" font-family="Times New Roman"/>
            <path id="text24731" d="M367.92237 453.52417l7.35136 10.9091c1.30785 1.94073 2.23954 3.11852 2.79507 3.53339.55547.41486 1.21292.66449 1.97236.74886v.78051h-13.94368v-.78051c1.11098-.0844 1.8282-.25313 2.15167-.50627.32344-.25314.48517-.56253.48519-.92817-.00002-.25314-.0492-.47815-.14767-.67504-.1969-.42189-.68912-1.20943-1.47664-2.36262l-3.69073-5.46155-6.81449 7.90855c-.32306.51962-.12719.96772.50627 1.33806.52498.30692.83676.40578 1.49774.56047.29531.0844.90003.12657 1.81415.12657v.78051h-10.9904v-.78051c1.25162-.18282 2.23604-.52033 2.95327-1.01255.94223-.6469 2.25714-1.99697 3.94473-4.05021l5.67451-6.9191-7.27771-10.69508c-1.19538-1.75788-1.87745-2.73527-2.0462-2.93218-.37971-.46406-.75239-.79455-1.11803-.99146-.36564-.19686-.87192-.34452-1.51882-.44299v-.78051h14.19682v.78051h-.71723c-.81568.00003-1.38524.13011-1.70868.39026-.32347.26019-.48519.58716-.48518.98091-.00001.30941.0492.57661.14766.8016l1.45555 2.19386 3.54393 5.40028 3.01656-3.6916c1.54693-1.89851 2.32041-3.22748 2.32043-3.98692-.00002-.37968-.10901-.73126-.32697-1.05474-.218-.32343-.53091-.57657-.93872-.75942-.40785-.18279-1.0407-.2742-1.89853-.27423v-.78051h10.52632v.78051c-.82976.0141-1.59724.0166-2.50136.70376z" font-weight="700" font-size="43.20221329" font-family="Times New Roman"/>
            <path id="path24793" d="M332.34051 468.91843l-.033.75186-19.86319.11992.033-.75187 1.26071-.008c1.10194-.007 1.99535-.15425 2.68023-.4428.49394-.19258.88176-.51998 1.16347-.98216.21972-.32637.35992-1.18047.42059-2.56228l.79592-18.12611c.0619-1.40888-.002-2.28883-.19216-2.63984-.19-.35096-.59204-.65665-1.20612-.91706-.61408-.26037-1.45344-.38735-2.51802-.38095l-1.26071.008.033-.75188 19.86319-.1199-.033.75186-1.26071.008c-1.10196.007-1.99538.15429-2.68023.4428-.49396.19262-.89111.52007-1.19147.98233-.21975.32641-.35996 1.18049-.42061 2.56228l-.79592 18.12611c-.0619 1.40891.007 2.28883.20618 2.63976.19931.35093.60602.6566 1.22011.91698.61407.26039 1.45341.38737 2.51804.38095z" font-weight="400" font-size="48.85891724" font-family="Times New Roman"/>
          </g>
        </g>
      </g>
    </g>
    <g id="g2743" fill-opacity="1">
      <g id="g2636">
        <g id="g2529">
          <g id="g1904" fill-rule="evenodd" stroke="none" stroke-width="1.5" stroke-linecap="butt" stroke-linejoin="miter" stroke-miterlimit="4">
            <path d="M379.64684 139.11702c7.00931-8.69758 15.84506-15.9196 26.25994-22.67904 17.88458-10.23398 30.92083-4.73183 24.66844 33.02387-4.13043 11.36779-10.41164 18.83191-17.10876 24.66844l.79576 2.38726-6.36605 5.96817c-6.01407 6.70181-1.53584 11.71588 1.19364 16.71088 10.85486 22.57648-.0915 36.90117-10.34483 47.34748l-19.49602 15.51724c-3.46964 4.98246-4.72299 10.40819-5.57029 15.91512-1.28582 6.40702-9.16957 14.28757-14.32361 23.87268-3.23206 7.54988-2.16513 14.44761-3.5809 23.87268-8.37861 27.22415-34.35013 23.60743-46.98522 24.14174-12.6351-.39404-38.60662 3.22268-46.98523-24.00147-1.41577-9.42507-.34884-16.3228-3.5809-23.87268-5.15404-9.58511-13.03779-17.46566-14.32361-23.87268-.8473-5.50693-2.10065-10.93266-5.57029-15.91512l-19.49602-15.51724c-10.25334-10.44631-21.19969-24.771-10.34483-47.34748 2.72948-4.995 7.20771-10.00907 1.19364-16.71088l-6.36605-5.96817.79576-2.38726c-6.69712-5.83653-12.97833-13.30065-17.10876-24.66844-6.25239-37.7557 6.78386-43.25785 24.66844-33.02387 10.41488 6.75944 19.25063 13.98146 26.25994 22.67904l-9.1998-10.22417c12.34471-9.55541 32.67605-13.64481 47.82817-18.28724 25.38573-22.363189 40.80719-21.877418 65.83409.56268 15.93282 4.50643 34.3688 9.59 46.14012 18.0059z" id="path2161" fill="#a49a42"/>
            <path id="path1716" d="M308.86914 98.257812c-.39494.0013-.79154.01162-1.19141.03125-12.33509.753249-21.2641 10.378198-30.92187 16.578128-14.27376 4.40621-29.11773 7.1284-41.99414 14.91211 4.5501 4.04951 8.67344 9.30744 8.26758 15.78125-11.17392-3.00741-30.47497-16.73537-37.52539-9.28711-6.64505 7.02002-1.69581 22.4625.15039 27.03711 1.27353 3.15561 2.18861 8.96082 3.1289 9.74218-2.54796 5.22686 6.32813 6.44177 6.84766 11.40821 4.11541 9.57974-6.00133 17.18601-7.00781 26.24804-3.59825 16.01779 8.00374 30.44273 20.38672 39.03516 7.87494 5.57659 16.82081 12.09117 17.76367 22.58398.84849 7.60328 5.3393 13.81114 10.01367 19.58985 5.86303 7.82123 8.90299 17.53377 8.04883 27.30078.67506 12.82504 10.82607 24.58142 23.89844 25.62109 13.67961 1.99874 27.61824 1.05909 41.31054-.0625 12.48278-2.26733 23.00764-13.53392 22.42969-26.57031.23586-9.8046 2.36742-19.89873 9.14453-27.37109 4.8661-6.14278 9.03101-13.09284 9.62891-21.06446 1.99436-9.04226 9.49713-15.08172 16.94726-19.71484 11.91204-8.77144 23.89368-22.28752 21.05274-38.21289-.92415-8.75025-9.04654-15.59855-8.19336-24.54687.6471-5.42437 5.92015-8.86673 8.5-12.70899.13688-1.65814 2.54961-7.42155 3.00613-11.28875 1.06198-8.99586 7.07949-21.42294-.68582-27.16633-12.44556-9.20501-25.3526 6.93733-37.08984 8.90235-.96477-6.22885 3.55622-10.92339 7.53711-14.95118-13.05569-7.71709-28.33738-10.71384-42.56641-15.76562-8.74509-7.51357-18.64348-16.10206-30.88672-16.060548z" fill="#d4c012"/>
            <path id="path1724" d="M325.88207 326.26172c-5.53965-.0307-10.44138-3.09052-15.09961-5.42578-7.80316.57187-14.53455 8.45217-22.82422 5.03125-12.13785-3.49257-15.35164-17.93248-16.3457-28.92383-.90334-12.28746-2.22635-27.51767-14.05664-34.65234-4.53691-3.51874-5.12379-12.73862 1.74805-13.85157 11.54956-1.54488 22.44916 5.16284 34.01367 2.41211 6.007-.61559 10.91488-4.6907 16.0625-6.92578 6.15276 2.14082 11.2715 7.22936 18.22461 7.1582 11.05615 1.43087 21.67324-3.96716 32.66601-2.76367 6.2671 1.96938 5.95088 11.18748.55079 14.09375-7.30389 5.38744-11.43887 13.77717-12.08823 22.74169-.7225 5.07925-1.04681 10.60518-2.88932 20.56593-3.46944 13.08892-10.34963 21.59416-19.96191 20.54004zm46.55543-174.98047c-5.27352-1.47224-4.18499-8.71723-2.98047-12.79102.44716-2.39198 2.89768-5.1022 2.81836-6.92382-14.63519-6.88377-32.76786-7.43024-44.7499-19.53983-5.61062-4.29433-12.24083-8.09833-19.55283-7.74142-15.19641 1.626-24.03245 17.69853-39.38315 19.17689-7.90278 2.39999-17.27309 4.35761-23.91178 8.23131 4.26469 6.03042 5.59736 13.97748 3.48633 21.06445-14.41799-.30747-35.90034-23.36916-40.17843-12.12248-3.66384 9.63186 4.20177 20.95684 8.68234 31.14397-4.49452 2.53007.65023 4.15884 2.42187 6.05078 7.05504 8.88179 1.85058 20.82887-2.98847 29.43041-6.36093 12.84195 2.71743 27.33372 12.97675 35.12623 11.29873 7.25368 23.56545 17.32138 24.17188 31.86914 4.48296 12.50301 17.07885 21.59527 17.19182 35.76881.41102 9.54871.76454 21.58721 10.95662 26.12963 12.69088 6.09208 27.27052 3.15502 40.82617 3.375 10.5957.005 22.22695-5.98257 23.87305-17.33203.69786-3.88642 1.30835-7.50077 4.40436-20.02539 3.096-12.52463 13.63764-20.36268 14.9135-32.92727 1.45406-9.19047 7.88658-16.19167 15.27596-21.29932 10.84698-7.72169 23.81252-17.76976 22.80266-32.73826.16422-10.06739-9.71368-17.0628-8.33789-27.32422-.0945-6.53239 7.0695-10.08268 8.41713-15.89193 3.05186-13.15573 8.11876-25.62199 3.08148-29.52381-7.9655-6.16999-20.79678 8.77976-34.21736 8.81418z" fill="#ecd618"/>
            <path id="path1738" d="M308.69531 112.27344c-14.33647 3.1149-23.36707 17.95197-38.47265 19.0664-4.79541 1.77984-10.03576 2.1655-14.65821 4.43164 2.62127 8.06669 1.84801 17.03668-1.59765 24.73829-16.33542 2.88724-24.18756-1.5097-31.08571-8.23764-6.89815-6.72794-6.67466-5.8763-10.13071-7.66977-2.39607 2.92375.0493 15.235 11.33165 23.15936 1.58821 3.00803 1.04014 6.51859 3.72461 8.97266 5.98428 11.51928.90767 24.82326-5.01758 35.21093-3.23785 11.59713 6.72275 21.74201 15.86914 27.24414 3.90472 2.87433 7.61314 6.02233 11.03907 9.45508 3.29293-7.93723 12.91323-9.65891 20.49804-8.08594 10.85101 1.37636 23.79051 6.34735 33.23828-1.71093 5.88469-3.75008 14.08324-3.18627 19.04493 1.82812 14.77187 8.182 31.6247-5.99495 46.37109 2.06445 1.88778 1.49866 3.27269 3.0049 5.0625.31836 8.76438-7.04659 21.68783-14.13043 21.61328-26.9375-1.60859-11.06808-11.87084-20.94415-7.82617-32.72265 4.16869-18.41868 19.0468-25.60967 13.12184-33.68038-5.46616-7.44577-10.51365 8.76416-26.98122 9.56514-8.78021.25954-15.03042-8.89588-13.29882-17.14648-.41694-2.6965 3.49239-7.18328-1.60755-6.83962-14.95824-4.08465-29.98708-9.78706-41.53699-20.44358-2.6608-1.47346-5.60903-2.6517-8.70117-2.58008zm48.41992 49.69336c7.64988.17271 18.53514.0913 21.44727 8.95117 1.46023 8.24776-7.6258 11.72966-13.44727 14.7793-7.85993 6.50026-17.48146 15.27066-28.61718 11.84765-11.38634-1.89516-18.19505-17.96652-9.17578-26.32812 7.24534-8.57214 19.46513-9.01063 29.79296-9.25zm-96.08007.12109c11.95188-.30461 27.05777 2.1687 32.41015 14.42578 5.0736 11.92205-8.68059 24.09925-20.29883 21.69727-12.05696-1.81947-18.80197-13.89822-30.11914-17.39063-6.034-4.10077-5.17086-14.94923 2.45508-16.68554 4.90891-2.10196 10.3621-1.60914 15.55274-2.04688zm50.21875 167.45508c-2.10377.66529-4.0804 1.66023-6.08203 2.57422 3.49694-.17806 9.11754-.0218 11.16406-.59961-1.70536-.58255-3.38013-1.73153-5.08203-1.97461z" fill="#eedb34"/>
            <path id="path1869" d="M308.30469 129.79883c-10.26227 5.67205-20.29437 14.00156-31.51953 17.21289 13.64567 2.58508 26.98969 11.38137 31.9707 24.78711 4.46856-14.35233 18.80941-23.17649 33.21289-24.72656-11.99668-3.93175-22.60515-11.66213-33.66406-17.27344zm.40039 62.03906c-6.79025 18.89453-31.81637 29.41246-49.35938 18.47461-5.24775-2.34232-10.00579-7.12631-14.55664-9.38086-1.72871 6.00014-6.0953 11.75428-5.14453 18.16016 2.73709 3.23418 6.78212 7.83939 10.94727 7.80664 12.76428-5.71892 26.84477-.69874 39.91015.14258 9.78666-4.01492 21.24024-10.3346 31.70508-4.61719 6.53431 3.14225 13.95226 6.66948 21.2207 3.52148 8.85364-1.67809 18.1617-2.37886 26.96485-.49023 4.37176-2.60124 11.39574-7.31348 6.91015-13.02539-1.68664-3.89114-3.21971-7.8516-4.5039-11.89453-10.52921 8.47244-23.69531 16.21131-37.75781 13.23046-11.87679-1.90903-22.42083-10.69426-26.27149-22.11523z" fill="#f0e050"/>
          </g>
          <g id="g2427">
            <g id="g2332">
              <g id="g2241" fill="#000" fill-rule="evenodd" stroke="#000" stroke-linecap="butt" stroke-linejoin="miter">
                <path id="path11931" d="M299.24457 174.96859c3.71397-.0784 7.28695 11.02492.5545 12.33073-.81826-.29459-.98441-11.23004-.5545-12.33073z" stroke-width="1"/>
                <path id="path11907" d="M282.53155 240.77653c-1.05608.96424-.91832 2.02032 0 3.12231.91834 1.10198 2.43357 1.33156 3.48965.36732 1.05607-.96424 1.10199-1.83665.18366-2.93864-.91833-1.102-2.61723-1.51524-3.67331-.55099z" stroke-width=".6528179"/>
                <path id="path11909" d="M278.14397 221.78593c-1.05608.96424-.91832 2.02032 0 3.12231.91834 1.10198 2.43357 1.33156 3.48965.36732 1.05607-.96424 1.10199-1.83665.18366-2.93864-.91833-1.102-2.61723-1.51524-3.67331-.55099z" stroke-width=".6528179"/>
                <path id="path11911" d="M288.21935 228.71582c1.41189-1.50818 5.6648 4.39663 4.282 5.22947-1.44628-.21393-3.17347-1.31852-4.282-5.22947z" stroke-width=".48784918"/>
                <path id="path11913" d="M277.09543 213.33513c1.41189-1.50818 6.08681 2.42723 4.70401 3.26007-1.44628-.21393-3.59548.65088-4.70401-3.26007z" stroke-width=".48784918"/>
                <path id="path11915" d="M287.67543 233.69635c-.59375-1.67242-3.45053-2.97235-4.49214-1.46088-1.04162 1.51147.35012 5.36863 1.98548 5.52958 1.63534.16096 3.1004-2.39627 2.50666-4.0687z" stroke-width=".68774241"/>
                <path id="path11917" d="M293.85942 239.86086c-.48468-1.36521-2.81671-2.42636-3.66699-1.19253-.85028 1.23383.28581 4.38248 1.62078 4.51387 1.33494.13139 2.53089-1.95611 2.04621-3.32134z" stroke-width=".56141293"/>
                <path id="path11919" d="M273.5223 216.92989c-.39985-1.12628-2.32374-2.00171-3.0252-.98382-.70147 1.01789.23578 3.61548 1.33711 3.72387 1.10131.1084 2.08795-1.61376 1.68809-2.74005z" stroke-width=".46315667"/>
                <path id="path11921" d="M272.146 223.65368c-1.00273 1.26432-.62684 4.09332 1.0406 4.16718 1.66745.0739 3.9693-2.85929 3.30459-4.19746-.6647-1.33816-3.34246-1.23402-4.34519.0303z" stroke-width=".62534451"/>
                <path id="path11923" d="M277.27379 230.46046c1.78381-1.04215 5.14012 4.06447 3.57706 4.46771-1.32495-.61806-3.63162-.40306-3.57706-4.46771z" stroke-width=".48784918"/>
                <path id="path11925" d="M284.0577 204.42959c2.70011-3.0804 13.94304 5.24944 13.0285 8.19769-1.74867 1.76285-13.99604-5.16764-13.0285-8.19769z" stroke-width="1"/>
                <path id="path11927" d="M291.14186 196.06476c3.40698-2.27419 10.11376 8.09103 10.45486 11.29777-3.73773-1.33753-12.17556-8.6226-10.45486-11.29777z" stroke-width="1"/>
                <path id="path11929" d="M302.05629 192.19785c2.6861.23446 2.78258 8.25448.5545 9.34665-2.46551-.29459-3.53876-8.24596-.5545-9.34665z" stroke-width="1"/>
                <path id="path3154" d="M257.42813 138.59875c-2.46174-.77369-7.3149 4.50148-6.47087 7.03356.84403 2.53208 8.22926 4.85315 9.84698 3.09476 1.61772-1.75839-.91436-9.35463-3.37611-10.12832z" stroke-width="1"/>
                <path id="path4125" d="M243.29533 154.92894c-2.46174-.77369-7.3149 2.81343-6.47087 5.34551.84403 2.53208 8.22926 4.85315 9.84698 3.09476 1.61772-1.75839-.91436-7.66658-3.37611-8.44027z" stroke-width="1"/>
                <path id="path4127" d="M291.96753 123.15246c-2.46174-.77369-9.84698 3.37611-9.00295 5.90819.84403 2.53208 9.07329 3.72779 10.69101 1.9694 1.61772-1.75839.77369-7.1039-1.68806-7.87759z" stroke-width="1"/>
                <path id="path4129" d="M258.83484 123.12494c-1.61772 1.47705-2.25073 5.06416-.84402 6.75221 1.40671 1.68805 4.85315 1.47705 6.47087 0 1.61772-1.47705 1.40671-4.22014 0-5.90819-1.40671-1.68805-4.00913-2.32107-5.62685-.84402z" stroke-width="1"/>
                <path id="path5100" d="M243.88559 127.16493c-1.61772 1.47705-1.4067 3.09477.00001 4.78282 1.40671 1.68805 3.72778 2.03973 5.3455.56268 1.61772-1.47705 1.68805-2.81343.28134-4.50148-1.40671-1.68805-4.00913-2.32107-5.62685-.84402z" stroke-width="1"/>
                <path id="path5102" d="M286.12504 161.95016c-2.43643 2.21794-16.85853-14.57397-13.50443-15.47382 1.13529-.30458 15.29082 13.84763 13.50443 15.47382z" stroke-width="1"/>
                <path id="path5104" d="M297.55249 158.33499c-2.05905 2.57211-16.76188-14.27017-13.50443-15.47382 3.09391-1.14322 15.23391 13.3134 13.50443 15.47382z" stroke-width="1"/>
                <path id="path6075" d="M285.21532 108.52266c-2.46174-.77369-6.47087 1.40672-5.62684 3.9388.84403 2.53208 6.5412 4.29047 8.15892 2.53208 1.61772-1.75839-.0703-5.69719-2.53208-6.47088z" stroke-width="1"/>
                <path id="path6077" d="M238.85955 179.67472c1.31293-.75025 13.50985 12.83767 10.691 13.78577-4.70692-.0208-10.9568-4.94885-10.691-13.78577z" stroke-width="1"/>
                <path id="path6079" d="M229.0873 194.7415c3.39333-2.53345 9.84307 10.91647 6.75221 12.09772-2.84103-.95376-5.92735-3.80613-6.75221-12.09772z" stroke-width="1"/>
                <path id="path6081" d="M257.99082 191.20975c4.85859 3.26307 13.06104 11.70558 10.691 15.47383-3.06445.96433-9.5321-9.84436-10.691-15.47383z" stroke-width="1"/>
                <path id="path8021" d="M254.44297 222.41379c-3.63964 4.95876 11.12803 16.46594 15.71618 11.53846-6.65074-1.72813-11.12448-6.72177-15.71618-11.53846z" stroke-width="1"/>
                <path id="path8992" d="M244.09814 229.97347c.28477-.28477 15.27956 9.18994 13.72679 10.74271-1.97753 1.97753-14.20352-10.26598-13.72679-10.74271z" stroke-width="1"/>
                <path id="path8994" d="M249.23925 269.13298c1.10057-3.14534 8.15527 14.06404 7.44956 15.75864-1.07516 2.58172-7.67223-15.12228-7.44956-15.75864z" stroke-width="1"/>
                <path id="path9965" d="M219.62865 210.47745c-5.03737 13.58604 1.87839 29.62919 10.94164 31.6313 1.33447-1.98313-6.27135-4.85304-8.44905-14.79819-1.75116-7.99722-1.24922-17.3238-2.49259-16.83311z" stroke-width="1"/>
                <path id="path10936" d="M263.19629 289.65517c.85163-1.2674 5.8759 9.3529 6.96286 14.32361.91599 4.18885-4.56586 5.34781-4.77453 3.77984-.61254-4.6026-2.83021-17.14819-2.18833-18.10345z" stroke-width="1"/>
                <path id="path12966" d="M301.03618 220.04733c5.81371 6.66828 10.80963 3.4269 13.50442-.14067 8.24359-8.57111 16.06566.29992 10.40966 6.18953l-8.58093 8.58094c-3.14524 3.31129-12.61664 3.68874-15.33316.42201l-9.7063-9.84698c-4.76956-6.34067 2.16956-12.47532 9.70631-5.20483z" stroke-width="1"/>
                <path id="path17836" d="M360.14974 138.45848c2.46174-.77369 7.3149 4.50148 6.47087 7.03356-.84403 2.53208-8.22926 4.85315-9.84698 3.09476-1.61772-1.75839.91436-9.35463 3.37611-10.12832z" stroke-width="1"/>
                <path id="path17838" d="M374.28254 154.78867c2.46174-.77369 7.3149 2.81343 6.47087 5.34551-.84403 2.53208-8.22926 4.85315-9.84698 3.09476-1.61772-1.75839.91436-7.66658 3.37611-8.44027z" stroke-width="1"/>
                <path id="path17840" d="M325.61034 123.01219c2.46174-.77369 9.84698 3.37611 9.00295 5.90819-.84403 2.53208-9.07329 3.72779-10.69101 1.9694-1.61772-1.75839-.77369-7.1039 1.68806-7.87759z" stroke-width="1"/>
                <path id="path17842" d="M358.74303 122.98467c1.61772 1.47705 2.25073 5.06416.84402 6.75221-1.40671 1.68805-4.85315 1.47705-6.47087 0-1.61772-1.47705-1.40671-4.22014 0-5.90819 1.40671-1.68805 4.00913-2.32107 5.62685-.84402z" stroke-width="1"/>
                <path id="path17844" d="M373.69228 127.02466c1.61772 1.47705 1.4067 3.09477-.00001 4.78282-1.40671 1.68805-3.72778 2.03973-5.3455.56268-1.61772-1.47705-1.68805-2.81343-.28134-4.50148 1.40671-1.68805 4.00913-2.32107 5.62685-.84402z" stroke-width="1"/>
                <path id="path17846" d="M331.45283 161.80989c2.43643 2.21794 16.85853-14.57397 13.50443-15.47382-1.13529-.30458-15.29082 13.84763-13.50443 15.47382z" stroke-width="1"/>
                <path id="path17848" d="M320.02538 158.19472c2.05905 2.57211 16.76188-14.27017 13.50443-15.47382-3.09391-1.14322-15.23391 13.3134-13.50443 15.47382z" stroke-width="1"/>
                <path id="path17850" d="M332.36255 108.38239c2.46174-.77369 6.47087 1.40672 5.62684 3.9388-.84403 2.53208-6.5412 4.29047-8.15892 2.53208-1.61772-1.75839.0703-5.69719 2.53208-6.47088z" stroke-width="1"/>
                <path id="path17852" d="M378.71832 179.53445c-1.31293-.75025-13.50985 12.83767-10.691 13.78577 4.70692-.0208 10.9568-4.94885 10.691-13.78577z" stroke-width="1"/>
                <path id="path17854" d="M388.49057 194.60123c-3.39333-2.53345-9.84307 10.91647-6.75221 12.09772 2.84103-.95376 5.92735-3.80613 6.75221-12.09772z" stroke-width="1"/>
                <path id="path17856" d="M359.58705 191.06948c-4.85859 3.26307-13.06104 11.70558-10.691 15.47383 3.06445.96433 9.5321-9.84436 10.691-15.47383z" stroke-width="1"/>
                <path id="path17858" d="M363.1349 222.27352c3.63964 4.95876-11.12803 16.46594-15.71618 11.53846 6.65074-1.72813 11.12448-6.72177 15.71618-11.53846z" stroke-width="1"/>
                <path id="path17860" d="M373.47973 229.8332c-.28477-.28477-15.27956 9.18994-13.72679 10.74271 1.97753 1.97753 14.20352-10.26598 13.72679-10.74271z" stroke-width="1"/>
                <path id="path17862" d="M368.33862 268.99271c-1.10057-3.14534-8.15527 14.06404-7.44956 15.75864 1.07516 2.58172 7.67223-15.12228 7.44956-15.75864z" stroke-width="1"/>
                <path id="path17864" d="M397.94922 210.33718c5.03737 13.58604-1.87839 29.62919-10.94164 31.6313-1.33447-1.98313 6.27135-4.85304 8.44905-14.79819 1.75116-7.99722 1.24922-17.3238 2.49259-16.83311z" stroke-width="1"/>
                <path id="path17866" d="M354.38158 289.5149c-.85163-1.2674-5.8759 9.3529-6.96286 14.32361-.91599 4.18885 4.56586 5.34781 4.77453 3.77984.61254-4.6026 2.83021-17.14819 2.18833-18.10345z" stroke-width="1"/>
                <path id="path17868" d="M335.04632 240.63626c1.05608.96424.91832 2.02032 0 3.12231-.91834 1.10198-2.43357 1.33156-3.48965.36732-1.05607-.96424-1.10199-1.83665-.18366-2.93864.91833-1.102 2.61723-1.51524 3.67331-.55099z" stroke-width=".6528179"/>
                <path id="path17870" d="M339.4339 221.64566c1.05608.96424.91832 2.02032 0 3.12231-.91834 1.10198-2.43357 1.33156-3.48965.36732-1.05607-.96424-1.10199-1.83665-.18366-2.93864.91833-1.102 2.61723-1.51524 3.67331-.55099z" stroke-width=".6528179"/>
                <path id="path17872" d="M329.35852 228.57555c-1.41189-1.50818-5.6648 4.39663-4.282 5.22947 1.44628-.21393 3.17347-1.31852 4.282-5.22947z" stroke-width=".48784918"/>
                <path id="path17874" d="M340.48244 213.19486c-1.41189-1.50818-6.08681 2.42723-4.70401 3.26007 1.44628-.21393 3.59548.65088 4.70401-3.26007z" stroke-width=".48784918"/>
                <path id="path17876" d="M329.90244 233.55608c.59375-1.67242 3.45053-2.97235 4.49214-1.46088 1.04162 1.51147-.35012 5.36863-1.98548 5.52958-1.63534.16096-3.1004-2.39627-2.50666-4.0687z" stroke-width=".68774241"/>
                <path id="path17878" d="M323.71845 239.72059c.48468-1.36521 2.81671-2.42636 3.66699-1.19253.85028 1.23383-.28581 4.38248-1.62078 4.51387-1.33494.13139-2.53089-1.95611-2.04621-3.32134z" stroke-width=".56141293"/>
                <path id="path17880" d="M344.05557 216.78962c.39985-1.12628 2.32374-2.00171 3.0252-.98382.70147 1.01789-.23578 3.61548-1.33711 3.72387-1.10131.1084-2.08795-1.61376-1.68809-2.74005z" stroke-width=".46315667"/>
                <path id="path17882" d="M345.43187 223.51341c1.00273 1.26432.62684 4.09332-1.0406 4.16718-1.66745.0739-3.9693-2.85929-3.30459-4.19746.6647-1.33816 3.34246-1.23402 4.34519.0303z" stroke-width=".62534451"/>
                <path id="path17884" d="M340.30408 230.32019c-1.78381-1.04215-5.14012 4.06447-3.57706 4.46771 1.32495-.61806 3.63162-.40306 3.57706-4.46771z" stroke-width=".48784918"/>
                <path id="path17886" d="M333.52017 204.28932c-2.70011-3.0804-13.94304 5.24944-13.0285 8.19769 1.74867 1.76285 13.99604-5.16764 13.0285-8.19769z" stroke-width="1"/>
                <path id="path17888" d="M326.43601 195.92449c-3.40698-2.27419-10.11376 8.09103-10.45486 11.29777 3.73773-1.33753 12.17556-8.6226 10.45486-11.29777z" stroke-width="1"/>
                <path id="path17890" d="M315.52158 192.05758c-2.6861.23446-2.78258 8.25448-.5545 9.34665 2.46551-.29459 3.53876-8.24596.5545-9.34665z" stroke-width="1"/>
                <path id="path17892" d="M318.3333 174.82832c-3.71397-.0784-7.28695 11.02492-.5545 12.33073.81826-.29459.98441-11.23004.5545-12.33073z" stroke-width="1"/>
              </g>
              <g id="g2261">
                <g id="g2246">
                  <path d="M245.27164 175.70747c-.0519-2.1338 25.64934-5.04701 35.80902 2.38726 11.07401 10.94886-4.64861 17.73464-11.7374 14.72149-2.33217-1.16609-5.48665-3.73347-9.86928-7.35576-6.58876-5.44566-15.95272-8.32235-14.20234-9.75299z" id="path40702" fill="#b8a710" fill-rule="evenodd" stroke="none" stroke-width="1" stroke-linecap="butt" stroke-linejoin="miter"/>
                  <path d="M246.88329 172.48011c-.0519-2.1338 25.64934-5.04701 35.80902 2.38726 11.07401 10.94886-4.64861 17.73464-11.7374 14.72149-2.33217-1.16609-5.48665-3.73347-9.86928-7.35576-6.58876-5.44566-15.95272-8.32235-14.20234-9.75299z" id="path11993" fill="#000" fill-rule="evenodd" stroke="#000" stroke-width="1" stroke-linecap="butt" stroke-linejoin="miter"/>
                  <ellipse id="path12964" cx="274.03845" cy="181.23341" rx="7.6591511" ry="7.3607426" opacity="1" fill="#000" fill-rule="nonzero" stroke="#777772" stroke-width="1.5" stroke-miterlimit="4" stroke-dasharray="none" stroke-dashoffset="0"/>
                </g>
                <g id="g2251">
                  <path d="M371.83711 175.3096c.0519-2.1338-25.64934-5.04701-35.80902 2.38726-11.07401 10.94886 4.64861 17.73464 11.7374 14.72149 2.33217-1.16609 5.48665-3.73347 9.86928-7.35576 6.58876-5.44566 15.95272-8.32235 14.20234-9.75299z" id="path41673" fill="#b8a710" fill-rule="evenodd" stroke="none" stroke-width="1" stroke-linecap="butt" stroke-linejoin="miter"/>
                  <path d="M370.69458 172.33984c.0519-2.1338-25.64934-5.04701-35.80902 2.38726-11.07401 10.94886 4.64861 17.73464 11.7374 14.72149 2.33217-1.16609 5.48665-3.73347 9.86928-7.35576 6.58876-5.44566 15.95272-8.32235 14.20234-9.75299z" id="path17894" fill="#000" fill-rule="evenodd" stroke="#000" stroke-width="1" stroke-linecap="butt" stroke-linejoin="miter"/>
                  <ellipse id="path17896" transform="scale(-1 1)" cx="-343.53943" cy="181.09315" rx="7.6591511" ry="7.3607426" opacity="1" fill="#000" fill-rule="nonzero" stroke="#777772" stroke-width="1.5" stroke-miterlimit="4" stroke-dasharray="none" stroke-dashoffset="0"/>
                </g>
              </g>
            </g>
            <g id="g2089" fill-rule="evenodd" stroke-linecap="butt" stroke-linejoin="miter">
              <path id="path13937" d="M311.32357 314.54974c3.23741.42296 5.58881 1.66422 8.62894 3.66545 18.33139 8.8187 22.31223-10.61525 23.87268-34.81433 3.0504-22.41379 17.38349-24.94181 16.313-29.04509-.83831-1.3025-11.33193.86966-16.51194 1.79045-19.37008 3.35579-26.05045-1.53375-33.05317-5.92457-7.00273 4.47802-13.6831 9.36756-33.05318 6.01177-5.18001-.92079-15.67363-3.09295-16.51194-1.79045-1.07049 4.10328 13.2626 6.6313 16.313 29.04509 1.56045 24.19908 5.54129 43.63303 23.87268 34.81433 3.50777-2.30907 6.35935-3.54611 10.12993-3.75265z" fill="#270000" stroke="#5c5308" stroke-width="1.5" stroke-miterlimit="4" stroke-dasharray="none"/>
              <g id="g2065">
                <g id="g2021" stroke-width=".43638942">
                  <path id="path14913" d="M312.46279 302.18559c1.41277.18458 2.43889.72625 3.76557 1.59957 7.99963 3.84838 11.1294-4.63239 11.81036-15.19261-.26035-13.36204 5.99446-24.41219 5.52731-26.20282-.36583-.5684-5.14407.37951-7.40458.78133-8.45289 1.46444-11.1692-.66931-14.22511-2.58542-3.05592 1.95417-5.97116 4.08791-14.42406 2.62348-2.2605-.40183-8.03343-1.15079-8.39926-.5824-.33826 1.01725 7.27328 9.29833 7.31776 26.79964.68096 10.56023 3.61179 18.24524 11.61141 14.39685 1.53076-1.00765 2.77515-1.54748 4.4206-1.63762z" fill="maroon" stroke="#400"/>
                  <path d="M311.86133 263.00586c-5.62743 4.4168-13.87586 1.97135-19.45899 1.79492 5.77045 9.49856 5.64991 20.82522 6.96094 31.44727.15007 4.58498 4.75965 8.93421 8.88672 5.11914 4.08603-3.05632 8.10058.88579 12.08398 1.33008 6.13892-3.21593 5.26623-11.94341 5.79688-17.92774.26847-6.98054 2.94469-14.2337 4.74023-20.375-6.25523 1.25025-13.35775 2.49758-19.00976-1.38867z" id="path1987" fill="#9e0000" stroke="none"/>
                  <path d="M314.78516 268.72656c-.18939 8.46773-.46692 18.44846-.69141 27.65039.71969.16871 1.43515.43591 2.14063.82813 2.10012 1.48344 4.91967 1.5417 4.70117-1.75781 1.972-8.64424.53003-18.01793 4.48437-26.24024-3.45398.75886-7.19511.49972-10.63476-.48047zm-5.66797.19532c-3.3709.85273-7.24127.40152-9.93164.8496 3.63645 9.21032 2.10531 19.97485 5.41015 28.87696 1.6822-.99215 3.52967-1.85027 5.42578-2.25-.39784-9.00684-.40518-18.38926-.90429-27.47656z" id="path1993" fill="#bc0000" stroke="none"/>
                </g>
                <g transform="translate(0 .80885889)" id="g1985" stroke-width=".80000001" stroke-miterlimit="4" stroke-dasharray="none">
                  <g id="g1968" fill="#fff" stroke="#270000">
                    <path id="path16861" d="M300.26456 259.99793c-.76251-1.55968 3.11574-3.25185 3.93879-1.68806 1.05503 2.00456.84403 6.89289.84403 6.89289s-4.00913-3.62228-4.78282-5.20483z"/>
                    <path id="path17832" d="M318.51105 259.25399c.76251-1.55968-3.11574-3.25185-3.93879-1.68806-1.05503 2.00456-.84403 6.89289-.84403 6.89289s4.00913-3.62228 4.78282-5.20483z"/>
                  </g>
                  <g id="g1956">
                    <path id="path15888" d="M334.44764 262.10799c1.13964-5.38343 4.88961-3.97999 7.73691-4.92349 3.26349 3.67356-3.52183 18.5413-7.17423 18.28725z" fill="#e6e6e6" stroke="#270000"/>
                    <path id="path1906" d="M340.79688 259.50781c-5.51084-.15634-4.28329 5.50635-3.82023 11.83209 1.94896-3.15649 4.66676-8.57582 3.82023-11.83209z" fill="#fff" stroke="none"/>
                  </g>
                  <g id="g1946">
                    <path id="path16859" d="M282.05711 261.26236c-1.13964-5.38343-4.88961-3.97999-7.73691-4.92349-3.26349 3.67356 3.52183 18.5413 7.17423 18.28725z" fill="#e6e6e6" stroke="#270000"/>
                    <path id="path1908" d="M275.47461 258.9082c.057 4.25997 1.85292 8.35066 4.17969 11.85547-.31189-3.94112 2.86107-12.6339-3.94532-12.10156l-.20507-.0293z" fill="#fff" stroke="none"/>
                  </g>
                  <g id="g1964">
                    <path id="path14915" d="M288.66048 309.74801c-.0293 6.95185 12.46062 4.903 12.93104.19894.33098-7.47948-4.23195-13.11394-3.18303-20.09284-4.34088 4.89944-9.47094 9.69587-9.74801 19.8939z" fill="#e6e6e6" stroke="#270000"/>
                    <path id="path1910" d="M295.86523 295.80469c-3.22082 4.19716-6.46575 10.40515-4.54882 15.62304 3.48514 2.33362 10.45373-.20833 8.03906-5.1875-.62828-3.81697-2.24866-7.39304-2.84766-11.21679l-.63523.77232z" fill="#fff" stroke="none"/>
                  </g>
                  <g id="g1960">
                    <path id="path15886" d="M331.63745 308.77205c.0293 6.95185-12.46062 4.903-12.93104.19894-.33098-7.47948 4.23195-13.11394 3.18303-20.09284 4.34088 4.89944 9.47094 9.69587 9.74801 19.8939z" fill="#e6e6e6" stroke="#270000"/>
                    <path id="path1912" d="M323.76367 294.21875c-.57608 5.07774-4.163 10.3164-2.61133 15.3457 2.7625 2.9744 10.6474 2.27703 8.29883-3.26757-.44604-4.46845-2.79617-9.26869-5.6875-12.07813z" fill="#fff" stroke="none"/>
                  </g>
                </g>
              </g>
            </g>
          </g>
        </g>
        <path id="path1690" d="M198.05273 112.04492c-10.07338-.05452-15.54468 10.41973-11.05078 37.55664 2.03479 5.60016 4.59354 10.24904 7.46485 14.22656 1.48063-12.4297-2.8935-31.079 4.86914-38.69531 6.56406-6.44033 19.60063 5.85538 28.92383 3.9961-4.96227-4.47356-10.49534-8.59661-16.58789-12.55079-5.03004-2.8783-9.67739-4.51186-13.61915-4.5332z" fill="#8c875a" stroke="none" stroke-width="1" stroke-linecap="butt" stroke-linejoin="miter"/>
        <path id="path1694" d="M419.52539 111.9043c-3.94176.02133-8.5891 1.65489-13.61914 4.5332-6.10779 3.96407-11.65524 8.09743-16.62695 12.58398 9.31183 1.68918 22.23702-10.43291 28.76367-4.02929 7.81188 7.66462 3.33486 26.50128 4.90039 38.92969 2.93924-4.02799 5.55863-8.75236 7.63281-14.46094 4.49391-27.13691-.9774-37.61116-11.05078-37.55664z" fill="#8c875a" stroke="none" stroke-width="1" stroke-linecap="butt" stroke-linejoin="miter"/>
      </g>
      <path d="M379.64684 139.11702c7.00931-8.69758 15.84506-15.9196 26.25994-22.67904 17.88458-10.23398 30.92083-4.73183 24.66844 33.02387-4.13043 11.36779-10.41164 18.83191-17.10876 24.66844l.79576 2.38726-6.36605 5.96817c-6.01407 6.70181-1.53584 11.71588 1.19364 16.71088 10.85486 22.57648-.0915 36.90117-10.34483 47.34748l-19.49602 15.51724c-3.46964 4.98246-4.72299 10.40819-5.57029 15.91512-1.28582 6.40702-9.16957 14.28757-14.32361 23.87268-3.23206 7.54988-2.16513 14.44761-3.5809 23.87268-8.37861 27.22415-34.35013 23.60743-46.98522 24.14174-12.6351-.39404-38.60662 3.22268-46.98523-24.00147-1.41577-9.42507-.34884-16.3228-3.5809-23.87268-5.15404-9.58511-13.03779-17.46566-14.32361-23.87268-.8473-5.50693-2.10065-10.93266-5.57029-15.91512l-19.49602-15.51724c-10.25334-10.44631-21.19969-24.771-10.34483-47.34748 2.72948-4.995 7.20771-10.00907 1.19364-16.71088l-6.36605-5.96817.79576-2.38726c-6.69712-5.83653-12.97833-13.30065-17.10876-24.66844-6.25239-37.7557 6.78386-43.25785 24.66844-33.02387 10.41488 6.75944 19.25063 13.98146 26.25994 22.67904l-9.1998-10.22417c12.34471-9.55541 32.67605-13.64481 47.82817-18.28724 25.38573-22.363189 40.80719-21.877418 65.83409.56268 15.93282 4.50643 34.3688 9.59 46.14012 18.0059z" id="path1893" fill="none" fill-rule="evenodd" stroke="#5c5308" stroke-width="1.5" stroke-linecap="butt" stroke-linejoin="round" stroke-miterlimit="4"/>
    </g>
  </g>
</svg>
