<svg xmlns="http://www.w3.org/2000/svg" version="1.0" id="svg2" viewBox="0 0 1277.3563 1526.5022">
  <g transform="translate(-1284.9891 193.95819)" id="layer1" stroke-opacity="1">
    <path id="path28483" d="M2409.1685 895.28673l55 77.75.4078-.17455 47.75-72.75-34.25-62.25-68.9078 57.42455z" fill="#fff" fill-rule="evenodd" stroke="#000" stroke-width="7.19999981" stroke-linecap="butt" stroke-linejoin="miter" stroke-miterlimit="4" stroke-dasharray="none"/>
    <path id="path29456" d="M2069.2805 1120.7142l3.6705 77.3726s21.8155-.0972 40.4486-6.6531 34.0837-19.5705 34.0837-19.5705l-2.4749-41.0122-75.7279-10.1368z" fill="#fff" fill-rule="evenodd" stroke="#000" stroke-width="7.33192778" stroke-linecap="butt" stroke-linejoin="miter" stroke-miterlimit="4" stroke-dasharray="none"/>
    <path id="path28485" d="M1781.6521 1120.685l-3.7287 74.9561s-19.8149-.7745-37.5568-5.2164c-17.7419-4.4418-33.9412-14.1421-33.9412-14.1421l-20.6828-51.7955 95.9095-3.8021z" fill="#fff" fill-rule="evenodd" stroke="#000" stroke-width="7.27361727" stroke-linecap="butt" stroke-linejoin="miter" stroke-miterlimit="4" stroke-dasharray="none"/>
    <path id="path19748" d="M1512.2438 52.362187h820V912.36218c0 288.49132-375.7674 66.62745-408.5955 220.00002-56.2978-157.35031-408.5955 71.7711-408.5955-237.40125 0-300.09374-2.809-842.598763-2.809-842.598763z" fill="#fff" fill-opacity="1" fill-rule="evenodd" stroke="#000" stroke-width="10" stroke-linecap="butt" stroke-linejoin="miter" stroke-miterlimit="4" stroke-dasharray="none"/>
    <path id="path27512" d="M1436.3575 895.26843l-55 77.75-59.7749-98.84716 44.5477-48.43681 70.2272 69.53397z" fill="#fff" fill-rule="evenodd" stroke="#000" stroke-width="7.19999981" stroke-linecap="butt" stroke-linejoin="miter" stroke-miterlimit="4" stroke-dasharray="none"/>
    <path d="M1895.1766-67.985853l-47.5795 2.14993-22.2639 42.103915-25.6517-40.130031-47.595 1.770786 21.9278-42.279967-25.3311-40.33312 47.5795-2.14994 22.264-42.10392 25.6516 40.13004 47.595-1.77078-21.9278 42.27996 25.3311 40.333127z" id="path16801" fill="#ff0" fill-opacity="1" stroke="#000" stroke-width="10" stroke-miterlimit="4" stroke-dasharray="none"/>
    <path d="M1693.7243-52.402875l-46.2079 11.543653-13.4713 45.6831447-33.101-34.2453707-46.2984 11.175136 13.1069-45.789031-32.8272-34.508002 46.2079-11.543655 13.4712-45.68315 33.1011 34.24538 46.2984-11.17514-13.1069 45.789026 32.8272 34.508009z" id="path17778" fill="#ff0" fill-opacity="1" stroke="#000" stroke-width="10" stroke-miterlimit="4" stroke-dasharray="none"/>
    <path d="M1499.7457-12.339396l-42.5619 21.3754896-3.148 47.5238264-39.7926-26.171908-42.7308 21.035708 2.7692-47.5474065-39.5829-26.4881125 42.5619-21.375495 3.1479-47.52383 39.7927 26.171917 42.7308-21.035708-2.7692 47.547401 39.5829 26.488118z" id="path17780" fill="#ff0" fill-opacity="1" stroke="#000" stroke-width="10" stroke-miterlimit="4" stroke-dasharray="none"/>
    <path d="M1956.9527-67.985853l47.5795 2.14993 22.2639 42.103915 25.6517-40.130031 47.595 1.770786-21.9278-42.279967 25.3311-40.33312-47.5795-2.14994-22.264-42.10392-25.6516 40.13004-47.595-1.77078 21.9278 42.27996-25.3311 40.333127z" id="path17782" fill="#ff0" fill-opacity="1" stroke="#000" stroke-width="10" stroke-miterlimit="4" stroke-dasharray="none"/>
    <path d="M2158.405-52.402875l46.2079 11.543653 13.4713 45.6831447 33.101-34.2453707 46.2984 11.175136-13.1069-45.789031 32.8272-34.508002L2270.996-110.087l-13.4712-45.68315-33.1011 34.24538-46.2984-11.17514 13.1069 45.789026-32.8272 34.508009z" id="path17784" fill="#ff0" fill-opacity="1" stroke="#000" stroke-width="10" stroke-miterlimit="4" stroke-dasharray="none"/>
    <path d="M2352.3836-12.339396l42.5619 21.3754896 3.148 47.5238264 39.7926-26.171908 42.7308 21.035708-2.7692-47.5474065 39.5829-26.4881125-42.5619-21.375495-3.1479-47.52383-39.7927 26.171917-42.7308-21.035708 2.7692 47.547401-39.5829 26.488118z" id="path17786" fill="#ff0" fill-opacity="1" stroke="#000" stroke-width="10" stroke-miterlimit="4" stroke-dasharray="none"/>
    <path id="path23626" d="M1704.1273 1170.449v103.9447c0 72.7501 441.7702 72.7173 441.7702 0V1170.449c0 54.0006-441.7702 44.8504-441.7702 0z" fill="#fff" fill-rule="evenodd" stroke="#000" stroke-width="7.19999981" stroke-linecap="butt" stroke-linejoin="miter" stroke-miterlimit="4" stroke-dasharray="none"/>
    <path id="path24597" d="M1311.3263 1036.3622c37.1312 197.1371 393 201 393 201l-.1989-66.6573c-7.1919-24.8549 7.2615-33.6569 65.2024-41.7532 23.5147-3.2858 11.9965-37.5895 11.9965-37.5895s-154.0329 29.4293-263.475-14.6464c-146.5-59-168.525-175.35362-168.525-175.35362s-10.0774 89.18378-38 135.00002z" fill="#fff" fill-rule="evenodd" stroke="#000" stroke-width="7.19999981" stroke-linecap="butt" stroke-linejoin="miter" stroke-miterlimit="4" stroke-dasharray="none"/>
    <path id="path26537" d="M2538.7202 1036.3622c-37.1312 197.1371-393 201-393 201l.1989-66.6573c7.1918-24.8549-7.2616-33.6569-65.2024-41.7532-23.5148-3.2858-11.9965-37.5895-11.9965-37.5895s154.0328 29.4293 263.475-14.6464c146.5-59 163.9288-174.82329 163.9288-174.82329s14.6736 88.65345 42.5962 134.46969z" fill="#fff" fill-rule="evenodd" stroke="#000" stroke-width="7.19999981" stroke-linecap="butt" stroke-linejoin="miter" stroke-miterlimit="4" stroke-dasharray="none"/>
    <path id="path26539" d="M1338.3263 960.86218c-99-53.625-21-109.25-13-268 16.5 96.25 124 138.375 111 201-44.5 1.625-65.5-67.25-87 7.5l-11 59.5z" fill="#fff" fill-rule="evenodd" stroke="#000" stroke-width="7.19999981" stroke-linecap="butt" stroke-linejoin="miter" stroke-miterlimit="4" stroke-dasharray="none"/>
    <path id="path27510" d="M2509.8553 960.33185c99-53.625 18.3483-108.71967 10.3483-267.46967-16.5 96.25-124 138.375-111 201 44.5 1.625 65.5-67.25 87 7.5l13.6517 58.96967z" fill="#fff" fill-rule="evenodd" stroke="#000" stroke-width="7.19999981" stroke-linecap="butt" stroke-linejoin="miter" stroke-miterlimit="4" stroke-dasharray="none"/>
    <text xml:space="preserve" id="text29500" y="1298.6699" x="1835.8605" font-size="102.56087494" font-style="normal" font-weight="700" fill="#000" fill-opacity="1" stroke="none" stroke-width="1" stroke-linecap="butt" stroke-linejoin="miter" font-family="Arial">
      <tspan id="tspan29502" y="1298.6699" x="1835.8605">PAZ</tspan>
    </text>
    <path id="path8963" d="M1981.4119 995.06704s-10.3492 11.50606-30.1482 3.02082c-19.799-8.48528-21.5061-551.02337-21.5061-551.02337 42.6031-46.49227 77.7817-63.10928 77.7817-63.10928l25.9559 21.79899c-98.0869 49.35724-88.3484 120.8193-80.3181 241.96887 3.0092 45.39879 2.0889 104.29284 13.6326 159.55319 14.8504 71.08943 44.7964 130.47518 46.7732 175.2058 1.3086 29.27964-32.171 12.58498-32.171 12.58498z" fill="#64430b" fill-opacity="1" fill-rule="evenodd" stroke="#000" stroke-width="2.20000005" stroke-linecap="butt" stroke-linejoin="miter" stroke-miterlimit="4" stroke-dasharray="none"/>
    <path id="path7021" d="M1915.311 373.07797h37.75c-31.4961 309.72884-4.1562 494.96705-4.4627 583.0718-.1066 30.64475 17.2371 41.45096 16.0129 42.79952-38.8841 42.83631-58.0502-3.12132-58.0502-3.12132l8.75-622.75z" fill="#64430b" fill-opacity="1" fill-rule="evenodd" stroke="#000" stroke-width="2.20000005" stroke-linecap="butt" stroke-linejoin="miter" stroke-miterlimit="4" stroke-dasharray="none"/>
    <path id="path2170" d="M1855.7932 996.13155c-37.3215 17.67855-40.4032-18.49205-38.6608-22.05358 78.6843-160.82732 113.3929-513.79464 40-551.96428l4.4286-34.57143c26.9643 8.39286 52.5938 45.28572 52.5938 45.28572 10.7143 395 .162 558.8245-4.8795 564.28571-38.4026 41.59941-55.1786-4.64285-55.7143-9.28571" fill="#960" fill-opacity="1" fill-rule="evenodd" stroke="#000" stroke-width="2.20000005" stroke-linecap="butt" stroke-linejoin="miter" stroke-miterlimit="4" stroke-dasharray="none"/>
    <path id="path3143" d="M1853.6123 988.13601c-7.7857-33.33928 55.5692-120.48549 51.6407-212.53906" fill="none" fill-rule="evenodd" stroke="#000" stroke-width="2.20000005" stroke-linecap="butt" stroke-linejoin="miter" stroke-miterlimit="4" stroke-dasharray="none"/>
    <path id="path10903" d="M1957.311 849.07797c19.375 54.4375 27.625 101.5625 24.5 145.75" fill="none" fill-rule="evenodd" stroke="#000" stroke-width="2.20000005" stroke-linecap="butt" stroke-linejoin="miter" stroke-miterlimit="4" stroke-dasharray="none"/>
    <path id="path11881" d="M2040.561 226.32798c14-14.875 12.75-14.25 37.5-16 3.125-31.5 58.6098-30.92678 61.2348 8.82322 42.5-8.875 51.375 18 35.5 43.5 39.625-10 76.3902-.57322 66.2652 47.67678 73 18.625 45.625 69.5 12 82-3.125 30.25-34.125 42.74999-75.5 28.99999-51.125 37-80.625 23.50001-105-12.99999-56.625 9.75-60.75-3.5-87.5-36-43.5 19.5-53.75 19.125-91.5-4-2.25 28.875-12.5 20-31.5 18.5 1.5 39.25-13.125 56.37499-47.5 43.49999 26.125 52.125-40.375 76.625-74 31-30.125 3.625-31.375-6-46.5-16.5-11.875 42.75-59.25 35.5-69 12.5-59.25-9.125-52.375-40-4-42.5 5.625-34.75 34.625-27.37499 54.5-24.49999.875-19.75 14.375-15.875 25-11.5-6.375-15.625-2.625-23.25 17.5-29-27.75-34.75-10.875-48.75 17.5-61-16-34.125 9.375-32.375 30-35-2.5-35.875 7-43.25 46.5-46-5-14.375 2.375-23.5 23.5-24-12.875-37.625 4.375-45.25 44-39.5 4.375-52.250004 119.75-27.25 110.5 46.5 31.375 3.75 43.625 10.125 50.5 35.5z" fill="#090" fill-opacity="1" fill-rule="evenodd" stroke="#000" stroke-width="2.20000005" stroke-linecap="butt" stroke-linejoin="miter" stroke-miterlimit="4" stroke-dasharray="none"/>
    <path id="path12852" d="M1812.2233 207.79417c8.7159 3.80498 19.5986-1.41866 22.1154 22.3059 17.4688-29.9375 38.6705-12.09375 37.7955 21.375" fill="none" fill-rule="evenodd" stroke="#000" stroke-width="2.20000005" stroke-linecap="butt" stroke-linejoin="miter" stroke-miterlimit="4" stroke-dasharray="none"/>
    <path id="path12854" d="M1990.061 190.57798c-9.3125 11.875-39.6875 12.9375-37.25 47.5-10.9375-15.8125-30.375-20.8125-40.5-4.75" fill="none" fill-rule="evenodd" stroke="#000" stroke-width="2.20000005" stroke-linecap="butt" stroke-linejoin="miter" stroke-miterlimit="4" stroke-dasharray="none"/>
    <path id="path12856" d="M2040.811 226.07798c1 9-2 35.1875-11 47.25" fill="none" fill-rule="evenodd" stroke="#000" stroke-width="2.20000005" stroke-linecap="butt" stroke-linejoin="miter" stroke-miterlimit="4" stroke-dasharray="none"/>
    <path id="path12858" d="M2174.7902 262.81975c.872 1.31954-30.8542-.61677-45.2292 11.00823" fill="none" fill-rule="evenodd" stroke="#000" stroke-width="2.20000005" stroke-linecap="butt" stroke-linejoin="miter" stroke-miterlimit="4" stroke-dasharray="none"/>
    <path id="path12860" d="M2252.811 392.32797c-8.3125-5.25-25-16.25-37.25 1 .5-8.75.3125-31.375-24.25-32.5" fill="none" fill-rule="evenodd" stroke="#000" stroke-width="2.20000005" stroke-linecap="butt" stroke-linejoin="miter" stroke-miterlimit="4" stroke-dasharray="none"/>
    <path id="path12862" d="M2177.561 421.32797c1.75-21.6875-3.75-28.8125-7-33.75" fill="none" fill-rule="evenodd" stroke="#000" stroke-width="2.20000005" stroke-linecap="butt" stroke-linejoin="miter" stroke-miterlimit="4" stroke-dasharray="none"/>
    <path id="path12864" d="M2108.311 390.32797c-18.4375-10.9375-34.0625 6.6875-35.75 18.25" fill="none" fill-rule="evenodd" stroke="#000" stroke-width="2.20000005" stroke-linecap="butt" stroke-linejoin="miter" stroke-miterlimit="4" stroke-dasharray="none"/>
    <path id="path12866" d="M1984.561 372.07797c-.4375-8.25-8.0625-26.25 7.25-33" fill="none" fill-rule="evenodd" stroke="#000" stroke-width="2.20000005" stroke-linecap="butt" stroke-linejoin="miter" stroke-miterlimit="4" stroke-dasharray="none"/>
    <path id="path12868" d="M1740.311 461.57797c3.8385-19.95468 17.831-19.88411 16.6343-31.93633-1.7405-17.52708-22.0621-32.46922-46.1343-9.06367" fill="none" fill-rule="evenodd" stroke="#000" stroke-width="2.20000005" stroke-linecap="butt" stroke-linejoin="miter" stroke-miterlimit="4" stroke-dasharray="none"/>
    <path id="path12870" d="M1756.936 429.57797c12-3.59375 24.625-2.15625 30.5 5.625" fill="none" fill-rule="evenodd" stroke="#000" stroke-width="2.20000005" stroke-linecap="butt" stroke-linejoin="miter" stroke-miterlimit="4" stroke-dasharray="none"/>
    <path id="path12872" d="M1719.2446 349.56602c9.4844-7.79687 29.9375-6.13258 43.25.86742" fill="none" fill-rule="evenodd" stroke="#000" stroke-width="2.20000005" stroke-linecap="butt" stroke-linejoin="miter" stroke-miterlimit="4" stroke-dasharray="none"/>
    <path id="path12874" d="M1761.811 299.82798c12.8125-1.1875 30.9375-4.50001 38.25 15.24999 23.3125-38 41-31.93749 45-23.24999" fill="none" fill-rule="evenodd" stroke="#000" stroke-width="2.20000005" stroke-linecap="butt" stroke-linejoin="miter" stroke-miterlimit="4" stroke-dasharray="none"/>
    <path id="path12876" d="M1886.311 286.82798c18.3125-5.9375 47.1875 11.18749 65.25 39.74999 8.0625-22.9375 20.25-19.75 33.5-20" fill="none" fill-rule="evenodd" stroke="#000" stroke-width="2.20000005" stroke-linecap="butt" stroke-linejoin="miter" stroke-miterlimit="4" stroke-dasharray="none"/>
    <path id="path12878" d="M2067.311 327.32797c27.4375-13.125 45.875 12.25 53.75 22.5 12.125-16 23.8125-15.625 36.75-15.5" fill="none" fill-rule="evenodd" stroke="#000" stroke-width="2.20000005" stroke-linecap="butt" stroke-linejoin="miter" stroke-miterlimit="4" stroke-dasharray="none"/>
    <path id="path15787" d="M1807.2461 377.59125c8.0434-8.66206 21.5668-11.66726 32.1734-4.94975-1.4142-20.5061 12.1976-28.46104 20.5061-24.74873" fill="none" fill-rule="evenodd" stroke="#000" stroke-width="2.20000005" stroke-linecap="butt" stroke-linejoin="miter" stroke-miterlimit="4" stroke-dasharray="none"/>
    <path d="M1398.9969 1034.2455l9.8451 8.8214-23.6627 26.4086c-3.7552 4.1908-6.067 7.0164-6.9357 8.4766-1.3668 2.3731-1.7989 4.8742-1.2963 7.5032.5025 2.629 2.1286 5.1753 4.8782 7.6389 2.7938 2.5034 5.4119 3.8199 7.8542 3.9495 2.4423.1296 4.5526-.5079 6.331-1.9127 1.7783-1.4047 4.396-4.0362 7.853-7.8943l24.1694-26.9741 9.8451 8.8214-22.9476 25.6104c-5.2452 5.8538-9.2166 9.7507-11.9143 11.6907-2.6979 1.9401-5.5068 3.1009-8.4271 3.4825-2.9203.3815-6.0198-.0073-9.2987-1.1662-3.2789-1.1591-6.8474-3.4671-10.7056-6.9241-4.6564-4.1723-7.7058-7.874-9.1479-11.1051-1.4423-3.231-2.092-6.3316-1.9492-9.3018.1429-2.9701.837-5.5962 2.0823-7.8783 1.8603-3.37 5.2342-7.7824 10.1217-13.2371l23.3051-26.0095zm6.489 92.2239l35.0998-55.2655 10.857 6.8954-.8208 51.272 23.4397-36.9065 10.367 6.5842-35.0997 55.2655-11.1964-7.1109.6094-50.1895-22.8891 36.0394-10.3669-6.5841zm56.2965 33.5363l28.6326-58.8765 11.8877 5.7812-28.6326 58.8765-11.8877-5.7812zm45.0636-50.0467l22.7514 8.13c5.1305 1.8335 8.9013 3.6236 11.3123 5.3703 3.2359 2.3578 5.6576 5.3574 7.2653 8.9985 1.6074 3.6412 2.3802 7.6719 2.3184 12.0918-.0619 4.42-1.1248 9.5177-3.1886 15.2931-1.8134 5.0746-4.0071 9.2228-6.5811 12.4447-3.145 3.9347-6.6433 6.779-10.4948 8.5327-2.9102 1.3312-6.412 1.9294-10.5055 1.7946-3.0582-.1128-6.8862-.9907-11.4841-2.6337l-23.4242-8.3706 22.0309-61.6514zm8.7212 14.8776l-14.5922 40.8347 9.294 3.3212c3.4765 1.2423 6.0559 1.9427 7.7382 2.1013 2.1988.2166 4.1796-.0398 5.9421-.7695 1.7625-.7297 3.5577-2.325 5.3857-4.7861 1.8278-2.461 3.5934-6.0746 5.2966-10.8407 1.7031-4.7661 2.59-8.5751 2.6606-11.427.0706-2.8518-.3956-5.2632-1.3985-7.234-1.0031-1.9709-2.5779-3.6244-4.7245-4.9606-1.5981-1.0136-4.9344-2.4271-10.0089-4.2406l-5.5931-1.9987zm89.8927 79.2808l-14.1165-2.7407-2.7773-15.6882-25.6902-4.9876-8.139 13.5688-13.7657-2.6726 37.5104-59.4096 13.7219 2.6641 13.2564 69.2658zm-18.9562-30.066l-4.2255-25.5683-13.3106 22.1638 17.5361 3.4045zm29.044-34.9535l24.1355 1.0967c5.4427.2474 9.5727.8522 12.3901 1.8148 3.7853 1.3045 6.9805 3.4614 9.5858 6.4706 2.605 3.0094 4.5265 6.6358 5.7643 10.8793 1.2376 4.2437 1.7172 9.4289 1.4389 15.5556-.2447 5.3833-1.1247 9.9926-2.64 13.828-1.8521 4.6843-4.3619 8.4297-7.5293 11.2363-2.3914 2.1267-5.5636 3.726-9.5166 4.798-2.9566.7896-6.8737 1.0736-11.7513.852l-24.8492-1.1292 2.9718-65.4021zm12.7026 11.664l-1.9684 43.3188 9.8594.448c3.688.1676 6.3592.0804 8.0141-.2617 2.1656-.438 3.9839-1.2644 5.4548-2.4791 1.4708-1.2147 2.7189-3.2665 3.7443-6.1555 1.0254-2.8891 1.6529-6.8616 1.8827-11.9178.2297-5.0561-.0401-8.9576-.8093-11.7046-.7693-2.7471-1.9225-4.9155-3.4596-6.5054-1.5372-1.5897-3.5279-2.7084-5.9721-3.3559-1.8251-.5002-5.4292-.8726-10.8124-1.1172l-5.9335-.2696z" id="text2299" font-size="106.61514282" font-style="normal" font-weight="700" fill="#000" fill-opacity="1" stroke="none" stroke-width="1" stroke-linecap="butt" stroke-linejoin="miter" font-family="Arial"/>
    <path d="M2177.4798 1153.2548l12.6802-1.5211 4.7852 39.8888c.6256 5.2153.6484 9.2822.0685 12.2005-.7925 3.8158-2.6744 7.0283-5.6461 9.6375-2.9716 2.6092-7.108 4.2319-12.4093 4.8679-6.2185.7459-11.2126-.4208-14.9832-3.5003-3.7703-3.0795-6.0739-7.9845-6.9103-14.7152l11.8276-2.8142c.5762 3.5934 1.4123 6.0802 2.5081 7.4604 1.6472 2.0988 3.8747 2.9798 6.6831 2.6429 2.8368-.3404 4.7455-1.3904 5.7263-3.1505.9807-1.76 1.165-5.1903.5532-10.2911l-4.8833-40.7056zm20.8757-2.4466l12.5483-2.5982 6.9691 33.6599c1.1059 5.3416 1.9782 8.7714 2.6167 10.2897 1.0636 2.4323 2.7652 4.2095 5.1048 5.3315 2.3397 1.1217 5.2619 1.32 8.7663.5943 3.5609-.7372 6.0952-2.0208 7.6025-3.8509 1.5075-1.8299 2.2255-3.8428 2.1539-6.0385-.0714-2.1957-.6163-5.7523-1.6344-10.6699l-7.1183-34.3805 12.5483-2.5979 6.7584 32.6422c1.5448 7.4613 2.2969 12.8022 2.2565 16.0231-.0406 3.2211-.7528 6.0801-2.1366 8.5772-1.3843 2.497-3.4722 4.6905-6.264 6.58-2.7919 1.8896-6.6466 3.3435-11.5641 4.3616-5.9351 1.2289-10.5777 1.4754-13.9278.7396-3.3502-.736-6.1423-2.0146-8.3765-3.8363-2.2338-1.8215-3.8821-3.875-4.9447-6.1602-1.5568-3.3914-3.055-8.5632-4.4946-15.5157l-6.8638-33.151zm66.2691 29.7227l11.529-4.8996c1.9722 3.7666 4.3473 6.2414 7.1252 7.4245 2.7777 1.1831 6.0248 1.1896 9.7413.0199 3.9369-1.2392 6.6411-3.0056 8.1128-5.2995 1.4715-2.2937 1.8564-4.5553 1.1545-6.7855-.4505-1.4314-1.2538-2.5174-2.4097-3.2581-1.156-.7405-2.897-1.1532-5.2232-1.2379-1.5876-.045-5.1271.1011-10.6188.4378-7.0633.4379-12.289-.1107-15.677-1.6466-4.7651-2.1611-7.9015-5.6369-9.4092-10.427-.9706-3.0834-1.0041-6.2422-.1009-9.4765.9032-3.2344 2.779-6.0715 5.6266-8.5111 2.848-2.4394 6.5981-4.3912 11.2507-5.8559 7.5981-2.3915 13.8417-2.526 18.7306-.4038 4.889 2.1222 8.3048 5.9335 10.2479 11.4338l-12.0541 4.3842c-1.5022-2.9461-3.328-4.8298-5.4777-5.651-2.1495-.8211-4.9449-.6901-8.386.3931-3.5514 1.1178-6.1024 2.7225-7.6526 4.8141-.9994 1.3434-1.252 2.7995-.7582 4.3688.4507 1.4315 1.442 2.4659 2.9739 3.1032 1.9488.8087 6.1176.9793 12.506.5114 6.3882-.4676 11.2432-.3996 14.5649.2038 3.3214.6035 6.1969 1.9526 8.6263 4.0471 2.4294 2.0946 4.2462 5.0553 5.4508 8.882 1.0917 3.4687 1.1508 7.0205.1769 10.6553-.9739 3.6348-2.991 6.7433-6.0511 9.3252-3.0603 2.5821-7.2196 4.7006-12.4776 6.3557-7.6533 2.409-14.0875 2.4903-19.3031.2439-5.2155-2.2466-9.2882-6.6303-12.2182-13.1513zm78.713-5.381l-20.7592-48.4713-17.3111 7.414-4.2269-9.8693 46.3622-19.8558 4.2267 9.8693-17.2712 7.3969 20.7591 48.4712-11.7796 5.045zm35.9392-16.4364l-29.1217-56.3903 11.3858-5.8799 29.1217 56.3903-11.3858 5.8799zm44.3893-52.5543l12.6212-3.2561c2.062 6.8815 2.1081 12.9228.1382 18.1238-1.9699 5.201-5.8411 9.6093-11.6137 13.2247-7.1424 4.4732-14.5408 5.7097-22.1955 3.7101-7.6547-2-14.1322-7.2312-19.4327-15.6947-5.6067-8.9523-7.6497-17.3525-6.1291-25.2011 1.521-7.8486 6.0482-14.1319 13.582-18.8502 6.5797-4.1208 13.142-5.5235 19.6871-4.2079 3.886.7674 7.7885 2.9205 11.7079 6.4594l-9.1417 9.3012c-2.3825-2.3902-5.0881-3.7606-8.1172-4.1112-3.029-.3503-5.9866.3782-8.8729 2.1858-3.9869 2.4971-6.3257 5.9539-7.016 10.3705-.6903 4.4168.9713 9.8295 4.9849 16.238 4.2587 6.7999 8.5148 10.877 12.7687 12.2314 4.2535 1.3543 8.3372.8061 12.2509-1.6451 2.8862-1.8076 4.7943-4.2797 5.7245-7.4164.9303-3.1367.6145-6.9574-.9466-11.4622zm31.2127 6.4217l-38.0327-50.8079 10.2586-7.679 38.0327 50.8077-10.2586 7.6792zm63.0496-52.6994l-10.4403 9.2367-13.7026-7.1255-19.0006 16.8099 5.629 14.2682-10.1811 9.0072-23.5391-63.913 10.1488-8.9787 61.0859 30.6952zm-34.3087-3.1723l-22.1547-11.8442 9.1853 23.3185 12.9694-11.4743z" id="text2317" font-size="40" font-style="normal" font-weight="700" fill="#000" fill-opacity="1" stroke="none" stroke-width="1" stroke-linecap="butt" stroke-linejoin="miter" font-family="Arial"/>
  </g>
</svg>
