<svg xmlns="http://www.w3.org/2000/svg" id="svg2" version="1.1" viewBox="0 0 400.55002 392.91998">
  <g id="layer1" transform="translate(-191.82057 -222.68958)">
    <path transform="matrix(1.84452 0 0 1.90494 138.80931 -385.62844)" d="M218.46285 422.12225c0 43.91234-36.3941 79.51032-81.2885 79.51032-44.894405 0-81.288509-35.59798-81.288509-79.51032 0-43.91233 36.394104-79.51031 81.288509-79.51031 44.8944 0 81.2885 35.59798 81.2885 79.51031z" id="path2912" fill="#fff" fill-opacity="1" stroke="#540" stroke-width=".80021814" stroke-miterlimit="4" stroke-opacity="1" stroke-dasharray="none"/>
    <path id="path2914" d="M261.81944 484.36276c2.76424-1.10494 7.53276-.59894 10.41818-2.1555 3.17088-1.56214 7.6266-2.08822 11.85518-1.79624 3.19872 1.50432 7.45794 2.45942 11.49594 3.23324 4.94914.57276 7.6417-1.14748 12.43716-.70328 3.10054-.81192 6.77284-2.97116 11.08578-2.1707 3.9489.1942 7.30556 2.10296 11.68334 2.87398 4.19442 1.13934 7.86136-1.0144 12.21442-.35926 5.68272.95594 12.28162 1.514 16.48432 2.90546 3.02624 1.44914 7.5233 1.39102 10.68184.32778 4.50766-.27426 9.60494.64882 13.6311-.6438 2.00656-2.76064 7.10154-.70488 10.57518-.7932 4.15342.81674 8.36704 2.14478 12.21442 3.23324 5.85598-.0574 11.8123.34176 17.46648-.7185 4.45758-.98236 8.93466-.5323 13.42884 0 3.65324.006 7.4473.24032 10.5041-.7185 3.76144-.2581 8.27696-1.61892 9.97302-4.31096 3.70768.0416 5.2598 2.30366 7.90346 3.23322 2.11976 1.5107 6.3871 2.44114 10.41818 3.59248 5.5609 1.49888 11.7356.91644 17.46712 1.76788 4.80492.1804 9.3759 1.32906 13.3458 2.58162 4.2673.9976 7.43254 1.69818 10.50058 3.55396 5.55894-.37742 6.2522 3.55744 6.46646 9.69968-.70678 3.9648-.50478 8.22598-1.43698 12.21442-2.66626 6.22554-6.9192 13.41888-11.28916 19.77682-5.86244 6.42414-10.56028 13.09582-17.91046 18.12546-7.8651 5.19714-15.86032 10.40882-24.68756 13.47016-6.82218 3.95242-20.87074 6.13112-24.1122 8.00124-9.21704 1.7856-18.74508 4.1769-28.33798 4.2132-19.40704.8882-38.8505 1.69426-58.36998 1.43698-9.95928-.53784-19.17984-4.33884-28.568-7.18496-6.51912-4.97028-13.89626-5.68736-21.91412-10.05892-8.5523-4.25132-18.30242-8.69976-25.27912-13.74618-8.68392-4.81318-15.59498-13.2772-15.62786-23.55258-1.69784-9.67982-5.69186-19.03284-7.45294-28.43384.8279-5.20278-8.14284-16.55194-.85702-16.17592-.34216.01 1.93444-.71114 3.59248-.71848z" fill="#d4aa00" fill-opacity="1" stroke="#540" stroke-width="1.5" stroke-linecap="butt" stroke-linejoin="miter" stroke-opacity="1"/>
    <path id="path2842" d="M310.54192 395.62784c-1.34331-1.23415-1.87594 1.53931-1.15085 1.7073-2.30386 1.22264-2.98679 3.94121-4.59871 5.79988-1.30312 1.29936-2.97372 2.19151-4.16851 3.60095-1.54845 1.14198-2.61918 2.79553-3.6841 4.35825-.4546 1.4196-1.56953 2.26743-1.1344 3.88155.005 2.36515.0196 4.73075-.0393 7.09541 1.14349 1.60816-.0847 3.76275.92073 5.39968.7877.14066 1.91353-1.24842 2.93037-1.57542 1.22857-.60277 1.87377-1.81442 2.48925-2.95362 1.17624-.81384 1.41096-2.22031 2.29491-3.25892 1.04418-1.49941 2.22118-2.93378 3.71221-4.00813.82347-1.3752 2.1033-2.38857 2.87845-3.74151 1.52467-2.81003 2.23927-5.95307 2.88877-9.056.18291-1.0499.28223-2.11931.21723-3.18506" fill="#d4aa00" fill-opacity="1" stroke="#540" stroke-width="1.5" stroke-linecap="butt" stroke-linejoin="miter" stroke-opacity="1"/>
    <path id="path2838" d="M321.21104 402.23254c1.19766 4.62414.1532 9.748.50766 14.56802-.0236 3.97408.6426 7.83592.6699 11.8221.47882 4.1091.76716 9.87186-.1334 13.19058-2.45302 1.99706-4.41426 5.31704-3.47886 8.97036-2.45302 2.6879-.99152 6.91686 1.01012 9.40456 2.2728 2.73744 3.93772 6.00558 5.34718 9.23088 1.30912 3.11728 3.16606 6.10242 5.34888 8.75594 1.29342 2.85424 3.4063 5.39538 5.14322 8.45748-.27154 1.71404 2.52344 3.36154 2.77744 5.00874.69488-.41554 5.67508 1.24298 6.61848-2.2239-.80838-2.62396-.23554-7.74876-2.3506-10.2816-3.22788-2.73498-6.5356-5.32698-7.38844-9.6016-1.84754-3.63492-2.79962-7.11154-2.89452-11.0256.43874-3.9778-1.0061-8.41304.98538-12.02132 2.51552-3.35444 4.00162-8.49752 5.82328-12.29352 3.51364-7.1063 5.51486-13.08368 6.4698-20.82446.44056-5.1075 5.50488-8.00022 7.09292-12.50738 1.81418-2.7633.98948-6.22994 1.98296-9.2984" fill="#d4aa00" fill-opacity="1" stroke="#540" stroke-width="1.5" stroke-linecap="butt" stroke-linejoin="miter" stroke-opacity="1"/>
    <path id="path2854" d="M425.36192 414.4258c1.75064 6.95502.76412 14.17082 1.02186 21.25238.58542 3.56622-1.83422 6.59252-1.03134 10.20562.0852 4.03142-.29144 8.06096.70438 12.0342.0454 4.51074 1.70268 8.88226 1.28656 13.40584.30456 3.52082.8093 6.97566 1.05836 10.47408-.32728 3.02792 1.19906 6.0152 3.901 7.4357 1.91374 2.66542 1.44652 3.8855.0388 8.80206-3.75774.43178-.338-.0808-4.08606.28616-3.27794-1.00862-8.23636-1.5942-9.36276-5.12276-1.3366-3.10032-.66968-7.57248.014-11.08308.1872-3.42782-1.46538-6.7462-2.16306-9.814-1.12314-1.3993-.46822-3.27224-2.14588-4.67868 1.02752 2.23054-1.13866-2.15542-1.44506-4.92262-.24036-3.83506-1.47538-7.31802-.41584-11.1619.1752-3.46936-1.40422-6.5772-2.19878-9.87074-1.24756-3.48652-.66668-7.33374-1.23624-10.76968-1.67674-3.06224-.2304-7.11458-.69732-10.62292.00092-.5951-.00074-1.19022-.008-1.78528" fill="#d4aa00" fill-opacity="1" stroke="#540" stroke-width="1.5" stroke-linecap="butt" stroke-linejoin="miter" stroke-opacity="1"/>
    <path id="path2854-0" d="M409.2866 422.65622c-.94732 10.52498 2.78196 20.30226 4.0625 30.5-2.44762 12.95948 9.62882 23.91674 5.375 37.125-.79248 6.4406 15.42474 6.3826 5.4375 1.4375-6.40904-9.08258-2.66134-21.64054-5.5-31.9375-2.52738-13.22302 2.01166-26.1112.0624-39.4375-3.14584.77084-6.29166 1.54166-9.4375 2.3125z" fill="#a80" fill-opacity="1" stroke="none" stroke-width="1.5"/>
    <path id="path2838-9" d="M327.13541 403.62801c-.28029 11.75959 1.51324 23.60115 1.15625 35.28125-1.09689 4.20272-4.88339 7.15092-4.40625 11.78125-2.43272 6.05001 5.664 10.05897 6.53125 15.78125 3.45859 6.80783 8.36189 13.00313 11.75 19.6875 1.10801-4.91668-3.15495-7.83283-6.09375-10.9375-6.22761-9.2187-8.09517-21.66021-4.625-32.25 6.01363-10.89272 10.93458-22.59103 12.6875-34.90625 1.82054-4.47379 5.95755-7.58676 7.40625-12.21875-8.13542 2.59375-16.27083 5.1875-24.40625 7.78125z" fill="#a80" fill-opacity="1" stroke="none" stroke-width="1.5"/>
    <path id="path2838-9-3" d="M339.73792 399.31959c-4.50825.72198-8.20208 3.94914-12.4375 5.59375-.15822 8.66609 1.26607 17.27348 1.25 25.9375 5.02055-8.97913 5.98685-19.58714 9.67075-28.98249.28335-.74199 1.96274-2.34704 1.51675-2.54876z" fill="#806600" fill-opacity="1" stroke="none" stroke-width="1.5"/>
    <path id="path2834" d="M312.06608 391.56342c4.0333 4.34 10.27606 5.90852 15.94806 4.43288 5.91998-1.21638 10.51032 3.25992 13.62718 7.6589 4.44956 4.69606 10.15006 8.3071 15.92342 11.2113 5.5083 2.60266 11.76076 2.82966 17.75964 2.56142 5.17216.0928 8.9789 4.71704 14.30704 4.64804 5.96292-1.11028 11.11454 1.45784 16.05654 4.37638 6.59718 3.47842 12.67954-1.2859 15.49328-7.17812 3.08858-5.1723 9.87128-6.02444 13.39268-10.8677 2.72864-3.90422 6.8483-6.49146 7.55376-12.27062 1.8554-5.33938 1.98084-12.31604-2.95148-15.86048-2.7838-4.99006-4.20132-8.70798-8.8893-11.7646-2.99714-3.1109-6.09404-5.87188-9.33148-9.26078-3.51992-3.62318-4.97668-3.90224-8.09214-6.37912-3.97712-3.32888-10.25917-2.65468-14.48028-3.44616-4.05172-1.59614-8.83514-2.85962-12.76352-4.57514-6.36184-.1442-8.53924-8.05536-13.71284-10.42178-3.84382-3.09378-6.84628-3.43736-12.23696-1.94244-5.84898 2.8911-10.5337 7.79518-11.26848 14.31642-2.42176 4.74214-8.60988 9.07788-13.03076 11.7925-4.93332 3.37618-6.42388 6.92412-12.86406 7.93522-4.61368 3.00652-8.72768 5.96416-9.45274 12.238-2.00048 3.68548-2.32928 8.2738-.98756 12.79588z" fill="#d4aa00" fill-opacity="1" stroke="#540" stroke-width="1.5" stroke-linecap="butt" stroke-linejoin="miter" stroke-opacity="1"/>
    <path id="path2830-5-8-4-9-6-3" d="M343.53292 392.51218c-5.30045.99667-2.13237 7.63574.15625 10.40625 6.16978 6.98663 15.48338 9.39445 24.80847 8.78029 6.54921-3.03088 12.98783-5.2154 20.62845-4.97137 4.81563-.15494-3.61155-3.18333-5.62442-4.40267-6.99223-2.98569-13.75417 5.62764-20.3125.4375-6.10602-3.56915-11.89216-8.2081-18.65625-10.28125-.33338.008-.66929-.024-1 .0312v.00005z" fill="#a80" fill-opacity="1" stroke="none" stroke-width="1.5"/>
    <path id="path2830-5-8-4-9-6" d="M362.38371 411.86772c4.81194 1.1638 8.55315-1.39099 20.87353-4.87052-7.18673-4.37359-13.88704.69685-19.49943-.58548-5.2509-1.19974-9.13699-5.87929-14.20632-7.69953-3.73979-1.34284-8.47442-7.4776-11.69984-2.28407.65554 6.51805 7.0909 8.58662 11.78016 11.38535 3.83 2.28589 8.18069 2.94868 12.7519 4.05425z" fill="#806600" fill-opacity="1" stroke="none" stroke-width="1.5"/>
    <path id="path2830" d="M311.1116 386.12363c-1.02852 5.17102-2.47496 8.91028-1.9895 14.23442-1.3779 2.64688-.86558 5.42382-2.10112 7.952.89602 4.61412-1.63368 8.30646-.9899 12.86926-2.20708 1.68574-.25384 5.35024-2.03732 7.49148-.52032 1.73616-4.7392 5.37998-5.58788 4.44934-4.36766 10.0659-2.2441 19.24614-3.0314 31.99838-.33472 3.63178.7825 7.15134.49552 10.78514 0 5.4677-1.79624 13.09088-3.0536 19.81596 2.38674 1.36812 6.59598 2.40712 9.4243-.96058 4.53884-2.09982 2.97268-8.26162 3.28232-12.30992-.94066-4.76932-1.26122-9.70166-1.01766-14.8378.6536-4.9737 1.40756-10.09416 2.03376-15.1255 1.44796-3.24996.45588-7.35238 3.04832-10.4764 2.34038-4.00666 5.10984-8.14834 8.96628-10.6898 3.42434-2.00392 5.3531-5.61086 8.85646-7.80612 3.05268-4.34604 5.5174-9.07394 7.57992-14.01948 1.32616-4.76158 1.01166-10.07118 4.06442-14.22548 2.02776 1.10138.89192-1.59028 2.54028-1.0161" fill="#d4aa00" fill-opacity="1" stroke="#540" stroke-width="1.5" stroke-linecap="butt" stroke-linejoin="miter" stroke-opacity="1"/>
    <path id="path2854-09" d="M414.08944 425.7317c-.50898 11.62365 4.77549 22.53825 4.03125 34.125.29941 3.34073.82005 6.60012 2.3125 9.6875-1.88848-11.59711-1.99201-23.40602-.5625-34.96875-.86453-3.14499 2.54894-12.00077-2.88463-9.54455l-2.89662.7008zm9.46875 66.4375c-.0188 1.72034 3.23908 2.7611.84375.5625-.34302-.17246-.85075-2.02236-.84375-.5625z" fill="#806600" fill-opacity="1" stroke="none" stroke-width="1.5"/>
    <path id="path2849" d="M391.32236 419.50634c.23764 3.61356 1.21976 7.13848 1.4981 10.74496-.1026 4.15852.0386 8.27654.72136 12.38546.5033 3.83416.72054 7.65428 1.07218 11.50096.37174 4.21596.25724 8.45308.84794 12.65732.0376 4.21306.29032 8.45818.76942 12.6601 1.5578 3.29242-3.56172 9.3296 1.69554 10.39138 3.01282 1.56924 2.29564 5.93038 4.67066 8.07952 3.06338 1.81068 1.06199 3.8065 4.37879 5.23368 1.3519 1.58284 8.28653.25946 7.92667-.0892.44242.21636 1.1074-2.37944 1.08678-4.451.90946 5.10428 7.65618 2.26446 7.44868-.42844-2.26818-3.49142-6.10244-5.5283-8.96758-8.4823-2.1723-2.41252-4.98756-2.0514-5.58842-4.87236-1.01076-1.72186-2.86938-1.78224-2.54666-4.41012-.42042-4.01742.86364-7.89492.7172-11.88254-.0256-4.043.64614-8.0236.81502-12.0767.65098-5.03516 1.47876-10.05278 2.2043-15.07842.97674-3.87514 4.19078-6.578 5.69616-10.21006 2.3294-3.31238 2.3631-7.36432 3.20552-11.15946.35624-2.12022-.28274-2.85274.79938-4.57724" fill="#d4aa00" fill-opacity="1" stroke="#540" stroke-width="1.5" stroke-linecap="butt" stroke-linejoin="miter" stroke-opacity="1"/>
    <path id="path2859" d="M432.47468 406.805c2.50432-.38336 6.0464.979 7.36646-1.11674 10.6549 2.78614 16.66049-3.68852 25.23438-7.96088 5.12992-4.49778 6.93634-6.65028 9.5579-13.07186.0616-1.78814-.204 1.66206.21754-.29402 1.93582-9.16894 2.2601-18.42311 2.32934-27.82908-1.11854-1.87702 2.35838-5.57498 1.52456-7.17386-1.60994-2.29704-4.05388-3.80396-6.80338-5.06528-1.90964-2.8182-5.98074-3.73612-8.19482-5.96758-.97952-2.28188-4.08108-3.70872-4.61724-3.20996-.8758.1216-5.3446.67978-3.35538.64508-2.14148.80892-4.27584 1.01544-4.3657 3.5011-1.36938 1.91054-.23104 5.6536-.60196 8.29316-.0238.70906.0476 4.58594-.0324 3.11732 2.2025 6.1395 1.40916 13.87662-.98508 21.07692-2.37348.98946-4.89894 3.55978-8.0641 3.98592-3.0536.76392-5.12527-2.91897-7.86805-3.96509" fill="#d4aa00" fill-opacity="1" stroke="#540" stroke-width="1.5" stroke-linecap="butt" stroke-linejoin="miter" stroke-opacity="1"/>
    <path id="path2859-0-0-1" d="M471.55642 348.80514c.77192 13.19283-.91111 28.37684-11.0625 37.90625-2.95998 2.51126-6.87884 2.15625-9.78125 4.28125-2.83952-.5625-18.45165 11.26804-17.52616 13.5437-1.3026 2.7536 14.33401-.77484 18.27616-2.69995 12.50708-3.52845 23.64584-13.86806 24.90625-27.3125.22645-8.74062.75373-17.53341.125-26.28125-1.66263.39094-4.47831-2.78207-4.9375.5625z" fill="#a80" fill-opacity="1" stroke="none" stroke-width="1.5"/>
    <path id="path2859-0-0" d="M475.43344 353.12349c1.56321 12.64222-3.35139 36.36678-8.89366 38.63528-2.99496 3.46755-22.52303 8.72595-21.17317 12.01597.0442 2.47856 4.61056.96165 8.44578-1.63649 17.61465-5.1689 23.47215-19.02875 22.55074-30.24967.0651-6.11117.6172-12.9064.11995-18.63455-.35599.0794-1.5824-1.78018-1.04964-.13054z" fill="#806600" fill-opacity="1" stroke="none" stroke-width="1.5"/>
    <path id="path2863-3" d="M463.06761 348.831c2.09663 7.01522 5.94269 8.59569 10.86305 5.71033 2.9974-.45017 5.75868-.57826.46553-1.35644-4.50682-.8087-7.57761-3.66659-11.32858-4.35389z" fill="#806600" fill-opacity="1" stroke="none" stroke-width="1.5"/>
    <path id="path2863" d="M463.97396 348.3789c1.42994 1.64872 2.71594 3.63286 4.94908 4.2621 2.14578.8465 4.54118 1.20504 6.81268.693 4.55177.8108 9.11397-1.54053 13.7446-3.01422 2.49954-1.53264 5.12628-.47222 7.76692.0996 2.24922.31308 6.44244.43646 5.42134-3.01918.5412-1.73692-1.03906-3.85434-1.2212-4.83624 1.69036-1.83438.62622-5.3766-1.31956-6.57966-.68902-.74626-.5627.77638-1.18284-.80326-.48938-1.5909 1.73548-.957.197-2.77104-.89934-1.46448-2.52676-.50732-2.79512-2.32952-2.21922-1.71042-4.90214-1.37568-7.32836-1.93056-2.17322-1.95872-6.45792-1.64222-9.91722-1.6596-1.66982.76968-2.4636-1.88432-4.24488-.85552-4.84234.0241-7.9312-2.34855-13.65016-.74732-1.96702 1.7566-2.82744 4.34916-4.3703 6.40042-.7257 2.07884-2.81138.44688-3.3531 2.67818-1.12644 2.18592-2.17226 4.6043-1.6806 7.13518.0746.58314.21932 1.16286.48574 1.68962" fill="#d4aa00" fill-opacity="1" stroke="#540" stroke-width="1.5" stroke-linecap="butt" stroke-linejoin="miter" stroke-opacity="1"/>
    <path id="path2870" d="M501.66233 342.82486c-2.54026 0-4.54166.89812-7.08192.89812-2.4557-.43688-3.5568-1.083-4.57246-2.4478-.1212-.121-1.70396-1.61662-2.03222-1.61662-.57046.1052-2.21418-.0824-1.61662 0" fill="#d4aa00" fill-opacity="1" stroke="#540" stroke-width="1.5" stroke-linecap="butt" stroke-linejoin="miter" stroke-opacity="1"/>
    <path id="path2872" d="M499.27991 335.86997c-1.81378.1882-1.2093.56266-2.81854 1.047-1.4312.41776-2.00546-1.18608-2.4147-1.5824" fill="#d4aa00" fill-opacity="1" stroke="#540" stroke-width="1.5" stroke-linecap="butt" stroke-linejoin="miter" stroke-opacity="1"/>
    <path id="path2874" d="M470.81464 335.82638c1.95438-3.20228 6.35508-.36642 9.05778.0616.77438.0708 2.39176.0336 2.56112.0336" fill="#d4aa00" fill-opacity="1" stroke="#540" stroke-width="1.5" stroke-linecap="butt" stroke-linejoin="miter" stroke-opacity="1"/>
    <path id="path2876-8" d="M453.57616 333.05801c-.49471 3.27527 1.85382 7.89074 5.9375 8.25 3.18829-3.92784-2.21969-8.36622-5.9375-8.25z" fill="#806600" fill-opacity="1" stroke="none" stroke-width="1.5"/>
    <path id="path2876" d="M461.91622 331.73642c.1678-.89178.0408-1.99708-.77388-2.54236-2.11068-3.34251-5.66773-5.73122-9.74318-4.68998-.78302-.33444-2.08764.56066-1.1015 1.25544.97398 1.21636.95148 2.8484.99118 4.32338.1272.95302.94832 1.55216 1.433 2.31306.38018.73538.6625 1.57534 1.38518 2.05648 1.67068 1.38124 3.8278 1.95784 5.90638 2.39904.1264.014.25728.01.37852-.0326" fill="#d4aa00" fill-opacity="1" stroke="#540" stroke-width="1.5" stroke-linecap="butt" stroke-linejoin="miter" stroke-opacity="1"/>
    <path id="path2830-5-8-4-9-6-7" d="M423.93142 402.25502c-3.10281 3.85769-2.40709 2.71054-5.88663 9.69636-4.37359-7.18673.1888-6.77429 1.19271-15.435.62019-5.35039-5.87929-9.13699-7.69953-14.20632-1.34284-3.73979-7.4776-8.47442-2.28407-11.69984 6.51805.65554 8.9302 6.90222 11.38535 11.78016 3.01753 5.9953 5.74297 16.81759 3.29217 19.86464z" fill="#a80" fill-opacity="1" stroke="none" stroke-width="1.5"/>
    <path id="path2917" d="M271.51912 489.39222c1.27508 3.76284 3.89568 3.58176 7.54422 3.95172 3.20218-2.02606 7.9567-3.46854 12.21442-2.15548.54992 1.57006 1.8719.0574 2.51474 1.07774" fill="none" stroke="#540" stroke-width="1.5" stroke-linecap="butt" stroke-linejoin="miter" stroke-opacity="1"/>
    <path id="path2919" d="M277.62634 499.09192c1.75114 2.25276 3.02788 6.27254 5.38872 9.34044 1.80258 3.20948 7.0899 3.3343 10.05894 4.31096.21026.81528 1.0323 1.71814 1.43698 1.79624" fill="none" stroke="#540" stroke-width="1.5" stroke-linecap="butt" stroke-linejoin="miter" stroke-opacity="1"/>
    <path id="path2921" d="M295.22948 501.60664c1.54414 1.27324 5.06204 3.63044 4.67022 6.10722.1886 4.543 3.02684 7.96306 7.18496 9.6997h-.35924" fill="none" stroke="#540" stroke-width="1.5" stroke-linecap="butt" stroke-linejoin="miter" stroke-opacity="1"/>
    <path id="path2923" d="M323.9693 493.7032c4.32126 2.11994 3.3212 8.72058 6.80536 11.30336.067.2107-.23042.8074.3796.55182" fill="none" stroke="#540" stroke-width="1.5" stroke-linecap="butt" stroke-linejoin="miter" stroke-opacity="1"/>
    <path id="path2925" d="M330.07652 494.4217c2.39276 3.04 3.53062 5.48694 6.46646 7.18494h.35926l.35924.35926" fill="none" stroke="#540" stroke-width="1.5" stroke-linecap="butt" stroke-linejoin="miter" stroke-opacity="1"/>
    <path id="path2927" d="M336.54298 491.90696c3.61656 2.18884 3.99374 4.2169 6.10722 6.1072.43946.62234 2.00908.26064.35924.35926" fill="none" stroke="#540" stroke-width="1.5" stroke-linecap="butt" stroke-linejoin="miter" stroke-opacity="1"/>
    <path id="path2929" d="M369.23454 489.75146c-3.04096 1.55438-5.7875 5.66432-9.34044 7.90346-4.2649 3.28958-6.89984 4.95958-11.57452 5.69744l.2582.0954-.89812-.045" fill="none" stroke="#540" stroke-width="1.5" stroke-linecap="butt" stroke-linejoin="miter" stroke-opacity="1"/>
    <path id="path2931" d="M395.81888 505.19912c-2.00892-1.49282-5.57866-.36652-8.2627-.7185-3.182-.052-4.94896.70394-6.8186 2.76662l-.7256.1074" fill="none" stroke="#540" stroke-width="1.5" stroke-linecap="butt" stroke-linejoin="miter" stroke-opacity="1"/>
    <path id="path2933" d="M371.39002 501.9659c1.96868 3.96242 2.63466 8.34892 2.87398 12.57366 1.0909 2.58796 4.58918 3.2262 5.02948 6.82572.39348 4.1209-2.12646 8.60016.32236 12.23972 1.1404.29342 2.70024 1.75244 2.91086 1.77094" fill="none" stroke="#540" stroke-width="1.5" stroke-linecap="butt" stroke-linejoin="miter" stroke-opacity="1"/>
    <path id="path2935" d="M360.25334 509.15086c1.60902 2.80516 5.30586 3.75998 8.9812 5.02946 1.97294.99256 3.56038 1.274 5.38872 1.79624" fill="none" stroke="#540" stroke-width="1.5" stroke-linecap="butt" stroke-linejoin="miter" stroke-opacity="1"/>
    <path id="path2937" d="M344.44644 511.30634c.51476-1.12324-4.30442 4.25674-2.87398 8.32744.28742 2.78748-2.9136 3.83052-4.31098 4.96472" fill="none" stroke="#540" stroke-width="1.5" stroke-linecap="butt" stroke-linejoin="miter" stroke-opacity="1"/>
    <path id="path2939" d="M337.62072 511.66558c-2.71194 1.81922-1.19784 6.0819-4.31096 7.18496.1206 1.3419-2.83068 1.38688-3.23324 2.15548" fill="none" stroke="#540" stroke-width="1.5" stroke-linecap="butt" stroke-linejoin="miter" stroke-opacity="1"/>
    <path id="path2941" d="M414.49976 509.86934c.52336 3.23636.87154 7.25534-1.07774 8.62196v1.43698c.91374-.38118-.21812 1.12256.7185 1.07774" fill="none" stroke="#540" stroke-width="1.5" stroke-linecap="butt" stroke-linejoin="miter" stroke-opacity="1"/>
    <path id="path2943" d="M418.09224 506.99536c-.0462 3.58194.0592 7.74508 2.51474 10.05894 1.0544 1.00512 1.9832 2.37176 2.87398 4.31098.1302.97744.7363 1.32886.7185 2.15548" fill="none" stroke="#540" stroke-width="1.5" stroke-linecap="butt" stroke-linejoin="miter" stroke-opacity="1"/>
    <path id="path2945" d="M424.19946 512.38408c.41862 3.7907 3.7077 5.04582 5.3719 7.5676.76076.382.8026 1.74056 1.4538 2.49134" fill="none" stroke="#540" stroke-width="1.5" stroke-linecap="butt" stroke-linejoin="miter" stroke-opacity="1"/>
    <path id="path2947" d="M444.67658 517.7728c.81532 4.73544-4.55114 5.31058-4.67022 10.41818" fill="none" stroke="#540" stroke-width="1.5" stroke-linecap="butt" stroke-linejoin="miter" stroke-opacity="1"/>
    <path id="path2949" d="M408.7518 521.00602c3.7764.1474 7.89374-.59362 10.77744 1.437 3.64758.74478 5.20402 2.81212 8.833 4.44288 1.61004 2.31004 5.7446 3.17214 8.77014 3.81982" fill="none" stroke="#540" stroke-width="1.5" stroke-linecap="butt" stroke-linejoin="miter" stroke-opacity="1"/>
    <path id="path2951" d="M445.39508 523.88002c3.87508 1.73386 8.05194 4.14208 13.29216 3.95172 3.61582-.0244 8.40206.048 10.4182 2.15548" fill="none" stroke="#540" stroke-width="1.5" stroke-linecap="butt" stroke-linejoin="miter" stroke-opacity="1"/>
    <path id="path2953" d="M476.64964 503.04364c.37388 3.7252-1.44212 7.77068-4.31098 8.9812-2.77796 2.58036-8.31828 1.26026-8.9812 5.02946" fill="none" stroke="#540" stroke-width="1.5" stroke-linecap="butt" stroke-linejoin="miter" stroke-opacity="1"/>
    <path id="path2955" d="M474.49414 510.58784c-1.65976 2.6552.69314 4.9511 1.79468 6.00492.55128 1.25208 2.51296 1.9413 2.5163 3.69478" fill="none" stroke="#540" stroke-width="1.5" stroke-linecap="butt" stroke-linejoin="miter" stroke-opacity="1"/>
    <path id="path2957" d="M489.58256 505.55838c-.55878 3.47832 1.49988 6.4862 0 9.34044-.4157.9055-.89036 1.9487-1.437 2.51474" fill="none" stroke="#540" stroke-width="1.5" stroke-linecap="butt" stroke-linejoin="miter" stroke-opacity="1"/>
    <path id="path2959" d="M497.12676 493.34394c-3.24248 1.81324-7.14884 2.04906-11.0954 2.51474-1.92508-.0786-3.79406.00008-4.7115.35924" fill="none" stroke="#540" stroke-width="1.5" stroke-linecap="butt" stroke-linejoin="miter" stroke-opacity="1"/>
    <path id="path2961" d="M467.3092 498.01416c-2.93176.4404-5.0118 2.6207-6.42084 4.32574-.39884 2.1924-4.35464 4.69596-4.71586 3.21848" fill="none" stroke="#540" stroke-width="1.5" stroke-linecap="butt" stroke-linejoin="miter" stroke-opacity="1"/>
    <path id="path2963" d="M455.45402 496.21792c-2.99732 3.5562-7.79006 5.5992-11.85518 6.82572-3.89788 1.2199-7.86804.97864-11.96118 1.43698-2.67304.48736-6.4646-.006-8.51596 1.437" fill="none" stroke="#540" stroke-width="1.5" stroke-linecap="butt" stroke-linejoin="miter" stroke-opacity="1"/>
    <path id="path3011" d="M328.28028 242.22972c4.90972-5.50846 6.58622-11.73542 19.04014-17.60314 8.5022-3.23324 19.15988 2.51474 26.58434 1.07774 5.14922-.1198 9.57994-1.6765 14.36992-2.51474-3.11348 8.2627-9.81946 11.13668-14.72918 11.85518-12.27938 4.5789-28.6688-3.21516-43.10972 8.9812-.7185-.59874-1.437-1.1975-2.1555-1.79624z" fill="#d4aa00" fill-opacity="1" stroke="#540" stroke-width="1.5" stroke-linecap="butt" stroke-linejoin="miter" stroke-opacity="1"/>
    <path id="path3013" d="M275.8301 274.20278c-2.75424-9.34044-.1198-14.01066 1.437-19.39938 8.0232-11.73544 19.27962-17.36366 32.69154-23.35112-10.90824 20.82122-19.63114 28.00466-29.81756 41.3135-1.437.479-2.87398.958-4.31098 1.437z" fill="#d4aa00" fill-opacity="1" stroke="#540" stroke-width="1.5" stroke-linecap="butt" stroke-linejoin="miter" stroke-opacity="1"/>
    <path id="path3015" d="M279.8047 265.82026c4.63502-12.04256 11.7241-21.02534 22.8624-27.6889" fill="#d4aa00" fill-opacity="1" stroke="#540" stroke-width="1.5" stroke-linecap="butt" stroke-linejoin="miter" stroke-opacity="1"/>
    <path id="path3013-1" d="M240.26592 316.52582c-7.13112-8.28486-4.91536-14.55636-2.93172-23.23952 1.98366-8.68316 9.66176-15.41062 19.8601-28.77772-.1012 25.3588-8.53762 33.11724-13.39734 49.15692-1.17702.95344-2.35402 1.90688-3.53104 2.86032z" fill="#d4aa00" fill-opacity="1" stroke="#540" stroke-width="1.5" stroke-linecap="butt" stroke-linejoin="miter" stroke-opacity="1"/>
    <path id="path3015-7" d="M241.04124 307.2812c.0538-6.45166.69656-10.1165 3.86094-16.99392 2.47392-5.37676 5.80194-8.83854 8.32088-15.94714" fill="#d4aa00" fill-opacity="1" stroke="#540" stroke-width="1.5" stroke-linecap="butt" stroke-linejoin="miter" stroke-opacity="1"/>
    <path id="path3013-0" d="M211.22434 429.83104c-9.07658-3.52776-12.6876-10.75328-16.00172-15.27858-4.38632-13.5223-3.99484-28.66608 2.51002-42.43322 9.30716 13.73744 7.3765 31.38256 13.21048 51.8971-.499 1.43018.78022 4.38452.28122 5.8147z" fill="#d4aa00" fill-opacity="1" stroke="#540" stroke-width="1.5" stroke-linecap="butt" stroke-linejoin="miter" stroke-opacity="1"/>
    <path id="path3015-9" d="M207.01796 421.5624c-9.49422-13.06026-6.17586-20.60462-7.18414-36.79562" fill="#d4aa00" fill-opacity="1" stroke="#540" stroke-width="1.5" stroke-linecap="butt" stroke-linejoin="miter" stroke-opacity="1"/>
    <path id="path3013-8" d="M215.72296 370.83304c-7.2861-9.46482-8.25072-19.63388-8.47826-25.72452.012-14.2159 4.86668-16.31898 12.56958-28.82474 1.20266 20.80662-1.44498 34.19734-2.35666 50.93226-.91692 1.20566-.81774 2.41134-1.73466 3.617z" fill="#d4aa00" fill-opacity="1" stroke="#540" stroke-width="1.5" stroke-linecap="butt" stroke-linejoin="miter" stroke-opacity="1"/>
    <path id="path3015-2" d="M214.28072 361.66876c-1.47994-6.27984-1.7679-10.4955-1.25944-16.3922.50846-5.89672 1.30532-13.98254 4.02722-19.87384" fill="#d4aa00" fill-opacity="1" stroke="#540" stroke-width="1.5" stroke-linecap="butt" stroke-linejoin="miter" stroke-opacity="1"/>
    <path id="path3013-5" d="M225.03814 491.06938c-9.69902-.87084-14.85258-7.57738-19.29222-11.00546-7.96604-11.77432-12.11238-23.04124-11.73632-40.50932 15.35598 17.79626 18.32336 22.96 28.22794 45.19916-.0826 1.5125 2.88312 4.80312 2.8006 6.31562z" fill="#d4aa00" fill-opacity="1" stroke="#540" stroke-width="1.5" stroke-linecap="butt" stroke-linejoin="miter" stroke-opacity="1"/>
    <path id="path3015-1" d="M216.9245 481.75224c-7.71858-8.22798-11.68962-17.86796-16.58826-28.38938" fill="#d4aa00" fill-opacity="1" stroke="#540" stroke-width="1.5" stroke-linecap="butt" stroke-linejoin="miter" stroke-opacity="1"/>
    <path id="path3013-11" d="M232.32672 495.45066c8.01904-4.0984 6.64264-12.97652 6.81394-15.69566.51916-14.20644-5.19096-25.42154-7.08686-43.79488-11.97976 23.48278-3.3889 44.35058-2.34084 55.77332.87126 1.23906 1.7425 2.47814 2.61376 3.71722z" fill="#d4aa00" fill-opacity="1" stroke="#540" stroke-width="1.5" stroke-linecap="butt" stroke-linejoin="miter" stroke-opacity="1"/>
    <path id="path3015-5" d="M233.09414 484.0604c3.4269-12.44038-3.03472-17.52704-.92194-33.56914" fill="#d4aa00" fill-opacity="1" stroke="#540" stroke-width="1.5" stroke-linecap="butt" stroke-linejoin="miter" stroke-opacity="1"/>
    <path id="path3013-11-2" d="M215.9053 438.63276c9.18572-3.23298 9.3987-9.1184 12.85714-13.53438 1.73602-5.66244 4.95188-15.81438 3.613-40.93638-12.78568 13.66354-11.7274 29.76714-15.54166 48.86402.45258 1.44552-1.3811 4.1612-.92854 5.60674h.00006z" fill="#d4aa00" fill-opacity="1" stroke="#540" stroke-width="1.5" stroke-linecap="butt" stroke-linejoin="miter" stroke-opacity="1"/>
    <path id="path3015-5-7" d="M221.39248 427.96394c7.05236-10.80606 4.5989-19.2711 8.05618-32.20248" fill="#d4aa00" fill-opacity="1" stroke="#540" stroke-width="1.5" stroke-linecap="butt" stroke-linejoin="miter" stroke-opacity="1"/>
    <path id="path3013-11-1" d="M222.0347 378.12272c7.44906-1.24788 11.85296-7.7237 13.71386-9.07454 3.38778-3.0967 9.37142-16.80472 10.97404-31.40476-15.7298 11.4145-19.14198 19.62906-26.16118 35.6814-.016 1.51462-1.0501 2.26716-1.0669 3.7818l2.54018 1.0161z" fill="#d4aa00" fill-opacity="1" stroke="#540" stroke-width="1.5" stroke-linecap="butt" stroke-linejoin="miter" stroke-opacity="1"/>
    <path id="path3015-5-4" d="M226.26142 370.7606c10.05012-8.09332 7.80002-15.55606 15.31364-23.87938" fill="#d4aa00" fill-opacity="1" stroke="#540" stroke-width="1.5" stroke-linecap="butt" stroke-linejoin="miter" stroke-opacity="1"/>
    <path id="path3013-11-3" d="M241.07736 323.08886c3.98414 3.05022 8.6123-.69106 13.86218-3.29618 12.3904-6.96924 22.53518-12.61144 29.66942-25.45014-19.4069 2.70032-26.8156 11.0176-42.2322 23.05292-.60248 1.38976-.69692 4.30366-1.2994 5.6934z" fill="#d4aa00" fill-opacity="1" stroke="#540" stroke-width="1.5" stroke-linecap="butt" stroke-linejoin="miter" stroke-opacity="1"/>
    <path id="path3015-5-2" d="M246.21818 319.09834c10.6227-7.63164 14.60086-9.59194 26.52878-18.3285" fill="#d4aa00" fill-opacity="1" stroke="#540" stroke-width="1.5" stroke-linecap="butt" stroke-linejoin="miter" stroke-opacity="1"/>
    <path id="path3013-11-6" d="M273.45142 280.37946c7.61226 6.07314 16.74154 2.85408 20.54128 2.6822 13.8946-3.00546 14.71518-8.51416 34.97122-19.18614-22.12738-3.84534-22.4169 7.62138-48.99956 12.7991-.9855 1.15026-5.52742 2.55454-6.51294 3.70484z" fill="#d4aa00" fill-opacity="1" stroke="#540" stroke-width="1.5" stroke-linecap="butt" stroke-linejoin="miter" stroke-opacity="1"/>
    <path id="path3015-5-8" d="M285.5082 278.84324c10.3611 2.28058 21.608-9.53468 33.50398-13.0194" fill="#d4aa00" fill-opacity="1" stroke="#540" stroke-width="1.5" stroke-linecap="butt" stroke-linejoin="miter" stroke-opacity="1"/>
    <path id="path3013-11-7" d="M326.9219 247.86602c4.37934 3.4846 11.82672 6.46264 18.25454 8.42376 13.96412 2.66378 29.97882-4.58512 35.32794-12.59116-12.50952-1.9913-15.63116 6.6868-50.78256 2.14648-1.35668.67364-1.44322 1.34726-2.79992 2.02092z" fill="#d4aa00" fill-opacity="1" stroke="#540" stroke-width="1.5" stroke-linecap="butt" stroke-linejoin="miter" stroke-opacity="1"/>
    <path id="path3015-5-6" d="M340.98556 249.99104c8.47588 2.7304 14.24806-.72546 27.60668-1.56834" fill="#d4aa00" fill-opacity="1" stroke="#540" stroke-width="1.5" stroke-linecap="butt" stroke-linejoin="miter" stroke-opacity="1"/>
    <path id="path3015-5-6-1" d="M342.71738 232.30286c9.23796-7.6847 14.75612.54468 31.16306-3.0925" fill="#d4aa00" fill-opacity="1" stroke="#540" stroke-width="1.5" stroke-linecap="butt" stroke-linejoin="miter" stroke-opacity="1"/>
    <path id="path3011-2" d="M455.91088 242.22973c-4.90972-5.50846-6.58622-11.73542-19.04014-17.60314-8.5022-3.23324-19.15988 2.51474-26.58434 1.07774-5.14922-.1198-9.57994-1.6765-14.36992-2.51474 3.11348 8.2627 9.81946 11.13668 14.72918 11.85518 12.27938 4.5789 28.6688-3.21516 43.10972 8.9812.7185-.59874 1.437-1.1975 2.1555-1.79624z" fill="#cca300" fill-opacity="1" stroke="#540" stroke-width="1.5" stroke-linecap="butt" stroke-linejoin="miter" stroke-opacity="1"/>
    <path id="path3013-7" d="M508.36106 274.20279c2.75424-9.34044.1198-14.01066-1.437-19.39938-8.0232-11.73544-19.27962-17.36366-32.69154-23.35112 10.90824 20.82122 19.63114 28.00466 29.81756 41.3135 1.437.479 2.87398.958 4.31098 1.437z" fill="#cca300" fill-opacity="1" stroke="#540" stroke-width="1.5" stroke-linecap="butt" stroke-linejoin="miter" stroke-opacity="1"/>
    <path id="path3015-95" d="M504.38646 265.82027c-4.63502-12.04256-11.7241-21.02534-22.8624-27.6889" fill="#cca300" fill-opacity="1" stroke="#540" stroke-width="1.5" stroke-linecap="butt" stroke-linejoin="miter" stroke-opacity="1"/>
    <path id="path3013-1-4" d="M543.92524 316.52583c7.13112-8.28486 4.91536-14.55636 2.93172-23.23952-1.98366-8.68316-9.66176-15.41062-19.8601-28.77772.1012 25.3588 8.53762 33.11724 13.39734 49.15692 1.17702.95344 2.35402 1.90688 3.53104 2.86032z" fill="#d4aa00" fill-opacity="1" stroke="#540" stroke-width="1.5" stroke-linecap="butt" stroke-linejoin="miter" stroke-opacity="1"/>
    <path id="path3015-7-3" d="M543.14992 307.28121c-.0538-6.45166-.69656-10.1165-3.86094-16.99392-2.47392-5.37676-5.80194-8.83854-8.32088-15.94714" fill="#cca300" fill-opacity="1" stroke="#540" stroke-width="1.5" stroke-linecap="butt" stroke-linejoin="miter" stroke-opacity="1"/>
    <path id="path3013-0-1" d="M572.96682 429.83105c9.07658-3.52776 12.6876-10.75328 16.00172-15.27858 4.38632-13.5223 3.99484-28.66608-2.51002-42.43322-9.30716 13.73744-7.3765 31.38256-13.21048 51.8971.499 1.43018-.78022 4.38452-.28122 5.8147z" fill="#cca300" fill-opacity="1" stroke="#540" stroke-width="1.5" stroke-linecap="butt" stroke-linejoin="miter" stroke-opacity="1"/>
    <path id="path3015-9-2" d="M577.1732 421.56241c9.49422-13.06026 6.17586-20.60462 7.18414-36.79562" fill="#cca300" fill-opacity="1" stroke="#540" stroke-width="1.5" stroke-linecap="butt" stroke-linejoin="miter" stroke-opacity="1"/>
    <path id="path3013-8-3" d="M568.4682 370.83305c7.2861-9.46482 8.25072-19.63388 8.47826-25.72452-.012-14.2159-4.86668-16.31898-12.56958-28.82474-1.20266 20.80662 1.44498 34.19734 2.35666 50.93226.91692 1.20566.81774 2.41134 1.73466 3.617z" fill="#cca300" fill-opacity="1" stroke="#540" stroke-width="1.5" stroke-linecap="butt" stroke-linejoin="miter" stroke-opacity="1"/>
    <path id="path3015-2-3" d="M569.91044 361.66877c1.47994-6.27984 1.7679-10.4955 1.25944-16.3922-.50846-5.89672-1.30532-13.98254-4.02722-19.87384" fill="#cca300" fill-opacity="1" stroke="#540" stroke-width="1.5" stroke-linecap="butt" stroke-linejoin="miter" stroke-opacity="1"/>
    <path id="path3013-5-4" d="M559.15302 491.06939c9.69902-.87084 14.85258-7.57738 19.29222-11.00546 7.96604-11.77432 12.11238-23.04124 11.73632-40.50932-15.35598 17.79626-18.32336 22.96-28.22794 45.19916.0826 1.5125-2.88312 4.80312-2.8006 6.31562z" fill="#cca300" fill-opacity="1" stroke="#540" stroke-width="1.5" stroke-linecap="butt" stroke-linejoin="miter" stroke-opacity="1"/>
    <path id="path3015-1-1" d="M565.47042 484.98548c11.31106-7.86873 14.92285-17.50871 18.02525-31.62261" fill="#cca300" fill-opacity="1" stroke="#540" stroke-width="1.5" stroke-linecap="butt" stroke-linejoin="miter" stroke-opacity="1"/>
    <path id="path3013-11-13" d="M551.86444 495.45067c-8.01904-4.0984-6.64264-12.97652-6.81394-15.69566-.51916-14.20644 5.19096-25.42154 7.08686-43.79488 11.97976 23.48278 3.3889 44.35058 2.34084 55.77332-.87126 1.23906-1.7425 2.47814-2.61376 3.71722z" fill="#cca300" fill-opacity="1" stroke="#540" stroke-width="1.5" stroke-linecap="butt" stroke-linejoin="miter" stroke-opacity="1"/>
    <path id="path3015-5-87" d="M551.09702 484.06041c-3.4269-12.44038 3.03472-17.52704.92194-33.56914" fill="#cca300" fill-opacity="1" stroke="#540" stroke-width="1.5" stroke-linecap="butt" stroke-linejoin="miter" stroke-opacity="1"/>
    <path id="path3013-11-2-4" d="M568.28586 438.63277c-9.18572-3.23298-9.3987-9.1184-12.85714-13.53438-1.73602-5.66244-4.95188-15.81438-3.613-40.93638 12.78568 13.66354 11.7274 29.76714 15.54166 48.86402-.45258 1.44552 1.3811 4.1612.92854 5.60674h-.00006z" fill="#cca300" fill-opacity="1" stroke="#540" stroke-width="1.5" stroke-linecap="butt" stroke-linejoin="miter" stroke-opacity="1"/>
    <path id="path3015-5-7-2" d="M562.79868 427.96395c-7.05236-10.80606-4.5989-19.2711-8.05618-32.20248" fill="#cca300" fill-opacity="1" stroke="#540" stroke-width="1.5" stroke-linecap="butt" stroke-linejoin="miter" stroke-opacity="1"/>
    <path id="path3013-11-1-7" d="M562.15646 378.12273c-7.44906-1.24788-11.85296-7.7237-13.71386-9.07454-3.38778-3.0967-9.37142-16.80472-10.97404-31.40476 15.7298 11.4145 19.14198 19.62906 26.16118 35.6814.016 1.51462 1.0501 2.26716 1.0669 3.7818l-2.54018 1.0161z" fill="#cca300" fill-opacity="1" stroke="#540" stroke-width="1.5" stroke-linecap="butt" stroke-linejoin="miter" stroke-opacity="1"/>
    <path id="path3015-5-4-7" d="M557.92974 370.76061c-10.05012-8.09332-7.80002-15.55606-15.31364-23.87938" fill="#cca300" fill-opacity="1" stroke="#540" stroke-width="1.5" stroke-linecap="butt" stroke-linejoin="miter" stroke-opacity="1"/>
    <path id="path3013-11-3-9" d="M543.1138 323.08887c-3.98414 3.05022-8.6123-.69106-13.86218-3.29618-12.3904-6.96924-22.53518-12.61144-29.66942-25.45014 19.4069 2.70032 26.8156 11.0176 42.2322 23.05292.60248 1.38976.69692 4.30366 1.2994 5.6934z" fill="#d4aa00" fill-opacity="1" stroke="#540" stroke-width="1.5" stroke-linecap="butt" stroke-linejoin="miter" stroke-opacity="1"/>
    <path id="path3015-5-2-3" d="M537.97298 319.09835c-10.6227-7.63164-14.60086-9.59194-26.52878-18.3285" fill="#cca300" fill-opacity="1" stroke="#540" stroke-width="1.5" stroke-linecap="butt" stroke-linejoin="miter" stroke-opacity="1"/>
    <path id="path3013-11-6-1" d="M510.73974 280.37947c-7.61226 6.07314-16.74154 2.85408-20.54128 2.6822-13.8946-3.00546-14.71518-8.51416-34.97122-19.18614 22.12738-3.84534 22.4169 7.62138 48.99956 12.7991.9855 1.15026 5.52742 2.55454 6.51294 3.70484z" fill="#cca300" fill-opacity="1" stroke="#540" stroke-width="1.5" stroke-linecap="butt" stroke-linejoin="miter" stroke-opacity="1"/>
    <path id="path3015-5-8-9" d="M498.68296 278.84325c-10.3611 2.28058-21.608-9.53468-33.50398-13.0194" fill="#cca300" fill-opacity="1" stroke="#540" stroke-width="1.5" stroke-linecap="butt" stroke-linejoin="miter" stroke-opacity="1"/>
    <path id="path3013-11-7-8" d="M457.26926 247.86603c-4.37934 3.4846-11.82672 6.46264-18.25454 8.42376-13.96412 2.66378-29.97882-4.58512-35.32794-12.59116 12.50952-1.9913 15.63116 6.6868 50.78256 2.14648 1.35668.67364 1.44322 1.34726 2.79992 2.02092z" fill="#cca300" fill-opacity="1" stroke="#540" stroke-width="1.5" stroke-linecap="butt" stroke-linejoin="miter" stroke-opacity="1"/>
    <path id="path3015-5-6-6" d="M443.2056 249.99105c-8.47588 2.7304-14.24806-.72546-27.60668-1.56834" fill="#cca300" fill-opacity="1" stroke="#540" stroke-width="1.5" stroke-linecap="butt" stroke-linejoin="miter" stroke-opacity="1"/>
    <path id="path3015-5-6-1-5" d="M441.47378 232.30287c-9.23796-7.6847-14.75612.54468-31.16306-3.0925" fill="#cca300" fill-opacity="1" stroke="#540" stroke-width="1.5" stroke-linecap="butt" stroke-linejoin="miter" stroke-opacity="1"/>
    <path id="path2981" d="M329.35802 242.58896v5.02948c-142.74114 60.47338-115.9173 215.06968-96.27842 249.31798 8.38246 11.97492 15.68716 25.0276 24.06962 37.00252-3.11348 2.39498-2.99374 1.55676-6.10722 3.95174-7.42446-14.13042-16.2859-25.7461-23.71036-39.87652-16.0464-34.0088-53.64767-185.49162 102.02638-255.4252z" fill="#d4aa00" fill-opacity="1" stroke="#540" stroke-width="1.5" stroke-linecap="butt" stroke-linejoin="miter" stroke-opacity="1"/>
    <path id="path3303" d="M323.7513 551.0921c-10.36304-6.54674-31.48418-21.20238-44.20062-35.05566-15.1494-17.61912-19.2407-25.0585-25.67474-37.89354-.49256 8.57162-4.19364 23.8892-12.9373 28.24052-9.13972 5.30244-20.89362 2.6784-31.4993-3.55636 10.38712 26.88568 25.36268 46.01526 44.70868 64.52274 21.23848 20.31794 67.46708 48.07816 75.19186 47.757 6.53798-.67992 8.09334-5.7273 9.14496-10.16106 4.29508-18.1085-4.47738-38.32378-14.73354-53.85364z" fill="#d4aa00" fill-opacity="1" stroke="#540" stroke-width="1.5" stroke-linecap="butt" stroke-linejoin="miter" stroke-opacity="1"/>
    <path id="path3303-0" d="M255.63068 489.89601c-2.60693 11.38602-11.65165 22.52422-24.125 22.5-4.98005.28242-9.92363-.65218-14.5625-2.34375 18.15149 39.53121 52.90406 68.4303 90.0427 89.67455 7.21045 4.07387 17.4632 12.34441 25.65784 13.6903 6.25819-3.04827 5.87524-14.32686 6.26208-20.16527-1.01234-14.60881-10.41854-29.96884-19.83011-41.06044-25.2075-16.05192-48.59264-36.27046-63.44501-62.29539z" fill="#00a" fill-opacity="1" stroke="#540" stroke-width="1.5" stroke-linecap="butt" stroke-linejoin="miter" stroke-opacity="1"/>
    <path id="path3305" d="M296.57045 572.43033c-2.0417.32368-3.06935 2.13463-3.81039 4.06443-.80996 2.10926-.58306 5.78944 1.52416 6.6047 17.25792 6.67688 29.29672 22.61608 42.1684 25.40264 3.0204.65388 1.88348-6.28252 3.04832-9.14494 1.78846-4.3949 11.12498-10.24278 6.6047-11.68524-11.60086-3.70196-32.92141-17.87543-49.53519-15.24159z" fill="#d4aa00" fill-opacity="1" stroke="#540" stroke-width="1.5" stroke-linecap="butt" stroke-linejoin="miter" stroke-opacity="1"/>
    <path id="path3307" d="M305.13226 481.64195c1.37832 1.31136 4.0742 4.50362 5.60458 5.64888 1.47196 1.90788 1.74804 4.4292 1.6813 6.75426-1.15344 1.1281-5.43 2.24474-7.20634 1.55938-2.1203-1.49352-2.42255-6.83141-3.96371-8.77369" fill="#d4aa00" fill-opacity="1" stroke="#540" stroke-width="1.5" stroke-linecap="butt" stroke-linejoin="miter" stroke-opacity="1"/>
    <path id="path3307-0" d="M341.33516 478.09284c1.37832 1.31136 5.15194 3.24626 6.68232 4.39152 1.47196 1.90788 3.7239 4.4292 3.65716 6.75426-1.15344 1.1281-3.993 1.167-5.76934.48164-2.1203-1.49352-2.42256-2.87968-3.96372-4.82196" fill="#d4aa00" fill-opacity="1" stroke="#540" stroke-width="1.5" stroke-linecap="butt" stroke-linejoin="miter" stroke-opacity="1"/>
    <path id="path3307-8" d="M429.31977 486.79657c1.37832 1.31136 6.40931 3.24625 7.93969 4.39151 1.47196 1.90788 3.36466 3.35146 3.29792 5.67652-1.15344 1.1281-4.89112 1.34662-6.66746.66126-2.1203-1.49352-1.52444-3.0593-3.0656-5.00158" fill="#d4aa00" fill-opacity="1" stroke="#540" stroke-width="1.5" stroke-linecap="butt" stroke-linejoin="miter" stroke-opacity="1"/>
    <path id="path3307-8-6" d="M413.64014 489.4012c1.37832 1.31136 4.7927 3.6055 6.32308 4.75076 1.47196 1.90788 3.36466 3.35146 3.29792 5.67652-1.15344 1.1281-4.35225 2.42436-6.12859 1.739-2.1203-1.49352-2.06331-4.13704-3.60447-6.07932" fill="#d4aa00" fill-opacity="1" stroke="#540" stroke-width="1.5" stroke-linecap="butt" stroke-linejoin="miter" stroke-opacity="1"/>
    <path id="path3443" d="M474.30909 335.27387c-.25934.63088-.1638 1.29324.21218 1.85958.54026.3561 1.21744.96032 1.95942.61016.65658-.2994 1.17596-.8072 1.53296-1.3419.26306-.63128-.41212-1.1451-.952-1.50052-1.13636-.75438-1.76858.014-2.75256.37268z" fill="#540" fill-opacity="1" stroke="#540" stroke-width="1.5" stroke-linecap="butt" stroke-linejoin="miter" stroke-opacity="1"/>
    <path id="path3450" d="M476.42126 331.54964c1.23162.54082 2.31073 2.76803 2.66807 3.92833" fill="#e77817" fill-opacity="1" stroke="#540" stroke-width="1.5" stroke-linecap="butt" stroke-linejoin="miter" stroke-opacity="1"/>
    <path id="path2981-9" d="M454.83314 242.58897v5.02948c142.74114 60.47338 115.9173 215.06968 96.27842 249.31798-8.38246 11.97492-15.68716 25.0276-24.06962 37.00252 3.11348 2.39498 2.99374 1.55676 6.10722 3.95174 7.42446-14.13042 16.2859-25.7461 23.71036-39.87652 16.0464-34.0088 53.64768-185.49162-102.02638-255.4252z" fill="#cca300" fill-opacity="1" stroke="#540" stroke-width="1.5" stroke-linecap="butt" stroke-linejoin="miter" stroke-opacity="1"/>
    <path id="path3303-4" d="M458.01104 551.02678c10.36304-6.54674 31.48418-21.20238 44.20062-35.05566 15.1494-17.61912 19.9592-22.54376 26.39324-35.3788.49256 8.57162 3.47514 21.37446 12.2188 25.72578 9.13972 5.30244 20.89362 2.6784 31.4993-3.55636-10.38712 26.88568-25.36268 46.01526-44.70868 64.52274-21.23848 20.31794-67.46708 48.07816-75.19186 47.757-6.53798-.67992-8.09334-5.7273-9.14496-10.16106-4.29508-18.1085 4.47738-38.32378 14.73354-53.85364z" fill="#d4aa00" fill-opacity="1" stroke="#540" stroke-width="1.5" stroke-linecap="butt" stroke-linejoin="miter" stroke-opacity="1"/>
    <path id="path3303-0-2" d="M526.61052 490.67734c2.60693 11.38602 11.65165 22.52422 24.125 22.5 4.98005.28242 9.92363-.65218 14.5625-2.34375-18.15149 39.53121-52.90406 68.4303-90.0427 89.67455-7.21045 4.07387-17.46319 12.34441-25.65783 13.6903-6.25819-3.04827-5.87524-14.32686-6.26208-20.16527 1.01234-14.60881 10.41854-29.96884 19.8301-41.06044 25.2075-16.05192 48.59264-36.27046 63.44501-62.29539z" fill="#00a" fill-opacity="1" stroke="#540" stroke-width="1.5" stroke-linecap="butt" stroke-linejoin="miter" stroke-opacity="1"/>
    <path id="path3305-8" d="M483.92176 572.87306c2.0417.32368 4.33948 1.62658 5.08052 3.55638.80996 2.10926.58306 5.78944-1.52416 6.6047-17.25792 6.67688-29.29672 22.61608-42.1684 25.40264-3.0204.65388-1.88348-6.28252-3.04832-9.14494-1.78846-4.3949-11.12498-10.24278-6.6047-11.68524 11.60086-3.70196 31.65128-17.36738 48.26506-14.73354z" fill="#d4aa00" fill-opacity="1" stroke="#540" stroke-width="1.5" stroke-linecap="butt" stroke-linejoin="miter" stroke-opacity="1"/>
    <path id="path3305-6" d="M300.32886 573.18935c-2.82882-.0728-7.13122 7.69922-2.84874 7.90415 8.99221 3.10545 27.36727 20.01465 40.54525 25.54027.37041-5.23488 3.57829-10.80156 7.63306-14.04333-13.79749-5.6517-29.91127-19.75849-45.32957-19.40109z" fill="#00a" fill-opacity="1" stroke="#540" stroke-width="1.5" stroke-linecap="butt" stroke-linejoin="miter" stroke-opacity="1"/>
    <path id="path3305-6-9" d="M481.19384 573.25218c2.82882-.0728 7.13122 7.69922 2.84874 7.90415-8.99221 3.10545-27.36726 20.01465-40.54524 25.54027-.37041-5.23488-3.57829-10.80156-7.63306-14.04333 13.79749-5.6517 29.91126-19.75849 45.32956-19.40109z" fill="#00a" fill-opacity="1" stroke="#540" stroke-width="1.5" stroke-linecap="butt" stroke-linejoin="miter" stroke-opacity="1"/>
    <path id="path3301" d="M455.57768 530.47734c-5.1746.53234-8.05048 7.81222-30.5625 13.4375-9.81928 2.45216-26.10234 3.85018-34.625 3.625-.0374.002-.0872-.002-.125 0-.61062-.018-1.28984-.0276-1.8125-.0624v.125c-8.17056.21484-21.89736-1.18012-31.6875-3.625-25.72802-6.4289-25.83942-14.9709-33-13.1875-5.03226 3.23472-6.27096 11.80666-9.1875 16.25-4.11436 11.6625-15.62216 19.53482-20.3125 26.9375 43.0819 13.3368 68.06926 29.32722 95.8125 27.4375.1034.004.20902-.004.3125 0 27.2347 1.17932 54.81678-14.42206 97.0625-27.5-4.69034-7.40268-18.26381-17.43049-20.49212-26.84769-2.82673-2.6471-3.91312-13.10509-8.94538-16.33981-.89508-.22292-1.69828-.32604-2.4375-.25v-.0001z" fill="#d4aa00" fill-opacity="1" stroke="#540" stroke-width="1.5" stroke-linecap="butt" stroke-linejoin="miter" stroke-opacity="1"/>
    <path id="path2830-5-8" d="M316.1431 374.5035c-4.16282 8.00129-.27616 5.22237-4.16228 13.18014-3.73506 13.46112 9.95228-8.46576 13.26467-13.33174 1.11039-2.71114 14.3391-5.43005 9.57218-6.5073-.27592-4.08678-3.51138.53608-7.56583-1.15277l-11.10874 7.81167z" fill="#a80" fill-opacity="1" stroke="none" stroke-width="1.5"/>
    <path id="path2830-5" d="M314.42113 405.67854c-1.75956 8.84611-3.45987 7.59738-4.96593 16.32434-1.97512 1.96434 2.56748 10.20339 1.13804 12.43233 7.77845-7.18936 18.06126-13.49869 19.93341-24.92957.30805-2.91348 4.55358-8.66551-.32442-8.36692-1.40761-3.84662-1.91856-4.30842-6.28354-4.79624l-9.49756 9.33606zm-7.73414 33.13167c-4.44291 2.00311-4.0767 6.88913-4.375 11 .98728-3.96061 2.05537-8.03468 4.6875-11.25l-.3125.25z" fill="#a80" fill-opacity="1" stroke="none" stroke-width="1.5"/>
    <path id="path3301-6" d="M459.61502 532.66377c-8.37051 4.51057-20.16394 11.65739-29.70208 13.5153-25.74176 6.86178-53.60905 6.90791-79.31919.0397-9.07093-2.52762-19.98004-9.37675-27.97777-13.96971-4.12334 3.50127-5.54001 11.61618-8.35985 16.21166-4.29745 8.55724-11.65247 16.3767-17.5625 22.33972 32.3994 9.05582 74.8812 31.54794 101.8729 26.99694.45091.22631 24.35809-3.88451 34.24743-8.33364 17.17601-7.72734 32.00877-10.13105 51.71571-19.14359-.32829-1.21145-4.34887-4.7302-5.21165-6.0353-8.29898-8.23797-13.49195-18.24801-17.48425-28.98844-.5191-.84503-1.18558-2.27627-2.03912-2.54281l-.17963-.0898z" fill="#00a" fill-opacity="1" stroke="#540" stroke-width="1.5" stroke-linecap="butt" stroke-linejoin="miter" stroke-opacity="1"/>
    <path id="path2849-6" d="M394.1624 412.50831c5.85341 13.39278 3.00242 6.69237 4.7655 42.06912-2.50724 3.45868 1.96138 30.42218 2.98425 32.95908 1.70945 3.71683 3.55129 7.59747 6.03125 10.4375 3.711 1.7467 2.60715-3.99939 4.25-5.875-5.29473-3.91246-11.98911-8.51776-10.75-16.03125 1.33521-13.64422-2.13916-29.56081 2.31352-42.57749 2.83078-5.4828 1.26222-9.18427 1.20528-15.82851-6.35417.91667-4.44563-6.07012-10.7998-5.15345z" fill="#a80" fill-opacity="1" stroke="none" stroke-width="1.5"/>
    <path id="path2830-5-8-4" d="M351.33638 343.62201c-3.19459 5.51371 1.29596 8.55795-9.98886 16.2997-7.93402 20.15515 15.09406-9.45658 17.19385-14.95573.45462-2.89423 5.20107-.97437 4.80482-4.87396-1.21177-3.91274 4.36983-4.25897 2.92347-5.91636-2.76376-3.16698-8.73358 1.30726-11.95724 4.00469-1.58557 1.32674-1.93959 3.65279-2.97604 5.44166z" fill="#a80" fill-opacity="1" stroke="none" stroke-width="1.5"/>
    <path id="path2830-5-8-4-9" d="M395.9986 386.58366c5.92348 6.2763 1.8128 19.57066 11.42583 24.73168 4.28874 2.30253-2.54308-22.0235-7.91025-30.02511-3.2806-4.89086-9.20237-7.55721-14.55275-10.01818-5.83063-2.68186-12.7108-15.51338-18.60982-4.9369 5.73127.78458 7.71142-1.00522 9.47596 1.67332 12.87151 19.53883 15.7662 13.908 20.17103 18.57519z" fill="#a80" fill-opacity="1" stroke="none" stroke-width="1.5"/>
    <path id="path5039" d="M302.54565 419.32797c-.47316.0908-2.15157 3.91215-2.30004 4.30364-1.5432 1.91874-2.82822.82982-3.45256 2.88794-.13053.0989-.20268.28769-.0907.42921" fill="none" stroke="#540" stroke-width="1.5" stroke-linecap="butt" stroke-linejoin="miter" stroke-opacity="1"/>
    <path id="path2859-0-0-8" d="M411.36407 359.81256c2.38017 3.88578 23.47036 23.12691 26.88013 20.06039-8.11353-9.57984-13.54237-8.63752-14.88865-13.14841-11.07208-13.26241-24.0374-18.43805-38.46553-16.78821-.54577 8.65091 18.34351 3.11004 26.47405 9.87623z" fill="#a80" fill-opacity="1" stroke="none" stroke-width="1.5"/>
    <path id="path9347" d="M377.33344 555.09528c-.75083-.0906-1.41908.12041-2.00577.64617-.58672.52578-.95727 1.18098-1.09652 1.98979-.0801.46536-.0725.90326.0256 1.31096.0982.40771.29179.79301.55548 1.15284.26366.35983.72283.86844 1.385 1.49975.66218.63133 1.1184 1.02219 1.26539 1.20537.21907.26899.36379.5344.44467.82952.0809.29512.11167.58953.0735.86755-.0687.50045-.28889.92793-.65508 1.26451-.36621.33661-.82137.46179-1.36589.40938-.47047-.0453-1.05526-.24126-1.40225-.5546-.347-.31334-.59348-.69808-.7153-1.12278-.12181-.4247-.16878-1.04549-.14238-1.86794l-.22726-.0275-.6659 3.86785.22726.0275c.0752-.25672.16167-.41386.23891-.48936.0772-.0755.1585-.10425.26701-.0911.11283.0136.37961.11445.77272.34006.39311.2256.64941.37093.77919.41488.2171.077.65412.14619.91113.17093.81897.0788 1.53584-.15818 2.14153-.72806.60566-.56988 1.09372-1.29592 1.18167-2.15473.0462-.45171-.0596-.88513-.16645-1.31233-.10688-.42721-.29562-.80314-.55677-1.13534-.26116-.3322-.76211-.82628-1.51193-1.47315-.91958-.79277-1.39906-1.43355-1.5966-1.88154-.13798-.30505-.18506-.60942-.12593-.95291.0773-.44872.28799-.83995.64368-1.15611.35568-.31614.75755-.45141 1.20892-.39692.39928.0482.60635.18625.94512.48365.33875.29743.56733.68565.70884 1.14999.14149.46435.19634 1.07759.17172 1.83581l.24711.0238.53627-3.90654-.24711-.0238c-.0795.25715-.15733.41381-.24103.49308-.0837.0793-.16953.10661-.28279.0957-.10019-.01-.28074-.0829-.5056-.24536-.48665-.34544-.75144-.50243-1.22016-.55902l-.00001.00003m15.72355.60458l-2.91485 9.40556c-.27036.82314-.52011 1.36842-.74324 1.63737-.10939.13448-.35392.25843-.72647.34286l.00053.29309 3.00845-.0126-.0106-.29295c-.43095-.0282-.89842-.12735-1.02803-.25871-.12959-.13137-.19186-.2903-.19218-.46381-.0004-.21829.0605-.53487.20869-.97724l.67341-1.81031 3.52487-.105.65026 1.60705c.2126.52213.31363.91216.33101 1.158.013.18439-.0236.33708-.13917.47177-.11567.13469-.35562.23986-.70859.27978l.0207.29258 3.7045-.21207-.0306-.29197c-.36548-.00092-.67177-.11536-.89854-.32625-.22678-.21089-.63903-.69058-.94223-1.43811l-3.55835-9.30487-.2295.006m30.23115-4.92486c-1.09808.3294-1.7226.98413-2.14369 2.14563-.48475 1.33854-.32674 2.8459.30685 4.57418.61986 1.69085 1.60541 2.96013 2.81802 3.79608 1.2126.83595 2.56246 1.05584 3.71834.70912 1.14348-.343 2.02071-1.19979 2.33142-2.52223.3107-1.32244.0997-2.78319-.63916-4.39829-.71732-1.56803-1.70215-2.75084-2.97389-3.54463-1.27174-.79378-2.32806-1.08676-3.41789-.75986m-78.5944-3.39588l-1.37774 2.42822.22835.0827c.27203-.46252.5613-.82458.85338-1.04817.29208-.22357.574-.34162.83369-.36353.19813-.0137.48343.0419.86584.18023l.98365.35588-4.12934 8.00443c-.30218.58576-.52791.9442-.70129 1.07658-.28275.21476-.59977.26192-.94595.13668l-.29861-.10804-.1388.26906 3.64663 1.27274.13107-.27176-.28388-.096c-.3212-.10864-.49646-.30951-.54583-.57974-.0322-.19802.0886-.61156.40149-1.26029l3.89937-8.0849 1.17096.39608c.34152.11552.56633.28897.7069.50251.14054.21355.21688.48715.19775.83078-.0129.21298-.2099.52629-.36214.98063l.23286.0733 1.03845-2.54329-6.40681-2.23394m7.03375 2.43113l-.13331.29724.3045.0958c.19704.062.34905.17499.47326.35758.085.13435.11465.27795.097.42184-.0242.18971-.14801.55788-.39241 1.10282l-3.08663 6.88228c-.2867.63926-.5131 1.03007-.68679 1.16676-.27115.20769-.58184.26053-.92666.15207l-.30451-.0958-.12305.27437 3.75535 1.1474.11476-.27688-.30729-.0894c-.19886-.0578-.34878-.19186-.47431-.37054-.0931-.13373-.15063-.25762-.13726-.40186.0185-.19014.15146-.56084.37719-1.10548l1.35797-3.27649 3.91787 1.11824-1.25658 3.30474c-.24741.65066-.44554 1.05173-.61486 1.19456-.25815.21899-.72931.24626-1.07313.14632l-.28923-.084-.11475.27688 3.96327 1.06213.0974-.28152-.45492-.11637c-.20056-.0534-.36863-.18802-.50379-.36504-.093-.13054-.14029-.2494-.13136-.39389.0126-.19048.11586-.56879.32474-1.11812l2.66359-7.00512c.20279-.53332.35715-.8673.47112-1.02783.11388-.16053.25776-.27301.42392-.32271.22629-.0747.45366-.0841.65422-.0306l.13048.0338.10547-.30499-3.28768-.88217-.12432.29996.28922.084c.19883.0578.20547.11836.33646.2943.0972.13167.14965.27755.14074.42202-.0126.19048-.1321.5586-.343 1.11326l-1.17694 3.09528-3.8993-1.11307 1.2719-3.06882c.21915-.52877.38176-.85988.50263-1.01732.12093-.15739.27023-.26615.43372-.31344.22853-.0698.43802-.0795.63688-.0217l.30729.0894.12432-.29996-3.43316-1.04993.00005.00001m8.75417 2.49748l-.10547.30498.31243.0758c.3538.0858.5627.25938.63995.5112.0537.18786-.0328.61343-.2727 1.30696l-2.45837 7.1084c-.18407.53225-.33065.87758-.4386 1.03787-.10794.1603-.24909.27863-.41361.33196-.22387.0797-.43248.0985-.63465.0495l-.31244-.0758-.0974.28152 6.99172 1.56071 1.53438-2.63562-.26097-.0506c-.46623.62773-.88966 1.1008-1.24803 1.38749-.27594.2165-.52573.33257-.772.37672-.24627.0442-.76844-.0119-1.25639-.11847l-1.48123-.32338c-.23761-.0519-.38651-.11879-.45197-.19964-.0655-.0808-.0846-.18333-.0857-.29635-.001-.11302-.068-.43052.0993-.91438l1.24947-3.61285 1.88948.41328c.36065.0787.62292.19697.76316.34329.14025.14631.21316.32366.23053.52989.0122.16463.0138.51379-.0758 1.06522l.22369.0433 1.06631-3.85461-.22369-.0434c-.20061.62756-.41401 1.05907-.7122 1.26004-.2245.15344-.59592.17279-1.08811.0653l-1.87057-.40892 1.49287-4.31665 2.21283.48197c.42855.0936.54756.16214.6958.2771.18191.15596.29783.35447.34644.59371.0486.23925.0408.64672-.0309 1.24756l.26098.0506.55953-2.44869-6.27816-1.4051-.00005-.00002m20.94837 3.39338l-.3885 2.66861.24784.0178c.0831-.51085.23962-.92961.43211-1.21916.19249-.28953.39619-.47764.63422-.56729.18275-.0655.32076-.0968.73666-.077l1.06979.0507-.58826 8.70545c-.043.63706-.12689 1.03774-.23521 1.212-.17724.28313-.45551.41875-.83201.40091l-.30566-.0145-.0198.29262 3.96143.16102.01-.29298-.30604-.007c-.34628-.008-.77642-.14915-.92692-.39174-.1065-.17883-.1318-.60203-.0846-1.30055l.58826-8.70545 1.06985.0285c.36818.008.67025.10578.89095.26483.22068.15907.38708.39273.51231.72036.0767.20335.14394.55918.17675 1.03026l.24865.006-.0266-2.68826-6.86485-.29474m16.76507-.033l.18518 2.68337.24778-.0182c-.0232-.5152.0258-.94889.15587-1.26186.13007-.31297.29204-.52765.50808-.6503.16655-.0909.30042-.1513.7142-.19157l1.06437-.10353 1.2013 8.66117c.0879.63382.0873 1.04061.0162 1.22784-.11671.30436-.36311.47791-.7377.51434l-.3041.0296.0404.29114 3.92521-.4182-.05-.29008-.30301.0366c-.34285.0414-.61499-.0583-.82-.27105-.14678-.15757-.2719-.56813-.39123-1.26061l-1.48719-8.63 1.23097-.14877c.36455-.0441.68198.009.93175.13417.24974.12534.32148.35339.52125.65398.12293.18675.27249.52455.41531.98102l.24514-.0353-.63878-2.63408-6.67098.7004m7.36867-.80102l.0643.3129.32056-.0462c.36299-.0523.64149.0273.84242.22548.1464.14928.29068.56373.43702 1.27528l1.49986 7.29315c.11231.54609.16068.91034.14735 1.09401-.0134.18368-.0786.34179-.19871.44999-.15971.15366-.33752.24695-.54495.27686l-.32056.0462.0594.28884 7.08438-1.19225.0739-2.94578-.32601.0633c-.0929.73515-.22773 1.31548-.40103 1.70432-.13567.29558-.30006.49122-.49873.62085-.19866.12963-.55171.25524-1.04344.34879l-1.63655.27721c-.24079.0403-.40964.0346-.51071-.0141-.10106-.0488-.19056-.13079-.2505-.23205-.06-.10127-.13111-.38592-.24899-.8799l-.88022-3.68838 1.91384-.32031c.3655-.0612.64494-.0573.84987.0186.20492.0759.3858.20161.5146.37799.1013.14145.23929.46324.44574.9922l.24257-.0462-1.04666-3.85841-.24257.0462c.1461.63803.14287 1.11139-.0114 1.40476-.11496.22277-.39629.3827-.89508.46617l-1.91384.32031-1.05168-4.40691 2.24553-.38031c.43187-.0822.73467-.10065.92793-.0513.24489.0739.45254.2103.6208.40788.16827.19759.37337.56714.62159 1.13407l.24257-.0462-.7523-2.41162-6.38033 1.07463h-.00003m22.40283-5.27985l.13564.29651.30376-.0974c.20064-.0644.21857-.004.45449.0594.17188.0489.31117.13625.41623.25106.13787.15188.35213.49596.6184 1.02756l3.39545 6.77919c.31539.62968.45344 1.05019.43907 1.24946-.027.30687-.37843.5813-.7224.69165l-.30376.0975.12521.27369 3.73357-1.28974-.13537-.27027-.29995.10537c-.19409.0681-.40854.0508-.6485-.0106-.17592-.0475-.31753-.10752-.42259-.22235-.13786-.15186-.33447-.50215-.60074-1.03376l-1.65824-3.31077 1.49976-.52681c.27495-.0966.50919-.10572.69651-.0592.18732.0465.35742.15309.53193.31635.17449.16329.36646.45119.57473.85751l.22937-.0805-1.78233-3.5585-.22937.0805c.23439.59137.32048 1.01054.25771 1.26018-.0628.24967-.25071.43238-.59441.5531l-1.49976.52681-2.06434-4.12156 1.81736-.63838c.4286-.15054.75819-.20234 1.0141-.17082.2559.0315.52296.12889.7775.30956.25453.18069.54363.50371.89435.9571l1.17151-.43756-2.19223-1.93181-5.93262 2.06763-.00004.00001m-4.54067 1.795c.80085-.24022 1.56521-.0847 2.32583.49575.95095.73144 1.77839 2.04068 2.61048 3.85961.76752 1.67782 1.00157 2.99197.82345 3.93127-.17814.93931-.66361 1.54814-1.45208 1.78465-.73894.22167-1.62576.05-2.3663-.54592-.9686-.78597-1.80985-2.06757-2.51058-3.83077-.68385-1.7207-.90045-3.10829-.68506-4.15939.17274-.8445.50294-1.30983 1.25426-1.5352m-30.52355 6.91167l1.72107 4.5641-3.10258.0894 1.38151-4.65348" style="text-align:center;line-height:125%;-inkscape-font-specification:Times New Roman" font-size="22" font-style="normal" font-variant="normal" font-weight="400" font-stretch="normal" writing-mode="lr-tb" text-anchor="middle" fill="#d4aa00" fill-opacity="1" stroke="none" stroke-width=".25" font-family="Times New Roman"/>
    <path id="path5469" d="M450.59033 554.75609l-1.07052 21.17042c-.0846 1.8552-.52155 3.25114-.91553 3.99062-.19123.36755-.74456.81787-1.65997 1.35092l.22097.59718 7.54978-3.02177-.23425-.59192c-1.14391.37962-1.92148.51702-2.3561.40314-.43466-.11389-.72908-.34066-.85991-.67129-.16462-.41594-.22033-1.124-.16714-2.12417l.21435-4.06326 9.01392-3.7559 2.69085 2.48671c.87452.80741 1.40999 1.4435 1.60641 1.90826.14728.3486.12023.71055-.0981 1.0932-.21831.38268-.7831.79736-1.67746 1.23669l.24774.58626 9.03781-3.93415-.24773-.58626c-.95709.3541-1.77606.43547-2.48049.2356-.7045-.19983-1.69303-.88257-2.942-2.03972l-15.27567-14.51393-.59698.24337m-130.10463-3.0926l-.237.59081.81719.33768c.95336.39397 1.54892.88826 1.78671 1.48287.16698.44132-.025 1.34858-.5758 2.72179l-5.64299 14.06762c-.42274 1.05387-.75914 1.72769-1.02635 2.01439-.26717.28671-.62501.43668-1.05653.45692-.58624.0431-1.15175-.0478-1.69652-.2729l-.81719-.33768-.23699.59082 18.09995 7.3045 4.06401-4.70208-.68715-.26541c-1.2479 1.05522-2.35173 1.77871-3.31149 2.17046-.73904.29255-1.43855.40975-2.09852.3516-.66-.0581-1.64853-.34156-2.96559-.85025l-4.14906-1.68713c-.63559-.26263-1.04553-.49406-1.22341-.71028-.17789-.21622-.27059-.44688-.27811-.69199-.008-.24509.18405-.85466.56838-1.81273l2.86313-7.1376 5.08196 2.09614c.97347.376 1.65472.76208 2.04376 1.15828.38898.39621.61608.82211.68129 1.27769.0475.3627-.0478 1.10676-.28625 2.23211l.63565.24551 2.85151-7.6053-.63564-.24551c-.53599 1.21952-1.19429 1.96136-1.97508 2.22547-.58764.20346-1.54572.0487-2.87422-.46449l-5.0554-2.08554 3.43319-8.55873 6.13163 2.49875c1.15671.44676 1.93393.83916 2.33165 1.17724.48803.44676.80612.94469.93709 1.48716.13092.54247.0926 1.43154-.0978 2.6738l.66998.25877 1.5366-4.88507-17.60656-7.10769m21.04237 8.43471l-.22353.59619.87615.33839c.88185.34063 1.24961.71555 1.53342 1.35433.20596.45227.0666 1.37163-.41807 2.75812l-4.97565 14.23334c-.43925 1.25653-.83884 2.00902-1.19874 2.25747-.63936.45272-1.70102.43392-2.68596.0535l-.87616-.33839-.22352.59618 10.53567 3.73342.19938-.60496-.92389-.31368c-.88321-.29986-1.46659-.76455-1.75011-1.39408-.21403-.44838-.0911-1.37016.36872-2.76536l2.12318-6.44185c.18235.074.35709.15153.52962.21615.17252.0646.33701.11444.48809.16571.37187.12629.85774.27914 1.4576.45855l5.13157 13.06623 6.71478 1.85053.15739-.61757c-1.28284-.47924-2.27115-1.07112-2.96493-1.77562-.69382-.7045-1.62621-2.05211-2.33923-3.86147l-3.12003-7.96009c2.12856.21599 3.82356-.0429 5.07057-.78039 1.24697-.73738 2.05652-1.79923 2.44634-3.18038.36482-1.29274.26435-2.51752-.31441-3.69606-.57881-1.17852-1.19097-2.05282-2.28391-2.77789-1.09299-.72502-2.68994-1.42085-5.2001-2.27314l-8.13424-2.89718m23.07359 7.35056l-.15739.61757.56329.13868c.57341.133 1.09266.3949 1.55774.78569.32491.28758.51556.58527.57197.89308.072.40579-.0218 1.1857-.28164 2.33975l-3.31465 14.72283c-.30775 1.36696-.64533 2.19647-1.01275 2.48852-.57756.44376-1.36807.54926-2.37154.31654l-1.16584-.28748-.15739.61757 11.52383 2.42997.10028-.6297-.88911-.14586c-.58066-.0953-1.46752-.4092-1.93228-.78279-.34558-.27959-.55125-.57233-.61703-.87823-.0844-.40331-.0144-1.1858.21004-2.34749l2.86317-14.81997c.26583-1.37596.58392-2.21449.95426-2.5156.56372-.46168.99235-.63892 1.9964-.47425l.88912.14586.10028-.6297-9.43076-1.98499m11.78963 2.37195l-1.15218 5.36442.68951.11311c.25088-1.02993.37908-1.86344.90504-2.42201.52596-.55853 1.11844-.9059 1.77745-1.04211.50607-.0977.9714-.0928 2.13105.0105l2.98454.26581-1.53821 17.79191c-.11286 1.30521-.31939 2.12904-.6196 2.47148-.49093.55623-1.26127.78758-2.31104.69409l-.87888-.0783-.0549.63543 11.46434.62956.006-.63784-.86385-.009c-.968-.01-2.11147-.27448-2.55325-.77974-.31328-.37231-.43525-1.27591-.36593-2.71083l.86165-17.8388 3.12359.0652c1.02923.0101 1.48516.17914 2.12528.47586.64007.29678 1.15034.7642 1.54971 1.41894.24491.40651.44897 1.09019.61219 2.05107l.69813-.0212-.43724-5.47136-18.15344-.97675m19.5839.8963l.0435.63634.93516-.0658c.94127-.0661 1.27193.1861 1.80057.63676.37881.31686.64605 1.20658.80169 2.66916l1.59786 15.01463c.14107 1.32549.10252 2.17939-.11562 2.56165-.38267.6893-1.52763 1.09213-2.57891 1.16608l-.93516.0658.0435.63635 11.49405-1.27812-.0906-.63122-.96399.1425c-.92156.13623-1.64865-.0118-2.18123-.44411-.39012-.30237-1.02598-1.13892-1.18162-2.60154l-.71867-6.75315c.19611-.01.42325-.0321.60595-.0534.18269-.0212.35165-.0519.50929-.0753.38801-.0574.8896-.14309 1.50476-.25726l10.63837 9.11411 7.14385-1.74533-.16885-.61444c-1.34673.23805-2.80275.24348-3.74352-.0402-.94081-.28363-2.42863-.98066-3.89918-2.23357l-6.46076-5.52402c1.98458-.81017 3.35616-1.86704 4.11205-3.11482.75585-1.24774.9752-2.57176.67597-3.97598-.28009-1.31429-.93867-2.34563-1.9973-3.10689-1.05864-.76124-1.89958-1.23378-3.19912-1.36193-1.29957-.12809-2.8683-.01-5.48746.37728l-8.1845.85627m22.62496-3.91029l.16885.61444.84985-.24057c.9915-.28065 1.76056-.25971 2.30716.0628.39817.24528.79347 1.08199 1.18593 2.51011l4.0204 14.63021c.30118 1.09603.44149 1.83786.40307 2.23056-.0384.3927-.23097.73358-.55999 1.01763-.43758.39831-.93965.67764-1.50623.83803l-.84984.24057.16884.61444 19.26246-6.27255-.0171-6.25496-.68831.26235c-.24803 1.62922-.74907 2.96357-1.23011 3.89311-.3762.70882-.83424 1.25808-1.3741 1.64777-.53987.3897-1.6723.91137-3.00968 1.36221l-4.01216 1.35253c-.65124.21954-1.34712.36819-1.61961.31476-.2725-.0534-.488-.17266-.64646-.35777-.15847-.18509-.38967-.78034-.68855-1.76928l-2.2267-7.36756 5.21871-1.71447c.9885-.33321 1.76293-.4827 2.31219-.43672.54923.046.9941.22112 1.33459.52528.26775.24502.67002.87455 1.20683 1.88855l.64091-.23097-2.68271-7.66845-.6409.23097c.37018 1.28142.34228 2.2794-.0839 2.99402-.31775.54141-1.12886 1.04819-2.47786 1.50294l-5.19149 1.70564-2.67005-8.83449 6.2825-2.07606c1.17456-.39594 1.81516-.56447 2.33394-.56847.65695.0194 1.21711.18954 1.66317.51664.44601.32715.98433 1.0296 1.63229 2.10112l.56847-.20926-2.03177-4.69517-17.35259 5.64006m-68.49323-2.27872c1.52236.51689 2.43112 1.28729 3.09327 2.45389.66209 1.16661.7729 2.43567.34489 3.8292-.43814 1.42647-1.36616 2.42104-2.80157 2.97813-1.43547.55713-3.28976.45481-5.54427-.31065-.10459-.0355-.24002-.0755-.40092-.13613-.16092-.0607-.34905-.13673-.56985-.21169l3.03927-9.22133c1.21874.18354 2.16513.38971 2.83919.61856l-.00001.00002m55.13007 6.49754c1.58847-.23479 2.60049.0361 3.72003.75811 1.11951.72208 1.79736 1.79435 2.05467 3.23042.26337 1.47003-.10457 2.7879-1.12189 3.95689-1.01736 1.16905-2.70778 1.94132-5.06017 2.28904-.10914.0161-.24777.0424-.41834.0619-.17058.0195-.36911.0452-.60058.0706l-1.02876-9.66695c1.18299-.3493 1.75173-.59605 2.45504-.70003v.00003m46.6912-11.03681l7.42926 7.08474-7.98519 3.3231.55593-10.40784" style="text-align:center;line-height:125%;-inkscape-font-specification:Times New Roman" font-size="64" font-style="normal" font-variant="normal" font-weight="400" font-stretch="normal" writing-mode="lr-tb" text-anchor="middle" fill="#d4aa00" fill-opacity="1" stroke="none" stroke-width=".25" font-family="Times New Roman"/>
    <g id="g9312" transform="matrix(1.0689 .00707 -.0068 1.10992 -29.804036 -65.755095)" fill="#d4aa00" fill-opacity="1" stroke-width=".22951778" stroke="none" stroke-miterlimit="4" stroke-opacity="1" stroke-dasharray="none">
      <path d="M531.54957 522.09003c.58735.67748 1.20942 1.32095 1.80627 1.99035.32141.3579.56012.81698.92724 1.13383.0707.061.15335.10639.23003.15959.0715.0648.14292.12966.21439.19449.42039.36848.91453.64628 1.34644.99945.5151.27641.99138.61947 1.51378.88579.56901.25829 1.12773.53579 1.71297.76396.70429.26863 1.44145.42323 2.11133.77421.593.37384 1.03103.87691 1.40893 1.45856.15425.36077.30404.72038.45532 1.08307l-4.26375.17098c-.14406-.33455-.26313-.68283-.44942-.99634-.37629-.50946-.78713-.9589-1.37254-1.23547-.69395-.28376-1.42658-.46177-2.1186-.75395-.58224-.25341-1.15729-.51807-1.72105-.81088-.51439-.30342-1.03513-.60127-1.52257-.94623-.46773-.32249-.921-.66137-1.35174-1.03247-.52236-.45026-.92609-.99912-1.35187-1.539-.60691-.67457-1.22502-1.33864-1.83298-2.01221l4.25782-.28773z" id="path9282"/>
      <path d="M544.89809 532.48017c.11076 1.01547.20125 2.03254.25912 3.05239.007.14981.013.29961.0195.44942l-4.24037.0163c-.005-.14792-.01-.29585-.0148-.44377-.0471-1.00495-.11115-2.01276-.2926-3.00383l4.26912-.0705z" id="path9284"/>
      <path d="M486.88127 546.14708c-.0329-.55234.10827-1.09823.12489-1.64668.0153-.50478-.0956-1.02529-.17276-1.5213l-.0825-.38715 4.24687-.0783c.0216.13406.0432.26811.0648.40216.0785.53702.17835 1.08204.16188 1.62741-.06 1.98803-.0529-.73431-.0955 1.10272-.004.16709.0105.33411.0158.50117h-4.26347z" id="path9288"/>
      <path d="M490.54021 541.80088c.17587-1.12126.23995-2.26281.28991-3.4017l4.185.0266c-.0435 1.15858-.13526 2.31215-.2554 3.46224l-4.21951-.0871z" id="path9290"/>
      <path d="M496.0233 557.20626c.61267.57506 1.20236 1.18113 1.83932 1.73003.42675.49189.9864.82058 1.45793 1.26374.56697.36669 1.00177.88593 1.5101 1.32039.38886.37752.73711.80301 1.15248 1.15175.41254.40697.84694.80163 1.22219 1.24488 1.67825 1.8275.24971 1.10305 2.94044-2.34072.47689-.51838.88351-1.09171 1.32868-1.63662.4744-.55102.797-1.21362 1.04148-1.89389.082-.78267-.3934-1.27406-1.03462-1.62628-.45204-.26389-.98634-.18148-1.46946-.2896-.27656-.0619-.53145-.19729-.79984-.28831l4.20921-.53238c.76569.23551 1.59886.24447 2.28878.69213.70907.54883 1.16737 1.25309 1.05304 2.1846-.23485.71828-.5535 1.44872-1.04303 2.02865-.41269.58807-.9105 1.11421-1.33159 1.69943-.59145.51556-1.02376 1.21544-1.42182 1.88389-.51622.70546-.99509 1.43503-1.50995 2.14265-1.30672 1.82313-3.76538 1.57455-5.62376.36336-.55353-.34353-1.13757-.63569-1.6737-1.00728-.43779-.31963-.8562-.65057-1.20949-1.0665-.39828-.41119-.79101-.82982-1.22245-1.20682-.37953-.38458-.76017-.7681-1.14435-1.14804-.48168-.46326-.97484-.91136-1.50622-1.31756-.48993-.41631-1.02219-.78342-1.45252-1.2671-.60692-.57835-1.20629-1.16587-1.85126-1.70249l4.25041-.38189v-.00002z" id="path9292"/>
      <path d="M505.15541 529.50479c-.0847 1.04654.00084 2.07812.15115 3.11239.0993.61396.4523 1.05819.80758 1.53637.34422.36605.73608.68625 1.06463 1.06689.42715.26793.8093.59789 1.22506.88346.39107.33389.72413.7313 1.12044 1.05831.35063.39693.76715.71117 1.03835 1.17296.18908.36687.6497.6513.74376 1.06905.0291.12938.011.265.0165.3975-.0745.97709-.22838 1.91068-.76199 2.74466-.48961.68481-1.2196 1.11182-1.9452 1.50536-.69159.31495-1.32782.70529-1.94879 1.13986-.52878.42746-.99624.91852-1.49552 1.37794-.66288.4976-1.33002.98696-1.98794 1.49129-.70819.53505-1.38691 1.10575-2.12511 1.59983-3.8722 3.05289-6.47174 1.28745-4.77856-.37151-.49282 1.12743-.37074.34087-.6659 1.59429-.3112.75296-.32531 1.58178-.56687 2.34842-.0467.10795-.0934.2159-.14015.32385l-4.25377-.18266c.0469-.0966.0938-.19324.14069-.28986.31339-.72882.23289-1.59756.58477-2.32791.0572-.17892.22045-.66869.25494-.85879.10773-.59389.10521-1.21344.31257-1.79046.0264-.0906.35674-1.16916.37389-1.17166 4.09918-.59569 3.81952-1.61763 4.48116.014.54291 1.0343.18069 1.00096.60889 1.64642.77077-.43403.85253-.39609 1.55195-.93339.66999-.45587 1.2561-1.03533 1.96653-1.43747.49805-.48291 1.004-.94697 1.50251-1.42738.61176-.48226 1.26111-.88352 1.96506-1.21598.70507-.31179 1.4176-.71828 1.92878-1.30111.58771-.69213.68428-1.57203.73453-2.45373-.0405-.48908-.53089-.82172-.75944-1.23878-.30423-.39099-.68937-.71109-1.03161-1.06815-.3584-.35288-.72151-.70294-1.11625-1.01541-.40981-.32205-.86743-.58607-1.23224-.96127-.36806-.35853-.73797-.71753-1.06622-1.11362-.3977-.52512-.68494-1.0938-.78746-1.75313-.13613-1.05467-.1782-2.10676-.17423-3.17019h4.26348v-.00039z" id="path9294"/>
      <path d="M515.22213 520.5807c.90769-.39477 1.77552-.85287 2.72672-1.14166 2.01296-.44378 4.24924-.63196 6.16616.16154.5389.28231.8375.77959 1.22073 1.22279.48879.68839.7007 1.52513.94817 2.32056.15888 1.09744.2825 2.26117.0403 3.35408-.24497.86037-.92315 1.45191-1.61042 1.97446-.62987.49187-1.38149.77415-2.10436 1.09645l-4.22505-.47478c.69312-.36305 1.47516-.55543 2.10377-1.03347.65462-.39574 1.31351-.93907 1.59287-1.66981.29971-.98727.13391-2.11058-.008-3.11263-.26073-.74633-.48682-1.53493-.99112-2.16033-.66602-.36426-1.39453.0189-1.63392.0121l-4.22603-.54928v-.00005z" id="path9296"/>
      <path d="M511.38511 532.55603c-.94503-.47425-1.56746-1.26643-1.89554-2.25745-.10967-.76953.16675-1.3813.79853-1.81088 2.10226-.64575 4.54736-.78368 6.64882-.088.69623.19584 1.2671.59453 1.70161 1.16568.4643.47497.74893 1.09325.9675 1.71289.3208.96878.45946 1.98116.65144 2.97994.18365.90403.27512 1.82121.32064 2.74135-.0918.97212-.46647 1.83632-.89649 2.6964-.40961.72098-1.05057 1.19716-1.7369 1.6298-.72699.38926-1.46229.77549-2.2243 1.09246l-4.21602-.51304c.77143-.25932 1.46425-.68126 2.21081-1.0032.63017-.41441 1.29291-.75572 1.72645-1.40363.42306-.83735.79248-1.51344.88759-2.4791-.0389-.89927-.11883-1.79661-.29424-2.68084-.18794-.9776-.42076-2.51161-.77339-3.4473-1.15845-.95355-1.18968 1.4131-.9933 1.52873l-2.88321.13621v-.00002z" id="path9298"/>
      <path d="M529.03483 539.69317c.55284.88657 1.01125 1.83915 1.30389 2.84326.22108.91732.38892 1.77187.11844 2.69032-.24798.79283-.83276 1.41036-1.41929 1.97338-.65379.55566-1.41413.95937-2.1347 1.41849-.82536.59129-1.68668 1.12812-2.56428 1.63767-.79068.50422-1.6667.84055-2.48382 1.29647-.79268.40607-1.48081.96643-2.17408 1.51643-.54358.27977-.88091.84992-1.28452 1.3091.13917-.0275.70954-.62869 3.02154-.47481.0779.005.11664.11087.14572.18331.0992.24727.024.55125-.018.80019-.16109.86944-.18875 1.7554-.21503 2.63696.0779.97241-.21958 1.88426-.45504 2.81218-.16858.97367-.68959 1.80137-1.27744 2.5739-.57032.70473-1.29737 1.20268-2.11343 1.57486-.5958.26158-1.20321.49329-1.80886.73027l-4.22671-.49124c.58548-.28426 1.22275-.45651 1.81709-.72512.78428-.34952 1.53577-.70095 2.11358-1.36887.5743-.71579 1.09504-1.47737 1.25478-2.40012.2325-.90019.54386-1.77325.46338-2.71959.0315-.89875-.0736-1.29277.048-2.18483-.77274-.0118 1.05184.32844-2.9678-.31566-.57053-.0777-1.16159-.31543-.70249-.98937.6185-.51231 1.38825-.79723 1.98369-1.34323.72786-.51626 1.36134-1.1773 2.1806-1.5644.80805-.49676 1.68901-.81538 2.49752-1.30529.88757-.46859 1.73269-1.02335 2.54849-1.60764.696-.46986 1.42667-.87139 2.11942-1.34267.54333-.51518 1.1484-1.03316 1.39834-1.76304.0591-.16596.1698-.43815.17934-.61897.032-.60657-.16333-1.22606-.27034-1.81451-.29929-.95363-.724-1.88405-1.33577-2.67959l4.25782-.28773v-.00011z" id="path9300"/>
      <path d="M512.02692 566.78834c.12616.85242-.12369 1.70314-.256 2.5423-.003.4171-.0107.21118.0206.61778l-4.26021.0283c-.0266-.46348-.0231-.22585-.007-.71292.12632-.79148.39426-1.60576.23364-2.40496l4.26912-.0705z" id="path9302"/>
      <path d="M507.27075 570.81057c-.18011.92673-.24871 1.87-.2946 2.81142-.005.15981-.0104.31962-.0156.47943l-4.23475-.0151c.006-.16172.0125-.32344.0187-.48516.0476-.95718.12614-1.9113.25711-2.86112l4.26912.0705z" id="path9304"/>
      <path d="M528.90094 534.14146c.043.87113-.051 1.69146-.28992 2.52624-.11411.41605-.0763.21792-.12455.59213l-3.67431-.0502c.0603-.42633.0158-.20988.13833-.64833.2653-.87182.36007-1.49388.27159-2.41981h3.67886z" id="path9306"/>
      <path d="M524.55986 538.05579c-.17099.71758-.22492 1.44888-.26514 2.17798-.0169.43708-.0272.23037.0201.62044l-3.82923.0252c-.0323-.42869-.0288-.20825-.006-.66136.0483-.74015.11179-1.47993.23215-2.21481l3.84803.0525z" id="path9308"/>
      <path d="M530.44054 533.68927c1.97927-.80645 4.46302-1.0459 6.46486-.38248.58328.21835 1.09798.63039 1.51338 1.0909.42222.44234.87579.86176 1.26715 1.33214.39666.48948.76789.98177.98733 1.57691.2101.70345.21078 1.44121.22181 2.16838-.028.80057.0909 1.61674-.0809 2.40294-.1781.6668-.51235 1.23634-.88146 1.80919-.51152.73828-1.15219 1.36991-1.74466 2.04054-.65386.82693-1.29233 1.65134-2.19944 2.20736-.34544.1697-.70586.30454-1.06503.4413l-4.21892-.52605c.36319-.11052.69921-.26986 1.06522-.37184.9515-.4383 1.58504-1.21836 2.20639-2.04419.54083-.68483 1.18178-1.28151 1.70305-1.98365.15553-.25965.39291-.50444.52955-.76965.14674-.2848.18435-.63244.35026-.9116.23121-.72433.0291-1.5359.0901-2.28614-.0159-.67544-.0199-1.36669-.23612-2.01417-.23455-.53406-.60735-.98889-.98358-1.43074-.41456-.43934-.82012-.888-1.25472-1.30776-.43057-.38745-.3709.34058-.95256.23458-.90116.41009-1.60607.0576-2.7817-1.27582l.00001-.00015z" id="path9310"/>
    </g>
    <g id="g9351" transform="matrix(1.21213 0 0 1.09203 505.25284 -27.717262)" fill="#d4aa00" fill-opacity="1" stroke-width=".21729448" stroke="none" stroke-miterlimit="4" stroke-opacity="1" stroke-dasharray="none">
      <path id="path9328" d="M-195.375 496.625c-.3926-.0116-.80646.15021-1.1875.53125-.36121.42831-.73103.85929-1.0625 1.3125-.35063.47939-.12914.24836-.375.5-.44155.50344-.79181 1.07602-1.125 1.65625-.43259.79033-.48725 1.65582-.40625 2.53125.0679.54588.0774 1.07559.0937 1.625-.0112.19345.0256.39834.0312.59375v.0312c.00057.0308.00066.0631 0 .0937-.006.005-.0257-.005-.0312 0-.002-.013.005-.0239 0-.0312.009-.0236.0227-.0389.0312-.0625-.014.0173-.0432.0209-.0625.0312-.0199.0107.0531-.0685.0312-.0625-.059.0154-.10275.0645-.15625.0937-.19823.10843-.41944.18735-.625.28125-.59145.27912-1.19405.4816-1.8125.6875-.45239.14495-.94417.20989-1.40625.3125-2.0974.49702-1.37865 3.46578.71875 2.96875.54166-.15225 1.1283-.1582 1.65625-.375.72545-.24574 1.4298-.48593 2.125-.8125.27464-.12952.54646-.28776.8125-.4375.0424-.006.0814.009.125 0 .51888-.1131 1.03137-.29209 1.53125-.46875.58121-.23868 1.12116-.54066 1.6875-.8125.53235-.29246 1.06537-.60643 1.59375-.90625.54953-.33474 1.12003-.60384 1.6875-.90625.59112-.36082 1.13951-.77761 1.71875-1.15625 1.92792-.96396.58417-3.68271-1.34375-2.71875-.67803.36586-1.27124.86683-1.9375 1.25-.57542.2875-1.13357.57838-1.6875.90625-.49578.28132-1.00062.56951-1.5.84375-.0568.0235-.10079.0674-.15625.0937-.0201-.45882-.0382-.91872-.0937-1.375-.0263-.2631-.0814-.49903.0312-.75.2141-.40859.48259-.77558.78125-1.125.44667-.53481.8579-1.10522 1.28125-1.65625 1.14312-1.14312.20904-2.65283-.96875-2.6875z"/>
      <path d="M-189.42866 513.26667c-1.33692-.27512-2.00536-.79906-2.66755-1.99484-.3283-.78173-.54788-1.63421-.30408-2.47494.05-.17259.14084-.33066.21126-.49598.54192-.95271 1.43704-1.35274 2.47307-1.52311.78579-.13676 1.54115-.0117 2.29271.21987.58669.17797 1.06996.55128 1.58962.85649.42357.25554.77711.60064 1.15874.90931.47848.43321.79182.99633 1.06624 1.57169.48361.73656.60455 1.3457.47901 2.23466-.11657.77172-.51206 1.41936-.97896 2.02367-.43565.5409-.96805 1.00723-1.51063 1.4384-.50226.40179-1.07114.70825-1.60111 1.07081-.51992.30744-1.05663.5812-1.56262.91207-.51578.3798-.97747.81959-1.49928 1.1933-.279.34469-1.12453.54007-1.36755.84959-.007.11585-.38725.18942-.44039.33631-1.5222 1.52611-3.68045-.62661-2.15824-2.15272.23204-.21822.45696-.44406.73909-.59903.48273-.3495 1.01753-.59945 1.5004-.94627.57183-.34066.97858-.91714 1.56822-1.23932.49454-.31846 1.00667-.60422 1.52215-.88539.48304-.32037.99089-.60614 1.44797-.96107.40014-.26976.75153-.64793 1.0587-1.01345-.0748.29457.14967-.31065.20101-.30343.0427.006-.0306.16879-.0161.12825.0474-.13171.0541-.27549.10013-.40781.0892.0967.0112.006.10651.32029.057.18761-.001-.061-.0712-.20173-.0857-.17293-.19602-.33309-.27915-.50729-.11141-.24984-.17558-.33791-.30715-.54434-.0117-.0184.0348.0263.0522.0395-.008-.0111-.015-.0221-.0226-.0332-.25034-.21648-.48941-.44128-.7656-.62597-.30342-.18673-.5865-.40051-.90788-.55037-.32248-.0996-.58947-.19686-.94102-.11838-.2376.0269-.22303.0434-.19024-.14752-.024-.6093-.0204.0801.068.23401.0189.0576.0941.13831.0464.17576-.0243.0191-.10928-.0264-.0926-.00049.0891.13829.37028.139.50348.20585 2.12616.35436 1.62502 3.3612-.50114 3.00684z" id="path9332"/>
      <path d="M-174.33198 519.6772c.3202.79713.65923 1.64952.63228 2.52592-.007.22061-.058.43761-.087.65641-.3234 1.13613-.94943 1.6897-1.95647 2.21448-.64904.27601-1.31897.47601-2.01326.59573-.78926.10968-1.53117.12239-2.31791.005-.63156-.21364-1.28883-.31088-1.92583-.49959-.46153-.21767-.94388-.32566-1.44676-.38406-.38737.0893-.79799.0631-1.18244.16244-.37808.0844-.62569.0538-.78939.28298-.0276.0211.0262.0276.0187.0403-.16827.28287-.31084.49368-.41227.80634.0312.00051-.004.10116.022.0864.1296-.0743-.12949-.38441.11423-.15125.56757.46802 1.08195.99875 1.66802 1.44474.31816.26953.65782.51254.97518.78288.29024.24724.14527.20498.29659.24288.26733.25672.48689.27402.82228.38828-.17065.0346.64803.16345.42963.12546-.40263-.0701-.14998-.10296-.49402-.0178.0332-.0266.0806-.0417.0995-.0798.0118-.0237-.0478.0258-.0742.0288-.0263.003-.0115-.053-.007-.0791.006-.0333.0296-.13162.0187-.0996-.0272.0799-.0452.16257-.0678.24386l.0342.33225c-.82282-1.99226 1.99466-3.1559 2.81748-1.16364.0649.24025.12976.48049.19464.72074-.0169.23845-.0126.47935-.0507.71535-.12975.80403-.70214 1.51866-1.35089 1.96721-.21282.10428-.41698.22852-.63847.31283-.63269.24082-1.3314.0946-1.93956-.13689-.26158-.11322.26116.10924-.44879-.14117-.40034-.14121-.77038-.35448-1.09838-.6231-.47367-.35511-.91729-.74781-1.38621-1.11028-.73099-.57344-1.40789-1.21212-2.09033-1.84194-.8077-.96262-1.04802-1.74475-.71806-2.96886.29264-.79239.69321-1.5434 1.29252-2.14846.64497-.51484 1.34204-.85373 2.1705-.94962.70615-.12723 1.42829-.21653 2.14653-.19767.70156.0893 1.39663.22717 2.04539.51998.1469.11266.0139.0226.40673.0974.39882.0759.79507.17598 1.17856.30934-.1394.0622-.0838.0282.2099.0223.25897-.005.51795-.0138.77626-.0337.0676-.005.13513-.0125.2027-.0187.40754-.0625.79283-.18755 1.17889-.32983.25815-.0722-.3134.0954.2659-.1487.0535-.0226-.11784.16883-.06.1636.11255-.0102.0445-.21366.0869-.0457.18527-.045-.21462-1.0917-.27495-1.26144-.96396-1.92792 1.76254-3.29117 2.7265-1.36325z" id="path9334"/>
      <path d="M-180.60325 537.89012c.23305 1.15408.0507 1.98487-.55867 2.97998-.64318.87247-1.57254 1.26334-2.59613 1.49772-.75522.14955-1.52656.16163-2.29349.16915-.86132.0694-1.69097-.16134-2.52232-.34623-.54499-.10864-1.10001-.14301-1.65414-.16211-.29938.0136-.804.0359-1.06406.15381-.1277-.001-1.05951.37882-1.0342.42013-.11237.11812-.3991.18197-.47797.35513-.004.01.027.0524.0294.0644-.0568.31279.0143.61307.0583.92337.0936.22413.14829.46911.31777.65019.21105.0911.41191.31835.65024.41194.27612.17954.57271.25011.89454.28108.33039.00099.67166.0721 1.00205.0388.0429-.004-.094.009-.12814-.0178-.0186-.0144.0414-.0222.0621-.0332.55888-.24193 1.15396-.35299 1.75565-.41763.62096-.0465 1.24418-.0448 1.86648-.0454.65302-.0116 1.29939-.01 1.94492.0974.92317.2282 1.41101.60201 1.91735 1.4155.35722.57693.46894 1.23661.52568 1.90046.0211.30439.0232.60958.0271.91452.0266 2.15533-3.02148 2.19296-3.04809.0376-.003-.23608-.004-.47234-.0175-.70813-.0127-.17936-.009-.37635-.0808-.5429-.0395-.0643-.11727-.11746-.11852-.19292-.00012-.007.0608.10907.26915.21685.0233.012.0969.0364.0759.0207-.0859-.064-.17531-.0423-.0694-.058-.46923-.0879-.94631-.0426-1.42284-.0529-.5199.00048-1.04032-.00093-1.55952.0296-.35569.033-.69927.0972-1.02606.25072-.77156.25909-1.54211.26983-2.34475.17246-.68164-.0907-1.34696-.25282-1.94419-.60902-.62085-.34316-1.21392-.75498-1.68061-1.29515-.4358-.61589-.74582-1.29362-.88694-2.03941-.11138-.79389-.17315-1.58869.086-2.36433.32403-.82704.82772-1.50314 1.6233-1.93472.60685-.36845 1.24801-.66993 1.94376-.83372.63968-.15477 1.3022-.27415 1.96225-.25602.74059.027 1.48177.0806 2.2087.23312.61002.13609 1.19832.33683 1.83068.27344.55747-.005 1.11862-.006 1.66995-.0987.24633-.0492.48849-.0928.70158-.19495.26039-.25898.1612-.42805.0988-.80392-.35436-2.12616 2.65248-2.6273 3.00684-.50114z" id="path9336"/>
      <path id="path9338" d="M-213.25 499.65625c-.21857.003-.43985.0501-.6875.15625-.82205.3942-1.5708.91205-2.3125 1.4375-.50475.3945-.96716.81745-1.4375 1.25-.67095.66366-1.03409 1.1991-1.3125 2.125-.002.01.002.0213 0 .0312-.39258-.0773-.78905-.11428-1.1875-.15625-.71099-.0624-1.4431-.0595-2.15625-.0625-.66901.0437-1.33205.1314-2 .1875-1.02733.10294-1.65608.52709-2.34375 1.28125-.38753.54469-.20687.22437-.53125.875-.88639 1.9648 1.89487 3.24605 2.78125 1.28125.002-.0894.008-.05.0625-.15625.04-.054.1624-.14508.1875-.1875.0531-.0143.004.005.125-.0312.57808-.05 1.1442-.13805 1.71875-.21875.61368.002 1.23164.0126 1.84375.0625.43704.0422.85661.1081 1.28125.21875.0354.38547.10132.77243.15625 1.15625.005.0454-.006.0797 0 .125-.0736.0618-.21888.86933-.25 1.03125.0123-.0121-.004.0145 0 .0312-.22908.25117-.45452 1.03046-.53125 1.34375-.17175.64061-.074 1.2987.0312 1.9375.11765.65065.39436 1.2315.75 1.78125.35192.49886.77115.90671 1.25 1.28125 1.81123 1.16857 3.46749-1.39393 1.65625-2.5625-.13307-.1243-.28684-.24603-.34375-.375-.12916-.1996-.2551-.3593-.3125-.625-.0602-.36214-.1178-.45201-.0625-.75.0965-.51261.45277-.92446.5625-1.4375.1458-.74143.42175-1.45201.28125-2.21875-.0729-.50561-.19935-1.01704-.15625-1.53125.007-.49495.029-.98139.125-1.46875.0108-.0515.0305-.10365.0312-.15625.0002-.0106-.0342-.0206-.0312-.0312.0548-.22765.3605-.32047.4375-.53125.37346-.34933.72626-.71093 1.125-1.03125.56119-.40417 1.13779-.77019 1.75-1.09375 1.73355-.74295 1.03-2.98967-.5-2.96875z"/>
      <path d="M-203.72931 521.48797c-.003-.53678.15356-1.06683.16096-1.60209.00018-.0134-.0267-.0126-.0312-.0252-.0201-.0571-.0268-.11804-.0401-.17706-.0692-.5336-.1742-.64824-.4953-1.03422-.41038-.49759-.91765-.94545-1.46602-1.28998-.21912-.0848-.60609-.30551-.84758-.19653-.38287.0294-.75347.11425-1.09475.29435-.51062.27467-1.02687.53766-1.55875.77226-.49106.16267-.89599.43481-1.31422.72283-.54042.41958-1.10147.80743-1.6665 1.19335.0229.12394-.57148.22768-.63126.3952-.01.027.0557-.0159.08-.0309-.0631.0947-.12611.18934-.18916.28401-.20775.25845-.201.49763-.18718.80197-.008.45094.13341.85521.32939 1.2495.16133.28532.50107.40637.77417.57359.4753.26202.9675.4967 1.48734.65489.95415.27086 1.55657.94533 1.98244 1.80289.22451.60349.12483.24417.22459 1.09588-.01 2.15547-3.05779 2.14203-3.04829-.0134.094.32704.11071.40012.0654.2152-.02-.0579-.13306-.14754-.0752-.1676.0174-.006.40666.23195-.0728-.028-.74999-.24434-1.47395-.56269-2.15611-.96067-.7734-.47432-1.51833-.97896-1.9183-1.83031-.38882-.7996-.63354-1.64344-.64046-2.5398-.004-.92256.1622-1.79561.70928-2.56078.44974-.64726.8078-1.13423 1.55579-1.46487.56271-.37937 1.11413-.76914 1.65229-1.18367.58204-.39738 1.16937-.76426 1.83457-1.00961.50818-.20629.97707-.48471 1.46582-.73045.72813-.32832 1.48867-.55154 2.29263-.58249.9354.004 1.82492.19334 2.62824.70056.79403.53802 1.55386 1.16925 2.15648 1.91782.56406.71003 1.00282 1.46934 1.11914 2.38508.13816.79657.0982 1.57309-.037 2.36831 0 2.15549-3.04832 2.15549-3.04832 0z" id="path9342"/>
      <path id="path9344" d="M-194.78125 522.03125c-.85738-.0108-1.73058.67903-1.53125 1.875.1049.6957.11955 1.39793.21875 2.09375.0793.63942.3164 1.22356.5625 1.8125.16483.31929.33959.64785.5.96875-.0167.0142-.01.0106-.0312.0312-.0482.0524-.10535.10538-.15625.15625-.19322-.20321-.41025-.37973-.625-.5625-.41398-.41512-.85435-.83224-1.34375-1.15625-.55548-.39107-1.13433-.72014-1.78125-.9375-.74917-.23406-1.53415-.3968-2.3125-.5-2.13382-.30483-2.54007 2.72642-.40625 3.03125.6152.0797 1.22124.18832 1.8125.375.33595.12586.61824.31762.90625.53125.3492.22418.67946.48398.96875.78125.0478.0455.10741.0805.15625.125-.58459.33835-1.0561.8194-1.59375 1.21875-.51159.41562-1.02065.83401-1.53125 1.25-.55119.32612-1.07103.71631-1.5625 1.125-.54136.59386-1.12617 1.17826-1.65625 1.78125-1.40518 1.6345.90732 3.60326 2.3125 1.96875.40008-.49013.92926-.89934 1.3125-1.40625.48613-.40431.96759-.75053 1.5-1.09375.49147-.40473 1.00702-.81557 1.5-1.21875.46599-.37319.88727-.79161 1.40625-1.09375.039-.0246.0861-.0377.125-.0625.0833.13469.16659.27184.25.40625.3649.54543.72122 1.08517 1.09375 1.625.26549.38999.60938.70039.90625 1.0625.168.16556.32963.33703.5.5 1.58438 1.46146 3.64688-.78855 2.0625-2.25-.1067-.0779-.17027-.20935-.28125-.28125-.23669-.26039-.47048-.50362-.6875-.78125-.3462-.49236-.69242-1.00197-1.03125-1.5-.0851-.13676-.16521-.26909-.25-.40625.20984-.17392.38013-.35781.5625-.5625.84452-.89134 1.29095-1.80219.84375-3.03125-.20963-.43062-.42492-.86287-.65625-1.28125-.15281-.35757-.30425-.69645-.34375-1.09375-.13342-.69776-.102-1.42673-.25-2.125-.15503-.9302-.8019-1.36664-1.46875-1.375z"/>
    </g>
    <path d="M366.09874 334.51725c-8.35061 3.38513-11.10312 20.63324-18.09165 24.15204-7.8752 7.73524-16.96349 5.10572-23.00911 14.65706-.48639 2.09485-5.22646 7.06661-5.59672 9.79463 3.06452-2.66777 5.34339-4.67478 7.3336-6.42945 6.07683-8.29987 13.66717-7.08933 20.91237-14.15835 4.9232-3.11275 12.58699-15.49068 15.18943-20.68733-.12922-1.33729 3.07532-4.85099 3.26208-7.3286z" id="path9374" fill="#806600" fill-opacity="1" stroke="none" stroke-width="1.5"/>
    <path d="M313.71875 384.8125c-2.25097 1.19583-1.45571 5.61242-2.77013 7.69555-.97693 6.70162 3.29228 9.9137 2.50499 16.60391-1.4498-2.10824-2.11952 6.94797-3.48083 8.4979-.5348 3.04081-2.05592 8.1197-.12807 10.8911 3.0121.59478-.45603-6.41307 1.12404-8.00096 2.53531-6.63051 5.11005-13.6959 3.5-20.78125-.97499-4.99099.30165-7.11333-1.27416-11.70168-.30819-.1099.86304-3.32748.52416-3.20457z" id="path9376" fill="#806600" fill-opacity="1" stroke="none" stroke-width="1.5"/>
    <path d="M456.09375 357.59375c-2.7016 1.47038.5103 6.11724-.4375 8.59375 1.11582 4.83605-.34063 9.62298-4.9375 11.9375-2.739-.40036-4.77107 4.58831-1.34375 3.65625 5.89701-2.64645 10.64203-8.47242 8.75952-15.28101-.94145-2.1143 1.2005-8.78519-2.04077-8.90649z" id="path9380" fill="#806600" fill-opacity="1" stroke="none" stroke-width="1.5"/>
    <path d="M419.34681 380.5485c-1.20587 2.94873 3.95559 9.49071 4.05944 11.9515.88651 3.61166 2.64774 7.61057-.125 9.96875-.98059 3.6726-6.32027 5.78581-6.03125 9.6875 2.63748 2.08867 3.90178-4.23569 5.96875-5.125 5.82133-5.58413 4.29239-14.85947-.57495-20.63069-.35028-.48606-2.60083-5.99996-3.29699-5.85206z" id="path9382" fill="#806600" fill-opacity="1" stroke="none" stroke-width="1.5"/>
    <path d="M371.96971 365.29333c-1.80129 1.05782-2.31681-.18087-5.09681 1.37806 3.28781 1.59171 6.80292-1.37508 9.40931 2.99694 4.83549 4.10483 6.18867 13.77394 12.7107 15.79027 9.98032 6.12101 9.13169 16.79614 15.6018 25.33473.42057 2.18463 4.47893 3.21777 3.5625.3125-8.00005-8.18364-5.96175-22.12607-15.78125-29.15625-3.52972-2.33406-7.85891-3.91197-9.40625-8.3125-2.8703-3.23367-5.89391-8.90064-11-8.34375z" id="path9384" fill="#806600" fill-opacity="1" stroke="none" stroke-width="1.5"/>
    <path d="M395.61312 416.45482c-2.73178 1.77271 1.00996 1.58362 1.13612 3.79543 2.94726 6.09855-2.40862 13.66958 1.22584 22.29027 1.27061-4.22962 2.81464-7.6744 2.80541-9.35277.29632-6.99983-.266-14.93329-5.875-19.8125-.20199.005-.417-.0166-.5625.0312l1.27013 3.04837z" id="path9386" fill="#806600" fill-opacity="1" stroke="none" stroke-width="1.5"/>
    <path d="M382.24945 350.05424c4.90437 6.69016 22.74314 5.59822 27.53721 11.05698 9.1933 5.3808 8.18204 13.95235 18.87285 17.34462 2.19391.002 8.04504 3.17596 10.85478 2.94573-3.23324-2.16382-5.66088-3.76818-7.78293-5.16892-9.43795-3.67563-9.58445-10.63298-17.99462-15.59302-4.01466-3.71596-17.83856-7.96102-23.53175-9.1995-1.32153.38754-5.43058-1.72716-7.95554-1.38589z" id="path9374-9" fill="#806600" fill-opacity="1" stroke="none" stroke-width="1.5"/>
  </g>
</svg>
