<svg xmlns="http://www.w3.org/2000/svg" xmlns:xlink="http://www.w3.org/1999/xlink" id="svg2" version="1.0" viewBox="0 0 229 315">
  <defs id="defs1502">
    <linearGradient xlink:href="#linearGradient1104" id="linearGradient1112" x1="579.87531" y1="504.89999" x2="556.85339" y2="505.81879" gradientUnits="userSpaceOnUse" spreadMethod="pad" gradientTransform="scale(.83502 1.19758)"/>
    <linearGradient xlink:href="#linearGradient1104" id="linearGradient1113" x1="422.62341" y1="473.47885" x2="399.52225" y2="473.27695" gradientUnits="userSpaceOnUse" spreadMethod="pad" gradientTransform="scale(.77738 1.28637)"/>
    <linearGradient xlink:href="#linearGradient1104" id="linearGradient1114" x1="388.75613" y1="507.16043" x2="677.39972" y2="508.67264" gradientUnits="userSpaceOnUse" gradientTransform="scale(.82263 1.21561)" spreadMethod="pad"/>
    <linearGradient xlink:href="#linearGradient1104" id="linearGradient1115" x1="401.70474" y1="524.80255" x2="694.56317" y2="526.33679" gradientUnits="userSpaceOnUse" gradientTransform="scale(.849 1.17786)" spreadMethod="pad"/>
    <linearGradient xlink:href="#linearGradient1104" id="linearGradient1107" x1="261.05835" y1="1065.8074" x2="181.35222" y2="1059.132" gradientUnits="userSpaceOnUse" spreadMethod="pad" gradientTransform="scale(1.74583 .5728)"/>
    <linearGradient xlink:href="#linearGradient1104" id="linearGradient1108" x1="378.8913" y1="558.24683" x2="336.02377" y2="554.87988" gradientUnits="userSpaceOnUse" spreadMethod="pad" gradientTransform="scale(.93464 1.06993)"/>
    <linearGradient xlink:href="#linearGradient1104" id="linearGradient1109" x1="517.97168" y1="553.73804" x2="456.45142" y2="558.11902" gradientUnits="userSpaceOnUse" spreadMethod="pad" gradientTransform="scale(.93635 1.06798)"/>
    <linearGradient xlink:href="#linearGradient1104" id="linearGradient1110" x1="472.37363" y1="578.68079" x2="445.2876" y2="580.19781" gradientUnits="userSpaceOnUse" spreadMethod="pad" gradientTransform="scale(1.00276 .99725)"/>
    <linearGradient id="linearGradient1104">
      <stop offset="0" id="stop1105" stop-color="#a43907" stop-opacity=".996078"/>
      <stop offset="1" id="stop1106" stop-color="#fff" stop-opacity="1"/>
    </linearGradient>
    <linearGradient xlink:href="#linearGradient1104" id="linearGradient1111" x1="359.57736" y1="570.02124" x2="333.534" y2="569.53516" gradientUnits="userSpaceOnUse" spreadMethod="pad" gradientTransform="scale(.97609 1.0245)"/>
  </defs>
  <g id="layer1">
    <g id="g1201" transform="matrix(1.26459 0 0 1.32232 -341.821 -326.9862)">
      <path d="M328.128 536.42s4.062 3.75 4.375 3.125c.312-.625 1.562-3.125.625-3.125-.938 0-5 .313-5 0zm116.564 0l.312 4.063s5.938-3.438 5-3.438c-.937 0-4.687-.625-5.312-.625zM330.94 510.482c-.625.313-7.812-1.25-10.312 2.188-2.5 3.437-4.375 11.562-6.875 14.375-2.5 2.812-7.5 6.562-8.438 8.125-.937 1.563.313 4.375.313 4.375s-2.5 0-4.688 3.125c-2.187 3.125-2.187 8.438-.625 10.313 1.563 1.875 8.75 20.625 11.875 22.812 3.125 2.188 12.813 2.5 17.5.313 4.688-2.188 10.626-6.25 10.938-6.25.313 0 22.48 7.714 49.063 8.125 25.616.406 48.75-7.813 48.75-7.813s13.751 8.125 20.001 7.5c6.25-.625 10.625-2.5 10.625-4.687 0-2.188 11.25-22.188 10.625-25-.625-2.813-1.563-6.563-3.75-7.188-2.188-.625-2.813-.625-2.813-.625s.313-4.375-1.562-5.937c-1.875-1.563-3.75-2.501-3.75-2.501s-6.875-18.75-10.625-19.687c-3.75-.938-8.75-2.188-9.063-2.188-.312 0-25.625 24.688-25.313 24.688.313 0 .625 6.875 1.25 9.063.625 2.187 1.875 5 1.563 5-.313 0-23.438 6.875-36.875 5.625-13.438-1.25-35.626-4.688-35.626-4.688s3.125-12.812 1.563-16.875c-1.563-4.063-24.688-21.25-23.751-22.188z" id="path1200" transform="translate(-28.90953 -92.49622)" font-size="12" fill="#fff" fill-rule="evenodd" stroke-width="1pt"/>
      <g id="g1148" transform="translate(-24.12399 -254.043)">
        <path d="M328.44 576.109c1.25-1.25 3.437-7.188 6.875-7.188 3.437 0 16.25 7.813 16.25 7.813l2.5 22.813s-9.688-11.563-13.75-11.563c-4.063 0-10.625 8.125-10.938 8.125-.312 0-5-9.063-4.375-10.313s3.125-8.437 3.438-9.687z" id="path1096" transform="translate(-12.50011 105.6257)" fill="url(#linearGradient1111)" fill-opacity="1" fill-rule="evenodd" stroke="#000" stroke-width="1.32283452" stroke-linecap="butt" stroke-linejoin="miter" stroke-opacity="1"/>
        <path d="M445.628 595.484s5.625-8.75 10.313-8.125c4.687.625 9.062 6.25 9.375 6.562.312.313 7.187-7.187 6.875-7.5-.313-.312-7.188-16.562-10.938-17.187-3.75-.625-11.25.625-11.25 1.25s-4.375 25-4.375 25z" id="path1097" transform="translate(-12.50011 105.6257)" fill="url(#linearGradient1110)" fill-opacity="1" fill-rule="evenodd" stroke="#000" stroke-width="1.32283452" stroke-linecap="butt" stroke-linejoin="miter" stroke-opacity="1"/>
        <path d="M433.128 586.109c0 .625 1.875 23.75 10 31.875s21.25 13.125 25.938 11.875c4.687-1.25 15.312-24.687 15.312-24.687s-11.25 11.25-19.687 9.375c-8.438-1.875-13.438-15.938-15-22.813-1.563-6.875-.313-20.313-.313-20.313l-16.25 14.688z" id="path1098" transform="translate(-12.50011 105.6257)" fill="url(#linearGradient1109)" fill-opacity="1" fill-rule="evenodd" stroke="#000" stroke-width="1.32283452" stroke-linecap="butt" stroke-linejoin="miter" stroke-opacity="1"/>
        <path d="M345.627 573.609c0 .312 4.375 33.75-11.875 38.125s-22.187-7.5-22.187-7.5 8.75 24.375 11.875 24.688c3.125.312 12.187 4.062 22.812-5 10.625-9.063 14.376-22.813 14.376-29.376 0-6.562-.938-12.187-.938-12.187l-14.063-8.75z" id="path1094" transform="translate(-12.50011 105.6257)" fill="url(#linearGradient1108)" fill-opacity=".996081" fill-rule="evenodd" stroke="#000" stroke-width="1.32283452" stroke-linecap="butt" stroke-linejoin="miter" stroke-opacity="1"/>
        <path d="M327.502 577.984c.625.937-1.221 3.92.313 7.5 1.278 2.983 25 29.375 70 27.5 45.001-1.875 72.539-23.697 72.539-30.259 3.75 4.375 4.962 8.384 8.087 10.259 0 3.125-.141 5.975-3.75 10.938-3.891 5.349-25.938 27.812-74.376 26.25-48.438-1.563-71.875-15-79.687-27.5-5.545-9.241-3.751-10.313-3.751-10.313 5.104-3.854 7.708-8.333 10.625-14.375z" id="path1092" transform="translate(-12.50011 105.6257)" fill="url(#linearGradient1107)" fill-opacity="1" fill-rule="evenodd" stroke="#000" stroke-width="1.32283452" stroke-linecap="butt" stroke-linejoin="miter" stroke-opacity="1"/>
        <path d="M330.315 618.297c0 .937-1.25 7.187-1.563 7.187-.312 0-6.875-11.25-6.875-11.25l4.688-.937s3.75 6.25 3.75 5z" id="path1101" transform="translate(-13.16303 104.7419)" fill="url(#linearGradient1115)" fill-opacity="1" fill-rule="evenodd" stroke="#000" stroke-width="1.32283452" stroke-linecap="butt" stroke-linejoin="miter" stroke-opacity="1"/>
        <path d="M467.816 625.484c.625-.937 7.187-11.875 7.187-11.875l-3.598-2.538c-1.105 3.094-5.152 4.101-5.777 7.851s2.813 7.5 2.188 6.562z" id="path1102" transform="translate(-11.8372 106.5097)" fill="url(#linearGradient1114)" fill-opacity="1" fill-rule="evenodd" stroke="#000" stroke-width="1.32283452" stroke-linecap="butt" stroke-linejoin="miter" stroke-opacity="1"/>
        <path d="M321.565 627.359c-.313-1.562-2.813-10.937 2.187-11.562s6.25 2.812 6.25 2.812-2.187-5.937-3.125-10.625c-.937-4.687-.312-7.187-.312-7.187s-5.625-5.938-8.438-5.313c-2.812.625-6.562 5.625-6.875 7.5-.312 1.875.938 4.375.938 4.375l9.375 20z" id="path1100" transform="translate(-12.50011 105.6257)" fill="url(#linearGradient1113)" fill-opacity="1" fill-rule="evenodd" stroke="#000" stroke-width="1.32283452" stroke-linecap="butt" stroke-linejoin="miter" stroke-opacity="1"/>
        <path d="M475.003 622.984s1.25-5.312-2.812-5.937c-4.063-.625-6.875 2.5-5.625 1.562 1.25-.937 3.125-3.125 3.437-8.437.313-5.313-.312-8.125-.312-8.125s1.562-6.876 8.125-5.938c6.562.938 6.875 5.938 6.875 7.813s-.625 2.812-.625 2.812l-9.063 16.25z" id="path1103" transform="translate(-12.50011 105.6257)" fill="url(#linearGradient1112)" fill-opacity="1" fill-rule="evenodd" stroke="#000" stroke-width="1.32283452" stroke-linecap="butt" stroke-linejoin="miter" stroke-opacity="1"/>
        <path d="M436.618 649.964v2.602h.875l.203-1.573.203-.191h1.522v7.996l-.215.235-.825.073v.72h3.793v-.72l-.824-.073-.216-.235v-7.996h1.523l.19.191.215 1.573h.876v-2.602h-7.32z" id="path1122" transform="matrix(1.04198 -.5981 .49782 .86728 -338.6949 407.9167)" font-size="12" font-weight="700" stroke-width="1pt" font-family="Bitstream Charter"/>
        <path d="M427.153 649.964v.72l.736.074.203.235v7.805l-.203.235-.736.073v.72h3.591v-.72l-.762-.073-.203-.235v-3.704h3.667v3.704l-.19.235-.762.073v.72h3.578v-.72l-.736-.073-.203-.235v-7.805l.203-.235.736-.074v-.72h-3.578v.72l.762.074.19.235v3.219h-3.667v-3.219l.203-.235.762-.074v-.72h-3.591z" id="path1123" transform="matrix(1.0816 -.52305 .43536 .90026 -314.8876 353.9265)" font-size="12" font-weight="700" stroke-width="1pt" font-family="Bitstream Charter"/>
        <path d="M422.814 654.976v.72l.939.074.203.206v2.998c-.33.029-.571.044-.698.044-1.953 0-3.146-1.543-3.146-4.189 0-2.572 1.167-4.1 3.058-4.1.368 0 .71.073 1.053.235l.19.264.241 1.558h.926v-2.498c-.939-.324-1.839-.485-2.677-.485-2.816 0-4.63 2.013-4.63 5.026 0 3.057 1.801 5.174 4.465 5.174.926 0 1.865-.206 2.842-.603v-3.424l.203-.206.736-.074v-.72h-3.705z" id="path1124" transform="matrix(1.15676 -.32457 .27015 .96282 -238.3141 228.1067)" font-size="12" font-weight="700" stroke-width="1pt" font-family="Bitstream Charter"/>
        <path d="M413.655 659.826h3.793v-.72l-.85-.073-.203-.235v-7.834l.203-.206.85-.074v-.72h-3.793v.72l.837.074.203.206v7.834l-.203.235-.837.073v.72z" id="path1125" transform="matrix(1.1888 -.17384 .1447 .98948 -169.4459 147.5731)" font-size="12" font-weight="700" stroke-width="1pt" font-family="Bitstream Charter"/>
        <path d="M393.876 659.826h6.813v-2.63h-.863l-.216 1.558-.165.235h-2.943v-3.822h1.649l.178.206.127 1.058h.748v-3.41h-.748l-.127 1.059-.178.205h-1.649v-3.498h2.525l.165.191.19 1.294h.888v-2.308h-6.394v.72l.774.074.203.206v7.834l-.203.235-.774.073v.72z" id="path1128" transform="matrix(1.12594 -.07967 .07058 .9975 -95.13515 105.1602)" font-size="12" font-weight="700" stroke-width="1pt" font-family="Bitstream Charter"/>
        <path d="M384.247 649.964v.72l.736.074.203.235v7.805l-.203.235-.736.073v.72h3.59v-.72l-.761-.073-.203-.235v-3.704h3.666v3.704l-.19.235-.761.073v.72h3.578v-.72l-.736-.073-.203-.235v-7.805l.203-.235.736-.074v-.72h-3.578v.72l.761.074.19.235v3.219h-3.666v-3.219l.203-.235.761-.074v-.72h-3.59z" id="path1129" transform="matrix(1.12876 0 0 1 -50.03009 72.18808)" font-size="12" font-weight="700" stroke-width="1pt" font-family="Bitstream Charter"/>
        <path d="M376.419 649.964v2.602h.875l.203-1.573.203-.191h1.523v7.996l-.216.235-.825.073v.72h3.794v-.72l-.825-.073-.216-.235v-7.996h1.523l.19.191.216 1.573h.875v-2.602h-7.32z" id="path1130" transform="matrix(1.12831 .03174 -.02812 .9996 -31.44352 60.0697)" font-size="12" font-weight="700" stroke-width="1pt" font-family="Bitstream Charter"/>
        <path d="M365.331 659.826h6.813v-2.63h-.863l-.216 1.558-.165.235h-2.943v-3.822h1.649l.178.206.127 1.058h.748v-3.41h-.748l-.127 1.059-.178.205h-1.649v-3.498h2.525l.165.191.19 1.294h.888v-2.308h-6.394v.72l.774.074.203.206v7.834l-.203.235-.774.073v.72z" id="path1131" transform="matrix(1.09794 .07037 -.06396 .99795 2.780284 45.63031)" font-size="12" font-weight="700" stroke-width="1pt" font-family="Bitstream Charter"/>
        <path d="M352.34 659.826h3.793v-.72l-.85-.073-.203-.235v-7.834l.203-.206.85-.074v-.72h-3.793v.72l.837.074.203.206v7.834l-.203.235-.837.073v.72z" id="path1134" transform="matrix(1.04126 .35524 -.3229 .94644 190.7546 -24.36572)" font-size="12" font-weight="700" stroke-width="1pt" font-family="Bitstream Charter"/>
        <path d="M345.501 659.503c.787.323 1.637.485 2.449.485 2.081 0 3.362-1.264 3.362-3.013 0-.867-.406-1.661-1.142-2.205-.748-.558-1.421-.779-1.814-1.058-.672-.47-1.028-.911-1.028-1.587 0-.809.571-1.396 1.497-1.396.406 0 .698.073.926.205l.178.206.216 1.529h.913v-2.381c-.799-.324-1.598-.5-2.385-.5-1.814 0-2.994 1.264-2.994 2.895 0 .721.304 1.441.888 2.014.558.544 1.155.794 1.662 1.088.901.529 1.358 1.058 1.358 1.851 0 .809-.609 1.397-1.637 1.397-.393 0-.761-.074-1.116-.206l-.165-.22-.203-1.764h-.965v2.66z" id="path1135" transform="matrix(1.04126 .35524 -.3229 .94644 190.7546 -24.36572)" font-size="12" font-weight="700" stroke-width="1pt" font-family="Bitstream Charter"/>
        <path d="M337.559 659.826h6.813v-2.63h-.862l-.216 1.558-.165.235h-2.943v-3.822h1.649l.178.206.126 1.058h.749v-3.41h-.749l-.126 1.059-.178.205h-1.649v-3.498h2.524l.165.191.191 1.294h.888v-2.308h-6.395v.72l.774.074.203.206v7.834l-.203.235-.774.073v.72z" id="path1136" transform="matrix(.98439 .49132 -.44658 .89475 291.0333 -37.43457)" font-size="12" font-weight="700" stroke-width="1pt" font-family="Bitstream Charter"/>
        <path d="M332.18 649.964h-3.704v.72l.774.074.203.235v7.805l-.203.235-.774.073v.72h3.704c1.269 0 2.22-.22 3.007-.925 1.028-.912 1.561-2.264 1.561-3.998 0-3.087-1.624-4.939-4.568-4.939zm-1.053.823h.736c2.017 0 2.994 1.338 2.994 4.101s-.977 4.115-2.994 4.115h-.736v-8.216z" id="path1141" transform="matrix(.9082 .62095 -.5644 .8255 392.8803 -35.8298)" font-size="12" font-weight="700" stroke-width="1pt" font-family="Bitstream Charter"/>
        <path d="M356.843 649.964v.72l.749.074.203.206v7.834l-.203.235-.749.073v.72h3.578v-.72l-.774-.073-.203-.235v-3.307h.216c1.281 0 1.611.632 2.004 2.028.203.705.317 1.367.977 1.955.305.279.774.455 1.32.455.393 0 .824-.044 1.268-.117v-.706h-.165c-.85 0-1.23-.22-1.497-1.029-.241-.734-.342-1.528-.736-2.175-.291-.47-.723-.749-1.332-.911 1.434-.309 2.183-1.161 2.183-2.513 0-1.632-1.015-2.514-2.982-2.514h-3.857zm2.601.838h.584c1.23 0 1.877.676 1.877 1.881 0 1.353-.647 1.97-2.004 1.97-.14 0-.292 0-.457-.015v-3.836z" id="path1144" transform="matrix(1.08525 .18071 -.16426 .98642 72.38193 12.20563)" font-size="12" font-weight="700" stroke-width="1pt" font-family="Bitstream Charter"/>
        <path d="M405.154 649.964v.72l.749.074.203.206v7.834l-.203.235-.749.073v.72h3.578v-.72l-.774-.073-.203-.235v-3.307h.216c1.281 0 1.611.632 2.004 2.028.203.705.318 1.367.977 1.955.305.279.774.455 1.32.455.393 0 .824-.044 1.268-.117v-.706h-.165c-.85 0-1.23-.22-1.497-1.029-.241-.734-.342-1.528-.735-2.175-.292-.47-.724-.749-1.332-.911 1.433-.309 2.182-1.161 2.182-2.513 0-1.632-1.015-2.514-2.982-2.514h-3.857zm2.601.838h.584c1.23 0 1.877.676 1.877 1.881 0 1.353-.647 1.97-2.004 1.97-.14 0-.292 0-.457-.015v-3.836z" id="path1147" transform="matrix(1.1888 -.17384 .1447 .98948 -169.4459 147.5731)" font-size="12" font-weight="700" stroke-width="1pt" font-family="Bitstream Charter"/>
      </g>
      <path d="M396.85 605.906s-75.43-21.26-74.99-102.142l.581-106.914H471.26l.583 106.3c.44 80.882-74.993 102.756-74.993 102.756z" id="path703" transform="translate(-35.53135 -145.8506)" font-size="12" fill="#0072c4" fill-opacity=".996081" fill-rule="evenodd" stroke-width="1pt"/>
      <g id="g1079" transform="translate(171.9164 -30.49457)" fill-rule="evenodd">
        <path d="M339.689 420.171c.124 0 1.038-.83 1.875-1.562 1.169-.56 2.25-1.347 3.438-1.875.885-.49 2.634-.87 3.437-1.25 1.053-.527 1.912-1.134 2.813-2.188.108-1.398.313-2.402.313-4.062 1.243-.572 2.346-1.127 3.437-1.563 1.564-.421 1.903-1.019 3.438-1.25.988-.33 2.621-.313 4.062-.313 1.555 0 2.536 1.057 3.933 1.307 1.656.639 2.429 1.081 3.75 2.188.746.903 1.21 1.637 2.482 2.317 1.007.494 1.95 1.242 3.125 1.562 1.29.715 2.435 1.129 3.437 2.188.918.624 1.297 1.551 2.188 2.187 1.032.819 2.011 1.556 3.125 2.188 1.339.858 2.666 1.51 4.835 1.323 1.148-.065 2.384-.191 3.75.053 1.529 0 3.021-.026 4.375.313 1.594 0 2.884.206 4.375.312 1.397.25 2.821.313 4.375.313 1.355.338 2.846.312 4.375.312h8.75c1.592 0 3.204.062 4.375.313 1.577 0 2.933-.141 4.375-.313 1.697 0 2.991-.297 4.688-.312h5.313c1.364.357 3.107.602 4.062 1.25 1.251.341 1.874.908 3.125 1.25.958.47 2.413 1.214 3.125 2.187.882.882 1.788 2.145 2.5 3.438.87 1.2 1.201 2.572 1.875 4.062.357 1.428.606 2.786.625 4.375.339 1.355.313 2.846.313 4.375-.357 1.425-.435 3.011-.938 4.375-.054 1.525-.373 2.905-.625 4.063-.278 1.279-.605 2.102-.625 3.75v4.375c-.11 1.435-.438 2.489-.625 4.062-.756 1.365-1.48 2.961-2.187 4.688-1.04.693-1.942 1.679-2.5 2.5-.667.394-1.053.992-.938 1.25 1.249.416.938 1.247.938 2.812.162 1.205.284 2.699.625 4.063.114 1.492.448 2.404.937 3.437.493.616.589.313-.625.313-.903.677-1.817.323-2.187-.938-.729-.841-.969-1.859-1.25-3.437-.173-1.447-.415-2.857-.938-3.75-.16-1.761-.65-1.743-2.5-1.875-.88-.746-2.042-.938-3.75-.938-1.701 0-1.844-.166-1.875 1.563v4.375c-.294 1.268-.939 2.296-1.25 3.437-.932.653-1.417 1.749-2.5 2.5-.516 1.419-1.266 1.666-2.813 1.875-.541-.646-1.423-1.489-1.875-2.187.875-1.404 1.639-1.616 2.188-3.125.664-1.244 1.054-2.051 1.562-3.125-.667-.982-1.266-1.425-1.875-2.813-.514-.756-1.226-2.383-1.562-3.437-1.026-.342-2.642-.397-3.438-.938-1.516-.337-1.94 1.25-3.749 1.25h-4.375c-1.935 0-2.418 1.033-4.063.938-.483.15-1.655-.066-3.438 0-1.306.435-2.879.312-4.375.312-1.585-.019-2.882-.368-4.062-.625-1.436-.376-2.864-.757-4.375-.937-1.835 0-2.518.14-3.75.937-.975.553-2.388 1.817-3.438 2.5-.444 1.037-.675 2.792-1.25 4.063-.332 1.219-.872 1.992-1.25 3.125-.423 1.057-.823 2.145-.937 3.75-.106 2.106-.587 1.848-1.875 1.25-.537-.872-1.393-1.831-1.875-2.813.284-1.59.604-2.381.625-4.062-.304-1.213-1.014-1.174-1.875-.313 0 1.636.079 2.898-.625 3.75-.352 1.291-.918 1.849-1.875 2.5-.468 1.16-1.507 1.691-2.5 2.188-.159-.053 0-.419 0-1.25-.749-1.429-.054-2.615-.054-4.375.019-1.578-.075-2.624.404-4.063 0-1.515-.735-2.956-.975-4.062-.581-1.161-.916-1.735-2.5-2.188-1.113-.423-2.717-.995-3.438-1.875-.907-1.125-1.486-1.588-2.812-2.187-1.438-.498-2.136-.954-3.125-1.563-.966-1.019-1.751-1.461-2.188-2.812-.652-.961-.764-2.746-1.25-4.063-.106-1.372-.517-2.647-.937-3.75-.186-1.372-.412-2.376-.938-3.75-.174-1.285-.562-2.629-.937-4.062 0-1.529.026-3.021-.313-4.375v-4.375c-.225-1.263-.308-3.112-.625-4.063 0-1.7-.189-2.66-.625-3.75-.715-1.104-.773-1.599-1.875-1.875-.796.971-2.108 1.367-3.75 1.563-1.147-.25-2.766-.413-4.063-.938-1.253-.295-2.11-.769-3.125-1.25-.555-.817-1.218-1.742-1.875-2.5-.194-1.632-.566-2.472-.625-4.062 0-1.193.03-.56 1.25-2.188z" id="path1019" transform="translate(-214.3432 -114.4637)" font-size="12" fill="#bcbcbc" stroke-width="1pt" stroke-opacity=".996081"/>
        <path d="M358.196 431.43c.074-.073.147-.147.221-.221-.502.502-.318.26.884-.221.672-.405 1.95-1.118 2.431-1.547.577-.253 1.496-.583 1.988-1.104.616-.628 1.231-1.149 1.989-1.768.875-.71 1.691-.943 2.652-1.547 1.25-.089 1.703-.601 2.872-.221 1.097.238 1.552.245 2.431-.663.887-.543 1.863-1.071 2.21-1.989v-1.325c-.017 1.444-.289 1.912-1.326 2.43-.723.792-1.624 1.688-1.989 2.431-.702.972-.851 1.516-1.547 1.989-.571.696-1.551 1.064-1.767 2.209.315.526.027.814.662.884.64.526 1.306.302 2.21 0 .899-.995 1.303-1.638 1.768-2.651.742-.969 1.157-1.43 1.547-2.21.768-.533 1.256-.948 1.547-1.768.889-.497 1.62-1.021 2.209-1.547.661-.406 1.011-.736 1.989-.884-.014 1.187-.198 1.748-.663 2.431-.22 1.231-.176 1.814.221 2.652.635.375.522.702.884 1.547.36-.731.543-2.21.663-3.094v-.221c0 .966.092 2.248-.221 2.873.015 1.288.314 1.863.663 2.872.372.487.635.803 1.105 1.105.044-1.275.377-2.115.442-3.314.308.925.205 2.148.442 3.093.08 1.04.474 1.846.884 2.652.503.297.674 1.174.883.442.523-1.555.536-3.256.884-4.862.063-.815.131-2.028.442-2.651l-.442 2.651c.063-.815.131-2.028.442-2.651v-.221c.206 1.164.401 2.288.442 3.535 0 .995-.067 2.008.221 2.873.735-.325 1.161-1.088 1.547-1.989.589-1.068.992-1.542 1.768-2.43l-1.768 2.43c.589-1.068.992-1.542 1.768-2.43v-.221c-.122 1.019-.221 1.979-.221 3.093 0 1.019-.012 2.174.221 2.873.26 1.172.616 1.389.663 2.651 0 .615-.084 1.243.221 1.547.952.238.955-.292 1.105-1.547.012-1.425.393-2.397.441-3.756 0-1.677.248.204.442.884.446.984.585 1.859.663 2.872 0 .615-.083 1.243.221 1.547.854-.338 1.192-1.292 1.768-1.768.44-1.047.895-1.509 1.326-2.209 1.145-.229 1.089-.679 1.105-1.989 0-1.057-.087-2.17.221-3.094.354-.96.688-2.029.884-2.872.413-.236.859.348 1.104.884.484.712.442 1.751.442 2.872.213.978.638 1.742 1.105 2.652.554 1.021 1.004 1.64 1.547 2.21.233.699.221 1.854.221 2.872.861-.935 1.026-2.329 1.105-3.756-.116-.971-.137-2.18-.442-3.094-.035-.973-.217-1.978-.442-2.651-.746-.343-.864-.647-.221-1.547.711-.588 1.479-.361 2.652-.221.593.593.837.91.884 2.209 0 1.177.052 2.082.442 2.873.432.636.861 1.073 1.104 2.21.339.277.601.725 1.105.221.277-.647.44-1.982.663-2.652.216-.839.605-1.251 1.105-1.547 0 1.23-.015 1.984.442 2.873.433.987.733 1.358 1.105 2.431.471.314.531.991 1.105 1.325.135-1.038.221-2.226.221-3.535v-3.094c.081-1.053.348-1.645.663-2.43.712.848.663 1.199.663 2.43.727-.259.849-.758 1.104-1.546.519-.437.661-.641.884.441.155 1.156.45 2.197.663 3.315.455.51.98 1.745 1.547 2.21.389.632.826 1.243 1.326 1.768.344.727.432 1.107 1.326 1.325 0-1.495.052-2.995-.221-4.419 0-1.27-.29-1.723-.442-2.873-.368-.762-.585-1.885-.442-2.209 1.035.982 1.503 1.552 1.989 2.651.518 1.062.955 1.776 1.325 2.873.511.419 1.416 1.677 1.768 2.21.789.674 1.173 1.376 1.989 1.988.422.38 1.314.592 1.547.442-.041-1.296-.247-2.408-.663-3.535-.015-1.237-.311-1.909-.663-2.652-.869-.717-1.528-1.206-1.989-2.21-.342-.28-.409-.489-.442-1.104 1.27 1.005 2.157 1.901 3.094 3.093.633.785.955 1.141 1.768 1.547.44.472 1.723 1.06 2.651 1.326.557.706 1.301 1.112 2.21 1.326l-2.21-1.326c.557.706 1.301 1.112 2.21 1.326v.221c-.111-1.382-.642-2.392-1.326-3.536-.576-1.209-1.103-1.657-1.989-2.431-.578-.875-1.225-1.391-2.209-1.988-.61-.686-1.523-1.825-1.989-2.21.942-.566 2.049.383 3.094.884.862.894 1.668 2.059 2.209 2.651.589 1.136 1.04 1.838 1.989 2.873.952.54 1.613 1.074 2.431 1.768 1.266.335.761-.108.442-1.105-.437-1.247-.048-1.267.884-.442.615.419 1.3 1.117 2.209 1.547.393.487.986.757 1.547.442.234-.312.221-.277.221-.663-.465-1.371-.897-2.439-1.989-2.873-.5-.61-1.314-1.336-1.988-1.989-.44-.647-.953-1.02-1.326-1.767l1.326 1.767c-.44-.647-.953-1.02-1.326-1.767h-.221c1.334.047 1.809.371 2.872.884.757.264 1.575.955 1.989 1.546.431.547 1.121 1.135 1.547 1.768.679.5 1.429 1.069 2.21 1.547.735.922.867 1.522.884 2.873.424.625.5 1.903.662 2.651-.162 1.215-.597.261-.662-.442-.187-.976-.576-.925-1.326-.663 0 1.335.154 1.7.663 2.652-.138.912-.455 1.579-.884 2.21-.516.294-.627-.65-1.105-1.105-.051-1.367-.453-1.517-1.326-2.21v.884c.493.943 1.013 1.803 1.105 3.094.341.985.442 1.607.442 2.872 0 1.082.018 2.136-.221 3.094 0 1.199-.207 1.713-.221 2.873V458.61c-.17.782-.221 1.801-.221 2.872l.221-2.872c-.17.782-.221 1.801-.221 2.872v.221c-.42-1.11-.877-2.115-1.105-3.314-.716-.678-1.171-1.377-1.547-2.21-.169-.948-.275-2.106-.442-2.873-.311-.778-.641-1.609-1.326-1.104-.271 1.647.071 2.628.663 4.198.347 1.041.309 1.859.663 2.873.512 1.168.924 1.336 0 2.651-.456.701-.7.923-.884 1.768-.817.409-1.022.591-1.104 1.547-.275-.86-.943-1.867-1.326-2.873-.396-1.058-.885-2.145-1.105-3.093-.536-.74-1.165-1.937-1.768-2.431-.555-.714-1.352-1.904-1.768-2.652-.846-.943-1.033-1.489-1.767-1.988-.189-.441-.414-.992-.884-.663 0 1.057-.087 2.169.221 3.093.223 1.303.615 2.026.663 3.315v2.431c-.531-1.245-1.098-2.356-1.547-3.536-.483-.66-.955-1.945-1.547-2.431-.376-.857-.669-1.568-1.105-2.209-.113-.642-.41-.635-.663-1.105.015 1.253.413 1.692.663 2.651.431.842.569 2.253.442 2.652-.557-1.549-1.061-3.242-1.768-4.64-.67-.908-1.324-2.075-1.768-2.873-.657-.759-1.333-.784-1.988-1.326-.597-.283-1.168-.599-1.547-1.105.174 1.165.628 1.893.884 2.873.145 1.111.656 2.001.884 2.873-.246 1.512-.603-.419-.884-1.105-.233-1.244-.664-1.935-1.105-2.652-.592-.403-1.131-1.118-1.768-1.547-.62-.238-.442.043-.442.884 0 1.367.052 2.27.442 3.094.441.648.442 1.493.442 2.651-.039 1.088-.221 1.961-.221 3.094v1.768c-.507-.94-.989-1.473-1.326-2.652-.767-1.003-.994-1.74-1.547-2.872-.49-.197-1.288-.36-1.767 0 .086 1.118.603 1.61.663 2.872-.881.863-.722 1.109-1.326-.221-.504-1.007-1.091-.96-1.768-1.547-1.109-.138-.757-.817-1.105-1.767 0-.851.088-1.71-.221-2.431-1.211 0-1.906-.042-2.651.663-.351.7-.227 1.964 0 2.872v3.094c-.252.774-.751.816-.884 1.768-.427.943-.568 1.984-.884 2.652-.787.679-.445.765-.884-.442V456.4v-3.094c0-1.201.181-1.786.221-2.872-.458-.916-.583-1.088-1.989-1.105-.342.571-.212 1.631 0 2.21 0 1.071.051 2.091.221 2.872 0 1.174.145 1.885.221 2.873-.042 1.171-.27 2.105-.884 2.652-.797.199-.087.684-.884.884-.799-.383-1.738-.904-2.43-1.547-.859-.262-1.669-.442-2.873-.442-1.465-.018-1.49-.188-1.989-1.326-.448-1.217-.659-2.276-.884-3.536-.486-1.034-.6-1.739-.884-2.872-.371-.675-.767-1.185-1.325-1.547-.32 1.117-.621 2.052-.663 3.315-.259.517-.313 1.834-.442 2.43-.444-.654-.618-1.94-.884-2.872-.419-1.34-.777-2.21-2.21-1.768-1.487.018-1.529.059-1.547 1.547.64.959 1.324 1.89 1.768 2.651v3.094c0 1.277.078 1.647-.884 1.989-.366-1.326-1.143-2.592-1.989-3.757-.116-.901-.406-.663-1.325-.663-.615 0-1.243-.083-1.547.221 0 .77.066 1.839 0 1.989-.533.094-.748-.005-1.105-.442-.386.643-.095 1.549 0 2.431-.281.983-.616 1.881-1.105 2.43-.098-.294-.319-.221 0-.221-1.517-.557-2.703-.901-3.977-1.325-.767.095-1.324.77-1.768 1.325-1.123.361-1.62.648-2.873.663-1.202 0-1.787.181-2.873.221-.781.17-1.801.221-2.872.221-.594-.169-1.632-.174-1.989-.442.456-.651.964-.98 1.326-1.988.605-.412 1.172-.94 1.768-1.547.583-.397 1.266-1.219 1.767-1.768.345-1.064.819-1.248 1.547-1.768 1.314.049 1.57.448 2.873.663 1.272.461 1.976.597 2.652-.221 1.055-.427 1.951-1.094 3.093-1.326.885-.423 1.452-.834 2.21-1.326.94-.541 1.388-1.097 2.21-1.767.235-.901.901-1.597.663-2.652-1.196-.299-1.955-.179-2.652.442-.967.762-1.15 1.079-2.21 1.768-.915.249-1.306.634-2.431.884-.923.308-2.036.221-3.093.221-.966 0-2.248-.092-2.873.221.983-.633 2.164-1.291 3.094-1.547.892-.573 1.229-.863 2.431-.884.558-.698 1.133-.715 1.325-1.768.374-1.307-.815-.893-1.767-.442-.898.158-1.889.766-2.652 1.105-.737.246-1.814.429-2.873.442-.279-.398.218-.716.442-1.326 1.032-.35 1.198-.479 1.326-1.547-1.17.155-1.617.523-2.652.663-1.128.282-2.298.407-3.535.442h-3.094c-1.086-.04-1.671-.221-2.872-.221-.88-.44-.884-.649-.884-1.989.693-.762 1.367-.662 2.651-.662.989-.465 1.758-.712 2.431-1.105.8-.165 1.346-.492 1.105-.884h-3.094c-1.191-.482-.054-.703.663-1.105 1.075 0 2.184.061 2.873.442 1.329-.049 1.792-.451 2.872-1.326.847-.667 1.262-1.093 2.21-1.547.681-.719 1.324-1.115 1.768-1.768.909-.827 1.511-1.286 1.989-1.988.585-.308.942-.706.663-1.105-1.385.161-1.945.643-2.873 1.326-.539.513-1.062.973-1.768 1.326-.995.565-1.615.794-2.872.883-1.134 0-2.006-.182-3.094-.221-1.2-.12-.095-.387.221-.883.464-.31.826-.998.442-1.547-.924-.308-2.036-.221-3.094-.221h-3.093c-1.168-.043-1.662-.299-2.431-.663-.238-.62.043-.442.884-.442 1.065-.04 1.82-.179 2.873-.442 1.039-.283 1.169-.614 1.325-1.768-1.019 0-2.173.012-2.872-.221h-1.989z" id="path1022" transform="translate(-214.3432 -114.4637)" font-size="12" fill="#fefefe" stroke-width="1pt"/>
        <path d="M339.064 426.421c-.194-1.632-.566-2.472-.625-4.062 0-1.193.03-.56 1.25-2.188.124 0 1.038-.83 1.875-1.562 1.169-.56 2.25-1.347 3.438-1.875.885-.49 2.634-.87 3.437-1.25 1.053-.527 1.912-1.134 2.813-2.188.108-1.398.313-2.402.313-4.062 1.243-.572 2.346-1.127 3.437-1.563 1.564-.421 1.903-1.019 3.438-1.25.988-.33 2.621-.313 4.062-.313 1.555 0 2.536 1.057 3.933 1.307 1.656.639 2.429 1.081 3.75 2.188.746.903 1.21 1.637 2.482 2.317 1.007.494 1.95 1.242 3.125 1.562.01 1.128.261.933-.581.933-.089 1.156-.378 1.084-1.547 1.105-.896-.466-1.535-1.093-1.989-1.768.442-1.148.149.929 0 1.326-.568.447-.906.923-1.547.442-.359-1.078-.662-1.823-.662-3.093-.168-1.381-.572-.379-.884.221-.299 1.114-.163 1.517.221 2.43-1.127 0-1.991-.102-2.873-.221-.82-.195-1.741.045-2.652.442-1.157.695-.797.7-.221 1.547 1.021.288 1.755.829 2.652 1.326 1.02-.194 2.085-.411 3.094-.663 1.053-.351 2.017-.128 3.093 0 .534.267 1.236.321 1.547.663 0 .683.057 1.397-.221 1.768-.46.292-.896 1.101-1.547 1.325-.974.534-1.996.87-3.093 1.105-1.354.049-1.849.333-2.873.884-.168 1.117-.509 1.432-1.547 1.768-1.033.431-1.854.663-3.093.663-.615 0-1.243.083-1.547-.221.984-1.074 1.28-1.58 1.768-2.652.191-.447.591-.734.221-1.105-1.309.049-1.651.041-1.768 1.326-.148 1.164-.616 1.359-1.547 1.768.251-1.078.293-1.906.663-2.873-.782.17-1.801.221-2.873.221-.669.406-.948.564-.663 1.326-.888.296-1.969.114-3.093 0-.939-.049-.421-.456-1.105-.884-.448-.841-.963-1.046-1.989-1.105-.509.609-1.452.861-1.989 1.326-.968.323-1.584.055-2.43-.442-1.104.033-.956.373-.663 1.105.421.281-.026.587.663.663.635.551 1.178.663 2.43.663.958-.239 2.013-.221 3.094-.221 1.091.032.884.279.884 1.326-.713.483-1.752.442-2.873.442-1.066-.127-1.884-.391-2.651-.663-1.035-.074-1.863-.263-2.652 0-.356.377-1.428.542-.221.663.475.428 3.032.221 3.214.949.603.641.469 1.482-.562 1.482-.626-.313-1.109-.236-1.547 0-.736.184-1.61.05-2.894.142 1.677.132-1.218-1.742-1.875-2.5z" id="path1023" transform="translate(-214.3432 -114.4637)" font-size="12" fill="#fefefe" stroke-width="1pt"/>
        <path d="M346.043 419.055c-.073 0-.733.439-1.326.884-.971.497-2.008 1.343-2.652 1.768-.507.388-.504.557-1.104.663 1.053-.143 1.522-.399 2.43-.884 1.148-.132 2.26-.365 2.873-.884.575-.192-.043-1.073-.221-1.547z" id="path1025" transform="translate(-214.3432 -114.4637)" font-size="12" fill="#bcbcbc" stroke-width="1pt"/>
        <path d="M356.208 408.669c.127 0 .386.691.883 1.105.318.848.611 1.447.663 2.431.271-1.08.734-1.948.884-3.094-.344-.582-.367-.855-1.326-.884 0 .597.073.207-1.104.442z" id="path1026" transform="translate(-214.3432 -114.4637)" font-size="12" fill="#bcbcbc" stroke-width="1pt"/>
        <path d="M135.0138 303.2653c-.494 0 .871-.492 1.326-.663.364-.767.653-1.31 1.326-1.767 1.107.085 1.65.404 2.21 1.104.93.254 1.265.697 2.431.884.433.366 1.019.408 0 .663-.693.366-1.564.442-2.652.442-1.14.082-1.954.333-2.652.663-1.479 0-1.242.049-1.989-1.326z" id="path1024" font-size="12" fill="#c4c4c2" fill-opacity="1" stroke="#000" stroke-width=".86811018"/>
        <path d="M360.185 408.89v.221c0-.596-.014-.292.221.884.365.741.442 1.536.442 2.652.58-.414 1.064-1.24 1.326-1.989 0-1.745-.247-1.642-1.989-1.768z" id="path1027" transform="translate(-214.3432 -114.4637)" font-size="12" fill="#bcbcbc" stroke-width="1pt"/>
        <path d="M368.361 434.302h.221c-.65 0-.284.038.884-.663.756-.504 1.375-1.249 2.431-1.547 1.023-.803 1.81-1.179 2.872-1.546.518-.238.975-.651 1.547-.221-.164 1.09-.353 1.502-1.326 1.988-.503.63-1.295.998-1.988 1.326-.719.316-1.51.332-1.768 1.105-1.202.529-1.35.44-2.873-.442z" id="path1028" transform="translate(-214.3432 -114.4637)" font-size="12" fill="#bcbcbc" stroke-width="1pt"/>
        <path d="M372.56 440.71c.394-.298 1.778-1.678 2.43-2.209.738-.973 1.484-1.717 2.21-2.21.644-.948 1.469-1.583 1.989-2.431.614-.743 1.066-1.372 1.768-2.209 0 .966-.092 2.247.22 2.872 0 1.335-.154 1.7-.662 2.652-.502.782-.876 1.3-1.989 1.768-1.004.532-1.606.719-2.431 1.325-.629.387-1.284.772-1.989 1.105-.632.271-.342.153-1.546-.663z" id="path1029" transform="translate(-214.3432 -114.4637)" font-size="12" fill="#bcbcbc" stroke-width="1pt"/>
        <path d="M365.709 445.793h.221c-.65 0-.285.038.884-.663.943-.943 1.694-1.271 2.873-1.768.897-.069 1.982-.292 2.652-.663.534-.094.906-.419 1.325 0 .694.938.885 1.203-.221 1.768-.529.449-1.462.901-2.209 1.105-.552.455-1.644.483-2.652.663-.903 0-1.405.102-1.768-.442l1.768.442c-.903 0-1.405.102-2.873-.442z" id="path1030" transform="translate(-214.3432 -114.4637)" font-size="12" fill="#bcbcbc" stroke-width="1pt"/>
        <path d="M375.211 445.793v-.221c0 .617-.027.29.442-.884.828-1.236 1.14-1.918 2.21-2.21.501-.606 1.369-.763 2.431-1.105.398.664.092 1.438 0 2.21-.289.825-1.077 1.407-1.547 1.989-.689.468-.97.918-1.989 1.105-.843 0-.396-.021-1.547-.884z" id="path1031" transform="translate(-214.3432 -114.4637)" font-size="12" fill="#bcbcbc" stroke-width="1pt"/>
        <path id="path1078" d="M139.21262 302.60275a1.104866 1.104889 0 11-2.20973 0 1.104866 1.104889 0 112.20973 0z" fill="#000" fill-opacity="1" stroke="none" stroke-width="1pt" stroke-linecap="butt" stroke-linejoin="miter" stroke-opacity="1"/>
      </g>
      <g id="g1003" transform="translate(-38.00703 -145.8422)" fill="#005120" fill-opacity=".996081" fill-rule="evenodd" stroke="#002b0d" stroke-width="1.32283452" stroke-linecap="butt" stroke-linejoin="miter" stroke-opacity=".99607903">
        <path d="M351.787 479.604h.884c-2.771 0-1.115-.185 3.535 3.535 1.948-1.623 1.925-1.842 3.536.884.93 1.552 1.203-.158 2.651-1.767.698 3.211 1.145 6.578 3.536 3.535 2.731 0 5.59-.227 7.071.884 1.79 3.325 1.204-.564 2.652.884 3.892.467 3.818-3.338 8.057-4.322 2.635 3.293 3.789.759 7.072-.883 2.438.682 4.736 4.381 5.2.785 1.996-3.256 2.17-2.979 3.536 0 1.941 1.748 2.759-.874 4.419-1.767 2.959 1.731 6.259 1.971 10.607.884.736 2.944 2.592 1.667 4.419.883 3.91 1.643 5.274 2.146 9.723 0 2.204-2.604.956.073 2.651 1.768 3.296-1.023 2.386-1.24 6.188-.884 3.821 0 4.13-.092 5.303-2.651 1.92 1.92 2.614 3.304 5.303.884 4.12.121 2.846.52 5.304-.884 1.818 4.026 2.245 1.117 4.419 2.651-1.432 3.631-3.632 5.334-6.187 7.071-1.7 2.816-2.763 5.857-6.187 7.072-2.498 2.548-5.16 4.025-7.955 6.187-3.832.958-8.05.884-12.375.884H388.026c-2.64 1.319-6.958 1.948-10.607 2.651-4.075 0-8.694.048-11.49-.884-1.895-1.894-5.219-4.011-7.071-6.187-1.874-1.511-1.928-4.46-3.536-6.187-1.479-2.529-1.936-6.486-3.535-8.839v-6.187z" id="path993"/>
        <path d="M437.524 487.559v.884c0-2.471.109-1.158-1.768 3.535-.38 1.14-1.212 1.408-2.652 1.768" id="path994"/>
        <path d="M429.569 491.094h.884c-3.273 3.091-5.476 4.515-6.188 7.955l6.188-7.955c-3.273 3.091-5.476 4.515-6.188 7.955" id="path995"/>
        <path d="M417.194 486.675c0 .079-.124 3.153-.884 4.419" id="path996"/>
        <path d="M413.659 492.862v.884-.884c0 .295 0 .589 0 0z" id="path997"/>
        <path d="M406.588 487.559h.884-.884c.294 0 .589 0 0 0z" id="path998"/>
        <path d="M357.09 487.559c.422 0 2.161 2.806 4.419 4.419-.562 2.586-1.426 5.578 0 7.955" id="path999"/>
        <path d="M364.161 492.862c.422 0 2.161 2.807 4.42 4.42l-4.42-4.42c.422 0 2.161 2.807 4.42 4.42v.884c0-2.731-.227-5.591.883-7.072.983 1.663 2.224 4.337 2.652 1.768 4.978-.178 7.381-1.576 10.607-2.651 0 1.3-.209.675.884 1.767" id="path1000"/>
        <path d="M443.711 488.443h.884c-1.667 1.389-2.946 4.222-4.42 6.187" id="path1001"/>
        <path d="M407.472 485.791h7.071" id="path1002"/>
      </g>
      <path d="M322.441 503.15c10.63 0 14.173-10.63 24.803-10.63s14.173 10.63 24.803 10.63 14.173-10.63 24.803-10.63 16.737 9.714 26.085 10.172c9.348.458 16.435-10.172 27.065-10.172 10.63 0 18.735 10.877 21.769 10.753l.291.872s-.8 13.178-.8 20.264c-5.65-.208-14.173-10.629-21.26-10.629-9.233 0-14.173 10.629-24.803 10.629-8.224 0-21.26-10.629-28.347-10.629-7.258 0-17.716 10.629-24.803 10.629-7.086 0-17.716-10.629-24.803-10.629-7.086 0-22.924 9.964-24.803 10.629V503.15z" id="path692" transform="translate(-34.94623 -145.8501)" font-size="12" fill="#fff" fill-rule="evenodd" stroke-width="1pt"/>
      <path d="M327.302 546.293c.582-.29 9.312 17.093 9.312 17.093s3.368-2.213 10.63-3.543c7.263-1.331 14.849 7.617 23.369 9.123 8.521 1.506 18.951-9.123 26.237-9.123 7.087 0 16.737 11.16 26.085 9.123 9.348-2.037 12.994-13.494 21.801-13.08 8.807.413 12.351 3.957 12.351 3.957l10.63-14.174s-10.639-9.632-19.493-10.131c-8.854-.499-12.397 10.131-23.027 10.131-14.173 0-17.781-10.63-28.347-10.63-10.63 0-14.173 10.63-24.803 10.63s-16.905-10.794-24.397-10.712c-7.493.082-20.057 11.918-20.348 11.336z" id="path694" transform="translate(-34.94623 -145.8501)" font-size="12" fill="#fff" fill-rule="evenodd" stroke-width="1pt"/>
      <path d="M368.504 591.732c14.173 0 17.931-10.267 28.346-10.63 10.415-.363 14.174 10.63 28.347 10.63 6.095-.779-24.803 14.174-28.347 14.174-3.543 0-28.346-13.302-28.346-14.174z" id="path695" transform="translate(-34.94623 -145.8506)" font-size="12" fill="#fff" fill-rule="evenodd" stroke-width="1pt"/>
      <path d="M397.433 609.449s-78.975-21.259-78.535-102.141v-114l154.741-.001 1.164 113.386c.44 80.882-77.37 102.756-77.37 102.756zm-.583-3.543s-75.43-21.26-74.99-102.142l.581-106.914H471.26l.583 106.3c.44 80.882-74.993 102.756-74.993 102.756z" id="path700" transform="translate(-34.94623 -145.8501)" font-size="12" fill="#fff" fill-rule="evenodd" stroke="none" stroke-width="1pt"/>
      <g id="g867" transform="translate(-28.80333 88.94398)" fill-rule="evenodd" stroke="#512007" stroke-dasharray="none" stroke-opacity=".99607903">
        <path d="M324.314374 304.5673c1.744-.581 10.173-3.197 10.464-2.907.291.291 16.278 15.697 16.278 15.697l-13.371 2.616-13.371-15.406z" id="path728" fill="none" fill-opacity="1" stroke-width=".4712598" stroke-linecap="butt" stroke-linejoin="miter"/>
        <g id="g857" transform="matrix(.84711 0 0 .75482 35.63687 72.70963)" stroke-width=".58934164" font-size="12" fill="none">
          <path d="M413.635 471.006c.291-4.651 8.72-31.103 8.72-31.103h0" id="path858" transform="matrix(1 0 0 1.03907 -35.35301 -155.4996)"/>
          <path d="M416.542 471.321c0-.291 6.686-31.127 6.686-31.127" id="path859" transform="matrix(1 0 0 1.03907 -35.35301 -155.4996)"/>
          <path d="M418.832 471.369c.29-1.744 5.558-31.175 5.558-31.175" id="path860" transform="matrix(1 0 0 1.03907 -35.35301 -155.4996)"/>
          <path d="M413.926 467.227c1.453-.872 5.813-2.035 5.813-2.035" id="path861" transform="matrix(1 0 0 1.03907 -35.35301 -155.4996)"/>
          <path d="M415.961 462.576c1.453 0 4.36-1.163 4.36-1.163" id="path862" transform="matrix(1 0 0 1.03907 -35.35301 -155.4996)"/>
          <path d="M416.833 459.088c0-.291 4.36-1.163 4.36-1.163" id="path863" transform="matrix(1 0 0 1.03907 -35.35301 -155.4996)"/>
          <path d="M417.414 454.728l4.651-.872" id="path864" transform="matrix(1 0 0 1.03907 -35.35301 -155.4996)"/>
          <path d="M419.449 450.949c0 .291 3.197.291 3.197.291" id="path865" transform="matrix(1 0 0 1.03907 -35.35301 -155.4996)"/>
          <path d="M420.321 447.461c.581 0 3.197.581 3.197.581" id="path866" transform="matrix(1 0 0 1.03907 -35.35301 -155.4996)"/>
        </g>
        <g id="g808" transform="matrix(-1 0 0 1.34306 802.8775 -107.3046)" stroke-width=".40664265" fill="none" fill-opacity="1" stroke-linecap="butt" stroke-linejoin="miter">
          <path d="M413.635 471.006c.291-4.651 8.72-31.103 8.72-31.103h0" id="path809" transform="translate(-10.68813 -137.3012)"/>
          <path d="M416.542 470.134c0-.291 6.686-29.94 6.686-29.94" id="path810" transform="translate(-10.68813 -137.3012)"/>
          <path d="M419.449 467.808c.29-1.744 4.941-27.614 4.941-27.614" id="path811" transform="translate(-10.68813 -137.3012)"/>
          <path d="M413.926 467.227c1.453-.872 5.813-2.035 5.813-2.035" id="path812" transform="translate(-10.68813 -137.3012)"/>
          <path d="M415.961 462.576c1.453 0 4.36-1.163 4.36-1.163" id="path813" transform="translate(-10.68813 -137.3012)"/>
          <path d="M416.833 459.088c0-.291 4.36-1.163 4.36-1.163" id="path814" transform="translate(-10.68813 -137.3012)"/>
          <path d="M417.414 454.728l4.651-.872" id="path815" transform="translate(-10.68813 -137.3012)"/>
          <path d="M419.449 450.949c0 .291 3.197.291 3.197.291" id="path816" transform="translate(-10.68813 -137.3012)"/>
          <path d="M420.321 447.461c.581 0 3.197.581 3.197.581" id="path817" transform="translate(-10.68813 -137.3012)"/>
        </g>
        <g id="g798" transform="matrix(-1 0 0 1 827.5424 -1.849854)" stroke-width=".4712598" fill="none" fill-opacity="1" stroke-linecap="butt" stroke-linejoin="miter">
          <path d="M413.635 471.006c.291-4.651 8.72-31.103 8.72-31.103h0" id="path799" transform="translate(-10.68813 -137.3012)"/>
          <path d="M416.542 470.134c0-.291 6.686-29.94 6.686-29.94" id="path800" transform="translate(-10.68813 -137.3012)"/>
          <path d="M419.449 467.808c.29-1.744 4.941-27.614 4.941-27.614" id="path801" transform="translate(-10.68813 -137.3012)"/>
          <path d="M413.926 467.227c1.453-.872 5.813-2.035 5.813-2.035" id="path802" transform="translate(-10.68813 -137.3012)"/>
          <path d="M415.961 462.576c1.453 0 4.36-1.163 4.36-1.163" id="path803" transform="translate(-10.68813 -137.3012)"/>
          <path d="M416.833 459.088c0-.291 4.36-1.163 4.36-1.163" id="path804" transform="translate(-10.68813 -137.3012)"/>
          <path d="M417.414 454.728l4.651-.872" id="path805" transform="translate(-10.68813 -137.3012)"/>
          <path d="M419.449 450.949c0 .291 3.197.291 3.197.291" id="path806" transform="translate(-10.68813 -137.3012)"/>
          <path d="M420.321 447.461c.581 0 3.197.581 3.197.581" id="path807" transform="translate(-10.68813 -137.3012)"/>
        </g>
        <path d="M387.100374 335.3793c0-.291.872-72.96.872-72.96s2.616-.291 2.616 0-.29 72.669-.581 72.96c-.291.291-3.198.581-2.907 0z" id="path723" fill="#dd8b59" fill-opacity="1" stroke-width=".4712598" stroke-linecap="butt" stroke-linejoin="miter"/>
        <path d="M415.587374 265.6163c0 .582-.582 61.333-.582 61.333l-2.035 2.326.582-63.659h2.035z" id="path724" fill="#dd8b59" fill-opacity="1" stroke-width=".4712598" stroke-linecap="butt" stroke-linejoin="miter"/>
        <path d="M354.835374 323.4613s2.907 29.94 36.335 29.068c33.428-.872 42.729-30.23 42.729-30.23s-14.243-.582-14.534-.582c-.29 0-11.627 13.953-26.161 13.662-14.534-.291-19.184-3.779-22.382-6.685-3.197-2.907-6.104-7.267-6.104-7.267l-16.859-6.686.872 6.395 6.104 2.325z" id="path719" fill="#dd8b59" fill-opacity="1" stroke-width=".4712598" stroke-linecap="butt" stroke-linejoin="miter"/>
        <path d="M445.080374 320.3513c-.291-.872-1.007-3.866-1.007-3.866v-3.488l1.609-3.532s-25.289 3.623-25.289 3.914c0-.335-.156 6.885-.156 6.885l24.843.087z" id="path712" fill="#dd8b59" fill-opacity="1" stroke-width=".4712598" stroke-linecap="butt" stroke-linejoin="miter"/>
        <path d="M440.294374 312.9973l-.581 6.104h4.069l-.29-6.104h-3.198z" id="path714" fill="none" fill-opacity="1" stroke-width=".4712598" stroke-linecap="butt" stroke-linejoin="miter"/>
        <path d="M435.934374 313.2883l-.291 6.394 2.616-.29.291-6.104h-2.616z" id="path715" fill="none" fill-opacity="1" stroke-width=".4712598" stroke-linecap="butt" stroke-linejoin="miter"/>
        <path d="M431.574374 319.6823v-4.941l2.616-.872.291 4.941-2.907.872z" id="path716" fill="none" fill-opacity="1" stroke-width=".4712598" stroke-linecap="butt" stroke-linejoin="miter"/>
        <path d="M426.632374 319.3923l.582-4.36 2.906.29.291 4.651-3.779-.581z" id="path717" fill="none" fill-opacity="1" stroke-width=".4712598" stroke-linecap="butt" stroke-linejoin="miter"/>
        <path d="M421.109374 319.3923l.291-3.779 2.907-.291v4.36l-3.198-.29z" id="path718" fill="none" fill-opacity="1" stroke-width=".4712598" stroke-linecap="butt" stroke-linejoin="miter"/>
        <path d="M353.672374 323.1713c.872 0 7.558 1.453 7.558 1.453l6.976 9.302h0" id="path720" fill="none" fill-opacity="1" stroke-width=".4712598" stroke-linecap="butt" stroke-linejoin="miter"/>
        <path d="M358.614374 324.3333c.29.291 6.104 19.766 34.009 19.766s34.591-22.091 34.591-22.091" id="path721" fill="none" fill-opacity="1" stroke-width=".4712598" stroke-linecap="butt" stroke-linejoin="miter"/>
        <path d="M431.574374 322.5893s-13.371 29.068-38.951 27.033c-25.58-2.034-29.649-11.627-31.684-16.568-2.035-4.942-3.197-9.011-3.197-9.011" id="path722" fill="none" fill-opacity="1" stroke-width=".4712598" stroke-linecap="butt" stroke-linejoin="miter"/>
        <path d="M365.009374 321.4273c.29-1.745.29-54.357.29-54.357l-1.744-.291-.29 53.776 1.744.872z" id="path725" fill="#dd8b59" fill-opacity="1" stroke-width=".4712598" stroke-linecap="butt" stroke-linejoin="miter"/>
        <path d="M323.442374 304.2773l22.091 10.755-.581 1.453s-21.22-9.883-21.22-10.174c0-.29.291-1.453-.29-2.034z" id="path726" fill="#dd8b59" fill-opacity="1" stroke-width=".4712598" stroke-linecap="butt" stroke-linejoin="miter"/>
        <path d="M333.615374 301.0793c0 .872 3.198 18.603 3.198 18.603s2.035.291 2.035 0c0-.29-3.489-18.312-3.489-18.312l-1.744-.291z" id="path727" fill="#dd8b59" fill-opacity="1" stroke-width=".4712598" stroke-linecap="butt" stroke-linejoin="miter"/>
        <path d="M353.963374 301.6603c1.163 0 20.929-3.197 20.929-3.197l-.291 3.197-19.475 2.035-1.163-2.035z" id="path730" fill="#dd8b59" fill-opacity="1" stroke-width=".4712598" stroke-linecap="butt" stroke-linejoin="miter"/>
        <path d="M356.870374 277.5343c.581 0 6.976 3.198 9.592 2.326 2.616-.872.872-2.907 1.453-2.907.582 0 2.616 1.453 3.779.29 1.163-1.162 2.035-4.65 1.454-4.36-.582.291-15.988 5.814-16.278 4.651z" id="path746" fill="#fecf3e" fill-opacity="1" stroke-width=".4712598" stroke-linecap="butt" stroke-linejoin="miter"/>
        <path d="M354.253374 284.8013c1.163.291 23.836-6.104 23.836-6.104s0 2.035-.291 2.035c-.29 0-23.545 6.104-23.545 6.104v-2.035z" id="path731" fill="#dd8b59" fill-opacity="1" stroke-width=".4712598" stroke-linecap="butt" stroke-linejoin="miter"/>
        <path d="M406.866374 275.7903s1.454 3.488 2.907 2.907 2.907-1.744 2.907-1.744 1.163 2.907 3.197 2.325c2.035-.581 3.198-3.779 3.198-3.779s2.034.582 2.906.291c.873-.291 2.035-4.941 2.035-4.941l-17.15 4.941z" id="path748" fill="#fecf3e" fill-opacity="1" stroke-width=".4712598" stroke-linecap="butt" stroke-linejoin="miter"/>
        <path d="M405.122374 303.9863c-.291.581 1.454 2.035 2.907 2.035s2.035-2.035 2.325-1.454c.291.582.291 3.198 4.07 2.326 3.779-.872 3.779-3.488 3.779-3.488s-1.163.872 1.453 1.162c2.616.291 5.232-3.779 4.942-3.779-.291 0-18.894 3.489-19.476 3.198z" id="path745" fill="#fecf3e" fill-opacity="1" stroke-width=".4712598" stroke-linecap="butt" stroke-linejoin="miter"/>
        <path d="M355.126374 276.3713c-.291 1.163.29 2.617.29 2.617l18.894-6.395s.872-1.454 0-1.454-19.475 5.814-19.184 5.232z" id="path732" fill="#dd8b59" fill-opacity="1" stroke-width=".4712598" stroke-linecap="butt" stroke-linejoin="miter"/>
        <path d="M380.124374 272.3023c.581 0 19.475-6.104 19.475-6.104s.291 2.616 0 2.616c-.29 0-17.731 5.232-17.731 5.232l-1.744-1.744z" id="path733" fill="#dd8b59" fill-opacity="1" stroke-width=".4712598" stroke-linecap="butt" stroke-linejoin="miter"/>
        <path d="M405.122374 285.0923s-2.907 3.197-2.035 7.557c.872 4.361 2.035 8.139 2.326 8.139.291 0 3.488-5.813 6.976-6.104 3.488-.291 9.883 3.198 9.883 3.198s-.872-6.977-.581-10.174c.29-3.198 5.232-8.72 5.232-8.72l-21.801 6.104z" id="path741" fill="#fecf3e" fill-opacity="1" stroke-width=".4712598" stroke-linecap="butt" stroke-linejoin="miter"/>
        <path d="M378.670374 279.8603s-.581 2.616-.29 2.616c.29 0 24.707-6.395 24.707-6.395v-1.744l-24.417 5.523z" id="path734" fill="#dd8b59" fill-opacity="1" stroke-width=".4712598" stroke-linecap="butt" stroke-linejoin="miter"/>
        <path d="M347.277374 315.0323s-5.813-.872-5.523.581c.291 1.453 2.907 2.907 3.198 3.779.29.872-.872 4.069.872 3.779 1.744-.291 3.488-1.454 3.488-2.326 0-.872-.291-4.941-.291-4.941l-1.744-.872z" id="path749" fill="#b6b6b4" fill-opacity=".99607801" stroke-width=".4712598" stroke-linecap="butt" stroke-linejoin="miter"/>
        <path d="M379.542374 300.4983v2.034l20.929-2.906-.581-1.454-20.348 2.326z" id="path735" fill="#dd8b59" fill-opacity="1" stroke-width=".4712598" stroke-linecap="butt" stroke-linejoin="miter"/>
        <path d="M354.835374 303.9863c.291 0 0 2.616 2.325 2.035 2.326-.582 2.907-2.035 2.907-2.035s.581 3.197 3.779 2.907c3.197-.291 4.941-3.779 4.941-3.779s.291 2.616 2.326 1.744c2.035-.872 2.616-2.907 2.616-2.907l-18.313 2.616h0l-.581-.581z" id="path743" fill="#fecf3e" fill-opacity="1" stroke-width=".4712598" stroke-linecap="butt" stroke-linejoin="miter"/>
        <path d="M354.835374 286.8363s-2.616.872-1.744 6.104c.872 5.232 2.907 8.139 3.197 8.139.291 0 2.616-4.941 6.104-5.813 3.489-.873 9.593 2.616 9.593 2.616s-.582-4.651.291-9.011c.872-4.361 3.778-7.558 3.778-7.558s-20.347 5.523-21.219 5.523z" id="path739" fill="#fecf3e" fill-opacity="1" stroke-width=".4712598" stroke-linecap="butt" stroke-linejoin="miter"/>
        <path d="M403.669374 301.9513l.29 1.744s20.929-2.616 20.929-2.907c0-.29 0-2.034-.29-2.034-.291 0-20.639 3.488-20.929 3.197z" id="path736" fill="#dd8b59" fill-opacity="1" stroke-width=".4712598" stroke-linecap="butt" stroke-linejoin="miter"/>
        <path d="M403.378374 283.3483l.291 2.034 24.707-6.685s.582-1.744.291-1.744-24.708 7.267-25.289 6.395z" id="path737" fill="#dd8b59" fill-opacity="1" stroke-width=".4712598" stroke-linecap="butt" stroke-linejoin="miter"/>
        <path d="M405.994374 274.0463s-.29 1.744 0 1.744c.291 0 18.313-4.36 18.313-4.651 0-.29 1.744-2.035.291-1.744-1.454.291-18.022 5.523-18.604 4.651z" id="path738" fill="none" fill-opacity="1" stroke-width=".4712598" stroke-linecap="butt" stroke-linejoin="miter"/>
        <path d="M444.654374 307.7653l-18.022-28.487" id="path750" fill="none" fill-opacity="1" stroke-width=".4712598" stroke-linecap="butt" stroke-linejoin="miter"/>
        <path d="M424.307374 299.0443c.291-.872 1.163-18.312 1.163-18.312" id="path751" fill="none" fill-opacity="1" stroke-width=".4712598" stroke-linecap="butt" stroke-linejoin="miter"/>
        <path d="M380.705374 273.1743c1.163.291 3.198 3.197 4.36 2.616 1.163-.581 2.907-2.325 2.907-2.325s-.291 3.488 2.035 2.906c2.325-.581 2.616-2.906 2.616-2.906s1.744.872 3.197 0c1.454-.872 2.907-5.233 2.326-5.233s-16.859 5.233-17.441 4.942z" id="path747" fill="#fecf3e" fill-opacity="1" stroke-width=".4712598" stroke-linecap="butt" stroke-linejoin="miter"/>
        <path d="M380.124374 281.6043c0 .581-2.907 5.232-2.035 9.592.872 4.36 2.616 8.43 2.907 8.43.291 0 4.651-4.651 8.43-5.523 3.778-.872 9.301 2.907 9.011 2.907-.291 0-1.454-4.361-1.454-7.558 0-3.198 4.36-13.081 4.36-13.081l-21.219 5.233z" id="path740" fill="#fecf3e" fill-opacity="1" stroke-width=".4712598" stroke-linecap="butt" stroke-linejoin="miter"/>
        <path d="M380.124374 302.5323c0 .291.872 2.326 2.907 2.326 2.034 0 2.325-2.035 2.325-2.035s-.291 3.488 2.907 3.198c3.197-.291 4.36-3.489 4.36-3.489s.291 1.745 2.907.873c2.616-.873 6.104-3.779 5.813-3.779-.29 0-20.928 3.779-21.219 2.906z" id="path744" fill="#fecf3e" fill-opacity="1" stroke-width=".4712598" stroke-linecap="butt" stroke-linejoin="miter"/>
        <path id="path771" d="M384.63424 288.50403a1.889405 1.889405 0 11-3.77881 0 1.889405 1.889405 0 113.77881 0z" fill="#be0f17" fill-opacity=".996081" stroke-width=".4712598" stroke-linecap="butt" stroke-linejoin="miter"/>
        <path id="path772" d="M395.09864 287.05063a1.889405 1.889405 0 11-3.77881 0 1.889405 1.889405 0 113.77881 0z" fill="#be0f17" fill-opacity=".996081" stroke-width=".4712598" stroke-linecap="butt" stroke-linejoin="miter"/>
        <path id="path773" d="M388.57055143 288.8209271a1.8894049 1.8894049 0 11-.14988495 3.77583607 1.8894049 1.8894049 0 11.14988495-3.77583607z" fill="#be0f17" fill-opacity=".996081" stroke-width=".4712598" stroke-linecap="butt" stroke-linejoin="miter"/>
        <path id="path774" d="M387.82405143 281.7953271a1.8894049 1.8894049 0 11-.14988495 3.77583607 1.8894049 1.8894049 0 11.14988495-3.77583607z" fill="#be0f17" fill-opacity=".996081" stroke-width=".4712598" stroke-linecap="butt" stroke-linejoin="miter"/>
        <path d="M390.007374 263.2913c0-.291 9.011 3.779 9.011 4.069 0 .291 31.974 42.73 32.265 42.73" id="path753" fill="none" fill-opacity="1" stroke-width=".4712598" stroke-linecap="butt" stroke-linejoin="miter"/>
        <path d="M415.296374 267.3603l8.139 3.489 2.616 6.394" id="path754" fill="none" fill-opacity="1" stroke-width=".4712598" stroke-linecap="butt" stroke-linejoin="miter"/>
        <path d="M364.718374 266.7793c-.291 0 9.011 6.976 9.011 6.976l1.163 5.814" id="path755" fill="none" fill-opacity="1" stroke-width=".4712598" stroke-linecap="butt" stroke-linejoin="miter"/>
        <path d="M333.034374 309.2183c4.069-1.744 32.265-26.452 32.265-26.452" id="path756" fill="none" fill-opacity="1" stroke-width=".4712598" stroke-linecap="butt" stroke-linejoin="miter"/>
        <path d="M325.476374 304.5673c3.489-2.907 31.684-26.742 31.684-26.742" id="path757" fill="none" fill-opacity="1" stroke-width=".4712598" stroke-linecap="butt" stroke-linejoin="miter"/>
        <path d="M378.380374 281.8943l29.94 49.706" id="path758" fill="none" fill-opacity="1" stroke-width=".4712598" stroke-linecap="butt" stroke-linejoin="miter"/>
        <path d="M404.788374 302.4493s3.532 11.711 7.02 13.455c3.488 1.744 7.557 4.651 7.557 4.651" id="path759" fill="none" fill-opacity="1" stroke-width=".4712598" stroke-linecap="butt" stroke-linejoin="miter"/>
        <path d="M404.385374 302.6923s2.481 13.793 5.969 16.409c3.488 2.616 6.977 5.523 6.977 5.523" id="path760" fill="none" fill-opacity="1" stroke-width=".4712598" stroke-linecap="butt" stroke-linejoin="miter"/>
        <path d="M380.27387 301.7298s3.488 19.185 10.465 23.545c6.976 4.36 12.789 8.139 12.789 8.139" id="path761" fill="none" fill-opacity="1" stroke-width=".4712598" stroke-linecap="butt" stroke-linejoin="miter"/>
        <path d="M379.98387 301.4388s7.557 15.116 13.952 19.767c6.395 4.65 15.115 9.011 15.115 9.011" id="path762" fill="none" fill-opacity="1" stroke-width=".4712598" stroke-linecap="butt" stroke-linejoin="miter"/>
        <path d="M355.56687 302.6018c2.034 3.488 1.744 10.174 4.069 12.499 2.325 2.326 5.814 7.558 5.814 7.558" id="path763" fill="none" fill-opacity="1" stroke-width=".4712598" stroke-linecap="butt" stroke-linejoin="miter"/>
        <path d="M356.14787 302.8928c1.163 1.744 4.406 10.428 6.395 13.08 1.454 2.326 16.278 17.15 16.278 17.15" id="path764" fill="none" fill-opacity="1" stroke-width=".4712598" stroke-linecap="butt" stroke-linejoin="miter"/>
        <path id="path766" d="M373.87915 333.84986a2.18007 2.1801 0 11-4.36014 0 2.18007 2.1801 0 114.36014 0z" fill="#000" fill-opacity="1" stroke-width=".4712598" stroke-linecap="butt" stroke-linejoin="miter"/>
        <path id="path767" d="M384.63426 338.50071a1.889405 1.889405 0 11-3.77881 0 1.889405 1.889405 0 113.77881 0z" fill="#000" fill-opacity="1" stroke-width=".4712598" stroke-linecap="butt" stroke-linejoin="miter"/>
        <path id="path768" d="M398.29612 339.66343a1.889405 1.889405 0 11-3.77881 0 1.889405 1.889405 0 113.77881 0z" fill="#000" fill-opacity="1" stroke-width=".4712598" stroke-linecap="butt" stroke-linejoin="miter"/>
        <path id="path769" d="M410.21394 335.15791a1.598725 1.744081 0 11-3.19745 0 1.598725 1.744081 0 113.19745 0z" fill="#000" fill-opacity="1" stroke-width=".4712598" stroke-linecap="butt" stroke-linejoin="miter"/>
        <path id="path770" d="M419.8063 329.48969a1.88939 1.59875585 0 11-3.77878 0 1.88939 1.59875585 0 113.77878 0z" fill="#000" fill-opacity="1" stroke-width=".4712598" stroke-linecap="butt" stroke-linejoin="miter"/>
        <path d="M363.41487 267.1388c-.872.582-15.406 4.07-13.371 3.779 2.034-.29 13.662 2.907 13.371 2.035-.291-.872 0-5.232 0-5.814z" id="path776" fill="red" fill-opacity=".99607801" stroke-width=".4712598" stroke-linecap="butt" stroke-linejoin="miter"/>
        <path d="M388.12287 262.7788c-.582 0-9.012 3.198-8.721 3.198.291 0 9.593 2.616 9.302 2.034-.291-.581-.291-4.36-.581-5.232z" id="path777" fill="red" fill-opacity=".99607801" stroke-width=".4712598" stroke-linecap="butt" stroke-linejoin="miter"/>
        <path d="M413.41187 265.6858c-.582.291-10.465 2.616-8.721 2.907 1.744.291 8.43 2.616 8.43 2.035 0-.582 0-4.651.291-4.942z" id="path778" fill="red" fill-opacity=".99607801" stroke-width=".4712598" stroke-linecap="butt" stroke-linejoin="miter"/>
        <g id="g788" stroke-width=".4712598" fill="none" fill-opacity="1" stroke-linecap="butt" stroke-linejoin="miter">
          <path d="M413.635 471.006c.291-4.651 8.72-31.103 8.72-31.103h0" id="path779" transform="translate(-10.68813 -137.3012)"/>
          <path d="M416.542 470.134c0-.291 6.686-29.94 6.686-29.94" id="path780" transform="translate(-10.68813 -137.3012)"/>
          <path d="M419.449 467.808c.29-1.744 4.941-27.614 4.941-27.614" id="path781" transform="translate(-10.68813 -137.3012)"/>
          <path d="M413.926 467.227c1.453-.872 5.813-2.035 5.813-2.035" id="path782" transform="translate(-10.68813 -137.3012)"/>
          <path d="M415.961 462.576c1.453 0 4.36-1.163 4.36-1.163" id="path783" transform="translate(-10.68813 -137.3012)"/>
          <path d="M416.833 459.088c0-.291 4.36-1.163 4.36-1.163" id="path784" transform="translate(-10.68813 -137.3012)"/>
          <path d="M417.414 454.728l4.651-.872" id="path785" transform="translate(-10.68813 -137.3012)"/>
          <path d="M419.449 450.949c0 .291 3.197.291 3.197.291" id="path786" transform="translate(-10.68813 -137.3012)"/>
          <path d="M420.321 447.461c.581 0 3.197.581 3.197.581" id="path787" transform="translate(-10.68813 -137.3012)"/>
        </g>
        <g id="g837" stroke-width=".4712598" font-size="12" fill="none">
          <path d="M413.635 471.006c.291-4.651 8.72-31.103 8.72-31.103h0" id="path819" transform="matrix(1 0 0 1.03907 -35.35301 -155.4996)"/>
          <path d="M416.542 471.321c0-.291 6.686-31.127 6.686-31.127" id="path820" transform="matrix(1 0 0 1.03907 -35.35301 -155.4996)"/>
          <path d="M418.832 471.369c.29-1.744 5.558-31.175 5.558-31.175" id="path821" transform="matrix(1 0 0 1.03907 -35.35301 -155.4996)"/>
          <path d="M413.926 467.227c1.453-.872 5.813-2.035 5.813-2.035" id="path822" transform="matrix(1 0 0 1.03907 -35.35301 -155.4996)"/>
          <path d="M415.961 462.576c1.453 0 4.36-1.163 4.36-1.163" id="path823" transform="matrix(1 0 0 1.03907 -35.35301 -155.4996)"/>
          <path d="M416.833 459.088c0-.291 4.36-1.163 4.36-1.163" id="path824" transform="matrix(1 0 0 1.03907 -35.35301 -155.4996)"/>
          <path d="M417.414 454.728l4.651-.872" id="path825" transform="matrix(1 0 0 1.03907 -35.35301 -155.4996)"/>
          <path d="M419.449 450.949c0 .291 3.197.291 3.197.291" id="path826" transform="matrix(1 0 0 1.03907 -35.35301 -155.4996)"/>
          <path d="M420.321 447.461c.581 0 3.197.581 3.197.581" id="path827" transform="matrix(1 0 0 1.03907 -35.35301 -155.4996)"/>
        </g>
        <g id="g847" transform="matrix(-1 0 0 1.00603 778.0071 -5.114014)" stroke-width=".46984506" fill="none" fill-opacity="1" stroke-linecap="butt" stroke-linejoin="miter">
          <path d="M413.635 471.006c.291-4.651 8.72-31.103 8.72-31.103h0" id="path848" transform="translate(-10.68813 -137.3012)"/>
          <path d="M416.542 470.134c0-.291 6.686-29.94 6.686-29.94" id="path849" transform="translate(-10.68813 -137.3012)"/>
          <path d="M419.449 467.808c.29-1.744 4.941-27.614 4.941-27.614" id="path850" transform="translate(-10.68813 -137.3012)"/>
          <path d="M413.926 467.227c1.453-.872 5.813-2.035 5.813-2.035" id="path851" transform="translate(-10.68813 -137.3012)"/>
          <path d="M415.961 462.576c1.453 0 4.36-1.163 4.36-1.163" id="path852" transform="translate(-10.68813 -137.3012)"/>
          <path d="M416.833 459.088c0-.291 4.36-1.163 4.36-1.163" id="path853" transform="translate(-10.68813 -137.3012)"/>
          <path d="M417.414 454.728l4.651-.872" id="path854" transform="translate(-10.68813 -137.3012)"/>
          <path d="M419.449 450.949c0 .291 3.197.291 3.197.291" id="path855" transform="translate(-10.68813 -137.3012)"/>
          <path d="M420.321 447.461c.581 0 3.197.581 3.197.581" id="path856" transform="translate(-10.68813 -137.3012)"/>
        </g>
        <path d="M418.203374 321.7173l27.614.582.291-2.035-28.487-.291.582 1.744z" id="path711" fill="#dd8b59" fill-opacity="1" stroke-width=".4712598" stroke-linecap="butt" stroke-linejoin="miter"/>
        <path d="M419.365374 314.4503c3.198 0 27.324-4.651 27.324-4.651s.872-2.906 0-2.906-27.324 5.523-27.324 5.523v2.034z" id="path713" fill="#dd8b59" fill-opacity="1" stroke-width=".4712598" stroke-linecap="butt" stroke-linejoin="miter"/>
      </g>
    </g>
  </g>
</svg>
