<svg xmlns="http://www.w3.org/2000/svg" id="svg3425" version="1.0" viewBox="0 0 579.48572 579.48572">
  <g transform="translate(-85.257153 -392.61932)" id="layer1">
    <g id="g7244" transform="matrix(.97155 0 0 .97155 10.669616 19.414785)">
      <path transform="translate(244.89235 435.50133)" d="M428.33452 246.86082c0 164.70616-133.52072 298.22687-298.22687 298.22687s-298.22687-133.52071-298.22687-298.22687c0-164.706146 133.52072-298.226863 298.22687-298.226863S428.33452 82.154674 428.33452 246.86082z" id="path7242" fill="#fff" fill-opacity="1" fill-rule="nonzero" stroke="none"/>
      <path transform="translate(184 434.36215)" d="M385.57538 248c0 107.46101-87.11437 194.57538-194.57538 194.57538C83.538986 442.57538-3.5753784 355.46101-3.5753784 248S83.538986 53.424622 191 53.424622c107.46101 0 194.57538 87.114368 194.57538 194.575378z" id="path7240" fill="#75b2dd" fill-opacity="1" fill-rule="nonzero" stroke="none"/>
      <path d="M260.25 298.75S245 315.5 227.5 315.5s-32-16.25-32-16.25-13 16.25-30.75 16.25S136 299 136 299s-11.25 18-24.75 18c-2.67889 0-5.03697-.40068-7.125-1.0625 8.35534 99.72125 92.00624 178.125 193.875 178.125 101.47259 0 184.84453-77.80125 193.75-176.96875-2.09421.55324-4.56296.90625-7.5.90625C467 318 457 298.75 457 298.75s-3 16.75-27.75 16.75S397 299 397 299s-5.25 15.5-29.5 15.5-35.5-15.25-35.5-15.25S322 316 295.25 316c-21.75 0-35-17.25-35-17.25z" transform="translate(77 382.86215)" id="path3652" fill="#08298c" fill-opacity="1" fill-rule="evenodd" stroke="none"/>
      <path id="path7158" d="M282.75 811.86215c8.45203 2.5043 11-4 14.25-14s26-22.75 42.75-22.75 29.25 9.5 43.5 9.5 35-8.5 44-7.25 29 34.5 36.75 34.5 8.75-4.5 8.75-7.75-16.25-31.25-21.25-34.75-9.5-9.5-21-9.5-91.5-4.5-103.75-.5-48.5 33.75-48.5 43c0 4.75657-.54797 8.0043 4.5 9.5z" fill="#fdfbf9" fill-opacity="1" fill-rule="evenodd" stroke="#08298c" stroke-opacity="1" stroke-width="1.23514265" stroke-miterlimit="4" stroke-dasharray="none"/>
      <path id="path3737" d="M375 831.11215c40.25 0 63-9.75 63-9.75v-36.75s-15.75 14.25-63 14.25-63-14.25-63-14.25v36.75s22.75 9.75 63 9.75z" fill="#fff" fill-rule="evenodd" stroke="#08298c" stroke-width="1.23514265" stroke-linecap="butt" stroke-linejoin="miter" stroke-miterlimit="4" stroke-opacity="1" stroke-dasharray="none"/>
      <path d="M291 751.61215l.5-37.75c-18.02007-3.5-82.5-2.25-82.5-2.25 5.78947 6.44181 11.7838 12.47387 16.94837 20.16548-4.28232 7.91337-9.00089 14.08176-13.94837 19.33452 0 0 61.97747.5 79 .5z" id="path3667" fill="#fff" fill-rule="evenodd" stroke="#08298c" stroke-width="1.23514265" stroke-linecap="butt" stroke-linejoin="miter" stroke-miterlimit="4" stroke-opacity="1" stroke-dasharray="none"/>
      <path id="path3467" d="M379.625 384.17465l-8.03125 22.4375c1.13381-.0137 2.26921-.0312 3.40625-.0312 5.38081 0 10.72627.16419 16.03125.46875l7.8125-21.96875c-6.35086-.50322-12.76256-.80774-19.21875-.90625zm-26.00635.7316l-6.04513 23.05209c1.12829-.11252 2.25785-.22891 3.39056-.32801 5.36033-.46897 10.69976-.77129 16.0111-.93025l5.86807-22.56605c-6.37055.0522-12.78439.30766-19.2246.77222zm-25.84363 2.99542l-4.013 23.49123c1.11419-.21042 2.22931-.42482 3.34907-.62226 5.29906-.93437 10.59182-1.7009 15.86909-2.32217l3.87898-22.99162c-6.34175.60724-12.70892 1.42072-19.08414 2.44482zm-25.48422 5.23644l-1.95033 23.75159c1.09161-.30672 2.1838-.6175 3.28209-.91178 5.19746-1.39266 10.40327-2.61756 15.60631-3.69641l1.86037-23.24221c-6.26469 1.15765-12.53673 2.52297-18.79844 4.09881zm-24.93086 7.43761l.12718 23.83119c1.06073-.40069 2.12167-.80548 3.19014-1.19436 5.0563-1.84035 10.13554-3.51431 15.22476-5.04253l-.1724-23.31591c-6.13996 1.69925-12.26914 3.60602-18.36968 5.72161zm-24.18776 9.58217l2.20373 23.72943c1.02177-.49162 2.04339-.98734 3.0739-1.46786 4.87666-2.27403 9.79068-4.38431 14.72734-6.35027l-2.20386-23.21216c-5.9685 2.22792-11.90817 4.66163-17.80111 7.30086zm-23.26057 11.65381l4.2635 23.44707c.97503-.5788 1.94956-1.16168 2.93427-1.73018 4.65991-2.69041 9.3713-5.22095 14.11783-7.60968l-4.21854-22.93175c-5.75162 2.73963-11.45657 5.68175-17.09706 8.82454zm-22.15636 13.63676l6.29082 22.98626c.92087-.66158 1.84089-1.32718 2.77231-1.97934 4.40769-3.08631 8.8806-6.01784 13.40088-8.81117l-6.20112-22.47682c-5.49096 3.23049-10.91778 6.65864-16.26289 10.28107zm-20.88353 15.51592l8.27027 22.35051c.8597-.73932 1.71821-1.48257 2.58925-2.21343 4.12192-3.45872 8.32231-6.76894 12.58194-9.9456l-8.13651-21.85083c-5.18851 3.69677-10.2959 7.58485-15.30495 11.65935zm-19.45176 17.277l10.18677 21.54466c.792-.81144 1.58246-1.62668 2.38649-2.43068 3.80479-3.80481 7.70069-7.46852 11.66724-11.00434l-10.00997-21.05854c-4.84657 4.13491-9.59566 8.45334-14.23053 12.9489zm-17.87195 18.90659l12.02575 20.57484c.71826-.87738 1.43466-1.75841 2.16556-2.62943 3.4587-4.12194 7.02046-8.11126 10.66375-11.97933l-11.80725-20.10598c-4.46775 4.54158-8.82239 9.25749-13.04781 14.1399zm-16.15612 20.39228l13.7732 19.44844c.63906-.93664 1.27595-1.87676 1.92815-2.80817 3.08629-4.4077 6.2868-8.69226 9.5791-12.86315l-13.51467-19.0004c-4.05492 4.91369-7.98197 9.99118-11.76578 15.22328zm-14.31734 21.72278l15.41583 18.17402c.555-.98877 1.10753-1.98082 1.67607-2.96553 2.69039-4.65991 5.50529-9.20711 8.42155-13.64907l-15.11924-17.75022c-3.61123 5.2484-7.08081 10.64883-10.39421 16.1908zm-12.36959 22.88796l16.94113 16.76129c.46672-1.03338.93068-2.06981 1.41123-3.10033 2.27402-4.87666 4.68189-9.65189 7.19991-14.33112l-16.60874-16.36494c-3.14006 5.54316-6.12576 11.22544-8.94353 17.0351zm-10.327706 23.87895l18.337506 15.22099c.37488-1.07013.74674-2.14305 1.13565-3.21153 1.84034-5.0563 3.82285-10.02322 5.92347-14.9041l-17.97184-14.85512c-2.64499 5.79574-5.124084 11.71662-7.424786 17.74976zm-8.207219 24.6882l19.594325 13.56485c.28018-1.09873.55712-2.19998.85142-3.29829 1.39265-5.19745 2.93473-10.31826 4.60196-15.36365l-19.198166-13.23224c-2.129793 6.00421-4.083414 12.11863-5.849539 18.32933zm-6.024269 25.30956l20.702014 11.80547c.18336-1.11897.36326-2.24016.56072-3.35994.93436-5.29905 2.02427-10.53478 3.24542-15.70628L86.375539 607.2583c-1.598387 6.16698-3.011667 12.42841-4.229773 18.7694zm-3.795472 25.7383l21.652156 9.95625c.0851-1.1307.16663-2.2633.26574-3.39603.46897-5.36032 1.0984-10.67112 1.86418-15.92937l-21.204259-9.69748c-1.054817 6.28282-1.917 12.6436-2.577817 19.06663zm-1.537788 25.97115l22.437507 8.03126c-.01374-1.13382-.03126-2.26921-.03125-3.40627.000002-5.3808.16417-10.72625.46875-16.03123l-21.968762-7.8125c-.503219 6.35084-.807743 12.76256-.906241 19.21874zm.731599 26.00635l23.052095 6.04514c-.11251-1.12831-.22892-2.25785-.32801-3.39058-.468966-5.36033-.77131-10.69974-.930248-16.01108l-22.566069-5.86807c.05221 6.37053.307662 12.78439.772232 19.22459zm2.995417 25.84363l23.491248 4.01301c-.21042-1.11421-.42484-2.22931-.62227-3.34909-.93437-5.29906-1.70092-10.5918-2.32217-15.86908L78.094696 710.503c.607238 6.34173 1.420724 12.70892 2.444826 19.08413zm5.23644 25.48422l23.751618 1.95034c-.30673-1.09163-.61753-2.1838-.9118-3.28211-1.39266-5.19746-2.61758-10.40325-3.69641-15.60631l-23.242223-1.86035c1.157646 6.26467 2.522973 12.53673 4.098815 18.79843zm7.43761 24.93085l23.831218-.12717c-.4007-1.06074-.80551-2.12167-1.19438-3.19015-1.84035-5.0563-3.51433-10.13552-5.04253-15.22476l-23.315917.17242c1.699242 6.13994 3.60602 12.26914 5.721609 18.36966zm9.582178 24.18776l23.72945-2.20372c-.49163-1.02178-.98737-2.04339-1.46788-3.07391-2.27403-4.87666-4.38433-9.79066-6.35027-14.72734l-23.212162 2.20388c2.227907 5.96848 4.661622 11.90817 7.300862 17.80109zm11.65381 23.26057l23.44709-4.26349c-.57881-.97504-1.16171-1.94956-1.7302-2.93428-2.69041-4.65991-5.22096-9.37128-7.60968-14.11783l-22.93175 4.21856c2.73961 5.7516 5.68174 11.45657 8.82454 17.09704zm13.63676 22.15636l22.98628-6.29081c-.66159-.92089-1.32721-1.84089-1.97936-2.77232-3.08631-4.40769-6.01785-8.88058-8.81117-13.40088l-22.47682 6.20114c3.23047 5.49094 6.65863 10.91778 10.28107 16.26287zm15.51592 20.88353l22.35053-8.27026c-.73933-.85972-1.4826-1.71821-2.21345-2.58926-3.45872-4.12193-6.76894-8.32229-9.9456-12.58194l-21.85083 8.13653c3.69675 5.18849 7.58484 10.29589 11.65935 15.30493zm17.277 19.45176l21.54468-10.18677c-.81145-.79201-1.62671-1.58245-2.4307-2.38649-3.80481-3.8048-7.46852-7.70067-11.00434-11.66725l-21.05854 10.01c4.13489 4.84655 8.45333 9.59565 12.9489 14.23051zm18.90659 17.87195l20.57486-12.02575c-.87739-.71827-1.75844-1.43465-2.62945-2.16556-4.12194-3.45871-8.11126-7.02044-11.97933-10.66376l-20.10598 11.80728c4.54156 4.46773 9.25748 8.82238 14.1399 13.04779zm20.39228 16.15612l19.44846-13.7732c-.93666-.63907-1.87679-1.27594-2.80819-1.92815-4.4077-3.0863-8.69226-6.28678-12.86315-9.57911l-19.0004 13.5147c4.91367 4.0549 9.99117 7.98196 15.22328 11.76576zm21.72278 14.31734l18.17404-15.41583c-.98879-.55501-1.98085-1.10752-2.96555-1.67607-4.65992-2.6904-9.20711-5.50527-13.64908-8.42156l-17.75021 15.11927c5.24838 3.61121 10.64882 7.0808 16.1908 10.39419zm22.88796 12.36959l16.7613-16.94114c-1.0334-.46672-2.06983-.93066-3.10034-1.41122-4.87667-2.27403-9.65189-4.68187-14.33113-7.19992l-16.36493 16.60877c5.54314 3.14004 11.22543 6.12575 17.0351 8.94351zm23.87895 10.32771l15.221-18.33752c-1.07015-.37488-2.14307-.74672-3.21154-1.13564-5.05631-1.84035-10.02322-3.82284-14.90411-5.92348l-14.85511 17.97187c5.79572 2.64497 11.71661 5.12407 17.74976 7.42477zm24.6882 8.20722l13.56486-19.59434c-1.09875-.28018-2.2-.5571-3.2983-.85141-5.19747-1.39266-10.31826-2.93472-15.36366-4.60196l-13.23223 19.19819c6.00419 2.12977 12.11862 4.0834 18.32933 5.84952zm25.30956 6.02427l11.80548-20.70203c-1.11899-.18336-2.24018-.36324-3.35995-.56071-5.29907-.93437-10.53478-2.02426-15.70629-3.24542l-11.50864 20.2784c6.16696 1.59837 12.42839 3.01166 18.7694 4.22976zm25.7383 3.79547l9.95625-21.65217c-1.13071-.0851-2.26331-.16661-3.39603-.26573-5.36034-.46897-10.67112-1.09839-15.92938-1.86418l-9.69747 21.20428c6.2828 1.0548 12.64358 1.91699 19.06663 2.5778zm25.97115 1.53779l8.03125-22.43752c-1.13382.0137-2.26921.0313-3.40626.0313-5.38082 0-10.72625-.16416-16.03124-.46875l-7.81249 21.96878c6.35082.50321 12.76254.80774 19.21874.90623zm26.00635-.7316l6.04513-23.05211c-1.12831.11251-2.25785.22894-3.39057.32802-5.36035.46897-10.69974.77132-16.01109.93025l-5.86806 22.56608c6.37051-.0522 12.78438-.30766 19.22459-.77224zm25.84363-2.99542l4.013-23.49126c-1.11421.21043-2.22931.42486-3.34908.62228-5.29908.93437-10.5918 1.70093-15.86909 2.32217l-3.87896 22.99165c6.34171-.60724 12.70891-1.42072 19.08413-2.44484zm25.48421-5.23644l1.95034-23.75162c-1.09163.30673-2.1838.61754-3.2821.9118-5.19748 1.39266-10.40325 2.61759-15.60632 3.69641l-1.86034 23.24224c6.26465-1.15765 12.53672-2.52297 18.79842-4.09883zm24.93085-7.43761l-.12717-23.83122c-1.06074.4007-2.12167.80552-3.19014 1.19438-5.05632 1.84035-10.13552 3.51434-15.22477 5.04253l.17243 23.31593c6.13992-1.69924 12.26913-3.60601 18.36965-5.72162zm24.18775-9.58217l-2.20371-23.72945c-1.02178.49162-2.04339.98737-3.0739 1.46787-4.87669 2.27403-9.79066 4.38433-14.72735 6.35027l2.20389 23.21217c5.96846-2.2279 11.90816-4.66161 17.80107-7.30086zm23.26057-11.65381l-4.26348-23.44709c-.97505.57881-1.94956 1.16171-2.93427 1.73019-4.65994 2.69041-9.37128 5.22096-14.11785 7.60968l4.21858 22.93176c5.75157-2.73961 11.45656-5.68173 17.09702-8.82454zm22.15636-13.63676l-6.2908-22.98628c-.9209.66159-1.8409 1.32721-2.77231 1.97935-4.40773 3.08631-8.88058 6.01785-13.4009 8.81117l6.20116 22.47683c5.49091-3.23047 10.91777-6.65862 16.26285-10.28107zm20.88353-15.51592l-8.27025-22.35053c-.85974.73933-1.71822 1.4826-2.58925 2.21344-4.12197 3.45873-8.3223 6.76894-12.58196 9.94561l8.13655 21.85083c5.18846-3.69674 10.29588-7.58483 15.30491-11.65935zm19.45176-17.277l-10.18676-21.54468c-.79203.81145-1.58246 1.62672-2.38648 2.43069-3.80484 3.80482-7.70068 7.46852-11.66727 11.00435l10.01002 21.05854c4.84652-4.13488 9.59564-8.45331 14.23049-12.9489zm17.87195-18.90658l-12.02574-20.57487c-.71829.8774-1.43466 1.75845-2.16555 2.62944-3.45875 4.12196-7.02045 8.11126-10.66378 11.97934l11.8073 20.10598c4.4677-4.54155 8.82237-9.25746 13.04777-14.13989zm16.15612-20.39228l-13.77319-19.44847c-.63909.93667-1.27594 1.8768-1.92814 2.80818-3.08634 4.40772-6.28679 8.69226-9.57913 12.86316l13.51472 19.0004c4.05487-4.91365 7.98195-9.99115 11.76574-15.22327zm14.31734-21.72278l-15.41582-18.17405c-.55503.9888-1.10752 1.98086-1.67606 2.96554-2.69044 4.65994-5.50529 9.20711-8.42158 13.64909l15.11929 17.75021c3.61118-5.24836 7.08079-10.6488 10.39417-16.19079zm12.36959-22.88796L626.35389 795.812c-.46674 1.03341-.93066 2.06985-1.41122 3.10033-2.27406 4.87669-4.68188 9.65189-7.19993 14.33114l16.60879 16.36493c3.14001-5.54312 6.12574-11.22541 8.94349-17.03509zm10.32771-23.87894l-18.33751-15.22101c-.3749 1.07015-.74672 2.14308-1.13564 3.21152-1.84038 5.05633-3.82285 10.02322-5.92349 14.90412l17.97188 14.85511c2.64495-5.7957 5.12408-11.71659 7.42476-17.74974zm8.20722-24.6882l-19.59433-13.56487c-.2802 1.09876-.5571 2.20001-.85142 3.29828-1.39268 5.19749-2.93472 10.31826-4.60197 15.36367l19.1982 13.23223c2.12976-6.00417 4.08342-12.1186 5.84952-18.32931zm6.02427-25.30956l-20.70202-11.80549c-.18338 1.119-.36324 2.24019-.56072 3.35994-.93439 5.29909-2.02426 10.53477-3.24543 15.70629l20.27841 11.50864c1.59836-6.16694 3.01168-12.42837 4.22976-18.76938zm3.79547-25.7383l-21.65216-9.95626c-.0851 1.13072-.16661 2.26332-.26575 3.39602-.46898 5.36037-1.09839 10.67111-1.86418 15.92938l21.20429 9.69747c1.05479-6.28278 1.91701-12.64356 2.5778-19.06661zm1.53779-25.97115l-22.43751-8.03126c.0137 1.13383.0313 2.26922.0312 3.40626-.00001 5.38084-.16416 10.72623-.46875 16.03123l21.96879 7.8125c.5032-6.35081.80776-12.76253.90623-19.21873zm-.7316-26.00635l-23.0521-6.04514c.11249 1.12832.22894 2.25786.328 3.39057.46896 5.36037.77132 10.69973.93025 16.01109l22.56609 5.86806c-.0522-6.3705-.30764-12.78437-.77224-19.22458zm-2.99542-25.84362l-23.49125-4.01302c.21041 1.11422.42486 2.22932.62226 3.34908.93437 5.2991 1.70093 10.59179 2.32217 15.86909l22.99166 3.87896c-.60725-6.3417-1.4207-12.7089-2.44484-19.08411zm-5.23644-25.48421l-23.75162-1.95036c.30672 1.09165.61755 2.18381.91179 3.28211 1.39266 5.1975 2.61759 10.40324 3.69641 15.60631l23.24225 1.86034c-1.15766-6.26464-2.52295-12.53671-4.09883-18.7984zm-7.43761-24.93085l-23.83122.12715c.4007 1.06076.80553 2.12168 1.19437 3.19015 1.84036 5.05634 3.51434 10.13552 5.04253 15.22476l23.31594-.17243c-1.69925-6.13991-3.60599-12.26912-5.72162-18.36963zm-9.58217-24.18775l-23.72946 2.20369c.49163 1.0218.98739 2.0434 1.46787 3.07391 2.27405 4.87671 4.38434 9.79066 6.35027 14.72734l23.21218-2.20389c-2.22791-5.96844-4.66159-11.90815-7.30086-17.80105zm-11.65381-23.26057l-23.4471 4.26346c.57882.97507 1.16173 1.94957 1.7302 2.93428 2.69043 4.65996 5.22096 9.37128 7.60967 14.11784l22.93177-4.21858c-2.73961-5.75155-5.68171-11.45655-8.82454-17.097zm-13.63676-22.15636l-22.98629 6.29078c.6616.92092 1.32723 1.8409 1.97936 2.77232 3.08633 4.40774 6.01785 8.88058 8.81116 13.40089l22.47684-6.20116c-3.23047-5.49089-6.6586-10.91776-10.28107-16.26283zm-15.51592-20.88353l-22.35054 8.27023c.73934.85975 1.48262 1.71822 2.21345 2.58926 3.45875 4.12197 6.76894 8.3223 9.9456 12.58195l21.85084-8.13655c-3.69674-5.18844-7.58481-10.29588-11.65935-15.30489zm-17.277-19.45176l-21.54469 10.18674c.81146.79204 1.62673 1.58246 2.4307 2.38649 3.80484 3.80484 7.46852 7.70068 11.00434 11.66726l21.05855-10.01002c-4.13488-4.8465-8.4533-9.59564-12.9489-14.23047zm-18.90658-17.87195l-20.57488 12.02572c.87741.7183 1.75846 1.43466 2.62945 2.16556 4.12197 3.45875 8.11126 7.02045 11.97933 10.66377l20.10599-11.8073c-4.54155-4.46768-9.25745-8.82237-14.13989-13.04775zm-20.39228-16.15612l-19.44848 13.77317c.93668.6391 1.87681 1.27595 2.80819 1.92815 4.40773 3.08634 8.69226 6.28679 12.86315 9.57913l19.00041-13.51473c-4.91365-4.05485-9.99115-7.98195-15.22327-11.76572zm-21.72278-14.31734l-18.17406 15.41581c.98881.55503 1.98087 1.10752 2.96555 1.67606 4.65995 2.69044 9.20711 5.50529 13.64908 8.42158l17.75022-15.1193c-5.24836-3.61116-10.6488-7.08079-16.19079-10.39415zm-22.88796-12.36959l-16.76132 16.94112c1.03342.46674 2.06985.93066 3.10034 1.41122 4.8767 2.27406 9.65189 4.68188 14.33113 7.19993l16.36494-16.6088c-5.54312-3.13999-11.22541-6.12574-17.03509-8.94347zm-23.87894-10.32771l-15.22103 18.3375c1.07017.3749 2.14309.74672 3.21154 1.13564 5.05634 1.84038 10.02322 3.82285 14.90411 5.92349l14.85512-17.97189c-5.7957-2.64493-11.71659-5.12407-17.74974-7.42474zm-24.6882-8.20722l-13.56489 19.59432c1.09877.2802 2.20002.5571 3.2983.85142 5.1975 1.39268 10.31826 2.93472 15.36366 4.60197l13.23224-19.19821c-6.00417-2.12974-12.1186-4.08341-18.32931-5.8495zm-25.30956-6.02427l-11.80551 20.70202c1.11901.18337 2.2402.36323 3.35995.56071 5.29911.93439 10.53478 2.02426 15.70629 3.24543l11.50865-20.27842c-6.16694-1.59834-12.42838-3.01167-18.76938-4.22974zm-25.7383-3.79547l-9.95628 21.65216c1.13073.0851 2.26333.1666 3.39603.26574 5.36038.46898 10.67112 1.09839 15.92938 1.86418l9.69748-21.2043c-6.28278-1.05477-12.64357-1.917-19.06661-2.57778z" fill="#08298c" fill-opacity="1" fill-rule="nonzero" stroke="none"/>
      <path id="path3665" d="M291 751.61215l.5-37.75c-11.77007 9.5-20.5 12.25-20.5 12.25l-18.75 36.25s21.72747-10.75 38.75-10.75z" fill="#fff" fill-rule="evenodd" stroke="#08298c" stroke-width="1.23514265" stroke-linecap="butt" stroke-linejoin="miter" stroke-miterlimit="4" stroke-opacity="1" stroke-dasharray="none"/>
      <path style="text-align:start;line-height:125%;-inkscape-font-specification:Arial Bold" d="M202.74887 502.6389l-2.87911-3.05977 8.62753-7.90688 6.62558 7.40118c-.16508 1.51756-.79114 3.28417-1.87818 5.29984-1.08707 2.0157-2.16604 3.60032-3.77502 5.11429-2.04459 1.92386-3.72951 2.81153-5.96527 3.55675-2.23577.74523-4.45092.79037-6.64547.13538-2.19456-.65497-4.15387-1.81198-5.87796-3.47104-1.87115-1.80057-3.12769-3.82282-3.76964-6.06676-.64193-2.2439-.41321-4.76865.43495-7.12244.64172-1.79872 2.07237-3.85435 3.93915-5.61094 2.42683-2.28349 4.99715-3.7936 7.25914-4.07593 2.262-.28227 4.35698.25081 6.28495 1.59923l-3.38662 4.28734c-1.09878-.66006-2.38734-.78004-3.63307-.58105-1.24573.19904-2.43751.83388-3.57537 1.90451-1.72454 1.62275-2.69794 3.61994-2.71099 5.59439-.013 1.97448.90511 4.00351 2.88248 5.90628 2.13263 2.05221 4.13753 3.16738 6.18485 3.22403 2.04729.0567 3.70526-.6029 5.37649-2.17545.8267-.77789 1.51383-1.7086 2.06137-2.79214.54752-1.0835.78624-2.00374 1.00227-2.98857l-2.11019-2.35723-4.47187 4.18498m9.40239-12.69699c-1.64668-1.93402-2.71738-3.82231-3.2121-5.66487-.35864-1.36265-.29571-2.90551-.10999-4.35427.18572-1.44871.6138-2.75807 1.28424-3.92809.88602-1.56327 2.45995-3.19319 4.1919-4.52514 3.13496-2.41082 6.86515-3.71238 10.11457-3.19016 3.24939.52226 6.02968 2.45212 8.34089 5.78958 2.29181 3.30954 3.11657 6.56947 2.47425 9.7798-.64234 3.21036-2.02677 5.61374-5.15203 8.01714-3.164 2.43318-6.0936 3.34788-9.348 3.07157-3.25441-.27629-6.0108-1.97362-8.58373-4.99556m4.19015-3.69188c1.77645 2.19475 3.66859 3.41686 5.67644 3.66633 2.00782.2495 3.71461-.13358 5.42723-1.45063 1.71261-1.31703 2.54722-2.8175 2.8136-4.80212.26636-1.98461-.45298-4.14463-2.15805-6.48007-1.68503-2.30792-3.48677-3.63205-5.40524-3.97242-1.91847-.34031-3.95247.27461-5.72314 1.63626-1.77067 1.36172-2.9202 3.14201-3.08744 5.10826-.16726 1.96629.65161 4.06442 2.4566 6.29439m32.23716-7.65766l-21.73119-15.63545 5.16809-3.40503 15.75819 11.91222-3.80046-19.17359 5.30239-2.9402 3.98132 26.40377-4.67834 2.83828m14.96639-8.58224l-11.51553-22.11774 18.82031-8.96288 1.6576 3.87904-13.52304 6.25498 2.42793 4.96639 12.34138-5.74225 1.65091 3.86339-12.14707 5.65332 2.98074 6.09719 13.23061-6.10679 1.65092 3.86339-17.57476 8.35196m21.57283-10.0188l-9.20958-23.17293 11.26357-4.26907c2.71647-.92118 5.05237-1.50699 6.42669-1.46487 1.37429.0422 2.60432.49427 3.69009 1.35628 1.08575.86205 1.84727 1.99697 2.28457 3.40476.555 1.78685.44796 3.43794-.32112 4.95329-.76912 1.51537-2.20016 2.77477-4.32914 3.83201 1.31363.22508 2.38021.58198 3.33414 1.08123.95389.49927 2.33625 1.48292 4.14707 2.95092l4.26402 3.7664-5.88087 1.8298-5.14762-3.98021c-1.94053-1.38947-3.1423-2.27911-3.79768-2.57562-.65541-.29648-1.28461-.43345-1.8876-.41091-.60301.0226-1.48871.24887-2.6571.67888l-1.03093.37943 3.59549 9.76917-4.744 1.87144m-.22624-15.37589l3.76292-1.38492c2.43988-.89797 3.99837-1.51188 4.54547-1.91297.54708-.40104.9139-.89663 1.10046-1.48676.18653-.5901.15962-1.23954-.0807-1.94834-.26951-.79466-.71541-1.35888-1.3377-1.69269-.62231-.33376-1.37145-.42396-2.24742-.27061-.43436.0874-1.89753.53852-3.9594 1.29736l-3.96911 1.46081 2.1855 5.93812m24.66616 6.99767l-6.77847-23.99692 5.39918-1.47116 14.68787 13.61164-3.68837-16.23868 5.25429-1.05981 4.88705 24.45233-5.011 1.01325-14.21969-13.31345 4.01296 15.75813-4.54382 1.24467m25.02575-5.65349l-4.24604-24.57174 8.3378-1.29033 7.17001 16.24154 3.09976-17.44363 8.42918-.6861 1.644 24.88164-4.69313.34888-1.80971-19.54535-3.16851 20.00971-5.1814.61761-7.76757-18.72881 2.83433 19.42324-4.64872.74334m29.51688-3.15273l-.98709-24.91635 20.88479-.11452-.16764 4.21501-14.91665-.0846.0729 5.52761 13.61784.0407-.16696 4.19802-13.39546-.0378.0895 6.78619 14.55468.0934-.16696 4.19801-19.41901.0943m23.77251.078l1.6504-24.88122 5.26144.349 9.61037 17.65532 1.9786-16.53431 5.32047.67682-3.61452 24.67254-5.06874-.63797-9.03783-17.19234-1.07624 16.2254-5.02395-.33324m31.52229 3.76458l3.54129-20.41265-8.06759-1.35785.61146-4.1738 22.2017 4.38284-1.04495 4.08687-8.17375-1.83444-4.07585 20.31268-4.99231-1.00365m27.52982-5.99815c.69308-2.44369 1.77806-4.3411 3.07198-5.74309.96075-1.03071 2.09534-1.87062 3.40378-2.51974 1.30841-.64908 2.92124-.94272 4.26855-.99905 1.79496-.0835 3.72657.22683 5.79485.9311 3.74363 1.27482 6.8729 3.77077 8.23302 6.76768 1.36005 2.99692 1.38183 6.42309-.21912 10.15367-1.58758 3.69932-3.75159 6.22473-6.78228 7.46315-3.03074 1.23841-6.09019 1.30532-9.78825-.0614-3.74388-1.38367-5.81998-3.15913-7.39533-6.0202-1.57537-2.86106-1.67014-6.15382-.5872-9.97211m5.37834 1.49746c-.8407 2.69553-.92754 4.90151-.0685 6.73335.85905 1.83184 2.1208 2.96965 4.14732 3.71861 2.02648.74894 3.94007.68548 5.74077-.19041 1.80066-.87589 3.12596-2.67281 4.19783-5.35845 1.05921-2.65402 1.10389-4.93768.32624-6.72418-.77771-1.78649-2.21415-3.06689-4.30932-3.84126-2.09521-.77432-4.25689-.70128-6.00972.2052-1.75286.9065-3.17047 2.71833-4.02465 5.45714m18.17464 20.19449l9.83392-22.91495 17.45089 8.35723-1.95488 3.73804-12.02162-5.91708-2.46558 5.36266 10.17817 4.96166-1.95488 3.73804-9.98542-4.86702-4.42666 9.62806-4.65394-2.08664m33.0183 17.54331l10.96443-17.57841-6.96979-4.2664 2.14153-3.63433 18.67227 12.12611-2.40952 3.46248-6.72126-4.6144-11.40319 17.29701-4.27447-2.79206m13.16505 9.01633l14.75175-20.10444 4.58464 3.43884-6.00225 7.76514 8.39998 6.70983 6.38242-7.45583 4.11705 3.52433-16.21598 18.9432-4.11705-3.52433 7.09034-8.2828-8.23659-6.57687-6.66801 8.62643-4.0863-3.0635m19.97329 16.3632l16.68324-18.533 14.83382 14.62111-3.04852 2.91567-10.49612-10.56313-3.79978 4.01518 9.60484 9.64116-3.03621 2.90392-9.45645-9.49355-4.66495 4.9294 10.26709 10.35331-3.03622 2.90392-13.85074-13.69399" id="path9597" font-size="34.83642578" font-style="normal" font-variant="normal" font-weight="700" font-stretch="normal" writing-mode="lr-tb" text-anchor="start" fill="#08298c" fill-opacity="1" stroke="none" font-family="Arial"/>
      <path id="path3148" d="M116.56224 740.01629l24.28436-5.6639 4.32725 16.62346-4.0377 1.22147-3.19438-11.7274-5.74802 1.34062 2.79025 10.43407-4.0377 1.22146-2.86071-10.69737-10.32002 2.40696-1.20333-5.15937m6.10999 22.62675l23.70764-7.73033 6.33711 17.54248-3.91878 1.56149-4.82797-12.93179-5.21791 1.82572 4.54608 12.23789-3.90299 1.5552-4.60877-12.40552-6.40596 2.24141 5.25993 14.05633-3.90299 1.5552-7.06539-19.50808m31.876 14.19123l3.77622 8.33939c.93536 1.97309 1.42024 3.29786 1.64866 4.46439.3031 1.5694.1091 2.88675-.35251 4.37058-.46173 1.48384-1.26395 2.85035-2.40676 4.09957-1.14284 1.24918-2.74762 2.41802-4.81444 3.50657-1.8161.95644-3.50637 1.54322-5.07099 1.76042-1.91116.2648-3.64693.12033-5.20731-.4334-1.18065-.41662-2.43579-1.42985-3.56094-2.61481-.83743-.88865-1.80728-2.44464-2.64552-4.21287l-4.33021-9.56004 22.9638-9.7198m-1.81395 6.32992l-15.07027 6.7583 1.74039 3.74498c.6337 1.33699 1.23451 2.42468 1.67009 2.94062.56681.67706 1.19507 1.16 1.88468 1.44883.68961.2888 1.61398.34348 2.77311.16403 1.15912-.17948 2.60077-.70035 4.32494-1.56262 1.72416-.86229 2.96759-1.68427 3.73047-2.46601.76278-.78173 1.25876-1.5901 1.48778-2.42503.22899-.83497.21336-1.74102-.0471-2.71806-.18898-.73266-.6493-1.9284-1.57443-3.87991l-.91969-2.00513m-8.8574 28.33091l21.81486-12.07987 9.61754 15.69735-3.50729 2.34394-7.24747-11.55413-4.77907 2.77856 6.88338 11.02876-3.49315 2.33449-7.02238-11.25151-5.8672 3.4112 8.07234 12.84644-3.49316 2.33449-10.9784-17.88972m13.68662 21.85825l20.44036-14.28298 6.26318 8.59192c1.69992 2.22999 2.63985 3.75619 3.08047 5.02951.4406 1.2733.32378 2.38717-.0699 3.70622-.39371 1.31901-1.15783 2.44925-2.29227 3.39064-1.4399 1.19482-2.99847 1.73613-4.67563 1.62387-1.67726-.11222-3.35556-.99776-5.03768-2.60228.21618 1.29173.25911 2.46591.12881 3.52254-.13033 1.05661-.48279 2.77075-1.16738 4.98242l-1.69779 5.57199-4.1824-5.09661 1.77581-6.49279c.71745-2.25734 1.12496-3.73827 1.22245-4.44271.0975-.70446.0506-1.33644-.14054-1.89585-.19119-.55944-.66786-1.36698-1.38551-2.34995l-.63321-.86733-8.40766 6.13819-3.22111-4.5268m14.84344-3.95833l2.30119 3.12341c1.54077 2.02122 2.55365 3.19183 3.10708 3.55969.55341.36782 1.13676.53652 1.75012.50602.61334-.0305 1.21285-.27874 1.79853-.74464.65672-.52245 1.0402-1.12864 1.15059-1.8187.11037-.69009.0448-1.27578-.36777-2.04152-.21533-.376-.97407-1.41801-2.27613-3.12608l-2.35307-3.18924-5.11054 3.73106m19.14227 43.79363l-4.28867-4.22437 2.44283-5.60038-7.36394-7.85539-5.65653 2.18565-4.01007-4.64167 25.60749-8.6445 3.65444 3.90031-10.38555 24.88035m-.0346-13.97955l4.22018-9.00274-9.18471 3.69754 4.96453 5.3052m6.81736 20.26502l13.87511-15.38526-5.59444-5.16638 2.88914-3.07375 14.88442 13.08154-2.62592 3.30146-5.70018-4.76008-13.55488 15.66811-4.17325-3.66564m13.22122 11.11105l15.52246-19.51576 14.91136 10.80802-2.34364 3.50749-11.12899-7.88931-3.351 4.39667 10.59023 7.54217-2.3342 3.49335-10.80282-7.694-4.11398 5.39774 12.38144 8.76457-2.3342 3.49335-16.99666-12.30429m34.41025-6.10637l7.80773 4.79324c1.88779 1.09735 3.0239 1.94232 3.87228 2.77492 1.13791 1.12251 1.92065 2.43084 2.34831 3.9248.42759 1.49403.39067 2.97024.15514 4.64687-.23557 1.67661-.8975 3.54834-1.98583 5.61528-.95634 1.81616-2.01808 3.25631-3.18531 4.32063-1.42604 1.29963-3.11051 2.09104-4.719 2.48366-1.21576.29904-2.62274.27835-4.22093-.062-1.19328-.25888-2.85701-1.01832-4.54879-2.00173l-8.94332-5.47842 13.41972-21.0172m2.07546 6.27322l-8.59655 14.10275 3.53717 2.12753c1.2791.74364 2.24227 1.21169 2.88946 1.40421.8453.2553 1.77749.38091 2.50954.22887.732-.15207 1.5251-.63001 2.37931-1.43383.85417-.80384 1.74814-2.04903 2.68188-3.73556.93372-1.68655 1.49387-3.06785 1.68057-4.14407.18661-1.07615.13817-2.02332-.14542-2.84133-.28362-.81802-.66262-1.48322-1.41626-2.15738-.55984-.50899-1.643-1.1881-3.48711-2.31219l-2.03259-1.239m20.42067 25.11619l4.97856 1.69531c-.35509 1.63517-.24608 2.99266.32703 4.07246.57309 1.0798 1.76632 2.01508 3.26278 2.61122 1.58513.63146 2.9065.78853 3.96404.47141 1.05755-.31723 1.88445-.87225 2.20615-1.73255.20652-.55235.21183-1.08609.0159-1.60122-.19593-.51514-.71781-1.11135-1.44693-1.73141-.50089-.41923-1.7342-1.26315-3.56379-2.60385-2.35462-1.72282-3.86987-3.25782-4.51613-4.61629-.9085-1.9111-.95915-3.7668-.1519-5.56728.51956-1.15883 1.35122-2.08776 2.49495-2.7867 1.14368-.69884 2.25685-1.10529 3.79538-1.08217 1.53855.023 2.97212.35026 4.84551 1.09645 3.05939 1.21887 4.87443 2.65803 5.953 4.52619 1.07849 1.86823 1.10232 3.83482.42485 6.02459l-4.93285-1.60845c.23642-1.27963.25393-2.26909-.23114-3.06651-.4851-.79743-1.42042-1.47218-2.80603-2.02416-1.42995-.56965-2.47792-.71056-3.5143-.49654-.66675.13655-1.12607.50247-1.37793 1.09767-.22982.54306-.18471 1.11006.13529 1.70108.40764.75125 1.60701 1.88097 3.78734 3.37203 2.18031 1.49104 3.69884 2.71836 4.63917 3.72974.94026 1.01147 1.54966 2.14125 1.82819 3.38944.27845 1.24826.22016 2.62059-.30028 4.10846-.47177 1.34864-1.47032 2.42383-2.68952 3.29967-1.21924.87583-2.65036 1.33037-4.29339 1.36372-1.64308.0333-3.77202-.48927-5.88923-1.3327-3.0816-1.22761-5.61763-3.13663-6.64377-5.19363-1.02614-2.057-1.12646-4.42899-.30097-7.11598m27.78494 19.30441l5.99722-19.83069-7.05622-2.33206 1.39284-3.98184 18.93851 5.68611-1.04628 4.08661-7.32564-1.9837-5.5697 19.95499-5.33073-1.59942m40.97626 9.23919l-5.96312-.92295-1.33553-5.96221-10.5779-2.09121-3.54137 5.0045-5.72526-1.37798 15.61716-21.98416 5.23007 1.03346 6.29595 26.30055m-8.33998-11.35039l-1.84461-9.7617-5.23296 8.35974 7.07757 1.40196m17.54432 12.51314l2.03868-20.61714-7.36755-.9197.5979-4.17583 19.6615 1.91238-.23104 4.21208-7.5681-.52914-1.58731 20.65679-5.54408-.53944m17.26915 1.29121l.81984-24.92262 18.63003.0771.1386 4.21614-13.79336.0925-.0606 5.52776 13.05168-.0628.13803 4.19914-13.23574.0648-.0744 6.78636 15.01781-.11689.13804 4.19915-20.77-.0606m23.78169-8.17961l5.20449-.77628c.4352 1.61569 1.15523 2.77163 2.16009 3.46783 1.00484.69619 2.50022.98435 4.10326.82595 1.698-.16778 2.94371-.63564 3.73716-1.40337.7934-.76782 1.27703-1.63212 1.1668-2.54396-.0708-.58542-.40058-1.04712-.80343-1.42322-.40288-.3761-1.07059-.67196-2.00312-.8875-.63755-.1421-2.12243-.32874-4.36332-.67989-2.88272-.44961-4.93359-1.11779-6.13072-2.02881-1.68352-1.28196-2.57927-2.90794-2.68725-4.87814-.0695-1.26807.24375-2.4749.93979-3.62039.69604-1.14539 1.4909-2.0158 2.86833-2.70156 1.3774-.68586 2.79359-1.0464 4.80034-1.24479 3.27728-.32373 5.545.1299 7.36219 1.29226 1.81717 1.16247 2.90469 2.87568 3.26258 5.13975l-5.12257.83561c-.35162-1.25287-.9261-2.12197-1.72342-2.60721-.79734-.48523-1.93816-.65457-3.42242-.50791-1.53179.15136-2.52247.50094-3.34494 1.16685-.52965.4274-.76972.96334-.72023 1.60773.0451.58796.3455 1.07097.90111 1.44914.70703.48026 2.28934.93922 4.91105 1.26127 2.62169.32205 4.53435.72322 5.83459 1.1885 1.30021.46539 2.36111 1.18806 3.18274 2.16811.82159.98015 1.40463 2.23797 1.62791 3.79835.20234 1.41437-.19424 2.81605-.8737 4.15466-.67951 1.33861-1.74098 2.40068-3.1844 3.1863-1.44346.78562-3.58239 1.2912-5.85035 1.51531-3.30105.32618-6.44788-.21075-8.30284-1.56843-1.85497-1.35768-3.03154-3.41974-3.52972-6.18616m34.44118-8.26685c-.46872-2.49653-.46924-4.66554-.002-6.50712.35202-1.35826.758-2.59204 1.56035-3.79211.80236-1.19997 1.75472-2.16498 2.85708-2.89514 1.46436-.98 2.95742-1.68251 5.03755-2.16722 3.76517-.87707 6.50901-.49029 9.35683 1.08169 2.8478 1.57208 4.72644 4.31206 5.90081 8.19811 1.16448 3.85352.82535 7.24635-.78203 10.05509-1.60746 2.80866-4.80152 4.88857-8.55505 5.76303-3.80004.88529-7.33695.49441-10.05607-1.24554-2.71914-1.73996-4.58554-4.59002-5.3179-8.49079m5.3212-1.23495c.58104 2.76321 1.69289 4.71658 3.33558 5.86019 1.64264 1.14353 3.66641 1.40307 5.72332.92387 2.05688-.47919 3.72942-1.68259 4.68313-3.41892.95365-1.73642 1.12404-4.04437.34721-6.82972-.76773-2.75258-1.86712-4.64736-3.49298-5.68286-1.62587-1.0354-3.30871-1.29554-5.43532-.80011-2.12663.49544-3.50915 1.56704-4.5241 3.23466-1.01494 1.66771-1.22722 3.90534-.63684 6.71289m27.21607 5.77418l-7.72302-23.71002 16.1985-5.74168 1.56011 3.91933-11.41476 4.19254 1.82801 5.61208 10.15659-3.67874 1.56012 3.91933-10.41022 3.77041 3.28202 10.07594-5.03735 1.64081m31.73194-12.29573L475.513 900.1262l6.90068-3.33857 11.92051 12.99581-4.00471-17.15912 6.67797-3.80427 12.52379 21.56307-4.48461 2.59718-9.50148-17.17629 4.7131 19.81921-4.5143 2.37508-13.64828-15.11932 8.77286 17.55961-4.68274 2.22431m27.96155-15.07523l-12.97084-21.29716 4.25306-2.70051 13.41139 21.02251-4.69361 2.97516m17.80649-23.55462l5.06051-2.04887c1.1304 2.59793 1.23296 5.083.62087 7.25675-.61212 2.17378-2.44756 4.45697-4.72276 6.11621-2.8151 2.05298-6.01037 2.94429-9.14465 2.37319-3.13429-.5711-5.91572-2.44703-8.09424-5.7103-2.30439-3.45181-3.27164-6.66419-2.7367-9.8379.53486-3.17378 1.90337-5.46419 4.82724-7.6907 2.55373-1.94441 4.97072-2.66432 7.66184-2.49985 1.59734.0923 3.13555.84155 4.86851 1.99737l-3.27443 4.12277c-1.0471-.81905-2.09059-1.31546-3.32722-1.31461-1.23658.00095-2.25787.34105-3.39547 1.17067-1.57146 1.14601-2.45555 2.61182-2.65237 4.39734-.19676 1.78561.61445 3.81499 2.31492 6.25116 1.80435 2.585 3.67841 4.03769 5.43093 4.41574 1.7525.37805 3.39997.005 4.9425-1.12034 1.1376-.82962 1.97276-2.02533 2.26447-3.31643.29167-1.29107.14624-2.8581-.64395-4.5622m13.45112.89419l-15.91297-19.19868 7.78929-6.85839c2.04416-1.91936 3.50393-2.97264 4.72548-3.54125 1.22152-.56858 2.50576-.71055 3.85258-.42604 1.34679.28454 2.43427 1.05489 3.48675 2.08711 1.33581 1.31015 2.05546 2.76671 2.08072 4.44743.0253 1.68082-.68221 3.46528-2.1437 5.27306 1.2697-.32116 2.47216-.5057 3.53658-.4842 1.06439.0215 2.72663.28294 4.98687.7844l5.84263 1.0241-4.67915 4.64355-6.67699-1.14104c-2.31895-.48249-3.89057-.68004-4.60063-.7195-.71008-.0394-1.33609.059-1.87797.29534-.5419.23637-1.26499.76184-2.16922 1.57647l-.83579.73963 6.80693 7.87604-4.21141 3.62197m-5.19815-14.50941l2.8886-2.59017c1.88823-1.70115 2.93529-2.84659 3.25662-3.42826.32131-.58166.4417-1.17685.36112-1.78566-.0806-.60879-.37706-1.18598-.88931-1.73157-.57444-.61176-1.20998-.94435-1.90676-.99791-.69681-.0535-1.4049.16415-2.12435.653-.35197.2527-1.17738 1.00794-2.77307 2.44552l-2.95039 2.64766 4.13754 4.78739m15.91604-12.29672c-1.81351-1.77865-3.05563-3.55678-3.72644-5.33446-.48894-1.31519-.87553-2.58484-.90311-4.02816-.0275-1.44324.0537-2.59635.51543-3.83535.60748-1.654 1.46939-3.05798 2.86784-4.67237 2.53144-2.92192 5.21952-4.3643 8.45577-4.69281 3.23629-.3284 6.31149.8271 9.48689 3.35642 3.14877 2.50817 4.83437 5.51347 5.11152 8.73774.27704 3.22425-.99363 6.51623-3.51719 9.42919-2.55482 2.94906-5.86992 4.82004-9.09561 4.94655-3.22571.12651-6.36153-1.12767-9.1951-3.90675m3.6387-4.07554c2.05619 1.93523 4.1597 2.83302 6.16084 2.79123 2.00105-.0418 3.84387-.96354 5.22677-2.55982 1.38287-1.59627 2.08248-3.49774 1.83593-5.46336-.24665-1.96565-1.48197-3.87238-3.7061-5.72032-2.198-1.82618-4.25904-2.6815-6.18319-2.566-1.92411.11559-3.50164.85037-4.93139 2.50075-1.42977 1.6504-1.98228 3.28445-1.82179 5.23004.16054 1.94567 1.32974 3.82123 3.41893 5.78748m25.50482-10.87646l-19.82149-15.13013 2.93884-3.91627 19.71305.89866-13.83883-9.26243 2.56113-3.89606 21.00656 13.43638-3.06387 4.65686-19.51234-.52577 13.12717 9.5971-3.11022 4.14166m15.68341-22.85021l-21.28168-12.9962 9.00723-16.05153 3.7714 1.88987-6.54841 11.96114 4.777 2.7821 6.29428-11.43988 3.71586 1.9607-6.37956 11.59362 5.86467 3.41555 7.26676-13.32189 3.7562 1.88226-10.24375 18.32426m4.41727-24.80744l1.838-4.93462c1.61832.42532 3.03986.24681 4.13205-.30233 1.09219-.54911 1.9685-1.55828 2.62886-3.02755.69947-1.55631.93699-3.0511.64337-4.1154-.29373-1.06432-.86337-1.77585-1.70889-2.13459-.54286-.2303-1.07586-.25877-1.59902-.0854-.52316.17338-1.10281.61767-1.73886 1.33287-.43022.49149-1.33202 1.69221-2.71277 3.49175-1.77438 2.31601-3.37306 3.78287-4.74541 4.39908-1.93063.86622-3.787.87603-5.56928.0294-1.14711-.54494-2.05752-1.39684-2.73112-2.55567-.6735-1.15879-.96556-2.50624-.87606-4.04233.0894-1.53612.40755-2.98865 1.23413-4.828 1.35013-3.00375 2.70532-4.54457 4.59698-5.58136 1.89173-1.03671 3.91665-1.16901 6.07486-.39685l-1.74755 4.88939c-1.26816-.29174-2.30626-.20399-3.11423.26329-.80798.46733-1.4195 1.22251-2.03093 2.58292-.631 1.40397-.85096 2.62638-.65987 3.66723.1218.6696.53617 1.00292 1.11994 1.28024.53264.25303 1.05275.33075 1.6507.0239.76006-.39097 1.94675-1.55195 3.48572-3.69872 1.53897-2.14677 2.83053-3.62517 3.86255-4.54278 1.03211-.91755 2.17515-1.50171 3.42922-1.75244 1.25414-.25064 2.61303-.0837 4.07684.50107 1.32682.53004 2.4145 1.41424 3.26303 2.6526.84853 1.23839 1.20477 2.91295 1.16677 4.55589-.038 1.64297-.57919 3.7775-1.51346 5.85621-1.35984 3.0256-3.19923 5.27309-5.27831 6.25371-2.07908.98063-4.52829 1.15893-7.17726.21856m17.9154-21.13937l-23.34827-8.75607 1.69844-4.73639 23.52955 8.25657-1.87972 5.23589m10.09785-34.10052l-1.38611 5.8705-6.05628.80812-2.90043 10.38172 4.791 3.71747-1.81019 5.60147-20.79154-16.9889 1.43579-5.13662 26.71776-4.25376m-11.93489 7.27901l-9.87824 1.04424 7.92307 5.95829 1.95517-7.00253" style="text-align:start;line-height:125%;-inkscape-font-specification:Arial Bold" font-size="34.83642578" font-style="normal" font-variant="normal" font-weight="700" font-stretch="normal" writing-mode="lr-tb" text-anchor="start" fill="#08298c" fill-opacity="1" stroke="none" font-family="Arial"/>
      <path id="path2417" d="M569.57538 682.36215c0 107.46101-87.11437 194.57538-194.57538 194.57538-107.461014 0-194.5753784-87.11437-194.5753784-194.57538S267.538986 487.786772 375 487.786772c107.46101 0 194.57538 87.114368 194.57538 194.575378z" fill="none" stroke="#000" stroke-width="3" stroke-linecap="round" stroke-linejoin="round" stroke-miterlimit="4" stroke-opacity="1" stroke-dasharray="none" stroke-dashoffset="0"/>
      <path d="M385.82889 452.592722c-5.03757 0-18.11961 10.871767-18.11961 15.998291 0 1.679379 1.5026 1.856156 3.88908 1.856156 2.38649 0 19.18028-6.275573 19.18028-13.876971 0-3.181981-2.11413-3.977476-4.94975-3.977476z" id="path3189" fill="#fdf603" fill-opacity="1" fill-rule="evenodd" stroke="#000" stroke-width="1" stroke-linecap="butt" stroke-linejoin="miter" stroke-opacity="1"/>
      <path id="path3422" d="M371.80168 452.35992c-5.02821.3071-17.42316 11.95614-17.11064 17.07313.10238 1.67626 1.61296 1.76111 3.99501 1.61562 2.38205-.14548 18.76203-7.43315 18.29864-15.02042-.19398-3.17606-2.35267-3.84119-5.18301-3.66833z" fill="#fdf603" fill-opacity="1" fill-rule="evenodd" stroke="#000" stroke-width="1" stroke-linecap="butt" stroke-linejoin="miter" stroke-opacity="1"/>
      <path d="M357.78636 452.98267c-5.00013.61306-16.66189 12.99604-16.03801 18.08447.20438 1.6669 1.71732 1.6595 4.08607 1.36907 2.36875-.29042 18.274-8.56309 17.34894-16.108-.38724-3.15832-2.58246-3.69062-5.397-3.34554z" id="path3424" fill="#fdf603" fill-opacity="1" fill-rule="evenodd" stroke="#000" stroke-width="1" stroke-linecap="butt" stroke-linejoin="miter" stroke-opacity="1"/>
      <path id="path3426" d="M343.83507 454.45866c-4.95345.91673-15.83864 13.9876-14.90572 19.02853.30561 1.65134 1.81529 1.55172 4.16193 1.11743 2.34664-.43428 17.71799-9.66117 16.3347-17.13566-.57905-3.12883-2.80264-3.52632-5.59091-3.0103z" fill="#fdf603" fill-opacity="1" fill-rule="evenodd" stroke="#000" stroke-width="1" stroke-linecap="butt" stroke-linejoin="miter" stroke-opacity="1"/>
      <path d="M329.99971 456.78239c-4.88835 1.217-14.95648 14.92713-13.71799 19.90181.40571 1.62964 1.90651 1.43818 4.22231.86164 2.3158-.57653 17.09608-10.72332 15.2597-18.09958-.76871-3.08771-3.01239-3.34891-5.76402-2.66387z" id="path3428" fill="#fdf603" fill-opacity="1" fill-rule="evenodd" stroke="#000" stroke-width="1" stroke-linecap="butt" stroke-linejoin="miter" stroke-opacity="1"/>
      <path id="path3430" d="M316.33174 459.94522c-4.80507 1.51274-14.01868 15.81114-12.47923 20.70107.5043 1.60187 1.99063 1.31928 4.26698.60264 2.27635-.71664 16.41057-11.74558 14.12794-18.99617-.95551-3.03511-3.21094-3.15905-5.91569-2.30754z" fill="#fdf603" fill-opacity="1" fill-rule="evenodd" stroke="#000" stroke-width="1" stroke-linecap="butt" stroke-linejoin="miter" stroke-opacity="1"/>
      <path d="M302.882 463.93539c-4.70391 1.80285-13.02874 16.63633-11.19405 21.42332.60101 1.56815 2.06735 1.19547 4.29578.3414 2.22843-.85408 15.66402-12.72415 12.94363-19.8221-1.13876-2.97122-3.39755-2.95743-6.04536-1.94262z" id="path3432" fill="#fdf603" fill-opacity="1" fill-rule="evenodd" stroke="#000" stroke-width="1" stroke-linecap="butt" stroke-linejoin="miter" stroke-opacity="1"/>
      <path id="path3434" d="M289.70052 468.73805c-4.58526 2.08626-11.99033 17.39964-9.86723 22.06588.69549 1.5286 2.13638 1.06722 4.3086.0789 2.17222-.98834 14.8592-13.65538 11.71117-20.57429-1.31777-2.89628-3.57152-2.74481-6.15254-1.57048z" fill="#fdf603" fill-opacity="1" fill-rule="evenodd" stroke="#000" stroke-width="1" stroke-linecap="butt" stroke-linejoin="miter" stroke-opacity="1"/>
      <path d="M276.83633 474.33534c-4.44955 2.36191-10.90732 18.09823-8.50371 22.62636.78739 1.48336 2.19747.935 4.3054-.18391 2.10793-1.11892 13.99911-14.53582 10.43515-21.24996-1.49188-2.81056-3.7322-2.52198-6.23684-1.19249z" id="path3436" fill="#fdf603" fill-opacity="1" fill-rule="evenodd" stroke="#000" stroke-width="1" stroke-linecap="butt" stroke-linejoin="miter" stroke-opacity="1"/>
      <path id="path3438" d="M264.33729 480.70644c-4.29729 2.62877-9.78374 18.7295-7.10856 23.10268.87635 1.4326 2.25038.7993 4.28618-.44603 2.0358-1.24534 13.08695-15.36219 9.12032-21.84658-1.66045-2.71439-3.87901-2.28977-6.29794-.81007z" fill="#fdf603" fill-opacity="1" fill-rule="evenodd" stroke="#000" stroke-width="1" stroke-linecap="butt" stroke-linejoin="miter" stroke-opacity="1"/>
      <path d="M252.24989 487.82765c-4.12905 2.88585-8.62377 19.2911-5.68697 23.49306.96206 1.37651 2.29492.66063 4.25102-.70649 1.9561-1.36713 12.12611-16.13142 7.77156-22.36194-1.82284-2.60811-4.01139-2.04904-6.33561-.42463z" id="path3440" fill="#fdf603" fill-opacity="1" fill-rule="evenodd" stroke="#000" stroke-width="1" stroke-linecap="butt" stroke-linejoin="miter" stroke-opacity="1"/>
      <path id="path3442" d="M240.61909 495.67248c-3.94545 3.1322-7.43172 19.78094-4.24422 23.79605 1.04418 1.31531 2.33092.5195 4.20004-.96432 1.86912-1.48383 11.12016-16.84064 6.39389-22.79411-1.97844-2.49214-4.12884-1.80069-6.34971-.0376z" fill="#fdf603" fill-opacity="1" fill-rule="evenodd" stroke="#000" stroke-width="1" stroke-linecap="butt" stroke-linejoin="miter" stroke-opacity="1"/>
      <path d="M229.48815 504.21175c-3.74717 3.3669-6.21202 20.1972-2.78568 24.01053 1.12242 1.24921 2.35825.37644 4.13344-1.21857 1.77519-1.59501 10.07285-17.48722 4.99244-23.14149-2.12669-2.3669-4.23094-1.54565-6.3402.34953z" id="path3444" fill="#fdf603" fill-opacity="1" fill-rule="evenodd" stroke="#000" stroke-width="1" stroke-linecap="butt" stroke-linejoin="miter" stroke-opacity="1"/>
      <path id="path3446" d="M218.89848 513.4137c-3.53495 3.58907-4.96922 20.53833-1.31678 24.13569 1.19648 1.17846 2.37681.23198 4.05146-1.46828 1.67466-1.70026 8.98807-18.06875 3.57242-23.4028-2.26702-2.23285-4.31729-1.28485-6.3071.73539z" fill="#fdf603" fill-opacity="1" fill-rule="evenodd" stroke="#000" stroke-width="1" stroke-linecap="butt" stroke-linejoin="miter" stroke-opacity="1"/>
      <path d="M208.88947 523.2441c-3.30958 3.79789-3.70793 20.80306.15702 24.17107 1.26609 1.10333 2.38653.0866 3.95441-1.71253 1.5679-1.79919 7.86986-18.58307 2.13911-23.57706-2.39892-2.09049-4.38759-1.01927-6.25054 1.11852z" id="path3448" fill="#fdf603" fill-opacity="1" fill-rule="evenodd" stroke="#000" stroke-width="1" stroke-linecap="butt" stroke-linejoin="miter" stroke-opacity="1"/>
      <path id="path3450" d="M199.49835 533.66638c-3.0719 3.99258-2.43285 20.99041 1.63023 24.11654 1.331 1.02409 2.38738-.059 3.84266-1.95041 1.4553-1.89143 6.72237-19.02827.69784-23.66362-2.5219-1.94036-4.44157-.7499-6.17073 1.49749z" fill="#fdf603" fill-opacity="1" fill-rule="evenodd" stroke="#000" stroke-width="1" stroke-linecap="butt" stroke-linejoin="miter" stroke-opacity="1"/>
      <path d="M190.76005 544.64177c-2.82279 4.17242-1.14872 21.09968 3.09738 23.9723 1.39096.94105 2.37934-.20443 3.71661-2.18103 1.33729-1.97663 5.54988-19.40269-.74602-23.66215-2.6355-1.78302-4.47903-.47774-6.06797 1.87088z" id="path3452" fill="#fdf603" fill-opacity="1" fill-rule="evenodd" stroke="#000" stroke-width="1" stroke-linecap="butt" stroke-linejoin="miter" stroke-opacity="1"/>
      <path id="path3454" d="M182.70708 556.12944c-2.56318 4.33675.13969 21.13047 4.55301 23.7389 1.44574.8545 2.36245-.3491 3.57674-2.40354 1.2143-2.05448 4.35674-19.70494-2.18711-23.57267-2.7393-1.61904-4.49983-.2038-5.94264 2.23731z" fill="#fdf603" fill-opacity="1" fill-rule="evenodd" stroke="#000" stroke-width="1" stroke-linecap="butt" stroke-linejoin="miter" stroke-opacity="1"/>
      <path d="M175.36939 568.08667c-2.29403 4.48494 1.42758 21.08265 5.9917 23.41719 1.49515.76478 2.33678-.49247 3.42357-2.61711 1.0868-2.12469 3.14739-19.93389-3.62007-23.3955-2.8329-1.44904-4.50388.0709-5.7952 2.59542z" id="path3456" fill="#fdf603" fill-opacity="1" fill-rule="evenodd" stroke="#000" stroke-width="1" stroke-linecap="butt" stroke-linejoin="miter" stroke-opacity="1"/>
      <path id="path3458" d="M168.77428 580.46898c-2.01635 4.61644 2.71016 20.95641 7.4081 23.00837 1.53899.67221 2.30242-.63401 3.25766-2.82095.95526-2.18699 1.92634-20.08868-5.03956-23.1313-2.91596-1.27365-4.49118.34532-5.6262 2.94388z" fill="#fdf603" fill-opacity="1" fill-rule="evenodd" stroke="#000" stroke-width="1" stroke-linecap="butt" stroke-linejoin="miter" stroke-opacity="1"/>
      <path d="M162.94628 593.2303c-1.73117 4.73078 3.98265 20.75222 8.79695 22.51397 1.5771.57714 2.25948-.77319 3.07963-3.01429.82016-2.24116.69812-20.16875-6.44031-22.78106-2.98818-1.09352-4.46177.61847-5.43627 3.28138z" id="path3460" fill="#fdf603" fill-opacity="1" fill-rule="evenodd" stroke="#000" stroke-width="1" stroke-linecap="butt" stroke-linejoin="miter" stroke-opacity="1"/>
      <path id="path3462" d="M157.90707 606.32317c-1.43956 4.82752 5.24033 20.47084 10.15307 21.93583 1.60935.47992 2.20814-.9095 2.89015-3.19643.68201-2.28699-.5327-20.17379-7.8171-22.34608-3.04928-.90932-4.41577.88932-5.22612 3.60668z" fill="#fdf603" fill-opacity="1" fill-rule="evenodd" stroke="#000" stroke-width="1" stroke-linecap="butt" stroke-linejoin="miter" stroke-opacity="1"/>
      <path d="M153.67539 619.69889c-1.14259 4.9063 6.47852 20.11331 11.47143 21.27609 1.63561.38091 2.14859-1.04242 2.68991-3.36668.54133-2.32431-1.76153-20.10379-9.16481-21.82797-3.09904-.72174-4.35334 1.15685-4.99653 3.91856z" id="path3464" fill="#fdf603" fill-opacity="1" fill-rule="evenodd" stroke="#000" stroke-width="1" stroke-linecap="butt" stroke-linejoin="miter" stroke-opacity="1"/>
      <path id="path3466" d="M150.26699 633.3077c-.84137 4.96683 7.6926 19.68096 12.74711 20.53721 1.65579.28049 2.08105-1.17147 2.47967-3.5244.39863-2.35299-2.98381-19.95902-10.47843-21.22868-3.13727-.53147-4.27472 1.42009-4.74835 4.21587z" fill="#fdf603" fill-opacity="1" fill-rule="evenodd" stroke="#000" stroke-width="1" stroke-linecap="butt" stroke-linejoin="miter" stroke-opacity="1"/>
      <path d="M147.69454 647.09898c-.53702 5.00889 8.87807 19.17541 13.97538 19.72193 1.66981.17903 2.00576-1.29615 2.2602-3.66901.25445-2.37291-4.19499-19.74-11.75307-20.55041-3.16383-.33923-4.1802 1.67804-4.48251 4.49749z" id="path3468" fill="#fdf603" fill-opacity="1" fill-rule="evenodd" stroke="#000" stroke-width="1" stroke-linecap="butt" stroke-linejoin="miter" stroke-opacity="1"/>
      <path id="path3470" d="M145.96761 661.02143c-.23067 5.03231 10.03052 18.59853 15.15166 18.83329 1.67762.0769 1.92302-1.41601 2.03233-3.79997.10932-2.38401-5.39057-19.44755-12.98399-19.7957-3.17863-.14573-4.07013 1.92975-4.2 4.76238z" fill="#fdf603" fill-opacity="1" fill-rule="evenodd" stroke="#000" stroke-width="1" stroke-linecap="butt" stroke-linejoin="miter" stroke-opacity="1"/>
      <path d="M145.09262 675.02326c.0765 5.03702 11.14566 17.95247 16.27159 17.8746 1.67918-.0255 1.83312-1.53061 1.79689-3.9168-.0362-2.38624-6.56609-19.08276-14.16661-18.96736-3.1816.0483-3.94492 2.17429-3.90187 5.00956z" id="path3472" fill="#fdf603" fill-opacity="1" fill-rule="evenodd" stroke="#000" stroke-width="1" stroke-linecap="butt" stroke-linejoin="miter" stroke-opacity="1"/>
      <path id="path3474" d="M145.07283 689.05239c.38346 5.02299 12.21934 17.23963 17.33099 16.84942 1.6745-.12782 1.7364-1.63951 1.55477-4.01906-.18161-2.37959-7.71719-18.64699-15.29654-18.06846-3.17273.24218-3.80503 2.41073-3.58922 5.2381z" fill="#fdf603" fill-opacity="1" fill-rule="evenodd" stroke="#000" stroke-width="1" stroke-linecap="butt" stroke-linejoin="miter" stroke-opacity="1"/>
      <path d="M145.90831 703.05664c.68896 4.99027 13.24757 16.46265 18.32592 15.76156 1.6636-.22967 1.63323-1.74232 1.30688-4.10637-.32634-2.36409-8.83959-18.14186-16.36957-17.10236-3.15207.43515-3.651 2.63821-3.26323 5.44717z" id="path3476" fill="#fdf603" fill-opacity="1" fill-rule="evenodd" stroke="#000" stroke-width="1" stroke-linecap="butt" stroke-linejoin="miter" stroke-opacity="1"/>
      <path id="path3478" d="M147.59596 716.98391c.99189 4.93899 14.22652 15.62444 19.25268 14.61507 1.64651-.33066 1.52398-1.83864 1.05412-4.1784-.46985-2.3398-9.9291-17.56925-17.38171-16.07264-3.11968.62649-3.48338 2.85587-2.92509 5.63597z" fill="#fdf603" fill-opacity="1" fill-rule="evenodd" stroke="#000" stroke-width="1" stroke-linecap="butt" stroke-linejoin="miter" stroke-opacity="1"/>
      <path d="M150.1295 730.78239c1.29113 4.86934 15.15255 14.72812 20.10782 13.41422 1.62329-.43042 1.40906-1.92812.79744-4.23489-.61161-2.3068-10.98168-16.93128-18.32919-14.98313-3.07569.8155-3.3028 3.06291-2.57607 5.8038z" id="path3480" fill="#fdf603" fill-opacity="1" fill-rule="evenodd" stroke="#000" stroke-width="1" stroke-linecap="butt" stroke-linejoin="miter" stroke-opacity="1"/>
      <path id="path3482" d="M153.4995 744.40076c1.58557 4.78158 16.02222 13.77701 20.88817 12.16347 1.59403-.52858 1.2889-2.01043.53779-4.27563-.75109-2.26522-11.99341-16.23033-19.20849-13.83788-3.02026 1.00148-3.10994 3.25855-2.21747 5.95004z" fill="#fdf603" fill-opacity="1" fill-rule="evenodd" stroke="#000" stroke-width="1" stroke-linecap="butt" stroke-linejoin="miter" stroke-opacity="1"/>
      <path d="M157.69343 757.78836c1.87411 4.67603 16.83228 12.77465 21.59082 10.86748 1.55884-.62477 1.16394-2.08527.27614-4.30046-.88778-2.21522-12.96053-15.46901-20.01634-12.64117-2.95359 1.18374-2.90551 3.44208-1.85062 6.07415z" id="path3484" fill="#fdf603" fill-opacity="1" fill-rule="evenodd" stroke="#000" stroke-width="1" stroke-linecap="butt" stroke-linejoin="miter" stroke-opacity="1"/>
      <path id="path3486" d="M162.69568 770.8954c2.15569 4.55308 17.57974 11.72477 22.21317 9.53106 1.51785-.71864 1.03465-2.15235.0135-4.3093-1.02117-2.15698-13.87944-14.65015-20.74974-11.39743-2.87593 1.36159-2.69027 3.6128-1.47689 6.17567z" fill="#fdf603" fill-opacity="1" fill-rule="evenodd" stroke="#000" stroke-width="1" stroke-linecap="butt" stroke-linejoin="miter" stroke-opacity="1"/>
      <path d="M168.48765 783.67311c2.42925 4.4132 18.26181 10.63128 22.75289 8.15919 1.47122-.80983.90151-2.21142-.24927-4.3021-1.15076-2.09072-14.74672-13.7768-21.40595-10.1113-2.78758 1.53438-2.46502 3.77008-1.09767 6.25421z" id="path3488" fill="#fdf603" fill-opacity="1" fill-rule="evenodd" stroke="#000" stroke-width="1" stroke-linecap="butt" stroke-linejoin="miter" stroke-opacity="1"/>
      <path id="path3490" d="M175.0478 796.07397c2.69377 4.2569 18.87594 9.49824 23.20797 6.75697 1.41911-.89801.76502-2.26227-.51107-4.2789-1.27607-2.01668-15.55915-12.8522-21.98254-8.78756-2.68885 1.70146-2.2306 3.91334-.71436 6.30949z" fill="#fdf603" fill-opacity="1" fill-rule="evenodd" stroke="#000" stroke-width="1" stroke-linecap="butt" stroke-linejoin="miter" stroke-opacity="1"/>
      <path d="M182.35172 808.05185c2.94827 4.08477 19.41986 8.32987 23.57672 5.32961 1.36173-.98285.62569-2.3047-.77096-4.23978-1.39664-1.93514-16.3137-11.87979-22.47736-7.43113-2.58013 1.86221-1.98789 4.04204-.3284 6.3413z" id="path3492" fill="#fdf603" fill-opacity="1" fill-rule="evenodd" stroke="#000" stroke-width="1" stroke-linecap="butt" stroke-linejoin="miter" stroke-opacity="1"/>
      <path id="path3494" d="M190.37225 819.5622c3.1918 3.89744 19.89154 7.13051 23.85777 3.88242 1.29928-1.06403.48403-2.33855-1.02799-4.18489-1.51201-1.8464-17.00757-10.86319-22.88857-6.04706-2.46181 2.01604-1.73778 4.15571.0588 6.34953z" fill="#fdf603" fill-opacity="1" fill-rule="evenodd" stroke="#000" stroke-width="1" stroke-linecap="butt" stroke-linejoin="miter" stroke-opacity="1"/>
      <path d="M199.07955 830.5622c3.42345 3.69561 20.28923 5.90463 24.05007 2.42079 1.232-1.14126.34057-2.36371-1.28119-4.11444-1.62176-1.75079-17.63818-9.80618-23.21464-4.64049-2.33433 2.16237-1.48121 4.25392.44576 6.33414z" id="path3496" fill="#fdf603" fill-opacity="1" fill-rule="evenodd" stroke="#000" stroke-width="1" stroke-linecap="butt" stroke-linejoin="miter" stroke-opacity="1"/>
      <path id="path3498" d="M208.44123 841.01093c3.64237 3.48004 20.61145 4.65679 24.15291.95016 1.16014-1.21424.19584-2.38008-1.52963-4.02869-1.72547-1.64866-18.20317-8.71269-23.45435-3.21666-2.19817 2.30066-1.21913 4.33631.83107 6.29519z" fill="#fdf603" fill-opacity="1" fill-rule="evenodd" stroke="#000" stroke-width="1" stroke-linecap="butt" stroke-linejoin="miter" stroke-opacity="1"/>
      <path d="M218.42247 850.86952c3.84774 3.25153 20.857 3.39163 24.16591-.524 1.08396-1.2827.0504-2.38759-1.77238-3.92795-1.82277-1.5404-18.70045-7.58679-23.60682-1.78086-2.05383 2.43038-.95252 4.40256 1.21329 6.23281z" id="path3500" fill="#fdf603" fill-opacity="1" fill-rule="evenodd" stroke="#000" stroke-width="1" stroke-linecap="butt" stroke-linejoin="miter" stroke-opacity="1"/>
      <path id="path3502" d="M228.98614 860.10131c4.0388 3.01092 21.02496 2.11385 24.08902-1.99622 1.00375-1.34639-.0953-2.38622-2.00854-3.81259-1.91328-1.42642-19.12817-6.43268-23.67148-.33845-1.90185 2.55107-.68236 4.45244 1.591 6.14726z" fill="#fdf603" fill-opacity="1" fill-rule="evenodd" stroke="#000" stroke-width="1" stroke-linecap="butt" stroke-linejoin="miter" stroke-opacity="1"/>
      <path d="M240.09294 868.67195c4.21484 2.75911 21.11472.82821 23.92253-3.46101.9198-1.40507-.24056-2.37597-2.23723-3.68305-1.99668-1.30713-19.48474-5.25464-23.64808 1.10522-1.7428 2.66227-.40967 4.48576 1.96278 6.03884z" id="path3504" fill="#fdf603" fill-opacity="1" fill-rule="evenodd" stroke="#000" stroke-width="1" stroke-linecap="butt" stroke-linejoin="miter" stroke-opacity="1"/>
      <path id="path3506" d="M251.70156 876.54956c4.3752 2.49704 21.12594-.46051 23.66705-4.91292.83244-1.45853-.38495-2.35689-2.45759-3.53982-2.07265-1.18297-19.76883-4.05705-23.53672 2.54479-1.57726 2.76356-.13545 4.50239 2.32726 5.90795z" fill="#fdf603" fill-opacity="1" fill-rule="evenodd" stroke="#000" stroke-width="1" stroke-linecap="butt" stroke-linejoin="miter" stroke-opacity="1"/>
      <path d="M263.76882 883.70484c4.51929 2.22568 21.05858-1.74752 23.32354-6.34656.74197-1.50656-.52792-2.32904-2.66881-3.38341-2.14092-1.05442-19.97939-2.84437-23.33782 3.97489-1.40585 2.85457.13928 4.50227 2.68309 5.75508z" id="path3508" fill="#fdf603" fill-opacity="1" fill-rule="evenodd" stroke="#000" stroke-width="1" stroke-linecap="butt" stroke-linejoin="miter" stroke-opacity="1"/>
      <path id="path3510" d="M276.24984 890.11118c4.64656 1.94604 20.91288-3.02803 22.89326-7.75659.64875-1.54899-.66892-2.29253-2.8701-3.21443-2.20122-.92194-20.11563-1.6211-23.0521 5.39021-1.22922 2.93496.41348 4.4854 3.02894 5.58081z" fill="#fdf603" fill-opacity="1" fill-rule="evenodd" stroke="#000" stroke-width="1" stroke-linecap="butt" stroke-linejoin="miter" stroke-opacity="1"/>
      <path d="M289.09818 895.74474c4.75655 1.65916 20.68939-4.29727 22.37783-9.13777.55312-1.58565-.80743-2.24748-3.06072-3.03348-2.25333-.78604-20.17704-.39181-22.68063 6.78547-1.04801 3.00444.68615 4.45185 3.36352 5.38578z" id="path3512" fill="#fdf603" fill-opacity="1" fill-rule="evenodd" stroke="#000" stroke-width="1" stroke-linecap="butt" stroke-linejoin="miter" stroke-opacity="1"/>
      <path id="path3514" d="M302.26606 900.58457c4.84884 1.36611 20.38894-5.55053 21.77915-10.48496.45543-1.61642-.94293-2.19408-3.23995-2.84125-2.29706-.64721-20.1634.83894-22.22479 8.15549-.86291 3.06274.95626 4.40175 3.68559 5.17072z" fill="#fdf603" fill-opacity="1" fill-rule="evenodd" stroke="#000" stroke-width="1" stroke-linecap="butt" stroke-linejoin="miter" stroke-opacity="1"/>
      <path d="M315.70449 904.61267c4.9231 1.06797 20.01265-6.78315 21.09946-11.79315.35605-1.64118-1.07493-2.13252-3.40713-2.63845-2.33224-.50598-20.07475 2.06657-21.68628 9.49517-.6746 3.10965 1.22282 4.33527 3.99395 4.93643z" id="path3516" fill="#fdf603" fill-opacity="1" fill-rule="evenodd" stroke="#000" stroke-width="1" stroke-linecap="butt" stroke-linejoin="miter" stroke-opacity="1"/>
      <path id="path3518" d="M329.36348 907.81405c4.97905.76586 19.56192-7.99053 20.34129-13.05747.25534-1.65983-1.20293-2.06302-3.56163-2.42584-2.35875-.36286-19.91144 3.28651-21.06711 10.79954-.48378 3.14499 1.48483 4.25266 4.28745 4.68377z" fill="#fdf603" fill-opacity="1" fill-rule="evenodd" stroke="#000" stroke-width="1" stroke-linecap="butt" stroke-linejoin="miter" stroke-opacity="1"/>
      <path d="M343.19223 910.1768c5.01648.46091 19.03842-9.16819 19.50745-14.27321.15368-1.67231-1.32645-1.98586-3.70288-2.20421-2.37649-.21839-19.67406 4.49423-20.36958 12.06373-.29115 3.16864 1.74132 4.15424 4.56501 4.41369z" id="path3520" fill="#fdf603" fill-opacity="1" fill-rule="evenodd" stroke="#000" stroke-width="1" stroke-linecap="butt" stroke-linejoin="miter" stroke-opacity="1"/>
      <path id="path3522" d="M357.1393 911.69214c5.03524.15424 18.4441-10.31175 18.60105-15.43587.0515-1.67856-1.44504-1.9013-3.83037-1.97437-2.38538-.0731-19.36349 5.68523-19.59627 13.28305-.0974 3.18049 1.99133 4.04036 4.82559 4.12719z" fill="#fdf603" fill-opacity="1" fill-rule="evenodd" stroke="#000" stroke-width="1" stroke-linecap="butt" stroke-linejoin="miter" stroke-opacity="1"/>
      <path d="M371.1528 912.35443c5.03528-.153 17.78118-11.41695 17.62547-16.54111-.051-1.67857-1.55826-1.80967-3.94361-1.73719-2.3854.0724-18.9809 6.85508-18.75007 14.45296.0966 3.18051 2.23393 3.91145 5.06821 3.82534z" id="path3524" fill="#fdf603" fill-opacity="1" fill-rule="evenodd" stroke="#000" stroke-width="1" stroke-linecap="butt" stroke-linejoin="miter" stroke-opacity="1"/>
      <path id="path3526" d="M385.18061 912.1612c5.01659-.45967 17.05212-12.47968 16.58432-17.58482-.15321-1.67234-1.66568-1.71131-4.04217-1.49355-2.37655.21772-18.52771 7.99944-17.83413 15.56911.29034 3.16871 2.46823 3.76799 5.29198 3.50926z" fill="#fdf603" fill-opacity="1" fill-rule="evenodd" stroke="#000" stroke-width="1" stroke-linecap="butt" stroke-linejoin="miter" stroke-opacity="1"/>
      <path d="M399.17055 911.11318c4.97924-.76464 16.25963-13.49599 15.48148-18.56312-.25487-1.65989-1.7669-1.60659-4.1257-1.24436-2.35885.3622-18.00559 9.11404-16.85184 16.62735.48297 3.14512 2.69334 3.61052 5.49606 3.18013z" id="path3528" fill="#fdf603" fill-opacity="1" fill-rule="evenodd" stroke="#000" stroke-width="1" stroke-linecap="butt" stroke-linejoin="miter" stroke-opacity="1"/>
      <path id="path3530" d="M413.07059 909.21426c4.92336-1.06676 15.40665-14.4621 14.32105-19.47237-.35559-1.64126-1.86156-1.49589-4.19389-.99054-2.33238.50533-17.41649 10.19474-15.80687 17.62374.67381 3.10983 2.90844 3.43962 5.67971 2.83917z" fill="#fdf603" fill-opacity="1" fill-rule="evenodd" stroke="#000" stroke-width="1" stroke-linecap="butt" stroke-linejoin="miter" stroke-opacity="1"/>
      <path d="M426.82901 906.4715c4.84917-1.36491 14.49637-15.37441 13.10735-20.30918-.45498-1.61653-1.94929-1.37963-4.24647-.73303-2.29724.64657-16.76261 11.23751-14.7031 18.55457.86213 3.06297 3.11271 3.25592 5.84222 2.48764z" id="path3532" fill="#fdf603" fill-opacity="1" fill-rule="evenodd" stroke="#000" stroke-width="1" stroke-linecap="butt" stroke-linejoin="miter" stroke-opacity="1"/>
      <path id="path3534" d="M440.39464 902.89511c4.75695-1.65798 13.53216-16.22953 11.8449-21.07045-.55268-1.58579-2.02977-1.25823-4.28326-.47279-2.25355.78541-16.04638 12.23848-13.54464 19.41638 1.04725 3.00472 3.3054 3.06011 5.983 2.12686z" fill="#fdf603" fill-opacity="1" fill-rule="evenodd" stroke="#000" stroke-width="1" stroke-linecap="butt" stroke-linejoin="miter" stroke-opacity="1"/>
      <path d="M453.71702 898.49839c4.64703-1.94488 12.51762-17.02428 10.53838-21.75334-.64832-1.54915-2.10269-1.13215-4.30411-.2108-2.20148.92133-15.27046 13.19393-12.3358 20.20597 1.22847 2.93529 3.4858 2.85292 6.10153 1.75817z" id="path3536" fill="#fdf603" fill-opacity="1" fill-rule="evenodd" stroke="#000" stroke-width="1" stroke-linecap="butt" stroke-linejoin="miter" stroke-opacity="1"/>
      <path id="path3538" d="M466.74659 893.2977c4.51983-2.22455 11.45652-17.75571 9.19267-22.35532-.74156-1.50674-2.1678-1.00186-4.30896.052-2.14122 1.05382-14.43774 14.1003-11.08107 20.9204 1.40512 2.85494 3.65323 2.63511 6.19736 1.38294z" fill="#fdf603" fill-opacity="1" fill-rule="evenodd" stroke="#000" stroke-width="1" stroke-linecap="butt" stroke-linejoin="miter" stroke-opacity="1"/>
      <path d="M479.43489 887.31238c4.37581-2.49595 10.35279-18.42109 7.81276-22.87414-.83204-1.45873-2.22485-.86784-4.29778.31456-2.073 1.1824-13.55131 14.95423-9.78512 21.55701 1.57654 2.76398 3.80707 2.40751 6.27014 1.00257z" id="path3540" fill="#fdf603" fill-opacity="1" fill-rule="evenodd" stroke="#000" stroke-width="1" stroke-linecap="butt" stroke-linejoin="miter" stroke-opacity="1"/>
      <path id="path3542" d="M491.73471 880.5647c4.21552-2.75807 9.21056-19.01795 6.40379-23.30788-.91942-1.40529-2.27361-.73059-4.27061.57598-1.99706 1.30657-12.61447 15.75252-8.45277 22.11343 1.7421 2.66273 3.94675 2.17095 6.31959.61847z" fill="#fdf603" fill-opacity="1" fill-rule="evenodd" stroke="#000" stroke-width="1" stroke-linecap="butt" stroke-linejoin="miter" stroke-opacity="1"/>
      <path d="M503.60031 873.07975c4.03954-3.00992 8.03407-19.54407 4.971-23.65491-1.00338-1.34663-2.31392-.59063-4.22756.83525-1.91369 1.42588-11.63071 16.49222-7.08898 22.58759 1.90118 2.55158 4.07175 1.92632 6.34554.23207z" id="path3544" fill="#fdf603" fill-opacity="1" fill-rule="evenodd" stroke="#000" stroke-width="1" stroke-linecap="butt" stroke-linejoin="miter" stroke-opacity="1"/>
      <path id="path3546" d="M514.98755 864.88538c3.84853-3.25058 6.82769-19.99749 3.51971-23.91396-1.0836-1.28295-2.34562-.44847-4.16877 1.09142-1.82321 1.53989-10.60369 17.17057-5.69883 22.97773 2.05319 2.43094 4.18161 1.67452 6.34789-.15519z" fill="#fdf603" fill-opacity="1" fill-rule="evenodd" stroke="#000" stroke-width="1" stroke-linecap="butt" stroke-linejoin="miter" stroke-opacity="1"/>
      <path d="M525.85407 856.01207c3.64321-3.47915 5.59591-20.37653 2.05533-24.08405-1.15979-1.21451-2.3686-.30465-4.09448 1.34352-1.72595 1.64817-9.53723 17.78505-4.28748 23.2824 2.19757 2.30126 4.27592 1.41649 6.32663-.54187z" id="path3548" fill="#fdf603" fill-opacity="1" fill-rule="evenodd" stroke="#000" stroke-width="1" stroke-linecap="butt" stroke-linejoin="miter" stroke-opacity="1"/>
      <path id="path3550" d="M536.15945 846.49282c3.42434-3.69477 4.34332-20.67977.58331-24.16455-1.23167-1.14155-2.38277-.15969-4.00497 1.59062-1.62226 1.75033-8.43528 18.33338-2.86017 23.50047 2.33377 2.16302 4.35432 1.15319 6.28183-.92654z" fill="#fdf603" fill-opacity="1" fill-rule="evenodd" stroke="#000" stroke-width="1" stroke-linecap="butt" stroke-linejoin="miter" stroke-opacity="1"/>
      <path d="M545.86535 836.36304c3.19274-3.89665 3.07458-20.90608-.89088-24.15516-1.29897-1.06434-2.38807-.0141-3.90055 1.83181-1.51254 1.84597-7.30196 18.81351-1.42223 23.63112 2.46129 2.01673 4.41652.8856 6.21366-1.30777z" id="path3552" fill="#fdf603" fill-opacity="1" fill-rule="evenodd" stroke="#000" stroke-width="1" stroke-linecap="butt" stroke-linejoin="miter" stroke-opacity="1"/>
      <path id="path3554" d="M554.93568 825.66042c2.94925-4.08404 1.79439-21.05463-2.36176-24.05593-1.36144-.98317-2.38449.13147-3.78163 2.06619-1.39719 1.93474-6.14148 19.22366.021 23.67387 2.57965 1.86294 4.46229.61472 6.12238-1.68413z" fill="#fdf603" fill-opacity="1" fill-rule="evenodd" stroke="#000" stroke-width="1" stroke-linecap="butt" stroke-linejoin="miter" stroke-opacity="1"/>
      <path d="M563.33669 814.42476c2.69479-4.25623.50753-21.12486-3.82385-23.86721-1.41885-.89834-2.37204.27659-3.64864 2.29288-1.27665 2.01632-4.95816 19.5623 1.46416 23.62856 2.68842 1.70222 4.49147.34155 6.00833-2.05423z" id="path3556" fill="#fdf603" fill-opacity="1" fill-rule="evenodd" stroke="#000" stroke-width="1" stroke-linecap="butt" stroke-linejoin="miter" stroke-opacity="1"/>
      <path id="path3558" d="M571.03713 802.69786c2.43031-4.41259-.78121-21.11651-5.27172-23.58971-1.47097-.81017-2.35076.42068-3.50207 2.51104-1.15136 2.0904-3.75639 19.82818 2.90187 23.49536 2.78719 1.53516 4.50393.0671 5.87192-2.41669z" fill="#fdf603" fill-opacity="1" fill-rule="evenodd" stroke="#000" stroke-width="1" stroke-linecap="butt" stroke-linejoin="miter" stroke-opacity="1"/>
      <path d="M578.00836 790.52334c2.15679-4.55253-2.06705-21.02961-6.69998-23.22446-1.51762-.71899-2.32074.5632-3.34248 2.71986-1.02178 2.1567-2.54065 20.0203 4.32879 23.27476 2.87559 1.36239 4.49964-.20758 5.71367-2.77016z" id="path3560" fill="#fdf603" fill-opacity="1" fill-rule="evenodd" stroke="#000" stroke-width="1" stroke-linecap="butt" stroke-linejoin="miter" stroke-opacity="1"/>
      <path id="path3562" d="M584.22445 777.94649c1.87525-4.67554-3.3452-20.86449-8.10332-22.77282-1.55862-.62514-2.28209.70362-3.17045 2.91856-.88841 2.21498-1.31546 20.13795 5.7396 22.96758 2.95329 1.18456 4.47862-.4815 5.53417-3.11332z" fill="#fdf603" fill-opacity="1" fill-rule="evenodd" stroke="#000" stroke-width="1" stroke-linecap="butt" stroke-linejoin="miter" stroke-opacity="1"/>
      <path d="M589.66228 765.01409c1.58673-4.78116-4.61091-20.62176-9.47652-22.23647-1.59383-.52897-2.23495.84143-2.98663 3.1064-.75173 2.26502-.0854 20.18069 7.12906 22.57497 3.02001 1.00232 4.44094-.75363 5.33409-3.4449z" id="path3564" fill="#fdf603" fill-opacity="1" fill-rule="evenodd" stroke="#000" stroke-width="1" stroke-linecap="butt" stroke-linejoin="miter" stroke-opacity="1"/>
      <path id="path3566" d="M594.30161 751.77425c1.29232-4.869-5.85946-20.30232-10.81446-21.61742-1.62311-.43082-2.1795.97612-2.7917 3.2827-.61226 2.30663 1.14502 20.14836 8.492 22.09838 3.0755.81635 4.38674-1.02295 5.11416-3.76366z" fill="#fdf603" fill-opacity="1" fill-rule="evenodd" stroke="#000" stroke-width="1" stroke-linecap="butt" stroke-linejoin="miter" stroke-opacity="1"/>
      <path d="M598.1252 738.27621c.99309-4.93873-7.08622-19.90736-12.11218-20.91795-1.64635-.33107-2.11594 1.10717-2.58639 3.44678-.4705 2.33967 2.37116 20.04109 9.82336 21.5396 3.11954.62734 4.31622-1.28847 4.87521-4.06843z" id="path3568" fill="#fdf603" fill-opacity="1" fill-rule="evenodd" stroke="#000" stroke-width="1" stroke-linecap="butt" stroke-linejoin="miter" stroke-opacity="1"/>
      <path id="path3570" d="M601.11881 724.57018c.69018-4.99008-8.28662-19.43835-13.36484-20.14067-1.66347-.23009-2.04451 1.23411-2.37146 3.59804-.32699 2.364 3.58849 19.85927 11.11818 20.9007 3.15198.436 4.22965-1.5492 4.61812-4.35807z" fill="#fdf603" fill-opacity="1" fill-rule="evenodd" stroke="#000" stroke-width="1" stroke-linecap="butt" stroke-linejoin="miter" stroke-opacity="1"/>
      <path d="M603.27132 710.70715c.38469-5.02287-9.4562-18.89703-14.56779-19.28847-1.6744-.12826-1.96547 1.35645-2.14771 3.73591-.18227 2.37954 4.79247 19.60358 12.37164 20.18405 3.1727.24304 4.12734-1.80416 4.34386-4.63149z" id="path3572" fill="#fdf603" fill-opacity="1" fill-rule="evenodd" stroke="#000" stroke-width="1" stroke-linecap="butt" stroke-linejoin="miter" stroke-opacity="1"/>
      <path id="path3574" d="M604.57471 696.73868c.0778-5.03698-10.5906-18.28542-15.71654-18.36452-1.67911-.0259-1.87913 1.47375-1.91597 3.85989-.0369 2.38623 5.97862 19.27496 13.57908 19.39232 3.18161.0492 4.00968-2.05242 4.05343-4.88769z" fill="#fdf603" fill-opacity="1" fill-rule="evenodd" stroke="#000" stroke-width="1" stroke-linecap="butt" stroke-linejoin="miter" stroke-opacity="1"/>
      <path d="M605.02414 682.71674c-.22942-5.03236-11.68561-17.6058-16.80683-17.37226-1.67757.0765-1.7858 1.58556-1.67711 3.96951.10867 2.38404 7.14253 18.87464 14.73601 18.52845 3.17869-.14488 3.87711-2.29304 3.74793-5.1257z" id="path3576" fill="#fdf603" fill-opacity="1" fill-rule="evenodd" stroke="#000" stroke-width="1" stroke-linecap="butt" stroke-linejoin="miter" stroke-opacity="1"/>
      <path id="path3578" d="M604.61794 668.69348c-.53577-5.00902-12.73715-16.86069-17.83461-16.31538-1.66979.17857-1.68582 1.69147-1.432 4.06436.2538 2.37298 8.27987 18.40412 15.83812 17.59566 3.16395-.33838 3.73011-2.52513 3.42849-5.34464z" fill="#fdf603" fill-opacity="1" fill-rule="evenodd" stroke="#000" stroke-width="1" stroke-linecap="butt" stroke-linejoin="miter" stroke-opacity="1"/>
      <path d="M603.35762 654.72106c-.84013-4.96704-13.74132-16.05285-18.79605-15.19781-1.6558.28003-1.57957 1.79109-1.18157 4.1441.39799 2.35309 9.38641 17.86514 16.88132 16.59742 3.13744-.53063 3.56924-2.74783 3.0963-5.54371z" id="path3580" fill="#fdf603" fill-opacity="1" fill-rule="evenodd" stroke="#000" stroke-width="1" stroke-linecap="butt" stroke-linejoin="miter" stroke-opacity="1"/>
      <path id="path3582" d="M601.24786 640.85146c-1.14136-4.90659-14.69437-15.1853-19.68757-14.02371-1.63565.38045-1.46745 1.88405-.92674 4.20842.54069 2.32445 10.45803 17.25971 17.86172 15.53744 3.09926-.7209 3.39509-2.9603 2.75259-5.72215z" fill="#fdf603" fill-opacity="1" fill-rule="evenodd" stroke="#000" stroke-width="1" stroke-linecap="butt" stroke-linejoin="miter" stroke-opacity="1"/>
      <path d="M598.29651 627.13627c-1.43835-4.82789-15.59275-14.26127-20.50585-12.79745-1.60942.47946-1.34987 1.97001-.66847 4.25709.68139 2.28717 11.49076 16.59008 18.77568 14.41967 3.04955-.9085 3.20832-3.16176 2.39864-5.87931z" id="path3584" fill="#fdf603" fill-opacity="1" fill-rule="evenodd" stroke="#000" stroke-width="1" stroke-linecap="butt" stroke-linejoin="miter" stroke-opacity="1"/>
      <path id="path3586" d="M594.51456 613.62651c-1.72999-4.73123-16.43314-13.28419-21.24787-11.52359-1.57719.57669-1.22726 2.04864-.4077 4.28993.81955 2.24138 12.48074 15.85873 19.6198 13.24826 2.98849-1.09272 3.00961-3.35147 2.03577-6.0146z" fill="#fdf603" fill-opacity="1" fill-rule="evenodd" stroke="#000" stroke-width="1" stroke-linecap="butt" stroke-linejoin="miter" stroke-opacity="1"/>
      <path d="M589.91607 600.37243c-2.0152-4.61697-17.2124-12.2577-21.91085-10.20686-1.5391.67176-1.10009 2.11964-.14542 4.3068.95466 2.18726 13.4243 15.0684 20.39094 12.02757 2.91632-1.27287 2.7997-3.5287 1.66533-6.12751z" id="path3588" fill="#fdf603" fill-opacity="1" fill-rule="evenodd" stroke="#000" stroke-width="1" stroke-linecap="butt" stroke-linejoin="miter" stroke-opacity="1"/>
      <path id="path3590" d="M584.51814 587.42333c-2.29291-4.48554-17.92763-11.18561-22.49232-8.85216-1.49529.76433-.96883 2.18276.1174 4.30765 1.08622 2.125 14.31792 14.22201 21.08623 10.76214 2.8333-1.44828 2.57938-3.69281 1.28869-6.21763z" fill="#fdf603" fill-opacity="1" fill-rule="evenodd" stroke="#000" stroke-width="1" stroke-linecap="butt" stroke-linejoin="miter" stroke-opacity="1"/>
      <path d="M578.34085 574.82738c-2.56209-4.33742-18.57617-10.07191-22.99012-7.46453-1.44592.85406-.83397 2.23776.37978 4.29248 1.21374 2.05483 15.15828 13.32271 21.70309 9.45667 2.73974-1.6183 2.34946-3.84318.90725-6.28462z" id="path3592" fill="#fdf603" fill-opacity="1" fill-rule="evenodd" stroke="#000" stroke-width="1" stroke-linecap="butt" stroke-linejoin="miter" stroke-opacity="1"/>
      <path id="path3594" d="M571.40719 562.63143c-2.82174-4.17316-19.15562-8.92075-23.40241-6.04914-1.39117.94062-.69601 2.28444.64075 4.26135 1.33674 1.97702 15.94226 12.37386 22.23921 8.11603 2.63599-1.78231 2.11081-3.97926.52245-6.32824z" fill="#fdf603" fill-opacity="1" fill-rule="evenodd" stroke="#000" stroke-width="1" stroke-linecap="butt" stroke-linejoin="miter" stroke-opacity="1"/>
      <path d="M563.74294 550.88085c-3.07089-3.99338-19.66382-7.7364-23.72765-4.61124-1.33124 1.02367-.55545 2.32262.89934 4.21436 1.45477 1.89185 16.66693 11.37898 22.69261 6.7452 2.52243-1.93969 1.8643-4.10054.1357-6.34832z" id="path3596" fill="#fdf603" fill-opacity="1" fill-rule="evenodd" stroke="#000" stroke-width="1" stroke-linecap="butt" stroke-linejoin="miter" stroke-opacity="1"/>
      <path id="path3598" d="M555.37661 539.61935c-3.30862-3.79875-20.09887-6.52328-23.96463-3.15619-1.26636 1.10292-.41282 2.35216 1.15459 4.15169 1.56739 1.79965 17.32961 10.34178 23.0616 5.34928 2.39949-2.08985 1.61085-4.20656-.25156-6.34478z" fill="#fdf603" fill-opacity="1" fill-rule="evenodd" stroke="#000" stroke-width="1" stroke-linecap="butt" stroke-linejoin="miter" stroke-opacity="1"/>
      <path d="M546.33932 528.88882c-3.53404-3.58999-20.45915-5.28589-24.11246-1.68941-1.19677 1.17807-.26866 2.37296 1.40554 4.07359 1.67418 1.70075 17.92782 9.26611 23.3448 3.93346 2.26763-2.23224 1.35142-4.29694-.63788-6.31764z" id="path3600" fill="#fdf603" fill-opacity="1" fill-rule="evenodd" stroke="#000" stroke-width="1" stroke-linecap="butt" stroke-linejoin="miter" stroke-opacity="1"/>
      <path id="path3602" d="M536.66469 518.72917c-3.74631-3.36787-20.74333-4.02884-24.1706-.21634-1.12273 1.24884-.1235 2.38493 1.65126 3.98033 1.77475 1.59553 18.45935 8.15597 23.54117 2.50301 2.12733-2.36632 1.08696-4.37133-1.02183-6.267z" fill="#fdf603" fill-opacity="1" fill-rule="evenodd" stroke="#000" stroke-width="1" stroke-linecap="butt" stroke-linejoin="miter" stroke-opacity="1"/>
      <path d="M526.38871 509.1782c-3.94465-3.13323-20.95035-2.75681-24.13883 1.25753-1.04451 1.31496.0221 2.38803 1.89083 3.87227 1.86872 1.48437 18.92222 7.01549 23.64998 1.06325 1.97912-2.49161.81845-4.42947-1.40198-6.19305z" id="path3604" fill="#fdf603" fill-opacity="1" fill-rule="evenodd" stroke="#000" stroke-width="1" stroke-linecap="butt" stroke-linejoin="miter" stroke-opacity="1"/>
      <path id="path3606" d="M515.5496 500.27143c-4.12832-2.88693-21.07944-1.47452-24.01727 2.72673-.96241 1.37619.16765 2.38224 2.12337 3.7498 1.95573 1.36769 19.3147 5.84891 23.67081-.38047 1.82355-2.60762.5469-4.47112-1.77691-6.09606z" fill="#fdf603" fill-opacity="1" fill-rule="evenodd" stroke="#000" stroke-width="1" stroke-linecap="butt" stroke-linejoin="miter" stroke-opacity="1"/>
      <path d="M504.18768 492.04199c-4.29663-2.62989-21.13012-.18674-23.80637 4.18579-.87673 1.4323.31256 2.36759 2.34801 3.61338 2.03547 1.24592 19.63534 4.66058 23.60359-1.82277 1.6612-2.71394.27332-4.49614-2.14523-5.9764z" id="path3608" fill="#fdf603" fill-opacity="1" fill-rule="evenodd" stroke="#000" stroke-width="1" stroke-linecap="butt" stroke-linejoin="miter" stroke-opacity="1"/>
      <path id="path3610" d="M492.34522 484.5205c-4.44897-2.36307-21.10221 1.10172-23.50693 5.62927-.78778 1.48308.45631 2.34413 2.56392 3.46352 2.10764 1.11952 19.88294 3.45492 23.44858-3.25829 1.49266-2.81016-.001-4.50444-2.50557-5.8345z" fill="#fdf603" fill-opacity="1" fill-rule="evenodd" stroke="#000" stroke-width="1" stroke-linecap="butt" stroke-linejoin="miter" stroke-opacity="1"/>
      <path d="M480.06626 477.73493c-4.58475-2.08746-20.9958 2.38609-23.12004 7.05181-.69591 1.52835.59836 2.31196 2.77029 3.30078 2.17197.98895 20.05658 2.2364 23.20634-4.68169 1.31857-2.89593-.27588-4.49598-2.85659-5.6709z" id="path3612" fill="#fdf603" fill-opacity="1" fill-rule="evenodd" stroke="#000" stroke-width="1" stroke-linecap="butt" stroke-linejoin="miter" stroke-opacity="1"/>
      <path id="path3614" d="M467.39648 471.71052c-4.70348-1.80408-20.81129 3.66159-22.64715 8.44813-.60145 1.56793.73819 2.27118 2.96636 3.12576 2.22821.8547 20.15561 1.00956 22.87777-6.08768 1.13958-2.97092-.54945-4.4708-3.19698-5.48621z" fill="#fdf603" fill-opacity="1" fill-rule="evenodd" stroke="#000" stroke-width="1" stroke-linecap="butt" stroke-linejoin="miter" stroke-opacity="1"/>
      <path d="M454.38301 466.46968c-4.80471-1.51399-20.54937 4.92347-22.09002 9.81302-.50475 1.60168.87527 2.22196 3.15139 2.93912 2.27617.71727 20.17967-.22104 22.46411-7.47102.95635-3.03487-.82098-4.42899-3.52548-5.28112z" id="path3616" fill="#fdf603" fill-opacity="1" fill-rule="evenodd" stroke="#000" stroke-width="1" stroke-linecap="butt" stroke-linejoin="miter" stroke-opacity="1"/>
      <path id="path3618" d="M441.07425 462.03191c-4.88807-1.21827-20.21101 6.16703-21.45072 11.14141-.40617 1.62947 1.0091 2.16447 3.3247 2.74154 2.31567.57718 20.12867-1.45081 21.96689-8.82657.76956-3.08753-1.08945-4.3707-3.84087-5.05638z" fill="#fdf603" fill-opacity="1" fill-rule="evenodd" stroke="#000" stroke-width="1" stroke-linecap="butt" stroke-linejoin="miter" stroke-opacity="1"/>
      <path d="M427.51971 458.41372c-4.95325-.91803-19.79747 7.38765-20.73163 12.42835-.30608 1.6512 1.13918 2.09893 3.48565 2.53376 2.34655.43494 20.00279-2.67518 21.38795-10.14928.57991-3.1287-1.35387-4.29616-4.14197-4.81283z" id="path3620" fill="#fdf603" fill-opacity="1" fill-rule="evenodd" stroke="#000" stroke-width="1" stroke-linecap="butt" stroke-linejoin="miter" stroke-opacity="1"/>
      <path id="path3622" d="M413.76981 455.62856c-5-.61437-19.31029 8.58079-19.93542 13.66906-.20485 1.66679 1.26501 2.02558 3.63363 2.31656 2.3687.29108 19.8025-3.8896 20.72945-11.43424.38811-3.15824-1.61325-4.20564-4.42766-4.55138z" fill="#fdf603" fill-opacity="1" fill-rule="evenodd" stroke="#000" stroke-width="1" stroke-linecap="butt" stroke-linejoin="miter" stroke-opacity="1"/>
      <path d="M399.375 453.67465c-2.14011.124966-5.4657 1.750911-8.71875 3.9375-.71684 3.60355-4.98359 6.832624-9.34375 9.15625-.30594.632071-.46688 1.241132-.5 1.78125-.10286 1.676179 1.3993 1.94771 3.78125 2.09375 2.38203.146143 19.50346-5.10038 19.96875-12.6875.19487-3.176021-1.85725-4.10772-4.6875-4.28125-.15713-.0096-.32656-.01013-.5 0z" id="path3624" fill="#fdf603" fill-opacity="1" fill-rule="evenodd" stroke="#000" stroke-width="1" stroke-linecap="butt" stroke-linejoin="miter" stroke-opacity="1"/>
      <path id="path3629" d="M239.25 123.43883l5.61235 17.33643 18.22224-.0196-14.75361 10.69492 5.64961 17.32433L239.25 158.0483l-14.73059 10.72661 5.64961-17.32433-14.75361-10.69492 18.22224.0196z" transform="translate(77 384.09959)" fill="#fff" fill-opacity="1" fill-rule="nonzero" stroke="none"/>
      <path transform="translate(-6.4386004 471.78083)" d="M239.25 123.43883l5.61235 17.33643 18.22224-.0196-14.75361 10.69492 5.64961 17.32433L239.25 158.0483l-14.73059 10.72661 5.64961-17.32433-14.75361-10.69492 18.22224.0196z" id="path3631" fill="#fff" fill-opacity="1" fill-rule="nonzero" stroke="none"/>
      <path transform="matrix(-1 0 0 1 673.43608 384.09959)" d="M239.25 123.43883l5.61235 17.33643 18.22224-.0196-14.75361 10.69492 5.64961 17.32433L239.25 158.0483l-14.73059 10.72661 5.64961-17.32433-14.75361-10.69492 18.22224.0196z" id="path3633" fill="#fff" fill-opacity="1" fill-rule="nonzero" stroke="none"/>
      <path id="path3635" d="M239.25 123.43883l5.61235 17.33643 18.22224-.0196-14.75361 10.69492 5.64961 17.32433L239.25 158.0483l-14.73059 10.72661 5.64961-17.32433-14.75361-10.69492 18.22224.0196z" transform="matrix(-1 0 0 1 761.82443 471.78083)" fill="#fff" fill-opacity="1" fill-rule="nonzero" stroke="none"/>
      <path id="path3661" d="M329.25 813.61215c0-11.04536-.25-33.25-.25-33.25l-17 4.25v36.75s11.75-3 17.25-7.75z" fill="#fff" fill-rule="evenodd" stroke="#08298c" stroke-width="1.23514265" stroke-linecap="butt" stroke-linejoin="miter" stroke-miterlimit="4" stroke-opacity="1" stroke-dasharray="none"/>
      <path d="M329.25 813.61215l-.25-33.25c-14.02007 0-58-54.25-58-54.25l-18.75 36.25s39.22931 51.25 77 51.25z" id="path3663" fill="#fff" fill-rule="evenodd" stroke="#08298c" stroke-width="1.23514265" stroke-linecap="butt" stroke-linejoin="miter" stroke-miterlimit="4" stroke-opacity="1" stroke-dasharray="none"/>
      <path id="path3731" d="M199.07955 830.5622c3.42345 3.69561 20.28923 5.90463 24.05007 2.42079 1.232-1.14126.34057-2.36371-1.28119-4.11444-1.62176-1.75079-17.63818-9.80618-23.21464-4.64049-2.33433 2.16237-1.48121 4.25392.44576 6.33414z" fill="#fdf603" fill-opacity="1" fill-rule="evenodd" stroke="#000" stroke-width="1" stroke-linecap="butt" stroke-linejoin="miter" stroke-opacity="1"/>
      <path d="M208.44123 841.01093c3.64237 3.48004 20.61145 4.65679 24.15291.95016 1.16014-1.21424.19584-2.38008-1.52963-4.02869-1.72547-1.64866-18.20317-8.71269-23.45435-3.21666-2.19817 2.30066-1.21913 4.33631.83107 6.29519z" id="path3733" fill="#fdf603" fill-opacity="1" fill-rule="evenodd" stroke="#000" stroke-width="1" stroke-linecap="butt" stroke-linejoin="miter" stroke-opacity="1"/>
      <path id="path3741" d="M460 751.61215l-.5-37.75c18.02007-3.5 82.5-2.25 82.5-2.25-5.78947 6.44181-11.7838 12.47387-16.94837 20.16548 4.28232 7.91337 9.00089 14.08176 13.94837 19.33452 0 0-61.97747.5-79 .5z" fill="#fff" fill-rule="evenodd" stroke="#08298c" stroke-width="1.23514265" stroke-linecap="butt" stroke-linejoin="miter" stroke-miterlimit="4" stroke-opacity="1" stroke-dasharray="none"/>
      <path d="M460 751.61215l-.5-37.75c11.77007 9.5 20.5 12.25 20.5 12.25l18.75 36.25s-21.72747-10.75-38.75-10.75z" id="path3743" fill="#fff" fill-rule="evenodd" stroke="#08298c" stroke-width="1.23514265" stroke-linecap="butt" stroke-linejoin="miter" stroke-miterlimit="4" stroke-opacity="1" stroke-dasharray="none"/>
      <path d="M421.75 813.61215c0-11.04536.25-33.25.25-33.25l17 4.25v36.75s-11.75-3-17.25-7.75z" id="path3749" fill="#fff" fill-rule="evenodd" stroke="#08298c" stroke-width="1.23514265" stroke-linecap="butt" stroke-linejoin="miter" stroke-miterlimit="4" stroke-opacity="1" stroke-dasharray="none"/>
      <path id="path3745" d="M421.75 813.61215l.25-33.25c14.02007 0 58-54.25 58-54.25l18.75 36.25s-39.22931 51.25-77 51.25z" fill="#fff" fill-rule="evenodd" stroke="#08298c" stroke-width="1.23514265" stroke-linecap="butt" stroke-linejoin="miter" stroke-miterlimit="4" stroke-opacity="1" stroke-dasharray="none"/>
      <path style="text-align:start;line-height:125%;-inkscape-font-specification:Arial Bold" d="M260.76769 759.03328l14.46456-11.43622 3.10893 3.93218c1.17811 1.49008 1.72686 2.27298 1.95744 2.8331.35942.85632.24791 1.6728-.0506 2.73445-.29849 1.06164-.99767 2.07827-2.09753 3.0499-.84844.74949-1.67587 1.25044-2.48229 1.50284-.80644.25239-1.55895.31127-2.23782.1886-.67898-.12262-1.24973-.34789-1.71233-.67574-.61516-.45695-1.41651-1.28568-2.29355-2.39496l-1.26321-1.59771-5.45627 4.31393-1.93736-2.45037m13.95502-7.05125l-4.10462 3.24527 1.06031 1.34108c.7636.96579 1.33239 1.52725 1.74728 1.72053.41495.1932.85549.24759 1.3216.16314.4661-.0844.90759-.30226 1.3245-.65342.51309-.43223.82989-.91527.95032-1.44905.12048-.53387.0592-1.0296-.18372-1.48731-.17615-.33919-.48166-.81337-1.17972-1.69644l-.93595-1.1838m-4.42871 18.5551l13.81996-12.20848 7.45708 7.65212-2.15396 2.25629-5.62466-5.66693-2.99314 2.78451 5.37513 5.43856-2.14534 2.24726-5.50455-5.56962-3.67462 3.41849 6.34721 6.38614-2.14526 2.24718-8.75785-8.98552m22.66607 20.54962l-3.0681-2.28826 1.45137-4.15457-5.06983-4.202-3.74003 2.27729-2.68775-2.43868 16.72883-9.76527 2.54741 2.10271-6.1619 18.46878m-.59044-9.59214l2.71176-6.63399-5.96723 3.94682 3.25547 2.68717m14.40291 10.28285l2.33289 2.49407c-1.2851 1.61689-2.81457 2.505-4.22244 2.87738-1.40783.37229-3.31906-.14089-4.74664-.9888-1.76635-1.04912-3.23234-2.99985-3.37632-5.1275-.14399-2.12767.6048-4.38751 2.24645-6.7797 1.73647-2.53036 3.63327-4.1194 5.69039-4.7671 2.05706-.64762 3.47749-.73043 5.34062.37617 1.62721.96647 2.18224 2.01379 2.6205 3.74089.26338 1.02314.0498 2.1952-.26767 3.67889l-2.94258-.53635c.30439-.9245.33728-1.76956.0987-2.53528-.23857-.76573-.55642-1.26888-1.27021-1.69283-.98602-.58564-1.88793-.57508-3.01557-.12688-1.12771.44828-2.2008 1.64418-3.44387 3.45555-1.31899 1.92201-1.84123 3.56603-1.77468 4.77832.0665 1.21237.7242 2.20872 1.69207 2.78357.71378.42396 1.64285.59846 2.4711.33911.82818-.25927 1.6839-.91574 2.56723-1.96951m2.62705 8.85252l7.36885-16.90332 9.48943 3.30957-.79733 3.01564-7.25907-2.33829-1.49982 3.8029 7.15282 2.33913-.79413 3.00356-7.49855-2.45251-1.8413 4.66874 8.90382 2.85958-.79411 3.00346-12.43061-4.30846" id="path2272" font-size="25.76157951" font-style="normal" font-variant="normal" font-weight="700" font-stretch="normal" writing-mode="lr-tb" text-anchor="start" fill="#000" fill-opacity="1" stroke="none" font-family="Arial"/>
      <path id="path4182" d="M429.1698 804.93844l-4.67477-17.68081 2.03198-.5303 4.47736 14.50644 6.24836-2.14791 1.13986 2.89017-9.22279 2.96241m11.09406-3.72581l-7.36884-16.90331 1.97504-.87449 7.93406 16.64559-2.54026 1.13221m-3.53909-18.67152l3.82238-2.06666c.83252-.49447 1.27628-.67165 1.74346-.82299.46728-.15115.96264-.16406 1.48624-.0384.52354.12553 1.0625.39271 1.61677.80137.55425.40867.8678 1.05517 1.31856 1.71199.48865.71207.90464 1.39417 1.02858 2.16885.12393.77468.0587 1.45561-.19578 2.04277.80509-.12169 1.60054.0423 2.37684.46542.77633.42321 1.4658 1.07386 2.06836 1.95188.47445.69139.82917 1.43692 1.0642 2.23669.23503.79978.052 1.67981-.0738 2.3196-.1258.6398-.4372 1.18109-.93422 1.62387-.31237.27663-1.57354 1.10867-2.94202 1.88826l-3.91706 2.10073-8.46254-16.38334m3.43291 1.66948l2.071 3.72734 1.41556-.78653c.84161-.4675 1.29011-.77791 1.46967-.93329.32508-.28089.49856-.63992.52042-1.07718.0218-.43725-.20393-.86939-.52183-1.3728-.30452-.48218-.51898-.88628-.88039-1.08613-.36143-.19984-.73842-.22704-1.13103-.0817-.23193.089-.68628.35614-1.70296.92103l-1.24044.68922m3.56167 6.41021l2.3948 4.3101 2.14821-1.20513c.76554-.45469 1.23193-.77555 1.39912-.96266.26441-.27405.52564-.72226.51273-1.17523-.013-.45305-.19406-.95605-.5433-1.5091-.29554-.46797-.62156-.81747-.97812-1.04857-.35652-.23102-.76131-.30695-1.1407-.28642-.37941.0205-1.0662.36208-2.04882.90805l-1.74392.96896m13.02289 1.3565l-10.43322-15.20314 6.57524-4.98677 1.98569 2.40563-5.00382 3.90155 2.46763 3.25906 4.78443-3.71571 1.97766 2.39592-4.88677 3.79657 3.02945 4.00109 5.58641-4.36825 1.97773 2.39599-8.06043 6.11806m9.69553-7.46773l-11.73815-14.22063 3.38172-3.02167c.94592-.90302 1.74756-1.43937 2.40494-1.60907.65743-.16961 1.40734-.0711 2.2498.29558.84238.36663 1.5147 1.04455 2.29161 1.80932.98604.97067 1.65029 1.93706 1.88226 2.96176.23201 1.02479.0407 1.99294-.57403 2.90439.71066-.0292 1.38574.0392 2.0253.20548.63948.16618 1.77268.48548 3.20839 1.07106l3.61186 1.45882-2.30831 2.27499-4.06279-1.66885c-1.44896-.59906-2.38685-.95289-2.81359-1.06144-.42675-.10853-.83887-.0893-1.1262-.0186-.28734.0707-.64288.29488-1.06663.67253l-.3739.33322 5.12167 5.74682-2.11395 1.86629m-4.96596-9.81037l1.36473-1.21627c.88489-.78862 1.31831-1.33647 1.42739-1.64935.10913-.3128.0967-.66033-.0373-1.04243-.13404-.38217-.39212-.77339-.77429-1.17373-.42852-.44887-.85395-.73534-1.27643-.85957-.42242-.12414-.8133-.0843-1.17264.11953-.17384.10803-.45736.37927-1.20515 1.04571l-1.4395 1.28291 3.11319 3.4932m16.74124-1.46613l-11.21721-10.43533-2.40452 2.48597-2.223-2.18833 6.27811-6.75949 2.33785 2.06525-2.30548 2.58753 11.21721 10.43533-1.68296 1.80907m7.51786-8.51964l-5.93579-5.00001-10.92763-3.62777 1.73821-2.03921 7.36954 2.52114-3.97283-6.73771 1.76534-2.23281 5.60616 10.1679 6.06802 4.7976-1.71102 2.15087" style="text-align:start;line-height:125%;-inkscape-font-specification:Arial Bold" font-size="25.76157951" font-style="normal" font-variant="normal" font-weight="700" font-stretch="normal" writing-mode="lr-tb" text-anchor="start" fill="#000" fill-opacity="1" stroke="none" font-family="Arial"/>
      <path style="text-align:start;line-height:125%;-inkscape-font-specification:Arial Bold" d="M338.58192 803.43302l3.51606.7733-1.83829 9.81657c-.29173 1.55776-.43343 2.57634-.4251 3.05564.0247.77253.30302 1.44094.8348 2.00555.53177.56451 1.33174.94678 2.39989 1.14681 1.08536.20325 2.1323.11869 2.75304-.2216.62073-.3403 1.03583-.81235 1.24532-1.41616.20947-.60391.42663-1.62662.65148-3.06834l1.57191-10.07918 3.58151.4677-1.20712 9.60984c-.27594 2.19655-.57521 3.73519-.8978 4.61582-.32263.88073-.80355 1.59785-1.44278 2.15137-.63927.55362-1.70194.93207-2.6946 1.15486-.9927.22288-2.2424.21683-3.74907-.0181-1.81843-.28359-3.70917-.87154-4.55068-1.4727-.84152-.60116-1.46223-1.27832-1.86211-2.03149-.39989-.75316-.60898-1.49668-.6273-2.23046-.0216-1.08648.18877-2.63717.63122-4.65208l2.10962-9.6073m16.38429 21.24662l1.76564-18.35524 3.50705.2993 7.12531 12.71084.49162-12.30451 3.36178.0823-.24083 18.43849-4.14611-.10701-7.19528-12.4313-.81167 11.99759-3.85751-.33047m20.26242.92065l-.25303-18.43826 3.89077-.0534.25304 18.43827-3.89078.0534m12.17368-.33383l-.64324-15.30706-5.71336.24009-.13097-3.11665 14.72374-.99726.3145 3.10349-5.4942.50744 1.08826 15.28185-4.14473.2881m18.16968-1.9175l-1.2603-7.65786-8.15006-9.65853 4.23866-.5452 5.37246 6.5342 2.88245-7.97893 4.06984-.92917-4.54626 11.9349 1.50096 7.58864-4.10775.71195" id="path6411" font-size="25.76157951" font-style="normal" font-variant="normal" font-weight="700" font-stretch="normal" writing-mode="lr-tb" text-anchor="start" fill="#000" fill-opacity="1" stroke="none" font-family="Arial"/>
      <path id="text7144" d="M349.48913 864.75415h-2.96675v-18.90481c-.71423.68127-1.65096 1.36252-2.81018 2.04376-1.15924.68127-2.20035 1.19221-3.12333 1.53282v-2.86786c1.65918-.78013 3.10959-1.72509 4.35124-2.8349 1.24163-1.10976 2.12067-2.18658 2.63711-3.23046h1.91191v24.26145zm8.05968-5.58739l2.85138-.26371c.24173 1.34054.70322 2.31298 1.38448 2.91731.68125.60434 1.5548.90651 2.62064.90651.91199 0 1.71136-.20877 2.39812-.62632.68674-.41754 1.24987-.97518 1.6894-1.67292.43951-.69773.80761-1.63994 1.10429-2.82665.29667-1.1867.445-2.39537.44502-3.62603-.00002-.13185-.006-.32963-.0165-.59335-.59337.94497-1.40373 1.71138-2.43109 2.29923-1.02739.58786-2.13992.88179-3.3376.88178-1.99982.00001-3.69197-.72519-5.07645-2.17561-1.38448-1.45041-2.07673-3.36231-2.07672-5.73573-.00001-2.4503.72245-4.42264 2.16737-5.91702 1.44492-1.49434 3.25519-2.24153 5.43081-2.24155 1.57127.00002 3.00795.42306 4.31004 1.26911 1.30206.8461 2.29097 2.05203 2.96675 3.61779.67574 1.56581 1.01362 3.83207 1.01364 6.79881-.00002 3.08763-.33515 5.54619-1.0054 7.37568-.67028 1.8295-1.66744 3.22223-2.99148 4.17818-1.32406.95595-2.87611 1.43393-4.65615 1.43393-1.88994 0-3.43375-.52468-4.63143-1.57403-1.1977-1.04935-1.91741-2.52448-2.15914-4.42541zm12.14721-10.66383c-.00002-1.70311-.45327-3.05463-1.35977-4.05456-.90652-.99988-1.99707-1.49984-3.27167-1.49986-1.31856.00002-2.4668.53843-3.44473 1.61523-.97793 1.07685-1.46689 2.47232-1.46689 4.18642 0 1.53833.46424 2.78822 1.39273 3.74965.92847.96146 2.07397 1.44218 3.43649 1.44217 1.37348.00001 2.50249-.48071 3.38704-1.44217.88452-.96143 1.32678-2.29373 1.3268-3.99688zm6.395-4.7468v-2.85138h15.64138v2.30747c-1.53833 1.63723-3.06291 3.81285-4.57374 6.52686-1.51086 2.71404-2.67833 5.50499-3.50242 8.37284-.59336 2.02179-.97244 4.23587-1.13726 6.64223h-3.04916c.033-1.90092.40655-4.1974 1.12077-6.88946.71422-2.69205 1.73884-5.28795 3.07389-7.78773 1.33503-2.49975 2.75522-4.60669 4.26059-6.32083h-11.83405zm19.03667 15.41063l2.85138-.26371c.24173 1.34054.70322 2.31298 1.38448 2.91731.68125.60434 1.55479.90651 2.62063.90651.912 0 1.71137-.20877 2.39813-.62632.68674-.41754 1.24987-.97518 1.6894-1.67292.43951-.69773.8076-1.63994 1.10429-2.82665.29666-1.1867.445-2.39537.44502-3.62603-.00002-.13185-.006-.32963-.0165-.59335-.59336.94497-1.40372 1.71138-2.43109 2.29923-1.02738.58786-2.13991.88179-3.33759.88178-1.99982.00001-3.69197-.72519-5.07645-2.17561-1.38448-1.45041-2.07673-3.36231-2.07673-5.73573 0-2.4503.72246-4.42264 2.16738-5.91702 1.44492-1.49434 3.25518-2.24153 5.43081-2.24155 1.57127.00002 3.00795.42306 4.31003 1.26911 1.30206.8461 2.29098 2.05203 2.96676 3.61779.67574 1.56581 1.01362 3.83207 1.01364 6.79881-.00002 3.08763-.33515 5.54619-1.0054 7.37568-.67028 1.8295-1.66744 3.22223-2.99148 4.17818-1.32406.95595-2.87611 1.43393-4.65615 1.43393-1.88994 0-3.43375-.52468-4.63144-1.57403-1.19769-1.04935-1.9174-2.52448-2.15913-4.42541zm12.14721-10.66383c-.00002-1.70311-.45327-3.05463-1.35977-4.05456-.90652-.99988-1.99707-1.49984-3.27167-1.49986-1.31856.00002-2.4668.53843-3.44473 1.61523-.97793 1.07685-1.4669 2.47232-1.46689 4.18642-.00001 1.53833.46424 2.78822 1.39272 3.74965.92848.96146 2.07398 1.44218 3.43649 1.44217 1.37349.00001 2.5025-.48071 3.38705-1.44217.88452-.96143 1.32678-2.29373 1.3268-3.99688z" style="text-align:start;line-height:125%;-inkscape-font-specification:Arial" font-size="33.7550621" font-style="normal" font-variant="normal" font-weight="400" font-stretch="normal" writing-mode="lr-tb" text-anchor="start" fill="#fff" fill-opacity="1" stroke="none" font-family="Arial"/>
      <path d="M285.75 656.11215c-1.25 7.25 0 15 0 15s1-3.5 3-5.25 7.75-5.5 8.25-8.25m-5.5-64.75c-.75 5.25-1.75 12 0 14.75 0-4.75 10.5-6.5 12.25-11.25" id="path7151" fill="#85c4a0" fill-opacity="1" fill-rule="evenodd" stroke="#000" stroke-width="2" stroke-linecap="butt" stroke-linejoin="miter" stroke-miterlimit="4" stroke-opacity="1" stroke-dasharray="none"/>
      <path id="path7156" d="M375 711.86215c-17.25 0-47.75 18.75-47.75 54 5.02003 2.89832 5.75 3.5 10.25 3.5s10.25-3.75 16-3.75 11.25 8.5 41.25 8.5c15.5 0 29.5-7.25 29.5-7.25-7-31.75-24.75-55.5-49.25-55z" fill="#4d4a43" fill-opacity="1" fill-rule="evenodd" stroke="#000" stroke-width="1" stroke-linecap="butt" stroke-linejoin="miter" stroke-opacity="1"/>
      <path id="path7149" d="M371.5 528.36215c.75 10.25-2.75 16.25-2.75 50s4 52 3 61.25c-7-5-17-41.25-23.5-56s-11.25-24.5-25.75-24.5c-9.5 0-11.5 11.5-17 15s-37.25 10.5-42.25 15.5-8.5 13.25-8.5 13.25c7.25-2.5 9.75-2.5 15.25-2.5s9.25-4.75 23.25-4.75c4.5 0 11.25 6.25 21 9.25s10.75 2.25 16.75 5 37.25 27.5 37.25 39.75c0 3.5-.5 5.75-4 5.75s-32.75-28.25-40-28.25-10 2-13.25 3-5-.5-8.5 1.5-7.75 6-13.25 7.75-10.25 5-17 9.5-6.25 17.5-6.25 17.5c7-8 9.25-8.75 13.5-8.75s10 4.5 18 4.5 35.25-6.75 49.25-6.75c14.25 0 24 9.25 24 35.75 0 13.75-2.5 39-2.5 39 7.5-1.5 14.25-5.5 14.25-9.5s-4.5-11-4.5-15.5 1.75-6.5 1.75-11-2.5-21-2.5-21c-.25-13.5 1.25-19.25 5-19.25s19.5 9 34.75 9 54.75 6.75 61.5 10c2-10-7.25-24.75-7.25-24.75 9.25-2 22.25 2 22.25 2 4.5-9-13.75-27-39.5-27s-57 23.5-68 23.5c-6.25 0-7.25-2-7.25-6.25s10.5-11.25 25-17.25 40.5-12.75 54.5-12.75 35 9.5 35 9.5c-1.25-16.5-11.5-30-35.25-28.5 1-9.5 20-4.5 26.5-.75-3.75-21-22-24-32.5-24s-29 1.75-44.25 26.25-17 36-23.5 36-5.25-3.25-5.25-9.5 1.25-11.75 1.25-14.75-1.75897-3.87917-1.75897-6.56458c0-2.68542 2.50897-6.93542 2.50897-16.68542s-3-22.5-3-34.5-2-15.75-6.5-18.5z" fill="#85c4a0" fill-opacity="1" fill-rule="evenodd" stroke="#000" stroke-width="2" stroke-linecap="butt" stroke-linejoin="miter" stroke-miterlimit="4" stroke-opacity="1" stroke-dasharray="none"/>
      <path d="M381.23269 650.05229c22.27387-2.65165 19.26866-4.06586 31.1127-4.06586s51.6188 1.94454 56.56854 2.29809m-110.83898-22.09708c-4.24264-9.8995-38.18377-49.49748-45.60839-54.09367m4.41942-2.82843c2.82842 2.82843 15.64473 13.96536 17.14734 24.66035m5.03813 5.92202c.61872-6.71751-5.3033-26.60489-13.43503-31.55464m6.18719.0884c9.8111 8.66206 15.55635 31.55464 12.46275 38.00699m-40.12831-27.93072c4.5962 2.65165 10.07628 4.59619 12.37437 4.59619m-23.86485.53033c12.19759 0 30.22881 3.00521 34.64823 6.8943m-56.56854-.88389c8.3085-2.82843 22.09709-.35355 32.35013 1.94455 10.25305 2.29809 25.27907 6.89429 31.1127 6.89429m-57.80598-5.48008c9.8995-5.12653 54.624 12.19759 63.63961 16.97056m12.1976 42.24963c-9.01562-6.71751-18.38478-6.01041-20.85965-8.48528-2.47488-2.47487-10.25305-2.2981-16.79379-2.2981-6.54074 0-12.37437 1.59099-16.79379 1.59099-4.41941 0-12.02081-1.76776-12.02081-1.76776m-15.2028 15.20279c4.24264-5.48007 9.01561-8.48528 13.08148-9.72272m-5.3033 7.6014c7.24784-5.83363 18.9151-8.66206 23.33452-8.66206m-7.6014 12.9047c5.3033-6.18718 5.48008-5.65685 10.25305-7.24784 4.77297-1.59099 14.31891-5.48008 16.97056-6.18719m0 9.8995c5.65686-4.06586 16.97057-5.65685 20.5061-6.01041m55.68466-26.33973c11.84404-12.19759 31.8198-31.46625 59.22019-30.75914m6.18719-21.38998c-9.72272 6.89429-17.85445 13.43503-17.85445 19.79899m-7.42462 1.94454c.88388-7.77817 4.24264-19.26866 7.07107-21.74353m-7.24785.70711c-5.12652 5.48007-6.18718 18.208-5.83363 21.03642m-8.83883 7.77818c.17677-9.01561 1.59099-18.91511 3.71231-21.21321m-7.24785 6.18719c-3.18198 3.88909-4.24264 14.84924-4.24264 18.56155m-6.01041 6.01041c-.17677-7.24785-.17677-12.72792 1.41422-14.84924m-8.13173 21.38998c.53033-5.48008.70711-9.8995 1.94454-11.31371m6.36397 8.3085h0c5.65685-1.76776 22.80419-1.06066 31.28947-.88388m-27.75394-3.0052c10.25305-6.01041 42.42641-6.8943 52.67945.35355m-35.53211-9.19239c11.13693-5.48008 39.77476.88388 47.19938 8.30851 1.59099 1.59099 7.42462 1.06066 11.13693 4.06586m-30.05204-17.50089c6.36396 0 19.97577 7.60139 23.86485 9.01561m-70.00357 39.95153c3.53554-4.77297 7.42462-7.24784 10.42983-9.36916m0 8.13172c5.3033-5.3033 11.84404-11.13693 13.43503-13.78858m-1.94455 16.79379c.35356-7.6014 13.96536-17.67767 25.27907-19.62222m-11.49049 19.97577c7.6014-9.72272 17.5009-15.20279 25.8094-15.37957m-13.08147 16.08668c10.25305-7.6014 23.86485-3.53554 28.46104-3.53554m-101.11627 8.48529c9.19239 4.94974 10.07628 5.12652 10.07628 5.12652m-.53033-6.71751c6.0104 6.18718 17.32411 10.6066 20.15254 10.42982m-7.42462-13.43503c6.01041 6.18719 16.97056 13.78858 22.27386 13.78858m-6.01041-12.55114c4.41942 7.07107 16.26346 13.96536 19.26866 15.55635m-5.65685-14.14214c4.06586 5.3033 18.38478 13.61181 21.74353 17.14734m-7.95495-15.9099c6.89429 5.3033 19.79899 16.08668 23.68808 21.03643" id="path7213" fill="none" stroke="#000" stroke-width="2" stroke-linecap="round" stroke-linejoin="miter" stroke-miterlimit="4" stroke-opacity="1" stroke-dasharray="none"/>
    </g>
  </g>
</svg>
