<svg id="svg9252" xmlns="http://www.w3.org/2000/svg" version="1.0" viewBox="0 0 800 1000">
  <g id="layer1">
    <g id="switch9080" transform="scale(3.5398 3.5577)">
      <g id="g9084">
        <g id="Layer_1">
          <path id="path9087" fill="#d21034" d="M0 0h226v174s-3.03 107.08-113.03 107.08S0 174 0 174V0z"/>
          <path id="path9089" d="M78.172 13.844c-3.667-1.75-6.25-5.8327-5.667-6.5827s6.667 2.667 6.667 5.6667c0 3 3.167 3.75 3.083 0-.084-3.7497 3.917-7.3327 5-6.6667s-.75 6.3327-4.25 7.4997c-1.083.667-1.083 3.583.667 2.417s9 2.333 8.583 3.667-7.5.083-9.083-2.667c-2-1.917-3.083-.417-1.667 1.333s1.833 8.333.083 8.5-2.834-5.167-1.417-8.25 0-3.25-2.083-1.083c-2.25 2.167-8 4.417-8.583 3.25s5.083-4.917 8-4.417.667-2.667.667-2.667z" stroke="#000" stroke-width=".5" fill="#fff"/>
          <path id="path9091" d="M65.625 227.75s48.125 29.13 94.375 6c3.62 4.5 7 7.37 13.75 9.63-24.13 20.12-77.625 21.24-112.88-4.38.755-8.12 4.755-11.25 4.755-11.25z" stroke="#000" stroke-width=".5" fill="#fff"/>
          <path id="path9093" d="M29.5 227.33c-1.75-.08-8.333-.49-3.167-7.83.417-2.12 1.417-5.25 2.167-6s5.125.75 10-3.17c.625.79-1.667 3.67-2.167 4.17s2-.5 28.333 12.67c-.042 2.58-1.292 7.33-4.667 11.66C50 231.25 50 229 33.167 222.17c-2.417-1.17-3.417 1.71-3.667 5.16z" stroke="#000" stroke-width=".5" fill="#ffc726"/>
          <path id="path9095" d="M72.833 112.5c-4.333-2.5-30.167-24-30.167-24L42.5 54.167s-2.333-3.666-2.833-4.833-1.5-6.833-.667-8 13.833-8.834 14.333-9.667-.333-5 .167-5.333 5.833 4 7.167 5.167 1.167 10.333.5 10.667-5 8.333-6.833 10S58.5 79.333 59 80.833s27 15 27.667 19c.667 3.997-11.5 12.497-13.834 12.667z" stroke="#000" stroke-width=".5" fill="#fff"/>
          <path id="path9097" d="M66.75 30c.907-1.1 6.5 2.375 9.125 2.375s106.62.125 108.38.125c1.74 0 8.86 3.5 9.36 3.875s-8.12 4.125-9.37 4.125-107.38 2.25-108.5 2.625c-1.125.375-7.875 2.75-8.625 2.5s-6.25-8.5-.375-15.625z" stroke="#000" stroke-width=".5" fill="#fff"/>
          <path id="path9099" d="M37.875 34c-3.25-2.75-7.375-3-8.875.5s0 9.875 8.5 8.75" stroke="#000" stroke-width=".5" fill="#ffc726"/>
          <path id="path9103" d="M136.17 141.83c-5.99.34-23.84 9.17-27.5 12.84-3.67 3.66-8.5-2.42-7.84-4-2.329-.25-4.663 1.5-4.329 2.66.334 1.17 2.833 4.34 3.829 4.67-1.829 1.5-5.58 6.67-5.663 8.17s1.667 3 2.5 3c3.163-4.75 7.083-7.75 8.663-8.5-1.75 1.25-5.5 4-5.5 5.83s1.67 2.67 1.67 4.17-4.916 16-25.666 20.66c-8.083 1.34-11.917-6.83-13.833-9-1.916-2.16-2.083-1.08-3-1-.917.09-7.5-3.58-11.833 3.5 1.833-.25 4.833-.75 6.167 1.5.667.92-1.334 1.09-1.167 2.17s6.5 6.92 9.667 7.17c-2.583-.09-8.333.33-12-4.84-1.083-1.25-1.583 1.59-5 1.84s-11.5 6.41-8 11c1.583-2.59 2.75-4.25 6.833-4.67 1.5-.08-.75 2.92.5 4s12.75 1.92 18.833.5c-5.417 1.42-12 2.67-12.5 4.17s1.167 1 .667 2.16c-.5 1.17-9.583 7.42-.167 15.67-.083-6.42-1.25-7.67 2.5-9.17 2.25-.5 1.333 3.09 3.5 1.34s7.583-8.75 14-9c3.167 0 1.583 2.58 2.667 3.5 1.084.91 2.333.5 2.5 1.33s-1.833 4-3.5 5c2.083.67 6.083.08 8.333-4 .75-2 2.667-.5 3-2s-1.75-1.08-1.167-3 5.833-4.5 6.667-6.17c.834-1.66 1.25-2.75 1.333-4.83.333 2.58.333 5.83 1.667 6.5s3-.67 3.5-1.67c-.083-1-2.833-4.41 1.333-6.83-.333 1.25-1.333 5 1.5 6.33 2.746.09 2.416-.75 2.996-1.5-.91-2-1.83-5.33 1.84-7.16-.75 1.5-3.17 4.33.5 6.16 2.41.5 3-.33 3.5-1.5-1.34-1.66-.42-6 1.66-7-.5 1.42-1 6.34 1.84 6.5 3.83-.5 2.58-.58 3.83-2-.5-1.75-.83-2.5.17-4.16 1-1.67 5.66-6.09 8.83-6.5-3.25-3.09-1-3-.83-5.84.16-2.83-2.34-2.5-1.67-5.66.67-3.17 5.33-5.84 26.83-14.84 4.17-14.33-6.66-17.83-12.66-17.5z" stroke="#000" stroke-width=".5" fill="#ffc726"/>
          <path id="path9105" d="M148.17 155.83c-2.92-4.25-6.84-8.83-11.84-9.25 2.42-2 2.09-2.5 3.42-3.58s9.5 9 8.42 12.83z" stroke="#000" stroke-width=".5" fill="#ffc726"/>
          <path id="path9107" d="M181.86 96.237l4.1883-3.97s11.451 11.858 11.826 14.233c2.5-1 7.625-1.5 8.125.75s.5 4.5-.375 5.5c-1.625-.375-2.625-4.625-6.25-.125-.125 1.25-.375 2.5.125 3.375s6-2.625 6.5 1.625-.75 4.375-2 5.25c-1.125-1.375-3.625-2.5-4.625-.25s.5 2.25 1.5 3.125 3 1.625 2.625 2.875-2.5 3.125-3.25 4.5-1.875-5-5.125-2.375-8.375 10.75-25.875 9.75c3.125 3.5 5.625 1.375 6.5 2.5s1.625 5.875-6.25 3.25c.875 5 5.125 2.5 6.75 3.625.625 2-1.5 6.208-7.625 2-.125 1.125 3.542 6.792 7.625 3.5 1.5 2.458 1.167 8.542-7.75 2.875 4.667 2.75 9.417 6.333 12.125 8.375s2.125-1.458 8.875.875c5 3.625 3.25 9.667 13 12.25-1.083 3.083-6.333 5.167-11.375.5 1.792 2.583 2.958 6.25 10.375 6.375 3.5 3.792-2.079 8.9483-11.412.36531.667 1.167 8.662 7.5097 11.287 7.8847 1.458 2.125-.708 9.375-10.75-.875 2.208 2.75 6.625 10.583 10.25 9 .792 3.667-.792 8.917-10.125-.375 3.917 4.292 4.5 3.125 5.5 5.875s-2 6.583 3.125 11.375c.958 1.125-2.375 2.375-2.75 3.625s-.125 7.833-3.25 8c-1.125-3.667-.625-4.833-1.625-5.875-1.75.208-2.833-1.958-3.75-2.625s-7.833 8-4.375 13c-1.875 2.125-2.125 1.625-4.125 1.125s.75 7.958 3.125 9c-1.542.292-8.542.458-10-10.375-.292-1.667-1.125-.125-1-2s4.042-7.417 5.125-8.625c-3.583 2.208-10.667 7.625-11.625 8.625s-3.125-1.125-4.25-2-5.125 6.917-3 9c-2.625-2.083-5.625-9.667 1.25-15.5 1.292-1.833-.75-1.75 1.625-3.125s9.583-1.708 11.125-2.75c-1.375-.292-8.958.292-9.875-.125s-1.875-2.125-1.75-3-5.5 2.5-5.25 4.25c-1-.667-3.667-8.25 6.625-10.375 1.292-1.292-.25-2 1.875-2.125s12.375 5.625 14.625 1.25 4.458-24.25-8-28.5c-8.458-3-9.958-3.25-11-2.125s-2.042 9.042.625 9.875c.083 1.25-7.667 1.917-6.5-5.125-1.75 2.125-5.25 1.708-7-2.375 2.167 0 4.833.167 6.625-3.25s-1.75-10.75-3.25-16-2.125-8.5-3.25-10.875-6.6283-9.8642-27.875-16.25c-13.805-4.1492-14.793-5.1477-15.813-6.1483-.62044-1.2987-.72554-1.8918-.89019-4.9813-.24003-3.6765 1.2441-5.1799.63653-6.0356-1.0071 3.1192-2.4774 2.2865-2.6835 5.6652 0 1.75.75 4.958.5 5.75-.583.792-1.833 1.542-3.125 1.25-1.625-.5-2.625-2.375-2.625-4.5s2.667-6.458 2.125-8.25c-.958 3.542-4.5 6.5-4.25 8.375s.958 4.25.875 4.875c-.25.792-2.25 1.542-3.625 1.25-6.958-4.542 1.042-7.875-.875-12.625-1.083 5.75-6.75 7.25-3.875 12-.708 1.333-1.458 2.25-3.25 1.875-7.63-2.21 1.37-7.88-.88-11.75-.917 5.542-7.25 7.958-4.375 12-1 1.125-3.208 2.625-5.125 1.25-2.75-2.042 3-7.792 1.75-10.125-2.333 4.167-6.833 6.583-4.5 11.125-1.25 1.125-4 3.125-5.25.625s1.75-5.667.25-7.875c-2.167 1.708-1.5 6.375-3.625 6.5s-5.625.292-8.25 2.25-.125 4.125-1 4.75-1.75 0-2.75.375-.625 3.833-5.75 3c1.125-1.75 1.958-2.417 2.375-3.625-1.583-1.292-2.25-2.958-2.75-4.375-12.583 3.333-9.333 5.75-10.75 6.375s-2.625-1-4.25-1.375-3.333 4.833-3.125 7.375c-1.708-.458-7.708-6.209-1.25-11.875 1.625-1.667-1.25-1.25.5-2.75s9.375-3.083 10.625-3.625c-2-.292-11.875 1.125-14.25-.25s-1.625-3.25-2.25-3.75-4 2.042-5.625 3.875c-1.625-2.25-.542-9 6.125-10.125 2.583-.458-.083-2.292 3.125-2.25s2.125 3.958 14.25 4.625c-5.292-2.5-11.125-4.375-10.875-7s1-1.333 1.5-2.25c-.583-1.083-6.083-1.917-8-1.5.833-2.167 6.833-6.583 12.25-3.5 1.083.75 1.25-1.25 2.375-1s5.875 13.25 16.5 11.875c36.708-10.13 31.791-19.11 38.541-20.495 15.924-13.558 25.344-1.78 32.804-4.54 7.12-2.875 31.03 39.785 52.15 38.405 21.125-1.375 28.735-21.513 9.7353-37.263z" stroke="#000" stroke-width=".5" fill="#ffc726"/>
          <path id="path9113" d="M83.417 57.25c-14.417 0-13.667 15.333 0 15.333 7.417 0 10.648-4.243 28.065 2.923.667-1 .75-1.25 1.25-2.5-5.167-6.5-23.315-6.34-29.148-6.34s-2.084-6.832-.167-9.416z" stroke="#000" stroke-width=".5" fill="#ffc726"/>
          <path id="path9109" d="M97.083 28.833l30.747 15.833s1 5.583-.33 7-7-4.167-7-4.167 8.33 8.333 11.42 3.833c1.5 1.75 1.75 3 1.25 3.667s-6.01 4.25-12.17-1c2 1.833 9.17 8.5 13.42 6.167.33 2.25 0 4.333-1.75 4.667s-8.75-1.833-10.59-3.5c2.09 1.75 7.67 7.167 12.34 6.25.5 3.417.08 5-1.42 5s-7.67-1.917-10.58-3.917c2.25 2.167 8.91 7.5 12.5 6.417.58 2.667.41 4.667-1.09 5.083s-9.75-4.75-11.83-4.583c1.67 2 7.67 8.5 12.33 8.25.34 3.75-1.5 10.417-11.41.417 6.66 5.75 5.75 13.833 11.25 12-.09 2.333-3.42 13.17-12.67-1.917 3.08 5.667.42 10.587 5.5 13.997-12.17 2.5-8.84-10.08-11.75-11.164 1.17 4.004-4.17 8.254 1.5 12.584-4.83.42-13.08 2.25-8.42-14.334-2.75 6.754-6 8.834-2 14.754-13.665-1.17-1.33-12.921-6-16.254 1.5 6-8.331 7.584-4.081 14.584-11.083-4.08-2.833-7.83-1.917-14.001-4.417 6.921-10.583 2.75-18.833 9.831-1.083-13.581 14.334-8.498 16.417-14.581-2.25 2-10.75 6.584-10.25-3.833C92 88.333 89.167 80.5 90.833 78s3.833-1.667 5.417-5.417c.417.083.667.75 1 1.75s.167 8.167 7.33 8.167c7.17 0 7.5-9.167 7.5-12.5s-.75-12.417-7.66-12.417c-6.921 0-6.088 7.083-7.921 8.083-1.667-.75-.75-3.167-2.583-4.667s-2.167.25-3-.583S89 56.083 89.75 55s5-2.917 5-2.917-4.333 2.25-5.25 2-4.083-3.75-4.083-3.75S91.5 39 91.5 38.25s-.75-1.333-.667-2.167 4.584-7.333 6.25-7.25z" stroke="#000" stroke-width=".5" fill="#ffc726"/>
          <path id="path9111" d="M95.625 37.25c4.25.75 4.995 4.875 7.625 5.125-2.25.375-3.625.625-5.75 1.25-1-1-.422-5.483.578-5.483" stroke="#000" stroke-width=".5" fill="#ffc726"/>
          <path id="path9115" d="M97.057 28.862l31.515 16.067c.25575.08517 13.43-15.146 17.846-17.54-1.2736-1.3678-5.7752-3.2496-8.3214-1.5391-2.5463-1.7956-7.9811-.85472-8.4906 1.0261 1.7831 1.7956 4.0746 4.6173.3393 5.472-2.9712.51304-.0846-2.1373-2.3771-4.1043-2.2926-1.967-4.9244 2.3087-5.9433-.34168-1.0189-2.6503 3.8209-3.6764 5.0946-2.3938 1.4438-.42787 1.2726-4.7035-.84977-5.9851.34032-1.1974 1.3592-10.346-7.3015-4.6173-.59402-.5982-5.2127-.5982-6.4007 3.9329 2.6318.76955 5.0855 4.3774 1.5366 5.2334-2.89.69705-1.3439-2.3131-3.4563-3.5239-2.4314-1.3936-2.5171 2.48-4.6395-.17136s2.2624-3.5912 3.4515-2.5652c1.4438-.94091 1.7831-5.5582-2.3771-6.6695.0846-1.7105.93434-6.3278-5.0946-7.6955.59199 7.5242-6.4836 24.047-4.5314 25.416z" stroke="#000" stroke-width=".5" fill="#ffc726"/>
          <path id="path9117" d="M112.5 39.333c4.17-2.5 17.08-7.583 8.25 6.25" stroke="#000" stroke-width=".5" fill="#ffc726"/>
          <path id="path9119" d="M115.5 41.25c2.25-1.5 4.5-.417 3.42 2.083" stroke="#000" stroke-width=".5" fill="#ffc726"/>
          <path id="path9121" d="M37 45.833V31.667s0-2 1.833-2 2.083 2.083 2.083 2.083v11.083c.001 0-2.249 3-3.916 3z" stroke="#000" stroke-width=".5" fill="#fff"/>
          <path id="path9123" d="M40.917 31.75s.75-2.25 2.417-2.25 2 1 2 2v10.333S43.167 45.167 41.167 46c0-2.667-.25-14.25-.25-14.25z" stroke="#000" stroke-width=".5" fill="#fff"/>
          <path id="path9125" d="M45.5 31.125s0-2.5 2-2.5 2.5 2.5 2.5 2.5V41s-.875 3.75-4.438 4.438c.001-4.188-.062-14.313-.062-14.313z" stroke="#000" stroke-width=".5" fill="#fff"/>
          <path id="path9127" d="M49.75 30.625s1-2.125 2.25-2.125 2.125 1 2.125 2.125v10.5s-1.25 2.875-4.375 3.25v-13.75z" stroke="#000" stroke-width=".5" fill="#fff"/>
          <path id="path9129" d="M56.875 39.5c-3.25 2.5-9.125 7.875-10.125 9.625" stroke="#000" stroke-width=".5" fill="#fff"/>
          <path id="path9131" d="M59.125 18.188h6.25c1.187 0 .313 2.625-.25 2.875v12.5s1.75 1 1.75 4-1.625 3.5-1.75 4.375 0 7.063 0 9.5c.438.875 1.141 1.707.641 3.582H59.25c-.438-1.125.125-3.082.5-3.582 0-2.438.125-7.813.125-9.625-.938-1.25-1.375-2.625-1.375-4.375s.875-3.578 1.375-4.078V21.267c-.812-.375-1.437-3.079-.75-3.079z" stroke="#000" stroke-width=".5" fill="#ffc726"/>
          <path id="path9133" d="M40.375 52.938c-1.113.742-.75 4.688-.063 5.063s14.5.563 15 0 .625-4.5-.063-5-14.124-.563-14.874-.063z" stroke="#000" stroke-width=".5" fill="#ffc726"/>
          <path id="path9135" d="M58.688 74.313c.766.278 2.5 4.75 2.75 5.188s4.375 3.313 4.5 3.813-3.063 4.438-3.5 4.563-4.25-.813-4.813-.5S51.938 97.5 51.5 97.813 42.625 94 42 93.438s-.375-7.563-.563-7.875-.75-1.813-.625-2.5S53.5 82 53.938 81.688s-.125-2.875.313-3.438 3.749-4.187 4.437-3.937z" stroke="#000" stroke-width=".5" fill="#ffc726"/>
          <path id="path9137" d="M67.375 218.62c-4.241-.27-3.625-7.5 0-7.5s5.5 2.63 3.625 7.38-7.5 13.12-3.25 16.62c-2.5.76-6.625 1.76-9.25 12.63 4.125 0 3 8-1.875 6.75s-2.125-6.25-1.75-7.5 7.25-14 3.625-16.75c1.125-.5 5.25-.87 8.875-11.63z" stroke="#000" stroke-width=".5" fill="#ffc726"/>
          <path id="path9139" d="M80.88 21.219c-1.958 4.708-9.458 2.375-5.5-3.125-5.958-1.167-3.875-8.4997 1.875-6.375-2.167-5.9577 8.417-5.8747 6.25 0 5.417-3.7077 8.083 4.708 2.625 6 4.958 3.792-3.292 8.125-5.25 3.5z" stroke="#000" stroke-width=".5" fill="#fff"/>
          <circle id="circle9141" stroke-width=".5" transform="translate(.50489 .094323)" stroke="#000" cy="15.542" cx="80.042" r="3.042" fill="none"/>
          <path id="path9143" d="M23.084 13.844c-3.667-1.75-6.25-5.8327-5.667-6.5827s6.667 2.667 6.667 5.6667c0 3 3.167 3.75 3.083 0-.084-3.7497 3.917-7.3327 5-6.6667s-.75 6.3327-4.25 7.4997c-1.083.667-1.083 3.583.667 2.417s9 2.333 8.583 3.667-7.5.083-9.083-2.667c-2-1.917-3.083-.417-1.667 1.333s1.833 8.333.083 8.5-2.834-5.167-1.417-8.25 0-3.25-2.083-1.083c-2.25 2.167-8 4.417-8.583 3.25s5.083-4.917 8-4.417.667-2.667.667-2.667z" stroke="#000" stroke-width=".5" fill="#fff"/>
          <path id="path9145" d="M25.792 21.219c-1.958 4.708-9.458 2.375-5.5-3.125-5.958-1.167-3.875-8.4997 1.875-6.375-2.167-5.9577 8.417-5.8747 6.25 0 5.417-3.7077 8.083 4.708 2.625 6 4.958 3.792-3.292 8.125-5.25 3.5z" stroke="#000" stroke-width=".5" fill="#fff"/>
          <circle id="circle9147" stroke-width=".5" transform="translate(.41739 1.4693)" stroke="#000" cy="14.167" cx="25.042" r="3.042" fill="none"/>
          <path id="path9149" d="M22.667 85.5C19 83.75 16.417 79.667 17 78.917s6.667 2.667 6.667 5.667 3.167 3.75 3.083 0 3.917-7.333 5-6.667-.75 6.333-4.25 7.5c-1.083.667-1.083 3.583.667 2.417s9 2.333 8.583 3.667-7.5.083-9.083-2.667c-2-1.917-3.083-.417-1.667 1.333s1.833 8.333.083 8.5-2.834-5.167-1.417-8.25 0-3.25-2.083-1.083c-2.25 2.167-8 4.417-8.583 3.25s5.083-4.917 8-4.417.667-2.667.667-2.667z" stroke="#000" stroke-width=".5" fill="#fff"/>
          <path id="path9151" d="M25.375 92.875c-1.958 4.708-9.458 2.375-5.5-3.125-5.958-1.167-3.875-8.5 1.875-6.375-2.167-5.958 8.417-5.875 6.25 0 5.417-3.708 8.083 4.708 2.625 6 4.958 3.792-3.292 8.125-5.25 3.5z" stroke="#000" stroke-width=".5" fill="#fff"/>
          <circle id="circle9153" stroke-width=".5" stroke="#000" cy="87.292" cx="25.042" r="3.042" fill="none"/>
          <path id="path9155" d="M23.084 159.16c-3.667-1.75-6.25-5.83-5.667-6.58s6.667 2.67 6.667 5.67 3.167 3.75 3.083 0 3.917-7.34 5-6.67-.75 6.33-4.25 7.5c-1.083.67-1.083 3.58.667 2.42 1.75-1.17 9 2.33 8.583 3.66-.417 1.34-7.5.09-9.083-2.66-2-1.92-3.083-.42-1.667 1.33s1.833 8.33.083 8.5-2.834-5.17-1.417-8.25 0-3.25-2.083-1.08c-2.25 2.16-8 4.41-8.583 3.25-.583-1.17 5.083-4.92 8-4.42s.667-2.67.667-2.67z" stroke="#000" stroke-width=".5" fill="#fff"/>
          <path id="path9157" d="M25.792 166.54c-1.958 4.71-9.458 2.37-5.5-3.13-5.958-1.16-3.875-8.5 1.875-6.37-2.167-5.96 8.417-5.88 6.25 0 5.417-3.71 8.083 4.7 2.625 6 4.958 3.79-3.292 8.12-5.25 3.5z" stroke="#000" stroke-width=".5" fill="#fff"/>
          <circle id="circle9159" stroke-width=".5" transform="translate(.54239 .036416)" stroke="#000" cy="160.92" cx="24.917" r="3.042" fill="none"/>
          <path id="path9161" d="M78.172 159.16c-3.667-1.75-6.25-5.83-5.667-6.58s6.667 2.67 6.667 5.67 3.167 3.75 3.083 0 3.917-7.34 5-6.67-.75 6.33-4.25 7.5c-1.083.67-1.083 3.58.667 2.42 1.75-1.17 9 2.33 8.583 3.66-.417 1.34-7.5.09-9.083-2.66-2-1.92-3.083-.42-1.667 1.33s1.833 8.33.083 8.5-2.834-5.17-1.417-8.25 0-3.25-2.083-1.08c-2.25 2.16-8 4.41-8.583 3.25-.583-1.17 5.083-4.92 8-4.42s.667-2.67.667-2.67z" stroke="#000" stroke-width=".5" fill="#fff"/>
          <path id="path9163" d="M80.88 166.54c-1.958 4.71-9.458 2.37-5.5-3.13-5.958-1.16-3.875-8.5 1.875-6.37-2.167-5.96 8.417-5.88 6.25 0 5.417-3.71 8.083 4.7 2.625 6 4.958 3.79-3.292 8.12-5.25 3.5z" stroke="#000" stroke-width=".5" fill="#fff"/>
          <circle id="circle9165" stroke-width=".5" transform="translate(.50489 .036416)" stroke="#000" cy="160.92" cx="80.042" r="3.042" fill="none"/>
          <path id="path9167" d="M109.79 217c-3.67-1.75-6.25-5.83-5.67-6.58.59-.75 6.67 2.66 6.67 5.66s3.17 3.75 3.09 0c-.09-3.75 3.91-7.33 5-6.66 1.08.66-.76 6.33-4.26 7.5-1.08.66-1.08 3.58.67 2.41 1.75-1.16 9 2.34 8.59 3.67-.42 1.33-7.5.08-9.09-2.67-2-1.91-3.08-.41-1.67 1.34 1.42 1.75 1.84 8.33.09 8.5-1.75.16-2.84-5.17-1.42-8.25 1.42-3.09 0-3.25-2.08-1.09-2.25 2.17-8 4.42-8.59 3.25-.58-1.16 5.09-4.91 8-4.41 2.92.5.67-2.67.67-2.67z" stroke="#000" stroke-width=".5" fill="#fff"/>
          <path id="path9169" d="M112.5 224.38c-1.96 4.7-9.46 2.37-5.5-3.13-5.96-1.17-3.88-8.5 1.88-6.37-2.17-5.96 8.41-5.88 6.24 0 5.42-3.71 8.09 4.7 2.63 6 4.96 3.79-3.29 8.12-5.25 3.5z" stroke="#000" stroke-width=".5" fill="#fff"/>
          <circle id="circle9171" stroke-width=".5" stroke="#000" cy="218.79" cx="112.17" r="3.042" fill="none"/>
          <path id="path9173" d="M197.52 159.16c-3.66-1.75-6.25-5.83-5.66-6.58.58-.75 6.66 2.67 6.66 5.67s3.17 3.75 3.09 0c-.09-3.75 3.91-7.34 5-6.67 1.08.67-.75 6.33-4.25 7.5-1.09.67-1.09 3.58.66 2.42 1.75-1.17 9 2.33 8.59 3.66-.42 1.34-7.5.09-9.09-2.66-2-1.92-3.08-.42-1.66 1.33 1.41 1.75 1.83 8.33.08 8.5s-2.83-5.17-1.42-8.25c1.42-3.08 0-3.25-2.08-1.08-2.25 2.16-8 4.41-8.58 3.25-.59-1.17 5.08-4.92 8-4.42 2.91.5.66-2.67.66-2.67z" stroke="#000" stroke-width=".5" fill="#fff"/>
          <path id="path9175" d="M200.23 166.54c-1.96 4.71-9.46 2.37-5.5-3.13-5.96-1.16-3.87-8.5 1.88-6.37-2.17-5.96 8.41-5.88 6.25 0 5.41-3.71 8.08 4.7 2.62 6 4.96 3.79-3.29 8.12-5.25 3.5z" stroke="#000" stroke-width=".5" fill="#fff"/>
          <circle id="circle9177" stroke-width=".5" transform="translate(-.51798 -.088584)" stroke="#000" cy="161.04" cx="200.42" r="3.042" fill="none"/>
          <path id="path9179" d="M176.42 69.75c-3.67-1.75-6.25-5.833-5.67-6.583s6.67 2.667 6.67 5.667 3.16 3.75 3.08 0 3.92-7.333 5-6.667-.75 6.333-4.25 7.5c-1.08.667-1.08 3.583.67 2.417s9 2.333 8.58 3.667-7.5.083-9.08-2.667c-2-1.917-3.09-.417-1.67 1.333s1.83 8.333.08 8.5-2.83-5.167-1.41-8.25c1.41-3.083 0-3.25-2.09-1.083-2.25 2.167-8 4.417-8.58 3.25s5.08-4.917 8-4.417.67-2.667.67-2.667z" stroke="#000" stroke-width=".5" fill="#fff"/>
          <path id="path9181" d="M179.12 77.125c-1.95 4.708-9.45 2.375-5.5-3.125-5.95-1.167-3.87-8.5 1.88-6.375-2.17-5.958 8.42-5.875 6.25 0 5.42-3.708 8.08 4.708 2.63 6 4.95 3.792-3.3 8.125-5.26 3.5z" stroke="#000" stroke-width=".5" fill="#fff"/>
          <circle id="circle9183" stroke-width=".5" stroke="#000" cy="71.542" cx="178.79" r="3.042" fill="none"/>
          <path id="path9185" d="M197.52 13.844c-3.66-1.75-6.25-5.8327-5.66-6.5827.58-.75 6.66 2.667 6.66 5.6667 0 3 3.17 3.75 3.09 0-.09-3.7497 3.91-7.3327 5-6.6667 1.08.666-.75 6.3327-4.25 7.4997-1.09.667-1.09 3.583.66 2.417s9 2.333 8.59 3.667c-.42 1.334-7.5.083-9.09-2.667-2-1.917-3.08-.417-1.66 1.333 1.41 1.75 1.83 8.333.08 8.5s-2.83-5.167-1.42-8.25c1.42-3.083 0-3.25-2.08-1.083-2.25 2.167-8 4.417-8.58 3.25-.59-1.167 5.08-4.917 8-4.417 2.91.5.66-2.667.66-2.667z" stroke="#000" stroke-width=".5" fill="#fff"/>
          <path id="path9187" d="M200.23 21.219c-1.96 4.708-9.46 2.375-5.5-3.125-5.96-1.167-3.87-8.4997 1.88-6.375-2.17-5.9577 8.41-5.8747 6.25 0 5.41-3.7077 8.08 4.708 2.62 6 4.96 3.792-3.29 8.125-5.25 3.5z" stroke="#000" stroke-width=".5" fill="#fff"/>
          <circle id="circle9189" stroke-width=".5" transform="translate(.10702 -1.5307)" stroke="#000" cy="17.167" cx="199.79" r="3.042" fill="none"/>
          <path id="path9101" d="M159.95 106.77c.426-7.579 5.241-9.828 17.466-16.138 17.317-8.938 28.394-25.443 11.067-36.605 1 2 2 5-4.333 5.333 0-2.333 1.584-6.167-4.333-7 1.833 2.167 5.416 8.75-3.667 7 .833-3.167.084-4.584-3-5.667 1.083 1.75 2.833 6.667-4 6.333-.667-1.833 1.5-1.583-2-4-8.75 7.333-10.301 22.179 12.698 33.179-1.501 1-5.9203 3.2019-5.9203 3.2019s-17.778-6.714-18.778-23.047 14.667-24.334 24-24.667 24.333 9 24.333 23c0 17.167-20.833 22.584-25.666 35-.501 1.584.584 3.5 1 4-.917.417-1.4281.9716-2 1.667-.8664.98482 1.834 11.667-5 12.667.749-5.75 2.834-7.417-1-13.333-.334 2.75 3.249 11.75-4 13 1.249-5.083.249-8.5-2-11.333-.751 3.917 2.666 12.583-3.334 10.333 1.833-8.834-1.711-9.768-1.533-12.924z" stroke="#000" stroke-width=".5" fill="#ffc726"/>
        </g>
      </g>
    </g>
  </g>
</svg>
