<svg clip-rule="evenodd" fill-rule="evenodd" image-rendering="optimizeQuality" shape-rendering="geometricPrecision" text-rendering="geometricPrecision" viewBox="0 0 221000 360000" xmlns="http://www.w3.org/2000/svg">
  <g stroke-width="1.000001">
    <path d="M110830.69010683 11307.02209987S7516.96036908 93512.90998934 7516.96036908 178905.5608583c0 85404.04509192 103313.79244708 169787.64678947 103313.79244708 169787.64678947s102652.4313106-78238.10385831 102652.4313106-169787.64678947c0-91538.13160575-102652.49401993-167598.53875844-102652.49401993-167598.53875844z" fill="#92dbfc"/>
    <path d="M18947.61769951 231029.27949537c26886.51276832 64576.46644695 91883.06670647 117663.70011973 91883.06670647 117663.70011973s66152.28125574-50418.96057043 92247.49914832-117668.69973625" fill="#008ce7"/>
    <path d="M203438.14653092 212392.07161239c-15928.18213864 11395.9389038-105551.27287198 5923.14887339-105551.27287198 5923.14887339l-5011.05154114 12758.43987001 106714.25166887 330.64168576c444.66618378-1750.13942043 1510.7191543-3830.9433299 1881.27430745-5598.20800463z" fill="#9c8431"/>
    <path d="M43073.15252595 265198.77948174c4537.93242245 148.2668488 9058.70529088 1105.94139748 13117.70943 3283.67059776 7257.18015323 3808.14006186 11464.4063536 3779.630276 19285.95910763 3899.3474332 8186.4241612 125.3438636 14611.28613283 6151.19865624 23459.0087212 6402.03460468 16298.73729178 456.0653608 23151.16290165 8551.225515 10478.16526222 8545.524698-5985.89663634-6.03716522-18818.5123332-4024.78250988-25021.04121293-3181.0615924-9429.20913639 957.73725768-14879.20891025 1676.05160257-21857.0474865 7222.9465533-6647.18936265-7981.143814-13294.37872531-16760.41341103-19462.75382162-26172.46229454zm32244.04477935 40635.44645054c4041.90729444-2764.90765148 6823.92136732-4925.51729827 10746.1051422-5045.23445548 7622.04015872-233.73349741 10221.63278013-4948.30916468 19029.44942892-4942.60834767 10010.69568441 1835.66877804 23578.72083906-1202.87238911 31520.00851434-2964.43054602 14098.20976693-3249.4656957 7411.10876385-13111.89052463-1123.06715647-16691.9979061-6898.03239795-2953.028912-19827.56251948-148.2725496-27848.6620739-3078.44688621-6071.409364-2371.53987616-1066.05867137-6151.1815538 2200.52752486-6954.9967522 3295.09043878-604.28660306 6829.62221583 484.57514667 10928.53229452 1151.5593352 7319.8951877 644.19802295 16515.36953517-39.96842806 22945.9323553-1037.542995 13288.68357766-2035.18597175 12741.39641985-5934.55050741 19154.86809614-6025.7749812 4680.39662671-216.63104639 8243.43264631-1607.6189952 11435.89641021-3887.96290164 3751.16402043-2502.65296658 7656.25095063-7639.10049422 12194.13206544-7433.85968023l2668.00280353 114.03344266c-28025.39407856 54214.80397-78358.21977844 89805.01596506-78358.21977844 89805.01596506s-16264.53220072-12450.58434984-35493.50562665-33007.73618872z" fill="#ffde52"/>
    <path d="M139742.52622275 266122.30613654c1738.7644964 6726.97547343 3580.13856513 9013.00309444 10649.19641838 10740.33924684 6977.84427708 1727.35325485 17638.43099078-5056.62468787 11031.15326854-11641.07973606-6288.05300907-6122.67176792-12912.4389777-7690.39644567-18544.87730557-13203.09789597-8739.40646668-8665.23615439-20728.3022849-26577.22600307-26423.4499464-43514.36474142-6231.03312228-18516.2593493-5147.87190538-70644.5682842-4868.53032839-97050.76977698 5.7350536-307.84411854 758.21285183-490.27026286 843.72557948-615.68823708 404.76024421-581.48333502 792.4179429 188.12696133 159.62945913-3682.72778846-165.33030764-991.94215974-952.04740202-2018.08922154-946.3465535-3021.4330153 5.7350536-1790.06224196-6179.71978485 1955.38023443-7810.16815955 5147.83776003-370.55515315 729.70457728 1185.78219092 2810.50278593 1185.78219092 3220.96161065 210.93139487 25334.4478949-2514.07989375 75353.44313447 4212.9270489 97997.11680228 4161.6194123 14018.3147284 11755.15532846 24844.17763203 18630.38433237 34860.5131186 4121.71917358 6419.11995326 10084.80671504 13345.61832122 11880.57399569 20762.39265287z" fill="#8c4200"/>
    <g fill-rule="nonzero">
      <g fill="#fff">
        <path d="M62655.62416629 191948.91331044c-79.81187914-12.0686296-393.3585472-51.28454982-695.50351822-91.25297788-2149.21988827-262.24328327-4446.6618378-1168.66178623-6128.41214825-2422.84722925-2394.3563742-1784.35401388-3979.19225998-4640.47473753-4509.37117141-8146.47719868-148.27906975-980.54052572-142.57822124-3506.00246115 5.7008485-4469.44053584 421.86278975-2707.87667811 1413.81043049-5096.53610775 2839.02255799-6840.97471118 421.86278974-513.07923172 1231.38327816-1299.79767991 1727.35709853-1670.35078556 1168.67394455-889.32175275 2679.3987997-1584.8328296 4269.93553399-1972.47698465 1140.169702-285.04655131 1841.37406873-370.55310565 3209.57771113-410.46452553 1904.08340234-45.54952791 3243.78280219 125.49778565 4748.80680883 627.09557191 1926.88679638 632.79638893 3420.5319094 1658.9320491 4475.18888374 3061.34443519 712.60606375 946.32992284 1636.14352237 3049.92569872 1767.2630381 4019.08169287 68.40448127 530.1645803-142.5269136 923.5266548-609.99079057 1123.04954933-148.2277621 62.74319202-889.33236756 285.04655132-1653.2460679 490.27026286-1533.55105258 410.46452554-1750.18329596 421.86615956-2092.23420656 136.8082066-228.0339404-193.82207751-307.84581954-342.0490206-507.3755174-963.43807468-91.21357615-262.24328328-313.54666804-798.10868058-501.67466887-1180.06912107-290.74327401-587.17845121-410.46109272-763.91518016-803.81963991-1157.27155385-393.3585472-399.04578906-564.3840025-518.76294627-1151.57139902-803.8094976-1299.79346028-632.79638892-2759.21067884-849.42173448-4440.9609893-644.19802294-1231.38327815 148.2668488-2565.3818295 649.89883996-3403.40656046 1282.68952807-1864.17746277 1402.39528364-2901.7318916 4172.9923505-2793.4157699 7445.26701506 142.52121275 4463.73971883 2035.20291807 6920.79755096 5928.8824504 7701.81518214 746.8111548 148.2668488 2377.25382867 148.2668488 3175.37262007 0 1162.97309604-216.63104638 2867.52680053-883.63233736 3830.97019872-1499.32057444l347.7517591-216.63104638v-1419.49773468l5.757857-1425.21565413-3072.75734689-22.77476396-3072.75734689-22.78046477-193.82884934-136.80250579c-108.31612169-79.79433569-256.53818295-228.0326804-330.64921358-336.34820359-136.82036424-188.13266214-136.82036424-216.64244801-136.82036424-1886.98183194 5.70084851-1670.33368311 5.70084851-1698.84346898 142.52121275-1886.9647295 74.11103063-108.29842073 228.0339404-256.53676544 336.3500621-330.6587882l193.82884933-142.5375277 5261.88317473 12.0686296 5267.5783224 12.06862961 188.12800082 136.8025058c108.3161217 74.05931377 256.53818295 239.43431441 336.3500621 364.85228863l136.82606508 222.34896584 11.4587055 4361.12501265c11.46440636 4646.16016233 0 4834.29282448-279.34157698 5170.63931783-79.8061783 96.98229897-444.66618378 393.35637369-803.81963991 655.59965696-2485.56995036 1829.95085858-5130.763659 2918.80690749-7850.06839827 3232.35754386-701.20436673 79.79433569-2742.10813331 108.29842074-3175.37262007 45.55522872z"/>
        <path d="M90185.02162108 192182.6639103c-2753.50983033-210.941631-4834.32523733-1031.85928044-6350.750941-2496.96925201-1493.62230961-1442.30670353-2234.73261591-3249.46398546-2565.3818295-6259.49536674-96.90872381-838.02010047-102.61527317-1721.65243783-96.90872381-8528.4336486 11.4587055-7331.24497403 17.10254553-7604.88989133 131.11951573-7827.2160539 62.71503446-125.49778566 210.93139487-302.15470317 324.94836507-393.36207451l216.63224338-159.6285771 1807.16897767-17.04544286c1744.45964406-12.0629288 1818.57067469-12.0629288 2075.10885764 114.03344265 159.62375828 79.78863488 319.24751656 222.34326503 404.7602442 353.45065462l136.8260651 222.34326503 22.80339404 7867.1274738c17.10824637 6932.2048858 28.5099434 7941.23809493 114.0169702 8488.5222287 228.0339404 1425.2042525 456.0678808 1955.38593525 1123.06715647 2622.3758246 838.02473097 832.31358265 1710.254553 1140.16910282 3363.5006209 1197.16587129 1522.13225301 45.55522872 2565.38753034-125.49208484 3460.42074641-564.37518318 1031.85358031-501.67189688 1499.32315813-1294.07976045 1852.77576575-3106.93956963 131.11951573-684.10944283 131.11951573-792.42496602 182.42715232-8556.94343446 51.31333744-8796.35494561 11.46440636-8066.65036833 484.57212335-8425.80183996l222.3330919-165.3293941h1881.28570914c2097.91225168 6.03146439 2035.20291807-6.0314644 2371.55298016 438.95720894l171.0254553 222.3318634 5.72935276 7057.6171592c5.7350536 7080.42612804-28.50424255 8562.63855064-216.63224338 9896.6354318-404.76024421 2838.99546935-1345.40024836 4634.75111725-3158.27007454 6037.16350335-609.99079057 473.162111-860.82812501 632.7906881-1459.42291941 929.2274718-917.83661011 461.760477-1978.19443297 775.31681419-3181.07346858 946.32992285-627.0933361 91.2586787-2685.09964821 153.92776009-3323.59468133 108.29842074z"/>
        <path d="M114824.10598384 191800.70346982c-79.80617829-17.04544286-256.53818295-148.2668488-399.0593957-285.04655132-290.743274-290.74736833-370.55515315-558.67436616-285.0424255-923.5266548 108.31042084-450.37594543 9024.44889218-23458.88308918 9166.97010493-23641.29783186 279.341577-376.25962348 359.15345613-387.6612575 2445.6640108-381.9604405 2086.51055465 0 2166.3224338 17.04544287 2451.3648593 387.6612575 74.10532977 108.29842075 2286.04595335 5461.38269559 4914.13711646 11909.00103308 4173.02110932 10244.37785836 4771.61020287 11755.0886652 4771.61020287 12028.73358249 0 347.7441368-136.82036424 587.17845121-461.76872931 820.91194862-193.82884934 136.8082066-199.52969785 136.8082066-2286.04025251 131.0731847H133049.730072l-228.0339404-176.71392568c-290.74327401-222.3318634-285.0424255-199.53999698-1636.14922322-3734.03514155-615.69163908-1613.3352044-1145.8705505-2981.53698762-1180.07564157-3038.53375609-51.31333744-102.56909964-313.54666805-108.29842073-4190.12365485-114.03344265-3882.28353616-6.0314644-4138.8217191 0-4178.72195783 96.9879998-22.80909489 57.01387091-547.2871578 1493.60265498-1168.6796454 3192.44441372-615.69163908 1693.14265197-1174.37479306 3169.65995837-1242.78497518 3277.97548156-68.40448127 108.29842074-210.93139487 256.53676545-313.54666805 330.65878822-188.12800083 136.80250579-222.33309189 136.80250579-2069.40800913 142.5375277-1031.8535803 6.0314644-1938.2884934-6.0314644-2018.10037254-22.77476396zm13357.09375978-11777.89763405c-91.20787531-256.53676545-2303.14279804-6173.98482183-2360.15128314-6316.50524708-22.80339404-62.74889283-51.31333744-34.23910697-96.90872382 91.25297788-102.61527318 307.84981935-2365.8578325 6345.01503294-2394.36207505 6396.31668522-17.10254553 22.77476395 1088.86206541 45.5495279 2451.3648593 51.28454982h2485.5756512z"/>
        <path d="M147073.82310746 191777.90020178c-262.23903146-79.7943357-547.28145696-381.9604405-621.3924876-661.3061748-39.91164041-159.61147464-51.31333743-4064.67511707-22.80339403-12091.43116796l39.91164042-11852.00426461 159.62375828-216.62534556c319.24751656-416.16534255 290.743274-410.46452554 3146.86837752-404.76370853 2377.25382867 6.0314644 2576.77782567 12.0629288 2776.31892522 114.02774183 114.0283719 62.74889283 267.92847827 199.52289454 336.34436124 302.13760072 68.33037024 96.98799979 1396.7021841 4001.97354102 2947.34438052 8665.25325683 1556.33164323 4663.27971581 2839.01685713 8482.8214117 2856.11940266 8482.8214117 17.04553704 0 1339.7051007-3791.04901247 2941.643532-8420.1181254 1818.57637554-5267.54921643 2970.13637287-8511.31409512 3067.06790008-8659.53533738 319.24181571-461.76617781 290.73187232-456.0653608 2907.4327401-450.36454379 2229.02036572 0 2331.6356389 6.03716521 2542.57843546 125.49778566 119.7634255 68.32429186 285.0310238 228.02697958 370.55515315 347.7441368l148.2733689 228.0326804-17.04553705 11920.41976954c-22.7748898 11236.30861646-28.5099434 11931.80829168-131.07390894 12114.24013682-57.0198868 102.56909964-205.24194806 267.92699783-330.66061528 359.15147163l-222.33309189 171.01310866-1818.57067469-6.0314644c-1801.46812916 0-1818.57067469 0-2012.39382318-142.5375277-108.29901914-74.05931377-256.5438838-222.34326502-330.66061527-330.6587882l-142.5383153-193.82207753-17.04553704-6840.99010339-17.04553705-6835.27389417-319.24181571 906.42420377c-176.73200466 501.67189688-1259.89322156 3602.91635032-2405.76947292 6892.28776509-2012.39952403 5763.5356885-2097.90655083 5997.2691859-2331.64133974 6236.70350033-142.5383153 148.27254961-319.2532174 262.23758246-438.97103612 285.04655132-114.03407274 22.77476395-872.23552288 39.82020681-1693.15200747 39.82020681-1430.912976-6.0314644-1505.01830579-12.0686296-1761.55648874-142.5375277-148.2733689-74.05931378-324.95976677-222.33186339-393.36424804-324.94086875-68.4785923-102.56909965-1180.06994072-3312.18608445-2468.47310568-7131.72607009-1288.3860624-3813.8522805-2365.8464308-6937.90000198-2388.64982484-6937.90000198-28.5099434 0-51.30193574 3089.85422105-62.70363276 6875.18531406-11.46440635 7701.8134719 22.80339404 7137.43828872-456.0678808 7456.67834047l-245.13648593 159.6285771-1698.85285598 6.03146439c-934.94485649 6.03716521-1784.37128448-17.04544286-1886.98655766-51.28454982z"/>
      </g>
      <g fill="#bd0728">
        <path d="M62496.000408 190894.2678644c-3089.85989241-353.45065461-5871.8739653-1721.65243783-7547.92342723-3716.93098027-1413.81043048-1676.03450012-2325.94619208-3887.95720082-2628.09116311-6373.52481881-96.91442467-820.91194862-91.21357616-2759.19543284 11.4587055-3545.89677859 353.45260762-2707.89378056 1425.2121275-5233.355716 2958.7403767-6972.11060486 2616.68946608-2970.1199614 8049.59809611-4167.30863594 12462.05484285-2742.09298181 2782.01407288 895.02256975 4435.25443993 2593.86603873 5375.89444408 5506.98353084 131.11951573 404.76370853 228.0339404 746.81272913 216.63224338 763.91518016-34.2107919 22.78046477-2405.75807122 667.0069918-2582.48437503 701.20049223-102.60957233 17.04544286-153.91720892-79.79433569-307.84011869-535.87109812-438.96533527-1288.3960459-1105.96461094-2360.14394296-1847.07491724-2953.028912-1619.04097684-1288.37894344-3899.38038084-1761.54675527-6573.07833203-1356.8001492-1710.254553 262.24328328-3409.10740898 1140.17480364-4383.95250419 2268.92516998-1465.11806707 1693.15975442-2189.12582784 3768.24004361-2280.339404 6510.34442706-85.51272765 2713.58319594 404.76024421 4782.97977057 1539.2290977 6493.23057439 1841.37406873 2781.99699063 6128.41214825 4024.78079963 9942.27980144 2884.61169681 1219.98158114-364.8505784 2548.27928397-997.62986487 3483.21843961-1664.63685667l433.25308507-307.83841773 5.7350536-2194.81454885v-2200.52106667l-3443.33530344-6.0314644-3449.01334855-6.0314644 5.757857-1345.39851517v-1345.39281436l4925.53311264 12.06292879 4925.53311264 6.03716521-11.46440636 4287.02009234-5.7350536 4287.0086907-541.58060845 399.06118127c-2217.63007039 1630.43936568-4440.97809183 2616.68640923-6818.2319205 3038.53546633-877.93067054 153.9277601-2975.84292222 210.93022937-3865.17528978 108.29842074z"/>
        <path d="M89785.96222538 191105.19239296c-2234.73261592-245.13513143-3973.49711232-963.43807469-5204.88039048-2160.60964679-1123.06715647-1088.8560489-1767.2630381-2439.94797003-2103.6131002-4406.71843685-239.43563741-1413.81402011-256.53818294-2143.5185974-245.13648592-9668.60275141l11.46440635-7371.16209475 1510.72485515 6.03716522h1505.02400664l11.46440636 7861.42665679c11.46440635 8363.10425448 5.7350536 8226.28464624 324.94836507 9486.17090627 404.7602442 1607.63609764 1601.9384313 2799.10115191 3312.19868515 3295.07622235 1368.2036424 399.0571907 3215.27855964 404.75800771 4771.61020287 17.03974204 1847.07491724-461.76047699 2839.02255798-1453.7066273 3340.69722686-3334.98194142 387.65769868-1442.30670353 381.96255102-1305.48709529 421.86278974-9634.3807469l39.91164042-7667.60457926 1510.730556 6.0314644h1505.0183058l-17.10254554 7108.91881146c-5.72935275 4093.18661318-39.91164042 7507.97600217-79.80617829 8055.26583677-256.53818295 3602.9106495-1191.47733859 5552.5940575-3374.90231792 7029.10566308-860.828125 587.18415203-2029.5077704 1031.842178-3317.89953367 1271.27649241-558.68315398 102.56909965-3283.68874176 176.73102813-3922.18377488 108.29842074z"/>
        <path d="M115291.57556166 190455.31065546c74.10532978-188.13836297 2086.51055466-5404.38421687 4475.16608035-11595.47719055l4349.75311398-11253.41847856 1630.44267386-12.0686296 1636.14352237-17.03974205 4686.10317607 11515.65606102c2576.78352652 6333.61339892 4703.20002075 11566.96740468 4726.00341479 11629.6820926 39.91164042 108.30412156-62.71503446 114.03344265-1664.64776492 114.03344265l-1710.254553-6.0314644-296.44412252-769.61599716c-165.3246068-421.85475792-763.91370034-2000.9810697-1339.69939985-3500.2999339l-1043.26097818-2725.0019324-4914.13141562-22.77476396-4914.13711647-28.50978587-1276.99006624 3511.70327816-1276.99006624 3511.70726873-1601.9384313-6.03716521h-1596.2375828zm14445.9558252-9263.83733264c-17.10254554-62.74889283-689.80266972-1858.46064445-1487.92146112-3990.57760782-798.1187914-2132.09986092-1698.85285598-4606.26014408-1995.2969785-5506.99493248-296.44412252-895.02256975-552.98230547-1641.82959806-564.38400249-1658.9377499-17.10254553-17.03974205-131.11951573 376.25962347-250.83733444 872.23070334-393.35854719 1647.53041507-769.61454885 2776.29788387-2172.0232823 6481.840342-758.21285184 2023.78433774-1402.40873347 3728.33432454-1425.2121275 3791.03191002-45.61248894 108.29842074 171.0254553 114.03344265 3939.2863204 119.76276375 3762.5600166 6.0371652 3984.8931085 0 3956.38886594-108.29842074z"/>
        <path d="M147478.58335167 179173.38410128l22.80909489-11623.9658834 2280.339404 22.77476396 2274.63855549 22.77476396 3078.45249455 9263.83904288c1693.15200747 5090.82958993 3175.37832092 9577.37827762 3289.39529112 9970.74035212 119.7634255 387.65555668 228.0339404 695.4939744 245.13648593 684.09234039 12.0686963-17.04544286 393.36424804-1117.36583478 843.72557948-2451.35701512 456.0792825-1328.29036333 1995.30267935-5797.73089917 3426.21565536-9930.82893224l2605.29917076-7513.68252 2040.89806573-12.06292879 2040.90376658-12.0686296-22.7748898 11618.27076719-22.7748898 11623.9812756-1442.31467302-6.0314644h-1442.31467303l17.04553704-9765.50922952c12.06299545-5370.18102505-6.03719857-9731.3060377-39.97434975-9697.09543483-28.50424255 34.23910697-1459.41721856 4093.18091237-3175.37832092 9018.70391146-1715.94399981 4925.50019582-3238.07625283 9286.62349823-3380.60316643 9691.38720675l-262.23903146 735.4110951h-2724.99988693l-3317.89953367-9839.61985064c-1824.26582235-5410.06964167-3340.691526-9879.52727996-3369.19576856-9936.52974925-28.5099434-51.28454982-62.70363276 4372.53234749-74.10532978 9833.92074389l-22.80909489 9925.12070416h-1442.31467303l-1442.31467303-6.0314644z"/>
      </g>
    </g>
    <path d="M46619.08029917 103968.154798c438.96533527 604.29230388 376.25600166 3209.56567745 376.25600166 3209.56567745 359.15345613 216.63104638 6185.47764184-4959.71649952 6185.47764184-4725.9830021 5.7008485 1088.86174972 136.82036424 3334.98365166 136.82036424 3334.98365166s6031.49772358-5735.02761288 6282.33505802-5130.74100982c279.34157699 678.3972242-22.80339404 4001.97924184-22.80339404 4001.97924184s4013.39735104-4423.83970058 4748.80680883-5221.95408198c530.17891143-570.081701 444.66618378 718.30294326 495.97382037 2799.10115191 11.4587055 370.55310565 6578.762078-4845.69217817 6977.8214737-4936.90525033 849.43212883-182.42614432 1111.67116029 2707.88579942 1066.06437221 3431.8895597-34.2107919 535.87679893 6060.00196613-3477.49609578 5792.06208616-2947.32239418l450.36703229 3084.14200241c1698.85855683-233.7334974 5746.46099893-1744.45000506 8180.7233127-1351.09363137 781.01624587 125.41797422 741.1103063 518.77434791 45.61248893 803.81519841-11732.35193443 4748.78627015-20756.78942491 11909.01243471-26012.97175113 21885.45360384-1790.06643214 3397.68710899-2337.3478891 6362.11195419-1864.17746277 7108.9189825 0 0 2109.3139487-4537.85051099 4486.56777737-5250.45263724 319.24751656-91.21307216 530.17891143 2907.41684613 855.1272765 2736.39233583 0 0 1801.46812916-4549.25784582 3101.26158944-6225.29804676 347.7517591-450.3645438 929.23830713 2388.648028 1299.79346028 1966.78756926 0 0 934.93915564-3044.24198415 2764.90012565-5164.94591187 262.23903146-302.14330153 735.40945779 2878.91259005 1026.1527318 2610.97419058 1898.38825468-1750.15082207 3682.7538383-6139.77991977 4395.35990206-6464.72648934 495.97382037-387.65555668 581.48654802 3648.5228864 1054.65697435 3300.77304879 0 0 2707.9087431-5438.58512836 4326.94971994-6424.82647109 1037.55442882-638.49150512 997.64848925 2970.12566221 997.64848925 2970.12566221 2063.70716062-2035.19167257 4338.3457161-5410.07534249 5415.8060845-6875.18531406 495.97952122-672.69640718 222.33309189 4446.6372678 752.51200332 4646.16586315 678.40097269 262.23758246 5125.06851134-3922.16210288 5626.74318022-4007.67435803 330.64921358-57.01387092 718.30691226 1191.47075509-148.22776211 2194.81454885-68.41588297 79.80573732-5495.61796364 6339.31421594-5495.61796364 6339.31421594 1054.65697435 199.52859535 1465.11806707-96.91388917 2223.3309189 102.60900536 2251.83516145 592.88496904-4218.63359825 4304.12254337-4110.31747656 4999.62221859 0 0 3118.36983582-57.01957174 2075.11455849 547.27843296-752.51200332 438.96290977-4874.2311769 5746.4237171-4874.2311769 5558.30245659 0-96.91388917 2069.40800913 45.6122369 2058.0063121 638.49150512-17.10254552 1100.25768293-3426.2099545 6772.57060788-3460.41504556 6738.36570582-188.12800083-188.12696133 1829.9723717-245.13513143 2103.61310019 313.54493555 501.67466888 1031.85357963-3500.32098514 5621.01110165-2719.30473927 6402.02303202 108.31042084 108.3155232 2286.0402525 34.21060288 3255.1844992 250.83594844 467.46957783 102.61470618 1778.66473513 8334.60016944 1448.01552155 8003.95278286-74.09962893-79.80573732 1402.4144343-7718.91193236 2297.44765038-10044.84527244 547.28145696-1408.10180147 2297.44194953 2126.40474473 2439.96316228 1812.85980918-74.10532978 0-353.45260762-5022.4253156-108.3161217-7308.45293661 68.40448128-638.49150512 1328.29770284 666.99559017 1311.1951573 57.01957173-45.61248892-1385.30423424-159.62375827-2867.51667965 125.41866723-4218.61028821 216.63224338-1020.4462448 1288.39176326 1841.36389423 1704.55940534 1071.75357507 0 0-1299.79916113-4971.11240991-758.21285183-6373.5135654 359.15345613-923.53805644 1225.68242965 2234.72043895 1795.76728065 2360.13841317 0 0-319.24751656-3865.15980463 279.34157699-4862.80278138l1807.16897767 1938.28348422c393.35854719-621.3947549 319.24751656-6641.45751747 684.1018212-7205.83840146 302.14497103-473.16781183 2177.72413082 2257.52353596 2457.0657078 1829.96226021 250.83733445-387.65555668-792.41794288-4857.10179333-558.68315397-5210.55244795 330.64921358-507.3727139 2388.66122653 1242.77810818 2428.56146526 1208.57890693 838.02473097-843.7266183 809.52618926-2947.32809498 1162.97879688-3728.34002535 946.34085266-2115.00311071 6373.54863418-2388.6423272 7012.0436673-883.62663655 313.5523689 729.70457728 96.91442467 1670.33938393-28.50424255 2804.80196892 51.31333744 45.6122369 2719.30473927 239.43431442 2742.10813331 34.21060287 0 0-319.24751656 2491.25703337-131.11951573 5233.355716 28.50424255 364.85228864 2707.90304225-91.21307216 2742.10813331 273.63921648 245.13648593 2582.47010553-347.7517591 2821.90441995-347.7517591 2821.90441995 22.80339403 188.12696133 1807.16897766-273.63921648 1835.67322021-74.10492031 193.82884934 1259.8805592-210.93139487 2793.4003349-1009.05018627 4269.91211151-119.7178187 210.93593019 2553.98013248-205.22958338 2593.88607205 39.91141989 324.94836507 1938.2777834 387.65769868 3477.50407692 51.31333744 6213.89624172-28.50424255 222.33186339 2616.69516694-1932.5769664 2656.60110651-1710.245103 399.0593957 2303.13007204-62.70363276 4788.6862884 176.72630381 7171.62762755 57.01418595 552.98495079 1750.16049257-1647.53594486 1904.08340234-1009.03873893 153.92290977 627.0898711-376.25600166 5187.74330808-119.7178187 5444.28007353 0 0 2833.32170946-142.52042525 3084.1590439 96.91388917 2246.14001379 2109.3022937 1818.5706747 5792.03008216 1818.5706747 5792.03008216 615.69163907-456.0653608 381.962551-4891.30099458-239.43563743-8950.28840652-68.41588297-427.56127575 2177.72983167-262.23758246 2109.31964955-661.29477316 0 0-2462.77225717-1482.21225157-3272.29274559-5609.60946763-171.0254553-883.62665935 2377.25952952-701.20051503 2377.25952952-701.20051503-706.91091609-1624.73282505-1949.69589127-1932.57694359-3004.35286562-3494.60080433-342.0509106-513.0735309 2645.19370864-746.80702831 2645.19370864-895.02827057 5.7350536-1556.32304373-2519.77504142-2297.42942605-3825.2693502-3916.4614569-558.68315399-689.7988582 2725.00558777-724.00946108 2725.00558777-724.00946108-963.44339819-1339.69199735-4138.81601826-1926.87614938-5757.8569951-3699.8302395-883.63151905-963.43807468 3220.97940815-1909.77369834 3169.67177156-2075.09739163-450.36703229-1419.5034355-4309.84147356-1864.16716227-6179.72548569-3466.1024429-387.65769868-330.64738658 2439.96886313-1448.00752054 2439.96886313-1448.00752054-285.0424255-604.28660306-6447.66536566-4657.56749717-3312.19868516-4287.01439152 1322.59685432 159.62287628 4007.70220338 2040.89248958 4218.63359825 1755.85163908 0 0-114.0169702-2365.83905915 159.62375828-2650.87990965 1031.85358031-1071.7592987 4589.18305055 4549.25197398 5797.76293467 4321.21929358 0 0 444.66618378-4024.77680906 991.95334159-4133.09233225 1299.79346028-245.13513143 2884.62934606 5860.43988628 4167.3202608 5860.43988628 171.0254553 0 267.93987998-3528.80572919 929.23830714-3722.63350753 746.8111548-216.63104638 1584.83588578 3956.36700494 2531.17673844 4879.90506138 877.93637139 849.42173449 889.3380684-3260.87303054 1402.4144343-2479.86110017 872.22982204 1259.88055921 1083.1612169 3887.96290164 2274.6385555 5045.22875467 775.31539736 752.50784532 917.8366101-3625.72531918 1778.66473512-3038.54116715 997.64848925 678.402925 763.91370034 2947.32809499 1886.9808568 4064.68822895 535.87975995 530.17598193 895.03321608-2890.31422407 1505.02400665-2388.6423272 541.58060845 438.96290978 906.43491309 4623.36259512 1487.92716196 5284.65736828 741.1103063 843.72091748 1596.2375828-2206.21618287 2365.85213165-1721.64673702 552.98230547 353.45065462 421.86278974 3973.46945597 934.93915564 4748.78056933 1048.95042499 1607.63609764 1596.24328364-1943.97860041 2291.74110102-1396.70016745 484.57212335 370.55310565 1533.52254834 4532.15539479 1972.4992853 4862.80278137 974.84509521 741.1062113 1510.7191543-1892.67141834 2251.8294606-1522.1183127 535.8854608 262.23775349 1619.0466777 5621.00572009 2063.70716063 5484.18611185 290.74897485-91.20737135 1009.05588711-12211.15588446-3654.24959576-17324.79444325-7599.22536298-8334.60016944-21207.16215805-13146.08972588-32312.42075638-13265.80688309 0 0 5581.13639214-1111.65931695 5729.35275255-2035.19167257 296.44982337-1841.3616139 3067.06219923-1624.73056752 4999.64984412-1202.87010878 342.0509106 74.10492031 159.62375828-3255.17221353 205.23054636-3272.27466456 1727.35709853-39.91141988 3272.29274559 980.54052572 4925.53881349 1983.88431948 513.0763659 313.54493555-1043.26097818-3334.97795085-495.97382037-3021.4330153 2120.71564572 1225.67565715 4480.86692886 1584.82712878 5911.77990487 3072.7403684 376.25600166 393.3620745-433.26448676-2810.50278594-433.26448676-2810.50278594 1060.35782286-256.53676545 3152.57492688 1271.28219323 3973.49711232 2702.18726274 399.0593957 706.90701006-22.8090949-3734.03514155 290.743274-2947.32239417 0 0 3694.14413364 1254.1797422 4093.20923019 2810.50278593 0 0 302.15067188-2816.20360294 798.11309055-2667.98236068 1482.22631345 387.65555668 2782.03117542 2890.31422407 3939.2977221 3249.4656957 0 0-478.87127484-2508.3594844-102.56966639-2411.44559523 2782.01407288 701.20049223 5803.46378318 2422.84722925 5797.76293467 2411.44559523-1567.73334025-3922.16210288-7513.72403703-8032.4568679-17974.78675372-9132.71455083-1921.18594787-199.52289454-9714.2515619-518.77434791-16321.54068583 1014.7511286-5415.8060845 1254.1797422-9691.44816785 1966.78186844-8813.5174973 1111.65931694 3580.13856512-3506.00816196 9366.49980277-3933.56943771 10957.0422379-4748.78627014 1140.169702-581.48333502-3836.67674807-2502.6586674-2850.42995584-2776.29788387 980.54594372-233.73349741 5427.21348237-604.28660306 5427.21348237-604.28660306 963.44339819-752.50784532-3232.38680602-2223.32433472-2605.29346992-3317.88120064 1254.19237305-2194.81454885 8671.0019854-199.52859535 9303.79617002-1031.84787881 205.23054636-279.34003349-3186.78001794-2286.02762101-3044.2588052-2582.46839528 541.58060846-1111.65931695 7143.16888389 820.91593919 7297.09179366-148.22694308 0 0-2000.99782701-1493.61405662-3426.20995451-2719.28971377-171.0254553-148.22124226 5894.67735934-1778.65490712 5894.67735934-1778.65490712-114.0169702-114.0163402-1037.55442882-763.90947934-2428.56146526-1305.4870953-1271.28921773-495.97107986 5324.59820918-2211.91699987 5324.59820918-2211.91699987-8357.4496165-3819.55309752-30049.1952996 7046.20982436-34353.33592465 18322.43556153-1117.36630796 2690.78562872-1151.57139902-233.73919823-917.8366101-2514.06600223 222.33309188-2451.3513143 530.17891142-4600.55932707 267.93987996-6852.38774684-79.8061783-666.99559017-1772.9638866 1772.95979093-1886.9808568 1123.06665179-433.26448677-2394.34713477 849.42642798-5022.42377638 262.23903145-7679.00450304-193.82884934-895.02827057-2439.96886313 2639.47827563-2736.41298565 1744.45000506-820.92218544-2457.05213131 615.69163908-5911.75294019 34.21079191-9298.03824413-228.0339404-1322.58954632-2354.45043463 2833.30605397-3067.05649838 1647.5361159-832.32388246-1373.89689942-467.46957782-6464.73219017-860.828125-7234.34248652-319.24751657-615.68823708-2211.93492274 2439.94968028-2371.55868102 1864.16716227-2565.3818295-9332.24314618 843.73128033-10495.20981622-4081.80753316-5233.35001518-171.0254553 182.42614432-1265.58836922-5518.3965665-1453.71637005-5324.56878815-2018.10037254 4321.2249944-5324.59820919-3078.4411854-6453.36621417-2388.6423272-843.72557948 524.47516493 2303.14279804 3386.28530395 2337.3478891 4674.6699482 17.10824638 621.3890541-2896.03104308 661.29477317-2896.03104308 661.29477317 62.70363277 1066.05278087 5541.23045257 4053.28659492 5717.95675638 5221.95408197 142.52121275 963.4380747-3876.58268765 724.00376027-3876.58268765 724.00376027 125.41866722 1305.4870953 4691.80402458 2548.26520347 4942.64135902 3933.56943772 142.52121275 763.90947934-2137.81819125 934.93398964-2063.70716062 1710.245103 119.71781871 1191.4707551 4412.45674674 3545.90818022 4554.9779595 4760.18790417 96.90872381 843.72091748-2742.10813332 1191.47075509-2810.51831544 1978.18350247-85.5070268 952.03644067 5700.84851 4144.49396627 5706.54935851 5039.52223684 5.7350536 1265.58137622-2303.14279804 615.68823708-3352.09892388 1254.1797422-1476.51976409 895.03226114 4737.40511181 4520.7518795 4999.64984412 5552.59975831 205.23054636 906.42990459-2485.5756512 108.31552319-2576.78922737 934.93398964-114.0169702 1083.1552319 3044.2588052 2719.29541459 3768.26656596 4577.76175985 724.00776077 1835.66307722-17.10824638 2303.13007204-1054.6626752 1573.42549476-2080.80970615-1465.10997157-10472.46441372-10381.19347603-12701.49618113-12758.43815977-3238.08195368-3454.69510806-9868.17447165-7325.54985785-16481.1644441-7553.58253825-689.80266971 210.93022937 3557.33517109 3215.26079364 3585.83941364 4304.11684255 5.72935275 279.34003349-1909.7899517 695.49967522-1824.27722405 781.01193037 1174.3804939 1174.36830406 4828.62438882 2571.0684715 4828.62438882 2571.0684715l-1048.95612584 1886.97442089c245.13648593 552.97924997 1978.19443297 701.20049223 4754.50765734 1613.33121383 0 0-2080.80970615 1288.38464426-1926.88679638 1408.10180147 1470.81891558 1174.36830406 4321.24887142 2040.89248958 4321.24887142 2040.89248958l-2804.82316776 940.63480665c-165.3246068 541.57761595 6310.84500141 3135.45505632 6310.84500141 3135.45505632s-2023.80122105 1744.45000506-1932.58764489 1835.66307722c495.97382037 495.97107987 5256.18232622 1596.2287628 5256.18232622 1596.2287628 79.81187914 79.80573732-3363.5006209 1151.56503602-3340.69722686 1174.36830406 1248.4858237 1248.47892519 4691.80402458 1653.2369329 5495.6236645 3716.93839133 0 0 473.17042632 1174.36830406-889.33236757 952.03644067-5358.80330025-1943.9786004-13659.24443165-5968.76111028-29752.72837369-4389.63479851-16452.70580834 2143.51289657-28988.87168183 16446.86619515-28772.23943845 17872.07044765 0 0 5883.27566232-4218.6045874 6504.6681499-3363.4820359z" fill="#109421"/>
  </g>
  <g fill="#8c4200" transform="matrix(5.70085 0 0 5.70082 640814.586911 130676.34396)">
    <ellipse cx="-76406.734" cy="-54552.762" rx="609.9892" ry="646.73071" stroke-width=".259887" transform="rotate(-32.7730724) skewX(.0123006)"/>
    <ellipse cx="80113.359" cy="46920.699" rx="696.67413" ry="738.63727" stroke-width=".296818" transform="matrix(-.84082 -.54131 -.5415 .8407 0 0)"/>
    <ellipse cx="80494.336" cy="47852.852" rx="743.69092" ry="788.48462" stroke-width=".316849" transform="matrix(-.84082 -.54131 -.5415 .8407 0 0)"/>
  </g>
  <g stroke-width="1.000001">
    <path d="M74701.48856367 245548.040445h5239.08548154v3916.46128587h-5239.08548154z"/>
    <path d="M48500.36030747 248067.80726423s34416.0737625 2622.37012379 55520.62634823-1909.76799753c0 0 1772.96958745 1202.8666883-775.31539736 4178.69316751-2548.27928397 2970.13136303-8995.93894878 3608.61146652-12536.17157434 4247.10867245 0 0-849.426428 1909.77369835-781.01624587 2901.7158581 74.10532978 991.94786055 2234.73261592 889.33315437 3295.09043878 672.7078088l1060.35782286-210.941631s-495.97382037 3716.94409216-13522.41836657 4212.91517203c-4275.64208335 165.31229165-18373.82904688 461.7661778-21355.37281761-3716.94409216 0 0 2582.48437503 210.941631 3255.1844992 0 672.70012419-210.92452855 182.42715233-2901.71585809-68.4671906-3295.0779326-245.07947744-387.64415504-9138.46016153 0-13807.45509122-4321.21359276-1157.27224753-1231.38217497-1710.254553-2542.56438646-1710.254553-3010.03138128 0-39.97412887 1425.2121275 250.83594844 1425.2121275 250.83594844zm17934.92642095 7222.93515167s9417.79033682 1202.87238911 20255.11475603 0c0 0 285.0424255 2052.2941236-210.93709572 2833.3117548-495.97382037 781.00622954-12997.94030365 1379.60341723-19303.06735401 285.0465513-1014.75103478-324.9579712-1048.95612584-1567.7417802-741.1103063-3118.3583061z" fill="#8c4200"/>
    <path d="M53289.13006436 246391.7670633s12769.9006624-13579.35181864 8859.11858454-41912.44656324c0 0 13305.76902064 3426.19672382 26868.09902763 22997.12432242 0 0 3956.38886594 3973.46945597 8608.28695095 18145.70624365z" fill="#fdf9ff"/>
    <path d="M110850.60887152 1455.9818025S1502.56519103 82857.9974854 1502.56519103 178842.72360282c0 95996.1260412 109348.0436805 179701.2792072 109348.0436805 179701.2792072s108646.88492054-76801.4637669 108646.88492054-179701.2792072c0-102894.12203436-108646.88492055-177386.74180032-108646.88492055-177386.74180032zm-39.90593957 19702.04068901s-97279.34738482 72417.5166735-97279.34738482 157810.11908553c0 85404.00803661 97279.34738482 159873.83764641 97279.34738482 159873.83764641s96658.00050402-68324.34887302 96658.00050402-159873.83764641c0-91538.0831488-96658.00050402-157810.11908553-96658.00050402-157810.11908553z" fill="#c62139"/>
  </g>
</svg>
