<svg version="1.1" id="Layer_1" xmlns="http://www.w3.org/2000/svg" x="0" y="0" viewBox="0 0 600 600" xml:space="preserve">
  <path id="path5" fill="#DE2910" d="M300 0C134.3 0 0 134.3 0 300s134.3 300 300 300 300-134.3 300-300S465.7 0 300 0z"/>
  <path id="path7" fill="#FFFFFF" d="M300 596.4C136.3 596.4 3.6 463.7 3.6 300S136.3 3.6 300 3.6 596.4 136.3 596.4 300 463.7 596.4 300 596.4z"/>
  <path id="path9" fill="#DE2910" d="M300 538.3c131.6 0 238.3-106.7 238.3-238.3 0-131.6-106.7-238.3-238.3-238.3C168.4 61.7 61.7 168.4 61.7 300c0 131.6 106.7 238.3 238.3 238.3z"/>
  <path id="path11" fill="#FFFFFF" d="M300 300c-105.5-44.6-58.7-181.9 42.2-175-20.4 10.5-23.4 30.1-11.7 48.2 13 20.3-1.2 53-18.8 60.9-29.1 13-34.9 47.8-11.7 65.9z"/>
  <path id="path13" fill="#FFFFFF" d="M300 300c-75 86.5-191.2-.4-153.4-94.2 3.7 22.6 21.4 31.5 42.2 26 23.3-6.1 50 17.5 52.1 36.7 3.4 31.7 34.7 48 59.1 31.5z"/>
  <path id="path15" fill="#FFFFFF" d="M300 300c59.1 98.1-59.4 181.7-137 116.8 22.7 3.5 36.6-10.6 37.8-32.1 1.4-24.1 32.1-42.1 51-38.2C283 353 308.1 328.3 300 300z"/>
  <path id="path17" fill="#FFFFFF" d="M300 300c111.5-25.9 154.4 112.7 68.8 166.4 10.3-20.5 1.2-38-18.9-45.9-22.5-8.7-30.1-43.5-20.5-60.3 15.8-27.6 0-59.2-29.4-60.2z"/>
  <path id="path19" fill="#FFFFFF" d="M300 300c9.8-114.1 154.9-112.1 179.5-14-16.3-16.2-35.8-12.9-49.4 3.8-15.3 18.7-50.7 15.2-63.7.9-21.5-23.6-56.3-18.4-66.4 9.3z"/>
  <path id="polygon21" fill="#DE2910" d="M294.3 200.8l-5.9 9.3-2.2-10.8-10.7-2.8 9.7-5.4-.7-11 8.1 7.5 10.3-4-4.7 10 7.1 8.5z"/>
  <path id="polygon23" fill="#DE2910" d="M203.9 274.8l7 8.5L200 282l-6 9.3-2.1-10.8-10.7-2.8 9.6-5.4-.7-11 8.1 7.5 10.3-4.1z"/>
  <path id="polygon25" fill="#DE2910" d="M246.3 383.6l10.3-4-4.6 10 7 8.5-11-1.3-5.9 9.3-2.2-10.8-10.7-2.8 9.7-5.4-.7-11z"/>
  <path id="polygon27" fill="#DE2910" d="M362.9 376.9l-.7-11 8.2 7.5 10.2-4.1-4.6 10.1 7 8.5-10.9-1.3-6 9.3-2.1-10.8-10.7-2.8z"/>
  <path id="polygon29" fill="#DE2910" d="M392.6 263.9l-10.7-2.7 9.6-5.4-.7-11.1 8.2 7.5 10.2-4-4.6 10 7 8.5-10.9-1.3-6 9.4z"/>
  <path id="path31" fill="#DE2910" d="M300.6 298.8c-12.8-6.5-23-20.2-27.5-36.5-5.1-18.7-2.2-38.8 8.1-55.2l-2.2-1.4c-10.7 17-13.7 37.8-8.4 57.2 4.7 17.3 15.2 31.2 28.8 38.1l1.2-2.2z"/>
  <path id="path33" fill="#DE2910" d="M299.1 299.1c-10.2 10.1-26.3 15.7-43.2 14.9-19.4-.9-37.6-9.9-50-24.7l-2 1.7c12.8 15.4 31.7 24.7 51.8 25.7 17.9.8 34.3-4.9 45.2-15.6l-1.8-2z"/>
  <path id="path35" fill="#DE2910" d="M298.8 300.6c6.5 12.8 6.8 29.9.8 45.7-6.8 18.2-21 32.7-39 39.9l1 2.4c18.6-7.4 33.3-22.5 40.4-41.4 6.3-16.7 6-34.2-.9-47.8l-2.3 1.2z"/>
  <path id="path37" fill="#DE2910" d="M300.2 301.3c14.2-2.2 30.5 2.8 43.7 13.4 15.1 12.1 24.6 30.1 25.9 49.4l2.6-.2c-1.3-20-11.1-38.7-26.8-51.2-14-11.2-30.6-16.2-45.8-13.9l.4 2.5z"/>
  <path id="path39" fill="#DE2910" d="M383.1 250.9c-19.4-4.9-40.2-1.4-57 9.7-14.9 9.8-24.9 24.1-27.4 39.2l2.6.4c2.3-14.2 12.1-28.2 26.2-37.5 16.2-10.7 36.2-14.1 54.9-9.3l.7-2.5z"/>
  <path id="polygon41" fill="#DE2910" d="M87.6 454.8l6.1 9.2-10.8-2.4-6.8 8.6-1-11-10.4-3.9 10.2-4.3.5-11.1 7.2 8.4 10.7-3z"/>
  <path id="polygon43" fill="#DE2910" d="M513.4 454.8l-6.2 9.2 10.8-2.3 6.8 8.7 1.1-11 10.4-3.8-10.1-4.5-.4-11-7.4 8.2-10.6-3z"/>
  <path id="path45" fill="#DE2910" d="M123.1 523.6c3.9 2.4 4.7 1.6 7.1-1.8l13.5-19.3c2.3-3.3 2-4.2-1.1-6.8l.6-.8 12.4 8.7-.6.9c-3.6-2.1-4.5-1.9-6.7 1.3l-6.1 8.7 13.5 9.5 6.1-8.7c2.3-3.3 2-4.2-1.1-6.8l.6-.9 12.4 8.7-.6.9c-3.6-2.1-4.5-1.9-6.7 1.3l-13.9 19.8c-2.1 2.9-2.2 4.1 1.1 6.8l-.6.9-12.4-8.7.6-.8c3.9 2.4 4.7 1.6 7.1-1.8l6.1-8.7-13.5-9.5-6.4 9.2c-2.1 2.9-2.2 4.1 1.1 6.8l-.6.9-12.4-8.7.5-1.1z"/>
  <path id="path47" fill="#DE2910" d="M171 535.5c5.3-11.4 16-13.4 24.1-9.6 8.1 3.8 13.5 13.2 8.2 24.6-4.9 10.5-15.1 13.7-24.1 9.5-8.9-4.2-13.1-14-8.2-24.5zm26.7 12.3c5.2-11.3 1.6-17.8-3.4-20.2-5-2.3-12.4-.9-17.6 10.4-5.1 10.9-2.1 17.6 3.4 20.2s12.6.5 17.6-10.4z"/>
  <path id="path49" fill="#DE2910" d="M252.2 546.5c-3.4-.5-5.2-.7-6.8 5.4l-7.3 27.7-.9-.2-15.6-35h-.1l-5.4 20.6c-1.4 5.4-.6 6.9 3.2 8.1l-.3 1-12.4-3.3.3-1c4.1.8 5.4.3 6.9-5.4l6.1-23.3c-1.5-3.2-2.2-3.7-4.4-4.2l.3-1 9 2.4 13.5 30.7h.1l4.6-17.6c1.6-6.1.2-6.9-3.3-8.1l.3-1 12.4 3.3-.2.9z"/>
  <path id="path51" fill="#DE2910" d="M293 566.9c-2.4 0-3.8 0-4.1 3.9l-.9 10.9c-.1.8-7.5 3.3-13.5 2.9-5.4-.4-11.3-2.5-14.8-7-2.6-3.4-4-6.7-3.4-13.8.7-9.1 8.5-17.7 20-16.7 5.5.4 7.9 2.4 9.6 2.6.4 0 2.3-.1 2.7-1.6l1.2.1-.5 11.5-1.2-.1c-1.2-4-3.6-9.6-11.2-10.2-5.2-.4-13.4 2.4-14.5 16.1-.8 9.8 4.4 16.4 12.8 17.1 3.7.3 7.5-.7 7.7-2.6l.7-8.8c.4-4.5-.7-4.7-4.4-5.2l.1-1 13.9 1.1-.2.8z"/>
  <path id="path53" fill="#DE2910" d="M337.5 546.1l14.2-1.8.1 1c-3.2.7-4.3 1-7.7 5.2l-9 11.5 14.3 11.9c4 3.5 6.2 5.3 9.2 4.8l.1 1-16.5 2.1-.1-1c2.9-.5 3.8-.6 3.6-1.8-.2-1.7-6.1-6.6-8.2-8.2l-6.4-5-1.3 1.3 1.3 10.1c.5 3.8 1.2 4.6 5.5 4.3l.1 1-15.3 1.9-.1-1c4.2-.7 4.7-1.6 4.2-6.1l-2.9-23.4c-.5-4.2-1.8-4.5-5.5-4.3l-.1-1 15.4-1.9.1 1c-4.2.8-4.9 1.5-4.4 5.5l1.4 11.1c10.8-12.5 12.2-14.2 12-16-.2-1.5-1.2-1.4-3.9-1.2l-.1-1z"/>
  <path id="path55" fill="#DE2910" d="M360.6 561c-3.6-12 3.2-20.6 11.7-23.1 8.6-2.5 18.9 1 22.4 13 3.3 11.1-2.3 20.2-11.8 23s-19-1.8-22.3-12.9zm28.2-8.4c-3.5-11.9-10.6-14.4-15.9-12.8-5.3 1.6-9.9 7.5-6.3 19.4 3.4 11.5 10.1 14.6 15.9 12.8 5.7-1.7 9.7-7.9 6.3-19.4z"/>
  <path id="path57" fill="#DE2910" d="M428.8 515.6c-2.9 1.9-4.4 2.9-1.5 8.6l12.9 25.6-.8.4-34.9-15.9h-.1l9.5 19c2.5 5 4.1 5.6 7.7 3.9l.5.9-11.4 5.8-.5-.9c3.6-2.1 4.2-3.3 1.6-8.6L401 532.9c-3.2-1.4-4.1-1.3-6.1-.3l-.5-.9 8.3-4.2 30.4 14.1.1-.1-8.2-16.3c-2.8-5.6-4.4-5.3-7.8-3.9l-.5-.9 11.4-5.8.7 1z"/>
  <path id="path59" fill="#DE2910" d="M473 503.9c-1.8 1.6-2.9 2.5-.5 5.6l6.6 8.8c.5.6-3.4 7.5-8.2 11.1-4.3 3.2-10.1 5.6-15.7 4.5-4.2-.8-7.4-2.4-11.7-8.1-5.5-7.3-5.3-18.9 4-25.8 4.4-3.3 7.5-3.4 8.9-4.4.3-.3 1.6-1.6 1-3l1-.7 7.2 8.9-1 .7c-3.5-2.3-9-4.9-15.1-.3-4.1 3.1-8.5 10.7-.2 21.7 5.9 7.9 14.1 9.4 20.9 4.4 3-2.2 5.2-5.5 4-7l-5.3-7.1c-2.7-3.6-3.6-3-6.7-1l-.6-.8 11.1-8.3.3.8z"/>
  <path id="path61" fill="#DE2910" d="M64.4 373.5c-.2-.6-.6-1.4-1.4-2.4-.9-1.3-1.4-1.6-1.6-1.7-.3-.1-.8-.1-1.2.1l-5.6 1.8-8 2.4-.2.1-.1-.2-2.3-7.9-.1-.2.2-.1 2.4-.7c.4-.1.9-.4.6-1.5-.2-.6-.7-1.5-1.7-2.6-.9-1-1.7-1.4-2.4-1.1 0 0-5.4 1.8-5.5 1.8l-4.9 1.4c-1 .3-2 0-2.9-.8-.1-.2-.3-.2-.5-.1s-.4.2-.5.5l-2 4.7c-.1.2-.1.4-.1.6 0 .2.2.3.4.4l3.9 1.9h.1v.1l2.2 7.4.1.2-.2.1-5.6 1.7c-1 .3-1.9 0-2.6-.9-.1-.1-.2-.2-.4-.1s-.3.2-.3.4l-.1 8c1.1-.5 2.5-1.1 4.2-1.7l6.4-1.9.2-.1.1.2 2 6.8-1 7.3c1.7-.8 3.5-1.5 5.4-2l8.5-2.5 6-1.6c.2-.1.4-.2.5-.3.1-.1.1-.3 0-.5-.1-.5-.6-1.3-1.4-2.3-1-1.3-1.4-1.7-1.7-1.8-.3-.2-.7-.1-1.3 0l-1.6.5-.2.1-.1-.2-2.2-7.3-.1-.2.2-.3 8.5-2.5 7.3-1.9c.3-.1.5-.2.6-.4.1-.1.1-.4 0-.7zm-30.1 3.7l-.2.1-.1-.3-2.3-7.9-.1-.2.2-.1 10.9-3.2.2-.1.1.2 2.3 7.9.1.2-.2.1-10.9 3.3zm14.8 9.7l.1.2-.2.1-10.9 3.2-.2.1-.1-.2-2.2-7.3-.1-.2.2-.1 10.9-3.2.2-.1.1.2 2.2 7.3z"/>
  <path id="path63" fill="#DE2910" d="M19.3 320.4l-.1.1v.1l.1-.2z"/>
  <path id="path65" fill="#DE2910" d="M39.3 318.8c-.1.1-.1.2-.1.2l.1-.2z"/>
  <path id="path67" fill="#DE2910" d="M44.8 320.4c-.1.1-.1.2-.1.2l.1-.2z"/>
  <path id="path69" fill="#DE2910" d="M32.5 322.1l-.1.1v.1l.1-.2z"/>
  <path id="path71" fill="#DE2910" d="M25.8 318.8c-.1.1-.1.2 0 .2v-.2z"/>
  <path id="polygon73" fill="#DE2910" d="M12.8 303.8l.1-.1z"/>
  <path id="polygon77" fill="#DE2910" d="M17.8 281.4h.1z"/>
  <path id="path79" fill="#DE2910" d="M22.8 298.9c.4 0 .6-.2.6-.7 0-.7-.1-1.5-.4-2.5-.3-.9-.5-1.6-.8-1.9-.2-.3-.5-.4-.9-.4h-2.7V281.6c0-.2 0-.3-.1-.3 0 0-.1-.1-.2-.1s-.3.1-.4.2c-.1.1-3.3 4.3-3.3 4.3-.1.2-.2.3-.2.4 0 .2.1.4.3.5l2.9 2.5.1.1v4.1h-3.1l-.1-.1-.9-1.3c-.1-.2-.2-.2-.4-.2s-.3.1-.5.3l-2.2 7.1c1-.1 4-.2 4-.2h3.1V305h-3.1l-.1-.1c-.6-1.1-.8-1.2-.8-1.3-.1 0-.2-.1-.3-.1-.3 0-.5.1-.6.3l-1.9 6.8c.9-.1 3.5-.3 3.5-.3H17.6V321.6l1.4-1.2c-.3-1.2-.5-2.3-.5-3.1V310.2h2.1l2.1.1c.1 0 .2 0 .3-.1.1-.1.2-.3.2-.9 0-.6-.2-1.4-.5-2.5-.4-1.4-.6-1.8-.7-1.8-.2-.2-.4-.2-.7-.2H18.5V298.7h.2l4.1.2z"/>
  <path id="polygon81" fill="#DE2910" d="M12.7 292.1l.1-.1z"/>
  <path id="polygon83" fill="#DE2910" d="M31.1 280.7z"/>
  <path id="path85" fill="#DE2910" d="M53.6 301c-.3-.9-.7-1.9-1.4-1.9l-3.7.1h-4.3v-18.3c0-.3-.1-.3-.2-.3s-.3.1-.4.2L40 285c-.2.2-.2.4-.2.5 0 .2.1.3.3.5l3.1 2.8.1.1V299.3h-4.7V283c0-.2 0-.3-.1-.4 0 0-.1-.1-.2-.1-.2 0-.3.1-.4.2l-3.4 3.8c-.2.2-.3.5-.3.7 0 .2.1.3.3.5l2.7 2.1.1.1v.4h-5.5v-9.5c0-.4-.2-.4-.3-.4-.1 0-.3.1-.5.2-.1.2-3.4 4.1-3.4 4.1-.1.1-.2.3-.2.5s.1.4.4.5l3 2.4.1.1v2.1h-5.7v-7.4c0-.4-.1-.4-.2-.4s-.2.1-.3.2l-3.5 4c-.1.2-.2.4-.2.6 0 .2.1.3.2.4l3.2 2.6.1.1v29.8l1.3-1.4c-.3-1-.5-2-.5-2.9v-2.1H31V323.1l1.4-1c-.3-1.5-.5-2.8-.5-4v-4.3h5.9v6.3l1.4-1.3c-.4-1.6-.6-3-.6-4.2v-9.7h4.7v16.9l1.4-1.3c-.3-1.4-.5-2.7-.5-3.7V304.9h4.9l3.9.1c.7 0 1-.1 1.1-.1.1-.1.2-.3.2-.6-.1-.8-.3-1.9-.7-3.3zm-28.3-2v-3.2H31V299.2h-5.7v-.2zm5.5 9.5h-5.5V304.9H31V308.5h-.2zm1-9.5v-3.2h5.9V299.2h-5.9v-.2zm5.7 9.5h-5.7V304.9h5.9V308.5h-.2z"/>
  <path id="path87" fill="#DE2910" d="M39.5 224.7l.1-.2h.2c5.2.9 10.2 1.1 14.8.4 4.5-.7 9-2.8 13.3-6.2-2.3-2.4-3.1-4.8-2.5-7 .1-.3.3-.7.4-1l-.7-.7c-2.2 2.4-4 4.2-5.3 5.4-1.3 1.2-3.3 2.4-5.8 3.6-2.6 1.2-5.1 2.1-7.7 2.5-2.6.5-5.4.6-8.4.4-3-.2-5.6-.6-7.7-1.2-1.1-.3-1.7-1-2-2.1-.3-1.2-.6-1.4-.8-1.5-.2-.1-.5 0-.7.1l-4.8 7.3c.8.2 1.6.4 2.3.6 3.3 1 7.5 2.6 12.3 4.8 4.9 2.3 9.2 5.4 12.7 9.4 3.5 3.9 5.9 8.5 7.1 13.5l.8-.2c-.4-7.2-1.9-13-4.6-17.3-2.7-4.3-7.1-7.8-13.1-10.3l-.2-.1.3-.2z"/>
  <path id="path89" fill="#DE2910" d="M78 180.5z"/>
  <path id="path91" fill="#DE2910" d="M85.6 140.1z"/>
  <path id="path93" fill="#DE2910" d="M103 150.6c-.1-.5-.4-.8-.7-1-.3-.2-.8-.3-1.4-.4-2.4-.3-5-1.3-7.8-3-.9-.6-1.9-1.3-2.8-2.1l-.7.6c1.8 1.9 3.4 4.2 4.6 6.7l.1.1-.1.1-.2.3c-.5.9-1.9 1.7-4.1 2.4-2.2.7-4.3 1-6.3.9-2-.1-3.9-.6-5.6-1.3l-.2-.1.1-.2 8.2-12.8c.3-.5.1-.6 0-.6-.1-.1-.3-.1-.7-.2-.4.1-5.5 1.3-5.5 1.3-.2 0-.4.2-.5.4-.1.2-.1.4 0 .5L81 147v.1l-.1.1-4.1 6.4-.1.1h-.2c-2.4-.7-4.6-1.6-6.5-2.6l-.2-.1.1-.2L73 146l.1-.2.2.1 1.8 1.1c.3.2.8.4 1.3-.4.3-.5.7-1.5 1-2.8.4-1.3.2-2.1-.5-2.6L73 139l-2.3-1.5c-.7-.4-1.1-1.2-1.2-2.4 0-.2-.1-.3-.2-.4-.2-.1-.4-.1-.7-.1l-4 1.4c-.3.1-.5.3-.7.5-.1.2-.2.4-.1.6l.7 4.3v.2l-8.8 13.8-5.9 4.1c1.4.7 3.3 1.8 5.7 3.3l21.7 14c.6.4.7 1.1.4 2.1-.2.4-.2.8-.1 1 .1.2.2.3.5.4.4.1 6.2.9 6.2.9.3 0 .5-.1.7-.3.2-.3.2-.6.1-.8-.6-1.1-1-3.9-1.4-8.5l-.6-7.8-.9-.1c-.5 2.4-1.3 5.1-2.2 7.9l-.1.3-.2-.1-9.1-5.8-.2-.1.1-.2 4.4-6.8.1-.1.2.1c1.6.7 3.5 1.2 5.6 1.5 2.1.4 4.3.5 6.5.4 2.2-.1 4.3-.5 6.3-1.3s3.9-2 5.7-3.6c1.8-1.6 2.8-2.6 3.1-3l.5-.7c.3-.6.4-1.1.2-1.6zm-40.5 10.2l-.2-.1-6-3.9-.2-.1.1-.2 9.7-15.1.1-.2.2.1 6 3.9.2.1-.1.2-9.7 15.1-.1.2zm11.2-2.1l-4.1 6.4-.1.2-.2-.1-5.8-3.7-.2-.1.1-.2 3.6-5.6.1-.2.2.1c1.8 1.1 3.9 2 6.3 2.9l.3.1-.2.2z"/>
  <path id="polygon95" fill="#DE2910" d="M119.8 78.6z"/>
  <path id="path97" fill="#DE2910" d="M143.5 89.7l.2-.2c0-.1 0-.1-.1-.2s-.3-.2-.5-.3c-.3 0-5.8-.5-5.8-.5-.1 0-.2 0-.5.3-.3.2-.4.4-.4.6l.4 4.8v.1l-.1.1-2.9 2.5-.2.1-.1-.2-7.6-8.7-.1-.2.2.1 8.2-7.2c.2-.2.2-.3.2-.3s0-.1-.1-.1c-.1-.1-.3-.2-.8-.3l-5.6-.3c-.2 0-.4.1-.6.3-.2.1-.2.3-.2.5l.3 4.6v.1l-.1.1-2.2 1.9-.2.1-.1-.2-4.3-4.9c-.6-.7-.8-1.5-.6-2.3.2-.6.2-1.1 0-1.3-.1-.2-.3-.2-.5-.1l-7.2 3.3c.6.5 1.7 1.6 3.5 3.4l4.9 5.6.1.2-.2.1-4.1 3.5-.2.1-.1-.2-4.3-5c-.7-.8-.8-1.8-.3-3 .1-.1.1-.3-.1-.6-.2-.2-.4-.3-.7-.2l-7 3.2c.5.4 1.5 1.5 3.2 3.2l5.1 5.9.1.2-.2.1-7.7 6.7 2.1.1c.9-1.2 1.7-2.1 2.4-2.8l3.8-3.3.2-.1.1.2 7.6 8.7.1.2-.2.1-9.6 8.3 2.1.1c.6-1 1.3-2 2.4-2.8l28.3-24.1zm-26.1 6l-.1-.2.2-.1 4.1-3.5.2-.1.1.2 7.6 8.7.1.2-.2.1-4.1 3.5-.2.1-.1-.2-7.6-8.7z"/>
  <path id="path99" fill="#DE2910" d="M130.4 107.5l-6.5.4c.9 5.9.1 12.9-2.4 20.7l.8.3c4.5-7.1 6.9-13.5 7.4-19.1v-.1l.1-.1 1.2-1.3c.2-.2.2-.4 0-.6-.2-.1-.3-.2-.6-.2z"/>
  <path id="path101" fill="#DE2910" d="M150.2 104.4c-.1-.9-.6-1.8-1.2-2.5-1.6-1.9-4.1-2.7-7.3-2.5s-7.2 1.6-11.8 4.2l.2.8c5.5-1 10.9-.3 16.2 2.2 1.4.6 2.4.6 3.3-.1.5-.6.7-1.2.6-2.1z"/>
  <path id="path103" fill="#DE2910" d="M168.7 62.3l-.1-.1s-.1 0-.1.1h.2z"/>
  <path id="path107" fill="#DE2910" d="M210.9 63.1l-3.1-6.4-6.2-13.4c-.3-.6-.2-1.2.2-1.8.3-.5.4-.9.3-1.1-.1-.2-.3-.4-.6-.5l-3.7-1c-.5-.1-.8-.1-1 0-.3.1-.4.4-.5.7l-1.2 3.4v.1h-.1l-4.1 1.9h-6.5c.6 1.1 1.2 2.2 1.8 3.5l1.3 2.9.2.5-.5-.2-3.3-1.3c-.5-.2-.6-.2-.6-.2-.1 0-.2.1-.3.6l-1 3.9v.1h-.1l-.7.3-.2.1-.1-.2-3-6.7-.1-.2.1-.1c2.1-1.4 3.4-2.3 3.8-2.7.4-.4.8-.6 1.1-.8.4-.2.8-.3 1.3-.3.4 0 .6-.2.8-.4.1-.2.2-.4.1-.6l-.3-.3-6.1-2.8c-3.5 5.5-8 10.6-13.3 15.1l.4.5c3-1.6 5.5-3.1 7.4-4.4l.2-.1.1.2 2.7 5.8.1.2-.2.1-8.8 4 1.7.8c1.4-1 2.5-1.8 3.3-2.1l2.2-1 .2-.1.1.3c1.2 6.1 1.3 13.2.1 21l.7.2c2.5-4.5 4-9 4.4-13.5V67l.1-.1.1-.1.2-.1.1.2 4.4 9.6 2.1 5 .2.6c.2.4.4.7 1.2.3.6-.3 1.3-.9 2.2-1.8 1.1-1.2 1.3-1.6 1.3-1.8 0-.3 0-.7-.2-1l-.6-1-3.1-6.2-4.5-9.8-.1-.2.2-.1.1-.1.1-.1.1.1c.1.1.7.4 1.6 1 1 .5 1.9 1.4 2.6 2.4.7 1 1.5 1.2 2.3.8.3-.1.6-.5.9-1 .3-.5.3-1.1.2-1.7v-.2l.2-.1.1-.1.2-.1.1.2 2.8 6.1 2.5 5.9c.2.4.4.7.7.8.2.1.4 0 .6 0 .4-.2 1-.7 1.8-1.5.7-.8 1.3-1.4 1.5-2 .3-.5.2-1 0-1.5l-1.8-3.8-.1-.2.2-.1 4.5-2.1.2-.1.1.2 1.9 4.4c.1.3.2.4.4.5.1.1.3 0 .6-.1.6-.3 1.5-1.1 2.5-2.3.7-.9.9-1.9.5-2.7zm-20.4-4.4v.1l-.1.4-.2-.3c-1.1-1.5-3.7-1.7-7.7-.4l-.2.1-.1-.2-1-2.2-.1-.2.2-.1 6.4-2.9.2-.1.1.1 2.5 5.5v.2zm13.7 3.9l-4.5 2.1-.2.1-.1-.2-8.5-18.6-.1-.2.2-.1 4.5-2.1.2-.1.1.2 8.5 18.5.1.2-.2.2z"/>
  <path id="path109" fill="#DE2910" d="M183 50.1s.1 0 0 0c.1 0 .1 0 0 0 .1 0 0 0 0 0z"/>
  <path id="path111" fill="#DE2910" d="M280.9 47.8l-4.1-28.3v-.1l.1-.1 1.3-1.3c.2-.2.3-.5.3-.8 0-.3-.2-.4-.4-.6l-4.1-2.4c-.2-.1-.5-.2-.7-.2-.2 0-.4.1-.5.3l-2.4 3.4-.1.1h-.1L247.6 21l-6.8-2c.4 2 .7 3.6.9 4.8l4.2 29.4.7 6.4c0 .3.1.5.3.6.2.1.4.2.7.1.5-.1 1.3-.4 2.4-1 1.3-.7 1.8-1 1.9-1.2.2-.2.2-.5.2-.9l-.6-2.8v-.2h.2l24.2-3.5h.2v.2l.2 1.3.2 2.8c0 .2.1.4.4.5.2.2.5.2.7.2.2 0 .8-.3 2.5-1.1 1.3-.7 1.9-1.4 1.7-2.3-.1 0-.9-4.5-.9-4.5zm-8.5-21.5v.2l.5 3.3v.3l-.3-.1-5.2-1.7c-.2 3-.4 5.3-.7 6.6v.1h-.4l-.1-.2c-.4-1.1-.9-3.5-1.5-7.4v-.2h.2l7.3-1 .2.1zm-5.4-7.1l4.2-.6h.2v.2l.7 5.2.1.4-.4-.2-1.3-.8-.2-.1.1-.2c.2-.4.2-.8.2-1.2-.1-.6-.5-1.2-1.2-1.6-.7-.4-1.5-.7-2.5-.7h-.2v-.4h.3zm-5.3.8l.1-.1 3.3-.5.5-.1-.3.4-.2.2c.9.5 1.5 1.3 1.8 2.5.3 1.1.7 1.8 1.2 1.9l.3.1-.2.3-.9 1.3-.1.1h-.1l-2.4.3h-.2v-.2l-.5-3.5v-.1l.1-.1c.7-.7.9-1.1.8-1.3 0-.3-.2-.3-.3-.4l-3-.6-.5-.1.6-.1zm-14 8.7l-.9-6.4v-.2h.2l11.6-1.7h.2v.2l.5 2.5.6 3.9v.2h-.2l-11.8 1.7h-.2v-.2zm27.9 21.1l-24.2 3.5h-.2v-.2l-.9-6.2v-.2h.5l.1.1c.2.4.6 1 1.1 1.8.6.8.9 1.3 1.1 1.6.2.3.3.3.4.3.4-.1.7-.4.9-.9.3-.7.9-1.4 1.7-2l6.1-4.9-.2-.4c-4 1.4-8 2.5-11.7 3.4h-.2v-.2l-2.3-15.7-.1-.5.4.2 1.1.7c1.3-.5 2.2-.9 2.7-.9l7.9-1.1h.2v.2l.6 3.1.1.5-.4-.3-2.4-1.7h-.5c-.2 0-.3.1-.4.3l-1.3 2-.1.1h-.1l-1.5.2-4.4-1.2c.2.9.4 2 .6 3.2l.7 4.5.5 3.8c.1.4.2.7.4.9.1.1.3.1.5.1.1 0 .5-.1 1.6-.8 1.1-.7 1.4-.9 1.5-1 .1-.1.2-.3.1-.5l-.1-1.2v-.2h.2l1-.1h.2v.2l.2 1.5c0 .2.1.3.2.4.1.1.4.1.6.1.3 0 1-.3 2-.8s1.4-1.1 1.3-1.9c0 0-.4-2-.5-2l-.6-4.1v-.1l.1-.1.5-.7.3-.4.1.5c.7 3.6 1.6 6.6 2.7 8.9v.1l-.1.1c-2 3.4-4.7 6.5-7.9 9.3l.3.4c3.8-1.6 7.1-3.8 9.7-6.5l.2-.2.2.2c1.2 1.5 2.5 2.7 3.9 3.4 1.4.8 2.5 1.1 3.3 1 1.1-.2 1.5-.7 1.4-1.6-.1-.5-.3-1.1-.6-1.9-.4-.8-.7-1.8-.8-3-.2-1.1-.3-3-.5-5.7h-.4c-.5 4.7-.6 5-.6 5.1-.1.3-.3.5-.6.5s-.6 0-.8-.2c-.1-.1-.4-.4-1.5-1.8l-.1-.1.1-.1c1.1-2 2.1-4.7 3-8.1l.9-.9.3-.2.1.4 2.6 17.9v.2l-.2-.1zm-19-10.7h-.2l-1 .1h-.2V39l-.8-5.5v-.2h.2l1-.1h.2v.2l.8 5.5v.2z"/>
  <path id="path113" fill="#DE2910" d="M257.9 29.8h.1-.1z"/>
  <path id="path115" fill="#DE2910" d="M249.3 30.2h-.2.2z"/>
  <path id="path117" fill="#DE2910" d="M257.9 29.8h.1-.1z"/>
  <path id="polygon119" fill="#DE2910" d="M353.9 22.5v.1z"/>
  <path id="path121" fill="#DE2910" d="M344.1 30l-.4-.4.6.1 14 2c.4.1.5 0 .6-.1 0 0 .1-.1.1-.2 0-.2-.1-.4-.3-.6l-3.4-4.4c-.1-.1-.3-.2-.5-.2s-.4 0-.6.2l-3.7 3.1-.1.1h-.1l-8.5-1.2h-.2v-.2l.7-4.7v-.2h.2c1 .1 2.6.1 4.9 0 2.3-.1 3.8-.1 4.5 0 .4.1.7.1 1 .3.2.1.4.1.7 0 .2-.1.3-.2.4-.4 0-.1 0-.3-.1-.5l-3.9-4.9c-5.4 1.5-14.4 2.4-26.7 2.8v.6c3.6.5 8.2 1 13.5 1.5h.2v.2l-.6 4.4v.2h-.2l-18-2.5 1.1 1.6c.9-.2 2.4-.1 4.7.2l6.4.9.4.1-.2.3c-3.6 4.7-8.7 8.7-15.1 12l.5.8c5.1-1.3 8.6-2.4 10.2-3.3l.4-.2v.4l-.5 4.8-1.3 8.9-.8 3.9c0 .1 0 .3.1.4.1.2.4.4 1.2.5.9.1 1.9.1 3-.2 1.3-.3 1.5-.6 1.6-.8l.2-2.7v-.2h.2L341 54h.2v.2l-.5 3.3c0 .1-.1.4.9.6.9.1 1.9 0 3-.2 1.4-.4 1.6-.7 1.7-.9 0 0 .4-4 .4-4.1l1.3-9.2c.1-.4.3-.7.8-.9.5-.2.5-.3.5-.3l.1-.3.3.2c1.6 1.2 2.7 2 3.4 2.4 1-1.5 1.8-2.5 2.6-3s1.7-.7 2.7-.5c.2 0 .4.1.6.1l.4-.8c-6-2.3-11.1-5.9-15.3-10.6zm-2 17.7l-.7 5.3v.2h-.2l-10.9-1.5h-.2v-.2l.7-5.3V46h.2l10.9 1.5h.2v.2zm.9-6.4l-.7 5.1v.2h-.2l-11-1.6h-.2v-.2l.7-5.1v-.2h.2l10.9 1.5h.2l.1.3zm3.4-2.3l-.1.1-.1.1-.1-.1c-.5-.5-.8-.6-.9-.6h-.1l-2.2 1.6h-.2l-10.4-1.5h-.1l-3.1-2.4-.2-.2.3-.2c2.5-1.5 4.7-3.4 6.3-5.6l.1-.1h.4v.2l-.4 2.7-1 5.1s.1.1.7.2c.9.1 2 .1 3.2-.2 1.7-.3 1.8-.7 1.9-.8l.4-4.1.5-3.5v-.2h.4v.1c.6 3.2 2.1 6.1 4.6 8.7l.1.2v.5z"/>
  <path id="path123" fill="#DE2910" d="M421.3 79.2l-.1.1c0 .1.1.1.1.2v-.3z"/>
  <path id="polygon125" fill="#DE2910" d="M432.3 54.7z"/>
  <path id="polygon127" fill="#DE2910" d="M430.8 62.6z"/>
  <path id="path129" fill="#DE2910" d="M430.8 51c-.2-.4-.3-.5-.4-.6-.2-.1-.4-.1-.7.1l-3.2 1.5h-.2l-.8-.3-.2-.1.1-.2 1.7-3.8c.1-.3.5-.5 1.3-.7.8-.2.9-.4.9-.4s.1-.2-.7-.9l-4.7-3.8c-.3.8-1.4 3.3-1.4 3.3l-1.9 4.1-.1.2-.2-.1-2.8-1.3-.2-.1.1-.2 1.9-4.1c.1-.3.5-.5 1.2-.6.8-.2.9-.3.9-.3s.1-.3-.8-1l-4.6-3.9c-.3.9-1.4 3.5-1.4 3.5l-1.9 4.2-.1.2-.2-.1-4.6-2.1.6 1.8c1.1.1 2.1.4 2.9.8l.8.4.2.1-.1.2-2.6 5.8-.1.2-.2-.1-5.1-2.3-.3-.1.2-.2 3.4-3.7-.4-.5c-2.9 2.6-5.7 4.8-8.3 6.7-2.7 1.9-4.5 2.9-5.4 2.9-.9 0-1.8-.2-2.7-.6-.4-.2-.9-.5-1.4-.8l-.5.7c1.4 1.1 2.2 2.1 2.4 2.8.2.7.1 1.5-.2 2.3-.3.7-.9 1.6-2 2.9-1 1.2-1.6 2-1.8 2.5-.4.9-.4 2.1 0 3.5s1.1 2.3 1.9 2.7c1.3.6 2.4-.1 3.4-2.1.6-1.3 1-2.6 1.3-3.9.3-1.3.5-2.2.8-2.8l.1-.1h.2c3.1.3 6-.1 8.7-1.1l.5-.2-.2.5-3.9 8.5c-.4.8-.4 1.9 0 3.1.3 1.3 1.3 2.4 2.8 3.2 1.6.9 3.2 1.7 4.8 2.5 3.9 1.8 6.8 2.8 8.6 3 1.8.2 3.5-.6 5-2.5-1.2-1.4-1.7-2.7-1.7-3.7.1-1 .3-2.1.7-3.2l-.5-.4c-.2.4-.6 1-1.2 1.8-.7 1.1-1.3 1.7-1.9 2.1-.6.3-1.4.3-2.5 0s-2.5-.8-4.3-1.7c-2.2-1-3.6-1.8-4-2.3-.5-.6-.5-1.3-.1-2.1l1.5-3.3.1-.2.2.1 4.9 2.2.2.1-.1.2-.7 1.4c-.1.1-.1.2 0 .3.1.2.3.3.6.5.8.3 1.8.5 3.1.5 1.6-.1 2-.4 2.1-.6l1.1-2.4.2-.4.2.4c.6 1.4 1.7 2.9 3.2 4.3 1.9-1.7 3.8-2.3 5.9-1.7l.5-.5c-4.8-3.5-7.7-7.4-8.5-11.8l-.1-.4.4.2 9.7 4.4c.1.1.3.1.5.1.1 0 .2-.1.2-.2v-.4c-.1-.1-2.2-4.5-2.2-4.5-.2-.4-.3-.5-.4-.5-.2-.1-.3 0-.4.1l-3.6 1.7h-.2l-1.7-.8-.2-.1.1-.2 2.6-5.8.1-.2.2.1 6.2 2.8c.4.2.6.2.7.1.1 0 .1-.1.2-.2s.1-.3 0-.6-1.5-3.8-1.5-3.8zM396 60.4l-.6.2.3-.5c1.8-2.7 4.4-5.9 7.6-9.3l.2-.2.1.3.3.7c.6 0 1.3.2 2.3.7l1.6.7.3.1-.2.2c-2.7 3.1-6.7 5.5-11.9 7.1zm19.2 2.9l-2 4.4-.1.2-.2-.1-5-2.3-.2-.1.1-.2 2-4.4.1-.2.2.1 5 2.3.2.1-.1.2zm3-5.4c-.3 1.4-.4 2.6-.3 3.7v.2h-.2l-2.5.3h-.2l-4.6-2.1-1-1.3-.2-.2.2-.1c.2-.1 1.1-.6 4-2.6l.1-.1h.1l4.4 2 .2.1v.1zm1.9-7.5l-2.6 5.8-.1.2-.2-.1-2.8-1.3-.2-.1.1-.2 2.6-5.8.1-.2.2.1 2.8 1.3.2.1-.1.2z"/>
  <path id="path131" fill="#DE2910" d="M402.9 39.8c-.3 1.8.1 2.9 1 3.4.7.3 1.5.3 2.4-.2.9-.5 1.5-1.1 1.8-1.8.8-1.8-1.1-4.6-5.7-8.4l-.7.3.9 2.2c.5 1 .6 2.5.3 4.5z"/>
  <path id="path133" fill="#DE2910" d="M396.1 45.2c-.3 2.8-.2 3.8-.1 4.2.2.4.4.8.8.9.7.3 1.4.2 2.3-.3.9-.5 1.5-1.3 2-2.2.4-.8.3-1.8-.1-2.9-.4-1.1-2.1-2.9-4.8-5.1l-.7.3c.6 1.1.8 2.8.6 5.1z"/>
  <path id="path135" fill="#DE2910" d="M493.4 110.1z"/>
  <path id="polygon137" fill="#DE2910" d="M488.4 115.2v.1z"/>
  <path id="polygon139" fill="#DE2910" d="M494.7 91z"/>
  <path id="polygon141" fill="#DE2910" d="M496.2 102.3z"/>
  <path id="path143" fill="#DE2910" d="M495.7 97.5c0-.2-.1-.3-.2-.4-.2-.1-.3-.2-.6-.1l-3.5.7h-.1l-.1-.1-2-1.7-.2-.1.1-.2 3.3-3.8.1-.1h.1l1.6.3c.1 0 .3 0 .4-.2.2-.2.2-.5.1-.9l-3.8-6c-.7.9-3.4 4.3-3.4 4.3l-2.4 2.8-.1.2-.2-.1-5.9-5.1.2 2c1 .5 1.8.9 2.4 1.4l2.8 2.4.2.1-.1.2-4.2 4.9-.1.2-.2-.1-6.6-5.7v1.9c1.1.4 2 1 2.7 1.6l6.6 5.7.1.1-.1.2s-1.9 2.6-1.9 2.7l-1.8 2.1-.1.2-.2-.1-10.2-8.8.1 1.8c.8.3 1.7.9 2.6 1.6l7 6.1.2.1-.1.2-7.2 8.3c-.2.2-.4.3-.6.3-.4 0-.8-.2-1.3-.6-.6-.5-1.7-1.8-3.4-3.9l-.6.5c.6.8 1 1.8 1.4 2.7.4 1.1.6 1.9.5 2.4-.1.5-.6 1.4-1.5 2.7.7.3 2.8 1.1 2.8 1.1.3.1 1.2.3 2.5.5s2.3-.2 3.2-1.2l8.1-9.3.1-.2.2.1 5.6 4.8s.1.1.2.1.1-.1.1-.1c.1-.1.2-.3.2-.5 0-.3-.5-5-.5-5 0-.3-.1-.5-.2-.6-.2-.2-.4-.2-.7-.1l-3.3 1.2h-.1l-.1-.1-.6-.6-.2-.1.1-.2 1.6-1.9.1-.1h.1c1.5.2 1.8 0 1.8 0 .1-.1.1-.2 0-.4l-3.7-5.3-.1-.1.1-.1.1-.1.1-.2.2.1 9.9 8.5c.1.1.2.1.2.1s.1 0 .1-.1c.1-.1.1-.2.1-.4 0-.4-.6-5.2-.6-5.2 0-.2-.1-.3-.3-.4-.1-.1-.3-.2-.6-.1l-3.8.7h-.1l-.1-.1-3.8-3.3-.2-.1.1-.2 4.2-4.9.1-.2.2.1 6.9 6c.4.3.5.2.5.1.1-.1.1-.2.1-.4.1.1-.4-4.5-.4-4.5z"/>
  <path id="polygon145" fill="#DE2910" d="M482.8 81.1v.1z"/>
  <path id="polygon147" fill="#DE2910" d="M474.2 96.9h-.2l-.1.1z"/>
  <path id="path149" fill="#DE2910" d="M468.1 95.9h.1l5.8.9.3-.9-4.4-1.7-.3-.1.2-.2 3.6-4.2.1-.2.2.1 3.7 3.2c.4.3.5.2.6.1.1-.1.1-.2.1-.4l-.1-4.1c0-.2-.1-.4-.2-.5-.2-.2-.3-.2-.5-.1l-2.5 1h-.1l-.1-.1-.1-.1-.2-.1.1-.2 5.9-6.8.1-.1h.1l1.5.4c.1 0 .3.1.6-.2.2-.2.2-.4.1-.7l-3.9-6.4c-.6.8-2.6 3.4-2.6 3.4l-1.5 1.7-.2.2-.1-.3-2.2-4.5c-3.7 4.2-8.7 8.2-14.9 11.7l.2.6c3.1-.4 6.5-1.4 10.2-3l.1-.1.1.1 1.4 1.2.2.1-.1.2-5.2 6-.1.1-.1-.1-8.3-3.3c-.3 1-1.8 5.6-1.8 5.6-.1.3 0 .5.2.7.1.1.4.2 1.1 0 .6-.2 1.3-.2 2.1-.2l3.7.4h.4l-.3.3-5.2 6-3.6 3.9c-.3.3-.4.6-.4.9 0 .2.1.4.4.6.5.4 1.4.9 2.8 1.4 1.3.5 2.2.4 2.8-.3l3.1-4 7.1-7.9zm.7-11.6l-.3-.2.3-.1c.1-.1.7-.4 3.3-2.4l.1-.1h.1l.6.2.3.1-.2.3-2.8 3.3-.1.2-.2-.1-1.1-1.2z"/>
  <path id="path151" fill="#DE2910" d="M467.1 110.7c.6.5 1.4.7 2.2.6.9-.2 1.6-.6 2.1-1.2.6-.7.9-1.6.9-2.7s-.6-2.9-1.8-5.4l-.8.1c-.1 1.7-.9 3.5-2.5 5.4-1.1 1.2-1.1 2.3-.1 3.2z"/>
  <path id="polygon153" fill="#DE2910" d="M541.8 158z"/>
  <path id="path155" fill="#DE2910" d="M548.6 155.8c-.7.8-2 1.8-3.7 3L519.8 175c-.7.5-1.4.3-1.9-.4-.6-.9-1.3-2.6-2.4-5.1l-.8.2c.5 1.8.7 3.2.7 4.2-.1 1.1-1.1 2.3-3 3.7 3.4 3.3 6.5 4.1 9 2.5l26-16.7c.8-.5 1.5-.5 2.3.1.3.1.5.1.7 0 .2-.1.2-.3.2-.5l-2-7.2z"/>
  <path id="path157" fill="#DE2910" d="M538.8 150.6z"/>
  <path id="path159" fill="#DE2910" d="M521.8 160.4h.2l1.9.5c.2.1.4 0 .5 0 .1-.1.2-.2.2-.4l.5-4.6c0-.2-.1-.4-.2-.7-.2-.3-.4-.4-.6-.5l-3.5-.8h-.1v-.1l-1.7-2.6-.1-.2.2-.1 2.5-1.3.1-.1.1.1 1.4.8c.2.1.4.1.6 0 .2-.2.3-.4.2-.7l-1.5-5.2v-.2l.1-.1.7-.4.2-.1.1.2 3.9 6 .1.2-.2.1-2.4 1.5-.3.3c0 .1 0 .3.1.5.2.3.8.9 1.8 1.8 1.2 1 1.7 1.3 1.9 1.4.3.1.5 0 .7-.1l2.9-2 4-2.6c1.1-.7 2-.8 2.7-.3.2 0 .4 0 .6-.1.2-.1.3-.3.3-.5s.4-4.8.4-4.8c0-.2-.1-.4-.2-.6-.2-.3-.4-.4-.6-.5l-3.5-.7h-.1v-.1l-3-4.6-1.1-6.9c-.8.6-2.1 1.5-3.7 2.6l-6 3.9-4.5 2.7c-.2.1-.3.3-.4.4 0 .1 0 .2.1.4.4.6 1.1 1.3 2.2 2.4l.2.2-.2.1-2.7 1.8c-2.7 1.8-5.9 3-9.4 3.6-3.5.6-7.1.6-10.7-.2l-.3.8c7.8 3.2 15.1 3.5 21.7 1l.2-.1.1.1 2.3 3.5.1.2-.2.1c-2.2 1.2-4.6 2.5-7.1 3.7-3.8 1.8-4.2 1.8-4.3 1.8-.4 0-.7-.2-1-.7-.4-.7-1.1-2.4-1.9-5.2l-.7.1c.2 2.1.1 3.5-.4 4.3-.4.8-1.2 1.5-2.3 2.1.7.9 1.4 1.7 2.1 2.4.7.7 1.5 1.3 2.3 1.8.8.4 1.6.6 2.4.6.8-.1 2.4-.6 4.8-1.7 2.2-1.5 4.8-2.8 7.5-4.2zm2.5-17.4l6.9-4.5.2-.1.1.2 3.9 6 .1.2-.2.1-6.9 4.5-.2.1-.1-.2-3.9-6-.1-.2.2-.1z"/>
  <path id="polygon161" fill="#DE2910" d="M539.7 150v.1z"/>
  <path id="path163" fill="#DE2910" d="M541.5 158.6c.2-.1.3-.3.2-.6l-1.8-6.7c-.5.5-1.2.9-1.9 1.4-.9.6-1.5 1-1.9 1.3l-13.4 8.6-4.8 2.9c-.3.1-.4.3-.4.5s0 .4.2.7c0 0 .3.3 2.1 1.7 1.3 1 2.2 1.3 2.9.8 0 0 3.7-2.6 3.8-2.6l12.2-7.8c.8-.5 1.6-.5 2.4 0 .1-.1.3-.1.4-.2z"/>
  <path id="path165" fill="#DE2910" d="M553.1 218.5c1-.3 1.9 0 2.6.9.3.4.5.3.5.3.1 0 .3-.2.3-.4l.5-2.3v-.3l.2.1c1.6.6 2.6 1 3 1.1 1.3.6 2.1 1.4 2.3 2.2.1.4.3.4.5.3.2-.1.4-.2.5-.6l1.9-6.9.1-.3.2.1c3 1.5 4.6 2.8 5.1 3.9.1.4.3.4.5.3.2-.1.4-.3.5-.7l1.9-6.5c-7.3-.9-13.1-2.7-17.1-5.4l-.5.8c2.7 2.7 5.6 5 8.5 6.9l.2.1-.1.2-.1.1-.1.1h-.1c-7.8-.4-15.1-2.3-21.6-5.7l-.5.7c2.6 2.5 5.1 4.3 7.2 5.5l.4.2-.5.1-11.9 3.5-5.2 1.3c-.2 0-.3.1-.4.2-.1.2-.1.6 0 1.2.3.9.8 1.8 1.5 2.7.9 1.1 1.4 1.2 1.6 1.2l4.7-1.6 13.4-3.3z"/>
  <path id="path167" fill="#DE2910" d="M578.3 233c-.1-.2-.2-.4-.5-.5l-4-1.7h-.1v-.1l-3.8-13.1-1 1.6c.6.7 1.1 1.8 1.5 3.3l4.4 15.1c.2.7.4.9.5 1h.1c.1 0 .3-.1.6-.6l2.2-4.2c.1-.3.2-.6.1-.8z"/>
  <path id="path169" fill="#DE2910" d="M568.7 239.1l-4-2h-.1v-.1l-5.3-18.2-1.2 1.5c.7 1 1.4 2.2 1.8 3.6l2.1 7.3.1.2-.2.1-16.5 4.8c-.5.2-1 .1-1.3 0-.3-.2-.5-.4-.6-.8-.1-.5-.5-2.6-.9-6.3h-.7c-.2 4.2-1.7 6.8-4.5 7.9 2.2 4.1 4.6 5.8 7.1 5l18.9-5.5.2-.1.1.2 2.3 7.8c.1.4.2.5.3.5h.1c.1 0 .2-.1.4-.4l2.4-4.3c.2-.3.2-.5.2-.7-.1-.2-.3-.3-.7-.5z"/>
  <path id="polygon171" fill="#DE2910" d="M585.9 311.6v-.1z"/>
  <path id="path173" fill="#DE2910" d="M570.9 301.2l-.4-.1.3-.3 2-1.7c.2-.2.3-.3.3-.5 0-.1 0-.3-.1-.3l-2.6-1.7-.6-.4h10.7v5.7c0 .1 0 .2.1.2h.1c.1 0 .2 0 .3-.1.1-.1 4.2-4 4.2-4 .1-.1.1-.2.1-.4s-.1-.4-.2-.5l-3.7-2.9-.1-.1v-13.6l-1.5 1.1c.4 1.4.6 2.4.6 3v6.3h-22.7v-.2l-.3-1.4-.1-.3h13.4c.6 0 1.1.2 1.5.6.3.3.5.5.7.5.2 0 .2-.1.2-.1l2.2-6.4c-1 0-4.5.2-4.5.2h-14.1v-.2l-.7-3.6c-1.1.5-5.6 2.5-5.6 2.5-.9.4-1 .7-1 .7 0 .1.1.3.6.7.5.4.8.6 1 .9.1.1.4.6 1.3 2.6.7 1.5 1.5 3.5 2.5 5.9l4.4 11.1.9-.2-1.7-7.6-.1-.3h10.8v4.6l-.3-.1c-2.2-.6-4.7-1.6-7.6-2.9l-.3.5c1.9 2 4.2 3.9 6.9 5.6l.1.1v.4h-.2c-4.4.4-7.6 1-9.5 1.7h-.1l-.1-.1c-5.4-4.3-9.4-9.6-12-15.7l-.5.2c2 8.3 4.9 14.5 8.8 18.4l.2.2-.2.1c-2.6 1.9-5.1 4.2-7.4 6.8 2.5 1.7 3.9 4.1 4 7l.7.2c1.8-5.3 3.9-9.1 6.4-11.3l.1-.1.1.1c3.3 1.9 7.6 3.2 12.6 3.9.8.3 1.6 1 2.1 2 0 .4.2.5.4.5.1 0 .2 0 .4-.3l.8-2 .1-.1h.5v5.8c0 .3.1.3.3.3.1 0 .2-.1.3-.2l4.2-4.6c.2-.2.2-.4.2-.6 0-.2-.1-.4-.3-.5l-3.8-2.8-.1-.1v-5.6l.3.1c.2.1 1.4.4 3.6.9s3.4.9 3.8 1c.4.1.8.5 1.1 1.1.2.4.4.7.6.7.2 0 .3-.1.5-.3l2.6-7.2c-5.7-.3-11.7-1.3-17.5-2.8zm4.2 9.9c-5.3-.2-9.4-.7-12.2-1.5l-.4-.1.3-.3c1.4-1.2 3.9-2.4 7.6-3.5h.2c2.1 1 3.6 1.7 4.6 2l.1.1v3.2l-.2.1z"/>
  <path id="polygon175" fill="#DE2910" d="M566 399.4z"/>
  <path id="polygon177" fill="#DE2910" d="M533.5 392.1h-.1z"/>
  <path id="path179" fill="#DE2910" d="M574 364.2l-26.5-7.8c-1-.3-1.6-1.1-1.8-2.5 0-.2-.1-.4-.3-.4-.2-.1-.3 0-.4.1l-4.5 2.7c-.2.1-.3.3-.4.6-.1.4 0 .7.2 1l1.5 3v.2l-9 30.6c-.1.3 0 .4.2.5h.3c.1-.1 4.7-2.8 4.7-2.8.2-.1.3-.2.3-.4 0-.1 0-.3-.1-.5l-2.4-3.6-.1-.1v-.1l7-23.9.1-.2.2.1 30.7 9 .2.1-.1.2-8.6 29.1c-.1.4 0 .4.1.4 0 0 .2 0 .4-.1.1-.1 5-3 5-3 .2-.1.3-.2.4-.4.1-.2 0-.4-.2-.6l-2.6-3.9-.1-.1v-.1l6-20.3 4.6-5.5c-.8-.3-4.7-1.3-4.8-1.3z"/>
  <path id="path183" fill="#DE2910" d="M567.3 389.7c.1-.3.1-.5 0-.7l-1.8-3.1v-.2l1.8-6.3 4.1-5.1c-1-.2-3.9-1-3.9-1l-3.8-1.1-3.7-1.3c-.2-.1-.4-.1-.5 0-.1 0-.1.1-.2.3-.1.3-.2 1.3-.3 2.8-.1 1 0 2.2.7 2.4l.6.2.2.1-.1.2-2.2 7.6-.1.2-.2-.1-1.6-.5c-.2-.1-.4-.1-.5 0-.1.1-.2.2-.3.4-.1.2-.1.8-.1 2.4 0 1.6.2 2.1.2 2.2.1.2.3.4.6.4l2 .4 3.4 1h.1v.1l.7 1.5c.1.2.2.3.3.3.1 0 .3 0 .5-.1.1-.1 3.6-2.5 3.6-2.5.2-.1.4-.3.5-.5zm-3-3.3l-.2-.1-4.9-1.4-.2-.1.1-.2 2.2-7.6.1-.2.2.1 4.9 1.4.2.1-.1.2-2.2 7.6-.1.2z"/>
  <path id="polygon185" fill="#DE2910" d="M550.5 393.6h-.1z"/>
  <path id="path187" fill="#DE2910" d="M552.5 387.5v-.2l.5-1.7 3.7-4-1.9-.4-.4-.1.3-.3 3.3-2.7c.1-.1.2-.2.3-.4 0-.2 0-.3-.1-.4l-2-2.6-.1-.1v-.1l.6-2v-.1l4.4-4.4c-1-.3-4.1-1.1-4.1-1.1l-7.3-2.1-5.3-1.7c-.2-.1-.4-.1-.5 0-.1 0-.2.2-.2.3-.1.5-.3 1.5-.3 2.9-.1 1.3.2 2.1.7 2.2l2.7.8.2.1-.1.2-.6 2-.1.2-.2-.1-1.3-.4-2.1-.7c-.2-.1-.3-.1-.4 0-.1.1-.2.2-.3.5-.1.2-.1.8-.1 2.4.1 1.7.2 2.1.3 2.2.1.2.3.3.5.3 0 0 3.9 1 4 1l6.1 1.8h.1v.1l.6 1.6.2.4-.4-.1-7.6-2.2-4.7-1.6c-.2-.1-.4-.1-.5 0-.1 0-.2.1-.2.3-.1.5-.2 1.1-.2 2 0 .8.1 1.5.2 1.9.1.4.3.6.6.7l2.1.6.2.1-.1.2-.6 2-.1.2-.2-.1-1.5-.4c-.4-.1-.6 0-.8.4-.1.2-.1.8-.1 2.3.1 1.6.2 2 .3 2.2.1.2.3.3.6.4 0 0 2.9.7 3 .7l5.2 1.5h.1v.1l.5 1.4c0 .2.2.3.3.3.1 0 .3 0 .5-.1s3.9-2.8 3.9-2.8c.1-.1.2-.2.3-.4 0-.1 0-.2-.1-.4l-1.8-2.6zm-5-15.6l-.2-.1.1-.2.6-2 .1-.2.2.1 7.6 2.2.2.1-.1.2-.6 2-.1.2-.2-.1-7.6-2.2zm4.6 13.3l-.6 2-.1.2-.2-.1-7.6-2.2-.2-.1.1-.2.6-2 .1-.2.2.1 7.6 2.2.2.1-.1.2z"/>
</svg>
