<svg xmlns="http://www.w3.org/2000/svg" xmlns:xlink="http://www.w3.org/1999/xlink" version="1.1" viewBox="0 0 390 390" id="svg2">
  <defs id="defs4">
    <clipPath id="b">
      <circle cx="200" cy="196.82001" r="187.99001" id="e" stroke="#000" stroke-width=".72000003"/>
    </clipPath>
  </defs>
  <use transform="translate(-5 -4.9991164)" id="use8" x="0" y="0" width="390" height="390" xlink:href="#e" fill="#00b0ca"/>
  <g transform="translate(-5 -4.9991164)" id="g10" stroke-linecap="round" stroke-linejoin="round">
    <g clip-path="url(#b)" id="g12">
      <use transform="matrix(-1 0 0 1 400.02 0)" id="use14" x="0" y="0" width="390" height="390" xlink:href="#d"/>
      <g id="d" fill="#fed100" stroke="#000">
        <path d="M257.3969 298.538032l-11.906369-17.8608868c-10.5677358 6.1398465-20.7408148 11.9103689-37.8590535 13.2303359l-7.3744823 8.8544453 10.239744 8.7357816 7.1798205-8.6224511-4.7318817-4.1092306-2.2612768 2.5212703 1.9839504 1.679958-2.7639309 3.3572494-4.2905594-3.6639084 4.0025666-4.7318817c14.9529595-2.0426156 25.1447047-6.6811663 35.9751006-12.6690166l9.2104364 14.6543003 2.586602-1.359966z" id="path17" stroke-width=".719982026666"/>
        <path d="M216.67 212.04l170.58 1.58c.14-1.54.23-3.1.33-4.66l-170.5 1.58L388 197.21v-.38c0-1.45-.01-2.88-.04-4.33l-171.13 16.58 170.46-28.45c-.13-1.57-.29-3.12-.46-4.67l-170.41 31.71 168.7-43.59c-.27-1.54-.56-3.09-.87-4.62l-168.17 46.79 165.42-58.5c-.42-1.53-.84-3.06-1.29-4.58l-164.63 61.71 160.84-73.17c-.56-1.5-1.16-2.98-1.75-4.46l-160 76.42 155.12-87.63c-.69-1.44-1.4-2.83-2.12-4.25L214.5 202.08 361.71 101c-.83-1.385-1.65-2.763-2.5-4.125L213.5 200.915l138.83-114.22c-.94-1.297-1.9-2.596-2.87-3.871l-137.04 117.13 129.16-126.71c-1.07-1.232-2.14-2.465-3.25-3.668l-127 129.38 118.25-138.25c-1.17-1.119-2.34-2.204-3.54-3.292l-115.54 140.2 105.96-148.33c-1.27-1.001-2.54-1.989-3.84-2.958L209 197.206l93.25-158.13c-1.36-.881-2.74-1.725-4.13-2.577l-90.29 159.79 79.34-166.04c-1.44-.752-2.88-1.487-4.34-2.205l-76.33 167.58 64.75-172.78c-1.53-.63-3.07-1.247-4.63-1.835l-61.37 173.72 49.5-177.58L250 15.89l-46.25 178.66L237.5 13.09l-4.83-.828-30.42 182.17 17.83-183.84-4.83-.411-14.5 184.62 1.75-185.21-4.92.003 1.75 184.96" id="l" stroke-width=".72000003"/>
        <use transform="matrix(1 0 0 -1 0 422.59)" id="use20" x="0" y="0" width="390" height="390" xlink:href="#l"/>
      </g>
    </g>
    <g id="g22" fill="#fed100" stroke="#000" stroke-width=".72000003">
      <path d="M199.55 28.974c.185-.44.752-.383.899-.004l2.566 7.931 8.328-.028c.478.039.593.57.312.833l-6.775 4.912 2.587 7.868c.166.477-.338.808-.698.589l-6.749-4.917-6.695 4.9c-.396.281-.86-.074-.762-.496l2.589-7.932-6.791-4.899c-.282-.269-.143-.801.313-.83l8.33.007 2.55-7.934z" id="path24"/>
      <circle cx="200" cy="211.49001" r="54.529999" id="circle26"/>
      <circle cx="200" cy="211.49001" r="50.221001" id="circle28"/>
      <circle cx="200" cy="211.49001" r="44.445" id="circle30"/>
      <circle cx="200" cy="211.49001" r="40.034" id="circle32" stroke-width="4.4000001"/>
      <circle cx="200" cy="211.49001" r="36.695" id="circle34" fill="#00b0ca"/>
    </g>
    <use id="use36" x="0" y="0" width="390" height="390" xlink:href="#e" fill="none"/>
    <g transform="scale(.8)" id="g38">
      <g id="c" fill="none" stroke="#000" stroke-width=".89999998">
        <g id="g41" fill="#fed100">
          <path d="M481.84 208.39l-44.29-28.22-1.65 3.28 46.89 31.5-.95-6.56z" id="path43"/>
          <path d="M484.21 228.34L431.5 190.1l-2.28 2.9 55.37 41.5-.38-6.16z" id="path45"/>
          <path d="M484.83 249.05l-60.13-49.36-2.41 3.15 62.31 53.13.23-6.92z" id="path47"/>
          <path d="M483.64 269.02l-64.99-58.97-2.47 3.22 66.64 63.35.82-7.6z" id="path49"/>
          <path d="M480.76 289.52l-69.93-72.03-2.48 3.23 71.02 75.87 1.39-7.07z" id="path51"/>
          <path d="M475.89 309.79l-72.5-83.7-2.48 3.21L474 316.69l1.89-6.9z" id="path53"/>
          <path d="M469.96 328.56l-75.16-91.99-2.48 3.22 75.01 95.42 2.63-6.65z" id="path55"/>
          <path d="M462.14 346.82l-72.49-99.55-2.48 3.22 71.88 102.57 3.09-6.24z" id="path57"/>
          <path d="M452.83 364.42l-69.29-101.9-2.47 3.23 68.41 104.32 3.35-5.65z" id="path59"/>
          <path d="M477.29 186.87l-36.31-19.48-1.65 3.28 39.66 22.93-1.7-6.73z" id="path61"/>
          <path d="M471.02 166.62l-35.69-14.6-1.65 3.28 39.78 18.24-2.44-6.92z" id="path63"/>
          <path d="M463.24 147.64l-35.69-14.61-1.65 3.28 40.52 18.42-3.18-7.09z" id="path65"/>
          <path d="M453.34 128.47l-35.7-14.6-1.64 3.27 41.53 18.8-4.19-7.47z" id="path67"/>
          <path d="M250 488.96c.226-.001.45.001.676 0 39.297-.287 81.301-9.54 117.71-30.885l12.604-7.292c14.343-8.943 26.758-19.741 38.75-30.364l14.844-8.386c7.108-4.309 5.455-9.124 3.021-10.833l-6.771-5.209c19.727-24.323 21.085-42.439 12.292-70-6.495-17.506-10.049-30.022-.469-47.916 2.794 1.747 6.948 7.366 3.125 13.698-3.691 7.25-.657 11.615 4.426 15.104l2.865-.625 1.459 2.396 11.823.677c7.686-5.402 3.986-11.707.938-16.824l.573-17.916 5.209-7.031-1.927-13.334c5.372.137 7.354-2.927 8.594-5.416l-4.219-2.396c5.908-1.083 4.65-10.402-1.25-10.156 2.462-8.896 2.291-17.771.99-26.667 2.786-1.436 3.024-5.436-.469-6.666 2.144-3.928 1.614-10.659-1.979-15.104 1.892-.869 2.201-4.447-.938-5.156.375-4.294.557-8.609-3.699-14.271 1.412-2.243-.074-4.84-2.551-4.896-.221-5.961-.535-10.619-4.844-13.854 1.821-2.1.001-4.975-2.24-5-1.229-4.818-1.384-8.19-6.459-13.698.988-1.193.243-4.322-2.344-4.167-1.392-4.188-2.31-8.529-7.708-13.385.023-1.199-.635-2.992-2.344-3.281-2.69-5.157-6.171-9.688-10.261-13.698-.636-1.542-1.497-2.606-2.604-3.229-15.011-18.105-32.756-34.122-55.416-48.021-11.245-5.578-22.938-8.281-33.802-8.333-32.59-.158-57.664 23.526-40.104 64.635 3.759-3.948 7.595-7.614 11.666-10.469l.99 9.062 8.333 1.198c-11.05 11.657-13.899 24.925-5.833 41.302 5.006-4.642 9.602-9.186 16.094-12.344l.676 8.542 8.281 1.667c-9.331 7.852-10.253 16.285-10.52 25.989 23.005-14.253 43.331-2.382 42.031 29.739-.074 1.819-.519 9.044-.834 12.865.793-14.753-12.046-22.516-8.698-34.427-7.988-1.523-13.823-.145-14.584 8.073-5.223-1.091-9.105-.604-11.875 1.25-7.122 5.999-6.256 16.901 2.865 20.469 3.923 1.238 8.412.084 11.458-3.75 1.548 2.106 2.729 5.634 3.177 10-6.71-4.278-13.43-.217-13.281 5.989.233 8.073 8.251 9.578 13.646 5.469.065 3.111-.156 5.77-1.406 8.177-1.852-3.804-8.557-3.893-9.688 1.146-1.31 5.403 4.025 7.676 6.719 6.094l-.313 2.292c-9.061 12.573-12.74 23.647-13.23 34.166-.536 11.531 2.883 21.959 7.605 31.562-8.591 5.338-20.985 7.269-36.199 6.615l-8.906 9.219 34.949 43.698c-19.575 17.429-53.702 25.747-79.949 25.365-.223-.004-.454.005-.676 0m194.52-231.86c.079 3.437.237 6.863 1.979 9.635-1.504 2.35-.8 5.826 1.094 7.031-1.276 3.012-.583 7.723.938 9.896-2.157 1.554-2.322 6.2.521 8.125-1.919 3.202-1.866 6.381-.052 9.583-2.662 1.96-2.158 7.361.313 8.177-1.372 3.475-1.461 7.451-.209 10.417-37.339-8.996-39.67 30.278-65.208 54.114-3.43-43.79 50.64-55.82 60.63-116.99z" id="path69"/>
          <circle cx="462.10001" cy="264.57001" r="1.6720001" transform="matrix(-.8117 .584 -.584 -.8117 991.72 209.46)" id="circle71" fill="#fed100"/>
        </g>
        <path d="M337.05 365.2c-2.537 7.196 2.931 10.005 9.923 4.641 6.621-5.297 5.78-17.645-4.74-17.666l-13.3 1.678c-8.158.51-11.061-6.273-8.818-11.06l2.643-5.917c2.892-5.963-1.398-7.523-4.08-6.952l-8.215 2.356c-6.376 2.334-8.335-2.6-5.831-6.521l2.394-4.347" id="path73"/>
        <path d="M429.39 341.19l5.56-7.808c-19.418-61.946-5.977-76.824 5.916-91.806 9.077 11.243 22.157 21.315 31.707 22.547" id="path75"/>
        <path d="M468.62 263.24c-8.267 8.772-12.572 13.079-11.75 29.844-.175-8.131-1.833-19.409-7.158-23.759-16.1 14.181-22.189-17.938-3.309-12.052.438-5.533-2.739-11.291-5.386-15.498" id="path77"/>
        <path d="M446.23 256.8c-1.257-2.03-3.187-3.921-5.767-5.054-11.461 6.89-10.977 20.83 2.206 26.775 4.332-1.948 6.522-5.557 7.07-9.24" id="path79"/>
        <path d="M460.16 259.12c-2.712 3.213-4.436 8.862.693 12.583" id="path81"/>
        <path d="M440.84 241.93v9.84" id="path83"/>
        <path d="M467.36 292.74c-7.744.662-15.47 1.295-21.058-1.124" id="path85"/>
        <path d="M466.12 298.46c-3.655 1.786-4.137 4.794-1.774 7.885 3.81-2.26 3.32-4.83 1.77-7.88z" id="path87"/>
        <path d="M467.01 300.36c-2.587 1.34-2.562 3.037-1.093 4.865" id="path89"/>
        <path d="M451.55 306.23l3.912-7.435-1.073 10.018" id="path91"/>
        <path d="M345.03 310.72c-7.568 3.384-19.78 6.699-38.726 3.325" id="path93"/>
        <path d="M430.65 344.99l17.429 10.358" id="path95"/>
        <path d="M324.89 315.65c2.938 6.028 4.353 12.892 4.432 19.617" id="path97"/>
        <path d="M304.66 312.1l115.05 108.32" id="path99"/>
        <path d="M329.68 315.29c3.833 9.042 6.379 16.482 8.82 28.301" id="path101"/>
        <path d="M332.88 314.76c5.607 10.284 11.464 23.225 14.968 37.705" id="path103"/>
        <path d="M336.43 313.87c10.791 16.564 18.826 33.481 21.295 47.028" id="path105"/>
        <path d="M340.12 312.81c12.126 14.96 21.182 30.822 25.331 48.127l8.552 7.598 7.141-6.748" id="path107"/>
        <path d="M343.17 311.92c19.142 18.406 26.432 36.492 30.878 56.077" id="path109"/>
        <path d="M364.29 309.61c5.166 12.217 15.718 19.631 26.594 23.606l.004 20.337 2.639-1.077 1.205 12.039 2.078-.269.114 10.333" id="path111"/>
        <path d="M351.51 281.58c-4.402 19.25 14.786 33.948 33.008 34.427" id="path113"/>
        <path d="M355.95 254.42c-14.873 16.587-.831 43.176 19.52 46.849" id="path115"/>
        <path d="M391.08 333.39l12.07.089" id="path117"/>
        <path d="M393.39 352.42l17.214-8.557" id="path119"/>
        <path d="M396.94 364.27l15.972-14.374" id="path121"/>
        <path d="M383.99 275.54c5.393 38.181 39.955 41.123 47.471 72.764l-17.244 6.388-17.272 20.048" id="path123"/>
        <path d="M422.15 158.18c-.82 10.933-4.192 20.203-7.999 28.22-16.008 33.716-42.048 46.836-45.458 76.409-1.299 10.481.791 20.829 3.993 30.769 11.718 34.48 36.525 33.011 41.394 61.128" id="path125"/>
        <path d="M366.66 235.87c-16.421 13.146-13.643 39.235 3.435 49.922" id="path127"/>
        <path d="M359.12 175.06c-6.249 2.245-7.043 8.354-1.083 19.248 13.507 37.664-20.729 51.273-20.271 83.039 1.482 33.138 21.172 36.995 32.502 54.58 11.317 14.172 7.715 33.064 26.444 42.344" id="path129"/>
        <path d="M368.31 209.62c-.094 3.433-.704 6.244-1.127 8.285-4.993 24.141-20.234 29.996-22.533 57.748 2.565 30.891 17.584 36.111 33.081 55.549 9.504 11.921 5.905 26.558 19.462 42.588" id="path131"/>
        <path d="M345.16 182.64c7.737 4.825 11.334 16.906 11.538 27.449.22 11.451-3.054 21.003-10.393 29.852" id="path133"/>
        <path d="M349.86 210.21c4.321 3.224 5.886 10.826 4.071 16.931" id="path135"/>
        <path d="M349.8 190c.428 3.011.107 7.296-2.162 10.612" id="path137"/>
        <path d="M353.87 194.71c-1.736-4.363-6.238-6.987-9.603-6.539-1.323.176-2.828.97-3.582 2.185-1.045 2.122-.225 3.983 1.34 4.77 1.101.545 2.393.316 3.109.107 1.963-.571 2.886-3.746 2.883-6.068" id="path139"/>
        <path d="M351.06 222.48c.029-2.086.051-6.356-3.268-6.339-1.527.137-2.233 1.337-1.931 2.429.712 2.265 3.518 2.436 4.807.51" id="path141"/>
        <path d="M349.52 229.87c1.106 2.106.898 4.073.211 5.58" id="path143"/>
        <path d="M347.33 238.29c1.018-1.503 1.278-4.683-1.539-4.985-2.584-.222-3.296 4.897 1.407 3.901" id="path145"/>
        <path d="M340.55 305.09c6.538 9.633 17.538 17.246 25.31 27.173 10.372 13.247 10.591 34.727 31.289 41.957" id="path147"/>
        <path d="M369.63 338c2.083 4.351 3.594 11.885 3.033 17.356 3.879 1.708 5.839 3.622 8.262 6.343" id="path149"/>
        <path d="M474.41 236.17c-22.007 5.38-28.232-15.883-50.154-4.073-15.593 8.396-18.252 28.868-38.729 50.433" id="path151"/>
        <path d="M471.3 254.31c-18.662-1.846-22.655-23.077-32.992-25.814" id="path153"/>
        <path d="M479.66 248.92c-7.906 5.855-22.437-.472-25.868-4.611" id="path155"/>
        <path d="M412.88 312.11l21.754 20.789" id="path157"/>
        <path d="M475.98 246.32c-16.411 3.715-23.698-9.76-33.755-16.061" id="path159"/>
        <path d="M440.69 229.02c5.618 1.211 10.98 7.871 19.934 9.624 3.818.748 6.991.784 9.559.333 4.374-.768 6.696-.7 7.115 2.203.57 4.653-8.976 5.647-19.985 1.378" id="path161"/>
        <path d="M472.75 245.07c3.073-1.172 3.038-3.246 2.517-3.857-1.545-1.807-3.744.169-8.843-.076-3.568-.173-10.22-2.44-16.093-6.926" id="path163"/>
        <path d="M424.58 232.15c-.546 3.86.609 12.722 1.788 17.755l-2.262 6.84-4.742-.88" id="path165"/>
        <path d="M415.55 239.53c.116 5.626 3.801 18.445 6.648 27.207l-2.081 7.104-6.475-.419" id="path167"/>
        <path d="M406.9 252.25c2.665 12.498 7.332 23.887 12.695 32.205l-1.08 8.313-6.653-.137" id="path169"/>
        <path d="M399.35 264.8c4.315 16.545 12.6 29.563 23.009 40.692l-.768 7.294-8.883-1.88" id="path171"/>
        <path d="M392.52 274.52c3.346 14.004 11.167 25.64 20.237 36.615l-.664 3.738-4.434.155" id="path173"/>
        <path d="M388.83 278.84c4.395 14.719 11.338 25.619 22.771 35.801" id="path175"/>
        <path d="M395.96 269.94c4.683 16.477 14.629 32.035 25.316 42.671" id="path177"/>
        <path d="M403.21 258.61c2.869 12.938 8.531 23.64 14.757 33.894" id="path179"/>
        <path d="M411.35 245.38c2.037 10.186 4.469 20.044 8.524 28.55" id="path181"/>
        <path d="M420.25 235.08c.369 7.285 1.295 14.478 3.689 21.425" id="path183"/>
        <path d="M399.75 372.34l30.858 23.553" id="path185"/>
        <path d="M338.92 372.63l35.432 42.393 20.289-18.169" id="path187"/>
        <path d="M362.82 401.54l-10.114 7.813" id="path189"/>
        <path d="M363.74 354.76l-6.233 6.796" id="path191"/>
        <path d="M249.97 398.3c25.49 0 49.523-6.273 70.638-17.358" id="path193"/>
        <path d="M308.61 77.895c32.29-37.411 97.782-16.016 123.75 61.27" id="path195"/>
        <path d="M308.78 78.099c31.067-12.241 59.943-6.179 81.05 11.25 8.561 7.068 16.021 16.36 21.918 26.265" id="path197"/>
        <path d="M309.05 91.11c10.244-8.516 29.546-14.307 50.049-11.177 22.081 3.76 40.105 15.688 51.52 33.828 9.207 14.052 12.864 30.413 11.268 46.852" id="path199"/>
        <path d="M308.98 78.099c4.451-21.857 20.304-29.512 38.358-29.273 37.666.115 62.831 23.255 81.345 52.875 9.141 15.864 15.99 35.548 15.925 57.664" id="path201"/>
        <path d="M318.83 101.09c21.077-13.499 42.278-11.391 59.301-3.029 10.818 5.314 24.102 16.157 29.822 27.833" id="path203"/>
        <path d="M440.16 128.72l-17.858 24.272" id="path205"/>
        <path d="M441.51 132.78l-19.182 26.259" id="path207"/>
        <path d="M311 99.641c33.773-27.558 82.825-12.67 100.91 23.937 12.112 25.522 7.378 47.548-3.361 68.209-8.276 15.923-22.803 31.631-30.569 46.312" id="path209"/>
        <path d="M321.34 126.01c8.295-30.822 47.844-33.035 72.88-15.404 13.263 9.474 19.744 24.547 21.295 40.353 2.898 34.869-24.376 59.295-38.759 87.687" id="path211"/>
        <path d="M321.34 126.21c21.136-11.979 52.366-8.257 67.101 10.898 6.772 8.805 11.387 23.168 5.604 42.267" id="path213"/>
        <path d="M328.82 130.22c11.844-5.72 25.095-5.239 34.425-2.783 20.887 5.5 31.278 23.559 32.183 37.168 1.768 26.62-22.301 49.211-19.021 74.937" id="path215"/>
        <path d="M330.04 137.8c30.239-16.763 56.506 4.272 59.788 21.211 6.172 31.871-23.389 52.114-17.477 88.264" id="path217"/>
        <path d="M337.76 140.31c21.735-10.259 41.864 2.575 47.61 20.972 8.422 26.968-27.272 51.074-16.118 96.037" id="path219"/>
        <path d="M321.73 126.01c37.609-32.88 70.795-10.778 79.651 7.224 8.041 16.345 6.093 32.808-2.506 54.453-5.293 13.325-18.274 34.973-21.469 49.431" id="path221"/>
        <path d="M341.43 154.41c15.313-20.698 61.154-.634 27.371 53.768" id="path223"/>
        <path d="M445.82 220.75c5.782 2.214 12.937 6.602 19.963 16.028" id="path225"/>
        <path d="M249.97 407.73c25.089 0 48.849-5.723 70.045-15.935" id="path227"/>
        <path d="M249.97 455.29c37.006 0 71.776-9.622 101.95-26.497" id="path229"/>
        <path d="M249.97 468.57c31.565 0 61.602-6.582 88.811-18.448" id="path231"/>
        <path d="M315.56 383.6l23.281 42.925" id="path233"/>
        <path d="M330.66 364.99c4.534-4.102 7.124-1.765 6.285.5" id="path235"/>
        <path d="M455.37 225.41c7.057.848 11.304 5.142 13.485 11.248" id="path237"/>
        <path d="M468.72 235.59c1.476-3.466 4.187-6.005 6.996-8.47" id="path239"/>
        <path d="M475.21 209.76c-4.259 4.404-7.146 11.229-3.054 20.662" id="path241"/>
        <path d="M475.34 209.64c-6.597 2.006-16.266 2.955-25.825 1.58" id="path243"/>
        <path d="M474.83 202.89c-4.681 2.713-18.895 3.564-25.698-.201" id="path245"/>
        <path d="M475.21 209.76c-7.932.771-21.896-.579-27.479-3.382" id="path247"/>
        <path d="M449.77 211.54c2.57 3.016 3.534 6.835 2.036 11.884" id="path249"/>
        <path d="M449.13 192.97c2.952 1.235 4.806 8.107.764 9.849" id="path251"/>
        <path d="M472.67 188.14c-3.368 4.277-2.565 11.865 1.272 14.938" id="path253"/>
        <path d="M472.79 187.88c-4.935 2.078-18.004 2.929-25.443.69" id="path255"/>
        <path d="M472.03 188.39c-5.452 2.896-16.775 4.482-23.026 4.633" id="path257"/>
        <path d="M471.78 182.67c-3.154 2.205-14.697 5.854-23.154 2.47" id="path259"/>
        <path d="M467.58 168.93c-1.887 4.308-.739 10.418 3.689 13.793" id="path261"/>
        <path d="M468.22 168.42c-5.042 2.884-11.124 5.782-20.609 6.541" id="path263"/>
        <path d="M465.67 163.84c-5.04 2.884-10.36 4.637-18.955 4.378" id="path265"/>
        <path d="M467.71 168.8c-6.44 2.375-15.831 3.491-21.5 2.852" id="path267"/>
        <path d="M447.86 175.16c2.95 1.235 4.805 8.107.763 9.849" id="path269"/>
        <path d="M460.58 149.59c-1.887 4.308.153 11.436 4.325 13.92" id="path271"/>
        <path d="M460.58 149.84c-4.152 2.884-7.562 5.231-15.648 5.396" id="path273"/>
        <path d="M458.42 144.63c-2.369 3.138-6.926 6.417-13.612 6.287" id="path275"/>
        <path d="M452.06 131.52c-.615 4.435 1.425 10.8 5.598 13.284" id="path277"/>
        <path d="M451.97 131.06c-2.285 2.545-5.739 4.043-9.88 3.912" id="path279"/>
        <path d="M449.77 127.07c-2.284 2.545-4.636 3.788-8.523 3.997" id="path281"/>
        <path d="M442.14 113.42c-1.521 1.188-3.279 2.601-6.149 2.64" id="path283"/>
        <path d="M439.59 110.11c-1.097 1.103-2.091 2.262-4.877 2.809" id="path285"/>
        <path d="M429.33 96.709c-.588.848-1.328 1.414-2.671 1.453" id="path287"/>
        <path d="M426.7 93.317c-.588.848-.903 1.414-2.247 1.453" id="path289"/>
        <path d="M442.26 113.84c-.106 5.071 2.95 10.545 7.124 13.029" id="path291"/>
        <path d="M333.87 61.341c-2.97.274-5.76-.805-8.3-3.83 3.58-.358 6.4.822 8.3 3.83z" id="path293"/>
        <path d="M334.04 62.033c.31 2.967-.42 5.5-3.42 7.37-.28-3.743.43-5.437 3.42-7.37z" id="path295"/>
        <path d="M325.79 65.101c1.41 2.454 1.04 3.774-.53 5.901-1.11-2.627-1.43-3.717.54-5.901z" id="path297"/>
        <path d="M325.47 64.391c-2.47 1.129-4.07.76-6.08-.955 2.45-1.051 3.8-1.26 6.08.955z" id="path299"/>
        <path d="M343.71 59.396c-2.92-.606-5.28-2.453-6.82-6.09 3.53.704 5.88 2.656 6.82 6.088z" id="path301"/>
        <path d="M343.67 60.107c-.57 2.927-2.01 5.136-5.42 6.049.82-3.664 2-5.073 5.42-6.05z" id="path303"/>
        <path d="M353.91 60.026c-3.15-.928-5.72-3.35-6.34-7.535 3.51 1.007 6 3.765 6.35 7.535z" id="path305"/>
        <path d="M353.76 60.726c-1.02 2.805-3.72 6.064-7.52 6.386 1.08-4.261 4-5.946 7.51-6.386z" id="path307"/>
        <path d="M363.43 61.554c-3.04-1.242-5.36-3.912-5.55-8.135 3.39 1.353 5.59 4.348 5.55 8.136z" id="path309"/>
        <path d="M363.21 62.234c-1.3 2.688-4.31 5.656-8.13 5.592 1.5-4.128 4.58-5.51 8.12-5.593z" id="path311"/>
        <path d="M370.78 64.386c-2.83-1.659-4.75-4.632-4.34-8.841 3.17 1.823 4.92 5.098 4.35 8.843z" id="path313"/>
        <path d="M370.47 65.028c-1.66 2.478-5.07 4.989-8.84 4.383 2.07-3.872 5.31-4.805 8.83-4.385z" id="path315"/>
        <path d="M377.77 67.686c-2.64-1.95-4.23-5.107-3.39-9.25 2.97 2.145 4.37 5.593 3.4 9.252z" id="path317"/>
        <path d="M377.39 68.291c-1.91 2.289-5.57 4.426-9.25 3.426 2.47-3.631 5.79-4.218 9.24-3.429z" id="path319"/>
        <path d="M384.54 71.422c-2.56-2.053-4.03-5.271-3.02-9.377 2.88 2.263 4.13 5.757 3.02 9.38z" id="path321"/>
        <path d="M384.13 72.012c-2 2.21-5.74 4.201-9.38 3.054 2.62-3.529 5.96-3.983 9.38-3.056z" id="path323"/>
        <path d="M390.84 75.495c-2.27-2.369-3.31-5.752-1.77-9.691 2.56 2.62 3.34 6.247 1.77 9.695z" id="path325"/>
        <path d="M390.36 76.027c-2.28 1.93-6.24 3.414-9.7 1.803 3.05-3.158 6.42-3.171 9.69-1.806z" id="path327"/>
        <path d="M396.53 80.304c-2-2.602-2.66-6.075-.71-9.825 2.26 2.879 2.65 6.571.71 9.829z" id="path329"/>
        <path d="M395.99 80.781c-2.46 1.673-6.57 2.721-9.83.745 3.38-2.809 6.73-2.459 9.83-.748z" id="path331"/>
        <path d="M401.15 85.266c-1.81-2.736-2.23-6.25-.01-9.85 2.05 3.033 2.17 6.742.01 9.854z" id="path333"/>
        <path d="M400.58 85.704c-2.58 1.493-6.75 2.247-9.87.044 3.58-2.563 6.89-1.975 9.87-.049z" id="path335"/>
        <path d="M405.92 90.221c-1.73-2.785-2.05-6.308.26-9.848 1.96 3.087 1.99 6.8-.25 9.851z" id="path337"/>
        <path d="M405.35 90.643c-2.62 1.424-6.81 2.064-9.87-.221 3.64-2.466 6.94-1.789 9.86.217z" id="path339"/>
        <path d="M410.42 95.53c-1.55-2.892-1.64-6.427.9-9.808 1.76 3.209 1.54 6.914-.9 9.813z" id="path341"/>
        <path d="M409.81 95.914c-2.7 1.249-6.92 1.615-9.83-.866 3.8-2.223 7.05-1.331 9.83.862z" id="path343"/>
        <path d="M414.41 101.47c-1.3-3.011-1.09-6.542 1.72-9.699 1.48 3.343.96 7.017-1.71 9.699z" id="path345"/>
        <path d="M413.78 101.8c-2.8 1.02-7.04 1.03-9.72-1.68 3.96-1.9 7.13-.741 9.72 1.68z" id="path347"/>
        <path d="M418.32 107.4c-1.15-3.07-.76-6.59 2.2-9.601 1.32 3.411.62 7.071-2.2 9.601z" id="path349"/>
        <path d="M417.67 107.7c-2.85.88-7.08.68-9.62-2.17 4.05-1.7 7.15-.38 9.62 2.16z" id="path351"/>
        <path d="M421.59 113.41c-1.01-3.12-.46-6.61 2.64-9.48 1.16 3.47.28 7.07-2.64 9.49z" id="path353"/>
        <path d="M420.92 113.68c-2.88.75-7.1.35-9.51-2.61 4.13-1.51 7.16-.05 9.51 2.61z" id="path355"/>
        <path d="M424.87 119.52c-.87-3.16-.18-6.63 3.05-9.37 1 3.52-.03 7.09-3.04 9.38z" id="path357"/>
        <path d="M424.2 119.76c-2.92.62-7.11.05-9.4-3.01 4.19-1.33 7.16.26 9.39 3.01z" id="path359"/>
        <path d="M427.8 125.81c-.73-3.2.11-6.63 3.45-9.23.86 3.56-.33 7.08-3.44 9.23z" id="path361"/>
        <path d="M427.12 126.02c-2.94.49-7.11-.26-9.25-3.42 4.24-1.15 7.14.57 9.25 3.41z" id="path363"/>
        <path d="M430.54 132.36c-.74-3.2.11-6.64 3.45-9.23.85 3.56-.33 7.08-3.45 9.23z" id="path365"/>
        <path d="M429.86 132.57c-2.95.49-7.11-.26-9.26-3.42 4.24-1.15 7.14.57 9.25 3.41z" id="path367"/>
        <path d="M350.75 110.55c.28 2.82-.6 3.87-2.9 5.17.06-2.85.22-3.98 2.91-5.16z" id="path369"/>
        <path d="M350.75 109.78c-2.72.01-4.02-.98-5.15-3.37 2.66.05 3.99.42 5.15 3.37z" id="path371"/>
        <path d="M343.53 113.08c.78 2.3.26 3.35-1.41 4.88-.52-2.39-.6-3.36 1.41-4.88z" id="path373"/>
        <path d="M343.36 112.43c-2.27.54-3.55-.03-4.97-1.8 2.25-.48 3.42-.44 4.97 1.8z" id="path375"/>
        <path d="M358.93 109.7c-.33 2.81-1.41 3.65-3.94 4.42.67-2.77 1.06-3.84 3.94-4.42z" id="path377"/>
        <path d="M359.1 108.94c-2.66-.57-3.72-1.82-4.32-4.39 2.59.61 3.82 1.26 4.32 4.39z" id="path379"/>
        <path d="M366.21 110.16c-.98 2.65-2.4 3.57-5.04 3.73 1.29-2.56 2.1-3.85 5.04-3.74z" id="path381"/>
        <path d="M366.47 109.18c-2.45-1.18-3.45-3.09-3.42-5.73 2.24.95 3.67 2.57 3.43 5.73z" id="path383"/>
        <path d="M372.94 111.33c-1.16 2.59-2.64 3.41-5.28 3.39 1.45-2.46 2.35-3.7 5.28-3.39z" id="path385"/>
        <path d="M373.26 110.38c-2.37-1.35-3.23-3.32-3.03-5.96 2.17 1.11 3.49 2.82 3.04 5.96z" id="path387"/>
        <path d="M378.89 113.46c-1.45 2.42-3.02 3.06-5.65 2.72 1.74-2.27 2.78-3.38 5.65-2.73z" id="path389"/>
        <path d="M379.33 112.54c-2.19-1.61-2.82-3.67-2.3-6.27 2.02 1.36 3.13 3.22 2.3 6.28z" id="path391"/>
        <path d="M384.01 116.04c-1.74 2.23-3.38 2.67-5.94 2.02 2-2.04 3.17-3.02 5.93-2.03z" id="path393"/>
        <path d="M384.55 115.19c-1.98-1.87-2.34-4-1.52-6.51 1.85 1.59 2.72 3.58 1.52 6.51z" id="path395"/>
        <path d="M388.66 119.14c-2.04 1.96-3.72 2.16-6.17 1.16 2.28-1.74 3.57-2.55 6.17-1.17z" id="path397"/>
        <path d="M389.32 118.37c-1.7-2.13-1.76-4.28-.59-6.65 1.6 1.83 2.19 3.92.59 6.66z" id="path399"/>
        <path d="M392.88 122.81c-2.31 1.63-4 1.58-6.27.22 2.51-1.38 3.91-1.98 6.27-.22z" id="path401"/>
        <path d="M393.65 122.15c-1.36-2.36-1.09-4.5.43-6.66 1.3 2.05 1.56 4.2-.43 6.67z" id="path403"/>
        <path d="M396.64 127.01c-2.49 1.34-4.16 1.08-6.24-.55 2.65-1.06 4.12-1.48 6.25.55z" id="path405"/>
        <path d="M397.49 126.45c-1.06-2.51-.53-4.6 1.24-6.56 1.04 2.2 1.04 4.36-1.24 6.57z" id="path407"/>
        <path d="M399.77 131.37c-2.59 1.16-4.24.77-6.2-1 2.73-.86 4.23-1.18 6.2 1z" id="path409"/>
        <path d="M400.65 130.88c-.87-2.58-.2-4.63 1.71-6.46.88 2.27.72 4.43-1.71 6.46z" id="path411"/>
        <path d="M402.55 136.67c-2.71.81-4.3.23-6.02-1.78 2.82-.51 4.34-.64 6.02 1.77z" id="path413"/>
        <path d="M403.49 136.29c-.54-2.67.39-4.62 2.51-6.19.59 2.36.15 4.49-2.52 6.19z" id="path415"/>
        <path d="M404.24 142.11c-2.8.38-4.28-.46-5.65-2.71 2.86-.06 4.38.06 5.65 2.71z" id="path417"/>
        <path d="M405.23 141.89c-.11-2.73 1.12-4.5 3.46-5.71.21 2.43-.56 4.45-3.47 5.71z" id="path419"/>
        <path d="M405.34 147.29c-2.83.01-4.19-1.01-5.26-3.42 2.85.31 4.34.63 5.26 3.42z" id="path421"/>
        <path d="M406.35 147.19c.24-2.71 1.69-4.31 4.18-5.21-.12 2.43-1.14 4.34-4.19 5.22z" id="path423"/>
        <path d="M405.76 153.01c-2.79-.48-3.95-1.71-4.58-4.28 2.74.81 4.16 1.37 4.58 4.28z" id="path425"/>
        <path d="M406.77 153.09c.71-2.62 2.41-3.95 5.02-4.4-.53 2.37-1.87 4.08-5.02 4.41z" id="path427"/>
        <path d="M405.65 158.93c-2.73-.75-3.76-2.09-4.15-4.71 2.66 1.07 4.01 1.77 4.15 4.71z" id="path429"/>
        <path d="M406.64 159.11c.97-2.55 2.79-3.7 5.43-3.9-.76 2.31-2.26 3.88-5.43 3.9z" id="path431"/>
        <path d="M405.01 165.42c-2.68-.89-3.64-2.29-3.88-4.92 2.59 1.21 3.91 1.98 3.89 4.92z" id="path433"/>
        <path d="M406 165.65c1.1-2.49 2.98-3.54 5.63-3.59-.89 2.27-2.47 3.75-5.64 3.6z" id="path435"/>
        <path d="M403.57 171.61c-2.49-1.34-3.2-2.88-2.99-5.51 2.35 1.63 3.51 2.61 3 5.51z" id="path437"/>
        <path d="M404.51 172c1.5-2.26 3.54-2.98 6.15-2.59-1.25 2.08-3.06 3.28-6.16 2.6z" id="path439"/>
        <path d="M401.4 178.64c-2.41-1.49-3.03-3.07-2.66-5.69 2.25 1.78 3.35 2.83 2.66 5.69z" id="path441"/>
        <path d="M402.3 179.09c1.65-2.17 3.72-2.77 6.3-2.22-1.38 2.01-3.26 3.09-6.3 2.22z" id="path443"/>
        <path d="M399.19 185c-2.35-1.58-2.9-3.19-2.43-5.79 2.18 1.86 3.23 2.96 2.43 5.79z" id="path445"/>
        <path d="M400.07 185.48c1.73-2.1 3.82-2.61 6.39-1.96-1.46 1.95-3.38 2.96-6.39 1.97z" id="path447"/>
        <path d="M396.54 191.71c-2.35-1.58-2.9-3.19-2.42-5.79 2.17 1.86 3.23 2.96 2.43 5.79z" id="path449"/>
        <path d="M397.43 192.19c1.73-2.1 3.82-2.61 6.38-1.96-1.46 1.95-3.38 2.96-6.39 1.97z" id="path451"/>
        <path d="M393.96 198.02c-2.09-1.91-2.4-3.57-1.55-6.08 1.87 2.15 2.75 3.39 1.54 6.07z" id="path453"/>
        <path d="M394.81 198.48c1.44-2.31 3.45-3.09 6.07-2.77-1.17 2.11-2.95 3.36-6.07 2.77z" id="path455"/>
        <path d="M390.96 204.46c-1.85-2.13-1.97-3.83-.84-6.21 1.62 2.36 2.36 3.7.84 6.21z" id="path457"/>
        <path d="M391.77 204.91c1.22-2.43 3.14-3.4 5.79-3.34-.97 2.23-2.63 3.64-5.78 3.34z" id="path459"/>
        <path d="M387.91 210.1c-1.63-2.32-1.56-4.01-.19-6.27 1.36 2.51 1.96 3.92.19 6.27z" id="path461"/>
        <path d="M388.65 210.57c1.22-2.44 3.14-3.41 5.79-3.34-.97 2.22-2.63 3.63-5.79 3.34z" id="path463"/>
        <path d="M384.78 216.94c-1.88-2.12-2.01-3.81-.9-6.21 1.64 2.34 2.39 3.67.89 6.2z" id="path465"/>
        <path d="M385.42 217.09c1.21-2.44 2.26-3.29 4.9-3.22-.98 2.21-1.75 3.5-4.9 3.22z" id="path467"/>
        <path d="M352.21 151.5c-1.59.13-2.17-.38-2.88-1.69 1.62.06 2.25.16 2.89 1.69z" id="path469"/>
        <path d="M352.28 152.43c-.74 1.41-1.48 1.63-2.97 1.53.92-1.33 1.34-1.81 2.97-1.53z" id="path471"/>
        <path d="M359.29 151.98c-1.59-.18-2.06-.79-2.5-2.21 1.56.36 2.16.59 2.49 2.21z" id="path473"/>
        <path d="M359.17 152.9c-.99 1.24-1.76 1.32-3.2.94 1.16-1.14 1.66-1.52 3.21-.94z" id="path475"/>
        <path d="M365.76 154.74c-1.48-.6-1.77-1.32-1.81-2.8 1.41.77 1.93 1.15 1.8 2.8z" id="path477"/>
        <path d="M365.4 155.6c-1.29.92-2.05.79-3.33.03 1.42-.78 2-1.01 3.34-.03z" id="path479"/>
        <path d="M371.3 160.04c-1.08-1.18-1.04-1.95-.44-3.31.94 1.3 1.25 1.86.43 3.3z" id="path481"/>
        <path d="M370.61 160.66c-1.57.28-2.2-.16-3.03-1.39 1.61-.1 2.25-.07 3.03 1.39z" id="path483"/>
        <path d="M374.83 166.84c-.79-1.39-.57-2.13.33-3.32.61 1.48.78 2.1-.34 3.32z" id="path485"/>
        <path d="M374.01 167.29c-1.59-.08-2.1-.65-2.63-2.04 1.59.27 2.2.45 2.64 2.05z" id="path487"/>
        <path d="M376.39 174.71c-.45-1.53-.07-2.21 1.07-3.16.27 1.57.3 2.22-1.07 3.15z" id="path489"/>
        <path d="M375.5 174.96c-1.53-.44-1.91-1.11-2.11-2.59 1.49.63 2.05.94 2.11 2.59z" id="path491"/>
        <path d="M376.19 182.58c-.13-1.59.38-2.18 1.69-2.88-.06 1.6-.16 2.24-1.69 2.87z" id="path493"/>
        <path d="M375.26 182.64c-1.41-.74-1.63-1.48-1.53-2.96 1.33.92 1.81 1.33 1.53 2.97z" id="path495"/>
        <path d="M341.43 155.19c17.355-.353 36.262 7.36 27.026 51.492" id="path497"/>
        <path d="M342.79 154.41c24.491-10.596 43.983 14.214 25.857 52.318" id="path499"/>
        <path d="M421.5 167.22l10.85-1.06 8.5 6.12-11.19 1.02-8.15-6.08z" id="path501"/>
        <path d="M417.51 179.85l9.97-.26 7.62 7.26-11.19-.47-6.39-6.54z" id="path503"/>
        <path d="M412.04 191.69l9.45.44 5.76 8.32-9.6-1.45-5.62-7.3z" id="path505"/>
        <path d="M404.86 203.17l9.15 1.44 4.47 7.91-8.76-1.87-4.87-7.49z" id="path507"/>
        <path d="M396.71 214.39l8.87 1.48 3.13 7.6-7.81-1.8-4.19-7.29z" id="path509"/>
        <path d="M387.99 225.25l8.56 1.33 3.37 7.4-8.52-1.49-3.4-7.25z" id="path511"/>
        <path d="M378.88 237.59l8.48.18 4.27 6.97-8.68-.34-4.07-6.81z" id="path513"/>
        <path d="M371.58 251.79l8.54-1.58 5.97 5.32-8.56 2.18-5.95-5.91z" id="path515"/>
        <path d="M368.81 267.02l7.79-2.36 6.84 3.59-7.26 2.5-7.35-3.74z" id="path517"/>
        <path d="M370.49 283.39l6.03-4.61 7.98 1.75-6.99 4.15-7.03-1.3z" id="path519"/>
        <path d="M374.99 298.35l5.35-5.23 8.06-.92-5.47 6.29-7.95-.15z" id="path521"/>
        <path d="M382.66 311.92l4.17-6.88 8.06-2.22-4.12 7.42-8.12 1.68z" id="path523"/>
        <path d="M392.93 322.94l3.22-6.88 8.36-3.11-3.59 7.42-8 2.57z" id="path525"/>
        <path d="M403.14 332.54l3.11-7.17 8.71-2.58-4.06 7.12-7.75 2.62z" id="path527"/>
        <path d="M410.71 342.72l4.93-7.29 9.36-.75-5.18 7.3-9.1.75z" id="path529"/>
        <path d="M429.74 173.19c-.82 2.18-1.64 4.28-2.47 6.28m-2.95 6.72c-.98 2.09-1.97 4.07-2.96 5.95m-3.71 6.78c-1.2 2.05-2.4 3.97-3.59 5.77m-4.11 5.85c-.8 1.06-1.59 2.07-2.38 3.05-.7.87-1.4 1.73-2.1 2.58m-4.48 5.35c-1.56 1.83-3.08 3.61-4.56 5.36m-4.7 5.65c-1.51 1.86-2.94 3.69-4.28 5.51m-4.18 6.18c-1.21 1.98-2.27 3.97-3.18 5.99m-2.48 7.24c-.27 1.14-.48 2.31-.63 3.5-.18 1.35-.33 2.67-.45 3.97m-.37 5.89c-.07 2.75.03 5.42.32 8.06m.94 5.63c.66 2.88 1.59 5.76 2.86 8.7m2.57 5.25c.75 1.38 1.58 2.77 2.49 4.19.53.84 1.07 1.64 1.62 2.43m3.8 5c1.77 2.15 3.58 4.11 5.4 5.96m4.58 4.43c1.86 1.73 3.69 3.38 5.45 5.03m4.51 4.37c1.78 1.83 3.45 3.72 4.95 5.76m3.95 6.51c1.26 2.63 2.27 5.52 2.97 8.8m18.54-216.98c-2.84 12.42-5.82 23.08-8.92 32.28" id="path531"/>
        <path d="M423.57 335.44l-11.39 6.43" id="path533"/>
        <path d="M413.61 323.72l-9.56 7.97" id="path535"/>
        <path d="M403.07 314.4l-9.5 7.85" id="path537"/>
        <path d="M393.71 303.75l-9.74 7.32" id="path539"/>
        <path d="M386.7 293.05l-10.13 4.69" id="path541"/>
        <path d="M382.6 280.82l-10.44 2.13" id="path543"/>
        <path d="M381.8 268.07l-11.07-.89" id="path545"/>
        <path d="M384.64 255.14l-11.58-2.94" id="path547"/>
        <path d="M390.32 244.02l-10.16-5.72" id="path549"/>
        <path d="M398.68 232.99l-9.58-6.86" id="path551"/>
        <path d="M407.56 222.52l-9.54-7.33" id="path553"/>
        <path d="M417.11 211.5l-10.83-7.41" id="path555"/>
        <path d="M425.72 199.5l-12.29-7.13" id="path557"/>
        <path d="M433.22 186.07l-14.14-5.53" id="path559"/>
        <path d="M439.03 171.82l-15.82-4.15" id="path561"/>
        <path d="M413.57 414.7c-42.313 41.04-100 66.316-163.56 66.316" id="path563"/>
        <g id="g565" fill="#fed100">
          <path d="M322.91 370.99l-6.64 4.17 35.38 56.97.87 9.5 25.64 25.75 7.25-4.46-13.11-33.35-9.51-5.93-39.88-52.65z" id="path567"/>
          <path d="M365.86 433.67l-6.74 4.5 19.62 25.78 3.14-1.94-16.02-28.34z" id="path569"/>
          <path d="M364.6 439.47l-9.51-1.42-8.03 11.08 1.96 3.52 9.86 1.71-1.77-3.27 2.99-1.88 8.63 8.67-7.67 4.1-16.79-2.94-5.31-11.02 12.87-16.07 8.38.34 2.41-8.88 22.86-3.34 7.2 9.82-5.31 16.73-6.67 4.32-4.45-11.38 3.5-2.09 2.09 3.22 3.06-9.54-2.07-3.38-16.17 2.66-2.06 9.05z" id="path571"/>
          <path d="M386.1 447.24l-4.39-6.73" id="path573"/>
          <path d="M362.71 461.29l-3.95-7.15" id="path575"/>
          <path d="M319.78 373.32l44.69 65.96" id="path577"/>
          <path d="M294.8 318.29c0 3.62 2.93 6.55 6.57 6.55 3.61 0 6.55-2.93 6.55-6.55 0-3.61-2.94-6.55-6.55-6.55-3.64 0-6.57 2.94-6.57 6.55z" id="path579"/>
          <path d="M299.41 318.29c0 1.08.87 1.95 1.95 1.95 1.07 0 1.94-.87 1.94-1.95 0-1.07-.87-1.94-1.94-1.94-1.08 0-1.95.87-1.95 1.94z" id="path581"/>
        </g>
        <path d="M249.97 447.58c31.95 0 62.17-7.45 89.03-20.7" id="path583"/>
        <g transform="scale(1.25)" id="a" fill="#fed100" stroke-width=".72000003">
          <path d="M210.69 208.22l-3.25 3.28 3.25 3.25 3.28-3.25-3.28-3.28z" id="path586"/>
          <path d="M196.76 211.49l3.27-3.27 3.27 3.27-3.27 3.27z" id="path588"/>
          <path d="M199.09 170.76l.05 3.26h1.81l.04-3.26zm3.55.08l-.29 3.26c.63.04 1.24.1 1.86.17l.29-3.26c-.62-.07-1.24-.13-1.86-.17zm3.51.42l-.53 3.21c.6.1 1.21.17 1.81.29l.58-3.22c-.61-.12-1.24-.19-1.86-.28zm3.47.65l-.83 3.19c.61.14 1.23.27 1.82.44l.86-3.13c-.61-.18-1.23-.35-1.85-.5zm3.34.99l-1.07 3.06c.58.2 1.16.39 1.73.62l1.12-3.05c-.59-.23-1.19-.43-1.78-.63zm3.34 1.28l-1.36 2.94c.56.24 1.11.55 1.65.82l1.41-2.97c-.56-.27-1.13-.54-1.7-.79zm3.18 1.53l-1.61 2.85c.54.29 1.06.59 1.57.91h.04l1.66-2.81c-.54-.32-1.11-.64-1.66-.95zm3.02 1.86l-1.82 2.69c.5.33 1 .71 1.49 1.07l1.89-2.69c-.52-.38-1.03-.71-1.56-1.07zm2.84 2.06l-2.06 2.52c.48.39.94.79 1.41 1.2l2.1-2.48c-.48-.41-.95-.84-1.45-1.24zm2.69 2.35l-2.27 2.32c.43.41.86.84 1.28 1.28l2.35-2.27c-.44-.46-.9-.89-1.36-1.33zm2.43 2.56l-2.44 2.11c.41.45.78.93 1.16 1.41l2.52-2.11c-.39-.49-.83-.94-1.24-1.41zm2.23 2.69l-2.64 1.9c.37.49.77 1.01 1.12 1.53l2.68-1.86c-.37-.55-.76-1.04-1.16-1.57zm2.02 2.97l-2.81 1.66c.32.51.62 1.03.92 1.56l2.84-1.61c-.3-.55-.62-1.08-.95-1.61zm1.7 3.1l-2.94 1.4c.28.55.59 1.09.83 1.65l2.93-1.32c-.25-.58-.53-1.16-.82-1.73zm1.49 3.26l-3.06 1.11c.22.58.42 1.15.62 1.74l3.05-1.12c-.2-.58-.39-1.16-.61-1.73zm1.11 3.3l-3.1.87c.18.58.31 1.17.46 1.77l3.17-.78c-.15-.63-.35-1.25-.53-1.86zm.9 3.47l-3.21.57c.12.59.24 1.19.32 1.78l3.19-.54c-.1-.6-.18-1.22-.3-1.81zm.54 3.5l-3.26.3c.07.61.16 1.22.21 1.85l3.26-.28c-.04-.64-.14-1.24-.21-1.87zm.25 3.68l-3.26.04.04 1.69 3.26.05z" id="path590" stroke="none"/>
          <path d="M218.32 179.2l-3.27 3.27.77.77-9.7 9.69-.76-.77-3.27 3.27 3.24 3.25 3.27-3.27-.77-.77 9.7-9.69.76.76 3.27-3.27-3.25-3.24zm5.37 5.36l-3.27 3.27.79.8-9.69 9.69-.8-.8-3.27 3.27 3.27 3.27 3.27-3.27-.79-.79 9.69-9.7.8.8 3.27-3.27-3.28-3.27zm5.33 5.34l-3.27 3.27.8.79-9.69 9.7-.8-.8-3.27 3.27 3.27 3.27 3.27-3.27-.8-.8 9.7-9.69.79.8 3.27-3.27-3.27-3.28z" id="path592"/>
          <path d="M213.97 211.49l2.09-2.1-13.96-13.96-2.1 2.09" id="path594" fill="none"/>
          <path d="M203.24 200.76l-3.27 3.27-3.24-3.24 3.27-3.27z" id="path596"/>
          <path d="M202.1 206.15l3.27-3.27 3.27 3.27-3.27 3.27z" id="path598"/>
        </g>
        <use transform="matrix(1 0 0 -1 0 528.73)" id="use600" x="0" y="0" width="390" height="390" xlink:href="#a"/>
      </g>
      <use transform="matrix(-1 0 0 1 500.02 0)" id="use602" x="0" y="0" width="390" height="390" xlink:href="#c"/>
    </g>
    <path d="M148.45448975 321.50659015c-2.621112.021723-4.097808 2.10197325-4.587453 3.51533325l-3.654339 8.963526c-.91196625 2.71462425.76199175 5.36358225 3.178266 6.215625 1.4460615.53949675 2.5808445.57752175 3.48867675.33895875l.6474585 2.45273925 1.517724.4684485.14663025-2.52128175-.39038025-1.5805725c.90459525-.9938565 1.3208715-2.284737 1.550094-2.9288025l2.715531-7.4838855c1.2890085-2.724735 1.00414275-5.060172-1.4339325-6.50127075l.0152295.0057135c-.34749975-.204633-.7557615-.43107675-1.19399475-.59604675-.7286565-.2475915-1.39464-.35350575-1.9995105-.3484845zm-.22279725 2.6869635c.40837875-.04251.876681.01305525 1.41489075.20756775 2.45039925 1.0624965 1.62712875 2.5136865 1.184469 3.8600055l-2.8735785 7.25537475c-.0178815.05936775-.043368.1130805-.0628485.1713855l-.82074525-3.324906-2.0547345 1.13305725 1.1673285 4.41796875c-.53664975.2477475-1.1653785.27985425-1.883349-.0152295-1.24015125-.48988875-2.193711-1.73714775-1.44345825-3.90381225l3.1535205-7.8609375c.31871775-.80042625.993369-1.81296375 2.21850525-1.94047425z" id="path1135" fill="none" stroke="#000" stroke-width=".72000001125"/>
    <path d="M231.79 327.08l-9.25 1.791.542 2.792 3.333-.667 3.167 16.709 2.625-.5-3.2-16.7 3.333-.625-.54-2.8z" id="path1129" fill="none" stroke="#000" stroke-width=".72000003"/>
    <path id="path1127" d="M238.96 327.58l5.125 10.083-4.458 1.125-.66-11.2zm1-2.62l-3.458 1.083 1 19.917 2.375-.5-.09-4.46 5.334-1.333 2.041 3.917 2.459-.75-9.66-17.88z" fill="none" stroke="#000" stroke-width=".72000003"/>
    <path id="path1125" d="M161.58 327.83l-.417 11.291-4.458-1.208 4.88-10.08zm-1.37-2.58l-8.875 17.917 2.333.708 2.084-3.916 5.333 1.458-.167 4.375 2.5.542.375-20.292-3.57-.8z" fill="none" stroke="#000" stroke-width=".72000003"/>
    <path d="M185.71 329.92l-5.792 19.125 2.417.333 1.375-4.208 5.5.542.583 4.375 2.584.125-3.042-20.084-3.63-.2z" id="path1119" fill="none" stroke="#000" stroke-width=".72000003"/>
    <path d="M187.5 332.25l1.416 11.209-4.59-.46 3.17-10.75z" id="path604" fill="none" stroke="#000" stroke-width=".72000003"/>
    <path d="M249.90071 321.37657l8.87416 10.7155-5.45582-12.37149 2.00371-.82452 7.88687 18.28789-2.16854.84449-11.59204-12.76622 1.67 4.17962 1.20942 2.83619 2.48608 6.27605 1.48041-.56218.75202 1.94296-4.67911 1.87596-.81417-1.87313 1.31089-.53801-5.57579-13.47504-2.22043.95563.35347-3.74786z" id="path1117" fill="none" stroke="#000" stroke-width=".72000003"/>
    <path id="path1184" d="M199.19287 330.93099c-2.41377 1.02196-2.98315 3.50872-2.89535 5.00192l.0495 9.6797c.19494 2.85706 2.75435 4.665 5.31281 4.52871 1.54247-.0542 2.60562-.45285 3.35332-1.02032l1.53584 2.01899 1.58153-.14728-.82825-2.38585-.96491-1.31133c.456-1.26415.34721-2.61613.31285-3.29891l-.35139-7.95356c.14959-3.01055-1.00637-5.05973-3.81014-5.45944l.0163-.00027c-.39932-.0562-.86316-.10946-1.33115-.0944-.76797.0497-1.42387.20643-1.98088.44229zm.8212 2.56807c.36112-.19537.81511-.32301 1.38679-.34903 2.67045.0452 2.46442 1.70083 2.57 3.11412l.11802 7.80281c.006.0617.003.12108.007.18239l-2.02936-2.75869-1.46558 1.83243 2.76743 3.63627c-.4012.43405-.9699.70406-1.74613.70586-1.33324.0213-2.69115-.76669-2.82606-3.0556l-.0908-8.4694c-.0114-.86147.22493-2.055 1.30828-2.64114z" fill="none" stroke="#000" stroke-width=".72000003"/>
    <path id="path1208" d="M213.9122 330.2018c-3.07459 1.12289-3.54568 3.87552-3.29079 5.46707.24663 1.8848.59793 3.59797 2.60046 4.31762.68101.32541 1.44054.5478 3.41055.55768 1.97002.01 3.44596 1.09845 3.72108 2.52929.36564 2.26325-1.43228 3.45456-2.73803 3.72364-1.93677.42609-3.37836-1.04497-3.38872-3.03398l-2.56745.12273c.2448 1.43661-.0109 5.93945 6.2225 5.38279 2.52771-.42212 5.06622-1.59742 5.11076-5.37257-.33875-2.06366-.41973-3.7705-2.94287-5.00814-.785-.63619-1.60366-.82872-3.53177-.73134-1.92811.0974-3.24315-.56241-3.51193-2.84426.21814-1.39395.65386-2.67735 2.86384-2.88678 2.6624-.22108 2.93466 1.43576 3.18061 2.8314l2.30316-.4427c-.13617-3.01539-1.74006-4.92593-4.62519-5.0346l-.0133-.008c-.41986-.0106-.869-.0121-1.32088.0565-.55096.0858-1.04327.21286-1.48251.37326z" fill="none" stroke="#000" stroke-width=".72000003"/>
    <path id="path1210" d="M179.15634 332.42717l.59925-2.78792-.009-.004-9.21286-1.97317-.59428 2.78135 6.4656 1.34014-9.57781 12.49991-.59925 2.78792.009.004 9.21286 1.97317.59428-2.78135-6.29304-1.29714z" fill="none" stroke="#000" stroke-width=".72000003"/>
  </g>
</svg>
