<svg xmlns="http://www.w3.org/2000/svg" version="1.0" id="svg4156" viewBox="0 0 299.30731 327.99539">
  <defs id="defs4158">
    <marker refX="0" refY="0" orient="auto" id="TriangleInL" overflow="visible">
      <path d="M-4.616 0l6.92-4v8z" id="path5721" fill-rule="evenodd" stroke="#000" stroke-width="1.0666666960000002" marker-start="none"/>
    </marker>
    <marker refX="0" refY="0" orient="auto" id="StopS" overflow="visible">
      <path d="M0 1.13v-2.26" id="path5697" fill="none" stroke="#000" stroke-width=".26666667400000005"/>
    </marker>
    <marker refX="0" refY="0" orient="auto" id="RazorWire">
      style=&quot;overflow:visible&quot;&gt;
      <path d="M.01818182-.59207209v1.15l-6.22499998 1.85000001H8.5431816l-5.74999976-1.85v-1.15l5.79999976-1.725H-6.18181816z" id="path5640" fill="gray" fill-opacity="1" fill-rule="evenodd" stroke="#000" stroke-width=".10666668"/>
    </marker>
    <linearGradient id="linearGradient3169">
      <stop offset="0" id="stop3171" stop-color="#000" stop-opacity="1"/>
      <stop offset=".5" id="stop3179" stop-color="#000" stop-opacity="1"/>
      <stop offset="1" id="stop3173" stop-color="#000" stop-opacity="0"/>
    </linearGradient>
    <path d="M563.47297 635.43651s62.20946 65.49324 127.7027 0" id="path5916" fill="none" stroke="#000" stroke-width="1" stroke-linecap="butt" stroke-linejoin="miter" stroke-opacity="1"/>
  </defs>
  <g id="g5038" transform="translate(-.00905626)">
    <g transform="translate(-.00000283)" id="g4953">
      <g id="g4939" transform="matrix(-1 0 0 1 299.32543 0)" fill-opacity="1" fill-rule="evenodd" stroke-linecap="butt" stroke-opacity="1">
        <path d="M13.64007 282.77232s-2.503888-11.19402-7.0534683-7.14945c-3.299574 2.93332 2.7145834 16.45365 13.4756353 11.41895.10421-.0328 3.457085-7.78553-6.422167-4.2695z" id="path5882" fill="#fbcc03" stroke="#705c02" stroke-width=".98297936" stroke-linejoin="miter" stroke-miterlimit="4" stroke-dasharray="none"/>
        <path d="M6.324731 275.85039c1.1837503-1.85868 3.4923194-3.39326 6.192088-3.92118 14.419622 11.26847 14.812448 12.13602 1.097768 11.07342-3.688224-10.84721-6.3502959-7.63404-7.289856-7.15224z" id="path7077" fill="#cf1126" stroke="#600812" stroke-width=".98297936" stroke-linejoin="round"/>
        <path d="M36.268043 273.62605l-5.090555 5.49256c-5.090554 5.49257-11.159753 7.96192-11.159753 7.96192 2.756909-9.6691-9.034925-15.9127-14.5514403-21.71773-13.0197142-14.58417 3.6761597-20.291 3.6761597-20.291l7.5215196.41889z" id="path5880" fill="#cf1126" stroke="#600812" stroke-width=".98297936" stroke-linejoin="miter" stroke-miterlimit="4" stroke-dasharray="none"/>
        <path style="line-height:normal;font-variant-ligatures:normal;font-variant-position:normal;font-variant-caps:normal;font-variant-numeric:normal;font-variant-alternates:normal;font-feature-settings:normal;text-indent:0;text-align:start;text-decoration-line:none;text-decoration-style:solid;text-decoration-color:#000;text-transform:none;text-orientation:mixed;white-space:normal;shape-padding:0;isolation:auto;mix-blend-mode:normal;solid-color:#000;solid-opacity:1" d="M9.8192051 248.89408l4.9048409.27343 16.801785 24.11524-2.983679 3.21875c-1.697466 1.83152-3.461614 3.17769-5.08035 4.2832-.150638-.59155-.180515-1.23982-.398201-1.79101-1.064815-2.6962-2.766215-4.90789-4.604773-6.85938-3.657965-3.88264-8.025224-6.959-10.3399882-9.37891-2.8755359-3.2348-3.7837515-5.60799-3.9386024-7.11523-.155624-1.51489.2545195-2.46134 1.0775988-3.51172 1.4429471-1.84143 3.8976046-2.94691 4.5613689-3.23437z" id="path4540" color="#000" font-style="normal" font-variant="normal" font-weight="400" font-stretch="normal" font-size="medium" font-family="sans-serif" text-decoration="none" letter-spacing="normal" word-spacing="normal" writing-mode="lr-tb" direction="ltr" dominant-baseline="auto" baseline-shift="baseline" text-anchor="start" clip-rule="nonzero" display="inline" overflow="visible" visibility="visible" opacity="1" color-interpolation="sRGB" color-interpolation-filters="linearRGB" vector-effect="none" fill="#aa0e1f" stroke="none" stroke-width="7.43039513" stroke-linejoin="miter" stroke-miterlimit="4" stroke-dasharray="none" stroke-dashoffset="0" color-rendering="auto" image-rendering="auto" shape-rendering="auto" text-rendering="auto"/>
        <path id="path4788" d="M285.68536 282.77232s2.50388-11.19402 7.05346-7.14945c3.29958 2.93332-2.71458 16.45365-13.47563 11.41895-.10421-.0328-3.45709-7.78553 6.42217-4.2695z" fill="#fbcc03" stroke="#705c02" stroke-width=".98297936" stroke-linejoin="miter" stroke-miterlimit="4" stroke-dasharray="none"/>
        <path id="path4790" d="M293.00069 275.85039c-1.18375-1.85868-3.49231-3.39326-6.19208-3.92118-14.41962 11.26847-14.81245 12.13602-1.09777 11.07342 3.68822-10.84721 6.35029-7.63404 7.28985-7.15224z" fill="#cf1126" stroke="#600812" stroke-width=".98297936" stroke-linejoin="round"/>
        <path id="path4794" d="M263.05738 273.62605l5.09056 5.49256c5.09055 5.49257 11.15975 7.96192 11.15975 7.96192-2.75691-9.6691 9.03493-15.9127 14.55144-21.71773 13.01972-14.58417-3.67616-20.291-3.67616-20.291l-7.52152.41889z" fill="#cf1126" stroke="#600812" stroke-width=".98297936" stroke-linejoin="miter" stroke-miterlimit="4" stroke-dasharray="none"/>
        <path id="path4796" d="M289.50622 248.89408l-4.90484.27343-16.80178 24.11524 2.98367 3.21875c1.69747 1.83152 3.46162 3.17769 5.08035 4.2832.15064-.59155.18052-1.23982.3982-1.79101 1.06482-2.6962 2.76622-4.90789 4.60478-6.85938 3.65796-3.88264 8.02522-6.959 10.33999-9.37891 2.87553-3.2348 3.78375-5.60799 3.9386-7.11523.15562-1.51489-.25452-2.46134-1.0776-3.51172-1.44295-1.84143-3.8976-2.94691-4.56137-3.23437z" style="line-height:normal;font-variant-ligatures:normal;font-variant-position:normal;font-variant-caps:normal;font-variant-numeric:normal;font-variant-alternates:normal;font-feature-settings:normal;text-indent:0;text-align:start;text-decoration-line:none;text-decoration-style:solid;text-decoration-color:#000;text-transform:none;text-orientation:mixed;white-space:normal;shape-padding:0;isolation:auto;mix-blend-mode:normal;solid-color:#000;solid-opacity:1" color="#000" font-style="normal" font-variant="normal" font-weight="400" font-stretch="normal" font-size="medium" font-family="sans-serif" text-decoration="none" letter-spacing="normal" word-spacing="normal" writing-mode="lr-tb" direction="ltr" dominant-baseline="auto" baseline-shift="baseline" text-anchor="start" clip-rule="nonzero" display="inline" overflow="visible" visibility="visible" opacity="1" color-interpolation="sRGB" color-interpolation-filters="linearRGB" vector-effect="none" fill="#aa0e1f" stroke="none" stroke-width="7.43039513" stroke-linejoin="miter" stroke-miterlimit="4" stroke-dasharray="none" stroke-dashoffset="0" color-rendering="auto" image-rendering="auto" shape-rendering="auto" text-rendering="auto"/>
        <path d="M50.958167 295.00586c-31.400483-23.30296-30.284041-28.59188-30.480228-29.64258-3.722327-19.9352-11.0288179-20.44922-11.0288179-20.44922L32.271078 233.6582c.93786-.46251 1.83935-.6575 2.702481-.6289 8.343584.27687 13.183628 21.38256 14.29179 22.32617 3.700064 3.15062 44.865348 40.74609 100.397361 40.74609 55.53202 0 96.6973-37.59547 100.39737-40.74609 1.10816-.94361 5.9482-22.0493 14.2918-22.32617.86313-.0286 1.76461.16639 2.70247.6289l22.82196 11.25586s-7.30649.51402-11.02882 20.44922c-.19619 1.0507.92025 6.33962-30.48023 29.64258-.16959-.83392-40.44171 32.49805-98.70455 32.49805-58.262834 0-98.534956-33.33197-98.704543-32.49805z" id="path4529" fill="#fbcc03" stroke="#705c02" stroke-width=".98297936" stroke-linejoin="miter" stroke-miterlimit="4" stroke-dasharray="none"/>
        <path id="path4542" d="M78.294369 280.5c-9.03364-5.04388-16.403961-10.20444-21.763238-14.3125-5.359278-4.10806-8.897312-7.3284-9.585107-7.91406-1.106954-.94259-1.03033-1.27781-1.207811-1.65039-.17748-.37259-.314117-.71578-.460475-1.09961-.292715-.76766-.606137-1.67732-.973795-2.72852-.735315-2.1024-1.674218-4.74094-2.794951-7.28515-1.120742-2.54422-2.448647-4.98781-3.73855-6.58204-1.289913-1.59422-2.302039-2.10079-2.913848-2.12109-.251205-.008-.538036.0283-1.015314.26367l-17.241495 8.50391c2.793047 3.3727 5.59223 9.04844 7.463892 19.07226.139913.74919.0829.64329.0887.67969.0058.0364.01353.1053.117003.35742.206942.50425.835612 1.6929 2.502439 3.67579 3.303342 3.92967 10.654773 10.91516 25.943393 22.28906.294551.14871.474814.26112.664296.38281.4211.27044.892697.59806 1.511647 1.02734 1.23789.85858 3.010917 2.09452 5.318144 3.60157 4.614455 3.01409 11.345322 7.10065 19.855265 11.18554 17.019897 8.16979 41.116966 15.87891 69.598186 15.87891 28.48124 0 52.5783-7.70912 69.5982-15.87891h-.00005c8.50994-4.08489 15.24082-8.17145 19.85528-11.18554 2.30722-1.50705 4.08025-2.74299 5.31814-3.60157.61895-.42928 1.09055-.7569 1.51165-1.02734.18948-.12169.36974-.2341.66429-.38281 15.28862-11.3739 22.64005-18.35939 25.9434-22.28906 1.66682-1.98289 2.29548-3.17154 2.50242-3.67579.10348-.25212.11081-.32101.11702-.35742.006-.0364-.0512.0695.0887-.67969 1.87166-10.02382 4.67083-15.69956 7.46388-19.07226l-17.24149-8.50391c-.47728-.23537-.76411-.27199-1.01532-.26367-.61181.0203-1.62392.52687-2.91384 2.12109-1.2899 1.59423-2.6178 4.03782-3.73855 6.58204-1.12073 2.54421-2.05963 5.18275-2.79495 7.28515-.36765 1.0512-.68108 1.96086-.97379 2.72852-.14636.38383-.28301.72702-.46049 1.09961-.17748.37258-.10085.7078-1.20781 1.65039-.68779.58566-4.22583 3.806-9.5851 7.91406-5.35928 4.10806-12.7296 9.26862-21.76323 14.3125-18.04812 10.07707-42.77366 19.38086-71.36838 19.38086-28.59472 0-53.320253-9.30379-71.368361-19.38086z" style="line-height:normal;font-variant-ligatures:normal;font-variant-position:normal;font-variant-caps:normal;font-variant-numeric:normal;font-variant-alternates:normal;font-feature-settings:normal;text-indent:0;text-align:start;text-decoration-line:none;text-decoration-style:solid;text-decoration-color:#000;text-transform:none;text-orientation:mixed;white-space:normal;shape-padding:0;isolation:auto;mix-blend-mode:normal;solid-color:#000;solid-opacity:1" color="#000" font-style="normal" font-variant="normal" font-weight="400" font-stretch="normal" font-size="medium" font-family="sans-serif" text-decoration="none" letter-spacing="normal" word-spacing="normal" writing-mode="lr-tb" direction="ltr" dominant-baseline="auto" baseline-shift="baseline" text-anchor="start" clip-rule="nonzero" display="inline" overflow="visible" visibility="visible" opacity="1" color-interpolation="sRGB" color-interpolation-filters="linearRGB" vector-effect="none" fill="#fcd52a" stroke="none" stroke-width="7.43039513" stroke-linejoin="miter" stroke-miterlimit="4" stroke-dasharray="none" stroke-dashoffset="0" color-rendering="auto" image-rendering="auto" shape-rendering="auto" text-rendering="auto"/>
      </g>
      <path id="text5912" d="M43.822709 264.45808l6.175283 5.21338-1.195599 1.21138-2.221477-1.87545-4.938555 5.00379-1.727807-1.45869 4.938523-5.00377-2.225977-1.87923zm6.75789 5.61492l4.887087 3.6967-1.123175 1.26928-3.076173-2.32688-1.072998 1.21258 2.892744 2.18813-1.123175 1.2693-2.892744-2.18812-1.32001 1.49173 3.179668 2.40516-1.123175 1.26929-4.990561-3.77496zm9.512271 7.00341l2.439458 1.57909-1.102242 4.78316 4.497557-2.58535 2.434499 1.57586-5.222537 6.89037-1.812187-1.17305 3.819832-5.0397-4.528503 2.60661-1.21474-.78633 1.103294-4.82373-3.819831 5.03969-1.817157-1.17625zm10.542531 14.77957l-3.106176-1.78746-1.367285 1.01864-1.99682-1.14909 7.667745-5.49766 2.368351 1.36288-1.961067 8.7816-1.99683-1.14907zm-1.71761-2.82705l2.110336 1.2144.862856-3.44627zm8.792835-1.24694l2.045565 1.05054-2.653761 4.40635c-.365694.60722-.519967 1.09632-.462831 1.46729.05717.37099.328371.68111.813638.93032.488804.25105.918937.30114 1.290388.15025.37145-.1509.740012-.52991 1.105705-1.13712l2.653763-4.40633 2.045575 1.05053-2.653751 4.40636c-.626648 1.04044-1.374748 1.67041-2.24433 1.88992-.869594.2195-1.881739.0332-3.036468-.56031-1.151208-.59123-1.855171-1.28581-2.111975-2.0838-.256813-.79798-.07188-1.71719.554721-2.75765zm9.6647 8.98979c.440349.19937.796343.26642 1.068048.20119.271672-.0652.499772-.27143.684328-.61871.182743-.34389.218003-.63327.105793-.86812-.112253-.23485-.388528-.45194-.828877-.65131l-.884334-.40039-1.029302 1.93695zm-1.599193.94486l-1.518436 2.85737-2.101658-.9515 4.01239-7.55056 3.209809 1.45321c1.073573.48606 1.771856 1.00925 2.094888 1.56957.323023.56033.292829 1.20126-.09059 1.92278-.265173.49897-.612965.84973-1.043367 1.0522-.430422.2025-.94795.26097-1.552615.17544.255233.19084.439706.4448.553395.76187.11368.31707.171419.7458.173217 1.28617l.0014 2.66083-2.238129-1.01329.0035-2.32606c.00064-.46822-.06534-.81801-.197477-1.04934-.132185-.23133-.369298-.42442-.711391-.5793l-.595-.26939zm8.716003-1.96283l2.140194.87525-3.693217 7.68801-2.140183-.87526zm6.719564 2.69002l7.84767 2.67749-.61691 1.537-2.82312-.96318-2.54826 6.34883-2.19574-.74917 2.54824-6.34879-2.82881-.96514zm8.55217 2.87445l6.03177 1.73482-.53013 1.56427-3.79674-1.09198-.50645 1.49441 3.57032 1.02687-.53017 1.56427-3.5703-1.02685-.62306 1.83843 3.92443 1.12872-.53015 1.56429-6.15951-1.77155zm13.95541 7.41002c.47926.0966.84255.0833 1.08984-.0398.24729-.12312.41595-.3735.50601-.75119.0892-.37402.049-.66262-.12051-.86587-.16949-.20323-.49388-.35312-.97315-.44968l-.96254-.19391-.5022 2.10655.96255.19391zm-1.31133 1.26912l-.74086 3.1076-2.28749-.46082 1.95767-8.21176 3.49364.70385c1.1685.2354 1.98182.58948 2.43991 1.06221.4581.47273.59359 1.10145.40655 1.88612-.12939.54271-.37721.95967-.74346 1.25095-.36627.29131-.85426.46201-1.46398.51208.29716.12905.5418.33493.73387.61766.19204.28271.35844.68607.49919 1.21018l.68582 2.58224-2.43603-.49077-.5949-2.25842c-.11996-.45457-.27392-.77956-.46186-.97499-.18798-.19542-.46812-.33063-.84047-.40565zm12.04969 3.7065l-3.62126-.4997-.82027 1.43549-2.32795-.32123 4.69227-7.85307 2.76106.38097 1.96073 8.77109-2.32796-.32121zm-2.79037-1.96216l2.46027.33948-.68374-3.47634zm11.35817-2.69532c-.71172-.0496-1.28428.15528-1.71764.61443-.43335.45919-.68734 1.13032-.76195 2.01342-.0744.87938.0642 1.57595.41534 2.08972.35119.51377.88263.79543 1.5944.84496.71578.0498 1.29035-.15483 1.72372-.614.43336-.45915.68717-1.12843.76149-2.00781.0745-.88312-.0637-1.58153-.41489-2.09533-.35119-.51375-.88469-.79555-1.60047-.84539zm.1323-1.56602c1.45583.1013 2.5637.56617 3.32356 1.39442.75986.8283 1.08242 1.92161.96769 3.27997-.11446 1.35461-.61669 2.38862-1.50676 3.10208-.89012.71342-2.06311 1.01945-3.51894.91813-1.45179-.10105-2.55863-.56581-3.32053-1.39422-.76188-.82843-1.0856-1.91995-.97118-3.27456.11471-1.35835.61818-2.39418 1.51029-3.10748.8921-.71329 2.06406-1.01939 3.51587-.91834zm5.90091.43997l2.34201.04-.1944 8.4025-2.34201-.04zm14.17937 6.51221l-3.6549.23341-.46759 1.56427-2.34958.15006 2.75809-8.59841 2.78673-.17799 3.95673 8.16955-2.34958.15006zm-3.18326-1.35931l2.48316-.15859-1.47697-3.25652zm10.43021-4.9132c-.70653.0966-1.2167.41282-1.53049.94865-.3138.53584-.40206 1.24179-.26482 2.11787.13668.8724.43751 1.52326.90254 1.95258.46499.42937 1.05076.59575 1.75732.49914.71055-.0971 1.22272-.41363 1.53653-.94948.31378-.53583.40235-1.23994.26567-2.11231-.13725-.87608-.43838-1.52881-.9034-1.95815-.46501-.42936-1.05277-.59545-1.76335-.4983zm-.24339-1.55358c1.44519-.19758 2.63718.03 3.57593.68273.93876.65276 1.5137 1.6529 1.72481 3.00042.21052 1.34384-.0335 2.45411-.73291 3.3308-.69913.87669-1.7713 1.41383-3.21649 1.61144-1.44119.19704-2.63217-.0305-3.57291-.68313-.94076-.65248-1.51641-1.65063-1.72697-2.99447-.21112-1.34753.0335-2.45979.73506-3.33676.70112-.87695 1.77231-1.41395 3.21348-1.61103zm8.62215-1.2531l8.11247-1.93657.43769 1.586-2.91838.69665 1.80792 6.55104-2.26982.54183-1.80792-6.55103-2.92427.69804zm8.70973-2.13235l6.01457-1.81734.54528 1.55692-3.78588 1.14392.52091 1.48737 3.56013-1.07571.54528 1.5569-3.56013 1.07571.64085 1.82979 3.91324-1.18239.54526 1.55692-6.14192 1.85581zm10.35207-3.29664l7.69635-3.06971.69697 1.50387-2.76864 1.10429 2.87895 6.21187-2.15341.85888-2.87898-6.21186-2.77427 1.10652zm16.54065.48757l-3.27295 1.53022.22656 1.60758-2.10405.98371-1.07204-8.90393 2.49548-1.16674 7.08514 6.09255-2.10404.98373zm-3.50772-.10486l2.22364-1.03965-2.7318-2.46466zm8.25191-6.46105c.31915-.17244.52038-.36797.6037-.5866.0833-.21862.0455-.45424-.11349-.70689-.15691-.2494-.35908-.39516-.60645-.43729-.24739-.0422-.53065.0231-.84981.19547l-1.12054.60542.96602 1.5353 1.12056-.6054zm2.06465 3.13567c.40682-.2198.66288-.46448.7682-.73403.10534-.26956.057-.56468-.14469-.88536-.19768-.31419-.44767-.49487-.74993-.54206-.30225-.0472-.65854.04-1.0689.26175l-1.18896.64239 1.19533 1.89968zm.24172-3.62657c.50824-.11837.98048-.0848 1.41665.10046.43617.18532.79795.50635 1.08532.96305.44022.69962.5123 1.35943.21628 1.97943-.29602.62-.96658 1.21233-2.01175 1.77701l-3.36164 1.81623-4.56416-7.25384 3.04074-1.64285c1.09073-.58929 1.97652-.8639 2.65734-.82375.68084.0401 1.23218.39543 1.65405 1.0659.22216.35307.32174.70181.29879 1.04624-.023.34442-.16684.66846-.43162.97212zm4.8062-5.78549c-.59481.36682-.91036.85415-.9466 1.46199-.0362.60787.21033 1.28001.73969 2.01646.52713.73333 1.1004 1.20175 1.71984 1.40526.61943.20351 1.22657.12186 1.82141-.24499.59822-.3689.91543-.85728.95167-1.46512.0363-.60784-.20923-1.27843-.73633-2.01177-.52936-.73645-1.10378-1.20643-1.7232-1.40995-.61945-.20348-1.22826-.12077-1.82648.24812zm-.93871-1.30598c1.2167-.75029 2.40081-1.01664 3.55236-.79898 1.15154.21766 2.13443.89287 2.94865 2.02563.812 1.12967 1.10429 2.2285.87691 3.29651-.22741 1.06802-.94946 1.97719-2.16616 2.72751-1.21332.74822-2.3966 1.01405-3.54982.79741-1.15321-.21661-2.13584-.88972-2.94785-2.01938-.81421-1.13276-1.1068-2.23367-.87773-3.30273.22909-1.06906.9503-1.97771 2.16364-2.72597zm4.96248-2.91512l2.37574-1.67283 4.58571 2.41512-1.27907-4.74341 2.37091-1.66942 5.48848 6.68181-1.76484 1.24269-4.01436-4.88719 1.29142 4.77713-1.183.83299-4.62717-2.42833 4.01434 4.88717-1.76969 1.24607zm13.57742-8.15787c-.54319.43004-.79339.94868-.75059 1.55594.0428.60728.37479 1.247.99597 1.91914.61856.66933 1.24862 1.07062 1.89017 1.20384.64157.13326 1.23394-.0147 1.77715-.44516.54629-.43247.79802-.95234.75525-1.55963-.0428-.60723-.3735-1.24553-.99204-1.91485-.62119-.67215-1.25256-1.07485-1.89413-1.20813-.64154-.13324-1.23547.0169-1.78178.44885zm-1.10155-1.19195c1.1111-.87958 2.25257-1.27527 3.42441-1.18702 1.17186.0882 2.23551.64935 3.191 1.68323.95283 1.03102 1.38554 2.08913 1.29816 3.17428-.0874 1.08518-.68668 2.06756-1.79777 2.94716-1.10801.87718-2.24871 1.27224-3.42211 1.1852-1.17338-.087-2.23649-.64609-3.18933-1.67714-.95547-1.03386-1.38875-2.09399-1.29978-3.18036.089-1.0864.68742-2.06817 1.79542-2.94535zm13.74835-2.04159l-2.67449 2.32257.70876 1.48136-1.71929 1.49309-3.75026-8.25296 2.0392-1.77084 8.66382 3.98589-1.71929 1.49308zm-3.3996.81683l1.81706-1.57796-3.37582-1.64759z" font-weight="700" font-size="7" stroke-width="1.04187894"/>
    </g>
    <g transform="translate(-2.2283711)" id="g4981">
      <path id="path4218" d="M257.89346 164.53945c0 27.87034-32.8624 104.81077-106.06805 104.81077-73.205642 0-106.06804-76.94043-106.06804-104.81077V.5H258.0244z" fill="none" stroke="#850b19" stroke-width="1" stroke-linecap="butt" stroke-linejoin="miter" stroke-miterlimit="4" stroke-dasharray="none" stroke-opacity="1"/>
      <g id="g4938">
        <g id="g4825">
          <path d="M45.757812.5v164.03906c0 27.87034 32.862718 104.81055 106.068358 104.81055 73.20565 0 106.06641-76.94021 106.06641-104.81055L258.02344.5z" id="path4241" fill="#ce1126" fill-opacity="1" fill-rule="evenodd" stroke="#000" stroke-width="0" stroke-linecap="butt" stroke-linejoin="miter" stroke-miterlimit="4" stroke-dasharray="none" stroke-opacity="1"/>
          <g id="g4803">
            <g transform="translate(-.13867701)" id="g4763" fill-opacity="1" stroke-miterlimit="4" stroke-dasharray="none" stroke-opacity="1">
              <g id="g4750" stroke-linecap="butt">
                <path id="path5191" d="M84.300994 166.79249l-22.78907-18.6836 29.41797-1.7207-15.90039-24.8125 28.509776 7.45508-7.453136-28.50977 24.810556 15.90039 1.72266-29.419921 18.68359 22.789061 10.72851-27.445311 10.72657 27.443361 18.68164-22.787111 1.72265 29.416021 24.8086-15.89844-7.45313 28.51172 28.50977-7.45508-15.89844 24.8125 29.41797 1.7207-22.78711 18.6836z" fill="#f1c403" stroke="#bd9c08" stroke-width="1" stroke-linejoin="round"/>
                <path id="path4697" d="M152.03125 89.210938l9.95313 25.464842 17.33203-21.142577 1.59961 27.292967 23.01953-14.75195-6.91602 26.45508 26.45117-6.91602-14.75 23.02149 27.29492 1.59765-17.15039 14.06055H85.195312l-17.15039-14.06055 27.292969-1.59765-14.751953-23.02149 26.451172 6.91602-6.91602-26.45313 23.02149 14.75391 1.59961-27.296877 17.33398 21.144527z" style="line-height:normal;font-variant-ligatures:normal;font-variant-position:normal;font-variant-caps:normal;font-variant-numeric:normal;font-variant-alternates:normal;font-feature-settings:normal;text-indent:0;text-align:start;text-decoration-line:none;text-decoration-style:solid;text-decoration-color:#000;text-transform:none;text-orientation:mixed;white-space:normal;shape-padding:0;isolation:auto;mix-blend-mode:normal;solid-color:#000;solid-opacity:1" color="#000" font-style="normal" font-variant="normal" font-weight="400" font-stretch="normal" font-size="medium" font-family="sans-serif" text-decoration="none" letter-spacing="normal" word-spacing="normal" writing-mode="lr-tb" direction="ltr" dominant-baseline="auto" baseline-shift="baseline" text-anchor="start" clip-rule="nonzero" display="inline" overflow="visible" visibility="visible" opacity="1" color-interpolation="sRGB" color-interpolation-filters="linearRGB" vector-effect="none" fill="#fcd116" fill-rule="nonzero" stroke="none" stroke-width="5" stroke-linejoin="miter" stroke-dashoffset="0" color-rendering="auto" image-rendering="auto" shape-rendering="auto" text-rendering="auto"/>
                <path id="path4717" d="M152.03125 100.19727l8.71484 22.29882 15.17579-18.51367 1.40039 23.89844 20.15625-12.91797-6.05664 23.16406 23.1621-6.05664-12.91601 20.15821 23.89844 1.39843-8.13086 6.66602H86.625l-8.130859-6.66602 23.898439-1.39843-12.917971-20.15821 23.160161 6.05664-6.05665-23.16211 20.15821 12.91993 1.40039-23.90235 15.17773 18.51563z" style="line-height:normal;font-variant-ligatures:normal;font-variant-position:normal;font-variant-caps:normal;font-variant-numeric:normal;font-variant-alternates:normal;font-feature-settings:normal;text-indent:0;text-align:start;text-decoration-line:none;text-decoration-style:solid;text-decoration-color:#000;text-transform:none;text-orientation:mixed;white-space:normal;shape-padding:0;isolation:auto;mix-blend-mode:normal;solid-color:#000;solid-opacity:1" color="#000" font-style="normal" font-variant="normal" font-weight="400" font-stretch="normal" font-size="medium" font-family="sans-serif" text-decoration="none" letter-spacing="normal" word-spacing="normal" writing-mode="lr-tb" direction="ltr" dominant-baseline="auto" baseline-shift="baseline" text-anchor="start" clip-rule="nonzero" display="inline" overflow="visible" visibility="visible" opacity="1" color-interpolation="sRGB" color-interpolation-filters="linearRGB" vector-effect="none" fill="#fcd734" fill-rule="nonzero" stroke="none" stroke-width="8" stroke-linejoin="miter" stroke-dashoffset="0" color-rendering="auto" image-rendering="auto" shape-rendering="auto" text-rendering="auto"/>
              </g>
              <g id="g4745" stroke-linecap="butt">
                <path id="path5015" d="M149.84562 191.28267l-91.826174-28.65039 49.986324.58594-40.785154-28.90821 47.359374 16.00586-29.855474-40.09765 40.097664 29.85742-16.00391-47.36133 28.90625 40.78516-.58398-49.986332 14.88867 47.722652 14.89081-47.722602-.58594 49.984372 28.90625-40.7832-16.00391 47.36133 40.09571-29.85547-29.85547 40.0957 47.35937-16.0039-40.78515 28.90625 49.98828-.58399-91.82618 28.64844z" fill="#f1c403" stroke="#bd9c08" stroke-width="1" stroke-linejoin="round"/>
                <path id="path4699" d="M139.83984 100.56055l12.18946 39.06836 12.1914-39.06836-.48047 40.91992 23.66407-33.38672-13.10157 38.77148 32.82422-24.43945-24.4414 32.82422 38.77148-13.10156-33.38867 23.66406 40.92383-.47852-75.16016 23.44922h-3.60547l-75.160154-23.45117 40.921874.48047-33.388671-23.66602L121.37109 155.25l-24.441402-32.82617 32.826172 24.4414-13.10156-38.77148 23.66406 33.38867z" style="line-height:normal;font-variant-ligatures:normal;font-variant-position:normal;font-variant-caps:normal;font-variant-numeric:normal;font-variant-alternates:normal;font-feature-settings:normal;text-indent:0;text-align:start;text-decoration-line:none;text-decoration-style:solid;text-decoration-color:#000;text-transform:none;text-orientation:mixed;white-space:normal;shape-padding:0;isolation:auto;mix-blend-mode:normal;solid-color:#000;solid-opacity:1" color="#000" font-style="normal" font-variant="normal" font-weight="400" font-stretch="normal" font-size="medium" font-family="sans-serif" text-decoration="none" letter-spacing="normal" word-spacing="normal" writing-mode="lr-tb" direction="ltr" dominant-baseline="auto" baseline-shift="baseline" text-anchor="start" clip-rule="nonzero" display="inline" overflow="visible" visibility="visible" opacity="1" color-interpolation="sRGB" color-interpolation-filters="linearRGB" vector-effect="none" fill="#fcd116" fill-rule="nonzero" stroke="none" stroke-width="5" stroke-linejoin="miter" stroke-dashoffset="0" color-rendering="auto" image-rendering="auto" shape-rendering="auto" text-rendering="auto"/>
              </g>
              <g id="g4741">
                <circle id="circle4649" r="50.92268" cy="177.52238" cx="152.03003" fill="#f1c403" stroke="#bd9c08" stroke-width="1"/>
                <path id="circle4701" d="M152.02934 131.23536c25.59188 0 46.28803 20.6943 46.28803 46.28616 0 25.59188-20.69615 46.28804-46.28803 46.28804-25.59187 0-46.28617-20.69616-46.28617-46.28804 0-25.59186 20.6943-46.28616 46.28617-46.28616z" style="line-height:normal;font-variant-ligatures:normal;font-variant-position:normal;font-variant-caps:normal;font-variant-numeric:normal;font-variant-alternates:normal;font-feature-settings:normal;text-indent:0;text-align:start;text-decoration-line:none;text-decoration-style:solid;text-decoration-color:#000;text-transform:none;text-orientation:mixed;white-space:normal;shape-padding:0;isolation:auto;mix-blend-mode:normal;solid-color:#000;solid-opacity:1" color="#000" font-style="normal" font-variant="normal" font-weight="400" font-stretch="normal" font-size="medium" font-family="sans-serif" text-decoration="none" letter-spacing="normal" word-spacing="normal" writing-mode="lr-tb" direction="ltr" dominant-baseline="auto" baseline-shift="baseline" text-anchor="start" clip-rule="nonzero" display="inline" overflow="visible" visibility="visible" opacity="1" color-interpolation="sRGB" color-interpolation-filters="linearRGB" vector-effect="none" fill="#fcd116" fill-rule="nonzero" stroke="none" stroke-width="4.77946854" stroke-linecap="butt" stroke-linejoin="miter" stroke-dashoffset="0" color-rendering="auto" image-rendering="auto" shape-rendering="auto" text-rendering="auto"/>
                <path id="path4721" d="M152.02948 141.73869c19.82915 0 35.78456 15.95401 35.78456 35.78298 0 19.82898-15.95558 35.78456-35.78456 35.78456-19.82897 0-35.78298-15.95542-35.78298-35.78456 0-19.82911 15.95386-35.78298 35.78298-35.78298z" style="line-height:normal;font-variant-ligatures:normal;font-variant-position:normal;font-variant-caps:normal;font-variant-numeric:normal;font-variant-alternates:normal;font-feature-settings:normal;text-indent:0;text-align:start;text-decoration-line:none;text-decoration-style:solid;text-decoration-color:#000;text-transform:none;text-orientation:mixed;white-space:normal;shape-padding:0;isolation:auto;mix-blend-mode:normal;solid-color:#000;solid-opacity:1" color="#000" font-style="normal" font-variant="normal" font-weight="400" font-stretch="normal" font-size="medium" font-family="sans-serif" text-decoration="none" letter-spacing="normal" word-spacing="normal" writing-mode="lr-tb" direction="ltr" dominant-baseline="auto" baseline-shift="baseline" text-anchor="start" clip-rule="nonzero" display="inline" overflow="visible" visibility="visible" opacity="1" color-interpolation="sRGB" color-interpolation-filters="linearRGB" vector-effect="none" fill="#fcd734" fill-rule="nonzero" stroke="none" stroke-width="6.44420815" stroke-linecap="butt" stroke-linejoin="miter" stroke-dashoffset="0" color-rendering="auto" image-rendering="auto" shape-rendering="auto" text-rendering="auto"/>
              </g>
            </g>
            <g transform="matrix(-1 0 0 1 303.66016 0)" id="g5465" stroke="none">
              <path d="M48.644533 182.32031c9.42094 33.95372 42.36883 87.0293 103.181637 87.0293 60.81282 0 93.7607-53.07558 103.18164-87.0293z" id="path4239" fill="#003f87" fill-opacity="1" fill-rule="evenodd" stroke-width="1.1951679"/>
              <g id="g5458" fill="#fff" stroke-width=".58931154">
                <path id="path4673-5" d="M122.04102 230.73828c-9.94975 0-19.89986 8.97656-29.849614 8.97656-4.650612 0-9.300559-1.96946-13.951172-4.05859 6.006956 6.60848 12.873172 12.71231 20.640625 17.85352 7.720191-2.42225 15.439971-7.8125 23.160161-7.8125 9.94976 0 19.89986 8.97851 29.8496 8.97851 9.94975 0 19.89985-8.97851 29.84961-8.97851 7.69086 0 15.38141 5.34966 23.07227 7.78515 7.71191-5.10986 14.5328-11.16968 20.50781-17.72851-4.57701 2.05164-9.15345 3.96093-13.73047 3.96093-9.94976 0-19.89986-8.97656-29.84961-8.97656-9.94976 0-19.89986 8.97656-29.84961 8.97656-9.94974 0-19.89984-8.97656-29.8496-8.97656z"/>
                <path id="path4974-5" d="M62.34375 200.76562c-2.134483 0-4.269814.42714-6.404297 1.07618 2.140093 4.59348 4.630402 9.27009 7.470703 13.91992 9.593967.59694 19.187284 8.94141 28.78125 8.9414 9.949754 0 19.899864-8.97851 29.849614-8.97851 9.94976 0 19.89986 8.97852 29.8496 8.97851 9.94975 0 19.89985-8.97851 29.84961-8.97851 9.94975 0 19.89985 8.97852 29.84961 8.97851 9.54907 0 19.09744-8.26367 28.64649-8.92968 2.85036-4.66531 5.34671-9.35843 7.49219-13.9668-2.09669-.62928-4.19433-1.04102-6.29102-1.04102-9.94975 0-19.8979 8.97657-29.84766 8.97657-9.94976 0-19.89986-8.97657-29.84961-8.97657-9.94976 0-19.89986 8.97657-29.84961 8.97657-9.94974 0-19.89984-8.97657-29.8496-8.97657-9.94975 0-19.89986 8.97657-29.849614 8.97657-9.949754 0-19.897901-8.97657-29.847656-8.97657z"/>
                <path id="path4976-6" d="M62.34375 170.84766c-5.11034 0-10.221691 2.36423-15.332031 4.66796.813325 4.08922 2.016067 8.57968 3.652343 13.34766 3.892746-1.67306 7.786942-3.05664 11.679688-3.05664 9.949755 0 19.897902 8.97852 29.847656 8.97852 9.949754 0 19.899864-8.97852 29.849614-8.97852 9.94976 0 19.89986 8.97852 29.8496 8.97852 9.94975 0 19.89985-8.97852 29.84961-8.97852 9.94975 0 19.89985 8.97852 29.84961 8.97852 9.94976 0 19.89791-8.97852 29.84766-8.97852 3.85489 0 7.71152 1.35493 11.56641 3.00586 1.63487-4.77082 2.83409-9.26217 3.64453-13.35156-5.06983-2.28634-10.14111-4.61328-15.21094-4.61328-9.94975 0-19.8979 8.97656-29.84766 8.97656-9.94976 0-19.89986-8.97656-29.84961-8.97656-9.94976 0-19.89986 8.97656-29.84961 8.97656-9.94974 0-19.89984-8.97656-29.8496-8.97656-9.94975 0-19.89986 8.97656-29.849614 8.97656-9.949754 0-19.897901-8.97656-29.847656-8.97656z"/>
              </g>
            </g>
          </g>
        </g>
        <g transform="translate(.04006925)" id="g4897">
          <path id="path5525" d="M145.62153 45.490212c-2.69948-15.084519-12.66283-21.585524-24.6345-23.514282-13.83652-2.228285-45.66967-4.512041-66.822216-11.894217 9.1548 10.936975 28.312066 16.39675 41.626957 18.865939 14.097359 2.614981 27.816509 6.424933 38.692729 16.404675z" fill="#f1c403" fill-opacity="1" stroke="#bd9c08" stroke-width="1.72516179" stroke-linejoin="round"/>
          <path d="M67.567658 16.953901c18.941863 10.355275 40.933482 8.14652 59.654742 19.63244 2.91827 1.600679 5.5881 4.033369 8.29895 5.871532 2.35595-.07165 4.66636.361715 7.00488.06627-2.97035-10.458045-12.01056-16.313421-20.54088-17.409788-11.49676-2.104897-23.13762-2.722489-34.649794-4.70882-6.810308-1.010423-13.606872-2.19106-20.34543-3.768031l.358473.196387z" id="path5529" fill="#fcd116" fill-opacity="1" stroke="none" stroke-width="1.72516179"/>
          <path d="M109.52704 26.278726c9.3253 2.446219 18.46216 6.515718 26.35066 13.109449.81275.275704 2.4079.478401 2.82853.09707-4.78479-9.056119-14.16441-11.824526-22.49533-12.384259-2.39146-.33349-4.78428-.65252-7.17844-.955722l.38386.103586z" id="path5537" fill="#fcd734" fill-opacity="1" stroke="none" stroke-width="1.72516179"/>
          <path d="M134.36713 44.805554c-2.12569-13.488575-12.51939-17.53626-25.63866-19.95947-14.279923-2.635591-28.846758-4.103155-43.087553-8.886201-3.534118-1.185454-6.820457-3.280622-10.237206-4.920928" id="path4661" fill="none" stroke="#bd9c08" stroke-width="1.72516179"/>
          <path d="M169.66919 59.74425l28.92499.232978c.18258-1.486584-2.4778-4.445476-4.75997-4.878137-7.31601-1.39783-12.80629 1.483414-21.70027 1.594344z" id="path4651" fill="#f1c403" fill-opacity="1" stroke="#bd9c08" stroke-width="1.72516179"/>
          <path d="M189.26868 56.63411c-3.21252.113829-6.47007.768919-9.68364 1.278652 5.1466-.0437 11.25944.258827 15.82223-.0019-1.84057-1.321309-4.07146-1.290958-6.13859-1.276785z" id="path5583" fill="#fcd116" fill-opacity="1" stroke="none" stroke-width="1.72516179"/>
          <path d="M112.06698 51.472976c6.79437 10.428252 19.9658 17.675716 32.53735 17.770809 16.95334.12679 35.75849-16.547316 58.489-21.652079l-74.21647-1.857434c-9.61124-7.995517-16.90118-6.981217-21.8698-2.023836l-14.188646.521403c-2.008312 1.32968 1.656215 6.882965 4.629563 7.085818z" id="path4653" fill="#f1c403" fill-opacity="1" stroke="#bd9c08" stroke-width="1.72523391" stroke-linejoin="round" stroke-miterlimit="4" stroke-dasharray="none"/>
          <path d="M115.01744 42.72947c-3.25896-.150402-5.72769 3.273239-8.72826 3.897555-3.55572.238793-7.404606-.0066-10.730423.489061 3.153491 2.837923 7.391723.755445 10.986783 1.43047 2.30323.448783 5.28316-.823745 7.13048.784623 10.1326 14.79699 27.96031 20.498703 42.90374 14.688313 10.42177-3.540879 20.00817-9.844035 30.26129-13.96624-19.56927-.489608-39.13853-.979814-58.7078-1.469049-3.84238-3.248803-8.29579-6.100077-13.11581-5.854733z" id="path5545" fill="#fcd116" fill-opacity="1" stroke="none" stroke-width="1.72516179"/>
          <path d="M115.87221 46.676491c2.30137 2.684256 4.2851 5.87718 7.09243 7.783911 11.12918 9.357788 26.38291 10.221873 38.58635 3.597959 3.1837-1.390629 6.3693-2.987934 9.52006-4.591948-14.76283-.515389-29.64245-.341983-44.33248-1.408384-3.18269-2.641185-7.07129-5.620696-10.86636-5.381538z" id="path5553" fill="#fcd734" fill-opacity="1" stroke="none" stroke-width="1.72516179"/>
          <path style="line-height:normal;font-variant-ligatures:normal;font-variant-position:normal;font-variant-caps:normal;font-variant-numeric:normal;font-variant-alternates:normal;font-feature-settings:normal;text-indent:0;text-align:start;text-decoration-line:none;text-decoration-style:solid;text-decoration-color:#000;text-transform:none;text-orientation:mixed;white-space:normal;shape-padding:0;isolation:auto;mix-blend-mode:normal;solid-color:#000;solid-opacity:1" d="M138.91858 64.69055c13.53266 2.15961 23.67493-2.83241 34.79322-10.627743-11.75567 6.056179-21.51355 10.858091-34.79322 10.627743z" id="path4663" color="#000" font-style="normal" font-variant="normal" font-weight="400" font-stretch="normal" font-size="medium" font-family="sans-serif" text-decoration="none" letter-spacing="normal" word-spacing="normal" writing-mode="lr-tb" direction="ltr" dominant-baseline="auto" baseline-shift="baseline" text-anchor="start" clip-rule="nonzero" display="inline" overflow="visible" visibility="visible" opacity="1" color-interpolation="sRGB" color-interpolation-filters="linearRGB" vector-effect="none" fill="#bd9c08" fill-opacity="1" fill-rule="nonzero" stroke="none" stroke-width="1.72516179" stroke-linecap="round" stroke-linejoin="miter" stroke-miterlimit="4" stroke-dasharray="none" stroke-dashoffset="0" stroke-opacity="1" color-rendering="auto" image-rendering="auto" shape-rendering="auto" text-rendering="auto"/>
          <path style="line-height:normal;font-variant-ligatures:normal;font-variant-position:normal;font-variant-caps:normal;font-variant-numeric:normal;font-variant-alternates:normal;font-feature-settings:normal;text-indent:0;text-align:start;text-decoration-line:none;text-decoration-style:solid;text-decoration-color:#000;text-transform:none;text-orientation:mixed;white-space:normal;shape-padding:0;isolation:auto;mix-blend-mode:normal;solid-color:#000;solid-opacity:1" d="M92.766329 46.065165c-1.042081-.06486-1.042329 1.960764 0 1.902112 0 0 14.954951-.528683 18.673791-.739869-4.03164-1.055935-18.673791-1.162243-18.673791-1.162243z" id="path4665" color="#000" font-style="normal" font-variant="normal" font-weight="400" font-stretch="normal" font-size="medium" font-family="sans-serif" text-decoration="none" letter-spacing="normal" word-spacing="normal" writing-mode="lr-tb" direction="ltr" dominant-baseline="auto" baseline-shift="baseline" text-anchor="start" clip-rule="nonzero" display="inline" overflow="visible" visibility="visible" opacity="1" color-interpolation="sRGB" color-interpolation-filters="linearRGB" vector-effect="none" fill="#bd9c08" fill-opacity="1" fill-rule="nonzero" stroke="none" stroke-width="1.72516179" stroke-linecap="round" stroke-linejoin="miter" stroke-miterlimit="4" stroke-dasharray="none" stroke-dashoffset="0" stroke-opacity="1" color-rendering="auto" image-rendering="auto" shape-rendering="auto" text-rendering="auto"/>
          <circle cx="115.09249" cy="45.014229" r="2.1126463" id="circle4667" fill="#bd9c08" stroke="none" stroke-width="1.56492317"/>
          <path d="M136.63627 55.558695c4.42091 6.900387 11.28048 6.510518 18.66171.489717 7.35514-6.00021 15.34928-22.896188 19.20942-23.173529 26.98189-1.904984 59.53757-15.657375 75.10854-26.3471243-19.74411 3.3963218-39.30565 7.2474763-59.21929 7.3425713-33.97187.164814-37.98852 18.967361-51.83808 32.150066" id="path4657" fill="#f1c403" fill-opacity="1" stroke="none" stroke-width="1.72516179" stroke-linecap="round" stroke-linejoin="round"/>
          <path d="M232.32169 12.383417c-16.57609 2.878526-33.30222 4.391511-50.03919 4.672866-11.47365 1.059872-22.86922 6.754438-30.49656 17.491683-3.58355 4.594738-11.78187 14.285524-14.88126 14.285524-.34373 2.382441-.587 4.348572-.26815 6.725608 3.81985 4.427726 12.75096 2.030426 16.61091-1.304026 7.81846-6.072275 11.62415-17.349929 19.2997-23.565463 3.84577-1.715942 8.02868-.614218 11.95768-1.931978 17.14513-2.942378 33.97146-8.709851 49.94345-16.738206-.70886.121329-1.41772.242663-2.12658.363992z" id="path5563" fill="#fcd116" fill-opacity="1" stroke="none" stroke-width="1.72516179" stroke-linecap="round"/>
          <path d="M204.24765 19.788401c-9.35863.825004-18.78998.641763-28.08633 2.12891-10.0813 2.446563-19.06165 9.771086-25.4155 19.481902-2.78094 3.770831-7.13252 6.762187-8.06215 11.944935 5.32726 2.061989 10.22141-2.974287 13.67517-7.300906 5.09753-6.433314 8.86438-15.019627 15.63561-19.132616 6.04513-1.846417 12.39957-1.183605 18.43322-3.168234 5.16268-1.100672 10.30975-2.469386 15.41127-4.076256-.53043.04076-1.06086.08151-1.59129.122265z" id="path5571" fill="#fcd734" fill-opacity="1" stroke="none" stroke-width="1.72516179" stroke-linecap="round"/>
          <path id="path4659" d="M162.27137 29.18416c11.00275-9.911251 23.73777-10.224475 37.66246-10.433616 12.54352-.186925 34.13133-6.474364 45.86463-9.8157508.90342-.2402255.77704-1.8512628-.14746-1.8797147-.0706-.00239-.14113.00722-.20966.028003-11.74055 3.3434505-33.39662 9.5855175-45.52672 9.7662875-13.93095.209236-27.12093.489296-38.57482 10.80694-6.84746 6.16913-12.71615 13.461423-19.43526 19.791107 7.75645-4.878295 13.65163-12.213276 20.36683-18.263256z" style="line-height:normal;font-variant-ligatures:normal;font-variant-position:normal;font-variant-caps:normal;font-variant-numeric:normal;font-variant-alternates:normal;font-feature-settings:normal;text-indent:0;text-align:start;text-decoration-line:none;text-decoration-style:solid;text-decoration-color:#000;text-transform:none;text-orientation:mixed;white-space:normal;shape-padding:0;isolation:auto;mix-blend-mode:normal;solid-color:#000;solid-opacity:1" color="#000" font-style="normal" font-variant="normal" font-weight="400" font-stretch="normal" font-size="medium" font-family="sans-serif" text-decoration="none" letter-spacing="normal" word-spacing="normal" writing-mode="lr-tb" direction="ltr" dominant-baseline="auto" baseline-shift="baseline" text-anchor="start" clip-rule="nonzero" display="inline" overflow="visible" visibility="visible" opacity="1" color-interpolation="sRGB" color-interpolation-filters="linearRGB" vector-effect="none" fill="#bd9c08" fill-opacity="1" fill-rule="nonzero" stroke="none" stroke-width="1.72516179" stroke-linecap="round" stroke-linejoin="miter" stroke-miterlimit="4" stroke-dasharray="none" stroke-dashoffset="0" stroke-opacity="1" color-rendering="auto" image-rendering="auto" shape-rendering="auto" text-rendering="auto"/>
          <path id="path5633" d="M144.85477 61.600334c3.40767.01333 7.10216-1.681674 10.87941-4.762745 3.85084-3.141454 7.68482-8.911529 11.08293-13.916774 1.69905-2.502622 3.28269-4.814537 4.64867-6.480992 1.36547-1.665824 2.57334-2.577617 3.08734-2.615167 27.16318-1.917786 59.72037-15.671887 75.44778-26.4690315.68936-.4748267.42805-1.7511127-.36402-1.777978l.00002-.0000143c-.0436-.00143-.0873.0009557-.13056.00841-19.75438 3.3980899-39.2799 7.2384118-59.11254 7.3331188-17.1046.08298-26.82637 4.902149-33.93154 11.383733-7.10517 6.481585-11.57427 14.485417-18.38579 20.968961-.85857.775689.19057 2.237859.9646 1.49705 7.02334-6.721912 11.50194-14.688122 18.36045-20.944692 6.8585-6.256569 16.13114-10.921111 32.99842-11.00294 18.43764-.08804 36.54059-3.378258 54.72115-6.5519256-16.55485 10.1242676-45.9644 21.9124726-70.65934 23.6559966h-.00079c-1.41639.101761-2.65496 1.405313-4.10339 3.172362-1.44844 1.76705-3.04635 4.106524-4.74775 6.61259-3.40278 5.012132-7.24378 10.690288-10.74808 13.549044-3.60397 2.93973-7.02971 4.450513-10.00236 4.438882-2.97265-.01163-5.5199-1.46831-8.22292-4.139285 1.71789 4.229412 4.81064 6.028065 8.21831 6.041397z" style="line-height:normal;font-variant-ligatures:normal;font-variant-position:normal;font-variant-caps:normal;font-variant-numeric:normal;font-variant-alternates:normal;font-feature-settings:normal;text-indent:0;text-align:start;text-decoration-line:none;text-decoration-style:solid;text-decoration-color:#000;text-transform:none;text-orientation:mixed;white-space:normal;shape-padding:0;isolation:auto;mix-blend-mode:normal;solid-color:#000;solid-opacity:1" color="#000" font-style="normal" font-variant="normal" font-weight="400" font-stretch="normal" font-size="medium" font-family="sans-serif" text-decoration="none" letter-spacing="normal" word-spacing="normal" writing-mode="lr-tb" direction="ltr" dominant-baseline="auto" baseline-shift="baseline" text-anchor="start" clip-rule="nonzero" display="inline" overflow="visible" visibility="visible" opacity="1" color-interpolation="sRGB" color-interpolation-filters="linearRGB" vector-effect="none" fill="#bd9c08" fill-opacity="1" fill-rule="nonzero" stroke="none" stroke-width="1.72516179" stroke-linecap="round" stroke-linejoin="round" stroke-miterlimit="4" stroke-dasharray="none" stroke-dashoffset="0" stroke-opacity="1" color-rendering="auto" image-rendering="auto" shape-rendering="auto" text-rendering="auto"/>
        </g>
      </g>
    </g>
  </g>
</svg>
