<svg xmlns="http://www.w3.org/2000/svg" xmlns:xlink="http://www.w3.org/1999/xlink" version="1.0" viewBox="0 0 658.00079 729.09263" id="Layer_1" xml:space="preserve">
  <path d="M329.00043 1c109.391 0 218.609 18.6 328 54.695 0 255.765 2.121 526.904-328 672.305C-1.2085715 582.599 1.0004285 311.46 1.0004285 55.695 110.30343 19.6 219.69643 1 329.00043 1z" id="path238" fill="#d0a650" fill-opacity="1" fill-rule="evenodd" stroke="#034ea2" stroke-width="2" stroke-miterlimit="4" stroke-dasharray="none" stroke-opacity="1"/>
  <path d="M329.00043 36.513c98.654 0 197.308 16.751 295.96 49.328 0 230.896 1.941 475.501-295.96 606.732C31.055428 561.343 33.039428 316.737 33.039428 85.841 131.69243 53.265 230.34643 36.513 329.00043 36.513" id="path242" fill="#034ea2" fill-opacity="1"/>
  <path d="M118.87706 190.79839l-25.832622-18.16805-25.826092 18.17667 9.942849-29.29621-25.914779-18.05905 31.977671.0621 9.809902-29.33778 9.820411 29.33453 31.97765-.0726-25.90833 18.06767 9.95334 29.29276z" id="star" fill="#fff"/>
  <use transform="translate(87.073666 -27.86267)" id="use2460" x="0" y="0" width="658" height="729.09302" xlink:href="#star"/>
  <use transform="translate(281.77235 -47.025462)" id="use2462" x="0" y="0" width="658" height="729.09302" xlink:href="#star"/>
  <use transform="translate(375.80187 -27.86267)" id="use2464" x="0" y="0" width="658" height="729.09302" xlink:href="#star"/>
  <use transform="translate(179.70631 -47.025462)" id="use2466" x="0" y="0" width="658" height="729.09302" xlink:href="#star"/>
  <use transform="translate(471.92137)" id="use2468" x="0" y="0" width="658" height="729.09302" xlink:href="#star"/>
  <path d="M215.65215 303.33501s1.83442-1.23629 2.50555-1.40113c.67112-.16484 3.04245-.90661 3.04245-.90661s1.52122-.78299 2.32657-.78299c.8501 0 2.50555.90661 3.04245 1.6896.49216.78298 3.17668 2.1429 3.17668 2.1429s1.83442.61814 2.19235 0c.35794-.61815 1.16329-1.07145 2.01339-1.07145.85009 0 .98432-.78299.98432-1.40113s.35793-1.40113.98432-2.1429c.67113-.78298 2.01339-1.23629 2.01339-1.23629s1.83441-.78298 2.01338-1.85443c.17897-1.07146 2.01339-1.85444 3.04245-2.01928.98432-.16484 0-.61814 2.68451-.32967 2.68452.32967 3.04245-.61815 3.17668-1.40113.17897-.78299 0-1.56597 1.70018-1.40113 1.70019.16484 2.50555.16484 2.50555-.78298 0-.90662 1.52122-1.40113-1.16329-2.1429-2.68451-.78299-2.50554-.16484-2.68451-1.40113-.17896-1.23629 0-1.07145-1.83441-1.23629-1.83442-.16484-.8501-1.07145-.98433-2.01927-.17896-.90662-.67112-1.40113-.98432-2.01928-.35793-.61814-1.34225-.61814-1.34225-1.52475 0-.90662-.17897-1.40113-1.16329-1.40113-.98433 0-1.34226 0-1.34226-.90661 0-.90662.17897-1.6896 1.16329-1.6896s1.52122-.78298 1.34226-1.68959c-.17897-.90662-.17897-2.92589-.17897-2.92589l1.34225-1.56597s4.02678-3.25556 4.38471-3.8737c.35794-.61815 1.70018-1.07145 2.32657.16484.67113 1.23629.98432 1.56596 1.52122 2.1429.49216.61814 2.01339.16484 2.32658-.45331.35794-.61814.49216-2.88467 1.387-4.12096.89484-1.19508 1.52122-1.81323 1.74493-2.80226.22371-.98903.67113-1.81322 1.74494-1.81322 1.0738 0 1.74493-1.40113 1.74493-2.22532 0-.8242.44742-1.60718 1.74494-1.81323 1.29751-.20605 1.96864-.98903 2.41606.20605.44742 1.19508.89484 1.19508 1.74493 1.60718.89484.41209 2.19236.98903 2.81874.41209.67113-.61814.98432-1.60717 1.96865-.98903.93958.61815 1.6107 0 1.83441-1.19508.22371-1.19508.44742-2.80225.44742-2.80225s.22371-.8242 1.74494-.8242c1.52122 0 .44742-.98903 1.29751-1.60717.89484-.61815.89484-1.19508 1.96864-.8242 1.07381.4121 2.81874-.49451 1.96865-1.48354-.89484-.98903-2.81874-2.59621-1.74494-3.8325 1.07381-1.19508 1.52123-3.21435.44742-3.4204-1.0738-.20605-2.63977.20605-2.81874-.98903-.22371-1.19508-.67112-2.01927.67113-2.22532 1.29752-.20605 3.48987-.20605 4.161-.82419.67113-.61815 2.81874-.98904 2.81874-2.80226 0-1.81322.67113-2.01927.89484-3.0083.22371-.98904.22371-3.09073-.67113-4.07976-.89484-.98903-2.19236-2.43137-2.41606-3.0083-.22371-.61815-1.07381-1.60718-2.41607-2.01928-1.29751-.41209-2.41606-.61814-2.41606-1.60717s.89484.20605.89484-2.43137c0-2.59621-1.74494-3.0083-1.74494-3.0083l-2.63977-1.60718s-4.65316-1.23629-5.90593-1.23629-2.68451-1.31871-1.25277-2.1429 1.78967-2.30774 1.25277-3.46161c-.5369-1.15387-.89484-1.97806-2.86348-2.47258-1.96864-.49452-2.50555-.98903-1.61071-2.1429.89484-1.15387 1.07381-1.97806 2.14761-1.15387 1.07381.82419 2.86348 1.15387 4.29523.49451 1.43174-.65935 1.96864-1.15387 2.68451-.49451.71587.65935 1.61071 1.31871 2.68451.32968 1.07381-.98904 3.04245-1.15387 3.93729-.65936.89484.49452 3.04245.32968 3.75832 0 .71587-.32968 2.14761-1.48355 2.14761-2.1429 0-.65935.89484-1.81322 1.78968-2.30774.89483-.49452 1.96864-2.1429 2.86348-2.1429.89484 0 1.25277-.98903 1.25277-1.64839 0-.65935.71587-1.97806.89484-2.47258.17897-.49451 1.96864-1.19508 3.22142-.16483 1.25277.98903 2.86348 1.3187 2.86348 1.3187s1.78967.32968 2.68451 0c.89484-.32967 2.14761-.65935 3.40039.16484 1.25277.8242 3.04244.8242 3.04244.8242s.35794-1.31871.35794-1.97807c0-.65935.35794-1.81322-.35794-2.30774-.71587-.49451-1.6107-1.15387-.17896-2.1429 1.43174-.98903 1.43174-.82419 2.86348-.82419s2.32658.16484 3.40038.16484c1.07381 0 2.86348.98903 2.86348 1.97806s.71587 1.64839 1.61071 2.1429c.89484.49452 1.96865.98903 1.61071 1.81323-.35793.82419-.35793 1.48354.71587 1.3187 1.07381-.16483 1.43174.49452 1.43174 1.31871 0 .8242.35794 1.31871 1.43174 1.64839 1.07381.32968 1.61071.98903 1.61071 1.81322 0 .8242-.17897 1.31871.17897 2.1429.35793.8242 1.43174 2.14291 1.43174 2.14291s1.96864 2.30774-.5369 1.15387c-2.50555-1.15387-3.04245-1.64839-3.93729-1.48355-.89484.16484-1.43174.65935-1.43174.65935s-1.25277.32968-2.14761.32968c-.89484 0-1.78968 1.81322-.35794 2.1429s1.96865.65936 1.96865 1.81323-.53691.82419-1.25278 1.64838-1.25277.32968-2.50554.32968c-1.25278 0-1.61071.98903-1.61071 1.97806s.5369.82419 1.0738 1.64839c.53691.82419 1.43174.98903 2.32658.16484.89484-.8242 1.61071-1.31871 2.14761.16483.53691 1.48355 1.25278 1.48355 2.32658 1.48355 1.07381 0 1.43174 0 2.32658-.49451.89484-.49452 1.96864 0 2.14761 1.3187.17897 1.31871 1.07381 1.48355 1.96865 1.97807.89483.49451 1.43174.82419 1.6107 1.64838.17897.8242.71587 1.15387 1.61071.65936.89484-.49452 2.32658-.8242 2.86348-.16484.53691.65935 1.43174 1.97806 1.43174 1.97806l.17897 1.64839 3.40039 1.15387s.35793.82419.35793 1.48354c0 .65936.5369.98904 1.43174.8242s2.50555 0 2.50555 0 1.25277-.49452 1.25277-1.48355c0-.98903.5369-1.31871 1.43174-1.31871s2.86348.65936 3.40039-.32968c.5369-.98903 2.14761-1.3187 3.40038-.82419 1.25277.49452 4.4742 1.81323 4.4742 1.81323s-.35794.16483.71587 1.81322 3.04245 1.64839 3.04245 1.64839.17897 1.48354.53691 2.1429c.35793.65935 1.96864.98903 2.86348.32967.89483-.65935 2.14761-1.48354 3.22141-1.48354 1.07381 0 1.78968 0 1.78968-.65936 0-.65935-1.07381-1.15387-1.07381-2.1429 0-.98903 1.07381-.98903 1.25278-1.97806.17896-.98903 1.25277 0 1.96864.49451.71587.49452 1.61071 1.31871 1.61071 1.97807 0 .65935 1.43174 2.96709 2.32658 3.29677.89484.32968 3.22141.49451 3.93728-.32968.71587-.82419 2.50555-1.15387 2.32658.82419-.17896 1.97807-.5369 2.14291.71587 2.80226 1.25278.65935 1.43174 2.96709.35794 3.62645-1.07381.65935-1.43174.82419-1.43174 1.97806s-.35794 2.47258.5369 3.13193c.89484.65936 1.43174 1.15387 1.43174 1.81323 0 .65935 1.07381 3.62645 1.07381 3.62645s.5369 2.96709.35793 3.62645c-.17897.65935-.5369 1.81322 1.07381 1.64838 1.61071-.16484 1.96864-.16484 1.96864 1.15387 0 1.31871.5369 1.81323-.35793 2.30774-.89484.49452-1.43174 2.1429-.53691 2.47258.89484.32968 1.61071.82419 1.78968 1.48355.17897.65935 1.61071 1.81322 2.50555 1.15387.89483-.65936 1.0738-.98903 1.78967-1.15387s1.25277-.65936.5369-1.48355c-.71587-.82419-.89483-1.64839-.17896-2.1429.71587-.49452 1.0738-2.1429 1.0738-2.1429s1.07381-1.48355 2.32658 0c1.25277 1.48354 1.43174.98903 2.32658.98903.89484 0 1.25277.82419 1.25277 1.64838 0 .8242 1.78968.65936 1.78968 1.97807s.35793 4.45064.35793 4.45064 0 1.81322 1.07381 2.47258c1.0738.65935.89484.82419.35793 1.64838-.5369.8242-.35793 2.1429-.35793 2.80226 0 .65935.35793.98903-.5369 1.64838-.89484.65936-1.25278 1.48355-.71587 2.47258.5369.98904.35793 1.64839 1.78967 2.80226s1.25278 1.64839 1.25278 2.47258c0 .82419 1.43174 1.97806 1.43174 2.80225 0 .8242 1.0738 1.81323 1.96864 1.97807.89484.16484 1.96864 1.64838 1.96864 2.47258 0 .82419.17897 2.96709.17897 2.96709s-.17897.49452.89484.49452c1.0738 0 1.78967 1.15387 2.14761-.16484.35793-1.31871 1.43174-1.48355 2.14761-1.81323.71587-.32967 2.14761-.98903 2.86348-.49451.71587.49451 1.61071.49451 2.32658.49451.71587 0 4.11626.16484 4.11626.16484s.89483-.16484 1.43178 1.15387c.5369 1.31871 2.1476 2.80226 1.2527 3.46161-.8948.65936-.8948 1.97806.179 1.97806s2.1476 0 2.1476.8242c0 .82419.179 1.48354 1.0738.98903.8949-.49452 1.4318-.65936 1.7897 0 .3579.65935 1.0738.65935 1.9686 1.15387.8949.49451 1.2528.16484 1.7897-.49452.5369-.65935 2.6845-1.31871 2.6845-1.31871s2.8635-.65935 3.9373-.32967c1.0738.32967 2.5056.98903 2.5056.98903s.7158 1.64838.3579 2.63742c-.3579.98903-.7159.82419-.3579 2.30774.3579 1.48354-.358 1.64838-1.0738 1.48354-.7159-.16484-1.4318-.16484-1.4318 1.15387 0 1.31871-.7159 1.64839-.7159 2.80226s0 .98903-.7158 1.48355c-.7159.49451-.8949 1.3187.1789 1.48354 1.0738.16484.7159 1.31871.7159 1.97807 0 .65935-.179 2.1429-.179 2.1429s.179.82419-1.0738.82419c-1.2527 0-2.3265-.16484-2.5055.65935-.179.8242-1.6107 2.14291-.3579 2.9671 1.2527.82419.8948 1.31871.1789 1.64838-.7159.32968-1.2528 1.97807.179 2.47258 1.4317.49452 1.2528.98903.3579 1.64839-.8948.65935-2.6845 1.15387-2.6845 2.1429 0 .98903-.3579.98903-1.4317 1.15387-1.0738.16484-1.6107 1.48355-.358 3.13193 1.2528 1.64839 1.6107 1.31871 2.5056 1.31871.8948 0 .8948-1.31871.8948-1.31871s3.0425.16484 3.9373.16484 2.1476 0 2.8635-.49451c.7159-.49452 2.6845-1.31871 2.6845.16483 0 1.48355.3579 1.31871 1.2528 1.97807.8948.65935 1.0738.16484 1.7896 1.15387.7159.98903.8949.16484 1.4318-.98903.5369-1.15387 1.6107-2.30774 2.5055-.98904.8949 1.31871.8949.98904 1.9687.98904 1.0738 0 1.4317.49451 1.4317 1.3187 0 .8242 1.0738.8242 2.3266.65936 1.2528-.16484 1.4317.65935 1.9686 1.48355.5369.82419.7159.65935 1.4318.65935s1.4317 0 1.9686-.65935c.5369-.65936 1.2528-1.48355 1.9687-.49452.7158.98903 2.1476.82419 2.5055-.32968.358-1.15387 1.9687-2.1429 2.8635-.82419.8948 1.31871 1.6107 1.31871 2.5055 1.48355.8949.16484 2.1477.16484 2.6846.98903.5369.82419 2.3265 2.1429 1.0738 3.13193-1.2528.98903-2.6845 2.30774-1.6107 2.63742 1.0738.32968 1.7896.65935 2.5055 1.48355.7159.82419 3.0425 1.15387 4.1163 1.3187 1.0738.16484 1.9686.32968 3.2214-.65935 1.2527-.98903 2.5055-.98903 2.3266.32968-.179 1.31871.5369 2.80225.5369 2.80225s.8948 2.1429.8948 2.9671c0 .82419-.179.98903 1.4317 1.97806s1.4318 1.64839 2.6845.65935c1.2528-.98903 1.6108-1.48354 1.6108-2.30774v-2.63741s1.7896-.32968 2.5055-.8242c.7159-.49451 3.5794-1.97806 4.2952-1.3187.7159.65935 1.6107.49451 2.3266.16483.7159-.32967 2.1476-.32967 2.8635-.32967s1.9686.16484 3.4004-.98903c1.4317-1.15387 1.4317-.8242 2.3265 0 .8949.82419.8949 1.81322.358 2.47257-.5369.65936 0 2.14291 1.2528 2.14291 1.2527 0 1.6107.65935 1.6107 1.48354 0 .8242.1789 1.97807.3579 2.63742.179.65935.179.98903 2.1476 1.48355 1.9687.49451 1.6107 1.64838 1.9687 2.47258.3579.82419.3579 1.48354-.7159 1.48354-1.0738 0-1.4318.49452-1.6107 1.31871-.179.82419-1.7897 1.15387-1.7897 1.15387l-1.6107-.32968s-1.0738 0-1.6107.65936c-.5369.65935-1.6107 1.97806-.8949 3.13193.7159 1.15387.7159 1.81323 0 2.30774-.7158.49452-1.0738 2.9671-1.7896 2.47258-.7159-.49452-1.6107.16484-2.3266.49452-.7159.32967-.5369 2.63741.8948 3.46161 1.4318.82419 1.7897 1.97806 1.7897 1.97806l1.6107 2.47258s-.5369.49451-.8948 1.31871c-.358.82419-1.4318 2.47257-.358 2.80225 1.0738.32968.5369 2.1429-.5369 2.1429s-2.3265-.49451-2.5055.8242c-.179 1.3187-.7159.98903-1.7897.82419s-3.7583-.82419-4.4742.49451c-.7158 1.31871-.8948 1.81323-2.1476 1.64839-1.2528-.16484-.7159 1.97806-.3579 2.80226.3579.82419 1.6107 1.97806 1.6107 1.97806s1.0738.82419 1.0738 2.47258c0 1.64838-.7159 1.48354-1.4317.32967-.7159-1.15387-2.1477-.98903-2.3266.32968-.179 1.31871-.358 3.29677-1.6107 3.29677-1.2528 0-1.7897.32968-2.3266.98903-.5369.65936-1.4318 1.81323-1.4318 2.47258 0 .65936-.1789 1.31871-1.0738 1.48355-.8948.16484-1.0738 1.97806-1.0738 1.97806s-2.1476.32968-2.3265 1.15387c-.179.8242.1789 2.1429-1.6108 2.30774-1.7896.16484-2.8634 1.31871-3.4003 2.1429-.5369.8242-.7159 1.48355 0 2.30774.7158.8242 1.2527 3.46161 2.1476 3.95613.8948.49452 1.6107.65935 1.4317 1.97806-.179 1.31871-1.2528 2.30774.179 2.30774 1.4317 0 2.3266.32968 1.7897 1.48355-.5369 1.15387-.5369 1.31871-1.6108 1.81322-1.0738.49452-1.6107.49452-1.6107 1.81323 0 1.31871.358 1.31871-.5369 1.81322-.8948.49452-.8948 1.15387-.8948 2.1429 0 .98904-.3579.65936-1.4317 1.81323-1.0738 1.15387-2.5056 1.15387-3.4004.82419-.8949-.32968-1.0738-.32968-1.2528-1.31871-.179-.98903-1.7897-.98903-2.6845-.82419-.8948.16484-2.1476 1.15387-2.1476 1.15387s-1.6107.98903-.8949 1.81322c.7159.8242.358 2.14291-.8948 1.97807-1.2528-.16484-4.1163 1.31871-5.0111-.16484-.8948-1.48355-3.4004-2.47258-3.7583-.49452-.3579 1.97807 1.0738 1.81323.8948 3.79129-.1789 1.97806-.5369 1.97806-1.2527 2.63742-.7159.65935-.7159 1.15387-.8949 1.97806-.179.82419-.3579 2.63742.8949 3.29677 1.2527.65936 1.7896 2.47258 1.7896 3.46161 0 .98903 0 1.97806 1.2528 1.97806s2.3266-.16483 2.5055-1.3187c.179-1.15387 2.6846-1.81323 2.8635.49451.179 2.30774.179 3.46161 1.0738 4.45064.8949.98903 1.6107 2.30774 2.3266 2.80226.7159.49451 1.9239 4.6979 1.9239 4.6979-1.7449.37089-2.1923 2.63742-3.3109 3.09072-.6264.24726-1.2975.0412-1.8791.45331-.4475.32967-.4475.94782-1.0738 1.23629-1.2976.57693-1.0739-1.44234-2.6398-.70057-1.4318.65936-1.566 2.30774-3.6241 1.60718-1.0738-.37089-1.7449-4.57427-2.0581-5.5633-.179-.57694-1.2976-2.30774-1.6555-2.84347-1.208-1.81322-3.6241 0-4.3847-.53572-1.208-.8242-.6711-2.22532-2.5055-2.39016-3.7136-.24726-1.0739 2.26653-2.6398 2.84346-2.9977 1.07145-2.9977-2.80225-5.2348-1.03024-.8501.65936 1.3422 1.07145.8053 2.22532-.4474.94782-2.6397 2.39016-2.5055 3.50282.179 1.52476 1.8344 1.97806 2.3266 3.25556 1.3422 3.37919-.8949 5.72814-4.2505 3.09073-1.8792-1.48355-2.2371-4.2446-5.1453-4.03855-.6712.0412-.8949.74178-1.566.82419-.6711.0412-1.208-.61814-1.9239-.41209-1.0738.37089-.1342 1.11266-.3579 1.7308 0 0-1.4318 1.19508-1.6555 1.52476-.8053 1.07145-.5369 2.01927-1.7002 2.88468-.9843.74177-1.7449.28846-2.8187 1.44233-1.1186 1.19508-1.208 2.9671-2.63979 4.12097-.71587.57693-1.20803-1.73081-2.10287-.20605-.13422.20605-.26845.4121-.35793.61814-.22371.45331-.26845.65936-.0447 1.15387 1.87916 3.62645-2.05813 4.98637-3.26616 7.54137-.53691 1.07145.93958 2.06048.35793 2.88467-.40268.61815-2.14761 2.30774-2.28183 2.67863-.13423.37089-.3132 1.19508-.62639 1.48355-.31319.32967-1.387.16484-1.47648.65935-.0895.57694 1.11854 1.03024 1.43174 1.40113.40267.45331-.17897 1.07145-.0448 1.19508 2.01339 2.01927.80536 1.40113 1.83442 3.17314.13423.24726.76061-.20605.98432.45331.22371.61814-.49216.57693-.22371 1.2775.0448.20604 1.47649 2.06048 1.47649 2.10169.0895.61814-2.72926 1.89564-3.35564 1.89564-1.7002.0412 1.47648-3.50282-1.29752-3.50282-1.20803 0-1.29751 2.76105-1.61071 3.04952-.13422.12362-1.25277 0-1.52122 0-1.78968 0-2.95297 2.22532-3.66884 2.43136-.44742.16484-1.43174-.24725-2.19235-.12362-.71587.12362-1.56597.82419-2.2371.82419-.44742 0-.67112-.28847-1.02906-.49452-.80535-.4533-2.28184-.65935-3.17667-.94782-.49217-.16484-1.43175.61815-1.74494.4121-.58164-.37089.40268-1.40113-.93958-2.1429-.17897-.0824-1.16329-2.47258-1.11855-2.59621.44742-1.56597.93958-3.25556.71587-4.90395-.26845-1.68959-2.90822-3.13193-3.62409-4.49185-.5369-1.03024-1.02906-3.75008-2.05813-4.45064-1.11854-.74178-2.14761-2.18411-2.72925-3.29677-.17897-.32968.35793-.90662-.0447-1.48355-.44742-.61814-1.29752-.8654-1.52123-1.6896-.17897-.65935 0-2.80225-.76061-3.25556-.8501-.49451-6.30861-1.15387-7.65087-1.2775-.71587-.0412-1.25277-.0412-1.78967-.57693-.22371-.20605-.58165-1.07145-.76061-1.07145-.53691-.0412-1.16329.24726-1.7002.28847-.40267.0412-1.0738-.24726-1.43174 0-1.74493 1.19508-2.19235 2.71983-3.8478 3.99733-1.70019 1.2775-3.57935 1.23629-5.27954 2.71984-1.07381.94782-1.78968 3.21435-2.86349 4.2858-.44741.45331-1.16328 0-1.34225.20605-.89484 1.11266-2.14761 1.77201-3.04245 2.80225-.17897.20605-.13423.61815-.35794.78299l-1.92391.49451c-.49216.0824-1.43174-.0412-1.83442.0824-.89484.28847-.85009 1.23629-3.89254 1.85444-.22371.0412-.62639.24725-.80536.37088-.35793.24726-.62638.61815-.98432.86541-.22371.16483-.89484-.12363-1.29751-.0824-.76062.12363-1.20804.78298-1.92391.8654-1.6107.20605-4.20573-.74177-5.45851-.24726-.76061.28847-2.86348 2.63742-3.62409 2.88468-.49216.16483-.8501-.0412-1.387-.24726-.26845.32968-.89484 2.88467-1.11855 3.46161 0 .0412-3.44512 2.92588-3.71358 3.25556-.44741.49452-.62638 1.03024-1.16328 1.56597-.35794.37088-.93958.70056-1.52123.70056-.71587 0-1.78967-.53573-2.4608-.65935-1.29752-.20605-5.19006-.37089-6.35335-.12363-1.20803.24725-.8501 3.70886-3.84781 4.03854-1.74493.20605-3.35564.53573-5.14531.70057-.17897 0-1.25278-.74178-2.32658-.45331-.40268.12363-1.7002 1.44234-1.7002 1.85443v.74178c0 .12363.35794.57693.3132.61814-.67113.78299-2.19235 2.01927-2.68452 2.92589-.13422.24725-.31319.53572-.5369.70056-.40268.28847-2.4608 1.07145-2.63977 1.44234-.49216 1.23629 1.43174 2.39016 1.25277 2.88467-.5369 1.60718-2.68451 3.13194-3.35564 4.61548-.26845.61815.71587 2.67863.67113 3.37919-.22371 1.93686-.89484 4.40944-.80536 6.30508 0 .37089.26846 2.30774.40268 2.51379.22371.37088.71587.57693 1.02907.90661.31319.32968 2.68451 4.94516 2.77399 5.43967.44742 3.4204-4.51893 2.22532-1.65545 5.64572.44742.53573.80536 1.11266 1.29752 1.56597.62638.61814 4.29522 3.29677 4.33996 3.58524.0895.49451-2.95296.98903-3.48987 1.52476-1.43174 1.40112-2.63977 3.99733-4.02677 5.43967-.85009.90661-1.61071-.0824-2.72925 2.01927-.40268.78298 0 2.555-.49216 3.04951-.71587.74178-1.29752-.24725-2.01339.0824-.31319.12363-.49216 1.03025-.80535 1.2775-.80536.70057-7.96406 4.49185-8.63519 4.16218-.35793-.16484-.76061-1.35992-.80535-1.73081-.0895-.41209-.53691-1.31871-.89484-1.60717-1.83442-1.56597-4.65316-1.85444-6.44284.0412-.44741.49451-.49216 1.23628-1.0738 1.7308-.98432.82419-2.10287 1.56597-3.04245 2.39016-.17897.16484-.71587.78298-.93958.74177-.71587-.0824-2.4608-2.06048-2.90822-2.5962-.80536-.94783-3.13194-3.21436-3.35565-4.28581 0-3.66766-2.86348-7.50015-4.07151-11.08539l1.78968.0412c2.01338-1.35992 1.43174-4.6979 5.05583-3.37919.44742-.61815.40268-1.2775 1.25278-1.73081.31319-.16484.89483-.32967 1.0738-.61814 1.20803-1.85444 2.63977-8.94249 1.387-10.75572-1.11855-1.64838-2.28184-1.56596-3.17667-4.2858-.26846-.74177.2237-1.60718 0-2.43137-.17897-.65935-1.387-4.57427-1.56597-4.86274-.22371-.32968-.98432-.74177-1.02907-.94782-.0447-.32968-.31319-4.57427-.17896-4.90395-1.20803-3.29677-5.27955-5.39846-5.50326-5.76935-.49216-.78298-.98432-1.81322-1.52122-2.67862-.62639-1.03025-.62639-1.56597-.98432-2.555-.13423-.45331-.80536-.82419-.8501-1.31871-.0895-.8654 2.37132-2.67863 2.28184-4.20338-.0447-.49452-1.56597-1.97807-1.25277-2.80226.31319-.8654 1.87915-2.80226 1.83441-3.75008-.0895-1.2775-2.4608-4.03854-2.77399-5.39846-.13423-.65936.93958-1.19508.67112-1.64839-.31319-.57693-2.81874-2.84346-3.22141-3.50282-.3132-.49451.93958-1.15387.0447-2.06048-.80536-.82419-.13423-.53572-.35794-1.23629-.26845-.78298-1.16329-1.48354-1.52122-2.30774-.31319-.70056-2.46081-8.44797-2.41606-8.90128-.35794-.53573-.98432-.98903-1.29751-1.52476-.31319-.53572-.44742-1.56596-.71587-1.97806-.0447-.0412-2.41606-.74177-2.86348-1.44234-.35793-.57693-.44742-2.47258-1.0738-3.4204-.3132-.4533-.80536-.37088-1.16329-.70056-.3132-.24726-.26845-.70057-.49216-.98903-.71587-.98903-2.14762-.0824-3.13194-3.70887-1.29751-.90661-2.50554-1.6896-3.62409-2.80226-.22371-.20605-.35794-.4533-.62639-.57693-.89484-.37089-2.23709-.49452-2.9977-1.15387-.44742 0-2.81874-.0824-3.0872-.24726-.26845-.16484-.5369-1.19508-.71587-1.23629-1.25277-.24726-3.3109-.12363-4.3847-1.03024-.8501-.74177-1.02907-4.32701-2.55029-3.8325-.17897-.0824-.40268-.16484-.62639-.12363-.98432-1.2775-4.3847-1.44233-5.7717-2.26653-.40268-.24725-1.70019-.0412-1.70019-.41209.31319-.70057.22371-1.2775.26845-1.97807-.76061-.74177-1.25278-1.60717-1.78968-2.1429-1.29751-.28846-.80535-.41209-1.61071-.90661-2.23709-.16484-2.4608.20605-3.89254 1.52476-.35794.32967-1.07381.41209-1.52123.65935-.76061.4121-.98432 1.77202-2.05812 1.15387-.35794-.20605-.58165-.53572-.8501-.78298-.62639-.53573-.98432-.24726-1.29751-1.23629-1.83442-.98903-6.89026 2.43137-8.09829.0412-.85009-.45331-1.47648.12363-2.19235-.61815-.35794-.37088.98432-4.49185-2.68452-6.18144.8501-.65936 1.74494-1.11266 2.55029-1.73081.22371-.4533-.0447-1.15387-.0447-1.60717 0-.70057.44742-2.06049.31319-2.555-.13422-.49452-.67112-.90661-.85009-1.48355-.22371-.57693.0447-1.31871-.26845-1.93685-.22371-.16484-.89484-.57694-1.16329-.57694-.93958-.78298-1.96865-1.2775-2.72926-2.22532-.17897-.20605-.31319-.57693-.5369-.74177-.67113-.49452-2.86348-1.15387-2.774-2.18411.0447-.32968.49216-.37089.62639-.70057.13422-.41209.0447-.94782.35793-1.3187 1.02907-1.40113 3.3109-.78299 2.95297-3.3792-.17897-1.15387-.98432-2.1429-1.20803-3.37919-.40268-.28846-.44742-.78298-.80536-1.07145-2.23709-.20604-1.9239-2.51378-2.72925-3.04951-2.37132-1.60718-4.20574-.61814-1.56597-3.79129.35794-1.03024-2.28184-2.67862-2.81874-3.25556-.93958-.90661-.49216-2.80225-.85009-3.79129-.17897-.49451-1.74494-1.35991-2.2371-2.06048-.13423-.20605-.5369-1.2775-.76061-1.40113l.0447-.32967c.49216-.37089.22371-1.11266.0895-1.60718-.31319-.28847-.98432-.20605-1.20803-.4121-2.14761-1.93685-4.74264-2.80225-7.56138-3.91491-.76061-.28847-.5369-.90661-1.16329-1.19508-.5369-.24726-4.33996-1.93686-4.60841-1.85444-.44742-.12362-.76062-1.81322-1.07381-2.34895-.26845-.49451-1.34226-1.40112-1.34226-1.44233.0895-1.56597-.89483-1.77202-2.10287-2.59621.0895-.20605-.13422-.70056-.13422-.94782 0-.20605.80535-2.92589.93958-3.29677.22371-.57694.98432-1.11266.8501-1.77202-.17897-1.03024-.3132-2.63742-.67113-3.54403-1.20803-3.21435-2.63978-2.80225-1.87916-7.00564.17896-.8654-.13423-1.35992.5369-2.1429-.0895-.0412.31319-.4533.35793-.53572.40268-.37089 1.52123-.98904 1.74494-1.2775.67113-.90661 1.0738-2.9671 1.9239-3.62645.62639-.49452 2.41606-1.44234 2.72926-1.85444.26845-.32967.67112-1.35991.44742-1.77201-.62639-.37089-1.25278-.20605-1.87916-.28847-.22371-.0412-1.02907-.61814-1.65545-.74177-.17897-.20605-.49217-.45331-.49217-.74177l-.26845-.24726c-.71587-.0824-1.52122-.53573-2.14761-.74178-.80535-.32967-1.9239-.37088-2.68451-.82419-1.43174-.82419-3.04245-3.09072-4.42945-3.4204-1.87916-.4121-3.08719.16484-4.87687.24726-1.16329.0824-1.16329-.61815-2.10287-.90661-1.25277-.37089-.31319.65935-3.17667-.24726-.35794-.28847.17897-1.2775.22371-1.64839-.44742-.12363-.98432.12363-1.52123 0-2.37132-.57693-1.47648-2.71983-2.10286-4.12096-.26846-.32968-1.25278-.24726-1.7002-.28847-.13422-.0412-.17896-.24726-.13422-.32968l.22371-.16483c.40267-.61815-1.02907-2.18412-.98432-2.39016.0895-.49452 2.9977-.94783 3.40038-.98904.13422-.37088-.26845-.70056-.31319-1.07145-.0895-.82419.44741-1.89564.71587-2.63741l-.0895-.24726c-.80535-.45331-1.0738-1.11266-1.78967-1.64839.0447-.37088.5369-.61814.62638-.98903 1.387-3.8325 3.53461-.78298 5.41377-4.32701.17897-.32968.71587-1.19508.89484-1.77202l.35794-.0824c.35793.0824.85009.37088 1.20803.24725.26845-.37088.85009-.49451 1.29751-.61814l.67113.16484c3.48987-.74178 2.68451-2.01928 4.6979-3.46161.5369-.37089 2.10287-.53573 2.81874-.78299.76061.32968 1.83442 1.52476 3.26616 2.06049 1.02906.41209 4.56367 1.15387 5.14532 1.48354.76061.4121.89483 1.40113 1.56596 1.77202 2.01339 1.07145.8501-.74178 2.774-.37089 1.96864.4121 3.57935 2.01927 5.41377 2.80226.31319.12363 1.07381-.0412 1.43174-.12363.58165-.12363 3.71358-.70057 4.02677-.57694.35794.12363.89484.45331 1.25278.53573.44741.0824.80535-.8654 1.11854-.82419 1.34226.20604 1.387.74177 3.17668.57693.0895 0 .93958-5.02758 1.78967-5.27483.49216-.12363 1.83442 1.19508 2.2371 1.27749.67113.16484-.0447-1.03024-.0895-1.11266-.17896-.41209-1.11854-3.50282-1.0738-3.79128.0447-.16484.89484.24726 1.29751.12363.98433-.32968 2.32658-.57694 3.04245-1.35992.0895-.0824 1.61071-2.26653 1.65545-2.34895.0895-.37089-.40267-1.23629-.17896-1.52476.22371-.24726 1.0738-.57693 1.47648-.98903.58164-.57693.67113-1.56597 1.47648-1.97806 3.17668-.28847 4.29522-2.76105 7.1587-3.09073.17897 0 .80536-.12362.93958-.0824l.58165.94783c.17897.24725 2.10287 1.40112 2.41606 1.31871.26845-.0412.40268-.49452.67113-.57694.58164.0824 2.19235-.90661 2.37132-1.40113.0447-.0824-.35793-.57693-.17897-.90661.13423-.24726 2.14761-1.7308 2.46081-1.89564.71587 0 1.47648-.16484 2.14761.0824.40268.16483.44742.78298.89484.8654.49216.0412 1.387-.16484 1.74493-.0824.40268.0824.58165-.74177 1.07381-.78298z" id="path11" fill="#d0a650"/>
</svg>
