<svg xmlns="http://www.w3.org/2000/svg" version="1.0" id="svg2" viewBox="0 0 171.82159 208.00415">
  <path d="M147.16321 3.6348389L5.8477394 99.889335c-7.8633885 6.323255-9.8246237 54.398185 27.4631956 75.457135L162.67367 90.47909c-8.13412-14.618155-28.06101-41.176417 3.68711-62.047386-6.39919-7.024039-12.79838-14.937986-19.19757-24.7968651z" id="path7075" fill="#fff" fill-opacity="1" fill-rule="evenodd" stroke="none"/>
  <path d="M162.362 90.790835L32.997779 175.87269l35.823939 15.92176 17.663192 14.92664c2.469474-4.36336 9.51363-9.74331 17.91197-15.4242 53.74242-20.71893 80.41076-47.91347 57.96512-100.506055z" id="path6086" fill="#ed1c24" fill-opacity="1" fill-rule="evenodd" stroke="none"/>
  <path d="M24.376102 4.3098738L5.9877324 28.962414s15.4372626 7.340388 16.9738796 25.05668c.858797 9.90143-17.5800897 46.071966-17.5800897 46.071966L141.17256 7.7450639c-5.81838 1.8789754-8.43685 4.6306531-19.60079 5.0517501.59872-4.8463523.55188-9.4057849-3.63726-12.12420015C96.837224 10.249254 76.053655 9.4731613 55.494882 1.2788238c-5.254259 1.9163639-5.005404 6.8344266-4.44554 11.9221302-12.202776-1.307846-18.392927-5.622003-26.67324-8.8910802z" id="path6084" fill="#ed1c24" fill-opacity="1" fill-rule="evenodd" stroke="none"/>
  <path d="M57.38477 1.6800238c-4.512652-1.25549085-9.730769 4.421771-6.610588 11.2826542-12.307425-.522704-18.027721-5.6501671-26.3991-9.4529087C18.093495 13.482387 11.811908 22.320168 5.530322 28.765273c0 0 17.334236 13.502257 17.640105 23.520141.744059 24.369617-33.460232 51.598636-18.2819229 90.379726C19.36087 179.64253 59.100394 185.95771 67.950127 191.59095c14.96442 9.52551 17.239245 15.32345 17.96067 15.4129.425374.0527 3.827507-7.01071 17.960663-15.4129 7.12964-4.23859 48.58926-11.94842 63.06163-48.92581 15.17831-38.78109-19.02598-66.010109-18.28192-90.379726.30586-10.017884 17.6401-23.520141 17.6401-23.520141-6.28159-6.445105-12.56317-15.282886-18.84476-25.2555037-8.37138 3.8027416-14.09168 8.9302047-26.3991 9.4529087 3.12018-6.8608832-.23988-13.87664614-6.00438-11.4847242-21.460126 8.9046622-36.401078 6.1161531-57.65826.20207z" id="path2161" fill="none" stroke="#000" stroke-width="2" stroke-linecap="butt" stroke-linejoin="miter" stroke-miterlimit="4" stroke-opacity="1"/>
  <path d="M55.170409 7.6399985c3.857349-1.0329399 7.548186 5.8614485-3.449607 5.8377955" id="path4103" fill="none" stroke="#000" stroke-width="1" stroke-linecap="butt" stroke-linejoin="miter" stroke-opacity="1"/>
  <path d="M116.65118 7.6399985c-3.85735-1.0329399-7.54818 5.8614485 3.44961 5.8377955" id="path4113" fill="none" stroke="#000" stroke-width="1" stroke-linecap="butt" stroke-linejoin="miter" stroke-opacity="1"/>
  <path d="M32.867562 175.50974L162.32598 90.364706" id="path4140" fill="none" stroke="none"/>
  <path d="M5.4664045 100.20379L147.23835 3.784887" id="path5111" fill="none" stroke="none"/>
  <path d="M84.82389 47.208855l-1.312057 2.185507c-.721594 1.202227-2.469846 3.006755-3.879537 4.006769-1.409692 1.000002-3.108846 2.489011-3.785138 3.309478l-1.236542 1.488234 1.312057-.343444c.718783-.189913 1.655177-.494163 2.086074-.676467.430903-.182301.783457-.0809.783457.22897 0 .0083.000646.02258 0 .03122-.0017.01746-.0052.04375-.0094.06244-.190034.770905-2.441977 2.537606-4.228794 3.278256-1.710229.708908-4.245835 2.559766-4.578035 3.299072-.0079.01833-.01383.04557-.01888.06244-.0023.0083-.0079.02328-.0094.03123-.0013.0078.00056.02381 0 .03122-.000103.0024.000011.008 0 .01041-.000017.002-.000074.0084 0 .01041.000143.002-.000229.0084 0 .01041.000303.0019-.000389.0085 0 .0104.0018.0076.0064.02402.0094.03121.0025.0053.0062.01571.0094.02082.0011.0017.0082.0088.0094.01041.0026.0033.0066.0072.0094.01041.0015.0016.0079.0089.0094.01041.0066.006.02065.01518.02831.02082.200268.139843.751423.161097 1.387583.02082 1.115857-.246071 1.575868-.09333 1.944485.666054.563852 1.161604.240652 1.685968-1.0572 1.685965-1.56964 0-3.803937 1.57633-4.106074 2.90361-.202589.88992-1.058932 1.615731-2.897852 2.456086-3.002286 1.371984-6.876714 3.991473-7.145514 4.797713-.0068.02243-.0086.05341-.0094.07285 0 1.142851 2.52872 1.063162 6.192149-.197744.82136-.282704 1.18344.0052 1.802897 1.415379.766823 1.745671.754703 1.788423-1.028874 4.090026-1.245543 1.6073-2.340647 2.43617-3.530287 2.68505-2.370177.49585-3.106851.97723-6.182703 4.0484-1.472006 1.46973-2.949583 2.68597-3.284869 2.69546-.131457.0037-.218782.02363-.264291.06243-.0015.0014-.0081.009-.0094.01042-.0013.0014-.0082.0089-.0094.0104-.001.0015-.0085.0088-.0094.01041-.00084.0016.000743.0088 0 .01041-.000669.0017-.0089.0087-.0094.01041-.000491.0017.0004.0086 0 .0104-.000314.0018.000223.0086 0 .01041-.000149.0019.000057.0085 0 .01041.000046.0039-.000383.01683 0 .02081.000269.002-.00036.0084 0 .01041.0017.0083.0064.02248.0094.03122.0017.0044.0075.01629.0094.02081.0021.0046.007.01615.0094.02082.247411.45516 1.871074 1.35293 2.784572 1.35293.668531 0 2.297737-.76423 3.615234-1.69637 2.312143-1.63583 2.426475-1.66033 3.360377-.7285.532149.53098.972246 1.56035.972246 2.27917 0 1.09568-.5888 1.59648-3.62468 3.14297-2.246206 1.14423-4.884132 3.110936-6.94728 5.172371-2.77292 2.77061-3.559606 3.2817-4.738509 3.09093-.744314-.12044-1.160503-.1707-1.293183-.0937-.0042.003-.0153.007-.01888.0104-.0016.002-.008.009-.0094.0104-.0013.002-.0083.009-.0094.0104-.0049.01-.0086.0294-.0094.0416-.000829.14183.249554.43125.698503.92623.425091.4687 1.411651.8534 2.189908.8534 2.123166 0 8.834641-2.50149 10.902338-4.05881 1.919686-1.44584 3.786035-1.72468 5.333178-.81176 2.393565 1.41236-1.608886 4.25638-9.14663 6.50449-2.77292.82702-5.175646 1.63186-5.484223 1.83167-.0045.003-.01552.008-.01887.0104-.0014.001-.0083.009-.0094.0104-.001.001-.0085.009-.0094.0104-.000955.001.00092.009 0 .0104-.107915.17869.05143.64907.377571 1.08235.78704 1.04556 4.747623 1.09602 8.1272.0937 1.352566-.40116 4.721024-1.76396 7.485327-3.01809 5.013937-2.27474 5.032531-2.27077 6.786823-1.35293 4.076206 2.13264 3.6996 5.86442-1.198783 11.99949-2.1332 2.67176-4.025857 3.86344-7.466452 4.70404-1.272897.31098-3.888977 2.77591-3.888977 3.66333 0 .0876.01708.15672.03776.21854h.877857c.1928-.14085.389663-.34382.585228-.60361 1.084561-1.44082 3.271847-2.40201 5.484207-2.41446 2.403897-.0135 5.348828-1.33359 7.56084-3.39275 1.943394-1.80909 3.8956-2.34836 5.370943-1.47781.817337.48227 1.560954.5304 2.548594.15609 1.75628-.66556 2.624109-.34385 2.624109.96788 0 .58988.618114 1.38112 1.463091 1.86288.807897.46062 2.249458 1.58804 3.199909 2.50813.72388.70076 1.251337 1.02079 1.52916 1.01991.0106-.00028.02789.001.03775 0 .0073-.001.02149.002.02832 0 .0045-.001.01461-.009.01888-.0104.0042-.002.0149-.009.01888-.0104.01167-.006.02782-.0128.03775-.0208.0016-.001.0079-.009.0094-.0104.0015-.002.008-.009.0094-.0104.0014-.002.0081-.009.0094-.0104.0013-.002.0082-.009.0094-.0104.0037-.006.0062-.0146.0094-.0208.0021-.004.0076-.0163.0094-.0208.0017-.005.0079-.016.0094-.0208.0022-.007.0077-.0233.0094-.0312.0021-.0108-.0013-.0299 0-.0416.02822-.30812-.210486-.92825-.764583-1.80045-.325663-.51262-.49152-1.02356-.443634-1.28008.0026-.0123.0058-.0306.0094-.0416.0015-.004.0077-.0167.0094-.0208.000897-.002-.000943-.008 0-.0104.000983-.002.0084-.009.0094-.0104.0054-.009.01241-.0237.01888-.0312.0013-.001.0081-.009.0094-.0104.0043-.004.01419-.007.01888-.0104.0016-.001.0077-.009.0094-.0104.0039-.002.01424-.008.01887-.0104.306668-.11861 1.931708-.0581 3.709629.14571 3.127412.35853 3.506503.54652 5.352055 2.68505.91141 1.05607 1.65929 1.71952 2.26542 1.99817h1.25543c.26764-.12052.45645-.29511.50027-.46832.001-.005.009-.0161.009-.0208.001-.007-.00063-.0242 0-.0312.00031-.005-.00009-.0162 0-.0208-.00003-.005.00026-.0161 0-.0208-.00009-.001.00015-.009 0-.0104-.0004-.003.00065-.008 0-.0104-.10749-.35917-1.95934-2.12096-4.181578-3.97555-5.050586-4.21497-5.824986-5.75529-5.842906-11.5936-.01071-3.49152.155011-4.38581.972246-5.28685 1.273068-1.40362 1.97236-1.3697 5.097198.26017 2.35982 1.23086 3.09294 1.33365 8.45757 1.21765 5.76128-.12457 5.92989-.0886 8.8257 1.61311 1.62309.9538 3.60602 2.23109 4.41757 2.84117 1.79154 1.34677 3.61072 1.44155 4.04.20814.50697-1.45661-2.89882-4.28185-9.29767-7.69091-6.36311-3.39003-7.02962-4.337985-4.09663-5.880061 1.66822-.87708 1.78378-.86046 4.42701.61402 2.11885 1.181971 3.08792 1.436081 4.44589 1.155211l1.73683-.364265-3.82291-3.132556c-2.10199-1.72249-4.13532-3.54976-4.5214-4.0692-1.11632-1.50196-3.27545-2.49772-5.39925-2.49773-.9952 0-1.92486-.19077-2.18047-.42669-.008-.008-.0216-.02309-.0283-.03123-.002-.002-.008-.0083-.009-.0104-.003-.0041-.007-.01669-.009-.02081-.59733-1.06561 1.2015-1.57162 6.22046-1.76923 6.76162-.26622 7.69181-1.05409 3.03-2.56016-1.86151-.60139-4.65084-1.36245-6.20159-1.69638-1.89083-.40716-2.93901-.85105-3.1999-1.363337-.0286-.05839-.0481-.126836-.0566-.187332-.005-.04466-.005-.09982 0-.145696.0231-.174003.1265-.358035.30205-.55158.31753-.350106 1.83466-.311053 4.41757.124883 2.89532.488681 4.48017.598141 4.76682.260185.29822-.388633-1.03614-1.35624-3.98336-2.986864-2.68523-1.485667-6.07408-3.889968-7.61748-5.411738-1.52947-1.508038-3.80138-3.223385-5.040558-3.809027-1.635555-.772969-2.165202-1.297462-1.953933-1.904515.368573-1.058947 2.942161-1.069712 4.606361-.02081.67628.42624 2.44834.770183 3.93616.759722l2.70907-.02082-1.79346-.728493c-1.79132-.726522-6.6641-4.192368-7.04168-4.974634-.007-.01546-.0157-.03886-.0189-.05203-.00094-.0051.00032-.01611 0-.02081 0-.0014-.00015-.009 0-.01041.0003-.0014-.00044-.009 0-.0104.00073-.0014.009-.0091.009-.01042.002-.0027.007-.0078.009-.01041.001-.0013.008-.0091.009-.0104.19931-.147204 1.32296-.210109 2.67131-.13529l2.70907.156099-3.89842-3.00767c-2.860139-2.20385-4.622691-3.152506-6.635794-3.580071-1.5086-.320416-3.23808-.701292-3.841777-.842982-1.616777-.379478-4.331932-3.209341-5.437012-5.671911l-.961577-2.154553zm-8.882337 15.173668c.05897-.0021.123583 0 .188783 0 .502611 0 .86788.122537 1.01944.31222.0034.0044.01571.01628.01887.02081.0031.0046.0066.01617.0094.02081.01622.02807.03031.06304.03775.09366.0017.0077.0083.02337.0094.03122.0012.01054-.0002.03083 0 .04163-.000052.0081.000628.02294 0 .03122-.0014.01388-.0064.0378-.0094.05203-.002.0086-.0068.02253-.0094.03123-.105006.347296-.671035.98065-1.264863 1.415379-.453977.33233-.72492.513188-.877852.489133-.01046-.0022-.02835-.0062-.03775-.0104-.0046-.0024-.01455-.0076-.01888-.01041-.0084-.0062-.02085-.02291-.02832-.03123-.10328-.125789-.122714-.463693-.122714-1.061533 0-1.094384.200983-1.393549 1.08552-1.425782zm13.148874 1.352937c.01187-.000169.01634 0 .02832 0 .767195 0 1.283018.358803 1.387578.957456.129508.74146-.17836.947063-1.387578.947056-.680177 0-1.074057-.07076-1.264863-.260176-.141474-.147331-.168908-.368281-.113268-.68688.102931-.589305.602554-.94671 1.349811-.957456zm-3.851205.322624c.666685-.05189.93448.342525.93448 1.186413 0 1.015779-.388492 1.332403-2.218223 1.800445-1.1542.295248-2.212543.430934-2.435326.32263-.0052-.0028-.01474-.0073-.01888-.01041-.0013-.0011-.0083-.0093-.0094-.01042-.633434-.698375-.07822-1.59465 1.50084-2.424868 1.015777-.534054 1.744251-.824691 2.246549-.863792zm8.863463.01041c.976805-.03229 1.100217.429267.622977 1.800438-.164194.47178-.844114.853392-1.510275.853389-.974725 0-1.18368-.235728-1.0572-1.217641.112538-.87362.541835-1.271703 1.510281-1.394561.160491-.02036.304542-.03734.434217-.04162zm-14.951789 2.653827c.03361-.0029.07197 0 .103834 0 1.18476 0 .445886 2.234323-1.076074 3.25745-1.355309.911081-2.79572 1.302153-3.199909.947059-.0018-.0017-.0077-.0087-.0094-.01041-.02606-.0261-.05051-.06026-.06607-.09366-.002-.0045-.0077-.01617-.0094-.02082-.0025-.0071-.0074-.02385-.0094-.03122-.0013-.005-.0084-.0157-.0094-.02081-.0015-.0078.001-.02316 0-.03122-.0014-.01362-.0093-.03758-.0094-.05204.000029-.0029-.00008-.0074 0-.01041.03281-1.22041 2.885412-3.813354 4.285418-3.933914zm11.12888 5.172375c.564411-.06814.922251.550793.726829 1.685961-.108818.632071-.67304 1.068256-1.51972 1.176007-.647086.08235-1.045938.05346-1.198783-.12489-.0014-.0017-.0081-.0086-.0094-.0104-.0067-.009-.01333-.0215-.01889-.03123-.0021-.0039-.0075-.01675-.0094-.02081-.000926-.0021-.0086-.0083-.0094-.01041-.0042-.01059-.0064-.03031-.0094-.04163-.07547-.302954.235303-.866272.925045-1.779632.399143-.528544.795772-.80345 1.123269-.842976zm-4.427012.249763c.02742-.0021.05225 0 .07552 0 1.133612 0 1.317012.998253.292618 1.602707-.472772.278966-.932035.487373-1.085515.509955-.005.000557-.01462.01034-.01888.01041-.0039-.000173-.0158-.0097-.01888-.01041-.08541-.02973-.71128-.231251-1.387571-.457913l-1.227097-.416288 1.387565-.624436c.713926-.318841 1.570869-.582211 1.98224-.614025zm9.543086 1.248867c.535766-.02842 1.115646.07557 1.680189.312211 1.024532.429472 1.223681.801808 1.028881 1.925331-.264528 1.525684-1.097595 1.697102-3.945607.790948-1.39908-.445156-1.542977-.658922-1.094954-1.581898.427423-.880541 1.308674-1.392355 2.331491-1.446592zm-21.125052.37465c.03212-.00033.06142 0 .0944 0 2.072469 0 2.358378.360288 1.349818 1.685974-.338155.444454-.98024 1.121188-1.434778 1.498634-.694628.57681-.907571.515596-1.349805-.395478-.526406-1.084442-.690612-1.797844-.434206-2.227134.236851-.383241.819069-.552048 1.774571-.561996zm-5.455885.91584c.883931-.02396 1.428617.393462 2.133274 1.60271l.99112 1.706768-1.481966.572394c-1.352583.519868-1.580223.421818-2.699629-1.155188-.705554-.993996-.97544-1.653234-.783445-2.07103.01767-.03684.04098-.08123.06607-.114486.0064-.0082.02142-.02319.02831-.03122.0071-.008.0208-.02348.02832-.03123.253114-.253097.76248-.390579 1.5386-.457904.06217-.0054.120411-.01922.179343-.02082zm32.640947 5.109926c.98197-.07939 1.98449.612324 1.84065 1.727588-.18271 1.416605-1.73005 1.826545-3.00169.801355-.759428-.612255-.787428-.839163-.19822-1.727592.3375-.508883.84489-.759773 1.35926-.801351zm-18.529261 2.653833c.03613-.0023.0754 0 .11328 0 .08298 0 .160097.01757.226537.04162.04179.016.08773.03692.122708.06245.0099.0075.02846.02297.03775.03122.0046.0042.01445.0164.01888.02082.0044.0045.01465.0161.01887.02081.0042.0048.01486.01583.01888.02082.149806.19308.20224.5238.141589.97827-.194863 1.46009-1.161755 1.8885-1.576355.69728-.370171-1.06357-.01083-1.81647.877852-1.87329zm-6.192149 1.12397c.416057-.05646 1.099457.22012 1.784017.79095.465212.38791.657977.76436.651314 1.04072-.001.02551-.0051.05942-.0094.08326-.003.01476-.0052.03796-.0094.05203-.0036.01114-.0145.03095-.01888.04163-.0069.01584-.01976.03729-.02831.05204-.003.0048-.0063.01608-.0094.02082-.0032.0046-.01547.01627-.01888.02081-.01574.0201-.03735.04507-.05664.06243-.0044.0038-.01434.01717-.01888.02082-.284406.22012-.886994.1681-1.576354-.36425-.569629-.43989-1.042623-1.01498-1.085515-1.31131-.000594-.0048.000349-.01617 0-.02081-.00024-.0046 0-.01641 0-.02082 0-.28217.146812-.43444.396452-.46832zm9.845143.20814c.192126-.01661.39152.1715.726817.54118.420806.46395.915097 1.35259 1.09496 1.97736.432143 1.50122-.25064 2.12834-1.5858 1.4466-1.433508-.73195-1.782114-1.89045-.953366-3.19501.316366-.49797.512863-.75243.717389-.77013zm3.435892 2.03981c.364422-.04977.858925.49562.98168 1.41538.07158.53639-.0029.99361-.169909 1.13438-.0016.0013-.0078.0092-.0094.0104-.0049.0035-.01387.0075-.01888.01042-.0067.0037-.02133.0076-.02832.0104-.0018.00063-.0077.0099-.0094.01042-.0018.0005-.0076-.00045-.0094 0-.0036.00075-.01518-.00052-.01889 0-.0019.00018-.0076-.00013-.0094 0-.0019.00005-.0075 0-.0094 0-.702377 0-1.104395-.63335-1.104395-1.75882 0-.53838.179852-.80171.405898-.83258zm-21.578138 2.1647c.722783-.00076 1.357006.03851 1.774577.12489.689269.14256 1.147731.33945 1.368697.5724.04669.05073.08857.11173.113263.1665.01174.0275.02207.06518.02831.09367.01127.05719.01074.12624 0 .18733-.08231.4223-.688445.93746-1.812331 1.52985-.932069.49129-2.509086 1.05808-3.5114 1.24886-1.66428.31681-1.892497.19931-2.58636-1.28008-.411349-.87704-.744686-1.71158-.755138-1.87329 0-.002-.000171-.0084 0-.01041.000658-.004-.0013-.01683 0-.02082.000818-.002.0085-.0084.0094-.0104.0023-.004.0065-.01685.0094-.02081.0016-.002.0077-.0084.0094-.0104.347829-.35997 3.230321-.69507 5.352058-.69729zm33.471593 4.87056c1.93813-.08566 2.98387 1.22518.87785 2.85156-1.35487 1.0463-3.344308 1.0883-4.578034.09367-.887677-.71564-.842426-.81804.774006-1.90451 1.022068-.68696 2.061128-1.00249 2.926178-1.04072zm7.06055 1.52985c.0343-.0042.0727.00012.10384 0 .28644-.0011.94742.33638 1.47252.75973.93531.75405.93212.80417-.23597 2.1751-.60459.70954-1.22091 1.26594-1.43478 1.3113-.002.00031-.008-.00023-.009 0-.002.00017-.008-.00008-.009 0-.002.00002-.008.00007-.009 0-.001-.00014-.008.00022-.009 0-.15574-.04772-1.00868-.18152-1.88785-.3018-.97805-.13382-1.59524-.52795-1.59524-1.0095 0-.02139.005-.04948.009-.07285.15546-.81056 2.57585-2.73571 3.60579-2.86198zm-35.501023 2.1647c.08989-.005.197166 0 .311491 0 1.33264 0 2.0672 1.0969 2.0672 3.09093 0 2.679345-1.633611 2.464365-2.388137-.31221-.656908-2.41742-.722531-2.73769.0094-2.77872zm10.147195.75973c.803434-.0255 2.747931.42287 3.001685.7285.0012.0015.0083.0089.0094.01041.00092.0015.0086.0089.0094.0104.000743.0015-.000663.0089 0 .01041.000572.0015.009.0089.0094.0104.000297.0014-.000211.009 0 .01041.000115.0014-.000023.009 0 .01041-.000074.0015.000137.0088 0 .01041-.0254.20719-.545497 1.0516-1.170468 1.894105l-1.151589 1.55067-.604114-1.998185c-.29828-.99647-.481874-1.89413-.443646-2.12306.000366-.0019-.000394-.0086 0-.01041.000863-.0034.0084-.0075.0094-.01041.000543-.0014-.000554-.0091 0-.0104.0012-.0023.0081-.0085.0094-.01042.0024-.0023.0067-.0082.0094-.0104.0014-.0011.0079-.0093.0094-.0104.0016-.001.0078.001.0094 0 .0017-.00098.0076-.0095.0094-.01041.0038-.0018.01474-.0087.01887-.01041.05996-.02327.152378-.03807.264298-.04162zm-4.936726.8846c.145543-.0144.373485.02333.689063.07285.632588.09928 1.214948.62499 1.312057 1.18642.11788.681515.05243 1.157245-.113275 1.404985-.01306.0189-.0329.0463-.04719.0624-.01653.018-.03862.0376-.05664.052-.0068.005-.0213.0161-.02831.0208-.03306.0213-.0763.0419-.113269.052-.01596.004-.04005.008-.05664.0104-.02783.003-.06498.003-.09439 0-.328189-.0417-.752926-.44887-1.123269-1.238475-.426857-.91008-.622834-1.34149-.547474-1.51945.0061-.01254.01918-.03169.02831-.04162.03309-.03205.0823-.05565.151029-.06245z" id="path2175" fill="#00a651" fill-opacity="1" stroke="none"/>
</svg>
