<svg xmlns="http://www.w3.org/2000/svg" id="svg3124" version="1.1" viewBox="0 0 299.99994 300">
  <g id="layer1" transform="translate(-237.80904 -339.6809)">
    <path transform="matrix(1.7641 1.75781 -1.75781 1.7641 386.89085 277.72617)" d="M120.36616 60.028748c0 33.154261-26.876842 60.031102-60.031104 60.031102-33.154261 0-60.03110092-26.876841-60.03110092-60.031102 0-33.154262 26.87683992-60.03110167 60.03110092-60.03110167 33.154262 0 60.031104 26.87683967 60.031104 60.03110167z" id="path25631" fill="#ff0" fill-opacity="1" stroke="#000" stroke-width=".40154585" stroke-linecap="round" stroke-linejoin="round" stroke-miterlimit="4" stroke-opacity="1" stroke-dasharray="none"/>
    <path id="path5473" d="M196.31118 488.09335c0 18.25528-14.79882 33.05411-33.0541 33.05411s-33.0541-14.79883-33.0541-33.05411c0-18.25527 14.79882-33.0541 33.0541-33.0541s33.0541 14.79883 33.0541 33.0541z" transform="matrix(1.5883 0 0 1.5883 128.50698 -285.56021)" fill="#fff" fill-opacity="1" stroke="none"/>
    <g transform="matrix(1.49477 0 0 1.48883 238.33162 341.39305)" id="g24635" stroke="#de2919" stroke-width=".9860357" stroke-opacity="1" fill="none" stroke-linecap="butt" stroke-linejoin="miter">
      <path d="M160.11485 154.83526l-24.02286-7.13909" id="path23611"/>
      <g id="g23641">
        <path id="path23589" d="M65.039519 174.7933c-15.870887-4.04552-35.787295-29.87462-37.03207-35.16491 7.157459 0 142.837991.31119 142.837991.31119-7.15746 17.11567-30.18581 32.98655-35.47611 34.23133"/>
        <path id="path23591" d="M29.874612 143.36272H168.97827"/>
        <path id="path23593" d="M32.986551 147.71943H166.48872"/>
        <path id="path23595" d="M38.58804 154.87689h121.988"/>
        <g id="g23631">
          <path d="M55.893563 170.43658H142.2156" id="path23599"/>
          <path d="M54.817889 169.75453h88.781761" id="path23601"/>
        </g>
        <g id="g23635">
          <path d="M45.085294 161.72315H153.87408" id="path23597"/>
          <path d="M44.538249 161.10446H154.39871" id="path23603"/>
        </g>
        <path id="path23605" d="M37.967263 143.41653l11.354556-3.81795"/>
        <path id="path23607" d="M160.84464 143.40892l-11.67004-3.66664"/>
        <path id="path23609" d="M38.952142 154.68338l23.723528-6.93614"/>
        <path id="path23613" d="M141.61034 143.37338l14.11064 4.37229"/>
        <path id="path23615" d="M51.872016 161.43163l11.350817-6.46874"/>
        <path id="path23617" d="M147.31652 161.43163l-11.96107-6.5908"/>
        <path id="path23619" d="M58.096658 169.6091l10.374403-8.05542"/>
        <path id="path23621" d="M140.96983 170.21936l-10.49645-8.54363"/>
        <path id="path23623" d="M107.52764 143.49002l-5.24823-3.66156"/>
        <path id="path23625" d="M85.802417 143.49002l5.736434-3.78361"/>
        <path id="path23627" d="M111.4333 169.97526l-3.41746-8.42158"/>
        <path id="path23629" d="M87.022935 170.09731l3.661554-8.42158"/>
        <path id="path23639" d="M44.073467 147.71975l12.351552-4.33724"/>
      </g>
    </g>
    <path id="path3180" d="M330.0858 610.90621c27.42447 13.30276 70.98316 21.23827 115.98115-.1235" fill="none" stroke="#fff" stroke-width="29.38862991" stroke-linecap="butt" stroke-linejoin="miter" stroke-miterlimit="4" stroke-opacity="1" stroke-dasharray="none"/>
    <g transform="matrix(1.49477 0 0 1.5063 238.33162 339.66643)" id="g9485" stroke-linecap="butt" stroke-linejoin="miter" stroke-opacity="1">
      <g id="g20487" transform="rotate(11.120832 117.2637291 -4.72913335)" fill="none" stroke="#ef8410" stroke-width=".98692364">
        <path id="path16986" d="M120.4914 64.812785l-.002-38.417171"/>
        <path id="path20480" d="M118.477 64.812785l-.0129-19.407333"/>
        <path id="path20482" d="M122.51624 64.812785l-.0129-19.407333"/>
      </g>
      <g id="g20653">
        <g id="g20504">
          <g id="g20466" transform="translate(.02894978)" fill="#00943a" fill-opacity="1" fill-rule="evenodd" stroke="#00943a" stroke-width=".98029709">
            <path id="path17044" d="M98.919487 22.477899h-5.30505l4.28048 40.534035 1.076127-.0391-.05156-40.494937z"/>
            <path id="path20464" d="M101.02261 22.477899h5.30505l-4.28048 40.534035-1.07613-.0391.0516-40.494937z"/>
          </g>
          <g id="g20492" transform="scale(-1 1) rotate(11.120819 17.2594784 -1031.95963948)" fill="none" stroke="#ef8410" stroke-width=".98692364">
            <path id="path20494" d="M120.4914 64.812785l-.002-38.417171"/>
            <path id="path20496" d="M118.477 64.812785l-.0129-19.407333"/>
            <path id="path20498" d="M122.51624 64.812785l-.0129-19.407333"/>
          </g>
        </g>
        <g transform="translate(0 .0476392)" id="g20577">
          <g id="g20529" transform="rotate(-24.340787 100.43318665 101.46307388)">
            <g transform="translate(.02894978)" id="g20531" fill="#00943a" fill-opacity="1" fill-rule="evenodd" stroke="#00943a" stroke-width=".98029709">
              <path d="M98.919487 22.477899h-5.30505l4.28048 40.534035 1.076127-.0391-.05156-40.494937z" id="path20533"/>
              <path d="M101.02261 22.477899h5.30505l-4.28048 40.534035-1.07613-.0391.0516-40.494937z" id="path20535"/>
            </g>
            <g transform="scale(-1 1) rotate(11.120819 17.2594784 -1031.95963948)" id="g20537" fill="none" stroke="#ef8410" stroke-width=".98692364">
              <path d="M120.4914 64.812785l-.002-38.417171" id="path20539"/>
              <path d="M118.477 64.812785l-.0129-19.407333" id="path20541"/>
              <path d="M122.51624 64.812785l-.0129-19.407333" id="path20543"/>
            </g>
          </g>
          <g id="g20545" transform="rotate(-49.098 99.81540832 99.68198292)">
            <g transform="translate(.02894978)" id="g20547" fill="#00943a" fill-opacity="1" fill-rule="evenodd" stroke="#00943a" stroke-width=".98029709">
              <path d="M98.919487 22.477899h-5.30505l4.28048 40.534035 1.076127-.0391-.05156-40.494937z" id="path20549"/>
              <path d="M101.02261 22.477899h5.30505l-4.28048 40.534035-1.07613-.0391.0516-40.494937z" id="path20551"/>
            </g>
            <g transform="scale(-1 1) rotate(11.120819 17.2594784 -1031.95963948)" id="g20553" fill="none" stroke="#ef8410" stroke-width=".98692364">
              <path d="M120.4914 64.812785l-.002-38.417171" id="path20555"/>
              <path d="M118.477 64.812785l-.0129-19.407333" id="path20557"/>
              <path d="M122.51624 64.812785l-.0129-19.407333" id="path20559"/>
            </g>
          </g>
          <g id="g20561" transform="rotate(-72.937961 100.01210342 100.0261951)">
            <g transform="translate(.02894978)" id="g20563" fill="#00943a" fill-opacity="1" fill-rule="evenodd" stroke="#00943a" stroke-width=".98029709">
              <path d="M98.919487 22.477899h-5.30505l4.28048 40.534035 1.076127-.0391-.05156-40.494937z" id="path20565"/>
              <path d="M101.02261 22.477899h5.30505l-4.28048 40.534035-1.07613-.0391.0516-40.494937z" id="path20567"/>
            </g>
            <g transform="scale(-1 1) rotate(11.120819 17.2594784 -1031.95963948)" id="g20569" fill="none" stroke="#ef8410" stroke-width=".98692364">
              <path d="M120.4914 64.812785l-.002-38.417171" id="path20571"/>
              <path d="M118.477 64.812785l-.0129-19.407333" id="path20573"/>
              <path d="M122.51624 64.812785l-.0129-19.407333" id="path20575"/>
            </g>
          </g>
        </g>
        <g transform="matrix(-1 0 0 1 199.99457 .0476392)" id="g20603">
          <g id="g20605" transform="rotate(-24.340787 100.43318665 101.46307388)">
            <g transform="translate(.02894978)" id="g20607" fill="#00943a" fill-opacity="1" fill-rule="evenodd" stroke="#00943a" stroke-width=".98029709">
              <path d="M98.919487 22.477899h-5.30505l4.28048 40.534035 1.076127-.0391-.05156-40.494937z" id="path20609"/>
              <path d="M101.02261 22.477899h5.30505l-4.28048 40.534035-1.07613-.0391.0516-40.494937z" id="path20611"/>
            </g>
            <g transform="scale(-1 1) rotate(11.120819 17.2594784 -1031.95963948)" id="g20613" fill="none" stroke="#ef8410" stroke-width=".98692364">
              <path d="M120.4914 64.812785l-.002-38.417171" id="path20615"/>
              <path d="M118.477 64.812785l-.0129-19.407333" id="path20617"/>
              <path d="M122.51624 64.812785l-.0129-19.407333" id="path20619"/>
            </g>
          </g>
          <g id="g20621" transform="rotate(-49.098 99.81540832 99.68198292)">
            <g transform="translate(.02894978)" id="g20623" fill="#00943a" fill-opacity="1" fill-rule="evenodd" stroke="#00943a" stroke-width=".98029709">
              <path d="M98.919487 22.477899h-5.30505l4.28048 40.534035 1.076127-.0391-.05156-40.494937z" id="path20625"/>
              <path d="M101.02261 22.477899h5.30505l-4.28048 40.534035-1.07613-.0391.0516-40.494937z" id="path20627"/>
            </g>
            <g transform="scale(-1 1) rotate(11.120819 17.2594784 -1031.95963948)" id="g20629" fill="none" stroke="#ef8410" stroke-width=".98692364">
              <path d="M120.4914 64.812785l-.002-38.417171" id="path20631"/>
              <path d="M118.477 64.812785l-.0129-19.407333" id="path20633"/>
              <path d="M122.51624 64.812785l-.0129-19.407333" id="path20635"/>
            </g>
          </g>
          <g id="g20637" transform="rotate(-72.937961 100.01210342 100.0261951)">
            <g transform="translate(.02894978)" id="g20639" fill="#00943a" fill-opacity="1" fill-rule="evenodd" stroke="#00943a" stroke-width=".98029709">
              <path d="M98.919487 22.477899h-5.30505l4.28048 40.534035 1.076127-.0391-.05156-40.494937z" id="path20641"/>
              <path d="M101.02261 22.477899h5.30505l-4.28048 40.534035-1.07613-.0391.0516-40.494937z" id="path20643"/>
            </g>
            <g transform="scale(-1 1) rotate(11.120819 17.2594784 -1031.95963948)" id="g20645" fill="none" stroke="#ef8410" stroke-width=".98692364">
              <path d="M120.4914 64.812785l-.002-38.417171" id="path20647"/>
              <path d="M118.477 64.812785l-.0129-19.407333" id="path20649"/>
              <path d="M122.51624 64.812785l-.0129-19.407333" id="path20651"/>
            </g>
          </g>
        </g>
      </g>
    </g>
    <g transform="matrix(1.49477 0 0 1.48883 238.02154 341.39305)" id="g5474" fill="#60bc24" fill-opacity="1" fill-rule="evenodd" stroke="#60bc24" stroke-width=".49301785" stroke-linecap="butt" stroke-linejoin="miter" stroke-miterlimit="4" stroke-opacity="1" stroke-dasharray="none">
      <g id="g4284" transform="rotate(-1.0988418 34.28058767 143.03270487)">
        <g id="g4194">
          <path d="M60.424874 179.26031c1.155584-1.30763-1.702966-4.40946-3.071421-5.47382-.669022 1.67256.912303 5.96038 3.071421 5.47382z" id="path3221"/>
          <path d="M58.69597 181.11838c-.660744 1.61515-4.707682.42562-6.267966-.33005 1.2034-1.34047 5.748154-1.8213 6.267966.33005z" id="path4192"/>
        </g>
        <g transform="translate(-5.2286732 -3.3386559)" id="g4198">
          <path d="M60.424874 179.26031c1.155584-1.30763-1.702966-4.40946-3.071421-5.47382-.669022 1.67256.912303 5.96038 3.071421 5.47382z" id="path4200"/>
          <path d="M58.69597 181.11838c-.660744 1.61515-4.707682.42562-6.267966-.33005 1.2034-1.34047 5.748154-1.8213 6.267966.33005z" id="path4202"/>
        </g>
        <g transform="translate(-11.371514 -7.1399188)" id="g4204">
          <path d="M60.424874 179.26031c1.155584-1.30763-1.702966-4.40946-3.071421-5.47382-.669022 1.67256.912303 5.96038 3.071421 5.47382z" id="path4206"/>
          <path d="M58.69597 181.11838c-.660744 1.61515-4.707682.42562-6.267966-.33005 1.2034-1.34047 5.748154-1.8213 6.267966.33005z" id="path4208"/>
        </g>
        <g transform="rotate(11.437788 103.58445414 90.34550486)" id="g4210">
          <path d="M60.424874 179.26031c1.155584-1.30763-1.702966-4.40946-3.071421-5.47382-.669022 1.67256.912303 5.96038 3.071421 5.47382z" id="path4212"/>
          <path d="M58.69597 181.11838c-.660744 1.61515-4.707682.42562-6.267966-.33005 1.2034-1.34047 5.748154-1.8213 6.267966.33005z" id="path4214"/>
        </g>
        <g transform="rotate(17.068232 97.09868502 99.5157165)" id="g4216">
          <path d="M60.424874 179.26031c1.155584-1.30763-1.702966-4.40946-3.071421-5.47382-.669022 1.67256.912303 5.96038 3.071421 5.47382z" id="path4218"/>
          <path d="M58.69597 181.11838c-.660744 1.61515-4.707682.42562-6.267966-.33005 1.2034-1.34047 5.748154-1.8213 6.267966.33005z" id="path4220"/>
        </g>
        <g transform="rotate(23.213281 93.33039007 105.8614873)" id="g4222">
          <path d="M60.424874 179.26031c1.155584-1.30763-1.702966-4.40946-3.071421-5.47382-.669022 1.67256.912303 5.96038 3.071421 5.47382z" id="path4224"/>
          <path d="M58.69597 181.11838c-.660744 1.61515-4.707682.42562-6.267966-.33005 1.2034-1.34047 5.748154-1.8213 6.267966.33005z" id="path4226"/>
        </g>
        <g transform="rotate(26.862444 96.19584577 103.3856002)" id="g4228">
          <path d="M60.424874 179.26031c1.155584-1.30763-1.702966-4.40946-3.071421-5.47382-.669022 1.67256.912303 5.96038 3.071421 5.47382z" id="path4230"/>
          <path d="M58.69597 181.11838c-.660744 1.61515-4.707682.42562-6.267966-.33005 1.2034-1.34047 5.748154-1.8213 6.267966.33005z" id="path4232"/>
        </g>
        <g transform="rotate(26.862444 106.32030062 93.40102027)" id="g4234">
          <path d="M60.424874 179.26031c1.155584-1.30763-1.702966-4.40946-3.071421-5.47382-.669022 1.67256.912303 5.96038 3.071421 5.47382z" id="path4236"/>
          <path d="M58.69597 181.11838c-.660744 1.61515-4.707682.42562-6.267966-.33005 1.2034-1.34047 5.748154-1.8213 6.267966.33005z" id="path4238"/>
        </g>
        <g transform="rotate(36.548766 94.85385754 104.37874397)" id="g4240">
          <path d="M60.424874 179.26031c1.155584-1.30763-1.702966-4.40946-3.071421-5.47382-.669022 1.67256.912303 5.96038 3.071421 5.47382z" id="path4242"/>
          <path d="M58.69597 181.11838c-.660744 1.61515-4.707682.42562-6.267966-.33005 1.2034-1.34047 5.748154-1.8213 6.267966.33005z" id="path4244"/>
        </g>
        <g transform="rotate(40.810228 94.81316931 104.27841969)" id="g4246">
          <path d="M60.424874 179.26031c1.155584-1.30763-1.702966-4.40946-3.071421-5.47382-.669022 1.67256.912303 5.96038 3.071421 5.47382z" id="path4248"/>
          <path d="M58.69597 181.11838c-.660744 1.61515-4.707682.42562-6.267966-.33005 1.2034-1.34047 5.748154-1.8213 6.267966.33005z" id="path4250"/>
        </g>
        <g transform="rotate(43.455906 97.26005076 101.59395408)" id="g4252">
          <path d="M60.424874 179.26031c1.155584-1.30763-1.702966-4.40946-3.071421-5.47382-.669022 1.67256.912303 5.96038 3.071421 5.47382z" id="path4254"/>
          <path d="M58.69597 181.11838c-.660744 1.61515-4.707682.42562-6.267966-.33005 1.2034-1.34047 5.748154-1.8213 6.267966.33005z" id="path4256"/>
        </g>
        <g transform="rotate(50.824121 93.03143916 105.39761787)" id="g4258">
          <path d="M60.424874 179.26031c1.155584-1.30763-1.702966-4.40946-3.071421-5.47382-.669022 1.67256.912303 5.96038 3.071421 5.47382z" id="path4260"/>
          <path d="M58.69597 181.11838c-.660744 1.61515-4.707682.42562-6.267966-.33005 1.2034-1.34047 5.748154-1.8213 6.267966.33005z" id="path4262"/>
        </g>
        <g transform="rotate(50.824121 98.97573459 101.53935464)" id="g4264">
          <path d="M60.424874 179.26031c1.155584-1.30763-1.702966-4.40946-3.071421-5.47382-.669022 1.67256.912303 5.96038 3.071421 5.47382z" id="path4266"/>
          <path d="M58.69597 181.11838c-.660744 1.61515-4.707682.42562-6.267966-.33005 1.2034-1.34047 5.748154-1.8213 6.267966.33005z" id="path4268"/>
        </g>
        <g transform="rotate(57.08531 96.09907586 103.95350666)" id="g4270">
          <path d="M60.424874 179.26031c1.155584-1.30763-1.702966-4.40946-3.071421-5.47382-.669022 1.67256.912303 5.96038 3.071421 5.47382z" id="path4272"/>
          <path d="M58.69597 181.11838c-.660744 1.61515-4.707682.42562-6.267966-.33005 1.2034-1.34047 5.748154-1.8213 6.267966.33005z" id="path4274"/>
        </g>
        <path id="path4280" d="M12.447737 109.90153c-1.644409-.58413-.889585-4.16552-.208048-5.75958 1.39552 1.13911 2.332603 5.13928.208048 5.75958z"/>
      </g>
      <g id="g5386" transform="scale(-1 1) rotate(-1.098844 -65.92685657 10592.71867171)">
        <g id="g5388">
          <path d="M60.424874 179.26031c1.155584-1.30763-1.702966-4.40946-3.071421-5.47382-.669022 1.67256.912303 5.96038 3.071421 5.47382z" id="path5390"/>
          <path d="M58.69597 181.11838c-.660744 1.61515-4.707682.42562-6.267966-.33005 1.2034-1.34047 5.748154-1.8213 6.267966.33005z" id="path5392"/>
        </g>
        <g transform="translate(-5.2286732 -3.3386559)" id="g5394">
          <path d="M60.424874 179.26031c1.155584-1.30763-1.702966-4.40946-3.071421-5.47382-.669022 1.67256.912303 5.96038 3.071421 5.47382z" id="path5396"/>
          <path d="M58.69597 181.11838c-.660744 1.61515-4.707682.42562-6.267966-.33005 1.2034-1.34047 5.748154-1.8213 6.267966.33005z" id="path5398"/>
        </g>
        <g transform="translate(-11.371514 -7.1399188)" id="g5400">
          <path d="M60.424874 179.26031c1.155584-1.30763-1.702966-4.40946-3.071421-5.47382-.669022 1.67256.912303 5.96038 3.071421 5.47382z" id="path5402"/>
          <path d="M58.69597 181.11838c-.660744 1.61515-4.707682.42562-6.267966-.33005 1.2034-1.34047 5.748154-1.8213 6.267966.33005z" id="path5404"/>
        </g>
        <g transform="rotate(11.437788 103.58445414 90.34550486)" id="g5406">
          <path d="M60.424874 179.26031c1.155584-1.30763-1.702966-4.40946-3.071421-5.47382-.669022 1.67256.912303 5.96038 3.071421 5.47382z" id="path5408"/>
          <path d="M58.69597 181.11838c-.660744 1.61515-4.707682.42562-6.267966-.33005 1.2034-1.34047 5.748154-1.8213 6.267966.33005z" id="path5410"/>
        </g>
        <g transform="rotate(17.068232 97.09868502 99.5157165)" id="g5412">
          <path d="M60.424874 179.26031c1.155584-1.30763-1.702966-4.40946-3.071421-5.47382-.669022 1.67256.912303 5.96038 3.071421 5.47382z" id="path5414"/>
          <path d="M58.69597 181.11838c-.660744 1.61515-4.707682.42562-6.267966-.33005 1.2034-1.34047 5.748154-1.8213 6.267966.33005z" id="path5416"/>
        </g>
        <g transform="rotate(23.213281 93.33039007 105.8614873)" id="g5418">
          <path d="M60.424874 179.26031c1.155584-1.30763-1.702966-4.40946-3.071421-5.47382-.669022 1.67256.912303 5.96038 3.071421 5.47382z" id="path5420"/>
          <path d="M58.69597 181.11838c-.660744 1.61515-4.707682.42562-6.267966-.33005 1.2034-1.34047 5.748154-1.8213 6.267966.33005z" id="path5422"/>
        </g>
        <g transform="rotate(26.862444 96.19584577 103.3856002)" id="g5424">
          <path d="M60.424874 179.26031c1.155584-1.30763-1.702966-4.40946-3.071421-5.47382-.669022 1.67256.912303 5.96038 3.071421 5.47382z" id="path5426"/>
          <path d="M58.69597 181.11838c-.660744 1.61515-4.707682.42562-6.267966-.33005 1.2034-1.34047 5.748154-1.8213 6.267966.33005z" id="path5428"/>
        </g>
        <g transform="rotate(26.862444 106.32030062 93.40102027)" id="g5430">
          <path d="M60.424874 179.26031c1.155584-1.30763-1.702966-4.40946-3.071421-5.47382-.669022 1.67256.912303 5.96038 3.071421 5.47382z" id="path5432"/>
          <path d="M58.69597 181.11838c-.660744 1.61515-4.707682.42562-6.267966-.33005 1.2034-1.34047 5.748154-1.8213 6.267966.33005z" id="path5434"/>
        </g>
        <g transform="rotate(36.548766 94.85385754 104.37874397)" id="g5436">
          <path d="M60.424874 179.26031c1.155584-1.30763-1.702966-4.40946-3.071421-5.47382-.669022 1.67256.912303 5.96038 3.071421 5.47382z" id="path5438"/>
          <path d="M58.69597 181.11838c-.660744 1.61515-4.707682.42562-6.267966-.33005 1.2034-1.34047 5.748154-1.8213 6.267966.33005z" id="path5440"/>
        </g>
        <g transform="rotate(40.810228 94.81316931 104.27841969)" id="g5442">
          <path d="M60.424874 179.26031c1.155584-1.30763-1.702966-4.40946-3.071421-5.47382-.669022 1.67256.912303 5.96038 3.071421 5.47382z" id="path5444"/>
          <path d="M58.69597 181.11838c-.660744 1.61515-4.707682.42562-6.267966-.33005 1.2034-1.34047 5.748154-1.8213 6.267966.33005z" id="path5446"/>
        </g>
        <g transform="rotate(43.455906 97.26005076 101.59395408)" id="g5448">
          <path d="M60.424874 179.26031c1.155584-1.30763-1.702966-4.40946-3.071421-5.47382-.669022 1.67256.912303 5.96038 3.071421 5.47382z" id="path5450"/>
          <path d="M58.69597 181.11838c-.660744 1.61515-4.707682.42562-6.267966-.33005 1.2034-1.34047 5.748154-1.8213 6.267966.33005z" id="path5452"/>
        </g>
        <g transform="rotate(50.824121 93.03143916 105.39761787)" id="g5454">
          <path d="M60.424874 179.26031c1.155584-1.30763-1.702966-4.40946-3.071421-5.47382-.669022 1.67256.912303 5.96038 3.071421 5.47382z" id="path5456"/>
          <path d="M58.69597 181.11838c-.660744 1.61515-4.707682.42562-6.267966-.33005 1.2034-1.34047 5.748154-1.8213 6.267966.33005z" id="path5458"/>
        </g>
        <g transform="rotate(50.824121 98.97573459 101.53935464)" id="g5460">
          <path d="M60.424874 179.26031c1.155584-1.30763-1.702966-4.40946-3.071421-5.47382-.669022 1.67256.912303 5.96038 3.071421 5.47382z" id="path5462"/>
          <path d="M58.69597 181.11838c-.660744 1.61515-4.707682.42562-6.267966-.33005 1.2034-1.34047 5.748154-1.8213 6.267966.33005z" id="path5464"/>
        </g>
        <g transform="rotate(57.08531 96.09907586 103.95350666)" id="g5466">
          <path d="M60.424874 179.26031c1.155584-1.30763-1.702966-4.40946-3.071421-5.47382-.669022 1.67256.912303 5.96038 3.071421 5.47382z" id="path5468"/>
          <path d="M58.69597 181.11838c-.660744 1.61515-4.707682.42562-6.267966-.33005 1.2034-1.34047 5.748154-1.8213 6.267966.33005z" id="path5470"/>
        </g>
        <path id="path5472" d="M12.447737 109.90153c-1.644409-.58413-.889585-4.16552-.208048-5.75958 1.39552 1.13911 2.332603 5.13928.208048 5.75958z"/>
      </g>
    </g>
    <path d="M321.65084 496.18355c-1.73243 35.61932 25.5453 61.97766 43.73573 65.6036v-9.91977c-21.5005-7.29146-36.58949-25.39674-43.73573-55.68383zm132.31644 0c-7.14624 30.28709-22.26693 48.39237-43.76742 55.68383v9.91977c18.19043-3.62594 45.49985-29.98428 43.76742-65.6036zm-86.99608 56.06414v9.72962c6.33469 1.77887 10.34767 5.56441 13.12072 11.25086 2.43138 4.9858 3.10101 10.60324 3.96157 14.38842.11669.51327-.0557.87592-.25354.88739-.28626.0166-.42054-.48186-.47539-.69724-1.67626-6.58268-4.44042-12.40667-7.03575-16.6069-1.446-2.34019-3.11238-4.64542-5.19758-6.30682-.71422-.56907-1.44541-.65794-2.28186-.38031.32517 2.94182.90335 5.77594 2.21848 8.43022 1.36837 2.76175 2.93795 4.28482 4.2468 6.30682 1.30885 2.02201 2.50961 4.51838 3.51788 9.25423.7835 3.68013.73822 8.55807 1.48955 12.51856.79515 4.19149 3.21106 6.78221 7.51113 6.78221 4.30008 0 6.71599-2.59072 7.51114-6.78221.75133-3.96049.70605-8.83843 1.48955-12.51856 1.00827-4.73585 2.20903-7.23222 3.51788-9.25423 1.30884-2.022 2.87843-3.54507 4.2468-6.30682 1.31512-2.65428 1.89331-5.4884 2.21848-8.43022-.83645-.27763-1.56764-.18876-2.28187.38031-2.08519 1.6614-3.75157 3.96663-5.19758 6.30682-2.59532 4.20023-5.35948 10.02422-7.03574 16.6069-.0549.21538-.18914.71387-.47539.69724-.19786-.0115-.37023-.37412-.25354-.88739.86055-3.78518 1.53018-9.40262 3.96157-14.38842 2.77305-5.68645 6.78603-9.47199 13.12072-11.25086v-9.72962c-6.48501 2.5486-13.88786 3.51787-20.82202 3.51787-6.93416 0-14.337-.96927-20.82201-3.51787zm-6.65544 10.80716c-6.97332.24552-14.21962 2.1961-15.94136 7.32098 5.35308 1.93463 15.84885.0388 20.66355-7.2259-1.5074-.10517-3.11296-.15179-4.72219-.095zm51.78565 0c-.51908.0185-1.01878.0601-1.52124.095 4.8147 7.26464 15.31048 9.16053 20.66355 7.2259-1.98662-5.91332-11.35612-7.59754-19.14231-7.32098z" id="path27572" fill="#de2919" fill-opacity="1" fill-rule="evenodd" stroke="none"/>
    <g transform="matrix(1.49477 0 0 1.48883 238.33162 341.39305)" id="g35349" stroke="#de2919" stroke-linecap="butt" stroke-linejoin="miter" stroke-opacity="1">
      <path d="M111.4911 70.109824c-3.66093 4.792256-9.76167 16.261336-22.054525 18.764622-.365544 2.436963-3.094351 4.51275-3.289901 7.189044-.300255 4.1093 2.462455 7.05598 2.071419 9.74785-.573641 2.6209-3.529418 4.87581-4.264687 6.70166-1.777055 4.41284-1.944191 6.12111 1.827723 10.84448 3.093034 5.67109 5.387119 5.6845 5.605018 5.97056 9.223923-3.653 9.769943-6.64606 9.869703-6.70165 1.21849-2.55881 9.38231-31.071284 9.38231-31.071284-.73109-1.949571-1.21848-7.920133-1.21848-7.920133 1.15449 2.129982.99961 1.795685 2.92436 6.214259 2.79451-4.273148 1.58433-6.946214 1.58402-6.945348-2.59401-10.610911-2.31539-12.551684-2.43696-12.79406z" id="path30498" fill="#de2919" fill-opacity="1" fill-rule="evenodd" stroke-width=".9860357"/>
      <path d="M101.86509 77.908108c.48739-1.949571.73109-2.193268.73109-2.193268" id="path32438" fill="none" stroke-width="1.08463931" stroke-miterlimit="4" stroke-dasharray="none"/>
      <path d="M112.83143 94.479463l1.21848-2.436964" id="path32440" fill="none" stroke-width="1.38045001" stroke-miterlimit="4" stroke-dasharray="none"/>
    </g>
    <g id="g4083" transform="matrix(1.06446 0 0 1.07674 235.11063 335.64028)" font-style="normal" font-weight="400" writing-mode="lr-tb" text-anchor="start" fill="#000" fill-opacity="1" stroke="none" font-family="Bitstream Vera Sans">
      <text xml:space="preserve" style="text-align:start;line-height:139.99999762%" x="-111.81315" y="58.161247" id="text3010" transform="rotate(-75.241489)" font-size="12">
        <tspan id="tspan3012" x="-111.81315" y="58.161247" font-size="20">R</tspan>
      </text>
      <text xml:space="preserve" style="text-align:start;line-height:139.99999762%" x="-90.851105" y="67.929787" id="text3991" transform="rotate(-69.32384)" font-size="12">
        <tspan id="tspan3993" x="-90.851105" y="67.929787" font-size="20">E</tspan>
      </text>
      <text xml:space="preserve" style="text-align:start;line-height:139.99999762%" x="-69.340134" y="76.10791" id="text3995" transform="rotate(-62.890661)" font-size="12.00000095">
        <tspan id="tspan3997" x="-69.340134" y="76.10791" font-size="20.00000191">P</tspan>
      </text>
      <text xml:space="preserve" style="text-align:start;line-height:139.99999762%" x="-47.328358" y="81.752785" id="text3999" transform="rotate(-56.67593)" font-size="12">
        <tspan id="tspan4001" x="-47.328358" y="81.752785" font-size="20">O</tspan>
      </text>
      <text xml:space="preserve" style="text-align:start;line-height:139.99999762%" x="-20.742283" y="85.376289" id="text4003" transform="rotate(-49.075838)" font-size="12">
        <tspan id="tspan4005" x="-20.742283" y="85.376289" font-size="20">B</tspan>
      </text>
      <text xml:space="preserve" style="text-align:start;line-height:139.99999762%" x="1.865719" y="85.711243" id="text4007" transform="rotate(-42.896372)" font-size="12">
        <tspan id="tspan4009" x="1.865719" y="85.711243" font-size="20">L</tspan>
      </text>
      <text xml:space="preserve" style="text-align:start;line-height:139.99999762%" x="19.086424" y="84.676483" id="text4011" transform="rotate(-38.777927)" font-size="20">
        <tspan id="tspan4013" x="19.086424" y="84.676483">I</tspan>
      </text>
      <text xml:space="preserve" style="text-align:start;line-height:139.99999762%" x="31.985041" y="81.991005" id="text4015" transform="rotate(-33.755828)" font-size="12">
        <tspan id="tspan4017" x="31.985041" y="81.991005" font-size="20">K</tspan>
      </text>
      <text xml:space="preserve" style="text-align:start;line-height:139.99999762%" x="54.548019" y="76.215263" id="text4019" transform="rotate(-27.105886)" font-size="12">
        <tspan id="tspan4021" x="54.548019" y="76.215263" font-size="20">A</tspan>
      </text>
      <text xml:space="preserve" style="text-align:start;line-height:139.99999762%" x="76.654938" y="67.385513" id="text4023" transform="rotate(-20.147787)" font-size="20">
        <tspan id="tspan4025" x="76.654938" y="67.385513">N</tspan>
      </text>
      <text xml:space="preserve" style="text-align:start;line-height:139.99999762%" x="104.43925" y="55.304287" id="text4027" transform="rotate(-12.896816)" font-size="20">
        <tspan id="tspan4029" x="104.43925" y="55.304287">&apos;</tspan>
      </text>
      <text xml:space="preserve" style="text-align:start;line-height:139.99999762%" x="110.10371" y="51.675873" id="text4031" transform="rotate(-11.001046)" font-size="20">
        <tspan id="tspan4033" x="110.10371" y="51.675873">I</tspan>
      </text>
      <text xml:space="preserve" style="text-align:start;line-height:139.99999762%" x="147.14537" y="14.382471" id="text4035" transform="rotate(4.8293256)" font-size="20">
        <tspan id="tspan4037" x="147.14537" y="14.382471">M</tspan>
      </text>
      <text xml:space="preserve" style="text-align:start;line-height:139.99999762%" x="164.33127" y="-7.662992" id="text4039" transform="rotate(12.525944)" font-size="20">
        <tspan id="tspan4041" x="164.33127" y="-7.662992">A</tspan>
      </text>
      <text xml:space="preserve" style="text-align:start;line-height:139.99999762%" x="175.72386" y="-27.673901" id="text4043" transform="rotate(19.010482)" font-size="20">
        <tspan id="tspan4045" x="175.72386" y="-27.673901">D</tspan>
      </text>
      <text xml:space="preserve" style="text-align:start;line-height:139.99999762%" x="185.31326" y="-50.730518" id="text4047" transform="rotate(26.059503)" font-size="20">
        <tspan id="tspan4049" x="185.31326" y="-50.730518">A</tspan>
      </text>
      <text xml:space="preserve" style="text-align:start;line-height:139.99999762%" x="190.92221" y="-74.950592" id="text4051" transform="rotate(33.133057)" font-size="20">
        <tspan id="tspan4053" x="190.92221" y="-74.950592">G</tspan>
      </text>
      <text xml:space="preserve" style="text-align:start;line-height:139.99999762%" x="196.82309" y="-97.545418" id="text4055" transform="rotate(39.583273)" font-size="20">
        <tspan id="tspan4057" x="196.82309" y="-97.545418">A</tspan>
      </text>
      <text xml:space="preserve" style="text-align:start;line-height:139.99999762%" x="197.40089" y="-121.35838" id="text4059" transform="rotate(46.260362)" font-size="20">
        <tspan id="tspan4061" x="197.40089" y="-121.35838">S</tspan>
      </text>
      <text xml:space="preserve" style="text-align:start;line-height:139.99999762%" x="200.16104" y="-137.95088" id="text4063" transform="rotate(50.91715)" font-size="20">
        <tspan id="tspan4065" x="200.16104" y="-137.95088">I</tspan>
      </text>
      <text xml:space="preserve" style="text-align:start;line-height:139.99999762%" x="194.89906" y="-153.12288" id="text4067" transform="rotate(55.216617)" font-size="20">
        <tspan id="tspan4069" x="194.89906" y="-153.12288">K</tspan>
      </text>
      <text xml:space="preserve" style="text-align:start;line-height:139.99999762%" x="189.49118" y="-175.77727" id="text4071" transform="rotate(61.731518)" font-size="20">
        <tspan id="tspan4073" x="189.49118" y="-175.77727">A</tspan>
      </text>
      <text xml:space="preserve" style="text-align:start;line-height:139.99999762%" x="180.64574" y="-198.57527" id="text4075" transform="rotate(68.541938)" font-size="20">
        <tspan id="tspan4077" x="180.64574" y="-198.57527">R</tspan>
      </text>
      <text xml:space="preserve" style="text-align:start;line-height:139.99999762%" x="168.49208" y="-221.4989" id="text4079" transform="rotate(75.784177)" font-size="20">
        <tspan id="tspan4081" x="168.49208" y="-221.4989">A</tspan>
      </text>
    </g>
    <text transform="rotate(20.8567554)" id="text5106" y="451.89426" x="536.17566" style="text-align:start;line-height:139.99999762%" xml:space="preserve" font-size="6.38674974" font-style="normal" font-weight="400" writing-mode="lr-tb" text-anchor="start" fill="#000" fill-opacity="1" stroke="none" font-family="Bitstream Vera Sans">
      <tspan y="451.89426" x="536.17566" id="tspan5108">T</tspan>
    </text>
    <text transform="rotate(19.6120146)" id="text5110" y="463.51218" x="530.14734" style="text-align:start;line-height:139.99999762%" xml:space="preserve" font-size="6.38675022" font-style="normal" font-weight="400" writing-mode="lr-tb" text-anchor="start" fill="#000" fill-opacity="1" stroke="none" font-family="Bitstream Vera Sans">
      <tspan y="463.51218" x="530.14734" id="tspan5112">A</tspan>
    </text>
    <text transform="rotate(18.0173033)" id="text5114" y="478.18091" x="521.32324" style="text-align:start;line-height:139.99999762%" xml:space="preserve" font-size="6.3867507" font-style="normal" font-weight="400" writing-mode="lr-tb" text-anchor="start" fill="#000" fill-opacity="1" stroke="none" font-family="Bitstream Vera Sans">
      <tspan y="478.18091" x="521.32324" id="tspan5116">N</tspan>
    </text>
    <text transform="rotate(16.3936236)" id="text5118" y="492.85602" x="512.21454" style="text-align:start;line-height:139.99999762%" xml:space="preserve" font-size="6.38675022" font-style="normal" font-weight="400" writing-mode="lr-tb" text-anchor="start" fill="#000" fill-opacity="1" stroke="none" font-family="Bitstream Vera Sans">
      <tspan y="492.85602" x="512.21454" id="tspan5120">I</tspan>
    </text>
    <text transform="rotate(14.909772)" id="text5122" y="506.02563" x="501.06967" style="text-align:start;line-height:139.99999762%" xml:space="preserve" font-size="6.38674927" font-style="normal" font-weight="400" writing-mode="lr-tb" text-anchor="start" fill="#000" fill-opacity="1" stroke="none" font-family="Bitstream Vera Sans">
      <tspan y="506.02563" x="501.06967" id="tspan5124">N</tspan>
    </text>
    <text transform="rotate(13.0147734)" id="text5126" y="522.46515" x="488.6991" style="text-align:start;line-height:139.99999762%" xml:space="preserve" font-size="6.38675022" font-style="normal" font-weight="400" writing-mode="lr-tb" text-anchor="start" fill="#000" fill-opacity="1" stroke="none" font-family="Bitstream Vera Sans">
      <tspan y="522.46515" x="488.6991" id="tspan5128">D</tspan>
    </text>
    <text transform="rotate(10.7740798)" id="text5130" y="541.34198" x="472.55081" style="text-align:start;line-height:139.99999762%" xml:space="preserve" font-size="6.38675022" font-style="normal" font-weight="400" writing-mode="lr-tb" text-anchor="start" fill="#000" fill-opacity="1" stroke="none" font-family="Bitstream Vera Sans">
      <tspan y="541.34198" x="472.55081" id="tspan5132">R</tspan>
    </text>
    <text transform="rotate(8.6682367)" id="text5134" y="558.51166" x="456.97012" style="text-align:start;line-height:139.99999762%" xml:space="preserve" font-size="6.3867507" font-style="normal" font-weight="400" writing-mode="lr-tb" text-anchor="start" fill="#000" fill-opacity="1" stroke="none" font-family="Bitstream Vera Sans">
      <tspan y="558.51166" x="456.97012" id="tspan5136">A</tspan>
    </text>
    <text transform="rotate(6.7301881)" id="text5138" y="573.78693" x="442.11081" style="text-align:start;line-height:139.99999762%" xml:space="preserve" font-size="6.38674879" font-style="normal" font-weight="400" writing-mode="lr-tb" text-anchor="start" fill="#000" fill-opacity="1" stroke="none" font-family="Bitstream Vera Sans">
      <tspan y="573.78693" x="442.11081" id="tspan5140">Z</tspan>
    </text>
    <text transform="rotate(4.7947105)" id="text5142" y="588.53241" x="426.42368" style="text-align:start;line-height:139.99999762%" xml:space="preserve" font-size="6.38675022" font-style="normal" font-weight="400" writing-mode="lr-tb" text-anchor="start" fill="#000" fill-opacity="1" stroke="none" font-family="Bitstream Vera Sans">
      <tspan y="588.53241" x="426.42368" id="tspan5144">A</tspan>
    </text>
    <text transform="rotate(2.6489622)" id="text5146" y="604.2561" x="408.36047" style="text-align:start;line-height:139.99999762%" xml:space="preserve" font-size="6.38674879" font-style="normal" font-weight="400" writing-mode="lr-tb" text-anchor="start" fill="#000" fill-opacity="1" stroke="none" font-family="Bitstream Vera Sans">
      <tspan y="604.2561" x="408.36047" id="tspan5148">N</tspan>
    </text>
    <text transform="rotate(.5349126)" id="text5150" y="619.07758" x="390.44766" style="text-align:start;line-height:139.99999762%" xml:space="preserve" font-size="6.38675022" font-style="normal" font-weight="400" writing-mode="lr-tb" text-anchor="start" fill="#000" fill-opacity="1" stroke="none" font-family="Bitstream Vera Sans">
      <tspan y="619.07758" x="390.44766" id="tspan5152">A</tspan>
    </text>
    <text transform="rotate(10.362863)" id="text5154" y="553.09125" x="470.35815" style="text-align:start;line-height:139.99999762%" xml:space="preserve" font-size="6.38675022" font-style="normal" font-weight="400" writing-mode="lr-tb" text-anchor="start" fill="#000" fill-opacity="1" stroke="none" font-family="Bitstream Vera Sans">
      <tspan y="553.09125" x="470.35815" id="tspan5156">F</tspan>
    </text>
    <text transform="rotate(7.238909)" id="text5158" y="578.11029" x="443.44666" style="text-align:start;line-height:139.99999762%" xml:space="preserve" font-size="6.38675117" font-style="normal" font-weight="400" writing-mode="lr-tb" text-anchor="start" fill="#000" fill-opacity="1" stroke="none" font-family="Bitstream Vera Sans">
      <tspan y="578.11029" x="443.44666" id="tspan5160">A</tspan>
    </text>
    <text transform="rotate(4.8306934)" id="text5162" y="596.41266" x="423.05911" style="text-align:start;line-height:139.99999762%" xml:space="preserve" font-size="6.38675022" font-style="normal" font-weight="400" writing-mode="lr-tb" text-anchor="start" fill="#000" fill-opacity="1" stroke="none" font-family="Bitstream Vera Sans">
      <tspan y="596.41266" x="423.05911" id="tspan5164">N</tspan>
    </text>
    <text transform="rotate(2.8915134)" id="text5166" y="610.53998" x="407.29251" style="text-align:start;line-height:139.99999762%" xml:space="preserve" font-size="6.38675022" font-style="normal" font-weight="400" writing-mode="lr-tb" text-anchor="start" fill="#000" fill-opacity="1" stroke="none" font-family="Bitstream Vera Sans">
      <tspan y="610.53998" x="407.29251" id="tspan5168">D</tspan>
    </text>
    <text transform="rotate(1.1921868)" id="text5170" y="622.48889" x="393.64883" style="text-align:start;line-height:139.99999762%" xml:space="preserve" font-size="6.38675022" font-style="normal" font-weight="400" writing-mode="lr-tb" text-anchor="start" fill="#000" fill-opacity="1" stroke="none" font-family="Bitstream Vera Sans">
      <tspan y="622.48889" x="393.64883" id="tspan5172">R</tspan>
    </text>
    <text id="text5174" y="630.61786" x="385.23083" style="text-align:start;line-height:139.99999762%" xml:space="preserve" font-size="6.38675022" font-style="normal" font-weight="400" writing-mode="lr-tb" text-anchor="start" fill="#000" fill-opacity="1" stroke="none" font-family="Bitstream Vera Sans">
      <tspan y="630.61786" x="385.23083" id="tspan5176">O</tspan>
    </text>
    <text transform="rotate(-2.0775263)" id="text5178" y="644.34308" x="367.14194" style="text-align:start;line-height:139.99999762%" xml:space="preserve" font-size="6.38675022" font-style="normal" font-weight="400" writing-mode="lr-tb" text-anchor="start" fill="#000" fill-opacity="1" stroke="none" font-family="Bitstream Vera Sans">
      <tspan y="644.34308" x="367.14194" id="tspan5180">S</tspan>
    </text>
    <text transform="rotate(-5.0327745)" id="text5182" y="662.70197" x="337.7507" style="text-align:start;line-height:139.99999762%" xml:space="preserve" font-size="6.38675022" font-style="normal" font-weight="400" writing-mode="lr-tb" text-anchor="start" fill="#000" fill-opacity="1" stroke="none" font-family="Bitstream Vera Sans">
      <tspan y="662.70197" x="337.7507" id="tspan5184">O</tspan>
    </text>
    <text transform="rotate(-6.1659237)" id="text5186" y="669.39581" x="329.52173" style="text-align:start;line-height:139.99999762%" xml:space="preserve" font-size="6.38675117" font-style="normal" font-weight="400" writing-mode="lr-tb" text-anchor="start" fill="#000" fill-opacity="1" stroke="none" font-family="Bitstream Vera Sans">
      <tspan y="669.39581" x="329.52173" id="tspan5188">A</tspan>
    </text>
    <text transform="rotate(-9.4968688)" id="text5190" y="687.69653" x="294.37076" style="text-align:start;line-height:139.99999762%" xml:space="preserve" font-size="6.38674974" font-style="normal" font-weight="400" writing-mode="lr-tb" text-anchor="start" fill="#000" fill-opacity="1" stroke="none" font-family="Bitstream Vera Sans">
      <tspan y="687.69653" x="294.37076" id="tspan5192">N</tspan>
    </text>
    <text transform="rotate(-15.0114223)" id="text5194" y="713.27258" x="231.53705" style="text-align:start;line-height:139.99999762%" xml:space="preserve" font-size="6.38674927" font-style="normal" font-weight="400" writing-mode="lr-tb" text-anchor="start" fill="#000" fill-opacity="1" stroke="none" font-family="Bitstream Vera Sans">
      <tspan y="713.27258" x="231.53705" id="tspan5196">A</tspan>
    </text>
    <text transform="rotate(-3.5051098)" id="text5198" y="645.50891" x="355.46976" style="text-align:start;line-height:139.99999762%" xml:space="preserve" font-size="6.38675117" font-style="normal" font-weight="400" writing-mode="lr-tb" text-anchor="start" fill="#000" fill-opacity="1" stroke="none" font-family="Bitstream Vera Sans">
      <tspan y="645.50891" x="355.46976" id="tspan5200">F</tspan>
    </text>
    <text transform="rotate(-5.528363)" id="text5202" y="657.77814" x="336.39911" style="text-align:start;line-height:139.99999762%" xml:space="preserve" font-size="6.38674974" font-style="normal" font-weight="400" writing-mode="lr-tb" text-anchor="start" fill="#000" fill-opacity="1" stroke="none" font-family="Bitstream Vera Sans">
      <tspan y="657.77814" x="336.39911" id="tspan5204">A</tspan>
    </text>
    <text transform="rotate(-7.5528288)" id="text5206" y="669.42847" x="317.23508" style="text-align:start;line-height:139.99999762%" xml:space="preserve" font-size="6.38675117" font-style="normal" font-weight="400" writing-mode="lr-tb" text-anchor="start" fill="#000" fill-opacity="1" stroke="none" font-family="Bitstream Vera Sans">
      <tspan y="669.42847" x="317.23508" id="tspan5208">H</tspan>
    </text>
    <text transform="rotate(-9.2098552)" id="text5210" y="678.45361" x="302.38681" style="text-align:start;line-height:139.99999762%" xml:space="preserve" font-size="6.38675022" font-style="normal" font-weight="400" writing-mode="lr-tb" text-anchor="start" fill="#000" fill-opacity="1" stroke="none" font-family="Bitstream Vera Sans">
      <tspan y="678.45361" x="302.38681" id="tspan5212">A</tspan>
    </text>
    <text transform="rotate(-10.7517531)" id="text5214" y="686.43475" x="288.30722" style="text-align:start;line-height:139.99999762%" xml:space="preserve" font-size="6.38674879" font-style="normal" font-weight="400" writing-mode="lr-tb" text-anchor="start" fill="#000" fill-opacity="1" stroke="none" font-family="Bitstream Vera Sans">
      <tspan y="686.43475" x="288.30722" id="tspan5216">F</tspan>
    </text>
    <text transform="rotate(-12.6817058)" id="text5218" y="695.90393" x="268.96625" style="text-align:start;line-height:139.99999762%" xml:space="preserve" font-size="6.38675022" font-style="normal" font-weight="400" writing-mode="lr-tb" text-anchor="start" fill="#000" fill-opacity="1" stroke="none" font-family="Bitstream Vera Sans">
      <tspan y="695.90393" x="268.96625" id="tspan5220">A</tspan>
    </text>
    <text transform="rotate(-14.3118259)" id="text5222" y="703.40869" x="253.339" style="text-align:start;line-height:139.99999762%" xml:space="preserve" font-size="6.38674927" font-style="normal" font-weight="400" writing-mode="lr-tb" text-anchor="start" fill="#000" fill-opacity="1" stroke="none" font-family="Bitstream Vera Sans">
      <tspan y="703.40869" x="253.339" id="tspan5224">H</tspan>
    </text>
    <text transform="rotate(-15.8317907)" id="text5226" y="709.98859" x="239.23318" style="text-align:start;line-height:139.99999762%" xml:space="preserve" font-size="6.38675022" font-style="normal" font-weight="400" writing-mode="lr-tb" text-anchor="start" fill="#000" fill-opacity="1" stroke="none" font-family="Bitstream Vera Sans">
      <tspan y="709.98859" x="239.23318" id="tspan5228">A</tspan>
    </text>
    <text transform="rotate(-17.4086483)" id="text5230" y="716.41846" x="223.90642" style="text-align:start;line-height:139.99999762%" xml:space="preserve" font-size="6.38674879" font-style="normal" font-weight="400" writing-mode="lr-tb" text-anchor="start" fill="#000" fill-opacity="1" stroke="none" font-family="Bitstream Vera Sans">
      <tspan y="716.41846" x="223.90642" id="tspan5232">N</tspan>
    </text>
    <text transform="rotate(-18.894452)" id="text5234" y="722.1142" x="209.89365" style="text-align:start;line-height:139.99999762%" xml:space="preserve" font-size="6.38675022" font-style="normal" font-weight="400" writing-mode="lr-tb" text-anchor="start" fill="#000" fill-opacity="1" stroke="none" font-family="Bitstream Vera Sans">
      <tspan y="722.1142" x="209.89365" id="tspan5236">A</tspan>
    </text>
  </g>
</svg>
