<svg xmlns="http://www.w3.org/2000/svg" xmlns:xlink="http://www.w3.org/1999/xlink" id="svg2" version="1.1" xml:space="preserve" viewBox="0 0 531 599.73541">
  <defs id="defs6">
    <linearGradient x1="104.25" y1="737.37402" x2="130.56105" y2="789.01318" gradientUnits="userSpaceOnUse" gradientTransform="matrix(2.2719 0 0 -2.2719 20.24156 2098.0078)" spreadMethod="pad" id="linearGradient56">
      <stop offset="0" id="stop58" stop-opacity="1" stop-color="#cd8c5d"/>
      <stop offset=".75999" id="stop60" stop-opacity="1" stop-color="#fec00f"/>
      <stop offset=".75999" id="stop62" stop-opacity="1" stop-color="#fec00f"/>
      <stop offset="1" id="stop64" stop-opacity="1" stop-color="#fec00f"/>
    </linearGradient>
    <linearGradient x1="147.68896" y1="807.89014" x2="110.11009" y2="766.1557" gradientUnits="userSpaceOnUse" gradientTransform="matrix(2.2719 0 0 -2.2719 20.24156 2098.0078)" spreadMethod="pad" id="linearGradient68">
      <stop offset="0" id="stop70" stop-opacity="1" stop-color="#cd8c5d"/>
      <stop offset=".75" id="stop72" stop-opacity="1" stop-color="#fec00f"/>
      <stop offset=".75" id="stop74" stop-opacity="1" stop-color="#fec00f"/>
      <stop offset="1" id="stop76" stop-opacity="1" stop-color="#fec00f"/>
    </linearGradient>
    <linearGradient x1="132.65771" y1="785.97314" x2="115.90665" y2="771.41174" gradientUnits="userSpaceOnUse" gradientTransform="matrix(2.2719 0 0 -2.2719 20.24156 2098.0078)" spreadMethod="pad" id="linearGradient90">
      <stop offset="0" id="stop92" stop-opacity="1" stop-color="#cd8c5d"/>
      <stop offset=".85999" id="stop94" stop-opacity="1" stop-color="#fec00f"/>
      <stop offset=".85999" id="stop96" stop-opacity="1" stop-color="#fec00f"/>
      <stop offset="1" id="stop98" stop-opacity="1" stop-color="#fec00f"/>
    </linearGradient>
    <linearGradient x1="149.91455" y1="768.11035" x2="127.95988" y2="781.8288" gradientUnits="userSpaceOnUse" gradientTransform="matrix(2.2719 0 0 -2.2719 20.24156 2098.0078)" spreadMethod="pad" id="linearGradient102">
      <stop offset="0" id="stop104" stop-opacity="1" stop-color="#cd8c5d"/>
      <stop offset=".82999" id="stop106" stop-opacity="1" stop-color="#fec00f"/>
      <stop offset=".82999" id="stop108" stop-opacity="1" stop-color="#fec00f"/>
      <stop offset="1" id="stop110" stop-opacity="1" stop-color="#fec00f"/>
    </linearGradient>
    <linearGradient x1="137.19238" y1="750.45264" x2="141.83839" y2="769.08771" gradientUnits="userSpaceOnUse" gradientTransform="matrix(2.2719 0 0 -2.2719 20.24156 2098.0078)" spreadMethod="pad" id="linearGradient114">
      <stop offset="0" id="stop116" stop-opacity="1" stop-color="#cd8c5d"/>
      <stop offset=".89999" id="stop118" stop-opacity="1" stop-color="#fec00f"/>
      <stop offset=".89999" id="stop120" stop-opacity="1" stop-color="#fec00f"/>
      <stop offset="1" id="stop122" stop-opacity="1" stop-color="#fec00f"/>
    </linearGradient>
    <linearGradient x1="122.13086" y1="753.85547" x2="131.51073" y2="754.51135" gradientUnits="userSpaceOnUse" gradientTransform="matrix(2.2719 0 0 -2.2719 20.24156 2098.0078)" spreadMethod="pad" id="linearGradient126">
      <stop offset="0" id="stop128" stop-opacity="1" stop-color="#cd8c5d"/>
      <stop offset=".93999" id="stop130" stop-opacity="1" stop-color="#fec00f"/>
      <stop offset=".93999" id="stop132" stop-opacity="1" stop-color="#fec00f"/>
      <stop offset="1" id="stop134" stop-opacity="1" stop-color="#fec00f"/>
    </linearGradient>
    <linearGradient x1="114.84863" y1="769.1875" x2="119.13092" y2="759.099" gradientUnits="userSpaceOnUse" gradientTransform="matrix(2.2719 0 0 -2.2719 20.24156 2098.0078)" spreadMethod="pad" id="linearGradient138">
      <stop offset="0" id="stop140" stop-opacity="1" stop-color="#cd8c5d"/>
      <stop offset=".85999" id="stop142" stop-opacity="1" stop-color="#fec00f"/>
      <stop offset=".85999" id="stop144" stop-opacity="1" stop-color="#fec00f"/>
      <stop offset="1" id="stop146" stop-opacity="1" stop-color="#fec00f"/>
    </linearGradient>
    <linearGradient xlink:href="#linearGradient56" id="linearGradient3004" gradientUnits="userSpaceOnUse" gradientTransform="matrix(2.2719 0 0 -2.2719 20.24156 2098.0078)" spreadMethod="pad" x1="104.25" y1="737.37402" x2="130.56105" y2="789.01318"/>
    <linearGradient xlink:href="#linearGradient68" id="linearGradient3006" gradientUnits="userSpaceOnUse" gradientTransform="matrix(2.2719 0 0 -2.2719 20.24156 2098.0078)" spreadMethod="pad" x1="147.68896" y1="807.89014" x2="110.11009" y2="766.1557"/>
    <linearGradient xlink:href="#linearGradient90" id="linearGradient3008" gradientUnits="userSpaceOnUse" gradientTransform="matrix(2.2719 0 0 -2.2719 20.24156 2098.0078)" spreadMethod="pad" x1="132.65771" y1="785.97314" x2="115.90665" y2="771.41174"/>
    <linearGradient xlink:href="#linearGradient102" id="linearGradient3010" gradientUnits="userSpaceOnUse" gradientTransform="matrix(2.2719 0 0 -2.2719 20.24156 2098.0078)" spreadMethod="pad" x1="149.91455" y1="768.11035" x2="127.95988" y2="781.8288"/>
    <linearGradient xlink:href="#linearGradient114" id="linearGradient3012" gradientUnits="userSpaceOnUse" gradientTransform="matrix(2.2719 0 0 -2.2719 20.24156 2098.0078)" spreadMethod="pad" x1="137.19238" y1="750.45264" x2="141.83839" y2="769.08771"/>
    <linearGradient xlink:href="#linearGradient126" id="linearGradient3014" gradientUnits="userSpaceOnUse" gradientTransform="matrix(2.2719 0 0 -2.2719 20.24156 2098.0078)" spreadMethod="pad" x1="122.13086" y1="753.85547" x2="131.51073" y2="754.51135"/>
    <linearGradient xlink:href="#linearGradient138" id="linearGradient3016" gradientUnits="userSpaceOnUse" gradientTransform="matrix(2.2719 0 0 -2.2719 20.24156 2098.0078)" spreadMethod="pad" x1="114.84863" y1="769.1875" x2="119.13092" y2="759.099"/>
  </defs>
  <g id="g12" transform="matrix(1.25 0 0 -1.25 -99.132688 774.00054)">
    <g id="g2964" transform="matrix(.97795 0 0 .97795 1.7489442 3.0744652)" fill-opacity="1" fill-rule="nonzero" stroke="none">
      <path id="path14" d="M144.23584 455.99512c-3.48584-2.07032-5.31299-5.46778-4.06934-7.56543 1.24512-2.09571 5.10401-2.11621 8.58985-.0478 3.48535 2.07031 5.31299 5.46679 4.06836 7.56445-1.24414 2.09668-5.10303 2.11914-8.58887.0488z" fill="#573f2f"/>
      <path id="path16" d="M448.75488 455.99512c3.48633-2.07032 5.31446-5.46778 4.07032-7.56543-1.24512-2.09571-5.1045-2.11621-8.58985-.0478-3.48633 2.07031-5.31445 5.46679-4.06836 7.56445 1.24414 2.09668 5.10254 2.11914 8.58789.0488z" fill="#573f2f"/>
      <path id="path18" d="M266.73291 629.25977s-1.06689-.42872-.74658-2.13379c.31933-1.70801-2.55957-.42578-2.55957.10547 0 .5332-.85401-.63965-.53418-.95997.31982-.32031 1.28027-.74609 1.70654-1.49316.42725-.74609-.10644-2.13379-.53271-1.70605-.42676.42578-1.81348.53125-1.6001.10546.21289-.42675 1.28076-.53418 2.1333-2.02734.854-1.49121-.10645-1.59961-.10645-1.59961s-1.27978.42774-1.27978-.21387c0-.64062.21435-1.27929.95996-1.70605.74707-.42773 2.34766-1.70801 3.20068-1.70801.85401 0 .53369-1.17187.53369-1.17187s-1.60009.74609-1.92041-.32032c-.32031-1.0664.74659-1.92089.74659-1.92089s2.66699-1.9209 3.7334-2.13379c1.06689-.21192 1.70751-1.59961 1.06689-1.70606-.64063-.10547-2.56055-.21387-3.20068-.10547-.64014.10547-1.38672-1.17382-.7461-1.708.64063-.53321 2.66651-1.28028 4.48047-1.70801 1.8125-.42481 1.49317-1.17188 1.06641-1.38574-.42676-.21387-3.2002-.53418-3.84082 0-.64063.53418-2.23975-.63965-.74561-1.49415 1.49365-.85351 4.26709-.42578 4.05274-2.13281-.21289-1.70605-1.59913-1.06543-2.23975-1.17383-.64014-.10546-1.49365-1.06543-.31934-1.70605 1.17286-.63965 3.41358-1.91992 4.58545-1.91992 1.17432 0 1.49366-1.81348.85401-1.81348-.63965 0-3.09326.21192-3.20069.42676-.10595.21289-2.23925 0-.10595-1.60059 2.1333-1.49316.85302-.95996 2.87988-1.70703 2.02685-.74609 0-1.9209-.31982-1.81347-.31983.10742-1.81348-1.06641-.42676-1.49219 1.38672-.42871 2.45361-1.06739 2.02734-1.49414-.42822-.42774-1.70801-1.59864-.21435-1.91895 1.49414-.32129 3.73339-.64258 2.88085-1.81445-.854-1.17383.31983-.5332 1.8125-1.06641 1.49366-.53515.10645-1.70703-.42626-1.60058-.53418.10547-3.94727 1.81347-4.26758.85351-.31934-.95996.21435-1.28125.21435-1.28125s2.4541-.42676 3.51905-1.28027c1.06689-.85156 1.28076-1.59863 0-1.59863-1.2793 0-1.81299 1.27929-2.55909.5332-.74658-.74805.85254-1.91992.31983-3.41309-.53418-1.49414-1.49414-.53418-1.49414 1.49317 0 2.02539-1.70606 3.62597-1.70606 3.62597s-.64013-1.59961-.64013.96192c0 2.55859-1.49414 1.28027-1.49414.42578 0-.85352.95996-2.34766.21386-2.66699-.74756-.32032-2.77344 2.98632-2.77344 4.16113 0 1.17383-1.70751 1.38574-1.70751 0 0-1.3877.85351-4.48145 1.92089-6.29492 1.06739-1.81348 2.98633-4.16016 2.02637-4.69336-.95947-.5332-1.81348-.64063-1.81348.32031 0 .95996-3.62597 9.49316-5.43994 11.62695-1.81445 2.13379-1.91992 2.02832-1.91992.64063 0-1.38574 3.30615-5.22754 2.55908-7.4668-.74707-2.24219-1.49365 0-1.59912 0-.10693 0-1.70801 6.40039-4.90771 10.55957-3.2002 4.15918-3.2002 1.3877-2.34619.32031.85253-1.06542 4.16015-5.22656 3.73339-7.89453-.42724-2.66601-1.27978-1.49121-1.49365-.21191-.21338 1.2793-3.20068 9.38574-7.03955 12.58789-3.84131 3.19922-3.20215.10547-2.34766-.42871.85352-.5332 4.90674-4.69238 5.01417-8.42676.10595-3.7334-1.17432-1.2793-1.49415-.53418-.31933.74805-1.81347 7.04199-6.29394 10.77442-4.47998 3.73339-2.1333-.95899-2.1333-.31934 0 .64062 4.69287-4.37305 4.69287-7.57227 0-3.20117-1.38574-2.02832-1.49268-1.38769-.10693.63965-2.02636 6.29199-5.54687 8.64062-3.52051 2.34668-3.30664 2.98731-4.5874 2.5586-1.2793-.42578-2.02637-.10547-2.45313.64258-.42676.74511-4.05322 2.02539-2.6665-.64258 1.38672-2.66602-2.13428.53418-2.24073.64258-.10595.10546-4.48095 2.13086-2.98681 0 1.49219-2.13575 7.04053-3.20215 7.04053-5.86914 0-2.66602.96044-2.98633-.96045-1.70606-1.92041 1.28027-2.98682 5.33301-7.4668 6.7207-4.48047 1.38672 0-2.4541-.10742-1.92187-.10547.53418 3.73486-2.24024 1.70752-2.77344-2.02686-.53223-2.34668 1.3877-2.98682 2.34766-.64014.95996-3.20068 3.20215-3.84033 2.23926-.64014-.95997.74707-1.38575-.21289-1.38575-.96094 0-3.62744.96094-3.52002-.85351.10547-1.81446-.85401-.7461-1.49414-.7461-.64014 0-1.70654-.32031-1.59961-.96191.10547-.64063-2.02686 0-2.02686-.74609 0-.74512 1.06641-1.06543 1.70752-1.17383.64014-.10547 1.17237-.53223 0-1.59961-1.1748-1.06543-.74756-2.98731.64014-2.45313 1.38525.53321 2.55908 1.3877 3.83935 1.3877 1.28028 0 1.59961.31933.96045-.64063-.64013-.95996-1.3872-2.13379 0-2.13379 1.38672 0 5.22705 3.30567 6.08057 2.0254.85254-1.2793.85254-1.59864-.21435-2.45313-1.06592-.85156-.10547-1.81348 1.60009-1.59961 1.70655.21387 4.37403 1.91895 5.86768 1.06738 1.49316-.85351.42627-1.06738-.31983-1.49414-.74804-.42773-1.70752-1.60058-.42675-1.60058 1.27881 0 2.34619.42773 4.58642.31933 2.23975-.10547 1.28028 1.28125 2.4541.21387 1.17286-1.06543 1.91993-1.06543.42627-1.70605-1.49414-.64063-2.02685-2.24122-.21289-2.13282 1.81299.10547 3.73291 1.49121 6.08057 1.17188 2.34619-.32031 2.45264-.53223 1.49219-1.49219-.95948-.95996-2.45362-.85352-2.45362-1.92187 0-1.06641 1.60059-1.06641 2.24073-.85157.64062.21094 2.45263 1.06543 3.30664 1.06543.85351 0 1.70654-.10644.95996-.95996-.7461-.85351-1.28028-.42676-1.81397-1.28027-.53271-.85352-.53271-1.17383 1.06787-1.28028 1.6001-.10742 4.15967.2129 4.58643 0 .42627-.21289 2.56055-.21289 1.49365-.63867-1.06738-.42871-3.52051-1.70898-2.13379-2.02832 1.38672-.31933 2.88037-.63965 4.58692-.42578 1.70654.21192 3.30615-.85351 2.34619-1.17383-.95947-.32129-2.13281-1.28027.10693-1.28027 2.24121 0 3.62647 0 3.62647-.85352 0-.85351-1.38623-.31933-2.02686-1.708-.63965-1.38575 4.37402-5.65332 6.82715-9.49512 2.45312-3.83887 2.24023-.95899 1.38672-2.45313-.85303-1.49121-2.56006-.95898-3.09375.32227-.53272 1.28027-1.70606 3.51953-4.90723 6.6123-3.19971 3.09375-2.98681 3.41407-3.4126 3.41407-.42773 0-1.28125-.85352.10547-2.4541 1.38672-1.59961 4.79981-3.94727 5.44043-6.72071.64014-2.77344-2.02685-1.38574-2.13379-.74609-.10595.64062-1.81298 4.80176-5.86572 8.42773-4.05469 3.62696-7.68213 3.7334-6.18848 2.02735 1.49366-1.70899 6.82764-4.48243 7.46778-8.00098.64013-3.52148-2.02783-1.49414-2.1333-.85352-.10694.63965-2.34668 5.01465-6.18799 7.67969-3.83936 2.66797-6.29297 2.34863-5.22656.53516 1.06689-1.81348-.64014-1.17481-.95948-.85352-.31933.31836-3.09423 2.23926-3.84033 1.81348-.74658-.42676-1.2793-.53418-.64014-1.70801.64014-1.17187-1.06787-.42676-2.56054.10742-1.49365.53125-3.30762 1.17383-3.30762-.21386 0-1.38575-2.45361.42675-3.09277.53418-.64014.10546-5.54737 1.27929-5.54737.31933s2.02686-2.23926 0-2.34765c-2.02636-.10547-4.26611-.42579-3.20019-1.59961 1.06641-1.17383 3.94726.42675 7.04053-3.73243 3.09423-4.16211-1.17286-1.60058-1.2793-1.60058-.10742 0-1.59961 2.24023-3.62744 3.09375-2.02686.85351-4.16065 1.91992-6.29395 2.13379-2.1333.21093-3.94629-.95996-2.02636-1.81348 1.92089-.85449 5.97363-1.06836 8.10742-3.62793 2.13379-2.55957-2.66699-.74805-3.09375.10645-.42676.85351-5.76074 1.81347-5.76074 1.81347s-8.10645.10742-2.45264-1.91992c5.65332-2.02832 8.53369-4.05371 3.30664-2.55957-5.22705 1.49121-13.44238 1.2793-9.70801-.31934 3.7334-1.60156-1.49365-.64257-2.34619-.74804-.85352-.10547-3.30762-.85352-1.6001-3.09375 1.70606-2.23926-2.34668-.42578-.21338-1.28028 2.13379-.85351-2.77343-1.81347.74561-2.02636 3.52197-.21289-5.22608-2.02637-3.0918-2.24024 2.13281-.21386-3.62793-3.94726.63965-2.9873 4.2666.95898.42725-.31934 2.02686-1.17188 1.59912-.85351 1.70654 2.13086 2.34619 2.23926.64111.10645 2.45361 3.41309 2.45361.95996 0-2.4541-1.06641-3.94726 2.13379-.5332 3.20019 3.41308 2.45312 1.06738 2.23926-.10645-.21338-1.17382 0-2.45312 1.17431-1.70703 1.17383.74707.5337-2.66601 1.81348-.96094 1.27979 1.70801 1.06641 3.94727 2.56055 4.90723 1.49365.95996 2.98633 2.02832 2.02636-.42578-.96093-2.45312-.53271-4.80078 1.81348-1.3877 2.3457 3.41407 3.30664 4.16211 2.77344 2.13379-.53369-2.02539-.21387-3.83886 1.49267-1.38574 1.70704 2.45313 3.20069 3.09278 2.24073.95996-.95996-2.13379.64062-1.06738 1.59961-.64062.96142.42676 1.49414.53222 1.17431-.85352-.32129-1.38672 2.66602 3.41309 3.52002 4.37305.85303.95996 3.7334 3.7334 1.28028-1.2793-2.45362-5.01367 1.81201-1.0664 1.81201-1.0664s6.93506 6.71972 4.37402 2.02636c-2.56055-4.69433-1.27978-5.12207.74707-3.62695 2.02637 1.49316 4.58692 6.40039 3.09375 2.45312-1.49316-3.94824-.96045-4.79882 1.49317-2.24023 2.45361 2.56055 7.68066 8.85547 5.75976 3.20117-1.92041-5.65429 2.13379-1.17285 2.77393-.42773.63964.74804 3.94726 2.4541 1.38672-.85352-2.55909-3.30469 2.13378-1.27929 3.09423-.53125.95996.7461 4.37256 3.83887 1.91993-.21386-2.45362-4.05372-.85352-2.66797 1.81298-1.28028 2.66748 1.38672 2.98731 0 1.70703-1.70801-1.27929-1.70507-2.45361.42871-1.27929-2.55859 1.17334-2.98828-1.6001-1.38867-2.7749-1.60059-1.17286-.21289 1.06689-1.38671-1.59913-1.91894-2.66796-.53418-10.56103-.74805-6.07959-2.88086 4.47999-2.13379-1.17382-.42676-1.81396-1.06641-.63965-.63965-3.62695-1.06738-1.9209-1.81347 1.70703-.74805-1.91943-1.2793-2.66601-1.17383-.74707.10547-9.06739-1.49414-4.58741-2.02832 4.47998-.5332 13.54737 1.81445 14.1875-.5332.64161-2.34571-4.37256-.85254-5.76025-.85254-1.38672 0-19.94824-1.17286-12.05469-2.02637 7.89453-.85156 8.74756.10742 9.60156-.64063.85254-.74511-4.05371-1.06543-5.54736-1.06543-1.49365 0-12.16015-1.49414-7.7876-1.91992 4.37403-.42773 3.94776-.85351 1.0669-1.49316-2.87988-.64063-7.78662-2.34863-2.23975-2.56153 5.54688-.21289 12.58789-.42675 5.86719-1.60058-6.72119-1.17285-6.93457.53418-10.7749-.74512-3.83936-1.28222-5.86768-2.13379 5.76074-2.24219 11.62744-.10546 1.59961-.85156 1.91943-1.27929.31983-.42676-8.63965-.10547-13.01367-1.81348-4.37305-1.70605-2.23974-2.45508-3.52051-3.51953-1.27929-1.06738-4.2666-3.52148 2.45362-2.4541 6.72119 1.06543-2.55957-2.34668-3.41358-2.34668-.854 0-9.92138-7.25293 1.59961-2.24024 11.52197 5.01368 4.26709.95996 3.52051-.53418-.74561-1.49218-9.92041-3.94531-9.92041-3.94531s-.854-2.13379 1.8125-1.49316c2.66797.63965 4.69434 3.7334 6.08105 2.3457 1.38672-1.38672-2.66699-2.13379-5.86718-3.62793-3.2002-1.49121-7.89356-5.97266 1.3872-2.13183 9.28028 3.83984 1.49366-.96192.74659-1.3877-.74659-.42578-5.54688-1.49316-7.25342-4.58691-1.70801-3.09375-.95996-5.54688 1.27978-4.05274 2.24024 1.49317 2.45362 1.17383 1.38672-.74609-1.0664-1.92188-1.59961-5.33496-.85254-6.08106.7461-.74804 1.8125-1.81347 2.23926 1.91992.42725 3.7334 1.70703 3.09278 1.70703 1.3877 0-1.70801 1.17383-.6416 1.49365 1.81152.32032 2.45606 1.91993 2.02735 1.91993.74805 0-1.28027.854-2.34766 1.49365 2.02832.64013 4.37207 1.38672 4.58399 1.60107 2.66406.2124-1.91894 1.49219-5.54687 2.02539.32032.53369 5.86718 1.3877 5.54687 1.70752 3.30761.32032-2.24023 1.38721-3.62793 2.1333 1.59961.74805 5.22656.53369 9.38867 1.6001 4.37305 1.0669-5.01367 2.13379.96191 2.13379 3.09277 0 2.13379 1.49365 4.69336 1.49365 1.70801 0-2.9873 1.59961-5.97461 3.30664-.42578 1.70655 5.54492 1.81348 7.46582 1.81348 3.62598 0-3.83985 1.81348-1.28028 2.02637.10546.21289 1.38672 2.24121 12.16114 3.20068 4.80079.95996-7.36133 2.1333-1.17383 2.02686.53418-.10743 1.708 1.91943 9.38574 2.02636 1.708.10645-7.68261 2.56006 1.06543 2.45362 1.49121-.10694.42872.95947 8.53516 2.02636 1.92188 1.0669-6.61426 2.13379.42578 2.02686 1.17187-.10596.74805 2.56006 9.49512 2.02783 1.91993-.53369-7.57325 1.70557-1.81153 1.70557-.85157s1.70752 7.57422 1.81299 2.45411c.10742-5.12208 1.81396 2.23828 1.81396 1.91992 0-.32032.64014.10547 1.0669 2.66797.42675 2.55859 1.38671.63867 1.38671-.53516s-1.70654-4.37207 1.0669-2.87988c2.77344 1.49218 1.06689-.31934 1.17383-1.49317.10547-1.17383 5.01318 2.98535 7.68115 3.62696 2.66601.63964 4.26562-.53321.63965-1.49317-3.62696-.96094-9.70801-4.90722-10.56104-6.29492-.85254-1.38574-1.49267-3.73438.21338-2.98633 1.70752.74707 1.06738-.63965.31934-1.17285-.7461-.53516-3.30616-5.22754.53418-2.56152 3.84033 2.66699.95947 2.24121 6.40039 4.16113 5.44092 1.91894 1.28076-1.06543-.42676-1.81348-1.70654-.74609-8.00049-3.30761-10.56104-6.40136-2.56005-3.09375.21436-2.77344.5337-2.55957.31982.21386 2.98681 3.51953 6.71972 5.01269 3.73438 1.49414 3.8418 1.60059 3.30762-.10547-.53369-1.70801-3.41357-1.17383-5.3335-2.66797-1.92041-1.49316-5.22754-3.41308-6.82666-6.39941-1.60107-2.98633-1.70703-2.56055.31983-2.66699 2.02636-.10742 5.54638 6.61328 8.74756 7.04101 3.19921.42578.85205-1.91992.42578-1.91992-.42578 0-2.02686-.1084-4.05371-1.70801-2.02588-1.59961-4.4795-2.8789-5.43946-5.12011-.96093-2.24024-1.06689-.64063 1.70655-.64063 2.77343 0 1.8125 3.62695 5.22705 4.16113 3.41406.53418 2.23974-2.02734 1.27978-2.24218-.95947-.21094-6.61377-2.02539-9.28027-6.292-2.66748-4.26757 1.70654-2.02636 1.70654-2.02636s1.92041 3.20019 5.54736 4.69433c3.62647 1.49121 1.17383-1.1748 1.49317-1.28222.32031-.10645-6.29346-2.02539-9.60108-6.9336-3.30566-4.90625 1.28077-2.8789 1.60059-2.02636.32031.85351 2.77344 4.58691 5.75977 5.33496 2.98779.74511 1.28125-1.81348.5332-2.5625-.74561-.7461-6.08008-1.59961-8.42627-6.40039-2.34668-4.79981 1.70654-1.49122 1.70654-1.49122s1.49366 4.15918 5.33399 4.69239c3.83984.53418 2.55908 0 .31933-1.91992-2.24072-1.92188-6.08105-4.05274-6.1875-6.4004-.10595-2.34765-.53271-3.84179 1.60059-1.70605 2.1333 2.13184 4.90723 4.47949 4.90723 4.47949s2.98632-.21484 0-1.38672c-2.9878-1.17382-6.7212-4.80078-6.7212-5.97461 0-1.17382-1.38671-4.48144 1.9209-.95996 3.30664 3.51953 1.49268.64063.7461-.85351-.7461-1.49414-2.02588-6.72071 1.17382-2.4541 3.20069 4.26757.42725 4.05371 2.13379 2.66796 1.70703-1.38769 1.17286-1.28027.63965-2.02734-.53222-.74609-.63965-.32031-2.45361-3.09375-1.81348-2.77344-4.05274-4.47949-1.81348-4.7998 2.24121-.31836 1.17481-2.98633 1.28076-4.16114.10596-1.17285 1.17334-1.91894 2.23975-.95898 1.06641.95898.854-2.66797.854-3.7334 0-1.06836 1.49366-.64062 1.49366-.10644 0 .53222-.21436 4.26562.95947 2.77246 1.17334-1.49219 2.23975-1.06739 1.92041.21289-.32031 1.28027-2.77344 6.93554-.42725 4.80175 2.34717-2.13378.42725 2.66797.21387 3.30665-.21387.64062-.21387 4.05371 1.2793.42675 1.49414-3.62695 1.49414 2.23926 1.1748 2.98731-.32031.74609.31934 3.09277 1.06592.53222.74756-2.55957.42773.63965-.2124 4.16114-.64112 3.51953-1.70801 7.25488.2124 5.54687 1.92041-1.70801 3.83984-2.23926 2.4541.53418-1.38721 2.77344-3.94726 9.81348-1.60058 7.36035 2.34668-2.45605 2.13378-2.45605 1.92089-.21386-.21435 2.23925-.31982 3.19922 1.27979 1.59863 1.59961-1.59863 1.81348 2.02832.85351 2.88184-.96044.85253-2.56005 5.11914-1.06787 4.05371 1.49414-1.06836.96094.85156.74854 1.70507-.21436.85352 1.06543.7461 1.70557.10645.64111-.64063.10644 3.09277-.53272 3.52051-.64014.42578-2.13379 5.65429-.31982 3.94824 1.81347-1.70801 1.60009-.85449 2.1333.5332.53271 1.38574 1.0664.85157.53271-.96191-.53271-1.81348-1.81347-4.69238.21387-3.94727 2.02685.74805.31982-1.17187.10596-2.24023-.21289-1.06543-.64063-3.73242 1.28076-2.34473 1.91943 1.38574.53271-1.81445.31982-2.56152-.21435-.7461-1.81347-7.04102 1.2793-2.34473 3.09375 4.69336 2.24121 3.94629 1.17432 1.17285-1.06641-2.77441-2.45362-6.18945-2.02735-7.14843.42676-.95996 2.24024 1.28027 4.48096 6.8291 2.23974 5.5459 5.22607 7.03906 4.2666 5.11914-.96045-1.91992-3.62646-6.61328-4.80029-9.81445-1.17383-3.19922-3.52051-10.98633-.95996-8.7461 2.56054 2.23926.74707-1.1748.53418-2.02832-.21436-.85351-1.06788-4.2666.10498-2.66504 1.17431 1.59863 1.17431-1.28222 1.06738-3.0957-.10693-1.81152.64014-2.23926.21289-4.90527-.42627-2.66797 1.38721-2.34766 1.81348-1.49317.42675.85352.31982-1.81445.53369-2.5625.21338-.74512.42724-2.34473 1.59961-1.49121 1.17383.85156 1.17383-1.17383 1.17383-2.13574 0-.95996 1.49316 3.41601 1.17285-.21192-.31983-3.62695 2.02685-6.08105 2.13379-4.37304.10644 1.70605 1.81347.32031 2.34619-2.13379.53369-2.45313 2.34765-3.09278 2.34765-1.49317 0 1.59961-1.81396 6.50586.10596 4.37305 1.9209-2.13379 1.38672.42774 1.17383 1.2793-.21338.85351-3.73291 4.05273-1.81348 3.30762 1.92041-.74805 2.66748.32031 1.92041 1.28027-.74707.95996-3.52051 3.62695-1.6001 3.7334 1.92041.10742 2.13379 1.28125.63916 3.20117-1.49218 1.91992.85401 1.59863 2.02832.74512 1.17237-.85254.74708 1.81347-.53369 3.20019-1.28027 1.3877-2.98681 4.90723-.74707 4.05567 2.24024-.85352 1.60108.74511 1.28076 1.49316-.32031.74609-5.22753 5.65332-1.60009 3.83887 3.62646-1.81348 2.66748-1.06543 1.92138 1.06836-.74755 2.13183-5.12207 6.82714-2.2417 6.18652 2.87989-.64063 2.2417 1.28027 1.27979 2.4541-.95947 1.17188-2.6665 3.625-.10596 3.09277 2.56006-.5332-.95947 1.9209-.85351 2.34571.10644.42773-2.02637 2.77344.10644 2.66797 2.13379-.10743 1.6001.53418.74707 2.23925-.85351 1.70801-1.60009 3.09375.85303 1.70801 2.45508-1.38769 1.28125 1.70606.85303 2.77344-.42676 1.06543-3.62696 3.83887-.95948 3.51953 2.66749-.32031.74708 1.49316.64014 2.13379-.10644.64062 3.09278 0 1.92139 2.02734-1.17383 2.02539-5.22901 5.65332-2.7749 5.22754 2.4541-.42871.21435 2.66504-.10596 3.7334-.32129 1.06543-1.70801 3.625.10596 2.87988 1.81347-.74609 2.56054-4.05371 3.94726-4.26757 1.38672-.21192 3.09375.42871 2.45313-.53223-.63965-.95996.64062-.85254 2.13379.74609 1.49218 1.59961 2.66699 4.4795 2.8789 2.98828.21485-1.49414-.85156-3.20214-1.49219-4.05371-.64062-.85351-4.37402-5.01465-4.37402-6.7207 0-1.70801-.10644-2.34766 2.34766.74609 2.45312 3.09278 5.22656 4.37207 3.62695 1.17383-1.60059-3.20215-4.48047-9.81445-.95996-5.54687 3.51953 4.2666 4.58691 3.30468 1.59863-.95996-2.98633-4.26758-2.77246-6.50684-.10547-3.41407 2.667 3.09278 6.29297 7.89356 3.09375 1.06641-3.20117-6.82715-6.08105-8.96094-2.56054-6.93262 3.5205 2.02442 3.30566 2.23828 2.3457.21094-.95996-2.02539-3.62598-3.83887-3.62598-4.37305 0-.53222-.63965-3.94726 2.55957-.53222 3.20118 3.41211 3.09375 1.17285 2.02637-.53321-1.06543-1.708-9.17383-11.20214-2.13281-6.50879 7.04004 4.69532 1.2793-.21289 1.2793-.85156 0-.64062-4.26661-7.78613.5332-2.88183 4.80078 4.90722 1.70703-1.17188.85351-1.38575-.85351-.21386-7.25293-9.1748-2.87988-6.7207 4.37402 2.45313 5.44043 5.01367 4.58692 2.34766-.85352-2.66797-3.7334-4.37598-4.26661-5.1211-.5332-.74609-3.73339-6.50781-.32031-4.15918 3.41406 2.34571 5.33399 5.54688 4.26758 2.77051-1.06738-2.77051-4.26758-6.0791-1.81348-5.65332 2.45313.42871.21192-1.49316-.32031-2.66504-.53223-1.17383-.85254-3.20215.64063-2.56152 1.49414.64062 1.06738-1.59961 1.06738-2.55957 0-.95996 1.70605-1.59863 2.13281.21191.42676 1.81348-.5332 1.70801 1.60059 1.3877 2.13281-.31934-.32129 1.49414-.10645 2.87988.21289 1.3877 2.13184.53418 2.87988-.10547.7461-.64062 2.13282-2.13379 2.98633-.74609.85254 1.38574-1.9209 6.1875-3.51953 8.00097-1.60059 1.81055-1.49414 5.54688-.21484 4.05274 1.28125-1.49414 3.30761-5.33301 3.52148-6.29492.21289-.95996 1.59863 0 .95996 2.34765-.63965 2.34766-1.59961 4.90723-2.9873 6.18653-1.38672 1.28027-2.66602 4.58691-.95996 3.41406 1.70703-1.17481 4.26757-7.78711 4.26757-7.78711s2.667-4.37305 2.13184.64062c-.53223 5.0127-5.12012 8.8545-5.65234 9.59961-.53321.74805-2.13379 3.30762-.53321 3.2002 1.59864-.10645 4.90625-7.03906 4.90625-7.03906s1.9209-.63965.31934 3.7334c-1.59863 4.37304-4.90527 5.65332-5.33203 6.40136-.42676.7461-1.28125 5.11817.74609 2.66602 2.02735-2.4541 4.37403-5.54688 4.80078-7.89356.42578-2.34765 1.81348.42676 1.06641 1.91993-.74609 1.49414-2.34668 6.29296-5.33398 8.85449-2.98633 2.55957-1.70606 3.7334-.2129 2.13281 1.49317-1.60156 6.9336-11.41504 6.61426-6.50781-.32031 4.90625-5.4414 8.85351-6.40136 9.92187-.95997 1.06543-1.17286 3.7334.53418 1.70508 1.70605-2.02734 5.86718-7.68066 4.69335-3.41309-1.1748 4.26661-6.40039 7.36036-6.40039 7.36036s-1.81347 2.87988.32032 1.91992c2.13281-.95996 10.56054-13.01367 7.99902-5.65332-2.55859 7.36035-3.30566 3.7334-3.73242 5.33301-.42774 1.60156 2.24023 1.06738 2.24023 1.06738s-1.49316 2.13379-3.30761 3.30566c-1.8125 1.17383-1.38672 2.02735-.10645 1.49317 1.28027-.53321 2.88086-.10547.95996 2.02832-1.91992 2.13281-3.62695 5.97265-.85351 3.09375 2.77441-2.88184 5.01464-2.88184 3.30761.10547-1.70703 2.9873-4.16015 3.84082-3.09375 5.4414 1.06641 1.59863-1.49316 4.2666.74707 3.09278 2.24024-1.17383 1.28028-4.37305 2.77344-3.41407 1.49316.95996 1.3877 6.72168 2.34668.42676.95996-6.29297 2.55957-7.57324 2.55957-4.05371 0 3.52148 2.24023-.21387 2.24023-4.05273 0-3.84082 1.60059-6.29395 2.02735-2.98731.42676 3.30664 1.60058 4.58691 1.49316 0-.10644-4.58789 2.98731-4.47949 2.88086-.53418-.10742 3.94727 2.34668-.64062 1.49317-5.22558-.85352-4.58692-.74805-11.52149 1.91992-3.73536 2.66699 7.78907 2.13281 3.20215 2.56054.53418.42676-2.66797.53321-6.29297 2.34668-2.77343 1.81348 3.52148.95997-3.41407.85254-5.33301-.10547-1.91992 2.24121-2.45313 2.24121-.10547 0 2.34473 2.34571-.85449 1.59864-4.05566-.74512-3.19922 0-3.62696 1.38769-3.83887 1.38574-.21485 2.45313-5.33301 2.55957-2.98828.10645 2.34765.95996.96093 2.13184-.42578 1.1748-1.38672 2.45508.63964 2.5625-1.59864.10547-2.24218 1.59961-.1084 1.2793 3.625-.32032 3.7334 1.81347-.21386 2.77246-.85449.96093-.63965 2.88183-.53125-.42578 6.08203-3.30567 6.61426.95996.85352 1.81347 1.38672.85449.53418-1.17383 3.2002-1.91992 4.37402-.74707 1.17286-.85352 2.87891.96094 3.19922 1.81347.31934.74609 1.17383-2.13477 3.09278-2.87988 1.92285-1.70605 1.708.21387 1.81347 1.9209.1084-.5332 1.70801-2.34668 2.98828-1.81348 1.2793-4.26758 3.51954-1.49414 4.05274 2.77344.53418 1.81348 1.91992-2.02637 2.9873-3.84082 1.06641-6.82715 1.81348-3.41406 2.77442 3.41406.95996 4.05371.85254 2.02734 1.49316-2.02734.63965-3.94726-.1084-3.7334 2.02539.21289 2.13379 1.49414 2.4541-.85351 3.30762-2.34668.85351-1.28027 0-4.48047.42578-3.2002.42773 2.02637.74805 2.66699 2.4541.63965 1.70801-1.49316 1.06738-2.45312 1.17285-.96094.1084-3.62793 1.06836-1.60059 1.91993 2.02637.85351-2.13281 2.66796-3.62695 2.66796-1.49317 0-3.51953.85352-.95996 2.24219 2.55957 1.38574-1.38672 2.02539-2.87989 2.02539-1.49414 0-3.84082.74512-1.49414 1.59961 2.34668.85352-1.81347 1.70801-2.66601 1.59961-.85449-.10547-5.01465.31934-1.3877 1.3877 3.62696 1.06543-1.70703 2.02539-3.09375 1.81347-1.38672-.21484-2.55957 2.34571-2.55957 2.34571s-1.8125 5.86621-.10547 4.05468c1.70606-1.81347 7.4668-7.46875 5.75977-4.05468-1.70703 3.41503-2.77344 5.97461-.64063 4.05468 2.13379-1.92187 4.69434-9.38867 4.69434-5.01465 0 4.375-2.98633 6.93458.31934 3.94727 3.30761-2.9873 3.30761-8.96094 4.48144-5.01269 1.17285 3.94628-.21484 5.12011 2.02539 2.02539 2.24121-3.09375 1.3877-.95997 1.70801.6416.31934 1.59863.95996.42578 1.38672-1.60157.42676-2.02539 3.09375-5.11914 2.56055-.10546-.53418 5.01269 1.17285 1.81347 1.91992 0 .74609-1.81446 1.91992-5.33594 2.66601-1.60059.74707 3.7334 2.56055-.85352 2.88086-2.66797.32031-1.81348 2.66699-4.05273 2.13379.10645-.53515 4.16211 2.24024-.42578 2.24024-2.23926 0-1.81348 2.77343-3.2002 2.02636 1.17285-.74707 4.37402 1.70703 2.98828 2.667-.95898.95996-3.94825 2.77343-6.08106 2.77343-1.81446 0 4.26856 1.81348.95996 2.66602-1.70508.85449-2.66796 3.62793-8.85644 3.30762-1.81347-.32032 7.03906.21386 3.625 1.49316.85156 1.28027-2.77344 2.9873-6.6123 2.9873-2.02539 0 4.58691 1.91993.74609 2.24024-1.60156.32031-2.34571 1.49316-7.03809 2.02637-2.34571.5332 4.69336 1.38671.8545 2.02734-.74804.63965-1.59864 3.62695-1.91895 3.62695-.53125 0 1.38574-.42773 2.13379 1.49317 1.70605 1.91992-.42676.85254 3.30664.21386 2.77344-.6416-.53223-.74707 2.24121 1.38477 1.81348 2.13379-.42676-.10547 2.9873-.95898 2.9873-.85254 0 0 1.28027-2.34668 1.91992s-1.28028 1.81348-1.06543 2.45313c.21191.64062.32031 1.1748-1.49414 1.60058-1.81348.42774-.63965 1.49317-.42676 2.24121.21289.74512-.32129 1.38575-2.34668.74512-2.02637-.63965-5.97461.21485-2.88086 1.38867 3.09375 1.17188 2.66797 2.5586.42773 2.66504-2.24121.1084-3.62695-.10547-2.13379 1.3877 1.49317 1.49219-1.49414 2.34472-3.84082 1.91992-2.3457-.42773-8.00097-2.02734-5.11914-.42773 2.87989 1.60058 3.2002 3.5205.95996 3.20117-2.24023-.31934-8.85449-1.59961-6.18847-.42774 2.66797 1.17285 4.05468 4.05469 1.38672 3.73535-2.667-.32031-7.78711-2.13378-5.11914-.10742 2.66699 2.02637 2.87988 3.62696.21386 3.52149-2.66797-.1084-6.29394-2.45508-5.33398-1.28028.95996 1.17188-.64063 2.45313-2.4541 2.02539-1.8125-.42675-3.83985.85352-.10743 1.81348 3.73438.95996-1.27929 1.06543-5.01269.32031-3.73438-.74609-7.4668-.95996-3.30664.95996 4.15918 1.91895-.63965 2.23926-2.98731 1.2793-2.34668-.95996-6.40136-2.66601-3.83984-.42578 2.56055 2.23926-2.34668.85352-3.7334.21387-1.38672-.63965-4.90722-.31934-2.77344.85156 2.13282 1.17383-1.28125 1.9209-2.13378.63965-.8545-1.2793-3.2002.64258-1.49317 1.49414 1.70606.85449-1.81445.10742-3.62793-1.06641-1.81152-1.17285-4.7998-1.59863-4.05273-.42773.74707 1.17383-2.88086-.21192-4.4795-1.49121-1.5996-1.28223-4.48144 2.23926-2.88085 2.66504 1.60058.42871.64062 1.81445-1.06641 2.4541-1.70703.64062.42578 1.70801 2.77344-.63965 2.34765-2.3457 1.06738 2.24121.53418 2.66699-.53418.42676-3.30762 2.77344.5332 2.13379 3.83887-.64062 4.69336-1.17383 3.41309.85449-1.2793 2.02539-1.60059 2.5586 1.49414 1.38477 3.09179-1.17383 5.65332-.21387 4.16015 1.2793-1.49414 1.49511-.5332 2.13378 1.38574 1.1748 1.92188-.95996 2.66895-1.06543 1.70899.74512-.96289 1.81347-.32031 2.66797 2.02539-.10547 2.34668-2.77344 5.54687-1.2793 3.41406.64062-2.13379 1.91993-1.27929 2.66797.85254 1.06739 2.13379-1.60157 3.7334-.74805 2.02734 1.06543-1.70703 1.81347-.85253 3.52148 1.9209 1.06836 2.77344-2.45411 4.16016-1.06836 2.23926.53125-1.91992 1.60253.21387 2.77343 2.4541-.7461 2.24024-3.52148 3.51953-1.70801 2.77344-.10547-.74707 1.59961-.10645 2.87989 1.60059-.10742 1.70703-2.9873 3.625-.5332 2.66601.63965-.95898 1.1748.85449 2.56152 2.56055-.53125 1.70703-3.0957 3.94726-2.13379 2.56055.10547-1.3877 2.23926.74609 2.77344 2.13281 0 1.38769-2.77344 4.26758-2.98731 3.52148-.95996-.74804 2.02636 1.49317 1.28027 1.91992.42578.42676-.85352 3.94532-1.59863 2.45215.63965-1.49218 2.24316 1.3877 1.28027 2.34766-.74512.95996-2.02832 3.09375-2.45313 2.56055-.74805-.53321 1.70801 1.59961-.53125 2.45312-1.81347.85352-1.28028 2.98731-1.06543 2.66699 0-.32031 1.06836 2.87891-1.17188 2.02637 2.77343-.85352 3.94727-1.59961 2.98829-1.06641 3.94727.53321.96191-.95996.96191-1.49316 1.1748-.5332.21289-1.81348 1.17383-.74805 1.70704 1.06836.53125-1.06543 2.23925-2.8789 1.5996-1.81446-.63964-7.04102-.5332-2.56055 1.28028 4.47949 1.81347 1.06738 2.23828.21387 2.23828-.85352 0 2.98633 2.77441-3.09375 1.70801-6.08008-1.06739-3.62696.10742-1.81348.85449 1.81348.74609.74609 2.98535-6.29394-.74707-7.04004-3.73438-10.13282-3.30859-4.37403-.32031 5.76172 2.98632 9.60156 5.86718 1.17481 2.98632-8.42774-2.88085-3.7334.21485-2.45313.8545 1.27832.64062 5.43945 4.47949-2.88183.64062-8.31934-3.84179-7.99903-3.62793-4.4795-1.1748 3.52051 2.4541 3.20118 6.1875-3.51953-.21289-6.7207-6.40235-8.85449-8.10743-7.36133-5.6543 1.49317 2.4541 10.02832 10.55957 2.55957 6.7207-7.46582-3.83984-7.57226-13.4414-8.85253-7.89355-1.28125 5.54687 3.19921 4.48144 5.12011 6.40039 1.91895 1.91992-1.1748 2.34766-3.41308.10644-2.24121-2.24023-3.84082-2.45312-3.84082-7.36035 0-4.90722-2.88086-1.70605-2.24121-.74707.64062.95996.21484 6.50684 3.84082 9.60059 3.62695 3.09375-4.05274-.85352-4.26661-1.49317-.21386-.63964-3.30664-4.26855-3.09472-2.02539.21484 2.23828-.85157.42481-2.5586-.32031-1.70703-.74805-5.65429-1.17383-4.48047-.21484 1.17286.95996 3.30567 2.98828 5.6543 2.77343 2.34668-.21289 1.38477 1.81348-.85351 1.49512-2.24121-.32031-5.1211 1.2793-1.81446 1.59863 3.30762.32032 6.82715 2.02833 5.01465 2.77344-1.81348.7461-1.28125 1.17481 1.06641 1.59961 2.34668.42676 5.65234 2.34766 2.66699 2.66797-2.9873.31934-3.83984 2.13379-.42773 2.13379 3.41308 0 7.04101 1.49414 5.33496 2.34473-1.70703.85449-.64063 1.06836 1.17187.96289 1.81348-.1084 1.49414 1.38574-.63965 2.02539-2.13281.63965.63965 1.70801 3.52051 1.70801 2.88086 0 5.0127 1.38574 3.62793 1.81152-1.38769.42773-.85449 1.60156 1.38477 1.06738 2.24023-.5332 6.8291.7461 4.80175 1.17481-2.02636.42578-1.28027 2.13281.95996 2.13281 2.24024 0 4.05372.10644 3.09278 1.17383-.95899 1.0664.42773.85254 2.66797 1.0664 2.24023.21387 7.99902.53418 5.86718 1.17383-2.13378.63965-4.48144 2.24024-2.88085 2.55957 1.60058.31934-1.49415 1.81348-2.88086 2.23926-1.38672.42773-2.98536 1.28027-2.87891 1.92187.10547.64063-1.38672.64063-2.4541-.21386-1.06543-.8545-2.87988-.74805-2.77246.21386.10449.95997 0 .85157-1.49317 0-1.49414-.85351-2.98828-1.28125-2.66894-.21386.32031 1.06543-1.8125 0-2.66699-.8545-.85254-.85351-2.34571-2.8789-2.34571-1.59863 0 1.28028-2.56152 2.77344-2.66699 1.06543-.10645-1.70605-1.9209-5.86719-1.9209-4.47949 0 1.38867-.63867 4.58691-2.13379 2.55957-1.49316-2.02539-.31933-5.97266-1.70605-5.54688-1.38672.42872-.21289 2.34766-.10742 3.84083.10742 1.49511-2.13184 3.73339-3.09082-.53321-.96289-4.2666 1.59863-9.28027.10449-8.1084-1.49414 1.17383-1.81348 2.34668-1.70606 5.12012.10645 2.77441-1.81445 1.49512-2.02636-.74512-.21485-2.24121.53222-8.85449-.32032-5.4414-.85351 3.41308-.95996 10.02832-2.66699 5.65527-1.70801-4.375 1.28027-12.58789 0-10.5625-1.28125 2.02832-1.81348 2.98828-1.81348 5.33399 0 2.34667-1.81347 2.02636-2.34765 0-.53223-2.02637 0-11.73438-.42578-10.02637-.42676 1.70801 0 3.83887-.96094 5.76074-.95996 1.91992-1.70703-3.41406-1.70703-2.4541 0 .95996 1.70703-6.40137.74707-5.44141-.95899.95996-2.23926-1.81347-3.09375 2.98828-.85254 4.79883-1.17383-.21484-2.13281-1.1748-.95996-.95899-2.02637 1.28027-2.98536-3.52149-.95996-4.79882-1.81396-6.39843-2.88134-4.79882-1.06641 1.59961-2.34619-.42578-2.34619-2.23926 0-1.81348-1.92139-3.20117-2.13428-1.92188-.2124 1.28223-2.45313.63965-2.56055 2.24219-.10498 1.59863-1.38672.85156-1.91943-1.92285-.53418-2.77344-2.13379-1.49316-1.17383 2.98828.95996 4.48145 1.2793 7.78613 0 6.40039-1.27979-1.38672-1.38672 1.06543-1.27979 2.66602.10694 1.60156.10694 4.16211-.42724 3.52246-.53369-.6416-1.70654-1.49512-1.17383 2.02637.53369 3.51953-.64014 4.69335-1.59961.85253-.95996-3.83984.10693-9.49511-1.17383-10.66601-1.27978-1.17481-2.55957-1.38867-1.70703.95898.85352 2.34571 2.56104 6.9336 2.34815 12.16016-.21436 5.22754-1.70752 6.7207-1.92139 3.30762-.21338-3.41407 1.17383-9.06641-1.06641-10.77442-2.23974-1.70801-2.55957-.95996-2.02636.95996.53222 1.91993 2.45312 4.37305 1.70654 9.17481-.74609 4.80078-2.87988 7.2539-2.98682 3.83789-.10644-3.41309 1.38672-8.10547-.31982-8.7461-1.70654-.63964-1.70654.42872-.96094 2.34864.74707 1.91894 1.28076 7.78613.96094 10.55957-.3208 2.77344-2.34766 3.62695-2.56055 1.38769-.21289-2.24218-.42724 2.45118-.21289 4.26465.21289 1.81348-1.70752 5.76172-1.92041 2.77344-.21387-2.98438-1.70703-2.34473-1.70703.1084 0 2.45312.10644 8.53222-.85352 5.33203-.96045-3.19922-2.02685-3.73242-2.23974-2.13281-.21289 1.59961-.21289 5.65332-1.0669 4.69336-.854-.95997-2.23925-.85157-2.55957.53418-.3208 1.38574-.53369 1.27929-.85351-.21485-.32324-1.48926-1.92383.32227-2.13721.43067z" fill="#00a650"/>
      <path id="path20" d="M141.99707 412.42773c3.71729-13.20312 9.04346-17.91894 14.97803-25.29687-3.05078-9.54199-28.45947-29.84668-39.99854-47.875-4.88183 12.37109-9.65332 12.64844-14.92334 24.7959 13.20362 24.29883 28.79297 30.56933 39.94385 48.37597z" fill="#496e6e"/>
      <path id="path22" d="M450.99316 412.42773c-3.71679-13.20312-9.04199-17.91894-14.97753-25.29687 3.05078-9.54199 28.45898-29.84668 39.99902-47.875 4.88086 12.37109 9.65234 12.64844 14.92285 24.7959-13.20312 24.29883-28.79297 30.56933-39.94434 48.37597z" fill="#496e6e"/>
      <path id="path24" d="M123.36328 381.13477c2.77344 2.98535 7.14746 5.65332 11.30713 1.06543 2.77344-5.01172.53369-10.0254-1.91943-13.54688.31933 2.56055.85205 7.25488-.96143 10.13379-3.19971 3.30762-4.26758 2.34766-8.42627 2.34766z" fill="#fff"/>
      <path id="path26" d="M469.62793 381.13477c-2.77344 2.98535-7.14844 5.65332-11.30762 1.06543-2.77343-5.01172-.5332-10.0254 1.91992-13.54688-.31933 2.56055-.85351 7.25488.96094 10.13379 3.19922 3.30762 4.26758 2.34766 8.42676 2.34766z" fill="#fff"/>
      <path id="path28" d="M150.9668 450.07227l145.52832-258.19629v-19.09864L146.41455 447.31836c1.6294.57227 3.15869 1.45605 4.55225 2.75391z" fill="#573f2f"/>
      <path id="path30" d="M442.02344 450.07227L296.49609 191.87598v-19.09864l150.08008 274.54102c-1.6289.57227-3.15918 1.45605-4.55273 2.75391z" fill="#573f2f"/>
      <path id="path32" d="M144.23584 455.99512c-3.48584-2.07032-5.31299-5.46778-4.06934-7.56543 1.24512-2.09571 5.10401-2.11621 8.58985-.0478 3.48535 2.07031 5.31299 5.46679 4.06836 7.56445-1.24414 2.09668-5.10303 2.11914-8.58887.0488z" fill="#573f2f"/>
      <path id="path34" d="M448.75488 455.99512c3.48633-2.07032 5.31446-5.46778 4.07032-7.56543-1.24512-2.09571-5.1045-2.11621-8.58985-.0478-3.48633 2.07031-5.31445 5.46679-4.06836 7.56445 1.24414 2.09668 5.10254 2.11914 8.58789.0488z" fill="#573f2f"/>
      <path id="path36" d="M294.36133 436.16895c-.64063-89.39161-3.09326-168.42774-3.83936-257.82227-3.84033-14.1875-10.88086-23.36133-23.78906-24.10742-2.13379 0-3.2002-.95996-2.98633-2.88086v-5.11914c-.10693-2.4541.64014-3.52149 2.55908-3.20215 10.34815 1.06836 19.84131-3.30566 30.18897-3.625 10.34766.31934 19.84131 4.69336 30.18896 3.625 1.91993-.31934 2.667.74805 2.55957 3.20215v5.11914c.21387 1.9209-.85253 2.88086-2.98632 2.88086-12.90723.74609-19.94825 9.91992-23.78809 24.10742-.74756 89.39453-2.88037 168.43066-3.52002 257.82227h-4.5874z" fill="#573f2f"/>
      <path id="path38" d="M266.73291 629.25977s-1.06689-.42872-.74658-2.13379c.31933-1.70801-2.55957-.42578-2.55957.10547 0 .5332-.85401-.63965-.53418-.95997.31982-.32031 1.28027-.74609 1.70654-1.49316.42725-.74609-.10644-2.13379-.53271-1.70605-.42676.42578-1.81348.53125-1.6001.10546.21289-.42675 1.28076-.53418 2.1333-2.02734.854-1.49121-.10645-1.59961-.10645-1.59961s-1.27978.42774-1.27978-.21387c0-.64062.21435-1.27929.95996-1.70605.74707-.42773 2.34766-1.70801 3.20068-1.70801.85401 0 .53369-1.17187.53369-1.17187s-1.60009.74609-1.92041-.32032c-.32031-1.0664.74659-1.92089.74659-1.92089s2.66699-1.9209 3.7334-2.13379c1.06689-.21192 1.70751-1.59961 1.06689-1.70606-.64063-.10547-2.56055-.21387-3.20068-.10547-.64014.10547-1.38672-1.17382-.7461-1.708.64063-.53321 2.66651-1.28028 4.48047-1.70801 1.8125-.42481 1.49317-1.17188 1.06641-1.38574-.42676-.21387-3.2002-.53418-3.84082 0-.64063.53418-2.23975-.63965-.74561-1.49415 1.49365-.85351 4.26709-.42578 4.05274-2.13281-.21289-1.70605-1.59913-1.06543-2.23975-1.17383-.64014-.10546-1.49365-1.06543-.31934-1.70605 1.17286-.63965 3.41358-1.91992 4.58545-1.91992 1.17432 0 1.49366-1.81348.85401-1.81348-.63965 0-3.09326.21192-3.20069.42676-.10595.21289-2.23925 0-.10595-1.60059 2.1333-1.49316.85302-.95996 2.87988-1.70703 2.02685-.74609 0-1.9209-.31982-1.81347-.31983.10742-1.81348-1.06641-.42676-1.49219 1.38672-.42871 2.45361-1.06739 2.02734-1.49414-.42822-.42774-1.70801-1.59864-.21435-1.91895 1.49414-.32129 3.73339-.64258 2.88085-1.81445-.854-1.17383.31983-.5332 1.8125-1.06641 1.49366-.53515.10645-1.70703-.42626-1.60058-.53418.10547-3.94727 1.81347-4.26758.85351-.31934-.95996.21435-1.28125.21435-1.28125s2.4541-.42676 3.51905-1.28027c1.06689-.85156 1.28076-1.59863 0-1.59863-1.2793 0-1.81299 1.27929-2.55909.5332-.74658-.74805.85254-1.91992.31983-3.41309-.53418-1.49414-1.49414-.53418-1.49414 1.49317 0 2.02539-1.70606 3.62597-1.70606 3.62597s-.64013-1.59961-.64013.96192c0 2.55859-1.49414 1.28027-1.49414.42578 0-.85352.95996-2.34766.21386-2.66699-.74756-.32032-2.77344 2.98632-2.77344 4.16113 0 1.17383-1.70751 1.38574-1.70751 0 0-1.3877.85351-4.48145 1.92089-6.29492 1.06739-1.81348 2.98633-4.16016 2.02637-4.69336-.95947-.5332-1.81348-.64063-1.81348.32031 0 .95996-3.62597 9.49316-5.43994 11.62695-1.81445 2.13379-1.91992 2.02832-1.91992.64063 0-1.38574 3.30615-5.22754 2.55908-7.4668-.74707-2.24219-1.49365 0-1.59912 0-.10693 0-1.70801 6.40039-4.90771 10.55957-3.2002 4.15918-3.2002 1.3877-2.34619.32031.85253-1.06542 4.16015-5.22656 3.73339-7.89453-.42724-2.66601-1.27978-1.49121-1.49365-.21191-.21338 1.2793-3.20068 9.38574-7.03955 12.58789-3.84131 3.19922-3.20215.10547-2.34766-.42871.85352-.5332 4.90674-4.69238 5.01417-8.42676.10595-3.7334-1.17432-1.2793-1.49415-.53418-.31933.74805-1.81347 7.04199-6.29394 10.77442-4.47998 3.73339-2.1333-.95899-2.1333-.31934 0 .64062 4.69287-4.37305 4.69287-7.57227 0-3.20117-1.38574-2.02832-1.49268-1.38769-.10693.63965-2.02636 6.29199-5.54687 8.64062-3.52051 2.34668-3.30664 2.98731-4.5874 2.5586-1.2793-.42578-2.02637-.10547-2.45313.64258-.42676.74511-4.05322 2.02539-2.6665-.64258 1.38672-2.66602-2.13428.53418-2.24073.64258-.10595.10546-4.48095 2.13086-2.98681 0 1.49219-2.13575 7.04053-3.20215 7.04053-5.86914 0-2.66602.96044-2.98633-.96045-1.70606-1.92041 1.28027-2.98682 5.33301-7.4668 6.7207-4.48047 1.38672 0-2.4541-.10742-1.92187-.10547.53418 3.73486-2.24024 1.70752-2.77344-2.02686-.53223-2.34668 1.3877-2.98682 2.34766-.64014.95996-3.20068 3.20215-3.84033 2.23926-.64014-.95997.74707-1.38575-.21289-1.38575-.96094 0-3.62744.96094-3.52002-.85351.10547-1.81446-.85401-.7461-1.49414-.7461-.64014 0-1.70654-.32031-1.59961-.96191.10547-.64063-2.02686 0-2.02686-.74609 0-.74512 1.06641-1.06543 1.70752-1.17383.64014-.10547 1.17237-.53223 0-1.59961-1.1748-1.06543-.74756-2.98731.64014-2.45313 1.38525.53321 2.55908 1.3877 3.83935 1.3877 1.28028 0 1.59961.31933.96045-.64063-.64013-.95996-1.3872-2.13379 0-2.13379 1.38672 0 5.22705 3.30567 6.08057 2.0254.85254-1.2793.85254-1.59864-.21435-2.45313-1.06592-.85156-.10547-1.81348 1.60009-1.59961 1.70655.21387 4.37403 1.91895 5.86768 1.06738 1.49316-.85351.42627-1.06738-.31983-1.49414-.74804-.42773-1.70752-1.60058-.42675-1.60058 1.27881 0 2.34619.42773 4.58642.31933 2.23975-.10547 1.28028 1.28125 2.4541.21387 1.17286-1.06543 1.91993-1.06543.42627-1.70605-1.49414-.64063-2.02685-2.24122-.21289-2.13282 1.81299.10547 3.73291 1.49121 6.08057 1.17188 2.34619-.32031 2.45264-.53223 1.49219-1.49219-.95948-.95996-2.45362-.85352-2.45362-1.92187 0-1.06641 1.60059-1.06641 2.24073-.85157.64062.21094 2.45263 1.06543 3.30664 1.06543.85351 0 1.70654-.10644.95996-.95996-.7461-.85351-1.28028-.42676-1.81397-1.28027-.53271-.85352-.53271-1.17383 1.06787-1.28028 1.6001-.10742 4.15967.2129 4.58643 0 .42627-.21289 2.56055-.21289 1.49365-.63867-1.06738-.42871-3.52051-1.70898-2.13379-2.02832 1.38672-.31933 2.88037-.63965 4.58692-.42578 1.70654.21192 3.30615-.85351 2.34619-1.17383-.95947-.32129-2.13281-1.28027.10693-1.28027 2.24121 0 3.62647 0 3.62647-.85352 0-.85351-1.38623-.31933-2.02686-1.708-.63965-1.38575 4.37402-5.65332 6.82715-9.49512 2.45312-3.83887 2.24023-.95899 1.38672-2.45313-.85303-1.49121-2.56006-.95898-3.09375.32227-.53272 1.28027-1.70606 3.51953-4.90723 6.6123-3.19971 3.09375-2.98681 3.41407-3.4126 3.41407-.42773 0-1.28125-.85352.10547-2.4541 1.38672-1.59961 4.79981-3.94727 5.44043-6.72071.64014-2.77344-2.02685-1.38574-2.13379-.74609-.10595.64062-1.81298 4.80176-5.86572 8.42773-4.05469 3.62696-7.68213 3.7334-6.18848 2.02735 1.49366-1.70899 6.82764-4.48243 7.46778-8.00098.64013-3.52148-2.02783-1.49414-2.1333-.85352-.10694.63965-2.34668 5.01465-6.18799 7.67969-3.83936 2.66797-6.29297 2.34863-5.22656.53516 1.06689-1.81348-.64014-1.17481-.95948-.85352-.31933.31836-3.09423 2.23926-3.84033 1.81348-.74658-.42676-1.2793-.53418-.64014-1.70801.64014-1.17187-1.06787-.42676-2.56054.10742-1.49365.53125-3.30762 1.17383-3.30762-.21386 0-1.38575-2.45361.42675-3.09277.53418-.64014.10546-5.54737 1.27929-5.54737.31933s2.02686-2.23926 0-2.34765c-2.02636-.10547-4.26611-.42579-3.20019-1.59961 1.06641-1.17383 3.94726.42675 7.04053-3.73243 3.09423-4.16211-1.17286-1.60058-1.2793-1.60058-.10742 0-1.59961 2.24023-3.62744 3.09375-2.02686.85351-4.16065 1.91992-6.29395 2.13379-2.1333.21093-3.94629-.95996-2.02636-1.81348 1.92089-.85449 5.97363-1.06836 8.10742-3.62793 2.13379-2.55957-2.66699-.74805-3.09375.10645-.42676.85351-5.76074 1.81347-5.76074 1.81347s-8.10645.10742-2.45264-1.91992c5.65332-2.02832 8.53369-4.05371 3.30664-2.55957-5.22705 1.49121-13.44238 1.2793-9.70801-.31934 3.7334-1.60156-1.49365-.64257-2.34619-.74804-.85352-.10547-3.30762-.85352-1.6001-3.09375 1.70606-2.23926-2.34668-.42578-.21338-1.28028 2.13379-.85351-2.77343-1.81347.74561-2.02636 3.52197-.21289-5.22608-2.02637-3.0918-2.24024 2.13281-.21386-3.62793-3.94726.63965-2.9873 4.2666.95898.42725-.31934 2.02686-1.17188 1.59912-.85351 1.70654 2.13086 2.34619 2.23926.64111.10645 2.45361 3.41309 2.45361.95996 0-2.4541-1.06641-3.94726 2.13379-.5332 3.20019 3.41308 2.45312 1.06738 2.23926-.10645-.21338-1.17382 0-2.45312 1.17431-1.70703 1.17383.74707.5337-2.66601 1.81348-.96094 1.27979 1.70801 1.06641 3.94727 2.56055 4.90723 1.49365.95996 2.98633 2.02832 2.02636-.42578-.96093-2.45312-.53271-4.80078 1.81348-1.3877 2.3457 3.41407 3.30664 4.16211 2.77344 2.13379-.53369-2.02539-.21387-3.83886 1.49267-1.38574 1.70704 2.45313 3.20069 3.09278 2.24073.95996-.95996-2.13379.64062-1.06738 1.59961-.64062.96142.42676 1.49414.53222 1.17431-.85352-.32129-1.38672 2.66602 3.41309 3.52002 4.37305.85303.95996 3.7334 3.7334 1.28028-1.2793-2.45362-5.01367 1.81201-1.0664 1.81201-1.0664s6.93506 6.71972 4.37402 2.02636c-2.56055-4.69433-1.27978-5.12207.74707-3.62695 2.02637 1.49316 4.58692 6.40039 3.09375 2.45312-1.49316-3.94824-.96045-4.79882 1.49317-2.24023 2.45361 2.56055 7.68066 8.85547 5.75976 3.20117-1.92041-5.65429 2.13379-1.17285 2.77393-.42773.63964.74804 3.94726 2.4541 1.38672-.85352-2.55909-3.30469 2.13378-1.27929 3.09423-.53125.95996.7461 4.37256 3.83887 1.91993-.21386-2.45362-4.05372-.85352-2.66797 1.81298-1.28028 2.66748 1.38672 2.98731 0 1.70703-1.70801-1.27929-1.70507-2.45361.42871-1.27929-2.55859 1.17334-2.98828-1.6001-1.38867-2.7749-1.60059-1.17286-.21289 1.06689-1.38671-1.59913-1.91894-2.66796-.53418-10.56103-.74805-6.07959-2.88086 4.47999-2.13379-1.17382-.42676-1.81396-1.06641-.63965-.63965-3.62695-1.06738-1.9209-1.81347 1.70703-.74805-1.91943-1.2793-2.66601-1.17383-.74707.10547-9.06739-1.49414-4.58741-2.02832 4.47998-.5332 13.54737 1.81445 14.1875-.5332.64161-2.34571-4.37256-.85254-5.76025-.85254-1.38672 0-19.94824-1.17286-12.05469-2.02637 7.89453-.85156 8.74756.10742 9.60156-.64063.85254-.74511-4.05371-1.06543-5.54736-1.06543-1.49365 0-12.16015-1.49414-7.7876-1.91992 4.37403-.42773 3.94776-.85351 1.0669-1.49316-2.87988-.64063-7.78662-2.34863-2.23975-2.56153 5.54688-.21289 12.58789-.42675 5.86719-1.60058-6.72119-1.17285-6.93457.53418-10.7749-.74512-3.83936-1.28222-5.86768-2.13379 5.76074-2.24219 11.62744-.10546 1.59961-.85156 1.91943-1.27929.31983-.42676-8.63965-.10547-13.01367-1.81348-4.37305-1.70605-2.23974-2.45508-3.52051-3.51953-1.27929-1.06738-4.2666-3.52148 2.45362-2.4541 6.72119 1.06543-2.55957-2.34668-3.41358-2.34668-.854 0-9.92138-7.25293 1.59961-2.24024 11.52197 5.01368 4.26709.95996 3.52051-.53418-.74561-1.49218-9.92041-3.94531-9.92041-3.94531s-.854-2.13379 1.8125-1.49316c2.66797.63965 4.69434 3.7334 6.08105 2.3457 1.38672-1.38672-2.66699-2.13379-5.86718-3.62793-3.2002-1.49121-7.89356-5.97266 1.3872-2.13183 9.28028 3.83984 1.49366-.96192.74659-1.3877-.74659-.42578-5.54688-1.49316-7.25342-4.58691-1.70801-3.09375-.95996-5.54688 1.27978-4.05274 2.24024 1.49317 2.45362 1.17383 1.38672-.74609-1.0664-1.92188-1.59961-5.33496-.85254-6.08106.7461-.74804 1.8125-1.81347 2.23926 1.91992.42725 3.7334 1.70703 3.09278 1.70703 1.3877 0-1.70801 1.17383-.6416 1.49365 1.81152.32032 2.45606 1.91993 2.02735 1.91993.74805 0-1.28027.854-2.34766 1.49365 2.02832.64013 4.37207 1.38672 4.58399 1.60107 2.66406.2124-1.91894 1.49219-5.54687 2.02539.32032.53369 5.86718 1.3877 5.54687 1.70752 3.30761.32032-2.24023 1.38721-3.62793 2.1333 1.59961.74805 5.22656.53369 9.38867 1.6001 4.37305 1.0669-5.01367 2.13379.96191 2.13379 3.09277 0 2.13379 1.49365 4.69336 1.49365 1.70801 0-2.9873 1.59961-5.97461 3.30664-.42578 1.70655 5.54492 1.81348 7.46582 1.81348 3.62598 0-3.83985 1.81348-1.28028 2.02637.10546.21289 1.38672 2.24121 12.16114 3.20068 4.80079.95996-7.36133 2.1333-1.17383 2.02686.53418-.10743 1.708 1.91943 9.38574 2.02636 1.708.10645-7.68261 2.56006 1.06543 2.45362 1.49121-.10694.42872.95947 8.53516 2.02636 1.92188 1.0669-6.61426 2.13379.42578 2.02686 1.17187-.10596.74805 2.56006 9.49512 2.02783 1.91993-.53369-7.57325 1.70557-1.81153 1.70557-.85157s1.70752 7.57422 1.81299 2.45411c.10742-5.12208 1.81396 2.23828 1.81396 1.91992 0-.32032.64014.10547 1.0669 2.66797.42675 2.55859 1.38671.63867 1.38671-.53516s-1.70654-4.37207 1.0669-2.87988c2.77344 1.49218 1.06689-.31934 1.17383-1.49317.10547-1.17383 5.01318 2.98535 7.68115 3.62696 2.66601.63964 4.26562-.53321.63965-1.49317-3.62696-.96094-9.70801-4.90722-10.56104-6.29492-.85254-1.38574-1.49267-3.73438.21338-2.98633 1.70752.74707 1.06738-.63965.31934-1.17285-.7461-.53516-3.30616-5.22754.53418-2.56152 3.84033 2.66699.95947 2.24121 6.40039 4.16113 5.44092 1.91894 1.28076-1.06543-.42676-1.81348-1.70654-.74609-8.00049-3.30761-10.56104-6.40136-2.56005-3.09375.21436-2.77344.5337-2.55957.31982.21386 2.98681 3.51953 6.71972 5.01269 3.73438 1.49414 3.8418 1.60059 3.30762-.10547-.53369-1.70801-3.41357-1.17383-5.3335-2.66797-1.92041-1.49316-5.22754-3.41308-6.82666-6.39941-1.60107-2.98633-1.70703-2.56055.31983-2.66699 2.02636-.10742 5.54638 6.61328 8.74756 7.04101 3.19921.42578.85205-1.91992.42578-1.91992-.42578 0-2.02686-.1084-4.05371-1.70801-2.02588-1.59961-4.4795-2.8789-5.43946-5.12011-.96093-2.24024-1.06689-.64063 1.70655-.64063 2.77343 0 1.8125 3.62695 5.22705 4.16113 3.41406.53418 2.23974-2.02734 1.27978-2.24218-.95947-.21094-6.61377-2.02539-9.28027-6.292-2.66748-4.26757 1.70654-2.02636 1.70654-2.02636s1.92041 3.20019 5.54736 4.69433c3.62647 1.49121 1.17383-1.1748 1.49317-1.28222.32031-.10645-6.29346-2.02539-9.60108-6.9336-3.30566-4.90625 1.28077-2.8789 1.60059-2.02636.32031.85351 2.77344 4.58691 5.75977 5.33496 2.98779.74511 1.28125-1.81348.5332-2.5625-.74561-.7461-6.08008-1.59961-8.42627-6.40039-2.34668-4.79981 1.70654-1.49122 1.70654-1.49122s1.49366 4.15918 5.33399 4.69239c3.83984.53418 2.55908 0 .31933-1.91992-2.24072-1.92188-6.08105-4.05274-6.1875-6.4004-.10595-2.34765-.53271-3.84179 1.60059-1.70605 2.1333 2.13184 4.90723 4.47949 4.90723 4.47949s2.98632-.21484 0-1.38672c-2.9878-1.17382-6.7212-4.80078-6.7212-5.97461 0-1.17382-1.38671-4.48144 1.9209-.95996 3.30664 3.51953 1.49268.64063.7461-.85351-.7461-1.49414-2.02588-6.72071 1.17382-2.4541 3.20069 4.26757.42725 4.05371 2.13379 2.66796 1.70703-1.38769 1.17286-1.28027.63965-2.02734-.53222-.74609-.63965-.32031-2.45361-3.09375-1.81348-2.77344-4.05274-4.47949-1.81348-4.7998 2.24121-.31836 1.17481-2.98633 1.28076-4.16114.10596-1.17285 1.17334-1.91894 2.23975-.95898 1.06641.95898.854-2.66797.854-3.7334 0-1.06836 1.49366-.64062 1.49366-.10644 0 .53222-.21436 4.26562.95947 2.77246 1.17334-1.49219 2.23975-1.06739 1.92041.21289-.32031 1.28027-2.77344 6.93554-.42725 4.80175 2.34717-2.13378.42725 2.66797.21387 3.30665-.21387.64062-.21387 4.05371 1.2793.42675 1.49414-3.62695 1.49414 2.23926 1.1748 2.98731-.32031.74609.31934 3.09277 1.06592.53222.74756-2.55957.42773.63965-.2124 4.16114-.64112 3.51953-1.70801 7.25488.2124 5.54687 1.92041-1.70801 3.83984-2.23926 2.4541.53418-1.38721 2.77344-3.94726 9.81348-1.60058 7.36035 2.34668-2.45605 2.13378-2.45605 1.92089-.21386-.21435 2.23925-.31982 3.19922 1.27979 1.59863 1.59961-1.59863 1.81348 2.02832.85351 2.88184-.96044.85253-2.56005 5.11914-1.06787 4.05371 1.49414-1.06836.96094.85156.74854 1.70507-.21436.85352 1.06543.7461 1.70557.10645.64111-.64063.10644 3.09277-.53272 3.52051-.64014.42578-2.13379 5.65429-.31982 3.94824 1.81347-1.70801 1.60009-.85449 2.1333.5332.53271 1.38574 1.0664.85157.53271-.96191-.53271-1.81348-1.81347-4.69238.21387-3.94727 2.02685.74805.31982-1.17187.10596-2.24023-.21289-1.06543-.64063-3.73242 1.28076-2.34473 1.91943 1.38574.53271-1.81445.31982-2.56152-.21435-.7461-1.81347-7.04102 1.2793-2.34473 3.09375 4.69336 2.24121 3.94629 1.17432 1.17285-1.06641-2.77441-2.45362-6.18945-2.02735-7.14843.42676-.95996 2.24024 1.28027 4.48096 6.8291 2.23974 5.5459 5.22607 7.03906 4.2666 5.11914-.96045-1.91992-3.62646-6.61328-4.80029-9.81445-1.17383-3.19922-3.52051-10.98633-.95996-8.7461 2.56054 2.23926.74707-1.1748.53418-2.02832-.21436-.85351-1.06788-4.2666.10498-2.66504 1.17431 1.59863 1.17431-1.28222 1.06738-3.0957-.10693-1.81152.64014-2.23926.21289-4.90527-.42627-2.66797 1.38721-2.34766 1.81348-1.49317.42675.85352.31982-1.81445.53369-2.5625.21338-.74512.42724-2.34473 1.59961-1.49121 1.17383.85156 1.17383-1.17383 1.17383-2.13574 0-.95996 1.49316 3.41601 1.17285-.21192-.31983-3.62695 2.02685-6.08105 2.13379-4.37304.10644 1.70605 1.81347.32031 2.34619-2.13379.53369-2.45313 2.34765-3.09278 2.34765-1.49317 0 1.59961-1.81396 6.50586.10596 4.37305 1.9209-2.13379 1.38672.42774 1.17383 1.2793-.21338.85351-3.73291 4.05273-1.81348 3.30762 1.92041-.74805 2.66748.32031 1.92041 1.28027-.74707.95996-3.52051 3.62695-1.6001 3.7334 1.92041.10742 2.13379 1.28125.63916 3.20117-1.49218 1.91992.85401 1.59863 2.02832.74512 1.17237-.85254.74708 1.81347-.53369 3.20019-1.28027 1.3877-2.98681 4.90723-.74707 4.05567 2.24024-.85352 1.60108.74511 1.28076 1.49316-.32031.74609-5.22753 5.65332-1.60009 3.83887 3.62646-1.81348 2.66748-1.06543 1.92138 1.06836-.74755 2.13183-5.12207 6.82714-2.2417 6.18652 2.87989-.64063 2.2417 1.28027 1.27979 2.4541-.95947 1.17188-2.6665 3.625-.10596 3.09277 2.56006-.5332-.95947 1.9209-.85351 2.34571.10644.42773-2.02637 2.77344.10644 2.66797 2.13379-.10743 1.6001.53418.74707 2.23925-.85351 1.70801-1.60009 3.09375.85303 1.70801 2.45508-1.38769 1.28125 1.70606.85303 2.77344-.42676 1.06543-3.62696 3.83887-.95948 3.51953 2.66749-.32031.74708 1.49316.64014 2.13379-.10644.64062 3.09278 0 1.92139 2.02734-1.17383 2.02539-5.22901 5.65332-2.7749 5.22754 2.4541-.42871.21435 2.66504-.10596 3.7334-.32129 1.06543-1.70801 3.625.10596 2.87988 1.81347-.74609 2.56054-4.05371 3.94726-4.26757 1.38672-.21192 3.09375.42871 2.45313-.53223-.63965-.95996.64062-.85254 2.13379.74609 1.49218 1.59961 2.66699 4.4795 2.8789 2.98828.21485-1.49414-.85156-3.20214-1.49219-4.05371-.64062-.85351-4.37402-5.01465-4.37402-6.7207 0-1.70801-.10644-2.34766 2.34766.74609 2.45312 3.09278 5.22656 4.37207 3.62695 1.17383-1.60059-3.20215-4.48047-9.81445-.95996-5.54687 3.51953 4.2666 4.58691 3.30468 1.59863-.95996-2.98633-4.26758-2.77246-6.50684-.10547-3.41407 2.667 3.09278 6.29297 7.89356 3.09375 1.06641-3.20117-6.82715-6.08105-8.96094-2.56054-6.93262 3.5205 2.02442 3.30566 2.23828 2.3457.21094-.95996-2.02539-3.62598-3.83887-3.62598-4.37305 0-.53222-.63965-3.94726 2.55957-.53222 3.20118 3.41211 3.09375 1.17285 2.02637-.53321-1.06543-1.708-9.17383-11.20214-2.13281-6.50879 7.04004 4.69532 1.2793-.21289 1.2793-.85156 0-.64062-4.26661-7.78613.5332-2.88183 4.80078 4.90722 1.70703-1.17188.85351-1.38575-.85351-.21386-7.25293-9.1748-2.87988-6.7207 4.37402 2.45313 5.44043 5.01367 4.58692 2.34766-.85352-2.66797-3.7334-4.37598-4.26661-5.1211-.5332-.74609-3.73339-6.50781-.32031-4.15918 3.41406 2.34571 5.33399 5.54688 4.26758 2.77051-1.06738-2.77051-4.26758-6.0791-1.81348-5.65332 2.45313.42871.21192-1.49316-.32031-2.66504-.53223-1.17383-.85254-3.20215.64063-2.56152 1.49414.64062 1.06738-1.59961 1.06738-2.55957 0-.95996 1.70605-1.59863 2.13281.21191.42676 1.81348-.5332 1.70801 1.60059 1.3877 2.13281-.31934-.32129 1.49414-.10645 2.87988.21289 1.3877 2.13184.53418 2.87988-.10547.7461-.64062 2.13282-2.13379 2.98633-.74609.85254 1.38574-1.9209 6.1875-3.51953 8.00097-1.60059 1.81055-1.49414 5.54688-.21484 4.05274 1.28125-1.49414 3.30761-5.33301 3.52148-6.29492.21289-.95996 1.59863 0 .95996 2.34765-.63965 2.34766-1.59961 4.90723-2.9873 6.18653-1.38672 1.28027-2.66602 4.58691-.95996 3.41406 1.70703-1.17481 4.26757-7.78711 4.26757-7.78711s2.667-4.37305 2.13184.64062c-.53223 5.0127-5.12012 8.8545-5.65234 9.59961-.53321.74805-2.13379 3.30762-.53321 3.2002 1.59864-.10645 4.90625-7.03906 4.90625-7.03906s1.9209-.63965.31934 3.7334c-1.59863 4.37304-4.90527 5.65332-5.33203 6.40136-.42676.7461-1.28125 5.11817.74609 2.66602 2.02735-2.4541 4.37403-5.54688 4.80078-7.89356.42578-2.34765 1.81348.42676 1.06641 1.91993-.74609 1.49414-2.34668 6.29296-5.33398 8.85449-2.98633 2.55957-1.70606 3.7334-.2129 2.13281 1.49317-1.60156 6.9336-11.41504 6.61426-6.50781-.32031 4.90625-5.4414 8.85351-6.40136 9.92187-.95997 1.06543-1.17286 3.7334.53418 1.70508 1.70605-2.02734 5.86718-7.68066 4.69335-3.41309-1.1748 4.26661-6.40039 7.36036-6.40039 7.36036s-1.81347 2.87988.32032 1.91992c2.13281-.95996 10.56054-13.01367 7.99902-5.65332-2.55859 7.36035-3.30566 3.7334-3.73242 5.33301-.42774 1.60156 2.24023 1.06738 2.24023 1.06738s-1.49316 2.13379-3.30761 3.30566c-1.8125 1.17383-1.38672 2.02735-.10645 1.49317 1.28027-.53321 2.88086-.10547.95996 2.02832-1.91992 2.13281-3.62695 5.97265-.85351 3.09375 2.77441-2.88184 5.01464-2.88184 3.30761.10547-1.70703 2.9873-4.16015 3.84082-3.09375 5.4414 1.06641 1.59863-1.49316 4.2666.74707 3.09278 2.24024-1.17383 1.28028-4.37305 2.77344-3.41407 1.49316.95996 1.3877 6.72168 2.34668.42676.95996-6.29297 2.55957-7.57324 2.55957-4.05371 0 3.52148 2.24023-.21387 2.24023-4.05273 0-3.84082 1.60059-6.29395 2.02735-2.98731.42676 3.30664 1.60058 4.58691 1.49316 0-.10644-4.58789 2.98731-4.47949 2.88086-.53418-.10742 3.94727 2.34668-.64062 1.49317-5.22558-.85352-4.58692-.74805-11.52149 1.91992-3.73536 2.66699 7.78907 2.13281 3.20215 2.56054.53418.42676-2.66797.53321-6.29297 2.34668-2.77343 1.81348 3.52148.95997-3.41407.85254-5.33301-.10547-1.91992 2.24121-2.45313 2.24121-.10547 0 2.34473 2.34571-.85449 1.59864-4.05566-.74512-3.19922 0-3.62696 1.38769-3.83887 1.38574-.21485 2.45313-5.33301 2.55957-2.98828.10645 2.34765.95996.96093 2.13184-.42578 1.1748-1.38672 2.45508.63964 2.5625-1.59864.10547-2.24218 1.59961-.1084 1.2793 3.625-.32032 3.7334 1.81347-.21386 2.77246-.85449.96093-.63965 2.88183-.53125-.42578 6.08203-3.30567 6.61426.95996.85352 1.81347 1.38672.85449.53418-1.17383 3.2002-1.91992 4.37402-.74707 1.17286-.85352 2.87891.96094 3.19922 1.81347.31934.74609 1.17383-2.13477 3.09278-2.87988 1.92285-1.70605 1.708.21387 1.81347 1.9209.1084-.5332 1.70801-2.34668 2.98828-1.81348 1.2793-4.26758 3.51954-1.49414 4.05274 2.77344.53418 1.81348 1.91992-2.02637 2.9873-3.84082 1.06641-6.82715 1.81348-3.41406 2.77442 3.41406.95996 4.05371.85254 2.02734 1.49316-2.02734.63965-3.94726-.1084-3.7334 2.02539.21289 2.13379 1.49414 2.4541-.85351 3.30762-2.34668.85351-1.28027 0-4.48047.42578-3.2002.42773 2.02637.74805 2.66699 2.4541.63965 1.70801-1.49316 1.06738-2.45312 1.17285-.96094.1084-3.62793 1.06836-1.60059 1.91993 2.02637.85351-2.13281 2.66796-3.62695 2.66796-1.49317 0-3.51953.85352-.95996 2.24219 2.55957 1.38574-1.38672 2.02539-2.87989 2.02539-1.49414 0-3.84082.74512-1.49414 1.59961 2.34668.85352-1.81347 1.70801-2.66601 1.59961-.85449-.10547-5.01465.31934-1.3877 1.3877 3.62696 1.06543-1.70703 2.02539-3.09375 1.81347-1.38672-.21484-2.55957 2.34571-2.55957 2.34571s-1.8125 5.86621-.10547 4.05468c1.70606-1.81347 7.4668-7.46875 5.75977-4.05468-1.70703 3.41503-2.77344 5.97461-.64063 4.05468 2.13379-1.92187 4.69434-9.38867 4.69434-5.01465 0 4.375-2.98633 6.93458.31934 3.94727 3.30761-2.9873 3.30761-8.96094 4.48144-5.01269 1.17285 3.94628-.21484 5.12011 2.02539 2.02539 2.24121-3.09375 1.3877-.95997 1.70801.6416.31934 1.59863.95996.42578 1.38672-1.60157.42676-2.02539 3.09375-5.11914 2.56055-.10546-.53418 5.01269 1.17285 1.81347 1.91992 0 .74609-1.81446 1.91992-5.33594 2.66601-1.60059.74707 3.7334 2.56055-.85352 2.88086-2.66797.32031-1.81348 2.66699-4.05273 2.13379.10645-.53515 4.16211 2.24024-.42578 2.24024-2.23926 0-1.81348 2.77343-3.2002 2.02636 1.17285-.74707 4.37402 1.70703 2.98828 2.667-.95898.95996-3.94825 2.77343-6.08106 2.77343-1.81446 0 4.26856 1.81348.95996 2.66602-1.70508.85449-2.66796 3.62793-8.85644 3.30762-1.81347-.32032 7.03906.21386 3.625 1.49316.85156 1.28027-2.77344 2.9873-6.6123 2.9873-2.02539 0 4.58691 1.91993.74609 2.24024-1.60156.32031-2.34571 1.49316-7.03809 2.02637-2.34571.5332 4.69336 1.38671.8545 2.02734-.74804.63965-1.59864 3.62695-1.91895 3.62695-.53125 0 1.38574-.42773 2.13379 1.49317 1.70605 1.91992-.42676.85254 3.30664.21386 2.77344-.6416-.53223-.74707 2.24121 1.38477 1.81348 2.13379-.42676-.10547 2.9873-.95898 2.9873-.85254 0 0 1.28027-2.34668 1.91992s-1.28028 1.81348-1.06543 2.45313c.21191.64062.32031 1.1748-1.49414 1.60058-1.81348.42774-.63965 1.49317-.42676 2.24121.21289.74512-.32129 1.38575-2.34668.74512-2.02637-.63965-5.97461.21485-2.88086 1.38867 3.09375 1.17188 2.66797 2.5586.42773 2.66504-2.24121.1084-3.62695-.10547-2.13379 1.3877 1.49317 1.49219-1.49414 2.34472-3.84082 1.91992-2.3457-.42773-8.00097-2.02734-5.11914-.42773 2.87989 1.60058 3.2002 3.5205.95996 3.20117-2.24023-.31934-8.85449-1.59961-6.18847-.42774 2.66797 1.17285 4.05468 4.05469 1.38672 3.73535-2.667-.32031-7.78711-2.13378-5.11914-.10742 2.66699 2.02637 2.87988 3.62696.21386 3.52149-2.66797-.1084-6.29394-2.45508-5.33398-1.28028.95996 1.17188-.64063 2.45313-2.4541 2.02539-1.8125-.42675-3.83985.85352-.10743 1.81348 3.73438.95996-1.27929 1.06543-5.01269.32031-3.73438-.74609-7.4668-.95996-3.30664.95996 4.15918 1.91895-.63965 2.23926-2.98731 1.2793-2.34668-.95996-6.40136-2.66601-3.83984-.42578 2.56055 2.23926-2.34668.85352-3.7334.21387-1.38672-.63965-4.90722-.31934-2.77344.85156 2.13282 1.17383-1.28125 1.9209-2.13378.63965-.8545-1.2793-3.2002.64258-1.49317 1.49414 1.70606.85449-1.81445.10742-3.62793-1.06641-1.81152-1.17285-4.7998-1.59863-4.05273-.42773.74707 1.17383-2.88086-.21192-4.4795-1.49121-1.5996-1.28223-4.48144 2.23926-2.88085 2.66504 1.60058.42871.64062 1.81445-1.06641 2.4541-1.70703.64062.42578 1.70801 2.77344-.63965 2.34765-2.3457 1.06738 2.24121.53418 2.66699-.53418.42676-3.30762 2.77344.5332 2.13379 3.83887-.64062 4.69336-1.17383 3.41309.85449-1.2793 2.02539-1.60059 2.5586 1.49414 1.38477 3.09179-1.17383 5.65332-.21387 4.16015 1.2793-1.49414 1.49511-.5332 2.13378 1.38574 1.1748 1.92188-.95996 2.66895-1.06543 1.70899.74512-.96289 1.81347-.32031 2.66797 2.02539-.10547 2.34668-2.77344 5.54687-1.2793 3.41406.64062-2.13379 1.91993-1.27929 2.66797.85254 1.06739 2.13379-1.60157 3.7334-.74805 2.02734 1.06543-1.70703 1.81347-.85253 3.52148 1.9209 1.06836 2.77344-2.45411 4.16016-1.06836 2.23926.53125-1.91992 1.60253.21387 2.77343 2.4541-.7461 2.24024-3.52148 3.51953-1.70801 2.77344-.10547-.74707 1.59961-.10645 2.87989 1.60059-.10742 1.70703-2.9873 3.625-.5332 2.66601.63965-.95898 1.1748.85449 2.56152 2.56055-.53125 1.70703-3.0957 3.94726-2.13379 2.56055.10547-1.3877 2.23926.74609 2.77344 2.13281 0 1.38769-2.77344 4.26758-2.98731 3.52148-.95996-.74804 2.02636 1.49317 1.28027 1.91992.42578.42676-.85352 3.94532-1.59863 2.45215.63965-1.49218 2.24316 1.3877 1.28027 2.34766-.74512.95996-2.02832 3.09375-2.45313 2.56055-.74805-.53321 1.70801 1.59961-.53125 2.45312-1.81347.85352-1.28028 2.98731-1.06543 2.66699 0-.32031 1.06836 2.87891-1.17188 2.02637 2.77343-.85352 3.94727-1.59961 2.98829-1.06641 3.94727.53321.96191-.95996.96191-1.49316 1.1748-.5332.21289-1.81348 1.17383-.74805 1.70704 1.06836.53125-1.06543 2.23925-2.8789 1.5996-1.81446-.63964-7.04102-.5332-2.56055 1.28028 4.47949 1.81347 1.06738 2.23828.21387 2.23828-.85352 0 2.98633 2.77441-3.09375 1.70801-6.08008-1.06739-3.62696.10742-1.81348.85449 1.81348.74609.74609 2.98535-6.29394-.74707-7.04004-3.73438-10.13282-3.30859-4.37403-.32031 5.76172 2.98632 9.60156 5.86718 1.17481 2.98632-8.42774-2.88085-3.7334.21485-2.45313.8545 1.27832.64062 5.43945 4.47949-2.88183.64062-8.31934-3.84179-7.99903-3.62793-4.4795-1.1748 3.52051 2.4541 3.20118 6.1875-3.51953-.21289-6.7207-6.40235-8.85449-8.10743-7.36133-5.6543 1.49317 2.4541 10.02832 10.55957 2.55957 6.7207-7.46582-3.83984-7.57226-13.4414-8.85253-7.89355-1.28125 5.54687 3.19921 4.48144 5.12011 6.40039 1.91895 1.91992-1.1748 2.34766-3.41308.10644-2.24121-2.24023-3.84082-2.45312-3.84082-7.36035 0-4.90722-2.88086-1.70605-2.24121-.74707.64062.95996.21484 6.50684 3.84082 9.60059 3.62695 3.09375-4.05274-.85352-4.26661-1.49317-.21386-.63964-3.30664-4.26855-3.09472-2.02539.21484 2.23828-.85157.42481-2.5586-.32031-1.70703-.74805-5.65429-1.17383-4.48047-.21484 1.17286.95996 3.30567 2.98828 5.6543 2.77343 2.34668-.21289 1.38477 1.81348-.85351 1.49512-2.24121-.32031-5.1211 1.2793-1.81446 1.59863 3.30762.32032 6.82715 2.02833 5.01465 2.77344-1.81348.7461-1.28125 1.17481 1.06641 1.59961 2.34668.42676 5.65234 2.34766 2.66699 2.66797-2.9873.31934-3.83984 2.13379-.42773 2.13379 3.41308 0 7.04101 1.49414 5.33496 2.34473-1.70703.85449-.64063 1.06836 1.17187.96289 1.81348-.1084 1.49414 1.38574-.63965 2.02539-2.13281.63965.63965 1.70801 3.52051 1.70801 2.88086 0 5.0127 1.38574 3.62793 1.81152-1.38769.42773-.85449 1.60156 1.38477 1.06738 2.24023-.5332 6.8291.7461 4.80175 1.17481-2.02636.42578-1.28027 2.13281.95996 2.13281 2.24024 0 4.05372.10644 3.09278 1.17383-.95899 1.0664.42773.85254 2.66797 1.0664 2.24023.21387 7.99902.53418 5.86718 1.17383-2.13378.63965-4.48144 2.24024-2.88085 2.55957 1.60058.31934-1.49415 1.81348-2.88086 2.23926-1.38672.42773-2.98536 1.28027-2.87891 1.92187.10547.64063-1.38672.64063-2.4541-.21386-1.06543-.8545-2.87988-.74805-2.77246.21386.10449.95997 0 .85157-1.49317 0-1.49414-.85351-2.98828-1.28125-2.66894-.21386.32031 1.06543-1.8125 0-2.66699-.8545-.85254-.85351-2.34571-2.8789-2.34571-1.59863 0 1.28028-2.56152 2.77344-2.66699 1.06543-.10645-1.70605-1.9209-5.86719-1.9209-4.47949 0 1.38867-.63867 4.58691-2.13379 2.55957-1.49316-2.02539-.31933-5.97266-1.70605-5.54688-1.38672.42872-.21289 2.34766-.10742 3.84083.10742 1.49511-2.13184 3.73339-3.09082-.53321-.96289-4.2666 1.59863-9.28027.10449-8.1084-1.49414 1.17383-1.81348 2.34668-1.70606 5.12012.10645 2.77441-1.81445 1.49512-2.02636-.74512-.21485-2.24121.53222-8.85449-.32032-5.4414-.85351 3.41308-.95996 10.02832-2.66699 5.65527-1.70801-4.375 1.28027-12.58789 0-10.5625-1.28125 2.02832-1.81348 2.98828-1.81348 5.33399 0 2.34667-1.81347 2.02636-2.34765 0-.53223-2.02637 0-11.73438-.42578-10.02637-.42676 1.70801 0 3.83887-.96094 5.76074-.95996 1.91992-1.70703-3.41406-1.70703-2.4541 0 .95996 1.70703-6.40137.74707-5.44141-.95899.95996-2.23926-1.81347-3.09375 2.98828-.85254 4.79883-1.17383-.21484-2.13281-1.1748-.95996-.95899-2.02637 1.28027-2.98536-3.52149-.95996-4.79882-1.81396-6.39843-2.88134-4.79882-1.06641 1.59961-2.34619-.42578-2.34619-2.23926 0-1.81348-1.92139-3.20117-2.13428-1.92188-.2124 1.28223-2.45313.63965-2.56055 2.24219-.10498 1.59863-1.38672.85156-1.91943-1.92285-.53418-2.77344-2.13379-1.49316-1.17383 2.98828.95996 4.48145 1.2793 7.78613 0 6.40039-1.27979-1.38672-1.38672 1.06543-1.27979 2.66602.10694 1.60156.10694 4.16211-.42724 3.52246-.53369-.6416-1.70654-1.49512-1.17383 2.02637.53369 3.51953-.64014 4.69335-1.59961.85253-.95996-3.83984.10693-9.49511-1.17383-10.66601-1.27978-1.17481-2.55957-1.38867-1.70703.95898.85352 2.34571 2.56104 6.9336 2.34815 12.16016-.21436 5.22754-1.70752 6.7207-1.92139 3.30762-.21338-3.41407 1.17383-9.06641-1.06641-10.77442-2.23974-1.70801-2.55957-.95996-2.02636.95996.53222 1.91993 2.45312 4.37305 1.70654 9.17481-.74609 4.80078-2.87988 7.2539-2.98682 3.83789-.10644-3.41309 1.38672-8.10547-.31982-8.7461-1.70654-.63964-1.70654.42872-.96094 2.34864.74707 1.91894 1.28076 7.78613.96094 10.55957-.3208 2.77344-2.34766 3.62695-2.56055 1.38769-.21289-2.24218-.42724 2.45118-.21289 4.26465.21289 1.81348-1.70752 5.76172-1.92041 2.77344-.21387-2.98438-1.70703-2.34473-1.70703.1084 0 2.45312.10644 8.53222-.85352 5.33203-.96045-3.19922-2.02685-3.73242-2.23974-2.13281-.21289 1.59961-.21289 5.65332-1.0669 4.69336-.854-.95997-2.23925-.85157-2.55957.53418-.3208 1.38574-.53369 1.27929-.85351-.21485-.32324-1.48926-1.92383.32227-2.13721.43067z" fill="#007e3a"/>
      <path id="path40" d="M147.19141 445.89258c7.14746-25.38867 20.97363-45.45117 32.38867-59.6377-5.86719-18.34668-42.45654-49.17578-64.64502-83.8457-9.38623 23.78809-25.49512 38.50879-35.62891 61.87012 26.66895 44.2705 46.44434 49.18359 67.88526 81.61328z" fill="#d21034"/>
      <path id="path42" d="M445.79883 445.89258c-7.14746-25.38867-20.97266-45.45117-32.38867-59.6377 5.86718-18.34668 42.45703-49.17578 64.64453-83.8457 9.38769 23.78809 25.49609 38.50977 35.63086 61.87109-26.66992 44.26953-46.44532 49.18262-67.88672 81.61231z" fill="#d21034"/>
      <path id="path44" d="M141.99707 412.42773c3.71729-13.20312 9.04346-17.91894 14.97803-25.29687-3.05078-9.54199-28.45947-29.84668-39.99854-47.875-4.88183 12.37109-9.65332 12.64844-14.92334 24.7959 13.20362 24.29883 28.79297 30.56933 39.94385 48.37597z" fill="#007e3a"/>
      <path id="path46" d="M450.99316 412.42773c-3.71679-13.20312-9.04199-17.91894-14.97753-25.29687 3.05078-9.54199 28.45898-29.84668 39.99902-47.875 4.88086 12.37109 9.65234 12.64844 14.92285 24.7959-13.20312 24.29883-28.79297 30.56933-39.94434 48.37597z" fill="#007e3a"/>
      <path id="path48" d="M123.36328 381.13477c2.77344 2.98535 7.14746 5.65332 11.30713 1.06543 2.77344-5.01172.53369-10.0254-1.91943-13.54688.31933 2.56055.85205 7.25488-.96143 10.13379-3.19971 3.30762-4.26758 2.34766-8.42627 2.34766z" fill="#fff"/>
      <path id="path50" d="M469.62793 381.13477c-2.77344 2.98535-7.14844 5.65332-11.30762 1.06543-2.77343-5.01172-.5332-10.0254 1.91992-13.54688-.31933 2.56055-.85351 7.25488.96094 10.13379 3.19922 3.30762 4.26758 2.34766 8.42676 2.34766z" fill="#fff"/>
      <path id="path52" d="M325.72363 415.48242c-31.14843 17.06836-77.12549 1.3877-93.65918-27.41406-16.53466-28.79981-19.84228-70.19141 9.27979-98.35254 29.12207-28.16309 65.60498-28.37598 94.0874-12.69434 28.48145 15.68067 39.89551 44.48243 37.76172 66.13672-2.87891-23.89355-15.04004-44.37597-38.61523-54.29687-23.5752-9.9209-60.16407-8.53516-80.21875 17.1748-20.05567 25.70801-23.40284 53.90528-6.29395 80.43067 17.10889 26.52929 46.66895 40.33593 77.6582 29.01562z" fill="#fec00f"/>
      <path id="path54" d="M325.72363 415.48242c-34.39892 11.96485-63.97265-6.26562-78.57275-30.50683-14.59863-24.23731-12.74854-59.51368 9.86182-82.40332 22.60937-22.88965 57.57421-21.84766 78.43164-13.63379 20.85742 8.21289 35.583 30.21582 37.74804 54.21972-10.0039-19.65136-19.08886-36.56543-38.9209-42.24316-19.83105-5.67969-49.12597-2.88574-65.17041 17.4873-16.04394 20.37012-17.57666 42.36524-7.93212 64.99024 9.64501 22.625 38.68505 37.49902 64.55468 32.08984z" fill="#fec00f"/>
      <path id="path66" d="M269.00635 317.85645c-15.77393 21.09277-17.48194 42.91113-7.8374 65.53613 9.64501 22.625 38.5288 37.49023 64.31738 32.12695-31.60108 12.86719-63.60645-5.50879-78.0752-29.11914-13.80517-22.52539-17.23925-53.39062 9.23389-84.13379 1.94092-2.2539 10.01758 17.39258 12.36133 15.58985z" fill="url(#linearGradient3004)"/>
      <path id="path78" d="M241.23779 289.82129c29.12256-27.84082 65.81885-28.37402 94.19385-12.79883 28.375 15.57227 39.89551 44.48145 37.76172 66.13574-2.87891-23.89355-15.28223-44.79199-38.29102-53.97265-23.00879-9.17969-60.52832-7.95899-80.54296 16.85156-1.1919 1.47754-11.41553-15.18359-13.12159-16.21582z" fill="url(#linearGradient3006)"/>
      <path id="path80" d="M292.51611 302.06738l20.17627 53.65332 6.19727-21.80371-26.37354-31.84961z" fill="#fec00f"/>
      <path id="path82" d="M359.09082 318.98535l-46.39844 36.73535 22.6709-.48632 23.72754-36.24903z" fill="#fec00f"/>
      <path id="path84" d="M361.60742 388.49707l-48.91504-32.77637 7.68164 21.56348 41.2334 11.21289z" fill="#fec00f"/>
      <path id="path86" d="M296.39404 413.96387l16.29834-58.24317-18.05566 14.21485 1.75732 44.02832z" fill="#fec00f"/>
      <path id="path88" d="M255.20068 358.36914l57.4917-2.64844-18.97509-12.57226-38.51661 15.2207z" fill="#fec00f"/>
      <path id="path100" d="M292.51611 302.06738l20.17627 53.65332-18.97509-12.57226-1.20118-41.08106z" fill="url(#linearGradient3008)"/>
      <path id="path112" d="M359.09082 318.98535l-46.39844 36.73535 6.19727-21.80371 40.20117-14.93164z" fill="url(#linearGradient3010)"/>
      <path id="path124" d="M361.60742 388.49707l-48.91504-32.77637 22.6709-.48632 26.24414 33.26269z" fill="url(#linearGradient3012)"/>
      <path id="path136" d="M296.39404 413.96387l16.29834-58.24317 7.68164 21.56348-23.97998 36.67969z" fill="url(#linearGradient3014)"/>
      <path id="path148" d="M255.20068 358.36914l57.4917-2.64844-18.05566 14.21485-39.43604-11.56641z" fill="url(#linearGradient3016)"/>
      <path id="path150" d="M386.32813 223.16895l-9.50684-24.44727-15.70899-4.23535c16.29297-4.25195 33.03418-10.66406 48.01563-17.27832-3.62695 8.00097-7.2373 16.82031-10.75879 24.82031 7.57422 2.34668 15.14746 4.69434 22.82813 7.04102-10.21778 5.24511-22.33204 10.47949-34.86914 14.09961z" fill="#c7c4e2"/>
      <path id="path154" d="M295.42822 212.56641c27.20264-.40332 54.34131-2.26465 79.79248-10.45996l13.33399 34.10156c-24.32129 7.44433-52.26953 14.01758-93.12647 13.82422-40.85644.19433-68.80468-6.37989-93.12646-13.82422l13.33398-34.10156c25.45166 8.19531 52.59033 10.05664 79.79248 10.45996z" fill="#c7c4e2"/>
      <path id="path158" d="M374.90137 229.23047s-3.20117 6.40137-3.20117.31933c0-6.0791-.10645-9.38671-1.59961-12.37402-1.49317-2.98535-1.17383-5.75879 1.49316-2.77344 2.66699 2.98829 2.87988 7.89551 2.87988 7.89551s-.42675 1.70508.85254 1.06445c1.28223-.63867-.4248 4.90821-.4248 5.86817m-11.30762-11.62891s-2.34668-1.59863-.74707-3.625c1.59961-2.02734 2.3457-.85449 2.45312.42578.10743 1.28028 0 1.81348-.74609 2.13379-.74707.32032-1.28027.53418-.95996 1.06543m2.3457 16.21582s-2.23925 3.30664-2.66601-1.49316c-.42676-4.79981.5332-8.21387-1.49414-9.81543-2.02539-1.59863-12.90723-.63965-13.33301.64258-.42676 1.27832-3.84082-.1084-4.26758 6.82617-.42773 6.93262-2.13281 7.04101-2.34668 7.68066-.21387.64063-3.09375.64063-1.91992-2.02734 1.17285-2.66797 2.45312-5.44141 1.59961-8.96094-.85352-3.51855-9.49414-6.08105-9.28125-3.51855.21484 2.55859 4.26758 2.55859 4.05371 6.82617-.21289 4.26758-2.45313 6.82715-3.09277 7.25195-.64161.42871-4.05371 1.38867-4.05371-1.38574 0-2.77344.5332-6.40137 2.56054-6.18652 2.02637.21191 3.52051.53222 2.13281-.42774-1.38671-.95996-2.56054-3.30566-4.90722-4.05371-2.34668-.74609-5.76074-2.23926-8.00098-2.34473-2.24121-.10742.21289-1.60253.32031-1.60253.10645 0 6.18653-.53125 7.14747.21484.95996.74512 1.49316 2.13281 1.8125.95996.31933-1.1748-.7461-1.91992.10644-2.24023.85352-.32032 4.48047-1.17383 6.1875-.53321 1.70703.63965 3.62598 3.52149 5.22754 3.52149 1.59961 0 4.16016-2.98828 5.54687-3.3086 1.38672-.31836 8.53418-2.77343 12.48145-1.708 3.94629 1.06836 5.33301 5.54785 5.54687 6.61523.2129 1.06641-.32031 3.2002.63868 2.98828.96093-.21484 1.81445.63965 1.49414 2.02539-.31836 1.38574-1.49317 4.05371-1.49317 4.05371m-14.82715 2.77344s-2.34667-5.01367 0-4.9082c2.34766.10937.42676.21484 1.17383-1.91895.7461-2.13379.95996-2.98828.7461-4.05371-.21289-1.06738 1.06738-1.17285 1.49316.10645.42774 1.28125 1.81445 4.48047 1.9209 5.44043.10742.95996 1.38769 2.13379 1.49414 1.38574.10645-.74512 2.34668-.31836 1.70508 1.38769-.63965 1.70606-2.45215 2.13379-3.73242.32032-1.28028-1.81348-1.38672-4.26661-1.70704-2.5586-.31933 1.70508-.95996 6.50684-3.09375 4.79883m-109.55517-4.79883s-.95947-1.28222 0-1.28222c.95996 0 .21435.10742.53418-.42579.31982-.64062.31982-.85351.31982-1.1748-.10644-.31934.42725-.31934.53418 0 .21289.32031.85205 1.28027.85205 1.49414s.53321.64063.64063.42578c0-.21191.96045-.10547.64111.32031-.21435.53321-.96094.64258-1.49414.10743-.53369-.53321-.63965-1.17286-.74658-.74707-.10693.53418-.42725 1.81445-1.28125 1.28222m104.86084 5.65235s2.13379-1.06446 1.81348-2.98731c-.32032-1.91992-1.81348-1.38574-1.70508-.85449.10547.53516-.21387 1.38867.5332 1.49512.74609.10742-.6416 2.34668-.6416 2.34668m-5.22559-15.78711s2.13282-1.06739 1.81348-2.98731c-.32031-1.91894-1.81348-1.38672-1.70898-.85351.10742.5332-.2129 1.38769.53417 1.49414.74708.10547-.63867 2.34668-.63867 2.34668m-6.08105 19.84082s2.13379-1.06543 1.81347-2.98633c-.31933-1.9209-1.81347-1.3877-1.70605-.85352.10547.53223-.21484 1.38672.5332 1.49414.7461.10645-.64062 2.34571-.64062 2.34571m-14.7207-5.97266s2.13281-1.06836 1.81347-2.98828c-.32129-1.91992-1.81347-1.3877-1.70801-.85352.10743.53321-.21289 1.3877.53321 1.49317.74804.10644-.63867 2.34863-.63867 2.34863m-10.02735 7.04004s2.13281-1.06738 1.81348-2.98633c-.32031-1.9209-1.81348-1.38867-1.70801-.85449.10742.53418-.21289 1.38769.5332 1.49316.7461.10645-.63867 2.34766-.63867 2.34766m-79.8999-21.33594s-1.70654-2.3457-.42578-5.11914c1.3872-2.55859 2.66601-1.17285 2.34668-.42773-.31983.74804-.53321 2.02832-1.38721 1.91894-.85352-.21093-.53369 3.62793-.53369 3.62793m54.61719 1.06836s1.17431-.53515.96093-1.60058c-.10693-1.06739-.96093-.74805-.85351-.53321 0 .32032-.10694.7461.21387.85352.42578.10547-.32129 1.28027-.32129 1.28027m-12.69336 18.13477s2.13379-1.06836 1.81347-2.98828c-.3208-1.91895-1.81347-1.38672-1.70703-.85352.10596.53418-.21386 1.3877.53369 1.49414.74659.10547-.64013 2.34766-.64013 2.34766m52.16357 2.23828s-1.91992-1.17285-.96094-4.37207c.96094-3.20117 1.81446-6.08106.96094-7.78809-.85351-1.70605-6.93359-4.90527-10.02832-3.09179-3.09375 1.81152-2.3457 5.97265-5.54687 2.66601-3.19971-3.30762-4.37305-8.42773-5.97217-7.04101-1.60108 1.38671-1.81494.21386-1.81494 2.66796 0 2.45411 1.28125.42579 2.02734 1.06543.74707.64161 1.70703 2.24219.32031 2.24219-1.38769 0-3.30713.85156-4.48047 1.49121-1.17431.63965-5.33447.95996-1.81347 1.92188 3.51953.95996 3.4126-.74805 4.2666-.85352.85303-.10742 1.06738.21387.64062 1.38574-.42724 1.17383-2.23974 1.3877-2.13378 3.52149.10644 2.13379-.42627 1.91992-.42627 2.55859 0 .64063-.21436-.31933.95996.74805 1.17285 1.06641-.53369 1.49414-1.0669 2.24023-.53271.7461-2.02685 2.87989-2.13379 1.91993-.10644-.95997-1.0664-2.0254-.42675-4.05372.64013-2.02636 1.0664-3.51855.53369-4.58691-.53369-1.06543-5.43994-2.55859-6.40088-3.62695-.95948-1.06543-1.9209-2.98535-.74707-3.2002 1.17431-.21289.85351 0 2.45361-.21289 1.6001-.21289-1.38721-1.17285-3.09326-1.17285-1.70654 0-6.3999-.64063-7.04053 1.49219-.64014 2.13281-1.81348 0-2.45361 4.90722-.64014 4.90723-1.06592 4.37403-1.70703 8.42969-.63965 4.05274-2.88037-.42871-2.98633-.21484-.10693.21484 1.38672-8.21485 1.70703-9.60059.31934-1.38769 1.38672-8.64062 0-6.82617-1.38672 1.81348-3.62695 6.93262-4.05371 7.8916-.42676.96192-2.02734 3.52149-2.34668 3.62891-.32031.10547-2.77393.63965-1.6001-1.70801 1.17383-2.3457 4.37354-6.61328 2.13428-8.21289-2.24121-1.59961-4.37451-2.34668-5.22754-2.24121-.85254.10742-2.24072.96191-1.70654 2.45508.53271 1.49121 1.3872 4.58496 0 3.30468-1.3877-1.27832-2.45362-5.54687-1.9209-6.6123.53271-1.06738 2.24072-3.73438 5.44092-2.45313 3.1997 1.2793 4.80029 4.05274 5.65381 3.51856.85302-.5332.31933-2.02442 1.92041-2.45313 1.5996-.42578 5.01318-.42578 6.61376 1.49414 1.59913 1.91895 2.77393.21387 2.98633 0 .21289-.21386 4.58692-.42675 8.64014 1.70801 4.0542 2.13281 5.33398.7461 5.86768.7461.53369 0 1.0664-1.17481.96044-3.62793-.10742-2.45411 2.13331-3.62696 2.98633-3.19922.85401.4248 1.91944 3.62695 5.86719 7.14648 3.94727 3.51953 1.81348 1.17383 2.13379.21485.31934-.96094 3.94629-3.20215 5.33301-2.98829 1.38672.21485 8.10547 1.70801 8.10547 2.55957 0 .8545 2.88086 2.13379 2.02832 7.4668-.85254 5.33496-1.70801 4.48145-1.49414 5.01465.21386.5332 2.66796-.1084-.95899 3.73047m-20.05517.10742s-2.98682-.74609-1.8125-2.98633c1.17334-2.24121 1.60009-8.64258 1.60009-8.1084 0 .53321.42676-5.54687 2.24073-.95996 1.81201 4.58692 0 3.30762-.32032 5.33301-.32031 2.02734 1.06494 1.17383.42627 3.30762-.64062 2.13379-2.13427 3.41406-2.13427 3.41406m7.25341-6.72168l-1.06543.96191-1.06738-1.60156 1.49317-1.27929 1.27929 1.17382 2.24121-.95996 1.17383 1.70606-1.9209 1.60058-2.13379-1.60156m-21.65381 5.86914l-8.3208-4.26758-.64062-1.70703 9.9209 4.58692-.95948 1.38769m2.56055-4.375l-8.32129-4.26758-.64062-1.70605 9.92187 4.58691-.95996 1.38672m-32.10937 2.45313l3.30615-1.17188s-.53272-3.52148-2.02686-3.73535c-1.49316-.21191-3.73291-1.17383-2.55908.85449 1.17285 2.02637.21289 2.02637-.10644 1.27832-.32032-.74511-1.28125.42871-.53321 1.17481.74561.74804 1.91944 1.59961 1.91944 1.59961m-42.34961-6.292l3.30615-1.1748s-.53272-3.51856-2.02686-3.73242c-1.49267-.21485-3.73291-1.17481-2.56005.85254 1.17382 2.02539.21386 2.02539-.10547 1.28027-.32032-.74805-1.28028.42578-.53418 1.17383.74658.74609 1.92041 1.60058 1.92041 1.60058m77.76513-10.77441s-3.20068-.32031-1.70654-1.49414c1.49268-1.17383.10596-1.17383.31983-1.91895.21289-.74804 2.3457-2.66796 2.98632-1.28222.64014 1.38769.64014 1.92187-.10595 1.92187-.74659 0-1.06641.53321-.74659 1.17383.31934.63965-.74707 1.59961-.74707 1.59961m-25.17529-2.13379s-2.98682-.74805-3.30664-1.70801c-.31982-.96093 0-1.70605 1.70654-.74609 1.70655.95996 3.20069 2.56055 1.6001 2.4541m-12.37451 1.38574l-.95947 1.06836-1.3877-2.02832 2.13379-1.70508 1.3877 1.49317 1.27978-1.06836.85303 1.49414-.95996 1.49414-1.70752-1.1748-.63965.42675m-32.85498 10.88184l-1.17383.85156-.95996-2.24023 2.4541-1.2793 1.06592 1.70801 1.38623-.74805.53418 1.59961-1.17432 1.28223-1.49267-1.49414-.63965.32031m33.06933-1.49414s.7461-1.70801.31983-2.77246c-.42676-1.06641-2.56006-1.38672-2.77344-.10645-.21387 1.28028-2.98779 4.58496-3.20019 6.29297-.21485 1.70703-1.27979.21387-1.27979-.95996 0-1.17383.42578-3.30762 1.06494-4.16211.64063-.85059.96045-2.66504.10742-3.19922-.85302-.53418-1.60107-.95996-2.24072-.21387-.64013.74805-3.19971 3.7334-3.84033 2.13379-.64014-1.59961-3.30615-4.26757-5.44043-4.47949-2.13379-.21387-3.52002-1.60156-6.40088.53223-2.87939 2.13379-8.31982 5.33496-9.28076 1.49316-.95996-3.83789-1.38672-10.4541-4.58643-7.46582-3.1997 2.98633-5.333 4.2666-3.94677 1.2793 1.3872-2.98731 4.2666-6.29297 5.54687-5.54688 1.27979.74805 3.52051 2.34766 4.16113 5.44043.63916 3.09375.95948 6.72168 4.26563 3.51953 3.30762-3.19921 3.41455-3.83789 8.74805-3.19921 5.33349.64062 5.97363 2.02539 6.82763 2.98828.85205.95898.53272 1.06543 2.87989.10547 2.34668-.95996 4.90673 0 5.22607 1.49316.32031 1.49414 1.81348 1.28027 1.81348.63965 0-.63965 3.09375-1.2793 3.94775.42676.85352 1.708.64063 4.48144-1.91895 5.76074m-16.32177 6.61328l-9.49365-5.86621.31982-1.70606 10.56055 5.86719.10595 2.13379-1.49267-.42871m10.24121-17.38672l-.96143-1.49414 1.92139-1.1748.64014 2.13476-1.6001.53418z" fill="#000"/>
      <path id="path156" d="M386.32715 223.16895l-9.50586-24.44727-15.70899-4.23535c16.29297-4.25195 33.03418-10.66406 48.01563-17.27832-3.62695 8.00097-7.23828 16.82031-10.75879 24.82031 7.57422 2.34668 15.14746 4.69434 22.82813 7.04102-10.21778 5.24511-22.33204 10.47949-34.87012 14.09961m-90.89893-13.03223c-20.58789-.44336-42.63769-1.18067-63.79004-6.31641l3.85498-10.49511c-20.11767-4.70215-39.67968-12.43165-58.34765-20.9336 3.79004 8.96094 7.89355 19.12598 11.82178 27.98047-7.12842 2.52832-16.12012 5.26758-25.50733 7.7207 8.44922 5.04004 21.86475 11.77246 40.15332 17.21289l-4.61865 12.35254c31.896 10.56055 63.89795 14.82715 96.43359 14.82715 32.53662 0 64.5376-4.2666 96.43408-14.82715l-4.61816-12.35254c18.28711-5.44043 31.70313-12.17285 40.15332-17.21289-9.38769-2.45312-18.37988-5.19238-25.50781-7.7207 3.92871-8.85449 8.03223-19.01953 11.82226-27.98047-18.66796 8.50195-38.23046 16.23145-58.34765 20.9336l3.85449 10.49511c-21.15332 5.13574-43.20117 5.87305-63.79053 6.31641m-90.89892 13.03223l9.50634-24.44727 15.70899-4.23535c-16.29248-4.25195-33.03467-10.66406-48.01611-17.27832 3.62695 8.00097 7.23828 16.82031 10.75927 24.82031-7.57422 2.34668-15.14795 4.69434-22.8291 7.04102 10.21875 5.24511 22.33301 10.47949 34.87061 14.09961m90.89892-10.60254c27.20264-.40332 54.34131-2.26465 79.79248-10.45801l13.33399 34.09961c-24.32129 7.44433-52.26953 14.0166-93.12647 13.82422-40.85644.19336-68.80468-6.37989-93.12646-13.82422l13.33447-34.09961c25.45117 8.19336 52.58984 10.05469 79.79199 10.45801z" fill="#000"/>
      <path id="path152" d="M204.5293 223.16895l9.50634-24.44727 15.70899-4.23535c-16.29297-4.25195-33.03467-10.66406-48.01611-17.27832 3.62646 8.00097 7.23828 16.82031 10.75927 24.82031-7.57422 2.34668-15.14746 4.69434-22.8291 7.04102 10.21875 5.24511 22.33252 10.47949 34.87061 14.09961z" fill="#c7c4e2"/>
    </g>
  </g>
</svg>
