<svg xmlns="http://www.w3.org/2000/svg" overflow="visible" viewBox="0 0 601 601">
  <g clip-rule="evenodd" fill-rule="evenodd">
    <path d="M300.50013.50063c-165.64509 0-300 134.34215-300 300 .012389 165.63598 134.35491 300 300 300 165.6542 0 300-134.36402 300-300 0-165.66514-134.3458-300-300-300z" fill="#68b0e5"/>
    <path d="M100.68238 449.83l61.64296 52.58227-21.54306-33.03245 28.7253 28.0038-35.18785-58.88632 47.38963 50.97893-19.38219-40.21104 28.00015 34.47181-21.77628-51.25223 1.76185 2.14994 4.23975 4.90112 4.31444 4.71892 2.35035 2.42323 23.48529 31.31979-5.1562-13.75593 1.80376 1.63978 4.60961 4.08123 4.6096 4.04479 4.62782 4.04479 4.62783 4.04479 4.6096 4.06301.94743.85633c-21.0074 7.25147-38.73525 17.21769-50.74937 28.86013-28.85466-16.92617-54.01435-39.4276-73.9486-66.08313zm103.85636-1.40292l-18.51129-51.58019 45.95028 71.09357-12.91783-43.08977 22.97514 38.77168-17.94648-77.54337 30.88252 73.2435-5.02866-46.67906 15.76011 40.7212 2.69653 23.39419c-9.96622 1.42114-19.64092 3.42532-28.84191 5.90321l-2.82406-3.02449-4.53673-4.66426-4.57316-4.55494-4.6096-4.46385-4.62783-4.40918-4.6096-4.37275-4.6096-4.33631-4.57317-4.3363zm62.67603 4.93756l.67413-77.34295 14.37541 81.15088.71057-52.43652 11.49668 51.70773 5.73923-98.386792 5.73923 98.386792 11.49668-51.70773.71057 52.43652 14.3754-81.15088.65591 74.13627-2.93338 25.39836c-14.10211-1.49402-28.29531-1.71265-42.12412-.83811-6.15829.40084-12.26191 1.02031-18.238 1.8402zm66.93946 1.4758l16.32492-42.197-5.02866 46.67906 30.88252-73.2435-17.94648 77.54337 22.97514-38.77168-12.93604 43.08977 45.96849-71.09357-18.52951 51.63485v.0182l-4.57316 4.3363-4.60961 4.33631-4.62782 4.37275-4.6096 4.40918-4.60961 4.46385-4.57316 4.55494-4.53672 4.66426-1.54868 1.67622c-10.00266-2.5872-20.20574-4.4274-30.44525-5.57525zm66.7026 9.45606l-5.13798 13.70127 23.35776-31.15581 2.51433-2.58721 4.31808-4.71892 4.22699-4.90112 1.69444-2.05884-21.75441 51.16113 28.02201-34.47181-19.40406 40.21104 47.40786-50.97893-35.20061 58.88632 28.73259-28.02202-21.53578 33.05067 60.48966-51.5984c-19.03967 25.19795-42.76182 46.66084-69.87284 63.09508-15.55969-12.6263-33.30575-21.90017-52.07212-28.29531l3.99013-3.53464 4.62782-4.02657 4.62782-4.04479 4.60961-4.04479 4.6096-4.08123z" fill="#f8a500"/>
    <path d="M84.495927 198.178453c31.159463 61.6192831-1.038528 134.680585 68.548263 178.644907 22.50325 71.33042 95.89615 89.67774 123.59021 167.2211-39.81021-66.11957-101.43314-81.3513-135.01583-157.87436-68.894441-47.079899-37.04263-108.6991811-57.122643-187.991647zm431.462513 0c-31.15581 61.6192831 1.03853 134.680585-68.54279 178.644907-22.50143 71.3122-95.89069 89.65952-123.60297 167.2211 39.82844-66.13778 101.44772-81.36952 135.02677-157.87436 68.88897-47.079899 37.0408-108.7174009 57.11899-187.991647zM362.31107 310.284736c1.98596 1.58512 3.99013 3.170241 5.97609 4.755361-2.1135 2.951604-4.24521 5.903208-6.3587 8.873031-3.07915-1.785538-6.14007-3.589296-9.21921-5.374834 1.89486-2.933384 5.37483-5.648131 9.60182-8.253558zm129.01424 81.843234c-2.14994 3.42532-4.28165 6.86886-6.43159 10.29417 8.49042 4.90112 16.98084 9.78402 25.47125 14.68514-.92921-10.23951-6.15828-18.94856-19.03966-24.97931zm-13.19112 23.01158c1.91307-3.57108 3.82615-7.14216 5.73923-10.71323 8.47219 4.91934 16.92617 9.83868 25.39837 14.75802-9.32853 4.29986-19.47695 4.11767-31.1376-4.04479zm-129.21465-82.827105c2.31391 1.056747 4.64604 2.113494 6.95995 3.170241 1.658-3.24312 3.33422-6.468021 4.99222-9.711141-2.98804-1.913076-5.97609-3.844373-8.98235-5.757449-1.7491 3.024483-2.56899 7.360789-2.96982 12.298349zm-110.72158-22.00949c-2.00418 1.566901-3.99013 3.152022-5.99431 4.737142 2.13171 2.951604 4.24521 5.921427 6.3587 8.873031 3.07914-1.785538 6.15829-3.589296 9.23743-5.374834-1.89486-2.933384-5.39305-5.648131-9.60182-8.235339zm-129.0197 81.825015c2.14082 3.44354 4.28347 6.86886 6.42611 10.31239-8.48313 4.86468-16.9699 9.7658-25.458491 14.6487.927387-10.23951 6.149175-18.94856 19.036021-24.97931zm13.18565 23.01158c-1.91126-3.57108-3.82069-7.14216-5.73194-10.71323-8.46855 4.91934-16.93711 9.83868-25.409302 14.75802 9.330352 4.29986 19.491512 4.11767 31.141242-4.04479zm129.2438-82.845325c-2.33213 1.056747-4.64604 2.113494-6.95995 3.170241-1.658-3.2249-3.33422-6.46802-5.01044-9.711141 3.00626-1.913076 5.99431-3.826153 9.00057-5.757449 1.7491 3.024483 2.56899 7.36079 2.96982 12.298349z" fill="#fff"/>
    <path d="M99.01459 470.59031l2.09528 2.6783-11.700744 9.12811c-2.031505 1.60334-3.827975 2.62365-5.387588 3.09736-1.559613.47372-3.177529.40084-4.866502-.21864-1.692617-.60125-3.295957-1.89485-4.820953-3.84437-1.481267-1.89485-2.370393-3.69861-2.654621-5.41127-.293338-1.71266-.02004-3.316.818068-4.81002.834466-1.4758 2.323021-3.06092 4.469311-4.73714l11.698918-9.12811 2.09163 2.67831-11.686164 9.1281c-1.758208 1.36649-2.926096 2.55077-3.501841 3.51642-.579389.98387-.779806 2.04061-.612184 3.18846.169444 1.14785.705105 2.31391 1.60334 3.46176 1.539571 1.96773 3.084608 3.02448 4.635111 3.17024 1.543215.12754 3.585652-.78345 6.127311-2.76941zm-14.918351 22.77472l18.482141-17.85539 2.42323 2.51433-5.13615 23.72215 14.51023-14.01101 2.26471 2.33214-18.48214 17.85538-2.423228-2.51433 5.148908-23.72215-14.522983 14.01101zm25.675311 25.32548l16.85511-19.38584 7.31342 6.3587c1.28814 1.11141 2.21735 2.04062 2.78763 2.75119.81442.98387 1.35008 1.96774 1.6088 2.98804.2569 1.00209.22957 2.07706-.0729 3.20668-.30609 1.14785-.87637 2.2046-1.71266 3.17025-1.43389 1.63978-3.17388 2.5872-5.2145 2.82406-2.04061.21864-4.43469-.85633-7.17494-3.24312l-4.974-4.31809-6.85246 7.87095zm11.40558-7.94382l5.01408 4.37275c1.658 1.43936 3.10283 2.14993 4.33448 2.13171 1.23348-.0182 2.33396-.56481 3.30689-1.69444.70693-.81989 1.10777-1.67622 1.20069-2.62365.0911-.9292-.11661-1.78553-.62859-2.55076-.33706-.49194-1.07861-1.23895-2.24285-2.24104l-4.96124-4.31808zm7.05652 23.50351l14.36629-21.29892 15.39935 10.4035-1.69626 2.51433-12.58257-8.49042-4.39826 6.52268 11.78273 7.94382-1.68533 2.49611-11.78455-7.94382-4.89019 7.25147 13.07816 8.81837-1.69626 2.51433zm46.54241-.54659l2.97712 1.658-7.19864 12.9907c-1.2517 2.24103-2.50157 3.89903-3.75145 4.95578-1.24988 1.03853-2.76758 1.60334-4.56223 1.69444-1.79829.0911-3.77514-.4555-5.94147-1.658-2.10438-1.16607-3.6312-2.47789-4.56223-3.95369-.94014-1.45759-1.31365-3.04271-1.12052-4.73714.18767-1.69444.94196-3.73506 2.2629-6.10363l7.19863-12.9907 2.97165 1.63978-7.18953 12.97248c-1.08225 1.94952-1.69626 3.4982-1.84748 4.6096-.15123 1.12963.082 2.18638.68324 3.18846.60672.98387 1.5505 1.8402 2.82589 2.55077 2.18637 1.20251 4.0211 1.5669 5.50419 1.09319 1.47398-.47371 2.99715-2.11349 4.55859-4.93756l7.18952-12.97248zm-4.4438 26.74663l11.25982-23.10268 8.70906 4.24521c1.54868.74701 2.6783 1.40293 3.40709 1.9313 1.03853.74701 1.82198 1.5669 2.33214 2.47789.51015.89277.76523 1.94951.76523 3.1338 0 1.18429-.2733 2.35035-.83811 3.47998-.96565 1.96773-2.38679 3.33422-4.29987 4.08123-1.91308.74701-4.51851.32795-7.77985-1.25717l-5.92324-2.89694-4.57681 9.38318zm8.96413-10.64035l5.97609 2.91517c1.96773.96564 3.55285 1.2936 4.73714.96564 1.18428-.34617 2.11349-1.16606 2.75119-2.49611.47371-.98386.63769-1.93129.49193-2.84228-.16398-.92921-.58303-1.69444-1.27538-2.31391-.43728-.38262-1.34827-.91099-2.75119-1.58512l-5.90321-2.87873zm12.79028 20.40615l9.20099-23.97722 3.18846 1.22072-8.12602 21.15316 11.80642 4.53672-1.07497 2.82407zm18.82103 7.34257l6.65022-24.83355 17.94648 4.81002-.80167 2.93338-14.6487-3.91725-2.04061 7.59765 13.73771 3.66217-.78345 2.91516-13.73772-3.68039-2.25925 8.45398 15.23174 4.08123-.78345 2.93338zm32.41298.43728l.49194-3.13381 9.5836 1.51225-.49193 3.1338zm40.61188-12.88139l3.38888.23686-1.0203 14.81268c-.1822 2.56899-.61948 4.59138-1.31183 6.0854-.69235 1.45759-1.82198 2.62365-3.42532 3.46176-1.58512.85633-3.60751 1.18429-6.0854 1.00209-2.38679-.16398-4.33631-.71057-5.79389-1.63978-1.4758-.92921-2.47789-2.20459-3.02448-3.82615-.5466-1.62156-.71057-3.7715-.52838-6.48624l1.03853-14.81268 3.38888.23686-1.03853 14.79445c-.14576 2.22282-.0547 3.88082.2733 4.95578.34617 1.09319 1.00209 1.94952 1.96773 2.58721.96565.65591 2.18638 1.02031 3.64396 1.11141 2.49611.18219 4.29987-.25508 5.44771-1.31183 1.12963-1.05674 1.82198-3.18846 2.04062-6.41336zm7.28792 26.36402l-.4555-25.68988 3.47998-.0547 13.84703 19.93243-.34618-20.16929 3.26134-.0547.4555 25.68988-3.4982.0547-13.84703-19.95065.3644 20.18751zm35.76542-1.2936l-2.67831-25.56235 9.5836-1.00209c1.94952-.20042 3.53464-.10932 4.77358.2733 1.23895.40083 2.24103 1.1114 3.02449 2.11349.78345 1.00209 1.23894 2.07706 1.36648 3.26134.10932 1.09319-.0729 2.14994-.58303 3.17024-.47372 1.03853-1.29361 1.89486-2.42323 2.62365 1.58512.29152 2.8605.94743 3.80793 1.9313.94743 1.02031 1.49402 2.25925 1.63978 3.75327.12754 1.20251 0 2.33213-.40084 3.42532-.40083 1.07497-.94743 1.9313-1.62156 2.56899-.69235.63769-1.58512 1.14784-2.6783 1.54868-1.07497.40083-2.44145.69235-4.06301.87455zm1.82197-15.17708l5.53882-.58303c1.49402-.14576 2.55076-.3644 3.18846-.63769.81989-.32796 1.43936-.83811 1.80375-1.4758.3644-.6377.51016-1.40293.41906-2.2957-.0911-.83811-.3644-1.5669-.83811-2.16815-.47372-.60125-1.11141-.98387-1.89486-1.14785-.76523-.16397-2.07705-.14575-3.91725.0547l-5.10154.52838zm1.23895 11.80642l6.3587-.67413c1.11141-.10932 1.85842-.23686 2.29569-.3644.76523-.21864 1.3847-.52837 1.87664-.91099.49193-.36439.87455-.89277 1.14784-1.54868.2733-.65591.3644-1.3847.2733-2.20459-.0911-.94743-.41905-1.7491-.98387-2.40501-.56481-.65592-1.2936-1.07497-2.20459-1.27539-.87455-.1822-2.14993-.20042-3.77149-.0182l-5.90321.61947zm31.75707-28.44107l3.33422-.71057 3.09736 14.52116c.52837 2.53255.67413 4.59138.40083 6.19472-.25507 1.62156-1.0203 3.0427-2.31391 4.28165-1.2936 1.25716-3.15202 2.13171-5.57525 2.64187-2.35035.51015-4.37275.51015-6.03075.0182-1.67621-.49194-2.98804-1.43937-3.95369-2.84229-.98386-1.40292-1.73088-3.42532-2.31391-6.08541l-3.07914-14.52116 3.33422-.71057 3.07914 14.50294c.4555 2.18638 1.00209 3.75328 1.62156 4.68249.63769.96564 1.49402 1.60334 2.60543 1.94951 1.11141.3644 2.38679.38262 3.80793.0729 2.44145-.51015 4.06301-1.43936 4.8829-2.7694.78345-1.33005.85633-3.57108.1822-6.7231zm20.60656 21.0985l-6.61377-21.66332-8.08958 2.47789-.89277-2.89694 19.47694-5.95787.87455 2.89695-8.12602 2.47789 6.63199 21.68153zm18.6024-14.50294l-1.23895-2.91517 8.90947-3.78971 1.23895 2.91516zm27.16568-33.05068l2.96983-1.658 7.19681 12.9907c1.25716 2.24103 1.98595 4.19055 2.22281 5.79389.21864 1.62156-.10932 3.20668-.98387 4.77358-.87455 1.58512-2.38679 2.96983-4.55494 4.17233-2.09528 1.16607-4.02657 1.7491-5.75745 1.76732-1.7491.0182-3.27956-.51015-4.62782-1.5669-1.33005-1.05675-2.64187-2.76941-3.97192-5.13798l-7.19681-12.9907 2.96983-1.658 7.19681 12.97248c1.07496 1.94952 2.05883 3.29778 2.93338 4.00835.87455.72879 1.89486 1.09319 3.0427 1.11141 1.16607.0182 2.38679-.34618 3.66218-1.03853 2.18637-1.22072 3.47998-2.58721 3.86259-4.09945.3644-1.49402-.21864-3.66217-1.78554-6.48624zm20.29683 17.9647l-13.62839-21.79085 2.96982-1.8402 22.13703 9.948-10.69501-17.10837 2.76941-1.73088 13.61017 21.79085-2.9516 1.85842-22.15525-9.96622 10.71323 17.10837zm21.554-14.61226l-15.45037-20.51547 14.8309-11.18694 1.82197 2.42323-12.11615 9.12811 4.73714 6.28582 11.35092-8.54507 1.80376 2.40501-11.35092 8.54507 5.26552 6.97818 12.60808-9.49251 1.82198 2.42323zm25.90852-21.82729l-17.52743-18.80281 12.68097-11.82463 2.05883 2.22281-10.18485 9.4925 5.42949 5.83033 8.81837-8.21712 2.05884 2.20459-8.80015 8.23534 7.94382 8.52686zm5.17442-23.10268c-3.17025-2.84228-4.90112-5.93964-5.1562-9.25564-.25508-3.316.81989-6.32227 3.24312-9.00057 1.58512-1.76732 3.44354-2.98805 5.55703-3.64396 2.11349-.63769 4.26343-.67413 6.4498-.0547 2.16815.60126 4.20877 1.78554 6.12185 3.4982 1.93129 1.7491 3.316 3.69861 4.13589 5.84855.81989 2.16815.98386 4.29986.49193 6.4498-.51015 2.14993-1.51224 4.04479-3.00626 5.70279-1.62156 1.80376-3.4982 3.00626-5.64813 3.64395-2.13172.6377-4.28165.6377-6.44981.0182-2.14993-.61947-4.06301-1.69444-5.73922-3.20668zm2.38679-2.56899c2.29569 2.07706 4.66426 3.07915 7.10571 3.04271 2.44145-.0364 4.50028-1.00209 6.1765-2.86051 1.71266-1.91307 2.45967-4.08123 2.22282-6.50446-.23686-2.44145-1.58512-4.75536-4.04479-6.97817-1.54869-1.40292-3.13381-2.35035-4.77359-2.86051-1.62156-.52837-3.2249-.56481-4.77358-.12754-1.54868.43728-2.87872 1.27539-4.02657 2.53255-1.60334 1.80376-2.36857 3.88082-2.31391 6.28583.0729 2.38679 1.54868 4.8829 4.42741 7.4701zm26.03606-11.58777l-20.24218-15.81477 2.09528-2.67831 20.24217 15.81477zM291.67597 15.66254l-.51015 14.86005c-.10932 2.72021.12753 4.8993.72879 6.48988.60125 1.59059 1.63978 2.81678 3.1338 3.70226 1.49402.87819 3.46176 1.33915 5.86677 1.42297 2.45967.0838 4.48206-.29699 6.03074-1.19522 1.5669-.89641 2.67831-2.09163 3.29778-3.58748.65591-1.5013 1.00209-3.56561 1.09319-6.14917l.51015-14.80357-3.35244-.11478-.52837 14.80357c-.10932 3.21943-.71057 5.39669-1.82198 6.4917-1.09318 1.09501-2.89694 1.56326-5.39305 1.47945-1.4758-.0547-2.71475-.36258-3.71684-.96747-.98386-.61036-1.658-1.4339-2.04061-2.50522-.38262-1.07132-.52837-2.72204-.4555-4.95396l.56482-14.86005zm28.11311.45549l-3.1338 25.50769 19.02145 2.33395.40083-3.01719-15.65078-1.93676 1.07496-8.6544 14.06567 1.70902.40084-2.96072-14.12033-1.76549.96565-7.79989 15.03131 1.87846.40084-3.01719zm-47.13456.62676c-.56481-.002-1.12962.0419-1.71266.11297-2.33213.28787-4.39096 1.08225-6.14006 2.39225-1.7491 1.31001-3.00626 3.05546-3.77149 5.23819-.76523 2.19184-.98387 4.54219-.67414 7.06016.30974 2.52526 1.07497 4.76994 2.33214 6.66115 1.25716 1.89668 2.93338 3.27045 4.95578 4.15593 2.02239.88002 4.17232 1.14056 6.48624.85451 2.27747-.28241 4.28164-1.04764 6.03074-2.33395 2.00418 1.2025 3.95369 2.01146 5.86677 2.44874l.69235-2.44874c-1.3847-.33525-2.93338-.9365-4.6096-1.82198 1.12962-1.39928 1.89485-2.96618 2.33213-4.72621.43727-1.75274.54659-3.71501.2733-5.80846-.30974-2.53073-1.09319-4.71528-2.33214-6.60467-1.23894-1.89122-2.8605-3.27045-4.90112-4.15593-1.51224-.6632-3.1338-1.02031-4.82824-1.02396zm-.10932 2.96072c1.20251.0128 2.36858.28058 3.46176.7962 1.45758.68142 2.64187 1.72906 3.53464 3.18846.89277 1.45394 1.45758 3.23037 1.71266 5.29467.43727 3.62938-.23686 6.4334-2.00418 8.48495-1.3847-.9201-3.0427-1.51771-5.0651-1.82198l-.56481 2.5617c1.20251.14394 2.38679.46825 3.53464 1.02395-1.02031.57939-2.1135.98752-3.316 1.13874-2.53255.30974-4.73714-.36075-6.59556-1.93494-1.85842-1.57237-3.00626-3.97373-3.42532-7.28791-.41905-3.42168.0911-6.1018 1.54868-8.02763 1.43937-1.92037 3.4071-3.04817 5.92143-3.35973.41906-.051.83811-.062 1.25716-.0565zm-19.93243.11296l-3.37066.57028 4.44563 25.33642 3.37066-.62676zm103.61587 1.36648l-5.73923 24.99571 8.98235 2.10621c1.51224.34618 2.93338.53202 4.17233.5138 1.22072-.0128 2.27747-.21135 3.24312-.57028.94742-.35893 1.87663-.96383 2.78762-1.7655.91099-.80167 1.76732-1.88028 2.55077-3.24494.78345-1.36466 1.3847-2.99351 1.82198-4.89565.52837-2.23193.65591-4.31991.40083-6.20748-.25507-1.88939-.87455-3.53464-1.93129-4.95214-.81989-1.10047-1.94952-1.9568-3.29778-2.62-.96565-.47007-2.38679-.91645-4.33631-1.36648zm-124.98767 3.0172l-3.29778.79802 5.73923 24.99572 15.66901-3.58748-.67413-2.96071-12.29835 2.84775-5.11976-22.09148zm127.59309.68324l5.30196 1.19522c1.96773.45549 3.35244.99298 4.15411 1.53775 1.12962.75976 1.96773 1.92765 2.51433 3.53099.52837 1.60334.47371 3.70044-.12754 6.32044-.43728 1.89121-1.02031 3.44171-1.76732 4.66791-.74701 1.22072-1.58512 2.12807-2.55077 2.73296-.69235.43181-1.5669.70875-2.56899.79803-1.00208.0893-2.33213-.0729-3.99013-.4555l-5.33839-1.19704zm24.7789 3.24494l-4.6096 14.12033c-.83811 2.58538-1.22073 4.67884-1.07497 6.37874.12754 1.69444.83811 3.18664 2.04061 4.44198 1.20251 1.26263 2.89695 2.27565 5.19264 3.0172 2.35035.76523 4.39097.94743 6.14007.51197 1.74909-.42998 3.1338-1.2936 4.1541-2.5617 1.02031-1.2608 1.9313-3.12469 2.73297-5.57889l4.6096-14.12033-3.24312-1.02577-4.55494 14.06384c-.98387 3.06275-2.16815 5.00133-3.53464 5.75016-1.34826.74702-3.24312.72151-5.62991-.0565-1.3847-.45003-2.45967-1.08225-3.24312-1.93676-.78345-.86179-1.23894-1.88757-1.31182-3.01719-.0729-1.13692.2733-2.71475.96565-4.83918l4.55494-14.12032-3.18846-1.02395zm-167.84058 1.02578c-1.07496.0401-2.36857.28787-3.75327.74154l-9.18277 3.0172 7.98026 24.42543 9.27387-3.0755c1.5669-.50287 2.84228-1.02942 3.82615-1.65071.98387-.6213 1.73088-1.34098 2.27747-2.10621.52838-.76523.91099-1.70537 1.07497-2.84775.16398-1.13691.0364-2.27383-.34617-3.41621-.4555-1.42296-1.25717-2.51068-2.38679-3.30142-1.12963-.78163-2.47789-1.18611-4.09945-1.13874.96564-.94014 1.54868-1.96956 1.82197-3.0755.2733-1.10594.21864-2.14082-.10932-3.18846-.36439-1.11869-1.0203-2.08252-2.00417-2.90241-.96565-.81806-2.13171-1.29907-3.4071-1.42478-.32796-.0328-.61947-.0692-.96565-.0565zm0 3.13197c.78345-.0127 1.45758.19313 2.04062.68325.58303.49011 1.00209 1.18064 1.25716 1.99324.2733.85451.34618 1.63431.10932 2.33395-.23686.70693-.72879 1.30636-1.4758 1.82198-.56481.38808-1.58512.79256-3.02448 1.25352l-5.22908 1.70719-2.38679-7.34439 4.82824-1.59423c1.7491-.56845 3.06092-.84904 3.86259-.85451zm-20.67944 3.41621l-3.06093 1.36649 6.03075 13.55187c1.31182 2.94796 1.69444 5.13251 1.18429 6.60466-.51016 1.46487-1.91308 2.74026-4.20877 3.75692-1.33005.59761-2.53255.85451-3.69862.73973-1.14784-.11479-2.14993-.56482-2.9516-1.36649-.81989-.79438-1.658-2.22828-2.56899-4.26889l-6.03074-13.55005-3.13381 1.36648 6.03075 13.55005c1.11141 2.487 2.29569 4.35088 3.53464 5.52242 1.23894 1.16788 2.71474 1.80011 4.44562 1.93676 1.73088.133 3.71684-.2733 5.92143-1.25352 2.25925-1.00573 3.88081-2.26836 4.90112-3.75692 1.00209-1.48856 1.43936-3.0427 1.36648-4.66973-.0911-1.62156-.65591-3.62027-1.71266-5.97791l-6.03074-13.55005zm225.6337 6.49171l-11.66065 22.88768 2.89694 1.47945 9.96622-19.4733-3.29778 22.8312 2.73297 1.42297 16.39779-15.77104-9.80224 19.13076 2.96983 1.48127 11.66065-22.8312-4.09944-2.10621-13.61018 13.15104c-1.36648 1.32822-2.36857 2.31938-3.06092 3.01902.14576-.86727.34618-2.16451.61947-3.93001l2.84229-18.9595-4.55495-2.33395zm-201.03701.22775c.92921.007 1.76732.21863 2.45967.73972.67414.51926 1.18429 1.24623 1.47581 2.16269.25507.77616.29151 1.52135.16397 2.22099-.12753.69964-.38261 1.2936-.78345 1.76549-.40083.4719-.94742.87637-1.658 1.25352-.40083.21682-1.1114.51016-2.16815.85269l-6.0854 1.93676-2.73297-8.37016 5.62991-1.82198c1.5669-.50287 2.78763-.73972 3.69861-.73972zm-52.21241 6.83059c-.80531.0346-1.66529.23139-2.56352.56846-.8618.30609-2.05701.85268-3.52917 1.70901l-8.37017 4.83917 12.86863 22.26275 2.90241-1.70902-5.23818-9.05158 5.75198-3.24676c3.14656-1.81834 4.90294-3.74599 5.35115-5.75017.45003-2.00599.12754-3.97555-.96747-5.86494-.63405-1.10776-1.40475-1.96045-2.39226-2.61818-.98022-.6632-1.98231-1.05493-3.01719-1.13874-.25872-.0219-.52838-.0128-.79621 0zm-.79802 3.30142c.66137-.0547 1.29907.051 1.93676.34254.85451.39354 1.5669 1.05674 2.1062 1.99324.74337 1.28632.90006 2.47607.51198 3.64395-.38808 1.17154-1.51406 2.31574-3.41621 3.41621l-5.75016 3.30143-4.61142-7.91467 5.69368-3.30143c1.33368-.76523 2.272-1.21161 2.84592-1.36648.22229-.0583.46279-.0966.68325-.11479zm-20.04176 7.79989l-15.20076 10.64946 14.69061 21.00922 15.71456-10.98834-1.70902-2.44874-12.92511 8.99692-5.01044-7.11664 11.61511-8.14242-1.70719-2.50522-11.67159 8.14242-4.49846-6.4334 12.41131-8.71088-1.70902-2.44874zm309.51756 1.7655l-22.82938 15.37384 2.9516 2.04973 6.77776-4.78269 8.81837 6.20565-2.04061 8.08412 3.18846 2.22099 6.14006-27.10192zm-.12754 3.18846c-.45549 1.37012-1.02031 3.17206-1.58512 5.40945l-1.87664 7.34439-7.12393-4.95396 6.61378-4.55494c1.42114-.98751 2.7694-2.08434 3.97191-3.24494zm14.86734 7.23143l-15.83299 20.21302 12.64453 9.90609 1.87663-2.39044-9.96621-7.79988 13.95634-17.87907zm-346.79522 5.69368c-.62858.004-1.22073.12207-1.82198.34071-1.2025.42998-2.65644 1.40292-4.38368 2.90423l-8.59791 7.45917 16.85329 19.35852 2.5617-2.22099-7.46282-8.59609 2.96072-2.5617c.66502-.58122 1.13691-1.00391 1.47944-1.19522.48465-.24415 1.05493-.37169 1.65254-.4555.59761-.0893 1.36648-.082 2.39043.11479 1.02395.19677 2.44874.5721 4.21424 1.08043l6.03439 1.82198 3.24494-2.78945-7.97115-2.39043c-1.56144-.44821-3.03724-.64681-4.38368-.68325-.62858-.005-1.37013.0765-2.33395.34071 1.63977-1.87299 2.43962-3.63484 2.50521-5.35114.0711-1.71631-.45367-3.29414-1.65071-4.66973-.92738-1.06586-2.05519-1.8074-3.35972-2.22099-.65227-.20589-1.30818-.2897-1.93494-.28423zm-.34253 3.4162c1.177.0128 2.16451.50287 2.96071 1.42297.54295.62312.90552 1.33186 1.02577 2.16451.12026.83082-.0656 1.62702-.51379 2.44874-.45368.81442-1.27357 1.77278-2.44692 2.78944l-5.46593 4.78269-5.58254-6.4334 6.09269-5.29466c1.43572-1.24988 2.74937-1.8894 3.92819-1.87846zm364.2862 4.841l-16.85329 19.41499 2.56899 2.22099 16.85329-19.35851z"/>
    <path d="M80.508765 186.728472l1.25261 5.408996-3.928639-2.960713c-.0036.01822-.05329 0-.05694 0-.229569.473714-.455494.892769-.683242 1.366483l5.181249 3.814765 2.732967 11.501234 1.42342 7.230974 1.195672 7.1171 1.024863 7.060163.797115 6.946289.626305 6.832416.455494 6.77548.398558 6.661605.341621 6.5477323.227747 6.4338584.227747 6.3769216.227747 6.3199847.284684 6.206111.284684 6.092238.455495 5.978364.512431 5.921427.683241 5.864491.854052 5.750616 1.024863 5.69368 1.309546 5.579807 1.537295 5.465933 1.82198 5.408996 2.10666 5.352059 2.50522 5.181249 2.84684 5.181249 3.2454 5.010438 3.70089 5.010438 4.15639 4.839628 4.61188 4.782695 5.12431 4.66881 5.63674 4.55495 5.97837 4.3272-23.68571 15.20212-.68324-1.0818-.39856-.68324-.39856-.6263-.45549-.62631-.39856-.68324-.39856-.62631-.39856-.6263-.39855-.68324-.39856-.62631-.39856-.6263-.39856-.68324-.39855-.62631-.39856-.6263-.39856-.68324-.39856-.62631-1.02486-1.59423-2.22053 1.0818-1.19568.56937-1.0818.6263-1.0818.62631-1.0818.68324-.96792.68324-.96793.68324-.91099.68324-.91098.68324-.85406.79712-.79711.74018-.740183.74018-.740178.79711-.683242.79712-.626305.79711-.626304.79712-.569368.85405-.569368.85405-.512432.85405-.455494.85406-.455494.91098-.398558.85406-.341621.91099-.341621.91098-.34162.96793-.284684.91099-.227748.96792-.227747.96793-.17081.96793-.170811.96792-.113873.96793-.341621 3.18846-.227747.17072.227747.0568 2.960714 1.30955.910988.39856.910989.34162.967926.34162.910989.28468.967925.22775.910989.22775.967932.22774.96792.17072.96793.11388.96792.11387 1.02487.0568H104.02366l.96793-.0568 1.02486-.0568 1.02486-.11387 1.02487-.17072 1.02486-.22775 1.02486-.22774 1.02486-.28469 1.0818-.34162 1.02487-.34162 1.08179-.39856 1.0818-.45549 1.0818-.51243 1.0818-.51243 1.0818-.56937 1.0818-.62631 1.0818-.68324 1.13874-.74018 2.04972-1.36648-.91099-1.7081-.34162-.62631-.39856-.68324-.34162-.68324-.34162-.62621-1.0818-2.04973-.39855-.6263-.34163-.68325-.34162-.68324-.34162-.68324-.39855-.6263-1.19568-2.27748 23.68571-15.20212 2.44828 5.35206 3.41621 6.71854 3.53008 6.37692 3.7009 6.0353 3.81476 5.80756 3.92864 5.5798 8.1989 10.3625 4.27026 4.89656 4.27026 4.72576 2.39134 2.44828 6.4908 6.54773 4.49801 4.27026 4.55494 4.21333 4.55495 4.15638 4.61188 4.09945 4.61188 4.04252 4.66881 4.04251 4.61189 4.04251 4.61188 4.04251 4.55494 4.15639 4.55494 4.15639 4.55495 4.27026 4.49801 4.44107 4.38413 4.498 4.3272 4.66882 4.27026 4.83963 4.21332 5.06738 4.09945 5.23818 3.98557 5.46593 3.92864 5.75062 4.61188 7.34485.28469 2.61909c1.05675.0911 2.11349.15487 3.18846.22775l-2.33441-6.09224-10.3625-89.44771-15.77149-136.819134-.0568-.34162L83.697226 193.560888zm439.438225 0l-2.96071 6.319985-168.07744 122.926551-.28468.227748v.34162L333.19428 450.17505l-10.87492 94.28725-1.70811 4.44107c.92921-.0729 1.82198-.21181 2.73297-.28469l.17072-1.7081 5.18125-8.1989 3.8717-5.75062 3.98557-5.46593 4.09945-5.23819 4.21333-5.06737 4.27026-4.83963 4.32719-4.66882 4.44107-4.498 4.49801-4.44107 4.49801-4.27026 4.55494-4.15639 9.16683-8.25584 4.61188-3.98557 4.66882-4.04252 4.61188-4.04251 4.61188-4.09945 19.92788-19.07383 2.56215-2.56215 4.27026-4.72576 4.27026-4.89656 1.65117-2.04973 2.96071-3.64395 3.58702-4.66882 3.92864-5.57981 3.81477-5.80755 3.70089-6.0353 3.53008-6.37692 3.41621-6.71854 2.96071-6.4908 23.34409 15.71456-.22775.39856.0568.0568-1.19567 2.44828-.34162.62631-.39856.68324-.34162.68324-.34162.68324-.39856.62631-1.0818 2.04972-.34162.62631-.34162.68324-.34162.68324-.34162.62631-.91099 1.7081 2.04972 1.36648 1.0818.74018 1.0818.68324 1.13874.62631 1.02486.56937 1.13874.51243 1.0818.51243 1.02486.45549 1.0818.39856 1.0818.34162 1.02486.34162 1.02486.28469 1.02486.22774 1.0818.22775.96793.17072 1.02486.11387 1.02486.0568 1.02487.0568H498.48158l.96793-.0568.96792-.11387.96793-.11388.96793-.17072.96792-.22774.96793-.22775.91099-.22775.91098-.28468.96793-.34162.91099-.34162.91099-.39856 2.96071-1.30955h.0568l.17072-.0568-.22775-.17072-.34162-3.18846-.11388-.96793-.17071-.96793-.17072-.96792-.22775-.96793-.22775-.96792-.28468-.91099-.28469-.96793-.34162-.91099-.39855-.91098-.39856-.85406-.4555-.91099-.45549-.85405-.51243-.85405-.51243-.85405-.56937-.85405-.62631-.79712-.68324-.79711-.68324-.79712-.68324-.79711-.79712-.74018-.79711-.74018-.85405-.79712-.85406-.68324-.91098-.68324-.96793-.68324-1.02486-.68324-1.02486-.68324-1.0818-.62631-1.13874-.6263-1.19567-.56937-2.22054-1.0818-1.02486 1.59423-.39856.6263-.39856.68325-.39855.6263-.39856.62631-.39856.68324-.39856.6263-.39855.62631-.39856.68324-.39856.6263-.74018 1.13874-.39855.6263-.39856.68325-.39856.6263-.39856.6263-.0568.0568-22.94553-15.42987 4.89656-3.53008 5.63674-4.55495 5.12432-4.66882 4.61188-4.782687 4.15638-4.896565 3.7009-4.953501 3.24539-5.010439 2.84684-5.181248 2.50522-5.181249 2.10666-5.352059 1.82198-5.408997 1.59423-5.465932 1.25261-5.579807 1.02486-5.69368.85406-5.750617.68324-5.86449.51243-5.921427.45549-5.978364.28469-6.092238.28468-6.206111.22775-6.3199849.22775-6.3769216.28468-6.4338584.28468-6.5477321.39856-6.661606.4555-6.775479.68324-6.832416.79711-6.946289.96793-7.060164 1.19567-7.1171 1.42342-7.230973 2.84684-11.899791 4.61188-3.359272c-.21864-.473714-.44638-.910988-.68324-1.366483l-3.41621 2.505219zm-4.27026 9.166825l-3.64396 7.572594-2.39134 5.978364-2.10666 5.978364-1.82198 5.978364-1.59423 6.035301-1.30955 6.092238-1.19567 6.092237-.96793 6.092238-.85405 6.092238-.79711 6.092237-.68325 6.0922379-.6263 6.09223762-.68324 6.03530078-.62631 5.9783637-.74017 5.921428-.79712 5.921427-.91099 5.86449-1.02486 5.750617-1.25261 5.69368-1.42342 5.636743-1.65117 5.579807-1.87891 5.408996-2.22054 5.352059-2.50522 5.238185-2.84684 5.124313-3.24539 4.953501-3.64396 4.896565-4.09945 4.782691-4.55494 4.611881-5.06738 4.44107-5.63674 4.327195-6.4908 4.44107-.28468.68324-82.50142-52.95122.56936-.740178.39856-.569368.39856-.569368.39856-.569368.39855-.569368.39856-.512432.39856-.569368.39856-.569368.39855-.569368.39856-.512431.39856-.569368.39856-.569368.39855-.569368 1.0818-1.480357-1.30954-1.081799-.39856-.284684-.34162-.341621-.39856-.284684-.39856-.284684-1.0818-.910988-.39855-.284684-.34162-.284684-.39856-.284684-.39856-.284684-.34162-.284684-1.7081-1.366484v-.854052h-.17072zm-430.613021.455494L238.05289 308.744035l-1.82198 1.480357-.34162.284684-.39855.284684-.34163.284684-.39855.284684-.34162.284684-1.13874.910988-.39856.284684-.34162.284684-.39856.341621-.34162.284684-1.36648 1.081799 1.13874 1.480357.39855.569368.39856.569368.39856.569368.39856.512431.39855.569368.39856.569368.34162.569368.39856.512432.39856.569368.45549.569368.39856.569368.39856.569368.74018 1.081799.51243.683241-82.84305 53.122038-.6263-1.93585-6.54773-4.38414-5.63675-4.327195-5.06737-4.498007-4.55495-4.611881-4.09945-4.725754-3.64395-4.896565-3.2454-5.010438-2.84684-5.067376-2.50522-5.238185-2.22053-5.352059-1.87892-5.465933-1.65116-5.52287-1.42342-5.636743-1.25261-5.69368-1.02487-5.750617-.91099-5.86449-.79711-5.921427-.74018-5.921428-.6263-5.9783637-.68325-6.03530078-.6263-6.09223762-.68324-6.0922379-.79712-6.092237-.85405-6.092238-.96792-6.092238-1.13874-6.092237-1.366484-6.092238-1.594231-6.035301-1.821977-6.0353-2.106662-5.978364-2.391345-5.921428zm-.569368 1.821978c31.159459 61.6192825-1.034883 134.703359 68.551909 178.667681 22.50324 71.33042 95.91573 89.68001 123.60979 167.22338-39.81021-66.11957-101.4714-81.36269-135.05409-157.88575-68.894437-47.079898-37.02759-108.7128457-57.107609-188.005311zm431.467069 0c-20.07819 79.2742455 11.78137 140.925413-57.10761 188.005311-33.57904 76.50484-95.22566 91.74796-135.05409 157.88575 27.71228-77.56159 101.10837-95.91118 123.6098-167.22338 69.58132-43.964322 37.39609-117.0483985 68.5519-178.667681zM238.2237 310.281328c4.20877 2.587209 7.67053 5.322453 9.56538 8.255836-3.07914 1.785538-6.14462 3.566522-9.22376 5.35206-2.11349-2.951604-4.24521-5.873601-6.37692-8.825204 2.00418-1.585121 4.03113-3.215791 6.0353-4.782692zm124.06529 0c1.98595 1.585121 3.99241 3.197571 5.97836 4.782692-2.11349 2.951603-4.20649 5.85538-6.31998 8.825204-3.07914-1.785538-6.14462-3.566522-9.22376-5.35206 1.89485-2.933383 5.33839-5.650408 9.56538-8.255836zm-113.64585 9.736193c1.74909 3.024483 2.55987 7.36079 2.96071 12.298349-2.33213 1.056747-4.63238 2.074777-6.94629 3.131524-1.658-3.2249-3.33422-6.436136-5.01044-9.679256 3.00626-1.913076 5.98975-3.81932 8.99602-5.750617zm103.22641 0c3.00627 1.913077 6.00798 3.837541 8.99602 5.750617-1.658 3.24312-3.35244 6.493073-5.01044 9.736193-2.31391-1.056747-4.63238-2.131714-6.94629-3.188461.40084-4.937559 1.21162-9.273866 2.96071-12.298349zm10.818 5.010439l82.89998 53.17897-1.59423 4.72576-2.56216 6.14917-2.73296 5.92143-3.01766 5.69368-3.24539 5.46593-3.47315 5.23819-3.64395 5.01043-3.81477 4.95351-3.98557 4.72575-4.09945 4.66882-4.27026 4.498-4.3272 4.49801-4.44107 4.38414-9.10989 8.71123-4.61188 4.3272-4.61188 4.38423-4.61188 4.38413-4.61188 4.49801-4.55495 4.55494-4.55494 4.61188-4.44107 4.83963-4.3272 4.89656-4.27026 5.12432-4.15638 5.23818-3.98558 5.52287-3.81477 5.69368-3.64395 5.97837-3.47315 6.20611-3.24539 6.54773-2.96072 6.83242-.91099 2.3344 23.68571-205.427971.62631.284684.45549.17072.39856.227747.45549.170719.4555.227747.39856.17072.45549.227747.39856.170719.45549.227747.4555.17072.39855.227747.4555.170719.39856.170719 2.44828 1.138736.85405-1.708104.62631-1.195672.34162-.626305.91099-1.821978.28468-.569368.96792-1.821977.34163-.626305.91098-1.821978.85406-1.651167zm-124.34997 1.081799l.45549.854052.91099 1.821977.34162.626305.96793 1.821978.28468.569368.96792 1.821977.28469.626305.6263 1.195673.85406 1.708104 2.44828-1.138736.39856-.170719.45549-.17072.39856-.227747.45549-.170719.4555-.227747.39855-.17072.4555-.227747.45549-.170719.39856-.227747.45549-.17072.39856-.227747.4555-.170719.22774-.113874 23.5149 203.662933-.28468-.74018-3.01765-6.83241-3.2454-6.54773-3.47314-6.20612-3.64396-5.97836-3.81477-5.69368-3.98557-5.52287-4.09945-5.23819-4.27026-5.12431-4.38413-4.89656-4.44107-4.83963-4.55495-4.61188-4.55494-4.55495-4.61188-4.498-4.61188-4.38414-4.61189-4.38413-4.61188-4.3272-4.61188-4.32719-8.93907-8.82521-4.3272-4.44107-4.27026-4.498-4.09945-4.66882-3.98558-4.72576-3.81476-4.9535-3.64396-5.01044-3.47314-5.29512-3.2454-5.409-3.01765-5.69368-2.73297-5.92142-2.50522-6.14918-1.25261-3.53008zM109.20491 392.09951c2.14083 3.44354 4.23428 6.91896 6.37692 10.3625-8.48312 4.86468-16.96215 9.74986-25.450745 14.63276.927386-10.23952 6.18698-18.96451 19.073825-24.99526zm382.10287 0c12.88138 6.03075 18.14462 14.75574 19.07383 24.99526-8.49042-4.90112-17.01727-9.78858-25.50769-14.6897 2.14993-3.42532 4.28392-6.88024 6.43386-10.30556zM116.6067 404.39786c1.91125 3.57108 3.83936 7.18998 5.75061 10.76105-11.64972 8.16246-21.81408 8.34238-31.144426 4.04252 8.472196-4.91934 16.925256-9.88423 25.393816-14.80357zm367.24236 0c8.47219 4.91934 16.97855 9.88423 25.45075 14.80357-9.32853 4.29986-19.48378 4.11994-31.14443-4.04252z" color="#000" fill="#2b0000"/>
    <path d="M261.05536 190.714048l-1.59423 2.619093-.4555.854052-.51243.854052-.45549.854052-.39856.910989-.39856.854052-.34162.854052-.34162.854052-.28468.910989-.28469.854052-.22774.910988-.22775.854052-.17072.910989-.11387.854052-.0568.910989-.0568.910989v31.31524h-1.42342c-4.26342-2.332132-6.59328-5.568419-8.59745-8.939078-2.1135 3.498197-5.09243 6.552287-9.33764 8.939078h-1.13873V226.98279l-.0568-.854052-.11387-.910989-.11388-.854052-.11387-.854052-.17072-.910989-.22775-.854052-.22774-.854052-.28469-.910989-.28468-.854052-.34162-.910988-.34162-.854052-.4555-.910989-.45549-.854052-.4555-.854052-1.59423-2.67603-1.59423 2.619093-.51243.910989-.45549.854052-.4555.854052-.45549.854052-.39856.910989-.34162.854052-.34162.854052-.28468.854052-.28469.910988-.22775.854052-.17072.910989-.17071.854052-.11388.910989-.11387.910989-.0568.854052v9.96394h-.79711c-2.71475-2.204593-4.17233-5.235908-5.46594-8.36971-1.36648 3.26134-3.32055 6.128677-6.0353 8.36971h-.56936V226.98279l-.0568-.854052-.11387-.910989-.11388-.854052-.11387-.854052-.17072-.910989-.22775-.854052-.22774-.854052-.28469-.910989-.28559-.854052-.34162-.910988-.39856-.854052-.39856-.910989-.45549-.854052-.4555-.854052-1.59423-2.67603-1.65117 2.67603-.45549.854052-.45549.854052-.4555.854052-.45549.854052-.39856.910989-.34162.854052-.34162.854052-.28469.910988-.28468.854052-.22775.854052-.22775.910989-.17071.854052-.0568.910989-.11387.910989-.0568.854052v48.1115959h11.21655v-.3416208h12.86772v.3416208h11.21655v-.3416208h20.49689v39.7418869h11.21655v-3.643956h8.88215v-5.238185h9.16682l-.34162-3.985576-.17072-2.505219-.11387-2.448283-.11388-2.277472v-2.277472l.0568-2.163598.0568-2.049725.11388-2.049725.22774-1.935851.22775-1.821978.28469-1.76504.28468-1.708104.39856-1.6511677.39856-1.5942304.45549-1.4803568.51243-1.42342.51243-1.3664832.56937-1.3095464.6263-1.25260958.62631-1.19567281.74018-1.13873601.68324-1.0248624.74018-1.0248624.79711-.9679256.85406-.9109888.85405-.854052.85405-.854052.91099-.7971152.96792-.6832416.96793-.6832416 1.02486-.6832415.39856-.227747.39856.227747 1.02486.6832415.91099.6832416.96792.6832416.91099.7971152.91099.854052.85405.854052.79712.9109888.79711.9679256.74018 1.0248624.74018 1.0248624.68324 1.13873601.62631 1.19567281.6263 1.25260958.56937 1.3095464.51243 1.3664832.51243 1.42342.4555 1.4803568.39855 1.5942304.39856 1.6511677.28469 1.708104.28468 1.76504.22775 1.821978.22774 1.935851.11388 2.049725.11387 2.049725v4.44107l-.0568 2.277472-.17072 2.448283-.17072 2.505219-.34162 3.985576h9.16682v5.238185h8.88214v3.643956h11.2166v-39.7418869h20.49725v.3416208h11.21655v-.3416208h12.86772v.3416208h11.21655V227.893779l-.0568-.910989-.0568-.910989-.11387-.854052-.17072-.910989-.22775-.854052-.22774-.910989-.22775-.854052-.34162-.910988-.34162-.854052-.34162-.854052-.39856-.854052-.39856-.910989-.45549-.854052-.4555-.854052-.51243-.854052-1.65116-2.619093-1.59424 2.619093-.45549.854052-.45549.910989-.39856.854052-.39856.910988-.34162.854052-.28468.854052-.28469.910989-.22775.854052-.17071.910989-.17072.854052-.17072.854052-.11388.910989-.0568.854052-.11388.854052v10.817992h-.68324c-2.73296-2.241033-4.61188-5.051433-5.97836-8.312773-1.29361 3.133801-2.78991 6.1264-5.52287 8.312773h-.68324v-9.907003l-.0568-.910989-.0568-.910989-.11388-.854052-.17072-.910989-.22774-.854052-.22775-.910989-.22775-.854052-.34162-.910988-.34162-.854052-.34162-.854052-.39856-.854052-.39856-.910989-.45549-.854052-.51243-.854052-.4555-.854052-1.65116-2.67603-1.59423 2.67603-.4555.854052-.45549.910989-.39856.854052-.39856.910988-.34162.854052-.28468.854052-.28469.910989-.22774.854052-.17072.910989-.22775.854052-.11387.854052-.11388.910989-.11387.854052-.0568.854052v10.817992h-1.19567c-4.26343-2.386791-7.22414-5.440881-9.33764-8.939078-2.02239 3.370659-4.39096 6.606946-8.65439 8.939078h-1.30955v-32.226229l-.11387-.854052-.11387-.910989-.17072-.910989-.22775-.854052-.17072-.854052-.28468-.910988-.34162-.854052-.28469-.910989-.39855-.854052-.39856-.854052-.39856-.854052-.45549-.910989-.4555-.854052-.51243-.854052-1.59423-2.619093-1.59423 2.619093-.51243.910989-.4555.854052-.39855.854052-.39856.910989-.28469.854052-.34162.910988-.28468.854052-.22775.910989-.17072.854052-.17072.854052-.17072.910989-.11387.854052-.0568.854052-.11388.910989v27.158853h-6.49079v-5.807553l-.11388-.910989-.11387-.910989-.17072-.854052-.22775-.910989-.17072-.854052-.28468-.854052-.34162-.910988-.28469-.854052-.39855-.854052-.39856-.910989-.39856-.854052-.45549-.854052-.4555-.854052-.51243-.854052-1.59423-2.67603-1.65117 2.67603-.45549.854052-.45549.854052-.39856.910989-.39856.854052-.28468.910988-.34162.854052-.28469.910989-.22775.854052-.17071.854052-.17072.910989-.17072.854052-.11388.854052-.0568.910989-.0568.854052-.0568.854052v4.953501h-8.31278v-4.554944l-.0568-.512431v-.512431l-.0568-.512431-.0568-.512431-.0568-.455495-.0568-.512431-.11387-.512431-.0568-.512431-.11388-.512432-.11387-.455494-.11388-.512431-.11387-.512431-.17072-.512432-.17072-.512431-.11387-.455494-.17072-.512431-.22775-.512432-.17072-.512431-.17072-.455494-.17072-.512431-.22774-.512432-.22775-.455494-.22775-.512431-.22774-.512431-.22775-.455495-.22775-.512431-.28468-.512431-.28469-.455495-.22774-.512431-.28469-.512431-.28468-.455494-1.36649-2.334409-1.42342 2.334409-.28468.455494-.22775.512431-.28468.512431-.28468.455495-.22775.512431-.28469.512431-.22774.455495-.22775.512431-.22775.512431-.22774.455494-.17072.512432-.22775.512431-.17072.455494-.17072.512431-.22775.512432-.11387.512431-.17072.455494-.17072.512431-.11387.512432-.17072.512431-.11388.512431-.11387.455494-.0568.512432-.11387.512431-.11387.512431-.0568.512431-.0568.455495-.0568.512431v.512431l-.0568.512431v5.010439h-8.3697v-5.750617l-.0568-.910989-.11387-.854052-.11388-.854052-.11387-.910989-.22775-.854052-.17072-.854052-.22774-.910989-.28469-.854052-.28468-.854052-.34162-.910988-.39856-.854052-.39856-.910989-.45549-.854052-.4555-.854052-1.59423-2.67603-1.65117 2.619093-.45549.854052-.51243.910989-.4555.854052-.39855.854052-.39856.854052-.34162.910989-.34162.854052-.28469.854052-.28468.910988-.22775.854052-.22774.910989-.17072.854052-.11388.910989-.0568.854052-.0568.910989v4.896565h-6.49079v-27.158854l-.0568-.854052-.11387-.854052-.11388-.910989-.11387-.854052-.22775-.854052-.17072-.910989-.22774-.854052-.28469-.854052-.28468-.910988-.34162-.854052-.39856-.910989-.40412-.854052-.45549-.910989-.45549-.854052z" color="#000"/>
    <path d="M200.6037064 274.6651044h8.6908446v-46.7702266c-.1275386-4.4456312-1.2389464-8.9094822-4.008356-13.3551134-2.7876294 4.4456312-4.5731698 8.9094822-4.6824886 13.3551134zm196.3365648 0h-8.6908446v-46.7702266c.1275386-4.4456312 1.2389464-8.9094822 4.008356-13.3551134 2.7876294 4.4456312 4.5731698 8.9094822 4.6824886 13.3551134zm-75.247774 30.4999452h-7.1603814c2.8422888-28.24069-4.1358946-41.7597816-15.760127-48.28247-11.6242324 6.5226884-18.6024158 20.04178-15.7419072 48.28247h-7.1603814v-55.3699722H321.6924972zm9.5471752-57.5199086H266.322525v-13.6101906h7.7798546v-6.1400726c.1093188-4.4456312 1.8948592-8.9094822 4.6824886-13.3551134 2.7876294 4.4456312 3.8990372 8.9094822 4.008356 13.3551134v6.1400726h10.8772206v-5.7574568c.1275386-5.101544 2.0588374-10.2213078 5.101544-15.3228518 3.0609264 5.101544 4.9740054 10.2213078 5.101544 15.3228518v5.7574568h10.8954404v-6.1400726c.1093188-4.4456312 1.2207266-8.9094822 4.008356-13.3551134 2.7694096 4.4456312 4.55495 8.9094822 4.6642688 13.3551134v6.1400726h7.7980744zm-.2368574 62.949409h-7.3972388v-60.7994726h7.3972388zm32.4130242-60.3257578H342.025794v24.050136h21.3900452zm0-11.205177H342.025794v9.8751316h21.3900452zm24.050136 11.205177h-13.7195094v24.050136h13.7195094zm0-11.205177h-13.7195094v9.8751316h13.7195094zm-46.3147316 74.9926968h-8.6908446V206.5230524c.1275386-4.463851 1.2389464-8.9094822 4.008356-13.3733332 2.7876294 4.463851 4.5731698 8.9094822 4.6824886 13.3733332zm31.702452-39.3912076h-8.6908446v-46.7702266c.1093188-4.4456312 1.2207266-8.9094822 4.008356-13.3551134 2.7876294 4.4456312 4.5731698 8.9094822 4.6824886 13.3551134zM266.5593824 310.59455h7.3972388v-60.7994726h-7.3972388zm-32.431244-60.3439776h21.3900452v24.050136h-21.3900452zm0-11.205177h21.3900452v9.8933514h-21.3900452zm-24.050136 11.205177h13.7195094v24.050136h-13.7195094zm0-11.205177h13.7195094v9.8933514h-13.7195094zm46.3147316 74.9926968h8.6726248V206.5048326c-.1093188-4.463851-1.2207266-8.9094822-4.008356-13.3551134-2.7694096 4.4456312-4.55495 8.8912624-4.6642688 13.3551134zm-31.6842322-39.3912076h8.6726248V227.876658c-.1093188-4.4456312-1.2207266-8.9094822-4.008356-13.3551134-2.7876294 4.4456312-4.55495 8.9094822-4.6642688 13.3551134z" fill="#fff"/>
    <path d="M199.05118 111.1164l-1.59423.11388-1.59423.11387-1.65116.11387-1.59424.17081-1.65116.17081-1.65117.22775-1.65117.22775-1.65116.28468-1.70811.28469-1.65117.28468-1.65116.28468-1.70811.28469-1.7081.34162-1.65117.34162-1.7081.28468-1.70811.34162-1.65116.28469-1.70811.34162-1.7081.28468-1.65117.34162-1.7081.28469-1.65117.22774-3.58702.51244-3.35927.51243-3.18846.56937-3.01765.51243-2.84684.56936-2.67603.56937-2.56216.51243-2.39134.56937-2.27747.56937-2.10666.56937-2.04973.51243-1.93585.56937-1.87892.56936-1.76504.51244-1.7081.56936-1.02486.28469c-10.62395 4.13953-21.25064 6.5573-33.13722 7.7434 3.175707 1.54322 6.318618 3.1666 9.56538 4.55495 5.41856 2.05519 10.47683 2.25561 16.45474 2.73296l2.1636.11388h1.30954l1.76504 1.87891 1.76504.85405 1.5373.62631 1.53729.6263 1.53729.56937 1.59424.51243 1.65116.39856 1.70811.39856 1.7081.34162 1.76504.28468 1.76504.28469 1.82198.17081 1.87891.11387 1.87892.11387h3.8717l1.99279-.0569 2.04972-.17081 2.04973-.17081 2.10666-.22775 1.02486-.11387.91099.96792 1.19567.62631.91099.39855.91099.39856.91099.34162.96793.34162 1.02486.28469.96792.28468 1.02487.17081 1.02486.22775 1.0818.11387 1.02486.11388 1.13874.11387 1.0818.0569h2.22053l1.19567-.0569 1.13874-.0569 1.19567-.11387 1.19568-.11388 1.19567-.11387 1.25261-.17081.0568-.0569.11388.56937.51243.85405.6263.68325.74018.45549.68324.34162.79712.28468.74018.17082.79711.11387.79712.11387.85405.0569.91099.0569h.85405l.91099.0569h.91099l.28468.56937.62631.79712.74017.6263.79712.39856.85405.22775.85405.17081.85406.0569h1.76504l.96792-.0569.91099-.11388.96793-.17081h.17072l.34162.79712.51243.74018.56937.6263.68324.56937.68324.39856.74018.34162.74018.17081.74017.17081.74018.0569h.68324l.68325-.0569.6263-.0569.34162-.0569.39856.34162.68324.4555.62631.39856.68324.39855.79711.28469.79712.28468.79711.22775.85405.11387h.85406l.96792-.0569.91099-.22775.91099-.34162.91099-.4555.17072-.11387.11387.56937.17072.68324.51243 1.19567 1.30955.74018.96792.28469.91099.0569.85406-.0569.79711-.22775.79712-.28469.68324-.39855.68324-.39856.56937-.39856.6263-.45549.56937-.4555.0568-.11387.28468 1.65117 1.99279.6263.91099.0569.91098-.0569.85406-.22775.79711-.34162.68324-.39855.62631-.4555.6263-.56937.51243-.56937.51244-.6263.45549-.6263.39856-.62631.34162-.68324.28468-.68324.11388-.34162.28468.39855.22775.34162.22774.39856.28469.4555.28468.51243.28469.51243.28468.51243.28468.51243.28469.51243.28468.51243.28469.51244.34162.51243.28468.51243.28469.51243.28468.51243.34162.51243.28468.51243.34162.51243.28514.51243.28469.51244.34162.51243.34162.512428.34162.512432.28468.512431.39856.455494.34162.512431.34162.512432.34162.512431.34163.455494.39855.512431.34162.512432.39856.455494.39856.512431.39856.455495.39855.512431 2.39135 2.789903 1.53729-2.84684.0568-.05694.0568-.05694h.0568l.11387-.05694h.74009l.28469.05694.34162.05694.28468.05694 6.83242 1.935851-4.21333-5.181249h.0568l.34162.05694.39856.113874.34162.113873.39856.170811.34162.17081.39855.170811.34162.17081.34163.17081.34162.227748 3.58701 2.391345.0568-3.871702.11387.113873.22775.341621.22775.284684.22775.341621.22774.284684.28469.341621 1.19567 1.59423 2.10666.455495 1.42342.284684 1.36648.227747 1.42342.227747 1.42342.17081 1.42342.170811 1.42342.17081.56937.05694c.5466 2.712925 1.28677 5.445436 2.56216 8.141962 10.73145-1.785538 21.13266-4.827329 31.37218-8.54052.49193-2.135357-.18903-4.296678-1.5373-6.433858l.22775-.113874 1.7081-.910988 1.76504-1.024862 1.82198-1.13873 2.04973-1.30955 1.13873-1.42342.51243.17081.68325.11387.68324.17082.68324.0569.68324.0569.74018.0569h.74018l.68324-.0569.74018-.0569.74018-.0569.74017-.17082.79712-.11387 1.59423-.45549.74018-1.25261.45549.17081.51243.17081.56937.17081.56937.17081.56937.17081.56937.17081.51243.17081.56936.17081.85406.22775 1.48035-.0569.79712-.11387-1.30955.74018 3.53008 2.7899 2.10667 1.651162 1.02486.797115 1.02486.854052 1.0818.797115 1.02486.797116 1.02486.854052 1.02487.797115 1.02486.797115 1.0818.854052 1.02486.797115 1.02486.797115 1.02487.854052 1.02486.797116 1.02486.797115 1.0818.854052 2.04972 1.651167 1.02487.797115 1.0818.797115 1.02486.854052 1.02486.797116 1.02486.797115 1.02487.797115 1.02486.854052 1.0818.797115 1.02486.854052 1.02486.797116 1.02486.797115 1.02487.854052 1.25261.967925 1.02486.455495.91099.227747.85405.05685.79711-.05685.68325-.113874.68324-.113873.56937-.05685 1.25261-.284684.68324-.740178H384.26572l.51243-.113874.51243-.05685.45549-.05685.4555-.113874.45549-.05685.4555-.170719.39856-.170719.39855-.17072.39856-.227747.45549-.284684.28469-.284684.39856.05685.6263.113874.62631.05684.56936.05685.56937.05685.56937.05684h.51243l.51243-.05684.51243-.05685.4555-.05685.51243-.113873.45549-.113874.4555-.170719.45549-.227747.39856-.284685.91099-.740178 1.19567.113874.62631.05684.6263.05685.62631.05685h1.19567l.56937-.113874.56936-.05685.56937-.113873.56937-.113874.56937-.227747.51243-.170719.56937-.341621.45549-.341621.4555-.455494 1.99278-2.220535-10.13475-6.149175-1.13873-.683241-7.91422-4.782692-1.19567-.683241-7.91421-4.839628-1.13874-.68324-3.8717-2.27747h.45549l.62631.0569h1.76504l.56936-.0569.56937-.0569.51243-.0569.51244-.11388.51243-.11387.51243-.11388.51243-.17081.51243-.17081.22775-.11387.51243.34162.74018.4555.74018.39855.74017.39856.68325.39856.74017.34162.74018.34162.68324.34162.74018.28468.68324.28469.74018.22775.68324.22774.74018.227747.68324.170811.68325.17081.74017.170811.68325.113873.68324.113874.68324.05694.68324.05694h.68324l.68324.05694.68324-.05694h.68325l.68324-.113873.68324-.05694.6263-.113874.68379-.114329.62631-.17081.51243-.113874.68324.227747.68324.284684.74018.227748.62631.284684.68324.227747.68324.17081.68324.227747.6263.170811.68325.227747.6263.17081.68324.113874.62631.17081.6263.113874.62631.113874.6263.113873.62631.113874.6263.05694.62631.05694.56936.05694.62631.05694.6263.05694H419.11159l.6263-.05694.56937-.05694.56937-.05694.51243-.05694.45549-.05694.17072.113873.85405.341621.79712.341621.85405.341621.79712.341621.85405.284684.79711.284684.79712.227747.85405.227747.79721.227747.85405.227747.79711.170811.79712.17081.85405.170811.79712.113873.85405.113874.79711.05694.79712.113873.85405.05694h.79712l.79711.05694h.79712l.85405-.05694.79711-.05694.79712-.05694.79711-.05694.79712-.113874.79711-.113874.79712-.113873.79711-.170811.79712-.17081.22775-.05694.0568.05694.62631.17081.68324.170811.6263.17081.62631.170811.68324.17081.56937.113874.6263.113873.62631.113874.6263.05694.62631.113873.56937.05694h.56936l.62631.05694h1.7081l.56937-.05694h.51243l.56937-.05694.56937-.113873.51243-.05694.51243-.113874.56937-.113873.51243-.170811.51243-.113873.51243-.170811.4555-.17081.51243-.227747.45549-.227748.22775-.113873.11387.05694.91099.17081.79712.113874.85405.17081.79711.05694.79712.113873.79711.05694.74018.05694.74018.05694H472.23349l.68324-.05694.68324-.05694.62631-.113873.6263-.05694.62631-.170811.6263-.113873.56937-.170811.56937-.227747.56937-.17081.51243-.284684.56936-.227747.51244-.284684.45549-.341621.45549-.341621.4555-.341621.39856-.398557.39855-.398558.34163-.398558h.0568l1.0818-.05694 1.02486-.113874 1.02487-.17081.91098-.170811.91099-.284684.85405-.284684.79712-.341621.74036-.398557.74018-.455495.68324-.512431.62631-.51243.56936-.56937.51243-.6263.4555-.62631 1.36648-2.27747.56937.17081 1.7081-1.02486.91099-.62631.85405-.68324.68325-.68324.6263-.79711.51243-.79712.34162-.96793.22775-1.87891-1.13874-1.02486-.28468-.28469-.34162-.34162-.28468-.28468-.34163-.28469-.34162-.28468-.28468-.28468-.34162-.34162-.34162-.28469-.28469-.28468-.34162-.28469-.28468-.28468-.34162-.34162-1.70811-1.53729-3.24539.45549-2.22054.34162-2.22053.22775-2.22054.22775-2.27747.17081-2.22054.17081-2.27747.11387-2.27747.11387h-2.27747l-2.27747.0569h-2.27748l-2.27747-.0569-2.27747-.0569-2.33441-.11388-2.27747-.17081-2.33441-.11387-2.33441-.17081-2.33441-.22775-2.33441-.22775-2.3344-.22774-2.33441-.28469-2.33441-.28468-2.33441-.28469-2.39135-.34162-2.33441-.34162-2.39134-.39855-2.33441-.34163-2.39135-.39855-2.3344-.39856-2.39135-.39856-2.39135-.45549-2.22053-.39856-1.82198-.6263-1.99279-.62631-1.93585-.68324-1.99279-.68324-1.93585-.62631-1.99278-.68324-1.93586-.68324-1.99278-.62631-1.93585-.68324-1.99279-.6263-1.99279-.68324-1.93585-.68325-1.99279-.6263-1.93585-.68324-1.93585-.68324-1.99279-.62631-1.99279-.68324-1.93585-.68324-1.99279-.62631-1.93585-.68324-1.99279-.68324-1.93585-.6263-1.99279-.68325-1.93585-.68324-1.99279-.6263-1.93585-.68324-1.99278-.68325-1.93586-.6263-1.99278-.68324-1.99279-.62631-1.93585-.68324-2.04973-.68324-1.36648-.39856-1.30955-.34162-1.30954-.28468-1.25261-.28469-1.30955-.22774-1.30955-.17081-1.25261-.17081-1.19567-.17081-1.25261-.0569-1.19567-.0569-1.19567-.0569h-1.19568l-1.19567.0569-1.13874.11388-1.19567.11387-1.0818.17081-1.13873.17081-1.0818.22775-1.13874.28468-1.0818.34162-1.02486.34162-1.02486.39856-1.02487.45549-1.02486.4555-.96792.51243-.96793.56937-.96792.6263-.91099.62631-.91099.68324-.85405.68324-.91099.79712-.62631.6263-.91099.51243-1.02486.68324-1.02486.62631-1.02486.6263-1.02487.56937-.56936.34162-.91099-1.0818-1.0818-.96792-1.02486-.79712-1.02487-.74018-1.0818-.68324-1.13873-.6263-1.13874-.56937-1.19567-.45549-1.19567-.4555-1.25261-.34162-1.30955-.28468-1.36648-.17081-1.30955-.17081h-2.84684l-1.42342.11387-1.48036.22775-1.48035.28468-1.5373.39856-1.59423.45549-1.59423.51243-1.65116.68324-1.65117.68325-1.70811.85405-1.76504.91099-1.82197 1.02486-1.82198 1.0818-1.87892 1.19567-1.87891 1.30955-1.93585 1.42342-2.04973 1.48035-1.99278 1.59424-4.27026 3.47314.28468.22775-.56937-.17081-.74018-.34162-.79711-.28469-.79712-.34162-.79711-.34162-.79712-.39856-.79711-.39855-.85405-.39856-.79712-.4555-.85405-.45549-.85405-.51243-.85406-.4555-.85405-.56936-.85405-.51244-.85405-.56936-.91099-.56937-.85405-.62631-.91099-.6263-.74018-.51243-.45549-.51243-.68325-.68325-.74017-.6263-.74018-.62631-.79712-.45549-.79711-.45549-.79712-.39856-.85405-.34162-.79712-.22775-.85405-.22775-.85405-.11387h-.17072l-1.13874-2.22054-.51243-.96792-.56936-.85405-.56937-.91099-.56937-.85405-.62631-.79712-.6263-.79711-.6263-.79712-.68325-.74018-.68333-.74018-.74018-.68324-.74018-.68324-.74017-.6263-.79712-.62631-.79711-.6263-.79712-.56937-.79711-.56937-.85406-.51243-.85405-.51243-.85405-.51243-.85405-.51243-.91099-.4555-.91099-.39856-.91099-.45549-.91099-.39856-.96792-.39856-.96793-.34162-.96793-.34162-.96792-.34162-.96793-.34162-.96792-.28468-1.02486-.34162-1.42342-.39856-1.48036-.34162-1.48036-.28469-1.53729-.22774-1.5373-.22775-1.48035-.11387-1.59423-.11388H200.645z" color="#000"/>
    <path d="M341.5520792 165.80362138c2.459673-1.39017074 4.919346-1.76914258 7.3972388-1.13691552 3.7168392 1.61063032 7.4518982 1.4849137 11.1687374.56845776 2.7876294-.75976566 5.6299182-1.3300454 8.9094822-.56845776 12.1343868 7.32618158 24.2687736 14.65418514 36.3849406 21.97854474-1.2025068 1.5851226-3.7897184 1.7673206-7.014623 1.3300454-3.8808174-3.4435422-8.8001634-5.8485558-14.211444-7.7616348 4.7007084 2.7147502 9.2192188 5.46594 11.3691552 8.7090644-.8745504.8745504-3.0244868 1.002089-6.4315894.3826158-2.3139146-2.3503542-6.3587102-4.6824886-11.1869572-7.014623 3.6075204 2.5872116 6.8870844 5.1744232 9.474296 7.7616348-1.1478474.819891-3.279564 1.1478474-6.4498092.9474296l-8.7090644-6.2493914c2.3321344 2.4050136 4.6824886 4.7918074 7.014623 7.196821-1.5122434.273297-3.0427066.819891-4.55495 0-11.0594186-8.7090644-22.1006174-17.4272387-33.160036-26.14359102zM97.8440344 133.82422842c22.59073002-2.39408172 25.89397976-9.56357302 64.90257156-14.96574372 18.12505704-2.82771296 36.49061544-8.45580918 50.95713664-3.97373838 10.4399454 2.9971571 19.13079 8.09687912 23.959037 17.82443034-5.5205994 1.28996184-8.8548228 3.8899273-10.02089 7.79989638-7.28792 1.7491008-12.2619254 6.0307538-14.484741 13.36786726 9.1463396-.92374386 17.9829426-1.16788918 24.505631 3.34151132-.4919346 2.7147502-3.5710808 6.52451038-6.3587102 5.37301902-.2915168-1.2571662.1093188-3.32146954-.8745504-3.70226336-2.8058492 1.9677384-5.8667756 5.66817978-8.4357674 3.8990372-.5830336-1.15513532-.3279564-2.02786374-.2004178-2.6783106.4737148-2.33760034-1.9312988-1.79647228-2.095277-1.00937692-3.8625976 3.33240142-7.1421616 1.52864122-9.8751316-.76705358-3.2066848.45185104-6.3222706.74336784-7.2514804-3.8990372-5.2655222.9474296-9.838692 1.32822342-9.474296-2.22828154-4.7735876-.02915168-9.8204722.08563306-10.02089-2.22828154l11.6971116-5.01226698c-14.5940598 4.83917888-26.67196522 5.80665026-35.09315678 1.11322978 10.99747128-1.78007446 19.66098618-4.89019432 26.73026858-8.91312616-27.52282988 9.94072288-48.30433376 10.78247764-62.93847712 3.34151132 26.60272998-3.3433333 35.82194878-6.68484462 49.0203719-10.02635594-33.12724036 8.107811-60.03241902 10.93916792-74.64834258 3.3433333zm118.793096 16.62374552c2.550772-4.60778742 6.6320072-7.37537504 11.9886284-8.61978738 2.368574-6.8233151 12.6809808-9.89699536 18.7299544-2.5234423 9.838692 7.105722 18.675295 10.90819426 26.2729516 10.72417428-1.7491008.56116984-3.4982016 1.12233968-5.2473024 1.68168754 1.5304632.58849954 3.0791462.71421616 4.6278292 3.15384738-1.9495186-.41723342-3.6257402.43545322-5.2655222 1.47215984 1.8401998.7014623 3.5346412 1.72905902 4.2087738 5.0468846-3.3342234-.73425794-5.4112806.09838692-7.5794368.84175476 1.5122434 1.23530244 2.6965304 2.59814348 2.73297 4.41465754-1.7491008-.6741326-3.4982016-.35346412-5.2473024.42087738 1.3300454 1.31546956 2.2228156 2.99351314 2.095277 5.46594-2.1317166-1.46122796-4.55495-2.37950588-7.561217-2.10256492-.0364396 1.03488464-.455495 1.91854494 1.0567484 3.57472476-2.2592552-.66320072-4.0447956-.60307538-4.8464668 1.05128246-4.2269936-4.86286462-7.2150408-10.33427056-10.294187-15.7692369-2.7147502-5.21815072-8.5450862-8.0804813-18.7117346-7.9893823 1.3118256-1.82198 3.4982016-2.80402722 6.5044686-2.94431968-4.4820708-.9838692-8.9641416-.2824069-13.4644322 2.10074294zm24.5602904-8.55237412c-1.093188-.63404904-2.4961126-.25689918-3.1338056.83993278-.637693 1.09865394-.2550772 2.50157854.8381108 3.13562758 1.093188.63404904 2.5143324.25689918 3.1338056-.83993278.637693-1.09865394.273297-2.50340052-.8381108-3.13562758zm26.2729516 4.01017798c22.2645956-18.63703342 35.8383466-18.5113168 45.4766208-9.85508982-5.374841 5.22726062-13.1364758 8.3537783-22.5561124 10.04457574 9.7111534.46278292 20.6065938-5.00315708 31.8482104-12.12892086 8.3082288-8.14789456 19.6591642-9.66378192 33.5426518-5.6845776l62.9129694 21.22424502c25.4712804 4.68977652 50.6874836 7.8982833 74.6465206 3.97920432 1.7126612 1.57965666 3.4253224 3.15749134 5.1197638 4.737148-.0546594 1.45211806-1.3847048 2.90423612-3.9719164 4.35817616-6.103633-1.45394004-11.84287-.82171298-17.4363486.75794368 5.9396548-.32066848 11.4966938-.32249046 14.393642 1.8948592-1.6944414 2.95342958-4.8646866 4.81731512-10.6039236 4.737148-2.5872116 4.10492094-8.472207 5.17806716-17.6185466 3.22126064-4.2452134 2.33760034-9.7293732 2.39954766-16.488919.18948592-7.9620526 2.02057582-16.1791824 1.0111989-24.6331696-3.03177472-5.2473024 1.0111989-11.4966938 0-18.766394-3.03177472-6.0671934 2.02057582-12.8813986.50468846-20.4608354-4.54766208-4.0812352 1.98960216-9.565395 1.92765484-18.1833604-2.65280288-5.8849954.70328428-13.0818164-1.70172932-20.4790552-4.54766208 2.3321344 2.02057582 4.9375658 3.53646318 7.7798546 4.54766208-6.0671934.50468846-12.1343868-.75794368-18.2015802-3.7897184 8.3993278 4.16869024 9.474296 6.31680466 3.2249046 6.44252128-5.7938964-1.51770934-11.387375-3.8534877-16.671117-7.38995088 2.277475 3.47269388 5.3019618 5.93783282 9.0916802 7.38995088-7.3607992 1.98960216-12.9724976-1.23165848-17.8007446-6.82149312 1.3300454 2.9060581 2.73297 5.81029422 6.6320072 8.71635232-18.948592 12.662761-34.1256854 12.32205074-48.5193274 9.28481008-1.2571662-1.70537328-2.5325522-3.41074656-3.7897184-5.11611984 1.8948592-.00728792 3.7897184-.30791462 5.6845776-1.32640144-.8745504-1.07314622-1.7673206-2.14811442-2.641871-3.22126064 2.4050136-.71603814 4.9375658-.75976566 6.8142052-4.16869024-1.8401998-.37714986-2.7876294-1.64160398-3.6075204-3.03177472 2.5872116-.18948592 4.4274114-1.1387375 5.5023796-2.8422888-1.1296276.1275386-2.277475.06559128-3.4071026-1.32822342 1.1660672-1.79647228 2.368574-3.5619709 3.0244868-5.87406352-4.0447956 1.1387375-7.3243596.75976566-9.8569118-1.13509354z" fill="#fff"/>
  </g>
</svg>
