<svg xmlns="http://www.w3.org/2000/svg" fill-rule="evenodd" version="1.0" clip-rule="evenodd" viewBox="0 0 477 600" shape-rendering="geometricPrecision" text-rendering="geometricPrecision" image-rendering="optimizeQuality">
  <defs>
    <style>
      .fil1{fill:#000}.fil5{fill:#097754}.fil3{fill:#d10429}.fil2{fill:#f5d402}
    </style>
  </defs>
  <g id="Layer_x0020_1">
    <path id="path2778" fill="#b07f55" d="M182.93 156.21l-14.64-3.34-30.67-16.18-19.38-1.06-1.33-37.557-37.156-29.869L41.866 109.1l-5.412 12.03 1.738 372.06 24.523-29.67 5.144 1.27 25.324-27.4 21.517-54.26 6.35-22.52 29 34.28-10.96 20.25 9.96-.74.87 8.49 9.15-3.88 2.47 11.7 20.18-20.45 28.07 13.83-53.26 94.89-18.97 14.03 34.2 12.83 35.09-40.89-5.08 26.86-10.43 26.06 42.7 24.59 46.38-27.4-22.79-47.84 7.42-3.41 30.07 43.57 32.75-16.24-42.57-49.78-28-59.87 29.53-9.76 20.12 19.31 3-12.56 10.63 5.14-1.34-10.48 10.69 2.33-13.03-20.65 33.08-27.72 20.91 65.34 30.81 35.22 6.54-.8 22.4 27.66-.21-383.35-41.37-43.501-40.15 32.741 1.67 35.28-18.04.67-26.86 13.77-15.04 4.94-7.08 1.41-9.22-10.03-12.37-24.72-.8-24.392 7.62-15.902-1.41-15.036 6.83.134-4.35-10.159 6.02-2.402-9.02-7.954 3.14-3.674-34.08-14.634-26-1.737-7.02 3.072-3.4 6.349 6.88 19.446-7.35 7.35 7.28 14.232.27 31.207-5.81 26.33-11.7 19.91z"/>
    <path id="rect2244" d="M176.23.0011811c-3.8374 0-7.1882.97913-9.1429 2.5004 3.1063.90472 5.3646 3.7689 5.3646 7.252v8.837H163.6159c-3.4606 0-6.3272-2.2264-7.2532-5.302-1.5213 1.9547-2.4992 5.3055-2.4992 9.1417 0 3.8374.97795 7.1894 2.4992 9.1417.90591-3.1075 3.7689-5.3646 7.2532-5.3646H172.4517v42.4786c0 3.339-2.0882 6.1098-4.9972 7.1303 4.2154.57402 7.8425 6.2315 8.837 9.3248.99685-3.0874 4.624-8.7508 8.8382-9.3248-2.9409-1.0028-5.061-3.7689-5.061-7.1303v-42.4796h8.8382c3.4618 0 6.3272 2.2264 7.2532 5.3043 1.5201-1.9547 2.498-5.3079 2.498-9.1429 0-3.8374-.97677-7.1882-2.498-9.1417-.90591 3.1063-3.7701 5.3622-7.2532 5.3622h-8.8382v-8.8358c0-3.4618 2.2252-6.3272 5.3032-7.2532-1.9524-1.5189-5.3055-2.498-9.1417-2.498z" class="fil1"/>
    <path id="path2303" d="M176.23 1.8307c-1.9972 0-3.7571.37323-5.2406.85276 1.9807 1.722 3.2917 4.2189 3.2917 7.0701v8.837c0 .12638-.036614.24685-.061417.36614v1.4008h-1.402c-.11929.024803-.24094.060236-.36496.061417h-8.83692c-2.8181 0-5.2842-1.2898-7.0075-3.2303-.49488 1.4988-.91417 3.2102-.91417 5.2417 0 1.9972.37323 3.7571.85276 5.2406 1.722-1.9807 4.2177-3.2894 7.0689-3.2894H174.281093c-.011811.18307-.061417.36024-.061417.54685v.91417c.024803.11929.060236.23976.061417.36496v42.4786c0 2.7579-1.422 4.9276-3.2917 6.6425 1.337.82441 2.4886 1.8626 3.4736 3.0484.87756 1.0535 1.226 2.0846 1.8284 3.1677.60354-1.0807.95079-2.1142 1.8284-3.1677.96968-1.1646 2.1047-2.1661 3.4134-2.987-1.8862-1.7102-3.2917-3.9342-3.2917-6.7039v-44.2465h1.4634c.11929-.023622.23976-.059055.36496-.059055h8.837c2.8169 0 5.2831 1.2898 7.0075 3.2291.4937-1.4976.91535-3.2079.91535-5.2406 0-1.9961-.37441-3.7571-.85394-5.2406-1.722 1.9807-4.2177 3.2894-7.0689 3.2894h-8.837c-.1252 0-.24685-.036614-.36496-.061417h-1.402v-1.4008c-.024803-.11811-.060236-.23976-.061417-.36614v-8.8358c0-2.8181 1.2909-5.2831 3.2303-7.0087-1.4988-.49252-3.2091-.91417-5.2406-.91417l-.0011811-.0011811v.0011811z" class="fil2"/>
    <path id="path2516" class="fil3" d="M143.54 415.77l-25.71 39.31-12.47-.38-12.851 6.05-4.16 13.99 1.89 6.42 13.981 15.12 11.34-6.43 9.08-9.82 2.26-8.7L159.41 429l-1.51-10.59-7.18 4.54-2.65-8.69z"/>
    <path id="path2750" class="fil3" d="M307.97 427.48l34.39 46.5 3.41 9.07 15.12 13.61 4.53-1.14 16.64-19.28-3.78-13.22-15.51-9.45-11.71 1.13-26.09-38.93-4.53-1.89-1.88 7.56-7.57-2.27z"/>
    <path id="rect2290" transform="matrix(.94917 .51749 -.2404 1.1002 121.02 486.2)" class="fil1" d="M0 0h20.32v19.506H0z"/>
    <path id="rect2273" d="M31.242 280.34l-6.9472 3.1701 78.495 171.92h8.3504l-79.898-175.09v-.0011811.0011811zm92.574 202.76l-5.6669 5.8512 3.535 7.8012 6.8858-3.1689-4.7528-10.484h-.0011811z" class="fil1"/>
    <path id="rect2288" transform="matrix(.94917 .51749 -.2404 1.1002 123.79 492.27)" class="fil2" d="M0 0h12.604v12.099H0z"/>
    <path id="path2754" fill="#0b45bb" d="M120.48 277.8l.38 92.61 6.8 10.96 43.09 23.81 55.19 25.33 7.18 7.56 47.64-26.08 55.93-26.46 10.59-16.26v-91.09z"/>
    <path id="path2355" d="M117.84 166.32l2.863 8.3492-.66968 106.35 3.9614 4.3866 32.727 3.9012 35.408-5.1815s20.561 3.1748 34.74 5.3658c.014173.070866.42638 2.1319.42638 2.1319s5.1437-.78425 6.7642-1.037c1.5933.24685 6.7039 1.037 6.7039 1.037l.42638-2.1319c14.178-2.1909 34.74-5.3658 34.74-5.3658l35.408 5.1815 32.727-3.9012 3.9614-4.3866-.67087-106.35 2.8654-8.3492-39.187.30236s-44.786.44528-76.972.7937c-32.179-.34842-77.034-.7937-77.034-.7937l-39.187-.30236h-.0023622z" class="fil3"/>
    <path id="path2762" class="fil2" d="M275.14 178.46l4.81 17.1 7.48 21.92 1.07 20.85-8.55 14.97-15.5 6.41-8.55 2.67-10.16-5.34-11.23 6.95-12.29-7.48-10.16 6.95-6.42-4.28-11.22-1.6-12.83-13.37-2.67-24.05 15.5-42.77-19.25 15.5-16.57 22.45v29.4l11.76 19.78 21.39 13.9 5.88 1.61-10.16 18.71 17.64 5.34 9.09 9.09 4.81 18.17-1.07 39.03-5.35 9.09-11.76 8.02-.53 7.48 12.83 8.02 11.22 9.08 16.58.54 14.43-10.16 12.29-6.95-3.2-10.69-12.83-10.15-2.68-31.01 3.74-31 18.72-11.76 9.62-3.21-10.15-19.25 15.5-5.34 17.1-14.97 8.02-29.94-4.81-18.17-11.76-14.97z"/>
    <path id="path2756" class="fil2" d="M129.2 284.84l17.64-6.95 12.3-9.62 8.55 9.08 17.11 6.95-13.9 8.02-12.3 10.69-10.69-8.01z"/>
    <path id="path2758" class="fil2" d="M308.82 268.8l-8.02 8.55-17.11 6.95 16.04 10.16 10.16 9.09 11.23-9.09 18.17-9.09-18.71-7.48z"/>
    <path id="path2760" class="fil2" d="M233.98 181.13l-5.35 16.04-15.5-7.49 6.95 15.51-14.97 5.88 14.97 5.34-6.42 15.51 14.44-7.49 5.88 16.04 5.88-16.04 14.43 6.42-6.42-14.44 14.97-5.34-14.43-6.42 6.42-15.5-14.97 7.49z"/>
    <path id="path2764" class="fil2" d="M201.9 312.37l7.48 7.48-6.94 6.95-7.22-7.22z"/>
    <path id="path2766" class="fil2" d="M266.32 311.56l-7.49 7.76 6.69 7.22 8.01-6.96z"/>
    <path id="path2768" class="fil2" d="M271.67 331.34l-13.37 3.21-3.47 7.75-.27 21.39 5.61 12.03 7.48 3.2-1.06-28.06z"/>
    <path id="path2770" class="fil2" d="M196.56 331.61l4.81 23.79v22.99l6.68-4.81 4.54-10.43.8-18.17-3.47-10.96z"/>
    <path id="path2772" class="fil2" d="M319.24 350.59l-15.5-7.48-14.97 3.2-7.75 9.09-.8 14.7 10.96 12.83 2.67.8-.27-13.9 11.76-16.03z"/>
    <path id="path2774" class="fil2" d="M171.7 345.51l-1.6-6.41-8.29-4.82-6.95 2.68-3.48 7.21 1.88 6.42-7.22-.8-5.88 5.61-.8 7.48 4.01 4.82 5.61 1.87 3.21-.27-2.67 6.68 2.13 6.68 6.69 3.75 7.48-1.87 4.01-7.49 6.41 4.28 7.75-1.61 5.08-7.75-3.47-7.21-3.74-2.95 5.34-2.93 2.14-8.82-7.22-8.29-6.95 1.07z"/>
    <path id="path2169" d="M195 172.29c-1.1173 7.8295-40.526 24.108-40.526 56.921 0 42.013 39.308 51.925 39.308 51.925l-1.6476 2.9858-9.5669 17.43s16.244.8126 24.866 8.1673c10.396 8.8665 9.385 27.653 9.385 41.32 0 10.768-1.3606 22.13-6.8858 26.815-7.4185 6.2906-12.435 6.7559-12.435 14.14 0 6.1594 4.735 7.3937 12.435 11.458 9.8658 5.2063 9.4063 12.188 24.071 12.188 14.668 0 14.268-6.9815 24.135-12.188 7.6996-4.0642 12.434-5.2984 12.434-11.458 0-7.3842-5.0161-7.8496-12.434-14.14-5.5252-4.6854-6.8858-16.048-6.8858-26.815 0-13.666-1.011-32.453 9.385-41.32 8.622-7.3535 24.865-8.1673 24.866-8.1673l-9.5693-17.43-1.6441-2.9858s39.308-9.9118 39.308-51.925c0-32.813-39.409-49.091-40.528-56.921-3.8516 13.548 13.165 32.262 13.165 54.423 0 28.674-21.148 30.046-21.148 30.046-4.9488 0-6.9532 3.5339-8.8984 3.5339-4.1634-.43465-6.1228-5.7295-10.239-5.7295-3.8658 0-6.8339 5.9728-11.944 5.9728-5.1094 0-8.0173-5.9728-11.884-5.9728-4.1138 0-6.0744 5.2949-10.238 5.7295-1.9453 0-3.9508-3.5339-8.8996-3.5339 0 0-21.146-1.3724-21.146-30.046 0-22.161 17.017-40.876 13.163-54.423zm80.933 111.83s26.412 11.65 33.338 21.575c15.027-11.369 34.796-20.295 34.796-20.295s-18.948-4.9417-34.796-19.198c-9.065 11.984-33.338 17.917-33.338 17.917zm-83.797 0s-24.27-5.9339-33.335-17.917c-15.849 14.257-34.8 19.198-34.8 19.198s19.77 8.9256 34.8 20.295c6.9248-9.9236 33.335-21.575 33.335-21.575zm41.869-108.91l-6.8268 19.382-18.588-8.8382 8.837 18.589-19.38 6.8858 19.38 6.887-8.837 18.527 18.588-8.837 6.8268 19.38 6.887-19.38 18.588 8.837-8.8358-18.527 19.38-6.887-19.38-6.8858 8.8358-18.589-18.588 8.8382-6.887-19.382zm-44.732 8.9587c1.6158 3.4807-13.165 24.94-13.165 42.54 0 21.581 11.509 34.311 26.876 34.311 2.9315 0 6.137 3.9614 8.8984 3.9614 4.5024 0 7.4976-4.9972 10.239-4.9972 3.4842 0 5.8335 5.485 11.883 5.485 6.0508 0 8.4602-5.485 11.946-5.485 2.7402 0 5.7354 4.9972 10.238 4.9972 2.7626 0 5.9669-3.9614 8.8984-3.9614 15.367 0 26.877-12.73 26.877-34.311 0-17.6-14.78-39.059-13.165-42.54 0 0 28.826 20.678 28.826 45.038 0 39.242-39.796 48.939-39.796 48.939l8.9587 20.171s-12.335 1.8496-19.867 7.924c-10.046 8.1012-10.179 29.989-10.179 44.793 0 17.438.64842 24.827 6.9484 29.558 6.6425 4.9913 11.64 6.0661 11.64 11.153 0 4.4327-5.172 6.2457-11.884 9.202-7.6346 3.365-8.3953 9.2032-19.441 9.2032-11.047 0-11.746-5.8382-19.381-9.2032-6.711-2.9575-11.884-4.7693-11.884-9.202 0-5.087 4.9961-6.1618 11.64-11.153 6.3-4.7315 6.9472-12.12 6.9472-29.558 0-14.804-.1311-36.692-10.178-44.793-7.5331-6.0756-19.867-7.924-19.867-7.924l8.9575-20.171s-39.795-9.6968-39.795-48.939c0-24.36 28.826-45.038 28.826-45.038h.0023622zm44.793 4.0831l4.3878 12.373 11.823-5.6681-5.6067 11.883 12.312 4.389-12.312 4.3878 5.6067 11.823-11.823-5.6067-4.4492 12.311-4.3878-12.311-11.823 5.6067 5.6067-11.823-12.311-4.3878 12.311-4.389-5.6067-11.883 11.823 5.6681 4.4492-12.373zm-75.632 83.922c8.0102 9.1701 20.722 12.676 20.722 12.676-.0023622 0-13.232 6.9342-20.356 15.115v.48661c-.070866-.064961-.17008-.11575-.24567-.18307-.14055.16417-.29173.32126-.42638.4878v-.85276c-7.5378-6.6626-22.548-14.139-22.548-14.139s14.389-4.9606 22.854-13.591v.0011811zm151.2 0c8.4661 8.6291 22.854 13.59 22.854 13.59s-15.011 7.4764-22.551 14.139c.0011811.048425 0 .85276 0 .85276-.13465-.16535-.28583-.32244-.4252-.4878-.073228.068504-.17362.11693-.24331.18307 0 0-.0011811-.47008 0-.48661-7.1256-8.1803-20.355-15.115-20.355-15.115s12.71-3.5055 20.72-12.676zm-107.57 37.785l-9.4465 9.4453 9.4465 9.4465 9.4465-9.4465-9.4465-9.4453zm63.931 0l-9.4453 9.4453 9.4453 9.4465 9.4465-9.4465-9.4465-9.4453zm-63.931 4.5094l4.937 4.9346-4.937 4.9984-4.9972-4.9984 4.9972-4.9346zm63.931 0l4.9984 4.9346-4.9984 4.9984-4.9358-4.9984 4.9358-4.9346zm-72.644 14.382c1.8768 4.6417 6.3366 19.02 6.3366 36.262 0 11.935-1.1575 18.222-1.1575 18.222s13.317-3.9201 15.968-17.43c1.2425-6.3331 2.628-29.665-3.7795-33.641l-17.368-3.4134zm81.359 0l-17.37 3.4146c-6.4063 3.9756-5.0209 27.307-3.7784 33.641 2.6516 13.509 15.967 17.43 15.967 17.43s-1.1575-6.2882-1.1575-18.222c0-17.242 4.461-31.622 6.339-36.262v-.0011811zm-113.72 3.7795c-.74409.03189-1.5071.11693-2.2559.30354-5.9894 1.5024-9.6083 7.6016-8.1047 13.591.23032.91654.60827 1.7634 1.0358 2.5594-.87284-.29055-1.7835-.48307-2.7425-.54921-.38504-.025984-.77953-.012992-1.1575 0-5.6681.19016-10.392 4.6465-10.787 10.422-.42165 6.1594 4.2602 11.463 10.422 11.884.9189.061417 1.813.028346 2.6799-.12284-.53032.72756-.98858 1.5035-1.3394 2.3764-2.3055 5.7295.48661 12.322 6.2161 14.628 5.7284 2.3032 12.26-.54921 14.564-6.2776.35197-.8752.54921-1.7291.67087-2.6209.52795.73228 1.1622 1.4032 1.8886 2.0102 4.7374 3.9614 11.823 3.3342 15.784-1.4008 3.9626-4.7362 3.3342-11.763-1.402-15.724-.71693-.6-1.5118-1.0713-2.315-1.4622.86102-.27638 1.6972-.65669 2.498-1.1575 5.2323-3.2799 6.815-10.248 3.535-15.481-2.2547-3.5965-6.2161-5.4449-10.178-5.1803-1.8012.12047-3.6059.6815-5.2417 1.7067-.79842.50079-1.5083 1.0571-2.1319 1.7055.0011811-.9-.075591-1.826-.30472-2.7413-1.3146-5.2417-6.1323-8.6965-11.336-8.472l.0011811.0011811v.0011811zm38.454 1.461l9.3248 1.9512c3.4488 4.7598 2.863 12.455 2.863 23.16 0 10.794-8.1047 14.93-8.1047 14.93 0-25.945-2.6752-32.183-4.0831-40.041v-.0011811zm69.17 0c-1.4102 7.8591-4.0819 14.096-4.0819 40.041 0 0-8.1059-4.1362-8.1059-14.93 0-10.706-.58583-18.399 2.8642-23.159l9.3236-1.9512zm-106.96 3.2315c4.0394-.17362 7.7528 2.5063 8.7756 6.5811.24331.97087.26929 1.9264.18189 2.8654-.070866.77835-.27874 1.4858-.54803 2.1933-1.3488-.49252-2.8087-.73228-4.3276-.73228-3.7606 0-7.128 1.6547-9.4465 4.2673-.60827-.53858-1.1374-1.1339-1.5839-1.8284-.49961-.77244-.92244-1.6181-1.1587-2.5594-1.1693-4.6583 1.6795-9.3756 6.3378-10.544.5811-.14764 1.1906-.21968 1.7681-.24449v.0011811h.0011811zm139.26 3.5953c-14.307 0-24.777 11.026-23.34 24.56 1.2106 11.413 10.486 20.975 21.939 23.707-1.9559-3.1984-3.2563-6.7642-3.6567-10.542-1.435-13.535 9.0331-24.501 23.342-24.501 2.2547 0 4.4398.27874 6.5811.7937-5.0445-8.2701-14.542-14.017-24.866-14.017l.0011811.0011811H300.9134V340.9182zm-121.83 3.1075c2.7945.093307 5.4732 1.5402 7.0677 4.0831 2.5524 4.0689 1.3276 9.4547-2.7413 12.006-.85039.53268-1.7598.88583-2.6835 1.0972-.7689.17716-1.5508.16063-2.315.12165.0035433-.12402 0-.23976 0-.36614 0-5.178-3.1134-9.6543-7.5567-11.64.31417-.75945.68386-1.4835 1.2177-2.1331.57402-.69449 1.265-1.3216 2.074-1.8284 1.526-.95669 3.2575-1.3972 4.9358-1.3406h.0011811zm121.83 1.9512c4.4787 0 8.7815 1.3713 12.494 3.6567-13.963 2.7-24.012 15.033-22.55 29.437-4.4504-3.6862-7.7055-8.6504-8.2878-14.139-1.1327-10.689 6.6319-18.954 18.345-18.954h-.0011811zm-149.92 5.2406c1.0134.069685 1.9216.34961 2.8028.72992.70512.30827 1.3559.70394 1.95 1.1587-1.6925 2.1673-2.6811 4.9051-2.6811 7.8614 0 2.3197.62244 4.4693 1.7055 6.339-.73583.46063-1.5083.82441-2.3752 1.037-.84213.20433-1.7126.30472-2.622.24331-4.7906-.32835-8.4319-4.4716-8.1047-9.2634.32835-4.7917 4.5342-8.4342 9.3248-8.1059zm14.748 1.2791c4.6512 0 8.4106 3.8197 8.4106 8.4732 0 4.6512-3.7594 8.4106-8.4106 8.4106-4.6535 0-8.4118-3.7594-8.4118-8.4106 0-4.6535 3.7594-8.4732 8.4118-8.4732zm12.614 9.6898c.83268.093307 1.637.29291 2.4366.60945.8315.33071 1.6547.73465 2.3764 1.3406 3.6839 3.0827 4.1173 8.5654 1.037 12.25-3.0827 3.6839-8.5665 4.1787-12.25 1.0972-.77716-.65079-1.3417-1.4315-1.8284-2.2559-.38622-.65551-.63661-1.3535-.85276-2.0716 4.9039-1.4161 8.5748-5.7402 9.0815-10.969v-.0011811zm-23.159 5.8524c2.276 3.3709 6.163 5.6067 10.545 5.6067.92008 0 1.8142-.11811 2.6799-.30591.18307.79961.29528 1.6075.24449 2.439-.055512.90236-.19252 1.7953-.54921 2.6823-1.7917 4.4551-6.8799 6.6059-11.336 4.8142-4.4551-1.7917-6.6685-6.8787-4.8756-11.336.3626-.89882.86457-1.6819 1.4634-2.3764.52677-.61181 1.1587-1.0972 1.8284-1.5236h.0011811-.0011811zm63.746 20.72c-7.8177 0-12.797 1.65-12.797 4.0228 0 2.374 4.9807 3.9614 12.797 3.9614 2.0835 0 4.4492-1.213 4.4492-3.9614s-2.3669-4.0228-4.4492-4.0228zm30.169 0c-2.0835 0-4.4492 1.2744-4.4492 4.0228-.0011811 2.7484 2.3658 3.9614 4.4492 3.9614 7.8189 0 12.797-1.5874 12.797-3.9614s-4.9795-4.0228-12.797-4.0228z" class="fil1"/>
    <path id="path2206" d="M476.75 250.48l-13.53 9.874 1.5248 3.2291s-2.4768.85039-3.5976 3.0461c-1.1185 2.1992.73228 5.3032.73228 5.3032s-12.862-1.122-14.87.18307c-1.8189 1.1787.77008 10.088-.42756 17.613-1.6689 10.488-5.8039 9.6071-5.9728 11.64-.16417 1.9748 1.585 5.0587 1.585 5.0587s-2.4118.75945-2.9256 1.7681c-.82677 1.6216.57638 4.6134-.42638 6.5811-5.5949 10.98-13.857 27.185-19.319 37.909-.76299 1.4965-2.8134 2.0681-3.8409 4.0831-.94724 1.8591-.18189 4.5697-.18189 4.5697s-3.6201.21614-4.8756 2.6823c-1.3346 2.6185-.54921 6.1547-.54921 6.1547s-2.289.29291-3.4146 2.4992c-1.2012 2.3587.83386 3.5953.30827 4.6323-7.3441 14.407-15.993 31.39-21.27 41.747-1.9417 3.8079-8.7354 4.5709-12.678 12.311-3.8256 7.5071 1.6453 13.042 1.6453 13.042s-5.6811.51378-7.1906 3.4748c-1.5378 3.0177-.32126 7.6004 3.7784 9.6898 4.0996 2.0882 8.5795.39803 10.118-2.6197 1.5083-2.961-1.5248-7.8614-1.5248-7.8614s7.6937 1.1079 11.518-6.4004c3.9437-7.7398.6189-13.62 2.5594-17.43 5.2784-10.357 13.929-27.339 21.27-41.747.52913-1.037 2.6988-.13937 3.9-2.498 1.1232-2.2063 0-4.2047 0-4.2047s3.3591-1.4646 4.6937-4.0842c1.2567-2.465-.67087-5.5453-.67087-5.5453s2.6468-.94252 3.5953-2.8028c1.0264-2.015.27165-3.9886 1.0346-5.4874 5.4638-10.721 13.727-26.928 19.32-37.906 1.0039-1.9701 4.2319-2.6445 5.0587-4.2673.51378-1.0075-.30354-3.4122-.30354-3.4122s3.5575-.35197 5.0575-1.6465c1.5449-1.3311-1.5921-4.1858 5.9126-11.701 5.3835-5.3906 14.068-8.5618 13.955-10.726-.1252-2.3929-8.5925-12.128-8.5925-12.128s3.5728-.30118 4.6925-2.498c1.1197-2.198.36614-4.7551.36614-4.7551l3.5339-.60945v-16.7611811.0011811h.0011811zm-127.19 241.4c-1.7339.1748-2.8169 1.2024-3.1677 1.8909-.53386 1.0441-.63071 2.4709 0 3.7158 0 0-4.265-1.3335-5.7284-.60945-1.3784.68268 0 20.783 0 20.783s17.017-10.736 16.759-12.25c-.27402-1.6098-3.8398-4.3276-3.8398-4.3276 1.3784-.22087 2.4532-1.0854 2.987-2.1319.55984-1.1008.63425-4.2472-3.2303-6.2173-1.448-.73819-2.7366-.95669-3.7795-.85276z" class="fil1"/>
    <path id="rect2205" d="M217.92 23.954c-4.2567 0-10.525.11693-14.2 2.5606-3.3626 2.2323-3.0898 5.1354-4.2661 6.1547-2.7732 2.4-7.5248 2.315-9.8126 2.315-14.81 0-15.358 15.847-15.358 15.847s3.7866-5.7295 10.482-5.7295c11.132 0 19.563 6.0638 19.563 8.3492 0 .9248-1.148 1.0961-1.2177 1.0961-7.2709 0-18.246-4.1858-24.074-4.3878v2.3161c.077953.050787.1311.11929.24567.18307-.083858-.015354-.16299-.044882-.24567-.061417v.42638c13.013 4.5272 26.206 10.937 26.206 39.187 0 17.79-2.1295 35.94-11.03 50.218-3.1524 5.0563-7.6406 9.3827-13.042 13.226-2.4035-.72638-13.706-4.2378-21.635-8.6539-13.959-7.7764-21.197-15.513-37.786-16.272v-12.616c0-6.7406 2.439-12.813 2.439-19.258-6.9933-1.8744-26.402-25.608-44.307-36.141-26.346 17.065-46.744 45.077-46.744 57.959 0 0 .79134 276.8 0 373.22 0 5.5571-3.3508 13.408-3.3508 13.408 9.6177-4.0689 27.248-28.191 30.959-37.359v4.389c14.525-6.6236 25.161-24.028 29.923-33.032.085039 1.3016.30591 4.5685.30591 4.5685 12.976-11.375 29.496-78.616 29.496-78.616l-.85276-14.139s-11.425 54.9-24.438 66.185v-236.4l10.3 9.5669 15.601-14.565v-11.092l-13.834 12.919v-33.458c2.0846-3.1535 3.4665-5.5075 4.5094-7.3736 2.2394 3.9035 9.476 15.868 17.978 23.22 1.3984-5.6882 10.605-11.093 10.605-11.093s3.2988 8.9386 8.348 11.152c1.7764-3.1287 12.373-10.055 12.373-10.055s-9.0661 1.3772-12.738 4.8154c-3.1535-.7063-3.9614-13.165-3.9614-13.165s-13.342 6.4984-15.661 11.152c-2.5441-.68858-6.5043-10.7-8.0468-14.81 2.328-.25394 5.6138-.54803 9.9342-.54803 3.8043 0 8.6728 1.8024 13.773 4.2047 5.6032 2.6386 11.465 5.9787 16.7 8.3504 6.7051 3.0354 16.848 3.652 19.806 3.7784-3.3874 2.3811-7.1102 4.5543-11.151 6.5823 0 0 15.965-.14764 27.181-5.7295 4.0016-2.5736 8.1532-5.1378 11.701-8.1661-1.539 4.278-3.9354 9.3319-7.6807 13.651 16.472-1.3937 24.673-10.8 26.999-13.956 1.0925 2.8276 3.039 7.3654 6.0945 11.274 3.0567-3.9083 5.0622-8.4461 6.1559-11.274 2.328 3.1559 10.527 12.562 26.998 13.956-3.7441-4.3193-6.1406-9.3732-7.6784-13.651 3.5468 3.0272 7.7008 5.5925 11.701 8.1661 11.215 5.5819 27.182 5.7295 27.182 5.7295-4.0441-2.028-7.8284-4.2071-11.213-6.5823 2.8465-.10984 13.108-.71811 19.867-3.7784 5.2335-2.3716 11.095-5.7118 16.697-8.3504 5.1012-2.4024 9.9709-4.2047 13.775-4.2047 4.3205 0 7.6051.29409 9.9331.54803-1.5413 4.1102-5.5004 14.121-8.0457 14.81-2.3209-4.6535-15.663-11.152-15.663-11.152s-.80787 12.458-3.9602 13.165c-3.672-3.4382-12.738-4.8154-12.738-4.8154s10.596 6.926 12.371 10.055c5.0504-2.2134 8.289-11.152 8.289-11.152s9.2669 5.4059 10.665 11.093c8.5028-7.3535 15.737-19.313 17.978-23.22 1.0819 1.9264 2.5276 4.3736 4.5094 7.3736v33.458l-13.833-12.919v11.092l15.601 14.565 10.3-9.5669v236.4c-13.016-11.285-24.438-66.185-24.438-66.185l-.85512 14.139s16.522 67.241 29.498 78.616c0 0 .21968-3.2669.30472-4.5685 4.7622 9.0035 15.4 26.408 29.923 33.032v-4.389c3.711 9.1689 21.341 33.291 30.958 37.359 0 0-3.3508-7.8508-3.3508-13.408-.79134-96.428 0-373.22 0-373.22 0-12.884-20.398-40.894-46.744-57.959-17.901 10.533-37.313 34.266-44.306 36.141 0 6.4453 2.4366 12.517 2.4366 19.258v12.555c-16.552.77598-23.838 8.5642-37.785 16.334-7.9807 4.4468-19.404 7.9701-21.694 8.6539-5.3988-3.835-9.8303-8.1685-12.98-13.226-7.5862-12.17-10.787-27.111-10.787-42.294 0-6.4181 7.1906-13.643 7.1906-18.833 0-7.8449-.7311-12.553-.7311-12.553 2.5512.34724 7.0087 4.8744 7.0087 4.8744s-.15354-13.022-4.2673-15.296c0 0 1.6642-1.7114 7.6795-1.8898-1.6902-4.2815-10.055-9.5067-10.055-9.5067.41811-.74882 1.1906-1.3961 2.1933-1.95 2.1012-1.1622 5.0539-1.9287 7.3122-2.3776-2.4071-.49842-5.1803-1.2626-8.2264-2.2559-6.9543-2.2654-15.142-5.5913-22.793-9.2622-13.966-6.7004-24.606-7.1315-30.472-7.1315v.0011811h.0011811zm.30472 3.8398c1.2945.011811 2.4957.061417 3.5339.061417 13.641 0 23.235 6.2185 36.142 11.944 3.3827 1.5 6.4878 2.7154 9.261 3.6555-1.7374 1.539-3.0886 3.0862-3.4736 4.389 0 0 5.785 1.0713 8.4094 5.9126 0 0-5.5004.62362-6.3992 3.8386 3.0803.23268 6.1417 4.115 6.1559 7.8626l-7.8012-2.439s1.8898 8.7591 1.8898 18.284c0 4.8638-7.0075 10.589-7.0075 18.832 0 25.873 6.5173 35.819 11.153 43.818 1.813 3.1299 3.287 6.7311 6.3378 9.4465-13.355-7.1102-23.281-15.999-23.281-24.255v-31.264h-3.4736v31.264c0 5.987 1.4622 8.7756 1.4622 8.7756 2.0965 6.6236 6.3342 16.847 8.9598 20.965-12.287-6.6402-18.528-14.956-18.528-18.039v-42.966h-3.4736v43.574l.66968 2.9858c-1.4894 2.2382-3.4252 4.8886-4.7539 5.7898-1.3252-.9-3.202-3.5551-4.6937-5.7898l.67087-2.9858v-43.574h-3.4736v42.966c0 3.0827-6.2421 11.399-18.527 18.039 2.6244-4.1173 6.8622-14.341 8.9575-20.965 0 0 1.4634-2.7886 1.4634-8.7756v-31.264h-3.4736v31.264c0 8.2465-9.8894 17.148-23.22 24.255 3.0201-2.7177 4.4728-6.3342 6.2764-9.4465 5.0693-8.7472 11.336-19.86 11.336-51.497 0-11.874-1.7563-19.946-4.8142-25.597-.92953-1.8638-2.1827-6.8256 4.9358-6.8256 3.6874 0 12.129 6.5209 12.129 6.5209s-.34724-5.2039-4.6323-8.1661c-.71102-.49134-1.8886-2.0386-1.8886-3.4748 0-1.076 1.8461-3.7323 3.2894-4.3878.99213-.45-14.504-3.15-14.504-10.178 0-1.4634.92008-2.4378 4.1421-2.4378 4.2201 0 11.086 5.0587 17.189 5.0587 4.5106 0 6.2894-1.0972 10.909-1.0972 5.6457 0 17.422 10.689 21.451 10.299-4.5035-2.8276-11.779-13.53-22.792-13.53-3.822 0-7.2827.85394-10.85.85394-4.572 0-9.0744-4.2059-14.016-4.2059-3.3118 0-7.011.18425-7.5579-.67087-.95787-1.4941-.095669-2.361.79252-3.5953 1.6772-2.3303 6.3886-3.0059 11.033-3.1677 1.3925-.048425 2.7839-.073228 4.0819-.061417v.0011811h.0035433zm-138.34 46.926v.059055s24.482 22.432 32.727 25.292l.30354 7.5567v22.246c-5.9752-2.0563-13.484-11.872-17.124-17.065v-3.0472c0-2.8665 1.6866-4.9606 2.9244-6.0945l-3.5953-1.2791c-1.3713 1.5626-2.8642 3.8846-2.8642 6.8858v1.7681l-1.1575 1.2201-.60945.67087-8.9587 9.6272-10.542-15.967v-3.9c0-2.6291 2.0209-5.5594 3.7181-7.5567l-3.5362-1.2803c-1.7846 2.3114-3.6567 5.4272-3.6567 8.3492v3.1677c-2.4803 2.5665-12.128 12.495-12.128 12.495l-6.1547-13.225c7.3866-10.232 19.364-21.69 30.654-29.924l-.0011811.0011811zm308.31 0c11.268 8.2158 23.251 19.711 30.657 29.923-1.3146 2.8228-6.1559 13.225-6.1559 13.225s-9.6461-9.9284-12.126-12.494v-3.1689c0-2.9209-1.872-6.0366-3.6567-8.3492l-3.535 1.2803c1.6961 1.9961 3.7181 4.9276 3.7181 7.5567v3.9l-10.545 15.967-8.9575-9.6272-.60945-.67087-1.1587-1.2189v-1.7693c0-3.0012-1.4929-5.3232-2.863-6.8858l-3.5976 1.2791c1.2402 1.135 2.9268 3.2268 2.9268 6.0957v3.0472c-3.6425 5.1921-11.148 15.007-17.125 17.065v-22.246l.30472-7.5567c8.2441-2.8594 32.726-25.292 32.726-25.292v-.060236h-.0023622zm-343.24 36.749l5.6079 10.178v18.346l-8.5323 7.9216v-27.242c0-2.6079 1.0925-5.7508 2.9244-9.2032zm378.16 0c1.8354 3.4524 2.9256 6.5953 2.9256 9.2032v27.242l-8.5323-7.9216v-18.346l5.6067-10.178zm-355.79 2.3161l9.8102 14.93v11.336l-9.8102 9.2032v-35.4691811zm333.42 0v35.468l-9.8126-9.202v-11.336l9.8126-14.93v.0011811-.0011811zm-336.9 2.6811v32.727l-9.8126-9.1417v-13.285l9.8126-10.299v-.0011811zm340.37 0l9.8126 10.299v13.285l-9.8126 9.1417v-32.727.0011811zm-310.27 2.3764c1.4776 2.4579 8.2547 13.422 14.687 16.577-2.2784 3.2197-8.2465 11.096-14.687 14.566v-31.143zm280.16 0v31.143c-6.4394-3.4689-12.406-11.347-14.687-14.566 6.4346-3.1535 13.211-14.119 14.687-16.577zm-283.63 1.585v28.766l-9.8126-9.1417v-10.178l9.8126-9.4465zm287.11 0l9.8126 9.4465v10.178l-9.8126 9.1417v-28.766zm-327.02 30.654v28.706l-8.5323-7.9842v-12.738l8.5323-7.9831zm366.94 0l8.5323 7.9831v12.738l-8.5323 7.9842v-28.706zm-363.47.062598l5.6079 5.2406 4.2059 3.9v10.299l-4.2059 3.9-5.6079 5.2406v-28.583.0023622zm23.098 0v28.583l-5.6067-5.2417-4.2035-3.9614v-10.178l4.2035-3.9614 5.6067-5.2406zm3.5362 0l9.8126 9.202v10.178l-4.2673 4.0216-5.5453 5.1815v-28.583zm23.098 0v28.643l-5.6067-5.2406-4.2071-3.9626v-9.5669c3.385-2.0658 6.7878-5.8618 9.8126-9.874v.0011811h.0011811zm260.54 0c3.026 4.0087 6.4276 7.8083 9.8102 9.8716v9.5681l-4.2035 3.9614-5.6067 5.2406v-28.643.0011811zm23.098 0v28.583l-5.5465-5.1815-4.265-4.0216v-10.178l9.8126-9.202h-.0011811zm3.535 0l5.6067 5.2406 4.2059 3.9614v10.178l-4.2059 3.9614-5.6067 5.2406v-28.583.0011811zm23.098 0v28.583l-5.6079-5.2417-4.2047-3.9v-10.299l4.2047-3.9 5.6079-5.2417zm-345.49 31.63l10.359 9.6898 10.361-9.6295v236.46s.72284 11.733 1.2189 19.38c-4.6075 4.6571-21.939 22.184-21.939 22.184v-278.09zm330.99 0v278.09s-17.332-17.528-21.94-22.182c.49606-7.6476 1.2177-19.381 1.2177-19.381v-236.46l10.361 9.6295 10.361-9.6909v.0011811h.0011811zm-336.9.060236v269.19c0 7.6016-13.88 25.325-20.598 29.375v-298.5l10.238 9.5669 10.361-9.6284zm342.81 0l10.361 9.6284 10.239-9.5669v298.5c-6.7169-4.05-20.6-21.775-20.6-29.375v-269.19zm-257.43 211.48s-9.9532 20.209-13.832 23.828c0 0 2.5996.32953 5.5453.30472-1.8118 2.6043-15.651 22.53-19.989 30.045-4.0594 7.0311-6.9236 3.9012-13.165 3.9012-5.1744 0-16.905 8.2441-18.832 11.58-2.0244 3.5055-3.5339 7.7658-3.5339 11.275 0 3.8575 4.0831 9.1417 4.0831 9.1417.43937-1.8461 1.2177-2.4992 1.2177-2.4992s10.73 13.366 12.311 15.113c1.2307 1.3606 6.7205 2.2453 8.6551.48898 4.8402-4.4008 9.5256-7.4787 13.834-13.834 2.2181-3.2752 2.387-7.0287 4.9358-10.545 8.5264-11.761 25.494-34.285 29.375-39.43.25984 1.4327.48189 2.6256.72874 4.0831 4.3972-8.8772 25.537-25.84 25.537-25.84l-5.8512-3.8409s-12.743 14.856-16.882 17.614c0 0-1.7681-7.3878-2.8039-9.9957 0 0-4.8827 3.6933-7.5543 3.7807 0 0-.79842-5.0138-1.402-8.2902-3.3626 2.2417-8.9587 1.7681-8.9587 1.7681 4.9134-2.3268 10.726-16.577 10.726-16.577l-4.1433-2.0728-.0023622.0023622zm172.04 0l-4.1445 2.0716s5.8146 14.251 10.726 16.577c0 0-5.5961.4748-8.9587-1.7669-.60236 3.2752-1.402 8.289-1.402 8.289-2.6716-.087402-7.5567-3.7795-7.5567-3.7795-1.0346 2.6055-2.8039 9.9957-2.8039 9.9957-4.1362-2.7579-16.88-17.615-16.88-17.615l-5.85 3.8398s21.138 16.963 25.534 25.842c.24921-1.4587.47126-2.6516.7311-4.0831 3.8799 5.1449 20.848 27.668 29.375 39.43 2.5488 3.5161 2.7165 7.2697 4.937 10.544 4.3063 6.3555 8.9929 9.4335 13.834 13.834 1.9323 1.7575 7.422.87284 8.6539-.4878 1.5803-1.748 12.311-15.113 12.311-15.113s.77835.65197 1.2189 2.498c0 0 4.0831-5.2842 4.0831-9.1417 0-3.5091-1.5118-7.7681-3.535-11.274-1.9264-3.3366-13.656-11.581-18.832-11.581-6.2409 0-9.1051 3.1311-13.163-3.9-4.3394-7.5154-18.18-27.441-19.99-30.045 2.9468.025984 5.5453-.30472 5.5453-.30472-3.8787-3.6201-13.834-23.83-13.834-23.83h.0011811zm-173.45 22.793s-.081496 6.8492 2.074 9.2646l7.5567-5.1815s.50315 2.5004 1.1575 5.9126c-3.2362 4.4232-21.822 29.791-31.02 42.172-2.2866 3.0768-4.2071 10.909-4.2071 10.909s-3.3496-1.585-3.3496-4.448c0-2.8122.36614-6.1559.36614-6.1559s-2.5016 2.8642-6.8268 2.8642c0-3.4559 6.6839-7.2047 6.9472-12.126-5.0965 3.7784-9.522 1.839-15.418 3.6567-6.4205 1.9772-8.2087 4.6748-10.178 4.5709-1.1598-.062598-2.2098-2.0634-1.7669-3.2917.76654-2.1272 8.7071-8.015 14.258-9.0803 1.3299-.25512 11.79 2.276 13.897-.97559 8.6811-13.395 22.774-35.14 24.134-37.235.89528-.21378 1.7185-.44173 2.3752-.85394v-.0011811h.0011811zm174.85 0c.65906.41339 1.4823.64016 2.3776.85394 1.3606 2.0953 15.452 23.841 24.134 37.235 2.1071 3.2528 12.566.72047 13.894.97559 5.5547 1.0665 13.494 6.9543 14.262 9.0803.44291 1.2284-.60709 3.2291-1.7681 3.2917-1.9677.10394-3.7559-2.5925-10.178-4.5709-5.8961-1.8177-10.32.12165-15.418-3.6567.26339 4.9205 6.9472 8.6716 6.9472 12.128-4.324 0-6.8256-2.8642-6.8256-2.8642s.36496 3.3425.36496 6.1547c0 2.863-3.3508 4.4492-3.3508 4.4492s-1.9205-7.8331-4.2059-10.911c-9.1972-12.38-27.784-37.748-31.019-42.172.65433-3.411 1.1575-5.9126 1.1575-5.9126l7.5555 5.1815c2.1555-2.4142 2.0728-9.2646 2.0728-9.2646v.0023622zm-114.45 4.9972s-41.294 94.923-77.947 109.52c0 0 15.946 6.7748 35.53 16.943 2.8571 1.4835 5.7992 3.0768 8.7756 4.6937 2.465-2.9693 5.061-6.2681 7.6181-9.6921 11.709-15.666 23.16-33.823 23.16-33.823.79724 4.715-5.3858 19.278-15.846 37.239-2.0575 3.5291-4.2024 7.2189-6.5823 10.968 2.6539 1.5154 5.2866 3.0461 7.9228 4.6335 19.398 11.673 37.617 25.091 44.366 37.418 6.7512-12.327 24.968-25.746 44.369-37.418 2.635-1.5874 5.2677-3.1181 7.9216-4.6335-2.3799-3.7488-4.5248-7.4374-6.5811-10.968-10.461-17.961-16.643-32.524-15.846-37.239 0 0 11.451 18.157 23.16 33.823 2.5559 3.4228 5.152 6.7228 7.6169 9.6921 2.9752-1.6169 5.9197-3.2091 8.7768-4.6937 19.584-10.169 35.528-16.943 35.528-16.943-36.651-14.592-77.947-109.52-77.947-109.52l-6.0933 1.7669s32.937 82.023 65.148 106.84c-7.3252 2.2051-15.899 5.3705-24.744 9.1429-10.748-12.591-21.866-29.574-30.898-44.674-9.7512-16.304-17.734-44.915-17.734-44.915-4.5213 10.982 5.1142 66.145 24.561 101.05-16.082 8.3705-30.392 17.441-37.238 24.865-6.8445-7.4232-21.154-16.494-37.235-24.865 19.446-34.9 29.081-90.065 24.56-101.05 0 0-7.9819 28.611-17.735 44.915-9.0307 15.1-20.148 32.084-30.898 44.674-8.8429-3.7724-17.418-6.9378-24.744-9.1429 32.212-24.813 65.15-106.84 65.15-106.84l-6.0945-1.7669h-.0011811zm-107.87 45.587c.28346.030709.5811.18189.79252.42638.42047.48543.38386 1.1976-.062598 1.5839l-3.4122 2.9858c-.44646.38622-1.1634.30354-1.5839-.18307-.42165-.48543-.38622-1.1976.061417-1.585l3.4122-2.9858c.22205-.1937.50906-.27756.79252-.24449v.0023622zm269.8 0c.28346-.034252.57047.048425.7937.24331l3.4122 2.9858c.44528.3874.48307 1.0996.061417 1.585-.42284.48661-1.1398.56929-1.5839.18307l-3.4146-2.987c-.44646-.38622-.48307-1.0972-.061417-1.5839.21142-.24331.50906-.39449.79252-.42638h-.0011811.0011811zm-266.2 2.9858c.84803-.068504 1.7386.30236 2.3776 1.0358 1.0205 1.1764.95433 2.8429-.12284 3.7795l-8.2878 7.2508c-1.0784.9378-2.8181.75-3.8409-.4252-1.0205-1.1764-.95551-2.9032.12284-3.8398l8.2878-7.1917c.40394-.35197.95433-.56811 1.4634-.60945zm261.94 0c.21378-.035433.45709-.017716.66968 0 .51024.041339 1.0571.25748 1.4634.60827l8.289 7.1917c1.0772.93543 1.1433 2.6646.12165 3.8409-1.0216 1.174-2.7614 1.363-3.8398.42402l-8.289-7.2508c-1.0772-.93543-1.1433-2.6008-.12047-3.7795.47835-.55039 1.0665-.92598 1.7055-1.0358v.0011811zm-257.24 5.6067c.84685-.068504 1.7976.3 2.4366 1.0358 1.0205 1.1764.95551 2.8417-.12284 3.7784l-8.348 7.252c-1.0784.93661-2.7567.75-3.7795-.42638-1.0216-1.1752-.95551-2.902.12402-3.8386l8.2866-7.1917c.40394-.35079.89291-.56693 1.402-.60945h.0011811zm252.55 0c.2185-.036614.45709-.016535.66968 0 .50906.041339.99685.25866 1.4008.60945l8.289 7.1917c1.0784.93543 1.1457 2.6634.12047 3.8386-1.0193 1.1764-2.7 1.363-3.7784.42638l-8.348-7.2532c-1.0784-.93543-1.1445-2.6008-.12284-3.7772.47953-.55039 1.1138-.92598 1.7693-1.037v.0011811zm-247.25 5.485c.84921-.068504 1.7398.23976 2.3776.97441 1.0216 1.1764.95551 2.9032-.12165 3.8398l-8.289 7.1929c-1.0784.93661-2.7567.74882-3.7784-.42756-1.0216-1.1764-1.0169-2.8429.060236-3.7795l8.3504-7.2508c.40276-.35197.89173-.50787 1.4008-.54921zm241.95 0c.2126-.03189.45827-.016535.66968 0 .51024.041339.99803.19724 1.4008.54921l8.3516 7.2508c1.0784.93543 1.0807 2.6032.060236 3.7795-1.0216 1.1764-2.7012 1.3642-3.7784.42756l-8.289-7.1929c-1.0795-.93543-1.1433-2.6634-.12165-3.8398.47953-.55039 1.0689-.88228 1.7067-.97441z" class="fil1"/>
    <path id="path2220" d="M474.24 255.42l-7.924 5.6067 4.0216 2.074 4.0228 2.0102-.12047-9.6909h-.0023622.0023622zm-7.6807 9.3248c-1.4374.099213-2.7047.86575-3.3508 2.1331-1.0335 2.0291-.029528 4.6264 2.2547 5.7898 2.2854 1.1634 4.9382.44409 5.974-1.5839 1.0335-2.0291.028346-4.6252-2.2559-5.7898-.85748-.43701-1.7575-.60827-2.6209-.54921h-.0011811zm-14.93 9.3248c-1.1929.014173-2.0587.055512-2.2547.18307-.84685.54803.30472 7.7917.061417 13.955-.23032 5.8122-2.0906 7.4492-3.1087 9.4465-.93898 1.8437-4.3264 4.0228-4.3264 4.0228l2.8028 2.8039s1.8236-2.8406 4.6925-8.4732c3.385-6.6413 3.2752-18.676 4.2673-19.318.86339-.55866 7.9228-2.3161 7.9228-2.3161-.0011811 0-6.4784-.34961-10.055-.30354h-.0023622zm12.309 1.6453s-7.422 1.4232-8.472 2.439c-1.0146.98032-.56693 11.033-4.5094 18.77-3.2669 6.4146-4.8744 8.7756-4.8744 8.7756l2.0102 1.0358 2.0114.97559s.93661-2.6043 4.2059-9.0201c3.9413-7.7374 12.356-13.349 12.553-14.748.20433-1.4433-2.9244-8.2264-2.9244-8.2264v-.0011811zm2.3776.97441s2.687 6.776 2.7425 7.8012c.062598 1.1776-9.7181 8.1673-13.103 14.809-2.8689 5.6327-4.0831 8.7768-4.0831 8.7768l3.9012.60945s-.26929-4.0087.66968-5.8512c1.0169-1.9961 1.285-4.4421 5.8512-8.0445 4.8425-3.8197 11.389-7.1598 11.336-8.1673-.049606-.93071-7.3134-9.9331-7.3134-9.9331h-.0011811zm-22.061 31.936c-1.2295.13228-2.1236.91299-2.6209 1.8886-.74055 1.4551-.33898 3.3992-6.2173 14.933-2.576 5.0563-3.6142 7.0902-6.4004 12.554-2.8311 5.5594-6.9472 13.591-6.9472 13.591s-1.3984 2.5665 1.2189 3.9c2.6173 1.3323 3.7784-1.3417 3.7784-1.3417s4.1161-8.0327 6.9472-13.591c2.7862-5.4626 3.8232-7.5579 6.4004-12.615 5.876-11.534 7.6713-12.319 8.4106-13.773.79606-1.5614.60591-3.6638-2.0102-4.9984-.9815-.49842-1.8224-.62598-2.5583-.54685v-.0011811l-.0011811.0011811zm-25.293 48.085c-.9874.08622-1.7681.50433-2.1319 1.2177-.72756 1.4303.5185 3.5291 2.8039 4.6937 2.2842 1.1622 4.7575.94134 5.485-.4878.72756-1.4291-.57874-3.5291-2.8642-4.6937-1.1421-.58228-2.3032-.81732-3.2906-.72992h-.0023622zm-3.4122 7.0075c-1.637-.077953-3.0673.48898-3.6567 1.6453-.94252 1.8484.52677 4.5035 3.2917 5.9138 2.7638 1.4079 5.7614 1.0547 6.7039-.7937.94252-1.8496-.52795-4.5024-3.2917-5.9126-1.037-.52677-2.0634-.80551-3.0472-.85276zm-4.6323 8.7154c-.98622.087402-1.7681.50433-2.1331 1.2201-.72756 1.428.51968 3.528 2.8039 4.6913 2.2842 1.1646 4.7563.94134 5.4862-.48661.72756-1.4291-.51968-3.5291-2.8039-4.6925-1.1433-.58346-2.3646-.8185-3.3508-.73228h-.0023622zm-2.0102 7.4976c-1.4433.18543-2.1342 1.6453-2.1342 1.6453s-14.819 29.166-20.048 39.43c-1.6713 3.2787-8.7047 5.3209-11.458 10.727-2.7732 5.4378-.81614 10.528 2.8028 12.371 3.6177 1.8437 8.9303.50315 11.702-4.9358 2.7532-5.4047.27992-12.325 1.9488-15.602 5.2299-10.266 20.052-39.431 20.052-39.431s1.4598-2.5665-1.1587-3.9c-.65433-.33307-1.2236-.36614-1.7055-.30354h-.0011811zm-35.774 67.16c-1.6654.046063-3.1465.83268-3.8398 2.1933-1.1102 2.1791.15945 5.0823 2.863 6.4594 2.7047 1.3784 5.8382.71575 6.9484-1.4622 1.1102-2.1791-.22087-5.0835-2.9244-6.4606-1.0146-.51732-2.0492-.75827-3.0472-.7311v.0011811zm-23.585 46.744c-.84567.028346-1.5449.29646-1.8272.85394-.56811 1.1126.60472 2.8724 2.6209 3.9 2.015 1.0264 4.1232.93071 4.6925-.18307.56811-1.115-.60709-2.8736-2.6209-3.9-1.0087-.51378-2.0173-.70039-2.8654-.67087zm-6.9472 5.4839v14.384l11.702-8.4106s-1.5874-2.8028-5.0598-4.5709-6.6425-1.402-6.6425-1.402z" class="fil2"/>
    <path id="path2280" d="M55.626 415.9s6.6118 13.657 11.637 15.53c-2.5984-.70866-11.037 2.3882-11.037 2.3882s14.88 13.292 27.5 14.164c10.702.73701 15.899-4.6051 15.899-4.6051l-2.1437-11.339s-6.548-7.9075-17.026-11.556c-10.589-3.6886-24.829-4.5815-24.829-4.5815v-.0011811z" class="fil1"/>
    <path id="path2282" d="M105.47 391.44s-9.1299 7.8154-11.628 16.867c-2.5004 9.0532 1.6287 19.342 1.6287 19.342l7.6713 14.31s10.632-5.6587 15.155-14.119c4.5224-8.4614 2.8642-19.878 2.8642-19.878s-8.4224 3.1358-9.4937 4.5236c1.7776-9.3862-6.1972-21.046-6.1972-21.046h-.0011811.0011811z" class="fil1"/>
    <path id="path2284" d="M76.136 387.77s-10.383 3.5091-20.466 2.902c-9.6047-.57992-17.591-8.6457-17.591-8.6457s7.9618-5.3882 11.891-4.6701c-4.3228-1.5803-10.591-12.409-10.591-12.409s8.9067-2.6917 16.805.28583c7.898 2.9799 14.785 11.632 14.785 11.632l5.1685 10.905h-.0011811z" class="fil1"/>
    <path id="path2286" d="M79.706 337.06s5.1933 10.753 3.9614 14.49c1.611-2.4886 7.7067-6.3626 7.7067-6.3626s3.6862 17.409.16063 28.162c-3.5232 10.752-14.255 14.845-14.255 14.845l-11.837-23.02s-1.7622-8.5287 1.9287-15.282c3.6921-6.7535 12.333-12.833 12.333-12.833h.0011811z" class="fil1"/>
    <path id="path2293" d="M12.138 308.6s11.223-1.1787 21.489 3.0744c8.5831 3.5634 11.215 10.039 11.215 10.039l4.2272 11.334s-12.215 4.5815-21.867 1.0784c-9.652-3.5055-16.744-15.096-16.744-15.096s6.7453-2.5583 9.313-1.5992c-3.7406-1.6547-7.6311-8.8323-7.6311-8.8323v.0011811h-.0011811z" class="fil1"/>
    <path id="path2295" d="M47.441 287.56s4.9252 6.3248 5.0728 13.6c1.3134-3.8681 7.4622-8.1425 7.4622-8.1425s6.3236 15.304 4.9358 26.168c-1.3878 10.866-10.487 17.294-10.487 17.294l-11.347-21.539s-3.698-8.8276-2.6079-15.674c1.0902-6.8457 6.9709-11.709 6.9709-11.709v.0023622z" class="fil1"/>
    <path id="path2297" d="M8.5736 246.37s-2.035 11.731 1.428 18.488c3.0933 6.0295 5.0622 7.3524 5.0622 7.3524-5.8972-3.8917-14.815-4.2272-14.815-4.2272s3.1736 12.763 10.759 18.586c7.585 5.8228 19.28 4.4622 19.28 4.4622s7.6902-10.238 7.1551-21.268c-.53504-11.03-9.2953-22.853-9.2953-22.853s-3.4547 7.1669-3.7594 12.516c-2.2358-5.5158-15.815-13.055-15.815-13.055v-.0011811z" class="fil1"/>
    <path id="path2299" d="M12.024 253.51s-.30354 8.5724 2.5323 13.435c2.837 4.8638 9.1713 6.8032 9.1713 6.8032s.30236-8.5701-2.5335-13.433c-2.837-4.8638-9.1701-6.8055-9.1701-6.8055z" class="fil5"/>
    <path id="path2301" d="M6.0933 272.9s7.4468.43819 11.747 3.7335c4.298 3.2953 5.9634 10.161 5.9634 10.161s-4.9358.50079-9.2339-2.7945c-4.2992-3.2965-8.4768-11.1-8.4768-11.1z" class="fil5"/>
    <path id="path2304" d="M29.46 255.6s-2.4756 5.6787-2.1909 11.8c.28465 6.1228 3.8575 13.02 3.8575 13.02s3.2303-7.35 2.9457-13.474c-.28346-6.1228-3.7465-9.613-4.6122-11.347z" class="fil5"/>
    <path id="path2306" d="M16.923 310.78s3.6555 5.1047 9.2846 7.8886c5.6291 2.7827 14.015 2.8854 14.015 2.8854s-4.1858-5.4307-9.815-8.2146c-5.6291-2.7827-13.485-2.5618-13.485-2.5618v.0023622z" class="fil5"/>
    <path id="path2308" d="M18.738 322.64s2.687 5.263 7.6004 7.5189c4.9158 2.2571 14.969 2.0716 14.969 2.0716s-3.8575-4.9181-8.7709-7.1752c-4.9146-2.2583-13.799-2.4154-13.799-2.4154z" class="fil5"/>
    <path id="path2310" d="M47.039 294.57s-2.9705 4.9087-2.6799 10.317c.29173 5.4106 3.8421 11.322 3.8421 11.322s2.4968-6.7772 2.2051-12.187c-.29055-5.4106-3.3673-9.4524-3.3673-9.4524z" class="fil5"/>
    <path id="path2312" d="M57.978 301.51s-5.0823 6.8209-5.8122 13.834c-.72992 7.0122 2.8902 14.217 2.8902 14.217s6.1394-6.1642 6.8693-13.176c.72992-7.0146-3.9472-14.872-3.9472-14.872v-.0023622z" class="fil5"/>
    <path id="path2320" d="M43.961 366.27s.61063 2.5216 2.7342 5.1992c2.1224 2.6799 5.7567 5.5146 5.7567 5.5146s3.5102-1.1291 7.8744-.18425c4.363.94606 10.167 4.8331 10.167 4.8331s-6.2468-9.3224-12.732-12.947c-6.4854-3.6224-13.799-2.4154-13.799-2.4154h-.0011811z" class="fil5"/>
    <path id="path2322" d="M43.317 382.29s8.087-3.4547 14.746-2.563c6.6602.89173 12.665 6.1559 12.665 6.1559s-9.0012 3.1146-15.66 2.224c-6.6614-.89173-11.752-5.8169-11.752-5.8169l.0011811-.0011811V382.29z" class="fil5"/>
    <path id="path2324" d="M77.506 344.7s-7.1516 7.5756-7.7516 14.151c-.59882 6.574 5.7992 12.702 5.7992 12.702s-.31417-4.2165.78661-6.9933c1.102-2.7756 3.4441-5.7402 3.4441-5.7402s.99803-3.385.61181-6.0992c-.53976-3.7925-2.8902-8.0197-2.8902-8.0197z" class="fil5"/>
    <path id="path2326" d="M87.764 353.47s-6.7406 6.8197-8.5216 14.124c-1.7823 7.3039 1.3925 15.091 1.3925 15.091s6.1299-4.8354 7.9122-12.138c1.7823-7.3039-.78425-17.076-.78425-17.076h.0011811z" class="fil5"/>
    <path id="path2328" d="M104.64 397.5s3.0532 6.3744 3.828 11.706c.77598 5.3303.056693 7.1752.056693 7.1752s-3.1571 3.1039-4.572 4.9287c-1.8189 2.3457-2.0858 6.6378-2.0858 6.6378s-6.339-9.424-5.3622-16.313c.97677-6.8882 8.1354-14.135 8.1354-14.135v.0011811z" class="fil5"/>
    <path id="path2330" d="M118 412.24s-8.1165 5.361-11.337 10.86c-3.2232 5.4968-1.552 11.13-1.552 11.13s5.7839-.50906 9.0071-6.0071c3.2209-5.498 3.8811-15.984 3.8811-15.984h.0011811v.0011811z" class="fil5"/>
    <path id="path2333" d="M64.672 434.88s11.698-.3189 18.848 1.4398c7.1504 1.7563 9.7524 5.589 9.7524 5.589s-8.0398 3.7642-15.189 2.0067c-7.1504-1.7563-13.411-9.0366-13.411-9.0366v.0011811z" class="fil5"/>
    <path id="path2335" d="M62.695 421.01s5.2772 8.1827 12.1 11.151c9.4028 4.089 20.289 2.1071 20.289 2.1071s-5.9138-7.2484-14.053-10.449c-8.1402-3.1984-18.337-2.8087-18.337-2.8087h.0011811H62.694z" class="fil5"/>
    <path id="path2350" d="M100.24 442.89l.31535 4.2106c6.9945.064961 8.0362-.63071 9.8291 1.5732 1.1941 1.4693 4.0346 2.7508 6.8894 1.4468 2.8571-1.3039 4.1374-4.735 2.8335-7.5909s-3.9591-3.476-6.5173-2.9716c-1.5697.30945-2.6032 1.5626-3.9354 2.2512-2.5335 1.3122-9.4158 1.0807-9.4158 1.0807h.0011811z" class="fil1"/>
    <path id="path2348" d="M117.74 443.63l.0011811.0011811c.70984 1.5543.02126 3.4004-1.5331 4.1102-1.5543.71102-3.4016.022441-4.1114-1.5342-.0047244-.0094488-.014173-.033071-.020079-.04252l.017716.037795c-.71102-1.5555-.02126-3.4028 1.5331-4.1126 1.5543-.70984 3.4016-.020079 4.1102 1.5342.0059055.01063.015354.033071.020079.043701l-.018898-.040158v.0023622h.0011811z" class="fil2"/>
    <path id="path2357" d="M99.634 439.67l3.4039 2.4945c-3.6508 5.9693-4.7906 6.4831-3.8705 9.1724.61299 1.7906.19724 4.878-2.4224 6.6106-2.6185 1.7327-6.2067 1.0016-7.9394-1.6169-1.7315-2.6185-.85158-5.198.93189-7.1008 1.0949-1.1693 2.7024-1.3807 3.9921-2.1461 2.4543-1.4563 5.9032-7.4138 5.9032-7.4138h.0011811z" class="fil1"/>
    <path id="path2359" d="M90.989 454.91l.0011811.0035433c.9437 1.4256 2.876 1.8177 4.3004.8752 1.4256-.94252 1.8189-2.8748.87638-4.2992-.0082677-.01063-.020079-.030709-.025984-.041339l.022441.034252c-.94252-1.4244-2.8748-1.8177-4.2992-.8752-1.4256.94252-1.8189 2.8724-.87638 4.298.0070866.0094488.020079.03189.027165.041339l-.024803-.037795h-.0011811v.0011811z" class="fil2"/>
    <path id="path2361" d="M75.941 389.67l.31417 4.2106c6.9957.06378 8.0362-.63071 9.8291 1.572 1.1929 1.4681 4.0346 2.7508 6.8894 1.4468 2.8583-1.3039 4.1386-4.7339 2.8323-7.5898-1.3039-2.8571-3.9579-3.476-6.5161-2.9716-1.5709.31063-2.6032 1.5626-3.9342 2.2512-2.5346 1.311-9.4158 1.0807-9.4158 1.0807h.0011811z" class="fil1"/>
    <path id="path2363" d="M93.444 390.4l.0011811.0035433c.71102 1.5543.02126 3.4016-1.5331 4.1102-1.5532.70984-3.4016.020079-4.1102-1.5342-.0047244-.01063-.014173-.03189-.020079-.043701l.016535.037795c-.70984-1.5543-.02126-3.4016 1.5354-4.1114 1.5532-.70866 3.4004-.020079 4.1102 1.5342.0047244.01063.014173.034252.020079.044882l-.020079-.041339h-.0011811.0011811z" class="fil2"/>
    <path id="path2365" d="M77.361 391.16l2.9764 2.9965c-4.5342 5.3268-5.7425 5.6587-5.2512 8.4567.32835 1.865-.56339 4.8508-3.4216 6.1547-2.8559 1.3039-6.2846.024803-7.5909-2.8323-1.3039-2.8559-.033071-5.2677 2.0244-6.8705 1.2626-.98268 2.8866-.9437 4.278-1.4976 2.6516-1.0559 6.985-6.4075 6.985-6.4075h-.0011811.0011811z" class="fil1"/>
    <path id="path2367" d="M66.449 404.87l.0023622.0035433c.70984 1.5543 2.5571 2.2417 4.1114 1.5331 1.5532-.71102 2.2429-2.5559 1.5331-4.1102-.0047244-.01063-.015354-.033071-.020079-.043701l.016535.036614c-.70984-1.5543-2.5559-2.2441-4.1114-1.5342-1.5543.70984-2.2429 2.5571-1.5342 4.1102.0059055.011811.016535.034252.022441.044882l-.020079-.040158z" class="fil2"/>
    <path id="path2370" d="M52.395 339.86l.31535 4.2106c6.9957.06378 8.0362-.63071 9.8303 1.5744 1.1941 1.4658 4.0335 2.7484 6.8906 1.4445 2.8547-1.3039 4.1362-4.7327 2.8323-7.5921-1.3063-2.8559-3.9591-3.4748-6.5185-2.9705-1.5709.31063-2.6032 1.5626-3.9354 2.2512-2.5335 1.3122-9.4146 1.0795-9.4146 1.0795v.0023622z" class="fil1"/>
    <path id="path2374" d="M69.9 340.59l.0011811.0011811c.71102 1.5543.020079 3.4028-1.5342 4.1114-1.5543.70984-3.4016.02126-4.1102-1.5342-.0047244-.0094488-.015354-.03189-.020079-.043701l.016535.036614c-.70984-1.5543-.020079-3.4004 1.5342-4.1102 1.5543-.70984 3.4016-.020079 4.1091 1.5342.0059055.01063.016535.033071.022441.043701l-.020079-.040158.0011811.0011811z" class="fil2"/>
    <path id="path2376" d="M54.335 338.97l2.9752 2.9953c-4.5342 5.3268-5.7402 5.6598-5.2512 8.4579.32835 1.8638-.56339 4.8496-3.4205 6.1535-2.8559 1.3028-6.2858.023622-7.5909-2.8323-1.3028-2.8571-.03189-5.2689 2.0244-6.8705 1.2626-.98504 2.8854-.9437 4.2791-1.5 2.6516-1.0559 6.9839-6.4051 6.9839-6.4051v.0011811z" class="fil1"/>
    <path id="path2378" d="M43.424 352.68l.0023622.0011811c.70866 1.5555 2.5559 2.2429 4.1102 1.5354 1.5555-.71102 2.2441-2.5571 1.5342-4.1114-.0059055-.01063-.015354-.033071-.02126-.043701l.017716.037795c-.70984-1.5543-2.5571-2.2453-4.1114-1.5342-1.5532.70866-2.2429 2.5559-1.5331 4.1102.0047244.01063.015354.033071.020079.043701l-.018898-.038976z" class="fil2"/>
    <path id="path2380" d="M27.313 287.26l.31417 4.2094c6.9957.064961 8.0374-.63071 9.8291 1.572 1.1953 1.4693 4.0358 2.7508 6.8906 1.4492 2.8571-1.3063 4.1374-4.735 2.8335-7.5921s-3.9591-3.4772-6.5185-2.9716c-1.5685.31063-2.602 1.5638-3.9342 2.2512-2.5335 1.311-9.4158 1.0807-9.4158 1.0807v.0011811h.0011811z" class="fil1"/>
    <path id="path2382" d="M44.816 288l.0023622.0023622c.71102 1.5567.020079 3.4028-1.5342 4.1114-1.5543.70984-3.4004.02126-4.1114-1.5331-.0047244-.01063-.014173-.033071-.020079-.044882l.017716.037795c-.70984-1.5543-.020079-3.4004 1.5342-4.1114 1.5543-.70866 3.4004-.020079 4.1102 1.5342.0047244.01063.015354.033071.020079.043701l-.018898-.040158z" class="fil2"/>
    <path id="path2384" d="M29.252 286.37l2.974 2.9965c-4.5331 5.3268-5.7413 5.6587-5.25 8.4579.32835 1.8638-.56457 4.8496-3.4205 6.1535-2.8571 1.3039-6.2858.024803-7.5898-2.8323-1.3051-2.8559-.033071-5.2701 2.022-6.8705 1.2638-.98268 2.8866-.9437 4.2791-1.5 2.6504-1.0547 6.9839-6.4051 6.9839-6.4051v-.0011811V286.37h.0011811z" class="fil1"/>
    <path id="path2386" d="M18.342 300.08l.0023622.0035433c.70866 1.5543 2.5559 2.2441 4.1091 1.5342 1.5555-.70984 2.2441-2.5547 1.5342-4.1102-.0047244-.01063-.014173-.033071-.020079-.043701l.017716.036614c-.70984-1.5543-2.5571-2.2429-4.1114-1.5342-1.5543.71102-2.2429 2.5583-1.5342 4.1114.0059055.01063.015354.033071.020079.043701l-.017716-.041339z" class="fil2"/>
    <path id="path2340" d="M71.498 377.2c-2.5075 1.0406-6.2268-9.8752-8.9575-15.855-2.8016-6.137-8.4898-15.595-6.874-16.334 1.7728-.80906 4.1079 4.1575 6.9744 10.437 2.8665 6.2776 11.205 20.772 8.8559 21.749v.0023622h.0011811z" class="fil2"/>
    <path id="path2342" d="M45.752 319.71c-2.5063 1.0441-5.25-6.1039-7.9795-12.085-2.8016-6.1358-5.5299-10.47-3.9142-11.209 1.774-.80906 4.3925 4.5673 6.6862 9.5894 2.2216 4.8661 7.5567 12.726 5.2075 13.704z" class="fil2"/>
    <path id="path2337" d="M105.33 450.05c-1.9677.52677-10.558-17.454-17.504-32.669-6.9437-15.213-12.116-27.522-10.5-28.257 1.774-.81024 7.3961 13.56 14.344 28.776 6.9461 15.215 15.135 31.754 13.661 32.15h-.0011811z" class="fil2"/>
    <path id="path2193" d="M228.34 48.428c.0011811 3.6685-3.9413 6.6602-8.7768 6.6602-4.8342 0-8.7768-2.9917-8.7768-6.6614s3.9425-6.6626 8.7768-6.6626c4.8354 0 8.778 2.9929 8.778 6.6626l-.0011811.0011811z" class="fil1"/>
    <path id="path2192" d="M177.47 44.577s2.8795-5.4532 10.16-5.4532c3.0425 0 13.085-.21024 13.085-.21024 1.3382 3.4772 7.4398 9.2882 7.4398 15.331 0 0-6.1925-11.163-23.479-11.163-4.3441 0-7.2071 1.4953-7.2071 1.4953h.0011811z" fill="#cc092f"/>
    <path id="path2194" d="M199.74 46.104s-4.2472-1.3618-4.2472-2.7886c0-1.8165 2.0634-1.8165 3.2965-.40158.84921.97559.94961 3.1902.94961 3.1902h.0011811z" class="fil1"/>
    <path id="path2196" d="M205.57 56.381s-3.6827 3.8787-4.4823 5.9492c-3.6437-1.3807-9.9992-7.9299-9.9992-7.9299s5.387 3.1453 14.48 1.9807h.0011811z" class="fil3"/>
    <path id="path2191" d="M225.65 48.428c.0011811 3.3567-2.7378 6.0933-6.0957 6.0933s-6.0945-2.7366-6.0945-6.0945c0-3.3567 2.7366-6.0957 6.0945-6.0957 3.3567 0 6.0957 2.739 6.0957 6.0957l-.0011811.0011811H225.65z" class="fil2"/>
    <path id="path2189" d="M222.35 48.428c0 1.5378-1.2532 2.7933-2.7933 2.7933-1.539 0-2.7933-1.2555-2.7933-2.7933 0-1.539 1.2555-2.7933 2.7933-2.7933 1.539 0 2.7933 1.2543 2.7933 2.7933z" class="fil1"/>
    <path id="rect2189" d="M107.67 163.33s10.361 7.774 10.361 15.663V367.068c0 4.9547 1.5307 8.1815 3.9614 11.335 2.4295 3.3968 7.6075 8.0894 12.98 11.58 16.596 10.778 44.341 22.142 65.333 31.691 17.493 7.9571 24.608 11.167 33.702 22.427 9.0945-11.259 16.27-14.468 33.763-22.427 20.989-9.5492 48.736-20.914 65.332-31.691 5.3752-3.4902 10.552-8.1827 12.98-11.58 2.4307-3.1535 3.9-6.3803 3.9-11.335V178.993c0-7.8886 10.361-15.663 10.361-15.663h-252.674.0023622zm13.284 5.9728H347.0658s-3.0472 3.6673-3.0472 9.6898V367.0676c0 4.1043-4.2591 13.72-28.826 25.961-40.61 20.235-71.823 29.684-81.177 41.199-9.3555-11.516-40.568-20.963-81.177-41.199-24.568-12.241-28.827-21.856-28.827-25.961V178.9926c0-6.0224-3.0472-9.6898-3.0472-9.6898h-.0011811z" class="fil2"/>
  </g>
</svg>
