<svg xmlns="http://www.w3.org/2000/svg" version="1.2" id="svg1901" enable-background="new" viewBox="0 0 741 800">
  <defs id="defs1903">
    <filter color-interpolation-filters="sRGB" id="filter3063">
      <feBlend in2="BackgroundImage" mode="lighten" id="feBlend3065"/>
    </filter>
  </defs>
  <g id="layer2" display="inline" fill-opacity="1">
    <path d="M324.64286 137.5l46.07143-30.35714 46.42857 31.78571-17.85715-51.071428 46.07143-31.071429-56.78571.357143-18.21429-51.7857144-17.14285 51.4285714h-57.85715l46.07143 31.785714z" id="path2994" fill="#fbce1d" stroke="#000" stroke-width="1.5" stroke-linecap="butt" stroke-linejoin="miter" stroke-miterlimit="4" stroke-opacity="1" stroke-dasharray="none"/>
    <path d="M338.21429 120L370 97.857142S403.21429 121.42857 402.85714 120c-.35714-1.42857-12.5-34.285715-12.5-34.285715l31.78572-21.428572-38.92857.714286-12.85715-37.5-12.14285 37.5-38.57143-.714286 31.78571 20.714286z" id="path2996" fill="#ed1a23" stroke="#000" stroke-width="1.5" stroke-linecap="butt" stroke-linejoin="miter" stroke-miterlimit="4" stroke-opacity="1" stroke-dasharray="none"/>
    <path d="M526.28948 751.0076s-44.95179 54.54824-92.42896 40.4061c-47.47717-14.14213-50.50763-34.34518-108.5914-12.12183-58.08377 22.22336-88.38835 25.75889-129.29953-37.88072 0 0-34.34518 6.56599-50.50762-47.47717 0 0-41.41626-1.51523-45.45687-28.78934-4.040608-27.27412 2.52538-23.73859-9.091371-41.41626-11.616754-17.67767-5.555839-45.96194-5.555839-45.96194l-5.555839-5.55584s-31.819805-2.52538-35.860415-27.27412c-4.04061-24.74874-2.020306-23.99112-14.142136-39.90102-20.7153987-27.18896-15.152288-54.54824-5.050763-60.60916l1.010153-10.6066S4.0406102 417.65726 7.5761441 393.4136c3.5355339-24.24366 6.5659919-18.18274 0-46.97209-2.8787039-12.62201-1.5152288-43.43657 17.6776699-54.54824 0 0 6.060915-2.02031 3.030457-17.67767-3.030457-15.65736 17.172594-54.54824 27.779195-59.09392 0 0 29.294424-46.9721 49.497474-55.05332 20.20305-8.08122 40.91118-33.84011 40.91118-33.84011s7.57614-29.799498 20.70813-34.345185c0 0 7.57614-9.596449 17.17259-10.606601 0 0 44.95179-27.779195 59.599-32.829958 14.64721-5.050763 51.51778-24.748738 51.51778-24.748738L239.91123 64.10387l15.15229-2.020305-18.68782 5.555839s-43.43656 39.901026-46.46702 46.972096c0 0 25.25381-11.61676 27.27412-12.62691 2.0203-1.01015 6.06091-6.060914 6.06091-6.060914l-2.0203 5.555834 34.85026-19.69797-39.39595 28.28427s-10.10152 12.12183-9.59645 15.65737c0 0 47.47717-34.850267 60.60915-38.385801 0 0-83.84266 53.538081-98.48987 81.822361 0 0 69.70053-56.56855 100.51018-65.15484 0 0-66.67007 38.38579-91.41881 64.64976 0 0 16.66752-2.02031 20.70813-7.07107l-2.52538 5.05076s4.54569-1.51523 5.05076-3.03045c.50508-1.51523 33.84011-36.3655 70.71068-48.9924 0 0-47.98224 24.24366-58.58885 43.43656 0 0 18.18275-4.54569 22.72844-4.04061 0 0 50.00255-23.23351 52.52793-24.24366 2.52538-1.01016-37.88072 23.2335-37.88072 23.2335l6.06091 1.01016-28.28427 12.12183h6.06092l-11.61676 4.04061s-68.69037 26.26396-64.64976 73.23606l13.63706-18.18275 19.69797 2.52538s28.78935-31.8198 62.12439-47.47717l3.57143-16.66751 63.09863-21.59573 14.14214 12.50435s48.9924-4.54568 74.75129 0l13.0707-11.99927 67.02721 23.73858.20921 15.53481s45.96195 26.26397 61.11423 46.9721l19.1929-4.04061 2.52538 4.54568v-7.57614s-52.02285-50.50763-75.76144-67.68022l17.1726 9.59645s13.87896.19936 16.90941.70444c3.03046.50508-79.96154-47.0731-79.96154-47.0731l120.63082 64.9952-.2419-11.61927-115.08097-68.31584 116.8381 63.77267s2.0203-3.97933-3.03046-10.04025c-5.05076-6.06091-5.25997-12.09645-5.25997-12.09645L464.80308 77.312945l98.35696 60.026985-.50507-9.59645s-41.41626-22.22336-46.9721-24.24366c0 0 36.3655 12.12183 47.98225 19.69797l-3.53553-12.12183c7.19445 4.96916-15.2606-9.95002-15.27856-11.869291l14.39467 9.470181-2.27284-5.68212s-5.42957-7.071054-17.04632-12.626893c-11.61676-5.555839-42.42641-26.769043-42.42641-26.769043l37.88072 16.162441s-63.63961-38.385797-65.65992-39.901026c-2.0203-1.515229 109.60156 42.426407 125.25892 72.225911 15.65736 29.7995 18.18275 45.45686 40.4061 51.0127 22.22336 5.55584 53.53809 55.55839 53.53809 55.55839s10.6066 17.67767 13.13198 24.24366c2.52538 6.56599 8.5863 15.65737 8.5863 15.65737s9.59644 22.98097 8.08122 35.35533c.0614-.24568 0 0 0 0s20.70812 13.13199 15.9099 37.37565c-4.79823 24.24366-6.06092 45.7094-4.29315 51.26524 1.76777 5.55584 9.34391 28.28427-11.36422 49.49747 0 0-2.19035 11.16236-3.26178 13.30521 0 0 20.35714 16.42857 5.71428 41.42857-14.64285 25-21.78571 32.5-23.92857 47.85715-2.14286 15.35714.35714 33.92857-40.35714 37.14285L653.21429 575l3.57143 1.07143s5 16.42857 1.07142 28.21428c-3.92857 11.78572-13.57142 25-14.28571 41.78572-.71429 16.78571 3.92857 42.85714-48.21429 47.85714 0 0-2.77818 44.87234-69.06766 57.07903z" id="path3769" fill="#000" stroke="none"/>
    <path d="M470.74704 126.77852a2.6609545 2.6609545 0 11-5.3219 0 2.6609545 2.6609545 0 115.3219 0z" id="path3864" fill="#000" fill-rule="evenodd" stroke="#000" stroke-width="1" stroke-linecap="butt" stroke-linejoin="miter" stroke-opacity="1"/>
    <path d="M484.05182 134.03568a2.9028594 2.9028594 0 11-5.80572 0 2.9028594 2.9028594 0 115.80572 0z" id="path3866" fill="#000" fill-rule="evenodd" stroke="#000" stroke-width="1" stroke-linecap="butt" stroke-linejoin="miter" stroke-opacity="1"/>
    <path d="M498.32421 140.56711a3.8704793 3.8704793 0 11-7.74095 0 3.8704793 3.8704793 0 117.74095 0z" id="path3868" fill="#000" fill-rule="evenodd" stroke="#000" stroke-width="1" stroke-linecap="butt" stroke-linejoin="miter" stroke-opacity="1"/>
    <path d="M510.41946 148.30806a3.8704793 3.8704793 0 11-7.74096 0 3.8704793 3.8704793 0 117.74096 0z" id="path3870" fill="#000" fill-rule="evenodd" stroke="#000" stroke-width="1" stroke-linecap="butt" stroke-linejoin="miter" stroke-opacity="1"/>
    <path d="M523.72424 155.68616a4.2333364 4.2333364 0 11-8.46667 0 4.2333364 4.2333364 0 118.46667 0z" id="path3872" fill="#000" fill-rule="evenodd" stroke="#000" stroke-width="1" stroke-linecap="butt" stroke-linejoin="miter" stroke-opacity="1"/>
    <path d="M538.96421 164.51569a4.3542891 4.3542891 0 11-8.70857 0 4.3542891 4.3542891 0 118.70857 0z" id="path3874" fill="#000" fill-rule="evenodd" stroke="#000" stroke-width="1" stroke-linecap="butt" stroke-linejoin="miter" stroke-opacity="1"/>
    <path d="M552.269 170.92618a4.4752417 4.4752417 0 11-8.95048 0 4.4752417 4.4752417 0 118.95048 0z" id="path3876" fill="#000" fill-rule="evenodd" stroke="#000" stroke-width="1" stroke-linecap="butt" stroke-linejoin="miter" stroke-opacity="1"/>
    <path d="M479.2137 113.23184a3.1447644 3.1447644 0 11-6.28953 0 3.1447644 3.1447644 0 116.28953 0z" id="path3878" fill="#000" fill-rule="evenodd" stroke="#000" stroke-width="1" stroke-linecap="butt" stroke-linejoin="miter" stroke-opacity="1"/>
    <path d="M493.2563516 121.21471a3.38667 3.38667 0 11-6.77334 0 3.38667 3.38667 0 116.77334 0z" id="path3880" fill="#000" fill-rule="evenodd" stroke="#000" stroke-width="1" stroke-linecap="butt" stroke-linejoin="miter" stroke-opacity="1"/>
    <path d="M508.9680101 129.4394748a4.3542891 4.3542891 0 11-8.70857 0 4.3542891 4.3542891 0 118.70857 0z" id="path3882" fill="#000" fill-rule="evenodd" stroke="#000" stroke-width="1" stroke-linecap="butt" stroke-linejoin="miter" stroke-opacity="1"/>
    <path d="M522.27277 136.57567a4.2333364 4.2333364 0 11-8.46668 0 4.2333364 4.2333364 0 118.46668 0z" id="path3884" fill="#000" fill-rule="evenodd" stroke="#000" stroke-width="1" stroke-linecap="butt" stroke-linejoin="miter" stroke-opacity="1"/>
    <path d="M533.64231 143.54941053a3.9914317 3.9914317 0 11-7.98286 0 3.9914317 3.9914317 0 117.98286 0z" id="path3886" fill="#000" fill-rule="evenodd" stroke="#000" stroke-width="1" stroke-linecap="butt" stroke-linejoin="miter" stroke-opacity="1"/>
    <path d="M547.91469 150.60616a4.4752417 4.4752417 0 11-8.95048 0 4.4752417 4.4752417 0 118.95048 0z" id="path3888" fill="#000" fill-rule="evenodd" stroke="#000" stroke-width="1" stroke-linecap="butt" stroke-linejoin="miter" stroke-opacity="1"/>
    <path d="M560.4938 158.70998a4.838099 4.838099 0 11-9.6762 0 4.838099 4.838099 0 119.6762 0z" id="path3890" fill="#000" fill-rule="evenodd" stroke="#000" stroke-width="1" stroke-linecap="butt" stroke-linejoin="miter" stroke-opacity="1"/>
    <path d="M489.72368 91.243423a2.9934211 2.9934211 0 11-5.98685 0 2.9934211 2.9934211 0 115.98685 0z" id="path3892" fill="#000" fill-rule="evenodd" stroke="#000" stroke-width="1" stroke-linecap="butt" stroke-linejoin="miter" stroke-opacity="1"/>
    <path d="M502.72367737 99.2828949a3.50658 3.50658 0 11-7.01316 0 3.50658 3.50658 0 117.01316 0z" id="path3894" fill="#000" fill-rule="evenodd" stroke="#000" stroke-width="1" stroke-linecap="butt" stroke-linejoin="miter" stroke-opacity="1"/>
    <path d="M516.40789737 107.75000263a3.7631578 3.7631578 0 11-7.52631 0 3.7631578 3.7631578 0 117.52631 0z" id="path3896" fill="#000" fill-rule="evenodd" stroke="#000" stroke-width="1" stroke-linecap="butt" stroke-linejoin="miter" stroke-opacity="1"/>
    <path d="M530.4341921 116.38815526a4.3618422 4.3618422 0 11-8.72368 0 4.3618422 4.3618422 0 118.72368 0z" id="path3898" fill="#000" fill-rule="evenodd" stroke="#000" stroke-width="1" stroke-linecap="butt" stroke-linejoin="miter" stroke-opacity="1"/>
    <path d="M543.77633 124.94079a4.3618422 4.3618422 0 11-8.72368 0 4.3618422 4.3618422 0 118.72368 0z" id="path3900" fill="#000" fill-rule="evenodd" stroke="#000" stroke-width="1" stroke-linecap="butt" stroke-linejoin="miter" stroke-opacity="1"/>
    <path d="M558.14471053 133.2368316a5.13158 5.13158 0 11-10.26316 0 5.13158 5.13158 0 1110.26316 0z" id="path3902" fill="#000" fill-rule="evenodd" stroke="#000" stroke-width="1" stroke-linecap="butt" stroke-linejoin="miter" stroke-opacity="1"/>
  </g>
  <g id="layer3" display="inline" fill-opacity="1">
    <path d="M337.64945 513.48903l4.40265-4.23332s3.38666.16934 7.28131-.84666l3.38665 3.38665s-7.28131 2.70933-15.07061 1.69333zm-16.59461 17.77994l5.41865-3.72532s15.23995 10.49863 35.89854-5.24932c0 0 14.39328 16.08661 38.60786 3.89466l4.57198 3.21732s-20.82792 15.57861-43.51851.16933c0 0-16.93328 16.42528-40.97852 1.69333zm-113.96092 5.24931s7.78931 1.35466 14.05462-1.69333c0 0-7.45065-1.18533-14.05462 1.69333zm-4.23332 16.76394s13.88529 3.38666 27.77057-7.7893c0 0 19.30393 17.1026 42.50251 1.01599 0 0 24.72258 17.61061 45.21184-1.35466 0 0 22.52125 19.6426 43.51851-.33867 0 0 19.1346 19.47327 43.51851 0 0 0 18.45727 18.28794 43.34918 1.016 0 0 21.84392 18.96527 44.19584-1.35466 0 0 22.52125 19.47326 43.85718.16933l4.91064 4.06399s-22.85991 23.87591-48.59849 3.72532c0 0-22.69058 17.6106-44.19584.67733 0 0-18.6266 16.25594-43.34918-.33867 0 0-16.76394 17.44127-44.0265 0 0 0-21.33593 16.59461-43.01052 0 0 0-19.47326 17.27194-44.87317 0 0 0-16.5946 16.42528-43.17984 0 0 0-10.8373 9.65197-22.85992 7.45064 0 0-1.016-2.37066-4.74132-6.94264zm354.58273-45.71983s6.60397.33866 14.05461-3.04799l-.16933 7.11197s-13.71595 5.75731-24.72258.16933c0 0 8.46664-2.70931 10.8373-4.23331zm2.03199 23.19858s-9.48263 1.69333-23.02925-8.8053c0 0-13.10876 13.85623-28.51803 7.92959l-7.94661 3.55598s19.02337 10.52768 36.29531-3.8656c0 0 5.07998 5.92664 18.1186 7.28131zm-75.35306 67.22509l15.07061-2.03199-6.77331-5.07998s-2.20132 3.72532-8.2973 7.11197zm-30.31056 3.21732l11.17596-1.86266s-7.45064-1.35466-15.40928-7.95864c0 0-21.16659 18.96527-43.51851-.16933 0 0-22.52125 19.6426-44.36517-.33866 0 0-19.98126 20.99725-43.34918-.16934 0 0-16.42527 20.1506-43.85717.84667 0 0-9.99063 6.09597-11.17596 6.26531-1.18533.16933 7.45064 2.37066 12.36128 1.01599 0 0 6.43465 2.87866 7.61998 2.87866 1.18533 0 26.24657 2.03199 26.24657 2.03199l8.97463-5.58798s17.77994 17.44127 43.51851.84667c0 0 16.93328 15.74794 43.85718-.16934 0 0 10.66796 6.26531 12.86929 6.26531 2.20132 0 25.73857-2.37065 25.73857-2.37065l4.57198-3.89466zm-223.85786-5.24931l7.11197-.16934-6.26531-4.40265-3.72532 2.032zm262.97372-20.48926c-23.70658 17.27194-43.85718.33866-43.85718.33866-24.38391 16.93328-44.19584-.50799-44.19584-.50799-20.65859 16.76393-42.67184.84666-42.67184.84666-24.04525 15.91727-43.85718-.67733-43.85718-.67733-26.24657 16.93327-43.85717 0-43.85717 0-24.04525 17.6106-44.19585-.16933-44.19585-.16933-5.41864 5.75731-16.93327 7.7893-16.93327 7.7893l-.508-6.77331s10.3293-.84666 17.94927-8.2973c0 0 22.35192 19.81193 43.68785.16933 0 0 17.77993 18.6266 43.85717-.16933 0 0 15.07061 19.98126 43.68784 0 0 0 17.94927 19.1346 43.68785.16933 0 0 22.01325 18.79593 43.17984 0 0 0 18.6266 18.1186 44.02651 0 0 0 14.73195 12.69995 30.31056 7.61997l.16933 6.26531s-14.05462 4.74132-30.47989-6.60397z" id="path3854" fill="#fff" stroke="none"/>
    <path d="M341.71875 696.59375c-1.82344-.29064-2.72032 1.82539-1.3125 2.90625 1.84968 1.8469 4.23417 3.69076 6.53125 4.71875 2.36986-1.14953 7.05375-1.92724 7.98125-3.30815-2.51341-2.01225-5.25227-4.44317-8.75719-4.04475-1.47388-.1467-2.958-.38384-4.44281-.2721zm-68.40625 1.21875c-2.2957-.17447-4.37188 2.5043-2.59375 4.46875 5.69169 6.68864 14.35089 10.28166 22.07741 14.30665 2.67238 1.19634 5.32246 2.70742 8.07884 3.5371 5.13609-1.73759 10.26685-3.491 15.40625-5.21875-12.78895-6.39496-25.55189-13.45538-39.5-16.84375-1.13664-.21471-2.31149-.34341-3.46875-.25zm175.375.625c-4.44966.56413-7.96751 3.98183-12.12198 5.59865-47.40949 24.07403-98.4014 41.12539-149.81552 54.1826-19.08732 4.65033-38.42148 9.0658-57.875 12.28125 13.45812 6.00134 28.79492 3.93458 42.9375 1.875 32.71093-5.73504 64.13948-17.02786 95.10497-28.83311 32.05733-12.50291 63.57191-26.37785 94.52003-41.35439-3.86966-2.13927-8.22425-3.97704-12.75-3.75zm-131.09375.78125c-3.42295-.27374-6.72706 3.87844-4.34375 6.8125 1.76092 1.78642 4.77396 1.1075 6.78125 1.40625 1.77558 1.33386 2.79971 4.08305 4.4375 5 5.15557-1.9497 10.31645-3.88547 15.46875-5.84375-4.10419-3.37629-9.03543-6.23919-14.4375-6.3125-2.50767-.74937-5.24465-1.22769-7.90625-1.0625zm91.5 1.75c-51.26017 20.1304-103.54533 38.50868-157.63976 49.14962-13.25315 2.34837-26.63883 4.80914-40.14149 4.66288 7.07212 7.9165 18.77719 8.71375 28.81224 8.62848 25.40451-.93865 49.93709-8.34262 74.00644-15.94044 37.29266-12.25559 73.80967-27.39693 109.24382-43.93804-4.41964-2.12093-9.44309-2.56486-14.28125-2.5625zm-52.5 2.84375c-45.39028 20.0974-94.264 32.38162-143.87473 35.11022-4.42481.18462-8.85284.26568-13.28152.23353 9.76023 9.80302 24.72789 10.46635 37.81001 9.91361 28.0682-1.85309 55.09908-10.38028 81.54929-19.47719 20.22821-7.13911 40.12124-15.25898 59.60945-24.21767-7.26694-.53201-14.55126-1.13385-21.8125-1.5625zm107.8125 2.90625c-53.50611 29.71329-111.55099 50.61187-170.625 66.375-14.15744 3.58511-28.50335 7.13636-42.90625 9.9375 11.67548 5.69299 25.27674 3.59751 37.67914 1.81521 31.82465-5.83398 62.31672-17.25927 92.36531-29.05799 25.95799-10.53549 51.72608-21.68253 76.8618-33.97597 4.07898-2.50732 9.60972-5.71234 9.40625-11.1875-.24724-1.49324-1.26917-3.78655-2.78125-3.90625zm-192.375 4.84375c-1.24198 2.78467-2.5428 5.54427-3.75 8.34375 3.29264 1.59568 6.77607 3.63946 7.8125 7.4375 5.42841-1.15619 11.64912-1.58588 16-5.21875.60167-2.54388-2.96911-3.63807-4.638-4.74816-4.85357-2.50383-10.04904-4.37753-15.20575-6.22059l-.21875.40625zm188.71875 18.5c-3.66511.44544-8.75426 1.94812-9.5625 6.03125.79825 3.85518 6.02197 3.64551 8.9089 5.29604 17.82284 5.91482 36.72281 11.01006 55.67347 8.64727 5.1247-.75991 10.16502-2.38931 14.51138-5.28706-21.59027-4.4164-43.4803-8.38556-64.71875-13.875-1.52252-.64209-3.13128-.99496-4.8125-.8125zm-30 9.5c-3.53105-.24206-6.90689 3.04947-5.6875 6.6875.91681 3.76832 5.6346 3.72055 8.46372 5.43698 19.50514 7.60628 40.22739 13.93578 61.40745 12.69439 8.12535-.56548 16.12085-2.83659 22.69133-7.66262-22.7812-.78953-46.02723-2.80885-67.39767-11.10182-6.18076-2.62111-12.5082-6.16099-19.47733-6.05443zM407.625 752.75c-3.16311-.3476-6.95505 2.60992-5.0625 5.875 2.51199 4.18858 8.19847 4.7934 12.31025 6.96119 23.39979 8.93844 49.14993 14.75916 74.1585 9.82006 3.89431-.82314 7.65665-2.03162 11.40625-3.40625-25.57951-4.2391-51.47006-7.86478-76.34797-15.13091-5.37478-1.80328-10.6595-4.36302-16.46453-4.11909zm-21.71875 9.96875c-2.58448.43397-.59987 3.4331.59375 4.3125 8.86974 8.41183 21.43501 11.18318 32.95418 14.08191 17.14514 3.57462 34.74925 6.06354 52.29252 5.01703 4.96418-.59829-1.3327-1.6472-3.34274-1.87554-24.26959-4.54087-48.603-9.29759-71.71048-18.13147-3.57317-1.20335-6.86248-3.70747-10.78723-3.40443z" id="path3771" fill="#fbca0a" stroke="none"/>
    <path d="M23.233509 298.96434s-18.897032 15.84119-13.088655 41.85262c5.808377 26.01143 4.145215 38.16607 1.201414 47.77303-1.126954 3.67776-5.5378909 28.56219 16.432927 42.19925 21.970818 13.63706 78.034285 26.51651 103.035555 30.30458 25.00128 3.78807 22.22337 11.11167 25.25382 24.4962-.3174-.37827 0 0 0 0s5.80838-13.63706.25254-24.24366c-5.55584-10.6066-9.09138-22.4759-8.5863-27.52666.50508-5.05076 7.82868-27.27412-16.16244-36.11295-23.99112-8.83884-74.498751-36.36549-92.681497-44.95179-18.182746-8.5863-30.8096518-29.29442-15.657364-53.79062zm-.01922 151.39281S10.760902 471.17159 32.14286 500c15.288433 20.61276 15 39.28571 15 39.28571s-3.067027 34.06579 42.857143 27.85715c46.323967-6.26269 92.766977-4.53157 99.069067-4.07651 8.09173.5843 15.93093 5.50507 14.14522 20.50507l6.42857 7.14287s8.21428-26.07143-15.71429-40.35715C170 536.07143 162.85714 506.78571 162.85714 506.78571s1.34583-8.34678-13.21428-10.71428c-43.92857-7.14286-127.857146 9.64286-126.428571-45.71428zm70.714283 134.28571s-2.857143 26.42857 26.785718 34.28571C150.35714 626.78571 157.5 652.85714 157.5 652.85714S165 673.92857 185.71429 690C206.42857 706.07143 200 711.78571 200 711.78571s-.71429-21.07142-52.14286-22.14285c-51.428568-1.07143-44.64285-38.57143-44.64285-38.57143s2.14285-15.71429-7.500004-27.5c-9.642857-11.78572-10-35-7.142857-41.78572zM236.07143 707.5s-40.71429-16.78571-71.78572-71.78571c0 0-8.74379-27.64782 34.81219-35.41258 0 0 27.622-4.18866 87.33068 4.34115 72.49999 10.35714 195.71428-2.5 195.71428-2.5s104.64286-16.42857 93.21429 28.92857c-11.42857 45.35715-70.00001 76.78571-70.00001 76.78571s6.78572-13.92857-24.64285-14.64285c-31.42858-.71429-215.35715-1.42858-231.07143 1.07142-15.71429 2.5-13.21429 8.21429-13.57143 13.21429zm306.33409 4.1346s-3.35262-9.81838 4.78945-15.8052c8.14207-5.98681 24.18674-19.39728 39.03404-46.45769 14.8473-27.06041 37.83668-31.61039 37.83668-31.61039s26.10251-4.3105 23.70779-33.76564c0 0 5.02892-6.46576 5.98681-1.19736.95789 5.2684 2.87368 25.62357-5.26839 36.87879-8.14207 11.25521-7.9026 21.55253-8.14207 28.49724-.23948 6.94471 4.07103 36.87879-40.47088 41.18929-44.54191 4.31051-50.28925 3.83157-57.47343 22.27096zm-6.49165-127.02582s-3.19312-25.06125 26.60944-22.69059c29.80256 2.37066 97.71405 8.95287 112.77559 3.38665 15.57861-5.75731 17.94927-16.93327 17.94927-23.02925 0-6.09597 1.35466-21.33592 12.86929-37.59186 11.51462-16.25594 21.67459-39.28519 9.8213-55.20247l-3.38666 6.09598s6.77331 28.10923-26.75457 32.51188c-33.52788 4.40265-90.08501 7.45064-90.08501 7.45064s-17.27193.33867-17.94927 9.14397c-.67733 8.8053-7.11197 27.09324-30.14122 45.38117-23.02925 18.28793-18.28794 35.41472-17.94927 37.10805zm50.31602-95.84233s0-25.73857 13.20795-27.09323c13.20796-1.35466 91.10101-14.90128 111.7596-27.77057 20.65859-12.86929 18.6266-35.55987 18.6266-35.55987s-7.11197-18.28794-.33866-55.54113c6.7733-37.2532-10.8373-43.34918-10.8373-43.34918s1.69333 8.12797 3.72532 12.53062c2.03199 4.40265 6.09598 23.70658-12.53062 35.55987-18.6266 11.85329-86.02102 42.33318-93.81033 46.73583-7.78931 4.40265-24.04525 10.49863-23.02925 26.75457 1.016 16.25595.67733 25.73858-4.40265 33.18922-5.07998 7.45064-8.8053 21.67459-2.37066 34.54387z" id="path3773" fill="#ed1a23" stroke="none"/>
    <path d="M252.78125 49.625c-19.03229 7.933203-34.3158 22.791234-47.05253 38.663502-.92947 1.153684-5.39804 6.532072-1.99074 4.398876 14.90204-13.903484 29.60431-28.254734 46.13702-40.093628 1.56216-1.266208 3.64395-1.729011 5-3.21875-.7284-.04518-1.42274-.09424-2.09375.25zm-36.9375 21.25c-9.83359.906425-19.5762 5.32712-26.15625 12.71875 9.28187-3.422593 17.91944-8.64141 27.375-11.8125.24588-.951202-.47216-1.025723-1.21875-.90625zm-29.8125 13.1875c-10.77152 1.79614-17.52749 11.67804-22.59375 20.5625-11.60897 21.20539-16.51078 45.39683-22.8125 68.5625-5.67469 19.56527-11.36096 39.1941-18.5254 58.26491-2.85697 8.08605-10.28177 12.93948-16.69335 17.89134.37498-.58363 3.08652-3.70706 4.25-5.34375 7.27748-9.53303 12.84688-20.50858 14.8125-32.40625 6.92435-26.96222 15.81035-53.54932 24.46875-80.0625-5.77931.11103-9.12887 5.9037-11.53125 10.46875-7.8701 16.36664-8.07899 35.05268-12.83402 52.40821-5.21736 21.74955-13.20719 43.30301-26.375523 61.53843.50655 1.45954 3.813823-3.00977 5.119243-4.21783.89882-1.01085-1.01632 1.74692-.9097 2.45869-1.20028 5.27159 2.25414 10.14716 6.03125 13.40625-2.07395-7.18406 3.87383-13.32421 7.62065-18.83125 6.31079-8.06194 12.91251-16.20764 15.69739-26.24358 10.80084-32.26666 17.76921-65.69097 28.45591-97.98532 5.81274-15.42025 14.52695-30.521713 27.60105-40.6586l-1.78125.1875zm13.28125 4.3125c-14.00202 1.574398-24.56235 13.0321-30.63753 25.03704-7.603 14.71326-9.91558 31.42045-14.6345 47.17488-5.04061 17.84734-9.36403 36.01231-16.41547 53.19433-6.11434 10.00358-9.18054 21.53281-13.3529 32.4276-4.06501 7.26482-8.80519 14.71374-9.61585 23.16615-.37424 3.14506 2.63673 4.97498 5.53125 4.53125 3.29118.52141 6.67374-1.48122 6.7762-5.0394.75531-5.6377.62503-11.88485 1.80384-17.66413 1.45651-8.56715 3.85357-17.75748 10.51371-23.76522 8.04354-11.37232 11.61502-25.1815 15.57916-38.38546 4.04507-14.64992 6.50039-29.65877 11.94388-43.93315 7.54331-20.90343 17.79904-41.77286 34.47696-56.77514-.6556.02034-1.31526-.03885-1.96875.03125zm.59375 27.0625c-8.33772 2.04338-18.00461 5.03906-22.4375 12.96875-1.22046 2.22302-1.41448 4.80664-1.125 7.3125 7.66897-7.48812 15.62829-14.67265 24.8671-20.07654.82421-.40537-1.1187-.24366-1.3046-.20471zm1.8125 3.84375c-9.07223 7.36637-18.12747 15.335-28.5625 20.46875-1.86458 3.66974-.93451 8.18719-.53125 12.15625 10.63534-8.33819 21.75554-16.96826 28.53125-28.875.42421-1.1098 3.59599-7.24916.5625-3.75zM111.25 164c-10.21994 3.63135-19.331717 10.63978-27.328051 18.00396-8.69092 8.15627-15.828407 18.21062-19.359449 29.68354 15.818269-14.55946 31.898096-28.9536 46.66506-44.53935.53104-.53196 3.37504-3.65981.0224-3.14815zm10.8125 2.15625c-10.07513 7.30466-19.34865 16.1858-26.21875 26.65625-1.902839 2.44248-2.426693 5.9236.577129 2.00082 8.658581-9.43335 17.757721-18.97008 26.297871-28.18832.10062-.81182.0109-.76829-.65625-.46875zm95.96875.125c-27.63984 8.85111-50.42262 28.7389-67.91594 51.39116-.99411 1.12747-4.35268 6.01435-1.15359 3.55156 19.00675-17.20068 38.09908-34.35404 59.44453-48.56772 3.73973-2.68431 8.10923-4.27399 11.90625-6.5625-.81838-.24261-1.50293-.12602-2.28125.1875zm-25.78125 3.875c-6.00038.25621-10.40462 5.48729-11.28125 11.15625 4.76615-4.09878 9.61912-9.06333 16.0324-10.04587 1.82069-.78399-2.53913-1.20847-3.75115-1.14163-.33341.009-.66788-.0193-1 .0312zM179.875 174.5c-5.36574 2.13774-10.83248 4.48902-16.59375 4.6875-2.87262 2.57899-1.58793 7.2828-1.46875 10.75.35079 3.02786 4.01266-2.67254 5.80764-3.45673 4.52203-4.14845 9.50656-7.85042 13.72361-12.29327-.48958.10417-.97917.20833-1.46875.3125zm-60.96875 6.625c-25.095282 18.44353-44.874091 42.96789-63.892048 67.41662-4.546346 5.52047-8.384863 11.82707-13.357952 16.80213-4.049392 3.13769-5.826462 8.676-9.3125 12.40625-2.414562 9.9151-2.250722 20.40621-3.016205 30.59043-.560488 11.58947-1.02465 23.18461-1.296295 34.78457 3.675928 3.12627 7.379966 6.22006 11.03125 9.375-2.941332-20.07073-5.016632-41.20423.875-60.875 1.830257-6.26389 5.516169-11.74198 10.555112-15.84763 22.5901-22.09817 45.145823-44.23387 67.757388-66.30862-1.98498-9.61456.22661-19.50782 1.65625-29.0625-.33333.23958-.66667.47917-1 .71875zM87.1875 200.75c-21.002796 7.94286-35.922247 26.31079-46.436057 45.50909-2.592712 5.30624-5.742736 10.42607-7.188943 16.17841 10.631456-11.84878 20.687552-24.26344 31.303938-36.14384 7.756806-8.85491 15.726124-17.69177 23.883562-25.94991-.520833.13542-1.041667.27083-1.5625.40625zm61.375 34.5625c-11.76764 20.85247-18.43957 44.24601-23.0625 67.625-4.31625 22.58575-6.08933 45.61387-6 68.59375 2.63255.42214 5.29606.59151 5.09251-2.71735 4.17509-20.02283 7.23173-40.40759 14.21532-59.65428 2.2176-5.62495 7.56132-11.01278 5.37967-17.50337-1.18689-3.52671-5.02733-5.68836-5.25-9.65625-1.23647-4.04562 1.57629-7.25119 4.25-9.8125 6.57274-9.081 6.25218-21.13104 6.42516-31.93735-.40607-1.12311.67117-9.11867-1.05016-4.93765zM80.46875 252.25c-9.900305 1.94466-15.363825 11.97393-17.496268 21.07882-2.859278 12.10887-3.212426 25.10858-1.537044 37.5137 1.723704-3.8546 2.977962-9.29473 4.524981-13.74609 4.891327-15.09242 9.399967-30.35477 15.445831-45.03393l-.49029.0981zm8.75 8.28125c5.27699 11.44558 17.11589 19.83169 30 19.28125 1.41236.0495 5.04554-.302 4.83074-.94632-6.2212-1.32589-11.17357-6.00185-15.17449-10.45993-7.57427-.12768-14.732542-3.70468-19.875-9.15625.07292.42708.145833.85417.21875 1.28125zm3.3125 17.125c-1.200922 18.15694-6.141333 35.72845-12.125572 52.79466.685383.57045 2.365657-2.35371 3.188072-3.60716 8.433038-14.80431 10.547386-32.35139 9.9375-49.1875-.581107-1.3372-.330243-1.39864-1 0zM49.625 287.9375c-7.568714 2.78691-9.216957 11.98174-9.25 19.15625.203562 17.61752 5.522999 34.645 11.375 51.09375 2.66062 1.39775 5.312832 2.81192 7.96875 4.21875-6.246667-24.31583-7.966948-49.67661-9.4375-74.71875l-.467244.178zm63.375 1.25c-9.20932 13.71881-14.831741 30.28186-13.84375 46.9375 1.19262 2.94731 1.4699-4.19066 2.125-5.71875 2.97903-13.42653 5.64981-27.10969 11.84375-39.46875.59354-.72318 1.63608-3.36638-.125-1.75zm-24.21875 48.375c-5.928524 1.79096-12.250752 1.02471-18.21875-.15625 7.643715 6.2265 16.408196 11.90802 26.3125 13.3125 1.830052-1.49616 5.35584-2.63431 5.125-5.375-2.138166-1.38906-5.379793.0559-7.65625-1.3125-2.801814-1.02277-4.452742-3.85231-5.0625-6.65625l-.468165.17556-.03184.0119zm-18.3125 5.40625c-4.096555.80836-3.233959 6.07332-2.301485 9.0514 1.000177 5.5327 1.437665 11.14826 2.082735 16.72985 2.427152-5.68219 1.695971-12.15443 2.433985-18.18673.03512-2.62377 3.538893 2.02402 5.222265 2.18673 5.6473 3.1645 11.988572 5.26647 18.53125 5.28125C97.885892 363.54162 94.381345 368.80174 91.25 373c6.721102-2.41768 10.53687-10.65225 9.03125-17.4375-1.105107-4.13714-6.180845-3.00903-9.182988-4.8107-6.618275-2.37818-12.58978-6.9291-19.692012-7.84555-.312038.0267-.631827-.0475-.9375.0625zm-40.4375 92.96875c1.416556 18.18484 7.19942 36.64109 19.78125 50.125 4.255703.62378 1.056697-2.68875.302786-4.80068-6.00372-13.10539-12.548803-26.63476-13.896536-41.19932.616643-3.18267-4.028399-3.15853-5.915964-4.81736-.713662-.66664-.194461.44222-.271536.69236zm11 5.875c-1.176151 1.03364 1.168933 4.55535 1.30083 6.52292 4.342573 13.22433 8.188795 26.99951 15.73042 38.75833 1.646767 2.77128 5.912902 2.96094 8.5 1.34375-7.04279-14.95715-14.556922-29.71375-20.34375-45.25.148014-2.88439-3.303789-.92805-5.1875-1.375zM62.1875 448.25c-4.04121-.27232-1.776471 3.37613-1.40625 5.75 3.456697 12.61588 6.968871 25.67819 14.3125 36.6875 3.000747-.10605 5.999162-.29256 9-.40625-8.278033-13.46939-15.641443-27.46832-21.46875-42.125l-.4375.0937zm9.5 4.21875c2.027752 6.47899 4.125864 12.9387 6.375 19.34375 1.739298-.99806 7.597946.43228 6.01704-2.57012-2.098919-5.4235-3.497069-11.28832-6.07954-16.42988-2.025254-.77955-4.32365-.84269-6.53125-1.0625l.145581.47834zm18.09375 2.90625c-1.632285-.0999-3.262613 1.18134-2.046417 2.85468 1.559202 4.44267 2.43108 9.3021 4.890167 13.33282 2.008802-.5278 7.76703 1.20647 5.017554-2.23223-2.173375-4.45773-4.419092-9.20775-5.892554-13.73652-.614488-.29301-1.288918-.30572-1.96875-.21875zm14.75 2.84375c-2.52302-.42269-2.47117 1.35653-1.69929 3.3221.85923 3.34786 1.29841 7.10444 3.38679 9.89665 1.78089-.81841 8.25229.71421 5.8605-2.20124-2.01229-3.43304-4.14167-7.11988-5.673-10.64251-.48158-.43765-1.22659-.44888-1.875-.375zm14.1875 2.53125c-1.80493.80768-8.24795-.80732-6.00487 2.09204 2.24574 4.09223 4.12282 8.49 4.69237 13.06421 2.73143 4.89689 3.70913 10.6847 3.53125 16.34375 3.40733.25621 6.81151.55459 10.21875.8125-4.4955-10.07104-9.8267-20.19933-11.84375-31.09375-.26487-.34231.3788-1.70242-.59375-1.21875zm6.5 1.15625c-2.97873.8296-.99777 4.56251-.71688 6.53786 2.03955 8.84267 4.66057 18.08144 10.24813 25.27464 1.81484.26092 5.8988.88034 5.5625-2-4.75378-9.33188-8.80376-19.24737-12.53125-29.03125-.66252-.5991-1.65381-.90777-2.5625-.78125zM138.5 466.75c-2.11914 10.67492 4.31207 20.9324 11.5098 28.22855 3.1402 2.7848-.30498-2.8403-.95848-4.2038-3.58551-7.57643-7.94562-14.99749-9.61382-23.27475-.32222-1.14897.62663-4.25806-.9375-.75zm-60.09375 7.15625c7.892062 4.38164 17.73408 4.75849 26.4375 2.65625 2.14789-.74691 4.56549-1.21222 6.4375-2.65625-10.60507.28753-21.307428.97595-31.904449-.0826l-.498199.0424zm35.1875 3.875c-1.3371.20853-3.68414 2.7827-1.28125 2.90625 1.24512.49025 4.86934 1.40042 4.375-1-.42854-1.16775-1.81833-2.12835-3.09375-1.90625zm-15.4375.875c-2.376695.11192-4.072338 1.89277-5.5 3.625 2.916707-.87588 6.527258-.98828 9.15625-1.90625.26847-1.51181-2.54882-1.81072-3.65625-1.71875zm18.875 5.125c-3.11294.93708-4.33689 6.10153-.75 7.3125 2.18905 1.13013 1.91409.6726 1.59375-1.375-.28577-1.79762 1.21569-4.82377-.6875-5.96875l-.15625.0312zm-15.90625 1.3125c-2.517171.74026-1.865126 4.9219-.84375 6.3125 1.81528-.16763 5.08031 1.16885 6.125-.78125-.75466-2.22019-2.22717-6.3746-5.28125-5.53125zm60 79.71875c2.00777 9.02289 8.56044 17.22906 17.6875 19.8125-5.48396-6.6503-11.915-12.75234-16.65625-19.875-.55168-.76929-1.33056-1.63724-1.03125.0625zm23.78125-.28125c-.41755 2.47223 1.78962 5.0198 2.67175 7.34798 4.43598 8.3539 9.59166 16.6043 17.01575 22.58952-2.59539-6.54989-7.11079-12.20972-10.70622-18.22111-2.68773-3.9846-5.11114-8.33663-8.29378-11.87264-.21436.0766-.59282-.16462-.6875.15625zm-47.96875 1.875c1.992 3.61061 3.53781 8.02262 7 10.34375 1.80116-.46927 8.54433 1.26392 5.01815-1.5867-2.96586-3.09953-5.69699-6.69614-8.7994-9.50705-.71737.34266-4.60735-.75959-3.21875.75zm15.375 0c-.62759 3.27872 2.13615 6.70089 4.4375 8.96875 2.42944 2.156 5.32023 3.96962 8.5 4.84375-3.97097-4.68995-8.80395-9.08743-12.4375-13.96875-.17644.0317-.43843-.11419-.5.15625zm-28.6875 1.8125c7.84253 8.72368 17.77267 15.81563 29.125 19.1875 5.92694 2.47658 11.79558 5.78226 15.90625 10.8125 2.60676-3.0503-.55145-7.09817-3.3125-8.71875-6.56006-4.21593-14.77485-5.19946-21.34089-9.61425-5.95888-3.36301-11.26314-7.85828-16.22161-12.4795-.659.40477-6.554-.86988-4.15625.8125zm52.8125.25c3.1156 7.42486 7.21587 14.68026 8.75 22.59375 4.20654 1.1747 7.53595 4.45689 10.125 7.71875 3.97172-.46052 4.98687-1.85669 1.72074-4.65759-6.58329-8.79289-13.42074-17.43121-19.81449-26.34241-.60514.11877-1.52919-.41929-.78125.6875zm-66.15625-.0312c-1.60158.67757-7.94776-.0197-6.28125 1.625 10.66206 9.10626 21.32785 18.41788 32.3125 27 3.91408 5.39332 7.61325 13.12305 15.03125 13.59375 3.35678.22119 7.10755-1.71662 7.0625-5.40625-.1816-6.63277-6.94053-10.09942-12.09375-12.96875-13.10725-5.76769-26.49411-12.8448-35.75-23.875l-.28125.0312zm-18.25 3.0625c8.30424 10.19291 17.6068 20.66247 30.34375 25.09375 7.37558 3.65832 13.28055 9.60356 18.56395 15.55193 1.48858-.33509-2.04022-3.99911-2.86768-5.44911-6.26571-8.27672-14.02478-16.02682-23.88377-19.60282-8.20041-4.27242-15.09661-10.3351-21.853464-16.47361-1.060077-.83895-.453943.289-.302786.87986zM183 596.03125c-5.83133 4.0066-12.8147 6.82711-18.75 10.75-4.21143 4.30384-9.81986 6.86153-15.53125 8.78125.25096 4.82664 5.96431 6.1027 9.875 6.71875 1.80189-.0896 5.22975 1.61724 5.00926-1.20802 2.07317-8.98711 10.86535-14.17449 18.67059-17.95409 2.22385-.94609 4.43267-1.94765 6.75765-2.61914-1.69149-1.6366-3.43347-4.51158-6.03125-4.46875zm400.23284 26.89433s55.15433-32.17336 65.31434-48.13909c0 0-40.88194 33.14099-65.31434 48.13909zm4.59619-12.82097s47.65528-29.99621 49.34861-36.28574h-19.35239s-24.67431 32.17335-29.99622 36.28574zm5.56382-15.24001s17.90096-10.64382 18.86858-24.4324l-13.78858-.72571s-6.77333 8.95048-5.08 25.15811zm-6.53144 5.56381c0-2.66095 1.20953-22.98097 5.56382-30.23811l-8.46668-.48381s-10.40191 17.17525-25.40002 29.2705c0 0 7.98286 17.65905 28.30288 1.45142zm-31.20574-4.35428s20.32002-19.1105 22.01335-26.85145l-11.12762-.96762s-5.32191 14.9981-17.65906 21.04573c.48381 2.17715 6.77333 6.77334 6.77333 6.77334zm-19.5943.2419s8.22477 3.87048 8.22477-6.77334 1.69334-17.41715 6.77334-23.70668c0 0-11.61144-.96762-14.99811 30.48002zm15.48192-14.7562l12.82096-15.72382s-16.93334 1.20952-12.82096 15.72382z" id="path3775" fill="#088740" stroke="none"/>
    <path d="M149.90987 693.91362s6.46576 22.03149 17.24203 30.89197c0 0 6.94471-10.53679 16.76308-10.53679 9.81838 0 16.52362-3.83157 8.14207-10.77627-8.38154-6.94471-26.34199-11.25522-42.14718-9.57891zm19.63676 33.76564s6.46576 9.81838 20.59464 9.57891c14.12889-.23947 34.00512-2.39473 41.66824-1.19736 7.66312 1.19736 37.83668-6.46576 32.56828-18.67887-5.2684-12.2131-21.07359-7.42365-21.07359-7.42365s-7.18418 3.11314-23.94727-7.66313c-16.76308-10.77626-33.28669-31.37091-42.62613-45.02085-9.33943-13.64994-17.4815-26.58146-31.13144-34.72353-13.64994-8.14207-46.697162-34.72353-46.697162-34.72353s-3.831562 17.24203 16.523612 25.62357c20.35517 8.38154 36.39984 21.55253 40.47088 29.6946 4.07103 8.14207 12.45257 31.37092 33.04722 47.65506 20.59465 16.28414 13.88941 26.34199 4.54998 26.34199s-21.31307-.47895-23.94726 10.53679zm405.33797-2.35499s-4.57199-11.00663-12.69996-12.02262c-8.12797-1.016-18.45726 0-14.90128-8.63597 3.55599-8.63597 33.86655-12.69996 44.02651-11.3453-1.35466 14.90128-16.42527 32.00389-16.42527 32.00389zm-1.69333.84666s-5.92664 15.74795-46.22783 8.29731c0 0-32.68122 4.91064-47.24383-11.51463-14.56262-16.42527 22.01325-13.88528 22.01325-13.88528s17.30427 4.07947 59.77445-45.88917c47.01222-55.31263 81.61838-76.53839 81.61838-76.53839s4.40831 11.72327-3.25481 18.66798c-7.66312 6.9447-33.76564 10.77627-45.73927 28.0183s-23.35393 42.9398-37.83668 53.16292c-16.28414 11.49469-23.94726 24.18674-10.77627 28.97619 13.171 4.78945 16.31118-6.60876 27.67261 10.70477z" id="path3783" fill="#b70f15" stroke="none"/>
    <path d="M180.17002 532.11563s-9.14397-9.8213-11.51463-19.98126c-2.37065-10.15996-3.04799-14.22395-11.85329-17.94927.33867.009 0 0 0 0s11.85329-14.22395 4.06399-30.47989c-7.78931-16.25594-10.8373-25.06124-9.8213-33.86654 1.016-8.80531 5.07998-22.35192-19.30393-37.93053 0 0-2.03199-12.86929-.67733-13.54662 1.35466-.67733 3.72532-1.016 3.72532-1.016s4.06398-48.76782 22.69058-80.26371l-10.15996-13.54662 29.46389-45.0425 17.94927 3.04799s37.2532-39.62386 71.79708-53.50914l2.535-16.53651 47.58748-16.65271 13.54662 12.53062s47.0745-8.46663 82.97304.67733l12.86928-13.20795 51.13849 17.6106v17.27194s41.31718 17.94927 68.74908 51.47715l18.28794-2.37066 31.49588 44.70384-10.49863 13.20795s20.31993 43.01052 22.69059 81.95704l12.53062 5.41865.33867 4.06399s-32.17322 10.15996-31.49589 30.47989c.67733 20.31992-2.37066 29.80255-6.09598 37.93053-3.72532 8.12797-4.74131 22.35192-4.74131 22.35192s-25.06125 7.11197-28.4479 10.15996c0 0-8.46664-13.20795-26.75457-19.6426 0 0-4.06399-9.48263-14.56262-10.83729 0 0-2.70932-16.25594-26.07724-20.65859 0 0-7.11197-10.8373-19.30393-14.90128 0 0-5.41864-37.59187-7.7893-40.30119 0 0-38.2692-14.22395-90.76234-.33867 0 0-24.04525-6.77331-35.22121-3.72532-11.17596 3.04799-116.50091 121.24223-116.50091 121.24223l-29.12523 11.85329 7.7893 17.27194z" id="path3785" fill="#fbca0a" stroke="none"/>
    <path d="M365.43524 470.9646l.23947-85.49173s38.07615-11.97363 77.58914-2.15525l5.02892 80.70227s-48.134-13.17099-82.85753 6.94471zm97.46536 7.9026s-2.39472-69.20759-10.77627-92.19697l-5.26839-2.15525 4.07103 80.94175zm-94.59169-5.98682s25.62357-17.24203 79.74439-6.46576l13.64994 14.60783s-62.50236.47895-79.98386 2.6342zm-17.8407 11.13548l14.12887-10.17759 13.41048 10.29732s-10.65654 6.46577-15.68546 5.50788c-5.02893-.9579-11.85389-5.62761-11.85389-5.62761zm-4.66973-.35921l15.8052-10.5368s-24.90516-17.24203-81.4207-6.70523l-11.49468 13.88941s64.6576.95789 77.11018 3.35262zm-79.02596-6.22629l.47894-32.56828 12.69205-9.5789-1.19736 29.45513zm15.80519-43.58402l-1.19736 30.17355s48.85241-12.93152 81.66016 7.42365V385.2334s-73.99704-27.53935-80.4628 48.61294z" id="path3844" fill="#fff" stroke="none"/>
    <path d="M350.82741 488.20663s-11.97363-2.39473-24.66568-2.15525c-12.69205.23947-63.69972-1.91579-63.69972-1.91579l.47894-33.04722-48.37347 50.52873-27.77882 11.25521 6.9447 14.8473 18.19992-5.50787-2.87367-5.98681s20.59465-3.11315 26.82094-4.31051c0 0 37.11825 17.96045 56.03659 19.39728 0 0 7.66313-13.17099 17.24203-14.36835 0 0 4.07104-6.46577 9.33943-7.42366 0 0-.47894-9.33943 7.66313-11.73416 8.14207-2.39472 10.53679-8.62101 10.53679-8.62101s6.70524.47895 7.9026 1.67631c0 0 4.78945-2.6342 6.22629-2.6342zm16.52361 5.50787l3.83156 3.83156s9.09996-4.78945 19.63676 3.59209c0 0 13.41047 2.15526 17.4815 8.38154 0 0 15.56572-.71841 22.27096 10.29733 0 0 12.2131-1.91578 16.52361 3.59209 4.31051 5.50787 9.81838 7.90259 17.72097 7.66312 7.9026-.23947 11.25522-1.91578 12.45258-4.07103 1.19736-2.15526 9.57891-6.70524 13.64994-6.22629 4.07104.47894 10.5368-8.14207 10.5368-8.14207s4.31051-8.14207 17.72097-8.38154c13.41047-.23948 17.96045-8.86049 17.96045-8.86049s0-1.91578 10.05785-6.22629c0 0-8.14207-11.73416-27.29988-17.00256 0 0 1.43684-7.42365-12.45258-11.25521 0 0-.71841-14.36836-26.58146-20.83412 0 0-6.22629-10.05785-16.52361-14.12889l2.39473 58.19185-87.40752 3.35262s-5.74734 4.78945-11.97363 6.22629z" id="path3846" fill="#09a04b" stroke="none"/>
    <path d="M189.65265 540.92093s30.14123-17.27194 66.03976-3.38665c35.89854 13.88528 44.36518 13.20795 57.91179.67733l-5.41864-5.75731 5.41864 5.75731s-1.69332-3.04799-7.11197-5.75731c0 0 17.27194 2.03199 27.4319-15.57861 10.15997-17.61061 20.65859-10.15997 20.65859-10.15997s3.72532 8.12797 20.6586 7.11198c-.10983.20137 0 0 0 0s7.45064 6.09597 18.28793 7.45064c10.8373 1.35466 16.93327 5.75731 16.93327 5.75731s7.45064 11.17596 28.10924 9.8213c0 0 8.8053 12.86928 31.83455 6.09597 0 0 12.53062-.33866 27.77056-11.17595 0 0 25.39991-9.48264 29.12523-9.48264s7.45064-14.22395 48.42916-19.98126c0 0 1.35466-5.07998 8.46664-7.45064l-5.07998-13.20795s-38.94653 12.86929-40.97852 15.23994c-2.032 2.37066-10.49863 8.80531-12.53062 8.80531-2.032 0-17.27194 0-22.69059 8.12797-5.41865 8.12797-7.45064 7.7893-12.19196 8.46663-4.74131.67733-9.48263 3.38666-14.22394 8.46664-.26547.0366 0 0 0 0s-15.57862 4.74132-22.69059 1.016c-7.11197-3.72532-6.43464-10.49863-25.06124-8.80531 0 0-1.016-10.49863-21.67459-10.49863 0 0-1.69333-7.11197-18.6266-9.14396 0 0-6.77331-6.77331-18.28794-3.04799 0 0-10.83729-13.54662-25.06124-5.75731-1.69333-1.016-6.77331-2.032-8.12797.33866 0 0-5.75731 4.40265-7.11197 5.75731-1.35467 1.35467-6.43465-3.38665-8.80531 10.49863 0 0-8.8053 4.40265-9.48263 7.45064 0 0-11.17596 5.07998-12.86928 9.8213-1.69333 4.74132-6.09598 6.43464-11.17596 4.74132-5.07999-1.69333-37.59187-9.48264-51.13849-18.96527l-24.04524 4.06399 3.72532 5.07998-33.86655 10.49863s3.38665 4.06398 7.45064 7.11197z" id="path3850" fill="#919191" stroke="none"/>
    <path d="M536.1074 518.23035l5.24932-3.89466s12.19196 8.46664 25.56924 3.55599l-3.72532 7.28131s-14.22396 2.20133-27.09324-6.94264zm8.97464 28.44789l4.74132-5.07998s-9.8213-4.57198-13.37729-7.95864c-.33867.508-15.07061 17.61061-40.47052 2.20133 0 0-23.87592 12.02262-34.03588 10.66796 0 0 14.05462 6.43465 30.98789-5.41865 0 0 23.02925 17.44128 43.85718-.33866 0 0 1.86266 2.37065 8.2973 5.92664zm-214.7139-22.69058l3.55599-5.07998s11.00663 3.04799 23.70658-4.74132c0 0 5.41865 2.87866 14.39328 1.86266 0 0 5.92665 5.07998 18.6266 7.61997 0 0-11.68395 5.92665-28.44789-4.91064 0 0-11.51464 9.99063-31.83456 5.24931zm-26.07724 22.85991s7.78931-4.8405 8.2973-5.68716c.508-.84667 3.048-4.30346 3.048-4.30346l3.21732-2.70933s14.73195 17.10261 42.84118 0c0 0 18.45727 18.28794 44.19584-.508 0 0 15.23994 12.53063 32.17322 6.94265l4.74131 4.40265s-13.88528 9.65196-37.2532-3.72532c0 0-18.6266 16.42527-44.0265 0 0 0-18.28794 16.42527-43.34918-.33867 0 0-5.24933 4.23331-13.88529 5.92664zm-114.29958-3.89465l6.43464-3.21732s16.93327 8.46664 34.20521-6.09598c0 0 13.37729 11.51463 29.80256 7.78931l8.8053 3.38665s-19.1346 9.8213-38.60786-3.72532c0 0-18.45726 16.0866-40.63985 1.86266zm20.65859 22.18259s9.8213-.84666 19.81193-8.12797c0 0 18.79593 19.1346 44.19584 0 0 0 17.1026 18.96527 44.19584-.33866 0 0 17.6106 17.94926 42.84118.33866 0 0 16.93327 17.44127 44.02651.16933 0 0 20.31992 18.28794 43.34917-.16933 0 0 18.11861 17.6106 43.85718-.16933 0 0 13.71595 13.03862 34.03588 5.92664l-1.524 8.29731s-15.23994 4.06398-33.01988-6.94264c0 0-14.56261 17.77993-43.68784.33866 0 0-16.25594 16.42527-43.51851-.16933 0 0-17.44127 17.1026-44.19584.16933 0 0-14.56262 17.44127-43.17985-.16933 0 0-19.30393 16.25594-43.85717-.16933 0 0-16.42528 17.44127-43.51851.16933 0 0-9.8213 7.45064-18.1186 7.45064zm304.7989 23.53725c-12.02262-1.69333-22.18258-8.63597-22.18258-8.63597-27.43191 18.1186-43.51851-.16933-43.51851-.16933-23.53725 18.28793-43.85718.508-43.85718.508-25.73857 18.79593-43.85718-.33867-43.85718-.33867-20.99725 17.77994-43.51851.508-43.51851.508-24.38391 17.77994-43.68784-.508-43.68784-.508-23.87591 17.44127-44.19584 0-44.19584 0-6.94264 5.07998-11.68396 6.60398-11.68396 6.60398l5.07998 4.74131s5.07999-2.70932 6.09598-4.74131c0 0 18.45727 17.6106 44.36518.67733 0 0 17.44127 16.93327 43.68784-.508 0 0 18.79593 16.25594 44.02651.508 0 0 19.81193 17.6106 43.34917-.16933 0 0 18.79594 16.25594 43.85718 0 0 0 21.33592 15.74794 44.02651 0 0 0 6.43464 4.91064 16.42527 6.60397z" id="path3856" fill="#117fcf" stroke="none"/>
    <path d="M647.03051698 250.35777514a11.54605492 6.32894855-30.53367332 11-19.88994373 11.73182318 11.54605492 6.32894855-30.53367332 1119.88994373-11.73182318z" id="path3906" fill="#fbce1d" fill-rule="evenodd" stroke="#fbce1d" stroke-width="1" stroke-linecap="butt" stroke-linejoin="miter" stroke-opacity="1"/>
    <path d="M656.20038722 265.2042466a13.63527442 7.47415034-30.5336728 11-23.48896177 13.8546566 13.63527442 7.47415034-30.5336728 1123.48896177-13.8546566z" id="path3906-7" fill="#fbce1d" fill-rule="evenodd" stroke="#fbce1d" stroke-width="1.18095" stroke-linecap="butt" stroke-linejoin="miter" stroke-opacity="1" display="inline"/>
    <path d="M651.02634 259.98685a11.546053 6.3289475 0 11-23.09211 0 11.546053 6.3289475 0 1123.09211 0z" transform="matrix(1.07754 -.60943 .63557 1.03321 -204.13684 410.16076)" id="path3906-4" fill="#fbce1d" fill-rule="evenodd" stroke="#fbce1d" stroke-width="1" stroke-linecap="butt" stroke-linejoin="miter" stroke-opacity="1" display="inline"/>
    <path d="M651.02634 259.98685a11.546053 6.3289475 0 11-23.09211 0 11.546053 6.3289475 0 1123.09211 0z" transform="matrix(1.07435 -.57085 .54616 1.1229 -170.55643 380.19202)" id="path3906-0" fill="#fbce1d" fill-rule="evenodd" stroke="#fbce1d" stroke-width="1" stroke-linecap="butt" stroke-linejoin="miter" stroke-opacity="1" display="inline"/>
    <path d="M651.02634 259.98685a11.546053 6.3289475 0 11-23.09211 0 11.546053 6.3289475 0 1123.09211 0z" transform="matrix(.80784 -.4687 .4765 .79462 -9.8058809 336.213)" id="path3906-9" fill="#fbce1d" fill-rule="evenodd" stroke="#fbce1d" stroke-width="1" stroke-linecap="butt" stroke-linejoin="miter" stroke-opacity="1" display="inline"/>
    <path d="M630.90559 226.4332a5.2268957 9.5355531 55.630702 01-15.7416 10.76611 5.2268957 9.5355531 55.630702 1115.7416-10.76611z" id="path3906-48" fill="#fbce1d" fill-rule="evenodd" stroke="#fbce1d" stroke-width=".82587081" stroke-linecap="butt" stroke-linejoin="miter" stroke-opacity="1" display="inline"/>
    <path d="M623.72613 216.05926a4.4287637 9.1603585 53.253863 11-14.96437 10.52812 4.4287637 9.1603585 53.253863 0114.96437-10.52812z" id="path3906-8" fill="#fbce1d" fill-rule="evenodd" stroke="#fbce1d" stroke-width=".7451002" stroke-linecap="butt" stroke-linejoin="miter" stroke-opacity="1" display="inline"/>
    <path d="M651.02634 259.98685a11.546053 6.3289475 0 11-23.09211 0 11.546053 6.3289475 0 1123.09211 0z" transform="matrix(.56807 -.4337 .37034 .47892 151.4209 363.88412)" id="path3906-2" fill="#fbce1d" fill-rule="evenodd" stroke="#fbce1d" stroke-width="1" stroke-linecap="butt" stroke-linejoin="miter" stroke-opacity="1" display="inline"/>
    <path d="M660.43421 335.5921s3.59211-14.53947 13-18.64473c0 0-16.93421 0-21.55263 10.43421s8.55263 8.21052 8.55263 8.21052zm-9.92105 37.11843s2.22368-10.26316 1.19737-10.60527c-1.02632-.3421-5.30263-.3421-8.21053 3.07895-2.90789 3.42105-5.13158 14.53947.51316 12.31579s6.5-4.78947 6.5-4.78947zm-16.25 10.0921l-1.53948-10.77631s-5.81578 1.36842-6.15789 7.35526c-.34211 5.98684 5.81579 5.98684 7.69737 3.42105zm-2.39474-12.82895l-2.39474-12.65789s-5.00918 3.59536-4.61842 9.06579c.17106 2.39473 1.71053 6.32894 3.76316 5.64473 2.05263-.68421 3.25-2.05263 3.25-2.05263zm-3.07895-16.76315l-2.22368-12.14474s-6.15789 7.35526-5.13158 11.63158c1.02632 4.27631 5.13158 5.30263 7.35526.51316zm-3.42105-15.9079l-1.88158-10.60526s-6.67105 4.78947-3.93421 9.75c2.73684 4.96052 5.81579.85526 5.81579.85526zm-3.07895-15.39474l-2.73684-10.60526s-5.81579 4.44737-4.61842 9.92105c1.19737 5.47369 7.35526.68421 7.35526.68421zm-4.27631-13.17105l-2.9079-10.43421s-5.13158 5.81579-3.5921 10.26316c1.53947 4.44737 6.5.17105 6.5.17105zm-4.27632-14.53947l-4.78947-9.75s-5.98684 7.01316-2.73684 11.63158c3.25 4.61842 7.52631-1.88158 7.52631-1.88158zm-6.5-14.88158l-4.61842-8.72369s-4.27631 5.98685-1.36842 9.92106c2.9079 3.93421 5.98684-1.19737 5.98684-1.19737zm-5.98684-12.6579l-4.27632-8.03947s-3.5921 7.18421-1.71052 10.60526c1.88158 3.42106 5.98684-2.56579 5.98684-2.56579zm87.23684 46.35527l-3.42105-9.4079s-4.44737 3.42106-3.93421 7.35527c.51316 3.93421 7.35526 2.05263 7.35526 2.05263zm-4.44737-14.53948l-5.64473-9.75s-7.01316 5.30264-4.61842 9.23685c2.39473 3.93421 10.26315.51315 10.26315.51315zm-8.72368-17.10526l-2.90789-4.10526-.51316-5.13158s-7.01316 5.13158-4.10527 7.69737c2.9079 2.56579 7.52632 1.53947 7.52632 1.53947zm-3.59211-15.56579l.34211-11.28947s-12.65789 5.30263-10.43421 9.57894c2.22368 4.27632 10.0921 1.71053 10.0921 1.71053zm1.02632-20.35526l.17105-6.67105s-9.75-2.56579-15.05263 1.36842c-5.30263 3.93421-3.42105 9.40789 2.73684 9.06579 6.1579-.34211 12.14474-3.76316 12.14474-3.76316z" id="path3968" fill="#fbce1d" stroke="#fbce1d" stroke-width="1" stroke-linecap="butt" stroke-linejoin="miter" stroke-opacity="1"/>
    <path d="M655.64473 348.84869a8.5526314 6.4144735 0 11-17.10526 0 8.5526314 6.4144735 0 1117.10526 0z" transform="matrix(.55406 -.86852 .73125 .61183 30.471366 701.3614)" id="path3970-8" fill="#fbce1d" fill-rule="evenodd" stroke="#fbce1d" stroke-width="1" stroke-linecap="butt" stroke-linejoin="miter" stroke-opacity="1" display="inline"/>
    <path d="M655.64473 348.84869a8.5526314 6.4144735 0 11-17.10526 0 8.5526314 6.4144735 0 1117.10526 0z" transform="matrix(.55406 -.86852 .73125 .61183 26.109526 685.36797)" id="path3970-4-5" fill="#fbce1d" fill-rule="evenodd" stroke="#fbce1d" stroke-width="1" stroke-linecap="butt" stroke-linejoin="miter" stroke-opacity="1" display="inline"/>
    <path d="M655.64473 348.84869a8.5526314 6.4144735 0 11-17.10526 0 8.5526314 6.4144735 0 1117.10526 0z" transform="matrix(.53446 -.82646 .70538 .5822 42.772576 652.49329)" id="path3970-5-7" fill="#fbce1d" fill-rule="evenodd" stroke="#fbce1d" stroke-width="1" stroke-linecap="butt" stroke-linejoin="miter" stroke-opacity="1" display="inline"/>
    <path d="M655.64473 348.84869a8.5526314 6.4144735 0 11-17.10526 0 8.5526314 6.4144735 0 1117.10526 0z" transform="matrix(.51466 -.793 .67925 .55863 58.968606 622.9831)" id="path3970-51-6" fill="#fbce1d" fill-rule="evenodd" stroke="#fbce1d" stroke-width="1" stroke-linecap="butt" stroke-linejoin="miter" stroke-opacity="1" display="inline"/>
    <path d="M655.64473 348.84869a8.5526314 6.4144735 0 11-17.10526 0 8.5526314 6.4144735 0 1117.10526 0z" transform="matrix(.43469 -.69352 .5737 .48855 141.89816 565.43956)" id="path3970-7-1" fill="#fbce1d" fill-rule="evenodd" stroke="#fbce1d" stroke-width="1" stroke-linecap="butt" stroke-linejoin="miter" stroke-opacity="1" display="inline"/>
    <path d="M655.64473 348.84869a8.5526314 6.4144735 0 11-17.10526 0 8.5526314 6.4144735 0 1117.10526 0z" transform="matrix(.39065 -.52383 .51559 .36901 184.59301 482.11113)" id="path3970-1-8" fill="#fbce1d" fill-rule="evenodd" stroke="#fbce1d" stroke-width="1" stroke-linecap="butt" stroke-linejoin="miter" stroke-opacity="1" display="inline"/>
    <path d="M655.64473 348.84869a8.5526314 6.4144735 0 11-17.10526 0 8.5526314 6.4144735 0 1117.10526 0z" transform="matrix(.4688 -.7006 .61873 .49353 92.399466 540.99521)" id="path3970-15-9" fill="#fbce1d" fill-rule="evenodd" stroke="#fbce1d" stroke-width="1" stroke-linecap="butt" stroke-linejoin="miter" stroke-opacity="1" display="inline"/>
    <path d="M655.64473 348.84869a8.5526314 6.4144735 0 11-17.10526 0 8.5526314 6.4144735 0 1117.10526 0z" transform="matrix(.47754 -.62306 .63026 .43892 77.160616 496.45162)" id="path3970-2-2" fill="#fbce1d" fill-rule="evenodd" stroke="#fbce1d" stroke-width="1" stroke-linecap="butt" stroke-linejoin="miter" stroke-opacity="1" display="inline"/>
    <path d="M655.64473 348.84869a8.5526314 6.4144735 0 11-17.10526 0 8.5526314 6.4144735 0 1117.10526 0z" transform="matrix(.45797 -.58104 .60443 .40931 91.735826 470.60598)" id="path3970-76-7" fill="#fbce1d" fill-rule="evenodd" stroke="#fbce1d" stroke-width="1" stroke-linecap="butt" stroke-linejoin="miter" stroke-opacity="1" display="inline"/>
    <path d="M655.64473 348.84869a8.5526314 6.4144735 0 11-17.10526 0 8.5526314 6.4144735 0 1117.10526 0z" transform="matrix(.51679 -.45088 .68206 .31762 58.755486 383.21406)" id="path3970-14-9" fill="#fbce1d" fill-rule="evenodd" stroke="#fbce1d" stroke-width="1" stroke-linecap="butt" stroke-linejoin="miter" stroke-opacity="1" display="inline"/>
    <path d="M655.64473 348.84869a8.5526314 6.4144735 0 11-17.10526 0 8.5526314 6.4144735 0 1117.10526 0z" transform="matrix(.8652 -.19265 .09265 .6164 46.272086 120.27021)" id="path3970-23-5" fill="#fbce1d" fill-rule="evenodd" stroke="#fbce1d" stroke-width="1" stroke-linecap="butt" stroke-linejoin="miter" stroke-opacity="1" display="inline"/>
    <path d="M655.64473 348.84869a8.5526314 6.4144735 0 11-17.10526 0 8.5526314 6.4144735 0 1117.10526 0z" transform="matrix(.87448 -.11436 -.02355 .63604 88.498656 73.236253)" id="path3970-22-4" fill="#fbce1d" fill-rule="evenodd" stroke="#fbce1d" stroke-width="1" stroke-linecap="butt" stroke-linejoin="miter" stroke-opacity="1" display="inline"/>
    <path d="M655.64473 348.84869a8.5526314 6.4144735 0 11-17.10526 0 8.5526314 6.4144735 0 1117.10526 0z" transform="matrix(1.01106 -.19723 -.0081 .6464 3.025156 133.67316)" id="path3970-16-3" fill="#fbce1d" fill-rule="evenodd" stroke="#fbce1d" stroke-width="1" stroke-linecap="butt" stroke-linejoin="miter" stroke-opacity="1" display="inline"/>
    <path d="M532.21875 72.40625c3.15083 2.650522 7.50803 3.788978 10.9375 6.21875 26.12041 15.063029 44.28355 41.36241 52.92262 70.11719 2.96879 9.63612 4.9437 19.81602 5.88988 29.91406 6.7466 7.05528 13.2693 14.33613 20.15625 21.25-1.53985-8.62458-2.16294-17.53045-5.4375-25.75-2.09012-5.52082-5.12549-11.07488-10.0625-14.4375 2.4442.26235 6.10731 1.5559 4.29484-2.11243-7.94756-32.59762-31.30216-60.194859-60.16459-76.60763-5.80457-3.178832-11.68609-6.534644-17.91131-8.609806l-.4998.01388-.12539.0035zM535.25 84.5c4.80434 3.332733 10.39075 5.738 15.13031 9.325493 10.21434 7.402187 19.79216 16.160167 25.52594 27.612007 4.6699 16.79574 6.81354 34.34012 9.65951 51.5802 1.33451 8.55057 2.467 17.18441 3.80924 25.70105 3.5516 4.00043 7.10723 7.99728 10.65625 12-1.11338-12.53635-1.98118-25.48391-6.84375-37.1875-2.24764-1.82616 1.58766-3.12503.14446-5.24578-3.74666-16.62535-7.22867-33.39824-11.62783-49.81787-4.91694-12.55858-16.96371-20.436498-28.39163-26.6551-5.58752-2.797721-11.30964-5.710795-17.34359-7.330934l-.49983.01282L535.25 84.5zm27.40625 27.84375c1.25657 5.72826 1.91008 11.81239.47622 17.46818.68767 9.63262 5.7137 18.30692 10.24253 26.59432 2.0157 5.4472 3.35203 12.12479.15625 17.40625-2.28261 10.57765-1.39999 21.67278-1.34223 32.46821-.44875 3.11559.46993 5.60577 3.18394 7.31497 4.35039 4.23305 8.73859 8.42769 13.06454 12.68557-.82787-10.27491-1.40391-20.68554-2.40625-30.875-2.45508-2.9082-4.79288-5.9416-7.5-8.59375 1.84368-.044 6.32053 3.62951 6.15625.78125-1.11811-20.99662-3.73969-42.44435-12.20414-61.81243-2.51572-5.62604-5.8442-10.82948-10.17086-15.21882.11458.59375.22917 1.1875.34375 1.78125zM615.625 159.875c12.18275 8.08513 22.58757 18.71684 33.44427 28.58972 10.23443 9.66072 20.37232 19.47643 30.43073 29.47278-.3411 20.8268-1.22739 41.67942-.5625 62.5 1.62411 5.17391 6.39858 8.70121 9.91605 12.66605 2.25147 2.05387.44955 5.78201.98063 8.55235-.15801 15.41672-.2766 30.83398-.45918 46.25035 7.10572-10.37905 7.97459-23.23307 9.4502-35.40431 1.58712-18.25369 1.5711-36.61342 1.9248-54.90819-1.84543-13.31231-9.17755-25.11481-16.14183-36.34001-4.32412-5.67356-6.61902-12.41735-11.06356-18.04408-8.45325-11.54014-18.06716-22.53724-29.63836-31.02216-5.41619-3.37114-11.8441-4.84789-17.36324-7.907-3.89668-1.4852-7.52806-4.39623-11.60551-5.37425.22917.32292.45833.64583.6875.96875zm-93.5 7.40625c-4.52633-.30868-2.12408 1.2066.56123 2.69498 13.96265 9.15835 28.3851 18.01524 40.50127 29.30502 1.30027.57816 3.0555 5.27677 3.09884 3.25066.0277-4.31205.65664-8.86716.33866-13.03191-5.15702-3.64082-10.2294-7.94873-15.4375-11.1875-5.2165 1.82199-11.07541-1.67777-12.59375-6.90625-.81172-2.59776-4.49295-2.36629-6.69314-3.25611-3.19676-.72814-6.49863-1.02019-9.77561-.86889zm8.0625 12.125c12.34803 10.22479 25.05005 20.24049 35.5625 32.3125-.22215-2.6488 1.31599-6.06551.0005-8.23754-10.85017-9.33241-22.283-18.26277-35.03175-24.88746-1.42106-.24314-1.53875-.6132-.53125.8125zm74.0625 6.4375c.2609 6.54165.51794 13.08345.78125 19.625 3.98823-1.76254 8.19941-3.73118 12.65625-3.09375-4.48009-6.06665-8.98386-12.11633-13.5-18.15625.0208.54167.0417 1.08333.0625 1.625zm-9.40625 23.1875c-2.08633 2.42534-1.1211 6.31426-1.2026 9.31025.2638 2.93579.88871 5.79397 2.2026 8.43975 1.20463-3.53448 3.36067-6.84293 4.53125-10.21875-1.60166-2.53134-2.55866-6.11626-5.28125-7.5625h-.125l-.125.0312zm-22.71875 3.25c-1.03329 3.42291-.68175 7.44197 2.15278 9.97916 4.57709 5.75513 8.96377 11.86214 14.37847 16.80209.34343-3.15131 1.28984-6.53369 1.21875-9.5625-5.84143-6.02306-11.70132-12.02839-17.53125-18.0625l-.12548.484-.0933.35975zm1.40625 15.84375c.34562 3.87974-1.1434 8.25381 1.78125 11.4375 4.55678 6.8229 8.47836 14.76506 15.5925 19.2443.7358-1.71379-.12762-6.00882-.003-8.70679.60653-3.19126-.95685-5.50969-3.27524-7.51851-4.70031-5.25482-9.3867-10.52215-14.09588-15.769v1.3125zm134.75 40.625c-1.32312 27.48155-6.30112 54.63778-11.5625 81.59375 2.72718-1.18048 6.07108-1.83723 8.4375-3.34375 4.01792-21.47361 7.49378-43.33367 6.38212-65.24624-.44169-4.92849-.80785-10.04351-2.97587-14.53501-.0937.51042-.1875 1.02083-.28125 1.53125zm-112.6875 33.34375c9.22113 24.67954 15.02847 50.38558 19.875 76.25 1.82081-.34861 7.81667 1.27499 6.91403-.44874-4.20235-4.56244-6.27093-11.63944-3.50778-17.52001-3.92547-4.12058-4.72715-10.40196-3.46875-15.84375-2.97086-4.33268-5.3926-9.83014-3.75-15.15625 1.3745-2.03128-.26175-3.08341-1.21875-4.8125-1.87722-3.24463-1.08034-7.38858-.75-10.6875-3.84106-2.94921-6.43357-7.55112-6.125-12.46875-2.13958.48784-7.55356-.95782-7.96875.6875zM684.90625 315c-12.15265 4.2668-18.86453 16.532-23.34375 27.875-3.57271 9.62497-6.09294 19.60886-7.3125 29.8125 9.95304-4.72962 19.92441-9.42663 29.90625-14.09375-.86573-13.42298-2.27624-27.15325.46875-40.4375-.19096-.95691 2.7151-4.62212.28125-3.15625zm26.8125 118.8125c-3.89864 2.10191-8.33382 3.82243-11.90625 6.15625-2.28289 16.89539-8.29203 33.26225-17.90625 47.375 4.44363-.80396 9.54183-.53244 13.5-2.75 8.81038-15.81506 13.68622-33.57503 17.21875-51.25-.30208.15625-.60417.3125-.90625.46875zM691.9375 441.75c-3.81756 1.49565-8.25748 2.43731-11.71875 4.25-3.58789 14.68622-8.02064 29.89809-17.21875 42.1875-3.35822 2.94908 3.53559.70317 5.32755 1.04692 2.48792-.83196 6.62282.83962 7.98195-1.71309 7.24707-14.56732 14.14186-29.80773 16.378-46.05258l-.46816.17556-.28184.10569zm-21.53125 6.78125c-3.72802 1.39507-8.05936 2.27744-11.4375 3.96875-3.8692 13.84999-9.7652 27.17275-18.5 38.65625 4.63895-.38552 9.5611-.3084 14.03125-.96875 7.01276-9.75838 10.3876-21.6983 14.17271-33.0457.94481-2.94395 1.76551-5.91876 2.60854-8.8918l-.47601.153-.39899.12825zm-23.875 6c-3.67125 1.01418-7.9783 1.40848-11.28125 2.78125-4.14842 12.66273-10.99142 24.17476-17.875 35.5625 4.37562-.45076 8.99335-.47191 13.21875-1.25 7.23385-11.59757 12.65873-24.23929 16.75-37.28125l-.4872.11243-.3253.0751zm-20.59375 4.15625c-3.58789 1.14623-7.72341 1.78476-11 3.21875-3.31454 10.17606-6.39302 20.94656-12.78125 29.5-3.83233 2.70562-1.34401 2.50041 2.25 2.34375 2.77294-.34932 6.44657 1.23172 7.85893-2.04947 7.60533-9.54431 12.90076-21.0695 14.42232-33.23178l-.48.14-.27.0788zm-18.65625 4.34375c-2.16596 1.23282-6.32314.40575-6.6253 3.53736-3.33512 9.15898-6.04491 18.85274-11.7497 26.86889-3.91281 2.57056 2.72361.68523 4.3882.87858 2.99307.44674 4.78478-.89862 5.4407-3.77348 3.78738-8.95258 8.1522-17.98979 9.26485-27.7301l-.47834.14558-.24041.0732z" id="path3067" fill="#088740" stroke="none"/>
  </g>
  <g id="layer6" display="inline">
    <path d="M427.86746 376.922s19.46742-37.66735-6.6351-69.51721c-26.10251-31.84986-69.14657-27.18098-88.60487-13.17099-17.96045 12.93152-38.07615 41.42876-21.79201 79.98386 16.28414 38.55509 33.15845 3.72033 33.15845 3.72033s16.70997 3.11314 21.02048 4.78945c0 0 28.10047-8.12504 62.85305-5.80544z" id="path3842" fill="#ed1a23" fill-opacity="1" stroke="#ed1a23" stroke-width="1" stroke-linecap="butt" stroke-linejoin="miter" stroke-opacity="1"/>
    <path d="M272.62569 424.08135l-54.86381 39.62386 53.84781-42.67185.67733-10.49863-28.10923 17.61061 30.14122-19.98126 2.37066-5.07999-.33866-6.09597-95.84233 43.68784 95.84233-49.44516 2.03199 12.86929zm25.3999-50.12248l-74.84506 25.73857 74.16773-28.78656zm-.67732-5.41865l-1.83848-4.74132-114.66244 32.17322zm-1.83848-8.12797l-1.54818-4.74132-69.57156 14.90128zm167.4494 62.99177l-.5576-4.70023 50.27979 37.22913zm-2.27147-15.55806l-.47894-2.37066 34.92011 22.67004zm-2.23037-13.2285l-1.35466-5.93516 98.30864 52.33233zm-21.57701-20.12827l1.93524-4.8381 71.84577 27.81907zm2.41905-7.74096l112.00199 27.33526-110.55056-30.96383zm1.93524-7.01524l.24191-3.62858 75.71625 15.24002zm.96762-7.01525l133.77344 5.56382-133.53153-10.64382zm.24191-8.46667l-.48381-3.87048 84.18292-3.38667zm-1.20953-6.53143l115.63057-20.56192-115.87247 15.96572zm-1.45143-7.49906l77.65149-20.56192-78.1353 17.41716zm-1.93524-6.53142l-.72571-5.32192 127.72581-44.75241zm1.93524-11.61145l62.16957-33.38288-62.16957 28.78669zm22.25526-38.70479l35.31812-29.02859-35.07622 31.44764zm12.33715 5.80572l51.76766-32.65717-51.52575 35.31812zm-52.25147 13.30477l87.8115-81.03816-84.42483 84.42483zm-2.66095-.2419c.72571-.96762 43.54289-58.2991 43.54289-58.2991l-46.92956 55.88005zm-5.80572-2.90286l61.44386-99.18103-65.55625 95.79436zm-6.28953-5.80572c0-1.69334 32.17336-63.621 32.17336-63.621l-35.07622 62.41147zm-5.80572-3.38667l-4.35429-1.69334 48.8648-115.14675zm-12.82096-4.35429l21.28763-73.53911-17.65906 74.74863zm-8.46668-2.41905l5.08001 1.20953 16.93334-107.64771zm-2.41905-.2419l3.62858-70.39435-7.98286 69.91054zm-7.98286-.72572l.24191-107.16389-5.08001 107.16389zm-11.36953.24191l3.62857-.48381-8.46667-67.73339zm-4.8381 1.45143c-.72572-1.93524-20.32002-106.92199-20.32002-106.92199l16.44954 107.4058zm-7.01524 1.69333l-20.80383-70.87815 17.65906 71.84577zm-11.85335 5.56381l4.11239-2.90286-49.10671-113.69532zm-10.64381-12.09524l-29.0286-48.6229 25.64193 47.41337zm-24.4324-20.56192c-.72572-1.20953-38.9467-57.08957-38.9467-57.08957l37.49527 59.99242zm19.5943 41.36574l-2.17715 1.69334-44.99432-57.57338zm-6.53144 9.6762l1.93524-5.56381-88.29531-81.76388zm-1.69333 1.20953l-60.71815-43.5429 58.05719 46.44575zm-6.53144 8.46666l2.90286-3.62857-99.66484-59.99242zm-3.87047 7.25716l2.41904-3.87049-72.57148-35.80193zm-5.32192 36.52764l-.72571-5.08-133.77344 10.16001zm-.72571-7.49905l.48381-3.87048-52.97718-2.66095 13.30477 2.41905zm-1.20952-6.77334l2.90286-4.8381L175.8649 316.1901zm1.93523-7.74096l1.69334-3.87048-37.49527-7.49905.48381 2.41905zm2.66095-6.77333l1.69334-5.08001-132.322-45.72003z" id="path3858" fill="#ed1a23" fill-opacity="1" stroke="none"/>
    <path d="M435.91272 374.7311s14.99811-37.25337-11.61144-69.66863c-26.60954-32.41526-58.05718-29.02859-78.3772-23.70669-20.32002 5.32191-59.02481 39.18861-43.05908 92.89151" id="path3862" fill="none" stroke="#fbca0a" stroke-width="12" stroke-linecap="butt" stroke-linejoin="miter" stroke-miterlimit="4" stroke-opacity="1" stroke-dasharray="none"/>
  </g>
  <g id="layer4" display="inline">
    <path d="M502.24086 504.34506s8.02526-4.38563-11.85329-25.3999c-21.56385-22.79586-108.37294-131.4022-108.37294-131.4022l38.60786-32.85055 7.7893 9.14397 37.59187-32.85055s-.33867 4.74132 57.23446-54.18647l-54.86381 41.31718s-6.7733-1.01599 0-7.11197l-2.37065-2.70932s0 2.03199-4.74132 1.69332c0 0-4.74132 1.016-5.41865 2.37066 0 0-11.17596-8.46663-11.85329-10.83729-.67733-2.37066-3.04799 3.04799-3.04799 3.04799l3.04799 10.15996-22.35192 18.96527s.33867 6.43464-10.49863 2.03199c-2.03199 1.01599-26.07724 20.65859-26.07724 20.65859l-1.69332-2.70932-16.93328 14.22395-34.88254-42.33319s3.72532-5.75731-4.74131-15.23994c-8.46664-9.48263-20.31993-24.38391-20.31993-24.38391s-10.49863-1.69333-15.91728 10.49863c-5.41864 12.19195-9.48263 9.48263-16.93327 8.12797-7.45064-1.35467-8.46663-12.86929-69.08775 74.16773l28.4479 34.54388 60.62111-80.26372s1.69333-6.09597 1.69333-8.12797c0-2.03199 8.8053-3.72532 9.48263-6.77331.67733-3.04798 6.09598-.67733 13.54662 10.8373 0 0-2.37066 2.37066 4.06399 9.14397 6.43464 6.7733 33.18921 39.62385 33.18921 39.62385l-4.74132 4.40265-5.75731-.33866-14.56261 11.85329-.67733 8.8053-10.15997 8.8053-6.09598-.67733-7.45063 6.43465-1.69333 4.74131-6.43465-5.07998-35.55987 16.59461-.67733 6.09597 12.53062-6.43464-.67733 11.85329-6.77331 7.11198s-.67733 3.72532 2.37066 5.07998c0 0-4.74132 5.41865-.33866 6.43464 0 0 1.69332 1.35466.67733 3.04799-1.016 1.69333-13.54662 13.54662-20.31993 23.70658l-14.56261 3.72532c.0257.17242-5.75732 5.75731-5.75732 5.75731l-28.10923 25.39991 21.33592 28.10924s47.41317-69.76509 51.81582-71.45841c0 0 7.7893-7.11198 11.51462-5.75732 3.72532 1.35467 11.17596 8.46664 13.20796 22.01326 2.03199 13.54662 6.43464 9.14396 6.43464 9.14396s6.09598-5.75731 7.45064-6.43464c1.35466-.67733-1.69333-5.07998-4.74132-4.74132 0 0-5.75731-20.31992-5.75731-25.73857 0 0 8.12797 1.35466 14.90128-7.11197 6.77331-8.46664-.67733-5.75732.67733-13.20796 0 0 37.59187 24.72258 78.57038 20.31993.67734-1.016.33867-25.39991.33867-25.39991s-32.51188 1.35466-57.23446-14.22395l14.90128-13.88528s7.11197-6.43464 9.14397-11.85329c2.03199-5.41865 8.8053-8.8053 8.8053-8.8053L490.0489 500.28108s6.87603 8.40499 12.19196 4.06398z" id="path3789" fill="#000" fill-opacity="1" stroke="#000" stroke-width="0" stroke-miterlimit="4" stroke-opacity="1" stroke-dasharray="none"/>
  </g>
  <g id="layer5" display="inline" fill-opacity="1">
    <path d="M304.20624 467.0072s6.26531-6.26531 7.61997-6.60398c0 0 .74952-3.14514-3.80999-3.80998-2.22954-.3251-6.51931-25.56925-6.51931-25.56925s-.84665-7.19664-4.99531-4.57198c-4.7633 3.01352-11.00663 8.46664-11.00663 8.46664s11.42996 4.31798 14.30862 24.63791c0 0 .67734 7.87398 4.40265 7.45064zm-32.57413-25.18812l1.7259-1.62671-7.18293-8.66211-1.3667 1.40904zm-1.03842 1.5662s-27.77056 36.06788-48.59849 67.90243c0 0-17.44127-23.19859-19.30393-26.41591l32.68122-29.97188 14.22394-3.72533 14.05463-17.1026zm74.36664-78.50706l46.8169-38.31562 5.50787 7.18418-29.69461 24.90515s-3.47667 2.52499-5.38813 7.18418c-1.91578 4.66972-8.02234 10.17759-8.02234 10.17759z" id="path3791" fill="#964a3c" stroke="none"/>
    <path d="M301.85526 423.18981s2.75393 5.38813 7.30391 1.3171c4.54998-4.07104 6.82497-5.62761 4.19077-8.50128-2.6342-2.87367-3.35261-3.59209-4.90919-2.03552-1.55657 1.55657-5.74734 5.38814.47895 5.74735 0 0 .23948 2.99341-7.06444 3.47235zm-32.1492 2.93354s-2.21513-1.85591-.77829-3.05328c1.43684-1.19736 140.92964-117.94027 140.92964-117.94027s1.07763-.71842 2.51447.23947c1.43683.95789-1.67632 2.15526-2.39473 2.75394-.71842.59868-140.27109 118.00014-140.27109 118.00014zm36.81891-26.16239s1.66428-1.05562-.73045-4.88719c-2.39472-3.83156-2.20485-9.36847-5.49584-11.15747-2.82667-1.53659 3.23288 12.81178 6.22629 16.04466zm-38.19589 18.19992l63.69973-53.52213-1.3171-.83815-62.38262 52.56424zm10.39258-15.58478l4.23332-3.89466v-6.26531l-4.74131 3.04799zm9.8213-8.29731l8.29731-7.2813-2.032-1.016-6.26531 4.23332zm40.63986 15.40928s26.58523 14.22395 51.81581 15.57861c0 0-25.9079 3.38665-51.81581-15.57861zm1.35466-5.07998s22.85992 11.51462 51.98514 14.73195c0 0-27.93989 1.52399-51.98514-14.73195zm52.49314 9.65196s-27.60123-3.38665-50.79982-15.23994c0 0 22.52125 16.76393 50.79982 15.23994zm-48.76782-19.64259s26.24657 12.53062 49.10649 14.22395c0 0-19.64259 4.06399-49.10649-14.22395zm3.04799-27.9399c-1.016-.33867-7.52078-3.9733-7.52078-3.9733l-.97667.83463 7.14278 4.66266zm3.21732-.93133l10.91594 12.64434 2.01322-1.94131-10.38917-12.31169zm14.73195-13.29262l-8.8549-10.39767 4.28291.18811 7.11198 8.68557zm36.91453-31.66522c-.508-.84666-5.00985-5.91638-5.00985-5.91638l-1.93279 1.60265 13.20795 16.84435s2.57932-1.64373 1.90199-1.9824c-.67734-.33866-8.1673-10.54822-8.1673-10.54822zm6.09598 9.65197s51.27155-43.17476 51.98514-43.85718c.47044-.44989-.33866-.508-.33866-.508l-53.00114 43.17985zm28.78656-34.71321l-1.52399-.508 20.31992-17.10261 1.35466.67734zm33.52788-13.03862c0-1.18533.67733-6.26531.67733-6.26531s6.77331 6.60397 6.60398 8.12797c-.16934 1.52399-2.032 4.57198-3.89466 2.03199s-3.38665-3.89465-3.38665-3.89465zm11.17596-.84667c.508-.67733 15.07061-11.34529 19.81193-17.94926-7.11197 4.23332-19.81193 17.94926-19.81193 17.94926zm-37.08387 24.55325c.84667-.508 16.76394-13.37729 19.98126-18.28794-7.95864 4.40265-19.98126 18.28794-19.98126 18.28794zm57.06513 191.00731s2.70932-2.37066 5.58798 1.016c2.87866 3.38665 1.12193 4.29592.27526 4.97325-.84666.67733-2.7525.11412-4.27649-2.08721-1.524-2.20132-1.58675-3.90204-1.58675-3.90204zm-7.51404-10.87982s.5714-1.98947-.4446-2.6668c-1.01599-.67733-22.43539-27.55949-22.43539-27.55949s-2.73968-.83475-1.98946.2544c5.80698 8.43045 16.8651 21.11849 16.8651 21.11849s1.2696 2.36987 8.00435 8.8534zm-57.00173-71.07722c-1.52399-3.04799-46.22783-55.71046-46.22783-55.71046l-.508.16933-.33866 1.86266 46.22783 54.52514zm-69.93441-81.2797l2.70932-2.37066-35.05187-44.53451h-2.032l-.67733 1.69333zM323.9335 282.5192l1.86266-2.20133-11.68396-14.90128-2.37065 2.20133zm-32.17322-5.41865s16.08661.33866 19.47327-16.42528c-6.26531 11.85329-19.47327 16.42528-19.47327 16.42528zm.16934-11.51463s10.49863 2.20133 13.37728-11.34529c-3.89465 8.12797-13.37728 11.34529-13.37728 11.34529zm0-4.23332s9.14396.84667 8.97463-10.49862c-10.49863 1.35467-8.97463 10.49862-8.97463 10.49862zm-61.46778 106.34096l3.72532-3.72532-23.19859-27.9399-4.23331 3.72532z" id="path3797-1" fill="#fff" stroke="none" display="inline"/>
    <path d="M302.87302 395.23138l.53881-2.09539 2.39473.0599.3592 3.11315-1.97565.89802zm31.90972-26.34199c0-.35921.35921-1.91578.35921-1.91578l1.85592-.77829 6.7651-2.8138-1.05107 2.21937-.44564 1.19311-1.61644-.47894z" id="path3821" fill="#fff" stroke="none"/>
    <path d="M389.14303 323.80866l.71842-2.69406 3.29275-1.49671.15657 4.22159-1.25048.1711z" id="path3823" fill="#fff" stroke="none"/>
    <g transform="matrix(1.04135 0 0 1.07913 -6.9922017 -39.163824)" id="text3851" style="line-height:125%;-inkscape-font-specification:Traditional Arabic" font-size="18" font-style="normal" font-variant="normal" font-weight="400" font-stretch="normal" letter-spacing="0" word-spacing="0" fill="#fbce1d" stroke="#000" stroke-width=".40000001" stroke-miterlimit="4" stroke-opacity="1" stroke-dasharray="none" font-family="Traditional Arabic">
      <path d="M246.1663 619.92021l-.2324 4.86946c-.074 1.55032.7318 2.3657 2.41739 2.44614l.95204.0454-.0596 1.24858-11.19039-.53406.0596-1.24858.51504.0246c.96764.0462 1.66131-.0667 2.08101-.33868.495-.32052.76435-.93859.80806-1.85422l.60259-12.62625c.0442-.92601-.11529-1.57237-.47842-1.93907-.36315-.36667-1.01293-.57236-1.94936-.61707l-.67112-.032.0596-1.24858 4.13223-.0531c2.18205-.0523 3.93378-.0469 5.2552.0162 2.3827.11374 4.24242.36935 5.57917.76684 1.33672.39753 2.39151 1.02143 3.16437 1.87172.97099 1.06836 1.42297 2.30485 1.35595 3.70949-.12317 2.5804-1.78143 4.22197-4.97479 4.92469.70992.63875 1.52189 1.65256 2.4359 3.04146.57365.87209 1.48865 2.13068 2.74501 3.77577.60388.67539 1.22193 1.16374 1.85414 1.46505.54051.25523 1.30227.46366 2.28529.62528l-.0588 1.23297c-.46974.009-1.13119-.007-1.98436-.0478-2.48677-.11868-4.27835-.49097-5.37474-1.11687-.57919-.31963-1.12144-.75744-1.62674-1.31341-.55488-.61048-1.17735-1.44318-1.86741-2.49811l-1.72024-2.63188c-.43943-.62581-.96803-1.24025-1.58581-1.84331zm.50352-10.55049l-.43946 9.20827 1.24858.0596c1.89366.0904 3.33303-.13292 4.31809-.66992 1.25211-.67022 1.92013-1.88455 2.00407-3.64298.14647-3.0694-1.67396-4.69449-5.4613-4.87526z" id="path3879" font-size="32"/>
      <path d="M280.33521 614.55453c-.098-.9836-.23913-1.65613-.42338-2.01761-.31087-.59559-.86705-.90869-1.66853-.93929l-7.01052-.26749-.27464 7.19789 5.18373.19778c.86394.033 1.48723-.11524 1.86988-.44465.38261-.32939.59021-.92086.62279-1.77442l1.28032.0489-.24306 6.37036-1.28032-.0488c.0437-1.14499-.27322-1.8555-.95067-2.13154-.41082-.16161-1.02738-.2581-1.84968-.28949l-4.69971-.17931-.21982 5.76143c-.0222.58291.0199.98064.12647 1.19319.14422.31823.47655.48728.99702.50713l5.33986.20374c1.1658.0445 2.02928-.18317 2.59043-.68298.50668-.43933.91298-1.25255 1.2189-2.43968l1.20225.0459-.56655 5.0133-19.25162-.73454.0477-1.24909 1.31154.05c1.66546.0636 2.52737-.66974 2.58576-2.19988l.48671-12.75635c.0361-.94721-.17364-1.5963-.62934-1.94728-.38483-.29612-1.07687-.46325-2.07614-.5014l-.31228-.0119.0477-1.24909 17.61219.67198.15095 4.64976z" id="path3881" font-size="32"/>
      <path d="M291.35125 621.78654l-.1408 4.74791c-.0281.9475.18702 1.6.64538 1.95749.3867.31369 1.07462.4852 2.06378.51453l.96833.0287-.0371 1.24945-10.88584-.32283.0371-1.24945.48416.0144c.83297.0247 1.39815-.0575 1.69556-.24672.37183-.23908.56917-.74387.59202-1.51436l.40667-13.71273c.0281-.94748-.24141-1.52343-.80851-1.72785-.31969-.11367-.77628-.17932-1.36977-.19694l-.70281-.0208.0371-1.24945c1.15821-.049 2.89001-.11228 5.19541-.18983 2.41899-.0429 4.11265-.05 5.08099-.0213 2.91537.0865 5.12518.77208 6.62944 2.0568 1.38206 1.18734 2.04639 2.68165 1.99299 4.48292-.0846 2.85293-1.71258 4.68568-4.88388 5.49827-1.02904.26129-2.14746.37402-3.35525.33819-1.18699-.0352-2.40196-.18065-3.64492-.43636zm.30801-10.38606l-.2691 9.07413c.66173.17596 1.42991.2769 2.30454.30283 1.9991.0593 3.39037-.64457 4.1738-2.11158.3753-.70793.5784-1.5825.60929-2.62372.0435-1.46809-.33379-2.62561-1.13193-3.47258-.79818-.84693-1.93131-1.29217-3.3994-1.33573-.74968-.0222-1.51208.0333-2.2872.16665z" id="path3883" font-size="32"/>
      <path d="M320.30914 612.23461l.0254-1.24974 8.29516.16879-.0254 1.24974-.23432-.005c-1.03106-.021-1.7742.14625-2.22942.50162-.48735.39644-.74119 1.09455-.76151 2.09432l-.16211 7.9671c-.0577 2.83276-.89781 4.95152-2.52046 6.35629-1.55913 1.35398-3.77068 2.00184-6.63466 1.94356-2.7182-.0553-4.88381-.64115-6.49684-1.75753-1.90083-1.30977-2.82508-3.25085-2.77273-5.82324l.19421-9.5449c.0172-.84355-.13261-1.41964-.44931-1.72825-.31671-.30857-.89685-.47144-1.74042-.48863l-.54676-.0111.0254-1.24974 10.01355.20375-.0254 1.24974-.54676-.0111c-1.51011-.0307-2.27989.67774-2.30934 2.12534l-.19421 9.5449c-.0483 2.37451.89343 3.96692 2.82527 4.77721.8574.36127 1.81204.55261 2.86392.57401 1.92667.0392 3.45194-.41945 4.57581-1.37595 1.16656-1.00772 1.76923-2.46451 1.80803-4.37037l.1583-7.77964c.0309-1.5205-.30315-2.51188-1.00221-2.97413-.38069-.23694-.89908-.3621-1.55518-.37547zm-6.49661-3.30472l2.49752-5.99731 5.13956.10458-5.77809 5.93056z" id="path3885" font-size="32"/>
      <path d="M332.60811 627.16089l.12557-11.90559c.0161-1.53114-.29231-2.40945-.92538-2.63491-.38408-.12903-.99276-.19796-1.82605-.20677l-.79683-.008.0132-1.24993c.51039.005 1.18256-.0188 2.0165-.0725 1.10509-.0821 1.77748-.12707 2.01717-.13498l1.78214-.075c1.6363-.0765 2.77215-.11137 3.40754-.10469 4.33308.0457 7.25718.83702 8.77233 2.3739.80386.82104 1.19987 1.79402 1.18803 2.91894-.0201 1.90616-1.34596 3.16308-3.97749 3.77076 1.43421.31724 2.60491.92858 3.5121 1.83402.9999 1.00019 1.4925 2.19816 1.4778 3.59391-.025 2.36446-1.31401 4.08533-3.86716 5.16262-1.25566.52846-2.7376.78368-4.44582.76566l-12.38994-.13068.0132-1.24993c1.93739.0204 3.12877-.34202 3.57416-1.08736.21228-.37278.32193-.89249.32896-1.55912zm4.4915-6.578l-.0659 6.24965c-.0152 1.43743.38183 2.31666 1.191 2.63771.41487.17106.97646.26032 1.68477.26779 2.9894.0315 4.49976-1.437 4.53109-4.40559.0163-1.55198-.4398-2.74957-1.36844-3.59275-.88745-.80106-2.10195-1.20973-3.64352-1.226-.58331-.006-1.35964.0169-2.32899.0692zm.0895-8.4839l-.075 7.10898c.93699.0516 1.75964.0811 2.46795.0885 2.6665.0281 4.01157-1.07753 4.03521-3.317.0274-2.604-1.55248-3.92282-4.73979-3.95646-.5729-.006-1.13569.0193-1.6884.0759z" id="path3887" font-size="32"/>
      <path d="M370.65006 625.75367l-2.35282 5.55867-17.1406-.028.002-1.25.53125.00087c1.29166.002 2.09948-.3247 2.42347-.98042.15678-.32266.23562-.76003.23652-1.31212l.0209-12.81248c.002-1.53123-.8348-2.29822-2.51187-2.30098l-.60938-.00099.002-1.25 10.84374.0177-.002 1.25-.92188-.002c-1.58334-.003-2.37622.74094-2.37864 2.2305l-.0215 13.18748c-.00096.58334.11559.97416.34965 1.17245.23404.1983.64794.29794 1.2417.2989l4.07812.007c1.18748.002 2.17259-.44437 2.95531-1.33894.35482-.40566 1.0124-1.2223 1.97275-2.44991z" id="path3889" font-size="32"/>
      <path d="M370.67315 612.64277l-.006-1.24998 10.17174-.0527.006 1.24998-.53124.003c-1.62499.008-2.43332.81474-2.42499 2.41886l.0657 12.67171c.004.86457.20553 1.46771.60315 1.80939.3976.3417 1.0339.51028 1.90889.50574l.46875-.002.006 1.24998-10.17174.0527-.006-1.24998.45312-.002c1.55206-.008 2.32428-.74644 2.31667-2.21517l-.0664-12.79671c-.004-.86455-.18477-1.48081-.54084-1.84878-.35609-.36793-.96641-.54966-1.83098-.5452z" id="path3891" font-size="32"/>
      <path d="M402.81503 625.25257l1.28114-.017c-.26615 1.93078-.83934 3.88125-1.71956 5.8514-.48107-.13947-1.11219-.20404-1.89335-.1937-.39582.005-1.20958.11238-2.44127.32142-1.23173.20903-2.2486.31886-3.0506.32948-2.06233.0273-3.97406-.3745-5.73521-1.20543-1.85545-.87134-3.33576-2.12789-4.44092-3.76966-1.05213-1.56953-1.59081-3.30734-1.61604-5.21343-.0388-2.92681 1.11317-5.42405 3.4558-7.49172 2.34261-2.06764 5.23252-3.12422 8.66973-3.16975 1.41653-.0187 2.70015.15178 3.85086.51156 1.48564.48039 2.25451.72023 2.3066.71952.24996-.003.46211-.11027.63644-.32095l.7968-.0105.37091 5.58933-1.24989.0165c-.72629-2.13639-1.9434-3.57874-3.65136-4.32704-.85921-.37405-1.78876-.55447-2.78866-.54125-2.28106.0302-4.12465.84116-5.53078 2.43281-1.42655 1.62321-2.12328 3.6847-2.09017 6.18447.0214 1.61445.37446 3.1047 1.05928 4.47074.72757 1.44883 1.74258 2.57612 3.04504 3.38185 1.25009.78561 2.61986 1.16855 4.10932 1.14882 1.51027-.02 2.85346-.46489 4.02956-1.33471 1.11412-.82732 1.97957-1.94825 2.59633-3.3628z" id="path3893" font-size="32"/>
      <path d="M419.35592 623.21997l-6.9979.17149-1.25148 3.78179c-.30113.89307-.30157 1.51306-.001 1.85997.28984.34717 1.15329.50315 2.59037.46793l.40613-.01.0306 1.24962-8.48183.20785-.0306-1.24962.48423-.0119c.86432-.0212 1.5498-.32452 2.05644-.91003.35427-.42547.69136-1.12664 1.01128-2.10353l5.09313-15.39501-.36661-.9288 4.73295-.11598 6.78718 16.10418c.39834.94887.78969 1.61135 1.17404 1.98746.51233.49802 1.21185.76742 2.09856.80821l.0306 1.24963-10.40313.25493-.0306-1.24963 1.12466-.0276c.9372-.023 1.52059-.24044 1.75017-.65244.21938-.40133.15239-1.00924-.20099-1.82375zm-.77741-1.7471l-3.11997-7.41017-2.50334 7.54797z" id="path3895" font-size="32"/>
      <path d="M436.72704 611.46791l-.0516-1.24894c.75805-.073 1.51111-.14056 2.25918-.20274l1.54298-.12626c.11449-.005.56095-.0492 1.33939-.1335 1.70257-.17453 3.15751-.28672 4.36483-.33659 4.1631-.17187 7.20418.13002 9.12325.90566 2.27977.92759 3.91318 2.48653 4.90023 4.67683.50562 1.13637.78572 2.36544.84032 3.68722.11557 2.79971-.77455 5.22912-2.67036 7.28824-2.08544 2.26504-5.65724 3.50199-10.71541 3.71083l-10.16322.41962-.0516-1.24894c1.01997-.0421 1.72796-.19123 2.12398-.44738.53829-.34541.78831-.98126.75007-1.90756l-.50986-12.34886c-.0602-1.45707-.4601-2.30587-1.19982-2.54642-.42233-.1285-1.0498-.17557-1.88242-.14121zm7.38433-.30489l.61622 14.92479c.0442 1.07201.236 1.73914.57524 2.00141.33922.26227 1.10729.3687 2.30419.31928 3.25763-.1345 5.6121-1.18565 7.06343-3.15345 1.18402-1.62313 1.72771-3.60558 1.63104-5.94735-.11347-2.74764-.99384-4.8798-2.64112-6.39649-1.59313-1.46676-3.94566-2.1359-7.05758-2.00744-.89507.037-1.72555.1234-2.49142.25925z" id="path3897" font-size="32"/>
      <path d="M479.67375 612.84818c-.18833-.97036-.39089-1.62701-.60771-1.96994-.36448-.56439-.94717-.82484-1.74806-.78137l-7.0053.38038.39055 7.19253 5.17987-.28126c.8633-.0469 1.47026-.25195 1.82088-.61526.35059-.36328.50274-.97138.45645-1.82431l1.27936-.0695.34565 6.36562-1.27936.0695c-.0621-1.14413-.44323-1.82238-1.14326-2.03475-.42397-.12302-1.04681-.16222-1.8685-.11762l-4.69621.25501.31261 5.75714c.0316.58248.11029.97463.23601 1.17643.17296.30358.51947.44124 1.03955.413l5.33589-.28974c1.16493-.0632 2.00372-.3696 2.51637-.91904.46399-.4842.79354-1.33143.98864-2.54172l1.20136-.0652-.10166 5.04418-19.23728 1.04458-.0678-1.24816 1.31057-.0712c1.66421-.0904 2.45481-.90005 2.37179-2.42905l-.69215-12.74685c-.0514-.9465-.32016-1.57347-.8063-1.88092-.4105-.25936-1.11501-.36193-2.11354-.30773l-.31204.0169-.0678-1.24816 17.59907-.95562.57926 4.616z" id="path3899" font-size="32"/>
      <path d="M242.83318 666.93822l-8.80785-17.53338-.40725 12.83239c-.0326.86855-.0209 1.4544.035 1.75755.10232.67693.39179 1.14309.8684 1.39847.42905.23336 1.14743.34082 2.15514.32238l.0421 1.40562-7.99447.2393-.0421-1.40562c1.62712-.0839 2.54432-.58029 2.75159-1.48924.0921-.44826.15593-1.25327.1915-2.41502l.40094-13.04322c.027-1.05595-.1172-1.76093-.43262-2.11496-.31542-.35398-1.00094-.53863-2.05656-.55395l-.0421-1.40562 7.59035-.22721 7.46284 14.90057 6.2771-15.31186 7.74848-.23194.0421 1.40562-1.47328.13203c-.62905.13609-.98445.40466-1.06621.8057-.0718.34217-.0648.96919.0211 1.88107l1.25803 13.23977c.0883.9939.15893 1.58971.21178 1.78743.17468.74511.49912 1.20436.9733 1.37775.40348.16378 1.10412.26591 2.1019.30638l.0421 1.40562-11.35039.33977-.0421-1.40562.61496-.0184c1.04248-.0312 1.74143-.18109 2.09686-.44966.43562-.32958.63871-.98634.60929-1.97028-.012-.39826-.0522-.9598-.12078-1.68465l-1.27844-12.74675-7.51987 18.4442z" id="path3901" font-size="36"/>
      <path d="M263.20134 655.53774c-.0714-3.55004 1.16138-6.50512 3.69841-8.86524 2.53702-2.36008 5.82075-3.58067 9.85119-3.66178 3.78438-.0761 6.89303.92505 9.32597 3.00346 2.4329 2.07846 3.6833 4.80484 3.75121 8.17914.0516 2.56589-.62288 4.87094-2.02343 6.91514-1.36639 1.99664-3.24728 3.47032-5.64269 4.42103-1.67421.67834-3.5482 1.03838-5.62199 1.08009-2.40187.0483-4.59593-.35294-6.58218-1.20379-2.19929-.95204-3.89212-2.36554-5.07851-4.2405-1.07741-1.70132-1.63673-3.57717-1.67798-5.62755zm5.34281-1.84807c.0684 3.39776.92093 6.15851 2.55773 8.28226 1.60117 2.10104 3.67884 3.12586 6.23303 3.07447 3.1634-.0636 5.31165-1.64818 6.44475-4.75363.51041-1.42852.74854-2.99221.71438-4.6911-.0623-3.09311-.83525-5.6855-2.319-7.7772-1.56841-2.21888-3.65312-3.30216-6.25414-3.24986-3.11656.0627-5.29072 1.52472-6.52247 4.38598-.60512 1.38357-.88987 2.95992-.85428 4.72908z" id="path3903" font-size="36"/>
      <path d="M315.72195 659.03504l1.44128-.0189c-.29975 2.17208-.94493 4.36626-1.93552 6.58253-.54118-.15699-1.25118-.22974-2.12999-.21824-.44529.006-1.36079.12622-2.74648.36116-1.38574.23495-2.52973.35833-3.43198.37014-2.32012.0304-4.47076-.422-6.4519-1.3571-2.08724-.98058-3.75236-2.39446-4.99539-4.24164-1.18336-1.76591-1.78908-3.72104-1.81714-5.86539-.0431-3.29267 1.25327-6.10187 3.88908-8.42759 2.6358-2.32568 5.88713-3.51384 9.754-3.56446 1.5936-.0208 3.03764.17123 4.33213.57617 1.67126.5407 2.53619.81066 2.5948.80987.28121-.004.51989-.12398.71605-.36097l.8964-.0117.4163 6.28806-1.40613.0184c-.81669-2.40356-2.1857-4.02641-4.10702-4.86855-.96655-.42096-2.01226-.62409-3.13715-.60939-2.5662.0336-4.64038.94559-6.22255 2.73596-1.60516 1.82586-2.38933 4.14491-2.35252 6.95716.0238 1.81626.42073 3.49285 1.19092 5.02976.81826 1.63007 1.95996 2.89844 3.42508 3.80512 1.40621.88402 2.94713 1.31507 4.62279 1.29314 1.69905-.0222 3.21021-.52252 4.53348-1.50086 1.25353-.93054 2.22735-2.19143 2.92146-3.78269zm-11.88132 9.59574l2.22598-3.19346 1.23037-.0161-.77301 1.38133c1.46961.3558 2.21431 1.28949 2.23411 2.80108.0175 1.33582-.56148 2.322-1.73683 2.95853-.54706.28843-1.16626.43717-1.8576.44622-1.17178.0153-2.21842-.25811-3.13991-.82031l.30212-1.09389c.60112.26168 1.27666.38762 2.0266.37781.42183-.006.78914-.14804 1.10192-.42755.31277-.27951.46647-.62432.46112-1.03444-.0106-.80852-.70222-1.26826-2.07487-1.37922z" id="path3905" font-size="36"/>
      <path d="M334.52672 657.02872l-7.87483.0519-1.48387 4.22863c-.35671.99847-.36969 1.69584-.0389 2.0921.31902.39634 1.2871.58918 2.90426.57852l.45703-.003.009 1.40622-9.54472.0629-.009-1.40622.54491-.004c.97263-.006 1.74979-.3338 2.33147-.98219.40705-.47144.80034-1.25334 1.17987-2.34572l6.03898-17.21402-.39366-1.05211 5.32606-.0351 7.30994 18.25103c.42895 1.07533.8558 1.82839 1.28054 2.25919.56625.5705 1.34766.88762 2.34422.95136l.009 1.40622-11.70678.0772-.009-1.40621 1.2656-.008c1.05465-.007 1.71523-.23982 1.98176-.69863.25486-.44699.19174-1.13214-.18933-2.05543zm-.83925-1.98084l-3.36013-8.39795-2.96786 8.43968z" id="path3907" font-size="36"/>
      <path d="M360.14192 665.27381l-8.25924-17.79839-.80546 12.81356c-.0596.86712-.0661 1.45305-.0196 1.75779.0813.67978.35612 1.1547.82457 1.42476.42159.24657 1.13629.37628 2.14409.38913l-.002 1.40625-7.99804-.009.002-1.40625c1.62894-.0333 2.56111-.50101 2.79651-1.40309.10596-.44519.19476-1.24783.26638-2.40791l.8057-13.02449c.0598-1.0546-.0625-1.76372-.36674-2.12737-.30428-.3636-.98374-.56944-2.03837-.61753l.002-1.40625 7.59374.009 6.99663 15.12509 6.74946-15.10959 7.75195.009-.002 1.40625-1.47666.0862c-.63297.1165-.99654.3739-1.09071.77221-.0824.33978-.0949.96671-.0373 1.88082l.84636 13.27245c.0575.99616.10951 1.59388.15619 1.79314.15146.75018.46148 1.21928.93005 1.4073.39821.17624 1.09533.30007 2.09138.3715l-.002 1.40625-11.35546-.0128.002-1.40625.61523.00069c1.04295.001 1.74622-.12693 2.10981-.38434.44565-.3159.66904-.96603.67017-1.95041.00042-.39843-.0224-.96096-.0684-1.68758l-.88208-12.7803-8.08888 18.20183z" id="path3909" font-size="36"/>
      <path d="M383.47769 660.92314l.12546-13.39394c.0161-1.72256-.33205-2.71024-1.04455-2.96304-.43226-.14466-1.11712-.22139-2.05458-.23019l-.89644-.008.0132-1.40619c.57419.005 1.33035-.0227 2.26847-.0842 1.24311-.0938 1.99949-.14532 2.26912-.15453l2.00481-.0867c1.84074-.0882 3.11852-.12897 3.83334-.1223 4.87477.0457 8.16544.93202 9.87201 2.659.90544.9226 1.35224 2.01668 1.34041 3.28223-.0201 2.14445-1.51 3.56024-4.46967 4.24738 1.61392.35499 2.93176 1.04119 3.95355 2.05861 1.12622 1.12389 1.68198 2.47095 1.6673 4.04118-.0249 2.66005-1.47284 4.59774-4.34371 5.81308-1.41191.59618-3.07875.88527-5.00053.86726l-13.93884-.13057.0132-1.40619c2.17959.0204 3.51942-.38892 4.0195-1.22802.23831-.41966.36098-1.00447.36801-1.75445zm5.0442-7.4062l-.0659 7.03095c-.0152 1.61712.43263 2.60573 1.34337 2.96583.46696.19189 1.09887.29156 1.89572.29902 3.36312.0315 5.06033-1.62258 5.09163-4.96229.0163-1.746-.49841-3.09268-1.54426-4.04003-.99944-.90001-2.3663-1.35815-4.10058-1.37441-.65624-.006-1.52957.0208-2.62002.0809zm.0894-9.5445l-.0749 7.9977c1.05419.0568 1.97971.0889 2.77657.0963 2.99985.0281 4.51158-1.21754 4.5352-3.73698.0274-2.92954-1.75174-4.41111-5.33751-4.44472-.64451-.006-1.27763.0232-1.89934.0877z" id="path3911" font-size="36"/>
      <path d="M405.05726 644.58788l.0215-1.40609 11.44202.17511-.0215 1.40609-.59758-.009c-1.82792-.0279-2.75569.8603-2.78329 2.66475l-.21815 14.25419c-.0149.97255.19733 1.65557.63668 2.04905.43934.39349 1.15114.59777 2.13541.61283l.52728.008-.0215 1.40608-11.44202-.17511.0215-1.40609.50971.008c1.74588.0267 2.63147-.78599 2.65676-2.43814l.2203-14.3948c.0149-.97252-.17369-1.66982-.56571-2.09191-.39203-.42204-1.07431-.64051-2.04685-.65542z" id="path3913" font-size="36"/>
      <path d="M445.90508 672.94484l-.64721 1.39183c-.61245.12665-1.28771.18155-2.02577.16469-2.91723-.0667-5.82577-1.2819-8.72562-3.64564l-3.71043-3.05629c-1.27743-1.03727-2.3235-1.68243-3.13824-1.93549-1.81587-.55726-3.32763-1.34201-4.53528-2.35425-2.70338-2.24204-4.0145-5.13798-3.93337-8.68785.0806-3.5264 1.45324-6.3991 4.11792-8.61811 2.66467-2.21897 5.98282-3.28307 9.95445-3.19232 2.31969.053 4.42433.54071 6.31392 1.46301 2.07513 1.00864 3.66589 2.43989 4.77228 4.29376 1.0499 1.75884 1.54969 3.73953 1.49938 5.94206-.0675 2.95236-1.0867 5.49028-3.05758 7.61376-1.8748 2.0202-4.18389 3.29785-6.92728 3.83295.86634.55901 1.99318 1.51665 3.38055 2.87292 1.44455 1.41619 2.55343 2.391 3.32662 2.92443.90014.61838 2.01203.94856 3.33566.99054zm-21.30146-19.61685c-.10765 4.70971 1.16852 8.1089 3.82853 10.19756 1.26649 1.00186 2.74327 1.52207 4.43034 1.56063 3.28038.075 5.52547-1.4796 6.73528-4.66373.53669-1.42951.82378-2.96436.8613-4.60457.0634-2.7766-.53628-5.25775-1.79914-7.44344-1.45511-2.49482-3.56511-3.77383-6.33-3.83705-3.10467-.0709-5.33376 1.29646-6.68727 4.10218-.65227 1.35656-.99862 2.91936-1.03904 4.68842z" id="path3915" font-size="36"/>
      <path d="M466.42971 646.07475l.0484-1.40541 9.32846.32131-.0484 1.40542-.26352-.009c-1.15949-.0399-1.99809.1364-2.51579.52895-.5545.43822-.8511 1.21949-.88981 2.3438l-.3086 8.95953c-.10976 3.18562-1.08841 5.55568-2.93596 7.11018-1.77531 1.49837-4.27332 2.19208-7.49405 2.08115-3.05679-.10529-5.48358-.79862-7.28037-2.07998-2.11747-1.50347-3.12639-3.70161-3.02674-6.59443l.36972-10.73387c.0327-.94864-.12667-1.59904-.47803-1.95121-.35137-.35212-1.00138-.54454-1.95004-.57724l-.61487-.0212.0484-1.40542 11.2609.38788-.0484 1.40541-.61487-.0212c-1.69822-.0585-2.57536.72625-2.63143 2.35416l-.36972 10.73387c-.092 2.6703.94215 4.4765 3.10242 5.41861.95875.41997 2.02958.65033 3.21249.69107 2.16666.0746 3.88969-.41712 5.16908-1.47527 1.32821-1.11509 2.02924-2.74427 2.10309-4.88753l.30135-8.74872c.0589-1.70991-.30121-2.83039-1.08024-3.36145-.42448-.27256-1.00564-.42156-1.74346-.447z" id="path3917" font-size="36"/>
      <path d="M495.58209 651.14115c-.10097-1.10744-.25338-1.86535-.45725-2.27373-.34409-.67296-.96681-1.03043-1.86816-1.07242l-7.88403-.36708-.37689 8.09475 5.82962.27142c.97159.0453 1.67416-.1156 2.10773-.48257.43354-.36694.67266-1.03036.71737-1.99027l1.43985.067-.33356 7.16411-1.43985-.067c.0599-1.28766-.28985-2.08995-1.04935-2.40688-.46063-.18567-1.15332-.30004-2.07809-.34311l-5.28529-.24608-.30167 6.47931c-.0305.65554.0131 1.10337.13101 1.34348.15924.35936.53151.55267 1.11682.57991l6.00521.2796c1.31107.061 2.28459-.18691 2.92057-.74387.57415-.48945 1.0389-1.40046 1.39425-2.73304l1.35205.063-.68467 5.63441-21.65037-1.00803.0654-1.40473 1.47497.0687c1.87296.0872 2.84951-.72959 2.92963-2.45038l.66794-14.34579c.0496-1.06523-.18028-1.79742-.68961-2.19656-.43011-.33675-1.20706-.5313-2.33084-.58365l-.35118-.0163.0654-1.40473 19.80667.92219.12593 5.23223z" id="path3919" font-size="36"/>
    </g>
  </g>
</svg>
