<svg version="1.1" id="Calque_1" xmlns="http://www.w3.org/2000/svg" x="0" y="0" viewBox="0 0 222.521 329.362" xml:space="preserve">
  <path fill-rule="evenodd" clip-rule="evenodd" fill="#B1B2B4" d="M222.521 232.208c-2.295.143-4.594.447-6.886.4-10.944-.229-21.518-2.552-31.995-5.592-23.674-6.87-47.427-6.731-71.023.231-22.138 6.533-44.415 7.294-66.9 2.499-7.718-1.648-15.25-4.213-22.998-5.651-6.313-1.173-12.821-1.307-19.244-1.864-1.115-.095-2.245-.012-3.475-.012v-2.856c2.791 0 5.562-.085 8.328.016 10.629.384 20.882 2.754 31.08 5.644 24.078 6.826 48.155 6.47 72.152-.567 24.32-7.133 48.716-7.387 73.024-.227 12.43 3.661 25.025 5.569 37.938 5.699-.001.76-.001 1.518-.001 2.28z"/>
  <path fill-rule="evenodd" clip-rule="evenodd" fill="#E3E4E6" d="M96.26 91.124c-3.996 1.742-7.763 3.37-11.517 5.027-1.458.643-2.319.526-3.436-1.003-5.235-7.174-11.649-13.172-19.163-17.94-1.744-1.107-3.529-1.61-5.214.365-.32.376-1.461.286-2.13.09-4.732-1.381-9.424-2.904-14.166-4.249-1.405-.399-2.93-.377-5.213-.642 3.688-3.814 6.816-7.478 10.404-10.617 2.786-2.437 6.124-4.254 9.277-6.25.519-.328 1.446-.411 2.022-.187 6.915 2.692 13.974 5.28 19.557 10.327 3.761 3.399 7.123 7.309 10.268 11.301 3.181 4.038 5.88 8.458 8.78 12.718.239.352.386.766.531 1.06z"/>
  <path fill-rule="evenodd" clip-rule="evenodd" fill="#F7A901" d="M147.261 88.679c.26 3.232-1.148 5.825-3.564 7.683-8.336 6.414-19.923 6.793-28.455.037-5.811-4.601-5.285-12.542 1.003-16.428 8.156-5.041 18.172-4.979 26.353.038 3.484 2.138 4.665 4.563 4.663 8.67z"/>
  <path fill-rule="evenodd" clip-rule="evenodd" fill="#BDDDF2" d="M106.932 207.836c-.625-1.648-.853-2.633.853-3.43 4.346-2.036 5.605-6.007 5.484-10.354-.113-4.131-.773-8.25-1.202-12.451 10.112-4.292 14.904-13.396 10.243-25.102 4.24 3.497 7.513 6.984 8.166 12.254.514 4.136.8 8.319 1.649 12.386.661 3.162 2.094 6.155 3.038 9.269.206.681.065 1.808-.384 2.294-7.537 8.11-17.059 12.574-27.847 15.134z"/>
  <path fill-rule="evenodd" clip-rule="evenodd" fill="#C6C7C9" d="M7.979 130.411c.566-6.288 1.103-12.467 3.368-18.314.302-.778 1.529-1.638 2.38-1.698 15.05-1.064 29.81.62 44.256 4.983.494.148.947.432 1.545.71-1.506 2.299-2.904 4.526-4.426 6.666-.285.401-1.083.667-1.617.626-10.561-.815-21.075-.511-31.502 1.399-2.586.474-5.108 1.38-7.597 2.265-.856.305-1.89 1.001-2.198 1.775-.79 1.981-2.155 2.028-4.209 1.588z"/>
  <path fill-rule="evenodd" clip-rule="evenodd" fill="#C6C7C9" d="M73.159 102.964c-2.93 2.495-5.328 4.536-7.639 6.505-10.808-6.55-22.369-10.813-34.747-12.788-1.888-.302-3.901.071-5.842.27-.624.064-1.541.428-1.744.903-1.484 3.487-3.729 1.871-6.092.992 1.754-4.48 3.313-8.996 6.847-12.373.805-.77 2.31-1.377 3.372-1.225 11.405 1.635 22.834 3.528 33.283 8.559 4.517 2.176 8.261 5.954 12.562 9.157z"/>
  <path fill-rule="evenodd" clip-rule="evenodd" fill="#9D9EA0" d="M13.547 154.326c-1.115.242-2.129.461-3.782.819-.543-5.634-1.114-11.036-1.505-16.451-.036-.5 1-1.453 1.65-1.569 8.439-1.507 16.864-3.19 25.367-4.214 4.997-.602 10.125-.11 15.212-.11-.793 3.289-1.581 6.828-2.564 10.312-.137.487-1.208.908-1.898 1.011-8.326 1.262-16.664 2.438-24.991 3.694-1.113.167-2.196.603-3.259 1.003-2.483.935-4.556 2.241-4.23 5.505z"/>
  <path fill-rule="evenodd" clip-rule="evenodd" fill="#BCBDBF" d="M127.574 23.087c-3.723-.452-5.457.01-10.566 2.903.054-.693-.083-1.381.147-1.543 3.546-2.495 6.282-5.652 8.259-9.517.478-.938 1.863-1.654 1.91-2.522.127-2.347-.241-4.72-.412-7.083-.222-.006-.443-.012-.665-.019.822-1.062 1.643-2.123 2.592-3.347 2.67 3.062-1.023 6.438.841 9.45.482-.438.959-.872 1.493-1.357 3.577 2.688 6.806 1.59 10.219-.937-.102.582.006 1.426-.34 1.699-1.82 1.445-2.014 3.28-2.373 5.482-.581 3.551-3.432 6.515-7.931 6.367-.286-.009-.571-.002-.952-.002-.388 5.204-.346 10.067 4.408 13.603 1.388 1.033 2.576 2.669 3.24 4.283 3.195 7.758-2.179 12.049-8.19 14.224-.271.098-.622.11-.898.029-3.941-1.161-7.379-3.213-8.938-7.112-1.431-3.579-.239-7.01 2.091-9.998.417-.536.883-1.087 1.441-1.45 4.862-3.162 5.467-7.836 4.624-13.153z"/>
  <path fill-rule="evenodd" clip-rule="evenodd" fill="#9D9EA0" d="M47.019 149.87c.154 3.514.364 6.975.394 10.438.004.49-.769 1.171-1.335 1.451-6.103 3.023-12.25 5.958-18.355 8.973-1.637.808-2.914 1.846-3.569 3.845-.307.935-2.248 1.456-3.542 1.872-.381.124-1.316-.633-1.602-1.189-2.235-4.358-4.442-8.736-6.507-13.178-.716-1.542.039-2.793 1.592-3.502 10.294-4.696 21.109-7.489 32.316-8.846.201-.025.418.09.608.136z"/>
  <path fill-rule="evenodd" clip-rule="evenodd" fill="#6AADDA" d="M84.076 98.743c4.153-1.611 8.7-3.419 13.298-5.087.434-.157 1.43.414 1.758.913 2.74 4.176 5.387 8.416 8.081 12.667-3.859 4.643-4.461 10.271-5.039 15.82-.422 4.062-.362 8.181-.397 12.275-.032 3.693.041 3.693-3.751 5.647-.628-1.764-1.249-3.493-1.86-5.225-1.084-3.064-2.096-6.155-3.275-9.182-.487-1.251-.479-2.074.724-2.879 1.8-1.204 3.108-2.817 2.491-5.154-.645-2.441-2.467-3.383-4.9-3.69-.841-.106-1.995-.958-2.28-1.736-1.682-4.583-3.149-9.245-4.85-14.369z"/>
  <path fill-rule="evenodd" clip-rule="evenodd" fill="#707173" d="M43.71 196.546c-2.371 4.341-2.679 4.495-6.361 1.681-5.919-4.524-10.498-10.289-14.567-16.466-.444-.675-.803-1.915-.475-2.446.324-.528 1.569-.48 2.403-.71 2.161-.595 4.436-.939 6.452-1.854 5.923-2.686 11.744-5.598 17.604-8.423 1.749 4.549 3.396 8.829 5.129 13.335-1.818 1.286-3.919 2.615-5.834 4.175-1.639 1.332-3.173 2.834-4.56 4.43-2.642 3.034-2.581 3.249.209 6.278z"/>
  <path fill-rule="evenodd" clip-rule="evenodd" fill="#6AADDA" d="M56.858 124.137c1.669-2.417 2.945-4.48 4.473-6.335.432-.524 1.748-.818 2.411-.567 3.238 1.229 6.393 2.679 9.588 4.055 2.563-2.545 2.489-3.922-.422-6.142-1.792-1.366-3.634-2.668-5.691-4.175 2.509-2.103 4.876-4.086 7.037-5.896 3.891 3.904 7.671 7.696 11.554 11.591-1.235 1.655-2.47 3.858-1.463 6.474.381.99 1.157 2.242 2.035 2.536 1.6.536 1.895 1.684 2.435 2.939.95 2.208 1.81 4.545 3.235 6.428 1.363 1.8 1.303 2.854-.49 4.022-.498.324-.906.785-1.491 1.304-9.684-7.892-20.456-13.589-33.211-16.234z"/>
  <path fill-rule="evenodd" clip-rule="evenodd" fill="#BCBDBF" d="M139.811 138.948c.004 4.67-5.885 10.826-10.372 10.844-4.579.019-10.576-6.213-10.531-10.941.061-6.272 4.517-10.852 10.525-10.816 6.072.038 10.374 4.562 10.378 10.913z"/>
  <path fill-rule="evenodd" clip-rule="evenodd" fill="#BCBDBF" d="M108.962 144.189c-2.194-7.617.825-15.143.405-22.081 13.389-6.471 26.639-6.56 40.058.039 1.47 7.073 1.596 19.28-.113 22.341-.447-.741-.896-1.289-1.121-1.917-.196-.553-.252-1.208-.184-1.797.904-7.849-2.693-13.124-9.516-16.442-7.059-3.434-13.855-2.846-20.53 1.325-5.339 3.335-7.566 7.98-7.206 14.158.088 1.499-.491 3.037-.764 4.556-.342-.061-.686-.122-1.029-.182z"/>
  <path fill-rule="evenodd" clip-rule="evenodd" fill="#6AADDA" d="M88.366 175.669c1.519 1.242 3.032 2.384 4.407 3.67.369.346.562 1.206.421 1.715-2.363 8.477-7.061 15.521-13.475 21.446-.471.436-1.761.601-2.275.272-3.875-2.478-7.65-5.107-11.635-7.812 4.264-3.321 8.176-6.146 11.827-9.274 3.683-3.155 7.108-6.613 10.73-10.017z"/>
  <path fill-rule="evenodd" clip-rule="evenodd" fill="#6AADDA" d="M50.758 167.898c10.454-5.093 21.061-5.109 32.011-3.316.301.928.664 2.049.927 2.864-9.28 4.276-18.443 8.5-28.11 12.956-1.54-3.99-3.151-8.16-4.828-12.504z"/>
  <path fill-rule="evenodd" clip-rule="evenodd" fill="#6AADDA" d="M86.221 144.895c-.812 1.563-1.503 2.892-2.151 4.139-5.599-1.48-11.053-3.347-16.663-4.287-5.627-.945-11.409-.965-17.506-1.42.917-3.151 1.852-6.546 2.945-9.889.132-.404 1.127-.778 1.7-.747 10.583.589 19.867 4.844 28.721 10.283.963.591 1.895 1.231 2.954 1.921z"/>
  <path fill-rule="evenodd" clip-rule="evenodd" fill="#BDDDF2" d="M111.057 179.236c-1.525-2.887-2.967-5.617-4.549-8.611 1.271-.495 2.499-1.016 3.755-1.455 5.065-1.774 7.491-6.611 5.819-11.653-.965-2.905-3.738-4.654-7.354-4.635-2.81.015-5.46 2.004-6.296 4.726-.868 2.825 1.179 5.718 3.952 5.533 1.504-.101 2.67-.793 2.88-2.395.073-.558-.338-1.182-.527-1.776-.46.362-.896.763-1.386 1.076-.549.351-1.147.622-1.725.93-.329-.663-1.099-1.544-.899-1.941.457-.911 1.25-1.9 2.151-2.291 1.591-.684 3.271-.533 4.634.832 2.825 2.829 2.165 6.997-1.473 8.614-1.153.512-2.461.843-3.719.915-2.895.171-5.489-.754-7.049-3.302-1.337-2.185-.396-6.23 1.636-8.496 4.435-4.941 11.927-5.164 16.63-.419 3.844 3.88 5.104 8.56 3.705 13.824-1.416 5.326-5.179 8.472-10.185 10.524z"/>
  <path fill-rule="evenodd" clip-rule="evenodd" fill="#BCBDBF" d="M143.065 34.335c2.621 1.357 3.9 3.464 4.435 5.821.665 2.938.952 5.978 1.188 8.991.183 2.326.036 4.676.036 7.535-4.806 1.726-10.049 3.697-15.354 5.478-3.292 1.105-6.66.645-9.856-.48-4.644-1.634-9.212-3.479-13.774-5.219.313-4.914.419-9.608.974-14.249.379-3.181 1.795-6.021 5.107-8.02-.838 2.925-1.575 5.434-2.276 7.952-2.265 8.118 2.917 12.84 9.303 14.514 4.888 1.28 9.797 1.049 14.626-.425 5.994-1.83 9.14-6.864 7.947-12.955-.566-2.873-1.483-5.676-2.356-8.943z"/>
  <path fill-rule="evenodd" clip-rule="evenodd" fill="#6AADDA" d="M101.445 182.611c3.671.001 3.681.001 3.854 3.44.166 3.294.553 6.604.368 9.878-.117 2.049-1.216 4.024-1.688 6.076-.428 1.863-.602 3.784-.96 6.158-5.636.683-11.542-.284-17.593-2.035 7.442-6.628 12.519-14.555 16.019-23.517z"/>
  <path fill-rule="evenodd" clip-rule="evenodd" fill="#707173" d="M46.084 203.297c2.053-2.056 3.354-4.286 7.052-4.252 3.28.032 6.566-1.829 9.874-2.763.653-.186 1.628-.23 2.107.128 3.861 2.881 7.639 5.872 11.604 8.956-.666 1.244-2.855 2.465-1.692 4.861.038.078-.968.984-1.42.93-9.333-1.097-18.498-2.863-26.959-7.225-.124-.063-.2-.217-.566-.635z"/>
  <path fill-rule="evenodd" clip-rule="evenodd" fill="#6AADDA" d="M81.989 157.134c-10.906-1.509-21.816-1.717-32.789 3.96 0-3.756.05-6.7-.019-9.642-.039-1.669.595-2.392 2.286-2.148 7.559 1.095 15.126 2.132 22.676 3.291 2.233.342 4.396 1.167 6.631 1.497 1.962.29 1.938 1.237 1.215 3.042z"/>
  <path fill-rule="evenodd" clip-rule="evenodd" fill="#BCBDBF" d="M111.582 108.803c11.852-3.632 23.795-3.641 35.64 0-5.856 4.936-30.78 4.654-35.64 0z"/>
  <path fill-rule="evenodd" clip-rule="evenodd" fill="#BCBDBF" d="M111.05 68.618c6.302-.693 12.598-1.425 18.905-2.046 1.343-.131 2.736.049 4.083.238 4.548.636 9.086 1.342 13.911 2.063-.375.369-.756 1.087-1.267 1.195-4.062.858-8.123 1.789-12.232 2.332-5.934.785-11.809.346-17.547-1.572-1.337-.447-2.831-.408-4.221-.726-.709-.162-1.35-.618-2.021-.942.13-.181.26-.362.389-.542z"/>
  <path fill-rule="evenodd" clip-rule="evenodd" fill="#707173" d="M99.66 211.074c-4.605.503-9.201 1.132-13.816 1.459-2.243.159-4.523-.28-6.789-.381-1.612-.072-1.766-.963-1.22-2.129.507-1.082 1.201-2.075 1.95-3.337 3.19.864 6.409 1.923 9.707 2.576 3.315.659 6.71.911 10.07 1.344.032.156.064.312.098.468z"/>
  <path fill-rule="evenodd" clip-rule="evenodd" fill="#6AADDA" d="M97.311 168.669c-1.108 3.36-2.036 6.175-3.08 9.338-1.677-1.44-3.084-2.65-4.634-3.981 1.383-1.787 2.48-3.625 4.004-4.987.679-.607 2.213-.259 3.71-.37z"/>
  <g fill-rule="evenodd" clip-rule="evenodd" fill="#B1B2B4">
    <path d="M174.697 189.84v8.775c1.01-.447 1.804-.795 2.595-1.149 3.807-1.696 7.57-3.506 11.443-5.033 1.344-.53 3.407-1.385 4.074.713.193.602-1.676 2.453-2.868 2.795-4.073 1.166-8.264 1.923-12.415 2.813-.875.188-1.77.279-2.775.431v19.185c-3.591.479-4.021.144-4.005-3.103.024-4.561-.017-9.122.159-13.677.075-1.894-.431-2.548-2.392-2.861-4.335-.696-8.625-1.706-12.883-2.788-1.369-.35-3.411-1.015-2.799-2.907.639-1.97 2.682-1.114 3.963-.625 3.608 1.379 7.116 3.021 10.653 4.583 1.076.475 2.123 1.021 3.391 1.633v-7.999c-2.823-.456-5.688-.763-8.469-1.414-2.643-.62-5.247-1.486-7.764-2.502-.637-.256-.88-1.486-1.305-2.269.792-.285 1.733-1.004 2.35-.788 3.638 1.264 7.22 2.7 10.779 4.176 1.426.591 2.747 1.43 4.477 2.348v-7.517c-3.813-.703-7.626-1.301-11.385-2.144-1.674-.377-3.292-1.142-4.823-1.943-.529-.278-1.154-1.462-.967-1.778.34-.573 1.334-1.221 1.913-1.107 2.068.404 4.161.916 6.084 1.755 3.048 1.328 5.965 2.953 9.129 4.55.083-.472.209-.872.215-1.273.051-4.475.025-8.951.157-13.425.048-1.668-.362-2.341-2.181-2.555-3.458-.406-6.877-1.166-10.293-1.871-.872-.18-1.823-.538-2.465-1.116-.633-.571-.921-1.525-1.359-2.312.851-.304 1.881-1.082 2.524-.838 3.606 1.358 7.127 2.94 10.655 4.499.939.414 1.797 1.016 3.018 1.721v-8.243c-3.021-.467-6.097-.834-9.12-1.454-1.763-.363-3.522-.974-5.124-1.789-.68-.345-.946-1.5-1.401-2.287.847-.326 1.861-1.126 2.51-.896 3.128 1.112 6.182 2.453 9.216 3.814 1.286.578 2.461 1.402 4.097 2.353 0-2.733.093-5.057-.076-7.361-.035-.457-1.018-1.083-1.65-1.216-3.485-.729-7.028-1.201-10.486-2.036-1.421-.343-3.634-.928-2.986-2.978.671-2.122 2.773-1.204 4.128-.626 3.062 1.308 6.002 2.9 8.987 4.387.588.293 1.15.637 1.991 1.104v-7.86c-1.756-.215-3.551-.356-5.316-.671-2.162-.386-4.331-.805-6.433-1.429-1.408-.417-3.353-1.027-2.804-2.924.597-2.066 2.602-1.229 3.877-.716 2.665 1.069 5.208 2.446 7.784 3.732.915.457 1.778 1.016 3.063 1.76v-25.533c-2.83-.398-5.608-.716-8.354-1.21-1.178-.211-2.415-.603-3.379-1.268-.656-.453-.889-1.521-1.312-2.314.828-.346 1.783-1.147 2.455-.956 2.021.579 3.976 1.455 5.872 2.389 1.546.76 2.97 1.769 4.81 2.888v-8.155c-1.418-.146-3.066-.188-4.657-.51-2.214-.45-4.439-.968-6.546-1.761-.651-.245-.93-1.479-1.379-2.26.886-.367 1.968-1.255 2.621-1.008 2.535.958 4.949 2.247 7.377 3.476.855.434 1.619 1.046 2.71 1.764v-8.16c-2.684-.376-5.319-.662-7.918-1.149-1.165-.218-2.366-.679-3.337-1.343-.521-.356-.952-1.509-.753-2.059.183-.505 1.425-1.115 1.926-.932 2.331.852 4.594 1.913 6.826 3.005 1.075.525 2.03 1.287 3.302 2.111v-8.08c-2.403-.326-4.809-.565-7.177-1.009-1.169-.219-2.368-.661-3.361-1.3-.559-.357-1.182-1.618-.969-1.95.392-.604 1.529-1.286 2.098-1.11 2.008.623 3.938 1.532 5.835 2.459 1.193.583 2.275 1.392 3.725 2.298v-7.846c-2.465-.357-4.97-.53-7.364-1.143-1.358-.349-2.556-1.385-3.749-2.221-.128-.089.288-1.334.398-1.326 1.446.105 3.004.058 4.296.607 2.146.912 4.122 2.228 6.441 3.526v-16.5c-1.47-.161-3.121-.23-4.728-.547-1.546-.306-3.096-.75-4.528-1.39-.462-.206-.898-1.353-.72-1.84.161-.444 1.312-.957 1.785-.782 1.906.7 3.738 1.617 5.557 2.532.871.438 1.65 1.053 2.782 1.791v-8.5c-1.724-.211-3.597-.359-5.437-.693-1.104-.2-2.249-.534-3.193-1.108-.564-.342-.772-1.266-1.142-1.929.759-.301 1.667-1.029 2.249-.825 1.842.646 3.572 1.618 5.323 2.511.709.363 1.355.852 2.314 1.466v-8.064c-1.96-.269-3.831-.474-5.681-.801-.886-.156-1.86-.366-2.553-.879-.538-.397-.703-1.299-1.035-1.978.718-.253 1.587-.898 2.129-.69 1.826.698 3.539 1.694 5.287 2.589.581.297 1.144.631 1.937 1.071v-7.405c-1.821-.242-3.728-.294-5.504-.799-1.195-.339-2.241-1.279-3.268-2.063-.121-.093.33-1.316.468-1.307 1.227.083 2.535.105 3.638.572 1.567.665 2.981 1.691 4.742 2.727V28.75c-2.205-.396-4.4-.626-6.478-1.253-.735-.222-1.179-1.411-1.756-2.157.928-.168 2.01-.722 2.754-.428 1.867.738 3.58 1.861 5.542 2.931v-7.765c-1.47-.179-2.959-.297-4.421-.563-.882-.16-1.845-.384-2.531-.9-.446-.334-.663-1.276-.572-1.885.041-.272 1.212-.702 1.659-.525 1.468.577 2.844 1.395 4.251 2.129.511.267 1.004.561 1.734.97v-7.555c-1.891-.304-3.798-.431-5.57-.986-.737-.23-1.187-1.378-1.766-2.108.872-.134 1.886-.615 2.589-.332 1.587.639 3.021 1.657 4.705 2.629.103-1.045.302-6.738.386-7.611.079-.013.334 6.554.457 7.569 1.703-.933 3.222-1.943 4.883-2.587.659-.255 1.633.303 2.465.491-.569.674-1.023 1.729-1.733 1.945-1.719.524-3.556.658-5.579.987v7.602c.946-.578 1.727-1.098 2.546-1.543 1.062-.577 2.116-1.239 3.258-1.57.545-.159 1.288.363 1.938.575-.312.676-.46 1.723-.972 1.952-1.22.542-2.604.745-3.938.989-.887.163-1.804.159-2.811.237v8.03c1.257-.79 2.229-1.479 3.274-2.038.997-.534 2.034-1.122 3.12-1.316.614-.11 1.362.525 2.051.826-.373.589-.622 1.511-1.142 1.705-1.477.549-3.053.846-4.608 1.152-.806.157-1.648.123-2.643.187v8.111c1.241-.778 2.21-1.429 3.22-2.005.857-.488 1.726-1.128 2.654-1.266.96-.143 2.604-.082 2.887.452.786 1.492-.637 2.197-1.805 2.475-2.201.525-4.46.812-6.849 1.223v7.385c1.354-.815 2.49-1.507 3.636-2.182.392-.232.787-.512 1.216-.613 1.349-.317 2.714-.593 4.085-.767.106-.014.557 1.239.46 1.3-1.216.78-2.433 1.7-3.79 2.085-1.728.49-3.584.523-5.562.775v7.991c1.099-.65 2.006-1.239 2.958-1.737 1.411-.734 2.799-1.605 4.306-2.016.771-.21 1.778.456 2.678.726-.575.771-1.004 1.978-1.753 2.226-1.923.637-3.985.864-5.999 1.222-.658.118-1.336.133-2.128.207v8.443c2.249-1.284 4.19-2.564 6.278-3.522 1.308-.6 3.343-1.966 4.05.267.578 1.83-1.617 2.295-3.039 2.596-2.294.483-4.64.716-7.154 1.081v16.544c1.943-1.141 3.64-2.221 5.418-3.15 1.132-.592 2.353-1.146 3.595-1.353.688-.115 1.503.519 2.261.815-.412.729-.659 1.855-1.27 2.111-1.587.667-3.318 1.042-5.024 1.364-1.559.294-3.162.367-4.897.554v7.914c1.989-1.179 3.697-2.257 5.468-3.218 1.062-.575 2.189-1.223 3.346-1.36.945-.113 1.974.481 2.966.763-.553.868-.917 2.187-1.694 2.51-1.794.745-3.775 1.079-5.707 1.438-1.328.248-2.702.262-4.217.393v8.124c2.028-1.225 3.829-2.437 5.746-3.427 1.397-.723 2.916-1.3 4.448-1.637.589-.129 1.733.434 1.951.96.21.508-.25 1.624-.765 2.028-.802.627-1.863 1.066-2.875 1.252-2.758.509-5.546.844-8.506 1.274v8.107c1.408-.875 2.609-1.711 3.893-2.394 1.804-.96 3.634-1.887 5.517-2.672 1.213-.505 2.753-.829 3.328.783.618 1.733-.866 2.539-2.185 2.866-2.566.637-5.198 1.025-7.81 1.472-.878.149-1.778.162-2.593.23v42.284c.865-.363 1.388-.546 1.876-.796 2.905-1.482 5.781-3.024 8.714-4.444.869-.42 1.899-.705 2.85-.691.695.011 1.773.469 1.963.991.195.532-.289 1.67-.824 2.035-1.041.711-2.28 1.275-3.515 1.531-2.97.617-5.969 1.178-8.984 1.447-1.646.148-2.044.732-1.966 2.228.102 1.964.023 3.938.023 6.264.795-.338 1.316-.524 1.807-.773 2.906-1.479 5.798-2.989 8.714-4.448.604-.303 1.311-.653 1.938-.604 1.159.093 2.959.118 3.311.791.801 1.523-.816 2.21-1.989 2.669-1.548.604-3.151 1.135-4.779 1.447-2.894.554-5.823.919-8.807 1.374v8.151c2.979-1.555 5.729-3.11 8.584-4.438 1.705-.791 3.549-1.366 5.392-1.741.687-.139 1.545.571 2.325.895-.378.753-.569 1.904-1.171 2.188-1.832.867-3.782 1.591-5.763 2.02-3.03.653-6.125 1.015-9.253 1.509v16.981c2.983-1.528 5.611-3.01 8.354-4.232 2.066-.923 4.246-1.654 6.446-2.182.759-.182 1.726.505 2.598.797-.508.827-.844 2.153-1.553 2.396-3.141 1.082-6.368 1.941-9.608 2.7-1.974.463-4.024.597-6.063.88v7.343l-.002-.014z"/>
    <path d="M174.699 189.848c1.019-.422 2.049-.82 3.057-1.268 3.458-1.539 6.886-3.145 10.375-4.607.872-.365 1.938-.415 2.9-.361.485.027 1.197.534 1.335.973.141.451-.132 1.261-.507 1.596-.66.591-1.488 1.158-2.335 1.352-4.354.992-8.731 1.89-13.116 2.741-.522.1-1.138-.274-1.711-.431 0-.003.002.005.002.005z"/>
    <path d="M175.328 172.641c3.829-1.735 7.652-3.481 11.491-5.196.545-.244 1.19-.527 1.736-.441.95.148 1.858.569 2.782.875-.513.824-.837 1.975-1.577 2.401-1.35.776-2.91 1.29-4.447 1.615-3.217.678-6.476 1.16-9.719 1.725-.087-.328-.177-.652-.266-.979z"/>
    <path d="M169.935 173.867c-4.402-1.025-8.811-2.03-13.199-3.108-.633-.155-1.303-.562-1.728-1.05-.395-.453-.776-1.268-.62-1.747.152-.47.952-.866 1.538-1.015.55-.14 1.249-.051 1.783.174 4.223 1.78 8.423 3.615 12.628 5.435-.133.437-.269.876-.402 1.311z"/>
    <path d="M175.035 138.796c3.308-1.614 6.596-3.266 9.934-4.812.722-.334 1.636-.437 2.435-.359.569.055 1.388.477 1.557.936.181.484-.115 1.346-.499 1.785-.472.54-1.204 1.005-1.9 1.163-3.726.847-7.475 1.589-11.216 2.366-.105-.359-.206-.719-.311-1.079z"/>
    <path d="M174.903 130.243c3.298-1.612 6.558-3.315 9.918-4.786 1.162-.51 2.938-1.059 3.543.703.635 1.85-1.097 2.601-2.435 2.933-3.512.871-7.086 1.487-10.637 2.206-.129-.352-.259-.704-.389-1.056z"/>
    <path d="M170.369 131.295c-3.592-.729-7.189-1.427-10.769-2.219-.625-.139-1.319-.558-1.701-1.06-.399-.524-.721-1.372-.575-1.954.104-.417 1.052-.915 1.584-.874 1.187.09 2.44.301 3.501.811 2.787 1.341 5.486 2.868 8.218 4.32-.085.327-.173.652-.258.976z"/>
    <path d="M170.435 122.339c-3.806-.2-7.642-.381-11.139-2.143-.74-.372-1.056-1.589-1.565-2.417.971-.341 2.158-1.221 2.872-.933 3.451 1.396 6.775 3.109 10.146 4.708-.107.264-.211.525-.314.785z"/>
    <path d="M175.095 121.491c3.175-1.549 6.315-3.178 9.547-4.604 1.162-.514 2.867-.713 3.177.965.137.737-1.027 2.292-1.87 2.532-3.439.982-6.982 1.601-10.486 2.353-.124-.415-.246-.83-.368-1.246z"/>
    <path d="M174.759 112.801c3.154-1.518 6.276-3.11 9.481-4.514 1.071-.469 2.506-.713 3.031.908.505 1.564-.724 2.329-1.856 2.62-3.385.868-6.826 1.519-10.246 2.254-.136-.423-.273-.845-.41-1.268z"/>
  </g>
  <path fill-rule="evenodd" clip-rule="evenodd" fill="#BCBDBF" d="M172.146 3.335c-2.137-.396-3.736-.554-5.232-1.039-.592-.191-.946-1.111-1.41-1.698.775-.186 1.659-.696 2.307-.485 1.195.389 2.32 1.112 3.354 1.861 1.149.833 2.092.914 3.278.026 1.08-.809 2.301-1.504 3.564-1.955.568-.201 1.395.316 2.102.508-.441.594-.795 1.589-1.342 1.712-2.343.523-4.746.787-6.621 1.07z"/>
  <path fill-rule="evenodd" clip-rule="evenodd" fill="#BCBDBF" d="M170.911 71.542c-2.764-.585-5.562-1.054-8.269-1.837-.662-.191-1.028-1.403-1.531-2.145.9-.293 1.995-1.067 2.668-.795 2.569 1.04 5.003 2.417 7.488 3.669-.119.369-.238.738-.356 1.108z"/>
  <path fill-rule="evenodd" clip-rule="evenodd" fill="#BCBDBF" d="M174.352 70.494c2.434-1.258 4.812-2.656 7.337-3.685.723-.294 1.878.481 2.836.768-.636.8-1.132 2.078-1.934 2.312-2.566.751-5.249 1.116-7.885 1.63-.118-.341-.235-.684-.354-1.025z"/>
  <path fill-rule="evenodd" clip-rule="evenodd" fill="#6AADDA" d="M102.586 172.635c2.418.521 2.782 1.867 2.206 7.868h-2.907c.24-2.681.47-5.266.701-7.868z"/>
  <path fill-rule="evenodd" clip-rule="evenodd" fill="#6AADDA" d="M91.808 166.284c-2.03.377-3.874.72-5.916 1.101-.272-.854-.534-1.676-.807-2.532 3.872-.602 5.485-.286 6.723 1.431z"/>
  <g fill="#9D9EA0">
    <path d="M24.54 257.987c-.778.279-2.313.738-4.128.738-2.034 0-3.709-.52-5.025-1.775-1.157-1.117-1.875-2.912-1.875-5.006.02-4.008 2.772-6.939 7.279-6.939 1.556 0 2.772.338 3.351.617l-.419 1.416c-.718-.318-1.615-.578-2.971-.578-3.271 0-5.405 2.035-5.405 5.404 0 3.41 2.054 5.426 5.185 5.426 1.137 0 1.915-.16 2.313-.359v-4.01h-2.732v-1.395h4.427v6.461z"/>
    <path d="M38.678 251.726c0 4.627-2.812 7.08-6.242 7.08-3.55 0-6.043-2.754-6.043-6.822 0-4.268 2.653-7.059 6.242-7.059 3.67 0 6.043 2.81 6.043 6.801zm-10.43.218c0 2.871 1.556 5.445 4.288 5.445 2.752 0 4.308-2.533 4.308-5.584 0-2.674-1.396-5.465-4.288-5.465-2.872.001-4.308 2.653-4.308 5.604z"/>
    <path d="M42.666 245.144v7.957c0 3.012 1.336 4.289 3.131 4.289 1.994 0 3.271-1.316 3.271-4.289v-7.957h1.755v7.838c0 4.129-2.174 5.824-5.086 5.824-2.752 0-4.826-1.576-4.826-5.744v-7.918h1.755z"/>
    <path d="M56.784 258.585l-4.388-13.441h1.875l2.094 6.621c.579 1.814 1.077 3.451 1.436 5.025h.04c.379-1.555.937-3.25 1.536-5.006l2.273-6.641h1.854l-4.806 13.441h-1.914z"/>
    <path d="M71.919 252.284h-5.225v4.846h5.823v1.455h-7.559v-13.441h7.259v1.455h-5.524v4.248h5.225v1.437z"/>
    <path d="M74.77 245.323c.877-.18 2.134-.279 3.331-.279 1.855 0 3.051.34 3.889 1.098.678.598 1.057 1.516 1.057 2.553 0 1.773-1.117 2.951-2.533 3.43v.061c1.037.357 1.655 1.314 1.975 2.711.438 1.875.758 3.172 1.037 3.689H81.73c-.22-.379-.519-1.535-.897-3.211-.399-1.854-1.117-2.553-2.692-2.611h-1.635v5.822H74.77v-13.263zm1.735 6.123h1.775c1.854 0 3.031-1.018 3.031-2.553 0-1.736-1.256-2.494-3.091-2.514-.837 0-1.436.08-1.715.16v4.907z"/>
    <path d="M85.498 258.585v-13.441h1.895l4.308 6.801c.997 1.576 1.775 2.992 2.413 4.367l.04-.02c-.159-1.795-.199-3.43-.199-5.523v-5.625h1.635v13.441h-1.755l-4.268-6.82c-.937-1.496-1.834-3.031-2.513-4.486l-.06.02c.1 1.695.14 3.311.14 5.543v5.744h-1.636z"/>
    <path d="M105.58 252.284h-5.225v4.846h5.823v1.455h-7.559v-13.441h7.259v1.455h-5.524v4.248h5.225v1.437z"/>
    <path d="M119.758 252.683c-.1-1.875-.22-4.129-.2-5.805h-.06c-.459 1.576-1.017 3.252-1.695 5.105l-2.373 6.521h-1.316l-2.173-6.4c-.639-1.895-1.177-3.631-1.556-5.227h-.04c-.04 1.676-.14 3.93-.259 5.943l-.359 5.764h-1.655l.938-13.441h2.213l2.293 6.502c.559 1.654 1.018 3.131 1.356 4.527h.061c.339-1.357.817-2.832 1.416-4.527l2.393-6.502h2.214l.838 13.441h-1.695l-.341-5.901z"/>
    <path d="M131.422 252.284h-5.225v4.846h5.823v1.455h-7.559v-13.441h7.26v1.455h-5.524v4.248h5.225v1.437z"/>
    <path d="M134.272 258.585v-13.441h1.895l4.308 6.801c.997 1.576 1.775 2.992 2.413 4.367l.04-.02c-.159-1.795-.199-3.43-.199-5.523v-5.625h1.636v13.441h-1.756l-4.268-6.82c-.938-1.496-1.835-3.031-2.513-4.486l-.06.02c.1 1.695.14 3.311.14 5.543v5.744h-1.636z"/>
    <path d="M149.946 246.62h-4.088v-1.477h9.951v1.477h-4.108v11.965h-1.755V246.62z"/>
    <path d="M161.531 245.323c1.057-.16 2.313-.279 3.689-.279 2.493 0 4.268.578 5.444 1.676 1.197 1.096 1.895 2.652 1.895 4.826 0 2.193-.678 3.988-1.935 5.225-1.256 1.256-3.33 1.936-5.942 1.936-1.236 0-2.273-.061-3.151-.16v-13.224zm1.736 11.887c.438.08 1.077.1 1.755.1 3.709 0 5.724-2.074 5.724-5.705.02-3.17-1.775-5.184-5.444-5.184-.897 0-1.576.078-2.034.178v10.611z"/>
    <path d="M181.772 252.284h-5.225v4.846h5.823v1.455h-7.559v-13.441h7.26v1.455h-5.524v4.248h5.225v1.437z"/>
    <path d="M188.851 245.144h1.735v11.986h5.743v1.455h-7.479v-13.441z"/>
    <path d="M200.436 254.358l-1.396 4.227h-1.795l4.566-13.441h2.094l4.587 13.441h-1.854l-1.436-4.227h-4.766zm4.407-1.357l-1.316-3.869c-.299-.877-.498-1.674-.697-2.453h-.04c-.199.799-.419 1.615-.679 2.434l-1.315 3.889h4.047z"/>
  </g>
  <g fill="#9D9EA0">
    <path d="M15.484 293.817v-27.47h7.254l5.706 10.066c1.63 2.895 3.261 6.317 4.483 9.415h.122c-.408-3.627-.53-7.336-.53-11.452v-8.029h5.706v27.47h-6.521l-5.869-10.597c-1.63-2.935-3.423-6.48-4.769-9.7l-.122.041c.163 3.627.245 7.499.245 11.982v8.273h-5.705z"/>
    <path d="M68.755 279.797c0 9.008-5.461 14.469-13.49 14.469-8.151 0-12.92-6.154-12.92-13.979 0-8.232 5.258-14.387 13.368-14.387 8.436-.001 13.042 6.317 13.042 13.897zm-19.848.367c0 5.38 2.527 9.17 6.684 9.17 4.198 0 6.603-3.994 6.603-9.333 0-4.932-2.364-9.17-6.644-9.17-4.198 0-6.643 3.994-6.643 9.333z"/>
    <path d="M79.029 266.348v15.813c0 4.728 1.793 7.132 4.972 7.132 3.261 0 5.054-2.282 5.054-7.132v-15.813h6.195v15.406c0 8.477-4.279 12.512-11.453 12.512-6.929 0-11.004-3.831-11.004-12.594v-15.324h6.236z"/>
    <path d="M107.112 293.817l-8.803-27.47h6.806l3.342 11.615c.938 3.261 1.793 6.399 2.445 9.822h.122c.693-3.301 1.548-6.562 2.487-9.699l3.505-11.738h6.603l-9.252 27.47h-7.255z"/>
    <path d="M142.899 282.202h-10.107v6.521h11.289v5.095h-17.525v-27.47h16.955v5.095h-10.719v5.706h10.107v5.053z"/>
    <path d="M148.321 266.348h6.236v22.253h10.923v5.217h-17.159v-27.47z"/>
    <path d="M169.149 266.348h6.236v22.253h10.923v5.217h-17.159v-27.47z"/>
    <path d="M206.321 282.202h-10.107v6.521h11.289v5.095h-17.525v-27.47h16.955v5.095h-10.719v5.706h10.107v5.053z"/>
  </g>
  <g fill="#9D9EA0">
    <path d="M31.709 327.209c-1.077.538-3.5 1.115-6.652 1.115-8.959 0-13.574-5.576-13.574-12.959 0-8.844 6.306-13.766 14.15-13.766 3.038 0 5.345.615 6.383 1.153l-1.192 4.653c-1.192-.5-2.846-.962-4.922-.962-4.653 0-8.268 2.808-8.268 8.575 0 5.191 3.076 8.46 8.306 8.46 1.769 0 3.73-.385 4.884-.847l.885 4.578z"/>
    <path d="M41.976 321.287l-1.846 6.652h-6.075l7.921-25.917h7.69l8.037 25.917h-6.306l-2-6.652h-7.421zm6.576-4.384l-1.615-5.498c-.461-1.538-.923-3.461-1.308-4.999h-.077c-.384 1.538-.769 3.499-1.192 4.999l-1.538 5.498h5.73z"/>
    <path d="M61.164 302.022h5.883v20.995h10.305v4.922H61.164v-25.917z"/>
    <path d="M96.233 316.98h-9.536v6.152h10.651v4.807H80.813v-25.917H96.81v4.807H86.697v5.384h9.536v4.767zm-.692-21.071l-4.729 4.729h-4.653l3.23-4.729h6.152z"/>
    <path d="M101.348 302.369c2.153-.347 4.96-.539 7.921-.539 4.921 0 8.114.885 10.613 2.769 2.691 2 4.384 5.191 4.384 9.768 0 4.96-1.808 8.382-4.307 10.497-2.73 2.269-6.884 3.346-11.959 3.346-3.038 0-5.191-.192-6.652-.385v-25.456zm5.883 21.149c.5.115 1.308.115 2.038.115 5.306.038 8.767-2.884 8.767-9.075.038-5.383-3.114-8.229-8.152-8.229-1.307 0-2.153.115-2.653.23v16.959z"/>
    <path d="M151.836 314.712c0 8.498-5.152 13.65-12.728 13.65-7.69 0-12.189-5.807-12.189-13.189 0-7.767 4.961-13.573 12.612-13.573 7.96 0 12.305 5.96 12.305 13.112zm-18.726.346c0 5.076 2.384 8.652 6.306 8.652 3.961 0 6.229-3.769 6.229-8.806 0-4.653-2.23-8.651-6.268-8.651-3.96 0-6.267 3.768-6.267 8.805z"/>
    <path d="M155.683 327.939v-25.917h6.844l5.384 9.498c1.538 2.73 3.076 5.96 4.229 8.883h.115c-.384-3.423-.5-6.922-.5-10.806v-7.575h5.384v25.917h-6.152l-5.537-9.997c-1.538-2.77-3.229-6.114-4.499-9.152l-.115.039c.154 3.422.23 7.075.23 11.305v7.806h-5.383z"/>
    <path d="M188.098 302.022v25.917h-5.883v-25.917h5.883z"/>
    <path d="M208.593 316.98h-9.536v6.152h10.651v4.807h-16.534v-25.917h15.996v4.807h-10.113v5.384h9.536v4.767z"/>
  </g>
</svg>
