<svg xmlns="http://www.w3.org/2000/svg" xmlns:xlink="http://www.w3.org/1999/xlink" viewBox="0 0 226.31944 149.91862" id="svg2" version="1.0">
  <defs id="defs4">
    <linearGradient id="linearGradient5446">
      <stop id="stop5442" offset="0" stop-color="#fff" stop-opacity="0"/>
      <stop id="stop5444" offset="1" stop-color="#000" stop-opacity=".17412935"/>
    </linearGradient>
    <linearGradient id="linearGradient5367">
      <stop offset="0" id="stop5363" stop-color="#00a200" stop-opacity="1"/>
      <stop offset="1" id="stop5365" stop-color="#005200" stop-opacity="1"/>
    </linearGradient>
    <linearGradient id="linearGradient5343">
      <stop offset="0" id="stop5339" stop-color="#fff" stop-opacity="1"/>
      <stop offset="1" id="stop5341" stop-color="#e1e1e1" stop-opacity="1"/>
    </linearGradient>
    <linearGradient id="linearGradient5335">
      <stop offset="0" id="stop5331" stop-color="#fa8226" stop-opacity="1"/>
      <stop offset="1" id="stop5333" stop-color="#df6305" stop-opacity="1"/>
    </linearGradient>
    <linearGradient xlink:href="#linearGradient5335" id="linearGradient5337" x1="371.37543" y1="240.57301" x2="356.10104" y2="264.31128" gradientUnits="userSpaceOnUse"/>
    <linearGradient xlink:href="#linearGradient5343" id="linearGradient5345" x1="384.14175" y1="251.9207" x2="369.00949" y2="275.49274" gradientUnits="userSpaceOnUse"/>
    <linearGradient xlink:href="#linearGradient5335" id="linearGradient5353" x1="347.91687" y1="257.23868" x2="334.78983" y2="283.45239" gradientUnits="userSpaceOnUse"/>
    <linearGradient xlink:href="#linearGradient5343" id="linearGradient5361" x1="365.61746" y1="272.57111" x2="349.02362" y2="308.76358" gradientUnits="userSpaceOnUse"/>
    <linearGradient xlink:href="#linearGradient5367" id="linearGradient5369" x1="373.96802" y1="279.78784" x2="356.70111" y2="315.42233" gradientUnits="userSpaceOnUse"/>
    <linearGradient xlink:href="#linearGradient5343" id="linearGradient5377" x1="389.49576" y1="289.85461" x2="375.27924" y2="316.67676" gradientUnits="userSpaceOnUse"/>
    <linearGradient xlink:href="#linearGradient5335" id="linearGradient5385" x1="351.72681" y1="318.71674" x2="382.71542" y2="317.49747" gradientUnits="userSpaceOnUse" spreadMethod="reflect"/>
    <linearGradient xlink:href="#linearGradient5343" id="linearGradient5393" x1="343.78104" y1="335.28204" x2="379.20496" y2="348.16241" gradientUnits="userSpaceOnUse" spreadMethod="reflect"/>
    <linearGradient xlink:href="#linearGradient5367" id="linearGradient5401" x1="365.02423" y1="349.62003" x2="393.41095" y2="327.51086" gradientUnits="userSpaceOnUse"/>
    <linearGradient xlink:href="#linearGradient5335" id="linearGradient5409" x1="340.17987" y1="336.34018" x2="334.63376" y2="330.41281" gradientUnits="userSpaceOnUse"/>
    <linearGradient xlink:href="#linearGradient5335" id="linearGradient5412" gradientUnits="userSpaceOnUse" x1="351.72681" y1="318.71674" x2="382.71542" y2="317.49747"/>
    <linearGradient xlink:href="#linearGradient5343" id="linearGradient5420" x1="311.20618" y1="337.70096" x2="328.50327" y2="346.74393" gradientUnits="userSpaceOnUse"/>
    <linearGradient xlink:href="#linearGradient5343" id="linearGradient5428" x1="338.25305" y1="350.56244" x2="325.28595" y2="352.51086" gradientUnits="userSpaceOnUse"/>
    <linearGradient xlink:href="#linearGradient5446" id="linearGradient5436" x1="342.27362" y1="362.61578" x2="381.2634" y2="359.5264" gradientUnits="userSpaceOnUse" spreadMethod="reflect"/>
    <linearGradient xlink:href="#linearGradient5335" id="linearGradient5454" x1="392.91095" y1="341.28683" x2="404.62524" y2="341.28683" gradientUnits="userSpaceOnUse"/>
    <linearGradient xlink:href="#linearGradient5335" id="linearGradient5462" x1="392.81448" y1="357.7142" x2="403.90704" y2="354.73029" gradientUnits="userSpaceOnUse"/>
    <linearGradient xlink:href="#linearGradient5343" id="linearGradient5470" x1="392.81448" y1="357.7142" x2="403.90704" y2="354.73029" gradientUnits="userSpaceOnUse"/>
    <linearGradient xlink:href="#linearGradient5343" id="linearGradient5478" x1="413.34241" y1="356.9588" x2="396.34384" y2="362.39578" gradientUnits="userSpaceOnUse"/>
    <linearGradient xlink:href="#linearGradient5367" id="linearGradient5486" x1="413.34241" y1="356.9588" x2="396.34384" y2="362.39578" gradientUnits="userSpaceOnUse"/>
    <linearGradient xlink:href="#linearGradient5367" id="linearGradient5494" x1="396.20499" y1="367.70816" x2="413.84241" y2="363.28827" gradientUnits="userSpaceOnUse"/>
    <linearGradient xlink:href="#linearGradient5343" id="linearGradient5632" gradientUnits="userSpaceOnUse" x1="338.25305" y1="350.56244" x2="325.28595" y2="352.51086" gradientTransform="matrix(-1 0 0 1 839.67904 0)"/>
    <linearGradient xlink:href="#linearGradient5367" id="linearGradient5636" gradientUnits="userSpaceOnUse" x1="396.20499" y1="367.70816" x2="413.84241" y2="363.28827" gradientTransform="matrix(-1 0 0 1 839.67904 0)"/>
    <linearGradient xlink:href="#linearGradient5367" id="linearGradient5638" gradientUnits="userSpaceOnUse" x1="413.34241" y1="356.9588" x2="396.34384" y2="362.39578" gradientTransform="matrix(-1 0 0 1 839.67904 0)"/>
    <linearGradient xlink:href="#linearGradient5343" id="linearGradient5640" gradientUnits="userSpaceOnUse" x1="413.34241" y1="356.9588" x2="396.34384" y2="362.39578" gradientTransform="matrix(-1 0 0 1 839.67904 0)"/>
    <linearGradient xlink:href="#linearGradient5343" id="linearGradient5642" gradientUnits="userSpaceOnUse" x1="392.81448" y1="357.7142" x2="403.90704" y2="354.73029" gradientTransform="matrix(-1 0 0 1 839.67904 0)"/>
    <linearGradient xlink:href="#linearGradient5335" id="linearGradient5644" gradientUnits="userSpaceOnUse" x1="392.81448" y1="357.7142" x2="403.90704" y2="354.73029" gradientTransform="matrix(-1 0 0 1 839.67904 0)"/>
    <linearGradient xlink:href="#linearGradient5335" id="linearGradient5646" gradientUnits="userSpaceOnUse" x1="392.91095" y1="341.28683" x2="404.62524" y2="341.28683" gradientTransform="matrix(-1 0 0 1 839.67904 0)"/>
    <linearGradient xlink:href="#linearGradient5367" id="linearGradient5648" gradientUnits="userSpaceOnUse" x1="365.02423" y1="349.62003" x2="393.41095" y2="327.51086" gradientTransform="matrix(-1 0 0 1 839.67904 0)"/>
    <linearGradient xlink:href="#linearGradient5343" id="linearGradient5650" gradientUnits="userSpaceOnUse" x1="343.78104" y1="335.28204" x2="379.20496" y2="348.16241" spreadMethod="reflect" gradientTransform="matrix(-1 0 0 1 839.67904 0)"/>
    <linearGradient xlink:href="#linearGradient5335" id="linearGradient5652" gradientUnits="userSpaceOnUse" x1="351.72681" y1="318.71674" x2="382.71542" y2="317.49747" spreadMethod="reflect" gradientTransform="matrix(-1 0 0 1 839.67904 0)"/>
    <linearGradient xlink:href="#linearGradient5335" id="linearGradient5654" gradientUnits="userSpaceOnUse" x1="371.37543" y1="240.57301" x2="356.10104" y2="264.31128" gradientTransform="matrix(-1 0 0 1 839.67904 0)"/>
    <linearGradient xlink:href="#linearGradient5343" id="linearGradient5656" gradientUnits="userSpaceOnUse" x1="384.14175" y1="251.9207" x2="369.00949" y2="275.49274" gradientTransform="matrix(-1 0 0 1 839.67904 0)"/>
    <linearGradient xlink:href="#linearGradient5335" id="linearGradient5658" gradientUnits="userSpaceOnUse" x1="347.91687" y1="257.23868" x2="334.78983" y2="283.45239" gradientTransform="matrix(-1 0 0 1 839.67904 0)"/>
    <linearGradient xlink:href="#linearGradient5343" id="linearGradient5660" gradientUnits="userSpaceOnUse" x1="365.61746" y1="272.57111" x2="349.02362" y2="308.76358" gradientTransform="matrix(-1 0 0 1 839.67904 0)"/>
    <linearGradient xlink:href="#linearGradient5367" id="linearGradient5662" gradientUnits="userSpaceOnUse" x1="373.96802" y1="279.78784" x2="356.70111" y2="315.42233" gradientTransform="matrix(-1 0 0 1 839.67904 0)"/>
    <linearGradient xlink:href="#linearGradient5343" id="linearGradient5664" gradientUnits="userSpaceOnUse" x1="389.49576" y1="289.85461" x2="375.27924" y2="316.67676" gradientTransform="matrix(-1 0 0 1 839.67904 0)"/>
    <linearGradient xlink:href="#linearGradient5335" id="linearGradient5666" gradientUnits="userSpaceOnUse" x1="351.72681" y1="318.71674" x2="382.71542" y2="317.49747" gradientTransform="matrix(-1 0 0 1 839.67904 0)"/>
    <linearGradient xlink:href="#linearGradient5343" id="linearGradient5672" gradientUnits="userSpaceOnUse" x1="311.20618" y1="337.70096" x2="328.50327" y2="346.74393" gradientTransform="matrix(-1 0 0 1 839.67904 -.0000028)"/>
  </defs>
  <g id="layer1" transform="translate(-306.6798 -221.52023)" stroke-width="1" stroke-linecap="butt" stroke-opacity="1">
    <path d="M515.79827 349.66251c0-2.46224-8.08122-3.09359-8.08122-5.05076 0-3.61874 13.72961-6.65445 17.47961-11.02945l-3.21428 8.83928h9.82143c-6.42858 6.51786-17.41072 10.08929-17.41072 10.08929z" id="path5670" fill="url(#linearGradient5672)" fill-opacity="1" fill-rule="evenodd" stroke="#666" stroke-linejoin="miter"/>
    <path id="path3432-1" d="M323.88077 349.66251c0-2.46224 8.08122-3.09359 8.08122-5.05076 0-3.61874-13.72961-6.65445-17.47961-11.02945l3.21428 8.83928h-9.82143c6.42858 6.51786 17.41072 10.08929 17.41072 10.08929z" fill="url(#linearGradient5420)" fill-opacity="1" fill-rule="evenodd" stroke="#666" stroke-linejoin="miter"/>
    <path d="M323.88077 360.64792v-10.98541c0-2.46224 8.08122-3.09359 8.08122-5.05076v14.45781z" id="path3430-3" fill="url(#linearGradient5428)" fill-opacity="1" fill-rule="evenodd" stroke="#666" stroke-linejoin="miter"/>
    <path id="path5506" d="M515.79827 360.64792v-10.98541c0-2.46224-8.08122-3.09359-8.08122-5.05076v14.45781z" fill="url(#linearGradient5632)" fill-opacity="1" fill-rule="evenodd" stroke="#666" stroke-linejoin="miter"/>
    <path d="M419.83952 364.68854c9.33817 0 18.03572-2.70378 34.19643-2.70378 16.16071 0 27.05357 5.70795 41.16071 5.70795 14.10715 0 20.60161-3.88806 20.60161-7.04479v-10.98541c0 3.15673-6.49446 7.93765-20.60161 7.93765-14.10714 0-25-6.33929-41.16071-6.33929-16.16072 0-24.85826 3.45241-34.19643 3.45241-9.33817 0-18.03571-3.45241-34.19643-3.45241-16.16071 0-27.05357 6.33929-41.16071 6.33929-14.10715 0-20.60161-4.78092-20.60161-7.93765v10.98541c0 3.15673 6.49446 7.04479 20.60161 7.04479 14.10714 0 25-5.70795 41.16071-5.70795s24.85826 2.70378 34.19643 2.70378z" id="path5440" fill="#fff" fill-opacity="1" fill-rule="evenodd" stroke="none" stroke-linejoin="miter"/>
    <path d="M328.07167 362.30805v-5.82936l2.13925 1.22514c.45474.202.81542.37081 1.05873.56417.2433.19338.44057.44043.58909.74945.1485.30902.22275.62391.22276.94467-.00001.41354-.12295.72577-.36884.93668-.24589.21091-.61595.24937-1.11925.14284.18367.16502.32321.31263.41862.44283.20275.28065.39143.61917.57647.98406l.93122 1.86203-.89105-.26358-.69535-1.46202c-.20275-.42381-.37207-.7466-.49967-.98885-.12761-.24225-.24187-.4229-.3428-.54196-.10092-.11906-.20359-.21635-.30798-.29189-.0766-.0526-.20148-.11828-.36954-.20774l-.74533-.42131v2.58862l-.59633-.43378m.59633-2.82287l1.4072.73107c.30857.13707.55399.19757.73289.18986.17889-.008.31485-.0748.40789-.20128.093-.12648.13954-.28383.13954-.47205 0-.27569-.09-.53516-.27013-.77839-.1801-.24324-.46845-.42603-.84663-.59402l-1.57076-.80373v1.92854m6.11609 5.37896v-5.82936l3.99385.57448v.68791l-3.26755-.43889v1.78539l3.05907.41858v.68394l-3.05907-.41858v1.98421l3.39644.45145v.68791l-4.12274-.58704m6.75157.77509v-5.82936l2.10502.0596c.37063.007.65374.0389.84916.0709.2741.0404.50379.12509.68907.25403.18528.12893.33439.31252.44733.55073.11294.23823.16941.50182.16942.79077-.00001.49572-.15102.91925-.45304 1.27059-.30203.35134-.8477.53829-1.63721.52367l-1.43179-.0265v2.36992l-.73796-.0343m.73796-3.02355l1.44321.0267c.47726.009.81615-.0802 1.01667-.27107.2005-.1909.30075-.45468.30075-.79135 0-.24388-.059-.45107-.17703-.62157-.11802-.17048-.27345-.27622-.46638-.33547-.12439-.0368-.35414-.0582-.68924-.0644l-1.42798-.0264v2.08362m9.71333-3.31524l.73006-.11384v3.36799c-.00001.58585-.0627 1.06087-.18816 1.42504-.12545.36418-.35187.67982-.67926.94692-.32741.26711-.75962.42321-1.29409.48719-.51933.0622-.94413.0189-1.27438-.12976-.33027-.14867-.5683-.41661-.71007-.76234-.14177-.34572-.21265-.82742-.21265-1.44508v-3.36799l.7367-.0562v3.36401c0 .50633.0449.87601.13481 1.10906.0899.23305.24344.39728.46151.50106.21806.1038.48467.13683.7998.0991.5395-.0646.92497-.23181 1.15328-.52455.22829-.29273.34245-.80492.34245-1.53658v-3.36401m3.4978 5.22548v-5.82936l2.05617-.39993c.41871-.0814.75455-.0878 1.00753-.019.25297.0688.44962.2045.59227.41857.14264.21408.21397.45499.21397.72273 0 .24919-.0633.4976-.18978.74524-.12652.24765-.31676.47082-.57347.65595.33148.0389.58401.15426.76139.36473.17737.21048.26606.48537.26606.82468 0 .27305-.054.53865-.16187.79681-.10792.25816-.24126.46819-.40003.63008-.15877.1619-.35776.30193-.59827.41366-.2405.11173-.53522.20152-.88415.26939l-2.08982.40647m.72526-3.52099l1.18511-.2305c.32151-.0625.55205-.1299.69162-.20211.18444-.0942.32339-.21798.41685-.37136.0935-.15337.14019-.33211.14019-.53624 0-.19351-.0436-.35535-.13085-.48552-.0872-.13015-.21185-.20665-.37385-.22949-.162-.0228-.4399.004-.83368.0806l-1.09539.21305v1.76153m0 2.69201l1.36456-.2654c.23427-.0456.39877-.0868.49348-.12382.16699-.0643.30656-.14445.41872-.2405.11214-.096.2043-.2223.27625-.37982.0719-.15753.10791-.32907.10791-.51464 0-.21737-.0521-.39488-.15628-.53252-.10421-.13764-.24969-.2236-.43537-.25244-.18569-.0288-.45299-.009-.80192.0586l-1.26735.2465v2.00409m5.95097-.5523v-5.82936l.72191-.15757v5.14145l2.69031-.56937v.68791l-3.41222.72694m5.97362-1.2641v-5.82936l.72484-.14313v5.82936l-.72484.14313m7.77197-1.89334c.33986.20193.65322.34043.94132.42635l-.21607.55786c-.39929-.1122-.79448-.2872-1.18973-.56139-.41036.29511-.86351.4752-1.35946.54029-.50098.0658-.9526.0174-1.35872-.17177-.40612-.18916-.71885-.49673-.9382-.9227-.21936-.42598-.32904-.92791-.32904-1.50581 0-.57525.1103-1.11655.33091-1.6239.22061-.50735.5346-.91706.94198-1.22913.40737-.31206.86215-.5144 1.36818-.58083.51105-.0671.97176.00036 1.38211.2023.41036.20196.72315.51877.9384.95045.21525.43169.3235.94192.3235 1.51981 0 .47982-.0699.91491-.20832 1.31613-.13846.40124-.34742.76202-.62686 1.08234m-1.61247-.77448c.42294.0691.77162.20887 1.04603.41938.43049-.47004.64574-1.11994.64575-1.94968-.00001-.47186-.0762-.87407-.22847-1.20666-.15232-.33257-.37512-.57703-.6684-.73338-.2933-.15635-.62246-.21056-.9875-.16265-.5463.0717-.99655.34797-1.35503.7993-.35849.45132-.53773 1.068-.53773 1.85002 0 .75816.17736 1.31151.53208 1.66003.35473.34853.80683.47138 1.36068.39868.26182-.0344.50854-.11844.74015-.25223-.22909-.12634-.47078-.20595-.72504-.23885l.17748-.58396m8.69101-4.99246l.7387-.0151v3.36799c0 .58585-.0635 1.05239-.19038 1.39959-.12694.34721-.35603.63223-.6873.85504-.33128.22281-.76535.35589-1.30266.38824-.5221.0314-.94916-.037-1.28117-.20518-.33202-.16822-.56899-.42634-.71092-.77435-.14193-.34799-.2125-.82585-.2125-1.44351v-3.36799l.73714-.0494v3.36401c0 .50633.045.87674.13496 1.11123.09.23449.24457.41008.46381.52677.21922.1167.48725.16552.80405.14644.54238-.0326.92876-.18768 1.15977-.44954.231-.26185.34649-.7586.3465-1.49026v-3.36401m3.59513 5.79149v-5.82936l4.03655.0691v.68791l-3.29779-.0565v1.78539l3.08835.0529v.68394l-3.08835-.0529v1.98421l3.42726.0587v.68791l-4.16602-.0714" id="path7978-6" font-style="normal" font-weight="400" font-size="8.14361858" font-family="Bitstream Vera Sans" fill="#666" fill-opacity="1" stroke="none" stroke-linejoin="miter"/>
    <path id="path0693-6" d="M448.93278 360.25808v-5.82937l2.33658-.04c.52746-.009.93.0119 1.20762.0628.38865.0702.72024.20371.99478.40048.3578.25366.62539.58307.80274.99095.17734.40789.26601.87162.26602 1.3912-.00001.4427-.0601.83381-.18043 1.17332-.12029.33951-.27451.61782-.46267.84505-.18816.22722-.39406.40704-.61768.53944-.22364.1324-.49354.23444-.80971.30613-.31617.0717-.67938.11105-1.08962.11807l-2.44763.0419m.89762-.70329l1.44821-.0248c.44726-.008.79814-.0495 1.05262-.12539.25448-.0759.45729-.18015.60843-.31264.21283-.18655.37863-.43526.49739-.74614.11875-.31086.17813-.68632.17813-1.12637 0-.60971-.11644-1.07626-.34932-1.39966-.23289-.3234-.5159-.53792-.84904-.64355-.24059-.0754-.62771-.10854-1.16135-.0994l-1.42507.0244v4.45354m12.34009-4.77651l.89351.087v3.36799c0 .58586-.0768 1.04362-.23029 1.37328-.15353.32966-.43064.583-.83133.76001-.40071.17701-.92653.23381-1.57747.17039-.63253-.0616-1.15261-.17166-1.55602-.38416-.4034-.21251-.69133-.50222-.86377-.86916-.17245-.36692-.25868-.85922-.25868-1.47689v-3.36799l.89612.0539v3.36402c0 .50633.0546.88273.16397 1.12922.10933.2465.29717.44271.56354.58863.26637.14594.59272.2215.97654.25889.65708.064 1.12533-.0189 1.40476-.24885.27941-.22992.41911-.71071.41912-1.44236v-3.36402m13.30476 8.10157v-5.82937l.90098.19054 3.48142 5.33666v-4.57681l.84096.18355v5.82937l-.89974-.19638-3.48142-5.34063v4.58078l-.8422-.17771m8.77471 1.83186v-5.82937l.88122.1714v5.82937l-.88122-.1714m7.52712-1.25038v-.68394l2.86995.12278v2.16315c-.44099.29047-.89584.50566-1.36456.64561-.46874.13994-.94865.18072-1.4408.14315-.66441-.0507-1.26874-.21247-1.80939-.5224-.54064-.30993-.9488-.71335-1.22448-1.21026-.27569-.49691-.41352-1.03167-.41352-1.60427 0-.56729.13707-1.0804.41123-1.53933.27414-.45893.66852-.77687 1.18312-.95386.51461-.17698 1.11019-.25477 1.78383-.20335.48907.0373.93102.14362 1.32729.29069.39626.14709.70695.34556.93207.59544.2251.24988.39626.57255.51344.968l-.80948.1693c-.10177-.2996-.2282-.53625-.3793-.70994-.15111-.17367-.36747-.30539-.64738-.42883-.27992-.12342-.59059-.19816-.93202-.22423-.40912-.0312-.76285-.005-1.06122.08-.29837.0846-.53808.19729-.72033.35043-.18226.15316-.32393.32839-.42502.52571-.17153.33998-.25729.72073-.25729 1.14223 0 .51958.10337.9667.31013 1.34137.20677.37467.50654.68258.90334.88253.3968.19995.81821.31695 1.26423.35099.38756.0296.76532.006 1.13538-.11298.37004-.11871.65066-.24842.84186-.38912v-1.08555l-1.99108-.10336m6.15956 2.36465v-5.82937l4.88302-.44049v.68792l-3.98673.38939v1.78539l3.7347-.35401v.68394l-3.7347.35401v1.98421l4.14254-.41126v.68791l-5.03883.46236m8.19816-1.0578v-5.82937l2.87554-.8719c.56804-.20698.98112-.35983 1.25886-.40296.27772-.0431.50029.0248.65874.18846.15843.16365.23765.40586.23766.7266-.00001.41356-.11905.86681-.39405 1.29682-.275.43003-.7003.83528-1.2951 1.17638.21706.002.38197.0252.49474.0705.2396.10035.45456.23348.6615.43349l.97468.92681-.92975.63585-.79946-.80564c-.23961-.24348-.43695-.42356-.59198-.54026-.15505-.11669-.29975-.19945-.42582-.22773-.12607-.0283-.25432-.0332-.38474-.0149-.0956.0163-.24981.0711-.47166.1367l-.99836.29531v2.58862l-.8708.21719m.8708-3.47384l1.8352-.59293c.38545-.14046.67793-.30884.88937-.47566.21141-.16681.37156-.35591.47776-.57281.10618-.2169.15928-.41946.15928-.60768 0-.27569-.0965-.43478-.30934-.51786-.21283-.0831-.54034-.001-1.01275.17102l-2.03952.66738v1.92854" font-style="normal" font-weight="400" font-size="8.14361858" font-family="Bitstream Vera Sans" fill="#666" fill-opacity="1" stroke="none" stroke-linejoin="miter"/>
    <path id="path3423-2" d="M419.83952 364.68854c9.33817 0 18.03572-2.70378 34.19643-2.70378 16.16071 0 27.05357 5.70795 41.16071 5.70795 14.10715 0 20.60161-3.88806 20.60161-7.04479v-10.98541c0 3.15673-6.49446 7.93765-20.60161 7.93765-14.10714 0-25-6.33929-41.16071-6.33929-16.16072 0-24.85826 3.45241-34.19643 3.45241-9.33817 0-18.03571-3.45241-34.19643-3.45241-16.16071 0-27.05357 6.33929-41.16071 6.33929-14.10715 0-20.60161-4.78092-20.60161-7.93765v10.98541c0 3.15673 6.49446 7.04479 20.60161 7.04479 14.10714 0 25-5.70795 41.16071-5.70795s24.85826 2.70378 34.19643 2.70378z" fill="url(#linearGradient5436)" fill-opacity="1" fill-rule="evenodd" stroke="none" stroke-linejoin="miter"/>
    <path d="M419.83952 364.68854c9.33817 0 18.03572-2.70378 34.19643-2.70378 16.16071 0 27.05357 5.70795 41.16071 5.70795 14.10715 0 20.60161-3.88806 20.60161-7.04479v-10.98541c0 3.15673-6.49446 7.93765-20.60161 7.93765-14.10714 0-25-6.33929-41.16071-6.33929-16.16072 0-24.85826 3.45241-34.19643 3.45241-9.33817 0-18.03571-3.45241-34.19643-3.45241-16.16071 0-27.05357 6.33929-41.16071 6.33929-14.10715 0-20.60161-4.78092-20.60161-7.93765v10.98541c0 3.15673 6.49446 7.04479 20.60161 7.04479 14.10714 0 25-5.70795 41.16071-5.70795s24.85826 2.70378 34.19643 2.70378z" id="path5438" fill="none" fill-opacity="1" fill-rule="evenodd" stroke="#666" stroke-linejoin="miter"/>
    <path d="M428.60948 355.72343s-2.27284-1.76777-2.27284 10.66974v0c0 3.15672 3.53553 4.54568 13.13198 4.54568v-9.15451z" id="path4875" fill="#007900" fill-opacity="1" fill-rule="evenodd" stroke="#998c1d" stroke-linejoin="miter"/>
    <path d="M437.78595 350.23408c-.0386 3.04885 7.41071 8.4375 7.41071 12.09822 0 5.89177-11.34701 1.21981-14.56687 1.21981-3.21987 0-4.29315 1.01015-4.29315 2.84106v-23.48605l10.82431-4.68196z" id="path4877" fill="#007900" fill-opacity="1" fill-rule="evenodd" stroke="none" stroke-linejoin="miter"/>
    <path d="M437.92607 349.97116c-.0386 3.04885 7.27059 8.70042 7.27059 12.36114 0 5.89177-11.34701 1.21981-14.56687 1.21981v-22.47359l6.53116-2.85336z" id="path4879" fill="#fefffc" fill-opacity="1" fill-rule="evenodd" stroke="none" stroke-linejoin="miter"/>
    <path id="path4881" d="M437.78595 350.23408c-.0386 3.04885 7.41071 8.4375 7.41071 12.09822 0 5.89177-11.34701 1.21981-14.56687 1.21981-3.21987 0-4.29315 1.01015-4.29315 2.84106v-23.48605l10.82431-4.68196z" fill="none" fill-opacity="1" fill-rule="evenodd" stroke="#998c1d" stroke-linejoin="miter"/>
    <path id="path4885" d="M435.55381 356.17158c-.0386 3.04885 9.64285 2.5 9.64285 6.16072v-15.26786c-9.17146-.9844-9.51493-1.00065-9.64285 9.10714z" fill="#fefffc" fill-opacity="1" fill-rule="evenodd" stroke="none" stroke-linejoin="miter"/>
    <path id="path4887" d="M435.55381 356.17158c-.0181 1.43409 2.11423 2.07219 4.37807 2.7268v-11.83394s-4.25015-1.00065-4.37807 9.10714z" fill="#f36b05" fill-opacity="1" fill-rule="evenodd" stroke="none" stroke-linejoin="miter"/>
    <path d="M435.55381 356.17158c-.0386 3.04885 9.64285 2.5 9.64285 6.16072v-15.26786c-9.17146-.9844-9.51493-1.00065-9.64285 9.10714z" id="path4889" fill="none" fill-opacity="1" fill-rule="evenodd" stroke="#998c1d" stroke-linejoin="miter"/>
    <path id="path4893" d="M446.26809 327.51087v24.73214c-2.84913-1.64494-10.71428-1.42857-10.71428 3.92857v-19.19642z" fill="#f36b05" fill-opacity="1" fill-rule="evenodd" stroke="#998c1d" stroke-linejoin="miter"/>
    <path id="path4831-3" d="M411.06956 355.72343s2.27284-1.76777 2.27284 10.66974v0c0 3.15672-3.53553 4.54568-13.13198 4.54568v-9.15451z" fill="url(#linearGradient5494)" fill-opacity="1" fill-rule="evenodd" stroke="#998c1d" stroke-linejoin="miter"/>
    <path id="path4813-8" d="M401.89309 350.23408c.0386 3.04885-7.41071 8.4375-7.41071 12.09822 0 5.89177 11.34701 1.21981 14.56687 1.21981 3.21987 0 4.29315 1.01015 4.29315 2.84106v-23.48605l-10.82431-4.68196z" fill="url(#linearGradient5486)" fill-opacity="1" fill-rule="evenodd" stroke="none" stroke-linejoin="miter"/>
    <path id="path4811-3" d="M401.75297 349.97116c.0386 3.04885-7.27059 8.70042-7.27059 12.36114 0 5.89177 11.34701 1.21981 14.56687 1.21981v-22.47359l-6.53116-2.85336z" fill="url(#linearGradient5478)" fill-opacity="1" fill-rule="evenodd" stroke="none" stroke-linejoin="miter"/>
    <path d="M401.89309 350.23408c.0386 3.04885-7.41071 8.4375-7.41071 12.09822 0 5.89177 11.34701 1.21981 14.56687 1.21981 3.21987 0 4.29315 1.01015 4.29315 2.84106v-23.48605l-10.82431-4.68196z" id="path4809-2" fill="none" fill-opacity="1" fill-rule="evenodd" stroke="#998c1d" stroke-linejoin="miter"/>
    <path d="M404.12523 356.17158c.0386 3.04885-9.64285 2.5-9.64285 6.16072v-15.26786c9.17146-.9844 9.51493-1.00065 9.64285 9.10714z" id="path4799-5" fill="url(#linearGradient5470)" fill-opacity="1" fill-rule="evenodd" stroke="none" stroke-linejoin="miter"/>
    <path d="M404.12523 356.17158c.0181 1.43409-2.11423 2.07219-4.37807 2.7268v-11.83394s4.25015-1.00065 4.37807 9.10714z" id="path4797-7" fill="url(#linearGradient5462)" fill-opacity="1" fill-rule="evenodd" stroke="none" stroke-linejoin="miter"/>
    <path id="path4795-3" d="M404.12523 356.17158c.0386 3.04885-9.64285 2.5-9.64285 6.16072v-15.26786c9.17146-.9844 9.51493-1.00065 9.64285 9.10714z" fill="none" fill-opacity="1" fill-rule="evenodd" stroke="#998c1d" stroke-linejoin="miter"/>
    <path d="M393.41095 327.51087v24.73214c2.84913-1.64494 10.71428-1.42857 10.71428 3.92857v-19.19642z" id="path4793-7" fill="url(#linearGradient5454)" fill-opacity="1" fill-rule="evenodd" stroke="#998c1d" stroke-linejoin="miter"/>
    <path id="path3318-1" d="M379.48238 284.56444l-49.9195-43.24079c-20.67751 105.73317 23.41536 108.38591 39.57977 108.38591 13.37709 0 23.1939-6.6706 25.8276-23.15428 1.26078-7.89087-15.66644-41.99084-15.48787-41.99084z" fill="url(#linearGradient5401)" fill-opacity="1" fill-rule="evenodd" stroke="none" stroke-linejoin="miter"/>
    <path d="M379.48238 284.56444l-49.9195-43.24079c-18.85844 92.5379 13.13001 105.93975 29.29442 105.93975 9.09137 0 28.41054-10.85914 32.82996-30.55711 1.74935-7.79712-12.38345-32.14185-12.20488-32.14185z" id="path3311" fill="url(#linearGradient5393)" fill-opacity="1" fill-rule="evenodd" stroke="none" stroke-linejoin="miter"/>
    <path id="path3309" d="M379.61142 284.69281l-49.9195-43.24079c-16.35639 80.2604 13.13001 93.56538 29.29442 93.56538 9.09137 0 22.09709-5.55584 29.54696-21.46574 3.38869-7.23685-9.10045-28.85885-8.92188-28.85885z" fill="url(#linearGradient5385)" fill-opacity="1" fill-rule="evenodd" stroke="none" stroke-linejoin="miter"/>
    <path d="M389.66095 256.7073l-24.28572-21.42857-16.60714 27.67857 30.71429 24.64286z" id="path3275-9" fill="url(#linearGradient5337)" fill-opacity="1" fill-rule="evenodd" stroke="none" stroke-linejoin="miter"/>
    <path id="path3277-8" d="M389.66095 256.7073l-12.105-10.49822-15.66703 27.27539 17.59346 14.11569z" fill="url(#linearGradient5345)" fill-opacity="1" fill-rule="evenodd" stroke="none" stroke-linejoin="miter"/>
    <path id="path3279-9" d="M389.66095 256.7073l-24.28572-21.42857-16.60714 27.67857 30.71429 24.64286z" fill="none" fill-opacity="1" fill-rule="evenodd" stroke="#998c1d" stroke-linejoin="miter"/>
    <path id="path3294-9" d="M379.48238 284.56444l-49.9195-43.24079c-5.42957 26.64278 13.88959 77.27667 37.37564 77.27667 9.09137 0 13.00571-4.92449 17.17259-11.74302 4.16688-6.81853-4.8073-22.29286-4.62873-22.29286z" fill="url(#linearGradient5353)" fill-opacity="1" fill-rule="evenodd" stroke="none" stroke-linejoin="miter"/>
    <path id="path3288-4" d="M379.48238 284.56444l-31.55971-27.33734-13.1322 26.2271c6.89056 18.91688 18.85152 35.14612 32.14805 35.14612 9.09137 0 13.00571-4.92449 17.17259-11.74302 4.16688-6.81853-4.8073-22.29286-4.62873-22.29286z" fill="url(#linearGradient5361)" fill-opacity="1" fill-rule="evenodd" stroke="none" stroke-linejoin="miter"/>
    <path d="M379.48238 284.56444l-13.85947-12.00521-16.5993 36.20437c5.37916 6.04884 11.49118 9.83672 17.91491 9.83672 9.09137 0 13.00571-4.92449 17.17259-11.74302 4.16688-6.81853-4.8073-22.29286-4.62873-22.29286z" id="path3290-0" fill="url(#linearGradient5369)" fill-opacity="1" fill-rule="evenodd" stroke="none" stroke-linejoin="miter"/>
    <path id="path3292-9" d="M368.18356 318.56817c8.2139-.43373 11.95602-5.212 15.92755-11.71087 3.01281-4.93005-.75094-14.38519-3.0669-19.24447l-12.86065 30.95534z" fill="url(#linearGradient5377)" fill-opacity="1" fill-rule="evenodd" stroke="none" stroke-linejoin="miter"/>
    <path d="M379.48238 284.56444l-49.9195-43.24079c-5.42957 26.64278 13.88959 77.27667 37.37564 77.27667 9.09137 0 13.00571-4.92449 17.17259-11.74302 4.16688-6.81853-4.8073-22.29286-4.62873-22.29286z" id="path3286-8" fill="none" fill-rule="evenodd" stroke="#998c1d" stroke-linejoin="miter"/>
    <path d="M335.37077 329.07337c-1.37624 0-2.66079.27479-3.8125.78125 2.90616 5.36494 6.35996 9.1678 10 11.8125 1.44942-1.33848 2.34375-3.13748 2.34375-5.125 0-4.12214-3.81769-7.46875-8.53125-7.46875z" id="path3313" opacity="1" fill="url(#linearGradient5412)" fill-opacity="1" fill-rule="nonzero" stroke="none" stroke-linejoin="round" stroke-miterlimit="4" stroke-dasharray="none" stroke-dashoffset="0"/>
    <path id="path3322-5" d="M329.69192 241.45202l-2.23973-6.48681-12.16184-6.01092 7.66398 11.19399z" fill="#c3bb0d" fill-opacity="1" fill-rule="evenodd" stroke="none" stroke-linejoin="miter" stroke-miterlimit="4" stroke-dasharray="none"/>
    <path d="M329.69192 241.45202l-14.40157-12.49773 7.66398 11.19399z" id="path3335-8" fill="#e9d500" fill-opacity="1" fill-rule="evenodd" stroke="none" stroke-linejoin="miter" stroke-miterlimit="4" stroke-dasharray="none"/>
    <path d="M329.69192 241.45202l-2.23973-6.48681-12.16184-6.01092 7.66398 11.19399z" id="path3337-5" fill="none" fill-opacity="1" fill-rule="evenodd" stroke="#998c1d" stroke-linejoin="miter" stroke-miterlimit="4" stroke-dasharray="none"/>
    <path d="M365.38389 235.31362l-2.23973-6.48681-12.16184-6.01092 7.66398 11.19399z" id="path4967" fill="#c3bb0d" fill-opacity="1" fill-rule="evenodd" stroke="none" stroke-linejoin="miter" stroke-miterlimit="4" stroke-dasharray="none"/>
    <path id="path4969" d="M365.38389 235.31362l-14.40157-12.49773 7.66398 11.19399z" fill="#e9d500" fill-opacity="1" fill-rule="evenodd" stroke="none" stroke-linejoin="miter" stroke-miterlimit="4" stroke-dasharray="none"/>
    <path id="path4971" d="M365.38389 235.31362l-2.23973-6.48681-12.16184-6.01092 7.66398 11.19399z" fill="none" fill-opacity="1" fill-rule="evenodd" stroke="#998c1d" stroke-linejoin="miter" stroke-miterlimit="4" stroke-dasharray="none"/>
    <path d="M379.48238 284.56444l-49.9195-43.24079c-20.67751 105.73317 23.41536 108.38591 39.57977 108.38591 13.37709 0 23.1939-6.6706 25.8276-23.15428 1.26078-7.89087-15.66644-41.99084-15.48787-41.99084z" id="path5327" fill="none" fill-opacity="1" fill-rule="evenodd" stroke="#998c1d" stroke-linejoin="miter"/>
    <path d="M428.60948 355.72343s-2.27284-1.76777-2.27284 10.66974v0c0 3.15672 3.53553 4.54568 13.13198 4.54568v-9.15451z" id="path5564" fill="url(#linearGradient5636)" fill-opacity="1" fill-rule="evenodd" stroke="#998c1d" stroke-linejoin="miter"/>
    <path d="M437.78595 350.23408c-.0386 3.04885 7.41071 8.4375 7.41071 12.09822 0 5.89177-11.34701 1.21981-14.56687 1.21981-3.21987 0-4.29315 1.01015-4.29315 2.84106v-23.48605l10.82431-4.68196z" id="path5566" fill="url(#linearGradient5638)" fill-opacity="1" fill-rule="evenodd" stroke="none" stroke-linejoin="miter"/>
    <path d="M437.92607 349.97116c-.0386 3.04885 7.27059 8.70042 7.27059 12.36114 0 5.89177-11.34701 1.21981-14.56687 1.21981v-22.47359l6.53116-2.85336z" id="path5568" fill="url(#linearGradient5640)" fill-opacity="1" fill-rule="evenodd" stroke="none" stroke-linejoin="miter"/>
    <path id="path5570" d="M437.78595 350.23408c-.0386 3.04885 7.41071 8.4375 7.41071 12.09822 0 5.89177-11.34701 1.21981-14.56687 1.21981-3.21987 0-4.29315 1.01015-4.29315 2.84106v-23.48605l10.82431-4.68196z" fill="none" fill-opacity="1" fill-rule="evenodd" stroke="#998c1d" stroke-linejoin="miter"/>
    <path id="path5572" d="M435.55381 356.17158c-.0386 3.04885 9.64285 2.5 9.64285 6.16072v-15.26786c-9.17146-.9844-9.51493-1.00065-9.64285 9.10714z" fill="url(#linearGradient5642)" fill-opacity="1" fill-rule="evenodd" stroke="none" stroke-linejoin="miter"/>
    <path id="path5574" d="M435.55381 356.17158c-.0181 1.43409 2.11423 2.07219 4.37807 2.7268v-11.83394s-4.25015-1.00065-4.37807 9.10714z" fill="url(#linearGradient5644)" fill-opacity="1" fill-rule="evenodd" stroke="none" stroke-linejoin="miter"/>
    <path d="M435.55381 356.17158c-.0386 3.04885 9.64285 2.5 9.64285 6.16072v-15.26786c-9.17146-.9844-9.51493-1.00065-9.64285 9.10714z" id="path5576" fill="none" fill-opacity="1" fill-rule="evenodd" stroke="#998c1d" stroke-linejoin="miter"/>
    <path id="path5578" d="M446.26809 327.51087v24.73214c-2.84913-1.64494-10.71428-1.42857-10.71428 3.92857v-19.19642z" fill="url(#linearGradient5646)" fill-opacity="1" fill-rule="evenodd" stroke="#998c1d" stroke-linejoin="miter"/>
    <path d="M460.19666 284.56444l49.9195-43.24079c20.67751 105.73317-23.41536 108.38591-39.57977 108.38591-13.37709 0-23.1939-6.6706-25.8276-23.15428-1.26078-7.89087 15.66644-41.99084 15.48787-41.99084z" id="path5580" fill="url(#linearGradient5648)" fill-opacity="1" fill-rule="evenodd" stroke="none" stroke-linejoin="miter"/>
    <path id="path5582" d="M460.19666 284.56444l49.9195-43.24079c18.85844 92.5379-13.13001 105.93975-29.29442 105.93975-9.09137 0-28.41054-10.85914-32.82996-30.55711-1.74935-7.79712 12.38345-32.14185 12.20488-32.14185z" fill="url(#linearGradient5650)" fill-opacity="1" fill-rule="evenodd" stroke="none" stroke-linejoin="miter"/>
    <path d="M460.06762 284.69281l49.9195-43.24079c16.35639 80.2604-13.13001 93.56538-29.29442 93.56538-9.09137 0-22.09709-5.55584-29.54696-21.46574-3.38869-7.23685 9.10045-28.85885 8.92188-28.85885z" id="path5584" fill="url(#linearGradient5652)" fill-opacity="1" fill-rule="evenodd" stroke="none" stroke-linejoin="miter"/>
    <path id="path5586" d="M450.01809 256.7073l24.28572-21.42857 16.60714 27.67857-30.71429 24.64286z" fill="url(#linearGradient5654)" fill-opacity="1" fill-rule="evenodd" stroke="none" stroke-linejoin="miter"/>
    <path d="M450.01809 256.7073l12.105-10.49822 15.66703 27.27539-17.59346 14.11569z" id="path5588" fill="url(#linearGradient5656)" fill-opacity="1" fill-rule="evenodd" stroke="none" stroke-linejoin="miter"/>
    <path d="M450.01809 256.7073l24.28572-21.42857 16.60714 27.67857-30.71429 24.64286z" id="path5590" fill="none" fill-opacity="1" fill-rule="evenodd" stroke="#998c1d" stroke-linejoin="miter"/>
    <path d="M460.19666 284.56444l49.9195-43.24079c5.42957 26.64278-13.88959 77.27667-37.37564 77.27667-9.09137 0-13.00571-4.92449-17.17259-11.74302-4.16688-6.81853 4.8073-22.29286 4.62873-22.29286z" id="path5592" fill="url(#linearGradient5658)" fill-opacity="1" fill-rule="evenodd" stroke="none" stroke-linejoin="miter"/>
    <path d="M460.19666 284.56444l31.55971-27.33734 13.1322 26.2271c-6.89056 18.91688-18.85152 35.14612-32.14805 35.14612-9.09137 0-13.00571-4.92449-17.17259-11.74302-4.16688-6.81853 4.8073-22.29286 4.62873-22.29286z" id="path5594" fill="url(#linearGradient5660)" fill-opacity="1" fill-rule="evenodd" stroke="none" stroke-linejoin="miter"/>
    <path id="path5596" d="M460.19666 284.56444l13.85947-12.00521 16.5993 36.20437c-5.37916 6.04884-11.49118 9.83672-17.91491 9.83672-9.09137 0-13.00571-4.92449-17.17259-11.74302-4.16688-6.81853 4.8073-22.29286 4.62873-22.29286z" fill="url(#linearGradient5662)" fill-opacity="1" fill-rule="evenodd" stroke="none" stroke-linejoin="miter"/>
    <path d="M471.49548 318.56817c-8.2139-.43373-11.95602-5.212-15.92755-11.71087-3.01281-4.93005.75094-14.38519 3.0669-19.24447l12.86065 30.95534z" id="path5598" fill="url(#linearGradient5664)" fill-opacity="1" fill-rule="evenodd" stroke="none" stroke-linejoin="miter"/>
    <path id="path5602" d="M504.30827 329.07337c1.37624 0 2.66079.27479 3.8125.78125-2.90616 5.36494-6.35996 9.1678-10 11.8125-1.44942-1.33848-2.34375-3.13748-2.34375-5.125 0-4.12214 3.81769-7.46875 8.53125-7.46875z" opacity="1" fill="url(#linearGradient5666)" fill-opacity="1" fill-rule="nonzero" stroke="none" stroke-linejoin="round" stroke-miterlimit="4" stroke-dasharray="none" stroke-dashoffset="0"/>
    <path id="path5610" d="M474.29515 235.31362l2.23973-6.48681 12.16184-6.01092-7.66398 11.19399z" fill="#c3bb0d" fill-opacity="1" fill-rule="evenodd" stroke="none" stroke-linejoin="miter" stroke-miterlimit="4" stroke-dasharray="none"/>
    <path d="M474.29515 235.31362l14.40157-12.49773-7.66398 11.19399z" id="path5612" fill="#e9d500" fill-opacity="1" fill-rule="evenodd" stroke="none" stroke-linejoin="miter" stroke-miterlimit="4" stroke-dasharray="none"/>
    <path d="M474.29515 235.31362l2.23973-6.48681 12.16184-6.01092-7.66398 11.19399z" id="path5614" fill="none" fill-opacity="1" fill-rule="evenodd" stroke="#998c1d" stroke-linejoin="miter" stroke-miterlimit="4" stroke-dasharray="none"/>
    <path id="path5668" d="M460.19666 284.56444l49.9195-43.24079c20.67751 105.73317-23.41536 108.38591-39.57977 108.38591-13.37709 0-23.1939-6.6706-25.8276-23.15428-1.26078-7.89087 15.66644-41.99084 15.48787-41.99084z" fill="none" fill-opacity="1" fill-rule="evenodd" stroke="#998c1d" stroke-linejoin="miter"/>
    <path id="path5680" d="M460.19666 284.56444l49.9195-43.24079c5.42957 26.64278-13.88959 77.27667-37.37564 77.27667-9.09137 0-13.00571-4.92449-17.17259-11.74302-4.16688-6.81853 4.8073-22.29286 4.62873-22.29286z" fill="none" fill-rule="evenodd" stroke="#998c1d" stroke-linejoin="miter"/>
    <path id="path4781-5" d="M419.83952 353.82939c40.28557-27.65292 44.69351-64.51948 44.69351-96.3433-10.35406 0-34.08691-3.28299-44.69351-16.28871-10.6066 13.00572-34.33945 16.28871-44.69351 16.28871 0 31.82382 4.40794 68.69038 44.69351 96.3433z" fill="#fff" fill-rule="evenodd" stroke="#998c1d" stroke-linejoin="miter"/>
    <path id="path3339-0" d="M393.05827 264.47962l-3.25 6.21875h2.75v10.21875l-9.6875-10.90625 9.5625 12.15625-4.1875 4.71875-1.15625-.96875-.9375 1.125 1.125.9375-2.53125 2.875 1.28125 1.0625 2.34375-3 1.125.9375.9375-1.125-1.15625-.96875 3.28125-4.1875v9.65625h1v-9.65625l3.28125 4.1875-1.15625.96875.9375 1.125 1.125-.9375 2.34375 3 1.28125-1.0625-2.53125-2.875 1.125-.9375-.9375-1.125-1.15625.96875-4.1875-4.71875 9.5625-12.15625-9.6875 10.90625v-10.21875h2.75zm26.78125 10.26339l1.84639 9.64614 5.39726-8.20529-1.98557 9.61846 8.12644-5.51526-5.51525 8.12645 9.61845-1.98558-8.20529 5.39726 9.64614 1.84639-9.64614 1.84639 8.20529 5.39726-9.61845-1.98557 5.51525 8.12645-8.12644-5.51526 1.98557 9.61845-5.39726-8.20528-1.84639 9.64614-1.84639-9.64614-5.39726 8.20528 1.98557-9.61845-8.12644 5.51525 5.51525-8.12644-9.61845 1.98557 8.20529-5.39726-9.64614-1.84639 9.64614-1.84639-8.20529-5.39726 9.61845 1.98558-5.51525-8.12645 8.12644 5.51526-1.98557-9.61846 5.39726 8.20529zm26.84375-8.16964c-.00008 0-.53068 2.62041-.5625 6.21875-.0232 2.62289.34455 5.24822.40625 7.8125v6.46875c-1.96978-2.79426-3.9375-5.59375-3.9375-5.59375-1.3925-2.1572-2.67041-4.43625-4.15625-6.59375-2.04096-2.96358-4.06244-4.75004-4.0625-4.75-.00007.00005 1.07776 2.44688 3.125 5.40625 1.49226 2.15714 3.31587 4.06468 4.84375 6.125 0 0 1.75761 2.51014 3.46875 4.9375-2.6211-2.3693-7.08459-2.91352-7 3.375 1.85309-3.82199 4.40249-3.80213 7.125-1.65625-1.47674 2.09485-3.09375 4.40625-3.09375 4.40625s.24999.1875.25.1875c0 0 1.61701-2.3114 3.09375-4.40625.11449.0951.22872.17888.34375.28125v5.5625h.3125v-5.5625c.11503-.10237.22926-.18611.34375-.28125 1.47674 2.09485 3.09375 4.40625 3.09375 4.40625l.25-.1875s-1.61701-2.3114-3.09375-4.40625c2.72251-2.14588 5.24066-2.16575 7.09375 1.65625.0839-6.23948-4.30853-5.75969-6.9375-3.4375 1.68712-2.39329 3.4375-4.875 3.4375-4.875 1.52788-2.06032 3.32023-3.96786 4.8125-6.125 2.04724-2.95937 3.12507-5.4062 3.125-5.40625-.00006-.00004-1.99028 1.78642-4.03125 4.75-1.48584 2.1575-2.76376 4.43655-4.15625 6.59375 0 0-1.96772 2.79949-3.9375 5.59375v-6.46875c.10478-2.56546.37759-5.193.40625-7.8125.0394-3.59816-.56242-6.21875-.5625-6.21875zm-26.84375 78.10152c4.10826 0 3.79011-2.71246 4.34449-5.00459.39714-1.64203 1.09912-2.82248 1.83695-3.77111 1.76777-2.27285 2.39912-5.42957 2.39912-8.96511.76977.30324 2.27938.7731 3.97284.7731 2.89078 0 6.12868-1.76244 6.12868-3.23535 0-1.01015-6.62912-2.14657-9.21764-2.14657 0 0 2.15767-.68615 4.54569-5.55584 3.21986-6.56599 6.81853-11.11168 14.39467-13.51079 0 0-9.65958.44194-13.82646 4.29315-2.26356 2.09208-3.70742 6.11654-5.815 8.95286-1.77218 2.38493-4.2203 3.86345-4.85474 3.86345-1.38896 0-3.09359 1.13642-3.9086 1.13642s-2.51964-1.13642-3.9086-1.13642c-.63444 0-3.08256-1.47852-4.85474-3.86345-2.10758-2.83632-3.55144-6.86078-5.815-8.95286-4.16688-3.85121-13.82646-4.29315-13.82646-4.29315 7.57614 2.39911 11.17481 6.9448 14.39467 13.51079 2.38802 4.86969 4.54569 5.55584 4.54569 5.55584-2.58852 0-9.21764 1.13642-9.21764 2.14657 0 1.47291 3.2379 3.23535 6.12868 3.23535 1.69346 0 3.20307-.46986 3.97284-.7731 0 3.53554.63135 6.69226 2.39912 8.96511.73783.94863 1.43981 2.12908 1.83695 3.77111.55438 2.29213.23623 5.00459 4.34449 5.00459zm-1.69889-20.17149c0-.66291-3.81964-.85231-4.60882-1.01015 1.70463 1.60993 2.24127 2.14657 2.90419 2.14657.66291 0 1.73619-1.04172 1.70463-1.13642zm-4.82979 2.58852c-1.45201.85465 1.60993 4.54568 2.74635 3.69337.88964-.66723-1.65724-4.33443-2.74635-3.69337zm-4.88565-1.79934c0 .29623-.80937.53665-1.80662.53665-.99726 0-1.80662-.24042-1.80662-.53665 0-.29622.80936-.53664 1.80662-.53664.99725 0 1.80662.24042 1.80662.53664zm9.99954 16.63595c0 .67958-.19799 1.23113-.44194 1.23113s-.44194-.55155-.44194-1.23113c0-.67958.19799-1.23112.44194-1.23112s.44194.55154.44194 1.23112zm3.11368-17.42513c0-.66291 3.81964-.85231 4.60882-1.01015-1.70463 1.60993-2.24127 2.14657-2.90419 2.14657-.66291 0-1.73619-1.04172-1.70463-1.13642zm4.82979 2.58852c1.45201.85465-1.60993 4.54568-2.74635 3.69337-.88964-.66723 1.65724-4.33443 2.74635-3.69337zm4.88565-1.79934c0 .29623.80937.53665 1.80662.53665.99726 0 1.80662-.24042 1.80662-.53665 0-.29622-.80936-.53664-1.80662-.53664-.99725 0-1.80662.24042-1.80662.53664zm-9.99954 16.63595c0 .67958.19799 1.23113.44194 1.23113s.44194-.55155.44194-1.23113c0-.67958-.19799-1.23112-.44194-1.23112s-.44194.55154-.44194 1.23112z" fill="#998c1d" fill-opacity="1" fill-rule="evenodd" stroke="none" stroke-linejoin="miter"/>
    <path d="M510.11616 241.32365l2.23973-6.48681 12.16184-6.01092-7.66398 11.19399z" id="path5674" fill="#c3bb0d" fill-opacity="1" fill-rule="evenodd" stroke="none" stroke-linejoin="miter" stroke-miterlimit="4" stroke-dasharray="none"/>
    <path id="path5676" d="M510.11616 241.32365l14.40157-12.49773-7.66398 11.19399z" fill="#e9d500" fill-opacity="1" fill-rule="evenodd" stroke="none" stroke-linejoin="miter" stroke-miterlimit="4" stroke-dasharray="none"/>
    <path id="path5678" d="M510.11616 241.32365l2.23973-6.48681 12.16184-6.01092-7.66398 11.19399z" fill="none" fill-opacity="1" fill-rule="evenodd" stroke="#998c1d" stroke-linejoin="miter" stroke-miterlimit="4" stroke-dasharray="none"/>
  </g>
</svg>
