<svg xmlns="http://www.w3.org/2000/svg" xmlns:xlink="http://www.w3.org/1999/xlink" version="1.0" id="svg2" viewBox="0 0 744 798.82855">
  <defs id="defs4">
    <linearGradient id="linearGradient3460">
      <stop id="stop3462" offset="0" stop-color="#fdb817" stop-opacity="1"/>
      <stop id="stop3464" offset="1" stop-color="#fdb817" stop-opacity="0"/>
    </linearGradient>
    <linearGradient id="linearGradient4168">
      <stop id="stop4170" offset="0" stop-color="#868686" stop-opacity="1"/>
      <stop id="stop6164" offset=".25" stop-color="#fff" stop-opacity="1"/>
      <stop id="stop6166" offset=".625" stop-color="#fff" stop-opacity="1"/>
      <stop id="stop4172" offset="1" stop-color="#d7dedd" stop-opacity="1"/>
    </linearGradient>
    <linearGradient id="linearGradient5165">
      <stop id="stop5167" offset="0" stop-color="#ccdde6" stop-opacity="1"/>
      <stop id="stop5173" offset=".5" stop-color="#ccdde6" stop-opacity="1"/>
      <stop id="stop5169" offset="1" stop-color="#ccdde6" stop-opacity="0"/>
    </linearGradient>
    <linearGradient id="linearGradient5183">
      <stop id="stop5185" offset="0" stop-color="#fff" stop-opacity=".98969072"/>
      <stop id="stop5193" offset=".75" stop-color="#daf1f6" stop-opacity=".99607843"/>
      <stop id="stop5187" offset="1" stop-color="#94c7d2" stop-opacity="1"/>
    </linearGradient>
    <linearGradient x1="440.65625" y1="212.95312" x2="641.5" y2="212.95312" id="linearGradient3466" xlink:href="#linearGradient3460" gradientUnits="userSpaceOnUse"/>
    <radialGradient cx="199.38197" cy="235.22791" r="11.030057" fx="199.38197" fy="235.22791" id="radialGradient15337" xlink:href="#linearGradient4168" gradientUnits="userSpaceOnUse" gradientTransform="matrix(1 0 0 1.00057 0 -.1347447)"/>
    <radialGradient cx="199.38197" cy="235.22791" r="11.030057" fx="199.38197" fy="235.22791" id="radialGradient2664" xlink:href="#linearGradient4168" gradientUnits="userSpaceOnUse" gradientTransform="matrix(1 0 0 1.00057 0 -.1347447)"/>
    <radialGradient cx="199.38197" cy="235.22791" r="11.030057" fx="199.38197" fy="235.22791" id="radialGradient3331" xlink:href="#linearGradient4168" gradientUnits="userSpaceOnUse" gradientTransform="matrix(1 0 0 1.00057 0 -.1347447)"/>
  </defs>
  <g transform="translate(-27.502521 -43.603595)" id="layer1">
    <path d="M398.19671 114.60583c-24.82567.2232-47.65904 4.48415-47.65904 4.48415-139.1046 39.9382-224.29295 187.88482-225.05688 369.24951l-1.13672 2.96573c-.00003 100.48184 29.5735 191.60724 77.55085 258.67984h397.97559c47.59203-66.55169 77.03724-156.89784 77.45707-256.58063.77714-184.48987-97.37098-345.91457-227.28065-374.53707-.5254-.0571-1.68057-.22931-3.36067-.47349-8.01289-1.16505-27.96623-3.97271-48.48955-3.78804z" id="path3225" fill="#8cc5f2" fill-opacity="1" stroke="none"/>
    <g transform="matrix(3.00076 0 0 3.0534 -560.67998 -490.83846)" id="g15142" stroke="none">
      <path d="M520.25 201.4375l-6.75 2.53125L529.3125 275c-5.1082 1.05454-9.9758 2.79059-14.5 5.09375L482.75 225.75l-4.46875 5.1875 32.59375 51.34375c-4.51568 2.76025-8.62504 6.11876-12.21875 9.96875l-38.25-32.15625-.65625 8.3125L496.03125 295.25c-3.48451 4.28508-6.37192 9.07834-8.53125 14.25l-28.3125-8.84375-1.4375 6.6875 28.0625 6.75c-1.75997 5.48761-2.7468 11.34052-2.78125 17.40625v.3125c-.00001 31.91987 25.79938 57.8812 57.71875 58.0625 32.0352.18196 58.16182-25.68355 58.34375-57.71875.036-6.34496-.96023-12.46049-2.8125-18.1875l27.5-6.625-1.4375-6.6875-27.75 8.6875c-2.20168-5.22539-5.16173-10.05883-8.71875-14.375l35.90625-26.5625-.65625-8.3125-37.90625 31.875c-3.65156-3.85904-7.81985-7.22444-12.40625-9.96875l32.4375-51.0625-4.46875-5.1875-31.90625 54.09375c-4.56378-2.27047-9.47523-3.96251-14.625-4.96875l15.78125-70.90625-6.75-2.53125-13.3125 72.78125c-4.77896-.6498-9.59837-.49576-14.375.0625L520.25 201.4375z" transform="translate(-220.65386)" id="path14031" fill="#fdb817" fill-opacity="1" stroke="none"/>
    </g>
    <g transform="matrix(3.00076 0 0 3.0534 -1222.8161 -490.83846)" id="g15168" stroke="none">
      <path d="M541.03125 291.53125l-30 30.46875-2.40625-2.5-15.90625 9.59375-3.5-2.28125-21.96875 9.09375L481.78125 414.5H600.375l14.53125-78.59375-21.96875-9.09375-3.5 2.28125L573.53125 319.5 571.125 322l-30.09375-30.46875z" id="rect2249" fill="#022290" fill-opacity="1" stroke="none"/>
    </g>
    <g transform="matrix(3.00076 0 0 3.0534 -1222.8089 -490.83846)" id="g15172" stroke="none">
      <path d="M560.87181 176.625c-69.0936-10.74348-103.59747 35.00696-120.21556 72.65625h1.5625c16.73396-37.34463 51.58983-80.7377 116.92633-71.34407l1.72673-1.31218zm-.0281 0l-1.75 1.34375c34.71705 7.01168 64.1622 33.96432 80.875 71.3125h1.53125c-16.5992-37.64265-45.94406-65.02394-80.65621-72.65625zm-4.64089 4.69866c-58.52608-8.44196-93.62644 31.74395-110.45282 67.95759h1.5625c16.55449-35.07443 52.46975-74.35848 109.47002-66.17984l-.57966-1.77775zm-.0154-.0112l.59375 1.78125c33.22826 6.06671 61.6177 31.1129 78.15625 66.1875h1.5625c-16.8096-36.20827-46.06268-62.03492-80.31242-67.96871zm2.01595 6.10953c-55.69498-9.75547-89.05426 29.66735-104.2972 61.85922h1.53125c14.91936-31.07021 48.76521-70.06451 103.40364-59.96875l-.63769-1.89047zm-.0159-.0158l.65625 1.90625c28.52263 6.63422 52.92862 28.95343 67.875 59.96875h1.5625c-15.24802-32.20259-40.53606-55.34915-70.09372-61.87494zm2.25 6.78125l.625 1.90625c24.69128 6.92044 45.84968 26.42473 59.53125 53.1875h1.5625c-14.01067-27.931-36.01558-48.21941-61.71875-55.09375zm-.001-.00032c-17.35196-3.93502-31.96856-2.13532-44.87019 2.31501-27.85448 9.60812-45.98103 33.56723-55.56628 52.65285l1.59375.12627c13.6905-26.7626 47.42976-65.70994 99.46416-53.20328l-.62191-1.89079zm-3.061 5.40657v1.75c23.60126 5.63441 44.05262 23.25811 57.625 47.9375h1.59375c-13.80499-25.62391-34.87051-43.95388-59.21922-49.68744zm1.33482 2.06249c.80032-1.87612 1.4641-1.36838.25404-1.66605-49.43448-12.1608-79.92587 24.27656-93.40136 49.29106h1.625c13.45741-24.48928 35.18335-43.15497 58.48661-48.94196 13.295-2.48986 23.99827-1.23471 33.03571 1.31695z" id="path10048" fill="#fdb817" fill-opacity="1"/>
    </g>
    <g transform="matrix(3.00076 0 0 3.0534 -562.64205 -490.83846)" id="g15267">
      <g id="g6193" fill="none" stroke="#a0e7fe" stroke-opacity="1" stroke-width="1.32145679" stroke-linecap="butt" stroke-linejoin="miter" stroke-miterlimit="4" stroke-dasharray="none">
        <path d="M283.09525 400.56126c9.57888-2.62354 13.79729 2.09026 20.79638 1.28051 7.53174-.87137 10.21129-2.14273 16.92747-2.14273" id="path3261"/>
        <path d="M270.95239 396.00769c12.91644-4.31997 21.64303.21526 31.12199-.23735 10.32148-.49284 7.58501-2.76773 18.70901-2.76773" id="path5201"/>
        <path d="M269.70239 389.40054c16.48787-5.3914 23.6966-.14188 33.17556-.59449 10.32148-.49284 9.15623-2.67845 17.95008-2.67845" id="path5203"/>
        <path d="M271.57739 384.22199c16.48787-8.41544 23.6966-.22146 33.17556-.92794 10.32148-.76927 8.54993-3.13517 16.02597-3.13517" id="path5205"/>
        <path d="M272.47025 378.23985c16.48787-8.41544 23.6966-.22146 33.17556-.92794 10.32148-.76927 7.74861-2.19767 15.06168-2.16642" id="path6176"/>
        <path d="M281.60621 362.0387c6.24943.51315 16.92998 6.85159 24.6646 5.89821 10.27237-1.26618 7.54591-1.63071 14.49471-1.63071" id="path6180"/>
        <path d="M281.39793 366.66624c5.61808 1.3339 15.88826 6.59905 23.62288 5.64567 10.27237-1.26618 7.941-2.16642 15.77597-2.16642" id="path6178"/>
        <path d="M299.03134 361.8493c10.98452 2.91226 16.28163.57002 21.77326.69502" id="path6182"/>
      </g>
      <path d="M222.58586 336.16403l27.39211-.13281 9.1022 2.99131c4.37858-5.39995 6.90234-7.44578 8.68867-7.55794.72271.24356.76063.72073.71313 1.32156-1.37709 3.47705-.60892 6.15081-.2176 8.82645.14209 1.0694.37615 1.13029.989.30101 2.17774-2.01925 5.62398-6.08452 7.68991-6.03707 1.48583.0327.53969 2.62456 1.50212 8.83477l42.58574 12.96143.14733 1.62262-40.57689 12.21962c-1.11245 9.23779-2.93319 14.23125-9.71235 21.71336l.19783 14.12619-33.82505-2.09585 3.23735-16.63454-17.9135-7.7936z" id="rect9632" fill="#fff" fill-opacity="1" stroke="#000" stroke-width="0" stroke-linecap="round" stroke-linejoin="round" stroke-miterlimit="4" stroke-opacity="1"/>
      <g id="g29528">
        <path d="M253.09375 394.84375l-18.34375 21.5c8.26964 6.7175 17.47896 12.45151 27.5 16.96875l21.375-21.9375c-11.38148-3.73062-21.64284-9.41035-30.53125-16.53125z" id="path29383" fill="#fd1717" fill-opacity="1" stroke="#000" stroke-width="1.5" stroke-linecap="butt" stroke-linejoin="round" stroke-miterlimit="4" stroke-opacity="1" stroke-dasharray="none"/>
        <use transform="rotate(15.000006 253.93707055 344.13302915)" id="use29405" x="0" y="0" width="744.09448" height="1052.3622" xlink:href="#g23718"/>
        <use transform="rotate(15.000006 261.07330007 349.21939332)" id="use29407" x="0" y="0" width="744.09448" height="1052.3622" xlink:href="#use23722"/>
        <use transform="rotate(15.000006 310.52109682 223.76148985)" id="use29411" x="0" y="0" width="744.09448" height="1052.3622" xlink:href="#use23742"/>
        <path d="M249.01064634 400.98027157a1.08907071 1.08907071 0 11-.00167071.00618023" id="path29419" fill="#fff" fill-opacity="1" stroke="#000" stroke-width="0" stroke-linecap="round" stroke-linejoin="round" stroke-miterlimit="4" stroke-opacity="1" stroke-dasharray="none"/>
        <use transform="rotate(15.000006 259.00930389 344.51555789)" id="use29421" x="0" y="0" width="744.09448" height="1052.3622" xlink:href="#path23805"/>
        <use transform="rotate(15.000006 285.96100827 145.35537736)" id="use29425" x="0" y="0" width="744.09448" height="1052.3622" xlink:href="#use23809"/>
        <use transform="rotate(15.000006 253.82823906 352.37111965)" id="use29427" x="0" y="0" width="744.09448" height="1052.3622" xlink:href="#use23811"/>
        <use transform="rotate(15.000006 263.02776233 358.46092992)" id="use29429" x="0" y="0" width="744.09448" height="1052.3622" xlink:href="#use23813"/>
        <path d="M252.09375 396.03125l-1.28125 1.5c8.59884 6.91894 18.43727 12.50533 29.3125 16.375l1.53125-1.5625c-10.98646-3.79067-20.91486-9.3767-29.5625-16.3125zm-5.96875 7l-1.28125 1.5c8.39872 6.78832 17.88804 12.43277 28.3125 16.59375l1.5-1.5625c-10.52249-4.10067-20.08426-9.72107-28.53125-16.53125zm-2.28125 2.65625l-1.3125 1.5625c8.33344 6.74357 17.70444 12.37657 27.96875 16.625l1.5-1.5625c-10.35568-4.20566-19.79152-9.84361-28.15625-16.625zm-5.18306 7.23457l-1.34375 1.5625c7.25185 5.8942 14.79294 10.35113 23.42815 14.51952l-.65665-2.56929c-7.87782-3.95727-14.75099-8.07942-21.42775-13.51273z" id="path29385" fill="#fff" fill-opacity="1" stroke="none"/>
        <path d="M257.09973 417.007l-1.72936 1.12087c2.92873 4.20083 5.03471 9.82081 5.73799 15.28869l1.87049-1.04689c-.65584-5.19275-2.70969-10.90226-5.87912-15.36267z" id="path9171" fill="#000" fill-opacity="1" stroke="none"/>
        <path d="M259.81402 415.0695l-1.72936 1.12087c2.63936 4.57152 5.89185 8.78956 5.90316 14.29092l1.49103-1.5268c.1982-2.91863-2.54319-9.30437-5.66483-13.88499z" id="path9173" fill="#fff" fill-opacity="1" stroke="none"/>
      </g>
      <g id="g3278" fill="#fdb817" fill-opacity="1" fill-rule="evenodd" stroke="#404040" stroke-linecap="round" stroke-linejoin="round" stroke-opacity="1">
        <path d="M234.0294 249.34945c6.44095-9.03483 5.80738-18.19477 1.82324-21.26715-5.72658 7.71927-3.99439 16.33643-1.82324 21.26715z" id="path3260" stroke-width="1"/>
        <path d="M241.13059 236.53472c6.19641-3.05807 5.67847-7.64218 4.40625-11.10568-2.98999 1.11404-7.4284 4.23082-4.40625 11.10568z" id="path3252" stroke-width="1"/>
        <path d="M239.5221 236.40687c2.71601-5.3099 2.77692-8.59832.24488-11.35503-2.75926 3.11045-2.41603 6.42431-.24488 11.35503z" id="path3256" stroke-width="1"/>
        <path d="M239.98127 237.04987c5.9099-.80306 8.64405-2.63112 9.46088-6.284-4.12913-.48858-6.65336 1.68576-9.46088 6.284z" id="path3258" stroke-width="1"/>
        <path d="M235.03955 250.04393c5.93588-2.65824 12.49964-8.53519 12.74552-14.82743-4.6533-.55135-8.41381 1.24728-12.74552 14.82743z" id="path3262" stroke-width="1"/>
        <path d="M239.83331 238.55503c4.43523-2.39745 4.06451-5.99128 3.15388-8.70657-2.14016.87338-5.31706 3.31685-3.15388 8.70657z" id="path3254" stroke-width=".99999994"/>
        <path d="M237.45471 243.47953c4.56103-2.60607 4.17979-6.51261 3.24334-9.46418-2.20087.94937-5.46788 3.60547-3.24334 9.46418z" id="path3250" stroke-width="1"/>
        <path d="M235.18187 248.15149c4.56103-2.60607 4.17979-6.51261 3.24334-9.46418-2.20087.94937-5.46788 3.60547-3.24334 9.46418z" id="path3248" stroke-width="1"/>
        <path d="M228.85237 257.68321c6.44095-10.8026 5.3023-14.91177 1.82324-22.40357-5.34777 4.56254-5.25708 14.8212-1.82324 22.40357z" id="path3264" stroke-width="1"/>
        <path d="M229.66461 261.35859c4.28326-11.82521 9.60438-15.6967 16.1864-16.22765.0331 8.01024-5.46475 15.69179-16.1864 16.22765z" id="path3270" stroke-width="1"/>
        <path d="M232.42125 254.08615c5.44162-2.88423 4.98677-7.20773 3.86953-10.47434-2.62579 1.0507-6.52355 3.9903-3.86953 10.47434z" id="path3246" stroke-width="1"/>
        <path d="M224.93803 268.2898c6.44095-16.61097 1.64049-19.70999-1.20722-24.55014-5.34777 4.56254-5.38335 15.95762 1.20722 24.55014z" id="path3266" stroke-width="1"/>
        <path d="M228.81455 263.6826c7.32859-4.03162 6.71601-10.07509 5.21135-14.64122-3.53633 1.46869-8.7857 5.57772-5.21135 14.64122z" id="path3244" stroke-width="1"/>
        <path d="M225.48311 270.90151c7.99436-15.37301 13.02753-13.54031 19.53595-15.26662-2.33154 5.76254-5.42547 14.83294-19.53595 15.26662z" id="path3268" stroke-width="1"/>
        <path d="M218.0625 252.4375c-3.70198 6.73986-3.28467 12.97168-1.0625 18.625-1.35127-1.4953-2.74638-3.21069-4.0625-5.40625-1.42892 5.65565-1.0264 14.95599 2.74286 19.81092-1.01198-1.20347-4.42242-8.58785-5.39911-10.21717-1.6598 6.56947-.87822 11.4105 1.0625 15.5-.91482-1.15273-1.84521-2.37211-2.75-3.75-3.92381 18.85427 4.66419 26.9803 11.65625 37.34375-.14348 3.59052-.2531 7.61527-.3125 12.25 12.85405-6.6708 14.91979-16.39088 22.0625-48.96875-1.13723 1.26393-2.84288 1.52379-3.88135 2.39864 1.71193-4.00447 4.37326-6.3292 3.75635-16.52364-2.6311 2.63514-2.15522 2.99684-5.26777 6.87801 1.76064-3.05255 6.43888-9.79332 6.3041-16.68734-8.46569 6.04483-14.91629 4.16684-17.06758 8.21558-1.25524-10.1127-8.49606-13.39006-7.78125-19.46875zm8.04108 20.97113c.034.37662-.45215 9.84834-.41132 10.24825 1.18786.059 1.91829-2.90289 3.05806-3.02982-1.39979.93872-2.41491 2.74783-3.31123 4.5698-.047-1.42612-3.10164-4.43932-3.31044-5.58027-1.52467-1.79325 1.70377 3.43897 3.31655 4.16006.0625-8.25334.59868-10.10261.65838-10.36802z" id="path3274" stroke-width="1"/>
        <path d="M225.56936 271.19401c8.33498-4.55229 7.63828-11.37625 5.92699-16.53207-4.02195 1.65836-9.99218 6.29805-5.92699 16.53207z" id="path2271" stroke-width="1"/>
      </g>
      <path d="M244.41419 360.08573l-9.33331-1.41068c-12.77023-28.40873 7.21545-39.6606 11.06853-44.9209 1.34158 13.97631 5.27805 26.04466-1.73522 46.33158z" id="path35400" fill="#005707" fill-opacity="1" fill-rule="evenodd" stroke="#000" stroke-width="1" stroke-linecap="round" stroke-linejoin="round" stroke-opacity="1"/>
      <path d="M239.33613 355.91885c-30.89313-26.11317-37.41269-30.58133-32.86251-56.0543 2.98308 11.82973 46.82058 28.3175 32.86251 56.0543z" id="path35398" fill="#005707" fill-opacity="1" fill-rule="evenodd" stroke="#000" stroke-width="1" stroke-linecap="round" stroke-linejoin="round" stroke-opacity="1"/>
      <use transform="matrix(.02582 .99967 .99967 -.02582 -103.89605 177.82814)" id="use30539" x="0" y="0" width="744.09448" height="1052.3622" xlink:href="#g8028"/>
      <path d="M228.11952 383.99029c32.77282-18.39935-10.26558-34.15288-29.63749-26.59002 12.90978 7.0083 10.32228 14.5675 29.63749 26.59002z" id="path35402" fill="#005707" fill-opacity="1" fill-rule="evenodd" stroke="#000" stroke-width="1" stroke-linecap="round" stroke-linejoin="round" stroke-opacity="1"/>
      <path d="M224.98583 291.33222c-1.08295-3.24575-2.08599-4.47071-4.46429-4.28572.3398-1.56088 1.96164-3.37921 4.28254-2.52364 4.08572-1.34883 7.86118-.24693 6.88266 4.39415-2.15511-1.08387-4.98342-1.33673-6.70091 2.41521z" id="path34419" fill="#005707" fill-opacity="1" fill-rule="evenodd" stroke="#000" stroke-width="1" stroke-linecap="round" stroke-linejoin="round" stroke-opacity="1"/>
      <path d="M221.03565 297.77194c-8.2761-6.62722-10.26537-8.77373-9.08372-15.01684 4.77957 5.25703 10.24472 4.53028 9.08372 15.01684z" id="path35390" fill="#005707" fill-opacity="1" fill-rule="evenodd" stroke="#000" stroke-width="1" stroke-linecap="round" stroke-linejoin="round" stroke-opacity="1"/>
      <path d="M224.17187 305.41123c12.77713-10.17432 11.65894-9.78668 14.78624-18.04729-7.78006 6.31792-14.84519 7.65422-14.78624 18.04729z" id="path35392" fill="#005707" fill-opacity="1" fill-rule="evenodd" stroke="#000" stroke-width="1" stroke-linecap="round" stroke-linejoin="round" stroke-opacity="1"/>
      <path d="M222.13623 311.72467c-11.62223-9.59454-15.12673-11.29912-14.32389-21.07776 7.24182 8.79256 13.33832 6.99253 14.32389 21.07776z" id="path35394" fill="#005707" fill-opacity="1" fill-rule="evenodd" stroke="#000" stroke-width="1" stroke-linecap="round" stroke-linejoin="round" stroke-opacity="1"/>
      <path d="M224.01902 313.61871l9.19747 8.36291c6.78518-8.20727 6.22919-17.76404 7.71494-26.78902-8.75705 5.25703-10.49727 7.43447-16.91241 18.42611z" id="path35396" fill="#005707" fill-opacity="1" fill-rule="evenodd" stroke="#000" stroke-width="1" stroke-linecap="round" stroke-linejoin="round" stroke-opacity="1"/>
      <g transform="translate(78.084)" id="g8028" fill="#b05818" fill-opacity="1">
        <path d="M119.33769 341.59359c8.6564-10.56949 9.80034-8.98364 13.00571-10.73286 1.57268-4.94285 6.23828-5.54814 13.51079-8.14436l-.0631 18.68782-26.45336.1894z" id="path32479" fill-rule="evenodd" stroke="#000" stroke-width="1.5" stroke-linecap="round" stroke-linejoin="round" stroke-miterlimit="4" stroke-opacity="1" stroke-dasharray="none"/>
        <path d="M163.571423 348.2550486a17.32143 17.32143 0 11-34.64286 0 17.32143 17.32143 0 1134.64286 0z" id="path4138" stroke="#000" stroke-width="1.5" stroke-linecap="butt" stroke-linejoin="round" stroke-miterlimit="4" stroke-opacity="1" stroke-dasharray="none"/>
        <path d="M144.72155 345.48859l11.70833-10.58625" id="path6086" fill-rule="evenodd" stroke="#000" stroke-width="2" stroke-linecap="round" stroke-linejoin="round" stroke-miterlimit="4" stroke-opacity="1" stroke-dasharray="none"/>
        <use transform="translate(4.9244936 5.42957)" id="use7057" x="0" y="0" width="744.09448" height="1052.3622" xlink:href="#path6086"/>
      </g>
      <g id="g3298">
        <use transform="matrix(.80128 -.3215 .3215 .80128 -48.266818 128.17126)" id="use6170" x="0" y="0" width="744.09448" height="1052.3622" xlink:href="#path2225"/>
        <use transform="matrix(.79827 .39258 -.39258 .79827 158.34311 -31.912073)" id="use6168" x="0" y="0" width="744.09448" height="1052.3622" xlink:href="#path2225"/>
        <path d="M209.10159 239.69446c-1.1747 2.48493-3.19246.7176-5.64541 1.95769-2.65864 1.34406-2.41955 3.99202-5.37446 3.61341-2.72631-.34932-1.669-2.81446-3.60639-4.76415-2.09985-2.11317-4.54432-1.06752-5.09736-3.9948-.51026-2.70082 2.16095-2.45703 3.41653-4.90209 1.36086-2.65007-.38899-4.65179 2.22412-6.08234 2.41095-1.31988 3.00454 1.29593 5.71793 1.73449 2.9409.47534 4.3039-1.80744 6.47193.23572 2.00031 1.88508-.30404 3.25795.11734 5.97406.45672 2.94384 3.04896 3.53472 1.77577 6.22801z" transform="matrix(.42892 .29338 -.29335 .42907 210.25339 109.71841)" id="path2225" fill="url(#radialGradient3331)" fill-opacity="1" stroke="#b4b4b4" stroke-width="2.88620663" stroke-linecap="round" stroke-linejoin="round" stroke-miterlimit="4" stroke-opacity="1" stroke-dasharray="none"/>
      </g>
      <path d="M278.54981 346.2243c1.1531 7.95836 2.44601 18.2993 2.03379 24.14943l38.5264-11.88898-40.56019-12.26045z" id="rect3315" fill="#01015f" fill-opacity="1" stroke="#404040" stroke-width="0" stroke-linecap="round" stroke-linejoin="round" stroke-miterlimit="4" stroke-opacity="1" stroke-dasharray="none"/>
      <path d="M257.6391 340.27223l-7.54188-2.42538c.0246 7.50893-2.04237 17.19117-3.72264 24.14492 3.36372-7.72516 8.06916-17.19313 11.26452-21.71954z" id="path4289" fill="#01015f" fill-opacity="1" stroke="#404040" stroke-width="0" stroke-linecap="round" stroke-linejoin="round" stroke-miterlimit="4" stroke-opacity="1" stroke-dasharray="none"/>
      <path d="M238.26973 361.03903c4.67584-.0264 9.31714 4.78436 8.33376 7.44988-3.53528 1.8715-6.14065-1.60394-8.33376-7.44988z" id="rect2269" fill="#005707" fill-opacity="1" stroke="#000" stroke-width="1" stroke-linecap="round" stroke-linejoin="round" stroke-miterlimit="4" stroke-opacity="1"/>
      <path d="M254.87417 385.80153c-5.15395-22.29838 16.4618-45.34265 21.57982-48.43506.0297 18.81333 10.53654 43.19187-11.09297 57.85432l-10.48685-9.41926z" id="path2245" fill="#005707" fill-opacity="1" fill-rule="evenodd" stroke="#000" stroke-width="1" stroke-linecap="round" stroke-linejoin="round" stroke-opacity="1"/>
      <path d="M246.5741 378.21105c.0433-23.58872 16.96595-43.14975 20.71275-45.51654-4.34971 8.12752 11.39685 29.54559-8.09768 53.49956l-12.61507-7.98302z" id="path2247" fill="#005707" fill-opacity="1" fill-rule="evenodd" stroke="#000" stroke-width="1" stroke-linecap="round" stroke-linejoin="round" stroke-miterlimit="4" stroke-opacity="1" stroke-dasharray="none"/>
      <path d="M272.85923 395.51049c-13.55008-8.15448-27.00967-23.10113-25.66679-26.7982-1.48646-.28707-7.36852-1.45264-9.81482-9.18849l-4.79822 4.16687c2.56327 3.65642 6.8482 6.05015 5.82564 9.70657 6.7307 10.50084 18.98919 20.85261 31.04492 29.68938l3.40927-7.57613z" id="rect3244" fill="#b05818" fill-opacity="1" stroke="#000" stroke-width="1" stroke-linecap="round" stroke-linejoin="round" stroke-miterlimit="4" stroke-opacity="1"/>
    </g>
    <use transform="matrix(-1 0 0 1 799.00503 0)" id="use15341" x="0" y="0" width="744.09448" height="1052.3622" xlink:href="#g15267" fill="none" stroke="none"/>
    <g transform="matrix(3.00076 0 0 3.0534 -560.39864 -490.83846)" id="g23786">
      <path d="M270.34375 393.90625l-15.25 23.78125c16.58015 10.07197 35.66903 16.4309 56.12135 17.89581 2.76884.19832 5.56267.30695 8.37865.32294 24.13382.13708 46.73907-6.56322 65.96875-18.25l-15.25-23.75c-14.77719 8.83222-32.07135 13.8861-50.53125 13.78125-18.07089-.10265-34.96216-5.13009-49.4375-13.78125z" id="path17767" fill="#fd1717" fill-opacity="1" stroke="#000" stroke-width="1.5" stroke-linecap="round" stroke-linejoin="round" stroke-miterlimit="4" stroke-opacity="1" stroke-dasharray="none"/>
      <path d="M370.47097 395.59911c-14.828 8.67115-32.30132 13.72427-50.72097 13.61964-18.01003-.10231-35.08608-5.15468-49.59597-13.63258l-1.0625 1.65625c14.82326 8.68506 32.25959 13.87181 50.65847 13.97633 18.81121.10685 36.66054-5.05559 51.81472-13.93214l-1.09375-1.6875zm5 7.75c-16.29209 9.60134-35.50704 15.17231-55.78347 15.05714-19.82102-.11259-38.57371-5.68813-54.50222-15.07008l-1.0625 1.65625c16.2422 9.58802 35.35146 15.29901 55.56472 15.41383 20.66397.11738 40.24376-5.56846 56.84597-15.36964l-1.0625-1.6875zm-112.16069 2.92456l-1.125 1.71875c16.79717 9.94085 36.59038 15.85755 57.50222 15.97633 21.36124.12133 41.6313-5.78409 58.78347-15.93214l-1.0625-1.6875c-16.84702 9.96345-36.73497 15.73884-57.72097 15.61964-20.5308-.11662-39.88543-5.94612-56.37722-15.69508zm-4.75 7.40625l-1.0625 1.625c18.14157 10.80164 39.53907 17.22285 62.15847 17.35133 23.11054.13128 44.98216-6.27459 63.50222-17.30714l-1.03125-1.625-2.4375 1.28125c-17.67611 9.98577-38.28521 15.77442-60.03347 15.65089-21.25412-.12072-41.36463-5.93465-58.65847-15.69508l-2.4375-1.28125z" id="path13875" fill="#fff" fill-opacity="1" stroke="none"/>
      <use transform="translate(17.614535 1.4520942)" id="use23726" x="0" y="0" width="744.09448" height="1052.3622" xlink:href="#use23724"/>
      <g transform="translate(48.487322 21.465742)" id="use23740" fill-opacity="1" stroke="#000" stroke-width="0" stroke-linecap="round" stroke-linejoin="round" stroke-miterlimit="4" stroke-opacity="1" stroke-dasharray="none">
        <path d="M236.12317 457.38234c-5.33291 3.10598-7.13252-1.75559-13.30394-1.73219-6.17143.0234-7.93412 4.89848-13.29043 1.83304-5.35631-3.06545-2.04587-7.05474-5.15185-12.38765-3.10598-5.33291-8.20927-4.4219-8.23267-10.59332-.0234-6.17143 5.08665-5.29915 8.15209-10.65546 3.06545-5.35631-.27515-9.32038 5.05776-12.42636 5.3329-3.10598 7.13251 1.75559 13.30394 1.73218 6.17142-.0234 7.93411-4.89848 13.29042-1.83303 5.35631 3.06544 2.04587 7.05473 5.15185 12.38764 3.10598 5.33291 8.20927 4.4219 8.23267 10.59333.0234 6.17142-5.08664 5.29914-8.15209 10.65546-3.06544 5.35631.27516 9.32038-5.05775 12.42636z" transform="matrix(.14576 0 0 .14576 239.77049 341.41125)" id="path23756" fill="#fff"/>
        <path d="M176.27178 422.97976a10.101525 10.101525 0 11-.00017.0574" transform="matrix(.1645 0 0 .1645 241.57651 335.13572)" id="path23758" fill="#fd1717"/>
      </g>
      <g id="g23772">
        <g id="g23760">
          <g id="g23718" fill-opacity="1" stroke="#000" stroke-width="0" stroke-linecap="round" stroke-linejoin="round" stroke-miterlimit="4" stroke-opacity="1" stroke-dasharray="none">
            <path d="M236.12317 457.38234c-5.33291 3.10598-7.13252-1.75559-13.30394-1.73219-6.17143.0234-7.93412 4.89848-13.29043 1.83304-5.35631-3.06545-2.04587-7.05474-5.15185-12.38765-3.10598-5.33291-8.20927-4.4219-8.23267-10.59332-.0234-6.17143 5.08665-5.29915 8.15209-10.65546 3.06545-5.35631-.27515-9.32038 5.05776-12.42636 5.3329-3.10598 7.13251 1.75559 13.30394 1.73218 6.17142-.0234 7.93411-4.89848 13.29042-1.83303 5.35631 3.06544 2.04587 7.05473 5.15185 12.38764 3.10598 5.33291 8.20927 4.4219 8.23267 10.59333.0234 6.17142-5.08664 5.29914-8.15209 10.65546-3.06544 5.35631.27516 9.32038-5.05775 12.42636z" transform="matrix(.14576 0 0 .14576 239.77049 341.41125)" id="path22745" fill="#fff"/>
            <path d="M176.27178 422.97976a10.101525 10.101525 0 11-.00017.0574" transform="matrix(.1645 0 0 .1645 241.57651 335.13572)" id="path23716" fill="#fd1717"/>
          </g>
          <use transform="translate(14.89975 6.1240499)" id="use23722" x="0" y="0" width="744.09448" height="1052.3622" xlink:href="#g23718"/>
          <use transform="translate(15.973037 4.1037447)" id="use23724" x="0" y="0" width="744.09448" height="1052.3622" xlink:href="#use23722"/>
          <use transform="translate(-18.877226 -1.767767)" id="use23742" x="0" y="0" width="744.09448" height="1052.3622" xlink:href="#use23740"/>
          <use transform="translate(-18.182746 -4.4194174)" id="use23744" x="0" y="0" width="744.09448" height="1052.3622" xlink:href="#use23742"/>
          <use transform="translate(-15.531095 -6.5659916)" id="use23746" x="0" y="0" width="744.09448" height="1052.3622" xlink:href="#use23744"/>
        </g>
        <use transform="matrix(-1 0 0 1 641.44688 0)" id="use23770" x="0" y="0" width="744.09448" height="1052.3622" xlink:href="#g23760"/>
      </g>
    </g>
    <g transform="matrix(3.00076 0 0 3.0534 -561.75689 -490.83846)" id="g23823">
      <path d="M279.24406818 406.44236201a1.08907082 1.08907082 0 11-.00001422.00640206" id="path23805" fill="#fff" fill-opacity="1" stroke="#000" stroke-width="0" stroke-linecap="round" stroke-linejoin="round" stroke-miterlimit="4" stroke-opacity="1" stroke-dasharray="none"/>
      <use transform="translate(15.278557 4.7982246)" id="use23807" x="0" y="0" width="744.09448" height="1052.3622" xlink:href="#path23805"/>
      <use transform="translate(16.541248 2.6516504)" id="use23809" x="0" y="0" width="744.09448" height="1052.3622" xlink:href="#use23807"/>
      <use transform="translate(-37.186241 4.608821)" id="use23811" x="0" y="0" width="744.09448" height="1052.3622" xlink:href="#use23809"/>
      <use transform="translate(17.488266 5.8715117)" id="use23813" x="0" y="0" width="744.09448" height="1052.3622" xlink:href="#use23811"/>
      <use transform="translate(18.750957 3.2829958)" id="use23815" x="0" y="0" width="744.09448" height="1052.3622" xlink:href="#use23813"/>
    </g>
    <g transform="matrix(-3.00076 0 0 3.0534 1363.4142 -490.83846)" id="use23831">
      <path d="M279.24406818 406.44236201a1.08907082 1.08907082 0 11-.00001422.00640206" id="path24251" fill="#fff" fill-opacity="1" stroke="#000" stroke-width="0" stroke-linecap="round" stroke-linejoin="round" stroke-miterlimit="4" stroke-opacity="1" stroke-dasharray="none"/>
      <use transform="translate(15.278557 4.7982246)" id="use24253" x="0" y="0" width="744.09448" height="1052.3622" xlink:href="#path23805"/>
      <use transform="translate(16.541248 2.6516504)" id="use24255" x="0" y="0" width="744.09448" height="1052.3622" xlink:href="#use23807"/>
      <use transform="translate(-37.186241 4.608821)" id="use24257" x="0" y="0" width="744.09448" height="1052.3622" xlink:href="#use23809"/>
      <use transform="translate(17.488266 5.8715117)" id="use24259" x="0" y="0" width="744.09448" height="1052.3622" xlink:href="#use23811"/>
      <use transform="translate(18.750957 3.2829958)" id="use24261" x="0" y="0" width="744.09448" height="1052.3622" xlink:href="#use23813"/>
    </g>
  </g>
</svg>
