<svg xmlns="http://www.w3.org/2000/svg" id="svg548" version="1.0" x="0" y="0" viewBox="0 0 575.09271 576.93262">
  <g transform="matrix(.92688 0 0 .8264 -6.9277584 -148.82161)" id="g1212" font-size="12" stroke="#db161b" fill="#fff" fill-opacity="1" stroke-opacity="1" fill-rule="evenodd">
    <g transform="translate(464.1732 3.543213)" id="g1137">
      <rect y="467.71652" x="17.716539" width="138.18898" ry=".30405396" rx=".2890881" id="rect1138" height="85.039398" stroke-width="1.42975997"/>
      <rect y="471.25967" x="21.259844" width="131.10236" ry=".27871609" rx=".27426305" id="rect1139" height="77.952759" stroke-width="1pt"/>
      <path transform="matrix(.68108 0 0 .5852 37.9721 260.7393)" id="path1140" d="M64.9665 396.067l9.723.443.4419 5.745 7.955 5.303 6.1873-6.629 7.5131 5.303-7.0711 5.746 1.7678 7.955 8.8385-.442v10.607l-7.0707-.442-3.5356 6.629 7.9551 7.513-6.1873 6.187-6.6292-6.629-9.723 2.652.442 9.723-10.6068.884-1.3258-9.281-8.839-4.862-4.8614 6.629-7.5132-4.861 4.4195-7.513-5.3034-4.862H34.03l-.4419-13.7 7.5131.884 5.3034-7.955-6.1872-6.187 7.9551-7.071 5.7453 5.745 9.7229-1.768 1.3258-5.746z" stroke-width="1pt"/>
      <ellipse transform="matrix(.6582 0 0 .70224 38.84465 209.6248)" ry="9.9438629" rx="11.048731" id="path1141" cy="426.78302" cx="68.944084" stroke-width="1pt"/>
      <g id="g1142" stroke-width="1pt">
        <path id="path1143" d="M38.9764 474.803l-10.6299 10.63"/>
        <path transform="translate(7.08657 .00004578)" id="path1144" d="M38.9764 474.803l-10.6299 10.63"/>
        <path transform="translate(14.1732 .00012207)" id="path1145" d="M38.9764 474.803l-10.6299 10.63"/>
        <path transform="translate(21.25985 .00012207)" id="path1146" d="M38.9764 474.803l-10.6299 10.63"/>
        <path transform="translate(28.34641 .00004578)" id="path1147" d="M38.9764 474.803l-10.6299 10.63"/>
        <path transform="translate(35.43305 .00027466)" id="path1148" d="M38.9764 474.803l-10.6299 10.63"/>
        <path transform="translate(42.51964 .00012207)" id="path1149" d="M38.9764 474.803l-10.6299 10.63"/>
        <path transform="translate(49.60621 .00019836)" id="path1150" d="M38.9764 474.803l-10.6299 10.63"/>
        <path transform="translate(56.69289 .00012207)" id="path1151" d="M38.9764 474.803l-10.6299 10.63"/>
        <path transform="translate(63.77949 .00027466)" id="path1152" d="M38.9764 474.803l-10.6299 10.63"/>
        <path transform="translate(70.86606 .00035095)" id="path1153" d="M38.9764 474.803l-10.6299 10.63"/>
        <path transform="translate(77.95269 .00042725)" id="path1154" d="M38.9764 474.803l-10.6299 10.63"/>
        <path transform="translate(49.60621 .00019836)" id="path1155" d="M38.9764 474.803l-10.6299 10.63"/>
        <path transform="translate(85.03933 .00012207)" id="path1156" d="M38.9764 474.803l-10.6299 10.63"/>
        <path transform="translate(92.1259 .00019836)" id="path1157" d="M38.9764 474.803l-10.6299 10.63"/>
        <path transform="translate(99.21253 .00027466)" id="path1158" d="M38.9764 474.803l-10.6299 10.63"/>
        <path transform="translate(106.2992 .00004578)" id="path1159" d="M38.9764 474.803l-10.6299 10.63"/>
        <path transform="matrix(-1 0 0 1 173.6221 -.00003052)" id="path1160" d="M38.9764 474.803l-10.6299 10.63"/>
        <path transform="matrix(-1 0 0 1 166.5355 .00004578)" id="path1161" d="M38.9764 474.803l-10.6299 10.63"/>
        <path transform="matrix(-1 0 0 1 159.4489 .00012207)" id="path1162" d="M38.9764 474.803l-10.6299 10.63"/>
        <path transform="matrix(-1 0 0 1 152.3622 .00012207)" id="path1163" d="M38.9764 474.803l-10.6299 10.63"/>
        <path transform="matrix(-1 0 0 1 145.2757 .00004578)" id="path1164" d="M38.9764 474.803l-10.6299 10.63"/>
        <path transform="matrix(-1 0 0 1 138.1891 .00027466)" id="path1165" d="M38.9764 474.803l-10.6299 10.63"/>
        <path transform="matrix(-1 0 0 1 131.1024 .00012207)" id="path1166" d="M38.9764 474.803l-10.6299 10.63"/>
        <path transform="matrix(-1 0 0 1 124.0159 .00019836)" id="path1167" d="M38.9764 474.803l-10.6299 10.63"/>
        <path transform="matrix(-1 0 0 1 116.9292 .00012207)" id="path1168" d="M38.9764 474.803l-10.6299 10.63"/>
        <path transform="matrix(-1 0 0 1 109.8426 .00027466)" id="path1169" d="M38.9764 474.803l-10.6299 10.63"/>
        <path transform="matrix(-1 0 0 1 102.756 .00035095)" id="path1170" d="M38.9764 474.803l-10.6299 10.63"/>
        <path transform="matrix(-1 0 0 1 95.6694 .00042725)" id="path1171" d="M38.9764 474.803l-10.6299 10.63"/>
        <path transform="matrix(-1 0 0 1 124.0159 .00019836)" id="path1172" d="M38.9764 474.803l-10.6299 10.63"/>
        <path transform="matrix(-1 0 0 1 88.58276 .00012207)" id="path1173" d="M38.9764 474.803l-10.6299 10.63"/>
        <path transform="matrix(-1 0 0 1 81.49619 .00019836)" id="path1174" d="M38.9764 474.803l-10.6299 10.63"/>
        <path transform="matrix(-1 0 0 1 74.40956 .00027466)" id="path1175" d="M38.9764 474.803l-10.6299 10.63"/>
        <path transform="matrix(-1 0 0 1 67.32289 .00004578)" id="path1176" d="M38.9764 474.803l-10.6299 10.63"/>
      </g>
      <g transform="translate(-.00003576 60.23579)" id="g1177" stroke-width="1pt">
        <path id="path1178" d="M38.9764 474.803l-10.6299 10.63"/>
        <path transform="translate(7.08657 .00004578)" id="path1179" d="M38.9764 474.803l-10.6299 10.63"/>
        <path transform="translate(14.1732 .00012207)" id="path1180" d="M38.9764 474.803l-10.6299 10.63"/>
        <path transform="translate(21.25985 .00012207)" id="path1181" d="M38.9764 474.803l-10.6299 10.63"/>
        <path transform="translate(28.34641 .00004578)" id="path1182" d="M38.9764 474.803l-10.6299 10.63"/>
        <path transform="translate(35.43305 .00027466)" id="path1183" d="M38.9764 474.803l-10.6299 10.63"/>
        <path transform="translate(42.51964 .00012207)" id="path1184" d="M38.9764 474.803l-10.6299 10.63"/>
        <path transform="translate(49.60621 .00019836)" id="path1185" d="M38.9764 474.803l-10.6299 10.63"/>
        <path transform="translate(56.69289 .00012207)" id="path1186" d="M38.9764 474.803l-10.6299 10.63"/>
        <path transform="translate(63.77949 .00027466)" id="path1187" d="M38.9764 474.803l-10.6299 10.63"/>
        <path transform="translate(70.86606 .00035095)" id="path1188" d="M38.9764 474.803l-10.6299 10.63"/>
        <path transform="translate(77.95269 .00042725)" id="path1189" d="M38.9764 474.803l-10.6299 10.63"/>
        <path transform="translate(49.60621 .00019836)" id="path1190" d="M38.9764 474.803l-10.6299 10.63"/>
        <path transform="translate(85.03933 .00012207)" id="path1191" d="M38.9764 474.803l-10.6299 10.63"/>
        <path transform="translate(92.1259 .00019836)" id="path1192" d="M38.9764 474.803l-10.6299 10.63"/>
        <path transform="translate(99.21253 .00027466)" id="path1193" d="M38.9764 474.803l-10.6299 10.63"/>
        <path transform="translate(106.2992 .00004578)" id="path1194" d="M38.9764 474.803l-10.6299 10.63"/>
        <path transform="matrix(-1 0 0 1 173.6221 -.00003052)" id="path1195" d="M38.9764 474.803l-10.6299 10.63"/>
        <path transform="matrix(-1 0 0 1 166.5355 .00004578)" id="path1196" d="M38.9764 474.803l-10.6299 10.63"/>
        <path transform="matrix(-1 0 0 1 159.4489 .00012207)" id="path1197" d="M38.9764 474.803l-10.6299 10.63"/>
        <path transform="matrix(-1 0 0 1 152.3622 .00012207)" id="path1198" d="M38.9764 474.803l-10.6299 10.63"/>
        <path transform="matrix(-1 0 0 1 145.2757 .00004578)" id="path1199" d="M38.9764 474.803l-10.6299 10.63"/>
        <path transform="matrix(-1 0 0 1 138.1891 .00027466)" id="path1200" d="M38.9764 474.803l-10.6299 10.63"/>
        <path transform="matrix(-1 0 0 1 131.1024 .00012207)" id="path1201" d="M38.9764 474.803l-10.6299 10.63"/>
        <path transform="matrix(-1 0 0 1 124.0159 .00019836)" id="path1202" d="M38.9764 474.803l-10.6299 10.63"/>
        <path transform="matrix(-1 0 0 1 116.9292 .00012207)" id="path1203" d="M38.9764 474.803l-10.6299 10.63"/>
        <path transform="matrix(-1 0 0 1 109.8426 .00027466)" id="path1204" d="M38.9764 474.803l-10.6299 10.63"/>
        <path transform="matrix(-1 0 0 1 102.756 .00035095)" id="path1205" d="M38.9764 474.803l-10.6299 10.63"/>
        <path transform="matrix(-1 0 0 1 95.6694 .00042725)" id="path1206" d="M38.9764 474.803l-10.6299 10.63"/>
        <path transform="matrix(-1 0 0 1 124.0159 .00019836)" id="path1207" d="M38.9764 474.803l-10.6299 10.63"/>
        <path transform="matrix(-1 0 0 1 88.58276 .00012207)" id="path1208" d="M38.9764 474.803l-10.6299 10.63"/>
        <path transform="matrix(-1 0 0 1 81.49619 .00019836)" id="path1209" d="M38.9764 474.803l-10.6299 10.63"/>
        <path transform="matrix(-1 0 0 1 74.40956 .00027466)" id="path1210" d="M38.9764 474.803l-10.6299 10.63"/>
        <path transform="matrix(-1 0 0 1 67.32289 .00004578)" id="path1211" d="M38.9764 474.803l-10.6299 10.63"/>
      </g>
    </g>
    <g id="g1062">
      <rect y="467.71652" x="17.716539" width="138.18898" ry=".30405396" rx=".2890881" id="rect1061" height="85.039398" stroke-width="1.42975997"/>
      <rect y="471.25967" x="21.259844" width="131.10236" ry=".27871609" rx=".27426305" id="rect936" height="77.952759" stroke-width="1pt"/>
      <path transform="matrix(.68108 0 0 .5852 37.9721 260.7393)" id="path934" d="M64.9665 396.067l9.723.443.4419 5.745 7.955 5.303 6.1873-6.629 7.5131 5.303-7.0711 5.746 1.7678 7.955 8.8385-.442v10.607l-7.0707-.442-3.5356 6.629 7.9551 7.513-6.1873 6.187-6.6292-6.629-9.723 2.652.442 9.723-10.6068.884-1.3258-9.281-8.839-4.862-4.8614 6.629-7.5132-4.861 4.4195-7.513-5.3034-4.862H34.03l-.4419-13.7 7.5131.884 5.3034-7.955-6.1872-6.187 7.9551-7.071 5.7453 5.745 9.7229-1.768 1.3258-5.746z" stroke-width="1pt"/>
      <ellipse transform="matrix(.6582 0 0 .70224 38.84465 209.6248)" ry="9.9438629" rx="11.048731" id="path935" cy="426.78302" cx="68.944084" stroke-width="1pt"/>
      <g id="g991" stroke-width="1pt">
        <path id="path938" d="M38.9764 474.803l-10.6299 10.63"/>
        <path transform="translate(7.08657 .00004578)" id="path939" d="M38.9764 474.803l-10.6299 10.63"/>
        <path transform="translate(14.1732 .00012207)" id="path940" d="M38.9764 474.803l-10.6299 10.63"/>
        <path transform="translate(21.25985 .00012207)" id="path941" d="M38.9764 474.803l-10.6299 10.63"/>
        <path transform="translate(28.34641 .00004578)" id="path942" d="M38.9764 474.803l-10.6299 10.63"/>
        <path transform="translate(35.43305 .00027466)" id="path943" d="M38.9764 474.803l-10.6299 10.63"/>
        <path transform="translate(42.51964 .00012207)" id="path950" d="M38.9764 474.803l-10.6299 10.63"/>
        <path transform="translate(49.60621 .00019836)" id="path951" d="M38.9764 474.803l-10.6299 10.63"/>
        <path transform="translate(56.69289 .00012207)" id="path952" d="M38.9764 474.803l-10.6299 10.63"/>
        <path transform="translate(63.77949 .00027466)" id="path953" d="M38.9764 474.803l-10.6299 10.63"/>
        <path transform="translate(70.86606 .00035095)" id="path954" d="M38.9764 474.803l-10.6299 10.63"/>
        <path transform="translate(77.95269 .00042725)" id="path955" d="M38.9764 474.803l-10.6299 10.63"/>
        <path transform="translate(49.60621 .00019836)" id="path957" d="M38.9764 474.803l-10.6299 10.63"/>
        <path transform="translate(85.03933 .00012207)" id="path962" d="M38.9764 474.803l-10.6299 10.63"/>
        <path transform="translate(92.1259 .00019836)" id="path963" d="M38.9764 474.803l-10.6299 10.63"/>
        <path transform="translate(99.21253 .00027466)" id="path964" d="M38.9764 474.803l-10.6299 10.63"/>
        <path transform="translate(106.2992 .00004578)" id="path965" d="M38.9764 474.803l-10.6299 10.63"/>
        <path transform="matrix(-1 0 0 1 173.6221 -.00003052)" id="path974" d="M38.9764 474.803l-10.6299 10.63"/>
        <path transform="matrix(-1 0 0 1 166.5355 .00004578)" id="path975" d="M38.9764 474.803l-10.6299 10.63"/>
        <path transform="matrix(-1 0 0 1 159.4489 .00012207)" id="path976" d="M38.9764 474.803l-10.6299 10.63"/>
        <path transform="matrix(-1 0 0 1 152.3622 .00012207)" id="path977" d="M38.9764 474.803l-10.6299 10.63"/>
        <path transform="matrix(-1 0 0 1 145.2757 .00004578)" id="path978" d="M38.9764 474.803l-10.6299 10.63"/>
        <path transform="matrix(-1 0 0 1 138.1891 .00027466)" id="path979" d="M38.9764 474.803l-10.6299 10.63"/>
        <path transform="matrix(-1 0 0 1 131.1024 .00012207)" id="path980" d="M38.9764 474.803l-10.6299 10.63"/>
        <path transform="matrix(-1 0 0 1 124.0159 .00019836)" id="path981" d="M38.9764 474.803l-10.6299 10.63"/>
        <path transform="matrix(-1 0 0 1 116.9292 .00012207)" id="path982" d="M38.9764 474.803l-10.6299 10.63"/>
        <path transform="matrix(-1 0 0 1 109.8426 .00027466)" id="path983" d="M38.9764 474.803l-10.6299 10.63"/>
        <path transform="matrix(-1 0 0 1 102.756 .00035095)" id="path984" d="M38.9764 474.803l-10.6299 10.63"/>
        <path transform="matrix(-1 0 0 1 95.6694 .00042725)" id="path985" d="M38.9764 474.803l-10.6299 10.63"/>
        <path transform="matrix(-1 0 0 1 124.0159 .00019836)" id="path986" d="M38.9764 474.803l-10.6299 10.63"/>
        <path transform="matrix(-1 0 0 1 88.58276 .00012207)" id="path987" d="M38.9764 474.803l-10.6299 10.63"/>
        <path transform="matrix(-1 0 0 1 81.49619 .00019836)" id="path988" d="M38.9764 474.803l-10.6299 10.63"/>
        <path transform="matrix(-1 0 0 1 74.40956 .00027466)" id="path989" d="M38.9764 474.803l-10.6299 10.63"/>
        <path transform="matrix(-1 0 0 1 67.32289 .00004578)" id="path990" d="M38.9764 474.803l-10.6299 10.63"/>
      </g>
      <g transform="translate(-.00003576 60.23579)" id="g1026" stroke-width="1pt">
        <path id="path1027" d="M38.9764 474.803l-10.6299 10.63"/>
        <path transform="translate(7.08657 .00004578)" id="path1028" d="M38.9764 474.803l-10.6299 10.63"/>
        <path transform="translate(14.1732 .00012207)" id="path1029" d="M38.9764 474.803l-10.6299 10.63"/>
        <path transform="translate(21.25985 .00012207)" id="path1030" d="M38.9764 474.803l-10.6299 10.63"/>
        <path transform="translate(28.34641 .00004578)" id="path1031" d="M38.9764 474.803l-10.6299 10.63"/>
        <path transform="translate(35.43305 .00027466)" id="path1032" d="M38.9764 474.803l-10.6299 10.63"/>
        <path transform="translate(42.51964 .00012207)" id="path1033" d="M38.9764 474.803l-10.6299 10.63"/>
        <path transform="translate(49.60621 .00019836)" id="path1034" d="M38.9764 474.803l-10.6299 10.63"/>
        <path transform="translate(56.69289 .00012207)" id="path1035" d="M38.9764 474.803l-10.6299 10.63"/>
        <path transform="translate(63.77949 .00027466)" id="path1036" d="M38.9764 474.803l-10.6299 10.63"/>
        <path transform="translate(70.86606 .00035095)" id="path1037" d="M38.9764 474.803l-10.6299 10.63"/>
        <path transform="translate(77.95269 .00042725)" id="path1038" d="M38.9764 474.803l-10.6299 10.63"/>
        <path transform="translate(49.60621 .00019836)" id="path1039" d="M38.9764 474.803l-10.6299 10.63"/>
        <path transform="translate(85.03933 .00012207)" id="path1040" d="M38.9764 474.803l-10.6299 10.63"/>
        <path transform="translate(92.1259 .00019836)" id="path1041" d="M38.9764 474.803l-10.6299 10.63"/>
        <path transform="translate(99.21253 .00027466)" id="path1042" d="M38.9764 474.803l-10.6299 10.63"/>
        <path transform="translate(106.2992 .00004578)" id="path1043" d="M38.9764 474.803l-10.6299 10.63"/>
        <path transform="matrix(-1 0 0 1 173.6221 -.00003052)" id="path1044" d="M38.9764 474.803l-10.6299 10.63"/>
        <path transform="matrix(-1 0 0 1 166.5355 .00004578)" id="path1045" d="M38.9764 474.803l-10.6299 10.63"/>
        <path transform="matrix(-1 0 0 1 159.4489 .00012207)" id="path1046" d="M38.9764 474.803l-10.6299 10.63"/>
        <path transform="matrix(-1 0 0 1 152.3622 .00012207)" id="path1047" d="M38.9764 474.803l-10.6299 10.63"/>
        <path transform="matrix(-1 0 0 1 145.2757 .00004578)" id="path1048" d="M38.9764 474.803l-10.6299 10.63"/>
        <path transform="matrix(-1 0 0 1 138.1891 .00027466)" id="path1049" d="M38.9764 474.803l-10.6299 10.63"/>
        <path transform="matrix(-1 0 0 1 131.1024 .00012207)" id="path1050" d="M38.9764 474.803l-10.6299 10.63"/>
        <path transform="matrix(-1 0 0 1 124.0159 .00019836)" id="path1051" d="M38.9764 474.803l-10.6299 10.63"/>
        <path transform="matrix(-1 0 0 1 116.9292 .00012207)" id="path1052" d="M38.9764 474.803l-10.6299 10.63"/>
        <path transform="matrix(-1 0 0 1 109.8426 .00027466)" id="path1053" d="M38.9764 474.803l-10.6299 10.63"/>
        <path transform="matrix(-1 0 0 1 102.756 .00035095)" id="path1054" d="M38.9764 474.803l-10.6299 10.63"/>
        <path transform="matrix(-1 0 0 1 95.6694 .00042725)" id="path1055" d="M38.9764 474.803l-10.6299 10.63"/>
        <path transform="matrix(-1 0 0 1 124.0159 .00019836)" id="path1056" d="M38.9764 474.803l-10.6299 10.63"/>
        <path transform="matrix(-1 0 0 1 88.58276 .00012207)" id="path1057" d="M38.9764 474.803l-10.6299 10.63"/>
        <path transform="matrix(-1 0 0 1 81.49619 .00019836)" id="path1058" d="M38.9764 474.803l-10.6299 10.63"/>
        <path transform="matrix(-1 0 0 1 74.40956 .00027466)" id="path1059" d="M38.9764 474.803l-10.6299 10.63"/>
        <path transform="matrix(-1 0 0 1 67.32289 .00004578)" id="path1060" d="M38.9764 474.803l-10.6299 10.63"/>
      </g>
    </g>
    <g transform="matrix(-1 0 0 1 635.4073 3.535583)" id="g910">
      <path transform="matrix(1.6191 -.71484 1.01561 1.13962 -1010.882 421.7554)" id="path911" d="M538.583 531.496c1.717 166.555 24.803 201.969 3.543 201.969s-31.89-92.07-31.89-205.512c0-113.443 14.173-205.512 35.433-205.512 21.26 0-8.913 31.909-7.086 209.055z" stroke-width="1pt"/>
      <path id="path912" d="M545.669 779.528l-60.236 17.716c56.693 60.236 120.474 85.039 138.189 74.409 17.717-10.629-31.89-35.433-77.953-92.125z" stroke-width="1.25"/>
      <path transform="matrix(.97408 0 0 .96154 12.58435 29.97754)" id="path913" d="M547.272 786.898l-50.926 14.74c56.693 60.236 112.766 77.385 127.276 70.015 14.591-7.37-30.287-28.063-76.35-84.755z" stroke-width="1.29159999"/>
      <path transform="matrix(.70423 0 0 .69959 111.9472 190.5298)" id="path914" d="M353.131 634.23c.187 1.273.748 7.068 1.25 9.375 0 3.186.288 5.632.625 8.125.796 2.177.661 4.198 3.125 5.001 1.694 2.631 2.76 3.313 5 4.375 1.527 1.323 3.84 2.642 6.25 3.75 2.499 1.071 4.771 1.218 7.5.625 2.19-1.526 3.804-3.1 5.625-4.375.429-1.973.822-4.903 1.25-6.875-.674 2.024-1.147 5.265-1.25 8.125.24 3.12 1.265 4.481 2.5 6.875" stroke-width="1.78086996"/>
      <path transform="matrix(.70423 0 0 .69959 102.704 186.5945)" id="path915" d="M389.382 681.731c.208-.208.416-.417.625-.625-1.484 1.484-.878.776 2.5-1.25 2.426-1.246 5.015-1.908 8.125-2.5h8.75c3.405 0 5.696.511 8.125 1.25 1.762 1.762 4.393 2.763 6.25 4.375 1.905 1.295 2.722 2.829 3.75 5 1.701 1.701 2.803 4.326 4.375 5.625.704 2.871 2.141 2.773 3.125 5-2.948.227-5.311.631-6.875 2.5-2.597 1.344 2.179-1.317 3.125-2.5 2.046-.618 2.576-1.25 5.625-1.25 2.85-.904 4.579.737 7.5 1.25 1.705.987 2.178 1.25 4.376 1.25" stroke-width="1.78086996"/>
      <path transform="matrix(.70423 0 0 .69959 92.14046 178.2868)" id="path916" d="M438.132 724.857c1.273.075 7.083 1.146 9.376 0 2.552-.696 4.068-2.04 5.625-4.375.767-1.689 0 2.998 0 5 .283 3.68 1.366 3.714 3.125 6.25 1.814 1.163 3.725 2.8 5.625 3.75 1.576 1.366 3.513 2.28 5.625 3.125 1.896.898 4.111 1.813 5.625 3.125 2.09 1.493 1.888 3.278 3.125 5.625-.235 3.057-.733 4.79-2.5 6.25-.738 2.113-2.395 4.205-3.75 5.625-1.545 2.87-3.256 4.224.625 5 2.132.914 3.327.197 5.625 0" stroke-width="1.78086996"/>
      <path transform="matrix(.70423 0 0 .69959 89.9397 176.1006)" id="path917" d="M480.633 771.732c1.536-.391 6.983-2.213 9.375-3.125h8.75c3.391.261 4.037 1.256 6.876 2.5 1.832 1.871 3.089 3.162 5.625 4.376 1.341 1.733 3.953 4.677 5 6.875.745 2.133 1.25 5.018 1.25 8.125-.044 3.648-1.002 4.271-1.25 7.5-.701 2.684-1.839 5.143-3.75 7.5-.265.793-.457.986-1.25 1.25" stroke-width="1.78086996"/>
      <path transform="matrix(.5 0 0 .55224 180.3163 294.4758)" id="path918" d="M538.134 817.983c.374 0 1.201 2.018 2.5 3.75 2.828 2.906 3.192 3.125 7.5 3.125 3.884-.143 3.522-1.532 6.25-2.5 1.289-2.008 2.896-3.6 4.375-6.25 1.006-1.634 1.89-4.129 3.125-5.625 1.141-1.854 2.563-3.254 3.75-5 1.172-.502 1.618-.984 3.126-1.25-3.6.578-3.915 1.867-6.251 3.75-1.094 1.779-2.181 3.633-3.125 5.625-.361 2.673-1.21 4.779-1.25 8.125 0 3.457.017 5.872 1.25 8.75 1.473 1.545 2.563 3.143 4.375 4.376 1.439 1.405 3.244 3.336 4.376 5 1.96 1.206 3.385 2.189 5.625 3.75 1.884 1.102 3.915 2.234 6.875 2.5 3.67-.262 4.755-1.297 7.5-2.5 2.329-1.713 4.163-2.838 6.25-4.375 1.629-1.141 3.288-3.403 4.375-5 3.382-.846 5.529-.508 7.5 1.25 1.718 1.167 3.207 2.657 4.375 4.375 1.02.51 2.73 1.99 3.75 2.5" stroke-width="2.37881994"/>
      <path transform="matrix(.62163 0 0 .68918 170.6563 184.25)" id="path919" d="M503.758 836.109c-.802.334-3.717 2.367-5 3.125-.8 2.631-2.077 4.069-2.5 6.875-.677 2.709-.625 5.692-.625 8.75.685 3.194 2.015 5.557 3.125 8.125 1.974 1.342 2.967 2.33 5.625 3.75 2.494.337 4.94.625 8.126.625 1.904.635 5.615.942 7.5 0 2.783-.376 4.854-1.507 6.875-2.5 2.306-1.307 3.728-2.542 6.25-3.75 1.225-1.801 3.13-3.46 5-5.625 1.556-2.105 2.7-3.286 3.75-5.625-.924 2.669-2.327 4.999-3.125 7.5-1.422 2.661-2.248 3.604-2.5 6.875-.871 2.613-.625 5.76-.625 8.75.274 2.031.418 5.837 1.25 7.5v1.875" stroke-width="1.90974998"/>
      <path id="path920" d="M541.259 799.233v.625c0-1.687.041-.83-.625 2.5-1.179 1.462-3.944 1.868-6.25 1.25-2.022-1.67-1.96-2.935-5.625-3.75-3.542.253-4.892 1.279-6.875 2.5-2.354 1.177-3.438 1.771-5 4.375-.776 2.12-1.209 3.555 1.25 4.375 1.954 1.386 4.277 2.149 6.875 2.5 2.887 0 4.968-.339 6.25 1.25 1.983 2.055 1.875 3.277 1.875 6.875.667 1.112.799 4.394 1.25 5.625 1.736.823 2.755 1.25 5.625 1.25.674-1.931 1.423-5.419 1.875-7.5.489-2.248.64-5.379 1.875-6.875 1.168-1.717 2.658-3.207 4.375-4.375.766-1.073 2.223-1.965 3.75-2.5-2.452 1.251-2.801 2.603-3.125 5.625 2.155 1.078 2.731 1.833 6.25 1.875 3.459-.291 4.295-1.169 5.625-3.125.242 3.136 1.243 4.186 1.875 6.875 1.286 1.891 1.832 3.828 3.125 6.25-.551 3.012-1.737 3.163-1.875 6.875-.811 2.435-.723 4.783-2.5 6.251-.792.968-1.384 1.158-3.125 1.25 3.618 0 5.727-.391 8.125-1.875 1.854-1.141 3.255-2.563 5.001-3.75 2.212-1.603 4.947-3.085 7.5-3.751 2.887 0 4.968-.339 6.25 1.25 1.77 1.265 2.959 3.447 3.75 6.251.579 3.244.8 5.404-.625 7.5-1.057 2.408-1.297 3.346 0 6.25 1.452 2.033 3.617 2.272 6.875 3.125 2.379-.128 4.668-.671 6.25-1.25" stroke-width="1.25"/>
    </g>
    <g transform="matrix(-1 0 0 1 635.4073 3.535583)" id="g921">
      <path transform="matrix(1.42159 -.73423 .4616 .89375 -716.8375 541.0713)" id="path922" d="M531.496 359.645c0-165.274 7.937-299.4088 17.717-299.4088 9.779 0 17.716 134.1348 17.716 299.4088h-35.433z" fill="#fff" stroke="#db161b" stroke-width="1pt" stroke-opacity="1"/>
      <path transform="matrix(1.13728 -.58739 .44532 .8622 -554.8326 471.7695)" id="path923" d="M531.496 359.645c0-165.274 7.937-299.4088 17.717-299.4088 9.779 0 17.716 134.1348 17.716 299.4088" fill="#fff" stroke="#db161b" stroke-width="1pt" stroke-opacity="1"/>
      <path transform="matrix(1.42159 -.73423 .4589 .8885 -716.6739 541.3881)" id="path924" d="M563.386 301.181c.189 18.908 0 40.188 0 60.236h-28.347c0-20.048-.189-41.328 0-60.236h28.347z" fill="#fff" stroke="#db161b" stroke-width="1pt" stroke-opacity="1"/>
      <path transform="matrix(1.42159 -.73423 .4589 .8885 -716.6739 541.3881)" id="path925" d="M559.843 304.724c.189 18.908 0 33.102 0 53.15h-21.26c0-20.048-.189-34.242 0-53.15h21.26z" fill="#fff" stroke="#db161b" stroke-width="1pt" stroke-opacity="1"/>
      <path transform="matrix(1.42159 -.73423 .4589 .8885 -716.6739 541.3881)" id="rect926" fill="#fff" stroke="#db161b" stroke-width="1pt" stroke-opacity="1" d="M542.12598 311.81104h14.173218v38.976379H542.12598z"/>
      <path transform="matrix(1.42159 -.73423 .4589 .8885 -716.6739 541.3881)" id="path927" d="M542.126 311.811l14.173 38.976" fill="#fff" stroke="#db161b" stroke-width="1pt" stroke-opacity="1"/>
      <path transform="matrix(1.42159 -.73423 .4589 .8885 -716.6739 541.3881)" id="path928" d="M542.126 350.787l14.173-38.976" fill="#fff" stroke="#db161b" stroke-width="1pt" stroke-opacity="1"/>
      <path transform="matrix(1.42159 -.73423 .4589 .8885 -716.6739 541.3881)" id="path929" d="M542.126 113.386h14.173" fill="#fff" stroke="#db161b" stroke-width="1pt" stroke-opacity="1"/>
      <ellipse transform="matrix(1.60456 .45375 -.36215 1.5787 -734.9006 -170.8541)" ry="3.5433199" rx="3.543304" id="path930" cy="92.125977" cx="545.66931" fill="#db161b" stroke="none"/>
    </g>
    <g id="g899">
      <path transform="matrix(1.6191 -.71484 1.01561 1.13962 -1010.882 421.7554)" id="path835" d="M538.583 531.496c1.717 166.555 24.803 201.969 3.543 201.969s-31.89-92.07-31.89-205.512c0-113.443 14.173-205.512 35.433-205.512 21.26 0-8.913 31.909-7.086 209.055z" stroke-width="1pt"/>
      <path id="path842" d="M545.669 779.528l-60.236 17.716c56.693 60.236 120.474 85.039 138.189 74.409 17.717-10.629-31.89-35.433-77.953-92.125z" stroke-width="1.25"/>
      <path transform="matrix(.97408 0 0 .96154 12.58435 29.97754)" id="path843" d="M547.272 786.898l-50.926 14.74c56.693 60.236 112.766 77.385 127.276 70.015 14.591-7.37-30.287-28.063-76.35-84.755z" stroke-width="1.29159999"/>
      <path transform="matrix(.70423 0 0 .69959 111.9472 190.5298)" id="path871" d="M353.131 634.23c.187 1.273.748 7.068 1.25 9.375 0 3.186.288 5.632.625 8.125.796 2.177.661 4.198 3.125 5.001 1.694 2.631 2.76 3.313 5 4.375 1.527 1.323 3.84 2.642 6.25 3.75 2.499 1.071 4.771 1.218 7.5.625 2.19-1.526 3.804-3.1 5.625-4.375.429-1.973.822-4.903 1.25-6.875-.674 2.024-1.147 5.265-1.25 8.125.24 3.12 1.265 4.481 2.5 6.875" stroke-width="1.78086996"/>
      <path transform="matrix(.70423 0 0 .69959 102.704 186.5945)" id="path872" d="M389.382 681.731c.208-.208.416-.417.625-.625-1.484 1.484-.878.776 2.5-1.25 2.426-1.246 5.015-1.908 8.125-2.5h8.75c3.405 0 5.696.511 8.125 1.25 1.762 1.762 4.393 2.763 6.25 4.375 1.905 1.295 2.722 2.829 3.75 5 1.701 1.701 2.803 4.326 4.375 5.625.704 2.871 2.141 2.773 3.125 5-2.948.227-5.311.631-6.875 2.5-2.597 1.344 2.179-1.317 3.125-2.5 2.046-.618 2.576-1.25 5.625-1.25 2.85-.904 4.579.737 7.5 1.25 1.705.987 2.178 1.25 4.376 1.25" stroke-width="1.78086996"/>
      <path transform="matrix(.70423 0 0 .69959 92.14046 178.2868)" id="path873" d="M438.132 724.857c1.273.075 7.083 1.146 9.376 0 2.552-.696 4.068-2.04 5.625-4.375.767-1.689 0 2.998 0 5 .283 3.68 1.366 3.714 3.125 6.25 1.814 1.163 3.725 2.8 5.625 3.75 1.576 1.366 3.513 2.28 5.625 3.125 1.896.898 4.111 1.813 5.625 3.125 2.09 1.493 1.888 3.278 3.125 5.625-.235 3.057-.733 4.79-2.5 6.25-.738 2.113-2.395 4.205-3.75 5.625-1.545 2.87-3.256 4.224.625 5 2.132.914 3.327.197 5.625 0" stroke-width="1.78086996"/>
      <path transform="matrix(.70423 0 0 .69959 89.9397 176.1006)" id="path874" d="M480.633 771.732c1.536-.391 6.983-2.213 9.375-3.125h8.75c3.391.261 4.037 1.256 6.876 2.5 1.832 1.871 3.089 3.162 5.625 4.376 1.341 1.733 3.953 4.677 5 6.875.745 2.133 1.25 5.018 1.25 8.125-.044 3.648-1.002 4.271-1.25 7.5-.701 2.684-1.839 5.143-3.75 7.5-.265.793-.457.986-1.25 1.25" stroke-width="1.78086996"/>
      <path transform="matrix(.5 0 0 .55224 180.3163 294.4758)" id="path877" d="M538.134 817.983c.374 0 1.201 2.018 2.5 3.75 2.828 2.906 3.192 3.125 7.5 3.125 3.884-.143 3.522-1.532 6.25-2.5 1.289-2.008 2.896-3.6 4.375-6.25 1.006-1.634 1.89-4.129 3.125-5.625 1.141-1.854 2.563-3.254 3.75-5 1.172-.502 1.618-.984 3.126-1.25-3.6.578-3.915 1.867-6.251 3.75-1.094 1.779-2.181 3.633-3.125 5.625-.361 2.673-1.21 4.779-1.25 8.125 0 3.457.017 5.872 1.25 8.75 1.473 1.545 2.563 3.143 4.375 4.376 1.439 1.405 3.244 3.336 4.376 5 1.96 1.206 3.385 2.189 5.625 3.75 1.884 1.102 3.915 2.234 6.875 2.5 3.67-.262 4.755-1.297 7.5-2.5 2.329-1.713 4.163-2.838 6.25-4.375 1.629-1.141 3.288-3.403 4.375-5 3.382-.846 5.529-.508 7.5 1.25 1.718 1.167 3.207 2.657 4.375 4.375 1.02.51 2.73 1.99 3.75 2.5" stroke-width="2.37881994"/>
      <path transform="matrix(.62163 0 0 .68918 170.6563 184.25)" id="path878" d="M503.758 836.109c-.802.334-3.717 2.367-5 3.125-.8 2.631-2.077 4.069-2.5 6.875-.677 2.709-.625 5.692-.625 8.75.685 3.194 2.015 5.557 3.125 8.125 1.974 1.342 2.967 2.33 5.625 3.75 2.494.337 4.94.625 8.126.625 1.904.635 5.615.942 7.5 0 2.783-.376 4.854-1.507 6.875-2.5 2.306-1.307 3.728-2.542 6.25-3.75 1.225-1.801 3.13-3.46 5-5.625 1.556-2.105 2.7-3.286 3.75-5.625-.924 2.669-2.327 4.999-3.125 7.5-1.422 2.661-2.248 3.604-2.5 6.875-.871 2.613-.625 5.76-.625 8.75.274 2.031.418 5.837 1.25 7.5v1.875" stroke-width="1.90974998"/>
      <path id="path879" d="M541.259 799.233v.625c0-1.687.041-.83-.625 2.5-1.179 1.462-3.944 1.868-6.25 1.25-2.022-1.67-1.96-2.935-5.625-3.75-3.542.253-4.892 1.279-6.875 2.5-2.354 1.177-3.438 1.771-5 4.375-.776 2.12-1.209 3.555 1.25 4.375 1.954 1.386 4.277 2.149 6.875 2.5 2.887 0 4.968-.339 6.25 1.25 1.983 2.055 1.875 3.277 1.875 6.875.667 1.112.799 4.394 1.25 5.625 1.736.823 2.755 1.25 5.625 1.25.674-1.931 1.423-5.419 1.875-7.5.489-2.248.64-5.379 1.875-6.875 1.168-1.717 2.658-3.207 4.375-4.375.766-1.073 2.223-1.965 3.75-2.5-2.452 1.251-2.801 2.603-3.125 5.625 2.155 1.078 2.731 1.833 6.25 1.875 3.459-.291 4.295-1.169 5.625-3.125.242 3.136 1.243 4.186 1.875 6.875 1.286 1.891 1.832 3.828 3.125 6.25-.551 3.012-1.737 3.163-1.875 6.875-.811 2.435-.723 4.783-2.5 6.251-.792.968-1.384 1.158-3.125 1.25 3.618 0 5.727-.391 8.125-1.875 1.854-1.141 3.255-2.563 5.001-3.75 2.212-1.603 4.947-3.085 7.5-3.751 2.887 0 4.968-.339 6.25 1.25 1.77 1.265 2.959 3.447 3.75 6.251.579 3.244.8 5.404-.625 7.5-1.057 2.408-1.297 3.346 0 6.25 1.452 2.033 3.617 2.272 6.875 3.125 2.379-.128 4.668-.671 6.25-1.25" stroke-width="1.25"/>
    </g>
    <g id="g889">
      <path transform="matrix(1.42159 -.73423 .4616 .89375 -716.8375 541.0713)" id="path847" d="M531.496 359.645c0-165.274 7.937-299.4088 17.717-299.4088 9.779 0 17.716 134.1348 17.716 299.4088h-35.433z" fill="#fff" stroke="#db161b" stroke-width="1pt" stroke-opacity="1"/>
      <path transform="matrix(1.13728 -.58739 .44532 .8622 -554.8326 471.7695)" id="path856" d="M531.496 359.645c0-165.274 7.937-299.4088 17.717-299.4088 9.779 0 17.716 134.1348 17.716 299.4088" fill="#fff" stroke="#db161b" stroke-width="1pt" stroke-opacity="1"/>
      <path transform="matrix(1.42159 -.73423 .4589 .8885 -716.6739 541.3881)" id="path850" d="M563.386 301.181c.189 18.908 0 40.188 0 60.236h-28.347c0-20.048-.189-41.328 0-60.236h28.347z" fill="#fff" stroke="#db161b" stroke-width="1pt" stroke-opacity="1"/>
      <path transform="matrix(1.42159 -.73423 .4589 .8885 -716.6739 541.3881)" id="path852" d="M559.843 304.724c.189 18.908 0 33.102 0 53.15h-21.26c0-20.048-.189-34.242 0-53.15h21.26z" fill="#fff" stroke="#db161b" stroke-width="1pt" stroke-opacity="1"/>
      <path transform="matrix(1.42159 -.73423 .4589 .8885 -716.6739 541.3881)" id="rect853" fill="#fff" stroke="#db161b" stroke-width="1pt" stroke-opacity="1" d="M542.12598 311.81104h14.173218v38.976379H542.12598z"/>
      <path transform="matrix(1.42159 -.73423 .4589 .8885 -716.6739 541.3881)" id="path854" d="M542.126 311.811l14.173 38.976" fill="#fff" stroke="#db161b" stroke-width="1pt" stroke-opacity="1"/>
      <path transform="matrix(1.42159 -.73423 .4589 .8885 -716.6739 541.3881)" id="path855" d="M542.126 350.787l14.173-38.976" fill="#fff" stroke="#db161b" stroke-width="1pt" stroke-opacity="1"/>
      <path transform="matrix(1.42159 -.73423 .4589 .8885 -716.6739 541.3881)" id="path857" d="M542.126 113.386h14.173" fill="#fff" stroke="#db161b" stroke-width="1pt" stroke-opacity="1"/>
      <ellipse transform="matrix(1.60456 .45375 -.36215 1.5787 -734.9006 -170.8541)" ry="3.5433199" rx="3.543304" id="path858" cy="92.125977" cx="545.66931" fill="#db161b" stroke="none"/>
    </g>
    <g id="g694">
      <path transform="matrix(1.33334 0 0 1 -141.7363 .00042725)" id="path552" d="M305.611 396.85c0 124.016.491 170.76-5.62 177.166-5.79 6.857-167.115 0-167.115 35.433s132.873 70.867 172.735 70.866c53.149 0 79.723-35.433 79.723-106.299V396.85h-79.723z" stroke-width="1pt"/>
      <path transform="matrix(1 0 0 .99999 .00002384 35.43744)" id="path564" d="M265.748 396.85v17.717c35.433 5.906 70.866 5.906 106.299 0V396.85c-35.433 5.906-70.866 5.906-106.299 0z" stroke-width="1pt"/>
      <path transform="matrix(1 0 0 .99999 .0002098 .00408936)" id="path562" d="M265.748 396.85v17.717c35.433 5.906 70.866 5.906 106.299 0V396.85c-35.433 5.906-70.866 5.906-106.299 0z" stroke-width="1pt"/>
      <path transform="matrix(1 0 0 .99999 .0002098 17.72092)" id="path563" d="M265.748 396.85v17.717c35.433 5.906 70.866 5.906 106.299 0V396.85c-35.433 5.906-70.866 5.906-106.299 0z" stroke-width="1pt"/>
      <path transform="matrix(1 0 0 .99999 .00001907 53.15366)" id="path565" d="M265.748 396.85v17.717c35.433 5.906 70.866 5.906 106.299 0V396.85c-35.433 5.906-70.866 5.906-106.299 0z" stroke-width="1pt"/>
      <ellipse transform="matrix(.54545 0 0 .14383 130.4582 394.3166)" ry="26.574783" rx="8.8582611" id="path570" cy="210.82677" cx="256.88977" stroke-width="4.46283007"/>
      <ellipse transform="matrix(.54545 0 0 .14383 130.4585 391.1314)" ry="26.574783" rx="8.8582611" id="path571" cy="246.25981" cx="292.32281" stroke-width="4.46283007"/>
      <ellipse transform="matrix(.54545 0 0 .14383 130.4585 390.4946)" ry="26.574829" rx="8.8582764" id="path572" cy="263.97638" cx="327.75592" stroke-width="4.46285009"/>
      <ellipse transform="matrix(.54545 0 0 .14383 130.4585 390.4946)" ry="26.574829" rx="8.8582611" id="path573" cy="263.97638" cx="363.18896" stroke-width="4.46285009"/>
      <ellipse transform="matrix(.54545 0 0 .14383 130.4585 391.1314)" ry="26.574783" rx="8.8582611" id="path574" cy="246.25981" cx="398.62207" stroke-width="4.46283007"/>
      <ellipse transform="matrix(.54545 0 0 .14383 130.4583 394.3166)" ry="26.574783" rx="8.8582764" id="path575" cy="210.82677" cx="434.05511" stroke-width="4.46283007"/>
      <path id="path582" d="M265.748 485.433l106.299 95.669" stroke-width="1pt"/>
      <path id="path583" d="M276.378 485.433l95.669 85.039" stroke-width="1pt"/>
      <path id="path586" d="M290.551 488.976l81.496 70.866" stroke-width="1pt"/>
      <path id="path587" d="M301.181 488.976l70.866 60.237" stroke-width="1pt"/>
      <path id="path588" d="M311.811 488.976l60.236 49.607" stroke-width="1pt"/>
      <path id="path589" d="M322.441 488.976l49.606 38.977" stroke-width="1pt"/>
      <path id="path590" d="M333.071 488.976l38.976 28.347" stroke-width="1pt"/>
      <path id="path591" d="M343.701 488.976l28.346 21.26" stroke-width="1pt"/>
      <path id="path592" d="M354.331 488.976l17.716 14.174" stroke-width="1pt"/>
      <path id="path593" d="M364.961 488.976l7.086 7.087" stroke-width="1pt"/>
      <path id="path594" d="M265.74822888 496.063l106.299 95.669" stroke-width="1pt"/>
      <path id="path595" d="M372.0473 485.43296948l-116.929 106.299" stroke-width="1pt"/>
      <path id="path596" d="M361.4173 485.43296948l-102.756 92.126" stroke-width="1pt"/>
      <path id="path597" d="M347.2443 488.97596948l-81.496 70.866" stroke-width="1pt"/>
      <path id="path598" d="M336.6143 488.97596948l-70.866 60.237" stroke-width="1pt"/>
      <path id="path599" d="M325.9843 488.97596948l-60.236 49.607" stroke-width="1pt"/>
      <path id="path600" d="M315.3543 488.97596948l-49.606 38.977" stroke-width="1pt"/>
      <path id="path601" d="M304.7243 488.97596948l-38.976 28.347" stroke-width="1pt"/>
      <path id="path602" d="M294.0943 488.97596948l-28.346 21.26" stroke-width="1pt"/>
      <path id="path603" d="M283.4643 488.97596948l-17.716 14.174" stroke-width="1pt"/>
      <path id="path604" d="M272.8343 488.97596948l-7.086 7.087" stroke-width="1pt"/>
      <path id="path605" d="M372.047 496.063L255.118 602.362" stroke-width="1pt"/>
      <path id="path606" d="M372.047 506.69289l-116.929 106.299" stroke-width="1pt"/>
      <path id="path607" d="M372.0472 517.32308l-116.929 106.299" stroke-width="1pt"/>
      <path id="path608" d="M372.0472 527.95273l-116.929 106.299" stroke-width="1pt"/>
      <path id="path609" d="M372.0472 538.58299l-116.929 106.299" stroke-width="1pt"/>
      <path id="path610" d="M372.0472 549.21288l-116.929 106.299" stroke-width="1pt"/>
      <path id="path611" d="M372.0472 559.84276l-116.929 106.299" stroke-width="1pt"/>
      <path id="path612" d="M372.0472 570.47272l-116.929 106.299" stroke-width="1pt"/>
      <path id="path613" d="M372.047 581.10268l-109.842 99.212" stroke-width="1pt"/>
      <path id="path614" d="M372.047 591.7323l-99.212 88.583" stroke-width="1pt"/>
      <path id="path615" d="M368.504 605.9055l-77.953 70.866" stroke-width="1pt"/>
      <path id="path616" d="M364.9606 620.0787l-63.779 56.693" stroke-width="1pt"/>
      <path id="path617" d="M357.874 637.7956l-31.89 28.346" stroke-width="1pt"/>
      <path id="path618" d="M265.74822888 506.69319l102.756 92.126" stroke-width="1pt"/>
      <path id="path619" d="M265.747718 517.32253l102.756 92.126" stroke-width="1pt"/>
      <path id="path620" d="M265.747947 527.95256l99.213 88.583" stroke-width="1pt"/>
      <path id="path621" d="M265.747947 538.58275l99.213 88.583" stroke-width="1pt"/>
      <path id="path622" d="M265.748399 549.21293l95.669 85.039" stroke-width="1pt"/>
      <path id="path623" d="M262.204628 556.29897l95.669 85.04" stroke-width="1pt"/>
      <path id="path624" d="M262.204628 566.92916l88.583 77.953" stroke-width="1pt"/>
      <path id="path625" d="M258.661399 574.01566l88.583 77.953" stroke-width="1pt"/>
      <path id="path626" d="M255.117628 581.10269l85.04 74.409" stroke-width="1pt"/>
      <path id="path627" d="M255.118418 591.7326l81.496 70.865" stroke-width="1pt"/>
      <path id="path628" d="M255.118399 602.3625l70.866 63.779" stroke-width="1pt"/>
      <path transform="matrix(1 0 0 .99999 .00021458 70.87018)" id="path636" d="M265.748 396.85v17.717c35.433 5.906 70.866 5.906 106.299 0V396.85c-35.433 5.906-70.866 5.906-106.299 0z" stroke-width="1pt"/>
      <path id="path629" d="M255.117628 612.9926l63.78 56.692" stroke-width="1pt"/>
      <path id="path630" d="M255.117628 623.6218l56.693 49.606" stroke-width="1pt"/>
      <path id="path631" d="M255.118399 634.2522l49.606 42.519" stroke-width="1pt"/>
      <path id="path632" d="M255.117628 644.8822l35.434 31.889" stroke-width="1pt"/>
      <path id="path633" d="M255.117628 655.5114l28.347 24.804" stroke-width="1pt"/>
      <path id="path634" d="M255.118418 666.142l17.716 14.173" stroke-width="1pt"/>
      <ellipse transform="matrix(.54545 0 0 .14383 130.4582 447.4662)" ry="26.574783" rx="8.8582611" id="path576" cy="210.82677" cx="256.88977" stroke-width="4.46283007"/>
      <ellipse transform="matrix(.54545 0 0 .14383 130.4585 444.2811)" ry="26.574783" rx="8.8582611" id="path577" cy="246.25981" cx="292.32281" stroke-width="4.46283007"/>
      <ellipse transform="matrix(.54545 0 0 .14383 130.4585 443.6442)" ry="26.574829" rx="8.8582764" id="path578" cy="263.97638" cx="327.75592" stroke-width="4.46285009"/>
      <ellipse transform="matrix(.54545 0 0 .14383 130.4585 443.6442)" ry="26.574829" rx="8.8582611" id="path579" cy="263.97638" cx="363.18896" stroke-width="4.46285009"/>
      <ellipse transform="matrix(.54545 0 0 .14383 130.4585 444.2811)" ry="26.574783" rx="8.8582611" id="path580" cy="246.25981" cx="398.62207" stroke-width="4.46283007"/>
      <ellipse transform="matrix(.54545 0 0 .14383 130.4583 447.4662)" ry="26.574783" rx="8.8582764" id="path581" cy="210.82677" cx="434.05511" stroke-width="4.46283007"/>
      <path id="path638" d="M113.386 651.968l127.559-74.409" stroke-width="1pt"/>
      <path id="path639" d="M106.299208 648.424726l120.472-70.866" stroke-width="1pt"/>
      <path id="path640" d="M102.75596 641.33854l109.842-63.78" stroke-width="1pt"/>
      <path id="path641" d="M99.21259 634.25191l95.669-56.693" stroke-width="1pt"/>
      <path id="path642" d="M92.12574 627.1652l88.583-49.606" stroke-width="1pt"/>
      <path id="path643" d="M95.66975 616.53534l60.236-35.433" stroke-width="1pt"/>
      <path id="path644" d="M92.1259 609.44856l46.063-28.346" stroke-width="1pt"/>
      <path id="path645" d="M92.12552 598.81893l31.89-17.717" stroke-width="1pt"/>
      <path id="path654" d="M124.016129 655.512067l120.472-70.866" stroke-width="1pt"/>
      <path id="path655" d="M134.645506 659.05471l113.386-67.322" stroke-width="1pt"/>
      <path id="path656" d="M145.27575 662.59889l106.299-63.78" stroke-width="1pt"/>
      <path id="path657" d="M155.90567 666.14159l88.583-53.15" stroke-width="1pt"/>
      <path id="path658" d="M170.07911 666.14141l77.952-46.063" stroke-width="1pt"/>
      <path id="path659" d="M180.70897 669.68465l67.323-38.976" stroke-width="1pt"/>
      <path id="path660" d="M191.33828 673.22875l53.15-31.89" stroke-width="1pt"/>
      <path id="path661" d="M205.51165 673.22839l42.52-24.803" stroke-width="1pt"/>
      <path id="path662" d="M219.68457 676.77171l28.347-17.717" stroke-width="1pt"/>
      <path id="path663" d="M233.85781 676.77127l17.717-10.63" stroke-width="1pt"/>
      <path transform="matrix(0 1 -.99999 0 655.5074 308.2679)" id="path635" d="M265.748 396.85v17.717c35.433 5.906 70.866 5.906 106.299 0V396.85c-35.433 5.906-70.866 5.906-106.299 0z" stroke-width="1pt"/>
      <path id="path664" d="M49.606 623.621864l42.52-35.433" stroke-width="1pt"/>
      <path id="path665" d="M49.606 598.819l42.52 42.52" stroke-width="1pt"/>
      <path transform="matrix(0 .63333 -.8 0 423.7777 416.3388)" id="path637" d="M260.153 387.992l5.595 26.575c35.433 5.906 65.271 5.906 100.704 0l11.19-26.575c-35.433 5.906-82.056 5.906-117.489 0z" stroke-width="1pt"/>
      <path transform="matrix(1.49834 0 0 1 -15.63296 53.14946)" id="path674" d="M258.661 350.787v-17.865c-10.63.149-17.716-10.481-17.717-21.26l-35.432.149c0 10.63-7.087 21.26-17.717 21.26v17.716h70.866z" stroke-width="1pt"/>
      <path id="rect675" stroke-width="1.37935995" d="M296.08545 343.70056h45.506172v21.259798H296.08545z"/>
      <path id="rect676" stroke-width="1.37935995" d="M299.87766 322.44061h37.921787v21.259811H299.87766z"/>
      <path id="rect677" stroke-width="1.37935995" d="M299.87766 301.18091h37.921787v21.259844H299.87766z"/>
      <path id="rect679" stroke-width="1.37935995" d="M303.6698 272.83438h30.337448v28.346481H303.6698z"/>
      <path id="rect680" stroke-width="1.43758672" d="M302.36215 248.03122h32.952774v24.803165H302.36215z"/>
      <ellipse transform="matrix(1.03333 0 0 1 75.35417 63.77934)" ry="33.661423" rx="42.519684" id="path681" cy="161.22044" cx="237.40158" stroke-width="1pt"/>
      <path transform="matrix(1.03333 0 0 1 75.35398 63.77942)" id="path683" d="M258.661 159.449c0 9.291 10.63 24.803 10.63 24.803-7.696 6.093-20.154 10.63-31.889 10.63s-26.349-2.528-31.89-10.63c0 0 10.63-15.512 10.63-24.803s-10.63-21.26-10.63-21.26c7.696-6.093 20.154-10.63 31.89-10.63 11.735 0 24.193 4.537 31.889 10.63 0 0-10.63 11.969-10.63 21.26z" stroke-width="1pt"/>
      <path transform="matrix(1.03333 0 0 1 75.35398 63.77942)" id="path685" d="M251.575 159.449c0 9.291 10.63 28.346 10.63 28.346-7.696 6.093-13.068 7.087-24.803 7.087-11.735 0-19.262 1.015-24.803-7.087 0 0 10.63-19.055 10.63-28.346s-10.63-24.803-10.63-24.803c7.696-6.093 13.067-7.087 24.803-7.087 11.735 0 17.107.994 24.803 7.087 0 0-10.63 15.512-10.63 24.803z" stroke-width="1pt"/>
      <ellipse transform="matrix(1.03333 0 0 1 75.35417 60.23602)" ry="10.629921" rx="10.629913" id="path686" cy="166.53543" cx="194.8819" stroke-width="1pt"/>
      <ellipse transform="matrix(1.03333 0 0 1 163.2282 60.23602)" ry="10.629921" rx="10.629913" id="path687" cy="166.53543" cx="194.8819" stroke-width="1pt"/>
      <ellipse transform="matrix(1.03333 0 0 1 119.2911 60.23602)" ry="10.629921" rx="10.629913" id="path688" cy="166.53543" cx="194.8819" stroke-width="1pt"/>
      <ellipse transform="matrix(1.03333 0 0 1 119.2911 24.80298)" ry="10.629921" rx="10.629913" id="path689" cy="166.53543" cx="194.8819" stroke-width="1pt"/>
      <ellipse transform="matrix(1.07024 0 0 1 79.93118 226.7715)" ry="10.629921" rx="10.629913" id="path690" cy="166.53543" cx="194.8819" stroke-width="1pt"/>
      <ellipse transform="matrix(1.07024 0 0 1 140.606 226.7715)" ry="10.629921" rx="10.629913" id="path691" cy="166.53543" cx="194.8819" stroke-width="1pt"/>
      <path transform="matrix(1.07024 0 0 1 64.76247 53.14946)" id="path693" d="M212.598 311.811h49.607l-24.803 31.89-24.804-31.89z" stroke-width="1pt"/>
      <ellipse transform="matrix(1.42698 0 0 1.33333 40.74525 167.7162)" ry="10.629921" rx="10.629913" id="path692" cy="166.53543" cx="194.8819" stroke-width="1pt"/>
    </g>
    <g transform="translate(-1.767807 -28.3002)" id="g822">
      <rect y="524.40936" x="262.20471" width="81.496033" ry=".09459817" rx=".11128056" id="rect818" height="21.259859" stroke-width="1.25"/>
      <path id="path810" d="M368.5035 506.6929c-9.814 0-17.716 8.259-17.716 18.519v16.111c0 10.26 7.902 18.52 17.716 18.52 9.815 0 17.717-8.26 17.717-18.52v-16.111c0-10.26-7.902-18.519-17.717-18.519zm0 7.087c-5.888 0-10.63 6.608-10.63 14.816v9.345c0 8.208 4.742 14.816 10.63 14.816 5.889 0 10.63-6.608 10.63-14.816v-9.345c0-8.208-4.741-14.816-10.63-14.816z" stroke-width="1.25"/>
      <path id="path812" d="M276.3775 510.2366c-5.888 0-10.63 6.608-10.63 14.816v16.432c0 8.208 4.742 14.816 10.63 14.816 5.889 0 10.63-6.608 10.63-14.816v-16.432c0-8.208-4.741-14.816-10.63-14.816zm0-7.087c-9.814 0-17.716 8.259-17.716 18.519v23.198c0 10.26 7.902 18.52 17.716 18.52 9.815 0 17.717-8.26 17.717-18.52v-23.198c0-10.26-7.902-18.519-17.717-18.519z" stroke-width="1.25"/>
      <path id="path811" d="M248.031 517.3232c-5.888 0-10.63 6.608-10.63 14.816l-.001 3.864c0 8.208 4.742 14.816 10.63 14.816 5.889 0 10.63-6.608 10.63-14.816l.001-3.864c0-8.208-4.741-14.816-10.63-14.816zm0-7.087c-9.814 0-17.716 8.259-17.716 18.519l-.001 10.63c0 10.26 7.902 18.52 17.716 18.52 9.815 0 17.717-8.26 17.717-18.52l.001-10.63c0-10.26-7.902-18.519-17.717-18.519z" stroke-width="1.25"/>
      <path transform="matrix(1.8 0 0 1.11763 -655.5133 242.2)" id="path813" d="M478.346 237.401c-5.888 0-10.63 6.608-10.63 14.816v16.432c0 8.208 4.742 14.816 10.63 14.816 5.889 0 10.63-6.608 10.63-14.816v-16.432c0-8.208-4.741-14.816-10.63-14.816zm0-7.087c-9.814 0-17.716 8.259-17.716 18.519v23.198c0 10.26 7.902 18.52 17.716 18.52 9.815 0 17.717-8.26 17.717-18.52v-23.198c0-10.26-7.902-18.519-17.717-18.519z" stroke-width=".88129997"/>
      <path transform="matrix(1.8 0 0 1.11763 -425.1984 245.7432)" id="path814" d="M478.346 237.401c-5.888 0-10.63 6.608-10.63 14.816v16.432c0 8.208 4.742 14.816 10.63 14.816 5.889 0 10.63-6.608 10.63-14.816v-16.432c0-8.208-4.741-14.816-10.63-14.816zm0-7.087c-9.814 0-17.716 8.259-17.716 18.519v23.198c0 10.26 7.902 18.52 17.716 18.52 9.815 0 17.717-8.26 17.717-18.52v-23.198c0-10.26-7.902-18.519-17.717-18.519z" stroke-width=".88129997"/>
      <rect y="524.40924" x="375.59061" width="42.51968" ry=".09459798" rx=".05805944" id="rect815" height="21.259813" stroke-width="1.25"/>
      <rect y="520.86609" x="336.6142" width="24.80312" ry=".12612997" rx=".03386797" id="rect817" height="28.346268" stroke-width="1.25"/>
      <rect y="520.86603" x="219.68504" width="24.80315" ry=".12613064" rx=".03386801" id="rect819" height="28.346418" stroke-width="1.25"/>
      <rect y="517.32288" x="141.73225" width="49.606323" ry=".1576633" rx=".06773604" id="rect820" height="35.433022" stroke-width="1.25"/>
      <rect y="520.86609" x="450" width="46.063004" ry=".1576633" rx=".06289774" id="rect821" height="35.433022" stroke-width="1.25"/>
    </g>
  </g>
</svg>
