<svg xmlns="http://www.w3.org/2000/svg" xmlns:xlink="http://www.w3.org/1999/xlink" version="1.0" id="svg2" viewBox="0 0 3158.385 3715.7471">
  <defs id="defs5">
    <linearGradient id="linearGradient14251">
      <stop id="stop14253" offset="0" stop-color="#c3bdc9" stop-opacity="1"/>
      <stop id="stop14255" offset="1" stop-color="#c3bdc9" stop-opacity="0"/>
    </linearGradient>
    <linearGradient id="linearGradient11336">
      <stop id="stop11338" offset="0" stop-color="#c3bdc9" stop-opacity="1"/>
      <stop id="stop11340" offset="1" stop-color="#c3bdc9" stop-opacity="0"/>
    </linearGradient>
    <linearGradient id="linearGradient11328">
      <stop id="stop11330" offset="0" stop-color="#c3bdc9" stop-opacity="1"/>
      <stop id="stop11332" offset="1" stop-color="#c3bdc9" stop-opacity="0"/>
    </linearGradient>
    <linearGradient id="linearGradient10876">
      <stop id="stop10878" offset="0" stop-color="#f6d155" stop-opacity="1"/>
      <stop id="stop10886" offset="1" stop-color="#dfa12f" stop-opacity="1"/>
    </linearGradient>
    <linearGradient id="linearGradient6990">
      <stop id="stop6992" offset="0" stop-color="#f6d155" stop-opacity="1"/>
      <stop id="stop6994" offset="1" stop-color="#dfa12f" stop-opacity="1"/>
    </linearGradient>
    <linearGradient x1="2428.7358" y1="1135.0117" x2="1815.9109" y2="1603.801" id="linearGradient4666" xlink:href="#linearGradient14251" gradientUnits="userSpaceOnUse" gradientTransform="translate(-13.787418 -14.81124)"/>
    <linearGradient x1="1895.5574" y1="1930.344" x2="871.34882" y2="1400.3666" id="linearGradient4680" xlink:href="#linearGradient11328" gradientUnits="userSpaceOnUse" gradientTransform="translate(-13.787418 -14.81124)"/>
    <linearGradient x1="915.41553" y1="1266.3861" x2="1253.6213" y2="1533.9921" id="linearGradient4683" xlink:href="#linearGradient11336" gradientUnits="userSpaceOnUse" gradientTransform="translate(-13.787418 -14.81124)"/>
    <linearGradient x1="915.41553" y1="1266.3861" x2="1253.6213" y2="1533.9921" id="linearGradient3968" xlink:href="#linearGradient11336-1" gradientUnits="userSpaceOnUse" gradientTransform="matrix(.0575 0 0 .0575 14.031738 46.287267)"/>
    <linearGradient id="linearGradient11336-1">
      <stop id="stop11338-7" offset="0" stop-color="#c3bdc9" stop-opacity="1"/>
      <stop id="stop11340-4" offset="1" stop-color="#c3bdc9" stop-opacity="0"/>
    </linearGradient>
    <linearGradient x1="1895.5574" y1="1930.344" x2="871.34882" y2="1400.3666" id="linearGradient3970" xlink:href="#linearGradient11328-0" gradientUnits="userSpaceOnUse" gradientTransform="matrix(.0575 0 0 .0575 14.031738 46.287267)"/>
    <linearGradient id="linearGradient11328-0">
      <stop id="stop11330-9" offset="0" stop-color="#c3bdc9" stop-opacity="1"/>
      <stop id="stop11332-4" offset="1" stop-color="#c3bdc9" stop-opacity="0"/>
    </linearGradient>
    <linearGradient x1="2428.7358" y1="1135.0117" x2="1815.9109" y2="1603.801" id="linearGradient3972" xlink:href="#linearGradient14251-8" gradientUnits="userSpaceOnUse" gradientTransform="matrix(.0575 0 0 .0575 14.031738 46.287267)"/>
    <linearGradient id="linearGradient14251-8">
      <stop id="stop14253-8" offset="0" stop-color="#c3bdc9" stop-opacity="1"/>
      <stop id="stop14255-2" offset="1" stop-color="#c3bdc9" stop-opacity="0"/>
    </linearGradient>
    <linearGradient x1="2428.7358" y1="1135.0117" x2="1815.9109" y2="1603.801" id="linearGradient4750" xlink:href="#linearGradient14251-8" gradientUnits="userSpaceOnUse" gradientTransform="translate(-13.787424 -14.807493)"/>
    <linearGradient x1="1895.5574" y1="1930.344" x2="871.34882" y2="1400.3666" id="linearGradient4764" xlink:href="#linearGradient11328-0" gradientUnits="userSpaceOnUse" gradientTransform="translate(-13.787424 -14.807493)"/>
    <linearGradient x1="915.41553" y1="1266.3861" x2="1253.6213" y2="1533.9921" id="linearGradient4767" xlink:href="#linearGradient11336-1" gradientUnits="userSpaceOnUse" gradientTransform="translate(-13.787424 -14.807493)"/>
    <linearGradient x1="2428.7358" y1="1135.0117" x2="1815.9109" y2="1603.801" id="linearGradient3436" xlink:href="#linearGradient14251-8" gradientUnits="userSpaceOnUse" gradientTransform="translate(-13.787424 -14.807493)"/>
    <linearGradient x1="1895.5574" y1="1930.344" x2="871.34882" y2="1400.3666" id="linearGradient3450" xlink:href="#linearGradient11328-0" gradientUnits="userSpaceOnUse" gradientTransform="translate(-13.787424 -14.807493)"/>
    <linearGradient x1="915.41553" y1="1266.3861" x2="1253.6213" y2="1533.9921" id="linearGradient3453" xlink:href="#linearGradient11336-1" gradientUnits="userSpaceOnUse" gradientTransform="translate(-13.787424 -14.807493)"/>
  </defs>
  <g transform="matrix(1.42968 0 0 1.42968 -429.3638 -145.55111)" id="g2379" fill="#dc143c" fill-opacity="1">
    <path d="M300.32087 101.80653l28.9762 2071.24137c0 .0001 2.6033 186.4363 191.7372 310.2513 52.8348 34.5876 136.8963 61.9555 265.9801 60.1889 39.3467-.5542 264.49043-1.7015 377.89153 1.4262 82.7947 2.2837 220.6193 59.6547 230.2898 155.8922h19.4353c8.3262-111.4529 146.2278-153.4856 230.2899-155.8922 112.8561-3.2309 338.5094-1.9684 377.8562-1.4262 129.0837 1.7786 213.1453-25.6013 265.98-60.1889 189.134-123.815 191.7376-310.2512 191.7376-310.2513l28.9761-2071.24137H300.32087z" id="path2161" fill="#dc143c" fill-opacity="1" fill-rule="evenodd" stroke="none"/>
  </g>
  <path d="M1319.8212 196.51497c51.4684 89.8422 72.1092 174.86187 100.5564 256.06161 47.1172-6.40035 101.024 6.41088 154.4061 10.16236 60.9436 11.95193 109.1451 17.12577 154.4062 10.1695 27.7827-127.95106 51.8355-191.87249 107.1503-281.88707-24.5446 16.69143-76.7797 23.51324-97.2595 53.84795-30.6963-27.30691-55.0436-10.21384-70.3344 18.68376 5.2022-23.06552-1.6751-42.61794-31.8705-44.50868 17.9-33.56116-9.6623-50.20684-38.464-35.17046-.8001-29.22966-24.161-29.47301-25.826-45.05887-3.877 18.05183-24.3528 9.12185-21.4303 52.75595-23.3146-18.73524-46.0957-6.52854-37.3649 26.37424-28.2895-.12698-36.1876 23.16849-33.519 52.19986-19.4012-45.01364-55.8463-31.26756-68.6858-15.38757-22.7502-44.82195-39.9389-16.51836-91.7646-58.24258z" id="path3360" fill="#f6d155" fill-opacity="1" fill-rule="evenodd" stroke="none"/>
  <path d="M1773.7774 425.50519c-32.7843 56.3461-46.8292 60.26118-190.5939 38.1539-113.7074-11.34446-216.1429-43.45512-220.8441 59.59638 37.6123 4.46543 92.32 8.54714 116.1455 88.93544l-69.5829 59.37304c-49.1505 7.7357-126.6672 73.49639-177.8752 12.34707-14.0547 57.50177 38.7343 73.68164 93.8126 71.37587 38.5936-3.96082 50.9174-14.32131 122.969-28.56538l19.0937 20.53641c108.8232 9.00582 165.1801 164.64716-11.3126 255.96498-6.8354 21.1368 4.4428 46.4958 21.219 49.4984-51.3105 72.576-135.5094 163.1208-165.7192 103.3771-7.0361 6.6115-26.8587 55.9945 11.5626 83.2821-29.1895 35.9435-40.4687 78.4725-38.9062 127.5931-116.3304-18.1727-192.9537-37.8912-166.8754-146.6854 123.7742 5.7169 157.3138-143.7601 139.1253-219.5306-71.9268-302.65956-462.35962-545.4023-746.53245-553.31699 15.80763 82.34984 66.61439 141.76723 124.46892 196.56682-75.35844-36.6841-162.81121-72.25027-254.40657-53.59869 10.58609 65.05205 45.85726 140.50911 194.28158 263.59885-106.97927-63.52502-205.65248-125.54232-240.40653-176.06242-15.44058 20.83037-24.14281 105.67053 67.18754 167.59251-29.00284-11.56781-172.34528-10.53947-215.68773 21.21982 26.18517 59.58426 145.80758 163.7285 243.96906 195.8391-93.07787-13.5356-180.32507-51.044-260.21919-118.77824-11.80228 10.59026.45364 120.85424 99.68768 164.75014-32.14084 2.1396-141.78063 32.8958-170.093913 68.2195 57.203413 76.3644 203.471383 143.6326 276.156493 143.9074-99.14604 12.9289-207.4205-7.0072-252.43777-21.1876.99999 25.3396-20.31879 127.1072 251.03163 110.3078-96.80957 45.7421-242.92517 140.9628-266.25039 224.909 94.05276 41.6411 262.71207 7.327 349.93801-20.0313-257.93651 157.2121-298.18753 173.3669-346.0317 162.8146 62.45229 132.0385 212.94229 42.8289 342.96912-31.1274-159.85345 213.8837-185.84545 322.9213-182.43773 474.4678 128.73084-15.49 315.07442-199.8885 414.37556-357.0948-115.07086 236.6942-183.56243 426.9759-309.03169 482.9699 142.94708 56.6329 265.55205-122.7579 351.68808-313.0266-32.99046 120.4392-46.63721 375.7402-4.50005 438.1859 129.23718-87.5615 227.13584-281.9763 292.75044-504.8732-22.38126 109.8361-38.94432 219.6586-79.18761 329.4942 83.07431 15.8026 125.53781-133.2651 153.56271-220.5911 2.5872 4.574 5.6691 8.4254 13.6875 15.8735 104.9528-76.1404 138.3479-252.8871 145.719-322.0905 95.6918 27.1923 137.797-7.5116 162.3127-25.3146 20.958 29.0258 22.2892 74.3014 28.1876 80.4972-104.0808-84.5403-215.7142.1914-220.2815 141.0014-11.277 58.7597-42.6747 126.7244-121.2503 179.3136 4.9115 6.3939 15.8895 8.9872 30.1249 8.719-13.6892 23.5511-26.1069 43.9087-49.3124 65.2501 5.9976 3.4743 13.4952 3.9475 20.5938 5.2183-17.4648 29.1724-46.6195 56.7161-75.7502 70.7498 6.9899 6.7003 10.967 8.9493 32.1562 14.6913-19.4129 25.7804-51.0911 49.0383-80.9687 61.5901 57.0088 33.8603 100.5626 38.204 135.9064 34.9723.063-.01.1253 0 .1874 0-22.5552 44.6173-58.9325 67.2104-94.4687 87.2488 11.0545 10.3798 24.3516 12.6283 35.4063 9.5304-32.1233 33.3752-66.05743 59.6665-96.68766 69.159 5.57795 4.177 9.48729 9.9197 29.2187 8.4377-21.92255 27.0519-48.51317 53.4707-95.56262 65.7484 9.30953 17.9045 28.44571 15.1579 44.96876 15.7519-12.8508 27.6646-53.09827 36.9524-93.84373 45.5311 30.70591 8.6803 51.58394 25.1736 33.31242 20.8749-12.39455 14.9404-24.55794 22.6761-51.1249 26.6555-27.29874 4.0877-125.01858-31.108-164.4066-17.5343-11.15122-22.2031-38.13546-37.502-66.59387-37.502-36.3623 0-72.10399 23.1812-73.78131 55.566-5.63222-3.9022-29.36168-7.0258-25.75013 21.124 8.56227 16.5763 8.97956 29.8814 61.31266 50.0344 8.52487 3.7948 18.89927 5.7813 31.46881 5.251 18.64027-.7862 39.4943-10.15 55.09372-23.6922l-.3124.5618c26.0568 4.8225 54.74637 9.1919 70.59383 15.8156-41.22623 3.2896-55.40473 26.0424-78.90632 42.4075-9.89432-.4975-18.0767-2.9447-27.03139-4.3753l.28127.3131c-5.37236-1.3533-10.79829-1.9478-16.09377-1.6612-29.43126 1.5916-59.10047 34.7619-62.28134 72.3468-.64497 7.6206 1.23968 14.9027 4.93751 21.5648l-.43747 6.4005c-8.5854 10.5967-5.18467 19.0223 3.18766 25.1285 35.92919 14.27 57.35966 5.4936 70.28125 2.8745 32.60048-3.9536 59.87503-30.8267 59.87503-60.7205 0-.07.00035-.1392 0-.2174l.68742.7479c38.5658-8.0098 76.59168-18.7218 97.71897-34.276 1.08783 2.3442 1.72324 4.8995 1.25012 8.0296-13.41889 7.9526-35.48895 20.5808-47.15642 59.5005-3.48179-.3252-6.7999-.4974-9.93763-.4974-44.11071-.07-54.99876 30.3924-54.21863 55.2784.7603 24.2605 9.57705 39.8914 22.15616 49.3132-2.66931 15.1064-.81683 27.7346 14.81251 32.7812 52.66063 8.2594 65.32653-18.9844 75.90635-18.3131-.58653-6.9243.82936-11.8369 2.78133-16.2185 16.15169-7.499 27.10653-13.6316 28.62504-43.9726 1.38509-18.8433-1.82204-30.3796-8.0001-37.7446l1.40632.4018c.006.052.0244.1043.0313.1565.0504-.052.10437-.087.15655-.1217l.43763.1217-.0626-.4418c48.22929-41.1751 79.1114-73.6815 99.93759-101.155 18.55887 4.2671 60.17908 3.2896 80.65635-3.5644l-.81248 7.3779c-19.32004 18.3839-6.1878 62.2798 19.31256 61.3086-1.09792 4.1263-.89754 7.8504 0 11.9707 16.54915 10.2074 47.13155 3.04 70.46875 8.2525 11.967-1.4055 17.6514-9.4475 14.625-25.8441l-.4061-.2487c18.7209-11.0891 31.28-31.0888 28.875-56.3776 0-34.9466-27.2869-62.8609-60.9377-65.0642l.1877-.1566c-36.0162-3.89-70.57452 22.0887-63.03155-34.0012 98.59195-116.7532 233.18305-293.1286 269.96925-314.5594-2.9364-3.8199-4.9159-8.8406-6.5937-13.7203 14.6058 38.6707 69.8568 79.4429 127.9689 75.9357-10.4612-19.9102-22.0742-37.5971-26.2189-90.8131 8.6867 12.5582 23.506 18.4475 41.6251 22.1593-27.1669-124.3164 13.3676-226.5892 96.844-320.0659-6.6276 120.2855-21.8218 241.3251-94.844 363.9362 37.5743 11.7659 86.6779-26.5346 93.4375-49.281 7.9914 108.3091-94.6335 247.7191-174.9063 180.8787-50.3923 110.7942 69.1207 164.5585 144.5002 100.2478-12.7419 67.0257-65.1197 106.4247-122.219 121.8124-57.0995 15.3878-116.5916-8.872-78.6251-100.2792-8.0477-4.7588-122.5823-7.6591-125.8126 117.2191 3.415 72.1551 52.1383 99.3088 56.5314 100.5611-163.3139 123.8943 1.221 261.976 135.9688 235.1544 106.8518-16.4862 167.5742-103.0644 206.2816-165.8423-11.7033 45.1669-60.0209 190.1922 63.0938 347.2512 121.9803-190.4986 70.3858-318.8452 67.4375-339.2156 95.8861 147.791 190.4293 158.4393 246.3129 154.7789 95.5191 1.5324 230.7536-148.5703 58.8126-244.5954 87.9899-41.89 93.7941-215.9152-30.1563-224.8454 25.5303 68.9552-28.3476 110.6277-87.7815 105.2493-59.4339-5.3722-114.2086-39.6418-135.2813-116.8426 117.0157 56.2751 171.3258-54.4356 131.5002-114.5306-99.8626 82.573-147.093-49.887-160.5002-128.7175 25.509 19.4187 47.5871 26.1641 90.5 19.8146-81.234-104.4634-100.2018-244.589-107.4687-376.1874 55.288 87.9071 109.8701 195.5006 108.0937 300.9027 12.7941-6.2788 24.4242-7.9846 47.4688-54.1226 2.0772 78.8367-6.9194 89.5101-33.5937 122.4959 43.6792 18.3581 101.0441-16.9527 128.3438-63.8127.087-.1218.1566-.2488.2505-.3705 84.8689 114.5749 176.478 232.1839 265.5942 323.1253 19.3259 20.1722 26.0138 40.3443-9.7815 47.4345-114.5294-42.2737-126.5447 77.4886-79.0312 93.6877-3.749 10.8265-4.7992 22.0501-1.5307 33.8732 22.5362 6.95 68.5987-11.7273 80.9376-12.4049 5.7361-5.1738 5.7879-16.0138 5.625-27.0899 11.4973-.5688 19.3617-6.5979 24.8439-16.1922 22.3328 4.2859 43.9983 7.1476 72.2501-16.1868l84.6876 85.0647c4.3951 2.5296-4.4863 11.6129 7.5002 12.7814-9.4146 56.4927 12.0687 62.9117 30.4999 77.1565-3.7799 54.0455 77.1038 22.8865 85.0313 25.9658 8.5663-5.0528 9.2965-10.8908 7.9064-16.9341 9.4019-9.8625 5.002-14.8703 1.906-21.8453 40.5223-61.7689-16.9504-108.865-48.5624-103.4672-33.6288-36.908-57.8738-52.4232-85.0315-74.531 55.5738 20.9707 141.3152 44.6817 165.9378 62.8416 9.3729 63.0334 64.6461 36.9911 105.3752 39.1565 12.6558-17.777 5.8584-23.2894 0-29.377 53.6045-69.1461-59.489-125.8815-107.6251-85.0319-28.5577-26.3493-53.2795-30.9549-79.0316-41.405 10.7486-10.8077 33.5102-19.2461 84.6877-22.5614 22.9557 15.203 45.8882 20.5492 68.8439 3.7496 9.8716 21.6222 29.523 16.0139 36.5001 12.0343 16.7913-19.3607 17.2635-48.757 21.8438-75.6294-4.5794-9.735-11.8808-16.084-24.4689-15.8099-34.7614-59.4624-101.903-23.308-105.75 3.3734-57.8735 4.7394-109.34 12.1231-170.469 36.5302-20.1625 6.0749-39.3473-15.7389-56.4376-28.2457 15.4712-6.1834 28.9625-13.235 28.5937-26.3492-24.7547-2.4273-48.9252-.6957-77.5313-30.092l7.5313-20.3131c-22.0798-6.7639-45.816-22.8486-74.8752-68.5006 6.0944-3.6283 11.8445-9.6708 16.9376-20.3133-33.0298-7.6327-60.0697-25.1156-82.0627-50.8072 7.8722-3.8579 15.3495-10.5653 22.2189-21.443-30.8081-18.5944-60.4612-34.7743-119.5002-111.7133-.2227-.3775-.4436-.7914-.6558-1.1237 62.1728 10.3798 127.1092 4.2543 165.5313-23.6922-30.5537-8.5143-84.4725-26.2914-108.5314-72.8123 11.931-.9706 18.489-3.3024 25.9064-5.4042-46.6275-30.7817-58.9756-47.4281-70.8127-72.3784 9.8126.9845 23.8438-3.475 28.5313-10.3097-30.066-13.5228-43.2483-32.2382-53.9688-52.6278 12.3568.2557 25.3533 2.6634 35.3438-4.9691-118.7742-53.5732-102.2598-331.2825-229.7503-332.1261-56.7429 4.6442-67.0489 16.9405-96.3125 31.8809 8.5818-23.7552 23.12-46.0227 38.2811-68.1307 69.6338 32.5257 124.8229 14.1933 143.5315-2.1203 9.5102 111.6108 45.3025 231.373 122.7815 291.3079 13.2797-7.4795 29.233-17.0929 38.9688-27.8371 13.8178 103.6841 52.5365 239.9647 139.4688 228.6524-40.0619-99.8327-39.4225-200.1505-43.8437-299.9065 36.4451 292.752 126.2944 463.494 200.5628 514.6906 34.2167-45.2055 59.7207-258.8911 43.125-387.2184 73.0208 132.1729 154.0617 254.5666 222.0003 253.9018 30.7783-.3062 64.9561-25.4992 85.5939-31.8738-106.4888-42.97-178.7839-239.0386-244.188-361.126 122.7222 192.1722 268.3907 278.7311 337.0943 291.7494 2.4613-59.4302 15.6176-225.7069-137.1877-456.0904 273.0803 144.5653 331.1027 51.203 347.0943 1.4055-123.2317 42.9442-289.4326-115.4565-400.7507-165.8108l-1.4994-4.4074c162.8772 74.3329 322.6971 99.9536 422.1569 37.2787-85.0185-131.1897-167.3539-178.9823-256.8442-212.6893 176.8206 19.6289 234.7875-40.5234 238.438-106.374-64.5283 21.8079-124.2238 25.2121-201.1566 12.9094 169.218-34.097 199.7317-105.8874 198.0627-113.067-43.3436-33.6756-125.1925-71.5992-199.1253-78.5619 204.0279-73.311 139.1741-142.42565 131.5941-164.12416-63.4443 59.46886-174.0223 101.89566-193.5629 100.12596 95.2386-49.6636 177.8227-179.59486 172.4692-194.2797-47.5774-24.48384-146.1163-23.28295-185.7192-11.31229 39.6244-43.47443 91.6524-117.88454 43.6564-179.78077-46.1606 65.24373-90.0568 99.94142-133.9065 133.99987 39.7935-50.33433 86.0143-108.07858 101.8439-226.2823-59.5891 7.8058-113.599 1.96154-190.9378 53.0306 44.3774-55.43865 71.689-109.99489 77.0939-176.06259-266.5178 18.70307-578.0455 158.42649-728.3761 506.78259-43.6331 102.33659-9.5885 276.51489 127.5628 256.65549 21.6351 87.8878-36.5152 141.5953-162.8754 137.7175-2.6729-29.4214 6.5451-87.7146-29.6874-118.4076 30.6939-1.9866 36.7051-17.7765 43.1251-31.1848-82.4773-19.0349-69.1198-46.4055-53.7502-192.9385 10.8455 4.5033 23.2136 1.8971 32.5939-6.7832-34.0813-31.42083-22.8144-89.54236-5.6251-272.65659 3.4522-79.80717-12.9853-119.7558-30.5-133.52763 10.5588-5.35914 17.4777-14.03377 12.0312-33.93756 38.1482-6.70023 21.9908-53.25394 6.2814-68.34755-7.6592 20.75332-40.352 28.41249-71.344 5.41011 37.4701-17.08019 37.8098-59.57707 9.1876-89.09513zM1927.934 2393.3851c1.2645 1.5255 2.5779 2.964 3.9062 4.3688-1.3324-1.3272-2.6467-2.6956-3.9689-4.1197.017-.087.035-.1739.07-.2487zm-779.9386 5.6533c-3.6898 13.8162 2.869 51.5866 3.6561 76.715 12.6303 6.2151 34.9287-.2174 60.5002-9.9647-1.3874.6001-2.7469 1.188-4.125 1.7825-19.2388 7.1281-42.1605 14.4231-56.5625 8.6232l-4.5001-56.2174c-.9526-6.3496-.8608-13.2036.9063-20.9071.043-.013.082-.017.1252-.035zm-9.4062 2.6248c-2.1156.6262-4.2732 1.1637-6.5002 1.6229 2.1466-.5045 4.2929-1.028 6.5002-1.6229zm805.4697 6.8735c28.1755 20.6 62.9548 21.1747 75.7814 18.0961.7254-1.6037 1.3637-3.2259 1.9374-4.8418-.4505 1.8207-.9689 3.6597-1.5307 5.5317-26.5416 4.0433-52.1459-.3322-76.1878-18.786zm-970.84514 470.0662c-.002.017.002.035 0 .07l-.0626-.035c.0209-.013.0417-.017.0626-.035zm722.59484 31.2805c26.4849 27.7991 128.6317 103.3713 247.1254 66.8405 9.8451 66.9676-47.0479 92.1864-91.9688 83.0331-43.9081-8.9429-109.9412-43.9791-155.1566-149.8736zm-235.4376 17.1252c-38.4477 73.1577-102.1741 135.0153-158.9068 149.9051-56.7324 14.8896-109.5929-13.3182-88.9999-86.9677 122.5096 41.0149 222.0553-31.5295 247.9067-62.9374z" id="path3358" fill="#fff" fill-rule="evenodd" stroke="none"/>
  <path d="M895.21384 1571.1932c-41.36295-48.8652-35.30143-79.7564-34-97.0025-45.63879-34.4486-33.64204-48.0543-41.5002-61.9987 15.83338 27.9079 31.66676 46.3935 47.50014 48.9997 30.16668 27.6454 60.33336 36.9396 90.50005 55.0036-184.48085-100.8417-133.63895-224.5448-131.50016-260.0024-28.82734.9584-49.99933-4.9699-65.49996-16.0009 5.31148-50.0021 31.55683-90.6471 87.49991-117.999-6.99993 2.4273-13.99986 5.7555-20.99996 7.0008-6.56091-1.3672-22.48473-42.5865-2.50007-69.5039 11.47997-7.2692 42.52663-9.8303 74.00013 2.5039 18.6114-37.457 42.71448-70.80069 93.00011-84.50224 12.41907 12.83289 33.40457 51.07554 18.50007 117.50104 20.634 7.6461 40.81 17.2659 57.5 41.9987-5.1667 21.1111-10.3331 27.0578-15.4999 32.5001 80.6722.8436 88.526-112.3774-1.4141-124.2907 14.5559-106.59673-122.11657-170.20477-181.58614-38.7093-109.4402-29.3512-138.81336 55.9052-97.50016 122.5024-13.35175 9.7666-121.62306 89.6187-18.50007 203.996-.20717 56.339 14.10648 111.0742 90.50022 159.0012 21.94864 64.592 35.8424 64.7386 51.50009 79.0022z" id="path3362" fill="#dfdde2" fill-opacity="1" fill-rule="evenodd" stroke="none"/>
  <path d="M2251.6738 976.09495l14.5629-27.63305c98.5033-15.36843 158.0436 50.53889 119.4902 128.4555 79.5249 68.0155 35.78 156.3696-12.3224 174.0057 57.4277-42.1841 25.8279-55.2146 16.0566-54.5183 3.0702-1.4054 7.8887-4.0753 11.9491-7.4673-3.1696-37.1699-17.7748-72.3527-75.0549-114.6329 28.2971-31.3376 25.4502-61.1041 21.6576-82.15136-31.5306-8.20813-59.4562-5.60823-84.0166 7.09664l-12.3225-23.15493z" id="path3364" fill="#dfdde2" fill-opacity="1" fill-rule="evenodd" stroke="none"/>
  <path d="M2115.3803 1167.654c4.5495-15.3813 8.7314-40.089 36.5939-63.4807-8.7243 6.3689-18.4102 14.1747-29.1259 23.5256-35.819-14.5253-58.7924-47.3322-64.226-67.2105 21.9066-28.3164 74.0591-24.209 81.4028-22.4076-15.1557-57.11183 4.4871-99.52574 18.6703-115.75709 47.218 4.35654 71.6721 28.66783 90.7379 50.41139l14.1894-25.39095c-12.8953-40.07618-52.4254-70.25747-98.94-60.69556-38.8753 4.13268-83.0028 37.89774-65.3589 117.07941-117.2156 47.2364-67.3102 159.6209 16.0565 163.926z" id="path3366" fill="#dfdde2" fill-opacity="1" fill-rule="evenodd" stroke="none"/>
  <path d="M1860.3431 1368.1745c-4.3101 43.2189-12.8004 74.7356-22.031 104.1828 159.3022-23.9091 395.261-64.9433 363.3252-240.1051-29.0013 21.1112-58.0026 24.969-87.0039 25.3905-4.954-24.9438-7.7118-51.4584 1.1202-86.2519-26.314 35.6493-57.3814 49.1141-89.6176 57.1311 144.1685 64.3422-60.9944 178.1064-146.7491 139.6526h-19.0438z" id="path3368" fill="#f1eef0" fill-opacity="1" fill-rule="evenodd" stroke="none"/>
  <path d="M1285.0191 1433.8206c4.5663 49.5935 19.9558 109.9376 35.1171 165.8164-10.0954-15.9559-40.7371-113.1186-35.1171-165.8164z" id="path3370" fill="#e8e6eb" fill-opacity="1" fill-rule="evenodd" stroke="none"/>
  <path d="M1758.9685 1398.4395c-38.5171 152.5879 131.2951 137.7813 12.146-18.7417 115.8326 70.9094 39.8895 176.9443 34.0611 200.668-18.1724-81.8445-89.8441-102.5027-46.2071-181.9263z" id="path3372" fill="#c3bdc9" fill-opacity="1" fill-rule="evenodd" stroke="none"/>
  <path d="M991.63104 980.43862l-57.53709 169.01678c-14.23068-6.0426-27.47737-11.7467-45.9797-33.2156.43798-58.5494 52.25726-131.541 103.51679-135.80118z" id="path3374" fill="#fff" fill-opacity="1" fill-rule="evenodd" stroke="none"/>
  <path d="M1037.3537 1309.7531l-103.63424-160.1252c16.19187-.3635 35.08714.07 57.603-5.3205 30.49874 28.5842 64.43174 102.8918 46.03124 165.4457z" id="path3376" fill="#c3bdc9" fill-opacity="1" fill-rule="evenodd" stroke="none"/>
  <path d="M1008.0362 1096.4891c31.223 8.6811 52.8765 28.9742 56.4595 41.6475l-73.11949 6.7898c6.9921-15.1193 12.23909-31.8803 16.65999-48.4373z" id="path3378" fill="#fff" fill-opacity="1" fill-rule="evenodd" stroke="none"/>
  <path d="M826.82316 1128.5297c-13.64589-19.7057-13.57962-60.0951.55191-68.3862l60.97574 56.2624c-16.22719 3.7561-45.74176 5.4486-61.52765 12.1238z" id="path3380" fill="#fff" fill-opacity="1" fill-rule="evenodd" stroke="none"/>
  <path d="M762.39625 1238.5374l170.83304-88.1681c3.58528-2.1976-24.27789-28.6235-45.41736-33.8997-45.6106-5.7936-121.52217 51.2995-125.41568 122.0678z" id="path3382" fill="#fff" fill-opacity="1" fill-rule="evenodd" stroke="none"/>
  <path d="M904.43849 1238.7422c-88.17115 252.4455 291.65201 291.5577 392.90211 299.0944l-12.2169-63.2695c-183.6792-8.1694-354.99509-48.6927-329.63633-186.7423-33.183-20.7662-40.29443-30.1178-51.04888-49.0826z" id="path3384" fill="url(#linearGradient3453)" fill-opacity="1" fill-rule="evenodd" stroke="none"/>
  <path d="M904.65661 1238.0838c-20.31881 9.9841-49.44428 14.4238-77.66403 18.7667-73.10381 306.1984 401.32232 330.3629 492.16382 341.6308-14.2693-28.2779-17.8532-43.2447-21.9436-61.6981-240.7652-15.5923-463.41493-105.773-392.55619-298.6994z" id="path3386" fill="url(#linearGradient3450)" fill-opacity="1" fill-rule="evenodd" stroke="none"/>
  <path d="M2159.5465 923.79282c26.6209 54.88256 55.0852 119.48098 75.169 180.89798 11.4849-16.7932 22.71-33.6307 45.687-52.9793-12.5923-57.64195-41.349-118.63734-120.856-127.91868z" id="path3388" fill="#c3bdc9" fill-opacity="1" fill-rule="evenodd" stroke="none"/>
  <path d="M2159.5987 923.3971c26.8168 56.24296 57.6027 123.5815 75.324 181.1212l-64.7073-9.3257c-38.3376-41.6669-47.5083-124.66795-10.6167-171.7955z" id="path3390" fill="#fff" fill-opacity="1" fill-rule="evenodd" stroke="none"/>
  <path d="M2060.2269 1060.2458c16.7772-19.2075 52.5398-25.2887 81.3829-20.3253 6.5429 15.943 17.0639 38.4982 28.8467 55.7572l-110.2296-35.4319z" id="path3392" fill="#c3bdc9" fill-opacity="1" fill-rule="evenodd" stroke="none"/>
  <path d="M2346.1957 993.5973l-65.9979 58.862 42.8515 22.4271c34.5312-29.6196 25.0104-81.71073 23.1464-81.2891z" id="path3395" fill="#c3bdc9" fill-opacity="1" fill-rule="evenodd" stroke="none"/>
  <path d="M2280.2428 1051.4948c-10.5841 2.1911-47.4154 53.017-45.0091 52.5641l164.7655 84.0228c.6261-28.5148-25.5975-98.4974-119.7564-136.5869z" id="path3397" fill="#c3bdc9" fill-opacity="1" fill-rule="evenodd" stroke="none"/>
  <path d="M2234.6705 1103.5986l-118.7475 153.3608c75.9754-3.2897 106.4537-37.0548 133.0425-79.015l-14.295-74.3458z" id="path3399" fill="#c3bdc9" fill-opacity="1" fill-rule="evenodd" stroke="none"/>
  <path d="M2346.269 993.5973c-25.4606-8.48278-59.0763-5.78721-82.4979 7.2047 7.7943 16.474 13.068 36.7928 16.8233 51.4849l65.6746-58.6896z" id="path3401" fill="#fff" fill-opacity="1" fill-rule="evenodd" stroke="none"/>
  <path d="M2234.6481 1103.7776l165.592 84.2977c-30.2876 24.9752-126.0236 1.6802-151.6932-9.5369l-13.8988-74.7608z" id="path3403" fill="#fff" fill-opacity="1" fill-rule="evenodd" stroke="none"/>
  <path d="M2234.9034 1104.129l-64.872-9.2306c-72.003 30.1691-59.277 153.0994-53.8245 162.0739l118.6965-152.8433z" id="path3405" fill="#fff" fill-opacity="1" fill-rule="evenodd" stroke="none"/>
  <path d="M2169.436 1095.282l-109.1612-35.1835c5.3621 26.3236 37.5131 56.0519 61.9301 66.0296 5.1993-4.7272 29.2747-26.803 47.2311-30.8461z" id="path3407" fill="#fff" fill-opacity="1" fill-rule="evenodd" stroke="none"/>
  <path d="M2250.8051 1178.3723c-20.2174 29.7729-26.4787 37.6616-48.8396 52.8194 38.6136 177.2571-216.0262 221.568-363.2505 242.2512-1.4315 24.4007-9.1653 45.0008-16.2501 63.7489 26.5431-1.8591 549.2075-11.894 428.3402-358.8195z" id="path3409" fill="#fff" fill-opacity="1" fill-rule="evenodd" stroke="none"/>
  <path d="M2253.7178 1180.6974c70.407 257.8561-159.8429 331.3652-431.0569 355.9449-6.5999 16.0459-12.9354 33.4331-19.535 51.3503 368.1283-25.7167 560.7609-144.7119 510.5318-392.795-23.6354-3.6159-42.2351-8.9044-59.9399-14.5002z" id="path3411" fill="url(#linearGradient3436)" fill-opacity="1" fill-rule="evenodd" stroke="none"/>
  <path d="M535.27607 2987.2569c29.57163 13.6443 66.13484 4.363 85.8746-1.3098 10.60434 10.0992-3.26001 49.8555 28.12513 78.811-17.92781 7.8437-116.07659-22.3375-113.99973-77.5014z" id="path3413" fill="#f6d155" fill-opacity="1" fill-rule="evenodd" stroke="none"/>
  <path d="M493.10864 2775.3596c12.27819 39.2073 47.00492 43.4043 61.1749 51.5422-.37955 14.813-38.3656 14.091-39.74113 67.7149-26.54748-2.3952-63.49162-64.4318-21.43377-119.2571z" id="path3415" fill="#f6d155" fill-opacity="1" fill-rule="evenodd" stroke="none"/>
  <path d="M690.45229 3099.36c47.86141 8.0742 65.19781-17.604 75.92496-19.0416 5.56787 15.669 26.95798 36.0708 47.74017 46.7385-9.71028 35.1447-125.74217 27.4669-123.66513-27.6969z" id="path3417" fill="#f6d155" fill-opacity="1" fill-rule="evenodd" stroke="none"/>
  <path d="M1059.5436 2968.2983c-2.7995-5.9724-57.7759.6836-67.70783-8.1759-6.89331 8.5144-8.93329 36.6011-29.71566 47.275 13.26861 24.0109 105.16209 16.0647 97.42349-39.0991z" id="path3419" fill="#f6d155" fill-opacity="1" fill-rule="evenodd" stroke="none"/>
  <path d="M1164.2539 2478.8642c8.2104-.9706 16.1371-2.1268 22.856-4.0941-32.3193 38.869-86.1556 106.6605-140.243 163.7728-54.23431 57.265-103.58814 113.7449-84.84576 164.9672-37.59851-37.374-4.21373-73.8605 46.67116-134.0322 55.2161-65.294 117.5025-140.5535 155.5616-190.6137zm-68.0398 414.5839c0 26.6298-22.1402 51.2481-75.5002 48.7442 60.1401-65.9974-61.4393-70.0664-32.49995-96.9968 80.66385-50.5646 114.00005 27.6138 108.00015 48.2526zm-57.4423 58.0442c17.4251 3.6604 28.388-18.0133 32.2281-6.9751 7.5085 21.8203-31.8753 25.8319-32.2281 6.9751zm-407.02722-228.4857c-12.2514-.4853-8.76509 49.1206-81.49997 47.1276-1.30195-.3392-8.12846.052-11.96874 6.8735-8.83902 16.5949 20.85194 50.4301 47.90628 48.4378 23.60405-1.7377 43.32919-15.2667 55.5625-32.092 5.54526-3.1172 44.15472-24.528 40.9688-15.2853-45.30847 22.1201-34.004 36.1158 37.84377 41.3469 45.30986-6.7195 83.75999-45.9461 100.03152-54.0968-46.29941 8.0227-144.90514-22.7979-167.78141-22.9702-3.24435-8.4185-9.87553-15.3241-20.46892-19.2778-.20281-.035-.39937-.052-.59383-.07zm-81.29646 253.3917c-1.18645 4.1453-3.63103 7.0644-6.7651 9.2684 12.83097 8.1694 47.32601 5.9847 51.15168 3.1745-3.80306-.087-32.15727-1.8012-44.38658-12.4429zm338.76561-205.7016c-61.63062 30.0855-104.01548 138.7781-257.00021 124.4954-3.8161 13.3625-12.30932 16.0516-20.18765 20.1271-31.9021-.4279-68.68413 7.1925-68.31259 27.1284.44999 24.1454 37.60808 39.2454 62.50016 36.2498 25.19856-3.0405 51.47713-27.0836 51.50009-51.2223v-.035c.82605-1.9608 2.11339-3.5258 4.75-3.5 169.32183-36.5824 195.31427-123.5307 226.7502-153.2462zm27.00008 2.9956c-6.71363 41.1108-140.1134 163.754-146.31268 203.9067-7.08307-5.4808-17.29918-9.4217-38.62511-8.3103 12.40203 61.4105-38.88342 80.2158-52.56253 69.6892-.0852 27.7477 40.31583 39.2774 66.50012 34.2503 30.78-5.9152 56.54057-53.0177 38.68756-81.6913 4.06797-50.7887 70.85717-65.576 98.81254-130.8449 24.64178-.2488 28.38378-38.4023 59.0001-45.4989-6.43288-19.7887-31.50151 5.966-25.5-41.5008zm-394.02719-.07c3.92412 24.3048 14.80782 34.538 32.86887 49.5686-14.53752-5.2061-28.899-9.2751-44.79708-23.328 14.593 4.4266 3.50822-30.0541 11.92821-26.2406zm319.54437-65.2754c28.25263 6.5414 65.34723 9.1282 115.79289 6.1836-73.37515 25.7804-106.28142 17.0228-115.79289-6.1836zm92.48055-46.1507c.12176 3.9286-5.93297 11.5046-11.53789 16.3593 35.39884-.6714 69.91598-7.9847 94.99505-35.9756-23.30261 10.616-49.7132 19.4437-83.45716 19.6163zm50.01202-80.8801c-2.57225 4.7267-11.7901 14.7237-18.72568 21.98 29.21592 3.2574 87.51762-10.297 112.59672-38.2814-23.3028 10.6102-60.1269 16.1291-93.87104 16.3014zm68.28054-77.7376c-5.2333 5.6719-22.4701 22.3886-28.8734 27.7799 29.2158 3.2574 95.1507-20.0892 120.2298-48.0736-23.3028 10.6102-57.6124 20.1213-91.3564 20.2937zm93.8859-86.3994c-1.7993 33.5419-13.0957 54.9085-25.2946 69.1397 10.1178-3.3024 20.2358-5.4864 30.3535-10.1178-.9729-18.55-2.6799-40.4719-5.0589-59.0219z" id="path3422" fill="#dfdde2" fill-opacity="1" fill-rule="evenodd" stroke="none"/>
  <path d="M2086.2954 2934.8337c29.1124 7.116 64.5565-11.9134 81.5267-12.2584 7.9137 15.5923 10.9831 32.5516 43.5221 43.526-21.4715 23.8447-102.1911 31.7399-125.0488-31.2676z" id="path3424" fill="#f6d155" fill-opacity="1" fill-rule="evenodd" stroke="none"/>
  <path d="M2411.4835 3066.9366c-10.7101 10.5716-22.5761 21.8453-42.9092 34.0205 36.4038 33.1261 110.4649-4.0688 107.5789-36.1666-6.6155-12.712-27.9651 14.7293-64.6697 2.1461z" id="path3426" fill="#f6d155" fill-opacity="1" fill-rule="evenodd" stroke="none"/>
  <path d="M2553.3892 2950.7774c.6296 43.1352-4.9269 54.4605-9.8077 69.2605 20.7501 14.1296 74.3643-19.4372 79.9943-70.1807-5.619-12.0407-28.4015 8.9622-70.1866.9202z" id="path3428" fill="#f6d155" fill-opacity="1" fill-rule="evenodd" stroke="none"/>
  <path d="M2651.7731 2712.3263c-15.4159 3.8836-6.2221 56.3073-23.9063 72.9408 14.5069 8.0549 24.3307 27.3455 34.9399 44.7519 34.023-25.7683 32.763-99.1493-11.0336-117.6927z" id="path3430" fill="#f6d155" fill-opacity="1" fill-rule="evenodd" stroke="none"/>
  <path d="M2123.3809 2929.9339c16.3227-4.9248 34.006-13.2414 40.4569-11.0374 9.8629-34.7935-13.2726-14.5704-40.4569 11.0374zm-22.9868-27.8943c31.9556-.32 76.6852 5.1224 87.6566-37.3868 49.466 23.7681 101.314-21.9612 89.8022-64.0616 0 0-15.9701 72.7234-118.306 26.6684-20.459-2.9898-48.7612 9.9454-46.8933 23.902 1.3707 17.822 36.4495 32.9857-12.2595 50.878zm270.6323-35.5541c25.9749 26.3171 42.5545 50.6992 36.7791 70.4943 16.0711-23.2193 17.618-9.2234 21.148-.3061 19.1673 14.7808 33.5387 59.577-14.4052 88.5769 22.5094 6.1069 24.3751 26.1833-.3061 33.4074 1.0662 21.2198 57.6827-5.2183 62.8308 3.3725 4.4004-1.9284 5.865-8.2651 7.0493-15.0168 4.778-6.4964 5.332-14.0403.3062-22.9896 36.5787-60.823-8.8263-94.0771-47.5063-100.8353-23.7285-24.7771-44.478-39.6223-65.8958-56.7032zm1.8389-65.588c38.9784 24.656 92.0349 43.9023 142.2122 76.6263 50.1715-50.0023 87.1939 32.5578 15.3248 38.0064 18.1442 33.4267 94.7468 31.2355 92.5605 4.5927 47.6932-90.3788-81.616-112.5247-107.2722-79.9924-39.1448-22.0886-74.9517-46.8729-131.1785-57.3165 111.3266 47.8369 130.4443 62.8352 110.9872 65.4286-17.7227 2.3571-80.0521-32.9795-122.634-47.3451zm34.2421-69.5104c30.5844-13.3439 96.9394-11.5105 114.779-27.4735 29.2728-53.3047 83.5776-39.2073 100.855-4.5155 12.3495-.1218 21.5959 2.5611 22.9558 12.4171-11.3845 25.2503-4.0878 87.0449-36.1272 71.8805 5.8486-4.5162 2.9769-9.0324 0-13.5486-13.6189 13.7017-13.7057-1.9221-13.924-8.2781-20.506 24.0493-30.887 20.0828-45.9115 16.557 3.6437-1.4942 5.2626-5.5253 4.8921-12.0408 59.927-23.2064 7.9298-93.5282-40.643-27.8499-16.4845 4.9312-81.7653-9.7352-106.8762-7.1482zm-479.8135-337.5612l-2.258 7.1476c24.6822 22.3826 238.3045 257.6135 301.8121 358.2636-9.5078-21.3666-5.5087-30.2008-43.2774-75.2654 96.6477 54.1736 144.1656 6.0935 138.4876-4.5162-7.871.9254-12.9637 2.0123-17.2115-.2105-89.2969 45.5698-155.546-29.9703-195.0355-79.9475 49.9383 39.8399 82.7901 46.9811 134.724 50.0538 5.1544-9.0452 5.8445-13.6251 7.1503-18.8183-4.5307-.8488-8.8818-2.0566-12.4188-4.8926-60.7595 22.9509-133.7179-23.1492-190.7965-100.4782 54.3162 39.0163 93.203 35.2407 130.2082 35.7518 5.7235-6.5665 13.5672-12.2899 14.6766-20.7018-5.2168.4018-9.2883-1.489-13.5476-3.0091-38.1622 13.2801-131.6407 8.7832-176.496-69.6185 31.1416 20.9064 65.7653 33.2477 109.8867 22.2031 8.7751-6.7388 18.3195-13.369 20.3216-21.0725-54.672 13.8486-107.864 13.6503-156.5511-29.3577 13.8508.1392 28.428-4.8101 43.2774-11.6643-28.7023 2.4023-58.299-.5618-92.9521-33.8668z" id="path3432" fill="#dfdde2" fill-opacity="1" fill-rule="evenodd" stroke="none"/>
  <path d="M1264.5006 718.08549c106.1833 56.77974 228.533-72.94726 314.3586-2.46597 9.2848.53678 10.5207-6.38105 9.0288-12.30915-99.8094-89.47779-206.1155 42.28015-323.3874 14.77512z" id="path3434" fill="#c3bdc9" fill-opacity="1" fill-rule="evenodd" stroke="none"/>
  <path d="M1225.8252 2348.6648l-8.3893 8.8599c-10.3163 46.6109-34.7379 83.8382-63.025 119.4682 25.8658 4.1964 57.6241-10.4185 88.3489-23.7108-19.0913-35.6558-23.1822-59.4054-16.9346-104.6173z" id="path3436" fill="#c3bdc9" fill-opacity="1" fill-rule="evenodd" stroke="none"/>
  <path d="M1255.5548 2286.5709c14.7532 29.2812 42.8792-18.6773 56.4486-31.6124-17.7609 63.391-53.1075 127.4843 24.0848 187.0363-39.5246 4.0052-50.5553 21.1305-13.9239 60.2103-71.5214-35.2027-111.8974-93.5726-66.6095-215.6342z" id="path3438" fill="#dfdde2" fill-opacity="1" fill-rule="evenodd" stroke="none"/>
  <path d="M1315.0141 2251.95c-24.6425 125.1973 15.9806 174.0953 56.825 185.9057-15.6356-135.2966 38.4011-231.9735 113.2736-305.955-5.0087-126.0925-22.6939-182.6804-36.5033-273.5831.9941 42.1076 30.8306 157.411 10.573 238.0291-21.0587 83.8059-81.0729 165.178-144.1683 155.6033z" id="path3440" fill="#cecad5" fill-opacity="1" fill-rule="evenodd" stroke="none"/>
  <path d="M1066.2638 2381.0316c71.0198 4.7394 128.7934-17.7004 175.7434-65.857-25.7505 62.8609-84.2646 92.3015-171.2275 83.5439 31.4554-5.6654 32.2527-11.0246-4.5159-17.6869z" id="path3442" fill="#c3bdc9" fill-opacity="1" fill-rule="evenodd" stroke="none"/>
  <path d="M1057.5375 2309.1004c-6.7756 10.6031-12.1733 15.694-17.5627 20.7533 112.0503 14.5825 174.53-38.9518 216.6066-85.6838 62.0848 3.5387 104.9184-36.7485 142.0983-77.6997-41.8424 33.1326-84.7282 60.4207-133.5832 54.2823-47.989 69.7916-115.5862 102.2665-207.559 88.3479z" id="path3444" fill="#c3bdc9" fill-opacity="1" fill-rule="evenodd" stroke="none"/>
  <path d="M1101.178 2223.9462c-8.3612 17.4702-11.0226 17.1832-15.434 22.8873 37.9716 7.8887 89.9984-6.8606 178.8205-80.8999 87.7973-2.0502 124.5506-59.6286 149.549-84.6168-46.6677 40.3122-94.0116 61.6917-142.0983 62.2669-46.5754 47.5306-97.5834 86.1882-170.8372 80.3625z" id="path3446" fill="#c3bdc9" fill-opacity="1" fill-rule="evenodd" stroke="none"/>
  <path d="M1130.4493 2153.6952l-15.9663 25.0141c30.561-1.7047 70.7973-.454 156.4677-79.2963 65.9432-13.9185 124.9405-63.2567 176.6916-149.5538-43.0046 53.0366-82.3006 109.8928-169.2406 117.6221-22.1645 50.8008-80.7898 71.9756-147.9524 86.2139z" id="path3448" fill="#c3bdc9" fill-opacity="1" fill-rule="evenodd" stroke="none"/>
  <path d="M1852.6488 2258.0054c-5.9405 45.5054-16.1109 86.7822-36.1898 118.1522 2.1464 14.9025 1.7064 29.8049 1.0645 44.7068 30.7249-31.3056 53.3355-120.4006 35.1254-162.859z" id="path3450" fill="#c3bdc9" fill-opacity="1" fill-rule="evenodd" stroke="none"/>
  <path d="M1897.3538 2279.8257c33.0588 85.8561 3.4239 200.0611-102.183 219.7989 32.6518 13.5543 130.5414-31.1145 144.227-163.9136l80.3627 90.4746c4.3358-20.8048 7.2064-41.8136-7.9831-72.3849-63.578-13.3754-83.9149-38.3708-114.4236-73.975z" id="path3452" fill="#c3bdc9" fill-opacity="1" fill-rule="evenodd" stroke="none"/>
  <path d="M1949.5098 2307.5032c43.2043 18.8819 118.5777 46.7061 194.2541 13.8355 11.3537 4.6757 22.7072 8.2723 34.0609 10.1116-25.7151 26.9303-98.0399 33.4072-164.4507 24.4837 91.4422-11.9764-47.2824-22.4587-63.8643-48.4308z" id="path3454" fill="#c5bdcb" fill-opacity="1" fill-rule="evenodd" stroke="none"/>
  <path d="M1798.8963 2154.2254c31.3735 22.1903 66.5622 35.6172 106.4406 35.1256 29.7687 56.5564 116.5949 72.2762 165.5151 69.7208 2.2063 7.7227 7.3897 14.4493 13.8374 20.7539-40.8681.1739-93.2015-13.1142-173.4984-63.8642-21.6212-7.4795-98.1186-43.0459-112.2947-61.7361z" id="path3456" fill="#c3bdca" fill-opacity="1" fill-rule="evenodd" stroke="none"/>
  <path d="M1782.3979 2069.6081c31.2681 25.8633 65.7731 39.5844 102.7153 44.1707 37.9321 40.3443 82.5241 61.1298 141.0337 68.6544l12.2408 21.2901c-18.3719 1.8462-107.3743-37.9873-139.9695-68.1242-54.626-13.5737-95.6148-40.6766-116.0203-65.991z" id="path3458" fill="#c3bdc9" fill-opacity="1" fill-rule="evenodd" stroke="none"/>
  <path d="M1789.3166 2001.4839c36.1451 35.4517 77.3912 49.8748 110.6982 50.028 24.9841 26.1961 48.0933 53.2409 100.5864 67.0578 2.54 7.1604 5.6223 13.2352 9.5796 17.566-39.531-.6836-93.8298-55.5216-100.5864-64.4001-53.0344-7.602-113.2822-34.3533-120.2778-70.2517z" id="path3460" fill="#c3bdc9" fill-opacity="1" fill-rule="evenodd" stroke="none"/>
  <path d="M1473.8668 1840.9049c11.4553-4.3947 16.7411-10.8458 22.4044-17.1761 9.5466 13.1006 23.1828 15.9816 36.5938 19.418-25.5073-.8941-28.7334 11.1149-16.43 32.1106 5.2272 8.3877 14.1817 134.0258 16.43 209.86.2818 70.2453 9.7075 115.8658 23.898 146.3727-55.5186-46.764-24.7264-329.6406-82.8962-390.5852z" id="path3462" fill="#dfdde2" fill-opacity="1" fill-rule="evenodd" stroke="none"/>
  <path d="M1566.4718 1846.1367c31.0435-2.9132 61.7402-4.6631 98.5794-26.886l13.4426 15.6817c-26.4233 57.6613-41.3049 193.801-58.2515 315.9012 4.8594-77.7119 6.4461-147.0885 2.2404-166.5386-8.5047-43.8702-6.8001-70.5645-5.9746-77.6675 16.7617-60.9511-29.234-46.0485-50.0363-60.4908z" id="path3464" fill="#cecad5" fill-opacity="1" fill-rule="evenodd" stroke="none"/>
  <path d="M1690.4429 1841.6526l3.734 3.7363c-52.3523 114.154.2487 375.8938-112.7689 507.8307l-2.2404-50.7822c85.6345-56.5049 64.1886-345.0027 111.2753-460.7848z" id="path3466" fill="#c3bdc9" fill-opacity="1" fill-rule="evenodd" stroke="none"/>
  <path d="M1501.4989 2123.2005c-.5845 186.9468 30.2051 222.3156-97.086 377.8932 59.2992-49.4275 125.6214-200.7445 117.2498-114.2622 15.0183-27.7482 29.55-55.3233 32.86-79.1623-49.0945-83.9334-46.9418-132.5372-53.0238-184.4687z" id="path3468" fill="#c3bdc9" fill-opacity="1" fill-rule="evenodd" stroke="none"/>
  <path d="M1604.5592 2329.3233l-23.898 28.3803 6.7213 247.1952c3.0459-102.5791 8.169-196.848 17.1767-275.5755z" id="path3470" fill="#c3bdc9" fill-opacity="1" fill-rule="evenodd" stroke="none"/>
  <path d="M1661.317 2150.0865c-6.5069 38.2169-10.8179 84.1186-20.9107 109.7839 17.2662 197.7868 71.0659 216.784 115.7562 234.4967-74.5588-105.7215-89.2884-247.6359-94.8455-344.2806z" id="path3472" fill="#dfdde2" fill-opacity="1" fill-rule="evenodd" stroke="none"/>
  <path d="M1517.9287 2409.233c-23.1109 52.257-15.477 152.6199-80.6558 218.0679 54.0577-27.6969 74.5911-94.8571 76.1749-147.1207l5.2278 55.2661c-17.9391 113.2783-69.3732 144.1245-105.3008 150.8569 5.6985-1.5776 62.0882 10.329 113.8891-104.5528 1.7029 41.7305-27.6113 88.194-65.7197 103.8058 33.3176 1.1114 66.3479-29.4988 83.2698-53.0242-27.351-80.7783-27.8559-152.2945-26.8853-223.299z" id="path3474" fill="#e0dee2" fill-opacity="1" fill-rule="evenodd" stroke="none"/>
  <path d="M1542.9469 2579.1312c5.5845 27.1287 13.5211 66.6809 44.0621 104.9299l2.2404 47.7926c14.0093-18.3711 68.0905-171.5342 69.0804-221.7983 2.0175-15.931 2.9057-34.4293 14.5629-22.4079 1.4941 1.1115 2.9873 1.1307 4.4809-.7479-16.3877-11.1978-33.6544-66.502-46.676-84.7642 9.7169 59.8138 17.3067 144.5136-43.6886 270.7208-18.4047-21.9476-31.5425-57.061-44.0621-93.7258z" id="path3476" fill="#c3bdc9" fill-opacity="1" fill-rule="evenodd" stroke="none"/>
  <path d="M1803.8552 2676.3893c-65.7242 33.7587-122.2964-47.6579-149.4459-98.2226l12.1924-69.0374c.2662-2.2807 5.1233-3.9858 7.2998-.9201 10.827 76.0003 58.9094 164.6995 129.9537 168.1802z" id="path3478" fill="#dfdde2" fill-opacity="1" fill-rule="evenodd" stroke="none"/>
  <path d="M1642.6469 2604.5224l-7.0951 20.9128c25.356 56.2181 55.2116 75.764 94.0989 89.9895-76.3711-37.6171-81.5562-74.2569-87.0038-110.9023z" id="path3480" fill="#dfdde1" fill-opacity="1" fill-rule="evenodd" stroke="none"/>
  <path d="M1569.459 2700.8672l20.1639 34.7232 15.3098-33.9826c-2.868 91.637-8.8293 202.316-11.5757 304.3264-8.413-102.3108-19.9246-208.9713-23.898-305.067z" id="path3482" fill="#dfdde2" fill-opacity="1" fill-rule="evenodd" stroke="none"/>
  <path d="M1628.4572 2643.7361c-1.8669 5.2311-3.7341 10.1752-5.6011 13.4391 67.7774 251.3923-11.9958 385.4436-29.8725 405.1493-46.9694-83.3523-46.4287-165.4335-56.7578-235.6209 6.051 62.9439-.8367 144.7756 53.7705 246.8187l.7462 41.4493c66.549-82.9437 106.9793-198.0746 55.2644-447.7164-7.4689-6.2215-11.8505-15.5286-17.5502-23.5191z" id="path3484" fill="#c3bdc9" fill-opacity="1" fill-rule="evenodd" stroke="none"/>
  <path d="M1568.3387 3092.1932c5.6781 9.1153 10.6038 18.3582 22.0311 26.5153 14.7147-15.3691 17.8871-23.0467 24.2714-32.8648-12.4086 66.7066-18.0393 131.72-26.8854 197.5377-6.105-65.0771-10.6155-135.9993-19.4171-191.1882z" id="path3486" fill="#dfdde2" fill-opacity="1" fill-rule="evenodd" stroke="none"/>
  <path d="M1687.4556 3103.0267c-14.3707-32.0978-31.3688-59.6994-20.5373-95.2205-2.0758-10.9488-6.6211-12.6219-11.5758-14.9348-3.028 18.9586-9.7418 32.4176-15.6831 45.5504 25.4504 152.7603-10.6875 234.9505-52.6504 303.9563-68.7867-92.6079-56.0008-192.4149-57.1312-277.8179-20.0438 173.3733 21.8345 249.6289 56.3845 289.0214l.374 42.1908c97.9752-143.9584 88.319-277.6393 66.4664-341.2916 10.8339 16.5949 20.7234 33.816 34.3534 48.5459z" id="path3488" fill="#c3bdc9" fill-opacity="1" fill-rule="evenodd" stroke="none"/>
  <path d="M1316.2889 2664.6426c13.1361 125.945 173.0191 87.7854 237.8603-7.4674l-5.9745-17.1759c-60.4583 78.3509-189.3581 148.0015-231.8858 24.6433z" id="path3490" fill="#c4bec9" fill-opacity="1" fill-rule="evenodd" stroke="none"/>
  <path d="M1539.2129 2710.9466c-58.655 121.7102-129.3004 208.3713-226.658 216.95 66.3323 5.289 137.3554-48.5845 159.4448-72.0715 15.951-27.6845 36.6137-37.5342 16.4299-.3705-7.8247 13.0434-15.6173 22.5738-28.0056 34.3526 15.6849-6.3558 48.1677-56.4985 54.8909-60.8615 2.7653-52.7107 14.6862-81.8702 23.898-117.999z" id="path3492" fill="#dfdde2" fill-opacity="1" fill-rule="evenodd" stroke="none"/>
  <path d="M1514.9967 2833.2256c-1.1306 13.88-2.3475 27.9329-2.1122 39.0792-92.4427 94.9587-172.3095 125.032-257.1737 105.0896 70.0691 1.8906 151.2775 9.3322 259.2859-144.1688z" id="path3494" fill="#c3beca" fill-opacity="1" fill-rule="evenodd" stroke="none"/>
  <path d="M1215.577 2888.1462c-20.3603-50.4945-12.7327-91.2026 23.2354-121.985-72.5477-1.5255-151.2109 133.4189-16.8986 201.7285-67.2131-39.2647-70.6091-121.1864-48.6808-148.091 14.6481-23.3788 36.1937-29.9138 21.2208-3.7305-10.3897 42.1392 8.5049 63.6403 21.1232 72.078z" id="path3496" fill="#dfdde2" fill-opacity="1" fill-rule="evenodd" stroke="none"/>
  <path d="M1650.1846 2674.8055c13.7324 21.9991 30.6381 40.8297 52.8078 54.3903-6.0312 123.1793 129.4664 204.8458 221.2644 170.0394-52.7357 38.5941-226.5343 29.1853-274.0722-224.4297z" id="path3498" fill="#dfdde2" fill-opacity="1" fill-rule="evenodd" stroke="none"/>
  <path d="M1670.2516 2829.5331v14.7873c63.6078 105.901 170.6006 109.753 203.31 105.6133-99.8948-1.8907-162.4639-48.2139-203.31-120.4006z" id="path3500" fill="#c4c0cd" fill-opacity="1" fill-rule="evenodd" stroke="none"/>
  <path d="M1947.4923 2752.4344c84.3575 58.5108 61.0648 149.5158-29.5723 187.4643 69.7361-45.8953 103.996-105.3385 29.5723-187.4643z" id="path3502" fill="#e1dfe3" fill-opacity="1" fill-rule="evenodd" stroke="none"/>
  <path d="M1848.7419 2965.7751c80.1425 14.6276 215.7431-48.2648 143.1088-188.5248 73.476 85.3201-8.6973 238.572-143.1088 188.5248z" id="path3504" fill="#c3bdc9" fill-opacity="1" fill-rule="evenodd" stroke="none"/>
  <path d="M1670.7796 2914.0225c-.7009 7.9402-1.1236 12.8522-3.1683 25.8762 68.6095 136.9318 106.9234 145.9514 151.5582 181.6586-83.1383-62.1267-125.6345-132.7676-148.3899-207.5348z" id="path3506" fill="#e0dee3" fill-opacity="1" fill-rule="evenodd" stroke="none"/>
  <path d="M1783.2602 3171.1954c14.5164 6.4454 25.7459 1.7185 37.4934 5.8128 104.9038 36.5439 234.7475-25.7676 195.9168-152.6136 68.6514 66.8912-57.6479 259.0512-233.4102 146.8008z" id="path3508" fill="#c4becb" fill-opacity="1" fill-rule="evenodd" stroke="none"/>
  <path d="M1967.5592 2987.4293c79.4713 78.7917-2.1556 187.7777-108.2558 150.4996 112.431 15.1701 154.0159-78.0317 108.2558-150.4996z" id="path3510" fill="#c3beca" fill-opacity="1" fill-rule="evenodd" stroke="none"/>
  <path d="M1196.0381 2986.8991c-108.6893 71.5547-48.66 160.1703 1.5843 180.6044-19.1127-14.091-39.4966-63.4936 20.0669-35.9113 19.6025 8.4063 37.0586 9.3001 53.864 7.9204-111.2209-36.531-86.5153-95.7122-75.5152-152.6135z" id="path3512" fill="#dfdde2" fill-opacity="1" fill-rule="evenodd" stroke="none"/>
  <path d="M1513.9407 2887.0921c2.6236 37.2272 6.7058 67.1596 12.1458 90.3023-34.9104 69.7528-77.0509 116.2679-120.4017 149.4456 50.8588-49.2043 90.1105-98.4917 107.1997-150.5061-88.5398 138.1776-149.9095 159.4167-213.3432 162.6484 78.901-17.3806 194.1323-85.5112 214.3994-251.8902z" id="path3514" fill="#dfdde2" fill-opacity="1" fill-rule="evenodd" stroke="none"/>
  <path d="M1527.1425 2982.677c2.4276 11.1719 5.049 22.216 11.6178 30.6221-111.5471 215.1039-260.5835 208.9146-311.5656 191.1697 96.5746 9.9899 62.9691-7.4544 31.6845-13.2035 114.4546 3.6667 215.5332-74.0137 268.2633-208.5883z" id="path3516" fill="#c3bec9" fill-opacity="1" fill-rule="evenodd" stroke="none"/>
  <path d="M1435.2966 1798.5553c14.3994-9.7223 21.2489-21.3416 29.6083-33.0753 3.087 5.8766 8.8709 10.9931 16.166 16.167-21.1148 6.9048-28.4998 38.0065-40.3732 38.1661-1.8885-6.905-1.9471-14.3466-5.4011-21.2578z" id="path3518" fill="#c4beca" fill-opacity="1" fill-rule="evenodd" stroke="none"/>
  <path d="M1482.2561 1782.0877c31.5924 11.8749 63.8668 10.3414 103.7672-17.6876 3.5342 3.6603 8.5731 8.0678 13.4659 12.4115-38.1037 27.1601-100.4904 20.1786-117.2331 5.2761z" id="path3520" fill="#c3bdc9" fill-opacity="1" fill-rule="evenodd" stroke="none"/>
  <path d="M1617.1799 1781.8258c22.4299 3.7877 44.4109 8.8787 73.6667-7.1288 4.2245 5.6146 8.4494 10.035 12.6739 14.2571-9.556 9.5819-57.5101 8.1958-86.3406-7.1283z" id="path3522" fill="#c3bdc9" fill-opacity="1" fill-rule="evenodd" stroke="none"/>
  <path d="M1709.8574 1721.8904c7.2142 4.4266 20.1746 17.3935 32.7408 24.8157-9.3294 13.1077-18.6587 27.9973-27.9881 44.6244-41.6188-36.1094-12.4206-74.1475-4.7527-69.4401z" id="path3524" fill="#c3bdc9" fill-opacity="1" fill-rule="evenodd" stroke="none"/>
  <path d="M1406.2129 1732.1872c5.9523 8.3167 10.1293 14.2698 13.9941 19.8015 25.4412-17.6611 34.0195-36.6712 42.2462-55.7128-3.7274-2.1332-7.2707-5.1867-10.2975-10.8271-20.0587 35.5091-32.6905 39.8206-45.9428 46.7384z" id="path3526" fill="#c3bdc9" fill-opacity="1" fill-rule="evenodd" stroke="none"/>
  <path d="M1464.3015 1697.3365l-2.9044 5.5445c50.2372 28.8145 131.8088 50.4238 235.5225-2.1146l-10.2975-21.124c-67.1886 52.5963-143.1633 61.4619-222.3206 17.6941z" id="path3528" fill="#c3bdc9" fill-opacity="1" fill-rule="evenodd" stroke="none"/>
  <path d="M1705.3688 1697.0681c29.597-5.583 19.3242-42.4139 46.7348-53.5989 44.9 67.5368 121.6375 50.0023 152.8784-1.322l5.0168 38.0258c-29.6111 18.8183-68.9149 51.5035-134.3957 21.1239-5.1579 10.9295-6.3245 28.1313-6.6009 46.732-28.6979-9.4982-51.7897-24.6054-63.6334-50.9605z" id="path3530" fill="#c3bdc9" fill-opacity="1" fill-rule="evenodd" stroke="none"/>
  <path d="M1796.1981 1571.6533c11.3932 21.9862.7393 72.0714 1.3202 88.4496-21.8524-2.9956-33.9608-20.8177-45.6786-35.6429 2.3039-.4279 3.8504-1.0802 4.7528-2.9069 2.6992-13.7397 28.2335-20.0762 39.6058-49.8998z" id="path3532" fill="#c3bdc9" fill-opacity="1" fill-rule="evenodd" stroke="none"/>
  <path d="M1599.2251 1633.4343l-2.3764 3.168c34.4306 12.5137 105.811 18.7989 156.5751-15.5794l-8.9773-16.1033c-35.4705 30.3288-80.9454 44.5542-145.2214 28.5147z" id="path3534" fill="#c3beca" fill-opacity="1" fill-rule="evenodd" stroke="none"/>
  <path d="M1579.1582 1621.815c6.2963 4.9442 12.3606 8.9622 17.9546 11.0956-47.2519 43.2318-115.4939 31.4594-184.2988-4.7524.7043-2.1146.153-4.2286-.5283-6.3432 79.4797 43.053 134.9927 30.8719 166.8725 0z" id="path3536" fill="#c3bdc9" fill-opacity="1" fill-rule="evenodd" stroke="none"/>
  <path d="M1408.8533 1621.5531c16.72 26.4581-25.7202 35.0426-25.8757 74.4609l-16.6345-21.1238c-.6963-25.8192 33.8281-21.6794 42.5102-53.3371z" id="path3538" fill="#c3bec9" fill-opacity="1" fill-rule="evenodd" stroke="none"/>
  <path d="M1362.6464 1666.9697l-32.4766-49.3767c-34.1962-44.5343 78.8507-53.3942 66.5379-136.7722 7.2168 5.7041 14.434 13.082 21.651 16.9019-4.1306 67.1402-62.9207 65.3712-63.8974 111.4197-7.5052-2.8424-11.3165-9.8439-13.2018-19.0101-2.9064 2.1977-3.562 2.4209-6.6011 5.5445-14.2477 17.5217 6.7423 27.4543 27.988 71.2929z" id="path3540" fill="#c3bec9" fill-opacity="1" fill-rule="evenodd" stroke="none"/>
  <path d="M1393.5842 1576.533c33.019 4.7208 65.4888-.017 96.5257-29.498 5.3309 5.1552 9.5008 10.6038 16.6166 15.3112-39.5728 24.0943-92.5932 27.3711-113.1423 14.1868z" id="path3542" fill="#c3bdc9" fill-opacity="1" fill-rule="evenodd" stroke="none"/>
  <path d="M1508.2201 1563.4639l-3.734 2.9897c54.7871 31.3822 131.2942 31.159 172.514 2.9892-5.8348-3.3792-10.8323-7.5948-15.6831-11.9513-49.0447 36.0457-122.8891 24.4264-153.0969 5.9724z" id="path3545" fill="#c4beca" fill-opacity="1" fill-rule="evenodd" stroke="none"/>
  <path d="M1678.3071 1569.4428l-2.8004 3.5451c38.9351 15.12 87.0266 13.625 120.797-4.2922-2.3072-6.4069-4.8754-12.6219-9.1485-17.5531-36.59 28.8338-72.7493 26.368-108.8481 18.3002z" id="path3547" fill="#c4bec9" fill-opacity="1" fill-rule="evenodd" stroke="none"/>
  <path d="M1424.1675 1501.6828c57.1699 29.07 119.5355 9.735 153.6707-20.3318 5.8087 7.3779 11.6175 11.6636 17.4263 15.5794-42.6301 37.3933-152.2891 32.7111-171.097 4.7524z" id="path3549" fill="#c4bec9" fill-opacity="1" fill-rule="evenodd" stroke="none"/>
  <path d="M1597.3768 1497.7227l-2.9043 2.6377c51.5085 35.1963 130.1652 13.9443 151.0302.2626-2.6405-8.2718-5.2809-15.49-7.9213-21.6477-36.1821 30.9484-90.0355 41.0921-140.2046 18.7481z" id="path3551" fill="#c3bdc9" fill-opacity="1" fill-rule="evenodd" stroke="none"/>
  <path d="M1279.4744 1424.8461l7.393 4.222c7.8542-11.2486 14.3227-13.957 17.5643-9.4982 3.2417 4.4583-2.718 12.7242 5.6712 20.0635 26.6257-21.1748 87.6728-35.2022 95.0538-66.54 11.2194 31.3822 49.2613 32.2832 80.2679 86.6034-7.3316-41.2511-49.6434-52.5319-66.9862-80.2672-17.3429-27.7348-7.0761-62.4261 6.7853-107.1971-28.7696 38.9775-6.1075 94.3261-53.0494 119.0975-29.7957 15.7198-86.6313 12.2576-92.6999 33.5161z" id="path3553" fill="#c3bdc9" fill-opacity="1" fill-rule="evenodd" stroke="none"/>
  <path d="M1526.0865 1228.9305l1.5846 36.9653c-48.814 19.0924-10.7659 141.2434-30.1005 167.9248-7.719-104.2274-50.6345-141.7415 28.5163-204.8901z" id="path3555" fill="#c3bdc9" fill-opacity="1" fill-rule="evenodd" stroke="none"/>
  <path d="M1565.6923 1317.6483h5.8088c6.3398 68.2968 77.9724 74.7994 90.3012 142.0485-15.2318-46.6167-55.9093-60.2097-77.6273-85.0197-12.497 52.1813-75.5028 67.6899-91.3574 97.1692-4.3452-24.2796 86.916-58.2746 72.8747-154.198z" id="path3557" fill="#c3bdc9" fill-opacity="1" fill-rule="evenodd" stroke="none"/>
  <path d="M1673.9482 1252.1626c-37.5354 59.4046 37.1852 97.635-3.1686 196.4451 20.9964-129.2283-69.2362-118.6824-12.1458-212.2864 19.7984 19.2327 87.6269 38.7407 93.9979 71.2922-22.8072-32.1679-57.9288-34.6146-78.6835-55.4509z" id="path3559" fill="#c3bdc9" fill-opacity="1" fill-rule="evenodd" stroke="none"/>
  <path d="M1752.1036 1316.0641c7.0643 22.8427 13.3545 31.9259 19.0109 46.9944-20.5767 67.166-101.7622 90.5571-106.1436 115.1245-14.0382-31.3893 87.6317-48.8851 87.1327-162.1189z" id="path3561" fill="#c3bdc9" fill-opacity="1" fill-rule="evenodd" stroke="none"/>
  <path d="M1829.2028 1247.4102c-12.7795-2.7084-24.9978-.3705-39.0777-14.7878 2.3976 21.7307-1.181 34.4935-4.2247 48.0607 26.6011 15.3175 44.1631 157.8704 54.9203 164.2264-5.4833-61.3088-3.0119-142.0099-40.134-185.8807l1.5846-7.3901c11.2479 4.0562 19.9012 2.9577 26.9317-4.2285z" id="path3563" fill="#c3bdc9" fill-opacity="1" fill-rule="evenodd" stroke="none"/>
  <path d="M1331.2258 1358.8358c25.451-38.1468 47.5336-82.5602 80.2005-105.3959 32.6665-22.8356 53.2101-14.0594 118.8848-67.8113l24.8197-64.9555c-55.4232 81.41-120.8274 137.1614-215.4556 117.7621 5.6366 3.1808 8.7705 10.9802 47.5269 13.2035-20.0629 19.4373-37.3003 61.404-55.9763 107.1971z" id="path3565" fill="#c3bdc9" fill-opacity="1" fill-rule="evenodd" stroke="none"/>
  <path d="M1317.4959 1178.7623c49.6309 24.8666 110.285 37.5779 214.3994-110.896 22.1245-6.0618 43.7075-18.0768 64.4255-39.6101-66.9572 160.8796-257.3488 259.2173-278.8249 150.5061z" id="path3567" fill="#dfdde2" fill-opacity="1" fill-rule="evenodd" stroke="none"/>
  <path d="M1539.2884 1271.7022c79.4246-299.4844 320.3523-478.39586 111.9526-637.91505 151.1287 261.85509-89.3354 372.60445-111.9526 637.91505z" id="path3569" fill="#f1eef0" fill-opacity="1" fill-rule="evenodd" stroke="none"/>
  <path d="M1481.728 1012.4148c4.1057 78.6701 103.5743 20.3319 127.2666-31.15239-40.2748 27.17939-80.1596 51.70809-127.2666 31.15239z" id="path3571" fill="#dfdde2" fill-opacity="1" fill-rule="evenodd" stroke="none"/>
  <path d="M1631.1738 890.43043c9.1358-13.49769 10.842-1.02887 26.404 2.63782-36.3955 75.85996-97.9748 96.5811-131.4913 98.22259 45.4299-23.58926 87.1808-50.73058 105.0873-100.86041z" id="path3573" fill="#dfdde2" fill-opacity="1" fill-rule="evenodd" stroke="none"/>
  <path d="M1606.7996 763.62878l7.8416 7.83798c10.9535-.45364 21.9066-.33849 32.8598-10.44989.1566 9.53617-3.4325 13.80974-8.2149 16.42878 6.1494 55.16974.07 87.34475-7.5795 111.95591 9.5614-9.70298 17.3662 4.22261 25.9859 3.57729 13.7443-21.6479 37.2624-96.9131-.4836-162.21424 1.0593 18.76029-19.1814 38.07024-50.41 32.86417z" id="path3575" fill="#c3bdc9" fill-opacity="1" fill-rule="evenodd" stroke="none"/>
  <path d="M1477.2395 739.66241c60.2526-24.52802 94.6834 18.62654 121.7216 22.70842 42.9886 63.25019-1.555 118.31817-30.3645 152.08962 19.1473-32.77459 47.1801-164.37302-91.3571-174.79804z" id="path3577" fill="#c3bdc9" fill-opacity="1" fill-rule="evenodd" stroke="none"/>
  <path d="M1531.3672 1306.5529c65.6094 30.7503 96.1476-43.8959 127.2666-72.87-15.5062-35.5091-11.0333-64.6556-12.1456-95.5849-57.0048 30.9929-55.4101 143.4409-115.121 168.4549z" id="path3579" fill="#cecad5" fill-opacity="1" fill-rule="evenodd" stroke="none"/>
  <path d="M1755.5361 778.48043c-5.3821 2.47171-5.8547 23.60856-13.2019 23.23146-4.5716 150.9914-141.9663 234.92481-174.2657 453.09481 20.0489-23.3788 34.4688-115.4241 86.0517-200.0159 53.8382-88.29638 106.7224-137.85203 101.4159-276.31037z" id="path3581" fill="#cecad5" fill-opacity="1" fill-rule="evenodd" stroke="none"/>
  <path d="M1685.2151 1063.8483c-54.7553 147.529 53.7333 148.7235 63.1059 196.7842-112.4379-37.7703-120.3172-119.7236-63.1059-196.7842z" id="path3583" fill="#dfdde2" fill-opacity="1" fill-rule="evenodd" stroke="none"/>
  <path d="M1705.3791 640.77577c181.892 118.26669 25.8534 356.97334-42.195 421.20113 26.926-60.2997 190.8972-226.27596 42.195-421.20113z" id="path3585" fill="#dfdde2" fill-opacity="1" fill-rule="evenodd" stroke="none"/>
  <path d="M1766.618 575.43028c18.6442 34.18021 48.6279 88.02799 4.4809 77.29684 77.3653 171.73806-7.5018 260.00888-50.0853 355.50428-89.7836 233.9279 58.8326 141.1603 41.4969 304.3069 50.5406-59.0024-15.2364-144.6223-12.3925-174.1204-3.6385-42.8548 23.3887-135.4377 32.1831-191.44441 10.7802 30.88471 27.3248 49.60639 47.0492 61.60921-34.7269-121.60849 73.7568-361.30482-62.7323-433.15242z" id="path3587" fill="#cecad5" fill-opacity="1" fill-rule="evenodd" stroke="none"/>
  <path d="M1784.5414 977.95978c8.7308 12.10529 14.9059 25.91502 29.1258 34.35922 7.2934 47.5947-59.5219 198.4896 41.0748 209.8533-81.8489 40.8238-126.4385-76.3193-70.2006-244.21252z" id="path3589" fill="#cecad5" fill-opacity="1" fill-rule="evenodd" stroke="none"/>
  <path d="M1740.4858 528.1681c17.1072 1.21951 57.988 29.91308 96.1102-.52391 26.193 35.61088-22.5991 65.75425-73.8989 39.10502-13.3917-8.58506 29.0815-12.5645-22.2113-38.58111z" id="path3591" fill="#c3bdc9" fill-opacity="1" fill-rule="evenodd" stroke="none"/>
  <path d="M1436.8995 541.077c15.3903 17.07428 31.0971 25.91486 45.5555 67.21101 10.7044.11481 21.4088 1.38614 32.1131 4.48404-18.0426-28.6099-39.8901-54.93352-77.6686-71.69505z" id="path3593" fill="#dfdde2" fill-opacity="1" fill-rule="evenodd" stroke="none"/>
  <path d="M1602.3187 491.41321c158.2938 42.18413 143.3908-31.2613 171.7673-41.8199 28.0987 44.93067-49.0731 103.22457-171.7673 41.8199z" id="path3595" fill="#c3bdc9" fill-opacity="1" fill-rule="evenodd" stroke="none"/>
  <path d="M1408.8939 522.77678c-8.9596-3.07285-17.2196-2.51032-22.4044-1.86552 14.0823-113.41215 139.8131-41.39148 207.6143 1.12418-85.581-40.99558-192.8472-93.10604-185.2099.74134z" id="path3597" fill="#c3bec9" fill-opacity="1" fill-rule="evenodd" stroke="none"/>
  <path d="M1409.2673 522.77678c-7.0394-128.9413 178.767 18.34527 264.7456 23.52542-59.8344 6.78407-256.9123-124.38647-255.7838-21.28348l-8.9618-2.24194z" id="path3599" fill="#f1eef0" fill-opacity="1" fill-rule="evenodd" stroke="none"/>
  <path d="M1421.2164 526.51357l15.6831 5.97246c1.5383-11.27437 5.8382-24.24746 11.5754-25.39112 36.4797-7.24328 2.2799 11.93204 8.2151 17.92381 6.8786 4.8547 14.5379 9.70941 22.4044 14.56395.3735-5.48073.7469-11.94492 1.1202-19.41866.6251-29.37056 84.935 17.9238 144.135 37.34246 6.5332 17.50809-32.8478 39.48787-63.8524 33.23484 28.1749 22.27983 87.594 11.4591 113.1422-25.02045 45.5125 3.4557 55.5484-3.9923 65.7198-15.31103-34.7874-7.21179-50.8478 9.90041-138.025-14.1811-80.0825-22.96951-177.8849-91.24104-180.1178-9.71516z" id="path3601" fill="#c3bdc9" fill-opacity="1" fill-rule="evenodd" stroke="none"/>
  <path d="M1493.6572 511.94962c9.8225-.93894 18.7927 2.37586 27.6322 6.34956-17.7492 27.47929 8.2629 53.69402 22.7778 49.66379 4.9163 4.4776 9.9239 8.96147 26.5118 13.43977-23.4283 4.89263-101.8059-19.25916-76.9218-69.45312z" id="path3603" fill="#b6b1bf" fill-opacity="1" fill-rule="evenodd" stroke="none"/>
  <path d="M1286.4164 670.65023c-87.8349-168.97169 166.2724-198.80727 192.0164-59.00236 0 0 63.0223 2.5425 118.6581 32.11709 108.42 78.67011 42.5605 123.68375 20.7171 120.06855-50.5265.88153-60.0164-47.63929-133.7597-29.10877-17.7322 6.61795-18.6887 15.72692-26.6114 15.45853-43.9661-11.17209 36.654-99.46204 123.2243-35.84762 7.719 5.67206 24.5788-5.41062 9.7086-22.03126-58.0502-58.59377-158.6623-26.39371-180.7292-20.90638-28.1071-45.57617-90.2699-35.14489-123.2242-.74778z" id="path3665" fill="#f6d155" fill-opacity="1" fill-rule="evenodd" stroke="none"/>
  <path d="M1538.4661 532.86244c11.0476 8.81501 67.0352 17.9045 68.3335 23.14918-17.9374 42.3052-76.516 29.24897-68.3335-23.14918z" id="path3605" fill="#aaa3b5" fill-opacity="1" fill-rule="evenodd" stroke="none"/>
  <path d="M1913.6953 1677.7969c-.3966.7723-1.2489 1.2193 0 3.168 13.3277 6.5792 29.8094 10.5395 49.1113 12.143l45.9427 270.9062c-3.4987-70.4944-8.4103-143.3388-10.0335-210.7029-5.1373-12.9411-8.912-36.7866-12.6739-60.7334 5.809-.6193 11.6177-1.5516 17.4267-3.1687 29.0966 171.2272 100.2611 205.6885 114.0646 219.154-37.647-39.5973-88.4948-95.2784-105.0875-222.8459 25.2193-14.0653 36.7123-31.1396 44.8867-33.7967 2.531-7.2311.9201-24.5094-2.6404-32.7431-25.3378 24.2153-48.2168 52.7107-99.2786 48.5838-3.4245-.2749 0 4.7531 0 4.7531 19.754 26.4445-20.1854 10.2325-41.7181 5.2826z" id="path3607" fill="#c3bdc9" fill-opacity="1" fill-rule="evenodd" stroke="none"/>
  <path d="M2011.9178 1993.059l2.1122 41.1873c25.4826-16.4417 49.3874-21.4945 83.4363-99.8068 13.9042 138.816 15.685 273.7676 96.6382 301.5346-41.8326-95.3866-41.9103-200.1312-44.8866-301.0044-4.9287 6.3488-9.8575 10.9223-14.7861 15.3112-33.2983-19.2721-43.5139-34.6918-61.257-52.2766-11.1503 34.5954-16.7212 70.9475-61.257 95.0547z" id="path3609" fill="#cecad5" fill-opacity="1" fill-rule="evenodd" stroke="none"/>
  <path d="M2072.0649 1657.5666c11.1874 4.1334 23.7975 5.4301 36.9674 5.6025l14.1895 201.6385-51.1569-207.241z" id="path3611" fill="#dfdde2" fill-opacity="1" fill-rule="evenodd" stroke="none"/>
  <path d="M2168.0305 1643.0034l6.7215-4.8547c16.4312 37.029 38.6124 69.7465 70.9473 94.8435l87.004 585.5041-125.8384-586.9989c-.6123 101.1035-28.5635 168.1865-73.9346 213.5903l-4.8543-38.4602c47.6633-64.8475 76.3276-142.4255 39.9545-263.6241z" id="path3613" fill="#c3bdc9" fill-opacity="1" fill-rule="evenodd" stroke="none"/>
  <path d="M2300.9634 1777.4313c13.1939 7.9653 28.3791 14.436 45.5559 19.4116 52.8159 176.6249 72.7548 524.8028 3.3607 650.8496l-5.9746-47.7919c-121.4585-92.8383-151.7278-351.5059-176.2482-496.2623l3.7341-7.0908c23.4259 132.2374 51.0579 386.8426 169.9003 490.284 21.4086-67.7154 67.6548-262.9792-15.3096-588.4938-6.1224-6.9686-16.1253-13.9378-25.0186-20.9064z" id="path3615" fill="#c4bec9" fill-opacity="1" fill-rule="evenodd" stroke="none"/>
  <path d="M2226.6556 1589.2321c10.453-1.2784 16.2194-.5496 32.8598-4.484l115.756 172.8875-148.6158-168.4035z" id="path3617" fill="#dfdde2" fill-opacity="1" fill-rule="evenodd" stroke="none"/>
  <path d="M2351 1798.3377c16.7716 5.7363 38.0824 10.5588 59.7453 15.3112.6453 5.2762 169.3474 439.0868 287.15 472.3597-150.5995 29.9136-226.2538-234.2414-324.4908-390.2083-6.9928-32.9665-14.4161-65.4921-22.4045-97.4626z" id="path3619" fill="#dfdde2" fill-opacity="1" fill-rule="evenodd" stroke="none"/>
  <path d="M2331.4046 1537.3257c-1.4368 2.2613-2.8718 4.5227-5.2807 5.8064 68.6302 106.3031 70.3061 171.0741 61.2568 229.189l27.9883 36.4352c13.9416-81.3086-1.1185-141.2886-20.5951-198.0302l341.6661 496.3968-302.0603-483.1933 63.8975 8.981c-53.2616-17.8723-107.1659-23.9921-166.8726-95.5849z" id="path3621" fill="#c3bdc9" fill-opacity="1" fill-rule="evenodd" stroke="none"/>
  <path d="M2537.3304 1634.0412c13.0457.1044 24.7715-.6644 33.6065-3.3598 67.6897 110.302 242.1953 310.7015 221.804 583.2622l-21.2843-41.4494c-161.9076-37.3997-274.525-240.8334-331.959-323.375 94.8004 124.9812 202.2066 288.0126 327.8515 313.6657 10.3916-203.4789-143.0951-403.0862-230.0187-528.7437z" id="path3623" fill="#c3bdc9" fill-opacity="1" fill-rule="evenodd" stroke="none"/>
  <path d="M2572.736 1630.2663l5.8089 10.0349c149.8023 79.7306 317.856 237.6842 421.9339 121.4611-107.8683 43.34-282.5891-108.8585-397.6424-166.3474l5.2809 24.8228c-12.7286 6.145-24.0202 7.9841-35.3813 10.0286z" id="path3625" fill="#dfdde2" fill-opacity="1" fill-rule="evenodd" stroke="none"/>
  <path d="M2360.449 1443.8554c.3983 4.2736-.052 7.6971-1.0558 10.5652l186.4112 115.6484-170.041-135.7182c-4.0962 4.3501-9.8206 6.5471-15.314 9.5046z" id="path3627" fill="#dfdde2" fill-opacity="1" fill-rule="evenodd" stroke="none"/>
  <path d="M2592.5945 1552.6367c3.2547 12.4308 7.016 24.3499 8.9619 38.0896 222.9788 103.1352 356.6125 77.7312 421.2032 37.336l-34.3532-12.692c-98.1516 64.9427-335.667-22.772-395.8119-62.7336z" id="path3629" fill="#c3bdc9" fill-opacity="1" fill-rule="evenodd" stroke="none"/>
  <path d="M2415.5996 1376.3896c-.01 2.989-1.1671 5.9725-2.2405 8.9615 94.6569 49.9322 160.9255 142.6552 158.3247 206.4936l32.1129 26.5146c-12.3648-106.731-50.6429-146.6539-89.2442-186.3336l452.943 177.3722-439.8737-206.123c58.663-13.3246 119.8287-16.6593 170.2735-77.6675l103.8073-3.737c88.5364-13.5864 189.1795-64.8344 199.3994-112.7672l-33.2333 3.7304c-42.5036 93.9498-209.9959 90.7237-296.8585 94.1029-40.2442 75.4892-168.2946 81.1039-255.4106 69.4531z" id="path3631" fill="#c3bdc9" fill-opacity="1" fill-rule="evenodd" stroke="none"/>
  <path d="M2668.7696 1355.8532c-11.2983 9.0702-23.1803 15.8155-35.4738 20.9064 47.3467 10.022 91.4357 22.8422 131.8129 38.8373 117.141 12.277 233.1741-5.5961 238.2337-105.3006-49.2283 79.3856-189.6861 64.7515-334.5728 45.5569z" id="path3633" fill="#dfdde2" fill-opacity="1" fill-rule="evenodd" stroke="none"/>
  <path d="M2413.7325 1286.023c3.1941 9.7092 4.4439 18.2628 6.3479 27.633l240.1009-6.3489c-82.1629-7.0844-166.1563-13.2609-246.4488-21.2841z" id="path3635" fill="#dfdde2" fill-opacity="1" fill-rule="evenodd" stroke="none"/>
  <path d="M2529.4887 1189.3146c48.8291 22.2482 93.312 47.1978 129.1989 75.4249l-31.7396-29.1274c102.6968-8.457 207.1453-16.6528 322.6238-23.1492l-365.1922-2.2419-54.8909-20.9064z" id="path3637" fill="#c3bdc9" fill-opacity="1" fill-rule="evenodd" stroke="none"/>
  <path d="M2452.3343 1197.7716c-1.0923 5.1038-3.8317 10.2074-5.8087 15.3175l80.2677-23.2384c120.115-86.1181 125.8121-129.2026 140.9967-175.8516l183.2429-114.06398-208.0626 103.50538c-113.002 1.0923-141.889 16.7544-176.3778 25.8762 95.7757-20.7533 158.7608-24.3113 193.8045-13.203l-22.1793 13.7268c-28.8966 95.3803-136.6765 150.9334-185.8834 167.9311z" id="path3639" fill="#c3bdc9" fill-opacity="1" fill-rule="evenodd" stroke="none"/>
  <path d="M2451.4467 1119.4844c3.4355 6.062 3.9544 13.5808 5.6011 20.5365 57.3263-30.6732 110.8716-65.128 164.2991-99.6982-56.6333 27.7927-113.2667 56.1664-169.9002 79.1617z" id="path3641" fill="#dfdde2" fill-opacity="1" fill-rule="evenodd" stroke="none"/>
  <path d="M2606.0373 1131.4357c64.4935-5.455 130.0571-6.9815 197.5323-1.4941 15.7574-8.8728 179.1904-56.5822 139.6542-143.01948-46.9965 94.66458-221.5126 127.06938-235.2463 134.80438-27.4425 2.7916-95.236 5.5445-101.9402 9.7092z" id="path3643" fill="#dfdde2" fill-opacity="1" fill-rule="evenodd" stroke="none"/>
  <path d="M2875.6373 887.97089l36.2205-15.6817c3.8673 7.33286-22.3348 56.56933-68.749 108.06646-60.6038 67.17245-96.2377 96.27405-211.6799 117.09815 2.2538-3.0793 4.3115-6.1643 6.068-9.2427 89.2596-24.2927 212.0751-111.3562 238.1404-200.24021z" id="path3645" fill="#dfdce1" fill-opacity="1" fill-rule="evenodd" stroke="none"/>
  <path d="M2491.7745 982.81449l-10.4554 16.43539c102.9282-74.17964 184.3441-119.49981 246.4489-138.91204 61.6461-65.14719 75.7112-129.50313 50.0365-166.90926 3.9477 120.42008-187.2519 210.49258-286.03 289.38591z" id="path3647" fill="#dfdde2" fill-opacity="1" fill-rule="evenodd" stroke="none"/>
  <path d="M2425.6816 1028.7485l-3.7342 30.6158c76.0783-55.5281 117.0401-156.37634 106.4211-241.59343l-27.2587 28.00302-118.7435 96.34489c6.391 5.72337 13.3986 11.44674 17.9237 17.17672l100.8198-110.5319c6.6738 91.05584-54.6693 161.7542-75.4282 179.9849z" id="path3649" fill="#c3bec9" fill-opacity="1" fill-rule="evenodd" stroke="none"/>
  <path d="M2529.1154 886.10537l-7.0947 25.39112c49.1154-30.94142 83.5504-63.42274 113.8891-96.3384 84.9637-98.78506 96.0246-184.63478 103.0602-225.91163l-36.5936 29.49805c5.9129 125.50422-134.7865 246.44161-173.261 267.36086z" id="path3651" fill="#dfdde2" fill-opacity="1" fill-rule="evenodd" stroke="none"/>
  <path d="M2487.2938 815.52876c14.1895-.59401 28.3789-.99042 42.5684.37641l166.9131-191.55887-209.4815 191.18246z" id="path3653" fill="#c3bdc9" fill-opacity="1" fill-rule="evenodd" stroke="none"/>
  <path d="M2364.4427 706.86834l-20.5373 23.89627c8.7834 47.0705 8.4512 110.44227-61.2389 187.45211l2.2406 4.10699 4.8542-1.49416c55.1974-68.76263 113.2773-86.6099 171.394-103.80524-33.8353 8.42486-67.5869 13.95655-105.6744 33.60499 25.9827-78.84266 14.4121-119.22493 8.9618-143.76026z" id="path3655" fill="#c3bdc9" fill-opacity="1" fill-rule="evenodd" stroke="none"/>
  <path d="M2372.2843 769.60123l-.3739 15.31121c59.7127-36.71576 120.1889-81.33368 174.7545-142.27184 31.8727-41.04707 72.8038-98.60607 77.6688-176.99492l-31.3662 24.64978c-6.2021 130.32675-174.1707 242.57732-220.6837 279.30577z" id="path3657" fill="#dfdde2" fill-opacity="1" fill-rule="evenodd" stroke="none"/>
  <path d="M2236.7376 752.79587c48.4255-20.93926 95.6823-40.78512 128.452-47.04527l210.2282-195.29584c-56.2094 40.68928-174.3743 142.96865-229.9794 184.46884-19.1496 14.28913-38.374 13.82905-108.7008 57.87227z" id="path3659" fill="#dfdde2" fill-opacity="1" fill-rule="evenodd" stroke="none"/>
  <path d="M2586.62 491.79031c-531.5203 92.76112-826.7661 734.00369-471.2397 676.23439l-19.7907-4.8483c-71.1311 6.2659-89.3315-55.707-82.414-94.9458 6.3048-42.8232 47.1416-66.3552 58.8893-70.38547-3.1623-37.80255-4.3905-75.29808 32.4865-106.88505 14.8002-35.77682 31.6835-54.19862 48.5429-72.81211 55.8626-202.2968 337.7867-303.0554 433.5257-326.35766z" id="path3661" fill="#f1eef0" fill-opacity="1" fill-rule="evenodd" stroke="none"/>
  <path d="M2339.0511 729.27619c-66.4353 9.67132-157.5091 83.17989-171.3039 113.87919-1.3881 3.09146.7636 7.47966-22.8678 20.17234l1.1202 4.10676c22.8093-9.68993 84.5384-.40215 26.5118 14.18703 38.059-1.02191 71.1719 14.02073 93.3519 64.60472 122.855-18.71576 153.2849 71.08187 122.4776 130.69117 80.9792 70.2066 29.7631 160.6298-14.5629 177.3656 27.0072 60.0693 41.2826 139.8893-41.4482 170.646-.2313 53.586-7.6291 137.0148-134.4267 135.9228-15.1717 36.0903-60.2082 97.7625-136.6669 64.9749 0 0-.087 2.2163-.7463 4.4776-1.2419 4.222 31.6127 12.4559 32.1131 10.4565 26.0582 2.9961 29.0982 20.0319-2.6138 12.6991-11.5003-3.4114-21.6861-6.1836-29.8727-10.0865.1774 2.7408.28 5.4809-1.4942 8.2145 82.5678 28.5275 130.1727-21.3537 156.0842-64.2277 98.4391-5.1546 139.1773-59.4176 144.1351-144.131 80.6216-50.5195 69.2703-126.6793 44.4355-179.237 71.8371-53.7197 66.692-148.0401 12.3225-191.9295 36.9243-123.90067-73.5564-157.30237-131.8127-148.61481-19.5956-33.0239-32.4161-37.81477-46.3026-47.05107l104.1806-141.52458L2215.08 865.19255c-12.6165-4.32436-29.081-6.24728-49.6631-5.60179 26.8223-67.43435 132.1314-118.5229 173.6342-130.31457z" id="path3663" fill="#c3bdc9" fill-opacity="1" fill-rule="evenodd" stroke="none"/>
  <path d="M1370.8064 581.40274c15.7958 23.57638 42.289-6.59221 86.6305 39.95437l5.2277-2.23549c-9.9693-40.05109-37.0315-64.42604-76.922-68.71179 17 14.93393 4.6206 15.81564 3.9559 25.35894-.5842 8.38694.251 18.65802-18.8921 5.63397z" id="path3667" fill="#dfa12f" fill-opacity="1" fill-rule="evenodd" stroke="none"/>
  <path d="M1300.6058 653.84487c24.0612-13.07553 76.5016-32.70518 109.7817 14.19328 104.8651-30.67372 179.0346-2.54894 189.3174 39.57745 6.5021-11.46553-23.0885-74.90758-142.6414-64.22775-102.1176-71.41396-160.0022-6.84129-156.4577 10.45702z" id="path3669" fill="#dfa12f" fill-opacity="1" fill-rule="evenodd" stroke="none"/>
  <path d="M1460.424 743.84014c-18.2045-.76638 38.5038-67.77928 131.4394-3.73678 33.3168 13.02457 49.2022-3.95387 42.9418-31.36932-2.213-20.19166-13.3799-31.42724-20.164-47.04545 46.7392 35.10054 52.4248 78.38311 20.7582 95.8211-49.2166 24.52871-83.8099-62.78438-174.9754-13.66955z" id="path3671" fill="#dea12f" fill-opacity="1" fill-rule="evenodd" stroke="none"/>
  <path d="M1383.4575 1699.7188l20.506 29.6961-5.6568-3.5322c-58.4019 27.9143-88.5477 16.9784-117.3799 4.2414l-2.8285-2.1204c-59.9975 11.8677-98.1889-3.8842-130.1077-27.5822 2.2614 17.86 14.7789 31.6125 31.1127 43.8451l-62.9325 275.7735 30.4056-258.8015c-36.0899 101.0778-83.3408 148.3399-148.49265 176.771l4.94965-28.2842c59.5301-30.437 110.4223-88.1047 134.3506-212.8361-23.7269 3.1493-47.476 6.0747-72.1251 0l-59.397 204.3533 28.2843-211.4242c-25.8069-17.0938-47.42327-38.3709-68.58952-60.1082v-3.5322c6.37148 9.0639 12.94768-18.4475 12.02092-26.8731 44.3911 72.3213 107.6573 85.8504 168.9988 65.0587-.2353 6.8347.1009 12.9094-2.8284 23.3337l2.8284-.7097c2.5674-.1565 3.622-6.5536 5.3032-12.0214-1.8189-1.2454-2.2721-4.2092-3.182-6.3618l.7073-2.121c33.9322 61.0919 118.218 32.4749 128.6934 37.4762-1.2964 3.2581.7339 12.0665 2.1214 19.8022l1.4142 2.1204c1.65-3.5387 1.8857-8.4892.7072-14.851l-2.8284-5.6597 2.4746 1.4176c28.7988 21.3729 68.1924 19.961 101.4702-7.0716z" id="path3673" fill="#c3bdc9" fill-opacity="1" fill-rule="evenodd" stroke="none"/>
  <path d="M1187.9422 1748.508c19.3268 9.0188 39.532 16.499 61.5184 20.862-10.3641 129.3622-75.8978 277.2686-144.9572 321.0236l1.7678-36.4159c-16.9069-28.2657-30.298-73.5792-33.9412-166.1685l5.6569-5.659c1.5817 64.4896 8.5689 123.7474 30.0521 168.9975 32.8398-24.675 104.5717-106.9353 115.6121-265.1635.6088-9.6713-2.0344-15.7332-7.4246-18.7352-12.8795-7.1096-20.6172-12.9347-28.2843-18.741z" id="path3675" fill="#c1c0c8" fill-opacity="1" fill-rule="evenodd" stroke="none"/>
  <path d="M937.97946 2295.8074c74.62444 19.8974 124.02794-124.0861 152.44254-221.0313-13.0432-25.9664-31.6671-52.8962-32.9412-170.7033l-6.364 6.3617c-7.897 150.9976-9.2982 317.6959-113.13734 385.3729z" id="path3677" fill="#c3bdc9" fill-opacity="1" fill-rule="evenodd" stroke="none"/>
  <path d="M973.71384 1638.1932l4.50004 4.5032c-5.59605 28.5212-44.11262 132.0644 3.50005 232.9954-26.63236-39.3032-48.87392-101.5121-8.00009-237.4986z" id="path3679" fill="#dfdde3" fill-opacity="1" fill-rule="evenodd" stroke="none"/>
  <path d="M933.21381 1701.693l-14.50012 23.0019-158.50006 643.4974 168.00023-536c8.33754 31.2227 18.82761 63.6466 62.49998 114.4984-61.66454 218.7319-159.47518 414.047-243.50025 465.5062l7.99992-26.5024c-35.79526-108.3663-7.13213-336.0347 54.00015-564.9999-39.0297 125.4979-119.51245 400.0007-68.50009 599.9973l-16.00002 49.5043c166.32048-113.6167 264.15442-398.314 301.00045-543.5053-9.0229 7.2692-19.1591 11.1914-29.50013 14.5003-52.21151-46.7449-77.40033-122.1381-63.00006-239.4982z" id="path3681" fill="#c3bdc9" fill-opacity="1" fill-rule="evenodd" stroke="none"/>
  <path d="M833.3277 1521.523c4.16242 19.7249 27.37927 42.9506 38.8909 62.9374 6.17457 10.329 13.09136 14.353 21.92028 2.1203l7.07108-11.3122c17.35936 19.5016 40.99819 29.8236 75.66057 24.0364l-41.71953 96.1725c-48.38758 93.79-112.82006 114.0388-176.7768 136.4723l19.7989-36.7736c83.26077-7.9466 142.7707-90.0596 173.94868-166.1684-20.78689-4.6566-40.81973-12.8009-64.26097-28.0797l-98.37386 170.9137 65.05397-172.5368c13.10493-27.1279-21.32054-48.3992-21.21322-77.7819z" id="path3683" fill="#c3bdc9" fill-opacity="1" fill-rule="evenodd" stroke="none"/>
  <path d="M793.72956 1820.6304c-11.64782 4.8545-23.79051 9.2111-36.7695 12.7306-106.99928 239.8565-167.02199 453.9255-357.79656 520.8483 173.16317 32.8456 289.55981-244.5825 331.63348-327.8074 30.91411-75.5465 49.35801-145.8619 62.93258-205.7715z" id="path3685" fill="#cecad5" fill-opacity="1" fill-rule="evenodd" stroke="none"/>
  <path d="M817.71366 1528.1917c-19.46823 23.3402-85.65943 115.8908-44.00008 270.5038l3.50006-4.5033c-29.81533-102.5283 1.22193-216.8027 40.50002-266.0005z" id="path3687" fill="#e0dee4" fill-opacity="1" fill-rule="evenodd" stroke="none"/>
  <path d="M746.35345 1664.7149c-5.58266 40.1461-3.51449 71.6887-1.76794 103.5946-129.79206 229.8782-346.54897 442.0696-471.64076 450.7756 159.57066-213.7491 319.14133-434.6344 478.71183-651.9481 10.25316-4.3758 20.50614-11.421 30.7593-18.3903-16.74501 24.7013-24.47966 44.8863-27.93084 62.9375l-438.76025 562.5024c146.63098-12.1495 386.91523-359.5667 422.85034-453.2544.26022-28.0674 3.79958-43.0208 7.77832-56.2173z" id="path3689" fill="#c3bdc9" fill-opacity="1" fill-rule="evenodd" stroke="none"/>
  <path d="M299.46122 2182.318l10.25309-12.7306c-12.63505-217.0389 233.23832-475.0933 299.46013-556.14-10.98771 23.4941-324.39053 298.8011-309.71322 568.8706z" id="path3691" fill="#dfdce1" fill-opacity="1" fill-rule="evenodd" stroke="none"/>
  <path d="M121.27012 1793.7643c36.81113 57.6807 98.73752 93.7772 330.92642-47.3774 46.43353-51.1844 92.86688-103.7992 139.30022-147.7847l-11.31385-.708c-78.19264 32.6411-280.03415 244.1039-458.91279 195.8706z" id="path3693" fill="#dfdde2" fill-opacity="1" fill-rule="evenodd" stroke="none"/>
  <path d="M725.14006 1386.4688c-29.73322 12.3413-144.6938 53.9567-156.27083 183.1399l-24.74858 13.7912c156.33693 52.0532 275.44584-66.0418 299.10641-88.0345-24.38452-15.6239-49.2472-28.3738-70.00364-65.7606l-20.50615 9.8941c-50.47296 41.9479-111.34398 82.4262-170.05935 121.6271l182.08028-92.633c10.55808 11.8296 22.66632 24.0494 48.08318 39.5966-110.32816 75.7897-196.56751 72.0143-238.64867 61.1678 6.09387-74.6905 50.67143-138.2413 150.96735-182.7886z" id="path3695" fill="#c3bdc9" fill-opacity="1" fill-rule="evenodd" stroke="none"/>
  <path d="M549.21331 1540.1938c-3.42056 15.752-7.41913 32.0856-7.0001 43.9982-49.78312 19.6163-104.72221 35.215-166.50016 45.4991-3.49866.9897-19.79159 7.244-26.00008-4.4969-7.10378-4.5863-15.06526-5.7357-23.49996-5.0013-1.44354-3.8516-9.25898-2.1463-10.25006-5.7493 151.28041-26.2019 220.3159-62.4259 233.25036-74.2498z" id="path3697" fill="#cecad5" fill-opacity="1" fill-rule="evenodd" stroke="none"/>
  <path d="M379.71301 1428.691c-39.86862 19.4187-205.90284 107.6643-234.50029 191.9999 80.874 24.5029 141.62664 3.0921 178.25031-.3705-1.6728-2.3194-8.47732-1.8656-9.25011-5.6276-60.37812 8.719-132.45485 12.7814-152.50009 1.0019l14.99997-7.5054c4.66863-71.5675 175.83367-161.1664 203.00021-179.4995z" id="path3699" fill="#dfdde1" fill-opacity="1" fill-rule="evenodd" stroke="none"/>
  <path d="M186.21273 1605.6931c270.50038-100.1646 401.64639-180.8599 546.00083-229.5018v5.0013c-11.54345 7.32-106.35029 29.5496-143.50021 83.4991l-402.50062 141.0014z" id="path3701" fill="#c3bdc9" fill-opacity="1" fill-rule="evenodd" stroke="none"/>
  <path d="M685.21351 1391.1955c-18.72985 7.8509-36.92361 14.1046-56.50021 24.4965-88.34213-12.8386-102.71544-34.8886-140.50007-52.9977l7.50001-3.0026c14.00021 10.1694 31.31348 18.1284 48.00004 26.5025 25.89294 8.7381 32.21015-1.7116 6.50002-10.9996-31.01952-9.8689-50.42635-23.1742-67.5001-36.0008 30.44464-58.9707 102.13534-87.044 111.50018-91.503-39.73312 25.8383-85.57559 48.7126-97.50015 88.0029 61.69776-9.141 127.10935-19.9488 207.50027-37.502 6.04882 10.6804 11.94509 21.2327 23.50002 36.4989l-1.99998 2.5039-11.99988-14.4996-215.50053 16.4989c59.78597 40.9004 123.57173 44.7969 187.00038 52.0017z" id="path3703" fill="#c3bdc9" fill-opacity="1" fill-rule="evenodd" stroke="none"/>
  <path d="M131.52314 1308.6869c25.08555 83.2178 233.71341 62.0237 357.08946 53.3877l6.364-2.1211c-10.00077-6.9557-18.73159-13.9056-24.04168-20.862-51.31693-10.7626-284.49445 38.2369-339.41178-30.4046z" id="path3705" fill="#dfdde2" fill-opacity="1" fill-rule="evenodd" stroke="none"/>
  <path d="M524.67503 1263.0792l2.47484 2.1204c-14.61352 12.322-29.22705 23.0209-43.84058 40.657-193.27457.4349-314.93049-76.5748-349.31126-121.2692 47.79763-38.6321 108.12831-52.2063 171.82715-59.041-54.75511 16.2569-118.86746 25.7423-148.13906 60.4593h-13.78855c89.73936 100.2604 329.09525 144.9608 380.77746 77.0735z" id="path3707" fill="#dfdde2" fill-opacity="1" fill-rule="evenodd" stroke="none"/>
  <path d="M169.70701 1189.1866c128.49318 18.0833 253.83458 33.81 385.72732 54.4482 17.83301-15.6754 49.82347-25.9272 99.70208-29.3448-16.92503-.454-30.94159-2.2228-57.62927 1.7632-147.02288 2.1016-285.87652-16.2184-427.80013-26.8666z" id="path3709" fill="#c3bdc9" fill-opacity="1" fill-rule="evenodd" stroke="none"/>
  <path d="M720.54383 1169.7429c-12.04059 12.5895-18.43729 30.8203-22.98099 50.9094-141.28367-46.0871-164.28466-134.588-168.99865-143.5432 84.89304-58.9516 136.05638-36.9974 206.4754-38.5368-149.65965-6.9622-189.01723 32.213-195.51517 39.9487 56.18677 15.3941 95.91572 29.6446 216.37477 49.4976-11.51233 8.176-18.76186 15.7456-23.68789 22.9826-46.5358-18.9965-132.50467-45.3652-193.74757-69.2929 9.66454 40.8103 72.83402 102.2536 125.86514 118.0821 14.81669 3.9279 31.0023 11.2737 36.76968-7.423 2.24855-7.7035 13.96751-19.7693 19.44528-22.6245z" id="path3711" fill="#c3bdc9" fill-opacity="1" fill-rule="evenodd" stroke="none"/>
  <path d="M183.14201 984.1241c26.65309 27.0707 129.9963 116.4019 318.19859 94.0455 7.18883 18.3767 14.37783 25.1222 21.56666 32.5257-49.9534-7.6075-100.08005-13.1392-150.96752-9.5433-82.70317-24.8858-158.22925-54.9019-188.79773-117.0279z" id="path3713" fill="#dfdde2" fill-opacity="1" fill-rule="evenodd" stroke="none"/>
  <path d="M567.10164 1023.0122c2.93439 1.7819 5.70945 3.7241 9.54573 4.5992-30.81322 12.2133-54.62269 25.4991-73.18556 39.5966-94.91242-29.4021-229.58757-99.41684-278.24687-187.73276 58.76626-26.20186 158.4869-14.04648 216.375 0-64.2314-.59384-140.94634-13.66937-179.25182 11.66383l-28.99148-10.25195c11.54456 37.71888 213.46641 213.73718 333.755 142.12508z" id="path3715" fill="#dfdde2" fill-opacity="1" fill-rule="evenodd" stroke="none"/>
  <path d="M272.59121 896.08944c120.59427 42.14574 235.05564 83.82544 331.27993 124.09896 30.01431-7.2878 59.31059-5.2439 88.38857-.3565-6.68527-6.5794-13.64623-12.3285-19.44562-21.56479l-2.47484 1.06104 12.02093 15.91145c-163.55307-55.76424-284.36556-86.09304-409.76897-119.14911z" id="path3717" fill="#c3bdc9" fill-opacity="1" fill-rule="evenodd" stroke="none"/>
  <path d="M651.9545 943.81836c-9.16481-17.3491-17.8958-35.13851-18.73838-60.81089-45.26446 21.27723-252.37005-68.37312-301.58142-181.0194 3.37168 99.18773 180.18953 176.8869 320.3198 241.83029z" id="path3719" fill="#dfdde2" fill-opacity="1" fill-rule="evenodd" stroke="none"/>
  <path d="M771.80927 1005.6888c-6.22171 6.8733-11.51075 15.1451-19.44545 19.4502-4.03074 2.5935-7.75344 2.1082-11.31368 0-72.97648-46.79568-87.6314-127.95094-85.91373-144.60324 56.1379-9.53686 134.6238-8.24657 242.53801 58.68985-23.63935-5.02726-103.46652-63.78059-231.22415-53.03657-2.36526 44.09354 31.24459 128.46126 105.359 119.49976z" id="path3721" fill="#c3bdc9" fill-opacity="1" fill-rule="evenodd" stroke="none"/>
  <path d="M676.3498 893.61773l129.40069 94.39639c16.73491.86275 33.46966.40877 50.20457 8.48279.92328-3.32768 2.49867-7.63343 5.30331-13.7847-71.36631-29.70191-123.63748-59.39825-184.90857-89.09448z" id="path3723" fill="#c3bdc9" fill-opacity="1" fill-rule="evenodd" stroke="none"/>
  <path d="M384.21305 592.19112l34.50009 20.49796c-4.47847 78.26779 134.31558 230.47273 289.00041 242.50062-25.29162 2.58059-53.35187 1.92222-73.50005 10.50085-73.06797-45.26916-122.32491-93.4701-163.00027-135.50064-8.5715 1.28386-15.23624-20.12782-29.50014-13.497-39.31253-50.80154-54.88291-90.64077-57.50004-124.50179z" id="path3725" fill="#dfdde2" fill-opacity="1" fill-rule="evenodd" stroke="none"/>
  <path d="M609.71349 652.69494c-51.70987-20.05702-98.66104-43.05296-188.50046-39.50143 139.40598 101.07205 215.5348 164.75674 318.00064 244.00138 46.79202 7.01367 91.96481 27.79917 137.5001 45.49963-5.86514-12.50083-10.4638-25.00114-13.00005-37.50197.73386 10.50155.51713 21.0024 6.99993 31.49734-60.87954-17.51452-311.29971-195.60215-434.00051-275.00072 46.23557-14.54465 111.60055 12.54536 173.00035 31.00577z" id="path3727" fill="#c4beca" fill-opacity="1" fill-rule="evenodd" stroke="none"/>
  <path d="M681.21355 657.68985c-56.24834-48.85862-118.76155-104.4312-133.00023-182.49513 65.62067 7.78719 193.73767 52.0087 293.00037 123.4992-92.46385-53.04278-179.73815-92.78686-251.00027-91.503-5.87487 64.64921 53.64045 107.24193 91.00013 150.49893z" id="path3729" fill="#dfdde2" fill-opacity="1" fill-rule="evenodd" stroke="none"/>
  <path d="M594.71329 509.19021l-2.99997 2.50389c94.91556 70.09148 163.64595 136.91252 238.50031 204.50012 21.18903 17.77056 18.1701 36.92727 20.50005 56.00048 7.72057-9.01243-2.37256-39.71833 14.08335-42.92495 15.50098-2.96987 74.89088 27.7863 78.41685 22.92515-140.03651-62.08095-233.21317-161.24955-348.50059-243.00469z" id="path3731" fill="#c3bdc9" fill-opacity="1" fill-rule="evenodd" stroke="none"/>
  <path d="M892.71378 884.18975c-13.43872-21.60336-34.15916-88.23915-20.50005-132.99745 180.22827 38.94534 210.48407 180.7255 213.50037 208.99761-26.5671-102.77742-124.60076-196.06244-192.00033-183.99647 41.24833 37.917 91.56927 115.69323 123.00013 148.99839-14.8953.75317-29.80851 1.49416-39.50001 5.49951-25.27266-2.81681-36.93962 2.24837-50.00002 6.50263-13.91585-16.10977-18.96172-28.2779-27.50016-41.99894 18.22142 25.71679 44.57739 21.80166 72.00015 13.99586-27.66662-50.44305-55.33342-86.7443-83.00004-129.4967-13.6852 10.30326-.74638 64.09312 3.99996 104.49556z" id="path3733" fill="#e0dee4" fill-opacity="1" fill-rule="evenodd" stroke="none"/>
  <path d="M965.21384 692.18994c306.58486 203.45873 329.73756 537.87756 113.00026 483.00146 260.0007-31.2354-44.7574-417.46429-113.00026-483.00146z" id="path3735" fill="#dfdde2" fill-opacity="1" fill-rule="evenodd" stroke="none"/>
  <path d="M979.34537 931.79674c25.20713-10.5586 92.82143-9.38363 95.81313 94.75416l-22.2739 16.6142c.4581-28.5148 4.9839-92.85698-73.53923-111.36836z" id="path3737" fill="#c3bdc9" fill-opacity="1" fill-rule="evenodd" stroke="none"/>
  <path d="M1052.8846 1044.9348l23.3346-16.972c111.5826 42.4582 56.8529 163.0442-20.8598 143.9004 92.8222-9.4918 72.7977-127.8035-2.4748-126.9284z" id="path3739" fill="#c3bdc9" fill-opacity="1" fill-rule="evenodd" stroke="none"/>
  <path d="M1412.6846 263.00412c15.1741 26.46382-26.9525 105.89388 45.6076 93.96184 24.5902 15.47714 46.6563 7.07803 57.6962 7.14169 48.0814-16.74866 46.6829-49.9134 49.7286-58.7919-41.7268-58.72179 5.0442-69.92537 10.1657-73.63659 25.8121 3.14226 39.0753 50.7558 4.3959 65.93951 2.7474 2.19757 6.9602 1.83334 12.6382-1.09845-.5097 76.27424 53.6733 81.58903 91.2151 69.23553 73.9678 20.21653 38.109-65.3455 73.0819-129.12673-39.7089 69.89389-14.1167 133.43821-71.9829 125.28105 14.8876-36.08365-24.4412-64.19556-4.9454-103.30058-30.1605 25.81206 19.9522 73.53431 0 98.35647-20.4123 17.87301-40.2111 2.9897-40.6621-4.94412-8.3469-25.88911 50.804-57.32852 15.3857-104.95494 12.1345 25.7804 7.9423 37.38039 1.4385 53.77125-6.5035 16.39034-31.5282 31.24843-20.1218 63.81846-25.9174-5.12884-39.3729-35.8791-32.1858-60.13942 7.0841-23.91557 19.2187-64.00388-26.0599-76.95835-57.1694 17.18299-28.0776 62.43284-21.1845 70.49416 14.0362 15.20231-11.7098 61.07836-43.9298 60.83588 14.746-22.52299-2.7309-27.0707-24.4524-62.91831-1.5898 19.05443 43.3045 44.79047 17.5836 59.89695-13.1877 10.53946-31.8702 4.34366-39.5631-3.29602-14.5568-16.55054 20.4539-35.84118 14.012-67.5876-9.3911 46.55302-22.9232 43.78074-21.1552 65.9395-16.8465 4.79087-34.4274 10.87222-39.9083-21.27705.3564-44.15785-.5206-71.2929-6.7984-66.64223z" id="path3741" fill="#dfa12f" fill-opacity="1" fill-rule="evenodd" stroke="none"/>
  <path d="M1709.9579 442.96318l.8245 4.66929c-88.6506 5.71693-178.9499-11.24863-265.9522-13.19069v-4.1198c88.0594 2.1654 157.6762 17.63611 265.1282 12.6412z" id="path3743" fill="#dfa12f" fill-opacity="1" fill-rule="evenodd" stroke="none"/>
  <path d="M1573.4099 458.06966l-.2748 3.57084c50.9153 7.95887 101.9 16.00732 144.2409 11.81742v-3.84568c-51.0496 6.356-97.1179-3.89646-143.9661-11.54258z" id="path3745" fill="#dfa12f" fill-opacity="1" fill-rule="evenodd" stroke="none"/>
  <path d="M1451.6984 384.98898c-14.0624 4.49692-7.4455 25.11577-.2748 25.00114 16.21.80448 32.4197 3.11721 48.6296.54896 9.201-4.33079 12.2238-20.5872 1.9231-27.19802-17.0415-2.0953-33.9611-2.07599-50.2779 1.64792zm-3.0222-2.74705c27.9813-5.36558 53.4833-1.92223 67.8616.8243 12.8849 3.42352 12.9241 25.87624 0 30.49422-14.6347 1.34805-46.0987 1.01599-67.5869-.82379-14.1335-11.7087-6.7968-25.8698-.2747-30.49473z" id="path3747" fill="#e1a02f" fill-opacity="1" fill-rule="evenodd" stroke="none"/>
  <path d="M1549.2324 407.24307c36.514 4.79087 67.3874 7.62681 59.6195-20.88082-10.4055.1409-80.7043-15.63091-59.6195 20.88082zm-1.0993 3.8455c-4.9448-5.18659-11.7638-16.3973 1.649-30.21991 20.3957-1.44337 41.2396-.1983 62.3669 2.74653 19.412 8.02323 17.6737 25.31441 1.649 32.69232-34.2702-.0331-52.505-2.27411-65.6638-5.21894z" id="path3749" fill="#e1a02f" fill-opacity="1" fill-rule="evenodd" stroke="none"/>
  <path d="M1647.8248 412.51332c36.0039 7.74144 66.2698 14.45524 60.844-14.59613-10.3822-.70916-78.8931-23.50629-60.844 14.59613zm-1.4072 3.7427c-4.5074-5.56961-10.393-17.29762 4.0984-29.98961 51.6853 2.67 43.0079 3.30246 61.9374 7.8058 18.6963 9.57479 15.5584 26.66855-1.014 32.72397-44.8286.95164-52.5721-6.38817-65.0225-10.54016z" id="path3751" fill="#e1a02f" fill-opacity="1" fill-rule="evenodd" stroke="none"/>
  <path d="M991.37604 980.48315l-57.38506 169.06825c15.97392-.294 29.63355.8105 57.38506-4.9377 25.91746-53.2346 31.27176-128.628 0-164.13055z" id="path3753" fill="#c3bdc9" fill-opacity="1" fill-rule="evenodd" stroke="none"/>
  <path d="M1037.6224 1310.1874l-103.67856-160.2403c-2.52424-3.3599-26.14689 66.3996-29.4116 87.9455 12.7687 35.1256 73.97438 71.4262 133.09016 72.2948z" id="path3755" fill="#fff" fill-opacity="1" fill-rule="evenodd" stroke="none"/>
  <path d="M1020.6356 1186.1144c36.3155-13.0247 43.3146-34.928 43.807-48.0865l-72.96585 6.4834c10.36115 13.044 20.95645 26.5539 29.15885 41.6031z" id="path3757" fill="#c3bdc9" fill-rule="evenodd"/>
  <path d="M899.60639 1064.7556c-14.66449-9.735-62.26238-13.1457-72.21636-4.5227l60.93155 56.3132c2.4578-16.4733 5.88758-35.5213 11.28481-51.7905z" id="path3759" fill="#c3bdc9" fill-rule="evenodd"/>
  <path d="M761.96992 1238.3844l170.89009-88.0538c3.86829-1.6489-20.47413 67.4852-28.43109 87.7661-20.3082 10.4436-105.03687 30.6673-142.459.287z" id="path3761" fill="#c3bdc9" fill-rule="evenodd"/>
</svg>
