<svg xmlns="http://www.w3.org/2000/svg" preserveAspectRatio="none" viewBox="0 0 800 800">
  <path d="M33.06 124.036c0-56.559 45.848-102.414 102.401-102.414 56.57 0 102.42 45.855 102.42 102.414 0 56.561-45.85 102.412-102.42 102.412-56.553 0-102.401-45.851-102.401-102.412z" stroke-miterlimit="3.864" fill="#fff" stroke-width="1.035" transform="matrix(3.86679 0 0 3.8667 -123.83577457 -79.6055046)" fill-rule="evenodd" stroke="#70193d"/>
  <path d="M158.49985743 372.0177473c.10841075-4.13354533-1.78466513-10.28776368-1.17008837-13.96508382l-13.34020367 24.72115775-6.77454997-24.61545088-8.267179 24.61545088-7.16901556-24.61545088-7.89604043 24.26737478-9.31891274-24.26737478-7.88430216 24.26737478-8.6153644-24.26737478-7.5285654 24.26737478-8.25562765-24.26737478-7.18441735 24.61545088-8.95932552-24.61545088-7.88441432 24.61545088-8.27110421-24.61545088-7.88822738 24.61545088-8.61517749-24.61545088-6.81335355 24.61545088-9.79431254-24.93980367c-3.25606061 11.48806601-2.02055196 28.56948837-2.20223342 40.1657727C1.81736124 622.5625972 184.44258574 797.76434208 403.5139695 795.5523279c206.07596363.32730483 393.68105432-170.90209235 392.44535876-396.64722506 0-11.60780294-2.36784017-40.92351487-2.36784017-40.92351487l-10.00018081 24.79223326-7.54030366-24.61545088-8.24388938 24.61545088-7.87286296-24.61545088-7.56736896 24.61545088-8.2555155-24.61545088-7.87286296 24.61545088-8.23618848-24.61545088-8.6345419 24.61545088-8.24400152-24.61545088-8.25940334 24.61545088-7.86116207-24.61545088-7.56348113 24.61545088-8.24788937-24.61545088-7.53637844 24.61545088-8.58033651-24.61545088-6.86367109 24.61545088-13.74607106-24.6722068s-3.3401724 39.95967137-3.53381641 69.38129159c-.02239243 3.37942239-1.55961939 5.99974935-1.83438455 9.03518695-.14579376 1.54714477-3.25568677 7.81811652-3.58802178 9.28746345-4.2843552 18.70701328-10.74548598 37.99930425-18.1813041 55.7938609-18.63404981 38.38467422-43.97502372 57.62950599-66.58789735 76.29400111-20.82271318 17.16430601-52.00837196 40.90190015-91.11328601 49.14179931-39.10476452 8.25154365-53.43501996 12.53967756-98.2859651 6.10549399-44.83928164-6.46905413-73.24226093-18.2710999-97.63015487-36.22408467-24.41099665-17.91446351-37.99893755-35.8597692-51.6486352-51.28791192-13.62652019-15.4164982-32.41914874-51.19507064-37.31837977-67.05619987-5.13515524-16.63457574-8.91297059-36.88432776-11.36066088-54.93418217-1.13681748-8.42161628-3.69643252-13.34805756-2.44746599-20.08757877 1.32261107-7.16885704-.75663222-19.12108537-.43588595-31.53313293z" fill="#70193d" fill-rule="evenodd"/>
  <path d="M46.074769 9.0408395c0-2.1574097 2.944956-3.9062399 6.576941-3.9062399 3.633433 0 6.579008 1.7488302 6.579008 3.9062399 0 2.1574115-2.945575 3.9067335-6.579008 3.9067335-3.631985-.000064-6.576941-1.749322-6.576941-3.9067335z" stroke-miterlimit="3.864" fill="#ffe756" fill-rule="evenodd" stroke="#70193d" stroke-width=".082" transform="matrix(37.38302 0 0 62.94324 -1567.748 -169.43881)"/>
  <path d="M529.75966347 462.76022998s-10.39004827-.04884395-17.66347459 0c-8.28650602.05280938-6.50782216-3.41026458-17.72141826-.14476944-11.2021195 3.21702884-6.84815713 2.54038904-18.08893068 3.7237219-11.20208212 1.17577967-9.7712846-.18882971-18.60309667-1.08262368-8.87812961-.86987553-8.28265557-3.56132835-17.31162565-3.54999857-10.91591514.0489069-14.65126339 1.77059326-14.65126339 1.77059326s.76186585-8.26296785 5.77313378-10.3356257c5.02300619-2.0532084 4.44689655-4.12970578 15.6643057-4.12970578 11.20211952 0 16.24060228-.88120532 18.60317144-1.45776537 3.22092058-.83148016 10.23546951-.38395375 8.83947558-10.04183814-1.46952632-10.47400641-9.16040876-46.94086315-9.7134157-56.6694328-.47551195-6.85169236-3.8628617-50.76193305-3.8628617-50.76193305s1.45382545-9.45798927 1.75176808-12.11432605c.32523223-2.65639343 2.98129544-11.507377 2.98129544-11.507377s5.58360189.2977215 6.5194109 2.64871435c.8542019 2.36244852 5.05766025 2.93881974 3.5536294 6.4688716-2.17307465 5.0112258-3.90144097 24.16457587-2.11886928 38.4944724 1.52747 12.05635532 2.47998921 29.36867865 4.03067406 38.96588577 1.80186132 11.21333767 10.15255398 39.75092012 14.01549045 45.05609085 2.17307466 3.16667426 3.8320581 1.48797813 5.8853202.30212754 2.07662648-1.19529207 4.50869067-22.9719526 5.57971405-32.16323879.9050428-7.63274869-.52597902-29.27851247-.72709964-34.57599783-.70392217-18.281624-6.33765468-37.45276812-15.18868161-52.20802874-2.80372612-4.65553359 0 .30968072.27289601-2.65274273.31401733-2.94643587.31401733-5.01122581.31401733-5.01122581s3.22914483.28702116 5.900722.88158298c2.67587621.57656005 2.96185628.8855484 2.96185628.8855484s6.028385 9.45915371 10.58346799 24.09841624c3.36447135 10.8809722 7.01578257 26.59523599 6.40083198 46.33849637-.52971732 15.656249.72149219 52.34598773.72149219 52.34598773s2.66054917 3.54181594 8.53013113 4.12592918c5.92016117.5853721 21.67725152-.28324456 32.58169008 1.48860756l-22.95328336 22.96040252z" fill="#7d000b" fill-rule="evenodd"/>
  <path d="M338.35795378 397.8068063c.84896827 6.03814472 5.07369756 16.0874731 7.54807932 21.15465546l-2.10503757 2.35911252c-1.8127024-6.6438475-7.25208062-16.55237186-8.20142228-22.6745458z" fill-rule="evenodd"/>
  <path d="M292.69856355 194.59720296s18.31685493 26.5487524 47.03557116 70.98864155c9.15270786 14.14821716 42.5231048 59.13342764 44.46799353 70.6793385.45233448 2.6371328 2.37419529 60.81916081 2.37419529 60.81916081l.29906412 7.66000311s-14.36524595-18.181154-44.06601398-11.59622138c-17.37341977 3.86282646-39.43347337 17.80223572-39.81627545 42.9048169 0 2.03369599-16.49955441-21.00384347-20.91549782-54.61704267-1.69345058-12.79483685-2.60223168-62.9768235-2.67176409-71.7349721-.28411091-20.35415597 11.1440263-84.63802727 14.48498374-97.70360816.95513603-4.21083961-3.92469321-12.84897434-2.88858557-15.49762575.81607122-2.13830765 1.69756271-1.90252228 1.69756271-1.90252228z" fill="none"/>
  <path d="M263.8522591 462.76022998s15.2699149-4.98825153 20.89232035-.78867876c4.24570116 3.18996325 9.6746869 7.34667168 13.92423851 5.79958986 4.2612525-1.53518555 20.76080692-7.73345787 27.07143368-7.73345787 10.81150438 0 19.32993463 5.80021929 27.06362062 4.62443962 5.03452016-.735177 20.87680641-10.4245645 32.66658692-7.36596378 7.54030365 1.93361624 19.93718432 6.13300018 25.72183206 6.35673192 6.1791507.24547862 14.87944931-1.70890889 22.98038605-2.47115149 12.78749579-1.14493748 29.19811601 5.0537125 41.20830677 3.87856227 12.27329242-1.17515024 28.00339224-11.58851084 57.78154312-2.30057531.74616498.2391843-14.11380778 12.7444319-33.06494032 27.0358827-16.2946955 11.93246415-35.99595561 24.05079969-43.29655938 29.01941293-20.52099487 13.90856708-57.59178693 31.471052-57.59178693 31.471052s-39.30207208-19.73553724-57.23631184-30.6976055c-12.42002075-7.60178062-42.22523693-28.31180506-52.9866107-36.34682398-7.72583556-5.80399589-25.13405892-20.48185521-25.13405892-20.48185521z" fill="#fff" fill-rule="evenodd"/>
  <path d="M355.33040333 391.9726606c.84896827 6.03814473 3.12895836 13.25880404 5.60341489 18.3259864l-2.10503758 2.35911252c-1.81307623-6.6438475-5.30737879-13.7237028-6.25672045-19.84587674z" fill-rule="evenodd"/>
  <path d="M382.52299536 396.25695497c.61233378 4.91271965-.53495095 12.76425903-.21682149 18.91230265l-2.67849302-2.61655036c.38541888-4.68171797.72336134-11.9176725.99999565-16.60008284z" fill-rule="evenodd"/>
  <path d="M384.04295136 414.60012487l31.25354633-15.00132462.75027711 1.99970664-32.00359914 16.00142971z" fill-rule="evenodd"/>
  <path d="M323.50699032 405.23209408c.84896827 6.03751529 4.7201664 18.0322303 7.19454815 23.09941266l-2.10503757 2.35911252c-1.81307623-6.64365867-6.89858682-18.49694023-7.84796587-24.61911418z" fill-rule="evenodd"/>
  <path d="M288.70411363 391.36179648s-4.48940103 2.45919227-6.82486751 3.94024664c-2.37419528 1.46909515-7.374024 4.12592919-7.374024 4.12592919s-.6186889 4.15299477.2654194 5.64160233c.9050428 1.44580615 4.44685916 2.629139 4.44685916 4.69430661s-2.33569077 20.09135537-3.54204067 25.37713958c-.46766151 2.0651676.29906412 2.9577027.8814915 4.74088461.5839227 1.77059326 1.69531973 2.11237504 3.45045228 4.49855315 1.75550639 2.3584831 1.7196187 5.82539658 2.16073827 9.6500165.30280242 2.66061062 3.50690064 11.0070412 9.6784252 12.6967524 4.7522784 1.25697645 10.69950487-.49725157 19.53127955-4.41483864 7.374024-3.25164762 14.86875777-2.49255218 22.5288366-.72195893 7.66022837 1.78255247 11.71165 4.5344308 21.45975715 2.49255219 5.39418215-1.18710945 10.5801409-4.11334054 17.37020483-5.00209905 6.80165267-.86987553 5.8270027-.96680812 5.8270027-.96680812s6.46075695-9.8335338 10.09801216-19.5927568c1.89419737-5.08329582 1.81943134-12.21526812 1.81943134-12.21526812s-10.61815943-23.86524303-18.74619885-22.32621794c-7.27735153 1.396081-21.67725153 10.79961178-33.7880026 18.16950951-10.75352333 6.58889805-14.97604702 10.06896668-21.24028146 15.37388564-2.89980047 2.43212668-9.52384643 6.89442452-18.6882178 5.50627437-8.2440389-1.23305801-9.24545511-1.12164848-13.99384568-4.64395203-4.58211091-3.34102702-6.88677379-3.82380164-6.88677379-3.82380164s.9050428-3.83576087 1.77868385-5.01154053c.88560363-1.16382046 7.95790932-6.6196773 10.85789671-8.94750703 3.85523557-3.08547748 6.5621023-5.01909372 6.5621023-5.01909372s-1.20634989-3.71616871-2.70690411-6.95617183c-1.45382545-3.21702885-.96672477-.86987554-2.39737275-6.47667026-1.48859166-5.61453674-2.52522267-10.78803022-2.52522267-10.78803022z" fill="#70193d" fill-rule="evenodd"/>
  <path d="M528.9206017 263.65638253c3.54204067.88164592 7.07245522 2.07253196 7.07245522 2.07253196s-2.08036478-7.97309536-6.4692429-12.67878211c-4.43519566-4.74063284-7.39708932-6.80535355-15.05731769-6.20607729-7.6949198.58411324-11.5461554 2.95033835-11.5461554 2.95033835s2.0841031-2.95033835 5.62614376-5.60679472c3.54951728-2.67181452 7.69880764-1.77865 11.50365091-.90480903 3.86689907.90480903 8.57271038 1.79035743 8.57271038 1.79035743s-8.28646863-8.85476016-13.57238957-11.50339899c-5.2974349-2.66035885-10.91591515-2.94637292-15.3280081-1.19472558-4.46214883 1.76706844-9.74810715 7.98076814-14.79429081 13.26657124-5.03448278 5.3244943-11.7937431 9.16411359-11.7937431 9.16411359s.29906411-2.05327134.88560362-3.53413687c.5801844-1.477026 4.41590603-4.14896641 7.98878769-9.44633218 3.54204067-5.32059183 2.62952127-5.01122582 4.08719718-10.33184282 1.48896548-5.29346329 2.08410308-4.42742729 4.74842794-6.20223774 2.66802579-1.7399399 11.8245841 2.95033835 11.8245841 2.95033835s-.62205337-2.95033835-2.67176409-5.89287174c-2.07288818-2.95021246-6.8017648-7.6715469-12.98869117-9.7479247-6.19840296-2.05698498-7.98093726 3.24422032-9.74033148 5.61453674-1.79438472 2.3509299-2.66054918.58411324-2.66054918.58411324s-.88149149-4.71344136-4.42356954-7.08759102c-3.53419024-2.3392854-10.1349092-.15861696-11.4959874 1.78639201-2.37419528 3.24793397 0 7.65988352 0 11.20169947 0 3.53426275-.90504279 7.6715406-1.20634989 8.86641096-.28411091 1.16772293-.87401489.88164592-2.33569077-.88548546-1.4889655-1.77865-1.2063499-3.55729998-1.4889655-8.580164-.31401732-5.02287032.5801844-4.7135043.9050428-8.55319283.2579428-3.843377-1.5312083-3.4025855-2.69905368-3.24793397-7.07630568.74235254-10.90440118 4.43900885-11.78607959 7.37384428-.75401541 2.3857375.5801844 2.0763715-3.20933184 2.66017002-3.86678692.58411324-8.58041128 2.35867192-14.5352265 7.66768219-5.35552812 4.88363987-8.54571985 10.64502318-9.12571733 16.53395467-.45196065 4.34232804 2.95811798 5.32443136 2.95811798 5.32443136s5.62233069-7.39695073 9.16433398-10.644891c3.53419023-3.24422032 6.7784378-3.55742587 9.12560517-3.24422032 2.41307362.2977215 2.41307362 1.19485147 3.2325093 2.3742189.93195857 1.15607843-.56859565 2.34696448-.56859565 2.34696448s-6.7166063.23981373-13.29403564 4.13738485c-2.49755924 1.53902509-4.77160542 3.17466804-8.28265557 5.60666884-2.03774815 1.46940986-4.02144046 4.81024805-7.66011623 10.034115-6.763036 9.7943831-3.83972161 19.4726737-4.09097286 22.73238436-.33644713 3.23244993 3.208958 7.66757518 4.99579136 8.866241 1.75550638 1.16772294 1.75550638 1.90636183 2.08036478 3.81253482 1.1715837 7.00651384 6.48064472 9.45402384 6.48064472 9.45402384s-2.06503775 9.44251152-1.18691073 14.75530468c.8740149 5.30504485 1.75550639 6.7707033 6.79391438 11.81275241 5.03463231 4.99574178 7.97342327 4.99574178 7.97342327 4.99574178l-.89719236-7.08377037c-1.09457468-7.65605657 0-10.30851605.89719236-13.55661367.90055683-3.2440315 3.81258155-2.96198285 3.81258155-2.96198285s.6224272 8.28246767 2.94652925 16.22459496c2.38952231 7.97322754 5.34393937 10.33568235 5.34393937 10.33568235s2.28484988-17.99171375 2.61793254-23.02609638c.63401594-9.14085606 4.12585122-17.70169649 5.62995683-23.00681686.85083742-2.88456267 5.62233069-1.19088605 4.16450525 1.1755279-1.50429252 2.35860897-2.95811797 23.320035-1.2063499 30.39595634 1.7902726 7.08776726 5.90453508 8.27094905 5.90453508 8.27094905s.29906412-.88926205.88560362-4.42742729c.58429653-3.55723704 3.28297638-24.79325293 5.03463231-24.49551883 1.75550639.30968072 5.07313682 2.61396969 9.77124723 8.81611931 4.74846533 6.18278828.80784696 17.90663967 2.86129597 16.15510562 3.71213339-3.1708285 8.61517749-9.34192823 9.48522978-15.2309919.55289479-3.6617228.19065338-4.8372507-.16448527-5.18136138.78878162.25051408 2.8269036.82354931 6.95253052 1.92184586 5.6222933 1.4885446 2.34316738-2.05327134 2.6758762-5.60666884.27289602-3.53413687-.63027762-6.48834623.85831403-6.20223774 1.4927038.31282788 9.44657574 5.33223632 11.24843707 10.0457721 1.75550638 4.7250229 2.66017535 16.53396725 2.66017535 16.53396725s4.71362436-3.54200477 6.1714498-7.9692873c1.46541418-4.41578279 1.46541418-9.45015912 1.75176808-11.50340528.22803639-1.40741078 2.66017534.56460084 3.58054517-1.19094899.87438872-1.78248952 2.33942908-16.83548425 1.1715837-22.13677767-1.17270519-5.30901027-2.96297778-7.98096327-7.0925673-12.70599248-4.11041203-4.71344136-10.31662803-5.60666883-10.31662803-5.60666883s5.28595832-4.41962233 10.90440118-5.01122582c5.59911584-.57656005 6.79006393.90474609 10.33976812 1.78632907zm-101.2557092 3.24422032c-3.05456615 1.67045057-4.19930884 2.26589359-5.10412733 3.12418757-.80037035.78893053-1.43102182 1.84064908-3.14764987 4.25338924-2.43251278 3.48006863-6.79006392 10.64506724-6.79006392 10.64506724s-.87438873-2.08033692-.28411092-6.49615748c.5801844-4.43510637 2.03737432-10.04563992 5.28210787-12.69427874 3.29830342-2.66035886 14.79432819-5.01122582 17.74474526-3.24805986 2.30840118 1.31475833-1.79849685 1.17162541-7.70269547 4.41584573zm54.34761413.30968072s-2.40858766-6.22924039 8.2440763-12.98049422c3.2597989-2.07656033 9.46586537-3.55364928 5.90449768 0-1.19513499 1.17149952-3.86289909 3.24793397-6.78613871 6.4921543-2.98503375 3.23244993-7.36243527 6.48833992-7.36243527 6.48833992zm36.2820852 29.51826956c.587661 3.82808179.28784922 6.17894875.28784922 6.17894875s-1.45793759-3.46452165-7.374024-9.70927126c-4.43519567-4.75215145-7.69484505-5.62215287-12.0759475-6.51930171-4.446747-.8814571-7.69103197-1.75938936-7.69103197-1.75938936s-1.46915249-3.82015094 2.35849442-4.43900885c3.84360945-.57215402 6.79006393-.88548546 13.8778462 3.53036028 7.06860477 4.43900884 10.03049843 8.87408374 10.61430897 12.71756773z" fill="#02a03b" fill-rule="evenodd"/>
  <g fill-rule="evenodd" fill="#fff">
    <path d="M169.5220239 551.59764509l9.42723108 22.3301633 3.2442358-.75013881c1.19097094-.26293526 1.94499476-.41373636 2.26593823-.3866695.35961135.03093356.6573541.17400128.88162784.42533645.21654017.23586839.3132099.52587051.26294164.83133941 0 .33253577-.1044033.59547102-.37121173.80813925-.32094347.31320229-1.26443993.64960475-2.78022114.96280704l-20.37797693 4.48149944 5.6919131 6.03591081c1.79032321 1.93334747 3.50717744 4.45056588 5.15442946 7.61352235 1.6936535 3.19775672 2.71061894 6.3452464 3.01996205 9.43086897.40601282 3.07788918.14307118 5.9624436-.68055483 8.6536633-.76562418 2.72215323-2.23113713 5.0421702-4.31920308 7.00645123-3.88998952 3.61535978-9.14882228 5.44430649-15.80743258 5.57577412-6.63154278.12760093-15.72236323-2.17694926-27.31886281-6.882717-1.41911149-4.09096326-3.18623397-8.6536633-5.28590028-13.78476749-9.65150483-4.11803012-16.48798741-8.46032854-20.47464665-13.02689527-2.86142371-3.27122393-4.35400418-6.41484692-4.50867573-9.47340262-.09666972-3.02375545.71535592-5.39790615 2.52887986-7.08378514 1.92179403-1.80187985 4.61307903-2.36641731 8.06225464-1.72067925 3.46077596.61867119 7.0027545 3.00442197 10.64140275 7.1843192 1.43071185 1.64334536 3.01609526 3.8357614 4.83348599 6.61204836l7.48223631-1.79414645-4.90308819-5.1311042c-1.171637-1.2953428-2.54434702-3.24802375-4.09492933-5.80004241-1.57378303-2.6022857-2.54048023-5.01123665-2.90782517-7.23458625-.40601282-2.22721629-.25134127-4.24176435.36734494-6.1132447.63415336-1.87148036 1.63565166-3.4452252 2.99289452-4.72896793 2.1731353-2.02228145 4.81028526-3.03535553 7.8998495-3.01602205 1.94499477 0 4.39267207.78880576 7.24249541 2.32001696l.41761319-.45627c2.26593823-2.09574866 5.77698245-3.51095901 10.53699946-4.1257635 4.76775058-.6960051 11.7279704-.25906857 20.87679268 1.23734238zm.54908401 24.36404485c-1.56218267-5.74590869-2.94649306-10.0186066-4.28440198-12.852894-1.26443993-2.84202079-2.63714995-5.11177072-4.12586364-6.78218294-2.0377977-2.38961747-4.38880528-3.72362723-6.99115414-3.99816257-2.5868817-.3016022-4.760017.36733602-6.49233838 2.00681468-1.69365349 1.57761153-2.60234885 3.510959-2.60234885 5.8116425.06186862 2.2968168 1.171637 4.76376817 3.4143745 7.3467204 1.50418084 1.68974569 5.16602983 5.27030521 11.04741558 10.73781186zm-20.6641193 4.57816682c-3.2094347-2.88455443-6.17139491-5.8889764-8.8317456-8.92819863-2.98129416-3.43362512-4.71361554-6.22537887-5.18923056-8.4139282-.46401465-2.17694926-.20107302-4.39256547.87389427-6.63911523-2.73381968-.7694723-4.91855535-.3866695-6.59674168 1.17547526-1.49258047 1.39587688-2.1383342 3.27122393-1.85219183 5.5835075.33254383 3.04695562 2.50567913 6.86338354 6.44207012 11.37581654 1.81352395 2.09574866 4.26893483 4.63616724 7.3468987 7.63285582zm-5.80018319 3.77389426c5.94325437 5.41337293 9.89124573 9.3303349 11.94451058 11.68128544 2.7918215 3.18615663 4.24960088 6.30657945 4.29213556 9.34193499.09666972 2.9850885-.84682675 5.39790614-2.80342188 7.20751937-1.70525385 1.59694502-4.12586364 2.30841689-7.16902642 2.1460157-3.05476314-.11986754-7.99265243-1.84441349-14.85233574-5.07310377l4.29213555 9.60487025c4.87988746 1.457744 9.22229127 2.00681467 13.08908006 1.67041221 3.9015899-.33253576 7.18449358-1.80187984 9.97631509-4.38483207 1.77872284-1.68974569 3.05476314-3.87442833 3.8281209-6.63911522.77722455-2.76468688.6921552-5.78844233-.32094347-9.07126634-.97443077-3.2905574-2.7918215-6.47671404-5.42897146-9.481136-2.14993457-2.47081808-5.11962836-5.38630607-8.94001569-8.73873059zm-18.74619206 4.16829716c1.64725202 2.93482146 2.98129416 5.39790614 3.92479062 7.35832048.9666972 1.97588112 2.60234886 5.55644064 4.8682871 10.7803455 7.44356842 3.24802376 12.40852522 3.6733602 14.94900546 1.33400976.77335776-.71920526 1.15616985-1.74001272 1.15616985-3.07402248 0-1.2992095-.44081392-2.50948502-1.43071185-3.60762638-1.18323737-1.3842768-2.78022114-2.915488-4.833486-4.65550072-5.56044228-4.86816894-9.09082044-8.1780598-10.61820202-9.91807253zm-3.81652054 12.19942255c-3.7237176-8.20899337-7.37009943-14.34157155-10.8347422-18.35133421-1.8251243-2.08414858-3.70825044-3.30602418-5.6184441-3.72362724-1.33790893-.28226873-2.39740906-.01933347-3.2442358.78880577-.95509683.8390728-1.3108414 1.914014-1.10976839 3.24802376.28614237 2.12668222 1.49258048 4.46603266 3.66184899 6.96778429 3.38730698 3.83962808 9.09468724 7.52845506 17.1453415 11.07034763z"/>
    <path d="M190.64242428 613.49569778l21.64241687-3.55349265 1.05950013.9898739-9.4852329 10.12300737 7.37396622 6.87111692-3.73531797 4.26883122-7.3507655-6.84405005-22.2495027 25.52792003 1.37271002 6.94458412 3.9982596.3132023-.07346898 1.9874812-13.9011057-.8429395c-.22814054-5.48684013-1.63565166-10.36660915-4.23800052-14.64317376l.66895446-.7694723c1.5853834.2358684 2.81888903.11986755 3.7933198-.32480237 1.22963884-.54907069 2.63714996-1.69747908 4.15293117-3.46842537l18.93566471-21.7308256-3.40277414-3.15908977z"/>
    <path d="M244.30958592 649.25489264l1.15616985 1.55827807c-2.91169196 1.50801102-4.9997579 2.79562044-6.1713949 3.85509486-1.16777022 1.01307407-2.37420833 2.66028612-3.65024863 4.86043554l-10.8347422 18.62973625c-1.8251243 3.10108935-2.70675215 5.17363784-2.70675215 6.24471234 0 1.06334111.39827925 1.77094629 1.04016619 2.18468265.33254383.23586839.71535592.33640246 1.21803847.3866695.28614237 0 1.26443993-.10826747 2.88849123-.32480238l.08120256 2.01454806-14.11377909 2.19241604c-1.14456948-3.09722266-1.6936535-5.56417403-1.6201845-7.39698744.06186862-1.84441348.81202564-4.03682952 2.1731353-6.5695147l-18.97046581 2.49788493c-2.47087804-7.07218506-2.52887987-12.58995875-.22814054-16.57652124 1.52738157-2.65641942 3.50717743-4.80630181 5.90458648-6.48831412 3.14756608-2.20788281 7.60984034-4.32296495 13.3868228-6.2756459l1.41911148-14.35317163 1.3108414-.8506729c1.0014983.78880578 1.81352395 1.35720993 2.33940722 1.68201231 3.34090552 2.0609484 7.0762235 2.51721841 11.20208713 1.3726767 1.32630856 2.49788494 2.98129416 4.91070259 4.97655718 7.17658583 2.01459696 2.2968168 3.66571577 3.83189469 4.9649568 4.65550071.61868621.34413585 1.1097684.52587051 1.52738158.52587051.4485475-.03093356 1.36497644-.3750694 2.70675215-1.00147399zm-15.51355663 1.72841264l-11.82077333-13.58369934-1.39591076 14.51557283 6.73981287 10.28154186zm-7.56343887 12.99982841l-7.37396623-11.30621602c-3.63864825 2.57908553-6.24099711 5.22390487-7.79157942 7.91512455-2.73381967 4.69803436-2.92329232 9.89100568-.5838851 15.51704682l9.520034-1.35720992z"/>
    <path d="M253.4584082 658.67029484l19.81729256-9.59327017 1.29924104.64573806-6.44207013 12.43142425 8.94001569 4.512433-2.4476773 5.17363784-8.92454854-4.49309953-14.54299265 30.87942584 3.14756608 6.30657946 3.91319026-.85067289.49881575 1.9217474-13.57629545 3.15908976c-1.69365349-5.2045714-4.35400418-9.50433618-7.99265243-12.89542764l.4176132-.93187349c1.59698376-.19333474 2.76475398-.6882717 3.59224678-1.35720992 1.02469903-.90093992 2.02619733-2.38961748 3.04316278-4.53563317l12.43172596-26.28579225-4.15293116-2.08414857z"/>
    <path d="M305.33524663 674.87174666l7.52863778 20.68295127-26.0814904 7.23458624-3.07796388 8.75806405 9.22615806 8.44099507 9.06761972-2.3780174.52588327 1.81347994-18.85059536 5.2045714c-2.47087803-2.86522096-4.54734362-5.02283674-6.2757982-6.5115143-1.71685423-1.46547738-4.28440199-3.30602417-7.6253075-5.47524004l.41761319-1.20640882c1.26443993-.24360178 2.2427375-.75787221 2.88849122-1.55827806.75015703-.81973933 1.6588524-2.80335384 2.72221931-5.91990997l9.70177308-27.43806733c3.2790369 0 6.0012562-.0734672 8.23239334-.26293526 1.62791808-.1508011 5.5179076-.6148045 11.60036637-1.38427679zm-8.99801751 2.8342874l-.77335776.08893398-7.63690787 21.74242568 15.29701646-4.24176436z"/>
    <path d="M384.32987486 696.46337124l-1.95659513 38.12561217c-4.9997579 1.81347993-8.6577401 3.30989087-10.9004776 4.52403308-1.75552211.88547315-3.42597487 2.01454807-5.0732269 3.40269156-4.58214471-3.25962384-8.4489335-5.53710717-11.50369665-6.85951684-2.30073933-1.01307407-4.96495681-1.66267883-7.94625097-1.96428103l-.42921355-1.04400764c1.29924103-1.01307407 2.11126668-1.96428103 2.49407877-2.8342874.52588327-1.13294161.84682674-3.08562256 1.01696545-5.8116425l1.39204396-27.9948714c6.09792593-1.7593462 11.44182804-4.39256546 15.88090157-7.91512456 4.51254252 3.43362511 10.16965452 6.22537886 17.02547105 8.37139456zm-24.5657092 31.92343347l12.61346505 6.16737844 1.6201845-32.40290365c-3.95572493-2.17694925-6.71274534-3.61535977-8.37546452-4.2881647-1.13296912-.51813711-2.56754776-.97440712-4.22253336-1.3765434z"/>
    <path d="M419.21991013 671.7861241l-1.10976838 8.59566286-9.11402119-1.69361239.60708584 12.28835654 7.64077466-.43306983.28227558 5.72657521-7.6253075.40213628 1.75165532 34.20478349 5.78858282 4.01749605 3.6579822-3.41429164 1.19483774 1.36881001-10.9391455 10.16167432c-4.25733445-3.6037597-8.5533368-5.970177-12.86093952-7.10311862l-.35961135-1.19867543c1.14843627-.82747272 1.91019366-1.6897457 2.33940722-2.57908553.71922271-1.42681043 1.04789976-3.12042282.93962967-5.10017063l-1.52738157-29.80835134-4.64401334.24360178-.29387595-5.69950835 4.65174692-.26293526-.622553-12.26515637c4.77161737-3.7468274 8.3174627-6.882717 10.68393744-9.38446863z"/>
    <path d="M519.2073347 711.8682839c-5.42123788 8.1161927-11.56556527 13.4676985-18.42524859 16.0699842-5.13122872 1.90241391-10.59500129 2.48241815-16.34878301 1.6085451-5.73831457-.82747272-10.77287357-3.0662891-15.02247446-6.71644912-4.30373592-3.6733602-7.40876732-8.32886092-9.40403034-13.95876876-1.13296911-3.2170902-1.90632687-6.46898064-2.30460612-9.66673736-.4137464-3.24029037-.49108217-7.13405218-.24747448-11.68901883 2.49407877-2.72215324 5.32070138-6.22151216 8.46053388-10.52514364 1.69365349-2.33161705 5.95098795-8.05045888 12.80680448-17.17585895 1.40751112-1.84441349 2.91942553-3.99816257 4.59374508-6.53858115 5.58364301-1.42681044 10.06138444-2.2156162 13.47962573-2.33548375 5.09642762-.21266822 9.84484426.42146975 14.2491167 1.93334747 4.4468071 1.42681044 8.2787948 3.68496029 11.53849775 6.69711565 3.25196937 3.0585557 5.68804631 6.78218293 7.2424954 11.20568195 1.43071186 4.06776309 1.85219184 8.23992693 1.26443994 12.50875815-.80042528 6.16351175-3.02382883 12.67889273-6.56580737 19.50360931l15.49808948 4.55496665 2.11513347-3.66176012 1.78645642 1.001474-6.7591468 12.32315679zm-36.03847153-47.70341555c-2.1731353.66120484-4.2457341 1.34947654-6.32219968 2.04548163l9.9685815 28.33900726c1.07883408 3.00442197 1.61631772 5.18523792 1.65111882 6.51151429.03866789 1.32627637-.19333944 2.73375333-.73468987 4.29976478-.56455116 1.5350779-2.4863452 5.57577411-5.71898062 12.14915552 3.56904605 1.5273445 6.88675083 2.38575078 9.92991361 2.55975205 3.06636352.10826746 6.50393875-.43306983 10.30885892-1.67041221zm6.48073801 12.06408824c2.94649306 1.13680831 5.54497513 1.79414645 7.84571446 1.93334747 2.32007327.09280068 4.6556137-.28226873 6.99888771-1.17160857 2.14606778-.82360602 4.03306071-1.99908129 5.5217744-3.55349266 1.519648-1.6008117 2.98129415-3.7468274 4.30373592-6.52311437-2.5868817-1.6897457-4.82575241-2.8304207-6.78621433-3.41042494-3.46464276-1.03240755-7.04915597-1.54667798-10.71487174-1.50027764-3.56904605.01160008-7.47450273.54907068-11.63903426 1.54667798zm-20.08410098-.17013458c-1.95272834 3.03535553-3.21716828 5.44430648-3.85905522 7.23458624-.90869536 2.3780174-1.39591075 5.08083716-1.49644726 8.112326-.0696022 3.00442197.4137464 6.05911098 1.53124836 9.1872672 2.35874116 6.76284945 7.11102459 12.14915551 14.23364954 16.10478444.89322821-1.90241391 1.3843104-3.61535977 1.32630856-5.1311042-.0348011-1.5312112-.75402382-4.28816469-2.1731353-8.24766031zm27.12552337 20.14161397c1.39591075-3.054689 2.88462444-5.38630606 4.48160821-6.99485116 1.5892502-1.6085451 3.63864825-2.88455443 6.14432739-3.83576138 2.62941638-.98214052 5.15829625-1.3842768 7.59437319-1.23347569 2.47861161.16240119 5.309101.9937406 8.5533368 2.43988451-.28227558-3.46842537-.84682674-6.38391335-1.66271918-8.7271305-.74629023-2.12668221-1.57378303-3.93629545-2.42834336-5.41337292-.69602198-1.09040797-1.69365349-2.37801739-3.09343103-3.84349477-1.8985933 3.23642367-3.70825045 5.6569747-5.35936927 7.23458624-1.69365349 1.55827806-3.77011907 2.77628697-6.16752812 3.68496028-2.21953677.81973933-4.35787097 1.2218756-6.40726903 1.17547527-2.11513347-.08893399-4.71748232-.65733814-7.6949097-1.72841264zm7.56730567 21.44855687c3.80105338-1.67041222 6.7591468-3.5225591 8.78147734-5.52550708 3.18236718-3.03922223 5.57977623-6.46898064 7.30049724-10.36660915 1.72072101-3.8976285 2.72995289-8.20899337 3.05476315-12.9263612-5.71511384-2.55975206-10.81927504-2.9850885-15.25834858-1.31854298-2.56368097.98214051-4.80641846 2.62548587-6.63540956 4.94936953-1.39591076 1.6820123-2.60234886 4.07162978-3.57677964 7.1959193z"/>
    <path d="M561.89668296 640.88349808l1.87152578-.33253576c-.06186862 3.39109147.0696022 5.8889764.39441246 7.47045463.37121172 1.5312112 1.171637 3.39109147 2.42834336 5.60670768l10.85020935 18.64133633c1.7903232 3.07788918 3.15143286 4.8913691 4.0330607 5.38630606.93962968.45627 1.75552212.50653704 2.37034154.10053407.32481025-.21266822.61481941-.52587051.9318961-.92800679.09280293-.27453534.46401465-1.21414221 1.05176655-2.80722053l1.75165532.87387306-4.71361554 13.90850172c-3.2094347-.40600297-5.58364301-1.04400764-7.11102459-1.97588112-1.53124836-.96280704-3.09343103-2.62161917-4.58214471-5.06150368l-6.79394791 18.49053523c-7.21542789-1.0710745-11.91744306-3.60375969-14.25685028-7.59032218-1.53124836-2.64481934-2.43607693-5.46750665-2.76862077-8.44486176-.3828121-3.91696198-.09666972-8.97846567.91642894-15.1535775l-11.59649958-8.05432557-.13147082-1.58921162c1.19483773-.56453746 2.0377977-1.02467416 2.56368097-1.33787645 3.30223762-2.0725485 5.47537293-5.2741719 6.43433655-9.60487025 2.75315362-.01160008 5.61457732-.40213627 8.47986782-1.1522751 2.87302407-.75013881 4.98429075-1.54667797 6.26419784-2.33935043.58001832-.39440289 1.00536508-.75787221 1.2064381-1.14067501.12760403-.45627.32867705-1.40747696.40601282-2.96575503zm-5.7924496 14.97957623l-17.15694187 4.40416554 11.73183719 8.07752574 11.9019759-1.27214264zm7.53250456 12.98436162l-13.08908006 1.43841052c.48721539 4.53563318 1.52351478 8.14712626 3.05089636 10.83061255 2.76862077 4.72896792 7.07622349 7.33125362 12.98854355 7.8068571l3.32157157-9.30326805z"/>
    <path d="M573.48158218 636.94333593l.71535593-22.61243204 1.1407027-.88933984 7.8302473 11.53821772 7.91918344-6.16351174 3.34090552 4.60136698-7.92305023 6.17511183 19.9719641 27.42260056 6.8983512-.03093356 1.05950014-4.00976266 1.8985933.43693653-3.4878435 13.9278352c-5.22403165-.78880577-10.13485342-.29386882-14.70539777 1.50801102l-.622553-.80813924c.52588328-1.54667798.67668804-2.86522095.4524143-3.8976285-.29774274-1.3765434-1.14843628-2.9928219-2.52887988-4.87976903l-17.02160426-23.39350442-3.67344935 2.86522095z"/>
    <path d="M623.88904087 588.50138165l1.75552211-.70760517c.5568176 3.33695773 1.1059016 5.74590868 1.74005496 7.2577864.63028657 1.42681044 1.77485606 3.08562258 3.45690918 5.03057013l14.07124441 16.1434514c2.33554043 2.66028613 3.9711921 4.19149732 4.97269039 4.48536614 1.01309866.3016022 1.77872284.16240119 2.30460612-.35573593.32481026-.30160221.56455116-.63800467.73855666-1.11360815.1044033-.28226873.26294164-1.27600933.52588327-2.94642155l1.88312615.48720357-2.08419916 14.6045068c-3.19783433.24360179-5.59911017.05026704-7.29663045-.5374706-1.6897867-.62640457-3.51491101-1.99521458-5.45990578-4.07162977l-3.22490185 19.49587592c-7.2772965.34413585-12.39305808-1.19480874-15.3859526-4.62456716-2.01459696-2.30841688-3.4491756-4.8913691-4.3153363-7.75272336-1.07883407-3.77776097-1.73232137-8.78513092-1.88699292-15.06464351l-12.87640668-5.60670767-.3789453-1.54667798c1.0711005-.78880577 1.8251243-1.3842768 2.2775386-1.8444135 2.84982334-2.6718862 4.37720491-6.22537886 4.50867573-10.66047796 2.73381967-.57227085 5.42897146-1.49641094 8.12799004-2.81882061 2.66035069-1.3069429 4.61694582-2.49401824 5.73831457-3.55349266.48721538-.47560348.81202564-.9202734.91642894-1.33787645.11987045-.46787009.05800183-1.41907705-.10827009-2.96188833zm-2.93875948 15.85344928l-16.02397275 7.68312286 13.01561107 5.61444106 11.44182804-3.61535978zm9.80230959 11.2443489l-12.60186467 3.9788291c1.28764066 4.37323199 2.96196021 7.71018972 4.9997579 10.04180678 3.56904606 4.09096325 8.2787948 5.78844233 14.19498166 5.10017063l1.519648-9.76727143z"/>
    <path d="M643.45499216 557.14635233l11.63516747-.58387093.76562418 10.26220838-9.97631508.2320017.59548548 6.83631666 23.00352652 17.9066643 6.58127452-2.1382823-.16627192-6.72031582 1.96046192.04253364.49108218 16.7505225c-3.56904606.71920527-6.31833289 1.51961112-8.27106123 2.38961749-1.91019366.8313394-3.78171944 1.96428103-5.57204265 3.41042494l-.85069353-.66893823c.06186862-1.85988027-.18947265-3.27122392-.74629024-4.25336444-.5877519-1.04400763-2.01459696-2.47081807-4.3810717-4.2881647l-16.04717349-12.53195831c-2.01459696-1.57761154-3.56904605-2.35481723-4.58214471-2.40895096-1.01696546-.05026703-1.71685423.19333475-2.13446742.75013882-.46788144.63800467-.56455116 1.9217474-.29774273 3.80482783l-1.8637922.06960051-.85842711-14.1482368c3.39890735-.97054044 6.02832372-1.39587688 7.87278198-1.26440925 1.2064381.10053406 2.50181235.66893822 3.91319025 1.77094628z"/>
  </g>
  <g fill-rule="evenodd">
    <path d="M337.3947925 34.67853122c0-4.98803648 4.02919393-9.04419947 9.02895184-9.04419947 4.99589111 0 9.06761971 4.056163 9.06761971 9.04419947 0 4.99963657-4.0678618 9.06739965-9.06761971 9.06739965-4.99589112 0-9.02895183-4.06776308-9.02895183-9.06739965z"/>
    <path d="M357.79597017 30.954904c0-5.01123666 4.06786181-9.05579957 9.06761972-9.05579957 4.98429075 0 9.05601935 4.04456291 9.05601935 9.05579956 0 5.01123665-4.0717286 9.05579956-9.05601935 9.05579956-4.9997579 0-9.06761972-4.0445629-9.06761972-9.05579956z"/>
    <path d="M419.04977142 43.54099604c0-4.99576987 4.0717286-9.0287327 9.0714865-9.0287327 4.99589113 0 9.06375293 4.03296283 9.06375293 9.0287327 0 5.02283674-4.0678618 9.07126634-9.06375292 9.07126634-4.99975791-.0038667-9.0714865-4.0484296-9.0714865-9.07126634z"/>
    <path d="M439.81442723 43.38632824c0-4.99963656 4.05626145-9.06739965 9.10242082-9.06739965 4.94948965 0 9.01735146 4.0638964 9.01735146 9.06739965 0 4.99963657-4.0678618 9.04419948-9.01735146 9.04419948-5.05002616 0-9.10242082-4.04456291-9.10242082-9.04419948z"/>
    <path d="M649.43304763 205.7681825l22.76378562 1.17160857s.45628108 3.91309529 3.96345851 11.52275094c3.5187778 7.58645548 7.43583485 15.50931343 14.16018055 29.97075253 7.50157026 16.19758513 16.0123724 37.12800487 18.12363907 46.7406085 1.60085056 7.45112116.49108218 16.89745692-5.24723239 23.39350443-8.18212508 9.35353507-28.084487 14.02836926-28.084487 14.02836926s-8.53013607-33.52424518-14.22204917-48.44195428c-12.79520411-33.5938457-34.82043307-63.90873407-34.82043307-63.90873407l13.16254905-10.66821136s26.0814904 42.0077739 30.52056393 52.57931788c8.91294817 20.92655305 15.64502745 44.74152722 15.64502745 44.74152722s5.60684375.28226873 6.0708584-4.98803648c.68055483-8.51832897-9.94924756-34.7383874-18.68432344-53.4725244-8.67707404-18.61813617-23.3515375-42.66897874-23.3515375-42.66897874z"/>
    <path d="M635.67501311 116.06859314c-10.99714732-1.2992095-13.82763672-3.07788917-13.82763672-3.07788917l-.73468987 6.39551344-32.64343098 37.27493928s-31.26298738-24.85124842-70.6539648-42.95124746c-12.44719312-5.70337505-62.18569735-19.54227626-62.18569735-19.54227626l2.4824784-39.7805576s-6.2409971 3.53415917-10.30112534 4.98803647c-4.12199685 1.48094417-9.7636417 1.81734663-19.15993846 2.8381541-11.70090288 1.26440924-14.20658202 16.680922-14.20658202 16.680922v27.70486928s45.44250188 1.95654764 88.4218593 19.51907609c46.90801483 19.18267363 88.41799251 55.10813637 88.41799251 55.10813637l54.93160158-63.39833034c-.0038668-.0038667-2.09193274-.75400551-10.54086625-1.7593462zM431.13735318 90.61027362c-.88162784 0-.81202564-5.39403945.35961136-8.16259303 2.60234886-6.16737844 7.44356843-3.55349266 7.44356843-3.55349266l.34801099 12.41982417s-4.93788929-.70373848-8.15119078-.70373848z"/>
    <path d="M648.83756216 173.05207656c-3.49557707-2.26588324-12.76040302-6.24084564-17.53975396-8.4951288-6.98342056-3.29442409-15.20034674 2.62548588-15.20034674 2.62548588s-15.5599581 15.06077681-16.67359327 19.01640574c-1.0014983 3.6733602 10.63366918 14.4614391 12.12238286 15.9153164 1.43071185 1.4538773-2.1731353 7.08765183-7.11102459 8.86246481-4.65174691 1.67041222-7.46676915-.34413585-9.94924756-4.04069621-2.47087804-3.6037597-4.70201517-12.19555586-6.78621433-15.11877724-2.00686338-2.92322138-4.64014655-5.63377454-8.1047893-7.09925192-3.5535789-1.4538773-9.97631509.35960263-9.97631509.35960263s-3.18236717 4.26109783 2.49794556 7.110852c2.01459696 1.51574442 6.91768515 1.96814773 8.06612142 2.16921587 2.87689086.62253788 2.1035331 1.12134153 4.64014655 4.11803011 3.24810259 3.79322775.87389427 3.49549223 3.81652054 11.0974145 2.9000916 7.5748554 5.84658465 13.14289612 15.47488874 14.02836926 9.64377125.88547315 19.06713553-9.67447075 26.23616195-15.80704894 7.18062679-6.15577835 31.96287616-29.82768481 31.96287616-29.82768481s-7.72197722-1.19094204-13.47575894-4.91456928zm-23.8774208 17.3691937s-5.25883275-1.46547738-4.35400417-4.67483419c.37121172-1.36107662 2.74155325-3.23255697 5.45990577-3.14748969 2.88849123.06960051 6.0708584 2.12281553 6.0708584 2.12281553z"/>
    <path d="M383.521716 38.63802685c-15.2158139 3.19775672-21.2170701 4.7483014-25.18826219 6.4303137-7.84958124 3.2093568-6.3802015 18.39773455-6.6934114 22.4886978-.274542 4.10256334 1.33790893 13.83890121 3.53424496 14.5310396 1.91019366.64573806 19.56595129-.78880576 19.56595129-.78880576l.26294164 8.47192863s-19.18700599 1.40747696-31.92807506 4.02909613c-12.0759814 2.50948502-25.24626402 5.32057224-25.24626402 5.32057224s-7.39716696-9.9490061-13.81603635-13.14676281c-6.40726903-3.2209569-18.62245482-1.8366801-25.41253594.29000212-11.40702694 3.50709232-37.96413236 16.92839047-49.08501692 23.67190646-11.1092842 6.70484904-39.18217083 27.75126963-39.18217083 27.75126963s-12.23065295-15.18837775-18.6959238-21.0464206c-5.61844412-5.17750453-9.3537621-8.47192862-9.3537621-8.47192862l-5.23563202 27.17899877s5.56044228-1.17160856 9.33056136.59547103c2.04166448.95507365 21.07013212 22.78643331 24.26796645 26.86966318 3.2094347 4.07936316.21654018 8.31339413-1.16777021 9.66287067-14.36512036 13.66103324-30.64043439 35.81719528-38.89602846 46.32687214-9.94151398 12.56675858-23.44434044 39.78055761-27.14485732 48.33368683-.97829756 2.2156162-1.7555221-.59547102-7.2772965.28613543-5.59524338.88160644-13.77736847 3.50709231-13.77736847 3.50709231l13.15868226 17.53932828s5.74991493-3.86669495 13.05041217-5.03830352c5.66871237-.88547314 10.6298024.71533857 12.3853245 3.2866907 2.11126668 3.10882274 4.98815754 5.95084353 4.09492933 11.38354993-.6573541 3.77776096-2.33940722 7.61352235-6.72047892 11.38741661-4.40427243 3.79322775-4.29213555 3.83962809-5.17763019 9.1138-.34801099 2.2194829 1.43457864 7.46658793 5.33230175 6.36844657 7.11102458.3828028 3.9286574-9.3303349 3.9286574-9.3303349s-.5838851-1.18707536.58388512-5.86190954c1.17937058-4.67870089 7.30049723-4.67870089 9.65150482-10.21580805 2.33940722-5.56417403 2.30460612-14.24103749 1.13296912-18.61813617-1.2064381-4.39256546-6.09792593-5.92764335-9.02895183-7.96925828-2.92329233-2.05321502-1.75552211-5.26257182-1.75552211-5.26257182s4.96109002-11.99062103 19.0052669-34.76545426c14.0093758-22.7980334 36.73449353-43.39205069 46.73400934-53.1786556 35.92633467-35.19852409 86.09791924-55.17000349 101.29826598-60.03430573 39.75445557-12.79102688 81.35723618-13.62623299 81.35723618-13.62623299V34.55866368c-.00773358 0-4.3114695 3.26735723-7.89211593 4.07936317zm-15.23514784 29.24381388s-.823626-5.25870513-.35961135-6.7396493c.88549463-2.92322137 6.2409971-2.7453534 6.2409971-2.7453534l.12760404 9.4850027zm-109.05504429 55.05786933c-28.62197063 14.60450681-49.89704257 33.45464468-49.89704257 33.45464468s-9.71337344-5.27417191-4.4158728-9.68607084c5.23563203-4.3654986 22.3229717-15.72584835 33.91947128-23.62163943 18.12363907-12.27675645 39.75445557-20.46254965 39.75445557-20.46254965s8.48373461-3.2132235 13.15868226-2.05321502c3.56904605.95507365 6.20619601 4.9764364 6.20619601 4.9764364s-23.71501566 9.7827382-38.72588975 17.39239386z"/>
  </g>
  <path d="M49.912615 5.8172651s.491224.4217891 1.258105 1.1278203c.245147.2247774 1.138429.9394723 1.190459 1.1229056.01149.041898.06248.9662545.06248.9662545l.0086.121698s-.383958-.288851-1.178045-.184235c-.465573.06137-1.054747.282831-1.065298.681644-.607821-.612071-.834873-1.2890443-.820243-1.9736915.01486-.6959328.252194-1.3476639.49969-1.8321702.02059-.033972.04427-.030226.04427-.030226z" stroke-miterlimit="3.864" fill="#fff" fill-rule="evenodd" stroke="#000" stroke-width=".029" transform="matrix(37.38302 0 0 62.94324 -1567.748 -169.43881)"/>
  <path d="M51.921219 9.1178865c-.01696.222031.02023.624801-.236441.8892105" stroke-miterlimit="3.864" fill="none" stroke="#fff" stroke-width=".029" transform="matrix(37.38302 0 0 62.94324 -1567.748 -169.43881)"/>
  <g fill="#02bee7" fill-rule="evenodd">
    <path d="M276.2531668 472.55660035s18.03466426 5.67050813 26.28639154 3.3311577c5.0732269-1.43841053 9.92604683-7.0451182 19.67422137-7.0451182 9.75977491 0 13.70776627 5.01123665 26.7001766 5.8928431 13.0078775.88547314 16.89786703-5.0537703 21.02373067-6.24471234 4.12586364-1.18707535 9.14882228-3.94789554 20.6293182-.18560136 8.56493718 2.81882062 14.02097616 6.4303137 20.20397144 6.4303137 6.23713032 0 18.02696935-3.95949563 22.50857755-5.36697259 4.64014655-1.40747696 10.74967285-1.0633411 16.30238155.19333475 5.27429991 1.19480874 11.1440853 3.66176011 18.81192747 3.95562893 10.82700862.4524033 30.153219-6.87111692 35.1916448-6.92525065 6.19072885-.01933347 17.72903327 5.61699308 17.72903327 5.61699308l-2.57528134 2.42113104s-8.66528034-5.31597088-15.15375193-5.31597088c-8.54560323 0-18.20097485 6.94458413-30.93817713 7.7333899-10.49446478.63800466-22.06389684-6.55791463-34.03160815-5.41337293-5.02295864.48720356-19.49634909 6.9561842-26.28256342 6.9561842-6.7939479 0-25.98868747-9.66673736-30.93044354-9.66673736-10.06911802 0-16.23664614 8.12779278-27.05592118 9.26846779-9.74817454 1.06334111-22.8024535-6.55791463-33.2543836-6.17511183-7.7645119.28226873-12.09531535 6.36457988-15.47102196 7.3467204-10.13098664 2.9038879-22.02522896-1.55827806-22.02522896-1.55827806z"/>
    <path d="M297.41262175 488.16722118c5.05775974-1.41521035 15.0568502-9.65784396 24.80502475-9.65784396 9.75977491 0 13.70776627 5.01123665 26.7001766 5.8889764 13.0078775.87387306 16.89786703-5.04217021 21.02373067-6.25244573 4.12586364-1.16387518 9.14882228-3.92082868 20.6293182-.16240119 8.56493717 2.80335384 14.02097616 6.41484692 20.20397144 6.41484692 6.23713032 0 18.02696934-3.96336232 22.50857755-5.34377242 4.64014655-1.4461439 10.74967284-1.0710745 16.30238155.19333475 5.27429991 1.18707535 11.1440853 3.15522308 18.81192747 3.94016215 15.41302012 1.59694501 33.05176388-8.4125362 44.24998422-4.14370497 2.19633603.8429395-1.11069641 3.65588274-3.13731909 2.5344252-4.58330475-2.53624255-24.12586197 4.37396666-36.86306425 5.13957226-10.49446478.63800466-22.06389684-6.5888482-34.03160815-5.41337293-5.02295864.48720356-19.49634909 6.9561842-26.28256342 6.9561842-6.7939479 0-25.98868747-9.66673736-30.93044354-9.66673736-10.06911802 0-16.23664614 8.12779278-27.05592118 9.28006787-9.74817454 1.05174103-22.8024535-6.5695147-33.2543836-6.17511182-7.7645119.28226873-17.45271255 7.69626962-20.5770779 9.27388115z"/>
    <path d="M306.59048361 495.71342437c4.11430194-2.31185824 5.9292566-5.59236223 15.62716289-6.37343461 13.55309471-1.0788079 13.70776627 5.01123665 26.7001766 5.8928431 13.0078775.85840627 16.89786703-5.07310377 21.02373067-6.24471234 4.12586364-1.17160857 9.14882228-3.94016215 20.6293182-.18560136 8.56493717 2.81882062 14.02097616 6.4303137 20.20397144 6.4303137 6.23713032 0 18.02696934-3.9788291 22.50857755-5.34763911 4.64014655-1.42681044 10.74967284-1.08267459 16.30238155.19333474 5.27429991 1.16387518 11.1440853 3.65402673 18.81192747 3.92856207 10.82700862.44466992 28.9691696-7.62280242 34.0075954-6.9005038l-5.0260134 3.47847877c-8.54173645 0-13.56856188 5.69950835-26.28643021 6.9639176-11.5926328 1.1445417-20.50944775-6.58884819-32.47329227-5.41337292-5.02295864.47560347-19.4963491 6.96778429-26.28256342 6.96778429-6.7939479 0-25.98868747-9.68993754-30.93044355-9.68993754-10.069118 0-16.23664613 8.13552617-27.05592117 9.28006787-9.74817455 1.05174103-22.95712506-8.1084593-33.25438361-6.17511183-6.17912849 1.16387518-8.32863771 4.3527385-11.69274396 5.30394546z"/>
    <path d="M315.09119342 501.80308224c13.92817323-3.86669494 20.83808613 2.60155103 33.83049648 3.4715574 13.00787749.88160644 16.89786701-5.0537703 21.02373066-6.24471235 4.12586364-1.16774187 9.14882228-3.94016215 20.6293182-.16240118 8.56493717 2.81495392 14.02097616 6.40711352 20.20397144 6.40711352 6.23713032 0 18.02696934-3.9788291 22.50857755-5.33603902 4.64014655-1.43841052 10.74967284-1.0710745 16.30238155.19333474 5.27429991 1.16387518 19.72325225 4.83104867 27.44522947 5.14425096l-4.37983433 2.32233698c-10.83860898-.38666949-22.06389684-6.5772481-34.03160815-5.424973-5.02295865.48720356-19.4963491 6.96778429-26.28256342 6.96778429-6.7939479 0-25.98868747-9.67833745-30.93044355-9.67833745-10.06911801 0-16.2830476 7.83392396-27.05592117 9.29166795-14.33031926 1.9217474-22.8024535-8.12005938-33.64879607-4.26496452z"/>
    <path d="M331.91017795 511.95048846c9.73657418 0 3.63242273 2.08608192 16.62483307 2.99475523 12.98080997.87387306 17.27681232-5.06150368 21.40654275-6.25244573 4.12586364-1.16774187 9.14882228-3.94016215 20.6293182-.1430677 8.56493717 2.78402035 14.02097616 6.39551343 20.20397144 6.39551343 6.23713032 0 18.02696934-3.96722901 22.50857755-5.34377241 4.64014655-1.43841052 10.74967284-1.05174103 16.30238155.16240118 5.27429991 1.19480874 7.07498612 1.67466559 14.64229178 2.95067492 2.33554043.3828028-3.20046375 2.23069631-3.20046375 2.23069631-8.8665467 0-10.44032973-4.26883122-22.40804104-3.09722265-5.02295864.48720356-19.4963491 6.9639176-26.28256342 6.9639176-6.7939479 0-25.98868747-9.67447076-30.93044355-9.67447076-10.069118 0-16.23664613 8.1161927-27.05592117 9.26846779-9.74817455 1.0710745-11.60574121-2.688165-17.02311231-2.688165z"/>
    <path d="M352.80007905 524.60424767c12.75266944 0 14.28005101-3.77389427 18.1468398-5.60670767 3.70825045-1.74001273 8.1434572-4.18763063 19.62395312-.41373636 8.56493717 2.78788705 14.02097616 6.40711352 20.20397144 6.40711352 6.23713032 0 18.02696934-3.9749624 22.50857755-5.34377241 4.64014655-1.42681044 13.93838155-.18173467 19.48335668 1.08259725l-5.10528257 3.0778505c-10.06911802-3.49162553-28.53825466 5.0500196-35.324469 5.0500196-6.7939479 0-25.98868746-9.74793795-30.93044354-9.66673736-11.19822034.19333475-11.30451836 7.84973875-23.47716948 9.00588053z"/>
    <path d="M364.19163883 532.32990417c6.75528002-1.36107662 7.70651007-3.92856207 11.78983903-5.2045714 3.08956424-.96280704 3.31770478-1.50027764 14.78273355 2.27748332 8.54173644 2.79562045 14.49075233 6.88078366 20.72014907 6.88078366 6.16366134 0 18.26323014-7.97231297 22.44284215-5.32443894.7269563.3132023-3.43173639 2.35675057-3.43173639 2.35675057-7.35463228.56067077-11.40702693 5.5873742-19.49634908 5.5873742-8.54560323 0-26.1201583-10.05340686-31.14311693-9.07899974-9.53550116 1.8405468-6.95635304 2.49788494-11.02421485 4.24949775z"/>
    <path d="M374.81142624 537.56846382c2.14993457-.58773764 2.3494222-3.03454353 13.8376517.72001726 8.54560323 2.80722053 13.99777543 6.4303137 20.20010465 6.4303137l-3.07796388 1.72841264c-6.79008112 0-20.29828241-7.34440038-27.08836353-6.95773089z"/>
    <path d="M263.85233648 462.7603287s14.54299264-5.22390487 20.13823602-1.77094629c4.3810717 2.77628698 6.50393875 5.8889764 12.92280815 5.44817318 7.5170374-.5297372 13.85470424-5.82324259 24.20609783-6.8053831 4.75228343-.42146975 10.65686991.31320229 17.40828314 2.07641518 6.78621433 1.77867968 11.85944123 3.91696199 22.76378562-.5297372 7.01435487-2.86135426 12.63666577-5.96244361 24.17129674-3.88602842 11.49982986 2.05321501 18.93179792 6.35684649 25.72187904 6.35684649 7.37009944 0 24.6353114-4.5936336 35.57832367-2.47081807 8.83947918 1.74001272 18.1468398 4.23403096 25.51307245 3.87829503 8.11252288-.39826958 22.40417426-5.21617148 31.48726113-6.36457988 7.53362594-1.24403177 24.44912551 1.57301017 28.81078593 4.06764708 4.71361554 1.47707747 1.04855712.72705465 1.04855712.72705465l-3.5296048 2.98706051s-4.43211332-2.21372152-8.35690395-3.33119636c-3.81652053-1.12134153-8.62680579-3.72362723-17.81042917-1.96428103-9.12562155 1.79414645-23.15819807 6.2021787-31.28232133 6.2021787-10.069118 0-21.29827266-1.6974791-29.00478272-3.48002546-7.66397539-1.7593462-26.23616195 2.9773551-32.87157152 2.69121968-9.8332439-.36346932-20.6679861-7.90352447-34.6038929-7.12631878-7.43196806.40213627-14.280051 6.36457988-22.79858671 7.12631878-12.08371498 1.10587476-13.3172206-1.49641094-20.69118683-2.69121968-7.37396622-1.19480874-12.40465844-2.78402036-20.69118682.7578722-8.25559407 3.55349266-13.18574978 4.65550072-16.42998558 4.65550072-3.22103506 0-6.79008112-1.23347568-10.04591728-3.48002545-3.67344935-2.5172184-8.87428028-2.02228145-10.62980239-2.32775036-1.77872284-.28226873-6.79008112 2.32775036-6.79008112 2.32775036z"/>
  </g>
  <g fill-rule="evenodd" stroke-width=".647" stroke-miterlimit="3.864" fill="#fff" stroke="#000">
    <path d="M82.176 120.377s2.777 7.738 7.693 13.583c3.934 4.662 7.803 8.793 14.104 14.002 7.519 6.22 21.984 16.426 31.164 19.483 5.411 1.807 11.537 4.152 11.537 4.152.691.536.916 1.073.691 1.751-.229.686-.994 1.296-1.688 2.217-.682.914-.803 1.684-.37 2.215.409.523.989 1.142 2.359.609 1.771-.706 1.599-1.374 2.216-2.979.604-1.6.469-3.142.469-3.142s1.12-.277 1.861.095c.903.455 1.86004.11836 3.38704.35036 1.521.229 2.97696-.28036 3.36396.33264.389.612.765 1.45 1.78 1.636 1.295.232 2.413.092 3.032-.799.688-1.013.774-2.458-.234-3.664-.765-.914-2.366-1.223-5.042-1.676-2.671-.461-4.337-.23-5.032-.688-.688-.455-1.147-.765-1.073-1.372.083-.614-.143-1.148.462-2.06.611-.919.764-1.228 1.368-1.835.613-.612.312-1.681-.377-2.136-.688-.459-2.595-.459-3.283.764-.682 1.218-.916 1.597-.993 3.207-.074 1.6 0 1.5-.151 2.06-.303 1.218-1.277 1.063-3.508.38-8.072-2.477-13.42-4.863-21.3-9.468-11.632-6.774-23.972-15.558-33.062-25.387-4.018-4.33-9.374-11.631-9.374-11.631z" transform="matrix(3.86679 0 0 3.8667 -123.83577457 -79.6055046)"/>
    <path d="M188.302 120.377s-2.793 7.738-7.708 13.583c-3.928 4.662-7.801 8.793-14.102 14.002-7.51 6.22-21.987 16.426-31.168 19.483-5.408 1.807-11.533 4.152-11.533 4.152-.679.536-.916 1.073-.679 1.751.222.686.99 1.296 1.679 2.217.688.914.805 1.684.38 2.215-.423.523-.991 1.142-2.371.609-1.774-.706-1.598-1.374-2.212-2.979-.611-1.6-.479-3.142-.479-3.142s-1.117-.277-1.854.095c-.907.455-2.243.50632-3.773.73832-1.537.229-2.585-.66832-2.981-.0553-.385.612-.768 1.45-1.783 1.636-1.281.232-2.41.092-3.024-.799-.697-1.013-.781-2.458.231-3.664.759-.914 2.364-1.223 5.039-1.676 2.669-.461 4.351-.036 5.039-.49402.679-.455 1.142-.95898 1.067-1.56598-.077-.614.154-1.148-.45-2.06-.617-.919-.778-1.228-1.382-1.835-.611-.612-.302-1.681.385-2.136.682-.459 2.589-.459 3.277.764.688 1.218.917 1.597.991 3.207.077 1.6 0 1.5.164 2.06.299 1.218 1.274 1.063 3.511.38 8.072-2.477 13.404-4.863 21.294-9.468 11.636-6.774 23.965-15.558 33.064-25.387 4.014-4.33 9.378-11.631 9.378-11.631z" transform="matrix(3.86679 0 0 3.8667 -123.83577457 -79.6055046)"/>
  </g>
  <path d="M49.920612 5.7958055l-.06621.037918c.688513.7022248 1.742686 1.5210627 2.526644 2.2582408l.02719-.066006z" fill-rule="evenodd" stroke="#000" stroke-width=".021" transform="matrix(37.38302 0 0 62.94324 -1567.748 -169.43881)"/>
  <path d="M49.460001 9.7901425c.436907.124765.763321.05963 1.036684-.03972.643656-.233923.716227-.307474 1.404539-.50844.129135.02042.25371.142538.441426.345581" fill="none" stroke="#fff" stroke-width=".021" transform="matrix(37.38302 0 0 62.94324 -1567.748 -169.43881)"/>
  <path d="M335.67998411 240.08968557c-.41345614 3.3900598-.35513864 8.17395982-.17943847 11.07398764l-4.58042868-.15484036c.2429896-3.75217225-1.2052284-7.56283135.13084056-10.90857282z" fill-rule="evenodd"/>
</svg>
