<svg xmlns="http://www.w3.org/2000/svg" xmlns:xlink="http://www.w3.org/1999/xlink" version="1.1" viewBox="0 0 220.58943 249.80357" id="svg2" xml:space="preserve" overflow="visible">
  <g id="g6" transform="translate(-18.6962 -11.9819) scale(1.12519)">
    <path id="path3080" d="M79.68845234 137.96974656c-.14135596 6.3665065-.2883954 12.84776646-.36104859 14.85853828-.21299956 5.88499876 2.84141288 21.54257202 10.47040922 33.93856782 7.62899633 12.39599579 24.8012611 20.74640765 24.8012611 20.74640765s10.24746115-5.73018112 15.96945702-10.49818218c5.72199588-4.76800107 14.30269675-16.4643669 17.1636947-25.52335829 2.86099793-9.057996 1.91633484-22.63396526 1.91633484-22.63496953l.13886484-10.72036593-70.09897313-.16663782z" fill="#b3e2ee" fill-opacity="1" stroke="#000" stroke-width=".88874" stroke-linecap="butt" stroke-linejoin="miter" stroke-opacity="1"/>
    <path id="rect8" fill="#3790c0" fill-opacity="1" d="M79.306999 113.333h71.759003v25.271H79.306999z"/>
    <path id="rect10" fill="none" d="M79.306999 138.604h71.518997v1.908H79.306999z"/>
    <path id="path12" d="M84.313 128.829s0-3.336 1.431-3.336 3.099 1.191 3.099 1.906c0 .715 1.67 2.146.954 3.576-.716 1.43-3.337 2.621-4.053 1.668-.716-.953-.478.24-.478.24s1.192 1.906 2.861 1.906h1.669s.477-.238 1.192 1.43c.715 1.67.715.717.715.717l1.191-2.146v-.477s.716.477 1.908.477c1.191 0 3.099-1.193 3.099-2.385 0 0-1.669.715-2.622.238-.953-.477-1.43-2.859-.715-4.529.715-1.668 1.191-2.621 2.383-2.383s2.385 1.668 1.908 2.859c0 0 2.622-1.43 2.622-3.098 0-1.67-.478-3.577-2.622-3.577-2.146 0-4.768.477-5.245 2.622 0 0 .477-2.384.477-4.052 0-1.668-1.431-4.768-2.146-4.768-.715 0-2.146 2.385-2.146 3.815v5.005s-3.337-3.813-4.769-3.098c-1.43.715-3.963 2.089-3.412 4.143.553 2.055 1.984 3.247 2.699 3.247z" fill="#fcfb00" fill-opacity="1" stroke="#000" stroke-width=".444368" stroke-miterlimit="4" stroke-dasharray="none" stroke-opacity="1"/>
    <path id="rect14" fill="#fcfb00" fill-opacity="1" stroke="#000" stroke-width=".444368" stroke-miterlimit="4" stroke-dasharray="none" stroke-opacity="1" d="M88.650002 129.159h6.6750002v1.4859999H88.650002z"/>
    <path id="path16" d="M102.909 119.771s.715.953 1.668.953h3.338s-4.291 3.099-4.291 4.291c0 1.193 1.669 1.432 1.669 1.432s-.238 3.338-.238 4.529c0 1.191.238 1.668 1.192 1.668.953 0-1.192 1.67-1.192 1.67l.238.953.954 1.432 2.383-1.432h9.537l.477-1.43.55.367.165.109.716-.238.715 1.668.953 1.193.954-2.861.715.953s1.193-10.252.478-12.397c-.716-2.146-2.861-5.483-5.007-5.96-2.146-.477-5.961-1.669-8.344-.954-2.385.715-4.769.239-5.007 1.431-.238 1.192.954 1.43.954 1.43s-2.386 1.431-3.577 1.193z" fill="#fac908" stroke="#000" stroke-width="1" fill-opacity="1"/>
    <path id="path18" d="M111.967 118.102s.953 3.813 2.623 4.768c1.669.954 2.622 2.385 2.622 4.292 0 1.908.238 4.291.238 4.291l1.192 2.385" fill="none" stroke="#000" stroke-width="1"/>
    <path id="path20" d="M119.358 125.731s-1.046 8.602-.165 8.473" fill="none" stroke="#000" stroke-width="1"/>
    <path id="path22" d="M105.292 126.446s2.384 0 3.337-.953" fill="none" stroke="#000" stroke-width="1"/>
    <path id="polyline24" fill="none" stroke="#000" stroke-width="1" d="M109.345 121.439l2.146 1.669-1.908-.239"/>
    <path id="path26" d="M115.305 128.352s-1.906-.715-2.622.477c-.716 1.193-1.431 1.67-1.431 1.67l5.245-.477s1.191-3.1.477-4.053c-.715-.955-1.669 2.383-1.669 2.383z" fill="#ad8b05" fill-opacity="1"/>
    <path id="polyline28" fill="none" stroke="#000" stroke-width="1" d="M106.247 132.643l2.622-.238.238 2.146"/>
    <path id="path30" d="M118.881 116.671s-1.67 1.908-3.1 2.146c-1.43.238-1.669 1.193-.238 2.384 1.431 1.191 3.338 3.098 3.576 3.813.238.717.403 7.502.238 8.346-.165.844 1.431 1.43 1.431 1.43l.953 2.146.954-2.861.715.953s1.432-8.582.716-10.967c-.715-2.383-1.192-6.675-5.245-7.39z" fill="#ad8b05" fill-opacity="1"/>
    <path id="path32" d="M128.656 123.585s-.954-2.146.238-3.814c1.192-1.668 1.908-1.669 2.623-2.146.715-.477 1.907-1.43 2.86-1.192.953.238 2.146.477 2.146.477s1.906-.954 2.622-.715 1.67 0 2.385 1.192c.715 1.192 2.146 2.384 2.146 2.384s1.191 1.668.953 2.622l-.238.954s.953.476 1.191 1.429c.238.955.717 2.861-.238 4.053-.953 1.193-.953.955-1.191 2.385-.238 1.43-2.861 1.67-2.861 1.67s-.001 1.906-.716 1.906-3.1.477-4.053.477c-.953 0-2.384.238-3.1-.238-.716-.476-1.43-1.906-1.43-1.906s-2.385-.002-3.1-.955c-.715-.953-1.192-1.906-1.431-3.576-.238-1.668-.477-2.861-.477-3.576 0-.715.956-1.193 1.671-1.431z" fill="#faf2ec" stroke="#000" stroke-width="1"/>
    <path id="line34" fill="none" stroke="#000" stroke-width=".444368" stroke-miterlimit="4" stroke-dasharray="none" d="M136.761 129.30701l.47701 3.336"/>
    <path id="line36" fill="none" stroke="#000" stroke-width=".465397" stroke-miterlimit="4" stroke-dasharray="none" d="M140.41621 127.40952l3.01128.45497"/>
    <path id="path38" d="M139.384 123.108s1.429-1.908 1.668-2.623" fill="none" stroke="#000" stroke-width=".444368" stroke-miterlimit="4" stroke-dasharray="none"/>
    <path id="line40" fill="none" stroke="#000" stroke-width=".444368" stroke-miterlimit="4" stroke-dasharray="none" d="M134.377 122.631l-2.14501-1.669"/>
    <path id="line42" fill="none" stroke="#000" stroke-width=".444368" stroke-miterlimit="4" stroke-dasharray="none" d="M133.901 126.446l-2.86101 1.668"/>
    <path id="path44" d="M115.305 146.709l-30.941287 27.84229S88.366 184.377 89.081 185.569c.716 1.191 26.225-23.363 26.225-23.363l24.794 23.363s6.436-9.059 6.436-10.25l-31.231-28.61z" fill="#f8341d" fill-opacity="1" stroke="none"/>
    <path id="path46" d="M92.418 143.848l.238 4.291s1.908.24 1.908-.953c0-1.191-1.193-2.859-.716-4.053.478-1.191 3.814-1.906 5.007-.477 1.191 1.43 1.906 2.383 1.668 3.338-.238.953-1.669 1.668-2.384 1.668-.715 0-1.431-.953-2.146.238-.715 1.193 3.814 1.432 3.814 1.432s-2.861-.238-3.576.238c-.715.476-1.192 1.906 0 1.668s0 1.668 1.669.477c1.669-1.191 3.099-2.145 3.814-1.191.715.954.954 3.338-1.192 5.484-2.145 2.145-3.338-.479-3.338-.479s.478-2.145-.477-2.383c-.953-.238-2.859-.955-2.383 0 .477.953 1.906 3.814 1.906 3.814s-2.385-2.861-3.1-2.385c-.715.476-.953 1.193-.477 2.146.476.953 1.908 1.668 1.908 1.668s1.43 1.432.238 2.146c-1.192.715-2.385.715-4.053.715-1.67 0-3.338-1.432-2.861-2.146.477-.714 1.906-.238 2.384-2.145.478-1.908 0-2.385 0-2.385l-2.86 2.146 2.384-3.814s-.239-1.668-1.431-.715c-1.192.953-1.431 1.43-1.907 3.098-.477 1.67-2.384 1.193-3.575-.238-1.193-1.43-2.385-4.527-1.193-4.768 1.193-.238 3.338-.715 3.814.477.478 1.191 2.623-.238 2.623-.238l-2.384-2.145 2.146.238s.953-.953 0-1.67c-.953-.715-3.1.953-3.814.238s-.477-3.574 1.43-4.529c1.908-.953 4.054-1.432 4.054-.715 0 .715.954 1.191.238 3.1-.716 1.906-.238 2.621.716 2.621.955.003 1.908-3.812 1.908-3.812z" fill="#f8341d" fill-opacity="1" stroke="#000" stroke-width=".444368" stroke-miterlimit="4" stroke-dasharray="none"/>
    <ellipse id="ellipse48" ry="1.313" rx="1.4299999" cy="150.881" cx="91.941002" fill="#f8341d" fill-opacity="1" stroke="#000" stroke-width=".444368" stroke-miterlimit="4" stroke-dasharray="none"/>
    <path id="path50" d="M137.715 144.088l.238 4.291s1.907.238 1.907-.953c0-1.193-1.192-2.861-.716-4.053.478-1.193 3.814-1.906 5.007-.477 1.191 1.43 1.906 2.383 1.668 3.336-.238.955-1.67 1.67-2.385 1.67-.714 0-1.429-.955-2.144.238-.716 1.191 3.814 1.43 3.814 1.43s-2.861-.238-3.576.238c-.715.476-1.193 1.908 0 1.67 1.191-.238 0 1.668 1.667.477 1.67-1.191 3.1-2.145 3.814-1.191.717.953.955 3.338-1.191 5.482-2.145 2.146-3.337-.477-3.337-.477s.477-2.146-.477-2.385c-.954-.239-2.86-.953-2.384 0 .477.955 1.907 3.814 1.907 3.814s-2.385-2.859-3.1-2.383c-.715.476-.953 1.191-.477 2.145s1.907 1.67 1.907 1.67 1.431 1.43.238 2.145c-1.193.715-2.384.715-4.053.715s-3.337-1.43-2.86-2.145c.477-.715 1.906-.238 2.383-2.146.478-1.906 0-2.383 0-2.383l-2.86 2.145 2.384-3.814s-.238-1.668-1.43-.715-1.432 1.43-1.908 3.1c-.477 1.668-2.383 1.191-3.575-.238-1.192-1.432-2.385-4.529-1.192-4.768 1.192-.24 3.338-.715 3.814.477s2.623-.238 2.623-.238l-2.385-2.146 2.146.238s.953-.953 0-1.668c-.954-.717-3.1.953-3.814.238-.716-.715-.478-3.576 1.43-4.529 1.907-.955 4.053-1.432 4.053-.717 0 .717.954 1.193.238 3.1-.715 1.908-.238 2.623.716 2.623s1.91-3.816 1.91-3.816z" fill="#f8341d" fill-opacity="1" stroke="#000" stroke-width=".444368" stroke-miterlimit="4" stroke-dasharray="none"/>
    <ellipse id="ellipse52" ry="1.311" rx="1.431" cy="151.12199" cx="137.23801" fill="#f8341d" fill-opacity="1" stroke="#000" stroke-width=".444368" stroke-miterlimit="4" stroke-dasharray="none"/>
    <path id="path54" d="M98.379 190.577s4.291 1.191 4.768 2.859c.477 1.67 1.191 4.531 1.191 4.531s20.504.715 21.695.477c1.191-.238 2.622-2.861 2.86-3.814.238-.955 1.907-2.385 1.907-3.1 0-.715-2.146-.717-4.053 0-1.907.715-3.576 1.43-7.867 1.43s-10.252.477-12.396 0c-2.146-.477-2.86-2.145-8.105-2.383z" fill="#b3601a" fill-opacity="1" stroke="#000" stroke-width="1"/>
    <path id="line56" fill="#fee591" fill-opacity="1" stroke="#000" stroke-width="1" d="M108.391 171.26601L107.2 193.436"/>
    <path id="line58" fill="none" stroke="#000" stroke-width="1" d="M121.503 171.028l-.953 22.17"/>
    <path id="path60" d="M108.391 174.364s-12.396 11.922-12.396 13.828c0 1.908 4.529.477 5.722.953" fill="#fff" fill-opacity="1" stroke="#000" stroke-width="1"/>
    <path id="path62" d="M121.503 177.225l3.195-2.236 1.573-1.102v2.623c0 1.908.238 7.629 1.431 9.535 1.193 1.906 2.86 3.338 1.907 3.576-.953.238-4.054.955-5.483.955-1.429 0-3.338-.717-3.338-.717l-1.192.24s-.715-.717-3.099-.717c-2.384 0-3.576.717-6.437.717s-6.199.715-7.629-.24c-1.431-.953 0-3.098.953-5.482.953-2.383 5.96-4.768 9.059-8.105 3.1-3.338 8.821-4.529 8.821-4.529l3.434 3.246" fill="#fff" fill-opacity="1" stroke="#000" stroke-width="1"/>
    <path id="line64" fill="#fee591" fill-opacity="1" stroke="#000" stroke-width="1" d="M108.391 174.842l4.053 1.43"/>
    <path id="path66" d="M115.305 176.034s.953 10.727 3.814 13.35" fill="none" stroke="#000" stroke-width="1"/>
    <path id="path68" d="M112.444 179.372s.477 6.436 5.245 8.582" fill="none" stroke="#000" stroke-width="1"/>
    <path id="path70" d="M122.696 183.186s.715 6.199.715 6.914" fill="none" stroke="#000" stroke-width="1"/>
    <path id="path72" d="M124.365 182.471s1.191 3.813 2.86 5.244" fill="none" stroke="#000" stroke-width="1"/>
    <path id="path74" d="M134.377 122.631s.001-1.43 1.192-1.43 2.383-.477 3.099 0c.716.477.238 1.668.238 1.668l1.907.478s.478 2.146.478 2.861c0 .715-1.192.953-1.192.953l.238 1.43-2.146 1.193-1.431-.477-1.431.715-2.146-2.146.716-1.43-1.431-.238s-.477-1.43.238-2.385c.717-.954 1.671-1.192 1.671-1.192z" fill="#d2439b" fill-opacity="1" stroke="#000" stroke-width=".444368" stroke-miterlimit="4" stroke-dasharray="none"/>
    <circle id="circle76" r="1.55" cy="125.612" cx="136.88" fill="#b0512f" fill-opacity="1" stroke="#000" stroke-width=".444368" stroke-miterlimit="4" stroke-dasharray="none"/>
    <path id="path78" d="M147.729 171.504c-2.861 9.059-11.444 20.74-17.166 25.508-5.722 4.768-15.973 10.49-15.973 10.49s-17.165-8.346-24.794-20.742c-7.629-12.396-10.677-28.043-10.464-33.928.176-4.871.696-30.203.87-38.784h69.874l-.441 34.807c0 .001.955 13.591-1.906 22.649zm5.244-57.455v-2.861H78.591s-1.192 38.143-1.192 44.58c0 6.437 3.1 19.787 8.105 28.371 5.008 8.582 18.835 20.025 21.457 21.693 2.622 1.67 7.867 4.053 7.867 4.053s12.159-5.959 14.781-8.82c2.622-2.861 9.298-7.389 13.828-15.734 4.529-8.344 6.912-11.443 8.582-20.264 1.668-8.82.477-26.463.477-26.463l.428-24.555h.049z" fill="#000" fill-opacity="1" stroke="#000" stroke-width=".71098799" stroke-miterlimit="4" stroke-opacity="1" stroke-dasharray="none"/>
  </g>
  <g id="g80" transform="translate(-18.6962 -11.9819) scale(1.12519)" fill-opacity="1" stroke="#000">
    <path id="polygon84" fill="#4a8418" stroke-width="1" d="M114.637 44.027l5.033.237-.354 22.205-7.401.296 1.005-18.889z"/>
    <path id="path102" d="M121.98 40.532s-.474 1.894-.178 3.02c.296 1.126 9.355 17.705 10.007 19.126.652 1.421.711 2.013.533 2.724-.178.711-4.975 2.783-7.461 1.895-2.486-.888-1.362-.888-1.599-2.901-.237-2.013-3.079-15.159-4.026-16.047-.947-.888-1.125-.355-1.125-.355l.296-4.381 3.316-3.375.237.294zm-10.362-9.415s-.888-.237-1.243 1.243c0 0-.888.177-1.185 1.599 0 0-.711-.059-1.006 1.185 0 0-1.125.118-.889 1.717 0 0 1.008 1.125 1.658 1.717l3.849.249-.355-7.58-.829-.13z" fill="#fee591" stroke-width="1"/>
    <path id="path86" d="M108.644 16.378s-.532 9.06 0 9.711c.532.651 1.896 1.717 2.665 1.717.769 0 4.974-.947 4.974-.947s-2.843-3.435-4.323-5.27c-1.48-1.835-2.545-3.612-3.316-5.211z" fill="#f8341d" stroke-width=".444368" stroke-miterlimit="4" stroke-dasharray="none"/>
    <path id="path88" d="M110.834 12.174s-.355 2.606-.118 3.849c.237 1.243 1.302 3.967.474 6.04-.828 2.073.771 5.685 2.014 5.744 1.243.059 3.907-.059 4.145-.71.238-.651-.06-8.645-2.013-9.889-1.955-1.245-4.086-2.429-4.502-5.034z" fill="#f8341d" stroke-width=".444368" stroke-miterlimit="4" stroke-dasharray="none"/>
    <path id="path90" d="M117.052 10.871s-2.664 4.56-2.486 5.981c.177 1.421-.297 6.276.177 7.816s1.421 2.369 2.605 2.428c1.184.059 1.065-.237 1.776-.533.711-.296.474-9.474-.651-10.895-1.125-1.421-1.776-4.027-1.421-4.797z" fill="#f8341d" stroke-width=".444368" stroke-miterlimit="4" stroke-dasharray="none"/>
    <path id="path92" d="M122.322 13.95s-4.264 1.599-4.382 5.389c-.118 3.79-.65 7.224-.354 7.816.296.592 2.309 1.184 3.315.474 1.006-.71 2.073-3.79 1.718-6.691s-.61-3.074-1.066-4.441c-.178-.534-.298-1.422.769-2.547z" fill="#f8341d" stroke-width=".444368" stroke-miterlimit="4" stroke-dasharray="none"/>
    <path id="path94" d="M110.848 28.15s2.428-.533 4.026-.533c1.598 0 4.797 0 6.04.533l-.237 1.717-.77-.118s-2.843-.474-7.521 0l-.947.118-.591-1.717z" fill="#4a8418" stroke-width="1"/>
    <path id="path96" d="M112.032 30.223s1.385 18.188 1.54 19.899c.237 2.608 1.896 15.808 1.896 15.808l3.493-26.288 1.065-9.476c0-.001-4.027-.656-7.994.057z" fill="#4a8418" stroke-width="1"/>
    <path id="path98" d="M111.855 33.602s-.593 1.954-1.007 2.428c-.414.474-2.072 2.073-2.072 3.967 0 1.894-1.244 5.27-2.191 6.987-.947 1.717-7.46 14.331-7.993 17.114-.533 2.783 4.263 5.684 5.447 5.684 1.184 0 2.842-1.895 3.553-3.79.711-1.895 3.316-11.665 3.612-13.678.296-2.013 1.539-4.677 2.368-5.388.829-.711 2.25.177 4.204-2.546 0 0 4.205-3.849 4.146-4.737-.059-.888-.237-2.31-.237-2.31s.474-1.48 0-2.013c-.474-.533.474-2.072-.296-2.368-.77-.296.06-.71-.829-.651-.889.059-.77 0-.77 0s.414 1.302-2.014 3.079c-2.428 1.777-4.086 2.901-4.974 2.428-.888-.473-.947-4.206-.947-4.206z" fill="#987744" stroke-width="1"/>
    <path id="path100" d="M115.585 33.011s2.428 1.007 2.428 1.658-1.066 1.006-1.066 1.006-1.776-1.124-1.362-2.664z" fill="#fee591" stroke-width="1"/>
  </g>
  <g id="g4280" transform="translate(-20.000001)" stroke="#000">
    <path id="path4277" d="M187.03125 89.843748c-1.65262.03516-3.34361.374905-4.1875.9375-1.68779 1.12519-2.5312 7.874666-2.8125 9.843752-.11702.81689-.57079 3.4849-1.0625 6.3125-.5806-3.43858-2.24803-8.612898-4.28125-9.968752-2.53168-1.687785-4.49986-1.406677-5.34375 1.125-.84389 2.531682-3.65625 8.156252-3.65625 8.156252s3.65597-4.21865 5.34375-4.78125c1.68779-.56259 2.25 1.40606 2.25 2.53125 0 .24642.12122 1.07781.3125 2.21875-.94966-.67849-2.11678-1.00275-3.40625-.25-3.37557 1.96909-10.96875 6.1875-10.96875 6.1875h.84375l6.75-2.25c1.68779-.5626 4.21856.84346 5.34375 2.53125.17103.25541.38958.6383.65625 1.0625.28129.54121 1.59375 1.46841 1.59375 3.4375.35556.5941.59058 4.35706.84375 4.78125.46922 1.18605.46695 1.52344.40625 2.34375h6.125c.79421-4.06068 1.96868-7.46868 3.03125-8.53125 1.68779-1.68779 2.53092-1.12471 4.5-2.8125 1.96908-1.68778 5.62481 0 6.75 0s3.93798-.84361 1.125-1.6875c-2.81297-.84389-4.78059-1.6875-8.71875-1.6875-.92266 0-1.70915.23057-2.34375.5625.41969-1.18933.84964-2.48493 1.5-3.65625 1.40648-2.53168 3.93717-6.468705 5.90625-6.750002 1.96909-.281298 10.40625-.84375 10.40625-.84375-2.04785 0-6.87693-1.829131-9.53125-2.53125 1.6349.32293 3.04238.260014 2.21875-.5625-1.40649-1.406488-4.21852-3.374762-5.625-4.78125-.70324-.703243-2.31613-.972662-3.96875-.9375zm.6875 3.21875c1.18672.0923 2.29667 1.093608 3.5625 1.9375.53672.356685 1.41347.700085 2.3125.9375-.24192-.04613-.4641-.09375-.625-.09375-1.68779 0-3.93717 1.968418-5.90625 3.9375S182.28125 110.75 182.28125 110.75l-.53125 1.46875c.56935-1.98596 1.16792-4.26419 1.65625-5.40625.8439-1.96909 1.40596-12.65611 3.09375-13.500002.42194-.210973.82318-.280767 1.21875-.25z" fill="#4a8418" fill-opacity="1" stroke-width="1.12518978"/>
    <path id="path112" d="M175.625 124.65625c-.0541.67855-.0937 1.56433-.0937 3.25 0 5.62595-.56255 35.74891-.28125 42.21875.28129 6.46985-3.375 39.9375-3.375 39.9375 9.28281.2813 13.21875-1.96875 13.21875-1.96875s-3.09375-32.90501-3.09375-40.21875c0-7.31373-1.4063-29.56136-1.125-36.3125.0958-2.2989.3718-4.67821.78125-6.90625h-6.03125z" fill="#ad8b05" fill-opacity="1" stroke-width="1.1251899"/>
    <path id="path114" d="M177.76963 114.69537v31.22402c0 4.50076-.28129 64.13583-.28129 64.13583" fill="#fee591" fill-opacity="1" stroke-width="1.12519002"/>
    <path id="line176" d="M178.05093 126.22856l2.81298.2813m-5.34466 3.93817l1.68779-.2813m.56259 2.53166l2.25038.2813m-4.78205 2.53168l2.25038-1.12519m.56259 3.37557h2.81298m-5.34466 1.96908h2.25038m.5626 3.37557l2.81297-.2813m-6.18854 2.81298l2.81297.2813m.2813 1.40648l2.81298.2813m-5.62595 3.65687l2.25038-.5626m.84389 2.25038h3.65687m-6.75114 3.65687l2.53167.2813m0 1.68778h3.37557m-6.18854 2.81298h2.25038m.84389 3.37557h3.37557m-6.18854 1.68778h2.25038m.56259 3.65687l3.93817-.56259m-6.46985 2.53167l1.68779.2813m.56259 3.09427l4.50076.5626m-4.78205 7.03244l5.06335.28129m-7.59503-3.93816h2.53168m.28129 8.43892h5.62595m-8.72022-1.96908l2.81298.2813m0 8.72023s1.09489-.15641 2.38682-.26722c1.70893-.14658 3.76263-.21336 4.08302.26722m-9.56412-3.09428l3.65687.2813m-.84389 9.56412l4.50076-.28129h3.09427m-11.5332-1.4065h4.78206m-.2813 7.31374l4.50076-.84389h2.81298m-12.93969-.28131l5.62595-.56259m3.93817-47.82057s.2813 50.07096.56259 50.91485" fill="#000" fill-opacity="0" stroke-width="1.12519002"/>
  </g>
  <g id="g3294" transform="translate(41.303769 -11.9819) scale(1.12519)" fill-opacity="1" stroke-width="1">
    <path id="path262" d="M19.258669 102.583s2.75-5.25 6.5-7.25 8.25-2.25 9.75-.75 1.75 4.25 1.75 4.25-1.199-.063-2.487-.157c-1.276-.094-2.64-.218-3.013-.343-.75-.25 4.5 2 2 2s-4.25-.75-4.25-.75l2 2s-2.25 0-3.25-.25-3.75 1-3.75 1l1.75.75s-2 1-2.75 1-.25 1.75-.25 1.75 1-.25 3.75-.25 7.25-.25 9 1.25 4 5 4 5-3-.5-4.25-1.5-2.5-1.5-2.5-1.5 1.5 2 1 3-2.75-1-2.75-1l-2.75-3.25s-.5 1-.25 2.5-3-1.5-3-1.5l.75 3.25-1.5 2.5s-1 .75-1.75 0-2-3-2-3l-1 1.75-1.25-1.25v1.25l-1.5-.75-1 1-1.5-1.75-.25-2.25-.75.75-2.25-.75-1.25 1.25-.9999996-1.25-1 1-2.9999998.5s-1.5 1.25-2.75.5-1.74999999-1.5-1.74999999-1.5l-1.5-1.25s2.99999999-2 5.49999999-2.25 6.4999994-.25 7.7499994-.25h2.25l-4.75-2.5 2-.5h2s-2-1.75-3.5-1.75c-1.4999996 0 2.5-1.75 2.5-1.75l-5.4999994.75 2.2499998-2-4.4999998 1.25 2.7499998-3.5-6.7499998 2.5s.5-2.25 2-2.5-5.75.75-6.75 1.25-.5-2.5 3.75000001-3.75c4.24999999-1.25 6.99999999-1.75 9.99999939-1 1.955.489 6.5 3 9 10z" fill="#4a8418" stroke="#000"/>
    <path id="path264" d="M17.258669 112.333s1.75 14.25 1 19.5-2 22.5-2 27-2.25 37.25-2.25 37.25 4.75 1.25 6 .25 0-.75 0-.75.5-32 .75-35 1.25-24.25 1-27 .5-8-.25-23c0 0-1.25-2.5-4.25 1.75z" fill="#ad8b05" stroke="#000"/>
    <path style="marker:none" id="path296" d="M20.258668999999998 191.583s-1.5 4.25-4.75 4.5c0 0 2.5 1 4.5.25l.25-4.75zm0-6.25s-1.75 4.5-4 4.5h4.25l-.25-4.5zm-.25-8s-1 6.5-2.5 7c0 0 2.75.25 3-.5s-.5-6.5-.5-6.5zm.5-5.25s-1 3.75-4 4.5c0 0 3 .25 4-.25v-4.25zm.25-5.5s-.5 4-2.5 4.25l2-.25.5-4zm0-6s-1 4.5-2.75 4.5c0 0 1.25.5 2.5-.75s.25-3.75.25-3.75zm.5-5.75s-1.75 5-3.75 5.25 2.75-.75 2.75-.75l.75-.25.25-4.25zm-.25-4.5s-.75 2-2.5 2.75 2.75.25 2.75.25l-.25-3zm.5-5.5s-1 4.25-3 4.25c0 0 1.75.75 2.75 0s.25-4.25.25-4.25zm.5-3.75s-2.25 2.25-4 2.75c0 0 2.5 1 3.5 0s.5-2.75.5-2.75zm-.25-5s-1.75 3.75-3.25 3.5c0 0 3 1.25 3.25 0s0-3.5 0-3.5zm0-6.25s-1.5 3.75-2.75 4.75 2.25.5 2.75-1 0-3.75 0-3.75z" color="#000" fill="#221c17" fill-rule="nonzero" stroke="none" visibility="visible" display="inline" overflow="visible"/>
  </g>
  <g id="g3138" transform="translate(101.30419 -11.9819) scale(1.12519)">
    <path id="path256" d="M-57.532661 178.583s1.5 3.75 1.25 7.5-1.75 5-.5 6 3.5 4 5.75 4.25 3.75 2.25 3.25 3.5.25 1.75.25 1.75 2.871-1.914 2.752-3.396c-.018-.213-.096-.416-.252-.604-1.25-1.5 3.5-.25 4.5 1.75 0 0 0-4-1.5-4.5 0 0 1.25-.75 2.25.5s0-3-2.25-3.5-3-.75-5-1-3.5.75-5-1-1.5-8.5-1.5-12.25l-4 1z" fill="#d35226" stroke="#000" stroke-width="1"/>
    <path id="path258" d="M-49.032661 134.333s-2.5.75-3.5-2-.75-5-.25-6.5l1-3s4.75-14.25 5-19.5-.5-4.5-.5-9 1.5-10.75 2.75-11.25c0 0-3.75-.25-4.25 1.25s-.5 13-2 18.5-1.5 1.25-1.5 1.25-2.25-12-1-17.5l.75-2.5s-4.25 1-4.5 4.25-.25 17-.25 19.75-1.25 1.5-1.25-.5-.5-14.5-.75-16-2.5-1.5-2.5-1.5-1.75 5.75-1 9.75.75 5 .75 5-2-4.5-3-3.75-.5 9-.5 9l1.75 2.5s2.75 13 3.75 16.5 3.75 11.25 11 5.25z" fill="#b3e2ee" fill-opacity="1" stroke="#000" stroke-width="1"/>
    <path id="path260" d="M-60.782661 120.583s-3-8.75-6-11.75-7.5-7.25-10.75-12.5c0 0-2.25-4.75-2.5-6.75s-3.000002-2-3.000002-2-1.25 4-1 5.75-.25 2.75 1.25 5.5c1.500002 2.75-3.75-4.5-3.75-4.5s-2.5 4.5-.75 9 3.25 5.75 3.25 5.75-4-2.75-4.75-2-1.5 4 .75 6.75 4 4 4 4-4.75 0-5 .75 1.25 3 2 4.5 2.25 4 3.5 4.25l1.25.25s-3.75 1.25-3.75 2.5 2 2.25 2 2.25 3.250002 1 4.000002 1c.75 0-1 1.5-1 1.5s-2.000002 3.25-1 3.75c1 .5 4.75.75 4.75.75s-4.75 2.5-4.5 4.5 1 2.25 1 2.25 4.5-.25 5.25-1-1.5 6-.25 6.5 5.25-1 5.25-1 .25 3.25.25 4.5 2.75 1.5 4.25-1.75 1.75 5.75 1.75 5.75-9.5 27.25-9.75 32.75c0 0 5.5-3.75 8.25-6.5s7.5-6.5 9.25-6.25 3.75-.5 3.75-.5.5-2 2.75-4.25l4.75-4.75.25-17.25 2-10-2-7.75-11.5 2.75-4.5-7 .25-9.75z" fill="#b3e2ee" fill-opacity="1" stroke="#000" stroke-width="1"/>
    <path id="path298" d="M-44.032661 109.583s-1-5-2.75-6.25-5.75-2-7.5-1.25-4.75 4.5-4.75 7.25.25 5.5 2.5 8.25 10.75 9.25 9.25 15c0 0-1.25 3-5.5 3s-4.75-2.5-5.25-4.25-.5-8-.75-10.75-2.25-5.75-5-8c0 0 .75 3 .75 7s-1.5 7.75 0 10.75 3.75 6.5 6.5 7 5.75 0 8.5-.25 2-1.75 2.75.75 1.25 6.75-.25 10.75-2.5 8.75-5.25 11.75-4.5 5.5-3.25 6.25 3.25-.75 4.5-.75 2.5-1.25 2.75.5.25 3.5 2.5 4 5.5-.25 6-1 .5-5.25.5-5.25l-2.75-1.75s3.25-4.25 3.25-5.5 1.967-27.75 1.967-27.75-5.217-5.25-6.967-7.25-3-2.5-4.5-5.5 2.75-6.75 2.75-6.75z" fill="#6fc8dd" fill-opacity="1" stroke="#000" stroke-width="1"/>
    <path id="path300" d="M-46.532661 109.833s0-3.25-2.25-4-6.25-.75-7 2.25-.75 3.5.75 6 3.75 5.5 6.25 8.25 2.25 6 3.5 8 4.75 3.25 4.5 1-1.25-5.25-2.5-6.25-4-4-7-7-4-5-3.5-6 .75-.75 2-.25 2.25 1 2.25 1l3-3z" fill="#b3e2ee" fill-opacity="1"/>
    <path id="path302" d="M-51.782661 122.833s-1.75 3-1.75 5.75 1 3.75 1 3.75-2 1.75-3 .75-2.75-3.5-.25-6.75l2.5-3.25.25-2 1.25 1.75z" fill="#6fc8dd" fill-opacity="1"/>
    <path id="path304" d="M-74.782661 150.583c1.75-.5 8-7.75 8-7.75" fill="none" stroke="#000" stroke-width="1"/>
    <path id="path306" d="M-49.782661 145.333s-.25 5.25-1.25 7.75-3.25 4.75-3.25 4.75l-1-2s-3 4-4.5 4.5c0 0-1.5-2.75-1-5.25 0 0-2.25 4-3.5 4l-.25-4" fill="none" stroke="#000" stroke-width="1"/>
    <path id="path332" d="M-50.226777 145.49632c-.43-.102-1.035-.006-1.461.039-.121 2.281.700625 3.66022-.209375 5.69122-.729 1.621-3.131 3.398-2.969 5.205 3.32-.082 4.891375-7.92322 4.639375-10.68522m-2.555884.58668c-.52 2.252-.404 5.123-1.307 7.238-1.197 2.813-3.389 3.715-5.398 5.486.227-1.373 1.434-2.369 2.018-3.656.605-1.33.719-2.693.951-4.123.371-2.279.256-7.063 3.236-4.945m-5.884514.0768c.482-.012 1.113.346 1.719.275-.215 1.303-1.206984 2.03701-1.656 3.281-.314866.87233-.233102 1.75147-.3822 2.60877-.04883.28075-.122108.5593-.2428.83423-.610695 1.39113-2.811 3.553-4.137 4.227-.42-2.293 1.004-4.238 2.199-6.121 1.136-1.787 1.648-3.16 2.5-5.105m-4.115486-2.11548c.611 1.695 1.404 1.715.938 3.438-.229.842-1.594 2.822-2.125 3.58-1.113 1.588-3.207 3.848-5.08 4.332-.229-2.051 2.916-3.793 3.719-5.594.879-1.975 1.344-4.133 2.299-6.256m-12.251 7.69226c.84-3.799 5.852-6.447 8.752-8.779 2.141 1.316.938 3.508-.752 4.779-1 .75-3 3.75-5 3.25 0 0-1 1-3 .5m5-11.07678s-.5 2.25-2 3.25-5 2-6.5 2.25l-.5-2.5s6.25-1.25 9-3zm-1.25-3.07678s-.5 1.25-2.25 1.25-6.5-.75-6.5-.75 7-2.75 8.75-.5zm-.75-5.5s-2 .75-3.75.75-6.500002-.5-7.500002-1.75 1.5-.75 4.250002-.75c2.75 0 6.75.75 6.75.75-7.25-.25-9.500002-.5-9.500002-.5m-5.25-10.5s1.25 2.25 3.75 4.25c2.500002 2 5.250002 2.5 7.000002 2.5s3.75.75 3.75.75l.75-1.75s-1.25-.5-3.25-.5-6.25-1-7.500002-2.25c-1.25-1.25-2.75-3-4.5-3zm-1-12.5s1.5.75 3 2.75 3.750002 6 8.500002 9.25c0 0-5.000002-1.5-7.500002-4s-4-5.5-4-6.25v-1.75zm3-10.75s1.75 2.75 2.5 5.25 6.250002 9.5 7.000002 10.5-4.5-.5-6.250002-3c-1.75-2.5-4.25-7.5-4.25-9.5s.25-3 1-3.25zm13.500002 11.75s-8.5-10.25-8.75-14c0 0-2.250002 1.75-.25 5.25 2 3.5 6.75 8 9 8.75z" fill="#6fc8dd" fill-opacity="1"/>
    <path id="path336" d="M-48.032661 165.833s-3.5 5-4.75 6.75-3 4.25-2.5 5 5.25-4 7-6 .25-5.75.25-5.75zm-12.75-7.5s-5.25 23.25-10.75 30c0 0 3.5-13.5 5.5-20.5s3-9.5 3-9.5l2.25-3.25v3.25z" fill="#6fc8dd" fill-opacity="1"/>
    <path id="path338" d="M-39.032661 154.583s-8.5 5.75-8.5 7.75 3.5-1 4.75-2.75 5.5-4.5 3.75-5z" fill="#b3e2ee" fill-opacity="1"/>
    <path id="path340" d="M-27.315661 152.833s2.25 2.25 2 5.25-.25 3.5-.5 5.75 1.75 4.25-.5 4.5c0 0-2-1.25-3-.75s-2.75 1-2.75 1l-.5-2s2.157-.984 2.25-2.75c.25-4.75 3-11 3-11z" fill="#d35226" stroke="#000" stroke-width="1"/>
    <path id="path342" d="M-48.032661 110.083s-.75-2.25-2.75-2-2.25 1.5-2.25 1.5.75 1 1.75 1 1-.25 3.25-.5z" fill="#fff" stroke="#000" stroke-width="1"/>
    <path id="path368" d="M-66.972661 142.497s-4.56 5.32-6.688 6.688m-7.751-19.001s6.079 1.217 8.359.912m21.77 14.487s-1 9-2.5 10.25m-1.75-9.5s-2 8.25-3.75 12.25m-.5-12s-3 8-4 8.75m.5-11s-5.5 10.75-6.25 10.75m-10-11c2.25.25 9.25-4.75 9.25-4.75m-1.75-3.5s-6.25 1.25-8 1.25m7.5-11.75s-3.25-.75-6.25-1.25-7.500002-4.5-7.500002-4.5m13.000002 1s-9.250002-4-10.500002-7-3.25-4.25-3.25-4.25m12.750002 5s-8.250002-9-9.750002-13.5m2.750002-8c1 6.75 10.5 17.25 10.5 17.25" fill="none" stroke="#000" stroke-width="1" fill-opacity="1"/>
    <path id="path370" d="M-47.782661 142.583s.25 4.25-3.5 3c0 0-1.75 2-4.5-.25 0 0-2 3.75-4.25.5 0 0-2 2.25-3.25-1.5 0 0-3.75 1.75-3.75-2.25 0 0-4.25-1.5-2.75-4.25 0 0-4 .25-1.75-4.75 0 0-3.5-3.5 0-4 0 0-3.5-2-1-3.75 0 0-4.25-3.5-.75-4.75 0 0-2.25-4 0-4.5 0 0-2.25-3.5.25-3.5 0 0 0-3.25 2.25-2.5 0 0-.5-4.5 2.25-3" fill="none" stroke="#000" stroke-width="1"/>
    <path id="path372" d="M-44.782661 108.083s1.75 4 3 4.75 12 7 13.5 7.75 4 4.25 3.25 5-1.25-2-3.75-1.75-6.5-1.75-7.75-2-5.5-2.25-7.5-4-5.5-2.75-5.5-5v-2.25s.25-1.25 1.5-.5 1.5-1.75 1.5-1.75.75-1.75 1.75-.25z" fill="#d35226" stroke="#000" stroke-width="1"/>
    <path id="path374" d="M-47.532661 112.833s4.25 2.25 8 4 10.25 5.75 11.5 6.5" fill="none" stroke="#000" stroke-width="1"/>
  </g>
  <g id="g460" transform="translate(-18.6962 -11.9819) scale(1.12519)" fill-opacity="1">
    <path id="path462" d="M48.083 71.583s-2 4.5-.25 6.75 5 2 5 2-3.25-3.75-1.5-5 2.75-3.5 7.75 0 9 10 14 13.75 10.5 6.5 14.25 6.75 6.75.5 11.25.25 7.5-1.75 7.5-1.75l-13.25-7.5-3.25-5.25s-4.75 1.5-5.5-2.25-.5-8.75-.5-8.75l-7.25-.25-1.75 4-6.25 1-2.75-8.75-5.25 3.5-6.75-2.25-5.5 3.75z" fill="#23365d" stroke="#000" stroke-width="1"/>
    <path id="path464" d="M70.833 57.833s4.25-7.5 7.25-7.75 4.75-.75 4.75-.75.75-1.75 3.75-3.25 4.25-.5 4.25-.5-.75 4.75.75 5.75 4.5 1.75 4.5.75 0 3.5-1 4.25-1 3.5-7.75 3c0 0-.25.75-3.25 2.75s-4 0-7.5-1.25l-5.75-3z" fill="#23365d" stroke="#000" stroke-width="1"/>
    <path id="path466" d="M132.083 84.083s.75 2 2.5 2 4-.5 3.5-2-1-2.5-1-2.5 3.25-.5 3.75 1 1.5 2.5 2.5 1.25 3.75-4.75 3-8 .75-5.75-6.5-4.75c0 0 3.25-3.75 6.25-3.25s3 4 5 4 2-2 2-4.25-1-7.75-3.75-8.5-5.25-2.75-5.25-2.75l4-3s10.25.25 11.25 3 2.75 8 1.25 11.5-2 5-.5 5.25 3.75-1.5 4-5.25 2.5-3.25 3.25-5 2-4.25 1.25-5 2.25 1 2.25 4 1.5 4 2 2.5.75-2.75 2.5-2.75 1.5 1.25 3.25.25 3.75-2.25 4-3 1 2.5.75 4.25-1.75 2.5-1.5 3.25 4.75 3 4.25 6.5-.25 6.5-9.75 7.5c0 0 2.25-1.75 1.75-4s1.5-1.75-.5-2.25-8.25 3.5-12.25 8.25-7.25 7.25-11.75 9.25-16.5 4.75-19.75 4.5-2.5-2.75-2.5-2.75l.75-9.25z" fill="#23365d" stroke="#000" stroke-width="1"/>
    <path id="path468" d="M142.833 43.583s-.5 2.25 1.25 3.25 5 1.75 5 3.5.5 2.75.5 2.75 3.5-1.25 4.75-.25 4.25 3 4.25 3-3.25-.5-5.25.25-5.25.75-5.25 3 .25 4.5.25 4.5-3.75-.25-4.25-4.5c0 0-2.25 1.75-4.5 1.25s-4.5-2.75-4.75-6.5c0 0 2.5 0 4-1.5s3.75-1.75 3.75-1.75-2.25-2 .25-7z" fill="#b3e2ee" stroke="#000" stroke-width="1"/>
    <path id="path470" d="M88.833 82.083s-4 0-4-1.75 0-4.25.25-6 3-4 3-4 1.5-1.5 0-2.75-3.75-2.75-6.25-1.75-2.25 3.25-2.25 3.25-2.25-1.75-1.25-3.25 1.75-3.25 1.75-3.25-1.5-.25-2.25-1-.75-1.75-.75-1.75 2.5 1.5 3.25.5 2.25-1.25 2-2-.25-2.75-2.25-4-4.5-1.5-5.75-.75-3.5 2.5-3.75 5 1.25 7.75 1.25 10 .25 6.5.25 6.5l2.75 3s.25-2.5 2.25-4.25 3-1.75 4-1.75 0 4 .75 6 1.75 4 7 4z" fill="#b3e2ee" stroke="#000" stroke-width="1"/>
    <path id="path472" d="M73.333 74.583s-2.5 1.25-3.5.25-2.5-1.25-2.75-4.75-.25-5.25-2-6.75-3.5-3.25-3-4.25 2.5-2.75 2.5-2.75-2.5-1.5-3.75-.5-2 4-2 4-2.25.25-5.5.25-3.5-1.5-3.5-2.5-.25-1.75-.25-1.75-4.5 1.5-4.5 3.25 2.25 5.5 2.25 5.5 1 1.75-.25 2.5-3.5 3.5-2.5 7.25 4.75 6 8.25 6c0 0-5.5-2.75-4-5.5s1.5-4.75 4.5-4.75 7.5 2.75 7.5 2.75 1-.75 2.25-2.25 2.25-2.5 2.25-.5.25 5.5 1.5 5.75 4.25 1.25 6.5-1.25z" fill="#b3e2ee" stroke="#000" stroke-width="1"/>
    <path id="path474" d="M63.833 63.833s.75 1.75-.75 2.75-4.25 1-4.75 1.75-1-.75-1-.75 2.75-.5 4-2.25 2.5-1.5 2.5-1.5z" fill="#6fc8dd"/>
    <path id="path476" d="M47.333 64.583s6 .75 8.5 0c0 0-2.25 1.25-4.25 1.25s-4.5 1.25-4.5 1.25l.75-1.5-.5-1z" fill="#6fc8dd"/>
    <path id="path478" d="M96.833 95.583s-1.75 2.25-3.25 3.75 1.75 1.25 1.75 1.25.5 1 .25 3.25-3.75 2.5-3.75 2.5 1 2.75 3.5 2.75 5.25-2 5.75-3 1 2.25.25 2.75 2.75-1 3-2.25.75-7.5.75-7.5-3.75-6.5-8.25-3.5z" fill="#b3e2ee" stroke="#000" stroke-width="1"/>
    <path id="path480" d="M131.083 86.583s2 3.5 3.75 4.5 4.25 1.75 8 .75 4.25-1.5 5.25-4-1.5-5.75 0-9 2-2.25 2.25-3.75 0-2.75 1.25-2.5 4 2 4 4.5 3.25-1.25 3.25-1.25 1.5 3 1 4.5-2.75 4.25-3.75 5.75-2.5 2.5-.75 2.5 1.5 1.75 3.75-2.75 3.75-7.75 5.75-9.25 1.75-3.75 2.5-5 2.5.25 1.75 2.25 2.25-1.5 3.5-1.5 4.75.25 5 1.75c0 0-1.75-.5-4.5 1.25s-10 9.75-13.5 12.75-10.5 6-13.25 7.5-1.5 3.25-3 3.25-.25 2.75.25 4 .25 1.25-1 1.5-3 .75-3 .75 1.25 1.5 0 2.75-2.75.75-2.75.75l-8-5s-.25-15.25 2.25-17z" fill="#b3e2ee" stroke="#000" stroke-width="1"/>
    <path id="path482" d="M98.583 87.583s-4.5-.25-5.5-3-1.75-4.25 0-5.5c0 0-3-3.25-4.75-.75s-1.5 4.25-.5 5.75 2.5 3 2.5 3-4.5-4-5.75-4-1 3.75-.25 5.25 4.25 5.25 5.75 5.5 4.25.5 5.75.5 5-2.75 5-2.75l-2.25-4z" fill="#b3e2ee" stroke="#000" stroke-width="1"/>
    <path id="path484" d="M138.17972 95.669679s5.5-.75 6.5-.5l1 .25-1.75 1.75s-3-.25-4.25-.25-4.75-.75-4.75-.75l3.25-.5z" fill="#6fc8dd"/>
    <path id="path486" d="M134.833 99.419679s4 4.250001 5.25 4.500001-.5 1-.5 1-1.25.75-4.75-5.500001z" fill="#6fc8dd"/>
    <path id="path488" d="M154.582 75.333s-1 6.75-2.75 9.75c0 0 3.5-3.25 4.75-6.75 0 0 0 .5-1-1.25l-1-1.75z" fill="#6fc8dd"/>
    <path id="path490" d="M142.583 50.583s3.25.5 3.75 1.75.5 2.25.5 2.25-.25-1.5-2-.5-5.5 3-6.75 2c0 0 3-1 4.25-2.25s2.5-1 2.5-1-2.75-1.75-5-.75l2.75-1.5z" fill="#6fc8dd"/>
  </g>
  <g id="g492" transform="translate(-18.6962 -11.9819) scale(1.12519)">
    <path id="path518" d="M105.833 116.083s2.5 1.5 5.25.25 8.25-3.5 9.5-4.75 3-1.75 3-1.75l-1.25-3.5-5-10.5s.75 4.5.25 6-4 7.5-5.75 9.25-4 4.75-6 5z" fill="#f9f6f3"/>
    <path id="path494" d="M98.354003 66.769s1.244-2.428 4.559997-2.901l.829 3.553 3.73-.77-.178-4.027 5.625-.177.119 4.381 6.099-.177.178-4.145h5.803l-.355 4.5 3.671.474 1.007-3.908 4.382 1.54s-1.361 4.085-2.724 5.151c-1.363 1.066-2.191 1.362-2.191 1.362l-.013 4.547s-4.428-1.29-12.244-1.29-14.862 1.717-14.862 1.717l-.178-5.506s-1.125-.71-1.599-1.303c-.473997-.593-1.658997-3.021-1.658997-3.021z" fill="#4a8418" stroke="#000" stroke-width="1" fill-opacity="1"/>
    <path id="path496" d="M99.598 69.434s4.439-3.256 16.046-2.96c11.607.296 15.929 2.842 15.929 2.842" fill="none" stroke="#000" stroke-width="1"/>
    <path id="path498" d="M101.789 71.388s2.428-1.185 7.105-1.48c4.677-.295 7.579-.532 13.382.296 5.803.828 6.81 1.599 6.81 1.599" fill="none" stroke="#000" stroke-width="1"/>
    <path id="line500" fill="none" stroke="#000" stroke-width="1" d="M104.157 70.795998l-.059 5.092002"/>
    <path id="line502" fill="none" stroke="#000" stroke-width="1" d="M111.144 69.790001L111.073 75"/>
    <path id="line504" fill="none" stroke="#000" stroke-width="1" d="M119.138 69.907997l-.119 5.033005"/>
    <path id="line506" fill="none" stroke="#000" stroke-width="1" d="M126.895 71.151001l.118 4.678001"/>
    <path id="path508" d="M111.5 79.975l-3.917 2.858s2.5-1.5 6-1.25 4 1.25 2.75 2 2.25 1.75 2.25 1.75-2 6.25-1.25 9.75 6.25 14.75 6.25 14.75 4.25-4.75 7.25-4.75 6 4 2.75 6l2.25-.25s2.5-3.25.25-6-4.75-5-4.75-10 0-9.25 1-11.5 2-1.75-.25-3.25-18.038-1.115-20.583-.108z" fill="#ccc" fill-opacity="1" stroke="#000"/>
    <path id="path510" d="M119.083 90.333s1.5 12.25 5.75 17l.25.75.75-.75s-1 0-3-8-1.75-10-1.75-10l-2 1z" fill="#f9f6f3"/>
    <path id="path512" d="M117.583 88.833s-.5 4-.75 5.25 2 7.25-.75 11.5-8.75 11-10.25 10.5 0-2.75.25-7.25 1.5-5.5-.75-8-4.75-4.75-4.75-4.75l-5-.5s-2.75-4.5-1.75-6.25 1.25-4.25 3-5.5 2.25-2.25 2.25-2.25l2.75-.25s-2.75 2.25-3.5 3.75-.75 8.25-.75 8.25 3.25.5 4.5.5 7-1.25 7-1.25-1.25 1.75.75 1.75 3.25-1 4.75-2.25 3-3.25 3-3.25z" fill="#999" stroke="#000" stroke-width="1" fill-opacity="1"/>
    <path id="path514" d="M100.583 96.083s3.25 2.75 4 4.25 2.5 3.75 1.75 6.75c0 0 0-4.5 1.5-4.25s2.5 6 2.5 6-.75-7 .5-7.25 1.25 3.5 1.25 3.5 1.25-6.25 1.75-7.75 1-4.25 2-3.75 1.5-.25 1.5-.25l.75-5.5s-1.75 2.75-3.5 4.25-8 3.25-9.75 3.5-4.25.5-4.25.5z" fill="#000" fill-opacity="1"/>
    <path id="path516" d="M133.583 111.083s1.25 0 1.25-2-1.5-3.75-4-4-6.25 4-7.25 4.75-3 1.75-3 1.75l13-.5z" fill="#1f1a17" stroke="#000" stroke-width="1"/>
    <path id="path520" d="M99.083 81.583s-5.25 5-5 8.75 1.5 5.25 1.5 5.25 5 .75 7.5.25 8.75-1.5 9.75-2.25 5-2.25 5-8.25c0 0 3.75-.75 6.5-.75s7.25-.5 8-1.25l-.25-3.25s-30.5-1.75-33 1.5z" fill="#ccc" stroke="#000" stroke-width="1" fill-opacity="1"/>
    <path id="path522" d="M103.68013 79.386695L99.583 84.083s-2.25 2-2.25 5.25.25 4 .25 4 5 .25 7.25.25 4.5-.75 7.75-3.75 2.5-5.5 2.5-5.5 7-1.25 9-1.5 7.24-1.166 7.24-1.166" fill="#999" stroke="#000" stroke-width="1" fill-opacity="1"/>
    <path id="path526" d="M125.468 108.077s-12.916 10.378-19.54 8.28" fill="none" stroke="#000" stroke-width="1"/>
    <path id="path528" d="M102.381 76.896s-3.08-.592-3.968 0c-.888.592-1.895 3.849-.947 4.5.948.651 3.493.533 5.329.237 1.836-.296 2.546-.355 3.197-.355.651 0-1.952-3.79-3.611-4.382z" fill="#b3e2ee" fill-opacity="1" stroke="#000" stroke-width="1"/>
    <path id="path530" d="M131.869 82.816s1.539.177 2.072-.651c.533-.828.889-3.02-.77-3.849-1.659-.829-3.671-1.006-3.671-1.006s.059 1.125.77 2.131c.711 1.006 1.895 2.783 1.599 3.375z" fill="#23365d" stroke="#000" stroke-width="1" fill-opacity="1"/>
    <path id="path532" d="M131.323 81.667s-1.645-3.232-1.822-3.587c-.177-.355-.178-1.777-1.007-1.895-.829-.118-1.481-.651-2.191-.651-.71 0-3.729-.77-4.736-.415-1.007.355 1.303 4.56 2.546 5.507 1.243.947 2.605.947 3.435.947.83 0 3.36.094 3.775.094z" fill="#b3e2ee" fill-opacity="1" stroke="#000" stroke-width="1"/>
    <path id="path534" d="M124.052 80.448s-.177-1.066-.71-2.132c-.533-1.066-1.362-3.02-2.132-3.257-.77-.237-3.612-.059-3.612-.059s-.473 1.243.237 2.487 1.243 2.131 2.072 2.665c.829.534 1.185.415 2.428.651 1.243.236 1.717-.355 1.717-.355z" fill="#23365d" stroke="#000" stroke-width="1" fill-opacity="1"/>
    <path id="path536" d="M117.243 75.889s-.592-1.006-1.539-1.006-1.006-.533-2.309-.533c-1.303 0-3.139.118-3.672.651-.533.533-.711 2.31-.296 2.783.415.473 2.071 2.427 3.02 2.546.949.119 2.429-.178 4.619.237s2.428-.296 2.428-.296-1.065-1.48-1.48-2.013c-.415-.533-.771-2.369-.771-2.369z" fill="#b3e2ee" stroke="#000" stroke-width="1" fill-opacity="1"/>
    <path id="path538" d="M111.026 79.619s-1.066-1.658-1.48-2.309c-.414-.651-.592-1.717-1.303-1.717s-3.553 0-4.5.71c-.947.71-1.243 1.066-.947 1.776.296.71 1.895 2.191 2.901 2.605 1.006.414 1.421.296 3.257.296s2.546-1.006 2.546-1.006l-.474-.355z" fill="#23365d" stroke="#000" stroke-width="1" fill-opacity="1"/>
  </g>
  <use xlink:href="#g3138" height="248.53996" width="225.00002" y="0" x="0" id="use3233" transform="matrix(-1 0 0 1 220.58893 0)"/>
  <g id="g5458" transform="translate(-20.696203 -7.9818946) scale(1.12519)" fill-opacity="1">
    <path style="marker:none" id="path4345" d="M91.904913 220.04729c-.32665 5.63459.57163 6.20622 3.26643 7.67611 2.6948 1.4699 16.332137-1.71487 21.231777-1.71487 4.89964 0 15.92384 3.02144 19.92521 2.61314 4.00137-.40831 6.36953-4.73632 5.87957-7.83943-.48996-3.10311-6.94116-8.73769-24.90651-8.49271-17.965357.24498-25.559797 7.67611-25.396477 7.75776z" color="#000" fill="#b3e2ee" fill-rule="nonzero" stroke="#000" stroke-width=".88873899" stroke-linecap="butt" stroke-linejoin="miter" stroke-miterlimit="4" stroke-opacity="1" stroke-dasharray="none" stroke-dashoffset="0" visibility="visible" display="inline" overflow="visible"/>
    <g id="g4500" transform="translate(-177.748 -88.8739)" color="#000" stroke="#000" stroke-width=".88873899" stroke-linecap="butt" stroke-linejoin="miter" stroke-miterlimit="4" stroke-opacity="1" stroke-dasharray="none" stroke-dashoffset="0" visibility="visible">
      <path style="marker:none" id="path4339" d="M210.73451 287.93439c-.0408-2.93978 13.55567-8.49271 13.88232-1.55155.32664 6.94116-4.90814 12.86857-4.90814 12.86857l-5.70775-1.02777-3.26643-10.28925z" fill="#3f7256" fill-rule="nonzero" display="inline" overflow="visible"/>
      <path style="marker:none" id="path4341" d="M224.57929 286.05396c-.28872 2.07874-7.44882 4.79266-7.44882 4.79266l1.96325 5.94751 5.2546-.4042.23097-10.33597z" fill="#b3e2ee" fill-rule="nonzero" display="inline" overflow="visible"/>
      <path style="marker:none" id="path4343" d="M286.22983 302.26585c0 2.88524-16.25048 3.59307-16.57712 7.30863.16332-3.71556 2.77646-11.39167 2.77646-11.39167l11.26918 2.00068 2.53148 2.08236z" fill="#3f7256" fill-rule="nonzero" display="inline" overflow="visible"/>
      <path style="marker:none" id="path4337" d="M286.3284 302.38919c-1.88687-3.83708-4.72195-8.86905-4.83489-12.90324-18.4248-2.21986-33.49465 6.90904-63.04207 5.87957-5.08311-.1771-7.72922-5.80611-7.6761-8.00275-.62341 2.7726 2.11897 5.97202 2.61314 10.12593.50497 4.2446.16333 6.61452 2.44982 9.30931 1.90492 2.24507 24.23519 2.99144 35.60407-.48996 10.66685-3.26642 33.526-7.26915 34.88603-3.91886z" fill="#b3e2ee" display="inline" overflow="visible"/>
    </g>
    <use xlink:href="#g4500" height="248.53996" width="225.00002" y="0" x="0" id="use4514" transform="matrix(-1 0 0 1 233.945 -4e-7)" fill="#b3e2ee"/>
  </g>
  <path style="text-align:center;line-height:125%" id="path5500" d="M179.13126 229.43318l-.0787 2.36248 3.90675.12999-.0411 1.23542-3.90674-.12999-.0932 2.80136-1.59847-.0532.25405-7.63467 5.62983.18733-.0411 1.23542-4.03137-.13415m-10.96768 5.28807l1.06688-7.56404 1.58366.22338-.89424 6.34005 4.05849.57243-.17264 1.22399-5.64215-.79581m-9.60298-2.19025l1.81512-7.42011 5.83499 1.42736-.29372 1.2007-4.28145-1.04734-.45603 1.86425 3.96021.96875-.29372 1.2007-3.96021-.96875-.47794 1.95377 4.49737 1.10015-.29372 1.2007-6.0509-1.48018m-2.94438-3.12342c-.0843.33659-.22246.628-.41453.87425-.1912.24275-.44111.42981-.74971.56118-.30512.13225-.67288.20224-1.10329.20996-.42604.006-.91604-.0617-1.46999-.20043-.49085-.12292-.91288-.27517-1.26609-.45676-.35319-.18159-.64327-.39209-.87022-.63149-.22344-.23853-.3877-.50508-.49279-.79965-.1007-.29721-.14659-.61982-.13769-.96783l1.56076.12815c.00081.17532.0244.34145.0708.49838.0464.15693.12699.30379.24178.44059.11916.13415.2769.25563.47322.3644.2007.10611.45181.19698.75334.27248.52591.13169.94711.15334 1.2636.0649.32087-.091.52389-.30661.60905-.6467.051-.20336.0366-.38394-.0432-.54176-.0797-.15782-.20195-.30207-.36669-.43275-.16476-.13068-.36108-.25435-.58894-.37103-.22788-.11667-.4667-.23423-.71649-.35267-.19807-.10171-.39571-.20528-.5929-.31055-.1972-.1052-.38299-.21886-.55739-.34077-.17089-.12104-.326-.25303-.46533-.39597-.13932-.14293-.25191-.3034-.33774-.48139-.0815-.1806-.13223-.37962-.1523-.59703-.0165-.21652.009-.45976.0765-.72974.0922-.36813.24483-.66524.45793-.89133.2131-.22607.47001-.38902.77073-.48885.30509-.10239.64786-.14702 1.0283-.13373.38044.0133.78454.0735 1.21228.18062.48383.12116.8879.26333 1.21218.42649.32866.16055.58937.34693.78215.55914.19628.2131.33162.45378.40604.72205.0788.26564.11072.56238.0956.89022l-1.55547-.17153c.002-.33837-.0949-.61805-.2929-.83903-.19453-.2201-.51267-.38546-.95443-.49609-.27348-.0685-.50752-.10104-.70212-.0975-.19024.00081-.34979.0279-.47867.0813-.12537.0543-.22446.13009-.29725.22737-.0719.0937-.12281.20026-.15266.31946-.0457.18233-.0396.34406.0182.48521.0586.13765.15681.26655.29438.3867.13846.11664.30935.23023.51269.34075.20771.10791.43602.22284.68493.34477.21911.10701.43559.21713.64944.3303.21472.10971.4163.2272.60472.35263.18842.12542.35887.26312.51135.41308.15246.14995.27424.31831.36534.50506.0955.18413.15369.39059.17465.61938.0244.22969.00068.48828-.0713.77578m-30.96817 15.40439l1.04626-7.56691 5.95042.82274-.16931 1.22446-4.36614-.60369-.26286 1.90112 4.03855.5584-.16931 1.22445-4.03854-.55839-.27549 1.99242 4.58633.63414-.1693 1.22446-6.17061-.8532m-4.34503-.495l-1.61311-.16004-2.05663-7.88044 1.66166.16485 1.08016 5.03771c.0343.16686.0664.33712.0964.51079.03.17369.0578.33263.0835.47683.0268.16973.0524.33208.077.48707.0506-.14389.10374-.2948.15933-.45273.0495-.1331.10599-.28186.16957-.44626.0675-.16765.13478-.3335.20191-.49755l2.04357-4.7278 1.64547.16325-3.54879 7.32432m-5.56725-4.40928c-.0195.59605-.12571 1.13501-.31866 1.6169-.19296.4819-.46127.8908-.80495 1.22673-.34369.33592-.75882.58995-1.24541.76209-.48299.17225-1.0261.24852-1.62937.22879-.6394-.0209-1.19614-.13675-1.6702-.34752-.47035-.21428-.86055-.50187-1.17059-.86279-.30993-.36452-.53826-.79148-.68499-1.28086-.14312-.48925-.20529-1.02107-.18651-1.59545.0195-.59603.12017-1.13157.30205-1.60659.1855-.4749.44628-.875.78239-1.20033.33983-.32881.75112-.57574 1.23386-.74078.48648-.16851 1.04037-.24261 1.66171-.22232.62133.0204 1.16741.1304 1.63822.33021.47443.19995.86864.47503 1.18267.82522.31762.35032.55347.76847.70755 1.25446.15419.4824.2216 1.01981.20223 1.61224m-1.63101-.0533c.0132-.40098-.0238-.76382-.11083-1.08851-.0833-.32819-.21509-.61095-.39537-.84828-.18028-.23734-.40749-.42196-.68164-.55389-.2704-.1354-.58803-.20907-.95289-.22101-.37207-.0122-.70107.0404-.98697.15759-.28217.11373-.52096.28313-.71636.50816-.1954.22507-.34538.49861-.44993.82065-.10442.31844-.16321.67815-.17632 1.07913-.0129.39736.0221.76375.1051 1.09916.0868.33192.22019.62016.40025.86472.18005.24456.40697.43822.68075.58097.27379.14275.59311.2201.95796.23202.39014.0127.72827-.0431 1.01442-.16754.28625-.12805.52358-.30834.71201-.54085.19213-.23601.33694-.51696.43439-.84286.0975-.3295.15271-.68933.16547-1.07946m-8.04576 1.4923c.024.38599-.033.72269-.17077 1.0101-.13807.2838-.3369.5225-.59644.71608-.2562.18975-.56027.33722-.91223.44239-.35221.10161-.72851.1648-1.12892.1897l-3.814792.23719-.474054-7.62418 3.490126-.217c.45092-.028.8538-.0133 1.20866.0443.35822.0538.66313.15252.9147.29621.25156.14369.44617.33258.58386.56664.14105.23024.22167.50769.24187.83235.0269.43289-.0711.80655-.29425 1.12098-.21969.31062-.5716.53348-1.05569.66859.62134.0338 1.10242.19944 1.44322.49692.34417.29366.5324.70021.56471 1.21968m-2.25162-3.1898c-.0213-.3427-.14648-.57936-.37549-.70997-.22542-.13084-.55277-.1829-.98204-.15622l-1.818117.11304.117425 1.88846 1.828932-.11372c.45092-.028.77256-.12588.96494-.29357.19575-.1715.28386-.41418.26435-.72802m.64221 3.16493c-.0126-.20201-.0628-.36909-.15067-.50123-.0879-.13215-.20475-.23534-.3506-.30956-.14223-.0745-.30827-.12387-.4981-.14828-.18622-.0246-.38755-.0303-.60399-.0168l-2.023732.12583.135923 2.18606 2.083259-.12953c.20923-.013.40301-.0413.58137-.0851.17812-.0473.32954-.11646.45424-.2075.12809-.0948.22552-.21682.29231-.36582.0667-.14901.0934-.33173.08-.54817m-8.347454 3.0655l-1.010139-1.80227-2.866035.51162-.32415 2.04047-1.574454.28106 1.400856-8.00973 1.857324-.33156 4.075042 7.03221-1.558444.2782m-2.701624-4.95334c-.06492-.11691-.129858-.23382-.194782-.35074-.062-.12109-.118235-.23038-.168677-.32785-.04748-.10161-.08799-.18439-.121397-.24819-.02982-.0645-.04726-.0999-.05198-.10633-.0011.0114-.0056.0523-.01125.12314-.0056.0708-.01541.16062-.02903.26952-.01001.10824-.02498.23026-.04482.36597-.01691.13152-.0356.26336-.05606.39551l-.355996 2.29397 2.161543-.38586-1.127733-2.02911m-4.849551-14.49828l.27373 3.12166-1.58783.13924-.273729-3.12166-3.104736-4.25031 1.668841-.14634 2.107717 3.05879 1.564814-3.38082 1.668842-.14634-2.317649 4.72578m-7.378996 3.96036l-2.224894-2.57016-1.850397.30791.476109 2.86116-1.577651.26253-1.253901-7.53528 3.764968-.62651c.470617-.0783.889527-.0931 1.25673-.0442.370166.0447.689222.14547.957169.3024.267342.15337.481199.35962.64157.61872.163332.25495.273775.55535.33133.90117.04686.28167.04709.54727.000687.79682-.04344.2454-.124907.47146-.244386.67821-.115926.20616-.265115.38854-.447567.54714-.183057.15504-.389274.28095-.618652.37775l2.56441 2.82693-1.775525.29546m-1.056634-5.19382c-.06111-.36722-.22772-.6198-.499821-.75772-.268543-.13851-.625645-.17068-1.071306-.0966l-2.021531.33639.370208 2.22476 2.064315-.34351c.235307-.0391.432297-.0995.590973-.18078.161638-.0855.287632-.1871.377984-.30473.09331-.12178.155145-.25664.185492-.40459.03034-.14794.03156-.30571.0037-.47328m-10.441237.92972l1.52805 6.21779-1.553131.38169-1.528049-6.21779-2.395507.58871-.295-1.20039 6.349409-1.56039.295 1.20039-2.400772.58999m-6.584199 8.37401l-4.730851-4.8272c.0584.14904.115054.29852.169962.44846.04933.129.09795.2694.145873.4212.05141.15089.09573.29619.132947.43588l1.159746 4.35344-1.372566.36565-1.966404-7.38147 1.765475-.47032 4.790561 4.86179c-.05654-.14203-.113199-.29151-.169962-.44845-.05026-.13248-.103427-.2829-.159485-.45125-.05258-.16926-.102123-.34121-.148642-.51584l-1.142999-4.29058 1.372565-.36565 1.966405 7.38147-1.812625.48287M51.33437 235.6432c-.469949.0822-.910393.1025-1.321332.0606-.411567-.0453-.780325-.16061-1.106273-.34573-.323013-.1893-.597033-.45505-.822057-.79726-.221467-.34285-.377073-.7706-.46682-1.28327l-.823614-4.70479 1.575387-.27579.802112 4.58197c.05547.31686.142619.58414.261456.80184.118209.21415.263388.3832.435534.50717.171518.12042.366757.19816.585715.23321.21833.0315.453884.0251.706661-.0191.25633-.0449.485071-.12161.686221-.2302.20408-.11279.369266-.25912.49556-.43902.129844-.1805.216924-.39573.261239-.64566.04431-.24992.0381-.53688-.01861-.86086l-.792764-4.52857 1.575386-.27578.809593 4.6247c.09036.51622.08492.97767-.01634 1.38434-.101279.40668-.27962.7608-.535043 1.06236-.256058.29801-.579981.54368-.971768.73702-.38886.18917-.828941.32674-1.320244.41275m-6.101654-3.08324c.02894.59567-.03321 1.14148-.186404 1.63743-.15322.49596-.387469.92529-.702748 1.28799-.315294.36271-.708447.64959-1.179459.86064-.467414.21088-1.002559.33097-1.605437.36026-.638988.0311-1.203285-.0393-1.692895-.21085-.486181-.17539-.898426-.43037-1.236735-.76494-.338489-.33817-.600712-.74518-.786671-1.22105-.18235-.47602-.287471-1.00105-.315362-1.57505-.02894-.59566.02795-1.13759.170685-1.62581.146342-.48838.37381-.90833.682404-1.25987.312026-.3553.701919-.63478 1.169681-.83844.471191-.20744 1.017254-.32625 1.638191-.35643.620928-.0302 1.174132.0352 1.659614.19618.48908.16079.904322.40296 1.245725.72651.344999.32339.614003.72103.807015 1.19293.192821.46829.303619.99846.332396 1.5905m-1.62995.0792c-.01948-.40071-.08575-.75934-.198834-1.07592-.10965-.32034-.263955-.59146-.4629-.8134-.198956-.22192-.440401-.38749-.724336-.49673-.28051-.11302-.603072-.16067-.967685-.14296-.371842.0181-.695483.0971-.970926.23716-.272015.13625-.49627.32446-.672764.56462-.176499.24017-.303785.52499-.381858.85444-.07826.32587-.107636.68916-.08817 1.08987.0193.39712.08394.75945.193945 1.08702.113432.32378.2698.60024.469104.82939.199299.22914.441182.40374.725652.52381.284462.12006.609004.17124.973627.15352.389882-.0189.722375-.10206.997475-.2493.274915-.15087.496838-.34981.66577-.59686.172355-.25081.293874-.54259.36456-.87532.07049-.33633.09628-.69945.07733-1.08934m-11.57996 2.80234c.299694.0133.559698-.0169.780015-.0905.224077-.077.418582-.18053.583515-.31073.168532-.13004.30898-.27942.421343-.44812.115962-.16854.212151-.33976.288565-.51367l1.368805.58676c-.124046.26948-.282147.53205-.474305.78767-.192172.25563-.42812.47857-.707842.66883-.279736.19027-.61015.34032-.991243.45013-.377335.10634-.818757.14841-1.324268.12612-.660785-.0292-1.228801-.15188-1.704051-.3682-.475094-.21994-.863793-.51203-1.166098-.8763-.298538-.36771-.51477-.79691-.648697-1.28762-.130318-.49054-.182817-1.02287-.157497-1.59698.02627-.59579.125826-1.13046.29866-1.60402.176443-.47339.427336-.87113.752677-1.19325.325497-.32572.728737-.56842 1.20972-.72811.484746-.16313 1.048484-.23052 1.691215-.20219.49829.022.931085.0935 1.298387.21465.370902.12127.687542.28357.949922.48688.266135.19988.481939.43369.647412.70147.169227.26433.297549.55399.384967.86898l-1.425182.32245c-.04339-.16471-.114179-.3234-.212357-.47606-.09804-.15627-.225741-.29577-.383126-.41848-.153787-.12255-.33749-.22291-.551108-.30107-.21347-.0818-.457413-.1287-.731831-.14081-.386364-.017-.721345.0315-1.004949.14561-.28345.1105-.52054.27734-.71127.50046-.187125.2233-.331181.49552-.43217.81667-.09723.31771-.154671.67696-.172344 1.07775-.01752.39719.0079.76372.07632 1.09958.07217.3324.193267.62175.363301.86802.170029.24628.392921.44243.668676.58845.279361.14618.617637.22803 1.014832.24554" font-size="9.86787987" font-style="normal" font-variant="normal" font-weight="700" font-stretch="normal" text-anchor="middle" fill="#23365d" fill-opacity="1" stroke="none" font-family="Liberation Sans"/>
</svg>
