<svg xmlns="http://www.w3.org/2000/svg" version="1.1" id="Layer_2" x="0" y="0" viewBox="0 0 457.37695 460.37534" xml:space="preserve">
  <path id="line3" fill="none" stroke="#ce1126" stroke-width="6.88660002" stroke-opacity="1" d="M229.76234 97.776123V395.83508"/>
  <path d="M183.63135 444.62609s-15.5 11.852-18.052 12.218c-2.552.365.365 3.1.365 3.1s16.593-.182 17.687.365c1.094.548 18.599-12.948 18.599-12.948s-14.405-5.289-18.599-2.735z" id="path5" fill="#07a64f" stroke="none"/>
  <path d="M275.89235 444.62609s15.502 11.852 18.053 12.218c2.554.365-.365 3.1-.365 3.1s-16.594-.182-17.688.365c-1.094.548-18.598-12.948-18.598-12.948s14.403-5.289 18.598-2.735z" id="path7" fill="#07a64f" stroke="none"/>
  <path d="M268.72835 67.801133c79.897 16.79 139.63 84.119957 139.63 164.624957 0 93.144-79.96 168.65-178.596 168.65-98.637 0-178.597004-75.506-178.597004-168.65 0-80.467 59.678004-147.772957 139.519004-164.601957" id="path9" fill="none" stroke="#ce1126" stroke-width="6.88660002" stroke-linecap="round" stroke-linejoin="round" stroke-opacity="1"/>
  <ellipse cx="236.278" cy="236.91499" rx="142.80499" ry="137.972" id="ellipse11" transform="translate(-6.5156633 -1.1638709)" fill="none" stroke="#ce1126" stroke-width="6.88660002" stroke-opacity="1"/>
  <path id="line13" fill="none" stroke="#ce1126" stroke-width="6.88660002" stroke-opacity="1" d="M51.165363 230.91812H408.35834"/>
  <path id="line15" fill="none" stroke="#ce1126" stroke-width="6.88660002" stroke-opacity="1" d="M342.89136 102.94112L113.91134 361.76309"/>
  <path id="line17" fill="none" stroke="#ce1126" stroke-width="6.88660002" stroke-opacity="1" d="M360.10733 347.41608L100.13834 116.14114"/>
  <path d="M229.45035 117.98609c20.922-.317 43.986 9.437 59.544 10.51 15.556 1.074 36.998-10.276 36.998-10.276l34.654 28.098s-30.908 32.782-20.605 75.866 57.133 110.52-51.513 145.175c-45.895 13.113-58.914 33.718-58.914 33.718h-.018s-13.02-20.604-58.914-33.718c-108.646004-34.655-61.816-102.091-51.514-145.175 10.303-43.084-20.60501-75.866-20.60501-75.866l34.65401-28.098s21.442 11.35 36.999 10.276c15.557-1.074 38.623-10.828 59.545-10.51h-.311z" id="path19" fill="#fff" stroke="#0b295e" stroke-width="6.88660002" stroke-opacity="1"/>
  <path id="polygon21" fill="none" stroke="#ce1126" stroke-width="3.94370008" stroke-opacity="1" d="M221.2273367 45.3235321v39.024h18.364v-39.024h26.05v-15.782h-26.05v-22.668h-18.364v22.668h-26.048v15.782z"/>
  <g id="g23" transform="translate(-6.5156633 -1.1638709)" fill="#07a64f" stroke="none">
    <path d="M112.74 402.686c-7.035-4.221-28.334-47.513-28.334-47.513s36.399 25.063 39.886 47.948c0 0-10.461.22-11.552-.435z" id="path25"/>
    <path d="M100.316 385.467s-28.77-6.321-33.783-11.551c0 0 3.488 18.745 42.284 30.731 0 0 11.115 1.744 4.359-7.629-6.757-9.372-6.321-9.589-12.86-11.551z" id="path27"/>
    <path d="M54.111 313.761s7.191 15.04 6.974 20.707c-.217 5.667 1.962 11.986 1.962 11.986s-29.642-14.603-34-21.142c0 0 9.155 22.017 32.693 33.349 0 0 16.128 11.114 18.526 13.075 0 0 1.961-36.616-26.155-57.975z" id="path29"/>
    <path d="M37.982 267.337s-3.27 18.961-.872 28.333c0 0-22.668-13.078-27.898-25.064 0 0 0 18.963 22.014 41.194s17.218 17.653 17.218 17.653 1.308-32.693 1.09-37.488c-.219-4.795-5.013-18.089-11.552-24.628z" id="path31"/>
    <path d="M8.558 208.488s6.483 19.125 8.064 21.359c1.581 2.234 5.013 14.166 5.013 14.166s5.014-9.587 8.064-13.73c3.051-4.142 6.102-10.025 6.102-12.641 0 0 4.143 20.924-.871 34.872-5.014 13.948-7.847 27.244-7.847 27.244S7.467 250.99 6.814 237.694c-.653-13.295 0-23.321 1.744-29.206z" id="path33"/>
    <path d="M31.881 150.73s1.962 31.603 0 35.309c0 0 20.488-14.385 21.142-17.436 0 0-1.961 28.99-21.142 44.246 0 0-6.102 8.064-5.884 12.423 0 0-20.27-32.042 5.884-74.542z" id="path35"/>
    <path d="M61.959 105.614s-7.411 25.938-7.411 30.515c0 0 20.271-3.924 23.758-8.937 0 0-12.205 21.36-27.026 31.168s-14.167 15.692-14.167 15.692-7.411-45.989 24.846-68.438z" id="path37"/>
    <path d="M61.305 127.628s6.757-39.886 49.258-44.681c0 0-15.041 33.565-49.258 44.681z" id="path39"/>
  </g>
  <g id="g41" transform="translate(-6.5156633 -1.1638709)" fill="#07a64f" stroke="none">
    <path d="M357.667 402.686c7.034-4.221 28.335-47.513 28.335-47.513s-36.398 25.063-39.887 47.948c.001 0 10.463.22 11.552-.435z" id="path43"/>
    <path d="M370.09 385.467s28.771-6.321 33.783-11.551c0 0-3.488 18.745-42.283 30.731 0 0-11.114 1.744-4.358-7.629 6.757-9.372 6.319-9.589 12.858-11.551z" id="path45"/>
    <path d="M416.297 313.761s-7.191 15.04-6.975 20.707c.218 5.667-1.961 11.986-1.961 11.986s29.64-14.603 34-21.142c0 0-9.155 22.017-32.693 33.349 0 0-16.129 11.114-18.525 13.075 0 0-1.962-36.616 26.154-57.975z" id="path47"/>
    <path d="M432.426 267.337s3.269 18.961.872 28.333c0 0 22.669-13.078 27.898-25.064 0 0 0 18.963-22.014 41.194s-17.219 17.653-17.219 17.653-1.31-32.693-1.09-37.488c.219-4.795 5.014-18.089 11.553-24.628z" id="path49"/>
    <path d="M461.849 208.488s-6.483 19.125-8.063 21.359c-1.583 2.234-5.013 14.166-5.013 14.166s-5.015-9.587-8.065-13.73c-3.051-4.142-6.103-10.025-6.103-12.641 0 0-4.143 20.924.872 34.872 5.013 13.948 7.847 27.244 7.847 27.244s19.617-28.769 20.27-42.064c.654-13.295-.001-23.321-1.745-29.206z" id="path51"/>
    <path d="M438.526 150.73s-1.961 31.603 0 35.309c0 0-20.486-14.385-21.142-17.436 0 0 1.962 28.99 21.142 44.246 0 0 6.103 8.064 5.885 12.423 0 0 20.269-32.042-5.885-74.542z" id="path53"/>
    <path d="M408.449 105.614s7.411 25.938 7.411 30.515c0 0-20.271-3.924-23.758-8.937 0 0 12.204 21.36 27.026 31.168 14.82 9.808 14.168 15.692 14.168 15.692s7.41-45.989-24.847-68.438z" id="path55"/>
    <path d="M409.104 127.628s-6.757-39.886-49.258-44.681c0 0 15.04 33.565 49.258 44.681z" id="path57"/>
  </g>
  <path id="line59" fill="none" stroke="#ce1126" stroke-width="2.29550004" stroke-linecap="round" stroke-linejoin="round" stroke-opacity="1" d="M204.17435 1.2275336l9.65701 12.8309884"/>
  <path id="line61" fill="none" stroke="#ce1126" stroke-width="2.29550004" stroke-linecap="round" stroke-linejoin="round" stroke-opacity="1" d="M215.15337 22.128517L197.42834 5.9895363"/>
  <path id="line63" fill="none" stroke="#ce1126" stroke-width="2.29550004" stroke-linecap="round" stroke-linejoin="round" stroke-opacity="1" d="M207.61334 22.656517l-12.83-8.861991"/>
  <path id="line65" fill="none" stroke="#ce1126" stroke-width="2.29550004" stroke-linecap="round" stroke-linejoin="round" stroke-opacity="1" d="M208.01035 51.757584l-14.153 9.656002"/>
  <path id="line67" fill="none" stroke="#ce1126" stroke-width="2.29550004" stroke-linecap="round" stroke-linejoin="round" stroke-opacity="1" d="M214.35936 52.153584l-16.27002 16.534984"/>
  <path id="line69" fill="none" stroke="#ce1126" stroke-width="2.29550004" stroke-linecap="round" stroke-linejoin="round" stroke-opacity="1" d="M214.09535 60.09058l-9.656 13.888988"/>
  <path id="line71" fill="none" stroke="#ce1126" stroke-width="2.29550004" stroke-linecap="round" stroke-linejoin="round" stroke-opacity="1" d="M255.34933 1.2275336l-9.65599 12.8309884"/>
  <path id="line73" fill="none" stroke="#ce1126" stroke-width="2.29550004" stroke-linecap="round" stroke-linejoin="round" stroke-opacity="1" d="M244.37134 22.128517l17.72497-16.1389807"/>
  <path id="line75" fill="none" stroke="#ce1126" stroke-width="2.29550004" stroke-linecap="round" stroke-linejoin="round" stroke-opacity="1" d="M251.90933 22.656517l12.83197-8.861991"/>
  <path id="line77" fill="none" stroke="#ce1126" stroke-width="2.29550004" stroke-linecap="round" stroke-linejoin="round" stroke-opacity="1" d="M251.51334 51.757584l14.15399 9.656002"/>
  <path id="line79" fill="none" stroke="#ce1126" stroke-width="2.29550004" stroke-linecap="round" stroke-linejoin="round" stroke-opacity="1" d="M245.16434 52.153584l16.27096 16.534984"/>
  <path id="line81" fill="none" stroke="#ce1126" stroke-width="2.29550004" stroke-linecap="round" stroke-linejoin="round" stroke-opacity="1" d="M245.42935 60.09058l9.655 13.888988"/>
  <g id="g83" transform="translate(-6.5156633 -1.1638709)">
    <g id="g85">
      <g id="g87">
        <g id="g89">
          <path d="M435.025 371.004c.307.201.592.352.876.502l-.094.208c10.583 4.757 19.292 10.387 19.021 12.289-.028.191-.596.751-2.864 1.065-4.136.571-10.14.767-16.492.975-1.574.052-3.047.105-4.468.159.88-3.324 3.328-12.578 4.021-15.198zm-22.07 24.08l2.213 1.441c5.1 3.31 11.448 7.43 10.953 9.285-.211.792-2.201 2.708-16.104 3.466-.896.05-1.791.054-2.686.076l4.146-15.367c.481.413.998.786 1.478 1.099zM65.224 409.353c-.896-.022-1.789-.026-2.686-.076-13.903-.758-15.894-2.674-16.104-3.463-.495-1.858 5.852-5.977 10.953-9.288l2.215-1.441c.48-.313.997-.686 1.475-1.096l4.147 15.364zm-47.497-25.35c-.273-1.902 8.437-7.529 19.02-12.289l-.093-.208c.284-.15.569-.301.876-.502.693 2.62 3.141 11.874 4.02 15.198-1.42-.054-2.892-.107-4.467-.159-6.354-.208-12.355-.403-16.492-.975-2.269-.314-2.836-.874-2.864-1.065zm18.923 39.28c-1.104-.951-1.664-1.998-1.664-3.114 0-5.046-11.201-25.222-15.615-32.976.359.067.684.116.905.148 4.256.589 10.315.786 16.731.995 8.014.262 22.93.751 23.463 2.807 0 .004-.041.654-2.127 2.021l-2.207 1.435c-7.457 4.841-12.846 8.335-11.922 11.803.082.306.222.592.398.865l-.249.11c.069.159 4.363 9.996 7.718 19.297-6.046.527-12.453-.822-15.431-3.391zm377.614 17.385c-.031.554-.332 1.056-.922 1.54-5.817 4.779-32.076 3.434-44.843 1.651l-5.421-.791c-14.277-2.125-38.172-5.678-54.802-2.706l-9.429 1.733c-18.875 3.506-44.725 8.31-62.562 8.166-18.521-.147-45.201-5.017-64.682-8.569l-7.327-1.33c-16.629-2.972-40.521.581-54.8 2.706l-5.423.791c-12.766 1.782-39.025 3.128-44.844-1.651-.587-.484-.889-.986-.92-1.54-.374-6.616-7.561-24.185-10.55-31.241 2.883 1.085 7.606 1.758 14.671 2.141 13.36.727 26.333-1.426 40.065-3.703 15.553-2.58 31.636-5.248 50.731-4.369 18.724.863 34.457 3.701 48.338 6.205 13.053 2.354 24.326 4.388 34.754 4.172 9.811-.204 20.322-2.024 32.495-4.132 14.443-2.499 30.816-5.335 50.551-6.245 19.095-.879 35.177 1.789 50.728 4.369 13.735 2.277 26.706 4.43 40.066 3.703 7.064-.383 11.79-1.056 14.673-2.141-2.988 7.056-10.175 24.625-10.547 31.241zm23.303-20.499c0 1.116-.561 2.163-1.663 3.114-2.981 2.568-9.387 3.918-15.433 3.392 3.356-9.301 7.649-19.138 7.719-19.297l-.249-.11c.175-.273.316-.56.396-.865.926-3.468-4.463-6.962-11.921-11.803l-2.206-1.435c-2.087-1.367-2.125-2.018-2.125-2.024.533-2.053 15.447-2.542 23.462-2.804 6.413-.209 12.475-.406 16.729-.995.222-.032.545-.081.906-.148-4.416 7.753-15.615 27.929-15.615 32.975z" id="path91" fill="#fff" stroke="none"/>
        </g>
      </g>
    </g>
  </g>
  <g id="g93" transform="translate(-6.5156633 -1.1638709)" fill="none" stroke-width="2.29999995" stroke-miterlimit="4" stroke-dasharray="none">
    <path d="M455.774 384.983s-17.06 29.397-17.06 35.186c0 5.789-10.967 8.835-20.105 7.463" id="path95" stroke="#000" stroke-opacity="1"/>
    <path d="M436.735 370.665s-2.284-1.069-2.284-1.981l-4.876 18.432" id="path97" stroke="#010101"/>
    <g id="g99">
      <path id="line101" stroke="#010101" d="M61.563 391.383l5.178997 19.19101"/>
      <g id="g103">
        <path d="M16.78 384.983s17.06 29.397 17.06 35.186c0 5.789 10.966 8.835 20.106 7.463" id="path105" stroke="#000" stroke-opacity="1"/>
        <path d="M35.82 370.665s2.284-1.069 2.284-1.981l4.875 18.432" id="path107" stroke="#010101"/>
        <path d="M436.278 370.667s30.162 13.559 15.842 15.538c-14.317 1.979-51.333-.458-38.537 7.92 12.796 8.377 24.524 14.772-3.504 16.297-28.028 1.525-54.38-9.749-90.785-8.072-36.406 1.677-61.69 9.934-83.016 10.375-21.326.441-46.61-8.698-83.016-10.375-36.406-1.677-62.758 9.597-90.787 8.072-28.029-1.525-16.298-7.92-3.503-16.297 12.796-8.378-24.219-5.94-38.539-7.92-14.319-1.979 15.842-15.538 15.842-15.538" id="path109" stroke="#000" stroke-opacity="1"/>
        <path d="M427.138 406.918s-11.273 25.74-11.729 33.814c-.457 8.075-33.969 6.093-47.069 4.264-13.099-1.829-41.125-6.853-59.861-3.504-18.736 3.35-51.028 10.088-72.201 9.918-21.173-.171-53.466-6.568-72.202-9.918-18.736-3.349-46.762 1.675-59.862 3.504-13.1 1.829-46.612 3.812-47.068-4.264-.457-8.074-11.73-33.814-11.73-33.814" id="path111" stroke="#000" stroke-opacity="1"/>
      </g>
      <path id="line113" stroke="#010101" d="M410.991 391.383l-5.17801 19.19101"/>
    </g>
  </g>
  <path d="M141.64135 177.59009h29.223c-7.308 0-14.617-6.336-14.617-6.336s-7.302 6.336-14.606 6.336zm-11.443 0h11.443c-6.306 0-12.601-4.708-14.213-6.002l2.77 6.002zm40.666 0h29.229c-7.307 0-14.615-6.336-14.615-6.336s-7.307 6.336-14.614 6.336zm29.229 0h29.229c-7.306 0-14.612-6.336-14.612-6.336s-7.307 6.336-14.617 6.336zm86.472 0h29.224c-7.309 0-14.616-6.336-14.616-6.336s-7.305 6.336-14.608 6.336zm29.223 0h12.388l2.004-6.151c-1.229 1.01-7.802 6.151-14.392 6.151zm-57.835-.032c-7.104-.342-14.006-6.304-14.006-6.304s-7.313 6.336-14.625 6.336h57.243c-7.308 0-14.62-6.336-14.62-6.336s-6.896 5.962-13.992 6.304z" id="path115" fill="#07a64f"/>
  <path d="M327.10935 185.27309c-7.306 0-10.675-6.336-10.675-6.336s-7.309 6.336-14.614 6.336c-7.308 0-14.616-6.336-14.616-6.336s-7.304 6.336-14.606 6.336c-7.309 0-14.621-6.336-14.621-6.336s-7.308 6.336-14.616 6.336h1.253c-7.318 0-14.634-6.336-14.634-6.336s-7.313 6.336-14.625 6.336c-7.306 0-14.612-6.336-14.612-6.336s-7.306 6.336-14.616 6.336c-7.307 0-14.615-6.336-14.615-6.336s-7.308 6.336-14.614 6.336c-7.308 0-14.617-6.336-14.617-6.336s-2.987 6.336-10.291 6.336h195.119z" id="path117" fill="#07a64f"/>
  <path d="M327.10935 200.76709c-7.306 0-10.675-6.336-10.675-6.336s-7.309 6.336-14.614 6.336c-7.308 0-14.616-6.336-14.616-6.336s-7.304 6.336-14.606 6.336c-7.309 0-14.621-6.336-14.621-6.336s-7.308 6.336-14.616 6.336h1.253c-7.318 0-14.634-6.336-14.634-6.336s-7.313 6.336-14.625 6.336c-7.306 0-14.612-6.336-14.612-6.336s-7.306 6.336-14.616 6.336c-7.307 0-14.615-6.336-14.615-6.336s-7.308 6.336-14.614 6.336c-7.308 0-14.617-6.336-14.617-6.336s-2.987 6.336-10.291 6.336h195.119z" id="path119" fill="#07a64f"/>
  <path d="M142.33435 192.22409h29.113c-7.28 0-14.563-6.336-14.563-6.336s-7.275 6.336-14.55 6.336zm-6.826-.287l6.826.287c-6.283 0-12.554-4.708-9.587-6.289l2.761 6.002zm35.939.287h29.12c-7.28 0-14.56-6.336-14.56-6.336s-7.281 6.336-14.56 6.336zm29.12 0h29.12c-7.279 0-14.559-6.336-14.559-6.336s-7.277 6.336-14.561 6.336zm86.148 0h29.115c-7.281 0-14.563-6.336-14.563-6.336s-7.276 6.336-14.552 6.336zm29.115 0h8.624l1.997-6.151c2.493 1.01-4.054 6.151-10.621 6.151zm-57.619-.033c-7.077-.342-13.955-6.304-13.955-6.304s-7.283 6.336-14.568 6.336h57.027c-7.279 0-14.564-6.336-14.564-6.336s-6.872 5.963-13.94 6.304z" id="path121" fill="#07a64f"/>
  <path id="line123" fill="none" stroke="#07a64f" stroke-width="1.14779997" d="M130.84036 178.12012h196.26898"/>
  <path id="line125" fill="none" stroke="#07a64f" stroke-width="1.14779997" d="M130.84036 185.00713h196.26898"/>
  <path id="line127" fill="none" stroke="#07a64f" stroke-width="1.12950003" d="M133.93335 191.60712h190.08197"/>
  <path id="line129" fill="none" stroke="#07a64f" stroke-width="1.12950003" d="M133.93335 200.21512h190.08197"/>
  <path d="M263.01335 137.35609c8.918 2.237 17.34 4.35 25.033 4.881 12.662.874 27.016-4.095 35.955-7.899 5.492 4.454 10.259 8.317 17.641 14.302-7.687 11.741-17.492 31.464-17.492 55.702 0 6.696.749 13.735 2.495 21.045 1.84 7.688 4.593 15.652 7.508 24.084 5.438 15.742 11.004 31.844 11.004 46.745 0 7.202-1.3 14.123-4.539 20.588-7.714 15.388-26.646 27.981-56.274 37.433l.401-.123c-28.06 8.019-45.225 18.837-55.139 27.181-9.915-8.344-27.079-19.162-55.139-27.181l.401.123c-29.629-9.451-48.562-22.045-56.274-37.433-3.24-6.465-4.541-13.386-4.541-20.588 0-14.903 5.565-31.003 11.006-46.745 2.914-8.433 5.667-16.396 7.505-24.084 1.749-7.311 2.496-14.351 2.496-21.045 0-24.238-9.805-43.96-17.492-55.702 7.382-5.984 12.148-9.849 17.64-14.302 8.94 3.804 23.295 8.773 35.956 7.899 7.693-.531 16.116-2.644 25.034-4.881 11.245-2.82 22.87-5.735 33.252-5.599h.312c10.381-.137 22.007 2.778 33.251 5.599z" id="path131" fill="none" stroke="#0b295e" stroke-width="3.44330001" stroke-opacity="1"/>
  <g id="g133" transform="translate(-6.5156633 -1.1638709)">
    <path d="M238.457 165.319s9.185-5.931 18.174 1.148c0 0-5.741-8.035-13.393-7.843 0 0 6.887-7.459 19.321-1.53 0 0-6.889-8.991-20.469-4.974 0 0 10.903-6.504 17.79-2.87 0 0-8.034-5.548-13.39-3.443 0 0 1.15-5.164 6.122-7.651 0 0-12.433 1.912-15.495 6.503 0 0-2.104-4.783-8.035-6.887 0 0 3.061 6.122 1.914 8.992 0 0-10.522-10.33-20.278-5.356 0 0-2.678 2.295-2.678 5.165 0 0 7.651-4.208 11.86.574 0 0-9.564-1.148-14.921 8.608 0 0 13.965-5.738 23.147.192 0 0-13.774.19-15.304 10.138 0 0 12.509-6.482 17.982-1.339 0 0 4.019 4.59 7.653.573z" id="path135" fill="#07a64f" stroke="none"/>
    <path id="rect137" fill="#995037" stroke="none" d="M232.511 167.44901h6.974v31.287001h-6.974z"/>
    <path d="M239.794 162.642c0 2.454-3.251 4.442-3.251 4.442s-3.252-1.988-3.252-4.442 1.456-4.442 3.252-4.442c1.796 0 3.251 1.988 3.251 4.442z" id="path139" fill="#f6c906" fill-opacity="1" stroke="#754438" stroke-width=".80339998"/>
    <path d="M235.214 170.104c-1.165 2.16-4.97 2.367-4.97 2.367s-1.919-3.294-.754-5.454c1.165-2.159 3.39-3.218 4.971-2.366 1.581.853 1.917 3.293.753 5.453z" id="path141" fill="#f6c906" fill-opacity="1" stroke="#754438" stroke-width=".80339998"/>
    <path d="M242.191 165.635c1.955 1.483 1.576 5.275 1.576 5.275s-3.551 1.39-5.506-.093c-1.955-1.482-2.659-3.844-1.574-5.275 1.086-1.432 3.549-1.39 5.504.093z" id="path143" fill="#f6c906" fill-opacity="1" stroke="#754438" stroke-width=".80339998"/>
  </g>
  <path d="M284.74435 354.11409c-.104.028-.199.061-.305.089-.031.012-.063.022-.097.034l.402-.123zm49.408-104.642c-2.915-8.433-5.668-16.396-7.508-24.084-1.233-5.163-1.946-10.181-2.273-15.047l-.448-.643c-72.789 10.309-94.161-15.476-94.161-15.476-41.719 32.13-94.426 15.476-94.426 15.476-.139-.04-.292-.057-.435-.089-.299 5.091-1.04 10.36-2.336 15.779-1.838 7.688-4.591 15.652-7.505 24.084-5.44 15.742-11.006 31.842-11.006 46.745 0 7.202 1.3 14.123 4.541 20.588 7.704 15.369 26.605 27.952 56.177 37.398 27.876 8.01 44.957 18.779 54.835 27.092 9.878-8.313 26.96-19.082 54.834-27.092 29.573-9.446 48.473-22.029 56.178-37.398 3.239-6.465 4.539-13.386 4.539-20.588-.002-14.902-5.567-31.003-11.006-46.745zm-159.284 104.765c-.034-.012-.064-.022-.098-.034-.103-.028-.199-.061-.304-.089l.402.123z" id="path145" fill="#0b295e" fill-opacity="1" stroke="none"/>
  <path id="polygon147" transform="translate(-6.5156633 -1.1638709)" fill="#fff" d="M169.396 276.156l-14.881-10.962 18.313.293 5.548-17.736 5.657 17.705 18.307-.401-14.814 11.048 5.764 17.09-14.81-10.477-14.751 10.564z"/>
  <path id="polygon149" transform="translate(-6.5156633 -1.1638709)" fill="#fff" d="M227.311 231.584l-14.881-10.962 18.313.294 5.548-17.737 5.656 17.705 18.308-.401-14.813 11.047 5.764 17.091-14.811-10.478-14.75 10.565z"/>
  <path id="polygon151" transform="translate(-6.5156633 -1.1638709)" fill="#fff" d="M227.311 347.414l-14.881-10.962 18.313.293 5.548-17.736 5.656 17.705 18.308-.401-14.813 11.047 5.764 17.091-14.811-10.477-14.75 10.564z"/>
  <path id="polygon153" transform="translate(-6.5156633 -1.1638709)" fill="#fff" d="M294.323 262.513l-14.881-10.962 18.312.294 5.549-17.737 5.655 17.705 18.309-.401-14.813 11.047 5.763 17.091-14.811-10.478-14.75 10.566z"/>
  <path id="polygon155" transform="translate(-6.5156633 -1.1638709)" fill="#fff" d="M258.195 299.511l-11.787-8.685 14.506.233 4.394-14.051 4.481 14.026 14.502-.318-11.736 8.752 4.569 13.538-11.733-8.299-11.686 8.368z"/>
  <g id="g157" transform="translate(-6.5156633 -1.1638709)" fill="#ce1126" fill-opacity="1" stroke="none">
    <path d="M66.369 417.421l11.91.635-.215 4.044-6.931-.37-.184 3.438 6.52.348-.214 4.018-6.52-.348-.375 7.041-4.978-.265.987-18.541z" id="path159"/>
    <path d="M83.766 432.03l-.828 4.345-5.144.262 4.448-18.816 6.602-.337 6.474 18.262-5.365.273-1.401-4.232-4.786.243zm3.912-3.893l-1.022-3.287c-.328-1.031-.763-2.526-1.095-3.613l-.055.005c-.218 1.113-.416 2.667-.638 3.728l-.629 3.343 3.439-.176z" id="path161"/>
    <path d="M99.5 415.957c-.621 2.923-1.543 5.629-2.73 8.198l-2.93.571c.639-2.757 1.068-5.409 1.197-8.029l4.463-.74z" id="path163"/>
    <path d="M106.248 429.849l-.406 4.403-5.096.755 2.624-19.157 6.541-.967 8.194 17.556-5.314.786-1.801-4.077-4.742.701zm3.521-4.252l-1.333-3.172c-.426-.996-1.002-2.441-1.436-3.491l-.055.007c-.111 1.13-.157 2.697-.277 3.773l-.306 3.387 3.407-.504z" id="path165"/>
    <path d="M123.676 431.766l-7.874-17.817 5.423-.592 2.736 7.044c.826 1.988 1.54 3.961 2.238 6.295l.055-.005c.218-2.324.504-4.518.837-6.548l1.198-7.558 5.258-.573-4.039 19.117-5.832.637z" id="path167"/>
    <path d="M141.374 425.967l-.95 4.319-5.15.114 4.981-18.683 6.609-.147 5.952 18.436-5.37.121-1.281-4.269-4.791.109zm4.021-3.784l-.928-3.313c-.299-1.04-.691-2.547-.992-3.641h-.055c-.25 1.107-.491 2.656-.743 3.71l-.724 3.322 3.442-.078z" id="path169"/>
    <path d="M168.349 424.761l-6.574-1.105-.567 3.369 7.362 1.237-.676 4.02-12.278-2.064 3.078-18.309 11.898 2-.671 3.994-6.98-1.174-.498 2.961 6.574 1.105-.668 3.966z" id="path171"/>
    <path d="M187.81092 416.855l-3.099 18.306-4.917-.832 3.099-18.306 4.917.832z" id="path175"/>
    <path d="M199.0184 418.81326l4.939.685-1.978 14.271 7.067.979-.572 4.12-12.006-1.663 2.55-18.392z" id="path177"/>
    <path d="M223.6064 432.80326l-6.639-.599-.307 3.402 7.435.668-.365 4.063-12.4-1.119 1.665-18.489 12.017 1.08-.363 4.033-7.05-.635-.27 2.991 6.64.598-.363 4.007z" id="path179"/>
    <path d="M241.263 436.76l-.749 4.36-5.138.354 4.104-18.894 6.595-.457 6.804 18.14-5.357.372-1.478-4.205-4.781.33zm3.84-3.965l-1.083-3.267c-.347-1.024-.809-2.511-1.158-3.591l-.057.002c-.197 1.118-.367 2.677-.569 3.739l-.569 3.354 3.436-.237z" id="path181"/>
    <path d="M255.025 425.339l-4.698.614-.541-4.123 14.422-1.892.54 4.125-4.779.625 1.874 14.284-4.945.65-1.873-14.283z" id="path183"/>
    <path d="M271.103 418.779l1.757 10.377c.471 2.769 1.688 4.184 3.616 3.855 1.955-.329 2.663-1.93 2.17-4.837l-1.758-10.375 4.917-.832 1.71 10.102c.957 5.649-1.383 8.98-6.517 9.85-5.023.853-8.124-1.445-9.122-7.339l-1.689-9.967 4.916-.834z" id="path185"/>
    <path d="M291.928 429.585l-.244 4.416-5.064.941 1.919-19.241 6.499-1.208 8.835 17.243-5.282.982-1.947-4.009-4.716.876zm3.363-4.379l-1.447-3.122c-.462-.978-1.092-2.401-1.563-3.435l-.057.009c-.069 1.135-.059 2.701-.137 3.779l-.182 3.396 3.386-.627z" id="path187"/>
    <path d="M312.701 425.363c1.143.554 3.001 1.09 4.846 1.049 1.706-.035 2.521-.634 2.5-1.569-.021-.91-.858-1.414-2.966-2.084-3.165-1.031-5.269-2.722-5.328-5.477-.072-3.275 2.625-5.871 7.308-5.975 2.23-.049 3.809.329 5.06.854l-.96 3.987c-.805-.341-2.194-.834-4.066-.791-1.515.034-2.329.601-2.311 1.428.02.938 1.02 1.301 3.38 2.13 3.36 1.139 4.914 2.896 4.971 5.483.071 3.194-2.374 6.003-7.8 6.124-2.23.05-4.42-.509-5.479-1.037l.845-4.122z" id="path189"/>
    <path d="M333.576 426.354l-1.413 4.191-5.133-.443 6.98-18.032 6.586.569 3.916 18.976-5.353-.464-.81-4.383-4.773-.414zm4.407-3.322l-.563-3.395c-.184-1.066-.41-2.606-.589-3.73l-.057-.004c-.37 1.073-.775 2.587-1.141 3.606l-1.081 3.224 3.431.299z" id="path191"/>
    <path d="M363.812 427.727c.253-2.107.558-4.566 1.006-7.425l-.083-.014c-.928 2.343-2.094 4.983-2.99 6.911l-2.767 6.138-3.842-.564-.619-6.604c-.17-2.058-.343-4.869-.383-7.436l-.054-.007c-.489 2.571-1 5.281-1.391 7.368l-1.234 6.528-4.524-.664 3.813-18.205 6.622.971.502 5.114c.19 2.116.377 4.648.431 6.94l.107.016c.848-2.159 1.827-4.661 2.656-6.515l2.083-4.706 6.485.951-1.769 18.505-4.798-.703.749-6.599z" id="path193"/>
    <path d="M389.264 426.886c-.289 5.97-4.051 9.595-9.773 9.316-5.75-.28-8.705-4.755-8.454-9.899.263-5.392 4.02-9.512 9.687-9.236 5.971.288 8.782 4.867 8.54 9.819zm-12.969-.41c-.168 3.468 1.24 5.687 3.634 5.804 2.395.116 3.912-2.154 4.073-5.483.155-3.192-1.158-5.683-3.553-5.8-2.365-.115-3.988 2.066-4.154 5.479z" id="path195"/>
    <path d="M396.26 431.983l-.986 4.311-5.151.074 5.139-18.641 6.61-.094 5.797 18.487-5.371.076-1.244-4.281-4.794.068zm4.051-3.748l-.898-3.32c-.291-1.043-.67-2.554-.962-3.652l-.054.003c-.26 1.104-.514 2.651-.775 3.701l-.751 3.317 3.44-.049z" id="path197"/>
  </g>
  <g id="g199" transform="translate(-6.5156633 -4.2634679)">
    <path d="M242.665 14.58v22.668h26.049v8.896h-26.049v39.024h-11.478V46.144h-26.048v-8.896h26.048V14.58h11.478z" id="path201" fill="#0b295e" fill-opacity="1" stroke="#fff" stroke-width="2.29550004"/>
  </g>
</svg>
