<svg xmlns="http://www.w3.org/2000/svg" version="1.1" id="svg2" x="0" y="0" xml:space="preserve" viewBox="0 0 810 872.811">
  <style type="text/css" id="style13624">
    .st11{fill:#adc8db;stroke:#505050}.st12{fill:#c9dbe7}.st13{fill:#e4edf3}.st14{fill:#f2f7fa}.st15{fill:#d8ad00;stroke:#9c6000;stroke-miterlimit:10}.st16{fill:#fc0}.st17{fill:#ffd429}.st18{fill:#ffdc51}.st19{fill:none;stroke:#9c6000;stroke-linecap:round}.st20{fill:#9c6000}.st22{fill:none;stroke:#014721;stroke-linecap:round;stroke-linejoin:round;stroke-miterlimit:10}
  </style>
  <g id="g4903" transform="matrix(.6533 0 0 .6533 4.8531935 3.4402411)">
    <g id="g4598">
      <g id="g4800">
        <g id="g4567">
          <path id="path2215" d="M603.9 267.3c-4.1 0-10.1 3-14.8 7.3-13.4 12.2-29.5 43.7-29.5 43.7l15.9 10.6.9 21.3h-18.6l17.7 18.6v19.5l-21.3.9 20.7 19.4.5 14.6-17.9-.3 17.7 18.6V461l-21.3.9 20.7 19.4.2 24.3-18 .6 17.7 18.6v19.5l-21.3.9 20.7 19.4.5 14.6-17.9-.3 17.7 18.6V617l-21.3.9 20.7 19.4-.3 18-19.3-1.2 18.8 23.8v16.3l-20 1.3 18.8 20.7v20l-20 .6 22.6 25.1.6 20h-20l20 20.7V822l-21.9-1.3 21.3 28.8-.2 23.5h59.8l-.6-23.5 21.3-28.8-21.9 1.3v-19.4l20-20.7h-20l.6-20 22.6-25.1-20-.6v-20l18.8-20.7-20-1.3v-16.3l18.8-23.8-19.3 1.2-.3-18 20.7-19.4-21.3-.9v-19.5l17.7-18.6-17.9.3.5-14.6 20.7-19.4-21.3-.9v-19.5l17.7-18.6-18-.6.2-24.3 20.7-19.4-21.3-.9v-19.5l17.7-18.6-17.9.3.5-14.6 20.7-19.4-21.3-.9v-19.5l17.7-18.6H631l.9-21.3 15.9-10.6s-16.1-31.5-29.5-43.7c-4.4-4.3-10.3-7.3-14.4-7.3z" fill="#1a1113" stroke="#110d0e"/>
          <path id="path4669" d="M604.4 275.9c-14.8 4.8-21 20.8-29.3 32.6-.7 2.9-6.9 7.4-2.3 9.1 5.3 3.3 13.4 6.6 11.5 14.4.4 8.5.7 16.9 1.1 25.4-1.9 1.2-6.7.9-7.4 1.8 5.2 4.9 7.7 12.2 6.2 19.3-.7 5.6 1.4 13.2-1 17.5-2.4 1.1-7.2.6-8.3 1.2 5.7 4.3 10 10.9 9 18.3 1 5.8.8 14.5-6.2 16.3 5.6 5.1 7.9 13.1 6.2 20.4-.2 5.5 1.6 11.7-1.5 16.7-2.6.7-5.3.8-8 .7 5.8 4.5 11.1 11.5 9.2 19.3.1 7.8.2 15.5.2 23.3-2.3 1.2-4.9 2-7.5 2.1 5.7 5 8.8 12.7 7.2 20.2-.7 5.6 1.4 13.2-1 17.5-2.4 1.1-7.2.5-8.3 1.2 5.7 4.3 10 10.9 9 18.3 1 5.8.8 14.5-6.2 16.3 5.6 5.1 7.9 13.1 6.2 20.4-.2 5.5 1.6 11.7-1.5 16.8-2.6.7-5.3.7-8 .6 5.9 4.5 11.2 11.7 9.1 19.5l-.3 18.6c-3.2.3-6.5.3-9.8.1 6.1 6.3 11.7 14.9 9.1 24 .2 4.6 2.6 12.8-3.7 14.5-2 .9-8.6-.6-5.5 2 5.7 5.1 10 12.5 8.2 20.4v18.8c-3.2 1.2-7.8 1.1-10.5 1.4 6.8 6.7 15 14.5 13.3 25.1.2 6.6.4 13.1.6 19.7-3 .7-6.1.8-9.2.6 5.7 4.9 10.9 11.9 9 19.8v20.4c-4.6.6-9.1-.6-13.6-.7 6.5 8.3 15.7 17.7 12.6 29.3-.3 2.5-1.4 8.1 3.3 6.2h40.1c-1-9.3-1.5-20.3 6-27.2 1.6-3 5.4-5.8 6.4-8.3-4.2-.3-11.3 3.4-13.6-1.9 1-10.1-2.3-21.2 2.3-30.7 1.6-2.4 6.1-5.2 6-6.6-5 .5-10-4-8.1-9.3.4-9.8-2-21.8 6.4-29 2.4-2.5 4.8-5 7-7.6-5.3.2-12.5-3.5-10.3-9.7-.2-9.8-2.6-22 6.4-28.9 2-2 4.2-3.8.1-3.6-4.8-.5-9.6-4.5-8-9.8-.4-8.7-1.1-19.2 6.3-25.4.9-1.8 4.5-4.1.7-3.8-5.3-.3-8.7-5.5-7.4-10.5-.7-8.4-2.2-19.7 6.2-25.1 1.8-1.5 3.1-2.4-.1-2.3-4.9-.3-8.2-5.3-6.8-9.9-.1-9.5-2.5-21.8 6.6-28.2-5.2-1.2-8.2-6.9-6.9-11.9-.6-7.8.6-17 7.9-21.4 3.1-2.1-3-.9-4.6-2.5-6.4-3.2-2.3-11.2-3.5-16.7-1-7.7 1-16.2 7.6-20.9-5.7-1.1-9.2-7.2-7.6-12.7.5-8.8-2.3-19.3 3.6-26.8 1.2-1.6 5.4-3.9 5.1-4.8-5.1.4-10.5-4-9-9.3.2-9.5-2.8-21.8 6.2-28.5 0-1.2-4.3-2.1-5.1-4.4-2.8-4.6-.7-10.3-1.1-15.5.1-6.4 4.1-11.7 9.2-15.2-5.5.6-11.7-4-9.5-10 .2-9.2-2.2-20.7 5.9-27.5 2.1-1.4-2.8-1.3-3.5-2.9-6.4-5-1.9-13.9-2.7-20.5.4-5.3-1.3-12.1 4.9-14.3 2.9-1.9 6.3-3.3 8.6-5.9-8.8-14.6-16.5-32.4-32.7-40.1-.4.1-.7.1-.9.2z" fill="#1a1512"/>
          <path d="M629.9 801.5c4.5-4.6 9-9.3 13.5-13.9-4.2-1.3-14.2 2.7-14.7-2.1.8-8.1-.6-16.8 1.7-24.6 5.3-6.2 12.1-13 16.6-18.8-5-.1-10.7.9-15.2-2.2.8-8.2-1.3-16.9 1.1-24.8 4-4.8 10.1-10.4 12.9-14.6-5.1-.2-10.9.6-15.3-2.7 1.1-8.8-2.9-19.6 5.3-26.2 1.3-3.2 11.1-11.1 7-11.2-4 .3-10.7 2-12.7-2.2.7-7.3-1.8-15.3 1-22.2l13.8-12.9c-4.7-1.6-15.7 2.6-15.5-3.6.5-7.6-1.3-15.8 1.1-23.1 2.3-3.4 11.7-10.4 9.8-11.7-3.8.7-10.8 1.2-11.1-4.2.8-6.9-2-16.6 5.5-20.8 2.4-3.5 15.2-10.8 5-9.5-5.4-.3-12.9 1.4-10.5-6.2.5-6.9-1.7-14.9 1.7-21 2.5-3.5 10.6-9.5 10.1-11.6-4.3.7-12.3.9-12.1-5.3.8-8.6-1.3-17.9 1.5-26.1l13.8-12.9c-4.7-1.6-15.7 2.6-15.5-3.6.5-7.6-1.3-15.8 1.1-23.1 2.3-3.4 11.7-10.4 9.8-11.7-3.8.7-10.8 1.2-11.1-4.2.8-6.9-2-16.6 5.5-20.8 2.4-3.5 15.2-10.8 5-9.5-5.4-.3-12.9 1.4-10.5-6.2.5-6.9-1.7-14.9 1.7-21 2-3.2 12.2-10.5 8.9-11.1-4.1.8-12.1 1-11.6-5.1.3-7.5.6-14.9.9-22.4 4.9-3.2 9.7-6.5 14.6-9.7-9.2-15.6-17.4-33.5-33-43.8-2-1.2-4.2-2.2-6.5-2-14.8 3.8-21.9 19.1-29.9 30.6-3 4.9-5.9 9.9-8.6 15 4.9 3.3 9.8 6.5 14.6 9.8.4 9.1.8 18.1 1.1 27.2-4.4 1.2-9.9-.3-13.5.3 4.1 5.1 11.1 9 12.5 15.6v22.3c-3.8 1-15.3-.9-14.5 1.7 4.7 4.7 11.3 8.8 14 14.8-.7 6 2.5 12.8-1.2 18.3-3.6 1.1-7.4-.1-11.1-.1 4.1 5.2 11.1 9.1 12.6 15.7v22.3c-3.8 1-15.4-.9-14.5 1.7 4.8 4.7 11 8.7 14 14.7.1 9.3.2 18.5.3 27.8-4.1 1.7-9.6.1-13.1.8 4.1 5.3 11.4 9.2 12.8 16v22.3c-3.8 1-15.3-.9-14.5 1.7 4.7 4.7 11.3 8.8 14 14.8-.7 6 2.5 12.8-1.2 18.3-3.6 1.1-7.4-.1-11.1-.1 4.1 5.2 11.1 9.1 12.6 15.7v22.3c-4 .8-14.1-.6-14.9 1.3 4.9 4.8 11.4 9 14.4 15.2-.1 7.4-.2 14.7-.3 22.1-4.9.3-9.8-.7-14.7-.9 4.7 6.4 10.8 12.2 14.2 19.3v19.9c-5.2 1-10.5.4-15.6 1.1 4.8 5.7 11.1 10.6 14.4 17.2v23.8c-4.7 1-12.1-.4-15.1 1 5.8 6.9 13.2 13 17.6 20.9.3 8.1.5 16.1.8 24.2-3.8.6-13.6-1.2-14 .8 4.7 5.1 10.9 9.6 13.9 15.9v23.7c-5.9-.3-11.8-.7-17.7-1 5.7 8.1 12.8 15.6 17.1 24.4-.2 6.5-.3 12.9-.5 19.4H630c.4-7.4-2-15.7.8-22.6 5.2-7.1 10.4-14.1 15.6-21.2-5.9.3-11.8.7-17.7 1 .9-8.7-1.4-18.1 1.2-26.4z" id="path13628" fill="#332822"/>
        </g>
        <g id="g4695">
          <path id="path2213" d="M522.1 933.6h177.2c-2.2-42.2 30.2-67.7 52.7-97.8-16.4 6.7-45.3 21.8-63.9 51.4.6-15.9 8.3-22.9 10.3-32.4-22 7.5-27.8 28.6-37.4 39.1 4.7-22.1 12.5-45.7 34.8-57.7-23.8-.8-37.6 16.9-54.9 42.5.6-25.4 14.2-47.9 30.1-62-13 2.3-46.5 15.8-51.5 58.7-7.9-18.2-1.8-42.2 1.9-64-18.6 14.8-23.6 40.9-28.3 67.3 0 0-20.4-48.5-26.6-60.2-.4 14 2.5 47.8 3.5 63.8-18.9-29-32.5-44.5-46.1-51.4 0 0 24.3 42.6 31.9 56.7-22.2-14.1-44.6-27.1-69.1-31.9 16.7 15.5 36.9 29.7 42.5 49.6-25.5-13.4-42.1-16.6-58.5-17.7 19.5 12.9 41.4 20.8 51.4 46z" fill="#00582b" stroke="#003000"/>
          <path d="M729.3 853.3c-16.2 10.3-31.4 23.4-40.6 40.5-1.5 3.4-6.6 2.2-6-1.6.5-10.2 4.3-20.5 8.1-29.5-15.2 9.7-20.4 28.2-32.2 40.9-3.1 2.3-5.4-2.1-4.2-4.8 3.8-12.8 7.9-25.7 12.9-38.1 2-5.1 5.8-11 8.4-14.7-15.8 9.4-24.7 26.3-35.5 40.3-4.8 1.3-3.6-5.5-3.3-8.2.5-18.4 7.3-36.4 18.2-51.2-19.2 10.6-31.8 32-31.8 53.9.1 3.6-4.7 4.6-5.8 1.2-8.2-18.3-5.8-39-2.4-58.2l-.6.8c-13.6 19.8-15 44.7-19.9 67.5-7.6-17.3-15.3-34.6-22.9-52 1 18.9 2.1 37.7 3.1 56.6-12-17.5-22.7-36.3-38-51.2 10 17.8 20.1 35.6 29.9 53.5-20.8-12.9-41.3-26.9-64.6-35 15.1 12.9 30.3 28.5 33.3 49-14.3-8-29.3-14.9-45.4-18.5 14.1 8.6 28.2 19.4 34.8 35.1h170.4c-.3-29.1 17.5-54.4 35.8-75.5 4.1-4.4 2.8-4-1.7-.8z" id="path13632" fill="#009449"/>
        </g>
      </g>
    </g>
    <g id="g4768" transform="translate(.96221596 -4.7670639)">
      <g id="g4690">
        <g id="g4614" transform="matrix(-1 0 0 1 1223.2093 -.1061)">
          <path id="path4606" class="st11" d="M684.2 1189.6S462.8 967.7 460.1 965.5c-169.8-139.6-315.7-90-458.9-62.9 101.5-85 287-154.9 478.4 0 3 2.4 267.5 225.9 267.5 225.9z" fill="#adc8db" stroke="#505050"/>
          <path id="path4608" class="st12" d="M238.1 816.5c-87.1.3-152 32.5-215.4 75.9-1.2 1.3 7.5-1.8 10-2.1 74.9-19 164-31.6 230.3-21.6 73.7 10.9 142.6 45.7 199.2 93.6 21.6 20.2 41.7 42 63 62.6L684.3 1184l56.9-55.3c-89.7-75.4-178.7-151.6-268.9-226.5-68.1-49.5-148.8-86.7-234.2-85.7z" fill="#c9dbe7"/>
          <path id="path4610" class="st13" d="M238.1 820.5c-66.7.1-131.7 24.6-188.2 59-4.4 2.5-8.2 4.8-1.4 2.7 75.9-18.4 155.7-30.2 233.2-14.3 70.2 14.4 135.9 49.1 189 97.1 71.4 70.9 142.4 142.3 213.6 213.4 17-16.5 33.9-33 50.9-49.5-90.2-75.5-179.1-152.7-270.3-227-66-47.1-144.2-82.4-226.8-81.4z" fill="#e4edf3"/>
          <path id="path4612" class="st14" d="M235.4 830.5c-42.7.6-85 11.5-124.2 28.4 72.3-12.4 148.5-12.9 218.5 11.7 69.2 23 131 65.6 180.1 119.2 58.3 58.1 116.4 116.4 174.7 174.6 12-11.6 23.9-23.3 35.9-34.9-90.2-75.1-178.1-153.2-270.4-225.9-63.1-43.2-137.1-74.6-214.6-73.1z" fill="#f2f7fa"/>
        </g>
        <g id="g4648">
          <g id="g4560">
            <g id="g4548">
              <path id="path16033" class="st15" d="M499.1 1225.8l-80.6 85c-26.9 26.9-73.7 18.9-91.9-9.2-24-37.1 22-68.4 49.4-49.3l75.3-81.5c12.8-15.7 4.3-23-6.2-29.2-5.4-3.2-10.7-6.6-15.9-13.3-22.3-28.2 12.1-44.7 27.5-28.3l36.3 39 185.2-140-149.7 175.4 39 28.3c30.4 22.7.3 46.5-21.3 29.2l-16.8-14.2c-12.2-5.9-21.8-3.9-30.3 8.1z" fill="#d8ad00" stroke="#9c6000" stroke-miterlimit="10"/>
              <path id="path4624" class="st16" d="M496.5 1143.8c-7.1 3.2-12.1-4.7-15.9-9.5-12.2-10.7-20.8-25.4-34.6-34.2-8.7-3.4-21.4 4.5-17.5 14.5 4.4 14.7 20.6 19.7 30.2 30.1 6.2 6.7 6.5 17.1 1.1 24.3-8.1 13-20.6 22.1-29.9 33.9-17.6 19.1-35.3 38.2-52.9 57.3-15.3-13.1-44.3-6.7-48.9 14.1-3 12.2 1.7 26.2 12.7 32.9 16 13.3 39.5 19.2 58.6 9.1 20.5-10.2 32.8-30.5 49.2-45.7 18.7-19.2 36.4-39.6 55.7-58.2 12.5-7.9 29.4-1.9 38.1 9 7 6.8 18.3 14.6 28 8.5 6.2-4.7 3.8-14-2-17.9-11.5-11.2-26.3-18.5-38.3-29-3.6-1.9-11-5.5-7.6-10.6 38.4-45 76.9-90.1 115.3-135.1-47.1 35.3-94.2 70.9-141.3 106.5z" fill="#fc0"/>
              <path id="path4632" class="st17" d="M501.4 1150.1c-9.3 6.1-21.2-1.2-26.1-9.6-12.1-10.5-19.9-26.1-34.5-33.4-4.9.3-6 6.7-2.4 9.5 9.1 12.7 27.7 17.2 32.3 33.4 4.3 14.3-5.7 27.8-15.3 37.4-26.5 27.7-52 56.4-78.3 84.4-9-16-38.1-13.1-41.6 5.7-2.6 12.2 6.5 23.2 16.9 28.3 16.8 10.8 40.3 10 54.9-4.4 18-15.3 31.9-34.7 49.3-50.7 15.3-15.9 29.2-33.6 46.8-47 16.8-7.9 37 .9 47.7 14.7 3.8 3 10.2 7.9 14.6 4.1-1.5-7-9.7-9.3-14.2-14.1-11.8-9.4-26-16.2-36.2-27.3-4.2-7.3.7-15.7 6.6-20.4 20.7-24.3 41.4-48.5 62.2-72.8-27.7 20.6-55.2 41.4-82.7 62.2z" fill="#ffd429"/>
              <path id="path4642" class="st18" d="M504.6 1162.2c-6.6 3.4-15.1 1.9-21.5.6-3.7 22.3-23.5 36.3-37.3 52.3-26.2 28.1-51.9 56.7-78.5 84.5 13.4 4 28.6-.8 37.1-11.8 28.6-28.6 54.7-59.8 84.2-87.6 5.4-4.6 11.6-8.5 18.5-10.3-6.3-7.7-7.1-19.5-1.8-28zM356.5 1273c-7.3-.1-12.5 9-6.9 14.9 4.9 5.2 7.6 7.2 13.7 9.4 3-8.3 8.7-18.9-1.1-23.3-1.8-.5-3.8-1-5.7-1z" fill="#ffdc51"/>
            </g>
            <g id="g3394" transform="matrix(4.48622 0 0 4.48622 -7.6608981 -9.358009)">
              <path id="path16035" class="st19" d="M113.5 266.8h-5l-.3-5" fill="none" stroke="#9c6000" stroke-linecap="round"/>
              <path id="path16037" class="st19" d="M106.7 274.6h-5l-.3-5" fill="none" stroke="#9c6000" stroke-linecap="round"/>
              <path id="path16039" class="st19" d="M100.3 282.4h-5l-.3-5" fill="none" stroke="#9c6000" stroke-linecap="round"/>
              <path id="path16041" class="st19" d="M85.6 281.3l5 4.7" fill="none" stroke="#9c6000" stroke-linecap="round"/>
            </g>
          </g>
          <path id="path16043" class="st20" d="M664.7 1009.6l-148.9 134.3 5.6 6.1 145.9-138.5z" fill="#9c6000"/>
        </g>
      </g>
      <g id="g4728" transform="matrix(-1 0 0 1 1223.063 0)">
        <g id="g4700" transform="matrix(-1 0 0 1 1223.2093 -.1061)">
          <path id="path4692" class="st11" d="M684.2 1189.6S462.8 967.7 460.1 965.5c-169.8-139.6-315.7-90-458.9-62.9 101.5-85 287-154.9 478.4 0 3 2.4 267.5 225.9 267.5 225.9z" fill="#adc8db" stroke="#505050"/>
          <path id="path4694" class="st12" d="M238.1 816.5c-87.1.3-152 32.5-215.4 75.9-1.2 1.3 7.5-1.8 10-2.1 74.9-19 164-31.6 230.3-21.6 73.7 10.9 142.6 45.7 199.2 93.6 21.6 20.2 41.7 42 63 62.6L684.3 1184l56.9-55.3c-89.7-75.4-178.7-151.6-268.9-226.5-68.1-49.5-148.8-86.7-234.2-85.7z" fill="#c9dbe7"/>
          <path id="path4696" class="st13" d="M238.1 820.5c-66.7.1-131.7 24.6-188.2 59-4.4 2.5-8.2 4.8-1.4 2.7 75.9-18.4 155.7-30.2 233.2-14.3 70.2 14.4 135.9 49.1 189 97.1 71.4 70.9 142.4 142.3 213.6 213.4 17-16.5 33.9-33 50.9-49.5-90.2-75.5-179.1-152.7-270.3-227-66-47.1-144.2-82.4-226.8-81.4z" fill="#e4edf3"/>
          <path id="path4698" class="st14" d="M235.4 830.5c-42.7.6-85 11.5-124.2 28.4 72.3-12.4 148.5-12.9 218.5 11.7 69.2 23 131 65.6 180.1 119.2 58.3 58.1 116.4 116.4 174.7 174.6 12-11.6 23.9-23.3 35.9-34.9-90.2-75.1-178.1-153.2-270.4-225.9-63.1-43.2-137.1-74.6-214.6-73.1z" fill="#f2f7fa"/>
        </g>
        <g id="g4726">
          <g id="g4722">
            <g id="g4710">
              <path id="path4702" class="st15" d="M499.1 1225.8l-80.6 85c-26.9 26.9-73.7 18.9-91.9-9.2-24-37.1 22-68.4 49.4-49.3l75.3-81.5c12.8-15.7 4.3-23-6.2-29.2-5.4-3.2-10.7-6.6-15.9-13.3-22.3-28.2 12.1-44.7 27.5-28.3l36.3 39 185.2-140-149.7 175.4 39 28.3c30.4 22.7.3 46.5-21.3 29.2l-16.8-14.2c-12.2-5.9-21.8-3.9-30.3 8.1z" fill="#d8ad00" stroke="#9c6000" stroke-miterlimit="10"/>
              <path id="path4704" class="st16" d="M496.5 1143.8c-7.1 3.2-12.1-4.7-15.9-9.5-12.2-10.7-20.8-25.4-34.6-34.2-8.7-3.4-21.4 4.5-17.5 14.5 4.4 14.7 20.6 19.7 30.2 30.1 6.2 6.7 6.5 17.1 1.1 24.3-8.1 13-20.6 22.1-29.9 33.9-17.6 19.1-35.3 38.2-52.9 57.3-15.3-13.1-44.3-6.7-48.9 14.1-3 12.2 1.7 26.2 12.7 32.9 16 13.3 39.5 19.2 58.6 9.1 20.5-10.2 32.8-30.5 49.2-45.7 18.7-19.2 36.4-39.6 55.7-58.2 12.5-7.9 29.4-1.9 38.1 9 7 6.8 18.3 14.6 28 8.5 6.2-4.7 3.8-14-2-17.9-11.5-11.2-26.3-18.5-38.3-29-3.6-1.9-11-5.5-7.6-10.6 38.4-45 76.9-90.1 115.3-135.1-47.1 35.3-94.2 70.9-141.3 106.5z" fill="#fc0"/>
              <path id="path4706" class="st17" d="M501.4 1150.1c-9.3 6.1-21.2-1.2-26.1-9.6-12.1-10.5-19.9-26.1-34.5-33.4-4.9.3-6 6.7-2.4 9.5 9.1 12.7 27.7 17.2 32.3 33.4 4.3 14.3-5.7 27.8-15.3 37.4-26.5 27.7-52 56.4-78.3 84.4-9-16-38.1-13.1-41.6 5.7-2.6 12.2 6.5 23.2 16.9 28.3 16.8 10.8 40.3 10 54.9-4.4 18-15.3 31.9-34.7 49.3-50.7 15.3-15.9 29.2-33.6 46.8-47 16.8-7.9 37 .9 47.7 14.7 3.8 3 10.2 7.9 14.6 4.1-1.5-7-9.7-9.3-14.2-14.1-11.8-9.4-26-16.2-36.2-27.3-4.2-7.3.7-15.7 6.6-20.4 20.7-24.3 41.4-48.5 62.2-72.8-27.7 20.6-55.2 41.4-82.7 62.2z" fill="#ffd429"/>
              <path id="path4708" class="st18" d="M504.6 1162.2c-6.6 3.4-15.1 1.9-21.5.6-3.7 22.3-23.5 36.3-37.3 52.3-26.2 28.1-51.9 56.7-78.5 84.5 13.4 4 28.6-.8 37.1-11.8 28.6-28.6 54.7-59.8 84.2-87.6 5.4-4.6 11.6-8.5 18.5-10.3-6.3-7.7-7.1-19.5-1.8-28zM356.5 1273c-7.3-.1-12.5 9-6.9 14.9 4.9 5.2 7.6 7.2 13.7 9.4 3-8.3 8.7-18.9-1.1-23.3-1.8-.5-3.8-1-5.7-1z" fill="#ffdc51"/>
            </g>
            <g id="g4720" transform="matrix(4.48622 0 0 4.48622 -7.6608981 -9.358009)">
              <path id="path4712" class="st19" d="M113.5 266.8h-5l-.3-5" fill="none" stroke="#9c6000" stroke-linecap="round"/>
              <path id="path4714" class="st19" d="M106.7 274.6h-5l-.3-5" fill="none" stroke="#9c6000" stroke-linecap="round"/>
              <path id="path4716" class="st19" d="M100.3 282.4h-5l-.3-5" fill="none" stroke="#9c6000" stroke-linecap="round"/>
              <path id="path4718" class="st19" d="M85.6 281.3l5 4.7" fill="none" stroke="#9c6000" stroke-linecap="round"/>
            </g>
          </g>
          <path id="path4724" class="st20" d="M664.7 1009.6l-148.9 134.3 5.6 6.1 145.9-138.5z" fill="#9c6000"/>
        </g>
      </g>
    </g>
  </g>
  <g id="g4689" transform="matrix(2.93804 0 0 2.93804 -.61568205 3.4391811)">
    <path id="path6124-4" d="M141.5 1.3c3-1.2 16.4 5 13.4 9.1-8.1 1.6-7 8.6-7.1 11.8 10.3-17 41.2-19.5 59.1-3.2 1.1 4.2-6.2 3.5-6.5 2.8-8-5.5-18.4-8.7-26.4-6.9 1.4 1.3-1.3 3.1-3.2 3-13-.6-18.5 12.2-22.1 15.6-1.6 2 .4 3.7 2 1.6 14.3-23.3 46.4-18.7 55-1.6 1.1 3.8-2.8 3.8-3.7 2.2-6.4-6-7.9-10.6-22.9-6.7-1 1.2-3.7 2.4.8 3.5 16.2 0 23.1 8 29.1 15.4 1.4 2.9-.8 5.9-4.1 3-5.2-5.9-11.3-9.4-17.5-12.2 3.2 2.3 3.5 9-2.2 4.1-14.1-6.5-20.3 2.2-24.6 4.3v0c35.9-14.6 43.4 26 45.1 29.9 1.4 3.2-1.9 6.3-4.3 2.8l-2.2-8.5c-1.4 1.6-3 2.5-4.9-1.6-6.4-12.1-14.5-11.6-22.5-12.6 9.7 7.1 16.8 14.1 22.9 24 4.5 11.3.9 18.4-1.2 26-2 3-3.5 1.9-4.5-.4 2.9-31-17.2-35.1-31.5-48.3l-5.9-1.6c3.9 3.1 8.4 6.6 13.4 10.3 14.6 9.8 11.6 24.4 9.5 30.7l-4.3 14.8c-2.2 4.2-3.5 2.3-4.7-.2l-.8-24.4c-1.1 1-2.3 1.2-3.9-1 1.7-16.1-5-17.9-8.3-23.6l-2.6 1.2c9.5 15 13.1 31.4 11 49.1-.9 3.4-3.8 3.2-4.5.2l-.6-11.8c-1 2.5-2.3 2.8-4.9 3.2-2.3-1.4 1.4-6.3 4.1-10.5-1.8.3-3.7.9-5.5.2-1.5-7.2-.3-16.9-4-22.2-6.1-8.8-15.1-7.5-20 .5-3.8 6-2.5 14.2-3.8 21.7-1.8.7-3.7.1-5.5-.2 2.8 4.2 6.4 9.1 4.1 10.5-2.6-.4-3.9-.7-4.9-3.2l-.6 11.8c-.8 3-3.6 3.2-4.5-.2-2.1-17.7 1.6-34 11-49.1l-2.6-1.2c-3.3 5.8-10 7.6-8.3 23.6-1.6 2.2-2.8 1.9-3.9 1l-.6 24.4c-1.2 2.5-2.5 4.4-4.7.2L97 97.9c-2.2-6.3-5.1-20.9 9.5-30.7 5-3.7 9.5-7.1 13.4-10.3l-5.9 1.6c-14.4 13.2-34.4 17.3-31.5 48.3-1 2.3-2.6 3.4-4.5.4-2-7.6-5.6-14.7-1.2-26 6.1-9.9 13.1-16.9 22.9-24-7.9 1-16.1.5-22.5 12.6-2 4.1-3.5 3.2-4.9 1.6l-2.2 8.5c-2.4 3.6-5.7.4-4.3-2.8 1.6-3.9 9.2-44.5 45.1-30v0c-4.4-2.2-10.5-10.9-24.6-4.3-5.7 4.9-5.4-1.8-2.2-4.1-6.3 2.8-12.3 6.3-17.5 12.2-3.3 2.9-5.5 0-4.1-3 6-7.4 13-15.3 29.2-15.4 4.5-1.2 1.7-2.4.8-3.5-14.9-3.9-16.5.7-22.9 6.7-.9 1.7-4.8 1.6-3.7-2.2 8.6-17.1 40.7-21.7 55 1.6 1.6 2.2 3.6.4 2-1.6-3.6-3.4-9.1-16.2-22.1-15.6-1.9.2-4.6-1.7-3.2-3-8-1.8-18.4 1.4-26.4 6.9-.2.7-7.6 1.4-6.5-2.8 17.8-16.4 48.8-13.9 59 3.1-.1-3.2 1-10.3-7.1-11.8-3-4 10.5-10.3 13.4-9.1 5.2 7.6 4.9 10.2 5.6 10.5 1 .6-.1-3.2 5.9-10.4z" fill="#009449" stroke="#014721" stroke-miterlimit="10"/>
    <g id="g4359" transform="translate(.213745 .00000237)">
      <g id="g4654" transform="translate(0 .00000237)">
        <path id="path7095" class="st22" d="M82 82.1c14.5-26.6 34.6-26.7 50.7-32.3l-11.4 11.7v0" fill="none" stroke="#014721" stroke-linecap="round" stroke-linejoin="round" stroke-miterlimit="10"/>
        <path id="path7097" class="st22" d="M107.6 57.7c-3.1 3.6-5.1 4.5-9.3 10.3" fill="none" stroke="#014721" stroke-linecap="round" stroke-linejoin="round" stroke-miterlimit="10"/>
        <path id="path7099" class="st22" d="M118.6 77.8l13.8-27.7" fill="none" stroke="#014721" stroke-linecap="round" stroke-linejoin="round" stroke-miterlimit="10"/>
        <path id="path10016" class="st22" d="M76 61.4c8-8.5 23.2-14.5 34.6-14.3" fill="none" stroke="#014721" stroke-linecap="round" stroke-linejoin="round" stroke-miterlimit="10"/>
        <path id="path10018" class="st22" d="M78.5 24.6c18.2-.5 36.2 4.1 52.1 22.6" fill="none" stroke="#014721" stroke-linecap="round" stroke-linejoin="round" stroke-miterlimit="10"/>
        <path id="path10989" class="st22" d="M75 15.3c11.1-5 44.9-15.5 55.7 31.5l-2-39.4" fill="none" stroke="#014721" stroke-linecap="round" stroke-linejoin="round" stroke-miterlimit="10"/>
        <path id="path11960" class="st22" d="M131.9 9.4l-2.7 5.4" fill="none" stroke="#014721" stroke-linecap="round" stroke-linejoin="round" stroke-miterlimit="10"/>
        <path id="path11962" class="st22" d="M133.9 17l-4.3 6.5" fill="none" stroke="#014721" stroke-linecap="round" stroke-linejoin="round" stroke-miterlimit="10"/>
        <path id="path11964" class="st22" d="M122.5 7.9c2.8 2.8 4.8 5.9 6.8 9.1" fill="none" stroke="#014721" stroke-linecap="round" stroke-linejoin="round" stroke-miterlimit="10"/>
        <path id="path11966" class="st22" d="M129 45.5c-4.5-3.7-9.5-2.2-14.3-2.4" fill="none" stroke="#014721" stroke-linecap="round" stroke-linejoin="round" stroke-miterlimit="10"/>
        <path id="path11968" class="st22" d="M122.6 39.2C116.3 37 110 38 103.8 38" fill="none" stroke="#014721" stroke-linecap="round" stroke-linejoin="round" stroke-miterlimit="10"/>
        <path id="path11970" class="st22" d="M115.3 33.9c-6.4-1.1-12.8-2.4-18.3-1.1" fill="none" stroke="#014721" stroke-linecap="round" stroke-linejoin="round" stroke-miterlimit="10"/>
        <path id="path11972" class="st22" d="M89.8 21.8l7.8 4.5" fill="none" stroke="#014721" stroke-linecap="round" stroke-linejoin="round" stroke-miterlimit="10"/>
        <path id="path11974" class="st22" d="M94.5 27.8l9.2.4" fill="none" stroke="#014721" stroke-linecap="round" stroke-linejoin="round" stroke-miterlimit="10"/>
        <path id="path11982" class="st22" d="M130 32.5c1.4-3.1 2.8-6 4.6-6.5" fill="none" stroke="#014721" stroke-linecap="round" stroke-linejoin="round" stroke-miterlimit="10"/>
        <path id="path7095-5" class="st22" d="M189 82.1c-14.4-26.6-34.6-26.7-50.6-32.4l11.4 11.7v0" fill="none" stroke="#014721" stroke-linecap="round" stroke-linejoin="round" stroke-miterlimit="10"/>
        <path id="path7097-1" class="st22" d="M163.4 57.7c3.1 3.6 5.1 4.5 9.3 10.3" fill="none" stroke="#014721" stroke-linecap="round" stroke-linejoin="round" stroke-miterlimit="10"/>
        <path id="path7099-1" class="st22" d="M152.4 77.8l-13.8-27.7" fill="none" stroke="#014721" stroke-linecap="round" stroke-linejoin="round" stroke-miterlimit="10"/>
        <path id="path10016-7" class="st22" d="M195 61.4c-8-8.5-23.2-14.5-34.6-14.3" fill="none" stroke="#014721" stroke-linecap="round" stroke-linejoin="round" stroke-miterlimit="10"/>
        <path id="path10018-1" class="st22" d="M192.5 24.6c-18.2-.5-36.2 4.1-52.1 22.6" fill="none" stroke="#014721" stroke-linecap="round" stroke-linejoin="round" stroke-miterlimit="10"/>
        <path id="path10989-6" class="st22" d="M196 15.3c-11.1-5-44.9-15.4-55.7 31.5l2-39.4" fill="none" stroke="#014721" stroke-linecap="round" stroke-linejoin="round" stroke-miterlimit="10"/>
        <path id="path11960-1" class="st22" d="M139.1 9.4l2.7 5.4" fill="none" stroke="#014721" stroke-linecap="round" stroke-linejoin="round" stroke-miterlimit="10"/>
        <path id="path11962-0" class="st22" d="M137.1 17l4.3 6.5" fill="none" stroke="#014721" stroke-linecap="round" stroke-linejoin="round" stroke-miterlimit="10"/>
        <path id="path11964-2" class="st22" d="M148.5 7.9c-2.8 2.8-4.8 5.9-6.8 9.1" fill="none" stroke="#014721" stroke-linecap="round" stroke-linejoin="round" stroke-miterlimit="10"/>
        <path id="path11966-6" class="st22" d="M142 45.5c4.5-3.7 9.5-2.2 14.3-2.4" fill="none" stroke="#014721" stroke-linecap="round" stroke-linejoin="round" stroke-miterlimit="10"/>
        <path id="path11968-9" class="st22" d="M148.4 39.2C154.7 37 161 38 167.3 38" fill="none" stroke="#014721" stroke-linecap="round" stroke-linejoin="round" stroke-miterlimit="10"/>
        <path id="path11970-9" class="st22" d="M155.7 33.9c6.4-1.1 12.8-2.4 18.3-1.1" fill="none" stroke="#014721" stroke-linecap="round" stroke-linejoin="round" stroke-miterlimit="10"/>
        <path id="path11972-7" class="st22" d="M181.2 21.8l-7.8 4.5" fill="none" stroke="#014721" stroke-linecap="round" stroke-linejoin="round" stroke-miterlimit="10"/>
        <path id="path11974-3" class="st22" d="M176.5 27.8l-9.2.4" fill="none" stroke="#014721" stroke-linecap="round" stroke-linejoin="round" stroke-miterlimit="10"/>
        <path id="path11982-7" class="st22" d="M141 32.5c-1.4-3.1-2.8-6-4.6-6.5" fill="none" stroke="#014721" stroke-linecap="round" stroke-linejoin="round" stroke-miterlimit="10"/>
      </g>
    </g>
  </g>
</svg>
