<svg xmlns="http://www.w3.org/2000/svg" xmlns:xlink="http://www.w3.org/1999/xlink" viewBox="0 0 231.89999 300">
  <g transform="matrix(3.15002 0 0 3.15002 -350.0224 363.88558)">
    <path d="M147.9273161-115.51861c-13.0857692.0172-25.48084215 3.34536603-34.17826192 7.44291592l.00062002.0111609c-.904484.3780189-1.7896231.75694828-2.6320542 1.13590655l2.84224653 44.51984994c1.96929982 23.26443922 17.12962098 36.80888658 33.9748908 42.12774669 16.84527077-5.31886011 32.00560145-18.86330747 33.9748892-42.1277467l2.82674662-44.3784818c-.84645256-.43814526-1.72527956-.86617977-2.63143338-1.28409528v-.0043403c-8.69356884-4.09573466-21.0809304-7.42282157-34.16028186-7.44291592-.0057968-.0000089-.01156502.0000076-.01736181 0z" fill="#005be5" fill-rule="evenodd"/>
    <path d="M147.93437-84.711566l-8.31445 16.236187-5.37524-6.98291-14.04559 18.561778c.25384 1.15219.55195 2.264368.87746 3.350324 1.56869 2.647443 4.58316 5.669782 8.44944 5.66978 3.06807 0 6.13613-2.454448 9.20419-2.45445 3.06807 0 6.13613 2.454452 9.20419 2.45445 3.06806 0 6.13612-2.454448 9.20419-2.45445 3.06806 0 6.13612 2.454452 9.20419 2.45445 3.83134 0 6.82572-2.966174 8.40649-5.596146.3374-1.115063.64046-2.263565.90201-3.448503l-14.02719-18.537233-5.37524 6.98291zm-9.20419 36.835159c-3.06806 0-6.13612 2.454452-9.20419 2.45445-2.42818 0-4.51412-.86-6.12998-2.080147.57062 1.211079 1.17422 2.388922 1.8347 3.503728 1.26575.787052 2.70426 1.319269 4.29528 1.319267 3.06807 0 6.13613-2.454452 9.20419-2.45445 3.06807 0 6.13613 2.454454 9.20419 2.45445 3.06806 0 6.13612-2.454452 9.20419-2.45445 3.06806 0 6.13612 2.454454 9.20419 2.45445 1.56857 0 2.98703-.52035 4.24006-1.288587.66018-1.111198 1.26336-2.284992 1.8347-3.491455-1.6082 1.197358-3.67487 2.037194-6.07476 2.037194-3.06807 0-6.13613-2.454448-9.20419-2.45445-3.06807 0-6.13613 2.454452-9.20419 2.45445-3.06806 0-6.13612-2.454448-9.20419-2.45445zm0 5.197298c-3.06806 0-6.13612 2.454454-9.20419 2.45445-.66657 0-1.30044-.07808-1.91447-.196356 5.30791 7.091078 12.54952 11.837649 20.31671 14.56716 7.75116-2.725014 14.98132-7.474976 20.28603-14.554888-.6005.11285-1.22106.184084-1.87151.184084-3.06807 0-6.13613-2.454446-9.20419-2.45445-3.06807 0-6.13613 2.454454-9.20419 2.45445-3.06806 0-6.13612-2.454446-9.20419-2.45445z" fill="#fff" fill-rule="evenodd"/>
    <g id="a" fill="#ffe500" transform="translate(0 -.00067)">
      <path id="b" d="M134.0937-109.56066h6.96082l-3.48041 6.02733" fill="#ffe500" fill-rule="evenodd"/>
      <use height="300" transform="matrix(1 0 0 -1 .0003 -215.1037)" width="600" xlink:href="#b"/>
    </g>
    <use fill="#ffe500" height="300" transform="translate(20.7203)" width="600" xlink:href="#a"/>
    <use fill="#ffe500" height="300" transform="translate(10.3603 13.875)" width="600" xlink:href="#a"/>
    <path d="M182.10496-108.07197l-2.63825 44.188745c-1.82815 22.618702-15.90219 35.787129-31.54001 40.958359-15.63782-5.17123-29.71125-18.339657-31.53939-40.958359l-2.63763-44.181925c-.90453.37803-1.78959.75755-2.63206 1.13652l2.84225 44.519231c1.9693 23.264446 17.12962 36.809509 33.97489 42.128369 16.84527-5.31886 32.0056-18.863923 33.97489-42.128369l2.82675-44.377861c-.84646-.43814-1.72528-.8668-2.63144-1.28471z" fill="#f00" fill-rule="evenodd"/>
  </g>
</svg>
