<svg xmlns="http://www.w3.org/2000/svg" xmlns:xlink="http://www.w3.org/1999/xlink" version="1.1" id="svg2" viewBox="0 0 1659.6649 1640.3092">
  <defs id="defs4">
    <radialGradient id="e" gradientUnits="userSpaceOnUse" cy="12.77" cx="191.60001" gradientTransform="matrix(.2526 .1181 -.1329 .2839 145.5 -12.81)" r="2.355">
      <stop id="stop5188" stop-color="#fff" offset="0"/>
      <stop id="stop5190" offset="1"/>
    </radialGradient>
    <radialGradient id="c" xlink:href="#a" gradientUnits="userSpaceOnUse" cy="540.59998" cx="-214" gradientTransform="matrix(-.4547 -.0328 -.0512 .7079 1200 812.2)" r="185.39999"/>
    <radialGradient id="b" xlink:href="#a" gradientUnits="userSpaceOnUse" cy="540.59998" cx="-214" gradientTransform="matrix(.4547 -.0328 .0512 .7079 476.3 812.8)" r="185.39999"/>
    <radialGradient id="d" gradientUnits="userSpaceOnUse" cy="-334" cx="204.8" gradientTransform="matrix(.9988 -.0069 .0089 1.287 3.215 85.33)" r="11.02">
      <stop id="stop4471" offset="0"/>
      <stop id="stop4473" stop-color="#626262" offset="1"/>
    </radialGradient>
    <linearGradient id="a">
      <stop id="stop4087" stop-color="#fff" offset="0"/>
      <stop id="stop4089" stop-color="#fdc643" offset="1"/>
    </linearGradient>
  </defs>
  <use id="use3284" xlink:href="#m" transform="matrix(-1 0 0 1 1659.6649 0)" height="1656" width="1666" x="0" y="0"/>
  <path id="path4933" d="M349.23254 1288.0495l-.4-45-71.5 16 71.9 29z" fill="#000" stroke="#000" stroke-width="4"/>
  <path d="M971.83254 295.04952s-14.1-21.8-23.8-51c-10.2-30.4-54.5-150.870001-54.5-150.870001-8.4-15.9-32-51.7-72.7-75.5-27.2-13.0000003-65.8-23.4000003-141.4 28.8l17.8 64.570001c76.4 30.9 23.2 167.6-27.9 199.9-10 259.1 417.99986 363.2 314-15.9z" id="path22" fill="#fff" stroke="none"/>
  <g id="m" transform="translate(-2.6674549 .04951872)" stroke="#000" stroke-linejoin="round">
    <g id="g4564" fill="#f9f9f9">
      <g id="g26" stroke-width="6.25">
        <path id="path4401" d="M1539 1026l-216-217.5-10 15.5 213 247s42 39 74 45c3 1 31 7 41 0 3-9-21-39-35-56-68-81.2-302-285.2-302-285.2l-4 11.3 239 239.9z"/>
        <path id="path4403" d="M1481 1056l-182-221.8-11 13.5 177 249.3s35 41 65 49c3 1 29 10 39 4 4-8-16-38-28-55-56-82-256-293.8-256-293.8l-5 10.1 201 244.7z"/>
        <path id="path4405" d="M1553 947.7l-244-196.2-7 16.5 238 222.1s46 34.9 79 36.9c3 0 31 4 40-4 2-9-25-36.9-41-52.2-76-73.5-331-250.8-331-250.8l-3 11.8 269 215.9z"/>
        <path id="path4407" d="M1533 853.2l-254-174.4-6 15.6 235 186.2s44 28.3 74 27.8c3 .1 29 1.5 37-6.4 1-8.8-26-31.9-41-44.8-76-61.8-322-205.7-322-205.7l-1 11 278 190.7z"/>
        <path id="path4409" d="M1516 781.9l-217-129.4-7 16.8 209 134.4s38 20.5 63 18.3c3-.1 25-.5 30-7.6 1-7.2-23-24.4-36-34.1-66-45.9-279-148.8-279-148.8l-1 9.2 238 141.2z"/>
        <path id="path4411" d="M1488 708.5L1265 589l-7 17.1L1473 731s39 18.8 64 15.5c3-.3 24-1.6 30-9 0-7.2-24-23.3-38-32.4-68-42.9-285-136.1-285-136.1l-1 9.1 245 130.4z"/>
        <path id="path4413" d="M1477 649.5l-231-103.1-5 17.6 223 109s40 15.9 65 10.8c3-.5 24-3.3 29-11.1 0-7.2-26-21.5-40-29.6-71-37.8-294-115.1-294-115.1v9.2l253 112.3z"/>
        <path id="path4415" d="M1465 600l-190-70-3 13.4 183 74.6s33 10.7 53 6.1c2-.5 19-3.3 23-9.3 0-5.4-22-15.3-33-20.9-59-26.1-241-76.9-241-76.9v6.9l208 76.1z"/>
        <path id="path4417" d="M1450 551.6l-194-54.5-2 12 188 61.1s34 8.3 53 2.2c2-.5 19-4.6 23-10.9-1-5.3-23-13.6-35-18.4-61-21.8-246-59.2-246-59.2l1 6.9 212 60.8z"/>
        <path id="path4419" d="M1435 508.6L1238 468l-2 12.2 193 47.6s34 5.8 53-1.5c1-.8 18-6 21-12.5-1-5.3-24-12-36-15.9-62-17.4-250-41.7-250-41.7l2 6.9 216 45.5z"/>
        <path id="path4421" d="M1425 468.7l-200-25.2-1 12.3 196 32.5s34 3.3 53-5.6c1-.9 17-7.4 20-14.1-2-5.2-24-10.1-37-13-63-12.6-252-22.2-252-22.2l2 6.7 219 28.6z"/>
        <path id="path4423" d="M1415 429.2l-188-5.2v11l185 11.8s33 0 49-9.3c1-1 16-8 18-14.1-3-4.5-24-6.9-36-8.3-60-5.8-237 1.8-237 1.8l2 5.7 207 6.6z"/>
        <path id="path4425" d="M1400 391.3l-189 10.4 1 10.9 186-3.5s33-2.7 48-13.3c1-1.2 15-9.3 16-15.6-2-4.3-24-4.9-36-5.3-60-.8-236 21.4-236 21.4l3 5.5 207-10.5z"/>
        <path id="path4427" d="M1385 360l-187 23.5 2 10.8 185-16.5s32-4.9 46-16.6c2-1.3 15-10.3 16-16.7-3-4.1-25-3.2-37-2.7-60 3.4-234 37.9-234 37.9l4 5.2 205-24.9z"/>
        <path id="path4429" d="M1366 329.3l-184 38.5 2 10.6 183-31.3s32-7.5 46-20.3c1-1.4 13-11.4 14-17.9-3-3.8-25-1.2-37 .3-60 8.2-230 56.5-230 56.5l3 5 203-41.4z"/>
        <path id="path4431" d="M1338 301.1l-184 52.4 3 10.4 182-45.1s31-9.9 45-23.8c1-1.4 13-12.3 13-18.8-3-3.7-24 .6-36 3-60 12.7-229 73.8-229 73.8l4 4.8 202-56.7z"/>
        <path id="path4433" d="M1317 272.7l-180 65.9 4 10.1 179-58.5s30-12.2 42-27c2-1.5 13-13.3 13-19.8-4-3.4-25 2.5-37 5.7-58 17.1-222 90.6-222 90.6l4 4.5 197-71.5z"/>
        <path id="path4435" d="M1282 254.2l-175 76.4 4 9.9 175-68.9s29-14 41-29.6c1-1.6 11-14 11-20.4-4-3.2-25 3.9-36 7.8-57 20.5-217 103.6-217 103.6l4 4.3 193-83.1z"/>
        <path id="path4437" d="M1253 236.4l-145 72.1 4 8.6 144-65.7s25-13.1 34-27.1c1-1.5 9-12.5 8-18.1-3-2.8-20 4.2-29 7.9-48 19.7-179 97.2-179 97.2l4 3.6 159-78.5z"/>
        <path id="path4439" d="M1228 220.4L1110 289l4 7.3 118-63.1s20-12.4 27-24.9c1-1.4 7-11.2 7-15.9-3-2.4-17 4.5-25 8.1-39 19-146 91.7-146 91.7l4 2.9 129-74.7z"/>
      </g>
      <path id="path4441" d="M1202 210.5l-101 68.6 4 6.4 101-63.5s17-12.3 23-24c0-1.4 6-10.6 5-14.8-3-2-15 4.9-22 8.6-33 19.3-124 91-124 91l3 2.4 111-74.7z" stroke-width="5.61460018"/>
      <g id="g49" stroke-width="5">
        <path id="path4443" d="M1173 204.1l-77 63.3 3 5.1 78-59.1s13-11.3 17-21.4c0-1.2 4-9.2 3-12.6-2-1.5-12 5-17 8.5-26 18.1-95 83.4-95 83.4l3 1.8 85-69z"/>
        <path id="path4445" d="M1137 207.9l-68 73.2 4 4.6 70-69.1s11-12.9 13-23.5c1-1.2 3-9.7 2-12.8-3-1.3-11 6.5-16 10.6-23 21.5-83 95.4-83 95.4l3 1.5 75-79.9z"/>
        <path id="path4447" d="M1111 205.5l-52 65.6 4 3.6 53-62.3s8-11.5 10-20.5c0-1 1-8.3 0-10.8-2-1-9 6.1-12 9.8-18 19.4-62 85.1-62 85.1l2 1.1 57-71.6z"/>
      </g>
      <path id="path4449" d="M1411 1060l-134-197.2-10 9.7 126 218.5s25 36 50 46c3 1 24 11 33 7 4-6-10-32-18-47-39-72-189-262.2-189-262.2l-6 7.5 148 217.7z" stroke-width="6.25"/>
      <path id="path4451" d="M1330 1042l-119-217.4-11 9.4 110 239s23 40 47 52c2 2 23 13 32 11 5-7-7-36-14-51-34-79-170-290.3-170-290.3l-6 7.4 131 239.9z" stroke-width="6.25"/>
      <path id="path4453" d="M1266 1058l-106-243.8-11 8.3 84 241.5s19 40 41 54c2 2 20 15 30 13 4-5-4-35-10-51-26-78-120-293.3-120-293.3l-24 4.5 116 266.8z" stroke-width="6.01179981"/>
    </g>
    <g id="g4625" fill="#f3f3f3">
      <g id="g58" stroke-width="4.61129999">
        <path id="path4457" d="M1304 784.8l-107-111.3-4 8 105 126.6s21 20.1 37 22.9c1 .4 15 4 20 .3 1-4.6-10-20-17-28.7-34-41.8-150-146.3-150-146.3l-2 5.8 118 122.7z"/>
        <path id="path4459" d="M1307 739.4l-115-103.1-5 8.3 115 118.5s22 18.5 38 20.1c2 .3 16 2.8 20-1.2 2-4.7-11-19.2-19-27.4-37-39.1-160-134.8-160-134.8l-2 5.9 128 113.7z"/>
        <path id="path4461" d="M1311 696.5L1187 604l-3 8.6 124 107.9s24 16.4 40 16.6c2 .2 16 1.4 20-3 1-4.8-13-18-21-25.5-40-35.8-172-120.1-172-120.1l-1 6 137 102z"/>
        <path id="path4463" d="M1312 655.7l-132-80.4-2 8.9 134 95.6s25 14.1 41 12.8c2 .1 16-.1 20-4.9 0-4.9-15-16.7-24-23.4-44-31.8-182-103.3-182-103.3l-1 6.2 146 88.5z"/>
        <path id="path4465" d="M1313 614.6l-139-67-1 9.2 143 81.9s26 11.5 42 8.6c1 0 16-1.6 19-6.7 0-4.9-17-15.2-26-20.9-47-27.4-191-84.9-191-84.9v6.1l153 73.7z"/>
        <path id="path4467" d="M1308 576.1l-142-60.5-1 9.3 147 75.1s27 10.2 42 6.6c2-.1 16-2.4 19-7.6 0-4.9-17-14.4-27-19.7-48-25.2-195-75.8-195-75.8v6.1l157 66.5z"/>
        <path id="path4469" d="M1299 537.9l-148-45.4v9.4l153 59.5s28 7.4 44 2.2c1-.3 15-4 17-9.6 0-4.8-18-12.4-29-16.7-49-20.1-201-55.2-201-55.2l1 6 163 49.8z"/>
        <path id="path4471" d="M1289 503.1l-150-36.8v9.4l157 50.5s28 5.8 43-.4c1-.3 15-4.8 17-10.5-1-4.8-19-11.3-30-15-51-17.2-204-43.5-204-43.5l1 6 166 40.3z"/>
      </g>
      <g id="g68" stroke-width="4.5">
        <path id="path4473" d="M1289 474.7L1154 450l1 7.8 142 35.9s25 3.7 38-2c1-.3 13-4.7 15-9.5-1-4-18-8.7-27-11.4-46-12.3-185-28.1-185-28.1l2 4.9 149 27.1z"/>
        <path id="path4475" d="M1282 447.2l-132-13.6 1 7 139 23.2s25 1.7 38-4.2c1-.4 12-5.1 13-9.5-1-3.5-18-6.7-27-8.4-45-8.2-180-13.7-180-13.7l2 4.3 146 14.9z"/>
        <path id="path4477" d="M1269 421.5l-132-2.1 1 6.9 141 11s25-.5 37-7.4c1-.5 12-6.1 13-10.6-2-3.4-19-5.2-28-6.1-46-4.2-180 2-180 2l2 4.1 146 2.2z"/>
        <path id="path4479" d="M1263 396.1l-132 8.6 2 6.7 141-.3s25-2.6 36-10.4c1-.6 11-7 12-11.6-2-3.2-19-3.7-28-3.8-46-.5-180 16.5-180 16.5l3 3.9 146-9.6z"/>
        <path id="path4481" d="M1254 371.6l-131 21.3 3 6.5 140-13.9s25-5 35-13.8c1-.7 11-8 11-12.7-2-3-19-1.9-29-1.1-45 4-177 33.7-177 33.7l3 3.6 145-23.6z"/>
        <path id="path4483" d="M1239 348.8L1110 379l3 6.3 140-23.4s24-6.7 33-16.1c2-.8 10-8.7 10-13.4-2-2.9-19-.7-28 .8-46 7.1-175 45.6-175 45.6l3 3.4 143-33.4z"/>
        <path id="path4485" d="M1224 328.7l-126 43.1 4 5.9 136-37.2s23-9.1 32-19.5c1-.8 9-9.6 8-14.3-2-2.6-19 1.3-28 3.6-44 11.7-169 62.9-169 62.9l3 3.1 140-47.6z"/>
        <path id="path4487" d="M1202 308.9l-122 54.6 5 5.6 132-49.9s23-11.2 30-22.3c1-1 8-10.5 7-15.1-3-2.3-19 3.1-27 6.3-44 15.8-163 78.4-163 78.4l4 2.8 134-60.4z"/>
      </g>
      <path id="path4489" d="M1191 287.3l-114 60.2 5 5.1 125-56.5s21-12.2 27-23.3c1-1.1 8-10.6 6-15-3-1.9-18 4.3-26 8-41 17.9-152 85.7-152 85.7l4 2.4 125-66.6z" stroke-width="4.34100008"/>
      <path id="path4491" d="M1173 273l-110 66.2 5 4.8 122-63.1s20-13.3 26-24.7c0-1.1 6-11 5-15.3-4-1.7-18 5.3-26 9.4-40 20.1-147 93.7-147 93.7l3 2.2 122-73.2z" stroke-width="4.34100008"/>
      <path id="path4493" d="M1154 261.7l-98 62.7 5 4.1 108-60.2s18-12.5 23-22.9c1-1 6-10.1 4-13.8-3-1.5-16 5.2-23 9.2-35 19.2-130 88.3-130 88.3l3 1.8 108-69.2z" stroke-width="4.5"/>
      <g id="g81" stroke-width="4">
        <path id="path4495" d="M1139 251.8l-78 55.1 4 3.2 87-53.5s14-11 17-19.6c1-.8 5-8.5 3-11.4-2-1.1-13 4.9-18 8.4-29 17.1-104 77.3-104 77.3l3 1.3 86-60.8z"/>
        <path id="path4497" d="M1121 246.9l-68 55.6 4 2.5 75-54.8s13-10.9 15-18.9c1-.9 4-8 2-10.6-2-.8-11 5.4-16 9-25 17.5-90 77.5-90 77.5l3 1 75-61.3z"/>
        <path id="path4499" d="M1093 250.8l-63 61 4 2.2 71-60.9s11-11.9 13-20.1c1-.9 3-8.2 1-10.7-2-.6-11 6.3-16 10.3-23 19.5-83 84.7-83 84.7l3 .8 70-67.3z"/>
      </g>
      <path id="path4501" d="M1082 241.2l-45 49 4 1.4 50-49.2s8-9.6 9-15.8c0-.7 2-6.4 0-8.1-2-.4-8 5.3-11 8.5-17 15.8-59 67.8-59 67.8l3 .4 49-54z" stroke-width="3.01259995"/>
      <g id="g87" stroke-width="4.61129999">
        <path id="path4503" d="M1285 814.5l-94-122.1-6 7.4 91 137.1s19 22.2 34 26.7c2 .6 15 5.6 20 2.5 2-4.4-8-21-14-30.4-29-45.2-133-161.4-133-161.4l-3 5.5 105 134.7z"/>
        <path id="path4505" d="M1259 833.3l-81-131.2-7 6.7 77 145.8s16 24.1 31 30.2c1 .8 14 7 20 4.6 2-4.2-6-21.8-11-31.8-24-48-116-174.3-116-174.3l-3 5.2 90 144.8z"/>
        <path id="path4507" d="M1233 855.2l-67-139-7 6 61 153s13 25.7 27 33.3c1 .9 14 8.4 19 6.6 3-3.9-3-22.3-7-32.7-19-50.3-97-185.5-97-185.5l-4 4.9 75 153.4z"/>
      </g>
      <path id="path4509" d="M1203 887.1L1144 735l-8 5.4 49 166.1s13 28.2 27 37.7c1 1 14 10.2 21 8.8 4-3.6-1-23.6-4-34.7-16-54.4-81-207.3-81-207.3l-10 8.2 65 167.9z" stroke-width="4.99370003"/>
      <path id="path4511" d="M1159 882.8l-45-156.9-9 4.6 35 170s9 29.2 23 40c1 1.1 13 11.5 20 10.7 4-3.3 0-23.7-1-35-11-55.6-62-213.9-62-213.9l-10 7.3 49 173.2z" stroke-width="4.99370003"/>
      <path id="path4513" d="M1121 885.6L1099 749l-8 3 14 146.9s5 25.5 15 35.8c1 1 9 11 14 10.9 4-2.4 3-20 2-29.8-3-47.9-31-186.3-31-186.3l-9 5.2 25 150.9z" stroke-width="4.08960009"/>
      <g id="g95" stroke-width="4">
        <path id="path4515" d="M1094 895.5l-14-108.4-7 2.1 6 116.2s4 20.3 12 28.8c1 .8 8 9 13 9 3-1.7 3-15.7 2-23.4-1-37.9-20-147.8-20-147.8l-8 3.8 16 119.7z"/>
        <path id="path4517" d="M1067 884.9l-10-109-6 1.8V894s3 20.5 11 29.4c0 .8 7 9.3 12 9.6 3-1.6 4-15.6 4-23.3 0-37.9-13-148.6-13-148.6l-9 3.4 11 120.4z"/>
        <path id="path4519" d="M1037 879.5l1-109.4-7 1.1-10 115.8s0 20.7 7 30.3c1 .8 7 10 11 10.7 4-1.2 6-15.1 6-22.8 5-37.6 2-149.1 2-149.1l-9 2.5-1 120.9z"/>
      </g>
    </g>
    <g id="g4691" fill="#ebebeb">
      <path id="path4523" d="M1174 734.8l-74-135.2-5 5.2 70 146.1s11 18.8 22 24.2c1 .5 11 6.2 15 4.4 2-3-4-17-7-24.6-16-37.9-98-169.5-98-169.5l-3 3.8 80 145.6z" stroke-width="3.53690004"/>
      <path id="path4525" d="M1184 708.9l-75-113.7-3 5.1 73 123.9s11 15.7 21 19.5c0 .3 9 4.4 13 2.5 1-3-5-14.9-9-21.5-17-32.2-99-141.9-99-141.9l-2 3.7 81 122.4z" stroke-width="3.08859992"/>
      <path id="path4527" d="M1203 695.5l-84-103-3 5.2 82 113.1s12 14.2 22 17c1 .2 10 3.4 13 1.3 1-3-6-14-10-20-20-29.6-108-128.3-108-128.3l-2 3.7 90 111z" stroke-width="3.00270009"/>
      <g id="g104" stroke-width="2.9309001">
        <path id="path4529" d="M1207 672.7l-89-93.9-2 5.4 88 103.9s13 12.9 23 14.7c1 .2 10 2.5 12 .2 2-3.1-6-13.2-11-18.9-21-27.2-116-116.3-116-116.3l-1 3.8 96 101.1z"/>
        <path id="path4531" d="M1207 641.1l-100-82.4-2 5.6 101 92.4s14 11.3 24 11.9c1 .1 10 1.3 13-1.3 0-3.2-9-12.3-14-17.4-24-24.4-129-101.5-129-101.5v3.9l107 88.8z"/>
        <path id="path4533" d="M1212 619.8l-105-74.6-2 5.8 108 84.4s15 10.1 25 10c0 .1 10 .6 12-2.2 0-3.3-9-11.7-15-16.4-26-22.4-136-91.3-136-91.3v3.9l113 80.4z"/>
        <path id="path4535" d="M1217 593.9l-113-62.5-1 5.9 116 72.1s16 8.4 26 7.2c1 0 10-.5 12-3.6 0-3.2-10-10.5-16-14.6-29-19.4-146-75.8-146-75.8v3.9l122 67.4z"/>
        <path id="path4537" d="M1215 564.3l-120-48.4v5.9l124 57.6s17 6.4 27 4c0 .1 10-1.7 11-4.9 0-3.3-11-9.3-18-12.6-31-15.8-153-57.7-153-57.7v3.8l129 52.3z"/>
        <path id="path4539" d="M1212 538.8l-124-38.9 1 5.9 128 47.8s17 5.1 27 1.9c0 .1 9-2.4 11-5.8-1-3.2-13-8.3-19-11.1-32-13.4-158-45.6-158-45.6l1 3.7 133 42.1z"/>
        <path id="path4541" d="M1204 511.2l-128-22.5 1 5.8 134 30.8s17 2.8 27-1.7c0 .1 9-3.6 10-7.1-1-3.1-14-6.7-21-8.6-33-9.1-162-24.7-162-24.7l1 3.6 138 24.4z"/>
        <path id="path4543" d="M1208 486.1l-130-7.4 2 5.6 136 15s18 .7 27-4.8c0 0 8-4.7 9-8.3-2-2.9-14-5.1-21-6.1-35-5.2-165-5.6-165-5.6l2 3.4 140 8.2z"/>
        <path id="path4545" d="M1205 466l-129 3.6 2 5.4 136 3.5s18-.9 26-7.1c1 0 9-5.4 9-9.1-1-2.8-14-3.9-21-4.3-34-2.3-164 8.4-164 8.4l2 3.2 139-3.6z"/>
        <path id="path4547" d="M1202 446.6l-129 15.3 2 5.2 136-8.7s18-2.6 26-9.5c1-.1 9-6.2 9-10-1-2.6-14-2.6-21-2.4-34 .8-164 23.3-164 23.3l2 3 139-16.2z"/>
        <path id="path4549" d="M1193 425.3l-127 29.5 2 5 134-23.8s18-4.5 26-12.4c0-.1 8-7.1 8-10.9-2-2.4-14-1.1-21-.1-34 4.6-161 41.4-161 41.4l2 2.8 137-31.5z"/>
        <path id="path4551" d="M1184 404.4l-124 39.9 3 4.8 131-34.9s18-6 25-14.5c0-.1 7-7.7 7-11.5-2-2.2-15 .1-22 1.7-33 7.4-156 54.6-156 54.6l2 2.6 134-42.7z"/>
        <path id="path4553" d="M1181 383.9L1061 433l3 4.5 128-44.6s17-7.3 23-16.3c1-.1 7-8.2 7-11.9-2-2.1-14 1.1-21 3.2-33 9.9-153 66.2-153 66.2l3 2.4 130-52.6z"/>
        <path id="path4555" d="M1170 366.4l-116 59.5 4 4.2 124-55.7s16-8.7 22-18.3c0-.1 5-8.7 5-12.3-3-2-14 2.3-21 5-32 12.7-146 79.3-146 79.3l3 2.1 125-63.8z"/>
        <path id="path4557" d="M1162 346.2l-112 66.5 4 4 120-63.2s16-9.7 21-19.7c0-.1 5-9 4-12.5-2-1.9-13 3.1-20 6.2-31 14.7-141 88.1-141 88.1l3 2 121-71.4z"/>
        <path id="path4559" d="M1146 330.7l-107 74.2 4 3.7 116-71.5s15-10.7 19-21.1c0-.1 4-9.3 3-12.7-2-1.8-13 4-20 7.6-29 16.8-134 97.7-134 97.7l4 1.8 115-79.7z"/>
      </g>
      <g id="g122" stroke-width="3">
        <path id="path4561" d="M1131 315.8l-100 83 5 3.3 109-81s14-12 17-22.7c1-.1 4-9.6 2-12.9-2-1.6-13 5.1-19 9.2-28 19.3-125 108.7-125 108.7l3 1.6 108-89.2z"/>
        <path id="path4563" d="M1128 297.7l-72 62.1 3 2.4 79-60.6s10-8.9 13-16.9c0-.1 3-7.2 1-9.6-1-1.2-9 3.8-13 6.9-21 14.4-91 81.2-91 81.2l3 1.1 77-66.6z"/>
        <path id="path4565" d="M1110 292.8l-66 68.3 3 2.1 73-67.4s9-9.8 11-18c0-.1 2-7.4 1-9.7-2-1-9 4.6-13 8.1-20 16.2-83 89-83 89l2 .9 72-73.3z"/>
        <path id="path4567" d="M1093 288.4l-60 70.7 4 1.8 66-70.3s9-10.2 10-18.3c0-.1 2-7.3 0-9.4-2-.9-8 5-12 8.7-18 17-75 92-75 92l3 .7 64-75.9z"/>
      </g>
      <path id="path4569" d="M1077 285.2l-49 72 3 1.4 55-72.2s7-10.3 8-18.1c0-.1 0-7-1-8.9-2-.7-7 5.5-11 9.4-14 17.5-60 93.2-60 93.2l2 .5 53-77.3z" stroke-width="2.80830002"/>
      <path id="path4571" d="M1064 280.8l-45 75 3 1.2 51-75.5s6-10.7 6-18.6c0-.1 1-7-1-8.8-2-.6-7 5.9-10 10-14 18.4-55 96.8-55 96.8l2 .4 49-80.5z" stroke-width="2.80830002"/>
      <path id="path4573" d="M1055 273.6l-34 64.5 2 1 39-65.1s5-9.2 5-15.8c0-.1 0-6-1-7.5-2-.5-6 5.1-8 8.7-11 15.9-42 83.2-42 83.2l2 .2 37-69.2z" stroke-width="2.31520009"/>
      <path id="path4575" d="M1151 749.9l-60-142.1-5 4.6 54 152.5s9 19.9 20 26.4c0 .6 10 7.3 14 5.9 3-2.7-2-17.3-4-25.1-13-39.5-80-178.7-80-178.7l-3 3.4 64 153.1z" stroke-width="3.53690004"/>
      <g id="g132" stroke-width="3">
        <path id="path4577" d="M1132 764.2l-42-128.1-5 3.7 37 136.8s6 17.8 15 24.3c0 .5 8 7 12 6.1 3-2.2 0-15.2-2-22.1-8-35.3-57-161.5-57-161.5l-3 2.8 45 138z"/>
        <path id="path4579" d="M1110 789.7l-25-132.4-5 3 18 140.4s4 18.5 13 26.1c0 .5 7 7.9 11 7.6 2-1.9 1-15.2 1-22.2-4-36.1-36-167.5-36-167.5l-4 2.4 27 142.6z"/>
        <path id="path4581" d="M1078 786.9l1-134.8-6 2-9 141.3s0 19 7 28c0 .5 5 9.1 9 9.6 3-1.4 5-14.6 6-21.6 3-36.2-3-171.3-3-171.3l-4 1.6-1 145.2z"/>
        <path id="path4583" d="M1054 787.6l11-134.3-6 1.5-19 140.3s-1 18.9 5 28.4c0 .5 4 9.5 8 10.3 3-1.2 6-14.2 7-21.1 6-35.9 10-171.1 10-171.1l-4 1.4-12 144.6z"/>
        <path id="path4585" d="M1032 786l11-96.6-6 1.1-19 100.9s-1 13.6 5 20.4c0 .4 5 6.9 8 7.4 3-.8 6-10.2 7-15.1 6-25.9 10-123.1 10-123.1l-4 1-12 104z"/>
      </g>
    </g>
  </g>
  <g id="g4740" transform="translate(623.73254 620.74952)">
    <g id="g3924">
      <path id="f" d="M169.5 958.8l24.8-494m-88.4 447.6l76.4-463.2M51.5 882.4l116.8-445.2M4.7 820l145.5-397.2M-42.9 775.2l162-344m67.2 24.8l-51.6 515.6c-8.4 43.4 39.2 58.4 66 31.4V462m-25.2-16L70.3 928c-7.6 37.2 30.4 62.4 57.2 35.2L187.1 462m-26.8-32.8L17.9 878.8c-3.6 46.4 12 56.8 47.2 48.4l110.8-483.6m-40.8-14.4l-165.6 404c-1.6 30.8 6 56 44.8 43.6l146-446m-56 1.2L-80.9 785.6c-1.6 30.8 10.4 56 49.2 43.6L129.5 442" fill="#fff" stroke="#000" stroke-width="6"/>
      <use id="use5172" xlink:href="#f" transform="matrix(-1 0 0 1 407.8 0)" height="414.10001" width="416.60001" y="0" x="0"/>
    </g>
  </g>
  <path id="path4049" d="M512.73254 1025.0495l256.3 10-32 40 46.3-13 85.8-3 47.2 12-24.1-42 253.09986-24-5-64.69998s-28-65.3-76-66.1c-48-.9-405.39986-33.5-405.39986-33.5s-64.4 32.6-77.2 35.2c-12.9 2.6-61 27.5-63.5 71.2l-5.5 77.89998z" fill="#e2b20f" stroke="#000" stroke-width="11"/>
  <path id="path4045" d="M622.53254 971.74952l19.4-12.7-40-14 52.8-12.1h-22.5l-12.7-9.1 3-18.2 40.6 5.4 18.2-25.5-13.9-10.3 15.2-13.9 5.4 16.3 21.3 24.9-18.9 19.4-19.4-18.8-3 8.5 23.7 10.9-17.6 12.2-3.7 6.1-34 1.2 35.2-2.5 10.4 9.1 29.1-.6 1.2 12.2-29.1-4.3-15.8 7.3-44.9 8.5z" fill="none" stroke="#000" stroke-width="3"/>
  <g id="g145" transform="translate(-2.6674549 .04951872)">
    <path id="path4043" d="M613.3 721.6c-123.6-130.4-116.7-327.9 8.6-427.4l50.4-.8M1042 722.5c123-130.4 117-327.9-9-427.4l-35.9-1.7" fill="#f9f9f9" stroke="#000" stroke-width="9"/>
    <path id="path4200" d="M1090 484.8c-1-.7-48-83.6-48-83.6l15-6.3 2-6.1-23-9.1 21-4.8-37-13.2 27-2.2-30-10.3 23-.3-22-11.4 13-.2-15-10.8 9-5.6-26.4-11.7 19.4-1.2-28.5-16.3-16 1s20.5 28.4 15.1 40l-32.7-26.4c6.8 8 33.5 46.2 33.5 46.2s-23.9-27.3-39.5-35.3c8 15.5 13.6 34 23.6 48-14.4-7.5-21.6-22-35.6-30 8.8 15 19.2 35 30.8 47.5-14.8-6.5-26.8-23-38.4-34 3.2 19 11.2 36 22 50.4-20-5.4-22.4-29.4-34-44.9 4 20.5 7.6 46.5 18 64.9-14-12.8-18-35.4-28.4-50.9 0 22.5 1.2 38.9 10.4 58.5-10.8-14-22.4-42.6-24.4-59.2 3.6 15.5 5.6 49.2 15.6 64.8-14-15.2-26.4-33.8-31.2-53.4-4.8 24.6 8.4 47.4 14.4 71-9.2-19.2-16.8-38.8-22.4-59.2-2 14 .8 34.8.8 34.8 3 7 39.4 69.3 70.6 100.5l24.1 55.2c15.9 28.3 17.3 168 13.9 208.1l41.3 40.1c-11-51.7 33-128.7 42-140.1l-8-12.5 13 3.7-5-14 16 2.8-16-21.6 22 10-16-23.2 22 12-14-27.2 21 17.2-19-36 23 14-22-34.8 25 13.6s-18-24.8-26-38c7 5.2 22 15.2 22 15.2s-19-26-23-41.6c9 8.4 17 17.6 25 26-8-14.4-24-44.4-24-44.4l20 16.4s-8-18.1-15-30.1c7 6.4 10 6.9 17 12.9-4-14.4-10-24.2-11-24.9zm-48-83.6c-42.5 41.5-85.9 80.7-100.3 124.8m65.3 277s7 .6 7-2.1-6-4.3-6-7.1 5-3.1 5-3.1-5 .3-5 3.1c0 2.8 6 4.4 6 7.1 0 2.7-7 2.1-7 2.1zM758.7 442.6v10.1l5.6-9.3-5.6 9.6 7.3 7.5-7.3-7.3v7M626.2 345.8l21.9-8.7-17.5-2.9 27-7-16.5-3.5 28.4-9-19.1-2 29.7-9.2 3.4-4-13.2 37.4c14.4-11.6 28.8-23.6 46.4-30.6-10 14.6-22.8 27-33.6 40.5 14.8-6.9 29.6-14.9 44.4-22.9-9.6 15-20.8 28.1-33.2 40.9 14.8-6.4 28-16 40.4-25.9-5.2 17.9-18 31.1-30 43.9 20-4 30-22.8 39.6-38.4-1.6 20-12 36.8-20.8 54.4 12.4-11.6 21.2-25.6 33.2-37.6-2.4 16.8-8.8 31.2-14.4 46.7 8.4-10.7 15.2-21.5 23.2-31.9-3.6 16.4-8 32.3-11.2 48.7 11.2-16.4 21.2-34.3 22-54.3 1.2 0 3.2.4 4.4.4 2 23.2-2.8 46.3-10 67.9 7.6-14 16-28.8 18-44.7 7.2 5.2 8.6 22.5 8.6 22.5-15.9 35.7-60.2 93.4-79.5 116.2-17.1 29.7-18.9 40.1-24 56.5-9.8 24.8-13.9 152.1-10.4 192.2l-39.9 38.1c10.2-51.7-25.6-95-34-106.4l7.7-10.9-13.8 1.5 7.7-13.7-17.6 3.1 16.9-20.7-23.3 9.1 16-23.2-22 12 14-27.2-20.8 17.2 18.8-36-23.2 14 22.4-34.8s-16.8 9.6-24.8 13.6c8.4-12.4 18-24.8 26-38-7.6 5.2-22 15.2-22 15.2s18.8-26 22.4-41.6c-8.4 8.4-16.8 17.6-24.8 26 8-14.4 16.8-29.2 24.4-44.4l-20.4 16.4 19.2-35.6-21.2 18.4 15.6-29.2-14.4 9.2 22-35.8-18.9 14.2 16.7-27 9.3-45.4-5-.5 9.9-7.9-15.7-1.3 24.2-14-16.4 1.4 36.7-42.2 3.8-6.1-12.7-3.1z" fill="#000" stroke="#000" stroke-width="1" stroke-opacity="1"/>
    <path id="path4037" d="M1179 330.6c-4 12.7-88 154.5-180.6 218.9-11.9 2.2-27.7-10.9-28.3-11.4-.5-.5-10.6-25.1-8.8-32.1C1028 411.8 1166 334.5 1179 330.6z" fill="#f4f4f4" stroke="#fff" stroke-width="27" stroke-linecap="round" stroke-linejoin="round"/>
  </g>
  <path id="path4047" d="M1035.3324 971.74952l-19-12.7 40-14-53-12.1h23l12-9.1-3-18.2-40.29986 5.4-18.2-25.5 12.2-6.1-15.2-13.9-1.9 13.3-23 23.7 18.8 19.4 19.4-18.8 3.1 8.5-23.7 10.9 17.6 12.2 3.6 6.1 33.59986 1.2-34.79986-2.5-10.3 9.1-29.1-.6-1.2 12.2 29.1-4.3 15.8 7.3 44.49986 8.5z" fill="none" stroke="#000" stroke-width="3"/>
  <g id="g3928" transform="matrix(-1 0 0 1 901.03254 741.74952)">
    <path id="path3930" d="M-67.73-207.3L329.1 184.4" stroke-miterlimit="3.79999995" fill="none" stroke="#fff" stroke-width="55"/>
    <path id="path3932" style="text-indent:0;text-transform:none;block-progression:tb" d="M-56.93-207.3l-11.28 11.6L318.4 188.2l11.2-11.5-386.53-384.1v.1z" color="#000" fill="#debf40" stroke="#000" stroke-width="8"/>
  </g>
  <g id="g154" transform="translate(-2.6674549 .04951872)">
    <ellipse id="path3650" rx="5.8720002" ry="4.0320001" transform="matrix(3.522 0 0 4 96.1 -8.17)" cy="15.61" cx="195.2" fill="#c5bea1"/>
    <path id="path4915" d="M543.5 317.9c-24.8 2.7-55.2 7.6-71.2 28.4-26.4 50.4-16.8 120.8 33.2 153.2 19.6 3.2 12.4-26.4 24-37.2 7.2-14 21.2-20 34.8-25.2-42-86.6-17.2-28.4 22.8-26.4.8 0-2.4-14.8 12.8-19 12.8-12.2 37.2-8.9 46-22.6-18-32.9-64.8-53.2-102.4-51.2z" fill="#fff" stroke="#fff" stroke-width="6.80000019" stroke-linecap="round" stroke-linejoin="round"/>
    <ellipse id="path5174" rx="3.0369999" ry="2.375" transform="matrix(3.981 0 0 4.42 -.2 -11.97)" cy="15.17" cx="195.3" fill="#e59c03" stroke="#715500" stroke-width=".60000002" stroke-linecap="round" stroke-linejoin="round"/>
  </g>
  <use id="use5061" xlink:href="##f8c933ff" transform="matrix(4 0 0 4 -1.1674549 -.41998128)" height="414.10001" width="416.60001" y="0" x="0"/>
  <use id="use5063" xlink:href="##f8c933ff" transform="matrix(4 0 0 4 -1.1674549 -.41998128)" height="414.10001" width="416.60001" y="0" x="0"/>
  <use id="use5065" xlink:href="##f8c933ff" transform="matrix(4 0 0 4 -1.1674549 -.41998128)" height="414.10001" width="416.60001" y="0" x="0"/>
  <g id="g162" transform="translate(-2.6674549 .04951872)" fill="none" stroke="#000" stroke-width="4" stroke-opacity="1">
    <path id="path5117" d="M811.9 131.1s19.2 26.3 20.8 49.1c1.2 22.8-1.2 64.5-1.2 64.5"/>
    <path id="path5119" d="M823.9 123.2c0 1.9 18.8 30.7 23.2 61.9 4.4 31.3 6.4 86.8 6.4 86.8"/>
    <path id="path5121" d="M835.9 83.53s23.6 4 33.2 63.97c10 60 12.4 105.1 12.4 105.1"/>
    <path id="path5123" d="M831.5 62.23s24.4 11.4 47.2 63.87c22.8 52.6 24.8 106.6 24.8 106.6"/>
  </g>
  <g id="g168" transform="translate(-2.6674549 .04951872)">
    <path id="path5125" d="M682.1 46.43S737.2-.87 784.4.53c52.1 1.5 104.3 50.5 120.1 97.4 14.4 28.07 35 70.47 57.7 135.77 11.5 32.9 41.8 58 41.8 58l34-3.7 14-17.4-10 26.6-67.5-2.2s-14.1-21.8-23.8-51c-10.2-30.4-54.5-150.87-54.5-150.87-8.4-15.9-32-51.7-72.7-75.5-27.2-13-65.8-23.4-141.4 28.8z" stroke="#000" fill="#000" stroke-opacity="1"/>
    <path id="path3648" d="M784.3 96.33l-17.6-20.8s-19.5-8.82-43.5-12.14c-12.6-18.01-27-24.16-39.7-23.04-33.4 14.89-54.5 37.57-53.6 52.78 0 0-2.8 18.57 8.4 33.97l14-21.7 18.4 11.9 113.6-20.97z" fill="#eac930"/>
    <circle id="path5176" transform="matrix(4 0 0 4 2.4 -2.27)" cy="13.93" cx="192.8" fill="url(#e)" r="2.355"/>
    <path id="path4458" d="M529.5 389.6l29.6 41.5c-21.2 2-42.8 27.6-47.2 60.4-79.2-57.6-28.8-146.7-28.8-146.7s83.2-57.5 157.2 23.1c-19.2 2.8-56 15.4-65.2 42l-8-1.4" fill="#949494" stroke="#000" stroke-width="6.80000019" stroke-linecap="round" stroke-linejoin="round"/>
    <path id="path4460" d="M509.9 349.7c29.6-31.2 86.4-13.8 97.2 10.5-20.8-11.9-67.6-19.7-97.2-10.5z" fill="#f4f4f4"/>
  </g>
  <g id="g175" transform="translate(-2.6674549 .04951872)" fill="none">
    <g id="g177" stroke-width="4" stroke="#000">
      <path id="path4928" d="M792.7 27.63c-19.2.9-36.4 10.4-49.2 23.5m148 75.77c-8-23.9-24.4-45.37-41.2-63.87-12.8-12.4-27.6-23.8-43.6-32.6" fill="none" stroke-opacity="1"/>
      <path id="path4930" d="M723.9 36.73s35.2-21.4 54.8-21.8c25.2-.6 50 11 71.2 24.8 8 5.3 19.6 21.3 19.6 21.3" fill="none" stroke-opacity="1"/>
      <path id="path4932" d="M782.3 97.12c-37.2 4.08-92.4 13.98-112.4 19.68l-16-10.7"/>
    </g>
    <path id="path4936" d="M649.1 86.33s10-19.65 19.6-25.8c9.6-6.15 30.1-14.67 30.1-14.67l2 .92c-2.9 0-17.6 6.28-17.6 6.28" stroke="#403000" stroke-width="2.79999995"/>
    <path id="path3638" d="M721.5 108.7c24.4 16.4 32.4 47.6 32.4 75.6" stroke="#000" stroke-width="4" fill="none" stroke-opacity="1"/>
  </g>
  <path id="path3642" d="M670.03254 310.94952l-7.2-16.2c26.8-28.2 55.2-69.1 67.6-124.5-2-21.7-2.4-27.7-33.2-59.2 76.4 30.9 23.2 167.6-27.2 199.9z" stroke="#000" stroke-width="4" fill="#000"/>
  <g id="g185" transform="translate(-2.6674549 .04951872)" fill="none">
    <path id="path3644" d="M672.7 90.03l99.2-7" stroke="#5e3c00" stroke-width="2"/>
    <path id="path3646" d="M688.7 66.13l-4-.16-.1 2.53 4.1-2.37z" stroke="#000" stroke-width="2.79999995" stroke-linejoin="round"/>
    <path id="path3654" d="M699.6 88.76s21.6 1.73 32.4 3.52c10.2 1.71 28.2 5.53 28.2 5.53" stroke="#462e00" stroke-width="2"/>
    <path id="path3656" d="M781.9 97.03s-5.7-12.61-16.2-22.5c-11.8-3.19-39.8-11.2-39.8-11.2" stroke="#000" stroke-width="1.60000002"/>
  </g>
  <g id="g191" transform="translate(-2.6674549 .04951872)" stroke="#000" stroke-width="4">
    <path id="path4081" d="M375 1239s-71.1 13-77.2 22c0 0 51 8 53.4 26 2.5 19-65.7-12-90.1-9-24.3 3-70 22-77.3 41-7.3 19 11.6-60 88.9-95-15.2-24-89.5-21-89.5-21s41.5-42 110.3-36l1.1 93 .3-107 160.6-12 55.8 19c22.6 17 39.6 41 37.8 53-1.8 12-175.3 25-174.1 26z" fill="url(#b)" stroke="#000" stroke-opacity="1"/>
    <path id="path4935" d="M1323 1286v-45l72 16-72 29z" fill="#000"/>
    <path id="path4093" d="M1301 1238s72 14 78 23c0 0-51 7-54 26-2 19 66-12 90-9 25 3 70 22 78 41 7 18-12-61-89-96 15-23 89-21 89-21s-41-42-110-36l-1 94v-108l-161-12-56 20c-22 17-39 40-38 53 2 12 176 25 174 25z" fill="url(#c)" stroke="#000" stroke-opacity="1"/>
  </g>
  <g id="g4923" transform="translate(623.73254 620.74952)">
    <path id="path4920" d="M-187.2 820.6c32.3 3.8 45.1-57.2 57.6-96.8L-245.2 744c6.3 45.6 42.2 74.7 58 76.6z" fill="#000" stroke="#000" stroke-width="1"/>
    <path id="path4918" d="M-174.9 752.9c12.3 19.2 13.2 42.9 1.9 53.2-11.3 10.3-30.3 3-42.7-16.1-12.3-19.2-30.3-55.6-19-65.8 11.3-10.3 47.4 9.6 59.8 28.7z" fill="#fecf39"/>
  </g>
  <g id="g4927" transform="matrix(-1 0 0 1 1047.3325 620.74952)">
    <path id="path4929" d="M-187.2 820.6c32.3 3.8 45.1-57.2 57.6-96.8L-245.2 744c6.3 45.6 42.2 74.7 58 76.6z" fill="#000" stroke="#000" stroke-width="1"/>
    <path id="path4931" d="M-174.9 752.9c12.3 19.2 13.2 42.9 1.9 53.2-11.3 10.3-30.3 3-42.7-16.1-12.3-19.2-30.3-55.6-19-65.8 11.3-10.3 47.4 9.6 59.8 28.7z" fill="#fecf39"/>
  </g>
  <use id="use3112" xlink:href="#n" transform="matrix(-1 0 0 1 1660.6649 0)" height="1656" width="1666" y="0" x="0"/>
  <path id="path4012" d="M470.13254 1162.0495l-59.6-76c84.2-78 214.6-131.79998 351.3-124.79998l-1.4 89.79998c-135.3-5-236.3 60-290.3 111z" fill="#fff" stroke="#000" stroke-width="9"/>
  <path id="path4006" d="M557.33254 911.84952l29.7 32.8-122 105.39998-14.9-9 107.2-129.19998z" fill="#1d1d1d" stroke="#fff" stroke-width="17" stroke-linejoin="round"/>
  <g id="n" transform="translate(-2.6674549 .04951872)" stroke="#000">
    <g id="g4209" transform="matrix(-1 0 0 1 1039 620.1)">
      <path id="path4211" d="M-22.38 458.9s20.658 29.2-3.45 51.6c-24.1 22.4-109.67 26.2-145.87 46.9s-53.9 37.5-53.9 37.5l15.5 10.3-13.3 11.2-15.9-6v-31s-10.4 13.8-20.7 8.6c-10.3-5.2-18.9-18.9-32.7-31-13.8-12-18.9-12-18.9-12 7.1-9.8 16.8-20.8 8.6-32.8v-5.1s12 0 17.2-10.4c5.1-10.3-.1-12.4-.1-12.4s8.2-7.9 20-8.7c13.6-.9 18 10.8 18 10.8s15 29.7 32.2 31.4c17.3 1.8 34-6.4 34-6.4l159.32-52.5z" fill="#fdc238" stroke-width="9"/>
      <g id="g4213" fill="none">
        <g id="g209" stroke-width="3">
          <path id="path4215" d="M-250.1 563.9l-46.1-54.7"/>
          <path id="path4217" d="M-244.5 553.6l-34.9-59.9"/>
          <path id="path4219" d="M-183.8 526.9s-1.5 5.8-.9 8.6c.6 2.6 4.3 6.9 4.3 6.9"/>
          <path id="path4221" d="M-202.7 531.6s-1.5 5.8-.9 8.6c.6 2.6 4.3 6.9 4.3 6.9"/>
          <path id="path4223" d="M-296.3 544.3s5.2-3 6.8-5.3c1.5-2.3 2-7.9 2-7.9"/>
          <path id="path4225" d="M-286.4 552.9s5.2-3 6.8-5.3c1.5-2.3 2-7.9 2-7.9"/>
          <path id="path4227" d="M-273.9 563.2s5.2-3 6.8-5.3c1.5-2.3 2-7.9 2-7.9"/>
          <path id="path4229" d="M-261.8 509s5.2-3 6.8-5.3c1.5-2.3 2-7.9 2-7.9"/>
          <path id="path4231" d="M-255.8 519.3s5.2-3 6.8-5.3c1.5-2.3 2-7.9 2-7.9"/>
          <path id="path4233" d="M-298.4 508.1s5.2-3 6.8-5.3c1.5-2.3 2-7.9 2-7.9"/>
          <path id="path4235" d="M-285.9 517.6s5.2-3 6.8-5.3c1.5-2.3 2-7.9 2-7.9"/>
          <path id="path4237" d="M-277.7 529.2s5.2-3 6.8-5.3c1.5-2.3 2-7.9 2-7.9"/>
        </g>
        <path id="path4239" d="M-47.59 497.8s9.42-6.3 11.49-11.2c2.23-5.3-.1-17.2-.1-17.2" stroke-width="5"/>
      </g>
    </g>
    <path id="path4245" d="M1340 1124c-3-1-13-4-15-14 0 0 13-16 28-16 16 1 19 28 19 28s-7-11-16-11c-8 0-16 13-16 13z" fill="#141414" stroke-width="1"/>
    <path id="path4247" d="M1348 1156c-3-1-10-6-10-15 0 0 15-11 28-7 14 4 10 28 10 28s-3-11-11-13-17 7-17 7z" fill="#141414" stroke-width=".88690001"/>
  </g>
  <g id="g3916" transform="translate(623.73254 620.74952)">
    <path id="path3875-5" d="M-62.67-201.6L617.7 466" stroke-miterlimit="3.79999995" fill="none" stroke="#fff" stroke-width="55"/>
    <path id="path3875" style="text-indent:0;text-transform:none;block-progression:tb" d="M-68.21-195.7L612 471.8l11.2-11.5-680.13-667.7" color="#000" fill="#debf40" stroke="#000" stroke-width="8"/>
  </g>
  <g id="g229" transform="translate(-2.6674549 .04951872)" stroke="#000">
    <path id="path4014" d="M1195 1161l60-76c-84-77-215-131.5-351.6-124.5l1.4 89.5c135.2-5 236.2 61 290.2 111z" fill="#fff" stroke-width="9"/>
    <path id="path3934" d="M853.3 44.83s24.4 11.4 47.2 63.87c22.8 52.6 40.2 103.6 40.2 103.6" fill="none" stroke-width="4"/>
    <ellipse id="path3965" rx="9.4209995" ry="14.38" transform="matrix(.9982 -.9387 .9723 .9614 327.6 563.6)" cy="318.39999" cx="-64.959999" fill="#9d9d9d" stroke-width="2.1803" stroke-linecap="round" stroke-linejoin="round"/>
  </g>
  <g id="g4026" transform="rotate(-1.146 33330.96434151 -32359.49461423)">
    <g id="g3960">
      <path id="path4458-9" d="M370.9-75.96c-11.9 1.98-26.6-8.8-26.6-8.8L555.8-288.7c-4.2 12.6-91.1 150.1-184.9 212.74z" fill="#949494" stroke="#000" stroke-width="7.08659983" stroke-linecap="round" stroke-linejoin="round"/>
    </g>
    <path id="path3958" d="M334.5-113.1c-2 6.9 8.7 27.34 8.7 27.34L554.6-289.2c-12.8 3.7-151.6 83.1-220.1 176.1z" fill="#f4f4f4" stroke="#000" stroke-width="7.08659983" stroke-linecap="round" stroke-linejoin="round"/>
  </g>
  <path id="path4934" d="M740.43254 68.709519l-22.6-4.9s-39.5 17.61-52.6 25.47c-14.8 8.9-28 37.670001-28 37.670001s-15.6-25.8-8.8-42.570001c6.8-16.9 48-50.1 64.8-43.1 16.8 6.9 30 23.09 30 23.09" fill="none" stroke="#000" stroke-width="3.20000005"/>
  <path id="rect4942" d="M364.73254 1248.0495c206.5-43 688.59986-65 943.59986-1l-27 138c-261-83-689.69986-56-898.99986 3l-17.6-140z" fill="#ffc536" stroke="#000" stroke-width="10" stroke-linecap="round" stroke-linejoin="round"/>
  <path id="path4986" d="M413.33254 1345.0495c227-37 593.99986-35 837.99986 2" fill="none" stroke="#ffc435" stroke-width="1"/>
  <path id="path4988" d="M473.33254 1136.0495c68-64 158.3-99 257.2-100" fill="none" stroke="#fff" stroke-width="1"/>
  <path id="path4998" d="M612.53254 1147.0495c167 63 331.8 38 436.79986-1" fill="none" stroke="#fff" stroke-width="1"/>
  <g id="g4979" transform="matrix(5 0 0 5 40.332546 -24.220481)" stroke="#000" stroke-width="4">
    <path id="path4981" d="M157.7 226.6c13.9-27.1 28.1-23.6 28.1-75.1 0-51.4-9.1-30-28.1-75.02-19 45.02-28.1 23.62-28.1 75.02 0 51.5 14.2 48 28.1 75.1z" fill="#f6c82b" stroke="#000" stroke-width="4"/>
  </g>
  <g id="g3074" transform="translate(-2.6674549 .04951872)">
    <g id="g254">
      <g id="g3920" transform="matrix(5 0 0 5 43.3 -24.27)" stroke="#fff" stroke-width="3">
        <path id="path3922" d="M157.7 226.6c13.9-27.1 28.1-23.6 28.1-75.1 0-51.4-9.1-30-28.1-75.02-19 45.02-28.1 23.62-28.1 75.02 0 51.5 14.2 48 28.1 75.1z" fill="#f6c82b" stroke="#fff" stroke-width="3"/>
      </g>
      <g id="g3782" transform="matrix(5 0 0 5 43.3 -24.27)" stroke="#000" stroke-width=".34020001">
        <path id="path3784" d="M157.7 226.6c13.9-27.1 28.1-23.6 28.1-75.1 0-51.4-9.1-30-28.1-75.02-19 45.02-28.1 23.62-28.1 75.02 0 51.5 14.2 48 28.1 75.1z" fill="#f6c82b" stroke="#000" stroke-width=".34020001"/>
      </g>
      <ellipse id="l" cx="207.89999" cy="125" rx="3.1559999" transform="translate(-112.3 -68.87) scale(4.548)" ry="5.434"/>
    </g>
    <use id="use3630" xlink:href="#l" transform="translate(-56.7 412.1) scale(1.068)" height="414.10001" width="416.60001" y="0" x="0"/>
    <path id="k" d="M832.7 1110V787.9" fill="none" stroke="#000" stroke-width="6.4000001"/>
    <ellipse id="path4010" cx="204.8" cy="-325.70001" rx="10.52" transform="translate(627.8 620.7)" ry="25.25" fill="url(#d)" stroke="#000" stroke-linecap="round" stroke-linejoin="round"/>
    <use id="use3636" xlink:href="#k" transform="translate(-1.1 -469.6)" height="414.10001" width="416.60001" y="0" x="0"/>
    <ellipse id="path78" cx="207.60001" cy="179" rx="5.96" transform="matrix(7.617 0 0 7.446 -749.6 -618.3)" ry="10.7" fill="#010305"/>
    <g id="g266" fill="#fff">
      <path id="path3658" style="text-indent:0;text-transform:none;block-progression:tb" d="M834.9 315.1v161.2l1.6.4c2 .4 4.4 3.2 5.6 7.6 1.6 4.4 2.4 10 2.4 16 0 5.6-.8 11.2-2.4 15.6-1.2 4.4-3.4 6.4-5.6 7.6l-1.6.4V922.7l1.6.4c2 .4 4 3.2 5.6 7.2 1.6 4 2.4 9.2 2.4 14.8 0 5.2-1.2 10.8-2.4 14.8-1.6 4-3.6 6.4-5.6 6.8l-1.6.4V1109h4V969.5c3.2-1.6 5.6-4.4 6.8-8.4 1.6-4.8 2.8-10.4 2.8-16 0-6-.8-11.6-2.8-16.4-1.2-4-3.6-6.8-6.8-8.4v-394c3.2-1.6 5.6-4.8 7.2-9.2 1.6-4.8 2.4-10.8 2.4-16.8 0-6.4-.8-12.4-2.4-17.2-1.6-4.4-4-7.6-7.2-9.2V315.1h-4z" color="#000" stroke="#000" stroke-width="1.39999998"/>
      <path id="path3963" style="text-indent:0;text-transform:none;block-progression:tb" d="M829.5 315.1v161.2l-1.6.4c-2 .4-4.4 3.2-5.6 7.6-1.6 4.4-2.4 10-2.4 16 0 5.6.8 11.2 2.4 15.6 1 3 4.2 6.1 7.2 8v398.8l-1.6.4c-2 .4-4 3.2-5.6 7.2-1.6 4-2.4 9.2-2.4 14.8 0 5.2 1.2 10.8 2.4 14.8 1.6 4 3.6 6.4 5.6 6.8l1.6.4V1109h-4V969.5c-3.2-1.6-5.6-4.4-6.8-8.4-1.6-4.8-2.8-10.4-2.8-16 0-6 .8-11.6 2.8-16.4 1.2-4 3.6-6.8 6.8-8.4v-394c-3.2-1.6-5.6-4.8-7.2-9.2-1.6-4.8-2.4-10.8-2.4-16.8 0-6.4.8-12.4 2.4-17.2 1.6-4.4 4-7.6 7.2-9.2V315.1h4z" color="#000" stroke="#000" stroke-width="1.39999998"/>
      <ellipse id="path3867" cx="207.60001" rx="5.96" cy="179" transform="matrix(6.743 0 0 6.592 -567.6 -465.3)" ry="10.7"/>
    </g>
    <g id="g271">
      <ellipse id="path3869" cx="207.60001" cy="179" rx="5.96" transform="matrix(5.928 0 0 6.101 -398.6 -377)" ry="10.7"/>
      <ellipse id="path3871" cx="207.60001" rx="5.96" cy="179" transform="matrix(4.832 0 0 5.249 -171 -224.5)" ry="10.7" fill="#f6c82b"/>
      <ellipse id="path3873" cx="207.60001" cy="179" rx="5.96" transform="matrix(3.168 0 0 3.644 174.4 62.83)" ry="10.7"/>
    </g>
  </g>
  <path id="path4018" d="M615.83254 1064.0495l-9.2 98c106.9 41 325.9 52 450.69986-5l-7-88c-122.99986 70-354.49986 46-434.49986-5z" fill="#fff" stroke="#000" stroke-width="9"/>
  <g id="g279" transform="translate(-2.6674549 .04951872)">
    <path id="rect5055" d="M1045 1056l22 8-3 9c-3-1-20-7-22-8l3-9z" fill="#fff"/>
    <path id="path5059" d="M626.1 1051l-22 8 4.2 13c3.3-1 20-7 22.3-8l-4.5-13z" fill="#fff"/>
    <g id="text3076" transform="translate(-1053 613.2)">
      <path id="path3093" d="M1521 470c-3-3.8-3-4.9 1-8.8l-1-1-15 12.9 1 1c5-3.4 6-3.3 9 .5l21 24.2c2 2.3 2 4 1 5.1-1 .7-1 .5-3-.5-2-1.3-4-1.5-5-.3s-1 3.4 0 4.8c2 2.2 5 1.9 8-.7 6-4.9 6-11.4 0-17.9l-17-19.3"/>
      <path id="path3095" d="M1566 440c-4-5.8-4-7.1 1-10.9l-1-1.1-13 9.1v1.1c5-2.7 7-2.1 11 3.6l10 15.3c3 3.8 4 6.3 4 8.6 1 3.8-2 8-6 11-4 2.8-8 3.3-11 1.7-2-1.1-4-2.9-7-6.5l-12-18.1c-3-4.1-3-5.2 1-8.7V444l-16 11.1v1.1c5-2.7 6-2.5 9 1.6l12 17.7c7 9.8 15 11.3 25 4.6 6-4.3 9-9.2 8-14.6 0-3.3-1-6.3-4-10.7l-11-14.8"/>
      <path id="path3097" d="M1599 409.5l-1 .7c0 1.5 0 2.5-1 3.1-1 .3-2 .6-3 .7-3 .3-6 1-7 2-3 1.3-5 3.8-6 6.6-2 3-1 6.2 0 9.3 3 4.9 7 7 16 7 6 .1 10 .9 13 2.5 1 .5 2 1.6 3 3.1 2 4.1 0 8.5-4 10.8-6 2.8-11 1.5-18-4.4l-2 .7 9 12 1-.7c0-1.2 0-2.4 1-2.9 1-.3 2-.6 3-.8 3-.3 6-1.1 8-2.3 7-3.7 10-11.4 7-17.7-3-5-8-7.2-19-7.4-8-.2-12-1.5-14-4.9-1-3.3 0-7 4-9 3-1.4 6-1.6 9-.5 3 1 5 2.2 8 5.3l1-.8-8-12.4"/>
      <path id="path3099" d="M1628 401.2l13 32.2c2 5.5 1 6.5-4 8.8v1.3l19-7.2v-1.2c-6 1.8-7 1.3-9-3.5l-12-32.9 3-1.3c8-2.8 10-2.2 14 4.3l1-.6-4-10.8-37 13.8 4 11.1 2-.6c-1-7.6 0-9.4 7-12.1l3-1.3"/>
      <path id="path3101" d="M1672 423.5c2 5 1 6-4 7.8v1.2l20-5.4-1-1.3c-5 1.3-7 .7-8-4.2l-8-29.5c-1-4.9-1-6 5-7.8l-1-1.2-19 5.4v1.3c6-1.3 7-.7 8 4.2l8 29.5"/>
      <path id="path3103" d="M1725 388.3l-3-15.3-1 .3c0 1.5-1 2.5-3 2.7 0 .1-1 .1-3-.1-3-.5-7-.5-10 .1-5 1-11 4.1-14 8.5-4 5.1-6 11.9-4 19.3 1 6.4 4 11.8 8 15.1 5 3.7 12 5.2 18 4 8-1.3 14-5.7 17-11.9l-1-1c-4 5.7-8 8.5-14 9.5-4 .8-8 .1-12-2-4-2.6-7-8.4-9-15.9-2-12.3 3-21.4 13-23.1 4-.7 8 .1 11 2.3 2 1.8 4 3.6 6 7.7l1-.2"/>
      <path id="path3105" d="M1774 404.4l-2 .1c-3 7.7-5 9.5-15 10.1l-2 .1c-3 .2-6 0-7-.5v-2.1l-1-17 10-.6c6-.3 7 .5 8 6.2l2-.1-1-16-2 .1c0 2.8 0 3.9-1 4.9-1 1.2-3 1.9-6 2.1l-11 .6-1-15.3c0-1.9 1-2.4 3-2.5l9-.5c8-.5 9 .5 11 6.6l2-.1-1-9.8-37 2.1v1.3c5 .1 6 1 7 5.9l1 30.5c1 4.9 0 6-5 6.6v1.3l37-2.2 2-11.8"/>
    </g>
  </g>
  <g id="g3080" transform="translate(-2.6674549 .04951872)">
    <path id="path3082" d="M931.1 1028c129.9 12 168.9 31 268.9 102" fill="none" stroke="#fff" stroke-width="1"/>
    <g id="text3084">
      <path id="path3108" d="M970.5 1020c-1.4 3-2.5 4-3.6 5-2.6 3-6.4 3-11.9 3l-4.5-1c-4.8 0-5.7-1-5.4-3l3.4-31.6c.5-4.7 1.5-5.5 6.8-5.3l.2-1.3-18.8-2-.2 1.3c4.9.9 5.7 1.9 5.2 6.6l-3.2 29.3c-.5 5-1.5 6-6.4 6l-.2 1 35.9 4 4.4-11-1.7-1"/>
      <path id="path3110" d="M980.4 1026c-.7 5-1.7 6-7.3 5l-.2 1 19.7 3 .2-1c-5.4-1-6.4-2-5.7-7l4.2-29.4c.7-4.8 1.7-5.5 7.3-5l.2-1.3-19.7-2.8-.2 1.3c5.6 1.1 6.3 2 5.6 6.9l-4.1 29.3"/>
      <path id="path3112" d="M1004 991.7l-1 1.3c6 1.4 7 2.3 6 7l-6 29c-1 5-2 6-7.8 5l-.3 1 22.1 5c5 1 10 0 13-2 3-1 5-4 5-7 1-3 0-6-2-8-1-2-3-3-7-5 4 0 5-1 7-2s4-3 4-6c2-7-4-12.3-15-14.6l-18-3.7m8 24.3c7 2 10 3 12 4 3 2 4 5 4 10-1 3-3 5-6 6-2 1-5 1-9 0-4 0-4-1-4-3l3-17m1-2l3-15.3c0-1.3 1-1.8 2-1.6l3 .5c7 1.6 10 5.4 9 11.4-1 5-5 7-11 6l-6-1"/>
      <path id="path3114" d="M1079 1045h-1c-6 5-9 6-18 3h-2c-3-1-6-3-6-3v-2l5-16 10 3c5 2 6 3 5 8l2 1 4-15h-1c-1 2-2 3-3 4-1 0-3 0-6-1l-10-3 5-14c0-2 1-2 2-1l9 2c7 3 8 4 8 10l1 1 3-9-34-11v1c4 2 5 3 3 7l-9 29c-1 4-2 5-7 4v1l34 11 6-10"/>
      <path id="path3116" d="M1117 1074c-2-1-3-3-4-5l-5-22c5 1 7 2 10 1 2-1 5-3 6-6 1-2 1-5 1-7-1-4-6-8-11-11l-17-7-1 1c5 2 5 3 3 8l-13 26c-2 5-3 5-8 3v2l17 8v-2c-4-2-5-3-3-8l6-12 3 2 6 25 10 5v-1m-11-48c1-1 2-2 4 0 8 3 10 7 7 13-1 3-4 5-6 5-4 0-6 0-12-3l7-15"/>
      <path id="path3118" d="M1153 1049l-17 29c-3 4-4 5-9 2l-1 1 17 10 1-1c-5-3-5-4-3-8l18-30 3 2c7 4 7 6 5 13l1 1 6-10-33-20-6 10 2 1c5-6 7-6 13-2l3 2"/>
      <path id="path3120" d="M1216 1087l-12-8-1 1c3 2 4 3 3 4l-2 2-17 7v-18c0-2 1-3 1-3 1-1 2-1 4 0 0 0 1 0 1 1l1-1-16-11v1c2 2 2 3 3 15v16l-7 9c-3 5-4 5-9 2l-1 1 17 12 1-2c-5-3-5-4-3-8l8-11 16-7c7-3 9-3 12-1l1-1"/>
    </g>
  </g>
  <g id="text3088" transform="translate(-1029.6675 608.34952)">
    <path id="path3123" d="M1675 519.5c2 .7 3 1.1 5 1.7 5 1.7 9 2.2 12 1.6 5-.8 8-4 10-8.3 1-2.7 1-5.5 0-8-2-3.8-7-7.5-13-9.6l-18-5.8v1.2c5 2.2 5 3.1 4 7.8l-10 28.3c-2 5.5-3 6-8 4.8v1.2l18 6.2 1-1.3c-5-1.9-6-3.2-5-7.9l4-11.9m7-19.7c1-1.7 1-2 3-1.4 9 2.9 12 7.4 10 14.1-2 6.3-7 8.3-15 5.8-1-.4-2-.8-4-1.5l6-17"/>
    <path id="path3125" d="M1737 556c-3-.8-4-1.8-5-4.6l-10-20.3c5 .2 7-.1 10-1.3 2-1.3 4-3.8 5-6.9 1-2.9 0-5.6-1-8-2-3.3-7-6.4-13-8l-19-4.6v1.3c5 1.8 5 2.7 4 7.4l-7 29c-1 5.6-2 6.2-7 5.4l-1 1.3 19 4.6V550c-5-1.6-6-2.7-4-7.5l3-13.2 4 .8 10 24.5 11 2.7 1-1.3m-21-45.7c0-1.9 1-2.2 4-1.6 8 2.1 11 6 10 12.3-1 3.3-3 5.8-6 6.4-4 1-6 .8-13-.6l5-16.5"/>
    <path id="path3127" d="M1769 515.2c-13-2-24 6.4-26 20.1-1 6.4 0 12.9 3 17.5 3 4.9 9 8.5 15 9.4 13 2.1 24-6 26-19.7 1-6.7 0-12.8-3-17.5-3-5.4-9-8.7-15-9.8m-1 2.5c3 .5 6 2.2 9 4.8 3 3.9 4 10.6 3 18.7-1 4.1-3 8.6-5 12-1 1.6-2 3.1-4 4.4-3 2-6 2.8-9 2.2-4-.5-6-2.2-8-4.7-4-3.7-5-10.9-4-18.5 2-6.9 5-13.2 8-16 3-2.5 7-3.5 10-2.9"/>
    <path id="path3129" d="M1821 520.9l-2-.2c0 1.6-1 2.3-2 2.2-1-.1-2-.4-3-1.1-3-1.1-5-1.9-7-2.1-3-.2-7 .7-9 2.6-3 1.9-4 4.7-4 8.3-1 5.5 2 9.6 9 14.2 5 3 8 6.1 10 8.9 1 .9 1 2.4 1 4.1-1 4.6-4 7.5-9 7.1-7-.5-11-4.7-13-13.3l-2-.1 1 14.7 1 .1c1-1.3 2-2.2 3-2.1 0 .1 1 .4 3 1 2 1.3 5 2 8 2.2 8 .7 14-4.3 15-11.4 0-5.6-3-10.4-12-16-7-4.5-9-7.8-9-11.5 0-3.8 3-6.2 8-5.8 3 .2 5 1.7 8 4.4 2 2.4 2 4.2 3 8.4l2 .1v-14.7"/>
    <path id="path3131" d="M1839 548.1c1 .2 3 .2 4 .3 6 .1 9-.5 12-2.2 5-2.1 7-6.3 7-10.8 0-2.9-1-5.5-2-7.6-3-3.1-9-5.1-16-5.2l-18-.3v1.3c5 .6 6 1.3 6 6.3l-1 29.9c0 5.8 0 6.4-6 6.8v1.3l20 .4V567c-6-.3-7-1.3-7-6.4l1-12.5m0-20.7c0-1.9 0-2.3 2-2.3 10 .2 14 3.5 14 10.6 0 6.7-5 10-12 9.9-2 0-3-.1-4-.3v-17.9"/>
    <path id="path3133" d="M1903 555.2l-2 .1c-3 7.6-6 9.4-16 9.8l-1 .1c-4 .1-7-.1-7-.6-1-.2-1-.9-1-2.1l-1-17 11-.5c6-.2 7 .6 8 6.3h1v-16h-2c0 2.9 0 3.9-1 4.9-1 1.2-3 1.9-6 2l-11 .5v-15.3c0-2 0-2.4 2-2.5l9-.4c8-.3 9 .7 11 6.8l2-.1-1-9.8-37 1.6v1.3c6 .2 7 1.1 7 5.9l1 30.6c0 4.9-1 5.9-6 6.5v1.3l38-1.6 2-11.8"/>
    <path id="path3135" d="M1950 560.7c-3 .1-4-.4-7-2.5l-16-15.9c5-1.4 7-2.4 9-4.5 2-2 3-5.1 3-8.3-1-2.9-2-5.4-4-7.2-3-2.5-9-3.7-15-3l-19 2v1.3c5 0 6 .7 7 5.6l3 29.7c0 5.7 0 6.6-5 7.5v1.3l19-2v-1.3c-6 .2-7-.6-7-5.5l-2-13.5 4-.6 19 19.4 11-1.1v-1.4m-36-35.7c0-2 1-2.6 4-2.9 8-.9 13 1.6 13 8.1 1 3.4-1 6.4-3 8-3 2.1-5 2.8-12 3.6l-2-16.8"/>
    <path id="path3137" d="M1957 553.1c1 5.1 0 6-5 7.1v1.3l20-3.1v-1.3c-6 .7-7-.1-8-5.1l-5-30.3c0-5 1-6 6-7.2v-1.2l-20 3.1v1.3c6-.6 7 0 8 5.1l4 30.3"/>
    <path id="path3139" d="M1982 513l7 33.9c1 5.7 0 6.6-5 8.1v1.3l20-4v-1.2c-6 .8-7 .1-8-4.8l-7-34.6 4-.7c7-1.6 9-.7 12 6.5l2-.3-3-11.5-38 7.6 2 11.6 1-.3c1-7.7 2-9.3 9-10.8l4-.8"/>
    <path id="path3141" d="M2050 493.8l-15 3.9 1 1.2c3-.8 4-.6 5 1v2.7l-6 17.6-14-12.2c-1-.9-2-1.9-2-2.6 0-1.2 1-2.1 3-2.8 0 0 1-.2 2-.5l-1-1.2-19 4.9 1 1.2c3-.7 4 0 13 7.7l12 10.5 4 11.6c1 5.8 1 6.6-5 8.5v1.3l20-5.4V540c-6 1.4-7 .8-8-4.3l-4-12.9 6-17.7c3-6.9 4-8.8 7-10v-1.3"/>
  </g>
  <g id="text3105" transform="matrix(1.009 0 0 1.568 -1071.6675 152.14952)">
    <path id="path3111" d="M1512 750.1c-3 .2-4-.2-6-2l-15-13.4c4-1.4 6-2.4 8-4.3 1-1.9 2-4.6 2-7.4-1-2.6-2-4.7-4-6.3-2-2.1-8-2.9-13-2l-17 2.5v1.1c5-.2 5 .4 6 4.7l4 26.1c1 5 0 5.8-4 6.9v1.1l17-2.5v-1.2c-5 .4-6-.2-7-4.6l-2-11.9 4-.6 17 16.4 10-1.4v-1.2m-33-30.2c0-1.7 0-2.3 3-2.7 7-1.1 11 1 12 6.6 0 3.1 0 5.8-2 7.3-3 1.9-5 2.6-11 3.6l-2-14.8"/>
    <path id="path3113" d="M1547 736.5l-2 .2c-2 6.9-4 8.7-13 9.8l-1 .2c-3 .3-6 .4-7 0v-1.8l-2-15 9-1.2c5-.6 6 .1 8 5l1-.2-2-14-1 .2c0 2.5 0 3.4-1 4.4-1 1.1-2 1.8-5 2.2l-9 1.1-2-13.4c0-1.7 0-2.1 2-2.3l8-1c7-.9 8-.2 10 5.2l1-.2-1-8.7-32 4.1v1.1c5-.2 6 .6 6 4.8l3 26.9c1 4.2 0 5.2-4 6.1v1.1l33-4.1 1-10.5"/>
    <path id="path3115" d="M1560 727.7c1-.1 2-.1 4-.3 5-.5 8-1.5 10-3.2 4-2.3 5-6.2 5-10.3 0-2.5-1-4.7-3-6.3-3-2.4-8-3.6-14-2.9l-16 1.7v1.1c5 0 5 .6 6 4.9l3 26.3c0 5.1 0 5.7-5 6.7v1.1l17-1.8v-1.1c-5 .3-6-.5-6-4.9l-1-11m-2-18.2c0-1.7 0-2.1 2-2.3 8-.9 12 1.6 12 7.8 1 5.9-2 9.3-9 10-1 .2-2 .2-4 .2l-1-15.7"/>
    <path id="path3117" d="M1617 708.5c0-6.2 0-7.3 5-8.3V699l-14 1.3v1.1c5 0 6 1.2 7 7.3l1 16.4c0 4.1 0 6.5-1 8.4-1 3-5 5.3-9 5.7-5 .3-8-.9-10-3.6-1-1.8-1-4-2-7.8l-2-19.5c0-4.4 1-5.1 6-5.9l-1-1.2-17 1.5v1.2c5-.1 6 .5 6 4.9l2 19c1 10.5 6 15.1 17 14.2 6-.6 11-3.1 13-7.5 1-2.7 1-5.5 1-10.2l-2-15.8"/>
    <path id="path3119" d="M1625 698.8v1.2c5-.1 6 .5 6 5l2 27.1c1 4.5 0 5.3-5 5.8v1.2l20-1.4c5-.4 9-1.9 11-4.2 2-2.1 3-4.9 3-7.8 0-2.7-1-5.1-3-6.7-2-1.5-4-2.1-8-2.8 3-1 4-1.7 6-3.1 1-1.4 2-3.8 2-6.3-1-6.8-6-9.9-17-9.2l-17 1.2m14 19.6c5-.4 8-.3 11 .5 3 1.2 5 3.5 5 7.3 0 3.3-1 5.8-3 7.4-2 1.2-4 1.8-8 2.1-3 .2-4-.2-4-2.2l-1-15.1m-1-2.4l-1-14c0-1.2 1-1.8 2-1.9l2-.2c7-.5 11 2.2 12 7.6 0 4.8-3 7.7-9 8.1l-6 .4"/>
    <path id="path3121" d="M1702 723.8c-1 2.3-2 3.8-3 4.9-2 2.5-5 3.8-10 4l-4 .3c-5 .2-5-.1-6-2.2l-1-28.8c0-4.4 0-5.3 5-5.8V695l-17 1v1.1c5 .1 5 .9 6 5.2l1 27.1c0 4.2 0 5.2-5 5.7v1.2l33-1.8 2-10.8-1 .1"/>
    <path id="path3124" d="M1711 727.3c1 4.6 0 5.4-5 5.8v1.1l18-.8v-1.2c-5 .1-6-.7-6-5.2l-2-27c0-4.5 1-5.3 6-5.8v-1.1l-18 .8v1.2c5 0 6 .7 6 5.2l1 27"/>
    <path id="path3126" d="M1762 704.5l-1-13.8-2 .1c0 1.3-1 2-2 2.1-1 0-2-.1-3-.5-3-.8-6-1.2-9-1.1-5 .2-10 2.2-13 5.7-4 4-6 9.7-6 16.4 0 5.7 2 10.9 5 14.2 4 3.9 10 6 16 5.8 7-.3 13-3.3 16-8.4l-1-1.1c-4 4.5-8 6.5-13 6.7-4 .1-8-1-10-3.2-4-2.8-6-8.3-6-15-1-11.1 5-18.4 14-18.7 3-.1 6 1 9 3.4 2 1.8 3 3.5 4 7.4h2"/>
    <path id="path3128" d="M1802 689.7c-12 .3-20 9.2-20 21.5 0 5.7 3 11.2 6 14.7 4 3.7 9 6 14 5.9 12-.2 20-8.9 20-21.2 0-6-2-11.2-5-14.8-4-4.1-9-6.2-15-6.1m0 2.2c3 0 6 1 8 2.9 3 2.9 5 8.6 5 15.9 0 3.6 0 7.8-2 11 0 1.6-1 3.1-2 4.5-2 2.2-5 3.4-8 3.4-3 .1-6-1-8-2.8-3-2.8-6-8.9-6-15.7 0-6.2 2-12.1 4-15 3-2.7 6-4.1 9-4.2"/>
    <path id="path3130" d="M1854 716.2v-14.1h-2c0 4.9-2 5.8-6 5.8l-9 .1v-13.5c0-1.7 0-2.1 2-2.1l8-.1c7 0 8 .9 9 6.3h2l-1-8.7-32 .3v1.1c5 .4 5 1.2 5 5.5l1 26.4c0 5.1-1 5.9-6 6.2v1.2l17-.2v-1.1c-4-.2-5-1.1-5-5.5v-13.3l9-.1c5 0 6 .9 6 5.8h2"/>
    <path id="path3132" d="M1901 689.2h-1c0 1.4-1 2-2 2s-2-.2-3-.7c-2-.9-4-1.4-6-1.4-3 0-5 1-7 2.8-3 1.9-4 4.4-4 7.6 0 4.9 3 8.3 10 11.9 4 2.4 7 4.9 9 7.2 0 .8 1 2.1 1 3.6 0 4-3 6.8-8 6.8s-9-3.4-12-10.9h-2l2 13h2c0-1.2 0-2 1-2s2 .2 3 .7c2 .9 5 1.4 7 1.4 7 0 13-4.7 13-11 0-5-3-9-11-13.4-7-3.6-9-6.3-9-9.5 0-3.4 2-5.7 6-5.7 3 0 5 1.2 7 3.4 2 2 3 3.6 4 7.2h2l-2-13"/>
    <path id="path3134" d="M1930 689.5c-11-.1-20 8.5-20 20.8 0 5.7 2 11.3 5 14.9 4 3.9 9 6.3 14 6.4 12 .2 21-8.2 21-20.5 0-6-2-11.2-5-14.9-4-4.3-9-6.6-15-6.7m0 2.2c3 .1 6 1.2 8 3.2 3 3 5 8.8 5 16.1 0 3.6-1 7.8-2 10.9-1 1.5-2 3-3 4.4-2 2.1-5 3.2-8 3.1-3 0-6-1.2-8-3.1-3-2.8-5-9-5-15.8 0-6.2 2-12.1 5-14.9 2-2.6 5-3.9 8-3.9"/>
    <path id="path3136" d="M1990 700.8c0-6.3 1-7.2 6-7.7V692l-14-.4v1.1c4 .5 5 1.9 5 8v16.4c0 4.2-1 6.5-2 8.3-2 2.9-6 4.7-10 4.5-5-.1-8-1.6-9-4.5-1-2-2-4.3-1-8.1v-19.6c0-4.3 1-5 6-5.3v-1.1l-17-.5v1.1c4 .5 5 1.2 5 5.7l-1 19c0 10.5 5 15.7 15 16 7 .2 12-1.8 14-5.9 2-2.5 2-5.3 2-10l1-15.9"/>
    <path id="path3138" d="M2013 695.2l-2 30.5c0 5.1 0 5.8-6 5.9v1.1l18 .7v-1.1c-5-.5-6-1.3-5-5.7l1-31.2 3 .2c7 .2 8 1.4 10 8.1l1 .1v-10.4l-34-1.3-1 10.3 1 .1c2-6.6 4-7.7 10-7.4l4 .1"/>
    <path id="path3140" d="M2047 712.6v-11.8c1-4.4 1-5.1 6-5.2v-1.2l-17-.9v1.2c5 .7 5 1.4 5 5.7l-1 26.4c0 5.1-1 5.8-6 5.9v1.2l17 .8v-1.1c-4-.6-5-1.5-5-5.8l1-12.5 18 .9v11.9c-1 5.1-1 5.8-6 5.9v1.1l17 .9v-1.2c-5-.6-6-1.4-5-5.7l1-27.1c0-4.4 1-5 6-5.2v-1.1l-17-.9v1.1c4 .7 5 1.4 5 5.8l-1 11.8-18-.9"/>
    <path id="path3142" d="M2122 697.7l-1-.1c0 1.4-1 2-2 1.9-1 0-2-.3-3-.9-2-1-4-1.6-6-1.8-3-.1-6 .7-8 2.3-2 1.8-3 4.3-3 7.4-1 4.9 2 8.5 8 12.5 5 2.7 8 5.4 9 7.8 0 .8 1 2.1 1 3.6-1 4-4 6.6-8 6.3-6-.3-9-3.9-12-11.6l-1-.1 1 13.1 1 .1c0-1.2 1-2 2-1.9 0 0 1 .3 3 .8 2 1.1 4 1.7 7 1.9 7 .5 12-4 13-10.2 0-5-3-9.2-11-14.1-6-3.9-8-6.8-8-10.1s3-5.4 7-5.2c2 .2 5 1.5 7 3.9 2 2 2 3.7 3 7.3l2 .1-1-13"/>
    <path id="path3144" d="M2166 710.9c0-6.2 1-7.1 6-7.3v-1.2l-14-1.1v1.1c5 .8 5 2.2 5 8.3l-1 16.4c-1 4.1-1 6.4-2 8.1-2 2.8-6 4.4-11 4-4-.3-7-2-8-5-1-2-2-4.3-1-8.1l1-19.5c1-4.4 1-5 6-5v-1.2l-17-1.4v1.2c5 .7 5 1.5 5 5.9l-2 19c0 10.5 4 15.9 14 16.7 7 .5 12-1.2 15-5.2 1-2.4 2-5.2 2-9.8l2-15.9"/>
    <path id="path3146" d="M2177 736.7c-1 4.4-1 5.1-6 5v1.1l17 1.7c7 .7 14-.7 18-3.8 4-3.2 7-8.4 7-14.3 1-5.4 0-10.3-3-14-4-4.6-11-7.4-19-8.2l-16-1.6v1.2c4 .9 5 1.5 4 6l-2 26.9m9-28.3c0-1.9 1-2.4 3-2.1 5 .5 9 1.8 12 4.2 4 3.7 6 9.2 6 15.7-1 7.2-4 12.1-9 14.4-3 1.5-7 1.9-12 1.4-3-.2-3-.9-3-2.8l3-30.8"/>
    <path id="path3148" d="M2257 750.7c-3-.5-4-1.2-5-5.9l-11-36.2-2-.1-16 28.3c-4 8.4-5 9.3-8 9.1v1.1l12 1.4v-1.1c-3-.4-4-1.3-4-3 0-.7 0-1.6 1-2.3l3-6.8 16 1.8 2 6.1c1 1.7 1 3.4 1 4.2 0 1.5-2 1.9-5 1.6v1.1l16 1.8v-1.1m-28-17.9l9-15.8 5 17.4-14-1.6"/>
    <path id="path3150" d="M2295 757.5l4-31.8c0-3.6 1-5.7 2-6.4 1-.5 2-.6 5-.5v-1.2l-14-1.9-1 1.2c3 .5 3 .8 4 1.5 1 1 2 3.2 1 7l-3 20.4-19-32.4-10-1.4v1.1c2 .4 3 1 5 4.1l-4 26.7c0 6.2-1 7.3-7 7v1.1l15 1.9v-1.1c-5-.9-6-2.4-5-8.5l3-23.7 22 36.8 2 .1"/>
  </g>
</svg>
