<svg xmlns="http://www.w3.org/2000/svg" xmlns:xlink="http://www.w3.org/1999/xlink" viewBox="0 0 224 366">
  <defs>
    <linearGradient id="linearGradient795">
      <stop stop-color="#d5dfff" offset="0"/>
      <stop stop-color="#fff" offset="1"/>
    </linearGradient>
    <linearGradient id="linearGradient783">
      <stop stop-color="#474747" offset="0"/>
      <stop stop-color="#f50" offset="1"/>
    </linearGradient>
    <linearGradient id="linearGradient746" x1="215.83" xlink:href="#linearGradient783" gradientUnits="userSpaceOnUse" y1="102.99" gradientTransform="matrix(.74087 0 0 1.3286 40.513 .0061069)" x2="228.97" y2="102.99"/>
    <linearGradient id="linearGradient747" x1="109.34" xlink:href="#linearGradient783" gradientUnits="userSpaceOnUse" x2="110.94" gradientTransform="matrix(1.5101 0 0 .65184 40.513 .0061069)" y1="218.47" y2="173.45"/>
    <linearGradient id="linearGradient748" x1="125.91" gradientUnits="userSpaceOnUse" x2="126.02" gradientTransform="matrix(1.2315 0 0 .79928 40.513 .0061069)" y1="316.38" y2="337.23">
      <stop stop-color="#b50000" offset="0"/>
      <stop stop-color="#ffc500" offset="1"/>
    </linearGradient>
    <linearGradient id="linearGradient794" x1="117.6" xlink:href="#linearGradient795" gradientUnits="userSpaceOnUse" x2="78.221" gradientTransform="matrix(2.5627 0 0 .38409 40.513 .0061069)" y1="1040.4" y2="1003.7"/>
    <linearGradient id="linearGradient800" x1="264.72" xlink:href="#linearGradient795" gradientUnits="userSpaceOnUse" x2="255.03" gradientTransform="matrix(.88634 0 0 1.1105 40.513 .0061069)" y1="245.98" y2="226.38"/>
    <linearGradient id="linearGradient801" x1="407.87" xlink:href="#linearGradient795" gradientUnits="userSpaceOnUse" x2="456.4" gradientTransform="matrix(.55904 0 0 1.7607 40.513 .0061069)" y1="149.38" y2="147.35"/>
  </defs>
  <g stroke="#000">
    <g stroke-width="1pt">
      <path fill="#6a4c2d" d="M146.97 393.04s-3.35 8.84-5.26 8.84-8.84-3.82-8.84-3.82-5.02 8.13-7.65 8.6c-2.63.48-9.56-1.19-9.56-1.19s-6.69 0-6.93-.96c-.24-.95.24-2.86.24-2.86s-9.558 7.64-11.709 7.16c-2.151-.47-9.32-9.55-9.32-9.55l-1.195 4.78-13.621-.48-11.949-7.65s-6.691 10.99-6.93 10.75-11.709 2.63-11.709 2.63l-.717-2.15-7.647-4.54s5.974-8.36 5.974-8.6-2.868-1.2-2.868-1.2l-4.301 3.59-8.842 5.73-8.842-4.06 3.824-7.17.478-5.26 6.93-10.51 84.834-82.45 41.82 77.19-6.21 23.18z" transform="matrix(.71758 0 0 .71757 -4.9419 -1.3249)"/>
      <path fill="#fff" d="M207.24 398.04l22.08-.8-9.4-4.64 84.14-3.17-11.89-4.53-10.53-14.27-43.6-3.28s-3.28-2.49-8.61-1.25c-.22-3.39-4.3-7.81-4.3-7.81l-26.84-2.04-16.76 11.44 11.32 28.99 14.39 1.36z" transform="matrix(.71758 0 0 .71757 -4.9419 -1.3249)"/>
      <path fill="url(#linearGradient747)" d="M121.32 150.76l2.22-7.56s3.89-6.56 3.89-9.46c0-2.89 2.9-6.33 2.9-6.33s8.89-2.56 10.78 2.89c9.57-14.46 20.8-.67 20.8-.67l3.11-3.67 6.34-7.78s9.01 8.45 9.12 9.89c.11 1.45 1.55.45 1.55.45l9.79-.78s4.64 3.64 3.67 10.56c3.45 2.04 6.56 14.01 6.56 14.01l-80.73-1.55z" transform="matrix(.71758 0 0 .71757 -4.9419 -1.3249)"/>
      <path fill="#656263" d="M207.25 240.72c1.69-1.03 7.01-2.72 6.36-10.5s-7.39-8.69-11.15-8.43c-3.77.26-7.14 3.5-7.14 3.5l-12.45-7.91s6.23-39.3 12.84-41.76c6.28-4.53 7.39-6.49 7.39-7.52 0-1.04-2.33-3.64-2.33-3.64l-40.6-4.8-38.39 4.54s-2.98 4.54-2.59 6.36c.39 1.81.52 3.76 7.39 9.08 7.61 5.85 12.84 39.43 12.84 39.43s-10.76 5.31-11.41 4.66c-.65-.64-3.89-1.29-5.58-1.03-1.68.26-7.26 3.11-7.26 10.5 0 7.4 5.58 11.68 5.58 11.68s36.7-4.28 42.15 5.83c5.32-12.19 40.2-7.91 44.35-9.99z" transform="matrix(.71758 0 0 .71757 -4.9419 -1.3249)"/>
    </g>
    <path stroke-linejoin="round" d="M246.79 199.87s.41-4.27 3.45-6.3c3.05-2.03 23.36-3.05 28.24 0 4.87 3.05 6.7 18.08 6.7 18.08s3.05 5.28 3.25 9.14.61 6.5.61 6.5 16.25 21.13 16.45 40.22c1.83 13 1.42 47.73-3.65 60.93-.21 16.46-7.11 27.22-7.11 27.22s1.62 2.84 1.42 5.89c-.21 3.05-1.83 5.89-1.83 5.89l23.76 11.78-8.73-3.25s8.94 7.52 8.73 7.32c-.2-.21-9.95-4.68-9.95-4.68l5.89 5.89c-.2-.2-14.42-6.5-14.42-6.5s6.7 6.3 6.3 6.1c-.41-.2-10.77-5.08-10.77-5.08s6.5 6.91 6.3 6.5-9.34-4.06-9.34-4.06l.4 3.45s-7.31-.41-7.31-5.89c-3.66-2.03-6.09-4.88-6.09-4.88l-16.86-2.84-19.1-57.08 4.47-96.48 1.22-4.87-2.03-13z" stroke-opacity=".97854" stroke-width="1.25" transform="matrix(.71758 0 0 .71757 -4.9419 -1.3249)"/>
    <path stroke-width=".99323pt" fill="#fb0" d="M234.03 508.2s-9.78-20.57-14.65-20.86c-4.4-8.39 15.29-76.96 53.38-80.87 20.94 1.72 1.72 24.14-12.05 17.24 1.72 6.03 8.6 14.66 8.6 14.66s-27.25 11.78-35.28 69.83z" transform="matrix(.71758 0 0 .71757 -4.9419 -1.3249)"/>
    <path stroke-width="1pt" fill="#fb0" d="M102.91 511.2s8.1-23.42 13.01-23.71c4.92-.29-13.01-78.05-52.032-78.63-21.104 1.74-1.735 24.28 12.141 17.34-1.734 6.08-8.672 14.75-8.672 14.75S94.82 452.8 102.91 511.2z" transform="matrix(.71758 0 0 .71757 -4.9419 -1.3249)"/>
  </g>
  <path d="M138.71 364.93c-.1-.19-9.69 3.01-3.48 13.45.47-4.04 4.79-6.49 4.79-6.49s-6.58 7.81.38 14.39c.85-6.21 4.8-8.18 4.8-8.18s-4.89 14.39.09 17.3c.57-5.74 4.23-8.27 4.23-8.27s-4.42 12.88-.47 15.79c.47-4.88 3.76-7.05 3.76-7.05s-1.97 13.36 3.2 14.3c.1-4.71 3.86-9.31 3.86-9.31s-1.7 10.9 6.39 11.38c.1-4.14 1.6-8.84 1.6-8.84s3.67 11.56 9.03 9.68c-.09-3.38.09-9.78 0-9.78-.1 0 3.38 11 9.78 8.94-.94-3.11.37-6.78.37-6.78s3.39 6.87 9.5 4.61c1.04-2.07-.28-6.11-.28-6.11s8.93 9.22 11.66 3.67-7.15-7.43-7.15-7.43h6.68s-2.16-5.64-11.19-6.87c3.1-1.41 6.3-.37 6.3-.37s-1.88-7.06-11.1-7.81c3.58-1.22 7.53-.37 7.53-.37s-1.23-6.68-11.38-8.56c1.6-1.79 5.92-1.22 5.92-1.22s-4.04-6.3-8.65-5.93c-4.61.38-46.27-4.23-46.17-4.14z" stroke="#000" stroke-width="1pt" fill="#00713d" transform="matrix(.71758 0 0 .71757 -4.9419 -1.3249)"/>
  <g stroke="#3ec26d" stroke-linecap="round" stroke-width="1.25" fill="none">
    <path d="M179.8 398.88s3.67 1.79 3.58 3.39" transform="matrix(.71758 0 0 .71757 -4.9419 -1.3249)"/>
    <path d="M181.97 395.97s4.7 3.29 4.61 5.73" transform="matrix(.71758 0 0 .71757 -4.9419 -1.3249)"/>
    <path d="M186.1 394.27s3.77 2.35 3.95 6.02" transform="matrix(.71758 0 0 .71757 -4.9419 -1.3249)"/>
    <path d="M192.4 395.78s1.89 4.04 1.23 4.79" transform="matrix(.71758 0 0 .71757 -4.9419 -1.3249)"/>
    <path d="M196.17 397.94c.28 3.2-.29 3.48-.29 3.48" transform="matrix(.71758 0 0 .71757 -4.9419 -1.3249)"/>
    <path d="M149.8 377.72s4.42 2.82 4.05 6.77" transform="matrix(.71758 0 0 .71757 -4.9419 -1.3249)"/>
    <path d="M149.52 381.11s2.07 1.97 1.6 3.29" transform="matrix(.71758 0 0 .71757 -4.9419 -1.3249)"/>
    <path d="M154.98 377.82s2.91 4.04 1.97 6.86" transform="matrix(.71758 0 0 .71757 -4.9419 -1.3249)"/>
    <path d="M159.96 380.45s1.32 2.54.1 3.95" transform="matrix(.71758 0 0 .71757 -4.9419 -1.3249)"/>
    <path d="M162.31 381.67s1.6 2.54.19 3.39" transform="matrix(.71758 0 0 .71757 -4.9419 -1.3249)"/>
    <path d="M160.53 390.04s4.13.94 4.7 4.04" transform="matrix(.71758 0 0 .71757 -4.9419 -1.3249)"/>
    <path d="M162.97 387.22s4.33.28 4.8 4.89" transform="matrix(.71758 0 0 .71757 -4.9419 -1.3249)"/>
    <path d="M168.71 385.62c.09 0 2.91 4.99 2.44 6.58" transform="matrix(.71758 0 0 .71757 -4.9419 -1.3249)"/>
    <path d="M174.26 386.09s1.12 4.8.28 6.3" transform="matrix(.71758 0 0 .71757 -4.9419 -1.3249)"/>
    <path d="M177.83 387.97c0 .1.09 5.55.09 5.55" transform="matrix(.71758 0 0 .71757 -4.9419 -1.3249)"/>
    <path d="M172.38 380.45s2.72 1.03 2.53 3.67" transform="matrix(.71758 0 0 .71757 -4.9419 -1.3249)"/>
    <path d="M174.91 378s3.48 1.98 3.11 5.74" transform="matrix(.71758 0 0 .71757 -4.9419 -1.3249)"/>
    <path d="M178.96 376.41s3.01 3.57 1.88 7.52" transform="matrix(.71758 0 0 .71757 -4.9419 -1.3249)"/>
    <path d="M184.22 377.25s-1.12 4.42-.66 6.21" transform="matrix(.71758 0 0 .71757 -4.9419 -1.3249)"/>
    <path d="M187.42 380.26s-1.97 1.51-.94 3.39" transform="matrix(.71758 0 0 .71757 -4.9419 -1.3249)"/>
    <path d="M170.31 397.47s.65 3.39 0 3.95" transform="matrix(.71758 0 0 .71757 -4.9419 -1.3249)"/>
    <path d="M165.98 395.5s2.16 3.76 1.41 5.64" transform="matrix(.71758 0 0 .71757 -4.9419 -1.3249)"/>
    <path d="M161.37 395.31s2.45 2.82 2.35 5.08" transform="matrix(.71758 0 0 .71757 -4.9419 -1.3249)"/>
    <path d="M157.61 395.87s2.26 2.17 2.07 3.39" transform="matrix(.71758 0 0 .71757 -4.9419 -1.3249)"/>
    <path d="M155.64 399.16s2.16 2.26 2.06 2.73" transform="matrix(.71758 0 0 .71757 -4.9419 -1.3249)"/>
  </g>
  <path d="M108.86 244.78c10.37-.19 20.74-.37 31.11-.56 0 0 20.55 0 22.77 6.67 3.89-8.89 21.66-8.33 21.66-8.33 10.74-.37 21.48-.74 32.21-1.11.19 25.92.37 51.84.56 77.76-6.29 30.17-28.14 51.47-52.21 60.54-28.7-9.26-46.84-33.51-52.76-61.1-1.12-24.62-2.23-49.25-3.34-73.87z" stroke="#000" stroke-width="1pt" fill="#fff" transform="matrix(.71758 0 0 .71757 -4.9419 -1.3249)"/>
  <path d="M119.94 244.49l45.31 120.74 40.93-123.37c-12.7.82-39.94-2-43.32 9.58-5.24-10.36-33.9-6.18-42.92-6.95z" stroke="#000" stroke-width="1pt" fill="#006b00" transform="matrix(.71758 0 0 .71757 -4.9419 -1.3249)"/>
  <path d="M150.78 309.86c1.75.91 1.7-32.77 3.99-33.81.65-2.79.98-4.01 1.8-6.97-1.97-3.49-10.79-3.32-14.06-.35 1.47 4.7 2.12 6.27 2.12 6.27 4.42 7.15 3.54 35.62 6.15 34.86z" stroke="#006b00" stroke-linecap="round" stroke-width=".68918" fill="#ffc900" transform="matrix(.71758 0 0 .71757 -4.9419 -1.3249)"/>
  <path stroke-linejoin="round" d="M138.64 49.548s3.21-3.638 3.35-4.51c.15-.873 14.55-1.455 23.13-17.458 4.8-8.438 0-3.492 0-3.492l-.29-4.074s5.97-5.673 3.79-8.729c-2.19-3.0546-1.46 3.929-4.95 3.783s-1.6-7.565-1.6-7.565-.29-.873-1.31-1.3094c-1.46.1455-1.02 2.7642-2.33 3.0551-1.31.291-2.47-6.1103-2.47-6.1103s-2.18-2.9096-4.08 6.2558c1.02 9.7478 7.28 7.8558 7.28 14.258 0 6.401-5.53 11.347-7.13 11.493-1.6.145-1.02-5.383-1.02-5.383s-.87-2.619-1.45-2.619 3.2-.582 2.62-7.856c-1.31-8.729-2.33 2.037-4.66 1.6-2.33-.436-.58-8.001.29-8.874s-1.02-4.51-6.11 4.801c-.44 4.51-1.02-1.164-2.04-.873-1.74 3.637-1.45 6.256 1.02 9.602 3.64 3.346 5.97 6.692 5.82 8.438-.14 1.746-2.04 5.674-4.65 5.674-2.62 0 .14-4.801 0-6.402-.15-1.6-4.51-7.419-4.51-7.419s-3.06-4.947-2.77-5.092c.29-.146-.29-.873-1.74 4.219-1.46 5.092-3.21-3.346-3.21-3.346s-2.03 6.255 2.33 10.038c-3.34-.436-3.63.873-3.63.873 0 1.746 4.51 2.473 5.09 5.528.58 3.056-4.66 4.801-4.66 4.801s2.19 3.055 8.29-2.909c.15 3.782-2.32 6.401-2.32 6.401 2.03.921 3.63.824 3.92 3.201z" stroke="#000" stroke-width="1.25" fill="#cdad56" transform="matrix(.71758 0 0 .71757 -4.9419 -1.3249)"/>
  <path stroke-linejoin="round" d="M118.68 49.548s-2.72-4.037-2.84-4.832c-.13-.794-13.38 1.004-19.648-15.158-4.078-7.678 0-3.177 0-3.177l.247-3.707s-4.339-5.308-2.486-8.088 1.09 3.574 3.474 3.587c2.963-.132 1.359-6.884 1.359-6.884s.246-.794 1.112-1.191c1.232.132 1.742 4.115 2.852 4.38s3.41-4.687 4.13-5.7054c1.02-.1457.98-4.1023 2.59 4.2374-.86 8.87-8.21 7.149-8.21 12.974 0 5.824 4.69 10.325 6.05 10.458 1.36.132.87-4.898.87-4.898s.74-2.383 1.23-2.383c.5 0-4.32.925-3.82-5.694 1.11-6.197 3.57.399 5.55.001 1.98-.397-.23-6.553.34-7.493.13-.94 3.04-4.977 4.17 3.932.37 4.104 2.61-3.532 3.47-3.267 1.49 3.309-.65 7.729-2.75 10.774-3.09 3.044-4.49 6.38-4.36 7.969.12 1.588.85 3.562 3.08 3.562 2.22 0 .75-2.768.87-4.224s3.83-6.17 3.83-6.17c.73-1.163.12-3.337.89-4.342 1.21.013 1.71-1.667 2.94 2.966 1.24 4.633 2.72-3.045 2.72-3.045s1.73 5.693-1.98 9.135c2.84-.397 3.09.794 3.09.794 0 1.589-1.35 2.25-1.85 5.03s1.48 4.369 1.48 4.369-1.85 2.78-7.04-2.648c-.13 3.442 1.98 5.825 1.98 5.825-1.74.839-3.09.75-3.34 2.913z" stroke="#000" stroke-width="1.0989" fill="#cdad56" transform="matrix(.71758 0 0 .71757 -4.9419 -1.3249)"/>
  <g fill="#ffc900">
    <path stroke-width="1pt" d="M137.5838396 187.037225c-1.9446418-1.7652222-2.1742674-.2224467-3.1286488-.6171102-.4736028-.1937439-.8395686-.6314616-1.2485892-1.0333008-.3516142-.3659607-.7749864-.5166504-1.2414134-.7103943-.179395.5238261-.3516142 1.0404765-.5310092 1.5643026s.4951302 1.3920858.4807786 2.1742371c-.1363402 1.1624634-.609943 2.1311829-2.0738062 2.5258464.4161964-.8252055.6529978-.861084.5238334-1.8728577-.0574064-.502299-1.471039-1.3992615-1.2988198-1.8728577.2583288-.7677999.7032284-1.650411.3731416-2.4182109-.5955914.4090149-1.3849294.1937439-1.9805208.4448934-.5094818.2224467-.538185 1.1624634-1.2414134 1.5499512-.71758.3372579-2.3034318.1722168-3.6309548-.5812317.8108654-.6099345 1.4782148-.2009196 2.2890802-.8108541.4018448-.3085551.3874932-1.6217082.789338-1.9302633.4090206-.3085551 1.3777536-.6314616 1.7795984-.9400167-.3659658-.4161906-.3444384-1.0691793-.7104042-1.4853699-.35879-.4161906-1.973345-.3300822-2.3393108-.7390971-.7319316-.8323812-.5884156-1.9230876-1.3203472-2.7482931 1.8872354.6745158 1.614555 1.5930054 2.0881578 1.5212484.8897992-.430542 1.7795984-.5094747 2.2460254-.3157308.4736028.2009196 1.363402 1.363383 1.829829 1.5571269.179395-.5238261.4377238-1.1839905.609943-1.7078166.179395-.5238261-.789338-1.4279643-.6171188-1.9517904.35879-1.0404765 1.2342376-1.9661418 1.5858518-3.013794.1291644 1.0117737.2942078 1.8585063.4233722 2.8631043.0645822.502299 1.0548426.7677999 1.1194248 1.2700989.0645822.5094747-.5166576 1.6719381-.4592512 2.1814128.5453608-.1076355 1.327523-.0358785 1.865708-.143514.5453608-.1076355.9041508-1.363383 1.4423358-1.4710185 1.0835458-.215271 1.865708-.1506897 2.9636054.0574056-.8108654.7534485-1.43516.7032186-1.9446418 1.3920858-.4018448.3085551.1578676 1.3203288-1.0117878 2.0307231-.4377238.2583252-1.5930276-.0502299-2.0020482.2583252.3659658.4161906.7319316.8252055 1.0978974 1.2413961.35879.4161906 1.9948724.6099345 2.3608382 1.0261251.7247558.8252055 1.112249 1.8154521.9113266 2.7052389z"/>
    <path stroke-width="1pt" d="M87.590041 187.8911333c1.9446418-1.7652222 2.1742674-.2224467 3.1358246-.6171102.466427-.2009196.8323928-.6386373 1.2414134-1.0333008.3516142-.3659607.7749864-.5166504 1.2414134-.71757.179395.5238261.35879 1.0476522.5310092 1.5714783.179395.5238261-.4879544 1.3849101-.4736028 2.1670614.1291644 1.1696391.6027672 2.1311829 2.0666304 2.5330221-.4161964-.8252055-.6529978-.8682597-.5238334-1.8728577.0645822-.502299 1.471039-1.3992615 1.2988198-1.8800334-.2583288-.7606242-.7032284-1.650411-.3731416-2.4182109.6027672.4161906 1.3849294.2009196 1.9876966.4448934.502306.2296224.538185 1.1696391 1.2342376 1.5571269.7247558.3372579 2.3106076.1722168 3.6309548-.5812317-.8108654-.6171102-1.4782148-.2009196-2.2890802-.8180298-.4018448-.3013794-.3803174-1.6217082-.789338-1.9230876-.4018448-.3085551-1.3705778-.6386373-1.7795984-.9471924.3659658-.4090149.3444384-1.0691793.7104042-1.4853699.3659658-.4090149 1.9805208-.3229065 2.3393108-.7390971.7319316-.8252055.5955914-1.9159119 1.3203472-2.7482931-1.8872354.6745158-1.6073792 1.5930054-2.080982 1.5284241-.896975-.430542-1.7867742-.5166504-2.2532012-.3157308-.466427.1937439-1.363402 1.3562073-1.829829 1.5571269-.179395-.5238261-.430548-1.1839905-.609943-1.7078166s.7965138-1.4279643.6171188-1.9517904c-.3516142-1.0476522-1.2342376-1.9661418-1.5858518-3.013794-.1291644 1.004598-.2942078 1.8513306-.4233722 2.8631043-.0645822.502299-1.0548426.7677999-1.1194248 1.2700989-.0574064.502299.5238334 1.6719381.4592512 2.1742371-.5453608-.1076355-1.327523-.0358785-1.865708-.1363383-.538185-.1148112-.896975-1.3705587-1.4423358-1.4781942-1.0835458-.215271-1.8585322-.1506897-2.9636054.0574056.8108654.7606242 1.43516.7032186 1.9446418 1.3992615.4018448.3085551-.1578676 1.3203288 1.0117878 2.0307231.4377238.2583252 1.6002034-.0502299 2.0020482.2583252-.3659658.4090149-.7319316.8252055-1.0907216 1.2413961-.3659658.4161906-2.0020482.6099345-2.3608382 1.0189494-.7319316.8323812-1.1194248 1.8226278-.9185024 2.7124146z"/>
    <path stroke-linejoin="round" d="M196.19 270.28c-2.46 1.91-18.31 5.92-18.48 19.69-.16 13.77 2.78 16.91-.16 17.26-5.72 0-6.54-15.34-6.38-22.14.17-6.8.33-5.75.33-5.75s3.92 1.04 3.6 4.36c-.33 3.31 3.92-8.2 2.45-11.33 2.61 2.61 6.05 1.57 6.05 1.39 0-.17-1.96-2.26-2.78-3.83s2.94.87 2.94.87.16-2.62-3.11-2.44c-4.25 0 .66-1.4.66-1.4s2.45 2.27 4.09-.17c-1.8-1.92-4.42-2.97-4.42-2.97s-2.29-4.35-5.39-5.22c-3.6-.88-3.11 1.56-7.2 1.22-.81 1.56-.81 1.74.82 2.26-2.78 1.92-1.31 5.75-1.31 5.75s4.42-1.91 4.25 1.22c-.16 3.14-2.61 2.62-4.25.7-1.47-.87-1.96.87-1.96.87l2.29 2.44s-4.41-.17-5.56 2.79c2.45-.17 3.76.53 3.76.53s-5.07 2.26-5.56 3.48-.65-1.39-.81-1.39c-.17 0-4.91-1.75-4.91-1.75l-1.64 7.54s3.28 3.27 5.07 2.22c1.8-1.04 5.07-4.18 7.03-3.31-5.72 4.36-11.44 10.63-14.55 11.51-.81-.7-3.59-3.49-4.74-2.1-1.14 1.4-.32 3.14 1.15 2.97 1.47-.18-4.74 1.39-3.44 4.01 1.31 2.61 1.15 2.44 2.29 1.74 1.15-.7-.98-.87 3.27-2.09s4.09-2.44 4.09-2.44-.82 1.91-3.11 2.44c-2.29.52-4.08.52-3.59 1.22.49.69 1.47 1.91 1.14 2.61s4.74-3.66 6.05-.17c3.43-.18 5.72-4.36 4.09-6.8.16 2.61 1.8 3.49.81 4.71-.98 1.22 7.69-4.01 3.44-7.15 1.14 2.61 1.31 4.71 1.31 4.71s1.96-.18 2.45-.88c.49-.69-.98 1.92-.33 2.44.65.53 3.76 3.49 2.45 5.58-.81-1.22-.98-3.14-1.96-2.96-.98.17-5.07 3.14-7.52 3.31s2.94 9.07 2.94 9.07-3.76-.53-4.25-.18-2.94-3.14-3.43-1.04c-.82 2.61.82 1.56.82 1.56s-2.13-1.04-3.27.18c-1.15 1.22-2.29 2.44-1.47 2.96.81.52 4.41.52 4.9.35s-4.09.35-4.41.87c-.33.52-.98 2.44 0 3.14s3.43-.35 3.59-.87c.17-.53.33 1.91.33 1.91s4.25.35 4.25-4c0-4.36.33 3.13.33 3.13s4.25.7 4.41-3.66c.17-4.35.49 2.97.49 2.97s2.78-.88 2.78-1.57c0-.7-.16 8.71-2.12 11.33-3.11-2.1-5.07 1.39-5.07 1.39s.16 5.05-.17 6.27c-.32 1.22 2.13-.69 2.29-1.22.17-.52 3.11-1.91 3.27-2.26.17-.35.98-2.09.98-2.09s-.65 2.44-1.79 2.79c-1.15.34-2.29 1.56-1.8 2.61s2.29 1.74 2.94 2.79c.65 1.04 2.94-6.1 2.94-6.1l.17 1.57s2.94-.7 3.27-2.09c.32-1.4-3.11-2.62-.33-4.88 2.78-2.27 0 2.09 0 2.09s.98 3.31 1.63 3.31c.66 0 2.29-6.28.66-7.84-1.64-1.57 2.45 1.91 2.45 1.91s2.29-6.45-.16-7.32c-2.46-.87-3.6-1.22-3.6-1.22s1.31-1.74.65-1.91c-.65-.18 3.44 3.83 4.09 2.78.66-1.04 1.64-4.18-3.1-5.92-4.75-1.74-.17-6.63-.17-6.63s2.95 3.49 5.07 1.57c2.12-1.91-.16-1.91-.16-1.91s6.04-3.84 6.21-5.76c-1.15-.17-3.11.18-3.11.18s3.44-2.27 2.62-5.93c-1.31 1.92-3.11 1.92-3.11 1.92s2.95-2.96 2.45-5.75c-1.79 1.39-1.63 2.44-2.78 2.09-1.14-.35-3.1-11.33 1.48-12.03 4.57-.69 2.12 5.41 2.28 5.41.17 0 6.87-2.79 0-7.32 1.64-.53 5.07 2.61 5.07 2.61s-1.47-7.67-8.83-2.96c1.8-1.92 2.95-3.14 4.42-2.79s6.7-.18 6.7-1.74c-1.3-1.05-4.08.52-5.56 0-1.47-.53 10.47-1.4 9.49-7.32z" stroke="#006b00" stroke-linecap="round" stroke-width=".68918" transform="matrix(.71758 0 0 .71757 -4.9419 -1.3249)"/>
  </g>
  <g stroke="#006b00" stroke-width="1.25" stroke-linecap="round">
    <g fill="none">
      <path d="M481.3 118.54s12.25-6.43 18.37 1.54" transform="matrix(.38317 0 0 .4085 -85.7701112 147.4417124)"/>
      <path d="M504.57 132.32c-.31 0-4.29 3.98-5.21 3.98" transform="matrix(.38317 0 0 .4085 -85.7701112 147.4417124)"/>
      <path d="M512.84 145.18s11.32.92 18.67-10.41" transform="matrix(.38317 0 0 .4085 -85.7701112 147.4417124)"/>
      <path d="M525.08 141.81s.92 6.13 2.76 6.13c1.83 0-3.06 1.53-4.9.3 2.14 2.76 3.37 7.66 0 9.49" transform="matrix(.38317 0 0 .4085 -85.7701112 147.4417124)"/>
    </g>
    <path d="M519.26 218.97s-3.98 4.28-8.88 4.59" transform="matrix(.38317 0 0 .4085 -85.7701112 147.4417124)" fill="#e80000"/>
    <g fill="none">
      <path d="M523.86 199.37s-2.45-12.24-.92-15.31c.92-3.98 4.9-5.51 7.96-10.71" transform="matrix(.38317 0 0 .4085 -85.7701112 147.4417124)"/>
      <path d="M522.63 190.49s-3.06 7.35-16.53 4.9" transform="matrix(.38317 0 0 .4085 -85.7701112 147.4417124)"/>
      <path d="M526.31 172.12s.91 9.8-11.33 6.13" transform="matrix(.38317 0 0 .4085 -85.7701112 147.4417124)"/>
      <path d="M511.3 128.04s-4.9 4.28-3.06 10.1" transform="matrix(.38317 0 0 .4085 -85.7701112 147.4417124)"/>
    </g>
  </g>
  <path d="M117.18152603 195.36672704s2.46375862-1.0008207 2.93505304-1.50327356c.46746275-.49836786 1.29127007-1.49918857 1.52500145-2.25082535.23373137-.7475518-1.64378297-1.87500697-.7050258-3.5004215.58624428-.75041129 1.40621993-.87541175 2.81627152 0 1.40621992.87377775-1.29127007-2.75123571-2.69749-2.87623618-1.41005159-.12540896-2.34880876 1.00041222-2.69749.75000279-.3525129-.25000093.11494986 1.00082071-.47129441 1.00082071s1.17248855 1.00041221 1.05753869 1.62745703c-.11878152.62500232 1.87368268 2.74919322 1.75873282 3.25164606-.11878152.49836787-2.93505303 3.37419555-3.5212973 3.50083z" stroke-linecap="round" stroke-width="1.25" fill="#006b00"/>
  <g stroke-linejoin="round">
    <path d="M534.27 97.112c2.79-.636 3.24.07 2.75 2.449-1.31-.66-1.79-1.217-2.75-2.449z" transform="matrix(.38317 0 0 .4085 -85.7701112 147.4417124)" stroke="#ffc900" stroke-linecap="round" stroke-width="1.25" fill="#ffc900"/>
    <g stroke="#006b00" fill="#e80000">
      <g stroke-width="1.25">
        <path d="M514.71 233.52s-1.03 6.41 1.49 6.94c-.13-2.48.54-4.17 1.16-4.83-.54-.25-2.53-2.07-2.65-2.11z" transform="matrix(.38317 0 0 .4085 -85.7701112 147.4417124)"/>
        <path d="M509.03 225.63c-2.32-.33-6.23 1.59-5.11 3.91 1.89-1.62 3.63.13 4.95-1.52.4-.46.29-1.81.16-2.39z" transform="matrix(.38317 0 0 .4085 -85.7701112 147.4417124)"/>
        <path d="M509.01 221.05s-3.65-.58-4.16 1.95c2.52-.32 3.27-.59 4.11-.06.24-.54.01-1.76.05-1.89z" transform="matrix(.38317 0 0 .4085 -85.7701112 147.4417124)"/>
      </g>
      <g stroke-width="1pt">
        <path d="M493.54 184.94s2.19.82 2.81 3.06c1.74-1.08 2.57-5.83-2.81-3.06z" transform="matrix(.38317 0 0 .4085 -85.7701112 147.4417124)"/>
        <path d="M488.12 190.39c.09-.04 4.59-2.77 5.05-.16-.95.95-1.37 1.57-2.11 1.78-.58 0-1.74-1.78-2.94-1.62z" transform="matrix(.38317 0 0 .4085 -85.7701112 147.4417124)"/>
        <path d="M487.67 199.24c.08-.04 2.89-2.52 3.97-.87 1.07 1.66-.87 1.57-.87 1.57s-.99-.45-3.1-.7z" transform="matrix(.38317 0 0 .4085 -85.7701112 147.4417124)"/>
        <path d="M483.7 149.96c-.04 0-3.6-1.37-5.09 1.11 2.36.29 3.19 1.12 4.26 1.95-.29-1.04-.78-2.61.83-3.06z" transform="matrix(.38317 0 0 .4085 -85.7701112 147.4417124)"/>
        <path d="M476.8 168.52s.16-4.17 2.14-5.87c1.12.62 1.45 1.61 2.2 2.85-1.49.33-3.48.42-4.34 3.02z" transform="matrix(.38317 0 0 .4085 -85.7701112 147.4417124)"/>
        <path d="M486.3 165.54s-3.92 1.82-2.64 3.81c1.28-1.37 2.69-.95 2.69-.99s0-2.77-.05-2.82z" transform="matrix(.38317 0 0 .4085 -85.7701112 147.4417124)"/>
      </g>
    </g>
    <path d="M480.64 125.6c-1.41 1.58 1.74 5.01 5.04 4.51.83-3.72-4.21-5.66-5.04-4.51z" transform="matrix(.38317 0 0 .4085 -85.7701112 147.4417124)" stroke="#006b00" stroke-width="1pt" fill="#ffc900"/>
    <path d="M98.37956096 195.81199014c-.26438467.71487193.7854907 1.71977763 1.39472494 1.43791383.24522637-.73529685-1.11884528-2.0057264-1.39472494-1.43791383z" stroke-width="1pt" fill="none"/>
  </g>
  <g stroke-linejoin="round" stroke-width="1pt" stroke="#006b00">
    <path fill="#e80000" d="M484.28 122.75s.62 2.94 3.47 2.15c-.45-2.27-2.44-3.97-2.44-3.97-.12.67.41 1.7-1.03 1.82z" transform="matrix(.38317 0 0 .4085 -85.7701112 147.4417124)"/>
    <path fill="#e80000" d="M486.18 131.27s1.57 1.69 4.67-1.78c-1.4.41-3.88-.83-3.88-.83s0 2.4-.79 2.61z" transform="matrix(.38317 0 0 .4085 -85.7701112 147.4417124)"/>
    <path fill="#ffc900" d="M480.46 118.86c-1.4 1.57.59 3.76 3.89 3.27.83-3.72-3.06-4.42-3.89-3.27z" transform="matrix(.38317 0 0 .4085 -85.7701112 147.4417124)"/>
  </g>
  <path fill="url(#linearGradient748)" d="M144.62 266.62s7.04-2.01 10.78 1.01c3.73 3.01 3.73.28 3.73.28s5.46 2.01 7.04 1.58-1.15.15 1-1.15c2.16-1.29-4.31.29-4.88-2.44-1.01-1.72.14-3.88-2.15-3.16-1.58-2.01 1-3.44.43-5.6-1.58 1.15-2.45-.43-3.74 2.44-3.01-.57-.43-4.74-3.73-5.17 0 3.02-2.44 3.16-2.59 4.89-1.43 1-7.75 4.74-5.89 7.32z" transform="matrix(.71758 0 0 .71757 -4.9419 -1.3249)"/>
  <g stroke="#000">
    <g fill="#c01500">
      <path stroke-width="1pt" d="M63.624 495.58c4.566-1.1 29.306 5.47 38.846 15.69-2.03-18.21-7.072-32.16-7.072-32.16s-14.743-4.21-16.767-2.18c-2.968 3.12-11.883 12.49-15.007 18.65z" transform="matrix(.71758 0 0 .71757 -4.9419 -1.3249)"/>
      <path stroke-width="1pt" d="M56.082 411.46c-1.734.29-3.469 1.45-5.203 4.34-2.024 4.91-3.469 17.34-6.36 20.23s-5.493 3.18-5.493 5.79c0 2.6.29 8.67 8.095 10.98 7.805.29 20.236-12.43 20.236-12.43s6.36-6.94 8.961-14.45c-15.032 5.2-25.728-8.68-20.236-14.46z" transform="matrix(.71758 0 0 .71757 -4.9419 -1.3249)"/>
      <path stroke-width=".99323pt" d="M273.49 492.68c-4.53-1.09-29.55 5.44-39.02 15.6 2.01-18.1 7.02-31.98 7.02-31.98 1.75-.47 14.47-4.18 16.48-2.16 2.94 3.1 12.42 12.42 15.52 18.54z" transform="matrix(.71758 0 0 .71757 -4.9419 -1.3249)"/>
      <path stroke-width=".99323pt" d="M280.5 409.05c1.72.29 2.33 2.55 3.74 5.43 2 4.88 4.07 12 6.94 14.87 2.87 2.88 5.45 7.13 5.45 9.72s-.6 6.08-8.35 8.38c-7.74.29-18.97-9.66-18.97-9.66s-6.31-6.89-8.89-14.37c14.92 5.18 24.58-8.14 20.08-14.37z" transform="matrix(.71758 0 0 .71757 -4.9419 -1.3249)"/>
    </g>
    <path d="M47.41 479.69s15.61 10.69 15.9 15.61c41.92-62.16 148.88-81.53 209.87-4.34 8.1-10.7 16.48-14.16 16.48-14.16-64.17-83.84-191.95-73.43-242.25 2.89z" stroke-width="1pt" fill="#fb0" transform="matrix(.71758 0 0 .71757 -4.9419 -1.3249)"/>
    <g fill="#3fa4d5">
      <g stroke-width="1pt">
        <path d="M206.44 241.88l6.11-.15-10.91 13.82 13.09 15.28-25.75 32.44 24.3 29.24c-2.67 6.55-5.77 12.51-9.9 17.9l-13.96-15.43 25.31-31.56-20.8-23.57 12.51-37.97z" transform="matrix(.71758 0 0 .71757 -4.94190513 -1.32486715)"/>
        <path d="M119.15 244.64l-6.55.15 12.22 13.23-12.94 16.15 26.91 29.25-22.26 29.82c2.67 6.55 6.5 13.82 10.62 19.2l13.24-16.73-27.2-30.26 19.93-25.31-13.97-35.5z" transform="matrix(.71758 0 0 .71757 -4.94190513 -1.32486715)"/>
        <path d="M149.41 323.2l-9.6 12.8 34.33 39.72c6.06-3.06 10.82-6.55 16.01-10.76l-17.9-20.66 7.28-21.39L190 334.98l-32.73 41.76c-5.48-2.33-11.54-5.97-17.02-10.48l17.31-21.96-8.15-21.1z" transform="matrix(.71758 0 0 .71757 -4.94190513 -1.32486715)"/>
        <path d="M138.79 303.27l6.26 7.86-4.08-10.62-2.18 2.76z" transform="matrix(.71758 0 0 .71757 -4.94190513 -1.32486715)"/>
      </g>
      <path stroke-width="1.29132" d="M183.6 310.22c.13-.15 5.05-6.7 5.05-6.7l-1.91-2.61-3.14 9.31z" transform="matrix(.71758 0 0 .71757 -4.94190513 -1.32486715)"/>
    </g>
  </g>
  <g stroke="#fff700" stroke-linecap="round" stroke-width="1pt" fill="none">
    <path d="M255.94 200.94s6.04-5.17 10.34-5.32" transform="matrix(.71758 0 0 .71757 -4.9419 -1.3249)"/>
    <path d="M256.81 200.22c.14-.14 36.05-5.17 37.19-6.32" transform="matrix(.71758 0 0 .71757 -4.9419 -1.3249)"/>
    <path d="M256.95 200.51c.14-.15 40.21-3.45 40.21-3.45" transform="matrix(.71758 0 0 .71757 -4.9419 -1.3249)"/>
    <path d="M256.81 200.65s42.65-2.01 45.24.15" transform="matrix(.71758 0 0 .71757 -4.9419 -1.3249)"/>
    <path d="M256.66 200.51s41.8.29 42.52 1.29" transform="matrix(.71758 0 0 .71757 -4.9419 -1.3249)"/>
    <path d="M256.81 200.51l40.21 3.3" transform="matrix(.71758 0 0 .71757 -4.9419 -1.3249)"/>
    <path d="M256.38 200.8c.14 0 40.93 3.59 44.95 8.76" transform="matrix(.71758 0 0 .71757 -4.9419 -1.3249)"/>
    <path d="M303.48 216.88c-.14-.14-13.93-16.52-47.25-16.23" transform="matrix(.71758 0 0 .71757 -4.9419 -1.3249)"/>
    <path d="M256.38 200.94s23.12 1.58 30.44 9.62" transform="matrix(.71758 0 0 .71757 -4.9419 -1.3249)"/>
    <path d="M256.81 200.65s14.93-2.87 30.59 15.95" transform="matrix(.71758 0 0 .71757 -4.9419 -1.3249)"/>
  </g>
  <g stroke="#000">
    <g stroke-width="1pt">
      <path fill="url(#linearGradient801)" d="M247.4 217.74s20.72.82 20.72 2.85-15.44 5.89-15.64 14.42 11.78 9.14 12.59 19.9c.81 10.77-9.34 12.39-11.37 15.24-2.04 1.42-6.91 16.65-6.3 25.59s3.25 39.2 7.92 45.3c3.66 2.84 9.14 11.98 15.03 9.14 5.89-2.85 1.83-13.2 1.22-16.05-.61-2.84 2.44-7.51 2.44-11.78s-2.24-7.72-2.03-8.73c.2-1.02 16.45 3.86 15.43 19.9-1.01 16.05-7.51 11.17-7.51 11.17s2.03 19.71-3.05 22.35c-9.14 4.87-15.84-1.02-15.84-1.02l.86 4.01-6.95-3.6s-8.94-12.8-10.97-18.49c-2.03-5.68-4.47-31.07-3.66-36.56.81-5.48 1.42-37.58 1.02-39.2-.41-1.63-2.03-28.44-1.02-32.5 1.02-4.06 7.31-21.94 7.11-21.94z" transform="matrix(.71758 0 0 .71757 -4.9419 -1.3249)"/>
      <path fill="#ff7000" d="M225.06 212.46s14.42-14.01 22.75-12.39c4.26 0 .2 3.05.2 3.05s7.31.61 8.33 3.86c.2 1.42-3.46 1.83-3.46 1.83s3.05.61 3.25 3.25c.21 2.64-30.87.6-31.07.4z" transform="matrix(.71758 0 0 .71757 -4.9419 -1.3249)"/>
      <path fill="none" d="M225.87 211.85s15.44-2.03 21.94-8.53" transform="matrix(.71758 0 0 .71757 -4.9419 -1.3249)"/>
      <path fill="none" d="M241.51 207.59s11.37-.41 11.37 1.22" transform="matrix(.71758 0 0 .71757 -4.9419 -1.3249)"/>
    </g>
    <path stroke-linejoin="round" d="M281.93 373.74s9.75-2.24 12.39-5.69c1.63-1.22 10.16 12.8-12.39 5.69z" stroke-width="1.25" fill="#fff" transform="matrix(.71758 0 0 .71757 -4.9419 -1.3249)"/>
  </g>
  <path d="M279.29 293.1s1.22 7.52-2.23 12.59c-1.83 2.03-7.32 5.49-7.32 7.93 0 2.43 2.03 5.68 1.63 8.53-.41 2.84-3.45 5.69-3.25 8.12 0 2.44 3.45 15.44 3.04 15.64" stroke="#fff" stroke-linecap="round" stroke-width="1.25" fill="none" transform="matrix(.71758 0 0 .71757 -4.9419 -1.3249)"/>
  <path d="M261.42 268.73s-7.72 2.64-9.35 10.36" stroke="#fff" stroke-linecap="round" stroke-width="1.25" fill="none" transform="matrix(.71758 0 0 .71757 -4.9419 -1.3249)"/>
  <path d="M258.16 207.59s2.65 7.31 11.18.4c-5.49-7.51-11.18-.2-11.18-.4z" stroke="#000" stroke-width="1pt" fill="#c75b00" transform="matrix(.71758 0 0 .71757 -4.9419 -1.3249)"/>
  <path d="M184.83199773 147.41480352a.655904.5101564 0 01-.655904.5101564.655904.5101564 0 01-.655904-.5101564.655904.5101564 0 01.655904-.51014921.655904.5101564 0 01.655904.51014921z"/>
  <g stroke-width="1pt">
    <path fill="#fff" d="M188.41 190.62s16.18 17.51 26.65 17.32c1.9 5.14-4.76 9.92-7.42 12.2-5.33-1.71-10.15.31-22.52-14.91.77-9.71 3.48-14.23 3.29-14.61z" stroke="#000" transform="matrix(.71758 0 0 .71757 -4.9419 -1.3249)"/>
    <path fill="#fff" d="M210.3 149.89c2.09-6.47 6.28-11.61 9.89-12.18-.95-4.95 7.62-26.83 32.55-35.21 1.52 11.23-10.66 22.27-10.66 22.27s36.73-6.28 44.15-15.61c-.76 4.19-8.18 30.26-47.39 30.07 14.85 14.09-4.75 25.32-13.13 21.89 15.42-11.8-4.37-18.84-15.41-11.23z" stroke="#000" transform="matrix(.71758 0 0 .71757 -4.9419 -1.3249)"/>
    <path fill="#cccccd" d="M222.86 140.76c7.42-4.76 10.08-4.76 16.18-3.81-4.38.57-4.38.76-4.38.76s-.38.57 2.28 3.05c-3.04-.77-5.71-2.48-14.08 0z" stroke="#ccc" transform="matrix(.71758 0 0 .71757 -4.9419 -1.3249)"/>
  </g>
  <g stroke="#000" stroke-width="1pt">
    <path d="M220 137.71s14.66-7.8 22.84-13.13" fill="none" transform="matrix(.71758 0 0 .71757 -4.9419 -1.3249)"/>
    <path fill="#00f" d="M207.44 220.12s20.18 5.52 22.46-23.41c-4.38-12.56-10.47-39.59-1.14-47.39-8.57-5.9-17.89.19-17.89.19-.57 1.33-8.19 12.18 2.09 31.21-24.36-6.47-14.46 16.56-14.46 16.56.95-3.62 13.89-7.04 17.13 11.42 1.33 4.57-8.76 11.61-8.19 11.42z" transform="matrix(.71758 0 0 .71757 -4.9419 -1.3249)"/>
    <path fill="#00f" d="M230.09 196.9s21.32-11.42 20.74-38.25c-18.08.38-24.55 23.78-24.55 23.78l3.81 14.47z" transform="matrix(.71758 0 0 .71757 -4.9419 -1.3249)"/>
    <path fill="#fff" d="M134.55 195.57s-15.79 13.7-24.74 9.32c-6.66 4-14.462-3.04-14.462-3.04s9.132 33.68 41.872 9.32c-.57-7.42-2.29-15.03-2.67-15.6z" transform="matrix(.71758 0 0 .71757 -4.9419 -1.3249)"/>
    <path fill="#00f" d="M109.62 204.32c1.33-7.04 6.85-10.47 11.23-3.81 5.9 1.15 11.8-23.02-9.14-19.03 5.9-31.59-11.795-43.39-11.795-43.39s-6.28 35.02-3.426 41.49c2.855 6.47-4.186-11.99-26.834-17.13-.381 26.46 25.312 38.83 25.312 38.83s7.233 6.66 14.653 3.04z" transform="matrix(.71758 0 0 .71757 -4.9419 -1.3249)"/>
    <g fill="none">
      <path d="M111.71 181.29s-9.89 8.38-7.61 19.8" transform="matrix(.71758 0 0 .71757 -4.9419 -1.3249)"/>
      <path d="M96.68 180.15s-2.284 8.18 2.664 19.79" transform="matrix(.71758 0 0 .71757 -4.9419 -1.3249)"/>
      <path d="M95.157 202.61s4.568-7.42 14.463 2.09" transform="matrix(.71758 0 0 .71757 -4.9419 -1.3249)"/>
    </g>
    <path d="M97.06 151.22c0-.19-15.034 0-6.09 15.23-6.661 2.09-21.505-7.61-11.228-20.56-33.686-.76-47.389-16.93-47.389-31.78 9.897 10.28 33.496 6.09 41.87 12.37-10.277-9.51-8.184-22.65-8.184-22.65s28.738 8.57 33.876 34.07c-1.713 4.95-2.474 13.7-2.855 13.32z" fill="#fff" transform="matrix(.71758 0 0 .71757 -4.9419 -1.3249)"/>
    <path d="M73.942 125.82c5.546 5.64 19.795 7.33 27.028 13.61" fill="none" transform="matrix(.71758 0 0 .71757 -4.9419 -1.3249)"/>
  </g>
  <path d="M80.503 142.47s11.797-1.52 15.216 2.66c-4.616 0-6.155-1.14-12.822 1.34 1.88-.96 1.367-2.67 2.393-2.67s-4.274-1.33-4.787-1.33z" stroke="#ccc" stroke-width=".94781" fill="#cccccd" transform="matrix(.71758 0 0 .71757 -4.9419 -1.3249)"/>
  <g stroke-width="1pt" stroke="#000">
    <path fill="#923f00" d="M139.31 50.166s6.47-5.71 13.51-.571c-3.18 9.507-14.65 5.9-14.65 5.9s.38 4.758-.76 7.041c2.29 1.727 4.18 7.423 4.18 7.423s11.8-2.855 14.28 2.284c4.52-.624 7.8 0 7.8 0s9.14-2.284 12.37-2.284c3.24 0 13.51 2.664 14.46 4.567.96 1.903 4.38 14.655 6.67 14.464 2.28-.19-5.52 3.045-7.62-.19-2.09-3.236-1.52 4.187-1.52 4.187s6.47 6.851 7.23 8.373c.76 1.52-3.99 13.89-.38 22.46-3.17.29-3.42 3.61-3.42 3.61-.18 3.77-4.95 4.76-4.95 4.76l-1.14-5.14-3.24 1.91 1.33-4s4.38-10.66 4.76-14.08c.38-3.43-4-9.52-7.42-9.52-3.43 0-5.9 10.85-5.9 10.85s-1.71 8.18-1.14 8.94-2.29-2.66-2.29-2.66-1.52 4.95-2.66 6.47-3.62 2.09-3.62 2.09-1.71-4.95-1.14-6.85 9.33-9.32 8.57-14.65c-.77-5.33 0-4-.2-4.19-.19-.19-4.56-3.996-4.75-6.089-.19-2.094-5.71 2.664-12.94 1.141-2.22 3.868-2.48 13.508-2.48 13.508s-.76 11.61.76 12.95c1.53 1.33-3.8 4.18-3.8 4.18l-3.81 5.14s-1.33-3.23-1.33-3.04-2.67 1.9-2.67 1.9l1.53-3.81c-.1-2.88 3.7-10.75 3.7-17.41s.48-13.798.48-13.798-7.04-.381-6.85 6.848c.19 7.24-1.71 7.62-1.33 9.71s2.28 7.99 1.71 9.71c-.57 1.71-2.85 2.28-2.85 2.28l-.57.95s-7.04 3.24-6.85 4.57-.19-3.81-.19-3.81l-.39-5.52s4.19-2.66 4.19-9.32-.96-7.61-.77-9.13c.19-1.53 1.15-7.05.96-7.62-.19-.571-3.99 1.522-5.14 1.522-1.14 0 2.1-3.996 2.48-6.851s-3.81 2.664-7.23-.571c1.59-3.514 3.99-4.568 4.37-7.232s-2.66 2.284-5.33.381c.22-2.554 2.86-4.758 2.86-4.758s-2.17-.266-3.05 0c-1.71-.571 1.91-3.236 2.1-7.042s-2.1-5.329-2.1-5.519-3.8-3.426-4.37-4.758-.57-2.855-.57-2.855-6.29 4.568-13.71-5.138c6.8-5.803 14.09-1.523 14.09-1.523s1.9-5.329 10.65-4.948c8.76.381 10.47 5.329 10.09 4.758z" transform="matrix(.71758 0 0 .71757 -4.9419 -1.3249)"/>
    <path fill="#00f" d="M187.19 148.61c.15 0 16.16.48 16.32 9.04.16 8.55-4.91 6.34-5.07 6.34s-11.73-1.43-11.73-1.43l.48-13.95z" transform="matrix(.71758 0 0 .71757 -4.9419 -1.3249)"/>
    <path fill="#fffeff" d="M171.65 146.23s19.97-.15 18.86 8.56c-1.11 8.72-6.18 6.98-6.18 6.98l-9.67-.8-3.01-14.74z" transform="matrix(.71758 0 0 .71757 -4.9419 -1.3249)"/>
    <path fill="#00f" d="M160.4 145.28l11.57.95s6.97.95 6.66 7.61c-.32 6.66-7.14 6.82-7.14 6.82l-11.25-.64.16-14.74z" transform="matrix(.71758 0 0 .71757 -4.9419 -1.3249)"/>
    <path fill="#fff" d="M133.3 148.61c-.16 0-16.17.48-16.33 9.04-.15 8.55 4.92 6.34 5.08 6.34s11.73-1.43 11.73-1.43l-.48-13.95z" transform="matrix(.71758 0 0 .71757 -4.9419 -1.3249)"/>
    <path fill="#00f" d="M148.83 146.23s-19.97-.15-18.86 8.56c1.11 8.72 6.18 6.98 6.18 6.98l9.67-.8 3.01-14.74z" transform="matrix(.71758 0 0 .71757 -4.9419 -1.3249)"/>
    <path fill="#fff" d="M160.09 145.28l-11.57.95s-6.98.95-6.66 7.61 7.13 6.82 7.13 6.82l11.25-.64-.15-14.74z" transform="matrix(.71758 0 0 .71757 -4.9419 -1.3249)"/>
    <path fill="#5e0043" d="M191.07 241.51s8.32-12.26 11.83-10.95c3.06 1.02.73 10.51-.73 11.39l-11.1-.44z" transform="matrix(.71758 0 0 .71757 -4.9419 -1.3249)"/>
    <path fill="#5e0043" d="M134.04 243.7c-2.62-3.65-6.42-13.72-9.92-10.95-3.07 1.02-.73 10.51.73 11.39l9.19-.44z" transform="matrix(.71758 0 0 .71757 -4.9419 -1.3249)"/>
  </g>
  <path d="M139.55 219.45s16.21 9.99 21.53 10.25 22.18-12.97 22.18-12.97" stroke="#000" stroke-width="1pt" fill="none" transform="matrix(.71758 0 0 .71757 -4.9419 -1.3249)"/>
  <path d="M141.11 180.29l3.11-3.89 15.57 7.91 15.82-7.01 3.11 3.25L161.08 193l-19.97-12.71z" stroke="#000" stroke-width="1pt" fill="#5e0043" transform="matrix(.71758 0 0 .71757 -4.9419 -1.3249)"/>
  <path stroke-linejoin="round" d="M128.75 180.08c1.26 1.59 11.32 13.82 13.14 23.94 1.81 10.12-1.04-13.88-1.04-13.88s12.45 6.1 12.84 9.99 5.95-.26 6.22-.93l-36.05-23.41 4.89 4.29z" stroke="#474747" stroke-width="1.25" fill="#474747" transform="matrix(.71758 0 0 .71757 -4.9419 -1.3249)"/>
  <path stroke-linejoin="round" d="M190.26 179.38s-13.1 17.25-11.54 36.05c-2.7-9-.52-23.86-.52-23.86l-2.85 1.82s-2.98 12.71-6.75 14.65c-.63-1.51-.51-2.07-.51-2.07s-4.02 5.18-4.8 5.7.26 17.51.26 17.51 1.35 12.32 2.9 12.19c-1.77.86-3.94 2.21-3.94 2.21l-1.61-32.88 3.68-3.7s4.93-5.96 5.32-11.8c-2.14 1.82-4.54 2.34-4.54 2.34s-.65 8.3-2.59 9.46c-1.95 1.17-2 3.34-2 3.34l-.46-10.85 29.95-20.11z" stroke="#474747" stroke-width="1.25" fill="#474747" transform="matrix(.71758 0 0 .71757 -4.9419 -1.3249)"/>
  <path d="M160.3 199.35l2.54 51.87" stroke="#000" stroke-linecap="round" stroke-width="1.25" fill="none" transform="matrix(.71758 0 0 .71757 -4.9419 -1.3249)"/>
  <path d="M128.4 224.12s5.96 3.51 8.17 14.14c19.45-1.43 25.55 5.45 25.55 5.45s15.95-7.65 23.35-6.23c2.59-5.44 9.98-12.45 9.98-12.45" stroke="#000" stroke-width="1pt" fill="none" transform="matrix(.71758 0 0 .71757 -4.9419 -1.3249)"/>
  <path d="M120.26 173.28l40.04 26.2 36.06-24.25s7.52-4.15 6.87-7.13c-.64-2.99-3.24-1.82-4.54-1.3-1.29.52-37.74 26.33-37.74 26.33l-38.78-24.52s-2.85-.9-3.37.91c-.52 1.82 1.07 2.85 1.46 3.76z" stroke="#000" stroke-width="1pt" fill="#b4b6b9" transform="matrix(.71758 0 0 .71757 -4.9419 -1.3249)"/>
  <path stroke-linejoin="round" d="M191.87 166.48s-10.25-4.35-10.25-.58c0 3.76.29 4.15 1.94 6.57 1.64 2.41-1.26 3.96-1.26 3.96s-.39-1.06-.97-2.71c-.58-1.64-6.09-2.8-6.57-4.73-.48-1.94 1.16-5.03-2.13-5.41-3.28-.39-6.47 1.35-7.15 5.12s-4.93 12.56-4.93 12.56l.58-20c7.22.51 20.62 2.09 30.93 3.28-3.09-.48 1.16.2 1.07 1.26-.29.87-1.36.96-1.26.68z" stroke="#474747" stroke-width="1.25" fill="#474747" transform="matrix(.71758 0 0 .71757 -4.9419 -1.3249)"/>
  <path stroke-linejoin="round" d="M155.62 161.45c-1.83 0-11.02 1.06-13.34 2.42-2.32 1.35 3.77 3.47 3 5.31s-.87 5.51-3.77 4.74c-2.9-.78-12.66-5.61-12.95-7.25s-2.32-1.74-2.32-1.74 28.03-3.77 29.38-3.48z" stroke="#474747" stroke-width="1.25" fill="#474747" transform="matrix(.71758 0 0 .71757 -4.9419 -1.3249)"/>
  <g stroke-width="1pt" stroke="#000">
    <path fill="none" d="M160.04 159.15l-.07 24.58" transform="matrix(.71758 0 0 .71757 -4.9419 -1.3249)"/>
    <path fill="none" d="M141.11 130.19s-11.23 18.23-11.45 18.79" transform="matrix(.71758 0 0 .71757 -4.9419 -1.3249)"/>
    <path fill="url(#linearGradient746)" d="M161.8 129.74s4.89 6.67 4.33 8.56c2 1.56 4.23 7.79 4.23 7.79" transform="matrix(.71758 0 0 .71757 -4.9419 -1.3249)"/>
    <path fill="none" d="M180.7 128.63s-10.56 14.9-10.23 16.01" transform="matrix(.71758 0 0 .71757 -4.9419 -1.3249)"/>
  </g>
  <path d="M85.8970886 40.136507a1.9314858 1.1260203 17.54740249 01-2.15743133.51703119 1.9314858 1.1260203 17.54740249 01-1.53591916-1.64810174 1.9314858 1.1260203 17.54740249 012.15743134-.5170312 1.9314858 1.1260203 17.54740249 011.53591916 1.64810175z"/>
  <path d="M88.9600824 39.92554142a1.1260203 1.9314858 72.45259751 002.15743133.51703119 1.1260203 1.9314858 72.45259751 001.53591916-1.64810174 1.1260203 1.9314858 72.45259751 00-2.15743134-.5170312 1.1260203 1.9314858 72.45259751 00-1.53591916 1.64810175z"/>
  <g stroke="#000">
    <path stroke-linejoin="round" d="M254.49 366.13s-3.92.74-3.79 1.1c.12.37-11.39.74-11.63.37-.25-.37-1.72 1.96-1.72 1.96l1.84-1.1s2.81 2.93 3.67 2.69-.37 1.1-.12 1.35c.24.24 1.1-.49 1.1-.49l19.02-.32-8.37-5.56z" stroke-width="1pt" fill="#ff7000" transform="matrix(.71758 0 0 .71757 -4.9419 -1.3249)"/>
    <path stroke-linejoin="round" d="M261.58 372.05l-15.54.45s-3.91 3.55-4.16 4.4c-.24.86 2.57 1.1 2.57 1.1l.86 2.94 1.96-.73s13.21 1.96 25.34-.74c6.12-2.14 7.19-4.71 2.9-6.27-4.28-1.56-13.81-1.09-13.93-1.15z" stroke-width="1.25" fill="#ff7000" transform="matrix(.71758 0 0 .71757 -4.9419 -1.3249)"/>
    <path stroke-width="1pt" fill="url(#linearGradient794)" d="M208.37 403.93l27.97-1.25-5.21-4.42 75.65-3.05-2.61-6.01-84.7 3.4 10.19 4.76-22.88.68.68 2.38-6-.23s6.68 2.6 6.91 3.74z" transform="matrix(.71758 0 0 .71757 -4.9419 -1.3249)"/>
    <path stroke-width="1pt" fill="url(#linearGradient800)" d="M239.73 249.42c-2.23-1.11-12-2.44-22.89 4.67l.45 25.11s15.99-8.67 23.77-6.67c-.45-7.78-.45-17.77-1.33-23.11z" transform="matrix(.71758 0 0 .71757 -4.9419 -1.3249)"/>
  </g>
  <g stroke-width="1pt" stroke="#000" fill="none">
    <path d="M85.074 325.65l-65.956 65.48" transform="matrix(.71758 0 0 .71757 -4.9419 -1.3249)"/>
    <path d="M114.47 326.13l-53.532 70.5" transform="matrix(.71758 0 0 .71757 -4.9419 -1.3249)"/>
    <path d="M112.08 307.73l-71.455 86.51" transform="matrix(.71758 0 0 .71757 -4.9419 -1.3249)"/>
    <path d="M38.474 393.04l6.93-8.12" transform="matrix(.71758 0 0 .71757 -4.9419 -1.3249)"/>
    <path d="M125.7 351.22l-27.722 38.24" transform="matrix(.71758 0 0 .71757 -4.9419 -1.3249)"/>
    <path d="M96.783 394.48l.717 14.57" transform="matrix(.71758 0 0 .71757 -4.9419 -1.3249)"/>
    <path d="M138.36 364.6l-29.39 36.81" transform="matrix(.71758 0 0 .71757 -4.9419 -1.3249)"/>
    <path d="M133.11 398.54l11.95-19.6" transform="matrix(.71758 0 0 .71757 -4.9419 -1.3249)"/>
    <path d="M137.65 375.12l-14.34 16.25" transform="matrix(.71758 0 0 .71757 -4.9419 -1.3249)"/>
    <path d="M133.35 359.83l-9.8 11.94" transform="matrix(.71758 0 0 .71757 -4.9419 -1.3249)"/>
    <path d="M120.68 342.38s-29.871 43.73-29.393 47.32" transform="matrix(.71758 0 0 .71757 -4.9419 -1.3249)"/>
    <path d="M117.57 336.65c-.71.47-25.805 33.69-25.805 33.69" transform="matrix(.71758 0 0 .71757 -4.9419 -1.3249)"/>
    <path d="M90.331 380.85l-4.541 5.5" transform="matrix(.71758 0 0 .71757 -4.9419 -1.3249)"/>
    <path d="M80.055 394.72l-6.93 9.08" transform="matrix(.71758 0 0 .71757 -4.9419 -1.3249)"/>
  </g>
  <path d="M81.811 225s-2.024 6.36 0 9.54c2.023 3.18 14.743 28.91 14.743 28.91s8.676-10.7 11.856-10.99c3.18-.28 1.73 27.76 1.73 27.76s-5.2 4.91-8.38 4.62c-3.182-.29 7.8 10.99 7.51 20.53s-14.45 56.95-19.654 57.81c-5.203.87 2.313-8.67 2.024-11.27s-1.735-.87-2.891-3.76 1.735-7.23 1.156-10.12c-.578-2.89-3.18-2.31-3.469-4.33-.289-2.03 1.735-2.6 1.446-4.92-.289-2.31-3.469-1.73-3.18-3.76.289-2.02.578-1.15.289-4.91s-.867 2.6-4.047 2.89-5.782 7.52-5.782 7.52-6.36 8.96-12.72 4.91c3.758 8.1.868 11.57-.578 11.85-1.445.29 1.156 6.36-2.313 6.65s2.602 13.59-1.445 14.75c4.336 2.02.867 4.62.867 4.62s-10.02.84-7.805 13.88c-29.487-10.41-43.941-28.33-43.652-46.54.2893-18.22 6.071-34.69 20.236-40.76 4.047-15.04 10.985-31.23 10.985-31.23s-1.156-6.65-.289-10.98c.868-4.34 4.915-8.67 4.915-8.67s-.579-10.41-.289-15.61c.289-5.21 2.312-7.52 2.601-10.41s-.867-17.64 2.024-20.24 8.383-2.31 11.274-4.04c2.891-1.74 6.649-4.92 10.407-4.63s6.938 2.89 6.938 2.89 14.166 0 15.033 5.49c.867 5.5-2.891 7.52-2.891 7.52s2.024 7.81-6.649 15.03z" stroke="#2b2b2b" stroke-width="1pt" fill="#8a9396" transform="matrix(.71758 0 0 .71757 -4.9419 -1.3249)"/>
  <path d="M69.666 206.45a3.5588 1.7255 0 01-3.5588 1.7255 3.5588 1.7255 0 01-3.5588-1.7255 3.5588 1.7255 0 013.5588-1.7255 3.5588 1.7255 0 013.5588 1.7255z" transform="matrix(.63105 -.3416 .3416 .63105 -69.7465498 39.27449303)" stroke="#2b2b2b" stroke-width="1pt" fill="#cecfcf"/>
  <path d="M43.01699385 146.8045906a.77081256.68671316 0 01-.77074292.68188669.77081256.68671316 0 01-.77074292-.68188668.77081256.68671316 0 01.77074292-.68188668.77081256.68671316 0 01.77074292.68188668z"/>
  <g fill="none">
    <g stroke-width=".625" stroke="#2b2b2b">
      <path d="M87.971 216s3.511 15.68-.687 26.5" transform="matrix(.71758 0 0 .71757 -4.9419 -1.3249)"/>
      <path d="M89.051 209.14s6.85 9.06 5.966 20.33" transform="matrix(.71758 0 0 .71757 -4.9419 -1.3249)"/>
      <path d="M89.714 207.15c.221 0 5.745 4.86 5.524 8.17" transform="matrix(.71758 0 0 .71757 -4.9419 -1.3249)"/>
      <path d="M91.04 205.16s3.757 2.65 4.64 5.3" transform="matrix(.71758 0 0 .71757 -4.9419 -1.3249)"/>
    </g>
    <path stroke-width="1pt" d="M89.272 203.61s-13.479 21.88-11.711 35.58" stroke="#000" transform="matrix(.71758 0 0 .71757 -4.9419 -1.3249)"/>
    <path stroke-width=".625" d="M90.156 202.95s-17.899 10.61-21.213 45.3" stroke="#2b2b2b" transform="matrix(.71758 0 0 .71757 -4.9419 -1.3249)"/>
    <path stroke-width="1pt" d="M88.167 209.36l-7.071 5.3" stroke="#000" transform="matrix(.71758 0 0 .71757 -4.9419 -1.3249)"/>
    <path stroke-width=".625" d="M62.314 250.24s9.943-41.32 27.621-47.29" stroke="#2b2b2b" transform="matrix(.71758 0 0 .71757 -4.9419 -1.3249)"/>
  </g>
  <g stroke="#2b2b2b">
    <path stroke-width="1pt" fill="#2b2b2b" d="M96.785 264.16s9.505-11.93 11.715-11.49 1.54 27.62 1.54 27.62-7.07 5.3-8.61 5.08c-1.551-.22 7.95 12.82 7.73 17.68s-.44 4.86-.44 4.86 0-2.87-2.21-7.51-.89-9.95-15.249-21.66c-3.536-7.29 7.071 4.42 9.279 2.65 2.21-1.76-3.976-17.01-3.755-17.23z" transform="matrix(.71758 0 0 .71757 -4.9419 -1.3249)"/>
    <path stroke-width="1pt" fill="none" d="M79.893 196.96s-3.994 1.09-4.539 2.72c-.545 1.64-2.905 3.27-4.176 2.72-1.271-.54-3.632-2.54-3.632-2.54" transform="matrix(.71758 0 0 .71757 -4.9419 -1.3249)"/>
    <path stroke-linejoin="round" d="M57.196 210.94s-5.992 5.99-3.086 6.72c2.905.72 5.992-4.72 5.992-4.72s0 9.26 2.542 7.8c2.542-1.45 9.986-6.71 9.986-6.71s2.542-.19 3.087 0c.545.18 6.9 5.62 11.076 3.63-2.36 6.17-5.084 6.9-5.084 6.9s-4.358 5.63-9.986 4.35c-5.629-1.27-7.082-3.63-7.082-3.63s-4.721.37-6.174-1.81c-1.452-2.18-1.997-3.45-1.997-3.45s-2.723 2.72-3.45 1.45c-.726-1.27 0-8.72 4.176-10.53z" stroke-width="1.25" fill="#2b2b2b" transform="matrix(.71758 0 0 .71757 -4.9419 -1.3249)"/>
    <path stroke-width="1pt" fill="none" d="M91.151 202.59s-11.076-3.27-14.889 2.18c-3.813 5.44-2.905 8.53-.908 9.07" transform="matrix(.71758 0 0 .71757 -4.9419 -1.3249)"/>
  </g>
  <path d="M61.6925788 143.8251596a1.4983788 1.69669427 0 01-1.4983788 1.69669427 1.4983788 1.69669427 0 01-1.4983788-1.69669427 1.4983788 1.69669427 0 011.4983788-1.69669427 1.4983788 1.69669427 0 011.4983788 1.69669427z"/>
  <g stroke="#2b2b2b" fill="#2b2b2b">
    <path stroke-width="1pt" d="M60.624 230.54s4.517 6.95 9.902 8.86-3.735 3.56-9.12-.08c-3.908-5.3-2.866-9.12-2.866-9.12s1.042-1.05 2.084.34z" transform="matrix(.71758 0 0 .71757 -4.9419 -1.3249)"/>
    <path stroke-width="1pt" d="M99.275 271.54s-12.681-17.63-16.329-18.59c-3.648-.95 2.779-1.73 6.688 2 3.908 3.73-1.042-6.08-1.042-6.08l10.683 22.67z" transform="matrix(.71758 0 0 .71757 -4.9419 -1.3249)"/>
    <path stroke-linejoin="round" stroke-width="1.25" d="M59.409 373.42c4.863-1.3 26.056 12.16 30.833 15.55 4.777 3.38 14.768 1.21 14.768 1.21s-4.61 2.78-7.472 3.48c-2.866.69 8.512.69 8.512.69s-27.099 7.47-54.632-7.03c-2.519-11.29 5.906-13.81 7.991-13.9z" transform="matrix(.71758 0 0 .71757 -4.9419 -1.3249)"/>
    <g stroke-width="1pt">
      <path d="M90.416 275.88s-3.561-.69-5.385-2.78c-1.824-2.08-4.43-7.21-7.122-9.38-2.693-2.17-16.155-9.55-21.019-9.03s-6.341-.52-6.949-1.13-2.605.26-2.258 2.78c.348 2.52-3.735 8.08-2.258 10.68 1.476 2.61 8.425 13.2 9.815 13.55 1.389.35.521 6.17.521 6.17s6.166 6.25 7.73 6.6c1.563.35 3.126 1.48 2.953 2.95-.174 1.48-6.775 9.56-6.775 9.56s-7.122 3.73-7.209 5.82c-.087 2.08 1.737 6.42 7.383 7.81 5.645 1.39 20.845.26 21.627-1.04.781-1.3 1.997-9.12 1.476-9.9s-4.256-3.13-6.167-2.78c-1.91.35-3.647 1.91-3.474 2.26.174.35-2.692 1.82-2.692.43s5.645-7.64 6.166-7.12c.522.52 8.512 1.3 9.989 5.3 1.476 3.99 1.476 6.86 5.645 6.43 4.169-.44 9.987-4.26 10.507-12.25s-4.687-13.38-5.99-14.16-5.646-3.39-5.993-4.6c-.348-1.22-1.216-5.21-.521-6.17z" transform="matrix(.71758 0 0 .71757 -4.9419 -1.3249)"/>
      <path d="M15.286 311.15s13.463-3.48 16.937-3.39c3.474.08 16.589 6.16 20.411 9.9 3.821 3.73 11.638 12.59 16.763 11.81 5.124-.78 6.601-1.82 6.601-1.82L74 331.47s-4.169 1.13-6.253.61c-2.085-.52-6.167-1.83-10.249-5.82-4.082-4-16.676-14.77-27.359-13.99-10.684.79-16.85 11.3-16.85 11.3s.087-5.13.521-6.26-2.258 2.43-2.258 2.43l3.734-8.59z" transform="matrix(.71758 0 0 .71757 -4.9419 -1.3249)"/>
      <path d="M64.88 321.57c.087.08 3.388.95 8.946.95 5.559 0 8.512-2.43 8.512-2.43l-.347-2.17.868-3.04s4.256 4.34 4.169 5.21-1.737 1.22-1.737 1.22l-.608-2.09-1.476 1.83s-8.078 6.42-12.507 5.47c-4.43-.96-8.512-3.82-7.383-4.52 1.129-.69 1.737-.43 1.563-.43z" transform="matrix(.71758 0 0 .71757 -4.9419 -1.3249)"/>
      <path d="M45.251 332.95s-4.864-.09-7.035.95-2.953 2.35-4.43 2.17c-1.476-.17-2.605-2.08-2.171-2.86.608-1.22 3.474-2.78 8.946-2.35 5.472.44 4.69 2.09 4.69 2.09z" transform="matrix(.71758 0 0 .71757 -4.9419 -1.3249)"/>
      <path d="M62.275 346.15c0-.26-.348-7.12-3.04-9.9-2.693-2.78-5.993-2.78-7.47-2.44-1.476.35 5.472 3.39 6.167 5.39s2.953 7.56 2.345 8.95c-.608 1.38-1.737-3.91-5.993-5.39s-10.162-.69-8.946 1.22 5.993.17 8.425 4.25 4.256 8.43 4.256 8.43l.782-2.96 2.171-.6.26-5.65 1.043-1.3z" transform="matrix(.71758 0 0 .71757 -4.9419 -1.3249)"/>
    </g>
    <path stroke-linejoin="round" stroke-width="1.25" d="M58.801 368.38l-4.43-8.86s-1.39-5.64-5.124-7.21c-3.735-1.56-8.686-1.3-8.773.61s7.991 4.34 8.512 5.39c.521 1.04.261 2.78-.434 2.86-.695.09-4.256-1.3-6.08-.87-1.824.44-2.866 2.78-5.559 2.09-2.692-.7-4.951-9.29-3.908-10.16 1.042-.87-1.998 1.56-2.606-.7s.869-9.29-.174-10.16c-1.042-.87-6.079-3.91-6.166-4.52-.087-.6.26-34.56 28.662-6.42-12.16-14.42-16.937-12.86-19.195-12.94-1.65 0-12.681.95-15.46 15.02-2.78 14.07-6.08 5.3-6.08 5.3s-.608 6.08 2.345 7.82c2.953 1.73-1.39 6.77-1.39 6.77s-5.2978-12.94-4.5161-18.59c-1.0423 4.52-.9554 15.72 5.7321 27.97 7.817 8.25 15.2 15.9 34.829 24.49 10.336-15.8 9.815-17.71 9.815-17.89z" transform="matrix(.71758 0 0 .71757 -4.9419 -1.3249)"/>
  </g>
  <path stroke-linejoin="round" d="M40.214 368.47s5.732.69 7.295 3.65c1.564 2.95 2.259 7.47 2.259 7.47.955-1.91 1.389-3.56 3.3-4.95s3.301-1.57 3.214-2.61-6.08-7.38-9.12-7.73-8.338 3.3-8.338 3.3-.955 1.39 1.39.87z" stroke="#2b2b2b" stroke-width="1.25" fill="#8a9396" transform="matrix(.71758 0 0 .71757 -4.9419 -1.3249)"/>
  <g fill="none">
    <path d="M53.307 383.41s14.856 6.77 39.324 7.21" stroke="#8a9396" stroke-linecap="round" stroke-width="1.25" transform="matrix(.71758 0 0 .71757 -4.9419 -1.3249)"/>
    <path d="M102.9 314.45s-1.27 12.47-10.861 37.07" stroke="#2b2b2b" stroke-linecap="round" stroke-width="1.25" transform="matrix(.71758 0 0 .71757 -4.9419 -1.3249)"/>
    <path stroke-width="1pt" d="M100.99 322.12s-2.879 8.95-10.869 15.66" stroke="#2b2b2b" transform="matrix(.71758 0 0 .71757 -4.9419 -1.3249)"/>
  </g>
  <path d="M37.36876954 340.525448l1.81920882-2.05870833.58259602.5148206-.16004904.18111466q-.1333766.1509265-.15295935.20351003-.0338339.09911795.00021527.1883406.03102816.0865533.16686605.2065884l2.40583047 2.12594464q.14489375.12803602.1887666.14530075.04654223.01427964.10501783-.0093284.05545458-.02626307.16215873-.1470014.35744095-.4044942.46785498-.74232616.11308343-.3408888.05403377-.74246968-.05940127-.40728556-.33550453-.90392293l.6809906-.387373 1.06682619 1.93184196-2.84089922 3.21478536-.58259603-.5148206.17872048-.2022471q.10936636-.1237593.13217823-.21649087t-.00751306-.16791856q-.03067655-.08086296-.16953545-.20356743l-2.38473362-2.10728782q-.1509286-.13336756-.24402025-.16186944-.09041508-.03150132-.16861695-.00358785-.07553247.02461265-.18489884.14840065l-.1973919.22337954-.58259603-.5148206z"/>
  <path d="M41.35707918 336.0693383l3.33330262-3.2978082 1.7047548.812361-.33416265.6989347q-.43771663-.1789476-.80225444-.19228723-.36167467-.01614533-.6359481.13617325-.27424473.14665696-.55774623.42713355l-.60996453.6034692.98595492.9965612.20045597-.19832199q.22623145-.22381726.2723862-.33181154.04618344-.1136918.01255047-.21641912-.03646742-.10559042-.24328832-.31463291l-.1501608-.15177323.50973296-.50430102 1.6716026 1.68951856-.50973294.50430102-.1699947-.17181496q-.17282197-.17468524-.29511196-.21236484-.11941966-.0405427-.21934268.00143514-.09992301.04219311-.34619647.285844l-.18041396.17848837.90659057.91633689q.14449191.14604702.1899793.16337634.04548023.0173652.1025709-.005023.0599538-.02533021.19741343-.16130973l.33505245-.33148146q.37514365-.37114156.5280456-.73206491.1500675-.363808.1153725-.79980353-.03466628-.44169303-.25166965-.87866446l.70253952-.33806158.94354594 2.00180503-3.45356902 3.41678131-.54681031-.55267959.10023157-.099161q.20045598-.198322.24085573-.29495714.04039975-.09662798-.00179395-.1965496-.02817937-.05711858-.22650413-.25757893l-2.1532423-2.17638981q-.17565641-.17754835-.25526474-.20645924-.076738-.0317166-.15378457-.00645813-.079881.02238818-.23164917.17251818l-.17754365.17565396-.5468103-.5526796z"/>
  <path d="M48.38577528 329.3385317q1.01638031-.86933605 2.17283224-.78774835 1.15953752.07898293 1.9895623 1.04937437.55772471.65204151.70200852 1.4032799t-.12823154 1.46140306q-.27207046.70448152-.9883947 1.31717149-.94591395.80906017-1.99415482.80453948-1.26538057-.00430542-2.1635037-1.05439736-.83526312-.976541-.73006589-2.14259226.10826847-1.16870626 1.13994759-2.05110209zm.59353912.66911967q-.48674169.41632694-.46291086 1.02677092.03153764.76815868.65210083 1.4936937.62057036.72553504 1.318625.8599359.59979643.1124791 1.07737462-.29599045.48062073-.41108868.45940907-1.0184471-.02939926-.72230597-.64735045-1.44475544-.43465973-.50816155-.87745682-.7284053-.43976173-.22285572-.83433027-.1821982-.39459724.04068621-.68541806.28941033z"/>
  <path d="M54.49309866 324.3729473l.4365685-.30357516.1543945.12324982 2.60287794-1.80992681-.05186668-.1945404.43987654-.3058714 1.69678967 1.2193667-.46567354.64273463q-.48563662-.26090127-.66002291-.32117715-.34317546-.11953999-.6679737-.09975658-.2455774.01377734-.41425175.13104263-.0793787.05518113-.0815458.11558617-.004449.05704682.08982667.19267472l1.84446763 2.65242575q.16328533.23481761.22122274.28285175.0579374.04800543.12292145.05683154.0626878.00574056.14134174-.02956388.0763505-.03839.37731791-.24765494l.44386629.63830004-2.24896748 1.56387206-.44386629-.63830004.1356011-.09429587q.22489674-.15638721.26933647-.22653685.04214348-.07346482.02691643-.16591654-.0175233-.09575972-.17391269-.32065333l-1.885872-2.71198406q-.08049812-.11575121-.1276503-.12711752-.04715936-.0113376-.13314697.04843597-.1719824.11959022-.29395665.39576138t-.12405523.62597937q-.0017222.13859865.07995276.71472125l-.75475064.20589236-.55575853-2.01285561z"/>
  <path d="M59.60370342 321.1008281l4.01069814-2.42918972 1.46824043 1.1876501-.48799745.6016968q-.38389095-.27612093-.73523247-.37413382-.34791866-.10010101-.65017053-.01593005-.30088847.07863132-.64200448.28524125l-.73394082.44452026.72626272 1.19905947.24119299-.14609008q.27219962-.16486888.34227848-.25911452.07143509-.09978529.06269496-.20752125-.01082828-.1111803-.16317769-.36270293l-.11060778-.18261439.61331563-.37147881 1.23129552 2.0328758-.61331563.37147882-.1252177-.2067391q-.12730587-.21017624-.2374257-.27534595-.10667544-.06723631-.21368097-.04951233-.1070127.01772398-.4033302.19719541l-.21707512.13148035.66783018 1.1025463q.10643864.17572572.14662312.20318713.04018448.02748293.10094915.01894385.06420189-.01062004.2295969-.11079999l.40313644-.24417472q.45137218-.27339417.68425559-.5887016.23080243-.31875895.2987716-.7507935.06933259-.43760288-.03973957-.91317957l.7619982-.16484018.45051108 2.16670261-4.15536227 2.51687678-.40278483-.66498648.1205965-.07304862q.24119299-.1460829.30301968-.230627t.04410247-.19154814q-.01407892-.06214156-.16016386-.30330966l-1.58613883-2.6186282q-.12939403-.21362059-.20005413-.2603057-.06721572-.04879475-.1480224-.0421931-.08288767.00287027-.2655046.11372048l-.21362357.12939223-.40278483-.66499365z"/>
  <path d="M65.2876546 317.6995463l3.07361041-1.59831542q.2966404-.15425602.67477636-.28278716.38170233-.13038247.75884085-.09493451.38070489.03358228.68292806.23057677t.48435932.5472404q.2955138.56825087.07207374 1.13397588-.22172505.56025713-.71994802.95551621l1.64648731.66029356.0707534.03128605q.16325662.06946078.27705763.08748614.1119353.01442316.207151-.00358785.0952085-.01772398.24174552-.09392274l.21443443-.11151755.3587039.68977134-1.59754836.83080254-2.71812128-1.3153058-.41458185.2155939.51667913.99354742q.13381432.2573206.19958052.31393688.06393638.05302842.14324332.05719032.08105784-.00143514.2704846-.09978528l.22873581-.11895158.35869671.68977134-2.43747574 1.26751565-.35869671-.68977134.22158152-.11523457q.1751254-.0910668.2280254-.16397192.05460784-.07834429.05130697-.17198-.00430548-.05216734-.121515-.2773408l-1.45898365-2.80555519q-.08549248-.16440246-.14940016-.21743806-.06218548-.05848196-.13410135-.04829246-.10621619.00502299-.21701054.06293089l-.09821518.05561167-.18584604.09664233-.36985508-.71121233zm2.26267326-.13685495l.6709373 1.29019086.73982498-.3847108q.43602313-.22674495.60957703-.41687947.17526892-.1955737.2044242-.40143736.03272164-.20771499-.07877594-.4221536-.10221927-.19656396-.27834928-.28205525-.174415-.09091612-.3991467-.06034764-.22116533.02877456-.64646782.24990093l-.8219879.42746363z"/>
  <path d="M71.6382376 314.4489542l3.17299524-1.39072242q.30622727-.13422147.69205568-.23736498.38951678-.10475087.76343337-.04434582.37764082.05876898.66611516.27541771.28847433.21662004.44695905.5781892.25713044.58662066-.0035879 1.13620035-.25843643.54430554-.7818034.9056451l1.59905526.76815868.0685289.03595025q.15829097.08015975.27064247.10568371.11072977.02181413.20690701.01047653.09618443-.01133761.2474503-.07766978l.22137342-.09702982.31211142.71206624-1.64921411.72288002-2.62483588-1.49290439-.42797907.18758715.44957105 1.02569456q.11643453.26563724.17828993.32649435.06027672.05719033.13913876.0665905.08096455.00430542.2765051-.08160924l.23613405-.1035023.31211142.71206624-2.51626603 1.1029051-.31211142-.71206624.22875015-.10025889q.1807871-.07924125.2384016-.14847958.05970266-.07454117.06264474-.16819123-.00071758-.05238261-.10284356-.28479636l-1.26947078-2.89625603q-.07439152-.16971248-.13463236-.22687411-.05819574-.06250035-.13059239-.05711857-.10633818-.00143514-.22071325.04836422l-.10168826.04893827-.1918522.08409203-.32182027-.73421763zm2.26676346.01370559l.58379439 1.33188167.7637204-.3347464q.45012357-.1972887.63591221-.37549003.18786962-.183497.23063021-.38697115.04642743-.20508868-.05058939-.42645185-.08894404-.20292162-.2590105-.29991556-.16799265-.10229678-.39425998-.08668963-.22257896.01399261-.66163028.20643054l-.84861011.37194523z"/>
  <path d="M80.09133 310.9328612l1.18443755-.43222829 3.07289283 3.49700564q.24742159.27848892.37342863.318271.12979587.03839.3971016-.0634332l.26651639.73034275-2.49760895.91138566-.26652356-.73034274.14998857-.05898426q.20813408-.0759476.2720561-.15930771.06250122-.08714888.03351099-.16661258-.02482827-.0680974-.17409208-.25379734l-.3305317-.42397623-1.60831206.58689333-.00215274.60537793q.00143516.19238769.02095334.24536588.02210146.06056291.08167495.0945542.06336232.03264944.17003776.01944615.06982053-.00832381.36124412-.11467486l.26652357.73034274-2.04352433.74569875-.26652356-.73034275q.19678196-.07180723.27517758-.13900766.07839561-.0672363.11029922-.15602842.03566373-.0902129.03989745-.30187452l.11337046-4.75404477zm.87437123 2.90135078l1.05584721-.38527768-1.04494-1.26536294-.01083545 1.65062627z"/>
  <path d="M84.4757438 309.3542072l2.44271408-.70306791 1.8827864 3.0169513.02568937-3.56625114 2.48526657-.715324.21504437.74713388-.26711198.07688045q-.2167881.0624286-.27521345.17981587-.05568421.11243604.01679137.36405914l.88247988 3.06596134q.0579087.2012999.09565342.24494252.05711936.06737982.12798039.08053288.09853808.02195764.2378993-.01815452l.30582542-.08802431.21504437.74713388-2.59756784.74763618-.21504438-.74713388.20130272-.0579079q.22065585-.06350495.28805097-.1206307.06738076-.05711857.08217726-.13683342.0175807-.08469478-.03817526-.27825212l-.95603183-3.32141625-.02812914 4.85385875-.7471443.21504855-2.52042799-3.96522006.94483759 3.28273923q.0322911.11226383.08885075.1630606.06042024.04965585.1439896.06336144.08633923.0086826.25280344-.03925108l.2593693-.07465598.21504437.74713388-2.21043344.63621192-.21505155-.74713389.2167881-.06242859q.20517765-.059056.26869783-.11506235.0663044-.06099345.07884051-.1484437.01528446-.09243737-.04599687-.30534757l-.8713574-3.02721255q-.06020496-.2090425-.10509676-.26317598-.05934387-.07513675-.14017926-.09379357-.08082103-.01865682-.23179987.02482792l-.2942078.08468044-.21505155-.74713389z"/>
  <path d="M95.7058708 306.4049945l2.91839786-.54521686q.5543736-.10357406.94017332-.05683155.38897859.0420496.6932325.2229203.30822214.18009572.5099554.47025232.20100134.28618845.2668393.6386086.1324294.7088013-.32451837 1.29004735-.45297955.58048542-1.41126459.75947609l-.94246957.17607015.19308643 1.03351607q.03623779.19402375.07358783.24032137.04972829.06859969.12762878.09090176.0818974.02159886.256133-.01097882l.28114784-.05252612.1427769.76421205-2.69271895.50305962-.1427769-.76421205.18611155-.03480214q.24550565-.04585273.31804581-.09630507.07254016-.05044517.09412497-.13232709.02080982-.08585007-.02432596-.32739848l-.56741921-3.03718679q-.04736028-.2534242-.09382359-.32670244-.04721676-.07723924-.12515312-.09955566-.07471443-.0270524-.26874807.00925665l-.26530367.04958409-.14278407-.76421205zm2.19608183.5240629l.29295921 1.56810572.47122044-.08803866q.43162437-.08063335.61730537-.20547617.18493472-.128811.2736563-.3338925.0879825-.2090425.04061503-.46246669-.07104042-.38013988-.40547575-.54714712-.24886392-.1256178-.67652725-.04570921l-.61377488.11466768z"/>
  <path d="M101.6689606 305.3142881l3.43778226-.42866914q.33178747-.0414038.73099875-.03028146.40322255.01062004.7444175.17510144.34521338.16398627.5599779.45384867t.26361736.68159821q.07925671.63558046-.32710167 1.08812315-.40285658.44806506-1.00748232.64524612l1.31374547 1.19202729.05546893.05396126q.1288702.1219582.22928834.1784453.09991584.05245437.1953468.06903024.0954238.01650411.25931906-.00358785l.23984394-.02992267.09620595.77145951-1.78684596.22280548-2.0903823-2.17911657-.46369301.05783614.13857187 1.1112289q.035879.28781015.0778359.36377211.04147613.07195792.11438943.10345925.0764438.02698063.28830212.0005884l.25583162-.03193186.09620595.7714595-2.72622994.33994162-.09620595-.7714595.24783778-.03092728q.19587064-.02439738.27083622-.07436895.0784602-.05446356.10796709-.14336331.01399281-.05044517-.01736544-.30229789l-.39129637-3.13793361q-.0228908-.18387731-.06436693-.25583523-.03795998-.07645709-.10889276-.09197095-.10142276-.03200362-.22534165-.01657587l-.111433.01793925-.2078614.02590428-.09919108-.7954981zm2.1688138.65918133l.17994753 1.44303327.8274415-.1031794q.48768172-.06077817.71656103-.17866057.23238111-.12234568.3313641-.30518252.10298708-.18334631.07307834-.4231869-.02741155-.2198491-.16278302-.36128933-.1318625-.14593938-.35320005-.19547324-.21733346-.05001463-.69302441.00925665l-.9193635.11463898z"/>
  <path d="M111.7796628 304.2020546q1.33527286-.07601219 2.20598444.6894556.87473002.76521666.94734911 2.04012327.04879544.85663507-.2915097 1.5417709-.34027643.68511432-.98731832 1.08510936-.64323154.39571833-1.58434488.44928493-1.2427768.0707524-2.07394972-.5678562-1.0041097-.7699526-1.0826847-2.14948093-.0730353-1.2829434.71703464-2.14696944.79407403-.8642413 2.14943913-.94145184zm.06695021.89193951q-.63947141.0363808-.9902604.53651274-.44023533.63028478-.3859791 1.58346172.05424905.95314823.52826087 1.48300192.40908518.45282254 1.03647255.41710909.63143452-.03595026.98243878-.5320351.41414412-.5924832.36011752-1.5416274-.03803174-.66761995-.25692952-1.11108538-.21489368-.44370224-.5534838-.65037675t-.7206656-.18492496z"/>
  <path d="M116.0636154 304.1087705l2.96884373.0178675q.56396048.00358784.93385862.12243896.37395246.11504082.63841657.35027462.26848973.2352625.411568.55839145.14310699.3190962.14095425.67760853-.00430548.72108609-.56316396 1.20515881-.55480415.48409425-1.52966529.47823888l-.95875863-.00574056-.00645823 1.05138356q-.00143515.19738198.02669398.24991528.03580724.07675846.1080819.11344782.0763218.03673958.25356407.03774418l.28600586.00143514-.00502306.77741534-2.73921813-.01643235.00502306-.77741534.1893263.00143514q.24975372.00143514.33053888-.03429985t.11749655-.1120916q.0367401-.08034632.03824701-.32606382l.01858532-3.08964114q.00143516-.25780855-.03021011-.33857106-.03171704-.0847809-.10401323-.12147025-.06824185-.04068622-.2656194-.04190609l-.2698962-.00143514.00502306-.77741533zm2.05694307.9308318l-.00961557 1.59515811.47936497.00287028q.4390872.00287028.64506136-.08475219.2059957-.09141124.33198839-.27596307.12601422-.18857022.1275642-.44637877.00215273-.38671282-.2944159-.61408205-.22053387-.17051616-.65558827-.17312812l-.62438788-.00358785z"/>
  <path d="M122.1486938 304.1733518l3.45615231.23817583q.33355989.02296224.72324888.1104125.39371462.0877014.69707157.31453246.30738257.22711808.46260947.5527657t.12808086.71950744q-.04405942.6389889-.52959557 1.0052438-.48127373.36254508-1.11253603.44017897l1.06087027 1.42172144.04405941.0635767q.10310907.14439662.19083323.2190813.088004.07068065.17849802.10517424.09049401.03451512.25526473.04585272l.24112841.01664763-.0534597.7756214-1.79638978-.12379517-1.63400142-2.53933671-.46618302-.03214714-.07699634 1.11725649q-.01994872.28935293.00645823.37193806.02690924.07857391.09243865.12347227.06982053.04111676.2828485.05582694l.2572022.01772398-.0534597.77562142-2.74086857-.18888596.05345971-.7756214.2491653.01714991q.1969183.01356208.2800643-.02109655.0874443-.03839.13344835-.12001359.02339311-.04685732.04090206-.30002319l.2174124-3.15472475q.01277292-.18486756-.01413633-.2634343-.02260377-.08231963-.0892526-.11113724-.09340022-.0508757-.21798646-.0594148l-.11280357-.00358784-.20898083-.01442316.05511015-.79973176zm2.00226347 1.06264941l-.09998042 1.45078303.8318905.05733384q.4902937.03379755.73752872-.0380312.2515118-.07553143.38371155-.23601596.13621822-.1601975.1528302-.40132972.01521269-.22102591-.09050837-.38579434-.10145146-.16850696-.3091837-.25953789-.20371378-.09075825-.68195933-.12371624l-.9243148-.06372022z"/>
  <path d="M129.0948682 304.718705l2.71926941.33028312-.09374465.7718183-.24793107-.03013795q-.21594852-.02626306-.29278699.005023-.07235359.0276982-.11854421.10733411-.0416914.0760983-.0698923.30803128l-.3749786 3.08712965q-.03064067.25193165-.01133777.32731238.01923115.07538073.08334692.11562923.07815164.05819493.24610841.07858827l.29592282.03595025-.09374465.7718183-2.71926941-.3302903.09374465-.7718183.21994545.02669361q.2359403.02863104.31180286.00574056.07635051-.02726766.11708753-.09534352.04520754-.07161349.0719374-.2915487l.37643528-3.09918483q.03157352-.25992538.00502306-.34427573-.02181443-.08786645-.0964284-.1415622-.0520963-.03882055-.26804483-.06501185l-.24793107-.03013794.09374466-.7718183z"/>
  <path d="M134.9359694 305.5295591l1.24248977.21446732.92531941 4.56238182q.07604195.36468342.1655457.46188546.09347915.09789807.37600475.14257398l-.13224282.76614949-2.61995634-.45223414.13225-.7661495.1594678.02346455q.2183309.03767242.31525442-.00287028.09761241-.04448934.11199989-.12782792.01234238-.07146997-.02468475-.30676835l-.0757334-.53223602-1.68710233-.29121144-.30303404.52408443q-.0943546.1676674-.10394146.2232432-.01097898.06350495.02382365.12265424.03874932.05984534.1378256.1014644.06472571.02755469.37040762.08028173l-.13225.76614949-2.14362673-.3700078.13225-.76614948q.20641905.03566323.30785616.0163606.10144429-.01930264.1733171-.08045396.0758482-.06049115.1848486-.24197895l2.46395445-4.06725852zm-.6852889 2.9517242l1.10751297.191175-.27674908-1.6175463-.83081412 1.42631389z"/>
  <path d="M139.5858878 306.3475889l2.46531785.61919115.11237303 3.554483 1.8137552-3.0706973 2.5083009.6299834-.1893909.75402256-.26958045-.0677386q-.21879014-.05496587-.32830003.01722167-.10461598.0692455-.16840167.3232007l-.7772109 3.09430536q-.05101994.20315842-.040328.25983927.01549973.08696949.07017933.13392727.07417624.06845617.2148291.1037965l.30865269.07752626-.1893909.75402256-2.62160677-.65844224.1893909-.75402255.20316124.05101922q.22270096.0558987.30967165.0403992t.13979894-.07703114q.05769343-.06443779.10678308-.25976752l.84193661-3.35220001-2.46273456 4.18278729-.75403306-.18938826-.18732426-4.69470172-.83210577 3.31309245q-.02848793.11329712-.00502306.185621.02726804.07330696.09268263.12711753.07025109.05087571.2382868.093076l.26177318.06572942-.1893909.75402255-2.23088445-.56031453.18939089-.75402256.21879014.05496586q.20707206.05202383.29013912.03551972.0879466-.01944615.14274101-.08874906.05970266-.07223777.11365032-.2871141l.76738006-3.05526955q.0529574-.21097276.0413326-.2803546-.01356226-.09478382-.07409013-.1515149-.060492-.0567598-.21288446-.09500628l-.2969346-.07457705.18939089-.75402255z"/>
  <path d="M150.8590696 309.4905455l2.78851588 1.01909291q.5297032.19358604.8377029.43052765.3131519.23453776.48266583.54524557.17329557.31209272.1988773.66455593.026981.34868161-.09609832.68541568-.24752922.67724975-.93701596.94425037-.6856764.268364-1.60127977-.06630347l-.90049115-.3291063-.36091403.98751983q-.06773955.18539856-.05927211.24426083.00774986.08432882.06343407.1432772.05941563.06034763.22591571.1211617l.26863325.0981851-.26688235.73019923-2.57281133-.94030373.26688953-.73019923.1778235.06501184q.23458407.08573526.3227029.07933454.08811165-.00645813.1484386-.06587293.06171188-.06321791.1460634-.29401713l1.06058325-2.9019966q.08849914-.24215117.08588715-.32888385-.00143516-.09051428-.0569041-.14945548-.05051763-.06135224-.2358829-.12909802l-.25349948-.09265264.26688235-.73019923zm1.62187432 1.57061722l-.54759965 1.49828616.45024557.16455315q.41241475.15072558.6357974.13801024.22476759-.01650411.4056695-.1476759.18227968-.13496058.27077882-.37710457.1327523-.36321958-.06982053-.67742196-.15002446-.23496112-.55865039-.38430896l-.58644943-.21433099z"/>
  <path d="M156.5997096 311.6145527l3.16818746 1.40170124q.30576801.1352763.64234174.35026027.3402549.21661285.54815936.53324779.21159281.31826382.2465533.6773215.03494616.3590505-.12476563.7200815-.25915401.58573803-.84050145.76464259-.57600864.17684512-1.19591883.03473038l.51289748 1.69820117.01973345.07482102q.04771907.17088212.10475233.27099749.05862629.09642705.13197732.15970238.07332232.06328967.22435856.13009544l.22103617.09779044-.31456555.7109827-1.64670258-.72854882-.67082967-2.9441897-.42733324-.18906535-.45310871 1.0241159q-.11734586.26524258-.1204745.35195374-.00143517.0830372.04484874.14758262.05166576.06250035.2468834.14887425l.23576808.10430597-.31456554.7109827-2.5123911-1.11158768.31456555-.7109827.22840571.10105538q.18050725.07985836.2704846.07561752.09529463-.00645813.16635658-.06737982.03795998-.03609377.14066003-.26814156l1.27944514-2.8918071q.07497276-.16945415.0764725-.25249135.00645822-.08508228-.04606863-.13489599-.07046636-.07963592-.18468357-.13016002l-.10478103-.04197784-.19155798-.0847522.32433898-.7330695zm1.52026499 1.68133827l-.5883869 1.32987248.76257227.33737988q.4494347.19883865.70632834.21558674.26220373.01471018.44117536-.0911314.18265282-.10419833.2804518-.32523142.08964009-.20261307.04635566-.3935441-.03795998-.19299044-.2022284-.34937047-.16060157-.15474397-.59898555-.34869597l-.84731846-.37486574z"/>
  <path d="M165.8851948 315.9056213q1.18063437.62825406 1.52744079 1.7345102.35032255 1.10814336-.2495528 2.23544583-.40307186.75746689-1.04960426 1.16633827-.64652523.40888574-1.40717438.41481287-.7551812.00430542-1.58735872-.4385429-1.09890201-.58472627-1.4777125-1.56207814-.4584475-1.17939805.1906323-2.39912354.603657-1.13440641 1.7275021-1.46269469 1.12738994-.32640824 2.3258203.31131057zm-.4058776.797005q-.56543869-.3008771-1.1248784-.05553992-.70347956.31013375-1.15200294 1.15291972-.4484875.84278597-.31844765 1.54169914.11454012.59940058.6693084.89459452.55832746.29709551 1.11590865.05532465.66155853-.29137647 1.1081588-1.1306033.31412781-.5903233.35726872-1.0830284.04671446-.49078917-.13538581-.8432165-.18208593-.35242733-.5199226-.53220014z"/>
  <path d="M170.0615104 318.1229126l.45125736.28125874-.05231158.19050766 2.69049445 1.67696109.15826944-.12444817.45468022.2833971-.45054696 2.04033854-.77441233-.17411837q.0480061-.54917784.0345156-.73321302-.02561761-.36249484-.17203263-.65309634-.10958164-.2202007-.28393923-.3288695-.0820481-.05116274-.1383853-.02927686-.0541773.01844155-.14157136.15859015l-1.70891677 2.74169145q-.1512874.24272523-.1725493.31491277-.02124036.07218754-.0035879.1353624.01973346.05977359.08298096.11817661.06537154.05496586.37649987.2489035l-.41125227.65979127-2.32467217-1.44891734.41125228-.65979127.1401649.08735697q.23246721.14489891.31446508.15803045.08413626.00975895.16307006-.04075798.081065-.0538895.22595876-.28636066l1.7473073-2.80325896q.07458527-.1196548.06644791-.16746649-.00818041-.04779016-.09705987-.10321527-.1777661-.11079998-.47966635-.11384965-.30189308-.00287028-.6241152.13313793-.1280378.05310018-.625127.35560617l-.48710765-.6121518 1.62998297-1.30518807z"/>
  <path d="M175.0917462 321.5313701l3.8130766 2.72891871-.51305534 1.81738954-.7452786-.21141765q.10251349-.46162713.0541773-.8231963-.04506403-.35920837-.2415446-.60383516-.1908404-.24555963-.51514351-.47765765l-.69775327-.49936413-.81588846 1.14000345.22930987.16411544q.25878805.18520482.37302679.21247248.11985738.02633482.21543186-.02418211.09792097-.053746.26907098-.29289055l.12425615-.17361606.58309833.41731-1.3832072 1.93270305-.58309834-.41731001.1406672-.1965496q.1430137-.19982172.15951804-.32670962.0198052-.12454863-.03867756-.21591682-.05841101-.09136818-.3401688-.292991l-.206376-.14769744-.7502299 1.04822626q-.11957035.16706465-.128985.21481893-.0094003.0477184.0223885.10023018.03508966.05482235.19231143.16735885l.38327383.2742983q.42913437.30711997.81072189.39691668.38391965.08651741.80785156-.02124007.42952186-.10871186.82363832-.39634262l.45177402.63540824-1.81389872 1.26780267-3.9506367-2.82736931.45248443-.6322294.11465493.08205413q.22930987.16410826.33137127.18762303.10206858.0235363.19343804-.03494566.05152224-.0373854.2156615-.26672077l1.78182289-2.48960912q.145353-.20309383.16042219-.28643241.01837004-.0809993-.01951818-.15268455-.03552021-.07495736-.2091387-.19921178l-.20309666-.14535098.45247725-.6322294z"/>
  <path d="M181.3705712 329.5538027l2.12080769 1.74010725-.49826602.60727232-.15882916-.1303179q-.15570769-.12775616-.23787777-.14827866-.07905579-.01793925-.15818334.02131183-.07658013.03616553-.21711818.20745666l-1.11662624 1.36087151-.63841657-.52381892.09046531-.4468452q-.4511569-.04707259-.8448787-.20864065-.39375049-.16153218-.73322324-.4400498-.5948164-.48804089-.84609857-1.178824-.25129652-.6907831-.11108139-1.44590355.14332943-.75258741.67225765-1.3972523.52381905-.63840768 1.2180203-.91296431.69734424-.27197338 1.43946547-.14765438.74779012.12376647 1.33950659.6092528.28650816.23507594.50857765.54233941.22773836.30670377.33051017.59424125l.2736563-.09853671.43598726.35773017-.78811811 1.7607015-.72633448-.2833038q.09565342-.71354444.064941-1.02533578-.02762684-.30925832-.16952828-.58721623-.13878715-.27540337-.34743789-.44660122-.29585105-.24274675-.69487576-.2835406-.39590324-.03824649-.81624725.169203-.41778226.2043424-.80103456.6714733-.42161413.51383753-.56885437 1.02354185-.14413312.51224452-.03021012.91317958.1165063.39781363.43415743.65844223.2242294.1839706.49764173.25719144.27652663.07578257.44325634.02497144.16672972-.05080396.32259527-.24075191l.1303197-.15882695q.13542888-.16504827.14940016-.22653685.01686313-.09038511-.0193029-.16696418-.03308044-.07402452-.20123096-.21199888l-.2460223-.20185962.49826602-.60727232z"/>
  <path d="M187.4341222 331.3692548l.92144448.86065346-1.72786088 4.32271344q-.13637608.34666524-.11482716.47703336.02446948.13312358.23626322.32540364l-.53068629.56817192-1.94299137-1.81473453.5306863-.56817192.12051038.10703992q.16191475.15122787.26517451.17050898.10601527.0163606.16375893-.04549394.04951302-.05295666.14754163-.27009335l.22850617-.48661292-1.25117249-1.16856274-.54079699.27210972q-.17083427.08848355-.20933243.1296936-.04398766.0470726-.04736028.11562205-.00042338.0712547.0596309.16041995.03903635.05848196.26573422.27024404l-.53068629.56817193-1.58972673-1.48479585.53068629-.5681791q.15308851.142983.24849078.18247805.09540226.03946635.18905362.02776996.09660062-.00896962.2872688-.10100515l4.29076961-2.050241zm-2.19163284 2.0926494l.82134207.76715408.65550216-1.5043855-1.4768514.73723141z"/>
  <path d="M191.1296592 334.6485497l.36658292.38517722-.09827258.17137725 2.18560516 2.29651103.18436066-.08092037.36935995.38809773-.94648802 1.86281172-.70622071-.36224369q.18382247-.5197216.21680962-.7012668.06580209-.35737857-.0035879-.67536254-.05101994-.2406084-.19266305-.38942524-.06666318-.07003483-.12666005-.06300264-.05711937.00430542-.17673995.1181479l-2.34031541 2.22719376q-.20718688.19717389-.24582139.26175519-.03867756.0645813-.03738591.1301385.00430548.06278737.05080466.13517583.04958478.06960429.30228775.33515542l-.56319266.53597456-1.88845529-1.98429632.56319267-.53598174.11385841.11964045q.18884553.19842963.26495924.23165312.07902709.03042497.16807877.00143514.09196505-.03193186.29039745-.2207604l2.39284226-2.2772084q.10213317-.09719486.10618032-.14553755.00430548-.04836422-.0681701-.1242042-.1444058-.15173734-.43595138-.23018927-.2915384-.07844475-.637577-.0271959-.13725153.01937438-.69419407.18796746l-.31854094-.71451316 1.90460083-.856061z"/>
</svg>
