<svg xmlns="http://www.w3.org/2000/svg" xmlns:xlink="http://www.w3.org/1999/xlink" version="1.0" viewBox="0 0 560.48163 623.33753" id="svg2" xml:space="preserve">
  <path d="M507.69 118.15001c18.15601 29.905 11.573 27.088 12 41.583.5 17 26.50001 39.5 27.50001 54.5s-2.833 105.917 10.5 142.584-25.333 102-27 127.333c-74.00001-66.5-42.81201-124.583-41.66701-175.333-4-58-10.333-73.167-36.833-105.667l55.5-85z" id="path2594" fill="#dc171d" fill-opacity="1" stroke="none"/>
  <path d="M52.791636 118.15001c-18.156001 29.905-11.573001 27.088-12.000001 41.583-.5 17-26.5 39.5-27.5 54.5s2.833 105.917-10.4999993 142.584c-13.3330007 36.667 25.3329993 102 26.9999993 127.333 16.348793-14.69182 25.696884-41.10497 33.235516-54.98681 26.583688-48.95194 9.323521-80.80837 8.431485-120.34619 4-58 10.333-73.167 36.833004-105.667l-55.500004-85z" id="path9" fill="#dc171d" fill-opacity="1" stroke="none"/>
  <path d="M280.24064 367.06201v221.088c-15.948-45-154.948-5.5-151.948-109.5-57.000005 41-89.181005-13.584-69.500005-60 9.12-21.509 36-32.5 52.500005-51.588h168.948z" id="path11" fill="#0c419a" stroke="none"/>
  <path d="M280.24064 367.06201v221.088c15.948-45 154.948-5.5 151.948-109.5 57 41 89.18301-13.584 69.5-60-9.119-21.509-36-32.5-52.5-51.588h-168.948z" id="path13" fill="#f1c400" fill-opacity="1" stroke="none"/>
  <path d="M449.18864 367.06201h-168.948v-186.412s1.317 9.503 11.948 12.5c22.5-18.5 105.5 36.5 129.5 36.5 12.766-.143 24.036-24.205 27-29.5 9.5 18.5 4.059 37.096 14 54 11.115 18.897 28.5 26.5 29.25 54.25-25.25-14.75-74.75-18.75-42.75 58.662z" id="path15" fill="#dc171d" fill-opacity="1" stroke="none"/>
  <path id="path3110" d="M111.29264 367.06201h168.948v-186.412s-1.317 9.503-11.948 12.5c-22.5-18.5-105.5 36.5-129.5 36.5-12.764-.143-24.035-24.205-27-29.5-9.5 18.5-4.058 37.096-14.000005 54-11.114 18.897-28.5 26.5-29.25 54.25 25.25-14.75 74.750005-18.75 42.750005 58.662z" fill="#f1c400" fill-opacity="1" stroke="none"/>
  <path id="polygon40" fill="#fff" stroke="#000" stroke-width="0" stroke-miterlimit="3.86369991" stroke-dasharray="none" d="M202.51763566 297.84800883l-7.14-12.379-14.202.101h0l7.101-12.312-7.101-12.412 14.276-.027 7.066-12.251 7.097 12.317 14.28.02-7.124 12.295 7.124 12.311-14.281.074z"/>
  <path id="polygon42" fill="#fff" stroke="#000" stroke-width="0" stroke-miterlimit="3.86369991" stroke-dasharray="none" d="M168.00363566 345.76900883l-7.14-12.38-14.203.103h0l7.102-12.313-7.102-12.413 14.277-.027 7.066-12.25 7.096 12.317 14.281.019-7.124 12.296 7.124 12.31-14.281.074z"/>
  <path id="polygon44" fill="#fff" stroke="#000" stroke-width="0" stroke-miterlimit="3.86369991" stroke-dasharray="none" d="M134.51763566 297.84800883l-7.14-12.379-14.202.101h0l7.101-12.312-7.101-12.412 14.276-.027 7.066-12.251 7.097 12.317 14.28.02-7.124 12.295 7.124 12.311-14.281.074z"/>
  <g transform="matrix(.65289 0 0 .65289 190.66976 230.42233)" id="use2615" stroke="#000">
    <ellipse cx="280.741" cy="129.5" rx="43.948002" ry="8.75" id="ellipse2627" fill="#cca208" stroke-miterlimit="3.86369991"/>
    <path id="polygon2629" fill="#cca208" d="M283.806 29.619h-6.331l-.034-15.614h-10.516V7.252h10.55V.5h6.331l-.032 6.752h10.581v6.753l-10.549-.001z"/>
    <path id="polygon2631" fill="#cca208" stroke-miterlimit="3.86369991" d="M247.292 53.75h0l33.449-17.251 33.448 17.251 33.75 8.75L280.69 26h.102l-67.25 36.5z"/>
    <path stroke-miterlimit="3.86369991" id="polyline2633" fill="#dc171d" fill-opacity="1" d="M347.939 65.25l-2 6.5-12.417 24.5-2.833-34.834"/>
    <path stroke-miterlimit="3.86369991" id="polyline2635" fill="#dc171d" fill-opacity="1" d="M213.542 65.25l2 6.5 12.417 24.5 2.833-34.834"/>
    <path d="M235.409 117.978l-19.867-46.229h2.25s7.75 22.25 8.5 15.75-3.75-20.5-6-20.5-6.75-1.75-6.75-1.75v-2.75l67.199-17.5 67.198 17.5v2.75s-4.5 1.75-6.75 1.75-6.75 14-6 20.5 8.5-15.75 8.5-15.75h2.25l-19.867 46.229" id="path2637" fill="#ffe600" stroke-miterlimit="3.86369991"/>
    <path d="M324.189 126.828c2-10.75 3.712-11.213-1-14-17.75-10.5-68.25-10.25-84.896 0-4.661 2.87-3 3.25-1 14 18.75-6.25 60.896-6.5 86.896 0z" id="path2639" fill="#fff" stroke-miterlimit="3.86369991"/>
    <path d="M325.439 117.578c-.135-4.162-.18 6.721-2.25 7-2.067.279-.505-5.604-.483-7.928l.179-.815c-.135-4.162.101 7.881-1.97 8.161-2.068.279-1.98-5.771-1.959-8.096l.087-1.597c-.195-4.475.146 8.475-2.854 8.775-3 .3-2.87-6.205-2.839-8.705l.192-1.57c-.196-4.475.146 8.475-2.854 8.775-3 .3-2.871-6.205-2.841-8.705l.443-1.07c-.197-4.475.146 8.475-2.854 8.775-3 .3-2.87-6.205-2.841-8.705l.283-1.265c-.196-4.475.146 8.475-2.854 8.775-3 .3-2.904-6.725-2.875-9.225-.195-4.475.146 8.475-2.854 8.775-3 .3-2.87-6.205-2.839-8.705l.464-1.02c-.196-4.475.146 8.475-2.854 8.775-3 .3-2.871-6.206-2.839-8.706-.196-4.475.349 8.206-2.651 8.505-3 .299-2.87-6.205-2.84-8.705.03 2.5.16 9.005-2.84 8.705-3-.3-2.455-12.98-2.651-8.505.03 2.5.16 9.005-2.84 8.706-3-.3-2.657-13.25-2.853-8.775l.463 1.02c.03 2.5.16 9.005-2.84 8.705-3-.3-2.657-13.25-2.853-8.775.03 2.5.124 9.525-2.876 9.225-3-.3-2.657-13.25-2.853-8.775l.283 1.265c.03 2.5.16 9.005-2.84 8.705-3-.3-2.657-13.25-2.853-8.775l.442 1.07c.03 2.5.16 9.005-2.84 8.705-3-.3-2.657-13.25-2.853-8.775l.192 1.57c.03 2.5.16 9.005-2.84 8.705-3-.3-2.657-13.25-2.853-8.775l.087 1.597c.021 2.325.111 8.375-1.959 8.096-2.07-.279-1.833-12.322-1.968-8.161l.178.815c.021 2.325 1.585 8.208-.484 7.928-2.069-.28-2.115-11.162-2.25-7" id="path2641" fill="none" stroke-miterlimit="3.86369991"/>
    <path d="M297.202 95.463c-.434 9.292-9.509 10.373-13.614 4.322 1.081-.216 1.945-.54 1.945-1.729 0-1.517-1.405-2.917-1.405-2.917s2.055-4.658 3.349-4.43c1.837.324 2.7 3.241 2.7 8.319 1.887-2.85 4.02-7.069 2.702-10.48-1.837-4.754-6.374-7.239-10.805 4.538 2.593-4.97 3.889-11.885-1.296-18.152-5.187 6.267-3.89 13.182-1.297 18.152-4.43-11.777-8.968-9.292-10.805-4.538-1.318 3.412.815 7.631 2.701 10.48 0-5.078.864-7.995 2.701-8.319 1.295-.229 3.35 4.43 3.35 4.43s-1.405 1.401-1.405 2.917c0 1.188.865 1.513 1.945 1.729-4.105 6.051-13.182 4.97-13.614-4.322-.432-9.292 16.423-23.77 16.423-23.77s16.858 14.478 16.425 23.77z" id="path2643" fill="#0c419a" stroke-miterlimit="3.86369991"/>
    <path d="M329.281 102.297c-4.93 9.919-12.146 9.276-12.168 1.94.902-.017 1.7-.193 2.288-1.473.755-1.633.414-3.422.414-3.422s3.823-4.606 4.666-4.103c1.191.715.379 4.027-2.142 9.496 2.803-2.691 6.466-6.812 7.188-10.746 1.007-5.486-1.101-9.064-10.205 2.733 4.378-4.837 8.763-12.024 8.054-19.804-6.929 5.715-9.404 13.417-9.962 19.287 2.583-13.565-1.992-11.793-5.704-7.039-2.665 3.41-3.188 8.378-3.211 11.821 2.521-5.467 4.603-8.438 6.115-8.418 1.066.012.271 5.438.271 5.438s-1.729 1.229-2.48 2.861c-.591 1.278-.115 1.802.573 2.247-6.021 5.698-12.171 2.727-7.879-7.365 4.294-10.094 23.883-22.323 23.883-22.323s5.228 18.95.299 28.87z" id="path2645" fill="#0c419a" stroke-miterlimit="3.86369991"/>
    <path d="M232.201 102.297c4.929 9.919 12.145 9.276 12.168 1.94-.903-.017-1.7-.193-2.289-1.473-.755-1.633-.414-3.422-.414-3.422s-3.823-4.606-4.666-4.103c-1.19.715-.378 4.027 2.142 9.496-2.802-2.691-6.465-6.812-7.188-10.746-1.006-5.486 1.102-9.064 10.205 2.733-4.377-4.837-8.761-12.024-8.052-19.804 6.927 5.715 9.404 13.417 9.961 19.287-2.582-13.565 1.993-11.793 5.704-7.039 2.665 3.41 3.187 8.378 3.211 11.821-2.521-5.467-4.603-8.438-6.115-8.418-1.066.012-.27 5.438-.27 5.438s1.729 1.229 2.48 2.861c.591 1.278.116 1.802-.574 2.247 6.022 5.698 12.171 2.727 7.879-7.365C252.09 85.656 232.5 73.427 232.5 73.427s-5.227 18.95-.299 28.87z" id="path2647" fill="#0c419a" stroke-miterlimit="3.86369991"/>
    <path d="M289.356 69.916l11.069 13.826 1.314-10.022-7.103-1.417 1.435-4.481 6.27.916 1.651-7.305 4.296.984-1.617 6.871 6.871 1.619-.768 4.313-7.138-.984-1.318 10.468 14.703-10.787s.751-16.5-11.162-19.009c-13.473-2.839-18.503 15.008-18.503 15.008z" id="path2649" fill="#dc171d" fill-opacity="1" stroke-miterlimit="3.86369991"/>
    <path d="M272.125 69.916l-11.068 13.826-1.316-10.022 7.104-1.417-1.436-4.481-6.268.916-1.652-7.305-4.296.984 1.618 6.871-6.871 1.619.767 4.313 7.138-.984 1.317 10.468-14.703-10.787s-.751-16.5 11.163-19.009c13.474-2.839 18.503 15.008 18.503 15.008z" id="path2651" fill="#dc171d" fill-opacity="1" stroke-miterlimit="3.86369991"/>
  </g>
  <use transform="matrix(-1 0 0 1 774.80529 .00000613)" id="use2620" x="0" y="0" width="561.48199" height="622.948" xlink:href="#polygon35"/>
  <path transform="translate(-.50035205 .40001241)" id="polygon35" fill="#fff" stroke="#000" stroke-miterlimit="3.86369991" d="M370.239 482.984l-4.538 4.537-6.641-8.724-9.238 10.993-4.538-4.538h0l10.993-9.237-8.725-6.643 4.537-4.537 6.459 7.398 72.426-71.159 4.539-1.512L434 404.1l-71.158 72.427z"/>
  <path transform="translate(-.50035205 .40001241)" id="polygon37" fill="#fff" stroke="#000" stroke-miterlimit="3.86369991" d="M401.169 480.061v6.417l-10.866-1.473 1.242 14.306h-6.418 0l1.242-14.306-10.867 1.473v-6.417l9.799.664.896-101.53 2.138-4.278 2.141 4.278.896 101.53z"/>
  <path d="M144.93964 451.15001s1.902 3.203 3.875 2.875c2.25-.375 6-1.375 9.875.875-.75 1.625-3.375 4.375-7.75 3 1.5 2.875 2.875 5.75 9.75 6.5-.5 2.125-3.875 1.125-5.5 3 3.875.625 7 .625 7.75 5.5-1.125.875-3.625.125-7-2.25 2 3.875 5.625 5.5 4 12.625-3.125-5.5-4-2-4.75-8.125-1 4.5 2.625 9-3.5 14.5-4.375-9.625 3.75-9.625 1.75-17.5-.125 1.25-3 7.125-6 8.125-.5-7.75 8.25-8.625 4.75-16.125-.375 2-1.125 4.875-4.875 7-1.5-5 6-8.375.625-12.5.625 1.875-.5 5.25-2.875 7.125-2.25-3.75.93-8.205 1.125-9.375.25-1.5-.75-2.375-2.5-4.5.625-.5 1.25-.75 1.25-.75z" id="path20" fill="#008837" stroke="#000" stroke-width=".40000001" stroke-miterlimit="3.86369991" stroke-dasharray="none"/>
  <path d="M214.43964 466.65001s33 .75 31.75 4.25c-.984 2.756-16.5-1-34-1.5 16 1.5 33 1.25 31.25 4.75-1.5 3-32-3.5-32-3.5s32.25 3.75 29.25 6.5c-2.914 2.671-29.5-4.75-29.5-4.75s28.5 5.5 25.75 7.75c-2.876 2.354-26-6-26-6s24.5 6.25 21.25 8c-3.761 2.025-21.75-6.5-21.75-6.5s21 6.75 16.75 8.5c-3.827 1.576-17.5-7.25-17.5-7.25s16.5 7.5 12 9c-2.554.853-13.75-7.25-13.75-7.25 1.75 2 9.25 3.5 5.75 5.75-2.275 1.463-10.75-1.25-10.75-1.25l11.5-16.5z" id="path22" fill="#fff" stroke="#000" stroke-width="1" stroke-miterlimit="3.86369991"/>
  <path d="M177.43964 463.65001c-.75-12.25-5.75-15-4.75-20.25s8.636-11.99 27-17.5c5-1.5 12.295-5.173 13-2 .5 2.25-30 48.25-30 48.25l-5.25-8.5z" id="path24" fill="#fff" stroke="#000" stroke-width="1" stroke-miterlimit="3.86369991"/>
  <path d="M155.43964 463.65001l4.25-3.5s1.494-4.14 5.25-4c6.75.25 12.5 3.75 16.5 8.75-.75-12.25-5.75-15-4.75-20.25s8.25-13.5 27-17.5c18.173-3.877 18.795-6.673 19.5-3.5.5 2.25-30.75 14.25-30.75 14.25l8.5 28.5c8.75 1 19.25-2.75 19.25-2.75l-7 7.25s0 5.5-1.75 6.75-2.75 4.75-7.75 5.75c4 .5 7.75 2.25 7.75 2.25s-2 2.5-8 1.25c-2.937-.611-15.795 6.25-22 3-10.5-5.5-11-16.75-19-23.75-3.75-2-7-2.5-7-2.5z" id="path26" fill="#fff" stroke="#000" stroke-width="1" stroke-miterlimit="3.86369991"/>
  <path d="M185.18964 466.65001c-.75-12.25-5.75-15-4.75-20.25s8.25-13.5 27-17.5c18.173-3.877 24.045-5.923 24.75-2.75.5 2.25-14.75 3-29.75 9.25 16.75-7.5 23.25-6 23.25-4s-21.25 7.25-21.25 7.25 17.75-4.5 17.5-2.25-20 7.25-20 7.25 16.5-5.25 16.25-2.5c-.294 3.236-17.75 6.75-17.75 6.75s13.287-4.702 12.75-1.75c-.5 2.75-12 6.5-12 6.5s9.5-4.75 7-.5c-1.305 2.219-8 3.5-8 3.5s3.75.75 4 2-3 3.5-3 3.5 3.5-1 1.5 3-4 5.75-4 5.75l-13.5-3.25z" id="path28" fill="#fff" stroke="#000" stroke-width="1" stroke-miterlimit="3.86369991"/>
  <ellipse transform="translate(-.50036296 .40000486)" cx="165.69" cy="460.5" rx="2" ry="1" id="ellipse30" stroke="#000" stroke-miterlimit="3.86369991"/>
  <path id="polygon212" fill="#fff" stroke="#000" stroke-width="0" stroke-miterlimit="3.86369991" stroke-dasharray="none" d="M280.24063566 471.02800883l-30.126-52.232-59.925.427h0l29.964-51.95-29.964-52.373 60.238-.114 29.813-51.69 29.944 51.97 60.254.084-30.058 51.879 30.058 51.944-60.255.312z"/>
  <path id="rect214" fill="#dc171d" fill-opacity="1" d="M238.63763 353.97202h83.207001v26.18H238.63763z"/>
  <path id="rect216" fill="#dc171d" fill-opacity="1" d="M267.15063 325.45901h26.18v83.207001h-26.18z"/>
  <path d="M452.52136 201.74881c-3.929-32.213-55.83136-60.5988-55.83136-60.5988l41.062-77.547s52.35596 26.550906 69.35596 54.5509z" id="path2596" fill="#fff" stroke="#dc171d" stroke-width="1" stroke-miterlimit="3.86369991" stroke-opacity="1"/>
  <path d="M107.96298 201.75394c3.929-32.213 55.82866-60.60393 55.82866-60.60393l-41.062-77.547s-52.359003 26.556431-69.359003 54.55643z" id="path262" fill="#fff" stroke="#dc171d" stroke-width="1" stroke-miterlimit="3.86369991" stroke-opacity="1"/>
  <path d="M432.08 143.42701c2.865 2.156 10.32 8.877 13.595 11.738 7.068-11.583 22.132-36.271 26.872-44.041-3.042-2.852-10.602-9.949-13.91-12.464-5.931 9.999-21.226 35.781-26.557 44.767z" id="path2600" fill="#dc171d" fill-opacity="1"/>
  <path d="M429.886 121.28801c7.993 5.07 22.552 15.669 35.368 28.432 4.173-6.809 6.963-11.362 9.824-16.03-6.431-6.737-20.871-20.891-35.126-29.813-3.555 6.149-6.535 11.304-10.066 17.411z" id="path2602" fill="#dc171d" fill-opacity="1"/>
  <path d="M128.40164 143.42701c-2.865 2.156-10.32 8.877-13.595 11.738-7.068-11.583-22.132005-36.271-26.872005-44.041 3.042-2.852 10.602-9.949 13.910005-12.464 5.931 9.999 21.226 35.781 26.557 44.767z" id="path266" fill="#dc171d" fill-opacity="1"/>
  <path d="M130.59564 121.28801c-7.993 5.07-22.552 15.669-35.368005 28.432-4.173-6.809-6.963-11.362-9.824-16.03 6.431-6.737 20.871005-20.891 35.126005-29.813 3.555 6.149 6.535 11.304 10.066 17.411z" id="path268" fill="#dc171d" fill-opacity="1"/>
  <path d="M439.412 48.025009c3.111-5.852 9.4-9.159 14.48-15.518-2.901 8.65-1.656 14.831-4.768 20.682-3.112 5.852-7.809 9.439-10.49 8.013-2.681-1.425-2.333-7.325.778-13.177z" id="path2606" fill="#fff" stroke="#000" stroke-width="1" stroke-miterlimit="3.86369991"/>
  <ellipse cx="122.344" cy="60.800999" rx="7.7709999" ry="5.0770001" transform="matrix(.883 .4694 .4694 -.883 302.0704 57.460408)" id="ellipse2610" fill="#fff" stroke="#000" stroke-miterlimit="3.86369991"/>
  <path d="M121.06964 48.025009c-3.111-5.852-9.4-9.159-14.48-15.518 2.901 8.65 1.656 14.831 4.768 20.682 3.112 5.852 7.809 9.439 10.49 8.013 2.681-1.425 2.333-7.325-.778-13.177z" id="path271" fill="#fff" stroke="#000" stroke-width="1" stroke-miterlimit="3.86369991"/>
  <ellipse cx="122.344" cy="60.800999" rx="7.7709999" ry="5.0770001" transform="rotate(152.006 122.04284503 60.93856583)" id="ellipse275" fill="#fff" stroke="#000" stroke-miterlimit="3.86369991"/>
  <path id="rect4169" fill="#fff" stroke="#000" stroke-width=".99997133" stroke-miterlimit="3.86369991" d="M363.68523105 195.75703276l5.7388498 3.05175023 70.18837599-131.9900114-5.73884981-3.05175024z"/>
  <path id="rect4171" fill="#fff" stroke="#000" stroke-width=".99997133" stroke-miterlimit="3.86369991" d="M196.79642387 195.75701672l-5.73884981 3.05175023-70.18837598-131.9900114 5.7388498-3.05175023z"/>
  <path d="M286.93864 618.15001c-3-2.5-5-6.75-5-6.75l3.75.75c-5.198-7.5-5.448-23.5-5.448-23.5s-.25 16-5.448 23.5l3.75-.75s-2 4.25-5 6.75c3.25-1 6.698-1.5 6.698-1.5s3.449.5 6.698 1.5z" id="path123" stroke="#000" stroke-width="1" stroke-miterlimit="3.86369991"/>
  <circle transform="translate(-.50036904 .40001279)" cx="280.741" cy="619.5" r="2.948" id="circle121" stroke="#000" stroke-miterlimit="3.86369991"/>
  <path d="M265.04164 205.15001c.5-17.5-20.662-14.341-38-5l-61.25 33c-23.564 12.696-64.5-1.5-54-33 6.872-20.616 22-21 30.5-21.5 14.097-.829 17 13.5 16.5 21.5-1.015 16.226-30 9-18.75-10.75-6.049.502-16 5.25-15.75 15.25.323 12.914 11.25 17.25 18.5 17.5 17.997.621 38-20.25 39.318-43.091 1.682 5.091 3.182 19.341 3.182 19.341 4.75-6.75 7-16 6.75-22.75 4.25 2.75 6.75 16 6.75 16s10-14 20.5-13.75c-3 5.25-5 8-6.25 11.75 6.75-2.75 16.046-8.147 33.25-7 15 1 33.949 2.999 33.949 24.756 0 12.744-4.588 19.605-13.09 19.843-14.359.401-17.609-21.099-2.109-22.099z" id="path277" fill="#cca208" stroke="#000" stroke-width="1" stroke-miterlimit="3.86369991"/>
  <use transform="matrix(-1 0 0 1 560.48127 .00000373)" id="use2808" x="0" y="0" width="561.48199" height="622.948" xlink:href="#path277"/>
  <path d="M86.291636 306.15001c5 3 8.497 16.368-5.25 16.75-9.000001.25-12.664001-8.752-12.500001-14.5.25-8.75 7.746-15.074 25.250001-14.75 27.000004.5 38.511004 22.96 37.750004 43.5-.5 13.5-11.548 36.723-24.75 51.5-16.750004 18.75001-25.988004 31.09301-27.000004 56.00001-4.500001-4-11.750001-9.75-10.750001-19-3 3.5-11.2 16.998-10.75 29 .75 20 14 31.25 31.000001 31.5 30.248004.444 32.000004-11 29.500004-17.25-4 7.25-15.5 6.014-15.5-3 0-7.5 5.232-12.5 12.25-12.5 9.5 0 18.195 11.052 12.75 25.25-7 18.25-25.25 19.764-37.250004 20.25-18.500001.75-46.250001-15.25-49.500001-48.25-1.669-16.947 1.5-32.25 14.75-46-9.25 1-29.619-10.252-29.25-28.00001.25-12 8-19.5 15.75-19.25 18.533.598 14.25 24-2 20.25 4 7.5 15.5 14.5 20.5 14.5s15.25-2.25 22.500001-7.5c-6.000001-3.75-13.750001-12.5-14.250001-15.25 10.500001 2 21.750001.5 30.25-3.25-7.249999-3-14.499999-11.5-14.499999-11.5 15.500004.25 27.189004-11.562 28.500004-25 3-30.75-27.500004-23.5-27.500004-23.5z" id="path48" fill="#cca208" stroke="#000" stroke-width="1" stroke-miterlimit="3.86369991"/>
  <path d="M432.18865 478.65002c-2.755-10.242-12.5-19.5-12.5-19.5 5.25 19.25 20.25 30-5.75 66.5 3-16.75-13.75-29.75-26.5-19-16.084 13.562 6.25 29.25 15.25 13.5 2.25 15.75-32.5 28.5-53 32s-69.448 3.234-69.448 36c0 22.5 12.698 25.5 23.448 23 26.122-6.074 2.25-43.5-5.5-13-6.242.693-9.483-8.336-6.25-15.75 2.599-5.949 9.341-10.247 22.25-12.25 31.517-4.891 140-9.75 118-91.5z" id="path50" fill="#cca208" stroke="#000" stroke-width="1" stroke-miterlimit="3.86369991"/>
  <path d="M128.29164 478.65002c2.756-10.242 12.5-19.5 12.5-19.5-5.25 19.25-20.25 30 5.75 66.5-3-16.75 13.75-29.75 26.5-19 16.084 13.562-6.25 29.25-15.25 13.5-2.25 15.75 32.5 28.5 53 32s69.449 3.234 69.449 36c0 22.5-12.699 25.5-23.449 23-26.122-6.074-2.25-43.5 5.5-13 6.242.693 9.485-8.336 6.25-15.75-2.597-5.949-9.34-10.247-22.25-12.25-31.516-4.891-140-9.75-118-91.5z" id="path52" fill="#cca208" stroke="#000" stroke-width="1" stroke-miterlimit="3.86369991"/>
  <use transform="matrix(-1 0 0 1 560.48057 .00001192)" id="use2810" x="0" y="0" width="561.48199" height="622.948" xlink:href="#path48"/>
  <path d="M333.68864 11.750001c2.5 18 9.5 24 30.5 32.5-3.5-17-10-27.5-30.5-32.5z" id="path126" fill="#008837" stroke="#000" stroke-width="1" stroke-miterlimit="3.86369991"/>
  <path d="M338.18864 37.250001c8 20.500001 17.359 16.917001 34 25.500001-5.14-20.584001-20-17.500001-34-25.500001z" id="path128" fill="#008837" stroke="#000" stroke-width="1" stroke-miterlimit="3.86369991"/>
  <path d="M348.95064 57.311002c1.271 21.968 16.064 24.133 29.238 37.438-1-31.499-18.396-25.503-29.238-37.438z" id="path130" fill="#008837" stroke="#000" stroke-width="1" stroke-miterlimit="3.86369991"/>
  <path d="M352.98364 79.716002c-4.295 30.034008 9.788 31.809008 18.205 48.534008 7-27.5-11.58-33.834008-18.205-48.534008z" id="path132" fill="#008837" stroke="#000" stroke-width="1" stroke-miterlimit="3.86369991"/>
  <path d="M351.89664 105.26901c-11.883 18.521-3.545 22.473-.708 40.98 18.5-20.999 2.466-24.951.708-40.98z" id="path134" fill="#008837" stroke="#000" stroke-width="1" stroke-miterlimit="3.86369991"/>
  <path d="M342.49164 125.76601c-17.023 13.943-13.281 15.505-16.303 33.984 21.5-10.5 17-18 16.303-33.984z" id="path136" fill="#008837" stroke="#000" stroke-width="1" stroke-miterlimit="3.86369991"/>
  <path d="M325.23764 141.19801c-20.499 8-18.465 12.911-27.049 29.552 20.583-5.14 19.049-15.552 27.049-29.552z" id="path138" fill="#008837" stroke="#000" stroke-width="1" stroke-miterlimit="3.86369991"/>
  <path d="M367.68864 23.250001c11.5 11 12.508 25.266 6.5 43.000001-10.599-18.378001-8-28.500001-6.5-43.000001z" id="path140" fill="#008837" stroke="#000" stroke-width="1" stroke-miterlimit="3.86369991"/>
  <path d="M390.18864 45.250001c8.023 13.744001-.835 32.109001-11.5 47.500001-5.124-20.587 3.5-35 11.5-47.500001z" id="path142" fill="#008837" stroke="#000" stroke-width="1" stroke-miterlimit="3.86369991"/>
  <path d="M396.60464 86.252002c2.584 33.998008-10.924 30.143008-25.416 41.998008.75-21.202 16.462-30.497008 25.416-41.998008z" id="path144" fill="#008837" stroke="#000" stroke-width="1"/>
  <path d="M393.61364 127.59601c-9.425 26.654-26.425 19.154-42.925 21.654 11-18 31.146-13.066 42.925-21.654z" id="path146" fill="#008837" stroke="#000" stroke-width="1" stroke-miterlimit="3.86369991"/>
  <path d="M369.30564 155.85901c-27.116 17.891-27.542 3.517-46.116 5.891 16.499-11.5 33.499-7 46.116-5.891z" id="path148" fill="#008837" stroke="#000" stroke-width="1" stroke-miterlimit="3.86369991"/>
  <path d="M337.05964 170.47001c-11.87 8.78-20.362 3.118-38.87.28 16.257-13.63 29.499-3.5 38.87-.28z" id="path150" fill="#008837" stroke="#000" stroke-width="1"/>
  <path d="M357.18864 32.750001c68.5 110.500009-30.5 131.500009-70.5 140.500009-17.285 3.889-27.5 9-27.5 9l-2-4.5s12.297-3.705 26-7.5c32.5-9 136.5-25.5 74-137.500009z" id="path152" fill="#008837" stroke="#000" stroke-width="1" stroke-miterlimit="3.86369991"/>
  <path d="M226.79164 11.750001c-2.5 18-9.5 24-30.5 32.5 3.5-17 10-27.5 30.5-32.5z" id="path155" fill="#008837" stroke="#000" stroke-width="1" stroke-miterlimit="3.86369991"/>
  <path d="M222.29164 37.250001c-8 20.500001-17.359 16.917001-34 25.500001 5.141-20.584001 20-17.500001 34-25.500001z" id="path157" fill="#008837" stroke="#000" stroke-width="1" stroke-miterlimit="3.86369991"/>
  <path d="M211.53164 57.311002c-1.272 21.968-16.065 24.133-29.239 37.438.999-31.499 18.397-25.503 29.239-37.438z" id="path159" fill="#008837" stroke="#000" stroke-width="1" stroke-miterlimit="3.86369991"/>
  <path d="M207.49764 79.716002c4.294 30.034008-9.788 31.809008-18.206 48.534008-7-27.5 11.581-33.834008 18.206-48.534008z" id="path161" fill="#008837" stroke="#000" stroke-width="1" stroke-miterlimit="3.86369991"/>
  <path d="M208.58364 105.26901c11.883 18.521 3.545 22.473.708 40.98-18.5-20.999-2.465-24.951-.708-40.98z" id="path163" fill="#008837" stroke="#000" stroke-width="1" stroke-miterlimit="3.86369991"/>
  <path d="M217.98964 125.76601c17.024 13.943 13.281 15.505 16.303 33.984-21.501-10.5-17.001-18-16.303-33.984z" id="path165" fill="#008837" stroke="#000" stroke-width="1" stroke-miterlimit="3.86369991"/>
  <path d="M235.24364 141.19801c20.499 8 18.464 12.911 27.048 29.552-20.583-5.14-19.048-15.552-27.048-29.552z" id="path167" fill="#008837" stroke="#000" stroke-width="1" stroke-miterlimit="3.86369991"/>
  <path d="M192.79164 23.250001c-11.5 11-12.508 25.266-6.5 43.000001 10.6-18.378001 8-28.500001 6.5-43.000001z" id="path169" fill="#008837" stroke="#000" stroke-width="1" stroke-miterlimit="3.86369991"/>
  <path d="M170.29164 45.250001c-8.022 13.744001.836 32.109001 11.5 47.500001 5.124-20.587-3.5-35-11.5-47.500001z" id="path171" fill="#008837" stroke="#000" stroke-width="1" stroke-miterlimit="3.86369991"/>
  <path d="M163.87564 86.252002c-2.584 33.998008 10.924 30.143008 25.416 41.998008-.749-21.202-16.461-30.497008-25.416-41.998008z" id="path173" fill="#008837" stroke="#000" stroke-width="1"/>
  <path d="M166.86764 127.59601c9.424 26.654 26.424 19.154 42.924 21.654-11-18-31.144-13.066-42.924-21.654z" id="path175" fill="#008837" stroke="#000" stroke-width="1" stroke-miterlimit="3.86369991"/>
  <path d="M191.17564 155.85901c27.116 17.891 27.543 3.517 46.116 5.891-16.5-11.5-33.5-7-46.116-5.891z" id="path177" fill="#008837" stroke="#000" stroke-width="1" stroke-miterlimit="3.86369991"/>
  <path d="M223.42264 170.47001c11.869 8.78 20.361 3.118 38.869.28-16.257-13.63-29.5-3.5-38.869-.28z" id="path179" fill="#008837" stroke="#000" stroke-width="1"/>
  <path d="M203.29164 32.750001c-68.5 110.500009 30.5 131.500009 70.5 140.500009 17.286 3.889 27.501 9 27.501 9l2-4.5s-12.297-3.705-26.001-7.5c-32.5-9-136.5-25.5-74-137.500009z" id="path181" fill="#008837" stroke="#000" stroke-width="1" stroke-miterlimit="3.86369991"/>
  <ellipse transform="translate(-.50036277)" cx="280.741" cy="129.5" rx="43.948002" ry="8.75" id="ellipse219" fill="#cca208" stroke="#000" stroke-miterlimit="3.86369991"/>
  <path transform="translate(-.50036277)" id="polygon221" fill="#cca208" stroke="#000" d="M266.925 7.252h10.55V.5h6.331l-.032 6.752h10.581v6.753l-10.549-.001v15.615h-6.331l-.034-15.614h-10.516z"/>
  <path transform="translate(-.50036277)" id="polygon223" fill="#cca208" stroke="#000" stroke-miterlimit="3.86369991" d="M347.939 62.5L280.69 26h.102l-67.25 36.5 33.75-8.75h0l33.449-17.251 33.448 17.251z"/>
  <path transform="translate(-.50036277)" stroke-miterlimit="3.86369991" id="polyline225" fill="#dc171d" fill-opacity="1" stroke="#000" d="M347.939 65.25l-2 6.5-12.417 24.5-2.833-34.834"/>
  <path transform="translate(-.50036277)" stroke-miterlimit="3.86369991" id="polyline227" fill="#dc171d" fill-opacity="1" stroke="#000" d="M213.542 65.25l2 6.5 12.417 24.5 2.833-34.834"/>
  <path d="M234.90864 117.97801l-19.867-46.229008h2.25s7.75 22.25 8.5 15.75-3.75-20.5-6-20.5-6.75-1.75-6.75-1.75v-2.75l67.199-17.500001 67.198 17.500001v2.75s-4.5 1.75-6.75 1.75-6.75 14-6 20.5 8.5-15.75 8.5-15.75h2.25l-19.867 46.229008" id="path229" fill="#ffe600" stroke="#000" stroke-width="1" stroke-miterlimit="3.86369991"/>
  <path d="M323.68864 126.82801c2-10.75 3.712-11.213-1-14-17.75-10.5-68.25-10.25-84.896 0-4.661 2.87-3 3.25-1 14 18.75-6.25 60.896-6.5 86.896 0z" id="path231" fill="#fff" stroke="#000" stroke-width="1" stroke-miterlimit="3.86369991"/>
  <path d="M324.93864 117.57801c-.135-4.162-.18 6.721-2.25 7-2.067.279-.505-5.604-.483-7.928l.179-.815c-.135-4.162.101 7.881-1.97 8.161-2.068.279-1.98-5.771-1.959-8.096l.087-1.597c-.195-4.475.146 8.475-2.854 8.775-3 .3-2.87-6.205-2.839-8.705l.192-1.57c-.196-4.475.146 8.475-2.854 8.775-3 .3-2.871-6.205-2.841-8.705l.443-1.07c-.197-4.475.146 8.475-2.854 8.775-3 .3-2.87-6.205-2.841-8.705l.283-1.265c-.196-4.475.146 8.475-2.854 8.775-3 .3-2.904-6.725-2.875-9.225-.195-4.475.146 8.475-2.854 8.775-3 .3-2.87-6.205-2.839-8.705l.464-1.02c-.196-4.475.146 8.475-2.854 8.775-3 .3-2.871-6.206-2.839-8.706-.196-4.475.349 8.206-2.651 8.505-3 .299-2.87-6.205-2.84-8.705.03 2.5.16 9.005-2.84 8.705-3-.3-2.455-12.98-2.651-8.505.03 2.5.16 9.005-2.84 8.706-3-.3-2.657-13.25-2.853-8.775l.463 1.02c.03 2.5.16 9.005-2.84 8.705-3-.3-2.657-13.25-2.853-8.775.03 2.5.124 9.525-2.876 9.225-3-.3-2.657-13.25-2.853-8.775l.283 1.265c.03 2.5.16 9.005-2.84 8.705-3-.3-2.657-13.25-2.853-8.775l.442 1.07c.03 2.5.16 9.005-2.84 8.705-3-.3-2.657-13.25-2.853-8.775l.192 1.57c.03 2.5.16 9.005-2.84 8.705-3-.3-2.657-13.25-2.853-8.775l.087 1.597c.021 2.325.111 8.375-1.959 8.096-2.07-.279-1.833-12.322-1.968-8.161l.178.815c.021 2.325 1.585 8.208-.484 7.928-2.069-.28-2.115-11.162-2.25-7" id="path233" fill="none" stroke="#000" stroke-width="1" stroke-miterlimit="3.86369991"/>
  <path d="M296.70164 95.463002c-.434 9.292008-9.509 10.373008-13.614 4.322 1.081-.216 1.945-.54 1.945-1.729 0-1.517-1.405-2.917-1.405-2.917s2.055-4.658 3.349-4.43c1.837.324 2.7 3.241 2.7 8.319 1.887-2.85 4.02-7.069 2.702-10.48-1.837-4.754-6.374-7.239-10.805 4.538 2.593-4.97 3.889-11.885-1.296-18.152-5.187 6.267-3.89 13.182-1.297 18.152-4.43-11.777-8.968-9.292-10.805-4.538-1.318 3.412.815 7.631 2.701 10.48 0-5.078.864-7.995 2.701-8.319 1.295-.229 3.35 4.43 3.35 4.43s-1.405 1.401-1.405 2.917c0 1.188.865 1.513 1.945 1.729-4.105 6.051008-13.182 4.970008-13.614-4.322-.432-9.292 16.423-23.77 16.423-23.77s16.858 14.478 16.425 23.77z" id="path235" fill="#0c419a" stroke="#000" stroke-width="1" stroke-miterlimit="3.86369991"/>
  <path d="M328.78064 102.29701c-4.93 9.919-12.146 9.276-12.168 1.94.902-.017 1.7-.193 2.288-1.473.755-1.633.414-3.422008.414-3.422008s3.823-4.606 4.666-4.103c1.191.715.379 4.027-2.142 9.496008 2.803-2.691 6.466-6.812008 7.188-10.746008 1.007-5.486-1.101-9.064-10.205 2.733 4.378-4.837 8.763-12.024 8.054-19.804-6.929 5.715-9.404 13.417-9.962 19.287 2.583-13.565-1.992-11.793-5.704-7.039-2.665 3.41-3.188 8.378-3.211 11.821008 2.521-5.467008 4.603-8.438008 6.115-8.418008 1.066.012.271 5.438.271 5.438s-1.729 1.229-2.48 2.861008c-.591 1.278-.115 1.802.573 2.247-6.021 5.698-12.171 2.727-7.879-7.365008 4.294-10.094 23.883-22.323 23.883-22.323s5.228 18.95.299 28.870008z" id="path237" fill="#0c419a" stroke="#000" stroke-width="1" stroke-miterlimit="3.86369991"/>
  <path d="M231.70064 102.29701c4.929 9.919 12.145 9.276 12.168 1.94-.903-.017-1.7-.193-2.289-1.473-.755-1.633-.414-3.422008-.414-3.422008s-3.823-4.606-4.666-4.103c-1.19.715-.378 4.027 2.142 9.496008-2.802-2.691-6.465-6.812008-7.188-10.746008-1.006-5.486 1.102-9.064 10.205 2.733-4.377-4.837-8.761-12.024-8.052-19.804 6.927 5.715 9.404 13.417 9.961 19.287-2.582-13.565 1.993-11.793 5.704-7.039 2.665 3.41 3.187 8.378 3.211 11.821008-2.521-5.467008-4.603-8.438008-6.115-8.418008-1.066.012-.27 5.438-.27 5.438s1.729 1.229 2.48 2.861008c.591 1.278.116 1.802-.574 2.247 6.022 5.698 12.171 2.727 7.879-7.365008-4.293-10.094-23.883-22.323-23.883-22.323s-5.227 18.95-.299 28.870008z" id="path239" fill="#0c419a" stroke="#000" stroke-width="1" stroke-miterlimit="3.86369991"/>
  <path d="M288.85564 69.916002l11.069 13.826 1.314-10.022-7.103-1.417 1.435-4.481 6.27.916 1.651-7.305 4.296.984-1.617 6.871 6.871 1.619-.768 4.313-7.138-.984-1.318 10.468 14.703-10.787s.751-16.5-11.162-19.009c-13.473-2.839001-18.503 15.008-18.503 15.008z" id="path241" fill="#dc171d" fill-opacity="1" stroke="#000" stroke-width="1" stroke-miterlimit="3.86369991"/>
  <path d="M271.62464 69.916002l-11.068 13.826-1.316-10.022 7.104-1.417-1.436-4.481-6.268.916-1.652-7.305-4.296.984 1.618 6.871-6.871 1.619.767 4.313 7.138-.984 1.317 10.468-14.703-10.787s-.751-16.5 11.163-19.009c13.474-2.839001 18.503 15.008 18.503 15.008z" id="path243" fill="#dc171d" fill-opacity="1" stroke="#000" stroke-width="1" stroke-miterlimit="3.86369991"/>
  <path d="M376.68864 592.15001c9.49 18.028 87.5-2.25 105.25-110.25-10.5-.25-29.25-1-29.25-1-6.25 72.25-47 81-55.75 83.25-11.951 3.073-22.75 23.25-20.25 28z" id="path55" fill="#fff" stroke="#000" stroke-width="1" stroke-miterlimit="3.86369991"/>
  <path d="M183.79264 592.15001c-9.489 18.028-87.500005-2.25-105.250005-110.25 10.5-.25 29.250005-1 29.250005-1 6.25 72.25 47 81 55.75 83.25 11.952 3.073 22.75 23.25 20.25 28z" id="path57" fill="#fff" stroke="#000" stroke-width="1" stroke-miterlimit="3.86369991"/>
  <path d="M392.18864 588.40001c-3.275 5.286-7.25-1.25-15.5 3.75-3.5-9.75.75-16.5 6.5-21s12.999 10.8 9 17.25z" id="path59" fill="#fff" stroke="#000" stroke-width="1" stroke-miterlimit="3.86369991"/>
  <path d="M168.29264 588.40001c3.277 5.286 7.25-1.25 15.5 3.75 3.5-9.75-.75-16.5-6.5-21s-12.999 10.801-9 17.25z" id="path61" fill="#fff" stroke="#000" stroke-width="1" stroke-miterlimit="3.86369991"/>
  <path d="M348.43864 532.90001c8.25 10.75 46.25 15.5 52 26-.25 7.5-8.25 29.5-8.25 29.5-.25-12-37.25-12.25-61-33-3.993-3.489-27.75-18.25-50.948-18.25s-46.955 14.761-50.948 18.25c-23.75 20.75-60.75 21-61 33 0 0-8-22-8.25-29.5 5.75-10.5 43.75-15.25 52-26 4.494-5.854 38.25-24.75 68.198-24.5 29.948.25 63.705 18.645 68.198 24.5z" id="path63" fill="#fff" stroke="#000" stroke-width="1" stroke-miterlimit="3.86369991"/>
  <path d="M459.41364 520.44901l-6.696-.237 5.088 4.433 1.608-4.196zm-9.046-.053l.784-2.052 15.261.282-.765 1.986-4.533-.182-2.031 5.298 3.455 2.988-.715 1.859-11.456-10.179z" id="path66" stroke="#000" stroke-width="1" stroke-miterlimit="3.86369991"/>
  <path id="rect70" stroke="#000" stroke-width="1.00000024" stroke-miterlimit="3.86369991" d="M457.17344517 539.83131868l-.89159463 1.74883675-12.7808512-6.51595313.89159463-1.74883675z"/>
  <path transform="translate(-.50036558 .40000542)" id="polygon72" stroke="#000" stroke-miterlimit="3.86369991" d="M442.594 537.379l1.474.958-4.361 6.715 3.652 2.373 3.834-5.904 1.435.93-3.835 5.905 5.471 3.553-1.058 1.63-12.032-7.812h0z"/>
  <path d="M435.66364 550.73101c1.58.091 3.124.773 4.648 2.041 1.637 1.374 2.654 2.929 3.043 4.683.455 2.039-.076 3.965-1.593 5.789-1.42 1.69-3.085 2.551-5.022 2.58-1.8-.043-3.519-.759-5.171-2.133-1.48-1.243-2.443-2.677-2.886-4.309-.562-2.078-.062-4.043 1.493-5.912 1.627-1.937 3.454-2.851 5.488-2.739zm3.391 3.585c-1.286-1.079-2.609-1.615-3.974-1.6-1.351.015-2.513.606-3.505 1.775-.954 1.138-1.344 2.392-1.16 3.769.177 1.371 1.019 2.69 2.545 3.971 1.212 1.019 2.494 1.571 3.854 1.667 1.346.083 2.592-.565 3.768-1.951 1.099-1.31 1.426-2.642.979-4.022-.455-1.377-1.287-2.572-2.507-3.609z" id="path74" stroke="#000" stroke-width="1" stroke-miterlimit="3.86369991"/>
  <path transform="translate(-.50036558 .40000542)" id="polygon76" stroke="#000" stroke-miterlimit="3.86369991" d="M421.834 564.557l-3.703 3.105-1.1-1.308 8.916-7.483h0l1.101 1.309-3.704 3.107 8.124 9.681-1.512 1.268z"/>
  <path d="M379.90564 555.06501l-3.177 8.278c-.372.967-.499 1.839-.386 2.636.167 1.173.895 2.006 2.176 2.509 1.532.588 2.771.467 3.741-.373.509-.454.949-1.163 1.333-2.136l3.178-8.278 1.842.707-2.888 7.521c-.629 1.641-1.336 2.824-2.125 3.547-1.431 1.302-3.271 1.517-5.544.654-2.262-.869-3.484-2.26-3.673-4.193-.1-1.052.169-2.403.793-4.057l2.888-7.521 1.842.706z" id="path78" stroke="#000" stroke-width="1" stroke-miterlimit="3.86369991"/>
  <path transform="translate(-.50036558 .40000542)" id="polygon80" stroke="#000" stroke-miterlimit="3.86369991" d="M361.677 562.849l-1.758-.71 5.374-13.301h0l1.756.71-2.619 6.482 9.101-3.864 2.491 1.007-7.699 3.125 2.479 10.238-2.345-.947-1.957-8.554-2.952 1.178z"/>
  <path d="M361.23964 550.39601c.158 1.575-.273 3.206-1.287 4.91-1.102 1.833-2.478 3.08-4.148 3.739-1.944.77-3.928.545-5.967-.669-1.894-1.138-3.002-2.646-3.336-4.557-.238-1.784.2-3.594 1.3-5.439.995-1.657 2.261-2.834 3.804-3.524 1.964-.882 3.983-.694 6.071.55 2.167 1.303 3.357 2.963 3.563 4.99zm-3.01 3.91c.865-1.44 1.188-2.83.959-4.175-.226-1.332-.993-2.387-2.304-3.185-1.271-.765-2.571-.953-3.903-.558-1.326.388-2.497 1.428-3.522 3.136-.815 1.355-1.162 2.709-1.042 4.067.126 1.341.963 2.471 2.516 3.414 1.464.881 2.831.995 4.126.338 1.287-.661 2.336-1.67 3.17-3.037z" id="path82" stroke="#000" stroke-width="1" stroke-miterlimit="3.86369991"/>
  <path transform="translate(-.50036558 .40000542)" id="polygon84" stroke="#000" stroke-miterlimit="3.86369991" d="M334.023 547.13l-1.683-1.012 7.39-12.296h0l1.684 1.011-3.055 5.081 6.397 3.842 3.053-5.08 1.681 1.012-7.388 12.295-1.683-1.01 3.455-5.751-6.395-3.843z"/>
  <path d="M324.72664 529.15801c.375 1.539.174 3.215-.592 5.043-.836 1.97-2.024 3.396-3.588 4.28-1.817 1.032-3.814 1.087-6.003.168-2.03-.862-3.339-2.203-3.938-4.047-.483-1.733-.302-3.588.528-5.569.756-1.778 1.846-3.121 3.275-4.019 1.824-1.146 3.85-1.242 6.092-.302 2.33.99 3.738 2.468 4.226 4.446zm-2.438 4.291c.655-1.546.782-2.967.368-4.267-.407-1.288-1.314-2.224-2.723-2.833-1.367-.579-2.68-.585-3.944-.007-1.26.567-2.272 1.76-3.053 3.594-.618 1.457-.771 2.845-.466 4.173.312 1.311 1.298 2.313 2.967 3.031 1.574.668 2.942.592 4.134-.239 1.183-.836 2.083-1.981 2.717-3.452z" id="path86" stroke="#000" stroke-width="1" stroke-miterlimit="3.86369991"/>
  <path transform="translate(-.50036558 .40000542)" id="polygon88" stroke="#000" stroke-miterlimit="3.86369991" d="M297.593 531.937l-1.821-.522 3.955-13.79h0l1.822.522-1.927 6.721 8.647-4.794 2.582.74-7.33 3.914 3.535 9.922-2.432-.698-2.842-8.301-2.81 1.479z"/>
  <path d="M279.60864 524.31901l-2.397-6.258-2.092 6.415 4.489-.157zm-3.487-8.35l2.196-.076 5.703 14.154-2.128.074-1.604-4.243-5.67.197-1.402 4.35-1.991.068 4.896-14.524z" id="path90" stroke="#000" stroke-width="1" stroke-miterlimit="3.86369991"/>
  <path d="M262.30664 518.20001c1.563.375 2.723 1.436 3.492 3.187l-1.867.466c-.48-.958-1.129-1.581-1.965-1.866-.826-.287-1.783-.29-2.875-.027-1.289.321-2.249 1.073-2.898 2.263-.631 1.185-.708 2.732-.24 4.648.411 1.649 1.106 2.904 2.098 3.775.978.853 2.29 1.068 3.941.667 1.251-.312 2.194-.93 2.846-1.867.643-.935.767-2.213.386-3.858l-4.359 1.087-.39-1.564 6.111-1.523 1.857 7.447-1.213.303-.901-1.678c-.46.859-.899 1.482-1.333 1.883-.708.67-1.704 1.159-2.98 1.488-1.648.41-3.193.232-4.654-.541-1.622-1.016-2.725-2.691-3.317-5.03-.581-2.331-.417-4.335.508-6.034.868-1.605 2.259-2.646 4.17-3.135 1.31-.329 2.498-.365 3.583-.091z" id="path92" stroke="#000" stroke-width="1" stroke-miterlimit="3.86369991"/>
  <path transform="translate(-.50036558 .40000542)" id="polygon94" stroke="#000" stroke-miterlimit="3.86369991" d="M239.148 525.167l11.072 8.062-4.354-10.776 1.711-.691 5.374 13.301-2.02.816-11.167-8.011 4.35 10.766-1.72.694-5.374-13.302h0z"/>
  <path d="M231.63264 531.01701c1.444.651 2.64 1.842 3.61 3.57 1.037 1.871 1.429 3.686 1.163 5.464-.305 2.066-1.492 3.673-3.562 4.833-1.93 1.068-3.792 1.274-5.613.608-1.664-.685-3.013-1.97-4.062-3.844-.938-1.69-1.324-3.375-1.15-5.057.219-2.144 1.39-3.797 3.512-4.984 2.211-1.225 4.244-1.425 6.102-.59zm1.881 4.563c-.814-1.47-1.856-2.442-3.136-2.918-1.266-.471-2.562-.332-3.908.402-1.298.72-2.111 1.751-2.434 3.102-.328 1.345-.013 2.879.953 4.62.767 1.384 1.766 2.359 3.001 2.938 1.226.56 2.623.399 4.216-.474 1.495-.827 2.277-1.953 2.355-3.403.07-1.447-.278-2.862-1.047-4.267z" id="path96" stroke="#000" stroke-width="1" stroke-miterlimit="3.86369991"/>
  <path transform="translate(-.50036558 .40000542)" id="polygon98" stroke="#000" stroke-miterlimit="3.86369991" d="M212.877 541.383l-4.1 2.562-.906-1.448 9.873-6.17h0l.905 1.449-4.099 2.562 6.696 10.717-1.673 1.045z"/>
  <path d="M199.83164 549.60701c1.354.822 2.396 2.149 3.147 3.984.801 1.981.969 3.832.489 5.562-.555 2.016-1.929 3.465-4.125 4.363-2.046.826-3.92.805-5.646-.078-1.568-.884-2.75-2.323-3.564-4.312-.724-1.793-.902-3.511-.526-5.158.479-2.101 1.843-3.6 4.094-4.52 2.347-.945 4.389-.896 6.131.159zm1.312 4.758c-.629-1.558-1.545-2.65-2.757-3.277-1.199-.622-2.503-.644-3.928-.077-1.376.556-2.309 1.479-2.794 2.782-.489 1.293-.364 2.854.383 4.7.592 1.468 1.465 2.559 2.621 3.28 1.148.705 2.554.717 4.242.046 1.584-.641 2.499-1.663 2.753-3.093.245-1.426.071-2.873-.52-4.361z" id="path100" stroke="#000" stroke-width="1" stroke-miterlimit="3.86369991"/>
  <path d="M171.77164 558.29601l2.598-.998 8.194 9.847-.527-12.789 2.571-.987 5.141 13.394-1.723.661-3.035-7.903c-.105-.274-.276-.721-.503-1.366-.232-.632-.491-1.308-.762-2.04l.516 12.764-1.796.688-8.184-9.818.157.409c.126.329.324.817.602 1.484.268.672.457 1.164.588 1.479l3.034 7.904-1.732.665-5.139-13.394z" id="path102" stroke="#000" stroke-width="1" stroke-miterlimit="3.86369991"/>
  <path d="M154.15664 580.75801l.588-6.677-4.692 4.85 4.104 1.827zm.526-9.034l2.007.895-1.08 15.223-1.945-.866.418-4.518-5.184-2.308-3.166 3.294-1.82-.811 10.77-10.909z" id="path104" stroke="#000" stroke-width="1" stroke-miterlimit="3.86369991"/>
  <path d="M142.41064 564.05701l-5.212 7.174c-.608.838-.956 1.647-1.053 2.446-.143 1.176.343 2.169 1.452 2.985 1.327.965 2.555 1.169 3.711.607.608-.306 1.217-.878 1.839-1.717l5.212-7.174 1.596 1.158-4.735 6.519c-1.033 1.423-2.021 2.383-2.971 2.876-1.719.887-3.551.618-5.524-.803-1.959-1.425-2.781-3.083-2.463-5 .178-1.043.786-2.278 1.817-3.716l4.735-6.518 1.596 1.163z" id="path106" stroke="#000" stroke-width="1" stroke-miterlimit="3.86369991"/>
  <path transform="translate(-.50036558 .40000542)" id="polygon108" stroke="#000" stroke-miterlimit="3.86369991" d="M134.46 558.469l-3.478-3.357 1.187-1.229 8.375 8.084h0l-1.188 1.229-3.477-3.357-8.778 9.09-1.419-1.368z"/>
  <path d="M128.88864 554.21201c-.391 1.534-1.355 2.92-2.89 4.176-1.662 1.346-3.381 2.047-5.178 2.094-2.089.059-3.877-.831-5.378-2.669-1.389-1.715-1.916-3.514-1.576-5.422.386-1.758 1.417-3.31 3.081-4.668 1.502-1.217 3.094-1.89 4.78-2.012 2.148-.156 3.98.71 5.519 2.594 1.591 1.966 2.141 3.933 1.642 5.907zm-4.167 2.646c1.305-1.057 2.084-2.253 2.329-3.595.244-1.328-.118-2.582-1.075-3.779-.935-1.152-2.091-1.773-3.478-1.857-1.379-.091-2.835.486-4.384 1.739-1.229.995-2.017 2.148-2.371 3.467-.338 1.304.062 2.651 1.197 4.068 1.076 1.328 2.32 1.903 3.762 1.729 1.437-.182 2.769-.771 4.02-1.772z" id="path110" stroke="#000" stroke-width="1" stroke-miterlimit="3.86369991"/>
  <path d="M124.18964 541.40001s-6.622-2.392-7-.125c-.375 2.25 2.25 2.5 2.75 1.25s4.25-1.125 4.25-1.125z" id="path112" stroke="#000" stroke-width="1" stroke-miterlimit="3.86369991"/>
  <path transform="translate(-.50036558 .40000542)" id="polygon114" stroke="#000" stroke-miterlimit="3.86369991" d="M103.137 537.439l-4.649-9.532 12.893-6.289h0l4.585 9.401-1.58.77-3.754-7.698-3.915 1.909 3.472 7.118-1.492.729-3.472-7.118-4.371 2.131 3.819 7.829z"/>
  <path d="M104.69164 512.19101c-.937 1.277-2.35 2.199-4.243 2.789-2.045005.625-3.902005.631-5.585005.001-1.958-.729-3.284-2.222-3.987-4.488-.645-2.11-.459-3.976.57-5.616 1.017-1.486 2.553-2.538 4.605-3.176 1.849-.564 3.577-.594 5.186005-.073 2.05.658 3.424 2.148 4.145 4.472.739 2.417.512 4.447-.691 6.091zm-4.853005.893c1.606005-.49 2.776005-1.309 3.506005-2.461.724-1.141.858-2.438.419-3.906-.434-1.419-1.273-2.43-2.528-3.025-1.245005-.6-2.811005-.611-4.716005-.029-1.513.464-2.675 1.237-3.497 2.325-.802 1.083-.936 2.482-.415 4.224.5 1.634 1.438 2.634 2.841 3.012 1.399.365 2.855.319 4.39-.14z" id="path116" stroke="#000" stroke-width="1" stroke-miterlimit="3.86369991"/>
  <path transform="translate(-.50036558 .40000542)" id="polygon118" stroke="#000" stroke-miterlimit="3.86369991" d="M87.151 491.959l-.394-1.854 14.033-2.982h0l.394 1.855-6.84 1.452 8.293 5.386.559 2.627-6.896-4.634-7.103 7.779-.526-2.475 5.997-6.406-2.626-1.788z"/>
  <path d="M445.77565 524.81402s3.213 6.266 5.034 4.865c1.811-1.391.062-3.363-1.158-2.79-1.217.573-3.876-2.075-3.876-2.075z" id="path68" stroke="#000" stroke-width="1" stroke-miterlimit="3.86369991"/>
  <path style="text-indent:0;text-align:start;line-height:normal;text-transform:none;block-progression:tb;marker:none;-inkscape-font-specification:Sans" d="M273.53089 190.11876c.14526.32208.27161.65222.34375 1 3.35381-2.30725 5.00824-5.30818 5.875-7.5l.5-1.4375.5 1.5c.86334 2.15879 2.5084 5.07154 5.75 7.34375.20492-.24848.43558-.48716.6875-.71875-5.48926-3.72526-6.9375-10.58725-6.9375-10.58725s-1.4448 6.68128-6.71875 10.39975zm-161.75 8.96875l-.4375.84375c-4.79882 9.34507-5.80558 18.67833-6.875 27.75-1.06942 9.07167-2.18358 17.87017-7.093755 26.21875-5.514097 9.37555-12.635255 15.97163-18.5 23.75-5.864745 7.77837-10.465964 16.77193-10.84375 30.75v.875l.75-.4375c.150851-.088-.0482-1.04264.34375-1.3125.547717-13.22532 4.902518-21.77446 10.5625-29.28125 5.794255-7.68488 12.931347-14.3223 18.53125-23.84375 5.031835-8.55542 6.179925-17.51642 7.250005-26.59375 1.03243-8.75795 2.08528-17.63331 6.375-26.46875-.20372-.16133.28954-1.49394.375-1.4375zm336.9375 0l-.46875.8125c-.14837.33411.59825 1.40859.375 1.40625 4.30463 8.84739 5.37229 17.73012 6.40625 26.5 1.07021 9.07733 2.18743 18.03833 7.21875 26.59375 5.6004 9.52143 12.76837 16.15887 18.5625 23.84375 5.65981 7.50673 9.98348 16.05612 10.53125 29.28125.22021.0565.33419 1.12467.34375 1.3125l.78125.4375-.0312-.875c-.37779-13.97807-4.97913-22.97163-10.84375-30.75-5.86462-7.77837-12.95415-14.37443-18.46875-23.75-4.90968-8.34858-6.02421-17.14708-7.09375-26.21875-1.06954-9.07167-2.10743-18.40493-6.90625-27.75z" id="path3110-1" font-size="medium" font-style="normal" font-variant="normal" font-weight="400" font-stretch="normal" text-decoration="none" letter-spacing="normal" word-spacing="normal" direction="ltr" writing-mode="lr-tb" text-anchor="start" baseline-shift="baseline" color="#000" fill="#000" fill-opacity="1" fill-rule="nonzero" stroke="none" stroke-width="1" visibility="visible" display="inline" overflow="visible" font-family="Sans"/>
</svg>
