<svg xmlns="http://www.w3.org/2000/svg" version="1.0" id="svg7657" viewBox="0 0 330 460">
  <path d="M0 0v347.55556c.0258 23.49974 13.76018 45.92952 36.81884 56.0625L165 460l128.18116-56.38194C316.2398 393.48508 329.97414 371.0553 330 347.55556V0H0z" id="path2839" fill="#ffd500" fill-opacity="1"/>
  <path d="M5 5.0000076V345c.0252 22.98888 13.34322 44.93106 35.70312 54.84376L165 455l124.29688-55.15624C311.65678 389.93106 324.97492 367.98888 325 345V5.0000076H5z" id="path7710" fill="#005bbb"/>
  <path d="M165 30c-9.32028 10.57656-15 24.42126-15 39.61722.55232 33.36574 4.6446 66.66376 5 100.0195.73986 31.08682-8.5845 60.28476-19.92188 88.7673-3.77774 7.8708-7.86416 15.57454-11.95312 23.2858l-12.03126-2.42246c-10.82574-2.16468-17.8675-12.69224-15.70312-23.5201 1.89386-9.47434 10.23132-16.05338 19.53126-16.09688l4.375.46884-9.76564-81.5784C106.3393 122.21348 87.60116 90.34876 60 69.61722c-4.74316-3.5627-9.76876-6.81982-15-9.68938v289.74398h66.875c5.00032 27.14982 19.93944 50.80216 40.93748 67.04434C157.8072 420.15932 161.99094 424.70046 165 430c3.00906-5.29954 7.1928-9.84068 12.1875-13.28384 20.99806-16.24218 35.9372-39.89452 40.9375-67.04434H285V59.92784c-5.23124 2.86956-10.25684 6.12668-15 9.68938-27.60116 20.73154-46.3393 52.59626-49.53124 88.9236l-9.76564 81.5784 4.375-.46884c9.29994.0436 17.63742 6.62254 19.53126 16.09688 2.16438 10.82786-4.87736 21.35542-15.70312 23.5201l-12.03126 2.42246c-4.08894-7.71126-8.17538-15.415-11.95312-23.2858-11.33738-28.48254-20.66174-57.68048-19.92188-88.7673.3554-33.35574 4.44768-66.65376 4.99998-100.0195 0-15.19596-5.6797-29.04066-14.99998-39.61722zM65 101.65472c12.9427 15.19272 21.62884 34.12514 24.21876 54.93246l8.04686 67.27888c-10.2464 5.10198-18.01414 14.46206-20.9375 25.78626H65v-147.9976zm200 0v147.9976h-11.32812c-2.92334-11.3242-10.6911-20.68428-20.9375-25.78626l8.04688-67.27888c2.5899-20.80732 11.27604-39.73974 24.21874-54.93246zM165 236.91534c5.3724 17.57518 12.76378 34.26394 21.95312 49.77546-8.74052 2.65576-16.34762 7.82152-21.95312 14.76838-5.60552-6.94686-13.2126-12.11262-21.95312-14.76838C152.2362 271.17928 159.6276 254.49052 165 236.91534zM65 269.65622h11.32812c3.57166 13.8052 14.34756 24.71308 28.04688 28.52106l9.60936 2.18792C111.41132 309.69478 110 319.52444 110 329.66792H65v-60.0117zm188.67188 0H265v60.0117h-45c0-10.14348-1.41132-19.97314-3.98436-29.30272l9.60936-2.18792c13.69932-3.80798 24.47524-14.71586 28.04688-28.52106zM133.51562 304.9756C145.6481 306.6907 155 317.06222 155 329.66792h-25c0-8.57492 1.26998-16.83852 3.51562-24.69232zm62.96876 0c2.24564 7.8538 3.51564 16.1174 3.51564 24.69232H175c0-12.6057 9.3519-22.97722 21.48438-24.69232zm-64.21876 44.69622H155v42.11748c-11.03318-11.53652-19.04802-26.02258-22.73438-42.11748zm42.73438 0h22.73438c-3.68634 16.0949-11.70122 30.58096-22.73438 42.11748v-42.11748z" id="path7306" fill="#ffd500"/>
</svg>
