<svg version="1.0" xmlns="http://www.w3.org/2000/svg" xmlns:xlink="http://www.w3.org/1999/xlink" viewBox="-2100 -1470 4200 2940">
  <defs>
    <path id="D" d="M-31.5 0h33a30 30 0 0030-30v-10a30 30 0 00-30-30h-33zm13-13h19a19 19 0 0019-19v-6a19 19 0 00-19-19h-19z" fill-rule="evenodd"/>
    <path id="E" d="M0 0h63v-13H12v-18h40v-12H12v-14h48v-13H0z" transform="translate(-31.5)"/>
    <path id="e" d="M-26.25 0h52.5v-12h-40.5v-16h33v-12h-33v-11H25v-12h-51.25z"/>
    <path id="M" d="M-31.5 0h12v-48l14 48h11l14-48V0h12v-70H14L0-22l-14-48h-17.5z"/>
    <path id="O" d="M0 0a31.5 35 0 000-70A31.5 35 0 000 0m0-13a18.5 22 0 000-44 18.5 22 0 000 44" fill-rule="evenodd"/>
    <path id="P" d="M-31.5 0h13v-26h28a22 22 0 000-44h-40zm13-39h27a9 9 0 000-18h-27z" fill-rule="evenodd"/>
    <path id="S" d="M-15.75-22C-15.75-15-9-11.5 1-11.5s14.74-3.25 14.75-7.75c0-14.25-46.75-5.25-46.5-30.25C-30.5-71-6-70 3-70s26 4 25.75 21.25H13.5c0-7.5-7-10.25-15-10.25-7.75 0-13.25 1.25-13.25 8.5-.25 11.75 46.25 4 46.25 28.75C31.5-3.5 13.5 0 0 0c-11.5 0-31.55-4.5-31.5-22z"/>
    <use id="star1" xlink:href="#star" transform="scale(31.5)"/>
    <use id="star2" xlink:href="#star" transform="scale(26.25)"/>
    <use id="star3" xlink:href="#star" transform="scale(21)"/>
    <use id="star4" xlink:href="#star" transform="scale(15)"/>
    <use id="star5" xlink:href="#star" transform="scale(10.5)"/>
    <g id="G">
      <clipPath id="gcut">
        <path d="M-31.5 0v-70h63V0zM0-47v12h31.5v-12z"/>
      </clipPath>
      <use xlink:href="#O" clip-path="url(#gcut)"/>
      <path d="M5-35h26.5v10H5z"/>
      <path d="M21.5-35h10V0h-10z"/>
    </g>
    <g id="R">
      <use xlink:href="#P"/>
      <path d="M28 0c0-10 0-32-15-32H-6c22 0 22 22 22 32"/>
    </g>
    <g id="star" fill="#fff">
      <g id="c">
        <path id="t" d="M0-1v1h.5" transform="rotate(18 0 -1)"/>
        <use xlink:href="#t" transform="scale(-1 1)"/>
      </g>
      <use xlink:href="#c" transform="rotate(72)"/>
      <use xlink:href="#c" transform="rotate(-72)"/>
      <use xlink:href="#c" transform="rotate(144)"/>
      <use xlink:href="#c" transform="rotate(-144)"/>
    </g>
  </defs>
  <rect x="-50%" y="-50%" width="100%" height="100%" fill="#009b3a"/>
  <path d="M-1743 0L0 1113 1743 0 0-1113z" fill="#fedf00"/>
  <circle r="735" fill="#002776"/>
  <clipPath id="band">
    <circle r="735"/>
  </clipPath>
  <path d="M-2205 1470a1785 1785 0 013570 0h-105a1680 1680 0 10-3360 0z" clip-path="url(#band)" fill="#fff"/>
  <g fill="#009b3a" transform="translate(-420 1470)">
    <use xlink:href="#O" y="-1697.5" transform="rotate(-7)"/>
    <use xlink:href="#R" y="-1697.5" transform="rotate(-4)"/>
    <use xlink:href="#D" y="-1697.5" transform="rotate(-1)"/>
    <use xlink:href="#E" y="-1697.5" transform="rotate(2)"/>
    <use xlink:href="#M" y="-1697.5" transform="rotate(5)"/>
    <use xlink:href="#e" y="-1697.5" transform="rotate(9.75)"/>
    <use xlink:href="#P" y="-1697.5" transform="rotate(14.5)"/>
    <use xlink:href="#R" y="-1697.5" transform="rotate(17.5)"/>
    <use xlink:href="#O" y="-1697.5" transform="rotate(20.5)"/>
    <use xlink:href="#G" y="-1697.5" transform="rotate(23.5)"/>
    <use xlink:href="#R" y="-1697.5" transform="rotate(26.5)"/>
    <use xlink:href="#E" y="-1697.5" transform="rotate(29.5)"/>
    <use xlink:href="#S" y="-1697.5" transform="rotate(32.5)"/>
    <use xlink:href="#S" y="-1697.5" transform="rotate(35.5)"/>
    <use xlink:href="#O" y="-1697.5" transform="rotate(38.5)"/>
  </g>
  <use id="αCMi" xlink:href="#star1" x="-600" y="-132"/>
  <use id="αCMa" xlink:href="#star1" x="-535" y="177"/>
  <use id="βCMa" xlink:href="#star2" x="-625" y="243"/>
  <use id="γCMa" xlink:href="#star4" x="-463" y="132"/>
  <use id="δCMa" xlink:href="#star2" x="-382" y="250"/>
  <use id="εCMa" xlink:href="#star3" x="-404" y="323"/>
  <use id="αVir" xlink:href="#star1" x="228" y="-228"/>
  <use id="αSco" xlink:href="#star1" x="515" y="258"/>
  <use id="βSco" xlink:href="#star3" x="617" y="265"/>
  <use id="εSco" xlink:href="#star2" x="545" y="323"/>
  <use id="θSco" xlink:href="#star2" x="368" y="477"/>
  <use id="ιSco" xlink:href="#star3" x="367" y="551"/>
  <use id="κSco" xlink:href="#star3" x="441" y="419"/>
  <use id="λSco" xlink:href="#star2" x="500" y="382"/>
  <use id="μSco" xlink:href="#star3" x="365" y="405"/>
  <use id="αHya" xlink:href="#star2" x="-280" y="30"/>
  <use id="γHya" xlink:href="#star3" x="200" y="-37"/>
  <use id="αCru" xlink:href="#star1" y="330"/>
  <use id="βCru" xlink:href="#star2" x="85" y="184"/>
  <use id="γCru" xlink:href="#star2" y="118"/>
  <use id="δCru" xlink:href="#star3" x="-74" y="184"/>
  <use id="εCru" xlink:href="#star4" x="-37" y="235"/>
  <use id="αTrA" xlink:href="#star2" x="220" y="495"/>
  <use id="βTrA" xlink:href="#star3" x="283" y="430"/>
  <use id="γTrA" xlink:href="#star3" x="162" y="412"/>
  <use id="αCar" xlink:href="#star1" x="-295" y="390"/>
  <use id="σOct" xlink:href="#star5" y="575"/>
</svg>
