<svg xmlns="http://www.w3.org/2000/svg" viewBox="0 0 3600 2400">
  <path fill="#e32118" d="M0 0h3600v2400H0z"/>
  <path fill="#fff" d="M0 0h3600v1600H0z"/>
  <path fill="#3e9a00" d="M0 0h3600v800H0z"/>
  <path d="M0 0v2400l900-1200z" fill="#0073ce"/>
  <g stroke="#000">
    <g id="shield">
      <path fill="#fff" stroke-width="4.8" d="M1608 958.8h383V1360c0 135-176 31-191 103-26-74-191 33-191-111 0-140-1-393.2-1-393.2z"/>
      <path fill="#73452b" d="M1827 1399s-5 5-14 1-10-257-10-257c20-22 36-29 36-29l12 10c-45 23-41 56-37 113 1 21 1 48 6 74 7 33 21 61 22 82 1 13-15 6-15 6z"/>
      <path fill="#73452b" d="M1796 1108h18c-15 145-2 231-2 273 0 14 8 19 7 19-18 20-27-1-27-1z"/>
      <path fill="#a36629" d="M1768 1399c-17 8-19-8-18-10 37-75 53-240 19-258l2-16c13 4 25 21 25 21 5 185 0 261-3 264-18 19-25-3-26-5"/>
      <path fill="none" d="M1767 1396c-3-16 26-57 24-100"/>
      <path fill="none" d="M1816 1331c9 25 13 47 11 68"/>
      <path fill="#009a3b" d="M1855 1040c6-7 6-7 17-7 2-15 27-15 29 4 20-4 24 8 16 20 19-5 36 0 31 22 34 9 21 33 6 38-2 15-16 20-35 14-24 17-38 11-49-6-27 4-29-2-41-17-21 9-25 9-43-2-1 14-6 10-15 9 1 18-6 26-22 20 12 25-19 36-34 15-14 1-15-3-22-8-6 20-28 17-32 6-28-4-25-19-2-20 2-16 16-13 25-11 1-10 7-8 12-6-3-7-1-11 8-13-13-17-5-23 8-29-7-16 5-15 14-16-1-17 4-20 22-22-2-6 1-11 11-11-6-17 2-20.9 20-18 3-24.7 56-13 52 21 15 2 20 5 24 17z"/>
      <g fill="none">
        <path d="M1748 1031c4 2 9 0 10 11 8-14 18-6 18 10"/>
        <path d="M1831 1023c-4 6-19 6-17 22-5-7-15-9-19-2"/>
        <path d="M1855 1040c0 4-1 16-5 22"/>
        <path d="M1917 1057c1 1-14 0-21 5"/>
        <path d="M1954 1117c-4-2-12-7-18 1 0-4 0-15-11-15"/>
        <path d="M1919 1131c0-10-2-13-4-16"/>
        <path d="M1886 1117c-8-6-16 3-16 8"/>
        <path d="M1828 1108c0-4-3-12 4-15"/>
        <path d="M1714 1150c2-10 9-10 8-15-1-8-10-15-21-4"/>
        <path d="M1722 1135c6-2 12-1 14 2"/>
        <path d="M1705 1098c4-4 14-3 20 0"/>
        <path d="M1725 1074c5 0 14-2 17 7 11-17 19-15 21-11"/>
        <path d="M1783 1068c8-3 22 5 30 19 4-11 10-9 16-10"/>
        <path d="M1867 1087c13-6 21 6 25 11 6-8 11-8 17-8"/>
        <path d="M1746 1111c3-5 10-6 15-3-1-9 5-13 9-11"/>
      </g>
    </g>
    <g id="stars" fill="#ffd700" stroke-width="3.5">
      <path d="M1787 902.6l-22 1-11 19.7-12-18.8-22 .9 10-19.8-12-18.8 23-1 10-19.7 12 18.8 22-.9-10 19.8z"/>
      <path d="M1693 909.9l-22 5.4-6 21.3-16-16-21 5.2 6-21.3-15-16.2 21-5.3 6-21.4 16 16 22-5.2-7 21.4z"/>
      <path d="M1602 928.6l-20 9.9-1 22.2-19-12.2-20 9.8 2-22.2-19-12.3 20-10 2-22.2 18 12.2 20-9.8-1 22.2z"/>
      <path d="M1816 902.6l22 1 10 19.7 12-18.8 22 .9-10-19.8 12-18.8-22-1-11-19.7-12 18.8-22-.9 10 19.8z"/>
      <path d="M1910 909.9l21 5.4 6 21.3 16-16 21 5.2-6-21.3 16-16.2-22-5.3-6-21.4-16 16-21-5.2 6 21.4z"/>
      <path d="M2000 928.6l20 9.9 1 22.2 19-12.2 20 9.8-1-22.2 18-12.3-20-10-1-22.2-19 12.2-20-9.8 2 22.2z"/>
    </g>
    <g id="motto">
      <g fill="#fff" stroke-width="3.5">
        <path d="M2027 1352l25 36 23-34-16-29z"/>
        <path d="M1868 1457l2 36s10 0 19-3c8-3 15-9 15-9l-1-19z"/>
        <path d="M1734 1457l-2 35s-9 0-18-2c-8-2-15-7-15-7l-10-24z"/>
        <path d="M1573 1352l-26 36-28-46 21-22z"/>
        <path d="M1698 1529c0 34 206 34 206 0v-48c0 25-206 20-206 0z"/>
        <path d="M1514 1418c18 92 184 94 184 94v-31c-4-12 3-16 30-20 11-1 6-17 6-17s-72 13-123-7c-69-28-79-82-79-82s-5 42-18 63z"/>
        <path d="M2087 1418c-17 92-183 94-183 94v-31c3-12-4-16-31-20-11-1-5-17-5-17s72 13 123-7c68-28 76-82 76-82s7 42 20 63z"/>
        <path d="M1527 1383c-46-25-10-51-6-125 7 45 58 64 52 93-21 1-31-31-41 4l-5 28z"/>
        <path d="M2074 1383c46-26 8-51 4-125-7 45-57 64-51 93 20 1 30-31 40 4l7 27z"/>
      </g>
      <g stroke="none">
        <path d="M1555 1417l5 4-11 12c-4.4031 4.8033-5.4674 7.9808-2.4093 10.905 3.7958 3.6295 6.4648 2.3682 10.409-1.905l12-13 4 4-11.989 13.989c-6.5084 7.5942-12.55 5.8563-17.618 1.1231-4.4158-4.1237-6.9466-10.102-.4536-17.454l12.1-13.6z"/>
        <path d="M1575 1434l5 3-1 24 11-17 5 3-16 26-6-3 1-24-11 17-5-3z"/>
        <path d="M1584 1476l14-28 5 3-13 27z"/>
        <path d="M1606 1452l-11.04 28.98L1606 1485c10.29 3.75 15.12-.78 18.39-9.48 3.3-8.85 1.86-15.36-8.43-19.5L1606 1452zm3.96 7.02c10.35 3.6 10.98 7.53 8.16 14.64-2.73 6.75-5.28 9.39-15.12 4.32l6.96-18.96z"/>
        <path d="M1639 1463l-18 27 6.96 2.04 4.02-7.02 12 3 1.02 7.02 6.96.96-6.96-31.98-6-1.02zm1.98 7.02l1.98 12-7.98-1.02 6-10.98z"/>
        <path d="M1656.1 1465.6l-1.0838 30.99 11.772.2309c10.941.2072 14.051-5.6204 14.318-14.91.2713-9.4506-3.2083-15.154-14.298-15.716l-10.708-.5955zm6.0026 5.3771c10.964.044 12.838 3.5434 12.453 11.195-.3657 7.273-1.9548 10.588-12.884 8.9686l.4302-20.164z"/>
        <path d="M1761 1509v31.98h7.02v-12s6 .36 10.98-.96c3.93-1.02 6.66-3.54 6.75-9.75.09-6.09-3.45-9.27-9.57-9.27h-15.2zm7.02 4.98l7.05.09c5.88 0 4.77 8.91.18 8.91h-7.23v-9z"/>
        <path d="M1797 1509l-13.02 31.98h7.02l3-7.98h13.02l3 7.98h6.96l-13-32h-7zm3 7.02l4.98 12h-9l4.02-12z"/>
        <path d="M1817 1535l17-21h-15v-5h24v5l-18 21h18v6h-26z"/>
        <path d="M1918 1473l6-1 3 18c1.0669 6.4013-1.8581 10.764-6.4144 12.445-5.1887 1.9138-11.806.1639-12.586-8.4449l5-1c1.1649 5.1523 3.2378 5.5985 5.6366 4.791 1.9038-.6409 2.8885-3.6406 2.3634-6.791z"/>
        <path d="M1928 1471.2l5.9209-1.1228 2.7393 14.979c1.1722 6.4098 3.1827 9.1354 7.3509 8.4077 5.1735-.9034 5.741-3.8003 4.6402-9.5106l-3.6807-15.98 6.0571-.9143 4.0192 16.623c2.3505 9.7215-2.7285 13.578-9.5455 14.851-5.9392 1.1094-12.253-.3988-14.322-9.9873z"/>
        <path d="M1959 1485l5-2c2.4529 4.4051 6.2799 4.1782 9.2549 2.8632 4.133-1.8269 4.6059-5.4402 2.5625-6.6628-2.9146-1.7438-9.8689.7328-13.615-.6341-4.482-1.6353-6.4062-4.1562-6.1771-8.0319.2759-4.6664 4.3807-7.231 8.8456-8.6157 4.996-1.5495 9.9262-1.0022 13.129 5.0813l-6 2c-1.9531-3.2866-4.4662-3.1313-6.6964-2.0777-1.8668.882-4.784 2.5382-3.222 5.2058 1.2767 2.1802 8.6258.7645 12.498.9228 4.0034.1636 7.2389 2.8362 7.7805 6.6867.7551 5.3683-1.2338 8.2764-7.4407 10.697-7.6662 2.9898-14.582-.3597-15.919-5.4346z"/>
        <path d="M1986 1460l-8 4-2-5 22-9 2 4-8 4 9 22-5 3z"/>
        <path d="M1999 1449l5-3 14 26-5 3z"/>
        <path d="M2033 1451l6-2c2.8215 5.9317-1.4152 16.715-11.775 16.493-15.164-.3249-16.805-17.027-14.421-22.536 4.0051-9.252 15.224-9.0747 20.196-3.957l-5 4c-3.1698-4.0667-10.212-1.5041-10.688 2.2374-.7756 6.1053 1.9122 11.788 7.371 14.483 4.6287 2.2846 11.761-3.4602 8.3165-8.7202z"/>
        <path d="M2030 1430l5-4 18 24-5 4z"/>
        <path d="M2049 1415l-4.98 4.02 10.98 30 4.98-4.98-3-6 9-8.04 6 3 5.04-3.96L2049 1415zm1.98 7.02L2061 1427l-6 6-4.02-10.98z"/>
      </g>
    </g>
  </g>
</svg>
