<svg xmlns="http://www.w3.org/2000/svg" xmlns:xlink="http://www.w3.org/1999/xlink" viewBox="0 0 900 600">
  <defs>
    <path id="spearshape" d="M-1 55.42562584h2V-38c2-2 2-5 2-8 0-2 0-10-3-18.66323015C-3-56-3-48-3-46c0 3 0 6 2 8z" stroke-miterlimit="10" transform="rotate(30)"/>
  </defs>
  <path fill="#fff" d="M0 0h900v600H0z"/>
  <path d="M0 0h900v180H0z"/>
  <path fill="#b00" d="M0 210h900v180H0z"/>
  <path fill="#060" d="M0 420h900v180H0z"/>
  <g transform="matrix(3.75 0 0 3.75 450 300)">
    <g id="spear">
      <use xlink:href="#spearshape"/>
      <use xlink:href="#spearshape" fill="#fff"/>
    </g>
    <use xlink:href="#spear" transform="scale(-1 1)"/>
    <path d="M-19 24c3 8 13 24 19 24s16-16 19-24v-48C16-32 6-48 0-48s-16 16-19 24z" fill="#b00"/>
    <path id="deco_r" d="M19 24c3-8 5-16 5-24s-2-16-5-24c-3 8-5 16-5 24s2 16 5 24z" fill="#000"/>
    <use xlink:href="#deco_r" transform="scale(-1 1)"/>
    <g fill="#fff">
      <ellipse rx="4" ry="6"/>
      <path id="deco_br" d="M1 5.85s4 8 4 21-4 21-4 21z"/>
      <use xlink:href="#deco_br" transform="scale(-1)"/>
      <use xlink:href="#deco_br" transform="scale(-1 1)"/>
      <use xlink:href="#deco_br" transform="scale(1 -1)"/>
    </g>
  </g>
</svg>
