<svg viewBox="0 0 450 300" xmlns="http://www.w3.org/2000/svg">
  <path d="M0 0h450v300H0z" fill="#009543"/>
  <path d="M0 0h450v210H0z" fill="#fff"/>
  <path d="M0 0h450v90H0z" fill="#00209f"/>
  <path d="M225.22656 95.058595l-.47656.009765c-1.03589.02232-1.950145.57203-2.623045 1.08203-.67289.51-1.121095 1.01953-1.121095 1.01953l-.103515.118165c-3.52631.620005-6.743395 2.14292-9.30664 4.631835-3.39349 3.2951-5.55595 8.149405-6.23633 14.332035-.69757 6.33895 1.03956 13.40664 2.85547 19.02539 1.81592 5.61876 3.802735 9.804685 3.802735 9.804685l.352535.743165-22.875975 30.80371-4.59961-1.589845-8.2832 17.66797.375.23633s19.67382 12.31915 48.19531 11.98242c31.27133-.37186 48.34961-12.56445 48.34961-12.56445l.345705-.246095-8.56641-17.453125-4.07617 1.773435-23.74121-31.40234.18457.072265s2.084145-4.28093 3.947265-10.01172 3.613295-12.93349 2.697265-19.38086c-.8657-6.09312-2.78249-10.873845-6.1875-14.123045-2.490345-2.376375-5.68692-3.779045-9.41211-4.33887v-.09863l-.140625-.144535s-.471055-.490235-1.166015-.9707c-.57977-.40082-1.3483-.75377-2.18164-.86914zm3.485355 7.239255c2.51585.471795 4.436655 1.4444 5.97168 2.90918 2.30174 2.1964 3.9152 5.773205 4.6875 11.208985.70707 4.97662-.750695 11.746105-2.501955 17.132815-1.074985 3.306555-2.02003 5.601115-2.683595 7.109375l-3.5957-4.75586-.041015-11.2793h5.93164l-7.80078-7.32617zm-7.793945.07422l.109375 15.161135-7.05469 7.390625h5.83789l-.041015 10.9375-3.94238 5.30859c-.509905-1.10558-1.53193-3.33743-2.854495-7.429685-1.71177-5.29649-3.19146-11.971355-2.64453-16.941405.58682-5.33237 2.34873-8.959365 4.75-11.29102 1.616405-1.569535 3.562815-2.60946 5.839845-3.13574zm40.6416 78.467775l1.268555 1.844725-3.57324 5.30176-3.68848-4.72559zm-73.76953 1.730465l1.498045 4.610355-4.37988.921875s2.536035-5.071165 2.881835-5.53223zm4.61035.10938l6.4541 1.95996 1.499025 3.22754-5.648435 1.61328zm59.015625 2.075195l1.84375 1.95996-5.41699 4.264645L244.5 186.83008zm12.564455.69531l2.18945 4.379885-4.37988 1.498045-.345705-2.07422zm-59.71094.689455l6.45508 1.38379 1.844725 2.76562-5.648435 2.19043zm35.04297 1.1582l1.728515 2.536135-6.455075 3.111325-2.76563-4.725585zm-22.942385.692385l10.48926.460935.921875 2.189455-8.183595 2.99707zm38.04004 1.029295l3.342775 4.496095-7.146485 1.84375-1.38379-2.41992zm-64.089845.12012l.92188 3.688475-5.53223-2.189455zm10.95215 1.041015l2.996095 6.339845-7.49219-1.84375-.80664-2.766605zm41.14746 1.609375l3.918945 4.61035-8.64453 1.38379-1.72949-2.7666zm-13.25195.92285l3.80371 5.64844-10.14258.3457-1.72949-2.99707zm-15.21387.001955l3.68848 5.76367-8.760745-1.267575-.921875-2.4209z"/>
</svg>
