<svg xmlns="http://www.w3.org/2000/svg" viewBox="-72 -28 144 96">
  <path fill="#cd2a3e" d="M-72-28H72v96H-72z"/>
  <path fill="#006233" d="M-72-13.6H72v67.2H-72z"/>
  <path d="M29.999999 2.9199999C29.919999 19.416 16.511999 32.76-5.2e-7 32.76-16.512001 32.76-29.92 19.416-30 2.9199999c-.656 2.512-1.008 5.1360001-1.008 7.8400001 0 17.12 13.871999 31.008 31.00799948 31.008C17.135999 41.768 31.007999 27.896 31.007999 10.76c0-2.704-.352-5.3440001-1.008-7.8400001z" class="st1" fill="#ffc400"/>
  <path d="M-.000001-9.2399582l-2.694398 8.291438-8.718241.000318 7.053009 5.12472-2.693771 8.2916412 7.053401-5.1241852 7.0534 5.1241862-2.693771-8.2916422 7.053012-5.12472-8.718243-.000318z" fill="#ffc400"/>
</svg>
