<svg version="1.0" xmlns="http://www.w3.org/2000/svg" viewBox="0 0 900 600">
  <path d="M0 0h900v600H0z"/>
  <path fill="#fff" d="M0 0h900v206.25H0z"/>
  <path fill="#007168" d="M0 0h900v187.5H0z"/>
  <path fill="#fff" d="M0 393.5h900V600H0z"/>
  <path fill="#fce100" d="M0 412.5h900V600H0z"/>
  <path d="M0 0v600l393.75-300z" fill="#d21034"/>
  <path d="M204.36959053 412.48474894l-73.15403204-53.5597146-73.05496605 53.574989 28.33247803-86.1244873L12.9650066 273.451712l90.664469.3318635 27.61212805-86.28370584 27.70123823 86.3295862 90.59329294-.40244885-73.54414991 53.02276937z" fill="#fce100"/>
  <path d="M67.72401347 352.42739645h52.6988327c4.24021416 4.75669894 13.70070385 6.6966662 22.71147385-.05668736 16.51743553-9.04478242 48.4727274.05668736 48.4727274.05668736l6.29229641-6.68532874-15.33833854-50.33963095-5.50623175-5.89926408s-11.79726844-7.07836106-34.21522776-4.71890738c-22.4166996 2.3594537-30.28238504-.78606465-30.28238504-.78606465s-19.66333179 2.35945369-25.1693116 5.1119397c-.60529497.4900307-6.29242237 6.2922964-6.29242237 6.2922964z" fill="#fff" fill-rule="evenodd" stroke="#000" stroke-width="1.5746499999999999" stroke-linecap="round" stroke-linejoin="round"/>
  <path d="M78.34256284 339.4497713s50.3390011-6.2922964 64.89127499 12.97762515c-8.21840676 5.62338561-15.4542327 6.0869622-23.20402398.39429204 1.23452462-2.05712112 18.09082456-19.66421359 60.9578024-13.7649495" fill="none" stroke="#000" stroke-width="1.5746499999999999" stroke-linecap="round" stroke-linejoin="round"/>
  <path d="M132.22137433 289.11014035l-.39303233 55.45283038m45.22643154-54.66676572l9.43907446 44.04733455m-98.58699463-44.73892028l-5.23828951 22.715253" stroke="#000" stroke-width="1.5746499999999999" stroke-linecap="round" stroke-linejoin="round"/>
  <path d="M33.49681838 358.46522961l12.39336747 14.53085867c1.45535336.86794639 2.748077.81251875 4.04080063 0l18.36733288-22.04004362 7.71426722-9.55118946c1.19446555-1.41466444 1.5757825-2.99309235 1.46933624-4.40775678l14.74803422-13.10485676c1.20643288.08314145 1.9249766.2191911 3.13140949.30107284-1.42537205-.36909767-2.47119076-1.06320284-1.3489071-2.6252544l3.30588056-2.57108648 2.57108648 3.30550266s-3.67283671 4.77559473-4.04017077 4.77559473h-4.04080064l-7.71426721 6.98010298 3.37226776 2.98049515 5.07666757 13.91737551 6.24530889-4.4090165-4.04130453-14.32552446 8.81689926-9.55118946-3.30676238-5.14343268 2.20450825-2.93892443s30.51291362 19.21071475 42.26861133 14.0685418c.31744919.11463443.71048151-13.70070385.71048151-13.70070385s-31.59123308-3.30550265-32.32690897-9.55118946c-.73441618-6.24442708 6.98010297-6.97884326 6.98010297-6.97884326l-3.30676237-4.77559472.7356759-2.5723462 5.5100109 6.98010298 12.49011389-10.65344359 73.4680718 83.75493716c4.0109453-1.62629723 4.86755421-2.60761833 5.14343267-6.61226503-.10329696-.10077752-71.99923944-82.65268303-71.99923944-82.65268303l5.5100109-5.87658914c1.08587778-1.22444687 1.46757264-1.74471081 1.46883236-3.67460032l8.44893533-7.34642926c2.54085322.8728593 4.16085186 2.39573359 5.5100109 4.40750483L186.301111 249.7188532c.61222343.61222344 2.47156868 1.22444687 3.73380711.53588446l38.40253372-36.86101557-41.85416378 29.56232966-1.46883235-1.10200218c0-1.22457284 1.5179614-1.52740929 0-3.67346658-1.62629723-1.9514307-4.04117855 1.83679628-4.40775678 1.83679628-.36783795 0-6.05798867-2.01101541-7.30511048-4.55867112l-.40940868 6.76267548-10.65344358 9.91839755-8.08109739-.36733406-11.7556977 11.38760781-1.46883236 4.40763081 1.8366703 3.67460032s-6.2456868 5.51001091-6.2456868 5.14217296c0-.36657823-1.26223844-1.62377779-1.31640635-1.78628154l5.3575849-4.82598349.73441618-3.30588057-1.78754126-2.79128536c-.54167917.39366219-7.39581025 7.567258-7.7636482 6.8315821-.61222343-.68528713-19.83553537-22.40762962-19.83553537-22.40762962l1.1009944-4.04080064-12.48885416-13.59186412c-4.55325433-1.57200334-11.75544576-1.8366703-13.224782 8.08160127-1.14420277 2.32959835-10.65306567.36733406-10.65306567.36733406l-5.14280282 1.10212816-29.02039855 41.14267448 16.16320255 19.46895715 33.06119918-41.87709066.98144707-11.86352966 6.9370206 7.7564678c2.31284408.29716771 4.5160926.3232439 6.61226502-.73466812l19.58737073 21.86330505-3.26141249 3.1820502c1.10225413 1.22444686 1.86060497 2.00673236 2.9628591 3.23117923 1.10225412-.73441618 2.15411948-1.61621948 3.2563736-2.35189538.36783795.49129041.98006139 1.42222275 1.34789934 1.91225344-1.64141386.89314078-2.79279703 2.08231551-4.43421088 2.97545628-2.62651412-1.71195812-5.16232847-3.84340267-4.96959146-7.23582593l-11.02002181 9.1833515-.36783795 1.8366703-32.69336123 27.18347631-2.93879846.36783795-.73466812 8.44893533 21.30600536-17.63228684v-2.5723462l2.20413034 1.8366703 16.53003272-13.22327034s1.10225412 1.46883235.7356759 1.46883235c-.36783796 0-14.69462214 13.22453006-14.69462214 13.22453006l-.36657823 1.46883236-2.57184231 2.20450825-1.46946222-1.10225413-19.83666912 17.63228685h-2.93867248l-11.02039973 11.02128153c-2.84242995.24690492-5.30543254.54797776-7.71426721 2.20324853z" fill-rule="evenodd" stroke="#000" stroke-width="1.5746499999999999" stroke-linecap="round" stroke-linejoin="round"/>
</svg>
