<svg xmlns="http://www.w3.org/2000/svg" id="svg613" version="1.1" viewBox="0 0 1200 600">
  <clipPath id="a">
    <path id="path2" d="M0 0v150h700v150H600zm600 0H300v350H0v-50z"/>
  </clipPath>
  <path id="path5" fill="#012169" d="M0 0h1200v600H0z"/>
  <path id="path7" stroke-width="60" stroke="#fff" d="M0 0l600 300m0-300L0 300"/>
  <path id="path9" stroke-width="40" stroke="#c8102e" d="M0 0l600 300m0-300L0 300" clip-path="url(#a)"/>
  <path id="path11" stroke-width="100" stroke="#fff" d="M300 0v350M0 150h700"/>
  <path id="path13" stroke-width="60" stroke="#c8102e" d="M300 0v350M0 150h700"/>
  <path id="path15" fill="#012169" d="M0 300h600V0h600v600H0z"/>
  <path d="M999.4751 257.00947c-.19257 67.84913-10.97957 140.94523-99.47317 175.763-88.49779-34.81777-99.28479-107.91387-99.47733-175.763z" id="path17" fill="#128bbf"/>
  <path d="M900.00193 432.77247c40.11743-15.78244 64.96611-41.5379 79.39481-69.00239-2.27449-.76742-6.80533-.83731-8.63964-.17867-2.17666-.14123-85.55223-6.28304-95.343-9.84747-8.51827-3.09917-41.0174 2.63386-56.18703 8.01376 14.15247 29.2135 38.66496 54.44713 80.77486 71.01477z" id="path19" fill="#e8ece9"/>
  <path d="M838.1556 390.7095c1.35207-.43623 3.93474-.33236 4.9519-.14956 1.19717.21603 1.41484.32403 1.85017-.97214.43533-1.29616 1.41483-.9721 2.17667-.32403.7618.64807 2.71663.32403 3.47843-.7561.76183-1.07597.9795-.96797 1.74133-.21603.76183.7561 1.08833.54006 1.85017.32406.76183-.2119 2.06783-1.076 2.7208-2.26413.653-1.18817 1.62833-1.6202 2.1725-.97213.54413.64806 1.0883.97213 1.85013.8641.76183-.108.9795.6481.87067 1.61606-.10884.9721.3265 1.18814 2.17666-.3199 1.6325 1.61607 2.17247.96797 2.17247-.7561 0-1.7282-.43113-8.09686-1.08413-8.96096-.653-.8641-1.306-3.34844-1.41484-5.29267-.2051-3.6683-.21766-3.88433-4.6798-6.1526 0-1.29617-.3265-1.83623-3.47846-1.62023.10883-.43204-.43534-1.7282-1.08834-2.26827-.653-.54007-.76183-.7561-.43533-2.26413 1.306.108 2.7208-.108 3.48263-1.18817.75767-1.08013 3.2608-.8641 4.78447-.216 1.52367.64807 3.48267.7561 6.41697.32403 1.0883-.8641 2.93846-1.83623 4.89746-2.91636 1.9548-1.08014 2.49897-1.5122 2.6078-3.02437.28044-3.87603-1.08833-8.3129-2.17666-10.361-1.08414-2.05227-1.41064-4.6446-2.9343-7.885-1.6576-3.52707-1.6325-4.4244-3.48264-6.58467-.5065-.5941-1.08833-1.08013-1.19716-2.26413-.10884-1.18817-.54417-2.80837-1.84597-3.9965-3.2901-2.9953-4.571-12.63343-5.87697-19.7582-.7493-4.08373-.21766-13.7094-1.95483-15.2216-2.93847-2.3763-4.3533-1.94423-6.3123-2.70033-1.4148-1.94423-2.06363-5.82857-3.3696-9.285-2.06783.32403-3.48266 2.4843-4.8975 3.2404-1.4148.7561-1.63246.7561-1.63246 2.70033 0 1.9401-1.08834 4.64044-3.04314 7.6648-1.959 3.02024-5.224 2.1603-7.94063 6.6927-5.9858-7.23276-6.09463-9.285-6.52997-11.33726-.43533-2.0481-1.4148-2.48017-4.78443-5.39654 0-.8641-.43533-4.3164-.10883-6.26063-2.50317-2.05227-4.35334-1.7282-5.5463-.21603-1.19717 1.5122-2.06784 3.77633-3.91797 4.64043-1.10927 1.40003-4.45377 4.93123-7.19133 9.13547 2.4906 37.57209 11.03396 74.87003 36.72266 104.69839z" id="path21" fill="#69522b"/>
  <path d="M999.4751 257.00947c.0753-25.5577-1.35624-50.37173-.70324-72.11569-33.06843-14.6857-76.58059-17.7059-98.76993-17.7059-22.1935 0-65.70569 3.0202-98.77413 17.7059.653 21.74396-.77436 46.55799-.7032 72.11569z" id="path23" fill="#bca76b"/>
  <path d="M805.90344 286.59271c1.08833 1.72823 3.04733 4.6986 3.265 6.31463.76183-1.56617 1.3604-2.2641 1.52363-3.23623.16327-.97214 1.306-2.86237.87067-3.8885-.43534-1.02614-.76184-1.83624.43533-1.08014 1.19297.7561.96277 2.06474.70323 3.9965-.70323 5.28854-2.9343 6.36867-3.2608 9.9331 3.21057 7.5028.81627 10.20313 4.2947 17.5439.54417.32403 1.99667-.25343 2.432-.1454 1.84597-1.29617 3.22734-.82673 5.83514-.28667 2.61196.54007 4.0268 2.37217 4.0268 3.99237s0 2.05227.54416 3.02437c.54417.97213 1.6325 2.48433 1.41484 3.56446-.21767 1.07597.21766 1.72404.54416 2.26414.3265.54006-.10883 1.7282-.43533 2.4843-.3265.7561-.21767 1.7282 1.0883 3.34843 1.306 1.61603 4.34913 8.4209 4.34913 12.41323 0 3.9965.21767 5.83274 1.85017 6.58467 1.6325.7561 2.17667 1.4042 1.959 3.1324-.21767 1.72823.76183 10.6892.97947 12.09337.21766 1.40416.76183 1.08013 1.41483 1.83623.64883.75193 1.08417 1.61607 3.2608 1.61607 2.17667 0 4.27797-.28667 5.6928-.0706 1.959 2.70034 3.15613 6.36864 3.59146 8.63694.43534 2.26826.39767 5.36326 1.1595 5.36326.76184 0 1.52367.10804 1.306-2.70033-.21766-2.80833-.43533-3.2404-1.41483-4.64043-.9795-1.40417-1.52367-2.05224-.9795-2.91637.54417-.8641.653-2.26827.43533-3.3484-.21766-1.08013-.54416-2.6962 1.306-.54007 1.85017 2.16027 2.39434 2.70034 2.93847 3.45644.54417.7561.75767 2.16026.653 3.45643-.10883 1.292.10467 1.83207.8665 1.184.76183-.64393 1.7413.43203 1.30597 1.83623-.43534 1.40417.10883 2.26827 1.41483 2.70034 1.306.43203 1.85017.7561 2.17667 1.7282.3265.97213 1.41483 1.40003 1.41483-.54007 0-1.94423-.76183-6.04877-1.306-7.34077-.54417-1.29616-.9795-4.1045-1.08833-5.7247-.10884-1.62023-.43534-2.04813-1.19717-2.37216-.76183-.32404-1.41483-.8641-1.52367-1.6202-.10883-.7561-.7618-1.02614-1.25156-1.02614-.48974 0-.9209-.37803-1.19297-.9181-.2721-.54006-.54417-.59406-1.08833-.6481-.54417-.054-1.41484.27004-1.6869-.59406-.2721-.8641-.653-2.10627-1.19717-2.80834-.54417-.7021-1.0339-.91813-1.08833-3.34426-.0544-2.43034-.10884-2.75437-.87067-3.61847-.76183-.8641-2.0678-3.12823-2.61196-4.10037-.54-.97213-1.08417-1.94423-1.08417.108 0 2.04814 0 3.12827 1.30183 3.88434 1.30597.7561 1.63247.7561 1.08834 1.83623-.54417 1.08013 0 1.83623.21763 2.59233.21767.7561.653 1.5122 0 2.26414-.65297.7561-1.30597.54006-1.19713-.64394.10883-1.18813-.3265-2.59233-.8665-3.56443-.54417-.97213-.97947-1.6202-1.63247-1.08013-.653.54006-1.19717-.10804-.76183-.54007.43533-.43207.3265-.7561 0-1.08013-.3265-.32407-.43534-.6481.10883-1.29617.54417-.6481.54417-.97213.21767-2.48017-.3265-1.5122-2.72084-9.069-3.80917-10.7972-1.08833-1.72823-.9795-3.02436.43533-1.29616 1.41484 1.72823 2.612 3.2404 2.72084 4.64043.10883 1.40417.43533 2.26827.87066 2.80837.43534.54006.76184.32403.9795-.86414.21764-1.18813 1.0883-.7561-.43533-3.02023-1.52367-2.26827-4.35333-6.04873-5.44167-12.84943-1.0883-6.8007-1.52363-11.33727-2.61196-13.16937-1.08414-1.83623-1.41064-2.26827-1.51947-3.9965-.10883-1.7282 0-3.45643-.76183-4.74843-.76184-1.29617-1.306-1.5122-1.41484.43203-.10883 1.9401.10884 6.26063.653 7.01673.54417.7561.21767 2.6962.10884 3.77634-.10884 1.08013-1.82087 2.1478 1.74133 4.32053 1.4148.8641 1.19297 2.05227.97947 2.80837-.21767.75193-.43534.64393-1.19714-.54007-.76183-1.18817-1.52366-2.16027-2.2855-2.80837-.76183-.64806-.87066-1.08013-.76183-2.59233.10883-1.51217.43533-2.5923 0-3.12823-.43533-.54007-.653-.108-.87067.75193-.21766.86413-.43533 3.24043-.87066 3.8885-.43534.6481-.653.21603-.9795-1.18813-.32647-1.4042.10883-3.5603.87066-6.04464.76184-2.4843 1.19717-5.07663.54417-8.31286-.653-3.2404-.3265-4.21253-2.82963-6.90873-2.49897-2.70034-5.32864-5.29267-6.5258-8.63694-1.19717-3.3484-1.4148-6.26476-2.7208-7.77696-1.30184-1.50804-3.15197-3.45227-4.34914-3.99234v-4.9645c0-1.18813-.54416-1.94423-1.959-1.7282-1.41483.21604-2.28546 1.40417-3.15196 3.02024-.87067 1.6202-1.52364.8641-2.7208 3.67246-1.19717 2.80834-2.9385 4.20837-2.9385 7.23274z" id="path27" fill="#cfa763" stroke-width="4.17009211"/>
  <path d="M813.7352 318.22407c.87067.54007 1.70367.9015 3.00967.25343 1.306-.6481 2.8673-2.51756 4.60863-.68133 1.73714 1.83207 2.71664 4.85647 2.71664 7.23277 0 2.37213 0 6.8007 2.72083 9.285 2.7208 2.48016 4.13147 5.0725 4.2403 8.3129.10883 3.23623 1.30597 8.20486 1.63247 9.50103.3265 1.292 1.08833 2.8042 1.959 3.6683.87066.86413 1.52366 3.34843 1.6325 5.9366.10883 2.59233-.3265 4.42857 0 5.72473.3265 1.29617 0 2.3763-.9795 1.7282-.9795-.64806-1.19717-.97213-1.74134-2.05226-.54416-1.08014-1.19716-.8641-.653.7561.54417 1.6202 2.17667 3.12823 3.5915 3.12823 1.41484 0 1.85014.21603 2.7208 1.08017.8665.8641.97534 1.29613 2.49897 1.29613 1.52367 0 1.74133 0 3.15617.43207 1.41483.43206 1.41483.21603 2.17666 0 .7618-.21604 1.51947.43206 2.06364 1.83623.54416 1.40417 1.85013 5.2885 1.85013 6.36863 0 1.08014 0 2.1603.76183 3.24044.76183 1.08013.54417 2.16026-.3265 1.51216-.87066-.64806-.87066-.43203-1.52363-.32403-.653.108-1.08833-.21603-1.95483-.7561-.87064-.54007-.3265-.43203-1.19714-1.7282-.87066-1.29617-1.41483-1.72823-1.41483-.7561 0 .97213-.10883 2.16027-.76183 1.6202s-.9795-.54007-1.52367 0-.76183.97213-1.41483-.108c-.653-1.08017-1.4148-1.08017-2.0678-1.29617-.653-.21603-.653-.21603-.97534-1.18816-.3265-.9721-1.30596-1.18814-2.17663-1.18814-.87067 0-1.306-.43206-1.41483-1.08013-.10884-.64393-.653-1.076-1.08834-1.40003-.43533-.32404-.21766-1.08014-.3265-1.83624-.10883-.7561-.76183-.43206-1.19716-.64806-.43534-.21604-.7618-.10804-.7618-1.18817s-.43534-1.40417-.76184-2.16027c-.32233-.7561 0-1.5122.21767-2.37213.21767-.86413.10883-1.4042-.54-2.1603-.653-.75607-.10883-1.51217-1.85013-3.02437-1.74134-1.5122-2.612-.21603-3.15617-3.77633-.54417-3.56443-1.6325-10.9052-2.612-12.09337-.97947-1.18813-1.6283-2.05223-2.6078-2.37626-.97947-.32407-1.63247-.10804-1.7413-2.1603-.10883-2.0481-.76183-4.64044-2.06783-5.93657-1.306-1.29617-1.85017-1.72823-2.50317-2.2683-.653-.54007-.87063-1.5122 0-3.34427.87067-1.83623.54417-4.32053.43533-5.5087-.10883-1.184-.43533-2.69616-.21766-3.99233.21766-1.29617.10883-2.91637-.21767-3.78047-.3265-.86413-.76183-1.08013-.21767-1.72823z" id="path29" fill="#cfa763" stroke-width="4.17009211"/>
  <path id="path95" d="M846.80784 377.28257c-.653 1.29617-1.41484.8641-2.06784.21603-.653-.6481-1.41483-.6481-1.08833-1.83623.3265-1.18817.21767-1.40417-.653-2.05227-.10047-.0748-.2009-.14123-.30137-.2077-.2721-.008-.59023-.008-1.00463-.008-1.52363 0-1.63247-.43203-2.49897-1.29613-.19673-.19114-.36833-.34897-.53576-.48194-.0168.20774-.008.48194-.008.80597 0 1.18813 0 .9721-1.19714 1.29617-1.19716.32403-.9795-1.18817-1.19716-2.1603-.0586-.24924-.12557-.43204-.18837-.5816-1.3102-.24927-2.69153-1.6202-3.18547-3.0867-.54416-1.6202.10884-1.83624.653-.7561.54417 1.08013.76184 1.4042 1.74134 2.05226.9795.6481 1.306-.43203.9795-1.7282-.10467-.41543-.12977-.89736-.1172-1.43326-.23444-.4196-.55254-.76027-.97114-.94304-1.74133-.7561-1.19716-.97213-1.08833-2.3763.10883-1.40003-.21767-1.40003-1.306-.6481-1.08833.7561-1.19713-.108-1.19713-2.26413 0-2.16027-1.41484-2.16027-1.73717-.64807-.3265 1.5122-.87067.54007-1.52363-1.6202-.653-2.16026-1.52367-2.70033-1.6325-.6481-.0921 1.73654-.57767 2.15197-1.7162 1.18817.2009 1.2546.3767 2.42613.51903 3.3484.54417 3.5603 1.41483 2.26413 3.15617 3.77633 1.7413 1.5122 1.19713 2.2683 1.85013 3.02437.64883.7561.75767 1.29617.54 2.1603-.21767.85993-.54 1.61603-.21767 2.37213.3265.7561.76184 1.08014.76184 2.16027s.32646.97213.7618 1.18817c.2721.13293.6237.0581.87903.16616.28047-.3656.5358-.81426.8623-1.1383 1.306-1.29616 3.265.108 3.918 1.7282.65297 1.62024 1.41063 2.05227 2.39013.7561.97947-1.29616.65297-1.08013 1.7413.10804 1.08834 1.18813 1.52367.9721 1.52367.9721s1.08833-.43204 1.85017.21603c.76183.6481 1.19716.54007 2.6078-1.5122 1.41483-2.05223-.64884-1.40417-1.3018-.108z" fill="#d7c99c" stroke-width="4.17009211"/>
  <g transform="translate(-.00008 -.000256)" id="g187" fill="#7fb8c1" stroke-width="4.17009211">
    <path id="path97" d="M847.78738 392.39643c2.6078-.21604 9.68193-2.2683 10.4396-2.91637 1.7413 1.18814 4.78863 2.80833 6.09463 2.80833-2.50316.54007-4.13566.21604-4.78866-.216.3265.75607 1.19716 1.94424 1.74133 2.05224-2.3943-.108-5.11093-.64807-5.9816-1.51217-2.06783.8641-5.55046 1.08013-7.5053-.21603z"/>
    <path id="path99" d="M852.46301 395.63683c.9251.27003 5.5463 1.02613 6.14487 1.02613-1.52367 1.292-.21767 2.53417 2.3399 2.31813-1.25157.16204-2.61617.63147-1.6869.8101 2.23107.43207 8.2671-1.18813 9.46427-1.83623-2.06784 2.64633-12.12647 5.07663-16.26214-2.31813z"/>
    <path id="path101" d="M856.59868 402.22149c1.24737-.64806 4.3491-.43203 5.81837.27004-1.6325.5941-4.8389.5941-5.81837-.27004z"/>
    <path id="path103" d="M861.27428 402.11349c2.23107-.37806 8.5392 1.13414 10.77027-.21603-.76184 1.99827-4.73424 2.2683-6.09464 1.83623-1.35623-.43206-2.66223-.97213-3.5873-.9181.48974-.27006-.3265-.32406-1.08833-.7021z"/>
    <path id="path105" d="M863.55978 405.19186c1.6869.2659 7.72293-.48603 9.5731-1.18813 1.9548.64806 5.81837 1.67006 6.68903 1.56203-1.85016 1.13417-5.38723.48607-6.5258 0-3.26496 1.08013-5.93136 1.4042-9.73633-.3739z"/>
    <path id="path107" d="M866.44385 406.20139c2.41523.54007 4.4747.1537 6.85226-.63563.7409.31573 2.48644.7021 4.1273.62317 1.0925.619 2.56174 1.4831 3.97657 1.59113-1.46923.59407-6.85647 0-7.9406-.5941-2.72083.054-7.40063.6481-8.5392 1.5662-.0544-.7561.43953-1.80713 1.52367-2.55077z"/>
    <path id="path109" d="M863.55978 394.01663c1.88363.62316 8.70243.32403 12.1809-1.29617 1.37297-.63977 2.2227.43207.653.97213-5.65513 1.94424-10.11727 2.70034-13.37807.9721-1.28926-.6813-1.41483-1.29616.54417-.64806z"/>
    <path id="path111" d="M896.95468 384.83963c-8.37593 3.88433-13.9264 5.07247-25.56313 1.5122-1.08414-.33237-1.85017 0-.653.7561 1.19716.75193 7.6141 2.48013 9.13776 2.58817 1.52367.108.9795.8101.0544 1.08013s-1.19717.9181.0544.43203c1.25156-.48603 8.242-.66883 11.09676.8101 1.2474.6481 1.5739.54007 1.46507.054-.10883-.48606.54417-.81009 1.46923-.91813.92507-.108 1.46924-.43203.76184-.7021-.70744-.27003-.81627-.43203-.2721-.70206.54416-.27004.5986-.54007-.21767-.7021-.81623-.162-1.3604-.37804-.59857-.7561.76184-.37387 1.90457-.64807 2.77524-.75194.21766-.59406-.16324-2.16026.48973-2.70033z"/>
    <path id="path113" d="M883.02828 385.81176c4.78863.3365 13.5999-1.83623 18.27973-6.36866 1.6283.96796 3.9138 2.0481 5.11094 2.26413 1.19716.21603 2.2855 1.29617.43533 1.29617-1.85013 0-4.46213-.7561-5.6551-1.29617-6.20347 3.78047-13.4618 5.02263-18.06207 4.6446-1.3018-.10803-1.6283-.6481-.10883-.54007z"/>
    <path id="path115" d="M875.46858 372.3142c-.6446.11216-3.42403.7561-4.18587.7021-.76183-.054-1.52366.16203-1.46923.7021.0544.54006.27207.8641-.87067.75606-1.14273-.108-2.12223.32407-2.39433.6481-.27207.32404-.48973.64807.653.7561 1.14277.108 1.74133.21604 3.04733-.37806 1.306-.59407 2.55757-1.51217 3.9724-1.5662 1.41064-.054 2.82547-1.89024 1.24737-1.6202z"/>
    <path id="path117" d="M871.55481 375.66263c1.18877.7644 7.06994 2.75433 9.19217 2.59233 2.12223-.16203 1.72457.84334.10883 1.18814-3.3194.69793-7.37133-.7353-10.11726-2.91637-1.3604-1.08013-.10884-1.45817.81626-.8641z"/>
    <path id="path119" d="M899.40345 378.525c-4.49984 1.42493-9.08337.9181-10.93354.43203-1.85013-.48603-3.53706-.59407-2.28546.5941 1.25156 1.18397 5.27836 1.9941 7.55966 1.4-8.10383 1.83623-10.22606 1.67423-12.2353 1.35017-2.0134-.32404-5.79326-.2534-7.39643-.108-1.19717.108-2.82967-.054-3.53707-.48607-.70743-.43203-.9251-1.24217 1.19717-1.02613 2.11803.21603 2.3943-.21604.54413-.48607-1.85013-.27003-4.4077.48607-1.90456 2.05227 2.50316 1.5662 7.99503-.108 11.47766.8641 3.47847.97213 10.87494 1.67423 17.89464-3.94247.36-.28667.9795-1.076-.3809-.64393z"/>
    <path id="path121" d="M888.90525 374.04243c-.92507.054-2.55757-.54007-3.42824-.91813-.87066-.37804-2.11803-.43204-1.19296.8101.9209 1.24216 4.9477 1.94426 6.36253 1.3502 1.41483-.5941.81623-1.24217 2.2269-.37807 1.4148.8641 2.88407 1.4582 3.91797 1.4582s1.41483 0 .27206-.6481c-1.14273-.64807-1.6869-.8101-1.79573-1.35017-.10883-.54006-.27207-.8641.76183-.54006 1.0339.32403 2.23107.9181 3.04734.48606.81623-.43206 2.3357-1.40416 3.6961-1.40416l.3265-.8101c-1.95897-.16204-3.20637.43203-3.75054.64806-.54416.21604-1.52366.32404-2.55756.16204-1.0339-.16204-2.39434-.27004-2.72084-.54007-.3265-.27003-.3265-.48607.54417-.6481s1.14277-.7561-.0544-.54007c-1.19717.21604-4.40353.108-6.09047-.43206-1.6869-.5359-2.3943-.5899-3.10173-.32404-.7074.27004-.59857 1.02614.43533 1.08014 1.03394.054 3.37384.27003 4.19007 1.02613.81623.7561.7074.8101-.21767.43207-.92506-.37807-2.61196-.16204-.87066 1.08013z"/>
    <path id="path123" d="M928.28178 371.12606c-3.2608 2.3763-7.17877 2.91637-11.8544 3.2404-1.3604.0956-.9418.47777.21767.59407 4.8933.48607 10.5526-1.29617 12.39856-3.2404.5358-.56083.4772-1.4914-.76183-.59407z"/>
    <path id="path125" d="M906.03805 376.63476c1.41483.054 6.3081 1.29617 7.8862 1.83624 1.19713-.10804 1.52363-.37807 1.30596-.81014-.21766-.43203-.3809-.9181 1.79577-.8101 2.17247.10804 7.17877.054 8.10383.054.76184-.32407 2.44457-1.6202 3.2064-1.67424-1.9548.10804-10.11306.54007-11.147.43207-1.0339-.108-1.57806 0-2.23106.37803-.653.37807-1.0339.54007-1.85017.21604-.81623-.32404-2.28547-.7561-3.09753-.27004-.81627.48607-2.50317.054-3.9724.6481z"/>
    <path id="path127" d="M925.12981 376.9048c.76184-.32407 2.44457-1.6202 3.2064-1.67424 1.41484-.108 3.0473.48607 3.80914.5941.76183.108 1.57806-.054 1.03393-.6481-.54417-.59406-.0544-1.6202 2.17663-1.35016 2.2269.27003 3.36963.64806 5.5463.43206 2.17663-.21603 3.15613 1.40417 7.2876-.21603-.3265 1.6202.43533 1.7282 1.19717 1.40417.76183-.32404 1.6325-.21604 2.93846.7561 1.306.97213 9.2466 1.08013 11.09677.7561 1.84597-.32404 2.82547.64806 1.41063 1.08013-1.41063.43207-1.7413 1.08013-1.41063 1.5122.32233.4279.6488.96797-1.08833.75193-1.7413-.21603-2.0678.32404-2.93847.97214-.87067.64806-1.08833.8641-3.48267.43203-2.39013-.43203-2.82546-.108-4.13143.10803-1.306.216-1.6325.216-2.9385-.21603-1.306-.43207-4.13147-.86413-5.8728-.32403-1.7413.54006-3.0473 1.08013-4.57097.64806-1.52366-.43206-1.6325-.21603-.653-1.18816.9795-.9721 1.19717-.8641 3.04734-1.08014 1.85016-.21186 3.26496-.75193 1.959-1.50803-1.306-.7561-1.74134-.64807-3.48267.21603-1.74133.8641-2.612 1.40004-4.5668.32404-1.95896-1.08014-2.93846-.8641-4.24446-.54007-1.306.32407-3.47847-.43203-5.32864-1.24213z"/>
    <path id="path129" d="M931.65561 380.14103c-2.4906.35313-3.16033-1.238-5.76396-.91397-.87067.10804-2.3399 1.184-.3265 1.022 2.00923-.16203 4.1859.9181 6.14486.75607 1.959-.162 1.08834-1.0261-.0544-.8641z"/>
    <path id="path131" d="M928.77155 382.03126c1.31016-.4736 4.0268.43207 5.16953.21604 1.14276-.21604 2.2311.48606 1.03393.8641-1.19716.37806-4.08123-.70207-5.38723-.32404-1.306.37807-2.6078-.108-.81623-.7561z"/>
    <path id="path133" d="M902.77305 388.994c1.79576.0582 8.26713-.21604 10.8247-5.61257.19673-.41543.3809-.59407 1.19716-.054.81624.54007 3.80914 2.3223 9.40984 2.80837 1.5697.1371 3.265.9181.10883.70206-3.15617-.216-8.15827-1.08013-9.84517-2.10623-2.82966 4.4244-7.91133 4.94783-11.69536 4.85643-2.2813-.054-1.73714-.64806 0-.59406z"/>
    <path id="path135" d="M916.75388 381.65323c-.87067 1.18813-3.86357 3.2404-5.22397 3.34843-1.35623.108-5.43746-.27003-6.47136-.6481-1.0339-.37803-2.2855-.27003-.81624.7561 1.46924 1.02614 5.11514 1.7282 6.5802 1.40417 1.46924-.32403 3.15614-.8101 4.29887-.108 1.14277.7021 3.265 2.0481 4.5124 1.77807 1.25157-.26587 3.80913-.26587 4.62537.108.81626.37806 2.2311 1.5122.10883.86413-2.12223-.6481-3.86353-.10803-4.84303-.54007 1.08833 1.51217 3.558 3.94247 5.6593 3.94247.48973 0 .81623.86413-.21767 1.3502 1.0339.48603 3.42403.8641 4.67563-.27004-.3265.43204-.16326.70207.3809.9721.54417.27004 1.19717.6481.21767.7561-.9795.108-3.20637.37804-3.85937.108 2.11804 1.34604 7.6141 3.5063 13.2148 2.42617 1.0674-.20357 1.6325-.64393-.10883-.59407-3.59147.108-3.80497.054-4.45797-.3199-.653-.3822-.54417-.7021.48977-1.02613 1.0297-.32403 3.6417-.70207 4.73003-.70207s2.17667-.43206-.0544-.43206-4.9477 0-6.03604-.37804c-1.08829-.37806-1.90456-.86413-.76179-1.62023 1.14273-.75607 2.33989-.54007 2.88406-1.24213-3.5915-.054-7.99923-1.94427-5.5505-3.6683.5693-.403.38094-.43207-.54413-.54007-.9251-.10803-3.64173-.86413-4.78447-1.5122-1.14276-.6481-.38093-1.18816.54417-1.35016-2.12223.37803-6.36673-.7561-9.1922-2.86237z"/>
    <path id="path137" d="M948.67958 381.54523c-1.959 1.45817-5.65514 2.05223-7.2332 2.05223-1.5781 0-1.79577.54007-.54417.7021 1.25157.16204 2.61197.32404 3.15613.16204.54417-.16204.87067-.21604 1.68274.162.81623.37806 2.55756.59406 4.08123.10803 1.52367-.48607 4.02263-.7021 5.05653-.6481 1.0339.054 2.17667.10803.10884-.48607-2.06364-.59406-5.43747-.162-6.2537.054-.81624.21604-3.04734.054-1.85017-.32403s2.23107-.9721 2.82967-1.45817c-.43534-.10803-.70744-.21603-1.0339-.32403z"/>
    <path id="path139" d="M947.64564 385.75773c-1.6869 1.24217-4.13146 2.42617-6.6346 2.53417 2.28547.8101 4.19007 3.1324 5.6551 3.0244-.7074.43203-1.57386 1.08013-2.49896 1.18813 1.41483.37806 3.80496-.054 5.76396-1.13413 3.26497.91809 7.50527.32403 8.9201-.8641-2.12223 0-4.67563-.7561-5.81836-1.72824 1.0339 0 2.0092-.64806 2.49896-1.238-2.44456.4279-6.63463-.7561-7.8862-1.78223z"/>
    <path id="path141" d="M944.16718 392.50443c.9251-.108 1.79156-.7561 2.49896-1.18813-1.79153.59406-9.6275-.6481-11.96323-2.70034-2.3399-2.04813-2.3399-.48606-.7074.9721 1.6325 1.4582 4.51237 3.67247 10.17167 2.91637z"/>
    <path id="path143" d="M949.93114 397.46889c-.9795.54007-5.65513.86414-7.17876.54007-1.52367-.32403-2.17667-.162-1.79577.43207.38093.59406.54417 1.13413-.7074.97213-1.25157-.16203-3.48267.108-4.40353.43203-.9251.32407-2.06783 1.13417-.10884.8101 1.9548-.32403 3.75054-.70206 5.21977-.32403 1.46927.37807 6.68903.48607 7.72297.054 1.0339-.43203.32646-.43203-.16327-.43203s-.7074-.32407 0-.6481c.7074-.32404 1.25157-1.24214 1.41483-1.83624z"/>
    <path id="path145" d="M904.67765 391.20826c-1.959.86413-8.48477 2.59233-10.2261 2.70037-2.17667.9721-3.9138 1.51216-5.00214 1.51216.76184.6481 3.69614 1.292 4.8933.97214-.653.64393-2.17246 1.40003-2.71663 1.72406 1.73713-.21603 3.80497.21604 4.67563.32404-2.2855 1.29616-5.43746 1.72823-7.06996 1.5122.54416.7561 1.306 1.51216 2.2855 1.51216-2.06784.54007-4.57097.54007-5.87697.10804.54417 1.08013 1.08833 1.7282 1.85013 1.83623-1.7413.21603-3.91796.54007-5.76393-.54007 1.41063 1.83624 4.5668 2.48014 9.2466 1.94424 4.67563-.54007 8.5936-2.59234 9.68193-3.45644-1.959.21604-4.57096.32404-5.87696.108 2.61196-.64806 8.2671-3.02436 9.2466-3.9965-1.08834 0-2.17247-.32403-2.9385-.8641 1.52366.21604 6.85646-.4279 8.48896-1.07596-1.959-.43207-3.15616-1.6202-3.70033-2.3763 6.8523 2.16026 14.47897 1.45403 18.16673.54006.87064-.21603.9753-1.3128-.76183-1.18816-3.04733.21603-8.9201-.64807-10.44377-1.40417 1.41484 1.08013 3.15614 1.7282 4.3533 1.94423-2.82963.7561-6.74343 1.29617-12.51156-1.83623z"/>
    <path id="path147" d="M891.62608 398.11699c.54417-.32403 2.06363-1.08013 2.71663-1.72406-1.19716.31986-4.13146-.32404-4.8933-.97214 1.08834 0 2.82547-.54006 5.00214-1.51216-3.9138-.10804-6.63464-.10804-8.04944-.86414-1.41483-.7561-4.02263-.54006-5.00213-.32403-.9795.21603-.653 1.83623 3.47847 1.40417-1.74134 1.18816-6.41697 1.6202-8.15827 1.18816.43533 1.4.76183 2.8042.3265 3.5603 2.28547 1.29617 8.2671 2.91637 11.20557 2.70034-2.61197-.97214-4.0268-2.05227-1.85014-2.2683 2.17664-.21604 3.3738-.64807 5.22397-1.18814z"/>
    <path id="path149" d="M884.87845 405.13786c5.20723-.43203 12.1809-.52343 17.73136-5.18463 1.41484-1.18817 2.36504-.78934.9795.43203-2.9343 2.59233-10.2261 6.15263-17.1872 6.26063-2.83386.0457-4.13146-1.29616-1.52366-1.50803z"/>
    <path id="path151" d="M923.87825 396.60479c-1.306.48607-4.9519 1.08014-6.03604.91814-1.08833-.16204-2.6664-.21604-3.53706.32403-.87067.54007-.92507.8641.2721.9721 1.19713.10803 2.7208.21603 3.48263.16203-.9795.54007-1.6325 1.29617-1.85017 1.6202 1.74134-.43203 4.9477.32404 5.8728.8641-.70743.21604-1.52366-.054-2.12223-.37803 2.93847 3.0784 11.6409 3.0784 13.05573 2.53833-.653.48604-1.25156.9721-1.90456 1.13414 2.44873.43203 5.27419.37803 8.04943-1.24217-.92507.16203-3.69614-.108-4.40354-.162.54417-.54007 1.35624-1.02613 2.11804-1.24217-1.08414-.21603-4.51237-.10803-5.3286.32404.3265-.64807.92507-1.45817 1.57807-1.7282-4.2989 0-9.51867-.054-11.42327-1.08017 3.04733.32407 6.42113-1.45817 7.8318-1.45817-2.39013-.054-5.00213-.59406-5.65513-1.5662z"/>
    <path id="path153" d="M912.94475 398.98109c-2.12224.43207-5.32864 1.29617-6.1993 1.78224-.87067.48606-1.79574.7561.10883.7561 1.9046 0 7.06997.216 8.2127.37803-2.88407-.43207-6.79787-.54007-7.5597-.54007-.76183 0-1.6325-.054-.21767-.48606 1.41484-.43204 3.265-1.40417 5.65514-1.89024z"/>
    <path id="path155" d="M908.65005 404.00373c.75763 0 4.07703 0 5.38303-1.13414 1.3604 1.02614 3.9724 2.48014 5.6551 2.48014 1.6869 0 1.52367.43206.0544.5941-1.46506.162-4.34913-.69794-5.81836-1.77807-1.959.70207-3.5873.108-5.2742-.16203z"/>
    <path id="path157" d="M883.46781 418.52326c3.36964 1.29613 7.83177 2.26827 11.09257 1.18813 1.85017 1.6202 5.6593 1.7282 7.72293 1.29617 2.06784-.43207 3.91797-.6481 6.20347.108 2.2813.7561 6.9611.8101 8.2671 1.8861-1.19717.0582-3.75473 0-4.3533.16617-.5986.15786-.2721.5359.81623 1.13-3.69613-.21604-10.06283 1.35016-12.01763 3.02436.70323-1.6742 2.87987-3.9425 6.3081-3.9425-1.95897-.69793-8.21267-.75193-10.2261.48607-.59857-.64807-1.30597-1.72407-1.3604-2.1561-3.3152 1.88607-9.84517-.81013-12.45297-3.1864z"/>
    <path id="path159" d="M874.81558 412.47863c4.01427-.56914 6.74763-1.83624 7.9448-3.02437.70743.64807 3.64173 1.29617 6.8523.32403-.653.48607-.70743 1.40417-.43533 1.89024-2.12224.054-6.14907 1.08013-7.5053 1.78223-1.3604.69793-5.3328 1.184-6.6346.4819-1.306-.69793-1.3604-1.292-.22187-1.45403z"/>
    <path id="path161" d="M889.17735 411.66853c-2.12224.054-6.14907 1.08013-7.5053 1.78223.2721.54007.43533 1.40003.48976 1.9941 3.9138-1.40417 12.8883-2.26413 16.31654-1.72407-1.6325.108-4.73424 1.77807-6.47137 1.9941 4.2403-.32403 8.37593.54007 9.4601.8101 1.0883.27004 1.30597 1.08014.48973 1.83624-.81623.7561-1.19296.8641.54417.9181 1.74133.054 5.3328-.162 6.9653-1.7282-.653-.7021-2.3399-.43207-2.82967-.91814 1.14277-.37803 2.44874-1.18813 2.9385-1.7822-2.9385-.054-4.0268-.10803-5.0063-.32406-.9795-.21187-1.68693-.48604-.48976-1.12997 1.19716-.6481 1.74133-1.18817 2.12223-1.6202-2.12223.59407-5.43743 1.08013-8.21267-1.08013 1.0339.27003 3.47847.108 4.34914-.27004-.9251-.48606-1.68274-.86413-2.44457-.86413 2.2269-1.08013 6.6346-2.05223 12.07207.10803 2.72083-.21603 5.6593-.10803 7.72293.43204.87067-.8641 2.72083-2.91637 3.70033-3.45644-6.41696.54007-17.94903-.64806-17.73136-3.99233-2.06784 2.69617-6.8523 4.20837-8.92014 3.77633-.21766.9721.653 2.16027 1.41484 2.80834-2.17664.43206-5.87697.7561-7.6141.43206.9795.9721 2.82546 1.83624 3.9138 1.7282-2.2813 0-3.47847.43207-5.2742.27004z"/>
    <path id="path163" d="M902.50098 419.27933c1.74133.054 5.3328-.162 6.9653-1.7282-.653-.7021-2.3399-.43207-2.82967-.91814 1.14277-.37803 2.44874-1.18813 2.9385-1.7822 4.5668-.3739 8.64804-.15786 10.60284-.75196 1.95896-.59407 6.9653-.27004 7.94476-.54007-4.3533.69793-5.22396 1.076-5.44163 1.77807-.21767.7021 1.41483 1.29616 2.44873 1.29616-1.95896-.108-4.4077 1.94427-4.62536 2.75437-2.6078-1.5122-3.8594.27003-4.13147.8641-1.08833-.43207-4.6798-.32403-6.52997 1.24217-2.39013-.7021-3.96823-1.08014-6.36253-.7021 1.46923-.32404 1.19717-1.29617-.9795-1.5122z"/>
    <path id="path165" d="M923.38851 406.64589c1.46924-.054 4.6756.10804 5.81837-.054-.76183.37807-1.73713 1.08014-1.9548 1.40417 3.6961-.43203 8.75266-.70207 10.2219-.48603-1.79157-.27004-3.64173.8641-4.5668 1.45816-.92507.59407-.3809.97214.87067 1.13414 1.25156.16203 2.93849 1.13416.65299.8101-2.28549-.32404-6.79786-.32404-7.88619-.162-1.08834.162-1.6869-.37807-.10884-.59407 1.57807-.21603 2.66224-.7561 3.42407-1.18817-1.306.32404-3.80497.32404-4.5668.108-.76183-.216-1.25157-.64806-.38093-.8641.87066-.21603.2721-.54006-.653-.43203-.92507.108-3.26497 1.08013-4.57097 2.32227 1.41483-1.45817 2.6664-2.75434 3.70033-3.45644z"/>
    <path id="path167" d="M906.79988 409.07619c1.79573 1.99827 3.9138 3.1324 7.2876 3.24044.70743.0208 2.02597.9638.3265 1.02613-4.57097.162-6.85227-.91813-8.86567-3.8345-.41443-.59823.3516-1.43327 1.25157-.43207z"/>
    <path id="path169" d="M964.77844 384.5156c-1.35623.9181-3.15196 2.5383-1.959 4.80243.14234-.0748.27627-.162.4144-.24093 5.32027-6.38944 9.8745-13.10704 13.77574-20.0864.046-.24094.0879-.46944.1172-.66884-1.52367 1.29617-3.91797 2.58817-4.89747 2.9122.653 1.72824-2.39013 3.9965-4.02263 4.6446.653 1.08014.43533 2.70034-.9795 3.02437.3265.96797-.76184.96797-2.06784 1.50803-1.30596.54007-1.95896.97214-2.39013 1.6202.70323-.37803 1.68273-.70206 2.2269-.54006.54417.16203.653.97213-.3265 1.18816-.9795.21604-1.6283.7561-1.959 1.18814 1.41483-.54007 3.42823-.27004 2.06783.6481z"/>
    <path id="path171" d="M868.88838 359.90096c1.6325 1.13414 4.51657 3.02024 8.26713 2.7502 1.85014 1.45817 4.7342 2.70034 6.0402 2.97037-2.50313 1.02613-5.22396 1.89023-5.93136 2.70033-1.14277-1.08013-2.6078-.91813-2.98874-1.4582-1.08833.86414-.92506 1.4042-.21766 1.83624.70743.43206 6.1993 1.35016 7.5597.97213 1.3604-.37803 1.72456.73947.59856 1.13-2.93846 1.0261-8.648.054-10.607-3.07423-1.959-3.1324-3.6459-4.32057-8.9745-1.4582-.5986-1.5122-.5986-1.89024-1.6325-1.89024-1.03393 0-2.9385-1.35016-1.46926-1.29616 1.46926.054 5.82256-.59407 9.35543-3.18224z"/>
    <path id="path173" d="M870.19438 366.86366c-.90833.22434-3.48263 1.62024-4.40353 1.72824-.92507.108-2.55757 1.40416-.87067 1.45816 1.68273.054 3.85937-1.7822 5.05653-1.94423 1.19717-.16203 1.306-1.5122.21767-1.24217z"/>
    <path id="path175" d="M877.31875 371.93616c.16326.54007.16326 1.13414 0 1.5122-.16324.37804-.16324.8641.54416.32404.7074-.54007 1.14274-1.18817 1.85017-.8101.7074.37803 2.50313.32403 3.3152.21603.82043-.10803 1.08833-.27003-.10463-.7561-1.19717-.48607-2.39434-.6481-3.04734-.5941-.653.054-1.46923-.108-2.0134-.32403-.54416-.21604-.7074-.108-.54416.43206z"/>
    <path id="path177" d="M903.09955 372.0982l-.3265.8101c2.01343-.054 6.9109.43203 8.4848 1.40416 1.52363-1.18816 1.25156-1.5662 2.3399-1.35016 1.08833.21603 2.44873.59406 3.0473.27003.5986-.32403 1.03393-.27003 1.6869-.16203.64883.10803 2.06366-.162 2.8799-.64807.81623-.48607 2.50316-1.13417 3.48263-1.13417.9795 0 2.1725-.216.38093-.48603-1.79573-.27003-4.51656.27003-5.44163.59407-.9209.32403-3.69613.54006-5.32863.54006-1.6325 0-3.85937.8101-5.70954.32404-1.85016-.48607-4.40773-.162-5.49606-.162z"/>
    <path id="path179" d="M934.04991 371.3421c2.4027 1.12583 7.2332 2.10626 10.98793 1.94423.653-.0291 1.96737.6647.32234.8101-4.2403.37803-8.04947-.21187-11.58233-2.16027-.9795-.54006-.653-1.02613.27206-.59406z"/>
    <path id="path181" d="M936.49868 371.28806c3.6961-.108 6.47133-.054 7.6141 1.02614 2.11803-.64807 5.9272-1.02614 6.79786-.8641.87067.16203 1.85014-.21604-.16326-.7021-2.0134-.4819-6.68904-.6439-8.15827-.37387-1.46923.26587-6.04023.4279-7.5597.26587.653.108 1.08417.21603 1.46927.64806z"/>
    <path id="path183" d="M950.85621 372.74626c1.74133-.91813 6.74347-.054 8.2671-.7021-1.0883 1.29617 3.48267 1.4042 7.45087.37807-1.52367.9721-4.78447 1.13413-6.19927 1.7282-1.41483.59407-2.17667.16203-3.265-.32403-1.08833-.48607-3.85937-1.45817-6.2537-1.08014z"/>
    <path id="path185" d="M966.57418 372.42223c-3.9682 1.02613-8.53917.9181-7.45087-.37807-1.52363.6481-6.52577-.21603-8.2671.7021 1.79573-1.08013 3.15617-.21603 4.45797-2.4303.81623.16617 2.72083.27417 3.3738-.58993 1.14276.27003 3.15616.7561 3.75473 1.34603.5986.59407 1.5195-.16203.75767-1.076 1.79573-.64806.65716.76857 4.84303-.27003.87067-.21603 2.9929-.59407 3.70033-.64807-1.41483 1.13414-3.10173 2.37214-5.16956 3.34427z"/>
  </g>
  <path d="M999.4751 257.00947c-.19257 67.84913-10.97957 140.94523-99.47317 175.763-88.49779-34.81777-99.28479-107.91387-99.47733-175.763z" id="path191" fill="none" stroke="#000" stroke-width="2"/>
  <g transform="translate(-.00008 -.000256)" id="g207" stroke-width="4.17009211">
    <path d="M839.95145 287.5277c-1.47343 1.88193-3.04313 3.45643-5.0733 4.89387-2.03013 1.44156-4.64213 2.5923-3.19383 5.03923 1.4525 2.44693 2.612 2.73773 2.90083 4.6072.293 1.86947.72833 3.45643 2.17667 3.8885 1.45246.4279 2.03013.14123 2.03013 3.1656 0 3.0244 0 4.17516 1.306 5.3259 1.306 1.15076 1.15947 2.30153 1.74133 5.03926.57764 2.73357.57764 8.63694 2.31897 12.66667 1.74133 4.02973 5.6593 11.6613 5.22397 13.24413-.43534 1.5828-1.01717 2.73357.72416 4.60304 1.7413 1.87363 2.9008 4.6072 3.0473 6.19.14233 1.58696.43533 2.16026 2.17247 1.58696 1.74133-.57743 2.612-1.1549 3.19383-1.8736.57767-.7187 1.73713-.5733 3.33613.28664 1.59484.8641 4.0603 1.72823 5.50864.8641 1.4525-.8641 2.17663-2.1561 3.48263-2.1561 2.03017-1.44157 2.7543-4.46594 3.18963-5.3259.43534-.8641.1465-.8641-.72413-1.72824-.87067-.8641-.43533-2.30566-.58187-3.74306-.1423-1.44157-.72413-3.5977-2.46546-6.76747-1.73714-3.16563-2.7543-7.05413-3.9138-8.05947-1.15947-1.00953-1.7413-3.45643-1.88784-4.6072-.1423-1.15076-1.4483-2.16026-2.31896-3.0244-.87067-.85993-1.74134-2.1561-2.7543-7.19536-1.01717-5.03924-1.74134-8.63693-1.74134-9.50103 0-.8641-.1465-1.0095-1.01716-1.29617-.87067-.28663-1.306-1.7282-1.01297-2.4469.2888-.71873-.29303-1.43743-.58183-2.30153-.28884-.8641 0-2.44694.58183-3.31104.57763-.8641.43533-3.31103-.14653-5.3259-.58184-2.01486-1.15947-3.74306-3.48264-4.0339-2.31896-.28663-2.75429-.85993-3.62496-2.73356-.87067-1.86947-1.74133-5.1805-2.03017-5.90337-.2888-.7187-.72413-.8641-2.46546.57747-1.74134 1.4374-2.31897 1.91516-2.31897 4.6072 0 1.7282.28883 2.30153.86647 3.31103.58183 1.00537.72833 1.29617 1.16366 4.02973.43534 2.73357 2.90084 7.05414-.293 9.50104-3.18963 2.44693-2.7543 3.0244-2.6078 4.74846.14234 1.7282-.87066 2.87897-1.4525.43204-.57766-2.44694 0-3.88434 1.74134-5.0351 1.7413-1.1549 3.33613-2.5923 2.17663-4.17514-1.16367-1.5828-1.5948-5.3259-1.7413-7.0541-.14653-1.72823-.43533-2.3057-1.4525-1.00953z" id="path193" fill="#cfa763"/>
    <g id="g205" fill="#d7c99c">
      <path d="M814.11202 324.23156c-.0795 1.17154.1842 2.45937.27626 3.4938.10884 1.18817.43534 3.67247-.43533 5.5087-.87063 1.83207-.653 2.8042 0 3.34427.0377.0291.0712.0582.10467.0872 1.7748-.5899 2.00503-2.55493 1.52783-3.50626-.5065-1.00537-.35997-2.2309.21767-3.23627.58183-1.0095.58183-1.5828.0753-2.30567-.51067-.7187-.51067-.7187.0712-2.73356.5107-1.77394-.77857-1.76147-1.8376-.65224z" id="path195"/>
      <path d="M832.66382 352.12813c-.3265-1.29617-1.52364-6.2648-1.63247-9.50103-.10883-3.2404-1.5195-5.83274-4.2403-8.3129-2.12223-1.9401-2.58687-5.05587-2.68733-7.46124-1.59484-.96796-2.26874-.5276-2.1348 1.27124.14233 1.9401 2.1013 2.87896 1.81246 5.68316-.2888 2.80837-.2888 2.08967 1.08834 3.45644 1.37716 1.3668 1.88366 2.66296 1.1595 3.2404-.72417.5733-.7995 1.58283.21766 1.9401 1.01297.36143 1.08834 1.44156.94184 2.44693-.14654 1.0095.7995 1.22553 1.37713 1.94423.58183.7187.653 2.44694.0754 3.45644-.58187 1.00536-.653 2.58816.35996 1.72823 1.01717-.86413 1.4525-.0748 2.24784 1.292.69066 1.17983 1.2683.8101 2.01756.45283-.2595-.54423-.4688-1.10923-.60276-1.63683z" id="path197"/>
      <path d="M824.17905 292.1723c-1.07577.0789-1.81247 1.01367-1.19717 4.28313.3851 2.0232-1.15946 1.58284-1.73713.5733-.58183-1.00533-1.01717-3.1656-2.17663-5.03923-1.1637-1.86947-.58187 1.29617-.72417 3.02437-.1465 1.72823 1.01297 1.72823 2.03013 3.16563 1.013 1.44157.14234 2.01903-1.01716 2.01903-1.15947 0-.57764 2.30154-.2888 3.88434.2888 1.5828-.28884 1.87363-1.1637.57746-.86647-1.29616-.2888-3.31103-.1423-5.75796.1423-2.44694.28883-1.87364-1.306-2.44694-1.59484-.57743-1.306-.8641-.72417-2.30566.57767-1.4374 1.1595-2.16027.43533-2.87897-.72833-.7187-.58183-1.15077.57767-1.29617 1.15947-.14126.72833-1.00536 1.7413-1.29616 1.0172-.28667 1.4525.1454 1.59483-1.72407.1214-1.56203.6488-2.5217 1.82924-2.0481.7116 2.40537 1.63666 6.14847 2.26873 7.266z" id="path199"/>
      <path d="M850.68821 318.0457c.43114-3.16564.1423-6.33127 1.4483-7.48617 1.306-1.15077 2.90084-3.4523 2.7543 1.44157-.1423 4.89383-.2888 4.6072-1.3018 5.75793-1.01716 1.15077-1.88783 1.43743-.87066 3.31103 1.013 1.86947 1.1595 2.01487 1.013 4.89387-.14234 2.87897-.14234 4.02973 1.01716 5.4713 1.15947 1.4374 1.4483 1.5828 1.74134 3.16563.2888 1.5828 1.3018 3.74307 2.6078 4.89384 1.30596 1.15076 2.75846 4.4618 2.9008 6.76746.1465 2.30154 2.17666 2.87897 4.0603 4.4618 1.88783 1.5828-.43114 2.73357-1.88364 2.01487-1.44833-.7187-.87066 0-1.74133 1.00537-.87067 1.0095-1.1595 1.1549-1.88363-.57334-.72417-1.7282-3.19384-2.87896-4.35334-3.311-1.15946-.43206-2.17246-2.3057-3.18963-4.17516-.87067-1.60774-2.59523-2.78344-4.16913-2.9039.43533 1.21306.66973 2.16443.54417 2.61726-.43534 1.5828-1.01717 2.73357.72416 4.60304 1.7413 1.87363 2.9008 4.6072 3.0473 6.19.14233 1.58696.43533 2.16026 2.17247 1.58696 1.74133-.57743 2.612-1.1549 3.19383-1.8736.57767-.7187 1.73713-.5733 3.33613.28664 1.59484.8641 4.0603 1.72823 5.50864.8641 1.4525-.8641 2.17663-2.1561 3.48263-2.1561 2.03017-1.44157 2.7543-4.46594 3.18963-5.3259.43534-.8641.1465-.8641-.72413-1.72824-.87067-.8641-.43533-2.30566-.58187-3.74306-.1423-1.44157-.72413-3.5977-2.46546-6.76747-1.73714-3.16563-2.7543-7.05413-3.9138-8.05947-1.15947-1.00953-1.7413-3.45643-1.88784-4.6072-.1423-1.15076-1.4483-2.16026-2.31896-3.0244-.87067-.85993-1.74134-2.1561-2.7543-7.19536-.79534-3.93834-1.41064-6.9918-1.64087-8.55383-1.0423 1.6493-1.75387 2.05226-2.1306.92226-.43533-1.292-1.01717-2.01486-1.59483-1.15076-.58184.86413-.72834-.7187-.72834-1.4374 0-.72287-.14233-.8641-.87066-.8641-.72417 0-.14234-1.15077-.43534-3.31104-.28883-2.16026-.72416-2.44693-1.01296.1454-.28884 2.58817-1.74133 4.171-1.1595 4.74844.57763.57746.28883 1.72823-.293 3.45643-.57767 1.72406-.28883 2.73356.1465 3.88433.43533 1.15077-.28883 3.31103-.58183 5.18467-.28884 1.86946 1.16366 3.73893 1.59899.5733z" id="path201"/>
      <path d="M838.79195 309.1221c0 3.0244 0 4.17516 1.306 5.3259 1.306 1.15076 1.15947 2.30153 1.74133 5.03926.57764 2.73357.57764 8.63694 2.31897 12.66667.51903 1.2006 1.23483 2.72527 1.96737 4.31223.96273-.75193 1.7999-2.04393 2.0971-2.72943.43116-1.0095-.87064-3.02437-1.88784-4.74843-1.01296-1.7282.14654-2.30567 1.1595-4.46594 1.01717-2.15613-.1423-2.30153-1.73713-2.879-1.599-.5733-1.599-2.01486-2.46967-4.31636-.87066-2.30154-.72416-3.31104-.14233-4.6072.57767-1.29617.14233-2.30154-1.01717-2.59234-1.15946-.28663-.87066-1.15076-.43533-2.58816.43533-1.44157.72417-1.72823-1.01297-1.29617-1.31856.32404-1.63666.56917-2.03016 1.04277.0963.41543.14233.99287.14233 1.8362z" id="path203"/>
    </g>
  </g>
  <g transform="matrix(1.31296 0 0 1.31296 -857.55727 -110.01291)" id="g607">
    <g id="g221" fill="none" stroke="#000" stroke-width=".49999899">
      <path d="M1312.8779 318.33759l-2.6476 28.96834" id="path209"/>
      <path d="M1320.8094 336.08249c-1.0816 4.90071-2.507 10.46761-3.9512 15.18702" id="path211"/>
      <path d="M1355.4695 322.13298c2.0077 1.86646 4.7049 2.3028 7.6896 3.75059" id="path213"/>
      <path d="M1368.7691 334.94376l-1.469 11.1621" id="path215"/>
      <path d="M1367.3339 335.4373l-2.6326 11.45952" id="path217"/>
      <path d="M1319.0764 336.42909c-1.244 4.76363-2.9086 9.10661-4.5057 13.51718" id="path219"/>
    </g>
    <path d="M1376.5385 363.37456c-.068.0215-.1426.037-.2206.0488-.078.0118-.1598.0197-.2432.0261-.083.006-.1684.0112-.2528.0166-.084.005-.1682.0114-.2492.0201-.081.009-.1593.0203-.2326.0368-.073.0165-.1416.0379-.2028.0665-.061.0286-.1153.0643-.16.10935-.045.045-.08.0994-.1041.16527-.031.0443-.065.0876-.1006.13031-.035.0427-.072.0849-.1107.12688-.038.042-.078.0838-.1173.12577-.04.042-.08.0842-.1199.12701-.04.0428-.08.0862-.1191.13057-.039.0444-.077.0897-.1144.13645-.037.0467-.072.0948-.106.14468-.034.0498-.065.10146-.094.15522-.544.43516-1.1927.76555-2.0563.8811-.5414.15006-1.8135.18765-2.35 0-1.0351.014-2.1213-.0625-2.7419-.4895-.7278-.3758-1.676-.1296-2.2521.1958-.4607.25819-.5508.73274-1.0777.88111-.3166.41712-1.7163.36824-2.2521.1958-1.2203.0781-1.9674-.31718-2.8394-.5874-.5755-.40813-1.4987-.7067-2.1545-.0979-.411.43766-.9693.7279-1.6649.8811-1.194-.0482-2.5476.15631-3.427-.2937-.9809-.0825-1.3541-.61704-2.252-.8811-1.0251-.17375-1.5.35829-2.1543.5874-.5851.48727-1.4149.53903-2.448.4895-1.0669-.0427-2.3636.14428-3.0352-.2937-.8651-.0967-1.4197-.59331-2.0562-.8811-.6286-.49574-1.8007.0228-2.3502.2937-.9407.14598-1.2919.88131-2.4765.7832-.9653-.11847-1.6221-.51322-2.5168-.7832-.8418-.37603-1.5984-.9641-2.9372-.8811-.399.52774-1.2625.74771-2.1486.7832-.7954.0101-1.5814.0109-2.16-.1958-1.6011-.0485-2.3695-1.73261-3.5287-2.63163-1.9295-1.91287-3.859-3.82574-5.7885-5.73862.3323-1.02615.449-1.20464-.083-1.87525.2199-1.02295-.4807-1.16249-.196-2.1884.4339-.7878-.7811-.65109-1.077-1.07691-.695-.13516-.9906-.64568-1.6648-.8811-.5487-.38285-1.0784-.63661-1.7624-.97899-.6007-.2479-1.1181-.57912-1.6647-.88111-.4124-.37094-.9587-.60801-1.3711-.97899-.5344-.2462-.9688-.56976-1.3713-.88111-.5619-.1768-.835-.59614-1.3714-.88109-.3886-.36344-1.0156-.67353-1.4691-.979-.7134-.23488-1.3634-.70024-2.1539-.8811-.5362-.0192-.7009-1.21635.2882-1.17485.7073.0219 1.1421.4705 1.6707.7832.8323.3425 1.6472.70248 2.6434.8811.577.34255 1.0934.52234 1.7625.78319.5785.44817 1.3412.52661 2.0564.97901.6663.30343 1.4614.66352 1.8618.97899.5666.2401.8586.64998 1.4693.8811.2108.25473.6427.3713.9794.6853.5999.22402 1.1397.48108 1.5665.7832.5581.36588.866.40665 1.2735.7832.5042.15613 3.6891 1.75889 3.5286 1.56935 3.136.60335 4.5224.79324 7.6758 1.2419 7.6228.11991 15.2455.23981 22.8682.35972 2.7639-1.15448 5.5275-2.30897 8.2913-3.46345.8396-1.3294 1.6793-2.65881 2.5188-3.98821 4.0855-.74687 8.1708-1.49375 12.2563-2.24062-.2322-.24702 21.5117-.76401 21.9704 1.06171.1934.76974.7821 2.31645.077 2.68103-.4621.23897-20.534-2.55464-20.8446-.75194-.1347.78216.03 5.65216.1419 6.43788.1121.78572.2242 1.57145.3363 2.35717.112.78572.2241 1.57144.3362 2.35717.1121.78572.2241 1.57144.3362 2.35716.1121.78573.2241 1.57145.3362 2.35717H1376.5384z" id="path223" fill="#666"/>
    <g id="g261" fill="none" stroke="#000" stroke-width=".49999899">
      <path d="M1314.4013 332.53056c-3.695 4.20551-7.3737 7.56143-11.3178 10.77028" id="path225"/>
      <path d="M1334.7208 315.40629l11.9143-10.30679" id="path227"/>
      <path d="M1329.3748 325.59329c2.3869 1.6736 5.0557 3.178 8.6945 4.10056" id="path229"/>
      <path d="M1327.6906 310.01628c1.4828 2.3479 3.2231 4.6271 8.421 5.98428" id="path231"/>
      <path d="M1324.3035 286.56617c-1.6093 2.13827-4.1818 4.13192-7.5487 5.76803" id="path233"/>
      <path d="M1328.5745 301.03351c1.6973 1.64377 4.084 2.59808 6.5245 3.49864" id="path235"/>
      <path d="M1328.5731 336.91432c1.1998 5.90265 2.2356 10.59158 3.6046 15.47861" id="path237"/>
      <path d="M1327.6269 352.27118c6.1912-6.35612 11.4787-13.18551 14.9124-20.98604" id="path239"/>
      <path d="M1355.1714 308.30166c1.9836 2.12583 4.051 3.66735 7.2842 4.5435" id="path241"/>
      <path d="M1363.7745 300.69408c1.6811 3.01338 3.7517 5.24785 5.6909 7.74483" id="path243"/>
      <path d="M1345.4784 291.27283c-.2075 2.99636-2.0254 6.00719-3.2977 8.60427" id="path245"/>
      <path d="M1349.7606 292.75071c-2.2053 2.45441-4.3356 5.085-7.3517 6.59359" id="path247"/>
      <path d="M1350.1394 282.06454c-1.5134 1.0304-3.6209 2.23678-5.2752 2.84406" id="path249"/>
      <path d="M1372.724 304.86298c-1.8274 2.17139-3.6567 4.72324-6.6667 6.59562" id="path251"/>
      <path d="M1373.0629 322.94205c-2.3382 2.21374-4.4362 4.78787-7.1187 6.48515" id="path253"/>
      <path d="M1386.5938 335.72694c-4.1893 3.28579-8.4791 6.3707-13.1224 8.74838" id="path255"/>
      <path d="M1375.7012 344.90416c3.9335-2.45382 7.4037-5.83426 10.8926-9.17722" id="path257"/>
      <path d="M1374.5634 305.31496c.7553 1.97348 2.5171 4.13401 4.2622 5.54194" id="path259"/>
    </g>
    <path d="M1371.9843 285.63346l-.3422 59.33647 4.319-.2561-1.812-59.27081z" id="path263" fill="#bca76b" stroke="#472b1f" stroke-width=".28691301"/>
    <g id="g273" stroke="#000">
      <path d="M1374.8615 362.14459c1.0297.62106 1.6214 1.17503 2.471 1.99908 1.8913 1.73793 3.1578 1.74503 5.8578-.0156 1.0063.11544 2.0257.64134 3.1173.44106.9648.0301 1.9015-.14137 2.8432-.3452 1.1536-.27709 1.3186-1.66601 1.7259-2.59559.5281-1.08027 1.1039-2.19561 1.8628-3.12867.9989-.67116 2.0774-1.36326 2.7686-2.36346.7892-.92772.6552-2.13777.4895-3.25304-.091-1.05979-.1756-2.04755-.1667-3.11646-.2634-1.34962.905-2.39405.8043-3.71884-.6675-.59364-1.769-.75253-2.6648-1.01154-1.58-.34672-3.1816-.57312-4.786-.69087-1.3147-.10624-2.6258-.24732-3.9347-.34489-1.2924-.10204-2.5825-.18997-3.8798-.19313-1.4535.0403-2.9538-.14053-4.378.0943-1.0186.23928-2.304.14696-3.1428.61547-.3767.9872-.6179 2.00859-.6595 3.03142-.1382.88175-.1896 1.7977-.1885 2.72087.051 1.68232-.1735 3.39476.294 5.02688.3107 1.31402.4193 2.65061.6675 3.95003.036 1.03631.1634 2.10365.8989 2.89812z" id="path265" fill="#333" stroke-width=".99999899"/>
      <g id="g271" fill="none" stroke-width=".49999899">
        <path d="M1379.796 333.24593l5.8784 10.99704" id="path267"/>
        <path d="M1394.4845 344.81839c-1.734-1.81912-3.0952-4.01112-4.1432-6.51625" id="path269"/>
      </g>
    </g>
    <g id="g287" fill="#472b1f">
      <path d="M1394.085 327.66164l1.9355 1.36132.1348.0508c-.6337-.59203-1.2505-1.23602-2.0547-1.41016 0-.00076-.011-.00076-.016-.002z" id="path275"/>
      <path d="M1390.001 328.23585c-.07.0218-.2188.0664-.2188.0664l-2.7207 10.64061z" id="path277"/>
      <path d="M1402.9795 328.62256c-.6698.0553-1.3075.33796-1.9414.63868l1.1426-.39844 1.4863-.2207c-.251-.0229-.4941-.0355-.6875-.0195z" id="path279"/>
      <path d="M1390.3408 338.30224l-.5332.10352c.2235-.00076.4363.0109.6133.0566.2697.0697.509.17542.7363.29492z" id="path281"/>
      <path d="M1391.4053 338.89599c.6968.41985 1.286.95955 2.1113 1.17969z" id="path283"/>
      <path d="M1397.6982 339.43896l-3.6308.72655c1.2711.11309 2.4108-.3866 3.6308-.72655z" id="path285"/>
    </g>
    <path d="M1390.1813 327.5831l-3.1197 11.35898 3.2797-.63994 3.4397 1.91983 5.1995-1.03991 2.6398.39997c.8157-3.65005.5766-7.95786 2.7197-11.03902l-2.1598.31997-3.4397 1.1999-2.7197-1.03991-2.1598-1.51987z" id="path289" fill="#fff"/>
    <path d="M1395.1416 328.94288c-.5446 1.04757-1.0745 2.10284-1.2012 3.35937 0 0-1.5234-.53104-2.3183-.63868-.8456-.11449-2.5606 0-2.5606 0l-.022.0723-.7381 2.6875c.078-.01 2.0933-.2589 2.9999-.1211.6757.10271 1.9199.72071 1.9199.72071-.3348 1.44242-.6711 2.88374-1.0059 4.32616l.6406.35742 1.3926.42188.041-.008.5879-.11914c.2682-1.47893.486-3.00899 1.1425-4.09961 0 0 2.1092.56605 3.2793.48048.8061-.0589 2.4674-.23579 2.877-.28126.1161-.91498.2354-1.83123.3964-2.73046-.4103.11121-2.1911.54852-3.1932.45117-.9071-.0881-2.5586-.95898-2.5586-.95898.2411-.93325.6676-1.86753 1.1191-2.80078z" id="path291" fill="#c8102e"/>
    <path d="M1387.9088 327.52996c-1.3826-3.78521-3.0991-9.98452-3.8022-14.90225" id="path293" fill="none" stroke="#000" stroke-width=".49999899"/>
    <g id="g303" stroke="#472b1f">
      <path d="M1389.1553 328.40674s3.4188-.80783 4.8411-.49984c1.4891.32246 2.4355 2.02297 3.9442 2.23597 1.7373.24529 3.2909-1.37564 5.0395-1.51987.8306-.0685 2.4798.31998 2.4798.31998l-1.1199 4.15963-.96 3.51968v3.11972s-2.9282-.70398-4.3995-.55995c-1.8462.18072-3.369 1.26062-5.1995.9599-1.3524-.22217-2.0327-1.33711-3.3597-1.67985-1.0953-.28288-3.8822.44514-3.8822.44514z" id="path295" fill="none" stroke-width=".99999899"/>
      <g id="g301" fill="#bca76b" stroke-width=".30000001">
        <path d="M1389.7822 328.30225l-1.3613.0801-4.3184 15.27928 2 .0801z" id="path297"/>
        <path d="M1388.4209 328.38233c-.5971-.33202-1.0269-1.30908-.7194-1.91913.3495-.69336 1.495-.85961 2.2398-.63994.8156.24056 1.9534 1.11464 1.6799 1.91983-.3498 1.03005-2.2496 1.16792-3.2003.63924z" id="path299"/>
      </g>
    </g>
    <path d="M1404.1718 328.71632c-2.0817 3.01675-1.9098 7.13813-2.7011 10.68163.9958.16103 1.8083.34374 1.8083.34374v-3.11914l1.0075-3.51952 1.1735-4.16015s-.6125-.12967-1.2882-.22656z" id="path305" fill="#472b1f"/>
    <g id="g335" fill="none" stroke="#000" stroke-width=".49999899">
      <path d="M1379.5608 316.34527c2.1423 1.46177 4.3328 5.35132 7.3838 8.40331" id="path307"/>
      <path d="M1383.5919 310.79521c-1.5861-4.17448-2.864-10.99159-3.0876-16.07441" id="path309"/>
      <path d="M1377.2781 335.28433l3.3767 8.81101" id="path311"/>
      <path d="M1380.6373 290.60653c-2.9051-.74505-5.6603-2.80346-6.095-4.45685" id="path313"/>
      <path d="M1361.6734 293.50149c1.8847.14376 8.475-4.78532 9.4838-7.35181" id="path315"/>
      <path d="M1378.4676 334.02141l4.6478 9.92629" id="path317"/>
      <path d="M1378.1031 337.35975l3.3846-1.2744" id="path319"/>
      <path d="M1378.6716 339.21407l3.6103-1.5102" id="path321"/>
      <path d="M1380.1577 342.93654l3.933-1.67151" id="path323"/>
      <path d="M1376.1137 323.39403l4.7458 5.08473" id="path325"/>
      <path d="M1366.0573 335.71039l-3.2768 11.07344" id="path327"/>
      <path d="M1365.1508 338.17939l3.313-.048" id="path329"/>
      <path d="M1364.343 340.90812l3.8612.113" id="path331"/>
      <path d="M1363.4583 343.73298l4.1808.79096" id="path333"/>
    </g>
    <g id="g369" fill="#bca76b" stroke="#472b1f">
      <path d="M1374.5609 284.14229c-.7722-.26701-2.8124-.31924-3.6231.3323-.4351.34955-.073 1.5202.471 1.52991 1.0976.0196 2.4912.0716 2.9282-.24922.4544-.33352.7478-1.43185.2239-1.61299z" id="path337" stroke-width=".28956899"/>
      <path d="M1362.5677 293.4013c1.4172 5.7997 7.5704 4.83273 7.2861-.46158" id="path339" stroke-width=".39742199"/>
      <path d="M1368.2183 293.12994c1.8424 6.66124 9.8417 5.55063 9.4721-.53013" id="path341" stroke-width=".485632"/>
      <path d="M1374.9838 293.00263c1.8018 4.87907 4.3406 3.93226 7.3694-.49966" id="path343" stroke-width=".41584501"/>
      <path d="M1384.1143 290.68664l-22.4981 1.28857.055 1.52413 22.6809-1.1642z" id="path345" stroke-width=".40257201"/>
      <path d="M1363.3895 313.25453c1.3625 6.38011 7.7782 5.43232 7.5839-.3735" id="path347" stroke-width=".42422599"/>
      <path d="M1369.2693 313.05976c1.788 7.33176 10.1259 6.2601 9.8579-.40894" id="path349" stroke-width=".51838601"/>
      <path d="M1376.3056 313.04305c1.7799 5.37841 4.4375 4.38712 7.6712-.41371" id="path351" stroke-width=".443892"/>
      <path d="M1385.8425 310.67125l-23.415 1.00353.028 1.6709 23.6026-.86395z" id="path353" stroke-width=".42972401"/>
      <path d="M1362.789 331.23838c1.5118 6.51147 8.0756 5.42583 7.7723-.51823" id="path355" stroke-width=".43492699"/>
      <path d="M1368.8166 330.93372c1.6158 9.71595 10.4986 6.23183 10.1043-.59519" id="path357" stroke-width=".53146201"/>
      <path d="M1376.0337 330.79078c1.922 5.47786 4.6302 4.41485 7.8611-.56098" id="path359" stroke-width=".455089"/>
      <path d="M1385.7735 328.19057l-23.9995 1.44671.059 1.71117 24.1944-1.30707z" id="path361" stroke-width=".44056299"/>
      <g id="g367" stroke-width=".25590801">
        <path d="M1377.7055 302.27648l-8.9034.26199.026 2.21082 8.9734-.0308z" id="path363"/>
        <path d="M1377.7663 321.10953l-8.9034.262.026 2.21082 8.9734-.0308z" id="path365"/>
      </g>
    </g>
    <g id="g389" stroke="#000">
      <path d="M1355.526 331.43328l6.5674 15.80124" id="path371" fill="none" stroke-width=".49999899"/>
      <path d="M1322.2651 336.35977c-.7178 4.98275-1.8504 11.35066-3.1194 16.14969" id="path373" fill="none" stroke-width=".49999899"/>
      <path d="M1395.93 345.9787c-3.7398-.60274-7.495-1.21953-11.2795-1.3852-2.982-.13054-5.9764.0436-8.9493.31066-4.3348.38936-8.7643.58903-12.9207 1.87967-.5605.17403-1.1596.36799-1.5795.77795-1.1717 1.1439-1.287 3.04818-2.2757 4.35349-.9579 1.2647-4.6167 3.37407-5.9366 4.25454-9.6152.24112-20.3005.10631-32.2553-1.68202l-1.682-1.87992-.6926-.6926 1.8799.6926 4.2545.099 10.389-.39578s8.7774.0101 13.1595-.19788c2.4786-.11766 4.961-.26561 7.4206-.59366.5322-.071 1.1337-.003 1.5832-.29683.735-.48043.9732-1.46251 1.484-2.17674.4798-.67061.7819-1.54689 1.4842-1.97887 1.8741-1.40364 4.2525-1.27672 6.2924-1.66697 2.4474-.46826 4.6998-.56227 7.1653-.92477 2.8497-.41901 5.7303-.61776 8.6066-.77231 1.8446-.0991 3.6986-.23491 5.5408-.099 2.801.20665 5.8747-.0118 8.3112 1.38521.4469.25625 1.2528.74458.9894 1.1873-.172.28905-.6574-.14435-.9894-.19787z" id="path375" stroke-width=".30000001"/>
      <g id="g387" fill="none" stroke-width=".49999899">
        <path d="M1352.1811 282.06454c1.4232 1.09041 4.0499 1.99995 6.5982 2.38734" id="path377"/>
        <path d="M1349.2299 322.1945c-3.0112 2.1676-6.1922 3.65506-9.4859 4.6926" id="path379"/>
        <path d="M1357.7479 350.39477l-5.234-13.72733" id="path381"/>
        <path d="M1353.5507 332.17396l6.0242 15.65312" id="path383"/>
        <path d="M1352.8101 336.22303l3.9996-1.3826" id="path385"/>
      </g>
    </g>
    <path d="M1350.0342 280.03851l-1.2423 72.92707 4.3191-.25822-.8119-72.66086z" id="path391" fill="#bca76b" stroke="#472b1f" stroke-width=".28809801"/>
    <path d="M1355.225 291.31103c1.687 3.206 4.385 5.78014 8.3338 7.57258" id="path393" fill="none" stroke="#000" stroke-width=".49999899"/>
    <g id="g411" fill="#bca76b" stroke="#472b1f">
      <path d="M1341.1059 286.76719c1.3624 6.38011 7.7781 5.43233 7.5838-.3735" id="path395" stroke-width=".42422599"/>
      <path d="M1346.9856 286.57242c1.7881 7.33177 10.126 6.2601 9.858-.40893" id="path397" stroke-width=".51838601"/>
      <path d="M1354.022 286.55571c1.7799 5.37841 5.0293 5.86656 7.6711-.41371" id="path399" stroke-width=".443892"/>
      <path d="M1363.5588 284.18392l-23.4149 1.00353.028 1.67089 23.6026-.86395z" id="path401" stroke-width=".42972401"/>
      <path d="M1341.1059 301.4669c1.3624 6.38011 7.7781 5.43232 7.5838-.37351" id="path403" stroke-width=".42422599"/>
      <path d="M1346.9856 301.27212c1.7881 7.33177 10.126 6.26011 9.858-.40893" id="path405" stroke-width=".51838601"/>
      <path d="M1354.022 301.25542c1.7799 5.37841 7.159 4.47327 7.6711-.41372" id="path407" stroke-width=".443892"/>
      <path d="M1363.5588 298.88362l-23.4149 1.00353.028 1.67089 23.6026-.86394z" id="path409" stroke-width=".42972401"/>
    </g>
    <path d="M1348.0816 309.66101c-2.1115 1.38667-4.0315 3.08552-6.8096 3.939" id="path413" fill="none" stroke="#000" stroke-width=".49999899"/>
    <g id="g423" fill="#bca76b" stroke="#472b1f">
      <path d="M1340.406 315.26687c1.3625 6.38011 7.7782 5.43233 7.5839-.3735" id="path415" stroke-width=".42422599"/>
      <path d="M1346.2858 315.0721c1.788 7.33176 10.1259 6.2601 9.8579-.40894" id="path417" stroke-width=".51838601"/>
      <path d="M1353.3221 315.05539c1.7799 5.37841 6.5349 3.68799 7.6712-.41371" id="path419" stroke-width=".443892"/>
      <path d="M1362.859 312.6836l-23.415 1.00353.028 1.67089 23.6026-.86395z" id="path421" stroke-width=".42972401"/>
    </g>
    <g id="g431" fill="none" stroke="#000" stroke-width=".49999899">
      <path d="M1343.3656 331.95832c-.6036 7.20303-3.4894 13.72143-5.4417 20.51989" id="path425"/>
      <path d="M1345.9732 332.01499c-.6447 7.00208-2.8173 13.58387-4.5916 20.16239" id="path427"/>
      <path d="M1348.1272 331.39148c-.839 7.77984-1.7766 14.27546-3.5144 20.74662" id="path429"/>
    </g>
    <g id="g447" fill="#bca76b" stroke="#472b1f">
      <path d="M1340.706 328.46685c1.3625 6.38011 7.7782 5.43233 7.5839-.3735" id="path433" stroke-width=".42422599"/>
      <path d="M1346.5858 328.27208c1.788 7.33176 10.1259 6.2601 9.8579-.40894" id="path435" stroke-width=".51838601"/>
      <path d="M1353.6221 328.25537c1.7799 5.37841 6.465 4.31721 7.6712-.41371" id="path437" stroke-width=".443892"/>
      <path d="M1363.159 325.88358l-23.415 1.00353.028 1.67089 23.6026-.86395z" id="path439" stroke-width=".42972401"/>
      <path d="M1355.7201 294.09132l-8.4039.26201.024 2.21081 8.47-.0308z" id="path441" stroke-width=".248625"/>
      <path d="M1355.3712 308.29941l-7.472.2456.021 2.07248 7.5307-.0289z" id="path443" stroke-width=".226982"/>
      <path d="M1355.8405 322.12704l-8.1235.26318.026 2.22074 8.1871-.0308z" id="path445" stroke-width=".244987"/>
    </g>
    <g id="g469" fill="none" stroke="#000" stroke-width=".49999899">
      <path d="M1343.1956 334.56581l4.3648.90696" id="path449"/>
      <path d="M1342.1753 338.64712l5.0449.11337" id="path451"/>
      <path d="M1341.3816 341.59473l5.2151 1.47381" id="path453"/>
      <path d="M1339.9645 346.24289l6.122-.28343" id="path455"/>
      <path d="M1338.8876 349.98408l6.462-.17006" id="path457"/>
      <path d="M1337.3776 331.78537c-.6858 7.36924 4.0708 14.35524 6.4456 20.54739" id="path459"/>
      <path d="M1357.106 348.469l4.1478-1.23448" id="path461"/>
      <path d="M1356.1185 346.24695l4.691-1.97516" id="path463"/>
      <path d="M1354.6372 342.74105l4.839-1.43199" id="path465"/>
      <path d="M1353.5507 339.43266l4.7404-1.23447" id="path467"/>
    </g>
    <path d="M1328.1882 365.3698c-.55.0126-1.0763-.18832-1.6226-.25796-.5432-.17429-1.0932-.33856-1.6039-.59969-.5049-.24479-.9811-.62047-1.4349-.94566-.435-.31139-.8976-.71169-1.2912-1.10615-.5137-.47023-1.0323-.90349-1.4981-1.41715-.4885-.49854-1.0041-.99296-1.4202-1.50955-.451-.50173-1.0014-.89528-1.3677-1.45823-.4223-.41196-.4235-1.13315-.7796-1.58233-.5806-.11393-1.4362-.21081-1.461-.97767-.1912-.46301-.2746-1.02952-.8536-.96586-.2405.0121-.3058.36523-.1577.14555-.298-.16127-.2186.54883-.2576.16744-.1746.28131-.3645.8806-.3573.83688-.2562.5134-.2277 1.09236.4432 1.16261.6383.0943.7135.79301 1.2564 1.07717.4334.42114.9647.9788 1.4468 1.3604.4621.56379.8161.8791 1.1726 1.52103.2228.45187.8115.7683 1.1495 1.14251.282.46575.6015.87872.967 1.29107.4029.41262.9212.85015 1.4046 1.11668.4354.26384.8735.5034 1.3253.75712.4939.24472.9616.58002 1.5047.68326.5755.32196 1.2905.22079 1.9241.358.6331.0378 1.2569-.00003 1.782-.40219.5235-.35281-.01-.28681-.2708-.39728z" id="path471"/>
    <path d="M1362.3741 348.80141c-.772 1.82778-1.9997 4.36569-3.53 5.94086 5.0167.97011 9.0563-.43058 13.577-1.19797-.5073-1.93407-.49-4.07797-.3001-6.29088-3.5935.36604-6.1526 1.18196-9.7469 1.54799z" id="path473"/>
    <path d="M1362.7895 349.30135c-.634 1.61654-1.1201 3.28621-2.3761 4.67928 4.1175.85797 7.4794-.38077 11.1895-1.05946-.7097-1.49949-.4981-3.13061-.2457-4.76756-2.9499.32373-5.6179.82402-8.5677 1.14774z" id="path475" fill="#333"/>
    <path d="M1319.4476 356.58824l14.5675 1.10049c11.7029.36007 25.1246-.17064 36.7279-1.5009.476-.0549 1.2549-.1875 1.4127.26487.1924.55156-.5702 1.23686-1.1478 1.32432-13.3183 1.737-26.7821 1.06579-40.1712.97117l-7.9458-.83563z" id="path477"/>
    <path d="M1324.7922 323.9165c-3.7484 2.88994-7.4857 5.8079-11.7252 7.47006" id="path479" fill="none" stroke="#000" stroke-width=".49999899"/>
    <path d="M1325.3596 310.17847c-3.424 2.47351-6.828 5.52694-10.496 7.02443" id="path481" fill="none" stroke="#000" stroke-width=".49999899"/>
    <path d="M1324.0942 285.0915l-.096 68.14854 3.7392-.25832-2.1681-68.28222z" id="path483" fill="#bca76b" stroke="#472b1f" stroke-width=".268116"/>
    <path d="M1325.5693 284.6995c3.0364 3.36099 5.4546 5.17584 8.0168 7.35102" id="path485" fill="none" stroke="#000" stroke-width=".49999899"/>
    <path d="M1326.5365 282.75634c-.7612-.38888-2.7728-.46496-3.5722.48393-.4288.50904-.073 2.21387.4645 2.22803 1.0822.0286 2.4562.10436 2.8871-.36295.4479-.48572.7372-2.08524.2206-2.34901z" id="path487" fill="#bca76b" stroke="#472b1f" stroke-width=".34698501"/>
    <path d="M1324.402 362.04536c.1056-.57804.5526-.74674 1.0766-.84562.6042.0235 1.3424-.087 1.7294.1537.4637.11612.6997.35203 1.1152.5383.2513.30687.6858.51843 1.0003.6919 1.2227.47122.5594-.94355 1.2552-.99918.591.0521 1.2097-.21962 1.7045 0 .4393.0863.6441.40718.885.69201.2628.23291.5496.43223.6927.69179.099.356 1.4153 1.00097 1.4611.1537.2708-.57794.1495-1.57837 1.0771-1.46049 1.0315-.0566 1.8264.19958 2.7675.30761.4946.20147.895.26652 1.3068.6918.3564.21331.3273.63592.6538.61484.9369.69173.7422-.58887 1.0385-.99916.2333-.37194.9098-.26836 1.2302-.53821.5941-.17443 1.1657-.37152 1.9984-.30759.3334.18795.9132.47905 1.3085.6921.2952.27219.6684.62703.8468 1.07601.035.45093.4435.80823.8462.46115.2057-.51569.6199-.50348.9995-.76861.3974-.0885.6579-.34109.9231-.6149.2328-.0592.4723-.5744.6927-.7689.4084-.30673 1.2347-.23361 1.9223-.3075.6775.20039 1.3063.2811 1.6916.61509.2349.25227.4071.56736.7698.69191.2157.44587.7352.0742 1.0768-.0769.2793-.20738.7052-.43224 1.0771-.615.3244-.32455.7877-.51034 1.4086-.53829.757-.0861 1.1528.31291 1.7431.3845.5557.24217 1.1844.27967 1.5375.6151.4017.27349.9455.50288 1.3455.15369.5241.0155.1186-1.00982.3196-1.25126.6052-.4803 2.0399-.41595 2.7941-.13216.6364.0171 1.3816-.0747 1.8065.1538.421.10258.4833.50192.6541.92233.1924.39333 1.3074.37717 1.6916.0767.3643.008-.082-.52022-.231-.69201-.2351-.15467-.4904-.5285-.616-.76871.5722-.27706.8373.24699 1.3069.3074.2747.23464.6458.31535.9228.6151.4487.16526.8404.38741 1.5341.30759.6435.1884.3607 1.12789-.3803.92234-.5415.17608-1.4076.0274-2.0756.0769-1.0114-.12027-2.095-.0653-3.1515-.0769-.5266.19581-1.3895.14489-1.9991.30741-.6557-.008-1.1634.13121-1.8649.0769-.6624.0995-1.4459.0778-2.2086.0769-.6755.13101-1.2601.15353-1.9725.2305-.6164.007-1.1193.12849-1.7947.0769-.8862.16424-2.0636.0374-3.0746.0769-.6349.10648-1.1756.0892-1.7681.15369-.6425.0184-1.2088.12641-1.8954.1538-.701-.0191-1.2309.13268-1.9686.0769-1.0935.16559-2.2979.0362-3.4386.0769-.5479-.12617-1.2749-.0733-1.8685-.1538-.5645-.0159-1.035-.12602-1.6645-.0769-.4771-.16478-1.3015.0178-1.7718-.15381-.9332.0543-1.6416-.11622-2.5601-.0768h-4.9723c-.4254-.17903-1.1843-.0245-1.7363-.0769-.9238-.0164-2.0281.0317-2.8486-.0216-.7452-.1298-1.5585.0108-2.1791-.28576-.9936-.18186-2.2557-.50231-2.1704-1.3072z" id="path489" stroke="#000" stroke-width=".69999999"/>
    <g id="g499" fill="#bca76b" stroke="#472b1f">
      <path d="M1316.1669 293.47955c1.1922 4.41736 6.806 3.76114 6.636-.2586" id="path491" stroke-width=".33019701"/>
      <path d="M1321.3118 293.3447c1.5645 5.07624 8.8603 4.33427 8.6258-.28314" id="path493" stroke-width=".40348601"/>
      <path d="M1327.4687 293.33313c1.5574 3.72382 4.4007 4.06179 6.7124-.28644" id="path495" stroke-width=".34550399"/>
      <path d="M1335.8136 291.69098l-20.4885.69481.025 1.15687 20.6526-.59817z" id="path497" stroke-width=".33447599"/>
    </g>
    <path d="M1321.7456 301.60588c-1.7966 1.5722-5.1902 3.6277-6.679 3.42744" id="path501" fill="none" stroke="#000" stroke-width=".49999899"/>
    <path d="M1318.0786 295.92739c-4.4392 16.83893-10.1751 34.71-15.6021 48.98093" id="path503" fill="none" stroke="#000" stroke-width=".49999899"/>
    <g id="g523" fill="#bca76b" stroke="#472b1f">
      <path d="M1315.932 306.20819c1.2257 4.74496 6.9972 4.04007 6.8224-.27778" id="path505" stroke-width=".34699401"/>
      <path d="M1320.8212 306.11407c1.6085 6.36217 9.1092 5.43223 8.8681-.35486" id="path507" stroke-width=".458009"/>
      <path d="M1327.5609 306.0573c1.7751 3.98228 5.0156 4.34372 7.6502-.30632" id="path509" stroke-width=".38143301"/>
      <path d="M1336.1077 303.80491l-21.0201.92023.024 1.53221 21.1887-.79224z" id="path511" stroke-width=".389898"/>
      <path d="M1314.8278 318.35334c1.3279 5.81027 7.5811 4.94714 7.3917-.34016" id="path513" stroke-width=".39967701"/>
      <path d="M1320.5701 318.28794c1.8623 8.5617 10.5461 7.31025 10.2669-.47754" id="path515" stroke-width=".57168603"/>
      <path d="M1327.4167 318.16073c1.7348 4.89806 4.9019 5.34261 7.4768-.37676" id="path517" stroke-width=".41820499"/>
      <path d="M1336.7017 316.00078l-23.9324.9139.028 1.52165 24.1241-.78679z" id="path519" stroke-width=".41459101"/>
      <path d="M1314.4013 332.53056c1.4381 6.29218 8.2099 5.35746 8.0048-.36834" id="path521" stroke-width=".43282601"/>
    </g>
    <path d="M1332.1084 335.80522c1.3831 5.98119 3.1852 11.44788 4.9215 16.54582" id="path525" fill="none" stroke="#000" stroke-width=".49999899"/>
    <path d="M1330.3061 335.59726c.7574 5.75549 2.3548 11.32731 4.0205 16.7195" id="path527" fill="none" stroke="#000" stroke-width=".49999899"/>
    <g id="g541" fill="#bca76b" stroke="#472b1f">
      <path d="M1320.6074 332.33849c1.7281 8.34534 10.4789 7.63706 10.4051-.4033" id="path529" stroke-width=".52889401"/>
      <path d="M1328.0342 332.322c1.8788 5.30428 5.3085 5.78571 8.097-.408" id="path531" stroke-width=".45289001"/>
      <path d="M1338.0693 329.69385l-26.6624 1.09369.032 1.82099 26.8759-.94156z" id="path533" stroke-width=".47871"/>
      <path d="M1329.3748 299.69337l-7.6532.20264.024 1.70987 7.713-.0237z" id="path535" stroke-width=".20865799"/>
      <path d="M1329.3748 312.09331l-7.6532.20263.024 1.70987 7.713-.0237z" id="path537" stroke-width=".20865799"/>
      <path d="M1329.8663 325.59647l-8.1417.20197.024 1.70424 8.2053-.0237z" id="path539" stroke-width=".214857"/>
    </g>
    <g id="g571" fill="none" stroke="#000">
      <g id="g559" stroke-width=".49999899">
        <path d="M1332.8648 337.54652l-4.3648.90696" id="path543"/>
        <path d="M1333.558 340.87382l-4.3648.90697" id="path545"/>
        <path d="M1334.5284 344.48422l-4.4341-.21377" id="path547"/>
        <path d="M1335.8454 347.95015l-4.5727.68738" id="path549"/>
        <path d="M1315.3987 347.25116l4.5932.90696" id="path551"/>
        <path d="M1316.6673 343.50794l4.136.90696" id="path553"/>
        <path d="M1317.7832 340.62398l3.8318.98341" id="path555"/>
        <path d="M1318.4831 338.03175l3.451.67832" id="path557"/>
      </g>
      <g id="g569" stroke-width=".99999899">
        <path d="M1373.0741 353.30127c7.6505-.34147 16.7964-1.22525 22.951 1.17575" id="path561"/>
        <path d="M1373.5612 355.84874c7.0528-1.03986 15.2671-1.62761 21.2882.68585" id="path563"/>
        <path d="M1374.3433 360.94368c5.0836-1.13886 11.8881-1.40502 16.7108-.19596" id="path565"/>
        <path d="M1374.8615 362.14459c5.0836 1.13886 11.0699 1.40501 15.8926.19595" id="path567"/>
      </g>
    </g>
    <path d="M1300.4657 344.35721l16.5099 9.97657.3531-.44144-5.209-3.61982c-3.7192-2.30273-7.4564-4.56942-11.654-5.91531z" id="path573"/>
    <g id="g605" fill="none" stroke="#000">
      <g id="g601" stroke-width=".5">
        <path d="M1379.732 352.50196l-.1296-5.50572" id="path575"/>
        <path d="M1381.416 347.06102l.0001 5.63526" id="path577"/>
        <path d="M1384.5252 352.76105v-5.89435" id="path579"/>
        <path d="M1387.9581 347.361l.0002 5.65914" id="path581"/>
        <path d="M1390.0309 347.32011l.065 5.76481" id="path583"/>
        <path d="M1392.7514 347.914v5.36523" id="path585"/>
        <path d="M1394.1764 347.83829l-.065 6.0239" id="path587"/>
        <path d="M1380.4445 354.89856l-.065 5.18185" id="path589"/>
        <path d="M1378.6956 355.15765v4.92276" id="path591"/>
        <path d="M1383.2297 355.02811l-.1943 4.92275" id="path593"/>
        <path d="M1384.9138 354.96333l-.065 4.92276" id="path595"/>
        <path d="M1387.44 354.89856l-.3239 4.79321" id="path597"/>
        <path d="M1389.8366 355.54629l-.9069 4.40457" id="path599"/>
      </g>
      <path d="M1373.1896 347.34906c7.557-.89606 15.1139.18585 22.6709.93739" id="path603"/>
    </g>
  </g>
  <path d="M999.4751 257.00947c.0753-25.5577-1.35624-50.37173-.70324-72.11569-33.06843-14.6857-76.58059-17.7059-98.76993-17.7059-22.1935 0-65.70569 3.0202-98.77413 17.7059.653 21.74396-.77436 46.55799-.7032 72.11569z" id="path609" fill="none" stroke="#000" stroke-width="2"/>
  <g transform="matrix(.48584 0 0 .48584 180.7078 93.349805)" id="g1387" stroke-linecap="butt" stroke-linejoin="miter" stroke-opacity="1">
    <path d="M1468.2365 251.403s7.3535 10.93706 9.3338 16.8225c.9696 2.88171 1.3334 6.01722 1.1314 9.05097-.3692 5.5447-2.5123 10.84132-4.2426 16.12203-1.1993 3.66022-3.8373 6.43759-2.379 10.00254.7031 1.71887 1.3924 3.29347 3.2275 3.00822 1.1218-.17438 1.6582-1.55468 2.5456-2.26274.634-.50583 1.2306-1.10384 1.9799-1.41421 1.0597-.43893 2.5701.23216 3.3941-.56569.6907-.66882 1.1753-2.08487.5657-2.82842-.538-.65621-1.6977-.0326-2.5456 0-1.2284.0472-2.6073.88852-3.677.28284-1.1007-.62322-1.697-3.39411-1.697-3.39411s2.2004-6.05809 3.3941-9.05097c.986-2.47228 2.5822-4.74536 3.1113-7.35391.1687-.83159-.06-1.69919 0-2.54558.094-1.32998-.3403-2.9815.5656-3.9598.5906-.63778 2.2279.24339 2.5456-.56569 1.214-3.09148-4.4304-5.11585-5.6568-8.20244-.4579-1.15244-.162-2.50442-.5657-3.67695-.8794-2.5543-3.9598-7.07107-3.9598-7.07107z" id="path1116" fill="#69737c" fill-opacity="1" stroke="#000" stroke-width="1.5" stroke-miterlimit="4" stroke-dasharray="none"/>
    <path d="M1491.1801 259.90628s6.5282 8.14892 7.2038 13.08053c.1498 1.09337-.7318 2.11947-.7583 3.22274-.042 1.73467 1.0278 3.38514.9479 5.11847-.2569 5.57532-3.1935 10.69977-4.5498 16.11369-1.1476 4.58086-3.0331 13.83882-3.0331 13.83882l4.1706-.37915.7583-7.01419s2.1855-7.95225 3.2227-11.94309c.7209-2.77383 1.111-5.64591 2.0853-8.34121.6437-1.78086 2.0196-3.27785 2.4645-5.11847.5792-2.39624 1.2799-5.18236.1895-7.39334-.3802-.77084-1.4901-.89656-2.0853-1.51658-1.4201-1.47922-2.4937-3.28518-3.4123-5.11847-.9311-1.85836-2.0853-5.87676-2.0853-5.87676-.8688.32335-5.1185 1.32701-5.1185 1.32701z" id="path1140" fill="#66452b" fill-opacity="1" stroke="#000" stroke-width="1.5" stroke-miterlimit="4" stroke-dasharray="none"/>
    <path d="M1460.3463 245.06367l4.6579 3.71097 8.0576 4.86403 3.7163.22754 4.1969 1.51145 5.239-.16358 3.8775 3.95863 1.0886.73357 4.3057-.59593 1.5879-1.76258 8.2181-12.52955-1.9721-20.66032-39.1607 2.53559z" id="path1344" fill="#fff" stroke="none" stroke-width="1"/>
    <path d="M1502.5856 210.19217c5.2897 4.29391 10.4347 8.78925 14.5707 14.2433 3.1873 3.77393 5.1383 8.90667 9.8161 11.26717 6.5885 7.03641 34.7933 15.19567 34.888 17.39442-6.5014-2.64909-9.327 6.22201-15.6278 4.79722-5.8633 1.70278-10.6921-2.13258-15.7635-4.26516-7.6218-.27244-15.562.12258-22.3465 3.99045-3.707 2.01441-8.118-1.09431-11.0489-.0718l-.3374.63789-.4382.39359m-35.9518-13.51558c-4.5174-2.24213-7.8225-6.45138-12.0267-8.98801-3.2491-4.57532-7.4235-9.15617-7.2247-15.1779-.5107-6.22279-2.1394-14.82841.8145-20.74254-2.1227-4.63752-5.098-5.88713-7.4441-10.45705-1.6994-6.32051-8.1084-9.94694-4.2609-14.75257 4.2785-3.80239 7.273-8.29366 12.788-10.2665 4.5726-1.05992 9.2108-.6143 13.5998.95392 5.6808.66742 8.7969 5.51358 11.7941 9.71245 3.626 5.64629 6.058 12.04509 7.0696 18.71405 2.6188 5.47736 9.5822 6.5922 14.6867 8.92913 4.4001 2.08217 8.7955 3.85763 12.4425 7.2035" id="path1171" fill="#fff" stroke="none" stroke-width="1"/>
    <path d="M1533.4876 246.82279c-2.2148-.31591-7.5306 1.87906-6.1396-1.40909-5.4491-.39617-11.1729.77301-16.4164-1.05382-5.43-2.66426-11.3276-4.30357-17.1373-5.88689-5.6892-.30872-12.3931 1.00849-16.7597-3.66069-4.534-2.64803-11.1595-.73754-15.3175-4.58841-4.2028-3.57603-6.7304-8.51203-6.5716-14.03009-.8357-5.4117-2.8492-12.69265 3.2099-15.87547 3.9574-1.20099 7.7424-.17068 10.1341-4.14302 5.0379-.83146 9.6628 1.01159 14.0031 3.47072 5.0946 2.52231 10.7157 4.08393 15.6672 6.91717 4.7446 3.13172 8.7807 7.2112 13.23 10.76703 3.4938 4.00878 7.5657 7.71101 9.827 12.63341 2.6806 5.28044 8.2246 8.06207 12.9753 11.12216 2.8462.73414 9.6283 3.88584 3.1874 4.73199-1.3281.2154-2.5602.86382-3.8919 1.005z" id="path1332" fill="#000" fill-opacity="1" stroke="none" stroke-width="1"/>
    <path d="M1477.9359 229.03915c-2.7705-.37118-5.5778-.93857-7.8598-2.65535-1.7976-1.07286-6.2385-3.67821-3.3562-5.71356 2.3959-.28425 5.1336.90894 7.2717-.73904 3.219-.67407 6.6204-.73587 9.593-2.3198 2.7677-1.50424 6.0358-.49877 8.9204-1.42278 2.1484-1.14021 1.8458-5.44654 5.1272-4.71632 3.0113-.76921 2.1286 5.0103-.5579 3.17463-1.6646 2.33097 3.0026 3.11861 4.2381 4.56035 2.4859 2.82206-2.9858 3.45945-3.4732 5.55227-3.4572 1.00863-5.9889-3.33403-9.4451-2.11624-.6388 1.16008.082 3.53204-2.4225 2.95257-2.8856-1.76244-5.3869.21734-8.2315.57188.8328.63112-.9807 2.94367.1958 2.87139z" id="path1327" fill="#69737c" fill-opacity="1" stroke="none" stroke-width="1"/>
    <path d="M1537.9781 249.74769c-1.6258-.8585-3.7125-.13237-5.5157-.0248-1.2104.0149-2.4167.0777-3.5496-.43075-1.7867-.044-5.1788-1.97873-5.6982.59424.1184 1.11111 3.0429 1.58276.6201 1.93277-2.4546.35036-4.655-.76188-6.9002-1.55561-.9173-.8599-2.8641-1.9436-2.3817.13345.7787 1.79761-1.1519 2.62896-2.6975 2.57136-2.1947-.15632-4.6394-.75111-6.2334-2.34718-1.1489 1.42275 1.6195 3.42558 3.2575 3.5277 1.6342 1.38574-2.47.84105-3.4005.64674-1.3831-.23581-2.9424-.4188-4.1444.4375-1.9171.43309-1.9656 2.30372.2617 2.10013 2.1413.70298 4.5462 1.34236 6.6694.23624 2.3049-1.34575 4.7966-2.30784 7.4404-2.7581 2.0714-.45747 4.1484-.77823 6.2582-.95996 2.7939-.3201 5.6053-.28283 8.4312-.28068 2.1975 1.17399 4.3603.15698 6.3045-.875 1.199-.37039 4.8231-1.73733 2.1841-2.7803-.3312.1165-.6065-.41912-.9059-.16773z" id="path1258" fill="#69737c" fill-opacity="1" stroke="none" stroke-width="1"/>
    <path d="M1530.4692 253.62912c1.0846.0126 2.1567-.0131 3.1217-.53515 1.0577-.58639 2.2136-.77629 3.3391-1.18596 1.4438.0156 2.1108-1.93257.5879-2.33535-.7967-.52852-1.7428-.90567-2.5734-1.27545-.8593-.74355-2.1221-.97395-2.8949-1.74945.6501-.81042 1.213-1.68537 1.8665-2.49109 1.0108-.40488 2.2357-.24724 3.317-.51939.7996-.25463 1.6462-.13054 2.4705-.16022 1.1229.57033 2.3434.94541 3.4152 1.57683 1.108.60334 2.2672 1.15498 3.5071 1.53228 1.0256.31403 2.0121.68167 2.9828 1.08549 1.1286.57295 2.4165.75991 3.6067 1.16016 1.1895.2438 1.674 1.57812 3.0889 1.3826 1.3771.23877 2.62.52438 3.6395 1.49181.7659.32088 2.1323 1.03805 2.1631 1.68243-1.1218.14678-2.0757-.85824-3.2402-.6338-.9087.1969-1.5013 1.0863-2.567.9236-.4648 1.36805-2.2416 1.15987-3.0621 2.28958-1.1536.88841-2.3982 1.68258-3.7665 2.23024-1.0679.40806-2.2467.36366-3.2873-.0954-1.2331-.33965-2.5364-.0327-3.781-.23752-1.3316.35817-2.5605.0651-3.8143-.37204-1.1037-.29635-1.941-1.10742-2.8918-1.6802-1.1425-.46529-3.2115-1.01246-4.3478-1.487-.5962-.28858-.5316-.47012-1.1799-.59696z" id="path1255" fill="#000" stroke="none" stroke-width="1"/>
    <path d="M1446.2715 163.93945c-1.1578-.0173-2.3175.001-3.4063.46485-1.907.42487-3.6004 1.5544-4.832 3.05468-1.5836 1.85508-3.43 3.46985-5.4453 4.84375-.9872.69371-1.7965 1.58765-2.3828 2.64258 1.1545.75336 2.9688.96414 3.7754-.40429 1.2476-1.54224 2.8737-2.79382 4.7304-3.5 1.6402-.32483 3.3071.3317 4.9473.50586 1.3074.7096 2.6502 1.2685 4.1523 1.48437.777.28378 2.1039.40343 3.2051.71289 1.5134.58264 3.1168.84444 4.6817 1.25391 1.7737.36472 3.5767.23614 5.3476-.0488.3973-.0461.7993-.0604 1.2012-.0723-.2535.57405-.4572 1.10449-.4199 1.37305.035 1.07789.5038 2.04754.9804 2.99219.572.93473 1.1489 1.8647 1.7071 2.7832.4571 1.0692.9873 2.10159 1.3984 3.19336.537.83082.8378 1.73577 1.2109 2.63477.2448 1.01714.6525 2.01029 1.3594 2.75195.7175.93706 1.5669 1.79158 2.2129 2.78906.5863.86242 1.0281 1.83674 1.4727 2.73828.7788.65614 1.5986 1.60898 2.6699 1.4961 1.1083.1416 2.1577-.302 3.2461-.41993-.1243-.031-.2488-.0626-.3731-.0937-1.0189-.52812-1.5254-1.57408-2.0644-2.51757-.248-1.0528-.3487-2.15224-.5371-3.18164-.07-1.04555-.4388-2.04734-.793-3.03516-.2712-.87177-.6251-1.70532-.8574-2.57617-.421-.88932-.7705-1.81767-1.0996-2.75-.3713-.97366-.6574-1.98482-1.2305-2.86328-.5267-.94179-.9421-1.9366-1.5215-2.86133-.6228-.8337-.9777-1.91775-1.6347-2.71289-.3238-.49984-.779-.76316-1.2832-.9336.2031-.49688-.01-1.16473-.5762-1.69531-.755-.89649-1.7853-1.74367-2.3594-2.90234-1.23-1.52946-3.2243-2.02087-4.9316-2.81836-1.9864-.90383-4.1364-1.33359-6.2637-1.75196-1.6724-.44894-3.4011-.64796-5.1328-.5625-.383.001-.7684-.008-1.1543-.0137z" id="path1245" fill="#000" fill-opacity="1" stroke="none" stroke-width="1"/>
    <path d="M1466.0722 191.84082c-.061-1.51866-2.1337-.92037-2.7715-.11263-1.0218 1.00671-1.594 2.41805-2.8214 3.22799-1.8078 1.31867-4.1954 1.50046-5.9927 2.83327-1.0332 1.06316-1.8257 2.42165-3.2113 3.0863-1.4182.76249-2.9603 1.62049-3.6982 3.12284-.3259 1.10374-1.0728 2.63468.084 3.51328 1.4796.55633.061 1.89995.1431 2.86222.6914 1.01642 2.3645 1.41734 3.4131.69257 1.3937-.83853 2.9074-1.61744 3.817-3.02804 1.3283-1.61557 2.8219-3.20979 4.7355-4.11741 1.2674-.31322 2.2465-1.15771 3.1106-2.07676.9084-.74446.1405-2.19149 1.5216-2.44001 1.2593-.47856 1.9277-1.66993 2.7314-2.66176.7432-1.15158-.6099-2.22788-.431-3.45724-.072-.53249-.1414-1.12138-.6301-1.44462z" id="path1239" fill="#69737c" fill-opacity="1" stroke="none" stroke-width="1"/>
    <path d="M1487.7366 312.3361c-2.5445-.00006-5.089.00009-7.6335 0-1.2629-.50788-2.1467-2.62318-3.7549-1.78344-1.3997.5376-2.7994 1.19903-4.133 1.91905-1.2918.70401-2.3838 1.63585-3.2276 2.81067-.1576.80781-2.5197 1.71755-.5301 1.74666 1.7227.13999 2.7835-1.62818 4.4442-1.86043 1.3084-.52426 2.7502-.19667 4.1212-.28799 1.1143.26713 2.3694.27625 3.5764.26788 1.356-.10444 2.6323.14582 3.9528.1129 1.9176.17147-.7097 1.34245-1.3227 1.60061-1.4996.67938-3.1663.87789-4.7701 1.23273-1.5866.0118-3.2234-.0538-4.6813.65294-1.4703.67956-2.9484 1.40118-4.3049 2.33-.7406.41073-2.6268 1.40181-.7639 1.42051 1.386.16929 2.7277-.17134 4.041-.58524 2.2873-.85884 4.6586-1.4186 7.0686-1.80037 1.5723-.35546 3.0285-1.03457 4.6186-1.32302.9709.001 3.5608-.4785 2.7467 1.2302-.9927 1.19241-2.4039 2.02584-3.8066 2.64763-1.1831.68539-2.2833 1.76323-3.7725 1.72216-1.122-.39378-3.4896.47136-1.7786 1.60657.8616 1.54664 2.6867.48646 3.8129-.0872 1.3235-.66095 2.6214-1.18219 4.0158-1.7195 1.5599-.58111 3.1603-1.1847 4.6546-1.85938 1.2469-.78764 2.8023-1.06465 3.9456-1.92992 1.3561-.79176 2.966-1.4324 3.6124-2.99802.4074-1.27216 1.3755-2.05751 2.5971-2.48175 1.39-.35078 2.8671-.13199 4.2751-.44154 1.5859-.008 1.1298-2.86897-.3338-2.94163-1.2788-.83147-2.3708-1.80949-3.6791-2.54916-1.5447-.55952-3.1722-.96112-4.8495-.80378-1.3862.0998-2.4753.97437-3.1572 2.11749-.8621 1.01031-1.0583 2.78454-2.7577 2.38546-.7674.20887-1.5203-.069-2.226-.35113z" id="path1157" fill="#66452b" fill-opacity="1" stroke="#000" stroke-width="1.5" stroke-miterlimit="4" stroke-dasharray="none"/>
    <path d="M1450.5089 321.84421s1.4448-5.33381 3.3281-7.18161c3.8255-3.75326 14.7135-6.48096 14.7135-6.48096-4.6471 1.81021-10.2197.46352-14.7135 1.75161-3.7472 1.16955-10.1594 5.95548-10.1594 5.95548s2.3756-5.0956 4.2039-7.1816c5.3925-5.89273 14.0024-6.58208 20.4938-5.60516l7.3568 1.05097s1.2541.75934.7006 1.87806c-1.158 2.34033-4.6489 3.68097-7.0064 4.80361-6.6115 3.36883-14.8098 5.99781-18.9174 11.0096z" id="path1136" fill="#66452b" fill-opacity="1" stroke="#000" stroke-width="1.5" stroke-miterlimit="4" stroke-dasharray="none"/>
    <path d="M1472.9295 303.10197c-5.9275 4.01041-19.6042 11.17687-19.0925 11.56063 0 0 11.6573-2.66641 16.9906-5.25483 1.8504-.89808 4.4447-1.54685 5.0797-3.50322.325-1.00117-.1651-2.40936-1.051-2.97774-.5428-.34824-1.3926-.18625-1.9268.17516z" id="path1134" fill="#69737c" fill-opacity="1" stroke="#000" stroke-width="1.5" stroke-miterlimit="4" stroke-dasharray="none"/>
    <path d="M1501.2275 272.03895c-1.4405-.0966-1.6461 2.53854-1.7061 3.98103-.042.99827-.049 2.77275.9478 2.84359 1.2685.0902 1.5839-2.14651 1.7062-3.41231.1136-1.17503.23-3.33332-.9479-3.41231z" id="path1138" fill="#69737c" fill-opacity="1" stroke="none" stroke-width="1"/>
    <path d="M1495.1612 310.90138c.046-1.15867-1.4248-.54029-2.0542-.33644-1.4352.32887-2.6702 1.14256-3.9268 1.86922-.9791.6414-2.0382 1.15055-3.0429 1.74514-1.9864.95077-3.781 2.25312-5.7695 3.19767-.8415.41083-1.7109.79939-2.6243.99115-.7386.14354-.4756.61243.1564.55658 1.368.29367 2.7907.13532 4.1023-.32932 1.4609-.45688 3.1202-.83277 4.528-1.42693.7569-.69062 2.3282-.93922 3.2011-1.4433.7277-.47062 2.6255-.75538 3.4114-1.11981 1.3038-.6836.772-1.62408 2.2608-1.6361.9294-.002 1.0621-1.41636.1408-1.59574-.1746-.10909-.3347-.26478-.3831-.47212z" id="path1142" fill="#69737c" fill-opacity="1" stroke="#000" stroke-width="1.5" stroke-miterlimit="4" stroke-dasharray="none"/>
    <path d="M1481.7015 323.41319c1.0503-.28721 2.1684-.23509 3.1983-.61391 1.2756-.33004 2.5301-.74014 3.7716-1.1724.5928-.2924 1.188-.58282 1.7775-.87907 1.0475-.73859 1.7633-1.84413 2.4564-2.89903.4733-.8969.9205-1.81209 1.3741-2.71734.2088-.73676-.6859-1.06242-1.1367-.5261-.6747.48434-1.2935 1.03948-1.9922 1.49306-.6787.57719-1.5017.96722-2.1344 1.59691-.7617.89804-1.1404 2.07379-1.9973 2.89716-.4028.41025-.8672.72406-1.3928.95348-1.0787.5906-2.2784.90642-3.3738 1.46074-.1964.115-.406.22582-.5507.4065z" id="path1149" fill="#69737c" fill-opacity="1" stroke="#000" stroke-width="1.5" stroke-miterlimit="4" stroke-dasharray="none"/>
    <path d="M1496.0026 246.14216c.4295.68362.6657 1.50198.7067 2.30248.1257.98021.3674 1.94296.4962 2.91976-.065 1.01751-1.1262 1.63247-1.295 2.63506-.062.67002.041 1.35449-.1187 2.02189-.2407 1.08773.1073 2.22771-.306 3.289-.5141.9916-1.9849.24136-2.8955.49962-.8859.20574-1.965.25002-2.4988-.63726-.7559-.81061-1.4195-1.70972-2.2694-2.42855-1.0259-1.00058-2.0902-2.00121-2.7626-3.28662-.6154-.86236-1.1366-1.78074-1.7282-2.65659-.1991-.37004-.4052-.83612-.5555-1.15322" id="path1163" fill="none" stroke="#000" stroke-width="1.5" stroke-miterlimit="4" stroke-dasharray="none"/>
    <path d="M1486.214 255.21408c-.872.006-1.7215.28013-2.6247.16361-.8714-.00007-1.7429.00096-2.6143-.00003-.6404-.2599-1.8974-.26459-2.506-.68198-.7158-.14027-1.0612-.56589-1.6909-.82947-.4639-.33293-.889.0243-1.4705-.0657-.3947-.72273-1.2502-1.63004-1.7202-2.1309-.4998-.26047-1.0542-.44618-1.442-1.00329-.5372-.1323-.9522-1.0147-1.1583-1.29914-.4042-.4735-.5179-1.10252-.9105-1.61563-.3716-.54126-.506-1.0659-.8921-1.636-.075-.11971-.022-.27385 0-.39714" id="path1165" fill="none" stroke="#000" stroke-width="1.5" stroke-miterlimit="4" stroke-dasharray="none"/>
    <path d="M1475.3076 253.80052c-.1969 1.25326-1.6132-.0156-2.2458-.16185-.5209-.2582-.9882-.56208-1.5933-.75306-.4393-.33658-1.0301-.56818-1.4876-.77949-.5425-.33974-1.2347-.55879-1.6462-.98473-.7787-.17674-1.3537-.9413-2.0941-1.14622-.6723-.63562-1.4253-1.10328-2.1665-1.5967-.7715-.61098-1.645-1.14286-2.3852-1.89787-.7031-.60937-1.2993-1.25816-1.3552-2.18915-.062-.88989-.3115-1.75418-.6295-2.4188.088-.47336-.2575-.63796-.1801-1.06558" id="path1167" fill="none" stroke="#000" stroke-width="1.5" stroke-miterlimit="4" stroke-dasharray="none"/>
    <path d="M1533.5081 254.48737c.8171.0479 1.6182-.012 2.3993-.20916.8236-.047 1.5795-.37662 2.3673-.56298.8196-.34572 1.4853-1.16388 2.4507-1.08423.8707-.047 1.8448.26474 2.6209-.2724.4891-.66784 1.1871-.90446 1.9861-.76699.811-.11798 1.5853.14817 2.3684.31041.7291.26139 1.486.42223 2.2163.67833.7035.36758 1.3934.78508 2.1349 1.06914.7353.37613-.517.89355-.7508 1.26649-.7356.30462-1.6307.0237-2.285.59722-.6746.35967-1.2824.84399-1.5968 1.55699-.3952.81614-1.3858.58204-2.1005.84432-.707.1024-1.4278.005-2.1373.12186-.6042.0201-1.2533.23746-1.8158-.0608-.7581-.23571-1.5446-.41295-2.3407-.43287-.6204-.4269-1.1172-1.11788-1.9288-1.18054-1.0934-.24719-1.9939-.97037-3.0519-1.3201-.2559-.0924-.4393-.30644-.5363-.55471z" id="path1187" fill="#bca76b" fill-opacity="1" stroke="none" stroke-width="1"/>
    <path d="M1435.0301 183.94967c-1.8108-.3822-3.5868.46315-5.4073.42709-1.6696.37369-3.4263.10014-5.1351.18362-1.7835-.32322-3.6992-.15975-5.5131.12735-2.6982.43838-5.2629 1.49785-7.9789 1.90834-3.6689.2361-7.3781.0351-11.0627.10183-2.5836.2172.2538-3.12927 1.718-2.99052 3.3608-.90558 6.6419-2.12447 10.1267-2.46392 2.5898-.38317 5.1062-1.17175 7.6763-1.626 2.0822-.59242 4.1861-1.05959 6.2626-1.66041 2.1579-.36263 4.3349-.77262 6.5169-.3991 2.252-.55854 4.5063-1.08991 6.653-2.00516 1.9535-.96987 4.2914-.3222 6.1236-1.52869 1.1584-1.71057 3.3261-1.65006 5.1687-1.49355 1.9585.36059 4.1032 1.07837 5.3027 2.81594 1.4414 2.08765-2.9683 1.8174-1.6484 4.00427-.7812.80572-2.2836.99473-3.4797.93461-1.0326-.061-2.1234.20896-3.0576-.35067-1.6751-.59055-2.9505-1.88419-4.4897-2.76816-1.5783-.24445-1.6579 2.66702-3.6536 2.35543-2.5247.96702-5.2846.72052-7.9393.7634 1.6721.61067 3.4982 1.20657 4.8347 2.38118.5228.81025-.4056 1.11645-1.0178 1.28312z" id="path1181" fill="#000" stroke="#000" stroke-width="1"/>
    <path d="M1445.7177 176.62107l1.6794-.76339.9161-1.52679s1.4425 2.16702.7634 2.9009c-.7729.83524-3.3589-.61072-3.3589-.61072z" id="path1185" fill="#fff" stroke="none" stroke-width="1"/>
    <path d="M1450.1788 172.53055c.3444-.26278-1.3917-1.33827-.097-1.62294 1.3709-1.64192 3.5264-.28969 5.118.21382 3.0668.96852 6.2926 2.16281 8.3362 4.78905 2.9423 3.39616 3.6039 8.0409 5.9351 11.79281.9995 1.79519 1.6385 3.7556 2.2991 5.68686.4845 1.53874 2.8345 3.13647 1.6074 4.79148-1.4424.87801-2.9092-.29727-4.2724-.65307-1.848-.19231-.9502 1.87182.2605 2.11201 1.3121.5222 1.7192 2.61229-.1588 2.49238-1.7934-.2134-3.5763-.35033-5.3326-.62569-1.4-.75914.375-2.15962 1.1593-2.66927 1.0491-.63061 2.4373-1.46947 2.2319-2.89924.022-2.58588-1.7679-4.70533-2.1582-7.21128-.4667-1.87654-.9146-3.78975-1.8484-5.50042-.8083-4.03039-4.4285-6.80762-8.1504-8.04225-1.5937-.81885-3.2942-1.52602-4.8192-2.42149-.037-.0776-.074-.15517-.1107-.23276z" id="path1191" fill="#fff" stroke="none" stroke-width="1"/>
    <path d="M1463.5923 174.55247c.535.29606 1.0561.62115 1.5999.89706.4313.44429 1.4231 1.94416 1.7334 2.4795.2091.44133.3105.90963.4175 1.38433.094.60611.5652 1.02393.8876 1.50974.2952.68863.5157 1.41065.7868 2.10886.3595.54427.7144 1.10236.8473 1.75159.1286.54933.2867 1.08133.5099 1.59734.3036.43625.4683 1.29735-.2874 1.3371-.4986-.12762-1.0266-.38363-1.3237-.83404-.5792-.52611-.8884-1.26531-1.3415-1.89239-.2697-.43947-.4383-.97341-.5461-1.43623-.3098-.54047-.3859-1.18211-.6051-1.76038-.2727-.54702-.3692-1.15574-.6887-1.67931-.3525-.59442-.4819-1.28527-.8596-1.86727-.3167-.7035-1.4689-2.44398-1.1967-3.25406.026-.11322.051-.22665.066-.34184z" id="path1193" fill="#bca76b" fill-opacity="1" stroke="none" stroke-width="1"/>
    <path d="M1451.5195 170.05587c-.4186-.13749-.7224-.45962-1.0032-.77898-.3217-.18954-.9037-.39188-1.1344-.61984-.7819.31117-.1381-.51451-.5235-.38981-.1801-.29943-.1579-.51779-.3461-.8383-.2436-.28465-.5556-.50632-.7805-.80654.016-.16538-.3298-.38184.014-.37988.4151-.0134.8557-.0546 1.2327.14144.409-.0722.7219.2359 1.1259.17254.5732-.0424 1.1484.01 1.723-.0156.2777-.0991.3189.26091.6164.15891.1996.0373.2566.20756.4857.13256.4676.0225.534.51429.7863.78463.347.21381.4981.59467.583.94869.078.092.1526.513.1234.41995.049-.0924.054.40981-.1662.39002-.2847.29667-.6911.33314-1.0088.52002-.4057.0334-.7114.39474-1.125.31-.2046-.034-.3992-.10964-.6024-.14983z" id="path1195" fill="#bca76b" fill-opacity="1" stroke="none" stroke-width="1"/>
    <path d="M1450.5163 169.27689c-.5844.25566-1.22.48933-1.8684.39615-.4288.096-.7505.41689-1.0664.69732-.3724.23819-.8217.31235-1.246.39505-.3492-.0724-.6133-.35292-.9608-.44691-.3019-.11623-.2893-.52456-.6152-.62222-.3257-.22481-.6903-.36422-1.0528-.51517-.3119-.13422-.2066-.51497-.2445-.78618-.01-.30859.035-.61957.1552-.90406-.015-.43512.3725-.59946.7495-.51478.7113.006 1.4226.001 2.1339.003.3532-.18677.7553-.38864 1.1653-.3229.3943.13078.5872.53856.9065.77719.6582.60364 1.2936 1.23171 1.9437 1.84371z" id="path1210" fill="#fff" stroke="none" stroke-width="1"/>
    <path d="M1453.7158 167.617c.4713-.2412.9851-.47541 1.5066-.54353.5258-.0234 1.0097.20089 1.5136.30731.5438.16387 1.0928.29892 1.5847.59517.5713.18683 1.0743.49877 1.6233.74612.4935.26903.9783.56229 1.4864.8036.4662.22889.9223.49228 1.3415.79652.4501.35516.8998.73244 1.2378 1.19822.3165.35954.01 1.03203-.4696.65487-.4718-.31041-.9986-.4989-1.5307-.67888-.4931-.0719-.9716-.15329-1.419-.38738-.517-.0995-.9884-.43697-1.5149-.57033-.668-.30812-1.3769-.50802-2.0401-.82417-.2849-.2159-.6626-.25017-.9703-.43641-.6145-.32602-1.2475-.61499-1.8634-.93691-.1881-.20085-.5704-.39257-.4859-.7242z" id="path1212" fill="#fff" stroke="none" stroke-width="1"/>
    <path d="M1461.3377 178.46656c-2.0568-.16182-4.1175.79524-6.1513.1431-1.5341-.20576-2.7344.9546-4.0579 1.5054-1.7131-.16863-2.0668 2.28583-3.5877 2.16428-1.303-.15579-2.8555-1.16337-4.0363-.69785 2.6496 1.17443 5.3552 2.35291 7.712 4.06817 1.2823 1.18965 2.7387 2.23069 4.4274 2.74683 1.1463.49242 2.4779 1.6381 1.9624 3.02367-.5144 1.62127-2.9372 1.90698-3.0328 3.74219-.2745 1.60854-2.0429 2.29371-2.6138 3.74762-.6245 1.12921-2.0758 1.8071-2.1876 3.19088.349 1.72492 2.3559.42413 2.3014-.84389.3002-1.10471 1.2829-2.81318 2.6518-2.10873 1.1186 1.5809 2.4908-1.10883 3.8346-.4643.6208.932 2.0616 1.42012 2.6846.18644.909-.35707 2.3409-.95077 1.4738-2.24592-.029-1.3285 1.6122-1.23857 2.3579-1.9935 1.0397-.46993 2.1306-1.8154.996-2.79013-1.0201-1.41837.075-3.44539-1.2014-4.7617-.9693-1.50989.028-3.39713-.7789-4.96173-.6856-1.29669-1.2234-3.13235-2.6063-3.69452z" id="path1232" fill="#000" stroke="none" stroke-width="1"/>
    <path d="M1516.61 234.48466c-2.3528-.0427-4.2496 1.75654-6.5778 1.92328-2.8178.39504.7346 1.67033 1.6038 2.28207 2.2404 1.48587 4.9086 1.99775 7.3978 2.86383 2.3305 1.11086 4.9615 1.79986 7.5314 1.35002 2.3945-.56124.6202-2.93821-.05-4.25399-1.4329-2.04935-3.8654-3.088-5.6639-4.77556-1.3023-1.15733-3.2549-.7396-4.2417.61035z" id="path1253" fill="#69737c" fill-opacity="1" stroke="none" stroke-width="1"/>
    <path d="M1515.0199 239.4825c-.8634.10585-1.7089.38688-2.5889.28899-1.0081.088-2.0819.29661-3.0098-.25249-1.0469-.26606-2.1179-.47063-3.0575-1.03909-.7258-.48023-1.7066-.67606-2.1402-1.499-.6154-.87414.6321-.94836 1.207-1.0454 1.0495-.21178 2.1632-.41753 3.2269-.19964 1.1571.59738 2.4241.91414 3.5765 1.51801.9548.41849 1.9095.8975 2.6118 1.6719-.01-.0297.1605.35623.1742.55672z" id="path1264" fill="#fff" stroke="none" stroke-width="1"/>
    <path d="M1526.5628 238.78171c.1587 1.00532-1.6187.0501-2.251.38234-1.2057.16903-2.2601-.20703-3.3616-.67355-1.7488-.82817-3.5249-1.64332-5.4113-2.06611-.8764-.22818-2.6642-1.03573-1.3742-2.03775 1.0142-.7821 2.3239-1.4099 3.5681-1.57266 1.3311-.0711 2.4744.81583 3.699 1.2531 1.2292.59508 2.5263 1.11002 3.5956 1.99562.7624.63541 1.6304 1.61197 1.5354 2.71901z" id="path1266" fill="#fff" stroke="none" stroke-width="1.17705703"/>
    <path d="M1494.6665 227.39136c-1.7102 1.02704-3.671 1.5075-5.6583 1.45526-1.7681.65224-4.7946-.9425-5.4212 1.40326-.8527 1.90844 1.4466 2.71631 2.6719 3.55265 3.5976 2.07716 7.8391 1.97135 11.857 2.14585 1.0983.0684 4.5798-.41367 2.7351-1.75876-2.0137-1.53842-3.5119-3.58959-5.1171-5.5174-.4008-.38586-.8395-.75757-1.0674-1.28086z" id="path1270" fill="#69737c" fill-opacity="1" stroke="none" stroke-width="1"/>
    <path d="M1514.8184 228.70123c-.8042-.1186-1.5645-.45522-2.3367-.68388-1.0641-.35604-1.9668-1.06392-2.983-1.55917-1.3684-.77818-2.7114-1.61725-4.1298-2.28837-.6928-.2442-.5612-.99713.1989-.90536.7564.0235 1.0173-1.18167 1.753-.39415.929.56079 1.8044 1.18929 2.5205 2.01789.8618.71125 1.6675 1.58463 2.7983 1.85005.8082.45094 2.1218.89352 2.1784 1.96299z" id="path1272" fill="#69737c" fill-opacity="1" stroke="none" stroke-width="1"/>
    <path d="M1512.0979 232.42934s-3.6452.94855-5.3423.25036c-1.2495-.37238-2.5377-.61509-3.7026-1.22988-1.4229-.71478-2.9618-1.35745-4.0816-2.53052-.9024-1.13604.2159-2.92916 1.6623-2.46083.8877-.2512.5222-2.2813 1.8771-1.37878 1.8617.84078 3.7236 1.76068 5.3244 3.03892.9656.92114 2.0493 1.72077 2.9696 2.68216.4565.51989 1.2931 1.62857 1.2931 1.62857z" id="path1274" fill="#69737c" fill-opacity="1" stroke="none" stroke-width="1"/>
    <path d="M1484.9072 206.80711c2.4341.62413 5.2598 1.76195 6.7494 3.90708 2.1383 2.60019-2.034 4.01753-3.9223 2.54782-3.0949-1.51647-6.2114-3.07581-9.5327-4.01846-3.1785.40995 1.4084 2.25019 2.2966 3.08799 1.4014.83254 2.6054 2.4283 2.5848 4.024-2.0954 1.62653-4.7855-.11045-7.091-.33541-2.5234-.29275-3.9334-2.49849-5.5243-4.18698-1.152-1.20108-2.4893-1.91787-4.0311-1.21803-.001 2.11335 1.5399 2.63684 2.5158 4.41952.8628 1.07346 4.2065 3.80229.9783 3.82326-2.355-.64572-4.5294-2.19414-5.7873-4.34334-1.4404-1.48469-2.5642-4.57152.3988-4.96098 2.5504-1.53599 5.5438-2.29308 8.5203-2.28904 3.2387-.29871 6.5234.22398 9.7027-.62095.4467.13594 2.507-.9281 2.142.16352z" id="path1296" fill="#69737c" fill-opacity="1" stroke="none" stroke-width="1"/>
    <path d="M1460.2821 208.65688c-.4006.69382-.6906 1.3613-.6948 2.09516-.048.88365.041 1.69739.1186 2.51444.226.65524.3964 1.41306.6677 2.04131.3962.74873 1.0266 1.19795 1.6304 1.71959.4953.54368 1.0024.82441 1.6304 1.17056.4816.29098.9588.47506 1.5023.66015.4827.2138 1.2545.42026 1.9092.55081.719.12339 1.2294.0121 1.5202-.59361.7303-.46111.1376-.84771-.3575-.99758-.5611-.10601-1.0517-.55764-1.5527-.97933-.5388-.48551-.937-1.03937-1.2827-1.65506-.2033-.55191-.5858-1.06289-.9571-1.59359-.371-.43783-.6599-.88216-1.1554-1.32597-.5477-.49544-1.0342-1.0226-1.4647-1.58059-.3515-.48496-.8917-1.1026-1.3311-1.56914-.099-.13284-.1939-.28475-.1828-.45715z" id="path1298" fill="#fff" stroke="none" stroke-width="1"/>
    <path d="M1481.6701 217.09649c-1.3537-.12782-3.5262-.69631-5.1436-1.16255-1.8247-.63514-3.5119-1.71971-4.6482-3.30059-1.3555-1.25767-2.6777-2.59787-4.2542-3.57831-1.6456-.4995-2.3203 1.81553-1.2697 2.82056.8997 1.44095 2.2172 2.56638 3.2327 3.92763 1.1869 1.2546 2.6621 2.16816 4.1781 2.98199 1.9157 1.17636 4.2238 1.54432 6.4318 1.68903 1.2855-.16101 2.8315-.95034 3.1542-2.2997.099-.86948-1.0463-1.05508-1.6811-1.07806z" id="path1300" fill="#fff" stroke="none" stroke-width="1"/>
    <path d="M1476.9301 227.96392c-1.1797.21511-2.4911.22204-3.4898-.53988-1.0053-.49577-1.6927-1.48816-2.2943-2.40415-.8199-.95943-1.7691-1.98107-3.0161-2.35012-1.1028-.31406-2.4318.45793-2.0841 1.71266.1517 1.04358.9484 1.86278 1.6557 2.58929 1.1744 1.16555 2.7652 1.68253 4.2485 2.33026.7417.39677 1.6444.48203 2.4788.49708.8521-.0134 2.2084.3075 2.4981-.77344.042-.35333-.028-.70814 0-1.0617z" id="path1304" fill="#fff" stroke="none" stroke-width="1"/>
    <path d="M1488.838 224.49559c1.0096.44208 1.7098 1.73936 1.0465 2.74773-.7522 1.06786-2.1148 1.69497-3.4232 1.52639-1.1038-.0381-2.2196.12419-3.2985-.19526-1.2296-.37174-2.3784-.93333-3.5001-1.54399-1.2446-.413-1.3803-1.87319-2.2026-2.71317-.5103-.95078 1.203-1.41074 1.9135-1.13788 1.2028.3888 1.9324 1.52887 3.0963 1.96202.9222.48483 1.8551.94719 2.9104 1.06122.8928.21207 2.0798.39771 2.6629-.51022.2186-.42559.5058-.81539.7948-1.19684z" id="path1306" fill="#fff" stroke="none" stroke-width="1"/>
    <path d="M1499.2394 221.89072c.8729.91409.3364 2.63641-.8965 2.92366-1.0171.211-2.1035.4491-3.1241.10958-1.5122-.3655-2.8535-1.18645-4.1503-2.01128-.7812-.65183-2.0061-.87708-2.5825-1.78412-.3509-1.23446 1.002-2.21648 2.148-1.77627 1.6475.53912 3.4084.74536 4.9424 1.60728 1.1134.47332 2.2477.97219 3.4576 1.01203z" id="path1308" fill="#fff" stroke="none" stroke-width="1.11422992"/>
    <path id="path1342" d="M1502.5856 210.19217c5.2897 4.29391 10.4347 8.78925 14.5707 14.2433 3.1873 3.77393 5.1383 8.90667 9.8161 11.26717 6.5885 7.03641 34.7933 15.19567 34.888 17.39442-6.5014-2.64909-9.327 6.22201-15.6278 4.79722-5.8633 1.70278-10.6921-2.13258-15.7635-4.26516-7.6218-.27244-15.562.12258-22.3465 3.99045-3.707 2.01441-8.118-1.09431-11.0489-.0718l-.3374.63789-.4382.39359m-35.9518-13.51558c-4.5174-2.24213-7.8225-6.45138-12.0267-8.98801-3.2491-4.57532-7.4235-9.15617-7.2247-15.1779-.5107-6.22279-2.1394-14.82841.8145-20.74254-2.1227-4.63752-5.098-5.88713-7.4441-10.45705-1.6994-6.32051-8.1084-9.94694-4.2609-14.75257 4.2785-3.80239 7.273-8.29366 12.788-10.2665 4.5726-1.05992 9.2108-.6143 13.5998.95392 5.6808.66742 8.7969 5.51358 11.7941 9.71245 3.626 5.64629 6.058 12.04509 7.0696 18.71405 2.6188 5.47736 9.5822 6.5922 14.6867 8.92913 4.4001 2.08217 8.7955 3.85763 12.4425 7.2035" fill="none" stroke="#000" stroke-width="1.5" stroke-miterlimit="4" stroke-dasharray="none"/>
  </g>
</svg>
