<svg viewBox="0 0 12 6" xmlns="http://www.w3.org/2000/svg" xmlns:xlink="http://www.w3.org/1999/xlink">
  <path d="M0 0h12v6H0z" fill="#f00"/>
  <path d="M0 0h12v4H0z" fill="#005ce5"/>
  <path d="M0 0h12v2H0z" fill="#fff"/>
  <g transform="matrix(.021 0 0 .021 -.106483 3.477988)">
    <path d="M147.9129657-115.51830148c-.63940112.00101428-1.27708795.01410944-1.91312242.0325522-12.3695485.32062674-23.98248701 3.5149609-32.25148747 7.410672l.00092857.01116185c-.90418532.3779026-1.78988027.75675283-2.63205165 1.13559828l2.84224569 44.5189032c1.96929829 23.2644435 17.13054038 36.80980433 33.97581096 42.12866447 16.84527058-5.31886014 32.00558887-18.86422097 33.97487764-42.12866446l2.82643625-44.37753735c-.84389042-.43681655-1.72881394-.86024747-2.63205165-1.27696414l.00092857-.01116184c-8.69100757-4.09452903-21.07463694-7.42025768-34.14972902-7.44229088-.00964757-.00001905-.0191856-.00091905-.02883317-.00093333-.00466664.00000952-.00928566-.00000476-.0139523 0z" fill="#005ce5" fill-rule="evenodd" stroke-width="2.100012"/>
    <path d="M147.93437-84.711566l-8.31445 16.236187-5.37524-6.98291-14.04559 18.561778c.25384 1.15219.55195 2.264368.87746 3.350324 1.56869 2.647443 4.58316 5.669782 8.44944 5.66978 3.06807 0 6.13613-2.454448 9.20419-2.45445 3.06807 0 6.13613 2.454452 9.20419 2.45445 3.06806 0 6.13612-2.454448 9.20419-2.45445 3.06806 0 6.13612 2.454452 9.20419 2.45445 3.83134 0 6.82572-2.966174 8.40649-5.596146.3374-1.115063.64046-2.263565.90201-3.448503l-14.02719-18.537233-5.37524 6.98291zm-9.20419 36.835159c-3.06806 0-6.13612 2.454452-9.20419 2.45445-2.42818 0-4.51412-.86-6.12998-2.080147.57062 1.211079 1.17422 2.388922 1.8347 3.503728 1.26575.787052 2.70426 1.319269 4.29528 1.319267 3.06807 0 6.13613-2.454452 9.20419-2.45445 3.06807 0 6.13613 2.454454 9.20419 2.45445 3.06806 0 6.13612-2.454452 9.20419-2.45445 3.06806 0 6.13612 2.454454 9.20419 2.45445 1.56857 0 2.98703-.52035 4.24006-1.288587.66018-1.111198 1.26336-2.284992 1.8347-3.491455-1.6082 1.197358-3.67487 2.037194-6.07476 2.037194-3.06807 0-6.13613-2.454448-9.20419-2.45445-3.06807 0-6.13613 2.454452-9.20419 2.45445-3.06806 0-6.13612-2.454448-9.20419-2.45445zm0 5.197298c-3.06806 0-6.13612 2.454454-9.20419 2.45445-.66657 0-1.30044-.07808-1.91447-.196356 5.30791 7.091078 12.54952 11.837649 20.31671 14.56716 7.75116-2.725014 14.98132-7.474976 20.28603-14.554888-.6005.11285-1.22106.184084-1.87151.184084-3.06807 0-6.13613-2.454446-9.20419-2.45445-3.06807 0-6.13613 2.454454-9.20419 2.45445-3.06806 0-6.13612-2.454446-9.20419-2.45445z" fill="#fff" fill-rule="evenodd"/>
    <g id="a" fill="#ffe500" transform="translate(0 -.00067)">
      <path id="b" d="M134.0937-109.56066h6.96082l-3.48041 6.02733" fill="#ffe500" fill-rule="evenodd"/>
      <use height="300" transform="matrix(1 0 0 -1 .0003 -215.1037)" width="600" xlink:href="#b"/>
    </g>
    <g fill="#ffe500">
      <use height="300" transform="translate(20.7203)" width="600" xlink:href="#a"/>
      <use height="300" transform="translate(10.3603 13.875)" width="600" xlink:href="#a"/>
    </g>
  </g>
  <path d="M2.9997654 1.0520894c-.0138627.00002-.0276778.000311-.0414648.000723.013787-.000368.0275957-.000702.0414648-.000723zm-.7174805.156543c-.0189939.0079383-.0375825.0158896-.0552734.0238476l.0596875.9349219c.0413555.48855608.3597239.77299081.7134766.88468751.3537527-.1116967.6721212-.39613143.7134765-.88468751l.0593555-.9319531c-.0177228-.0091738-.0363042-.0180649-.0552734-.0268164l-.0553907.9278125c-.0383911.47499554-.3339281.75154029-.6623242.86013669-.3283961-.1085964-.6239526-.38514115-.6623437-.86013669z" fill="#f00" fill-rule="evenodd" stroke-width="2.100012"/>
</svg>
