<svg xmlns="http://www.w3.org/2000/svg" xmlns:xlink="http://www.w3.org/1999/xlink" viewBox="0 0 1200 600">
  <path d="M0 0h1200v600H0z" fill="#006d21"/>
  <path d="M0 200h1200v400H0z" fill="#fff"/>
  <path d="M0 400h1200v200H0z" fill="#df0000"/>
  <g fill="#fff" fill-rule="evenodd">
    <path d="M380.943228 47.7324c-1.0308 13.9068-2.268 38.3796 9.5484 40.89 14.292 1.374 6.4116-24.1896 11.5848-28.8252.978-2.2908 2.7816-2.3028 2.9304.5868v21.684c-.1308 7.0512 4.5048 9.1284 8.106 10.5852 3.7476-.2892 6.2496-.1644 7.7184 3.4824.5856 12.5028 1.1724 25.0056 1.758 37.5084 0 0 8.6916 2.4876 9.1056-21.0972.4152-13.848-2.766-25.44-.9012-28.134.066-2.6472 3.4464-2.8056 5.7912-1.5156 3.7356 2.6352 5.4 5.8896 11.2056 4.5876 8.8344-2.4336 14.1444-6.7308 14.2752-13.5144-.516-6.4464-1.2384-12.894-4.032-19.3404.39-1.1724-1.7052-4.2096-1.3164-5.382 1.5876 2.4864 4.0032 2.28 4.5528 0-1.5036-4.9548-3.8364-9.702-7.6188-11.7564-3.126-2.754-7.7004-2.1912-9.3756 3.552-.7764 6.618 2.3856 14.4804 7.2048 20.8908 1.0236 2.5044 2.4612 6.666 1.8288 10.4136-2.5644 1.4628-5.1288.8532-7.2768-1.4148 0 0-7.032-5.274-7.032-6.4464 1.866-11.9472.414-13.302-.6204-16.6176-.7224-4.5768-2.8944-6.0444-4.6536-9.1704-1.7592-1.8648-4.1388-1.8648-5.2764 0-3.108 5.388-1.6584 16.9548.5868 22.1352 1.6224 4.7652 4.1016 7.7556 2.9304 7.7556-.9648 2.6928-2.9592 2.0712-4.41-1.0368-2.0712-6.4236-2.4864-16.008-2.4864-20.3244-.6216-5.3508-1.3044-16.764-4.8264-19.6644-2.148-2.9256-5.3328-1.4988-6.4452 1.1712-.2316 5.3112-.2556 10.6212.342 15.516 2.4156 8.5848 3.174 16.1328 4.3464 24.924.3252 11.7756-6.8088 5.1096-6.4824-.7284 1.6452-7.5828 1.218-19.518-.2436-22.5432-1.1592-3.0252-2.5272-3.7716-5.346-3.2736-2.238-.1368-7.9968 6.1512-9.6132 16.5816 0 0-1.3788 5.3688-1.9668 10.1352-.7908 5.3868-4.3368 9.1884-6.8232-.7572-2.1492-7.2288-3.4704-25.0248-7.0692-20.8572z"/>
    <path d="M419.780028 104.7864c-12.612 6.1656-24.81 11.9172-37.2168 17.8752.4536-8.436 17.694-23.664 29.4516-23.8788 7.6524.2136 5.73 2.9652 7.7652 6.0036z"/>
    <path d="M413.278428 116.448c-19.614 50.5596 45.93 57.6048 53.2548 2.0712.69-2.2788 3.4536-4.5588 3.9372-.8292-1.5204 50.2824-50.6988 53.7372-59.0556 37.9188-2.0712-3.7284-2.694-12.0168-2.9016-16.9908-1.2432-9.876-6.4224-6.078-7.2516 3.7296-.8292 5.4564-.6216 6.978-.6216 12.2268 2.6244 39.7152 65.964 22.6548 76.254-10.1532 5.4564-18.1668-.8988-31.5648 2.0712-31.4976 6.2856 6.7704 15.0564.8988 16.9908-1.4496.8292-1.1748 2.9028-1.9332 4.3524-.414 4.9032 3.5244 13.5396 1.8636 15.3336-4.3524 1.0368-6.078 1.866-12.3636 2.0736-18.8544-4.008 1.2444-6.9768 2.0712-7.2528 3.7296-.2772 1.7964-.552 3.5904-.8292 5.3868-.3444 1.728-3.8004 1.7952-3.9372-.4152-1.5192-6.9072-7.8048-7.8048-11.604 2.9028-2.556 2.0712-7.1832 2.4864-7.668-.6216.6216-7.1832-2.28-8.1516-8.0808-4.7664-1.8648-14.2284-3.7284-27.8352-5.5944-42.0636 2.418-.0696 4.6296 1.7256 6.84-1.0368-2.4204-7.5276-7.53-22.9308-10.3632-24.036-1.3812-1.6572-2.5572-.6216-4.3512-.2076-3.0384.9672-5.8716 3.5916-4.974 8.7036 3.5916 21.8256 5.9412 38.472 9.5328 60.2988.552 2.556-1.5888 5.9376-4.3512 5.5932-4.6968-3.1776-5.868-9.6-13.8828-9.3252-5.802.0696-12.4344 6.3552-13.2612 12.4356-.9672 4.8324-1.314 10.0812-.0024 14.2956 4.0776 4.9032 8.9808 4.422 13.2636 3.3156 3.522-1.4496 6.4224-4.9728 7.6668-4.1448.8292 1.0368.2052 12.6384-16.578 21.5496-10.1532 4.5588-18.2352 5.5956-22.584-2.694-2.694-5.1804.2064-24.8652-6.426-20.3052z"/>
    <path d="M496.474428 65.0556c3.9372-1.4508 22.5888-22.7928 22.5888-22.7928-.9684-.8292-1.8324-1.4508-2.7996-2.28-1.0368-.8976-.9324-1.7952 0-2.694 4.6272-2.6928 3.1428-8.5992.726-11.292-4.0068-1.7964-7.4952-1.2096-10.0512.1032-3.246 3.108-4.0044 8.0808-1.4484 11.1888 2.4876 1.1748 4.9728 3.696 3.3144 5.0772-7.6308 8.1504-28.5252 22.206-26.1072 22.6896.516.6912 13.3644.6564 13.7772 0z"/>
    <path d="M383.844828 140.5836c-6.9948 11.1432-7.6032 27.7908-3.744 32.754 2.0508 2.3448 5.4204 3.372 7.9128 2.6376 4.3944-1.9056 6.318-10.8096 5.2752-14.0664-1.4664-2.2956-2.622-2.6592-4.086-.7068-3.0924 6.2784-4.3764 1.9716-4.6476-1.5372-.474-6.654.1524-12.7824.8748-17.6352.7692-4.974-.0132-3.4536-1.5852-1.446z"/>
    <path d="M682.744428 122.7396c-6.7632-14.5572-16.1256-28.9428-19.1052-34.4688-2.9784-5.5284-25.4676-38.166-28.7784-41.8368-7.3056-8.682 11.8632 3.6156-2.4252-13.6212-5.448-4.674-5.7648-4.9584-10.2864-8.772-2.2812-1.6188-7.8504-4.5756-8.8368.3252-.4956 4.3212-.228 6.6648.498 10.2624.5568 2.3988 4.0512 6.4164 5.7696 8.7444 22.8168 30.6696 43.0488 61.6428 62.5596 100.5852 3.0804-1.464 2.4072-18.7824.6048-21.2184z"/>
    <path d="M653.058828 171.4452c-1.3296 1.4928 3.2832 7.878 9.2784 7.872 10.026-1.164 18.852-6.7956 27.024-21.6204 2.1852-3.4572 6.0264-10.8516 6.1392-16.5876.7644-33.63-1.6836-59.7984-6.7224-84.1044-.3228-2.3676-.126-5.1504.2748-5.8608.6492-.7752 2.8512.0036 4.0188-1.9116 1.7136-1.7496-4.5504-16.242-8.1216-21.8244-1.2684-2.4924-1.71-4.1568-3.8088.2928-2.208 3.6168-3.6912 9.9276-3.5172 15.8244 4.7832 33.114 6.252 62.0832 9.378 95.1984.2544 3.2028-.216 7.8564-2.3448 9.7116-7.8744 8.2224-19.2396 18.3432-31.5984 23.01z"/>
    <path d="M788.498028 171.2676c-7.1952 4.1592-7.2036 8.9436-1.386 9.1164 10.026-1.164 21.8724-1.9968 30.0444-14.334 2.1864-3.4572 4.7832-12.8064 4.896-18.5424.7644-33.63-.4392-58.7316-5.478-83.0376-.3228-2.3676-1.3704-7.8168-.9696-8.5272.6492-1.6644 3.918.1812 5.0856-1.734 1.7136-1.7496-8.4612-14.82-12.0324-20.4024-1.2684-2.4924-1.71-4.1568-3.8088.2928-2.208 3.6168-2.9796 10.1052-2.0952 15.8244 5.316 35.958 9.2736 62.9724 10.0896 94.8432-.4572 3.0252-.5712 4.656-1.9896 8.4672-3.138 4.0224-6.6144 9.0516-9.8748 11.4828-3.2592 2.43-10.2132 4.7496-12.4812 6.5508z"/>
    <path d="M793.890828 139.0332c-.0828-8.4096.1188-15.6708-.1584-21.9432-.276-6.2724-1.3848-11.3796-3.5556-15.8316-2.0544-4.7736-.7788-8.61-1.7436-13.6944-.9636-5.0832-.726-12.696-2.1828-18.7284-.3996-2.3556-1.6236-9.9-1.2456-10.6236.594-1.6836 2.856.0528 3.9612-1.8984 1.6548-1.8036-5.7396-20.9364-9.4908-26.4-1.3488-2.4492-3.798-1.6104-6.8184 2.3724-2.8008 2.6208-1.7616 8.598-.6924 14.2848 7.194 37.5432 12.5604 71.5236 11.3892 107.262-.3588 3.0384 10.6116-9.0636 10.5372-14.7996z"/>
    <path d="M740.732028 92.4636c-4.5252-.0828-14.0028-8.8056-16.7688-13.9164-1.0452-2.9316-.3744-5.7912.5472-7.4664 1.6752-1.0896 4.2528-2.3136 6.18-1.14 0 0 1.998 2.796 1.6116 3.1512 2.4708 1.1832 3.5196.5028 3.7704-.5028.168-1.7592-.7308-2.808-.7404-4.746 1.0476-5.256 7.0548-6.0732 9.3168-2.7216 1.656 2.0436 2.2632 6.3852 2.514 9.3168-.0264 1.4976-2.4516-.2592-3.8292.1008-1.3788.3612-1.71 1.9512-1.8168 3.39-.2496 3.8112-.7008 9.9264-.7848 14.5344z"/>
    <path d="M657.227628 148.356c1.2468-11.4264-.4608-31.776-.5748-38.5188-.4572-15.9288-3.0588-46.6944-4.2972-51.834-1.3956-9.6888 3.9852 1.0632 3.24-4.5684-1.7448-9.6756-7.1112-16.2336-13.4196-25.0956-2.034-2.8824-1.9656-3.4704-5.106.7068-3.4752 7.884-.4752 13.3068.4224 19.446 4.5492 20.004 7.2036 38.4108 8.4396 56.6064 1.236 18.1968 1.6152 37.8696.4872 57.0336 3.4092.1344 8.8908-5.5152 10.8084-13.776z"/>
    <path d="M809.291628 130.0536c-7.9788-13.3884-20.0196-27.888-23.2368-33.2796-3.216-5.3928-30.4224-40.4952-33.8892-44.0184-9.9528-10.4556 4.5648-1.7016-1.9056-9.7776-5.472-6.0084-7.068-7.8948-11.7516-11.508-2.3484-1.518-3.7716-4.416-4.5432.5232-.3072 4.3392-.6276 9.3588-.336 13.0164-.0168 2.0328 2.1 5.8524 3.918 8.1036 24.1308 29.6472 50.4504 59.9196 71.6388 97.9752 3.0144-1.5972 2.0124-18.6792.1056-21.0348z"/>
    <path d="M447.274428 105.3516c-.5748 1.0068-1.8528 2.3112-1.4244 3.6612.8964 1.2144 1.6116 1.4604 3.1044 1.5264 1.2948 0 3.1044.306 3.4932-.4584.6972-.768 1.2276-2.3352.6468-3.8148-1.3488-3.3708-5.1156-2.1144-5.82-.9144z" fill="#006421"/>
    <path d="M524.064828 36.2736c-7.2648 20.7636 4.1616 43.476 12.084 41.2644 5.7156 2.3664 9.3552-8.5068 11.6952-20.4192 1.6008-3.3432 2.8104-3.6996 3.6324-1.9812-.2112 15.8412 1.1376 19.35 5.2104 24.1584 9.0852 7.0092 16.6008.8952 17.19.3048l7.074-7.074c1.5744-1.656 3.6708-1.7532 5.8944-.294 2.1612 1.9644 1.8576 5.358 6.4848 7.7112 3.894 1.5576 12.2196.36 14.148-2.9952 2.5956-4.4484 3.2184-5.976 4.4208-7.6632 1.8528-2.466 5.0112-1.3692 5.0112-.5904-.2952 1.3752-2.1492 2.7516-.8844 5.2284 2.2032 1.6524 2.712.5892 4.0152.222 4.6092-2.2032 8.07-12.2292 8.07-12.2292.204-3.7296-1.8864-3.4212-3.2424-2.6532-1.7688 1.0812-1.884 1.4268-3.6528 2.508-2.2536.3348-6.6252 1.8288-8.7864-1.518-2.2068-4.0236-2.2368-9.6372-3.924-13.6956 0-.2952-2.928-6.3924-.2028-6.7824 1.3752.2556 4.3092 1.032 4.776-1.4388 1.4424-2.4084-3.0888-9.228-6.1896-12.6744-2.6916-2.9544-6.4212-3.3108-10.0212-.294-2.5212 2.3196-2.1588 4.9116-2.6532 7.368-.642 2.8212-.5052 6.2916 2.358 10.0212 2.5164 4.962 7.1076 11.352 5.6004 20.3376 0 0-2.682 4.2468-7.3548 3.6912-1.9476-.4248-5.106-1.2516-6.7932-13.7124-1.2768-9.432.3012-22.6284-3.702-28.8156-1.446-3.7356-2.502-7.3428-6.0252-.954-.9468 2.5092-5.01 6.3168-2.0628 14.148 2.4108 4.9656 3.3924 13.0464 2.298 22.0368-1.6704 2.5548-2.0412 3.42-4.2312 5.9748-3.0768 3.3084-6.4152 2.4636-8.9724 1.2288-2.3892-1.6104-4.26-2.4432-5.3508-7.5588.1968-8.154.6516-21.5016-.8388-24.3336-2.1972-4.386-5.8212-2.7996-7.3692-1.4748-7.4376 6.8004-11.112 18.2748-13.3572 27.4116-2.0628 6.6588-4.2576 4.7508-5.8008 2.064-3.7572-3.5208-4.0116-31.0536-8.5476-26.5272z"/>
    <path d="M545.937228 81.4116c3.2988-2.3364 1.7568-3.9696 6.69.9624 6.1764 10.56 10.146 24.2352 10.7412 36.3516-.2604 2.9856 1.8444 4.8756 2.8068 4.2264.5724-7.0092 17.6172-16.776 33.2472-18.204 2.3904-.5196 1.2276-5.1 1.6176-7.4364-.9372-8.6772 4.8756-16.5768 13.0236-17.2068 11.0892 1.6392 14.7804 7.56 14.9676 16.5972-1.1976 17.3496-19.2708 20.2908-29.4252 21.6744-1.5576.5892-2.2068 1.308 0 2.1576l42.5472.1932 2.1708 1.254c.2604 1.014-.6204.168-2.3004 2.934-1.6788 2.766-4.1556 9.144-4.284 13.4028-12.6768 4.0764-25.788 5.862-39.114 7.4736-4.6296 2.3412-6.924 5.4612-5.9736 8.9724 1.5576 3.894 11.8128 7.7844 11.8128 7.9692 1.9476 1.2216 4.2516 4.0716-.5508 9.912-20.754-.9132-36.8364-9.7452-42.4044-22.2108-1.6776-1.3008-3.4848-.0072-4.6428 1.6776-8.1024 10.4448-16.0752 19.8516-29.8896 24.8448-8.238 2.058-16.6716-1.2636-20.6544-6.6588-2.6664-3.0708-2.5644-6.4608-3.5436-7.1952-4.452 1.9692-42.768 18.2496-37.9116 10.6656 9.3252-9.9804 25.4688-17.3124 39.726-27.1632 1.0284-3.3 2.8992-14.466 8.5308-18.102.3252.0276-.8928 6.5568-.7704 9.3108.0636 2.2608-.1656 3.1464.3288 2.5644.9624-.6132 18.2616-14.2068 19.5984-18.3756 1.6872-2.3904.5064-8.4444.5064-8.628-3.2448-8.3616-7.7952-9.072-9.4824-13.2264-1.5192-5.5188-.8316-11.8188 2.3232-13.5744 2.8008-2.5428 6.1188-2.2284 9.1788.5508 3.4944 3.1296 6.5976 9.246 7.4952 13.8024-.6 1.8024-4.572-1.1976-5.9508-.3036 2.4396 2.526 3.5784 5.4396 4.4592 9.0048 2.2536 9.5436 1.566 13.254-.702 19.4256-7.6812 16.1496-17.4972 20.9688-26.0856 26.9508-.2292.0816-.3816 4.098 2.8488 6.27 1.1136 1.1688 5.5932 1.7688 10.8612.0816 10.1784-5.5512 20.7456-15.7764 25.9908-27.168 1.5228-8.6172-.5892-17.754-2.8296-25.722-3.3756-7.788-7.3512-18.9072-7.3512-19.0908-.1308-4.8564.264-6.5412 2.394-8.964z"/>
    <path d="M434.544828 36.498c4.8972 2.3352 14.1036 1.3416 13.7148-6.5544 0-.6984-.1776-3.0612-.2472-3.7008-.9996-2.328-3.7272-1.7532-4.3452.6504-.1944.7872.3468 2.0688-.366 2.4648-.4092.4128-1.974.1704-1.9092-2.0112 0-.6948-.5124-1.4424-.8208-1.8828-.3096-.2028-.5064-.2592-1.0668-.2592-.6828.0276-.672.2052-1.0464.7788-.1584.5844-.378 1.1556-.378 1.818-.0852.7764-.378 1.0536-.9492 1.1676-.6384 0-.4944.0708-1.0116-.2592-.3072-.336-.6912-.4644-.6912-1.038 0-.594-.1344-1.5552-.3132-1.9476-.2712-.3576-.7068-.5232-1.1976-.6492-2.6748.0096-2.8596 3.06-2.706 4.218-.2004.2184-.3144 5.6904 3.3336 7.2048z"/>
    <path d="M578.094828 97.2588c4.8972 2.3352 16.554.9912 13.7148-6.5544 0-.6984-.1776-3.0612-.2472-3.7008-.9996-2.328-3.7272-1.7532-4.3452.6504-.1944.7872.3468 2.0688-.366 2.4648-.4092.4128-1.974.1704-1.9092-2.0112 0-.6948-.5124-1.4424-.8208-1.8828-.3096-.2028-.5064-.2592-1.0668-.2592-.6828.0276-.672.2052-1.0464.7788-.1584.5844-.378 1.1556-.378 1.818-.0852.7764-.378 1.0536-.9492 1.1676-.6384 0-.4944.0708-1.0116-.2592-.3072-.336-.6912-.4644-.6912-1.038 0-.594-.1344-1.5552-.3132-1.9476-.2712-.3576-.7068-.5232-1.1976-.6492-2.6748.0096-2.8596 3.06-2.706 4.218-.2004.2184-.3144 5.6904 3.3336 7.2048z"/>
    <path d="M661.802028 72.1104c4.8972 2.3352 14.1036 1.3416 13.7148-6.5544 0-.6984-.1776-3.0612-.2472-3.7008-.9996-2.328-3.7272-1.7532-4.3452.6504-.1944.7872.3468 2.0688-.366 2.4648-.4092.4128-1.974.1704-1.9092-2.0112 0-.6948-.5124-1.4424-.8208-1.8828-.3096-.2028-.5064-.2592-1.0668-.2592-.6828.0276-.672.2052-1.0464.7788-.1584.5844-.378 1.1556-.378 1.818-.0852.7764-.378 1.0536-.9492 1.1676-.6384 0-.4944.0708-1.0116-.2592-.3072-.336-.6912-.4644-.6912-1.038 0-.594-.1344-1.5552-.3132-1.9476-.2712-.3576-.7068-.5232-1.1976-.6492-2.6748.0096-2.8596 3.06-2.706 4.218-.2004.2184-.3144 5.6904 3.3336 7.2048z"/>
    <path d="M705.156828 135.27c-8.5344 9.618-4.7712 25.5264-2.844 28.9536 2.814 5.6292 5.0796 9.24 10.5552 12.024 4.9872 3.6708 8.8728 1.3764 11.0148-1.194 5.0184-5.2008 5.0784-18.4788 7.434-21.1104 1.6524-4.8336 5.8128-4.008 7.8324-1.866 1.9572 2.814 4.2624 4.6284 7.1376 6.1596 4.6812 4.1292 10.2708 4.884 15.7776 1.1208 3.7632-2.1108 6.21-4.8384 8.4132-10.2528 2.448-6.5472 1.0836-36.7956.594-54.7236-.1884-1.4064-4.8648-24.654-4.8648-24.9132 0-.2604-.618-11.8644-1.1328-14.6292-.09-1.122-.3684-1.4448.8076-1.302 1.2468 1.0488 1.4172 1.1148 2.196 1.4604 1.2588.2304 2.3856-1.9116 1.626-3.8832-3.894-7.182-7.788-14.3652-11.682-21.5472-.9372-.9228-2.148-1.9368-3.6348.2604-1.4208 1.2456-2.934 3.5004-2.8872 6.3984.3456 5.106 1.2432 10.302 1.5888 15.408 1.5576 8.7396 3.1164 17.4804 4.674 26.22 1.4712 18.6912 1.8396 33.9876 3.3108 52.6788-.2064 7.914-2.6664 14.814-4.974 15.81 0 0-3.5112 2.0352-5.8656-.2124-1.7124-.6876-8.5668-11.4228-8.5668-11.4228-3.504-3.2124-5.814-2.2944-8.3076 0-6.876 6.6396-9.9876 19.0608-14.6604 27.6276-1.2048 1.9116-4.6104 3.5484-8.3832-.1392-9.582-13.0908-3.966-31.7148-5.1588-26.9256z"/>
    <path d="M663.999228 26.262c4.3872 1.836 7.482 10.7232 6.4728 15.0624-.8736 5.3676-3.2004 11.1648-4.8732 10.41-1.818-.6744 1.2396-5.3352-.5076-10.2264-.9708-3.1836-6.9576-9-6.3276-10.7148-1.236-3.5928 2.5452-5.1648 5.2356-4.5312z"/>
    <path d="M719.282028 140.5416c.9228-10.6716-.6348-17.1792-.912-23.4516-.276-6.2724-7.0944-54.132-8.4768-58.878-1.668-8.9736 6.6276-1.2036 5.7216-6.4224-2.8704-6.5796-10.0128-16.1604-12.2556-21.876-1.3488-2.4492-.7824-4.6272-3.8028-.6444-2.8008 9.1572-3.7728 16.6416-2.7036 22.3284 7.194 37.5432 14.5716 68.7588 13.4004 104.4972 3.4116.0228 7.344-7.806 9.0288-15.5532z"/>
    <path d="M794.242428 41.3868c3.9996 1.9884 6.342 13.1256 5.9004 16.3068-.7956 5.8116-2.9172 12.0876-4.4424 11.2704-1.6572-.7296.3324-8.6184-.4632-11.0712-.8844-3.4464-6.342-9.744-5.7684-11.6004-1.1268-3.8892 2.3208-5.5908 4.7736-4.9056z"/>
    <path d="M496.989228 120.36c3.8256 1.4604 6.0684 9.6444 5.646 11.9832-.7632 4.2696-2.7936 8.8812-4.2504 8.2812-1.5864-.5364.318-6.3336-.444-8.136-.3228-4.3716-5.6328-6.6348-5.5212-8.5236-.9912-3.4716 2.2212-4.11 4.5696-3.6048z"/>
    <path d="M589.424028 132.6432c4.938.3132 7.4052 4.188 2.7804 5.8128-4.5624 1.5624-8.9472 2.7828-8.9676 9.3756 1.6872 9.1872-2.3148 6.0348-4.7016 4.7868-2.8128-2.0196-10.7064-6.882-11.8308-17.382-.1692-2.5056 1.7844-4.614 4.9296-4.5996 4.7376 1.2876 11.7276 1.3812 17.79 2.0064z" fill="#006421"/>
    <path d="M394.731228 23.6136c5.6448 1.7016 5.9784 9.9984 5.562 12.4236-.7524 4.4268-2.7516 9.2076-4.188 8.5848-1.5624-.5556-.0612-6.5652-.8112-8.4348-.8364-2.6256-5.6064-7.422-5.0652-8.8356-1.062-2.964 2.1888-4.2612 4.5024-3.738z"/>
    <path d="M506.207628 62.7312c-4.3308 2.3424-6.0108 9.3252-3.3144 13.3908 2.5188 3.5808 6.4968 2.2536 7.0272 2.2536 4.2432.5304 6.7608-7.9548 6.7608-7.9548s.1332-2.3856-4.9056 2.1228c-2.1204.3972-2.3856-.3984-2.916-1.5924-.4416-2.2092-.354-4.4184.6624-6.6288.7512-2.1204-.8844-3.0492-3.3144-1.5912z"/>
    <path d="M538.690428 20.4072c-2.1768 1.4592-6.5088 5.9472-6.6408 11.118-.132 2.9172-.6756 2.9088 1.2348 4.7652 1.38 1.9896 2.772 1.8108 5.5572.3516 1.5996-1.1784 2.1408-1.9608 2.6796-3.9372.6636-3.3144-3.504 1.572-4.0344-2.1168-.9276-3.4248 1.7484-4.8264 4.2672-8.1408.084-2.2704.0348-3.8784-3.0636-2.04z"/>
    <path d="M564.862428 25.056c-.9384 2.0724-2.0628 12.8976-1.8756 12.8976-.7488 3.2256 3.3756 4.6056 5.2512.4596 2.8116-7.6008 2.8116-10.8252 3-14.0496-.876-4.9116-4.188-4.758-6.3756.6924z"/>
    <path d="M729.862428 109.0176c.5628-.5628 23.2512-16.6872 23.2512-16.6872 2.3124-.8124 1.812 8.3124.75 8.25.4368 1.812-22.3752 17.3124-24.0012 16.6872-1.1244.8124-2.25-6.2496 0-8.25z"/>
    <path d="M750.554028 108.8868c3.9996 1.9884 5.592 13.6884 5.1504 16.8696.1416 6.1872-3.8544 11.1504-5.3796 10.3332-1.6572-.7296.1452-7.6812-.6504-10.134-.8844-3.4464-4.2804-9.9312-3.7068-11.7876-1.1268-3.8892 2.1336-5.9664 4.5864-5.2812z"/>
    <path d="M615.597228 159.2688c1.578-2.3064 6.4524-5.6256 6.5628-5.6256 2.2488-1.1256 4.446.882 4.3128.75.3744 2.25-1.4232 4.344-.8604 7.3452.492 1.2096.852 2.5524 3.0684 2.04 3.6024-2.8344 6.9396-3.0168 10.542-3.198 2.7612.1668 2.8704 4.8408 1.1244 4.8756-6.6516 1.446-9.6324 3.2268-14.382 5.04-2.25 1.3116-4.1808-.3528-4.1808-.54s-1.3164-1.2768-.3972-4.2576c.1632-2.3904-.7992-3.7008-2.79-3.4296-1.5.8112-2.8212 1.3488-3.5712-.3756-.2952-1.2732-.3912-1.8924.5712-2.6244z"/>
    <path d="M774.423228 165.57c.972 1.2372 1.6008 2.382-.078 4.4148-1.5912 1.458-2.712 2.2608-4.3032 3.7188-.7512 1.2816-1.2312 3.2256 1.0668 3.8448 4.2432 1.1928 14.0544-5.1708 14.0544-5.304 1.5912-1.1928 1.0608-3.4464.9276-3.4464-.9276-1.0608-3.018-.4308-4.4244-.6024-.6696 0-2.8656-.3324-1.8204-2.2764.8724-1.2096 1.1844-1.95 1.776-3.4404.6624-1.458.0936-2.4312-2.2932-3.2268-2.4312-.4416-3.402-.2208-6.0984 0-1.458.3096-1.956.9612-2.2212 2.7288.1044 2.6808 1.7352 2.5284 3.414 3.5892z"/>
    <g fill="#006421" transform="matrix(1.2 0 0 1.2 155.924028 -121.0068)">
      <ellipse cx="381.25159" cy="181.37419" rx="3.437515" ry="3.125015" transform="matrix(.86563 .50068 -.30041 .51938 105.273 -102.9752)"/>
      <ellipse cx="381.25159" cy="181.37419" rx="3.437515" ry="3.125015" transform="matrix(.31678 .69557 -.5691 .13939 278.8449 -160.9473)"/>
    </g>
  </g>
  <g transform="translate(600 310)">
    <g id="a">
      <path id="b" d="M0-60V0h30" transform="rotate(17.9999993 3.3e-7 -60.000002)"/>
      <use transform="scale(-1 1)" xlink:href="#b"/>
    </g>
    <use transform="rotate(72.0000003)" xlink:href="#a"/>
    <use transform="rotate(143.9999996)" xlink:href="#a"/>
    <use transform="rotate(-143.9999996)" xlink:href="#a"/>
    <use transform="rotate(-72.0000003)" xlink:href="#a"/>
  </g>
</svg>
