<svg viewBox="-5 -5 945 630" xmlns="http://www.w3.org/2000/svg">
  <path d="M-5-5h945v630H-5z" fill="#fff"/>
  <g fill="#0038a8">
    <path d="M345 65h595v70H345z"/>
    <path d="M345 205h595v70H345z"/>
    <path d="M-5 345h945v70H-5z"/>
    <path d="M-5 485h945v70H-5z"/>
  </g>
  <g transform="matrix(3.77953 0 0 3.77953 234.28536 -392.51935)">
    <g stroke="#7b3f00" stroke-miterlimit="20">
      <g fill="#fcd116">
        <path d="M-19.10564 157.88802l3.065521 4.57751c-12.596494 9.11582-4.906177 14.5064-13.832833 17.42431 5.55205-5.41829-.733866-6.25397 3.94396-17.54724" stroke-linecap="square" stroke-width=".611"/>
        <g stroke-width=".6">
          <path d="M-24.8941547 153.75336883l-1.06913308 5.40443361c-15.35292896-2.46120269-13.72677113 6.78838905-22.10213922 2.53956027 7.75719861.09458591 4.0785563-5.00988967 15.3718283-9.68771611" stroke-linecap="square" stroke-width=".61119"/>
          <path d="M-24.89376488 153.75430994l-2.41876898-.43586992.0248653.09995788c-6.45323107 1.58146732-9.95717852 4.2567073-12.7016736 6.28990727-1.372913 1.01632434-2.5573717 1.88071587-3.84200434 2.34887883a5.7634979 5.7634979 0 01-2.66529842.32117503c6.66178714 2.36646516 6.22066293-5.51283822 20.53413678-3.21867438z" fill="#7b3f00" stroke-linecap="square" stroke-width=".27809145"/>
          <path d="M-27.361095 153.12134757c-13.01401574 3.18543331-14.24461708 10.86189779-20.704332 8.57601514" fill="none" stroke-width=".61119"/>
        </g>
        <path d="M-17.008929 148.83334l-4.321748-4.32175-19.447867 28.09136 28.091363-19.44786-4.321748-4.32175-23.769615 23.76961" stroke-width=".611"/>
        <g stroke-width=".6">
          <path d="M-26.06361133 146.73662919l-4.57750292 3.0655204c-9.11582709-12.59649331-14.50640891-4.90617702-17.42431285-13.83283226 5.41828542 5.5520501 6.30584405-.72353118 17.59911608 3.95429524" stroke-linecap="square" stroke-width=".61119"/>
          <path d="M-26.06400115 146.7375703l-1.40212138-2.01853454-.05309848.08826332c-5.68138972-3.4448572-10.05073507-4.03084186-13.42907564-4.53380346-1.68944593-.25214626-3.13820182-.47846792-4.37761548-1.05579917a5.76349792 5.76349792 0 01-2.11175564-1.65754555c3.03725132 6.38393844 8.29683825.50050765 16.79577388 12.2438809z" fill="#7b3f00" stroke-linecap="square" stroke-width=".27809145"/>
          <path d="M-27.36109503 144.54533244c-11.4547403-6.9498573-17.75298696-2.39194375-20.70433207-8.5760151" fill="none" stroke-width=".61119"/>
          <path d="M-17.008929 148.83334v-6.1118748l-33.6153114 6.1118748 33.6153114 6.1118748V148.83334h-33.6153114" stroke-width=".61119"/>
          <path d="M-17.008929 148.83334v6.1118748-6.1118748h-33.6153114l33.6153114 6.1118748" fill="#7b3f00" stroke="none"/>
          <g>
            <path d="M-21.92895782 140.94811432l-5.4044336-1.06913308c2.46120268-15.35292894-6.78838904-13.7267711-2.53956027-22.10213918-.09458591 7.7571986 5.27186286 4.6988759 9.9496893 15.99214788" stroke-linecap="square" stroke-width=".61119"/>
            <path d="M-21.92989893 140.94850414l.43586992-2.41876898-.09995788.0248653c-1.58146732-6.45323106-4.2567073-9.9571785-6.28990727-12.70167358-1.01632433-1.372913-1.88071586-2.55737169-2.34887882-3.84200433a5.7634979 5.7634979 0 01-.32117503-2.66529842c-2.36646515 6.66178713 5.51283821 6.22066292 3.21867437 20.53413674z" fill="#7b3f00" stroke-linecap="square" stroke-width=".27809145"/>
            <path d="M-21.29693656 138.48117402c-3.18543331-13.01401572-10.86189778-14.24461706-8.57601513-20.70433196" fill="none" stroke-width=".61119"/>
            <path d="M-17.008929 148.83334l4.3217481-4.3217481-28.09136265-19.44786645 19.44786645 28.09136265 4.3217481-4.3217481-23.76961455-23.76961455" stroke-width=".61119"/>
            <path d="M-17.008929 148.83334l-4.3217481 4.3217481 4.3217481-4.3217481-23.76961455-23.76961455 19.44786645 28.09136265" fill="#7b3f00" stroke="none"/>
          </g>
          <g>
            <path d="M-14.91221819 139.77865767l-3.0655204-4.57750292c12.59649331-9.11582709 4.90617702-14.50640891 13.83283226-17.42431285-5.5520501 5.41828542.7017674 6.31182751-3.97605902 17.60509955" stroke-linecap="square" stroke-width=".61119"/>
            <path d="M-14.9131593 139.77826785l2.01853454-1.40212138-.08826332-.05309848c3.4448572-5.68138972 4.03084186-10.05073507 4.53380346-13.42907564.25214626-1.68944593.47846792-3.13820182 1.05579917-4.37761548a5.76349792 5.76349792 0 011.65754555-2.11175564c-6.38393844 3.03725132-.50050765 8.29683825-12.2438809 16.79577388z" fill="#7b3f00" stroke-linecap="square" stroke-width=".27809145"/>
            <path d="M-12.72092144 138.48117397c6.9498573-11.4547403 2.39194375-17.75298696 8.5760151-20.70433207" fill="none" stroke-width=".61119"/>
            <path d="M-17.008929 148.83334h6.1118748l-6.1118748-33.6153114-6.1118748 33.6153114h6.1118748v-33.6153114" stroke-width=".61119"/>
            <path d="M-17.008929 148.83334h-6.1118748 6.1118748v-33.6153114l-6.1118748 33.6153114" fill="#7b3f00" stroke="none"/>
            <g>
              <path d="M-9.1237033 143.91331117l1.06913308-5.40443362c15.35292897 2.4612027 13.72677114-6.78838905 22.10213923-2.53956027-7.75719861-.09458591-4.3012864 5.03545631-15.5945584 9.71328276" stroke-linecap="square" stroke-width=".61119"/>
              <path d="M-9.12409312 143.91237006l2.41876899.43586992-.0248653-.09995789c6.45323107-1.58146731 9.95717852-4.2567073 12.7016736-6.28990727 1.372913-1.01632434 2.5573717-1.88071587 3.84200434-2.34887883a5.7634979 5.7634979 0 012.66529842-.32117503c-6.66178714-2.36646516-6.22066292 5.51283822-20.53413678 3.21867438z" fill="#7b3f00" stroke-linecap="square" stroke-width=".27809145"/>
              <path d="M-6.656763 144.54533243c13.01401575-3.18543332 14.2446171-10.8618978 20.70433201-8.57601515" fill="none" stroke-width=".61119"/>
              <path d="M-17.008929 148.83334l4.32174811 4.32174811 19.4478665-28.09136271-28.09136272 19.44786649L-17.008929 148.83334l23.7696146-23.7696146" stroke-width=".61119"/>
              <path d="M-17.008929 148.83334l-4.32174811-4.32174811L-17.008929 148.83334l23.7696146-23.7696146-28.09136271 19.44786649" fill="#7b3f00" stroke="none"/>
            </g>
          </g>
          <g>
            <path d="M-7.95424667 150.93005081l4.57750292-3.0655204c9.11582709 12.59649331 14.50640891 4.90617702 17.42431285 13.83283226-5.41828542-5.5520501-6.43535597.6606083-17.728628-4.01721812" stroke-linecap="square" stroke-width=".61119"/>
            <path d="M-7.95385685 150.9291097l1.40212138 2.01853454.05309848-.08826332c5.68138972 3.4448572 10.05073507 4.03084186 13.42907564 4.53380346 1.68944593.25214626 3.13820182.47846792 4.37761548 1.05579917a5.76349792 5.76349792 0 012.11175564 1.65754555c-3.03725132-6.38393844-8.29683825-.50050765-16.79577388-12.2438809z" fill="#7b3f00" stroke-linecap="square" stroke-width=".27809145"/>
            <path d="M-6.65676297 153.12134756c11.4547403 6.9498573 17.75298696 2.39194375 20.70433207 8.5760151" fill="none" stroke-width=".61119"/>
            <path d="M-17.008929 148.83334v6.1118748l33.6153114-6.1118748-33.6153114-6.1118748v6.1118748h33.6153114" stroke-width=".61119"/>
            <path d="M-17.008929 148.83334v-6.1118748 6.1118748h33.6153114l-33.6153114-6.1118748" fill="#7b3f00" stroke="none"/>
          </g>
          <g>
            <path d="M-12.08890018 156.71856568l5.4044336 1.06913308c-2.46120268 15.35292894 6.78838904 13.7267711 2.53956027 22.10213918.09458591-7.7571986-5.01276087-4.16450234-9.6905873-15.45777432" stroke-linecap="square" stroke-width=".61119"/>
            <path d="M-12.08795907 156.71817586l-.43586992 2.41876898.09995788-.0248653c1.58146732 6.45323106 4.2567073 9.9571785 6.28990727 12.70167358 1.01632433 1.372913 1.88071586 2.55737169 2.34887882 3.84200433a5.7634979 5.7634979 0 01.32117503 2.66529842c2.36646515-6.66178713-5.51283821-6.22066292-3.21867437-20.53413674z" fill="#7b3f00" stroke-linecap="square" stroke-width=".27809145"/>
            <path d="M-12.72092144 159.18550598c3.18543331 13.01401572 10.86189778 14.24461706 8.57601513 20.70433196" fill="none" stroke-width=".61119"/>
            <path d="M-17.008929 148.83334l-4.3217481 4.3217481 28.09136265 19.44786645-19.44786645-28.09136265-4.3217481 4.3217481 23.76961455 23.76961455" stroke-width=".61119"/>
            <path d="M-17.008929 148.83334l4.3217481-4.3217481-4.3217481 4.3217481 23.76961455 23.76961455-19.44786645-28.09136265" fill="#7b3f00" stroke="none"/>
          </g>
        </g>
      </g>
      <path d="M-19.104699 157.88841l-2.018534 1.40212.08826.0531c-3.444857 5.68139-4.030842 10.05074-4.533803 13.42908-.252147 1.68944-.478468 3.1382-1.0558 4.37761a5.763498 5.763498 0 01-1.657545 2.11176c6.383938-3.03725.500508-8.29684 12.243881-16.79578z" fill="#7b3f00" stroke-linecap="square" stroke-width=".278"/>
      <g stroke-width=".611">
        <path d="M-21.296937 159.18551c-6.949857 11.45474-2.391943 17.75298-8.576015 20.70433" fill="none"/>
        <path d="M-17.008929 148.83334h-6.111875l6.111875 33.61531 6.111875-33.61531h-6.111875v33.61531" fill="#fcd116"/>
      </g>
    </g>
    <path d="M-17.008929 148.83334h6.111875-6.111875v33.61531l6.111875-33.61531" fill="#7b3f00"/>
    <path d="M-17.008929 148.83334l4.321748 4.32175-4.321748-4.32175-23.769615 23.76961 28.091363-19.44786" fill="#7b3f00"/>
    <circle cx="-17.009" cy="148.833" fill="#fcd116" r="11.205" stroke="#7b3f00" stroke-miterlimit="20" stroke-width=".611"/>
    <g fill="#7b3f00">
      <path d="M-8.757898 144.3513c-.7130521.81492-1.1205104-.61119-3.667125-.61119-2.546614 0-2.954073 1.52797-3.361531 1.22238-.407458-.3056 2.139156-2.13916 2.954073-2.24102.814916-.10187 3.1578018.71305 4.074583 1.62983m-2.954073.91678c.713052.61119.101865 1.93543-.611187 1.93543s-2.037292-1.22238-1.426104-2.03729"/>
      <path d="M-15.073502 146.18486c.101865-1.22237 1.12051-1.4261 2.750344-1.4261 1.629833 0 2.342885 1.22237 2.9540725 1.52797-.7130525 0-1.3242395-1.01865-2.9540725-1.01865-1.629834 0-1.629834 0-2.750344 1.01865m.305594.20372c.407458-.61118.916781.61119 2.037291.61119 1.120511 0 1.731698-.30559 2.44475-.81491.7130523-.50933-1.018646 1.22237-2.139156 1.22237s-2.648479-.61119-2.342885-1.01865"/>
      <path d="M-22.713491 145.16638c-.509323.20373-1.324239 1.22223 0 1.93528-1.018646-.71305-.203729-1.73155 0-1.93528z"/>
      <path d="M-11.304367 145.16638c.203729.20373 1.018646 1.22223 0 1.93528 1.3242394-.71305.509323-1.73155 0-1.93528z"/>
      <path d="M-18.638805 149.54648c-.916781.20372-.611351 1.52801-1.426268 1.62987-.814916.10187-1.222211 1.0186-1.120346.91674.509323-.40746 1.629897-.71313 2.444813-.71313.814917 0 1.018625.50952 1.731677.50952s.91676-.50952 1.731677-.50952c.814916 0 1.93549.30567 2.444813.71313.101865.10186-.30543-.81487-1.120346-.91674-.814917-.10186-.509487-1.42615-1.426268-1.62987 0 .40745.305345.30555.407209.91674 0 .50932-.916617.50932-1.120346 0 .203729.81491-.407416.81493-.916739.81493s-1.120468-.00002-.916739-.81493c-.203729.50932-1.120346.50932-1.120346 0 .101864-.61119.407209-.50929.407209-.91674z"/>
      <path d="M-21.796749 153.00983c-.814917.61119-1.018482.91682-1.120347 1.62987.244322-.42756.36431-.60327.549839-.85472-.0491-.0211-.09131-.0405-.142111-.062.0593.007.112419.0163.169498.0243.123195-.1664.232648-.31052.543121-.73742z"/>
      <path d="M-22.33987 153.74725c-.0029.004-.01005.0137-.01291.0176.127347.0296.26244.0434.404112.0439-.124442-.022-.255239-.0425-.391192-.0615z"/>
      <path d="M-21.948678 153.80875c.635232.11214 1.133961.2583 1.591116.40617.570162-.0422 1.356604-.18655 3.348633-.18655s2.778471.14436 3.348633.18655c.457155-.14787.955884-.29403 1.591116-.40617-1.122478.004-2.618591-.79892-3.309873-.79892-.814917 0-1.018689.20361-1.629876.20361s-.814959-.20361-1.629876-.20361c-.691282 0-2.187395.80298-3.309873.79892z"/>
      <path d="M-12.06918 153.80875c.141672-.00053.276765-.0143.404112-.0439-.0029-.004-.01-.0136-.01291-.0176-.135953.019-.26675.0395-.391192.0615z"/>
      <path d="M-11.677988 153.74725c.05708-.008.110196-.0169.169498-.0243-.0508.0215-.09301.0409-.142111.062.185529.25145.305517.42716.549839.85472-.101865-.71305-.30543-1.01868-1.120347-1.62987.310473.4269.419926.57102.543121.73742z"/>
      <path d="M-11.650601 153.78498c-.0011-.002-.004-.006-.0052-.007-1.063112.40958-1.437402.47916-2.004528.43718-.965814.31241-1.761951.62839-3.348633.62839s-2.382819-.31598-3.348633-.62839c-.567126.042-.941416-.0276-2.004528-.43718-.0011.002-.004.006-.0052.007 3.200048 1.37735 2.8502 1.87327 5.358328 1.87327s2.15828-.49592 5.358328-1.87327z"/>
      <path d="M-22.36209 153.77774c.0021-.003.0072-.0101.0093-.0129-.0531-.0123-.10655-.0236-.156578-.0419.05815.0228.09302.0339.147278.0548z"/>
      <path d="M-11.655768 153.77774c.05426-.0209.08913-.032.147278-.0548-.05003.0182-.103476.0295-.156578.0418.0021.003.0072.0101.0093.0129z"/>
      <path d="M-25.25995998 144.35129848c.71305206.81491664 1.12051038-.61118748 3.66712488-.61118748s2.95407282 1.5279687 3.36153114 1.22237496-2.13915618-2.13915618-2.95407282-2.24102076-3.15780198.71305206-4.0745832 1.62983328m2.95407282.91678122c-.71305206.61118748-.10186458 1.93542702.61118748 1.93542702s2.0372916-1.22237496 1.42610412-2.0372916"/>
      <path d="M-18.94435602 146.18486092c-.10186458-1.22237496-1.12051038-1.42610412-2.75034366-1.42610412s-2.34288534 1.22237496-2.95407282 1.5279687c.71305206 0 1.32423954-1.0186458 2.95407282-1.0186458s1.62983328 0 2.75034366 1.0186458m-.30559374.20372916c-.40745832-.61118748-.91678122.61118748-2.0372916.61118748s-1.73169786-.30559374-2.44474992-.81491664 1.0186458 1.22237496 2.13915618 1.22237496 2.64847908-.61118748 2.34288534-1.0186458"/>
      <path d="M-17.008929 156.57505c-.509323 0-1.833562.30559 0 .30559s.509323-.30559 0-.30559"/>
    </g>
  </g>
</svg>
